<?xml version="1.0" encoding="UTF-8" standalone="no"?>
<svg
   xmlns:dc="http://purl.org/dc/elements/1.1/"
   xmlns:cc="http://creativecommons.org/ns#"
   xmlns:rdf="http://www.w3.org/1999/02/22-rdf-syntax-ns#"
   xmlns:svg="http://www.w3.org/2000/svg"
   xmlns="http://www.w3.org/2000/svg"
   xmlns:sodipodi="http://sodipodi.sourceforge.net/DTD/sodipodi-0.dtd"
   xmlns:inkscape="http://www.inkscape.org/namespaces/inkscape"
   width="697.10718"
   height="578.08258"
   id="svg2"
   version="1.1"
   inkscape:version="0.91 r13725"
   sodipodi:docname="AVP GRK LAW PHF SPS.svg"
   inkscape:export-filename="C:\Users\paulb\Dropbox\Projects\Terminal Silhouettes\Silhouettes\Misc\AVP GRK LAW PHF SPS.png"
   inkscape:export-xdpi="90"
   inkscape:export-ydpi="90">
  <metadata
     id="metadata65">
    <rdf:RDF>
      <cc:Work
         rdf:about="">
        <dc:format>image/svg+xml</dc:format>
        <dc:type
           rdf:resource="http://purl.org/dc/dcmitype/StillImage" />
        <dc:title>Blank US states map</dc:title>
        <cc:license
           rdf:resource="http://creativecommons.org/licenses/by-sa/3.0/" />
        <dc:contributor>
          <cc:Agent>
            <dc:title>Based on Blank US Map (states only) by Theshibboleth
https://commons.wikimedia.org/wiki/File:Blank_US_Map_(states_only).svg</dc:title>
          </cc:Agent>
        </dc:contributor>
        <dc:creator>
          <cc:Agent>
            <dc:title>Paul Bogard</dc:title>
          </cc:Agent>
        </dc:creator>
      </cc:Work>
      <cc:License
         rdf:about="http://creativecommons.org/licenses/by-sa/3.0/">
        <cc:permits
           rdf:resource="http://creativecommons.org/ns#Reproduction" />
        <cc:permits
           rdf:resource="http://creativecommons.org/ns#Distribution" />
        <cc:requires
           rdf:resource="http://creativecommons.org/ns#Notice" />
        <cc:requires
           rdf:resource="http://creativecommons.org/ns#Attribution" />
        <cc:permits
           rdf:resource="http://creativecommons.org/ns#DerivativeWorks" />
        <cc:requires
           rdf:resource="http://creativecommons.org/ns#ShareAlike" />
      </cc:License>
    </rdf:RDF>
  </metadata>
  <defs
     id="defs63">
    <filter
       y="-0.25"
       height="1.5"
       inkscape:menu-tooltip="Darkens the edge with an inner blur and adds a flexible glow"
       inkscape:menu="Shadows and Glows"
       inkscape:label="Dark And Glow"
       style="color-interpolation-filters:sRGB"
       id="filter5032">
      <feGaussianBlur
         stdDeviation="5"
         result="result6"
         id="feGaussianBlur5034" />
      <feComposite
         result="result8"
         in="SourceGraphic"
         operator="atop"
         in2="result6"
         id="feComposite5036" />
      <feComposite
         result="result9"
         operator="over"
         in2="SourceAlpha"
         in="result8"
         id="feComposite5038" />
      <feColorMatrix
         values="1 0 0 0 0 0 1 0 0 0 0 0 1 0 0 0 0 0 1 0 "
         result="result10"
         id="feColorMatrix5040" />
      <feBlend
         in="result10"
         mode="normal"
         in2="result6"
         id="feBlend5042" />
    </filter>
    <filter
       y="-0.25"
       height="1.5"
       inkscape:menu-tooltip="Darkens the edge with an inner blur and adds a flexible glow"
       inkscape:menu="Shadows and Glows"
       inkscape:label="Dark And Glow"
       style="color-interpolation-filters:sRGB"
       id="filter5044">
      <feGaussianBlur
         stdDeviation="5"
         result="result6"
         id="feGaussianBlur5046" />
      <feComposite
         result="result8"
         in="SourceGraphic"
         operator="atop"
         in2="result6"
         id="feComposite5048" />
      <feComposite
         result="result9"
         operator="over"
         in2="SourceAlpha"
         in="result8"
         id="feComposite5050" />
      <feColorMatrix
         values="1 0 0 0 0 0 1 0 0 0 0 0 1 0 0 0 0 0 1 0 "
         result="result10"
         id="feColorMatrix5052" />
      <feBlend
         in="result10"
         mode="normal"
         in2="result6"
         id="feBlend5054" />
    </filter>
    <filter
       y="-0.25"
       height="1.5"
       inkscape:menu-tooltip="Darkens the edge with an inner blur and adds a flexible glow"
       inkscape:menu="Shadows and Glows"
       inkscape:label="Dark And Glow"
       style="color-interpolation-filters:sRGB"
       id="filter5056">
      <feGaussianBlur
         stdDeviation="5"
         result="result6"
         id="feGaussianBlur5058" />
      <feComposite
         result="result8"
         in="SourceGraphic"
         operator="atop"
         in2="result6"
         id="feComposite5060" />
      <feComposite
         result="result9"
         operator="over"
         in2="SourceAlpha"
         in="result8"
         id="feComposite5062" />
      <feColorMatrix
         values="1 0 0 0 0 0 1 0 0 0 0 0 1 0 0 0 0 0 1 0 "
         result="result10"
         id="feColorMatrix5064" />
      <feBlend
         in="result10"
         mode="normal"
         in2="result6"
         id="feBlend5066" />
    </filter>
    <filter
       y="-0.25"
       height="1.5"
       inkscape:menu-tooltip="Darkens the edge with an inner blur and adds a flexible glow"
       inkscape:menu="Shadows and Glows"
       inkscape:label="Dark And Glow"
       style="color-interpolation-filters:sRGB"
       id="filter5068">
      <feGaussianBlur
         stdDeviation="5"
         result="result6"
         id="feGaussianBlur5070" />
      <feComposite
         result="result8"
         in="SourceGraphic"
         operator="atop"
         in2="result6"
         id="feComposite5072" />
      <feComposite
         result="result9"
         operator="over"
         in2="SourceAlpha"
         in="result8"
         id="feComposite5074" />
      <feColorMatrix
         values="1 0 0 0 0 0 1 0 0 0 0 0 1 0 0 0 0 0 1 0 "
         result="result10"
         id="feColorMatrix5076" />
      <feBlend
         in="result10"
         mode="normal"
         in2="result6"
         id="feBlend5078" />
    </filter>
    <filter
       y="-0.25"
       height="1.5"
       inkscape:menu-tooltip="Darkens the edge with an inner blur and adds a flexible glow"
       inkscape:menu="Shadows and Glows"
       inkscape:label="Dark And Glow"
       style="color-interpolation-filters:sRGB"
       id="filter5080">
      <feGaussianBlur
         stdDeviation="5"
         result="result6"
         id="feGaussianBlur5082" />
      <feComposite
         result="result8"
         in="SourceGraphic"
         operator="atop"
         in2="result6"
         id="feComposite5084" />
      <feComposite
         result="result9"
         operator="over"
         in2="SourceAlpha"
         in="result8"
         id="feComposite5086" />
      <feColorMatrix
         values="1 0 0 0 0 0 1 0 0 0 0 0 1 0 0 0 0 0 1 0 "
         result="result10"
         id="feColorMatrix5088" />
      <feBlend
         in="result10"
         mode="normal"
         in2="result6"
         id="feBlend5090" />
    </filter>
  </defs>
  <sodipodi:namedview
     pagecolor="#ffffff"
     bordercolor="#666666"
     borderopacity="1"
     objecttolerance="10"
     gridtolerance="10"
     guidetolerance="10"
     inkscape:pageopacity="1"
     inkscape:pageshadow="2"
     inkscape:window-width="1920"
     inkscape:window-height="1137"
     id="namedview61"
     showgrid="false"
     inkscape:zoom="1"
     inkscape:cx="116.2033"
     inkscape:cy="403.06648"
     inkscape:window-x="1912"
     inkscape:window-y="-8"
     inkscape:window-maximized="1"
     inkscape:current-layer="layer5"
     fit-margin-top="100"
     fit-margin-left="100"
     fit-margin-right="100"
     fit-margin-bottom="100" />
  <title
     id="title4">Blank US states map</title>
  <g
     inkscape:groupmode="layer"
     id="layer1"
     inkscape:label="Map"
     style="display:inline"
     sodipodi:insensitive="true"
     transform="translate(-282.42236,-48.063574)">
    <path
       style="fill:#e3e3e3;fill-opacity:1"
       inkscape:connector-curvature="0"
       d="m 628.5,466.4 0.6,0.2 1.3,-2.7 1.5,-4.4 2.3,0.6 3.1,6 0,1 -2.7,1.9 2.7,0.3 5.2,-2.5 -0.3,-7.6 -2.5,-1.8 -2,-2 0.4,-4 10.5,-1.5 25.7,-2.9 6.7,-0.6 5.6,0.1 -0.5,-2.2 -1.5,-0.8 -0.9,-1.1 1,-2.6 -0.4,-5.2 -1.6,-4.5 0.8,-5.1 1.7,-4.8 -0.2,-1.7 -1.8,-0.7 -0.5,-3.6 -2.7,-3.4 -2,-6.5 -1.4,-6.7 -1.8,-5 -3.8,-16 -3.5,-7.9 -0.8,-5.6 0.1,-2.2 -9,0.8 -23.4,2.2 -12.2,0.8 -0.2,6.4 0.2,16.7 -0.7,31 -0.3,14.1 2.8,18.8 1.6,14.7 z"
       id="AL" />
    <path
       style="fill:#e3e3e3;fill-opacity:1"
       inkscape:connector-curvature="0"
       d="m 587.3,346.1 -6.4,-0.7 0.9,-3.1 3.1,-2.6 0.6,-2.3 -1.8,-2.9 -31.9,1.2 -23.3,0.7 -23.6,0.3 1.5,6.9 0.1,8.5 1.4,10.9 0.3,38.2 2.1,1.6 3,-1.2 2.9,1.2 0.4,10.1 25.2,-0.2 26.8,-0.8 0.9,-1.9 -0.3,-3.8 -1.7,-3.1 1.5,-1.4 -1.4,-2.2 0.7,-2.4 1.1,-5.9 2.7,-2.3 -0.8,-2.2 4,-5.6 2.5,-1.1 -0.1,-1.7 -0.5,-1.7 2.9,-5.8 2.5,-1.1 0.2,-3.3 2.1,-1.4 0.9,-4.1 -1.4,-4 4.2,-2.4 0.3,-2.1 1.2,-4.2 0.9,-3.1 z"
       id="AR" />
    <path
       style="fill:#e3e3e3;fill-opacity:1"
       inkscape:connector-curvature="0"
       d="m 135.1,389.7 -0.3,1.5 0.5,1 18.9,10.7 12.1,7.6 14.7,8.6 16.8,10 12.3,2.4 25.4,2.7 6,-39.6 7,-53.1 4.4,-31 -24.6,-3.6 -60.7,-11 -0.2,1.1 -2.6,16.5 -2.1,3.8 -2.8,-0.2 -1.2,-2.6 -2.6,-0.4 -1.2,-1.1 -1.1,0.1 -2.1,1.7 -0.3,6.8 -0.3,1.5 -0.5,12.5 -1.5,2.4 -0.4,3.3 2.8,5 1.1,5.5 0.7,1.1 1.1,0.9 -0.4,2.4 -1.7,1.2 -3.4,1.6 -1.6,1.8 -1.6,3.6 -0.5,4.9 -3,2.9 -1.9,0.9 -0.1,5.8 -0.6,1.6 0.5,0.8 3.9,0.4 -0.9,3 -1.7,2.4 -3.7,0.4 z"
       id="AZ" />
    <path
       style="fill:#e3e3e3;fill-opacity:1"
       inkscape:connector-curvature="0"
       d="m 122.7,385.9 -19.7,-2.7 -10,-1.5 -0.5,-1.8 0,-9.4 -0.3,-3.2 -2.6,-4.2 -0.8,-2.3 -3.9,-4.2 -2.9,-4.7 -2.7,-0.2 -3.2,-0.8 -0.3,-1 1.5,-0.6 -0.6,-3.2 -1.5,-2.1 -4.8,-0.8 -3.9,-2.1 -1.1,-2.3 -2.6,-4.8 -2.9,-3.1 -2.9,0 -3.9,-2.1 -4.5,-1.8 -4.2,-0.5 -2.4,-2.7 0.5,-1.9 1.8,-7.1 0.8,-1.9 0,-2.4 -1.6,-1 -0.5,-2.9 -1.5,-2.6 -3.4,-5.8 -1.3,-3.1 -1.5,-4.7 -1.6,-5.3 -3.2,-4.4 -0.5,-2.9 0.8,-3.9 1.1,0 2.1,-1.6 1.1,-3.6 -1,-2.7 -2.7,-0.5 -1.9,-2.6 -2.1,-3.7 -0.2,-8.2 0.6,-1.9 0.6,-2.3 0.5,-2.4 -5.7,-6.3 0,-2.1 0.3,-0.5 0.3,-3.2 -1.3,-4 -2.3,-4.8 -2.7,-4.5 -1.8,-3.9 1,-3.7 0.6,-5.8 1.8,-3.1 0.3,-6.5 -1.1,-3.6 -1.6,-4.2 -2.7,-4.2 0.8,-3.2 1.5,-4.2 1.8,-0.8 0.3,-1.1 3.1,-2.6 5.2,-11.8 0.2,-7.4 1.69,-4.9 38.69,11.8 25.6,6.6 -8,31.3 -8.67,33.1 12.63,19.2 42.16,62.3 17.1,26.1 -0.4,3.1 2.8,5.2 1.1,5.4 1,1.5 0.7,0.6 -0.2,1.4 -1.4,1 -3.4,1.6 -1.9,2.1 -1.7,3.9 -0.5,4.7 -2.6,2.5 -2.3,1.1 -0.1,6.2 -0.6,1.9 1,1.7 3,0.3 -0.4,1.6 -1.4,2 -3.9,0.6 z M 48.8,337 l 1.3,1.5 -0.2,1.3 -3.2,-0.1 -0.6,-1.2 -0.6,-1.5 z m 1.9,0 1.2,-0.6 3.6,2.1 3.1,1.2 -0.9,0.6 -4.5,-0.2 -1.6,-1.6 z m 20.7,19.8 1.8,2.3 0.8,1 1.5,0.6 0.6,-1.5 -1,-1.8 -2.7,-2 -1.1,0.2 0,1.2 z m -1.4,8.7 1.8,3.2 1.2,1.9 -1.5,0.2 -1.3,-1.2 c 0,0 -0.7,-1.5 -0.7,-1.9 0,-0.4 0,-2.2 0,-2.2 z"
       id="CA" />
    <path
       style="fill:#e3e3e3;fill-opacity:1"
       inkscape:connector-curvature="0"
       d="m 380.2,235.5 -36,-3.5 -79.1,-8.6 -2.2,22.1 -7,50.4 -1.9,13.7 34,3.9 37.5,4.4 34.7,3 14.3,0.6 z"
       id="CO" />
    <path
       style="fill:#e3e3e3;fill-opacity:1"
       inkscape:connector-curvature="0"
       d="m 852,190.9 3.6,-3.2 1.9,-2.1 0.8,0.6 2.7,-1.5 5.2,-1.1 7,-3.5 -0.6,-4.2 -0.8,-4.4 -1.6,-6 -4.3,1.1 -21.8,4.7 0.6,3.1 1.5,7.3 0,8.3 -0.9,2.1 1.7,2.2 z"
       id="CT" />
    <path
       style="fill:#e3e3e3;fill-opacity:1"
       inkscape:connector-curvature="0"
       d="m 834.4,247.2 -1,0.5 -3.6,-2.4 -1.8,-4.7 -1.9,-3.6 -2.3,-1 -2.1,-3.6 0.5,-2 0.5,-2.3 0.1,-1.1 -0.6,0.1 -1.7,1 -2,1.7 -0.2,0.3 1.4,4.1 2.3,5.6 3.7,16.1 5,-0.3 6,-1.1 z"
       id="DE" />
    <path
       style="fill:#e3e3e3;fill-opacity:1"
       inkscape:connector-curvature="0"
       d="m 750.2,445.2 -5.2,-0.7 -0.7,0.8 1.5,4.4 -0.4,5.2 -4.1,-1 -0.2,-2.8 -4.1,0 -5.3,0.7 -32.4,1.9 -8.2,-0.3 -1.7,-1.7 -2.5,-4.2 -5.9,0 -6.6,0.5 -35.4,4.2 -0.3,2.8 1.6,1.6 2.9,2 0.3,8.4 3.3,-0.6 6,-2.1 6,-0.5 4.4,-0.6 7.6,1.8 8.1,3.9 1.6,1.5 2.9,1.1 1.6,1.9 0.3,2.7 3.2,-1.3 3.9,0 3.6,-1.9 3.7,-3.6 3.1,0.2 0.5,-1.1 -0.8,-1 0.2,-1.9 4,-0.8 2.6,0 2.9,1.5 4.2,1.5 2.4,3.7 2.7,1 1.1,3.4 3.4,1.6 1.6,2.6 1.9,0.6 5.2,1.3 1.3,3.1 3,3.7 0,9.5 -1.5,4.7 0.3,2.7 1.3,4.8 1.8,4 0.8,-0.5 1.5,-4.5 -2.6,-1 -0.3,-0.6 1.6,-0.6 4.5,1 0.2,1.6 -3.2,5.5 -2.1,2.4 3.6,3.7 2.6,3.1 2.9,5.3 2.9,3.9 2.1,5 1.8,0.3 1.6,-2.1 1.8,1.1 2.6,4 0.6,3.6 3.1,4.4 0.8,-1.3 3.9,0.3 3.6,2.3 3.4,5.2 0.8,3.4 0.3,2.9 1.1,1 1.3,0.5 2.4,-1 1.5,-1.6 3.9,-0.2 3.1,-1.5 2.7,-3.2 -0.5,-1.9 -0.3,-2.4 0.6,-1.9 -0.3,-1.9 2.4,-1.3 0.3,-3.4 -0.6,-1.8 -0.5,-12 -1.3,-7.6 -4.5,-8.2 -3.6,-5.8 -2.6,-5.3 -2.9,-2.9 -2.9,-7.4 0.7,-1.4 1.1,-1.3 -1.6,-2.9 -4,-3.7 -4.8,-5.5 -3.7,-6.3 -5.3,-9.4 -3.7,-9.7 -2.3,-7.3 z m 17.7,132.7 2.4,-0.6 1.3,-0.2 1.5,-2.3 2.3,-1.6 1.3,0.5 1.7,0.3 0.4,1.1 -3.5,1.2 -4.2,1.5 -2.3,1.2 z m 13.5,-5 1.2,1.1 2.7,-2.1 5.3,-4.2 3.7,-3.9 2.5,-6.6 1,-1.7 0.2,-3.4 -0.7,0.5 -1,2.8 -1.5,4.6 -3.2,5.3 -4.4,4.2 -3.4,1.9 z"
       id="FL" />
    <path
       style="fill:#e3e3e3;fill-opacity:1"
       inkscape:connector-curvature="0"
       d="m 750.2,444.2 -5.6,-0.7 -1.4,1.6 1.6,4.7 -0.3,3.9 -2.2,-0.6 -0.2,-3 -5.2,0 -5.3,0.7 -32.3,1.9 -7.7,-0.3 -1.4,-1.2 -2.5,-4.3 -0.8,-3.3 -1.6,-0.9 -0.5,-0.5 0.9,-2.2 -0.4,-5.5 -1.6,-4.5 0.8,-4.9 1.7,-4.8 -0.2,-2.5 -1.9,-0.7 -0.4,-3.2 -2.8,-3.5 -1.9,-6.2 -1.5,-7 -1.7,-4.8 -3.8,-16 -3.5,-8 -0.8,-5.3 0.1,-2.3 3.3,-0.3 13.6,-1.6 18.6,-2 6.3,-1.1 0.5,1.4 -2.2,0.9 -0.9,2.2 0.4,2 1.4,1.6 4.3,2.7 3.2,-0.1 3.2,4.7 0.6,1.6 2.3,2.8 0.5,1.7 4.7,1.8 3,2.2 2.3,3 2.3,1.3 2,1.8 1.4,2.7 2.1,1.9 4.1,1.8 2.7,6 1.7,5.1 2.8,0.7 2.1,1.9 2,5.7 2.9,1.6 1.7,-0.8 0.4,1.2 -3.3,6.2 0.5,2.6 -1.5,4.2 -2.3,10 0.8,6.3 z"
       id="GA" />
    <path
       style="fill:#e3e3e3;fill-opacity:1"
       inkscape:connector-curvature="0"
       d="m 556.8,183.6 2.1,2.1 0.3,0.7 -2,3 0.3,4 2.6,4.1 3.1,1.6 2.4,0.3 0.9,1.8 0.2,2.4 2.5,1 0.9,1.1 0.5,1.6 3.8,3.3 0.6,1.9 -0.7,3 -1.7,3.7 -0.6,2.4 -2.1,1.6 -1.6,0.5 -5.7,1.5 -1.6,4.8 0.8,1.8 1.7,1.5 -0.2,3.5 -1.9,1.4 -0.7,1.8 0,2.4 -1.4,0.4 -1.7,1.4 -0.5,1.7 0.4,1.7 -1.3,1 -2.3,-2.7 -1.4,-2.8 -8.3,0.8 -10,0.6 -49.2,1.2 -1.6,-4.3 -0.4,-6.7 -1.4,-4.2 -0.7,-5.2 -2.2,-3.7 -1,-4.6 -2.7,-7.8 -1.1,-5.6 -1.4,-1.9 -1.3,-2.9 1.7,-3.8 1.2,-6.1 -2.7,-2.2 -0.3,-2.4 0.7,-2.4 1.8,-0.3 61.1,-0.6 21.2,-0.7 z"
       id="IA" />
    <path
       style="fill:#e3e3e3;fill-opacity:1"
       inkscape:connector-curvature="0"
       d="m 175.3,27.63 -4.8,17.41 -4.5,20.86 -3.4,16.22 -0.4,9.67 1.2,4.44 3.5,2.66 -0.2,3.91 -3.9,4.4 -4.5,6.6 -0.9,2.9 -1.2,1.1 -1.8,0.8 -4.3,5.3 -0.4,3.1 -0.4,1.1 0.6,1 2.6,-0.1 1.1,2.3 -2.4,5.8 -1.2,4.2 -8.8,35.3 20.7,4.5 39.5,7.9 34.8,6.1 4.9,-29.2 3.8,-24.1 -2.7,-2.4 -0.4,-2.6 -0.8,-1.1 -2.1,1 -0.7,2.6 -3.2,0.5 -3.9,-1.6 -3.8,0.1 -2.5,0.7 -3.4,-1.5 -2.4,0.2 -2.4,2 -2,-1.1 -0.7,-4 0.7,-2.9 -2.5,-2.9 -3.3,-2.6 -2.7,-13.1 -0.1,-4.7 -0.3,-0.1 -0.2,0.4 -5.1,3.5 -1.7,-0.2 -2.9,-3.4 -0.2,-3.1 7,-17.13 -0.4,-1.94 -3.4,-1.15 -0.6,-1.18 -2.6,-3.46 -4.6,-10.23 -3.2,-1.53 -2,-4.95 1.3,-4.63 -3.2,-7.58 4.4,-21.52 z"
       id="ID" />
    <path
       style="fill:#e3e3e3;fill-opacity:1"
       inkscape:connector-curvature="0"
       d="m 618.7,214.3 -0.8,-2.6 -1.3,-3.7 -1.6,-1.8 -1.5,-2.6 -0.4,-5.5 -15.9,1.8 -17.4,1 -12.3,0 0.2,2.1 2.2,0.9 1.1,1.4 0.4,1.4 3.9,3.4 0.7,2.4 -0.7,3.3 -1.7,3.7 -0.8,2.7 -2.4,1.9 -1.9,0.6 -5.2,1.3 -1.3,4.1 0.6,1.1 1.9,1.8 -0.2,4.3 -2.1,1.6 -0.5,1.3 0,2.8 -1.8,0.6 -1.4,1.2 -0.4,1.2 0.4,2 -1.6,1.3 -0.9,2.8 0.3,3.9 2.3,7 7,7.6 5.7,3.7 0,4.4 0.7,1.2 6.6,0.6 2.7,1.4 -0.7,3.5 -2.2,6.2 -0.8,3 2,3.7 6.4,5.3 4.8,0.8 2.2,5.1 2,3.4 -0.9,2.8 1.5,3.8 1.7,2.1 1.6,-0.3 1,-2.2 2.4,-1.7 2.8,-1 6.1,2.5 0.5,-0.2 0,-1.1 -1.2,-2.7 0.4,-2.8 2.4,-1.6 3.4,-1.2 -0.5,-1.3 -0.8,-2 1.2,-1.3 1,-2.7 0,-4 0.4,-4.9 2.5,-3 1.8,-3.8 2.5,-4 -0.5,-5.3 -1.8,-3.2 -0.3,-3.3 0.8,-5.3 -0.7,-7.2 -1.1,-15.8 -1.4,-15.3 -0.9,-11.7 z"
       id="IL" />
    <path
       style="fill:#e3e3e3;fill-opacity:1"
       inkscape:connector-curvature="0"
       d="m 622.9,216.1 1.5,1 1.1,-0.3 2.1,-1.9 2.5,-1.8 14.3,-1.1 18.4,-1.8 1.6,15.5 4.9,42.6 -0.6,2.9 1.3,1.6 0.2,1.3 -2.3,1.6 -3.6,1.7 -3.2,0.4 -0.5,4.8 -4.7,3.6 -2.9,4 0.2,2.4 -0.5,1.4 -3.5,0 -1.4,-1.7 -5.2,3 0.2,3.1 -0.9,0.2 -0.5,-0.9 -2.4,-1.7 -3.6,1.5 -1.4,2.9 -1.2,-0.6 -1.6,-1.8 -4.4,0.5 -5.7,1 -2.5,1.3 0,-2.6 0.4,-4.7 2.3,-2.9 1.8,-3.9 2.7,-4.2 -0.5,-5.8 -1.8,-3.1 -0.3,-3.2 0.8,-5.3 -0.7,-7.1 -0.9,-12.6 -2.5,-30.1 z"
       id="IN" />
    <path
       style="fill:#e3e3e3;fill-opacity:1"
       inkscape:connector-curvature="0"
       d="m 485.9,259.5 -43.8,-0.6 -40.6,-1.2 -21.7,-0.9 -4.3,64.8 24.3,1 44.7,2.1 46.3,0.6 12.6,-0.3 0.7,-35 -1.2,-11.1 -2.5,-2 -2.4,-3 -2.3,-3.6 0.6,-3 1.7,-1.4 0,-2.1 -0.8,-0.7 -2.6,-0.2 -3.5,-3.4 z"
       id="KS" />
    <path
       style="fill:#e3e3e3;fill-opacity:1"
       inkscape:connector-curvature="0"
       d="m 607.2,331.8 12.6,-0.7 0.1,-4.1 4.3,0 30.4,-3.2 45.1,-4.3 5.6,-3.6 3.9,-2.1 0.1,-1.9 6,-7.8 4.1,-3.6 2.1,-2.4 -3.3,-2 -2.5,-2.7 -3,-3.8 -0.5,-2.2 -2.6,-1.4 -0.9,-1.9 -0.2,-6.1 -2.6,-2 -1.9,-1.1 -0.5,-2.3 -1.3,0.2 -2,1.2 -2.5,2.7 -1.9,-1.7 -2.5,-0.5 -2.4,1.4 -2.3,0 -1.8,-2 -5.6,-0.1 -1.8,-4.5 -2.9,-1.5 -2.1,0.8 -4.2,0.2 -0.5,2.1 1.2,1.5 0.3,2.1 -2.8,2 -3.8,1.8 -2.6,0.4 -0.5,4.5 -4.9,3.6 -2.6,3.7 0.2,2.2 -0.9,2.3 -4.5,-0.1 -1.3,-1.3 -3.9,2.2 0.2,3.3 -2.4,0.6 -0.8,-1.4 -1.7,-1.2 -2.7,1.1 -1.8,3.5 -2.2,-1 -1.4,-1.6 -3.7,0.4 -5.6,1 -2.8,1.3 -1.2,3.4 -1,1 1.5,3.7 -4.2,1.4 -1.9,1.4 -0.4,2.2 1.2,2.4 0,2.2 -1.6,0.4 -6.1,-2.5 -2.3,0.9 -2,1.4 -0.8,1.8 1.7,2.4 -0.9,1.8 -0.1,3.3 -2.4,1.3 -2.1,1.7 z"
       id="KY" />
    <path
       style="fill:#e3e3e3;fill-opacity:1"
       inkscape:connector-curvature="0"
       d="m 526.9,485.9 8.1,-0.3 10.3,3.6 6.5,1.1 3.7,-1.5 3.2,1.1 3.2,1 0.8,-2.1 -3.2,-1.1 -2.6,0.5 -2.7,-1.6 0.8,-1.5 3.1,-1 1.8,1.5 1.8,-1 3.2,0.6 1.5,2.4 0.3,2.3 4.5,0.3 1.8,1.8 -0.8,1.6 -1.3,0.8 1.6,1.6 8.4,3.6 3.6,-1.3 1,-2.4 2.6,-0.6 1.8,-1.5 1.3,1 0.8,2.9 -2.3,0.8 0.6,0.6 3.4,-1.3 2.3,-3.4 0.8,-0.5 -2.1,-0.3 0.8,-1.6 -0.2,-1.5 2.1,-0.5 1.1,-1.3 0.6,0.8 0.6,3.1 4.2,0.6 4,1.9 1,1.5 2.9,0 1.1,1 2.3,-3.1 0,-1.5 -1.3,0 -3.4,-2.7 -5.8,-0.8 -3.2,-2.3 1.1,-2.7 2.3,0.3 0.2,-0.6 -1.8,-1 0,-0.5 3.2,0 1.8,-3.1 -1.3,-1.9 -0.3,-2.7 -1.5,0.2 -1.9,2.1 -0.6,2.6 -3.1,-0.6 -1,-1.8 1.8,-1.9 1.9,-1.7 -2.2,-6.5 -3.4,-3.4 1,-7.3 -0.2,-0.5 -1.3,0.2 -33.1,1.4 -0.8,-2.4 0.8,-8.5 8.6,-14.8 -0.9,-2.6 1.4,-0.4 0.4,-2 -2.2,-2 0.1,-1.9 -2,-4.5 -0.4,-5.1 0.1,-0.7 -26.4,0.8 -25.2,0.1 0.4,9.7 0.7,9.5 0.5,3.7 2.6,4.5 0.9,4.4 4.3,6 0.3,3.1 0.6,0.8 -0.7,8.3 -2.8,4.6 1.2,2.4 -0.5,2.6 -0.8,7.3 -1.3,3 0.2,3.7 z"
       id="LA" />
    <path
       style="fill:#e3e3e3;fill-opacity:1"
       inkscape:connector-curvature="0"
       d="m 887.5,172.5 -0.5,-2.3 0.8,-1.5 2.9,-1.5 0.8,3.1 -0.5,1.8 -2.4,1.5 0,1 1.9,-1.5 3.9,-4.5 3.9,-1.9 4.2,-1.5 -0.3,-2.4 -1,-2.9 -1.9,-2.4 -1.8,-0.8 -2.1,0.2 -0.5,0.5 1,1.3 1.5,-0.8 2.1,1.6 0.8,2.7 -1.8,1.8 -2.3,1 -3.6,-0.5 -3.9,-6 -2.3,-2.6 -1.8,0 -1.1,0.8 -1.9,-2.6 0.3,-1.5 2.4,-5.2 -2.9,-4.4 -3.7,1.8 -1.8,2.9 -18.3,4.7 -13.8,2.5 -0.6,10.6 0.7,4.9 22,-4.8 11.2,-2.8 2,1.6 3.4,4.3 2.9,4.7 z m 12.5,1.4 2.2,-0.7 0.5,-1.7 1,0.1 1,2.3 -1.3,0.5 -3.9,0.1 z m -9.4,0.8 2.3,-2.6 1.6,0 1.8,1.5 -2.4,1 -2.2,1 z"
       id="MA" />
    <path
       style="fill:#e3e3e3;fill-opacity:1"
       inkscape:connector-curvature="0"
       d="m 834.8,264.1 1.7,-3.8 0.5,-4.8 -6.3,1.1 -5.8,0.3 -3.8,-16.8 -2.3,-5.5 -1.5,-4.6 -22.2,4.3 -37.6,7.6 2,10.4 4.8,-4.9 2.5,-0.7 1.4,-1.5 1.8,-2.7 1.6,0.7 2.6,-0.2 2.6,-2.1 2,-1.5 2.1,-0.6 1.5,1.1 2.7,1.4 1.9,1.8 1.3,1.4 4.8,1.6 -0.6,2.9 5.8,2.1 2.1,-2.6 3.7,2.5 -2.1,3.3 -0.7,3.3 -1.8,2.6 0,2.1 0.3,0.8 2,1.3 3.4,1.1 4.3,-0.1 3.1,1 2.1,0.3 1,-2.1 -1.5,-2.1 0,-1.8 -2.4,-2.1 -2.1,-5.5 1.3,-5.3 -0.2,-2.1 -1.3,-1.3 c 0,0 1.5,-1.6 1.5,-2.3 0,-0.6 0.5,-2.1 0.5,-2.1 l 1.9,-1.3 1.9,-1.6 0.5,1 -1.5,1.6 -1.3,3.7 0.3,1.1 1.8,0.3 0.5,5.5 -2.1,1 0.3,3.6 0.5,-0.2 1.1,-1.9 1.6,1.8 -1.6,1.3 -0.3,3.4 2.6,3.4 3.9,0.5 1.6,-0.8 3.2,4.2 1,0.4 z m -14.5,0.2 1.1,2.5 0.2,1.8 1.1,1.9 c 0,0 0.9,-0.9 0.9,-1.2 0,-0.3 -0.7,-3.1 -0.7,-3.1 l -0.7,-2.3 z"
       id="MD" />
    <path
       style="fill:#e3e3e3;fill-opacity:1"
       inkscape:connector-curvature="0"
       d="m 865.8,91.9 1.5,0.4 0,-2.6 0.8,-5.5 2.6,-4.7 1.5,-4 -1.9,-2.4 0,-6 0.8,-1 0.8,-2.7 -0.2,-1.5 -0.2,-4.8 1.8,-4.8 2.9,-8.9 2.1,-4.2 1.3,0 1.3,0.2 0,1.1 1.3,2.3 2.7,0.6 0.8,-0.8 0,-1 4,-2.9 1.8,-1.8 1.5,0.2 6,2.4 1.9,1 9.1,29.9 6,0 0.8,1.9 0.2,4.8 2.9,2.3 0.8,0 0.2,-0.5 -0.5,-1.1 2.8,-0.5 1.9,2.1 2.3,3.7 0,1.9 -2.1,4.7 -1.9,0.6 -3.4,3.1 -4.8,5.5 c 0,0 -0.6,0 -1.3,0 -0.6,0 -1,-2.1 -1,-2.1 l -1.8,0.2 -1,1.5 -2.4,1.5 -1,1.5 1.6,1.5 -0.5,0.6 -0.5,2.7 -1.9,-0.2 0,-1.6 -0.3,-1.3 -1.5,0.3 -1.8,-3.2 -2.1,1.3 1.3,1.5 0.3,1.1 -0.8,1.3 0.3,3.1 0.2,1.6 -1.6,2.6 -2.9,0.5 -0.3,2.9 -5.3,3.1 -1.3,0.5 -1.6,-1.5 -3.1,3.6 1,3.2 -1.5,1.3 -0.2,4.4 -1.1,6.3 -2.2,-0.9 -0.5,-3.1 -4,-1.1 -0.2,-2.5 -11.7,-37.43 z m 36.5,15.6 1.5,-1.5 1.4,1.1 0.6,2.4 -1.7,0.9 z m 6.7,-5.9 1.8,1.9 c 0,0 1.3,0.1 1.3,-0.2 0,-0.3 0.2,-2 0.2,-2 l 0.9,-0.8 -0.8,-1.8 -2,0.7 z"
       id="ME" />
    <path
       style="fill:#e3e3e3;fill-opacity:1"
       inkscape:connector-curvature="0"
       d="m 644.5,211 19.1,-1.9 0.2,1.1 9.9,-1.5 12,-1.7 0.1,-0.6 0.2,-1.5 2.1,-3.7 2,-1.7 -0.2,-5.1 1.6,-1.6 1.1,-0.3 0.2,-3.6 1.5,-3 1.1,0.6 0.2,0.6 0.8,0.2 1.9,-1 -0.4,-9.1 -3.2,-8.2 -2.3,-9.1 -2.4,-3.2 -2.6,-1.8 -1.6,1.1 -3.9,1.8 -1.9,5 -2.7,3.7 -1.1,0.6 -1.5,-0.6 c 0,0 -2.6,-1.5 -2.4,-2.1 0.2,-0.6 0.5,-5 0.5,-5 l 3.4,-1.3 0.8,-3.4 0.6,-2.6 2.4,-1.6 -0.3,-10 -1.6,-2.3 -1.3,-0.8 -0.8,-2.1 0.8,-0.8 1.6,0.3 0.2,-1.6 -2.6,-2.2 -1.3,-2.6 -2.6,0 -4.5,-1.5 -5.5,-3.4 -2.7,0 -0.6,0.6 -1,-0.5 -3.1,-2.3 -2.9,1.8 -2.9,2.3 0.3,3.6 1,0.3 2.1,0.5 0.5,0.8 -2.6,0.8 -2.6,0.3 -1.5,1.8 -0.3,2.1 0.3,1.6 0.3,5.5 -3.6,2.1 -0.6,-0.2 0,-4.2 1.3,-2.4 0.6,-2.4 -0.8,-0.8 -1.9,0.8 -1,4.2 -2.7,1.1 -1.8,1.9 -0.2,1 0.6,0.8 -0.6,2.6 -2.3,0.5 0,1.1 0.8,2.4 -1.1,6.1 -1.6,4 0.6,4.7 0.5,1.1 -0.8,2.4 -0.3,0.8 -0.3,2.7 3.6,6 2.9,6.5 1.5,4.8 -0.8,4.7 -1,6 -2.4,5.2 -0.3,2.7 -3.2,3.1 z m -33.3,-72.4 -1.3,-1.1 -1.8,-10.4 -3.7,-1.3 -1.7,-2.3 -12.6,-2.8 -2.8,-1.1 -8.1,-2.2 -7.8,-1 -3.9,-5.3 0.7,-0.5 2.7,-0.8 3.6,-2.3 0,-1 0.6,-0.6 6,-1 2.4,-1.9 4.4,-2.1 0.2,-1.3 1.9,-2.9 1.8,-0.8 1.3,-1.8 2.3,-2.3 4.4,-2.4 4.7,-0.5 1.1,1.1 -0.3,1 -3.7,1 -1.5,3.1 -2.3,0.8 -0.5,2.4 -2.4,3.2 -0.3,2.6 0.8,0.5 1,-1.1 3.6,-2.9 1.3,1.3 2.3,0 3.2,1 1.5,1.1 1.5,3.1 2.7,2.7 3.9,-0.2 1.5,-1 1.6,1.3 1.6,0.5 1.3,-0.8 1.1,0 1.6,-1 4,-3.6 3.4,-1.1 6.6,-0.3 4.5,-1.9 2.6,-1.3 1.5,0.2 0,5.7 0.5,0.3 2.9,0.8 1.9,-0.5 6.1,-1.6 1.1,-1.1 1.5,0.5 0,7 3.2,3.1 1.3,0.6 1.3,1 -1.3,0.3 -0.8,-0.3 -3.7,-0.5 -2.1,0.6 -2.3,-0.2 -3.2,1.5 -1.8,0 -5.8,-1.3 -5.2,0.2 -1.9,2.6 -7,0.6 -2.4,0.8 -1.1,3.1 -1.3,1.1 -0.5,-0.2 -1.5,-1.6 -4.5,2.4 -0.6,0 -1.1,-1.6 -0.8,0.2 -1.9,4.4 -1,4 -3.2,6.9 z m -29.6,-56.5 1.8,-2.1 2.2,-0.8 5.4,-3.9 2.3,-0.6 0.5,0.5 -5.1,5.1 -3.3,1.9 -2.1,0.9 z m 86.2,32.1 0.6,2.5 3.2,0.2 1.3,-1.2 c 0,0 -0.1,-1.5 -0.4,-1.6 -0.3,-0.2 -1.6,-1.9 -1.6,-1.9 l -2.2,0.2 -1.6,0.2 -0.3,1.1 z"
       id="MI" />
    <path
       style="fill:#e3e3e3;fill-opacity:1"
       inkscape:connector-curvature="0"
       d="m 464.6,66.79 -0.6,3.91 0,10.27 1.6,5.03 1.9,3.32 0.5,9.93 1.8,13.45 1.8,7.3 0.4,6.4 0,5.3 -1.6,1.8 -1.8,1.3 0,1.5 0.9,1.7 4.1,3.5 0.7,3.2 0,35.9 60.3,-0.6 21.2,-0.7 -0.5,-6 -1.8,-2.1 -7.2,-4.6 -3.6,-5.3 -3.4,-0.9 -2,-2.8 -3.2,0 -3.5,-3.8 -0.5,-7 0.1,-3.9 1.5,-3 -0.7,-2.7 -2.8,-3.1 2.2,-6.1 5.4,-4 1.2,-1.4 -0.2,-8 0.2,-3 2.6,-3 3.8,-2.9 1.3,-0.2 4.5,-5 1.8,-0.8 2.3,-3.9 2.4,-3.6 3.1,-2.6 4.8,-2 9.2,-4.1 3.9,-1.8 0.6,-2.3 -4.4,0.4 -0.7,1.1 -0.6,0 -1.8,-3.1 -8.9,0.3 -1,0.8 -1,0 -0.5,-1.3 -0.8,-1.8 -2.6,0.5 -3.2,3.2 -1.6,0.8 -3.1,0 -2.6,-1 0,-2.1 -1.3,-0.2 -0.5,0.5 -2.6,-1.3 -0.5,-2.9 -1.5,0.5 -0.5,1 -2.4,-0.5 -5.3,-2.4 -3.9,-2.6 -2.9,0 -1.3,-1 -2.3,0.6 -1.1,1.1 -0.3,1.3 -4.8,0 0,-2.1 -6.3,-0.3 -0.3,-1.5 -4.8,0 -1.6,-1.6 -1.5,-6.1 -0.8,-5.5 -1.9,-0.8 -2.3,-0.5 -0.6,0.2 -0.3,8.2 -30.1,-0.03 z"
       id="MN" />
    <path
       style="fill:#e3e3e3;fill-opacity:1"
       inkscape:connector-curvature="0"
       d="m 593.1,338.7 0.5,-5.9 4.2,-3.4 1.9,-1 0,-2.9 0.7,-1.6 -1.1,-1.6 -2.4,0.3 -2.1,-2.5 -1.7,-4.5 0.9,-2.6 -2,-3.2 -1.8,-4.6 -4.6,-0.7 -6.8,-5.6 -2.2,-4.2 0.8,-3.3 2.2,-6 0.6,-3 -1.9,-1 -6.9,-0.6 -1.1,-1.9 0,-4.1 -5.3,-3.5 -7.2,-7.8 -2.3,-7.3 -0.5,-4.2 0.7,-2.4 -2.6,-3.1 -1.2,-2.4 -7.7,0.8 -10,0.6 -48.8,1.2 1.3,2.6 -0.1,2.2 2.3,3.6 3,3.9 3.1,3 2.6,0.2 1.4,1.1 0,2.9 -1.8,1.6 -0.5,2.3 2.1,3.2 2.4,3 2.6,2.1 1.3,11.6 -0.8,40 0.5,5.7 23.7,-0.2 23.3,-0.7 32.5,-1.3 2.2,3.7 -0.8,3.1 -3.1,2.5 -0.5,1.8 5.2,0.5 4.1,-1.1 z"
       id="MO" />
    <path
       style="fill:#e3e3e3;fill-opacity:1"
       inkscape:connector-curvature="0"
       d="m 604.3,472.5 2.6,-4.2 1.8,0.8 6.8,-1.9 2.1,0.3 1.5,0.8 5.2,0 0.4,-1.6 -1.7,-14.8 -2.8,-19 1,-45.1 -0.2,-16.7 0.2,-6.3 -4.8,0.3 -19.6,1.6 -13,0.4 -0.2,3.2 -2.8,1.3 -2.6,5.1 0.5,1.6 0.1,2.4 -2.9,1.1 -3.5,5.1 0.8,2.3 -3,2.5 -1,5.7 -0.6,1.9 1.6,2.5 -1.5,1.4 1.5,2.8 0.3,4.2 -1.2,2.5 -0.2,0.9 0.4,5 2,4.5 -0.1,1.7 2.3,2 -0.7,3.1 -0.9,0.3 0.6,1.9 -8.6,15 -0.8,8.2 0.5,1.5 24.2,-0.7 8.2,-0.7 1.9,-0.3 0.6,1.4 -1,7.1 3.3,3.3 2.2,6.4 z"
       id="MS" />
    <path
       style="fill:#e3e3e3;fill-opacity:1"
       inkscape:connector-curvature="0"
       d="m 361.1,70.77 -5.3,57.13 -1.3,15.2 -59.1,-6.6 -49,-7.1 -1.4,11.2 -1.9,-1.7 -0.4,-2.5 -1.3,-1.9 -3.3,1.5 -0.7,2.5 -2.3,0.3 -3.8,-1.6 -4.1,0.1 -2.4,0.7 -3.2,-1.5 -3,0.2 -2.1,1.9 -0.9,-0.6 -0.7,-3.4 0.7,-3.2 -2.7,-3.2 -3.3,-2.5 -2.5,-12.6 -0.1,-5.3 -1.6,-0.8 -0.6,1 -4.5,3.2 -1.2,-0.1 -2.3,-2.8 -0.2,-2.8 7,-17.15 -0.6,-2.67 -3.5,-1.12 -0.4,-0.91 -2.7,-3.5 -4.6,-10.41 -3.2,-1.58 -1.8,-4.26 1.3,-4.63 -3.2,-7.57 4.4,-21.29 32.7,6.89 18.4,3.4 32.3,5.3 29.3,4 29.2,3.5 30.8,3.07 z"
       id="MT" />
    <path
       style="fill:#e3e3e3;fill-opacity:1"
       inkscape:connector-curvature="0"
       d="M 786.7,357.7 774,350 l -3.1,-0.8 -16.6,2.1 -1.6,-3 -2.8,-2.2 -16.7,0.5 -7.4,0.9 -9.2,4.5 -6.8,2.7 -6.5,1.2 -13.4,1.4 0.1,-4.1 1.7,-1.3 2.7,-0.7 0.7,-3.8 3.9,-2.5 3.9,-1.5 4.5,-3.7 4.4,-2.3 0.7,-3.2 4.1,-3.8 0.7,1 2.5,0.2 2.4,-3.6 1.7,-0.4 2.6,0.3 1.8,-4 2.5,-2.4 0.5,-1.8 0.1,-3.5 4.4,0.1 38.5,-5.6 57.5,-12.3 2,4.8 3.6,6.5 2.4,2.4 0.6,2.3 -2.4,0.2 0.8,0.6 -0.3,4.2 -2.6,1.3 -0.6,2.1 -1.3,2.9 -3.7,1.6 -2.4,-0.3 -1.5,-0.2 -1.6,-1.3 0.3,1.3 0,1 1.9,0 0.8,1.3 -1.9,6.3 4.2,0 0.6,1.6 2.3,-2.3 1.3,-0.5 -1.9,3.6 -3.1,4.8 -1.3,0 -1.1,-0.5 -2.7,0.6 -5.2,2.4 -6.5,5.3 -3.4,4.7 -1.9,6.5 -0.5,2.4 -4.7,0.5 -5.1,1.5 z m 49.3,-26.2 2.6,-2.5 3.2,-2.6 1.5,-0.6 0.2,-2 -0.6,-6.1 -1.5,-2.3 -0.6,-1.9 0.7,-0.2 2.7,5.5 0.4,4.4 -0.2,3.4 -3.4,1.5 -2.8,2.4 -1.1,1.2 z"
       id="NC" />
    <path
       style="fill:#e3e3e3;fill-opacity:1"
       inkscape:connector-curvature="0"
       d="m 471,126.4 -0.4,-6.2 -1.8,-7.3 -1.8,-13.61 -0.5,-9.7 -1.9,-3.18 -1.6,-5.32 0,-10.41 0.6,-3.85 -1.8,-5.54 -28.6,-0.59 -18.6,-0.6 -26.5,-1.3 -25.2,-2.16 -0.9,14.42 -4.7,50.94 56.8,3.9 56.9,1.7 z"
       id="ND" />
    <path
       style="fill:#e3e3e3;fill-opacity:1"
       inkscape:connector-curvature="0"
       d="m 470.3,204.3 -1,-2.3 -0.5,-1.6 -2.9,-1.6 -4.8,-1.5 -2.2,-1.2 -2.6,0.1 -3.7,0.4 -4.2,1.2 -6,-4.1 -2.2,-2 -10.7,0.6 -41.5,-2.4 -35.6,-2.2 -4.3,43.7 33.1,3.3 -1.4,21.1 21.7,1 40.6,1.2 43.8,0.6 4.5,0 -2.2,-3 -2.6,-3.9 0.1,-2.3 -1.4,-2.7 -1.9,-5.2 -0.4,-6.7 -1.4,-4.1 -0.5,-5 -2.3,-3.7 -1,-4.7 -2.8,-7.9 -1,-5.3 z"
       id="NE" />
    <path
       style="fill:#e3e3e3;fill-opacity:1"
       inkscape:connector-curvature="0"
       d="m 881.7,141.3 1.1,-3.2 -2.7,-1.2 -0.5,-3.1 -4.1,-1.1 -0.3,-3 -11.7,-37.48 -0.7,0.08 -0.6,1.6 -0.6,-0.5 -1,-1 -1.5,1.9 -0.2,2.29 0.5,8.41 1.9,2.8 0,4.3 -3.9,4.8 -2.4,0.9 0,0.7 1.1,1.9 0,8.6 -0.8,9.2 -0.2,4.7 1,1.4 -0.2,4.7 -0.5,1.5 1,1.1 5.1,-1.2 13.8,-3.5 1.7,-2.9 4,-1.9 z"
       id="NH" />
    <path
       style="fill:#e3e3e3;fill-opacity:1"
       inkscape:connector-curvature="0"
       d="m 823.7,228.3 0.1,-1.5 2.7,-1.3 1.7,-2.8 1.7,-2.4 3.3,-3.2 0,-1.2 -6.1,-4.1 -1,-2.7 -2.7,-0.3 -0.1,-0.9 -0.7,-2.2 2.2,-1.1 0.2,-2.9 -1.3,-1.3 0.2,-1.2 1.9,-3.1 0,-3.1 2.5,-3.1 5.6,2.5 6.4,1.9 2.5,1.2 0.1,1.8 -0.5,2.7 0.4,4.5 -2.1,1.9 -1.1,1 0.5,0.5 2.7,-0.3 1.1,-0.8 1.6,3.4 0.2,9.4 0.6,1.1 -1.1,5.5 -3.1,6.5 -2.7,4 -0.8,4.8 -2.1,2.4 -0.8,0 -0.3,-2.7 0.8,-1 -0.2,-1.5 -4,-0.6 -4.8,-2.3 -3.2,-2.9 -1,-2 z"
       id="NJ" />
    <path
       style="fill:#e3e3e3;fill-opacity:1"
       inkscape:connector-curvature="0"
       d="m 270.2,429.4 -16.7,-2.6 -1.2,9.6 -15.8,-2 6,-39.7 7,-53.2 4.4,-30.9 34,3.9 37.4,4.4 32,2.8 -0.3,10.8 -1.4,-0.1 -7.4,97.7 -28.4,-1.8 -38.1,-3.7 0.7,6.3 z"
       id="NM" />
    <path
       style="fill:#e3e3e3;fill-opacity:1"
       inkscape:connector-curvature="0"
       d="m 123.1,173.6 38.7,8.5 26,5.2 -10.6,53.1 -5.4,29.8 -3.3,15.5 -2.1,11.1 -2.6,16.4 -1.7,3.1 -1.6,-0.1 -1.2,-2.6 -2.8,-0.5 -1.3,-1.1 -1.8,0.1 -0.9,0.8 -1.8,1.3 -0.3,7.3 -0.3,1.5 -0.5,12.4 -1.1,1.8 -16.7,-25.5 -42.1,-62.1 -12.43,-19 8.55,-32.6 8.01,-31.3 z"
       id="NV" />
    <path
       style="fill:#e3e3e3;fill-opacity:1"
       inkscape:connector-curvature="0"
       d="m 843.4,200 0.5,-2.7 -0.2,-2.4 -3,-1.5 -6.5,-2 -6,-2.6 -0.6,-0.4 -2.7,-0.3 -2,-1.5 -2.1,-5.9 -3.3,-0.5 -2.4,-2.4 -38.4,8.1 -31.6,6 -0.5,-6.5 1.6,-1.2 1.3,-1.1 1,-1.6 1.8,-1.1 1.9,-1.8 0.5,-1.6 2.1,-2.7 1.1,-1 -0.2,-1 -1.3,-3.1 -1.8,-0.2 -1.9,-6.1 2.9,-1.8 4.4,-1.5 4,-1.3 3.2,-0.5 6.3,-0.2 1.9,1.3 1.6,0.2 2.1,-1.3 2.6,-1.1 5.2,-0.5 2.1,-1.8 1.8,-3.2 1.6,-1.9 2.1,0 1.9,-1.1 0.2,-2.3 -1.5,-2.1 -0.3,-1.5 1.1,-2.1 0,-1.5 -1.8,0 -1.8,-0.8 -0.8,-1.1 -0.2,-2.6 5.8,-5.5 0.6,-0.8 1.5,-2.9 2.9,-4.5 2.7,-3.7 2.1,-2.4 2.4,-1.8 3.1,-1.2 5.5,-1.3 3.2,0.2 4.5,-1.5 7.4,-2.2 0.7,4.9 2.4,6.5 0.8,5 -1,4.2 2.6,4.5 0.8,2 -0.9,3.2 3.7,1.7 2.7,10.2 0,5.8 -0.6,10.9 0.8,5.4 0.7,3.6 1.5,7.3 0,8.1 -1.1,2.3 2.1,2.7 0.5,0.9 -1.9,1.8 0.3,1.3 1.3,-0.3 1.5,-1.3 2.3,-2.6 1.1,-0.6 1.6,0.6 2.3,0.2 7.9,-3.9 2.9,-2.7 1.3,-1.5 4.2,1.6 -3.4,3.6 -3.9,2.9 -7.1,5.3 -2.6,1 -5.8,1.9 -4,1.1 -1,-0.4 z"
       id="NY" />
    <path
       style="fill:#e3e3e3;fill-opacity:1"
       inkscape:connector-curvature="0"
       d="m 663.8,211.2 1.7,15.5 4.8,41.1 3.9,-0.2 2.3,-0.8 3.6,1.8 1.7,4.2 5.4,0.1 1.8,2 1.7,0 2.4,-1.4 3.1,0.5 1.5,1.3 1.8,-2 2.3,-1.4 2.4,-0.4 0.6,2.7 1.6,1 2.6,2 0.8,0.2 2,-0.1 1.2,-0.6 0,-2.1 1.7,-1.5 0.1,-4.8 1.1,-4.2 1.9,-1.3 1,0.7 1,1.1 0.7,0.2 0.4,-0.4 -0.9,-2.7 0,-2.2 1.1,-1.4 2.5,-3.6 1.3,-1.5 2.2,0.5 2.1,-1.5 3,-3.3 2.2,-3.7 0.2,-5.4 0.5,-5 0,-4.6 -1.2,-3.2 1.2,-1.8 1.3,-1.2 -0.6,-2.8 -4.3,-25.6 -6.2,3.7 -3.9,2.3 -3.4,3.7 -4,3.9 -3.2,0.8 -2.9,0.5 -5.5,2.6 -2.1,0.2 -3.4,-3.1 -5.2,0.6 -2.6,-1.5 -2.2,-1.3 z"
       id="OH" />
    <path
       style="fill:#e3e3e3;fill-opacity:1"
       inkscape:connector-curvature="0"
       d="m 411.9,334.9 -1.8,24.3 -0.9,18 0.2,1.6 4,3.6 1.7,0.9 0.9,0 0.9,-2.1 1.5,1.9 1.6,0.1 0.3,-0.2 0.2,-1.1 2.8,1.4 -0.4,3.5 3.8,0.5 2.5,1 4.2,0.6 2.3,1.6 2.5,-1.7 3.5,0.7 2.2,3.1 1.2,0.1 0,2.3 2.1,0.7 2.5,-2.1 1.8,0.6 2.7,0.1 0.7,2.3 4.4,1.8 1.7,-0.3 1.9,-4.2 1.3,0 1.1,2.1 4.2,0.8 3.4,1.3 3,0.8 1.6,-0.7 0.7,-2.7 4.5,0 1.9,0.9 2.7,-1.9 1.4,0 0.6,1.4 3.6,0 2,-1.8 2.3,0.6 1.7,2.2 3,1.7 3.4,0.9 1.9,1.2 -0.3,-37.6 -1.4,-10.9 -0.1,-8.6 -1.5,-6.6 -0.6,-6.8 0.1,-4.3 -12.6,0.3 -46.3,-0.5 -44.7,-2.1 -41.5,-1.8 -0.4,10.7 z"
       id="OK" />
    <path
       style="fill:#e3e3e3;fill-opacity:1"
       inkscape:connector-curvature="0"
       d="m 67.44,158.9 28.24,7.2 27.52,6.5 17,3.7 8.8,-35.1 1.2,-4.4 2.4,-5.5 -0.7,-1.3 -2.5,0.1 -1.3,-1.8 0.6,-1.5 0.4,-3.3 4.7,-5.7 1.9,-0.9 0.9,-0.8 0.7,-2.7 0.8,-1.1 3.9,-5.7 3.7,-4 0.2,-3.26 -3.4,-2.49 -1.2,-4.55 -13.1,-3.83 -15.3,-3.47 -14.8,0.37 -1.1,-1.31 -5.1,1.84 -4.5,-0.48 -2.4,-1.58 -1.3,0.54 -4.68,-0.29 -1.96,-1.43 -4.84,-1.77 -1.1,-0.07 -4.45,-1.27 -1.76,1.52 -6.26,-0.24 -5.31,-3.85 0.21,-9.28 -2.05,-3.5 -4.1,-0.6 -0.7,-2.5 -2.4,-0.5 -5.8,2.1 -2.3,6.5 -3.2,10 -3.2,6.5 -5,14.1 -6.5,13.6 -8.1,12.6 -1.9,2.9 -0.8,8.6 -1.3,6 2.71,3.5 z"
       id="OR" />
    <path
       style="fill:#e3e3e3;fill-opacity:1"
       inkscape:connector-curvature="0"
       d="m 736.6,192.2 1.3,-0.5 5.7,-5.5 0.7,6.9 33.5,-6.5 36.9,-7.8 2.3,2.3 3.1,0.4 2,5.6 2.4,1.9 2.8,0.4 0.1,0.1 -2.6,3.2 0,3.1 -1.9,3.1 -0.2,1.9 1.3,1.3 -0.2,1.9 -2.4,1.1 1,3.4 0.2,1.1 2.8,0.3 0.9,2.5 5.9,3.9 0,0.4 -3.1,3 -1.5,2.2 -1.7,2.8 -2.7,1.2 -1.4,0.3 -2.1,1.3 -1.6,1.4 -22.4,4.3 -38.7,7.8 -11.3,1.4 -3.9,0.7 -5.1,-22.4 -4.3,-25.9 z"
       id="PA" />
    <path
       style="fill:#e3e3e3;fill-opacity:1"
       inkscape:connector-curvature="0"
       d="m 873.6,175.7 -0.8,-4.4 -1.6,-6 5.7,-1.5 1.5,1.3 3.4,4.3 2.8,4.4 -2.8,1.4 -1.3,-0.2 -1.1,1.8 -2.4,1.9 -2.8,1.1 z"
       id="RI" />
    <path
       style="fill:#e3e3e3;fill-opacity:1"
       inkscape:connector-curvature="0"
       d="m 759,413.6 -2.1,-1 -1.9,-5.6 -2.5,-2.3 -2.5,-0.5 -1.5,-4.6 -3,-6.5 -4.2,-1.8 -1.9,-1.8 -1.2,-2.6 -2.4,-2 -2.3,-1.3 -2.2,-2.9 -3.2,-2.4 -4.4,-1.7 -0.4,-1.4 -2.3,-2.8 -0.5,-1.5 -3.8,-5.4 -3.4,0.1 -3.9,-2.5 -1.2,-1.2 -0.2,-1.4 0.6,-1.6 2.7,-1.3 -0.8,-2 6.4,-2.7 9.2,-4.5 7.1,-0.9 16.4,-0.5 2.3,1.9 1.8,3.5 4.6,-0.8 12.6,-1.5 2.7,0.8 12.5,7.4 10.1,8.3 -5.3,5.4 -2.6,6.1 -0.5,6.3 -1.6,0.8 -1.1,2.7 -2.4,0.6 -2.1,3.6 -2.7,2.7 -2.3,3.4 -1.6,0.8 -3.6,3.4 -2.9,0.2 1,3.2 -5,5.3 -2.3,1.6 z"
       id="SC" />
    <path
       style="fill:#e3e3e3;fill-opacity:1"
       inkscape:connector-curvature="0"
       d="m 471,181.1 -0.9,3.2 0.4,3 2.6,2 -1.2,5.4 -1.8,4.1 1.5,3.3 0.7,1.1 -1.3,0.1 -0.7,-1.6 -0.6,-2 -3.3,-1.8 -4.8,-1.5 -2.5,-1.3 -2.9,0.1 -3.9,0.4 -3.8,1.2 -5.3,-3.8 -2.7,-2.4 -10.9,0.8 -41.5,-2.4 -35.6,-2.2 1.5,-24.8 2.8,-34 0.4,-5 56.9,3.9 56.9,1.7 0,2.7 -1.3,1.5 -2,1.5 -0.1,2.2 1.1,2.2 4.1,3.4 0.5,2.7 0,35.9 z"
       id="SD" />
    <path
       style="fill:#e3e3e3;fill-opacity:1"
       inkscape:connector-curvature="0"
       d="m 670.8,359.6 -13.1,1.2 -23.3,2.2 -37.6,2.7 -11.8,0.4 0.9,-0.6 0.9,-4.5 -1.2,-3.6 3.9,-2.3 0.4,-2.5 1.2,-4.3 3,-9.5 0.5,-5.6 0.3,-0.2 12.3,-0.2 13.6,-0.8 0.1,-3.9 3.5,-0.1 30.4,-3.3 54,-5.2 10.3,-1.5 7.6,-0.2 2.4,-1.9 1.3,0.3 -0.1,3.3 -0.4,1.6 -2.4,2.2 -1.6,3.6 -2,-0.4 -2.4,0.9 -2.2,3.3 -1.4,-0.2 -0.8,-1.2 -1.1,0.4 -4.3,4 -0.8,3.1 -4.2,2.2 -4.3,3.6 -3.8,1.5 -4.4,2.8 -0.6,3.6 -2.5,0.5 -2,1.7 -0.2,4.8 z"
       id="TN" />
    <path
       style="fill:#e3e3e3;fill-opacity:1"
       inkscape:connector-curvature="0"
       d="m 282.8,425.6 37,3.6 29.3,1.9 7.4,-97.7 54.4,2.4 -1.7,23.3 -1,18 0.2,2 4.4,4.1 2,1.1 1.8,0 0.5,-1.2 0.7,0.9 2.4,0.2 1.1,-0.6 0,-0.2 1,0.5 -0.4,3.7 4.5,0.7 2.4,0.9 4.2,0.7 2.6,1.8 2.8,-1.9 2.7,0.6 2.2,3.1 0.8,0.1 0,2.1 3.3,1.1 2.5,-2.1 1.5,0.5 2.1,0.1 0.6,2.1 5.2,2 2.3,-0.5 1.9,-4 0.1,0 1.1,1.9 4.6,0.9 3.4,1.3 3.2,1 2.4,-1.2 0.7,-2.3 3.6,0 2.1,1 3,-2 0.4,0 0.5,1.4 4.7,0 1.9,-1.8 1.3,0.4 1.7,2.1 3.3,1.9 3.4,1 2.5,1.4 2.7,2 3.1,-1.2 2.1,0.8 0.7,20 0.7,9.5 0.6,4.1 2.6,4.4 0.9,4.5 4.2,5.9 0.3,3.1 0.6,0.8 -0.7,7.7 -2.9,4.8 1.3,2.6 -0.5,2.4 -0.8,7.2 -1.3,3 0.3,4.2 -5.6,1.6 -9.9,4.5 -1,1.9 -2.6,1.9 -2.1,1.5 -1.3,0.8 -5.7,5.3 -2.7,2.1 -5.3,3.2 -5.7,2.4 -6.3,3.4 -1.8,1.5 -5.8,3.6 -3.4,0.6 -3.9,5.5 -4,0.3 -1,1.9 2.3,1.9 -1.5,5.5 -1.3,4.5 -1.1,3.9 -0.8,4.5 0.8,2.4 1.8,7 1,6.1 1.8,2.7 -1,1.5 -3.1,1.9 -5.7,-3.9 -5.5,-1.1 -1.3,0.5 -3.2,-0.6 -4.2,-3.1 -5.2,-1.1 -7.6,-3.4 -2.1,-3.9 -1.3,-6.5 -3.2,-1.9 -0.6,-2.3 0.6,-0.6 0.3,-3.4 -1.3,-0.6 -0.6,-1 1.3,-4.4 -1.6,-2.3 -3.2,-1.3 -3.4,-4.4 -3.6,-6.6 -4.2,-2.6 0.2,-1.9 -5.3,-12.3 -0.8,-4.2 -1.8,-1.9 -0.2,-1.5 -6,-5.3 -2.6,-3.1 0,-1.1 -2.6,-2.1 -6.8,-1.1 -7.4,-0.6 -3.1,-2.3 -4.5,1.8 -3.6,1.5 -2.3,3.2 -1,3.7 -4.4,6.1 -2.4,2.4 -2.6,-1 -1.8,-1.1 -1.9,-0.6 -3.9,-2.3 0,-0.6 -1.8,-1.9 -5.2,-2.1 -7.4,-7.8 -2.3,-4.7 0,-8.1 -3.2,-6.5 -0.5,-2.7 -1.6,-1 -1.1,-2.1 -5,-2.1 -1.3,-1.6 -7.1,-7.9 -1.3,-3.2 -4.7,-2.3 -1.5,-4.4 -2.6,-2.9 -1.7,-0.5 z m 174.4,141.7 -0.6,-7.1 -2.7,-7.2 -0.6,-7 1.5,-8.2 3.3,-6.9 3.5,-5.4 3.2,-3.6 0.6,0.2 -4.8,6.6 -4.4,6.5 -2,6.6 -0.3,5.2 0.9,6.1 2.6,7.2 0.5,5.2 0.2,1.5 z"
       id="TX" />
    <path
       style="fill:#e3e3e3;fill-opacity:1"
       inkscape:connector-curvature="0"
       d="m 228.4,305.9 24.6,3.6 1.9,-13.7 7,-50.5 2.3,-22 -32.2,-3.5 2.2,-13.1 1.8,-10.6 -34.7,-6.1 -12.5,-2.5 -10.6,52.9 -5.4,30 -3.3,15.4 -1.7,9.2 z"
       id="UT" />
    <path
       style="fill:#e3e3e3;fill-opacity:1"
       inkscape:connector-curvature="0"
       d="m 834.7,265.2 -0.2,2.8 -2.9,3.8 -0.4,4.6 0.5,3.4 -1.8,5 -2.2,1.9 -1.5,-4.6 0.4,-5.4 1.6,-4.2 0.7,-3.3 -0.1,-1.7 z m -60.3,44.6 -38.6,5.6 -4.8,-0.1 -2.2,-0.3 -2.5,1.9 -7.3,0.1 -10.3,1.6 -6.7,0.6 4.1,-2.6 4.1,-2.3 0,-2.1 5.7,-7.3 4.1,-3.7 2.2,-2.5 3.6,4.3 3.8,0.9 2.7,-1 2,-1.5 2.4,1.2 4.6,-1.3 1.7,-4.4 2.4,0.7 3.2,-2.3 1.6,0.4 2.8,-3.2 0.2,-2.7 -0.8,-1.2 4.8,-10.5 1.8,-5.2 0.5,-4.7 0.7,-0.2 1.1,1.7 1.5,1.2 3.9,-0.2 1.7,-8.1 3,-0.6 0.8,-2.6 2.8,-2.2 1.1,-2.1 1.8,-4.3 0.1,-4.6 3.6,1.4 6.6,3.1 0.3,-5.2 3.4,1.2 -0.6,2.9 8.6,3.1 1.4,1.8 -0.8,3.3 -1.3,1.3 -0.5,1.7 0.5,2.4 2,1.3 3.9,1.4 2.9,1 4.9,0.9 2.2,2.1 3.2,0.4 0.9,1.2 -0.4,4.7 1.4,1.1 -0.5,1.9 1.2,0.8 -0.2,1.4 -2.7,-0.1 0.1,1.6 2.3,1.5 0.1,1.4 1.8,1.8 0.5,2.5 -2.6,1.4 1.6,1.5 5.8,-1.7 3.7,6.2 z"
       id="VA" />
    <path
       style="fill:#e3e3e3;fill-opacity:1"
       inkscape:connector-curvature="0"
       d="m 832.7,111.3 2.4,6.5 0.8,5.3 -1,3.9 2.5,4.4 0.9,2.3 -0.7,2.6 3.3,1.5 2.9,10.8 0,5.3 11.5,-2.1 -1,-1.1 0.6,-1.9 0.2,-4.3 -1,-1.4 0.2,-4.7 0.8,-9.3 0,-8.5 -1.1,-1.8 0,-1.6 2.8,-1.1 3.5,-4.4 0,-3.6 -1.9,-2.7 -0.3,-5.79 -26.1,6.79 z"
       id="VT" />
    <path
       style="fill:#e3e3e3;fill-opacity:1"
       inkscape:connector-curvature="0"
       d="m 74.5,67.7 -2.3,-4.3 -4.1,-0.7 -0.4,-2.4 -2.5,-0.6 -2.9,-0.5 -1.8,1 -2.3,-2.9 0.3,-2.9 2.7,-0.3 1.6,-4 -2.6,-1.1 0.2,-3.7 4.4,-0.6 -2.7,-2.7 -1.5,-7.1 0.6,-2.9 0,-7.9 -1.8,-3.2 2.3,-9.4 2.1,0.5 2.4,2.9 2.7,2.6 3.2,1.9 4.5,2.1 3.1,0.6 2.9,1.5 3.4,1 2.3,-0.2 0,-2.4 1.3,-1.1 2.1,-1.3 0.3,1.1 0.3,1.8 -2.3,0.5 -0.3,2.1 1.8,1.5 1.1,2.4 0.6,1.9 1.5,-0.2 0.2,-1.3 -1,-1.3 -0.5,-3.2 0.8,-1.8 -0.6,-1.5 0,-2.6 1.8,-3.6 -1.1,-2.6 -2.4,-4.8 0.3,-0.8 1.4,-0.8 4.4,1.5 9.7,2.7 8.6,1.9 20,5.7 23,5.7 15,3.49 -4.8,17.56 -4.5,20.83 -3.4,16.25 -0.4,9.18 0,0 -12.9,-3.72 -15.3,-3.47 -14.5,0.32 -1.1,-1.53 -5.7,2.09 -3.9,-0.42 -2.6,-1.79 -1.7,0.65 -4.15,-0.25 -1.72,-1.32 -5.16,-1.82 -1.18,-0.16 -4.8,-1.39 -1.92,1.65 -5.65,-0.25 -4.61,-3.35 z m 9.6,-55.4 2,-0.2 0.5,1.4 1.5,-1.6 2.3,0 0.8,1.5 -1.5,1.7 0.6,0.8 -0.7,2 -1.4,0.4 c 0,0 -0.9,0.1 -0.9,-0.2 0,-0.3 1.5,-2.6 1.5,-2.6 l -1.7,-0.6 -0.3,1.5 -0.7,0.6 -1.5,-2.3 z"
       id="WA" />
    <path
       style="fill:#e3e3e3;fill-opacity:1"
       inkscape:connector-curvature="0"
       d="m 541.4,109.9 2.9,0.5 2.9,-0.6 7.4,-3.2 2.9,-1.9 2.1,-0.8 1.9,1.5 -1.1,1.1 -1.9,3.1 -0.6,1.9 1,0.6 1.8,-1 1.1,-0.2 2.7,0.8 0.6,1.1 1.1,0.2 0.6,-1.1 4,5.3 8.2,1.2 8.2,2.2 2.6,1.1 12.3,2.6 1.6,2.3 3.6,1.2 1.7,10.2 1.6,1.4 1.5,0.9 -1.1,2.3 -1.8,1.6 -2.1,4.7 -1.3,2.4 0.2,1.8 1.5,0.3 1.1,-1.9 1.5,-0.8 0.8,-2.3 1.9,-1.8 2.7,-4 4.2,-6.3 0.8,-0.5 0.3,1 -0.2,2.3 -2.9,6.8 -2.7,5.7 -0.5,3.2 -0.6,2.6 0.8,1.3 -0.2,2.7 -1.9,2.4 -0.5,1.8 0.6,3.6 0.6,3.4 -1.5,2.6 -0.8,2.9 -1,3.1 1.1,2.4 0.6,6.1 1.6,4.5 -0.2,3 -15.9,1.8 -17.5,1 -12.7,0 -0.7,-1.5 -2.9,-0.4 -2.6,-1.3 -2.3,-3.7 -0.3,-3.6 2,-2.9 -0.5,-1.4 -2.1,-2.2 -0.8,-3.3 -0.6,-6.8 -2.1,-2.5 -7,-4.5 -3.8,-5.4 -3.4,-1 -2.2,-2.8 -3.2,0 -2.9,-3.3 -0.5,-6.5 0.1,-3.8 1.5,-3.1 -0.8,-3.2 -2.5,-2.8 1.8,-5.4 5.2,-3.8 1.6,-1.9 -0.2,-8.1 0.2,-2.8 2.4,-2.8 z"
       id="WI" />
    <path
       style="fill:#e3e3e3;fill-opacity:1"
       inkscape:connector-curvature="0"
       d="m 758.9,254.3 5.8,-6 2.6,-0.8 1.6,-1.5 1.5,-2.2 1.1,0.3 3.1,-0.2 4.6,-3.6 1.5,-0.5 1.3,1 2.6,1.2 3,3 -0.4,4.3 -5.4,-2.6 -4.8,-1.8 -0.1,5.9 -2.6,5.7 -2.9,2.4 -0.8,2.3 -3,0.5 -1.7,8.1 -2.8,0.2 -1.1,-1 -1.2,-2 -2.2,0.5 -0.5,5.1 -1.8,5.1 -5,11 0.9,1.4 -0.1,2 -2.2,2.5 -1.6,-0.4 -3.1,2.3 -2.8,-0.8 -1.8,4.9 -3.8,1 -2.5,-1.3 -2.5,1.9 -2.3,0.7 -3.2,-0.8 -3.8,-4.5 -3.5,-2.2 -2.5,-2.5 -2.9,-3.7 -0.5,-2.3 -2.8,-1.7 -0.6,-1.3 -0.2,-5.6 0.3,0.1 2.4,-0.2 1.8,-1 0,-2.2 1.7,-1.5 0.1,-5.2 0.9,-3.6 1.1,-0.7 0.4,0.3 1,1.1 1.7,0.5 1.1,-1.3 -1,-3.1 0,-1.6 3.1,-4.6 1.2,-1.3 2,0.5 2.6,-1.8 3.1,-3.4 2.4,-4.1 0.2,-5.6 0.5,-4.8 0,-4.9 -1.1,-3 0.9,-1.3 0.8,-0.7 4.3,19.3 4.3,-0.8 11.2,-1.3 z"
       id="WV" />
    <path
       style="fill:#e3e3e3;fill-opacity:1"
       inkscape:connector-curvature="0"
       d="m 353,161.9 -1.5,25.4 -4.4,44 -2.7,-0.3 -83.3,-9.1 -27.9,-3 2,-12 6.9,-41 3.8,-24.2 1.3,-11.2 48.2,7 59.1,6.5 z"
       id="WY" />
  </g>
  <g
     inkscape:groupmode="layer"
     id="layer4"
     inkscape:label="Map Dots"
     style="display:inline"
     transform="translate(-282.42236,-48.063574)">
    <circle
       style="display:inline;opacity:1;fill:#bc5fd3;fill-opacity:1;stroke:#ffffff;stroke-width:1;stroke-linejoin:miter;stroke-miterlimit:4;stroke-dasharray:none;stroke-dashoffset:0;stroke-opacity:1"
       id="path4339"
       cx="440.97739"
       cy="405.59799"
       r="5" />
    <circle
       style="display:inline;opacity:1;fill:#37c871;fill-opacity:1;stroke:#ffffff;stroke-width:1;stroke-linejoin:miter;stroke-miterlimit:4;stroke-dasharray:none;stroke-dashoffset:0;stroke-opacity:1"
       id="path4339-9"
       cx="445.47726"
       cy="379.10022"
       r="5" />
    <circle
       style="display:inline;opacity:1;fill:#ff9955;fill-opacity:1;stroke:#ffffff;stroke-width:1;stroke-linejoin:miter;stroke-miterlimit:4;stroke-dasharray:none;stroke-dashoffset:0;stroke-opacity:1"
       id="path4339-3"
       cx="452.19479"
       cy="456.1748"
       r="5" />
    <circle
       style="display:inline;opacity:1;fill:#5f8dd3;fill-opacity:1;stroke:#ffffff;stroke-width:1;stroke-linejoin:miter;stroke-miterlimit:4;stroke-dasharray:none;stroke-dashoffset:0;stroke-opacity:1"
       id="path4339-9-6"
       cx="808.1936"
       cy="195.5654"
       r="5" />
    <circle
       style="display:inline;opacity:1;fill:#d35f5f;fill-opacity:1;stroke:#ffffff;stroke-width:1;stroke-linejoin:miter;stroke-miterlimit:4;stroke-dasharray:none;stroke-dashoffset:0;stroke-opacity:1"
       id="path4339-9-6-7"
       cx="821.51294"
       cy="289.63171"
       r="5" />
  </g>
  <g
     inkscape:groupmode="layer"
     id="layer2"
     inkscape:label="Terminals"
     style="display:inline"
     transform="translate(-282.42236,-48.063574)">
    <path
       style="display:inline;fill:#ff9955;fill-opacity:1;fill-rule:evenodd;stroke:#222222;stroke-width:0.89999998;stroke-linecap:butt;stroke-linejoin:miter;stroke-miterlimit:4;stroke-dasharray:none;stroke-opacity:1"
       d="m 506.6822,480.7628 a 9.7475352,9.7475352 0 0 0 -4.0124,-4.6267 l 0.45004,-0.7537 -1.6174,-3.90147 -1.96689,0.8154 -1.28433,-3.09803 1.9669,-0.8154 -1.46551,-3.53509 -1.9669,0.81539 -0.98503,-2.37606 1.9669,-0.8154 -5.35764,-12.92364 -1.9669,0.8154 -1.00906,-2.43406 1.96689,-0.8154 -1.53764,-3.70908 -2.62929,1.09 -6.65497,-16.05306 -10.02592,4.15635 1.946,4.69412 -7.99785,3.3156 6.24662,15.06802 4.09734,-1.69859 10.2093,24.62678 a 10.912893,10.912893 0 0 0 -1.94361,2.4752 l -2.52962,-1.6529 -0.86179,1.31845 2.70738,1.769 a 10.912893,10.912893 0 0 0 0.0546,8.18576 10.912893,10.912893 0 0 0 10.37231,6.71773 l 10.17317,24.53961 0.48824,1.17773 0.68901,1.66201 4.53787,-1.88122 -0.689,-1.66201 4.75211,-1.97005 0.83314,2.00968 4.81043,-1.99422 2.59481,6.25915 2.45529,-1.01787 -2.5948,-6.25913 -1.17724,-2.83974 -9.22573,-22.25421 -1.9669,0.8154 -0.98003,-2.36401 1.9669,-0.8154 -1.54947,-3.73761 -0.85219,-0.21459 a 9.7475352,9.7475352 0 0 0 -0.43712,-6.10814 z"
       id="path6517"
       inkscape:connector-curvature="0" />
    <path
       style="display:inline;opacity:1;fill:#37c871;fill-opacity:1;stroke:#222222;stroke-width:0.89999998;stroke-linejoin:miter;stroke-miterlimit:4;stroke-dasharray:none;stroke-dashoffset:0;stroke-opacity:1"
       d="m 404.22175,323.0686 -1.00575,2.58382 0.86142,0.3353 -1.56433,4.01897 -1.72253,-0.67033 -1.31283,3.37309 1.72254,0.67033 -1.67619,4.30622 -1.72239,-0.67046 -0.97767,2.51213 5.81336,2.26255 2.51408,-6.45923 9.9759,3.8829 -2.65374,6.81818 -6.96156,-2.70958 -2.96096,7.60731 4.52144,1.75996 -1.36878,3.51663 1.65066,0.64237 -1.1733,3.0143 9.47352,3.6874 3.26832,-8.39688 5.59812,2.17879 10.40316,-26.72846 1.19616,-1.1641 0.8595,0.88316 12.14232,-11.81696 -6.12336,-6.29194 -3.03564,2.95431 -8.43294,-8.66508 -7.23,7.0363 8.43288,8.66508 -0.60714,0.59086 -1.26948,1.23549 -3.1419,3.05771 -0.58884,-0.22915 0.25134,-0.64603 -5.31084,-2.06721 -0.25152,0.64618 -0.933,-0.36323 -1.7598,4.52161 -8.03826,-3.12867 -1.87158,4.80839 1.72242,0.67045 -0.78204,2.00934 -3.66018,-1.42453 2.68164,-6.88973 -4.9522,-1.92757 z"
       id="rect6523"
       inkscape:connector-curvature="0" />
    <path
       id="rect6685"
       d="m 532.82617,349.67725 -5.72023,-7.73116 3.34024,-2.7823 -5.36948,-6.44624 1.21761,-1.01422 -5.90652,-7.09099 -11.13766,9.27725 -3.31683,-3.54587 -16.79601,13.99042 2.88792,3.90314 -3.3984,2.83075 2.72124,3.67801 -9.00678,7.50232 4.4745,5.37181 -19.60212,16.32784 10.71618,11.45576 54.89634,-45.72652 z"
       style="opacity:1;fill:#bc5fd3;fill-opacity:1;stroke:#222222;stroke-width:0.89999998;stroke-linejoin:miter;stroke-miterlimit:4;stroke-dasharray:none;stroke-dashoffset:0;stroke-opacity:1"
       inkscape:connector-curvature="0" />
    <path
       inkscape:connector-curvature="0"
       style="opacity:1;fill:#5f8dd3;fill-opacity:1;stroke:#222222;stroke-width:0.89999998;stroke-linejoin:miter;stroke-miterlimit:4;stroke-dasharray:none;stroke-dashoffset:0;stroke-opacity:1"
       d="m 866.92102,174.0805 -1.68801,-1.07792 -2.11679,3.31515 -9.85298,-6.29093 -18.49532,28.96679 1.87114,1.19471 -1.11233,1.74193 3.41917,2.18301 -6.2201,9.74201 -1.87074,-1.1946 -4.03687,6.32203 -4.83853,-3.08929 -1.35936,2.12916 -5.54808,-3.54251 -3.41425,5.34776 -8.08467,-2.62531 -0.85236,0.47216 -10.70056,-19.31703 -2.93952,1.62833 -1.6804,-3.03351 -11.91838,6.60211 1.0509,1.89711 -1.9023,1.05377 31.83935,57.47753 4.54509,-2.51773 0.20983,0.3788 13.06747,-7.23864 -5.42716,-9.7973 3.96653,-6.21201 6.96758,4.44906 8.60915,-13.48374 -2.58055,-1.64767 6.92013,-10.838 1.03238,0.65912 3.58376,-5.61288 -1.74207,-1.1126 2.30667,-3.61252 1.9354,1.23558 18.49532,-28.96679 -3.55533,-2.27 2.11679,-3.31514 z"
       id="rect6386" />
    <path
       id="rect6575"
       d="m 753.86981,295.07657 a 52.696079,52.696079 0 0 1 -62.18258,39.09188 l -1.36473,6.36585 a 59.219407,59.219407 0 0 1 -0.34747,-0.0596 59.219407,59.219407 0 0 1 -0.37481,-0.10238 l -1.91395,8.4133 a 67.836318,67.836318 0 0 0 0.4344,0.112 67.836318,67.836318 0 0 0 35.83738,-1.92409 l -3.13197,14.22604 -1.77819,-0.39149 -1.504,6.83154 5.98939,1.31861 -4.67693,21.2436 0.96804,0.21312 -0.14737,0.66941 6.0549,1.33303 c 0,0 2.0096,1.58721 4.59914,1.01253 l 2.64694,0.58275 1.52204,0.33508 1.78663,0.39334 0.14738,-0.66941 0.95166,0.20952 4.92414,-22.36646 0.84239,0.18546 1.07135,-4.86628 12.48059,2.74768 -0.92128,3.6582 a 22.72553,22.72553 0 0 0 0.65748,0.17963 22.72553,22.72553 0 0 0 19.58738,-4.90146 l 2.45458,2.88716 a 26.51998,26.51998 0 0 0 7.86199,-11.48772 l 0.39638,0.0873 3.55612,0.78291 23.95731,5.27437 1.56582,-7.11224 -0.60822,-0.13392 0.89622,-4.07097 0.60828,0.13391 1.59672,-7.25273 -27.51345,-6.05729 -1.48344,6.73814 -30.69521,-6.75777 2.03971,-9.2648 -9.91989,-2.18394 a 67.836318,67.836318 0 0 0 8.12405,-9.84226 l -5.12136,-3.46515 a 61.703202,61.703202 0 0 0 8.89106,-19.99092 l -8.76462,-2.12545 z"
       style="display:inline;opacity:1;fill:#d35f5f;fill-opacity:1;stroke:#222222;stroke-width:0.89999998;stroke-linejoin:miter;stroke-miterlimit:4;stroke-dasharray:none;stroke-dashoffset:0;stroke-opacity:1"
       inkscape:connector-curvature="0" />
  </g>
  <g
     inkscape:groupmode="layer"
     id="layer3"
     inkscape:label="Labels"
     transform="translate(-282.42236,-48.063574)">
    <text
       xml:space="preserve"
       style="font-style:normal;font-variant:normal;font-weight:normal;font-stretch:normal;font-size:15px;line-height:115.99999666%;font-family:Overpass;-inkscape-font-specification:'Overpass, Normal';text-align:center;letter-spacing:0px;word-spacing:0px;writing-mode:lr-tb;text-anchor:middle;fill:#bc5fd3;fill-opacity:1;stroke:none;stroke-width:0.5;stroke-linecap:butt;stroke-linejoin:miter;stroke-miterlimit:4;stroke-dasharray:none;stroke-opacity:1;filter:url(#filter5080)"
       x="493"
       y="411"
       id="text4402"
       sodipodi:linespacing="116%"><tspan
         sodipodi:role="line"
         id="tspan4404"
         x="493"
         y="411">Wichita Falls</tspan></text>
    <text
       xml:space="preserve"
       style="font-style:normal;font-variant:normal;font-weight:normal;font-stretch:normal;font-size:15px;line-height:115.99999666%;font-family:Overpass;-inkscape-font-specification:'Overpass, Normal';text-align:center;letter-spacing:0px;word-spacing:0px;writing-mode:lr-tb;text-anchor:middle;fill:#ff9955;fill-opacity:1;stroke:none;stroke-width:0.5;stroke-linecap:butt;stroke-linejoin:miter;stroke-miterlimit:4;stroke-dasharray:none;stroke-opacity:1;filter:url(#filter5068)"
       x="442"
       y="479"
       id="text4406"
       sodipodi:linespacing="116%"><tspan
         sodipodi:role="line"
         id="tspan4422"
         x="442"
         y="479">Killeen</tspan><tspan
         sodipodi:role="line"
         id="tspan4424"
         x="442"
         y="496.39999">Fort Hood</tspan></text>
    <text
       xml:space="preserve"
       style="font-style:normal;font-variant:normal;font-weight:normal;font-stretch:normal;font-size:15px;line-height:115.99999666%;font-family:Overpass;-inkscape-font-specification:'Overpass, Normal';text-align:center;letter-spacing:0px;word-spacing:0px;writing-mode:lr-tb;text-anchor:middle;fill:#37c871;fill-opacity:1;stroke:none;stroke-width:0.5;stroke-linecap:butt;stroke-linejoin:miter;stroke-miterlimit:4;stroke-dasharray:none;stroke-opacity:1;filter:url(#filter5056)"
       x="411"
       y="383"
       id="text4410"
       sodipodi:linespacing="116%"><tspan
         sodipodi:role="line"
         id="tspan4412"
         x="411"
         y="383">Lawton</tspan></text>
    <text
       xml:space="preserve"
       style="font-style:normal;font-variant:normal;font-weight:normal;font-stretch:normal;font-size:15px;line-height:115.99999666%;font-family:Overpass;-inkscape-font-specification:'Overpass, Normal';text-align:center;letter-spacing:0px;word-spacing:0px;writing-mode:lr-tb;text-anchor:middle;fill:#5f8dd3;fill-opacity:1;stroke:none;stroke-width:0.5;stroke-linecap:butt;stroke-linejoin:miter;stroke-miterlimit:4;stroke-dasharray:none;stroke-opacity:1;filter:url(#filter5044)"
       x="808.1936"
       y="166"
       id="text4414"
       sodipodi:linespacing="116%"><tspan
         sodipodi:role="line"
         id="tspan4430"
         x="808.1936"
         y="166">Wilkes Barre</tspan><tspan
         sodipodi:role="line"
         id="tspan4432"
         x="808.1936"
         y="183.39999">Scranton</tspan></text>
    <text
       xml:space="preserve"
       style="font-style:normal;font-variant:normal;font-weight:normal;font-stretch:normal;font-size:15px;line-height:115.99999666%;font-family:Overpass;-inkscape-font-specification:'Overpass, Normal';text-align:center;letter-spacing:0px;word-spacing:0px;writing-mode:lr-tb;text-anchor:middle;fill:#d35f5f;fill-opacity:1;stroke:none;stroke-width:0.5;stroke-linecap:butt;stroke-linejoin:miter;stroke-miterlimit:4;stroke-dasharray:none;stroke-opacity:1;filter:url(#filter5032)"
       x="821.21265"
       y="310"
       id="text4418"
       sodipodi:linespacing="116%"><tspan
         sodipodi:role="line"
         id="tspan4426"
         x="821.21265"
         y="310">Newport News</tspan><tspan
         sodipodi:role="line"
         id="tspan4428"
         x="821.21265"
         y="327.39999">Williamsburg</tspan></text>
  </g>
  <g
     inkscape:groupmode="layer"
     id="layer5"
     inkscape:label="Codes"
     transform="translate(-282.42236,-48.063574)">
    <text
       xml:space="preserve"
       style="font-style:normal;font-variant:normal;font-weight:normal;font-stretch:normal;font-size:12.5px;line-height:125%;font-family:Overpass;-inkscape-font-specification:'Overpass, Normal';text-align:start;letter-spacing:0px;word-spacing:0px;writing-mode:lr-tb;text-anchor:start;fill:#ffffff;fill-opacity:1;stroke:none;stroke-width:1px;stroke-linecap:butt;stroke-linejoin:miter;stroke-opacity:1"
       x="-152.49713"
       y="529.18274"
       id="text5093"
       sodipodi:linespacing="125%"
       transform="matrix(0.4072352,-0.91332332,0.91332332,0.4072352,0,0)"><tspan
         sodipodi:role="line"
         id="tspan5095"
         x="-152.49713"
         y="529.18274">LAW</tspan></text>
    <text
       xml:space="preserve"
       style="font-style:normal;font-variant:normal;font-weight:normal;font-stretch:normal;font-size:12.5px;line-height:125%;font-family:Overpass;-inkscape-font-specification:'Overpass, Normal';text-align:start;letter-spacing:0px;word-spacing:0px;writing-mode:lr-tb;text-anchor:start;fill:#ffffff;fill-opacity:1;stroke:none;stroke-width:1px;stroke-linecap:butt;stroke-linejoin:miter;stroke-opacity:1"
       x="159.11217"
       y="598.56641"
       id="text5093-2"
       sodipodi:linespacing="125%"
       transform="matrix(0.77517787,-0.63174304,0.63174304,0.77517787,0,0)"><tspan
         sodipodi:role="line"
         id="tspan5115"
         x="159.11217"
         y="598.56641">SPS</tspan></text>
    <text
       xml:space="preserve"
       style="font-style:normal;font-variant:normal;font-weight:normal;font-stretch:normal;font-size:12.5px;line-height:125%;font-family:Overpass;-inkscape-font-specification:'Overpass, Normal';text-align:start;letter-spacing:0px;word-spacing:0px;writing-mode:lr-tb;text-anchor:start;fill:#ffffff;fill-opacity:1;stroke:none;stroke-width:1px;stroke-linecap:butt;stroke-linejoin:miter;stroke-opacity:1"
       x="624.05096"
       y="-270.18466"
       id="text5093-1"
       sodipodi:linespacing="125%"
       transform="matrix(0.37948854,0.92519644,-0.92519644,0.37948854,0,0)"><tspan
         sodipodi:role="line"
         id="tspan5125"
         x="624.05096"
         y="-270.18466">GRK</tspan></text>
    <text
       xml:space="preserve"
       style="font-style:normal;font-variant:normal;font-weight:normal;font-stretch:normal;font-size:12.5px;line-height:125%;font-family:Overpass;-inkscape-font-specification:'Overpass, Normal';text-align:start;letter-spacing:0px;word-spacing:0px;writing-mode:lr-tb;text-anchor:start;fill:#ffffff;fill-opacity:1;stroke:none;stroke-width:1px;stroke-linecap:butt;stroke-linejoin:miter;stroke-opacity:1"
       x="795.53766"
       y="185.56534"
       id="text5093-5"
       sodipodi:linespacing="125%"
       transform="matrix(0.97612287,0.21721911,-0.21721911,0.97612287,0,0)"><tspan
         sodipodi:role="line"
         id="tspan5135"
         x="795.53766"
         y="185.56534">PHF</tspan></text>
    <text
       xml:space="preserve"
       style="font-style:normal;font-variant:normal;font-weight:normal;font-stretch:normal;font-size:12.5px;line-height:125%;font-family:Overpass;-inkscape-font-specification:'Overpass, Normal';text-align:start;letter-spacing:0px;word-spacing:0px;writing-mode:lr-tb;text-anchor:start;fill:#ffffff;fill-opacity:1;stroke:none;stroke-width:1px;stroke-linecap:butt;stroke-linejoin:miter;stroke-opacity:1"
       x="566.2876"
       y="-592.8468"
       id="text5093-4"
       sodipodi:linespacing="125%"
       transform="matrix(0.46958146,0.88288915,-0.88288915,0.46958146,0,0)"><tspan
         sodipodi:role="line"
         id="tspan5145"
         x="566.2876"
         y="-592.8468">AVP</tspan></text>
  </g>
</svg>
