<?xml version="1.0" encoding="UTF-8" standalone="no"?>
<!-- Created with Inkscape (http://www.inkscape.org/) -->

<svg
   xmlns:dc="http://purl.org/dc/elements/1.1/"
   xmlns:cc="http://creativecommons.org/ns#"
   xmlns:rdf="http://www.w3.org/1999/02/22-rdf-syntax-ns#"
   xmlns:svg="http://www.w3.org/2000/svg"
   xmlns="http://www.w3.org/2000/svg"
   xmlns:sodipodi="http://sodipodi.sourceforge.net/DTD/sodipodi-0.dtd"
   xmlns:inkscape="http://www.inkscape.org/namespaces/inkscape"
   width="349.81744"
   height="185.82141"
   viewBox="0 0 349.81744 185.82141"
   id="svg2"
   version="1.1"
   inkscape:version="0.91 r13725"
   sodipodi:docname="ABI.svg"
   inkscape:export-filename="C:\Users\Paul Bogard\Dropbox\Documents\Websites\Flight Log\Images\Terminals\ABI.png"
   inkscape:export-xdpi="90"
   inkscape:export-ydpi="90">
  <defs
     id="defs4" />
  <sodipodi:namedview
     id="base"
     pagecolor="#ffffff"
     bordercolor="#666666"
     borderopacity="1.0"
     inkscape:pageopacity="1"
     inkscape:pageshadow="2"
     inkscape:zoom="1"
     inkscape:cx="31.91243"
     inkscape:cy="106.65888"
     inkscape:document-units="px"
     inkscape:current-layer="layer3"
     showgrid="false"
     units="px"
     fit-margin-top="25"
     fit-margin-left="25"
     fit-margin-right="25"
     fit-margin-bottom="25"
     inkscape:window-width="1680"
     inkscape:window-height="987"
     inkscape:window-x="1672"
     inkscape:window-y="-8"
     inkscape:window-maximized="1" />
  <metadata
     id="metadata7">
    <rdf:RDF>
      <cc:Work
         rdf:about="">
        <dc:format>image/svg+xml</dc:format>
        <dc:type
           rdf:resource="http://purl.org/dc/dcmitype/StillImage" />
        <dc:title />
      </cc:Work>
    </rdf:RDF>
  </metadata>
  <g
     inkscape:groupmode="layer"
     id="layer2"
     inkscape:label="Terminal"
     transform="translate(-734.08222,-495.21429)">
    <path
       style="fill:#dddddd;fill-opacity:1;fill-rule:evenodd;stroke:#222222;stroke-width:1.5;stroke-linecap:butt;stroke-linejoin:miter;stroke-miterlimit:4;stroke-dasharray:none;stroke-opacity:1"
       d="m 759.83719,557.46519 0.17421,26.30585 25.47835,0 0.13066,14.06753 -5.00857,0 0,2.4825 -5.09567,0 0.0871,18.68412 30.96599,0 -0.0436,-18.72767 -5.00856,0 -0.0435,-2.61316 -5.13922,0.0871 0.0435,-14.19819 25.5219,0 -0.21776,-26.30584 z"
       id="path3348"
       inkscape:connector-curvature="0" />
  </g>
  <g
     inkscape:groupmode="layer"
     id="layer3"
     inkscape:label="Label">
    <g
       style=""
       id="g4158"
       transform="translate(-635.80444,-421.03924)">
      <g
         style="font-style:normal;font-variant:normal;font-weight:bold;font-stretch:normal;font-size:125px;line-height:110.00000238%;font-family:Overpass;-inkscape-font-specification:'Overpass, Bold';text-align:center;letter-spacing:0px;word-spacing:0px;writing-mode:lr-tb;text-anchor:middle;fill:#dddddd;fill-opacity:1;stroke:#222222;stroke-width:0.25;stroke-linecap:butt;stroke-linejoin:miter;stroke-miterlimit:4;stroke-dasharray:none;stroke-opacity:1"
         id="text4150">
        <path
           d="m 819.87189,533.68866 -6.77491,-18.12744 -33.75244,0 -6.71386,18.12744 -18.12745,0 33.50831,-87.52441 16.47949,0 33.5083,87.52441 -18.12744,0 z m -20.87403,-56.27441 q -0.67138,-1.58692 -1.46484,-3.78418 -0.73242,-2.19727 -1.28174,-4.08936 -0.48828,1.89209 -1.28174,4.08936 -0.79345,2.19726 -1.46484,3.78418 l -8.66699,22.76611 22.76611,0 -8.60596,-22.76611 z"
           style=""
           id="path4141" />
        <path
           d="m 853.86847,446.16425 38.39111,0 q 7.99561,0 13.42774,2.01416 5.43213,2.01416 8.72802,5.31005 3.35694,3.2959 4.76075,7.50733 1.46484,4.21142 1.46484,8.66699 0,2.80762 -0.61035,5.43213 -0.54932,2.62451 -1.83106,4.94385 -1.28173,2.2583 -3.29589,4.21142 -2.01416,1.89209 -4.88282,3.2959 3.72315,1.40381 6.28662,3.66211 2.62452,2.19727 4.21143,4.88281 1.64795,2.68555 2.38037,5.67627 0.73242,2.99073 0.73242,5.92041 0,4.63867 -1.58691,9.27735 -1.52588,4.63867 -5.06592,8.36181 -3.479,3.72315 -9.15527,6.04248 -5.61524,2.31934 -13.79395,2.31934 l -40.16113,0 0,-87.52441 z m 41.01562,71.77734 q 3.41797,0 5.67627,-0.91553 2.2583,-0.97656 3.54004,-2.4414 1.34278,-1.46485 1.89209,-3.2959 0.54932,-1.83106 0.54932,-3.60108 0,-2.13623 -0.67139,-4.15039 -0.61035,-2.07519 -2.31933,-3.66211 -1.70899,-1.58691 -4.63868,-2.56347 -2.92968,-0.97657 -7.50732,-0.97657 l -20.62988,0 0,21.60645 24.10888,0 z m -4.63867,-37.35352 q 6.71387,0 9.94873,-2.56347 3.2959,-2.62451 3.2959,-6.83594 0,-1.64795 -0.42724,-3.2959 -0.42725,-1.64795 -1.64795,-2.99072 -1.15967,-1.34277 -3.2959,-2.13623 -2.13623,-0.85449 -5.61524,-0.85449 l -21.72851,0 0,18.67675 19.47021,0 z"
           style=""
           id="path4143" />
        <path
           d="m 943.65118,533.68866 0,-87.52441 16.84571,0 0,87.52441 -16.84571,0 z"
           style=""
           id="path4145" />
      </g>
      <g
         style="font-style:normal;font-variant:normal;font-weight:normal;font-stretch:normal;font-size:45px;line-height:110.00000238%;font-family:Overpass;-inkscape-font-specification:'Overpass, Normal';text-align:center;letter-spacing:0px;word-spacing:0px;writing-mode:lr-tb;text-anchor:middle;fill:#222222;fill-opacity:1;stroke:none;stroke-width:1px;stroke-linecap:butt;stroke-linejoin:miter;stroke-opacity:1"
         id="text4154">
        <path
           d="m 804.8316,581.31134 -2.50488,-7.25098 -12.74414,0 -2.5708,7.25098 -4.85596,0 11.38184,-31.50879 4.81201,0 11.33789,31.50879 -4.85596,0 z m -7.77832,-22.10449 q -0.26367,-0.74707 -0.59326,-1.73584 -0.30762,-0.98877 -0.4834,-1.80176 -0.21972,0.81299 -0.52734,1.80176 -0.28564,0.9668 -0.54932,1.73584 l -3.88916,10.72265 9.86573,0 -3.82325,-10.72265 z"
           style=""
           id="path4148" />
        <path
           d="m 825.04645,581.86066 q -0.98877,0 -1.80176,-0.19776 -0.79102,-0.17578 -1.4502,-0.4834 -0.65918,-0.32959 -1.18652,-0.76904 -0.52734,-0.43945 -0.98877,-0.94482 l 0,1.8457 -4.68017,0 0,-30.32227 4.68017,-2.17529 0,11.25 q 0.87891,-0.98877 2.19727,-1.62597 1.34033,-0.65918 3.22998,-0.65918 2.10937,0 3.86719,0.81298 1.75781,0.81299 3.01025,2.37305 1.27441,1.53809 1.97754,3.7793 0.70312,2.21924 0.70312,5.05371 0,2.92236 -0.65918,5.18555 -0.65918,2.24121 -1.91162,3.77929 -1.23047,1.51612 -3.01025,2.30713 -1.75781,0.79102 -3.97705,0.79102 z m -0.57129,-4.41651 q 1.34033,0 2.35107,-0.52734 1.01075,-0.54932 1.6919,-1.53809 0.70312,-0.98877 1.05468,-2.39502 0.35157,-1.42822 0.35157,-3.18603 0,-3.71338 -1.40625,-5.64697 -1.38428,-1.95557 -4.04297,-1.95557 -0.90088,0 -1.66992,0.2417 -0.76905,0.2417 -1.40625,0.61523 -0.61524,0.37354 -1.07666,0.83496 -0.43946,0.46143 -0.70313,0.90088 l 0,10.04151 q 0.76904,1.25244 2.02149,1.93359 1.27441,0.68115 2.83447,0.68115 z"
           style=""
           id="path4150" />
        <path
           d="m 840.29547,581.31134 0,-23.00537 4.68018,0 0,23.00537 -4.68018,0 z m 2.3291,-26.58691 q -0.59326,0 -1.1206,-0.21973 -0.50537,-0.21973 -0.90088,-0.59326 -0.37354,-0.39551 -0.59326,-0.90088 -0.21973,-0.52734 -0.21973,-1.12061 0,-0.59326 0.21973,-1.09863 0.21972,-0.52734 0.59326,-0.90088 0.39551,-0.39551 0.90088,-0.61523 0.52734,-0.21973 1.1206,-0.21973 0.59326,0 1.09864,0.21973 0.52734,0.21972 0.90087,0.61523 0.39551,0.37354 0.61524,0.90088 0.21973,0.50537 0.21973,1.09863 0,0.59327 -0.21973,1.12061 -0.21973,0.50537 -0.61524,0.90088 -0.37353,0.37353 -0.90087,0.59326 -0.50538,0.21973 -1.09864,0.21973 z"
           style=""
           id="path4152" />
        <path
           d="m 851.98492,581.31134 0,-30.27832 4.68018,-2.21924 0,32.49756 -4.68018,0 z"
           style=""
           id="path4154" />
        <path
           d="m 872.94684,581.86066 q -2.39502,0 -4.32861,-0.81299 -1.9336,-0.83496 -3.2959,-2.37305 -1.36231,-1.56006 -2.10938,-3.80127 -0.7251,-2.24121 -0.7251,-5.07568 0,-2.83447 0.74707,-5.05371 0.74707,-2.24121 2.10938,-3.7793 1.38428,-1.56006 3.2959,-2.37305 1.93359,-0.81298 4.30664,-0.81298 2.04346,0 3.82324,0.65918 1.80176,0.6372 3.14209,1.97753 1.36231,1.31836 2.13135,3.33985 0.79101,2.02148 0.79101,4.76806 0,0.74707 -0.0439,1.58204 -0.022,0.83496 -0.13184,1.45019 l -15.49072,0 q 0.022,1.42822 0.50537,2.5708 0.50537,1.12061 1.31836,1.9336 0.81299,0.79101 1.8457,1.23046 1.03272,0.41748 2.15332,0.41748 1.42823,0 2.63672,-0.59326 1.23047,-0.59326 2.13135,-1.73584 l 3.0542,3.14209 q -1.25244,1.49414 -3.20801,2.417 -1.95556,0.92285 -4.6582,0.92285 z m 0,-19.95118 q -1.09863,0 -2.10938,0.32959 -1.01074,0.30762 -1.80175,1.01075 -0.76905,0.68115 -1.27442,1.80175 -0.50537,1.12061 -0.59326,2.72461 l 10.98633,0 q -0.0439,-1.604 -0.50537,-2.72461 -0.46143,-1.1206 -1.2085,-1.80175 -0.74707,-0.70313 -1.66992,-1.01075 -0.90088,-0.32959 -1.82373,-0.32959 z"
           style=""
           id="path4156" />
        <path
           d="m 902.45612,581.31134 0,-13.73291 q 0,-1.4502 -0.35157,-2.46094 -0.35156,-1.03271 -0.96679,-1.66992 -0.61524,-0.65918 -1.4502,-0.94482 -0.83496,-0.30762 -1.82373,-0.30762 -1.05469,0 -1.95557,0.28564 -0.90087,0.26368 -1.56005,0.87891 -0.65918,0.61523 -1.05469,1.64795 -0.37354,1.01074 -0.37354,2.48291 l 0,13.8208 -4.68017,0 0,-23.00537 4.68017,0 0,2.21924 q 1.12061,-1.42823 2.5708,-2.0874 1.4502,-0.65918 3.36182,-0.65918 1.80176,0 3.31787,0.52734 1.51611,0.50537 2.61475,1.66992 1.1206,1.16455 1.73584,3.03223 0.61523,1.86767 0.61523,4.57031 l 0,13.73291 -4.68017,0 z"
           style=""
           id="path4158" />
        <path
           d="m 922.9566,581.86066 q -2.39502,0 -4.32861,-0.81299 -1.93359,-0.83496 -3.2959,-2.37305 -1.3623,-1.56006 -2.10937,-3.80127 -0.7251,-2.24121 -0.7251,-5.07568 0,-2.83447 0.74707,-5.05371 0.74707,-2.24121 2.10937,-3.7793 1.38428,-1.56006 3.2959,-2.37305 1.9336,-0.81298 4.30664,-0.81298 2.04346,0 3.82325,0.65918 1.80175,0.6372 3.14209,1.97753 1.3623,1.31836 2.13134,3.33985 0.79102,2.02148 0.79102,4.76806 0,0.74707 -0.0439,1.58204 -0.022,0.83496 -0.13183,1.45019 l -15.49072,0 q 0.022,1.42822 0.50537,2.5708 0.50537,1.12061 1.31836,1.9336 0.81298,0.79101 1.8457,1.23046 1.03271,0.41748 2.15332,0.41748 1.42822,0 2.63672,-0.59326 1.23047,-0.59326 2.13135,-1.73584 l 3.05419,3.14209 q -1.25244,1.49414 -3.208,2.417 -1.95557,0.92285 -4.65821,0.92285 z m 0,-19.95118 q -1.09863,0 -2.10937,0.32959 -1.01074,0.30762 -1.80176,1.01075 -0.76904,0.68115 -1.27441,1.80175 -0.50537,1.12061 -0.59326,2.72461 l 10.98632,0 q -0.0439,-1.604 -0.50537,-2.72461 -0.46142,-1.1206 -1.20849,-1.80175 -0.74707,-0.70313 -1.66993,-1.01075 -0.90087,-0.32959 -1.82373,-0.32959 z"
           style=""
           id="path4160" />
      </g>
    </g>
  </g>
</svg>
