<?xml version="1.0" encoding="UTF-8" standalone="no"?>
<!-- Created with Inkscape (http://www.inkscape.org/) -->

<svg
   xmlns:dc="http://purl.org/dc/elements/1.1/"
   xmlns:cc="http://creativecommons.org/ns#"
   xmlns:rdf="http://www.w3.org/1999/02/22-rdf-syntax-ns#"
   xmlns:svg="http://www.w3.org/2000/svg"
   xmlns="http://www.w3.org/2000/svg"
   xmlns:sodipodi="http://sodipodi.sourceforge.net/DTD/sodipodi-0.dtd"
   xmlns:inkscape="http://www.inkscape.org/namespaces/inkscape"
   width="472.79291"
   height="217.75699"
   viewBox="0 0 472.79291 217.75699"
   id="svg2"
   version="1.1"
   inkscape:version="0.92.4 (5da689c313, 2019-01-14)"
   sodipodi:docname="AMA.svg"
   inkscape:export-filename="C:\Users\paulb\Dropbox\Projects\Terminal Silhouettes\Silhouettes\png\AMA.png"
   inkscape:export-xdpi="90.039421"
   inkscape:export-ydpi="90.039421">
  <defs
     id="defs4" />
  <sodipodi:namedview
     id="base"
     pagecolor="#ffffff"
     bordercolor="#666666"
     borderopacity="1.0"
     inkscape:pageopacity="1"
     inkscape:pageshadow="2"
     inkscape:zoom="1"
     inkscape:cx="18.91531"
     inkscape:cy="190.70105"
     inkscape:document-units="px"
     inkscape:current-layer="layer3"
     showgrid="false"
     units="px"
     fit-margin-top="25"
     fit-margin-left="25"
     fit-margin-right="25"
     fit-margin-bottom="25"
     inkscape:window-width="1920"
     inkscape:window-height="1137"
     inkscape:window-x="1912"
     inkscape:window-y="-8"
     inkscape:window-maximized="1" />
  <metadata
     id="metadata7">
    <rdf:RDF>
      <cc:Work
         rdf:about="">
        <dc:format>image/svg+xml</dc:format>
        <dc:type
           rdf:resource="http://purl.org/dc/dcmitype/StillImage" />
        <dc:title />
      </cc:Work>
    </rdf:RDF>
  </metadata>
  <g
     inkscape:groupmode="layer"
     id="layer2"
     inkscape:label="Terminal"
     transform="translate(-435.65243,-772.24424)">
    <path
       style="fill:#dddddd;fill-opacity:1;fill-rule:evenodd;stroke:#222222;stroke-width:1.5;stroke-linecap:butt;stroke-linejoin:miter;stroke-miterlimit:4;stroke-dasharray:none;stroke-opacity:1"
       d="m 519.55584,798.67848 c -46.26449,40.09588 -57.99387,81.82611 -57.99387,81.82611 l 9.81431,3.61575 c -6.02625,17.39003 0.63119,23.12919 0.63119,23.12919 l -4.0175,3.61575 c -5.22275,-0.63133 -5.62432,4.24721 -5.7965,4.18981 -0.74611,3.44358 2.98425,5.50963 2.98425,5.50963 3.09921,1.49222 6.37056,-1.43469 6.37056,-1.43469 l 23.65774,28.89367 -2.92179,2.11014 11.36325,13.79821 65.66289,-56.65364 -10.47029,-12.74301 20.3725,-17.00439 -12.29638,-14.00098 7.22366,-6.00617 0.93342,-28.20504 -7.14266,-0.12178 c -6.00628,-2.11031 -7.38593,3.00308 -7.38593,3.00308 l -31.24893,27.02804 -10.22673,-12.25588 6.8988,-5.60034 -1.29847,-1.54234 1.86688,-1.37976 -6.9804,-39.77136 z m 49.21595,38.8963 -0.34432,17.16037 -11.13413,9.18282 -9.0108,-10.78982 16.58662,-14.17612 c 0,0 2.58259,0.0576 3.90263,-1.37725 z"
       id="path4148"
       inkscape:connector-curvature="0" />
  </g>
  <g
     inkscape:groupmode="layer"
     id="layer3"
     inkscape:label="Label"
     transform="translate(-818.50958,-558.89989)">
    <g
       id="g4157"
       transform="translate(-54,81)">
      <g
         style="font-style:normal;font-variant:normal;font-weight:bold;font-stretch:normal;font-size:125px;line-height:125%;font-family:Overpass;-inkscape-font-specification:'Overpass, Bold';text-align:start;letter-spacing:0px;word-spacing:0px;writing-mode:lr-tb;text-anchor:start;fill:#dddddd;fill-opacity:1;stroke:#222222;stroke-width:0.25;stroke-linecap:butt;stroke-linejoin:miter;stroke-miterlimit:4;stroke-dasharray:none;stroke-opacity:1"
         id="text4149">
        <path
           d="m 1105.5168,605.75415 -6.7749,-18.12744 -33.7524,0 -6.7139,18.12744 -18.1274,0 33.5083,-87.52441 16.4795,0 33.5083,87.52441 -18.1275,0 z m -20.874,-56.27441 q -0.6714,-1.58692 -1.4648,-3.78418 -0.7324,-2.19727 -1.2818,-4.08936 -0.4882,1.89209 -1.2817,4.08936 -0.7935,2.19726 -1.4648,3.78418 l -8.667,22.76611 22.7661,0 -8.606,-22.76611 z"
           style=""
           id="path4141" />
        <path
           d="m 1203.7834,605.75415 0,-44.98291 q 0,-0.73242 0,-1.70898 0.061,-0.97657 0.061,-1.95313 0.061,-1.0376 0.061,-1.89209 0.061,-0.85449 0.1221,-1.34277 -0.6714,2.07519 -1.3428,3.72314 -0.6103,1.64795 -1.2817,3.17383 l -21.2403,46.50879 -21.3623,-46.50879 q -0.6713,-1.52588 -1.3427,-3.17383 -0.6104,-1.64795 -1.2818,-3.72314 0.061,0.48828 0.061,1.34277 0.061,0.85449 0.061,1.89209 0.061,0.97656 0.061,1.95313 0.061,0.97656 0.061,1.70898 l 0,44.98291 -16.9068,0 0,-87.52441 17.1509,0 21.4844,48.2788 q 0.6714,1.58692 1.2207,3.05176 0.5493,1.40381 1.0376,2.92969 0.4883,-1.52588 1.0376,-2.92969 0.5493,-1.46484 1.2207,-3.05176 l 21.8506,-48.2788 16.1133,0 0,87.52441 -16.8458,0 z"
           style=""
           id="path4143" />
        <path
           d="m 1302.05,605.75415 -6.7749,-18.12744 -33.7524,0 -6.7139,18.12744 -18.1274,0 33.5083,-87.52441 16.4795,0 33.5083,87.52441 -18.1275,0 z m -20.874,-56.27441 q -0.6714,-1.58692 -1.4648,-3.78418 -0.7324,-2.19727 -1.2818,-4.08936 -0.4882,1.89209 -1.2817,4.08936 -0.7935,2.19726 -1.4648,3.78418 l -8.667,22.76611 22.7661,0 -8.606,-22.76611 z"
           style=""
           id="path4145" />
      </g>
      <g
         style="font-style:normal;font-variant:normal;font-weight:normal;font-stretch:normal;font-size:45px;line-height:125%;font-family:Overpass;-inkscape-font-specification:'Overpass, Normal';text-align:start;letter-spacing:0px;word-spacing:0px;writing-mode:lr-tb;text-anchor:start;fill:#222222;fill-opacity:1;stroke:none;stroke-width:1px;stroke-linecap:butt;stroke-linejoin:miter;stroke-opacity:1"
         id="text4153">
        <path
           d="m 1118.6724,654.90271 -2.5049,-7.25098 -12.7442,0 -2.5708,7.25098 -4.8559,0 11.3818,-31.50879 4.812,0 11.3379,31.50879 -4.8559,0 z m -7.7784,-22.10449 q -0.2636,-0.74707 -0.5932,-1.73584 -0.3076,-0.98877 -0.4834,-1.80176 -0.2197,0.81299 -0.5274,1.80176 -0.2856,0.96679 -0.5493,1.73584 l -3.8891,10.72265 9.8657,0 -3.8233,-10.72265 z"
           style=""
           id="path4149" />
        <path
           d="m 1155.7622,654.90271 0,-13.77686 q 0,-2.5708 -1.0547,-3.95507 -1.0547,-1.38428 -3.164,-1.38428 -0.9449,0 -1.7798,0.35156 -0.835,0.35156 -1.4722,1.05469 -0.6152,0.70312 -0.9888,1.75781 -0.3515,1.03272 -0.3515,2.41699 l 0,13.53516 -4.6802,0 0,-13.77686 q 0,-2.5708 -1.0767,-3.95507 -1.0547,-1.38428 -3.164,-1.38428 -0.9449,0 -1.7798,0.35156 -0.813,0.35156 -1.4502,1.05469 -0.6152,0.70312 -0.9888,1.75781 -0.3515,1.03272 -0.3515,2.41699 l 0,13.53516 -4.6802,0 0,-23.00537 4.6802,0 0,2.13135 q 0.9887,-1.42823 2.5048,-2.04346 1.5162,-0.61523 3.2959,-0.61523 1.8897,0 3.4937,0.76904 1.626,0.74707 2.6147,2.50488 1.0987,-1.69189 2.8125,-2.48291 1.7139,-0.79101 3.9991,-0.79101 1.7578,0 3.2519,0.50537 1.5161,0.50537 2.6148,1.56005 1.1206,1.05469 1.7578,2.70264 0.6372,1.64795 0.6372,3.91113 l 0,14.85352 -4.6802,0 z"
           style=""
           id="path4151" />
        <path
           d="m 1184.6343,654.90271 -4.4824,0 0,-1.97754 q -0.4395,0.46143 -1.0547,0.92285 -0.6153,0.43946 -1.4063,0.81299 -0.769,0.35156 -1.7358,0.57129 -0.9668,0.21973 -2.1094,0.21973 -1.7578,0 -3.2519,-0.4834 -1.4942,-0.4834 -2.5928,-1.4502 -1.0987,-0.98877 -1.7359,-2.41699 -0.6152,-1.45019 -0.6152,-3.36182 0,-1.97754 0.7471,-3.40576 0.747,-1.45019 1.9775,-2.37304 1.2305,-0.94483 2.8125,-1.38428 1.604,-0.43946 3.2959,-0.43946 1.582,0 3.0322,0.35157 1.4722,0.32959 2.6368,1.01074 l 0,-1.27441 q 0,-1.29639 -0.3077,-2.19727 -0.2856,-0.90088 -0.9008,-1.4502 -0.5933,-0.57128 -1.5162,-0.81298 -0.9228,-0.26368 -2.1972,-0.26368 -2.1533,0 -3.7354,0.57129 -1.56,0.57129 -2.8344,1.51612 l -1.3843,-3.84522 q 0.7031,-0.4834 1.604,-0.90088 0.9009,-0.43945 1.9775,-0.76904 1.0767,-0.32959 2.3291,-0.50537 1.2525,-0.19775 2.6807,-0.19775 0.9668,0 1.9995,0.10986 1.0327,0.10986 1.9995,0.43945 0.9888,0.30762 1.8457,0.90088 0.8789,0.59326 1.5161,1.56006 0.6592,0.94482 1.0327,2.3291 0.3736,1.38428 0.3736,3.2959 l 0,14.89746 z m -9.9317,-3.60352 q 1.7798,0 3.1421,-0.72509 1.3843,-0.7251 2.3072,-1.73584 l 0,-3.51563 q -0.9668,-0.50537 -2.2632,-0.81299 -1.2964,-0.30761 -2.6587,-0.30761 -1.0547,0 -1.9776,0.19775 -0.9228,0.19775 -1.6259,0.63721 -0.6812,0.41748 -1.0767,1.09863 -0.3955,0.65918 -0.3955,1.604 0,1.64795 1.1426,2.61475 1.1645,0.94482 3.4057,0.94482 z"
           style=""
           id="path4153" />
        <path
           d="m 1191.0063,654.90271 0,-23.00537 4.6802,0 0,2.79053 q 0.813,-1.75782 2.1094,-2.52686 1.2964,-0.79101 3.0103,-0.79101 2.2851,0 3.8671,1.38427 l -0.6811,4.32862 q -0.6372,-0.43946 -1.5161,-0.76905 -0.857,-0.35156 -2.1094,-0.35156 -0.791,0 -1.626,0.28564 -0.813,0.26368 -1.4941,0.9668 -0.6812,0.68115 -1.1206,1.8457 -0.4395,1.14258 -0.4395,2.92237 l 0,12.91992 -4.6802,0 z"
           style=""
           id="path4155" />
        <path
           d="m 1209.2437,654.90271 0,-23.00537 4.6801,0 0,23.00537 -4.6801,0 z m 2.3291,-26.58691 q -0.5933,0 -1.1207,-0.21973 -0.5053,-0.21973 -0.9008,-0.59326 -0.3736,-0.39551 -0.5933,-0.90088 -0.2197,-0.52735 -0.2197,-1.12061 0,-0.59326 0.2197,-1.09863 0.2197,-0.52734 0.5933,-0.90088 0.3955,-0.39551 0.9008,-0.61523 0.5274,-0.21973 1.1207,-0.21973 0.5932,0 1.0986,0.21973 0.5273,0.21972 0.9009,0.61523 0.3955,0.37354 0.6152,0.90088 0.2197,0.50537 0.2197,1.09863 0,0.59326 -0.2197,1.12061 -0.2197,0.50537 -0.6152,0.90088 -0.3736,0.37353 -0.9009,0.59326 -0.5054,0.21973 -1.0986,0.21973 z"
           style=""
           id="path4157" />
        <path
           d="m 1220.9331,654.90271 0,-30.27832 4.6802,-2.21924 0,32.49756 -4.6802,0 z"
           style=""
           id="path4159" />
        <path
           d="m 1232.7983,654.90271 0,-30.27832 4.6802,-2.21924 0,32.49756 -4.6802,0 z"
           style=""
           id="path4161" />
        <path
           d="m 1253.8042,655.45203 q -2.417,0 -4.3726,-0.81299 -1.9336,-0.81299 -3.2959,-2.35108 -1.3623,-1.56005 -2.1093,-3.77929 -0.7251,-2.24121 -0.7251,-5.07569 0,-2.83447 0.7251,-5.07568 0.747,-2.24121 2.1093,-3.7793 1.3623,-1.56006 3.2959,-2.37304 1.9556,-0.83496 4.3726,-0.83496 2.395,0 4.3506,0.83496 1.9556,0.81298 3.3179,2.37304 1.3623,1.53809 2.1093,3.7793 0.7471,2.24121 0.7471,5.07568 0,2.83448 -0.7471,5.07569 -0.747,2.21924 -2.1093,3.77929 -1.3623,1.53809 -3.3179,2.35108 -1.9556,0.81299 -4.3506,0.81299 z m 0,-4.41651 q 1.3403,0 2.417,-0.52734 1.0986,-0.52735 1.8457,-1.49414 0.769,-0.98877 1.1645,-2.39502 0.4175,-1.40625 0.4175,-3.18604 0,-1.77978 -0.4175,-3.18603 -0.3955,-1.42822 -1.1645,-2.41699 -0.7471,-0.98877 -1.8457,-1.51612 -1.0767,-0.52734 -2.417,-0.52734 -1.3403,0 -2.417,0.52734 -1.0767,0.52735 -1.8457,1.51612 -0.7471,0.98877 -1.1645,2.41699 -0.3956,1.40625 -0.3956,3.18603 0,1.77979 0.3956,3.18604 0.4174,1.40625 1.1645,2.39502 0.769,0.96679 1.8457,1.49414 1.0767,0.52734 2.417,0.52734 z"
           style=""
           id="path4163" />
      </g>
    </g>
  </g>
</svg>
