<?xml version="1.0" encoding="UTF-8" standalone="no"?>
<!-- Created with Inkscape (http://www.inkscape.org/) -->

<svg
   xmlns:dc="http://purl.org/dc/elements/1.1/"
   xmlns:cc="http://creativecommons.org/ns#"
   xmlns:rdf="http://www.w3.org/1999/02/22-rdf-syntax-ns#"
   xmlns:svg="http://www.w3.org/2000/svg"
   xmlns="http://www.w3.org/2000/svg"
   xmlns:sodipodi="http://sodipodi.sourceforge.net/DTD/sodipodi-0.dtd"
   xmlns:inkscape="http://www.inkscape.org/namespaces/inkscape"
   sodipodi:docname="ARN.svg"
   inkscape:version="0.92.4 (5da689c313, 2019-01-14)"
   version="1.1"
   id="svg2"
   viewBox="0 0 1186.9798 1529.0636"
   height="1529.0636"
   width="1186.9799"
   inkscape:export-filename="C:\Users\paulb\OneDrive\Projects\Terminal Silhouettes\Silhouettes\png\ARN.png"
   inkscape:export-xdpi="90.02845"
   inkscape:export-ydpi="90.02845">
  <sodipodi:namedview
     inkscape:snap-smooth-nodes="true"
     inkscape:snap-object-midpoints="true"
     inkscape:object-nodes="true"
     inkscape:guide-bbox="true"
     showguides="false"
     inkscape:window-maximized="1"
     inkscape:window-y="-8"
     inkscape:window-x="1912"
     inkscape:window-height="1137"
     inkscape:window-width="1920"
     fit-margin-bottom="100"
     fit-margin-right="100"
     fit-margin-left="100"
     fit-margin-top="100"
     units="px"
     showgrid="false"
     inkscape:current-layer="layer4"
     inkscape:document-units="px"
     inkscape:cy="709.91795"
     inkscape:cx="-427.45041"
     inkscape:zoom="0.5"
     inkscape:pageshadow="2"
     inkscape:pageopacity="1"
     borderopacity="1.0"
     bordercolor="#666666"
     pagecolor="#ffffff"
     id="base"
     inkscape:snap-midpoints="false"
     inkscape:snap-page="true">
    <sodipodi:guide
       position="1059.545,419.91204"
       orientation="0.8201493,-0.57214956"
       id="guide4436"
       inkscape:locked="false" />
    <sodipodi:guide
       position="1059.5464,419.91564"
       orientation="0.69745556,-0.71662804"
       id="guide4438"
       inkscape:locked="false" />
    <sodipodi:guide
       position="1059.5464,419.91564"
       orientation="0.90679971,-0.42156172"
       id="guide4442"
       inkscape:locked="false" />
    <sodipodi:guide
       position="1059.5466,419.91564"
       orientation="0.86291359,-0.50535149"
       id="guide4446"
       inkscape:label=""
       inkscape:color="rgb(0,0,255)"
       inkscape:locked="false" />
    <sodipodi:guide
       position="-142.59772,-167.10392"
       orientation="1,0"
       id="guide4487"
       inkscape:locked="false" />
    <sodipodi:guide
       position="43.473668,-281.38963"
       orientation="1,0"
       id="guide4489"
       inkscape:locked="false" />
    <sodipodi:guide
       position="80.973667,-285.67534"
       orientation="1,0"
       id="guide4496"
       inkscape:locked="false" />
    <sodipodi:guide
       position="843.20963,-550.57721"
       orientation="0.96685024,-0.25534411"
       id="guide4609"
       inkscape:locked="false" />
    <sodipodi:guide
       position="1059.5528,419.92284"
       orientation="0.94931033,-0.31434042"
       id="guide4611"
       inkscape:label=""
       inkscape:color="rgb(0,0,255)"
       inkscape:locked="false" />
    <sodipodi:guide
       position="1059.5501,419.91914"
       orientation="0.76238604,-0.64712249"
       id="guide4625"
       inkscape:label=""
       inkscape:color="rgb(0,0,255)"
       inkscape:locked="false" />
    <sodipodi:guide
       position="1059.5343,419.87324"
       orientation="0.62715787,-0.77889217"
       id="guide4703"
       inkscape:locked="false" />
    <sodipodi:guide
       position="806.97043,-507.01439"
       orientation="0.96685013,-0.25534451"
       id="guide4705"
       inkscape:label=""
       inkscape:color="rgb(0,0,255)"
       inkscape:locked="false" />
    <sodipodi:guide
       position="733.77253,-710.18202"
       orientation="0,1"
       id="guide4707"
       inkscape:locked="false" />
    <sodipodi:guide
       position="740.30033,-477.71996"
       orientation="-0.97357339,-0.22837439"
       id="guide4720"
       inkscape:label=""
       inkscape:color="rgb(0,0,255)"
       inkscape:locked="false" />
    <sodipodi:guide
       position="773.13023,-485.29611"
       orientation="0.94931033,-0.31434042"
       id="guide4724"
       inkscape:label=""
       inkscape:color="rgb(0,0,255)"
       inkscape:locked="false" />
    <sodipodi:guide
       position="836.53413,-543.89881"
       orientation="0.25534451,0.96685013"
       id="guide4730"
       inkscape:label=""
       inkscape:color="rgb(0,0,255)"
       inkscape:locked="false" />
    <sodipodi:guide
       position="874.90313,-523.17683"
       orientation="0.25534451,0.96685013"
       id="guide4751"
       inkscape:label=""
       inkscape:color="rgb(0,0,255)"
       inkscape:locked="false" />
    <sodipodi:guide
       position="779.57003,-502.21616"
       orientation="0.31434042,0.94931033"
       id="guide4759"
       inkscape:label=""
       inkscape:color="rgb(0,0,255)"
       inkscape:locked="false" />
    <sodipodi:guide
       position="745.22483,-478.35131"
       orientation="-0.22836786,0.97357492"
       id="guide4764"
       inkscape:label=""
       inkscape:color="rgb(0,0,255)"
       inkscape:locked="false" />
  </sodipodi:namedview>
  <title
     id="title4147">ARN</title>
  <defs
     id="defs4" />
  <metadata
     id="metadata7">
    <rdf:RDF>
      <cc:Work
         rdf:about="">
        <dc:format>image/svg+xml</dc:format>
        <dc:type
           rdf:resource="http://purl.org/dc/dcmitype/StillImage" />
        <dc:title>ARN</dc:title>
        <dc:creator>
          <cc:Agent>
            <dc:title>Paul Bogard</dc:title>
          </cc:Agent>
        </dc:creator>
        <dc:description>Terminal silhouette of ARN (Stockholm-Arlanda)</dc:description>
      </cc:Work>
    </rdf:RDF>
  </metadata>
  <g
     inkscape:groupmode="layer"
     id="layer4"
     inkscape:label="Background">
    <rect
       style="opacity:1;fill:#dbdcdf;fill-opacity:1;stroke:none;stroke-width:2;stroke-linecap:butt;stroke-linejoin:miter;stroke-miterlimit:4;stroke-dasharray:none;stroke-dashoffset:0;stroke-opacity:1"
       id="rect4199"
       width="1186.9799"
       height="1529.0636"
       x="0"
       y="0" />
  </g>
  <g
     inkscape:label="Terminal"
     id="layer2"
     inkscape:groupmode="layer"
     transform="translate(-1406.5263,-742.58248)">
    <path
       style="opacity:1;fill:#60646c;fill-opacity:1;stroke:none;stroke-width:1.5;stroke-linecap:butt;stroke-linejoin:round;stroke-miterlimit:4;stroke-dasharray:none;stroke-dashoffset:0;stroke-opacity:1"
       d="m 2255.3902,842.58301 -27.3611,6.90868 68.506,271.31011 -122.8136,31.0105 c -29.094,7.3462 -62.6161,6.8619 -62.6161,6.8619 l -101.446,-1.4679 -1.3526,-3.7836 13.5151,-4.8312 -9.6279,-26.9325 -13.5141,4.8314 -1.5549,-4.3496 19.5163,-6.9767 -1.7733,-4.9609 -8.5776,3.0664 0.391,1.0938 -10.9392,3.9102 -17.5635,-49.1316 19.5172,-6.9765 -1.7737,-4.9616 -8.5781,3.0664 0.3903,1.0926 -10.9391,3.9101 -7.109,-19.886 18.9608,-22.3351 -10.8536,-9.2136 -3.2476,-9.0848 -64.582,23.0866 3.2476,9.0842 -2.5527,14.0074 28.8208,5.2522 1.12,3.1321 c -6.797,-1.2387 -13.594,-2.4781 -20.3911,-3.7168 -0.3149,1.7277 -0.6297,3.4556 -0.9446,5.1834 l 8.9616,1.6322 0.2076,-1.1398 c 4.5874,0.8361 9.1746,1.6721 13.7621,2.5079 l 16.0201,44.8127 -19.5175,6.9775 1.7734,4.9609 8.5782,-3.0664 -0.3904,-1.0927 10.9394,-3.911 3.9915,11.1656 -10.3756,13.6073 6.2526,17.4922 16.6515,3.9453 5.516,15.4301 -110.5779,130.2542 -43.0079,-7.8383 3.7164,-20.3911 -5.1835,-0.9447 -1.6331,8.9615 1.1409,0.2078 -2.0829,11.4295 -51.3308,-9.3552 3.716,-20.3912 -5.1833,-0.9449 -1.633,8.9615 1.1416,0.2081 -2.083,11.4286 -20.7758,-3.7866 -7.3355,-20.5187 5.0961,-1.8217 -2.0443,-5.7198 -5.0966,1.8219 -0.4825,-1.3497 -13.4072,4.7926 -9.4915,-1.7297 -12.2971,67.4734 9.4925,1.73 10.8526,9.2133 18.9604,-22.3332 3.2722,0.5964 c -4.4714,5.267 -8.9423,10.5337 -13.4135,15.8006 1.3387,1.1365 2.6768,2.2742 4.0157,3.4109 l 5.8942,-6.9454 -0.8828,-0.751 c 3.0177,-3.5547 6.0355,-7.1088 9.053,-10.6637 l 32.421,5.9085 5.6921,1.0378 -3.7162,20.3901 5.1833,0.9449 1.6331,-8.9615 -1.1427,-0.2081 2.0829,-11.4287 c 3.6934,0.6729 7.3863,1.346 11.0796,2.0193 l 6.5951,15.7901 c 4.6703,0.851 9.341,1.7024 14.0112,2.5536 l 11.7423,-12.4475 11.4575,2.0881 2.0968,0.3824 9.3703,1.7077 -1.1013,6.0413 11.1825,2.0381 1.1012,-6.0413 7.9276,1.4447 -6.459,7.6081 11.4253,9.6993 -1.1937,1.0846 c 0.4841,0.5796 0.9643,1.1627 1.4399,1.7494 l -6.2442,34.2598 -3.895,2.4029 c 0.9004,1.5512 1.7669,3.1218 2.5987,4.711 l -11.9808,65.7363 c -2.7346,1.564 -4.8921,3.9681 -6.1523,6.8555 l -9.6414,-1.7572 3.651,-20.0313 -4.9198,-0.8967 -3.6511,20.0313 -2.0207,-0.3682 -1.2012,6.5895 2.021,0.3681 -3.6507,20.0304 4.9198,0.897 3.6507,-20.0304 9.6425,1.757 c 0.1555,3.1515 1.3247,6.1687 3.3334,8.6019 l -12.0064,65.8778 c -1.3293,1.1417 -2.6833,2.2551 -4.0602,3.3388 l 2.7929,3.6163 -9.336,51.224 -1.9936,0.7129 -0.4674,-1.3084 -78.5595,28.0839 -118.9581,-21.6805 -8.2507,9.7186 -1.1134,6.1076 4.2911,12.0039 118.9581,21.6806 63.6012,53.9923 2.6409,-3.1111 29.275,71.8375 -10.5455,-1.9219 -10.3172,56.6104 -39.4712,52.707 -16.6696,4.3642 -0.6135,-2.3466 -4.3292,1.1329 -18.6877,24.9547 -76.9444,-17.5223 0.896,-3.9342 -4.3533,-0.9914 1.761,-7.7332 -10.4494,-2.3797 0.9122,-4.0057 -37.6159,-8.5662 -2.6733,11.739 -107.6242,-24.5088 -2.8949,12.7123 90.7319,20.662 -1.1341,4.98 18.2855,4.1641 1.1342,-4.98 12.1903,2.7761 -2.76,12.12 19.8532,4.5211 2.7601,-12.12 18.9817,4.3227 0.8962,-3.9352 39.1607,8.9179 -20.5274,10.0173 c 0.642,1.3158 1.2844,2.6319 1.926,3.9477 l 3.8556,-1.8818 -0.2794,-0.5725 2.607,-1.2726 2.9938,6.1343 6.3932,-3.1192 -3.5537,-7.2826 10.4373,-5.0933 31.775,7.236 -10.4952,14.0139 5.5531,9.7465 -5.1014,0.5303 c -0.1577,-0.2898 -0.3151,-0.5798 -0.4721,-0.8699 l -1.8838,1.1148 -0.2442,0.025 0.056,0.086 -8.8604,5.2431 -1.8388,-3.1075 -12.4126,7.3451 5.8218,9.8379 12.4127,-7.3453 -1.8381,-3.1063 9.0263,-5.3424 c 0.6373,0.9795 1.2779,1.9569 1.9219,2.932 l -24.0416,14.6716 c 0.7626,1.2498 1.5257,2.4989 2.2879,3.7487 l 3.6614,-2.2346 -0.3318,-0.5444 2.4758,-1.5108 3.5558,5.8266 6.0729,-3.7051 -4.2219,-6.9179 11.8998,-7.2616 c 6.0336,9.9362 12.4089,19.6609 19.1146,29.1565 l -8.5513,6.155 -2.1094,-2.9307 -11.706,8.4258 6.6775,9.2783 11.707,-8.4256 -2.1097,-2.9297 8.4027,-6.0485 c 1.2935,1.6742 2.5974,3.3402 3.9118,4.998 l -22.3667,16.7611 c 0.8779,1.1716 1.7561,2.343 2.6336,3.5148 l 3.4331,-2.5731 -0.3828,-0.5098 2.3215,-1.7394 4.0935,5.4621 5.6927,-4.2654 -4.8594,-6.4851 10.9932,-8.2384 c 7.4551,9.9441 15.2753,19.6092 23.4444,28.9756 l -7.9014,6.9831 -2.391,-2.7063 -10.8072,9.551 7.5711,8.5662 10.8072,-9.5511 -2.3914,-2.7044 7.7636,-6.8622 c 0.8308,0.8993 1.6649,1.7954 2.5022,2.6886 l -20.6974,18.8141 c 0.9847,1.0834 1.9699,2.1667 2.9544,3.2503 l 3.1745,-2.8855 -0.4296,-0.4714 2.1474,-1.9512 4.5909,5.0505 5.2638,-4.7839 -5.4504,-5.9966 10.1908,-9.2637 c 7.2198,7.7694 14.6828,15.3093 22.3781,22.608 l -7.4849,7.8242 -2.609,-2.4965 -9.9698,10.422 6.8461,6.5498 -2.111,2.2491 c 1.0674,1.002 2.1351,2.0041 3.2023,3.0063 l 2.9354,-3.1292 -0.4657,-0.4357 1.9854,-2.1153 4.978,4.6707 4.8676,-5.1865 -5.9087,-5.546 9.4359,-10.0527 c 8.2749,7.5572 16.7995,14.8365 25.5594,21.8257 l -6.8742,8.4953 -2.8077,-2.2712 -9.0727,11.2113 8.8868,7.1919 9.0729,-11.2123 -2.8067,-2.2711 6.8478,-8.4621 c 1.8792,1.5759 3.7703,3.1383 5.6725,4.6867 l -17.2283,22.2407 c 1.1574,0.8968 2.3148,1.7922 3.4719,2.6891 l 2.6267,-3.3919 -0.5032,-0.39 1.7764,-2.2934 5.3963,4.1801 4.356,-5.6235 -6.406,-4.963 8.4198,-10.8702 c 9.4418,7.1799 19.1339,14.0244 29.0584,20.5208 l -5.966,9.0729 -3.0172,-1.9845 -7.9245,12.0509 9.5519,6.2815 7.9245,-12.0509 -3.0163,-1.9842 5.9423,-9.035 c 1.5913,1.0838 3.1889,2.1585 4.7926,3.2241 l -15.0372,23.7925 c 1.2376,0.7824 2.4747,1.5645 3.712,2.3471 l 2.2926,-3.6273 -0.5396,-0.3402 1.5502,-2.4519 5.7703,3.646 3.8004,-6.0126 -6.8497,-4.3297 7.356,-11.6403 c 2.4198,1.6588 4.8539,3.2963 7.3021,4.9126 l 0.729,-6.1792 4.6874,2.8326 4.6851,24.5162 -5.4501,10.1019 9.7977,5.2856 -1.3723,2.6216 c 1.2971,0.6789 2.595,1.3572 3.8919,2.0363 l 1.9887,-3.8017 -0.5658,-0.2951 1.3454,-2.5696 6.0483,3.1646 3.2976,-6.3026 -12.0012,-6.2813 8.7847,-16.7875 4.896,2.5625 1.6851,-3.2206 15.9507,8.3467 3.2352,-6.1825 6.4572,3.3789 3.682,-7.0363 -10.0724,-5.2711 2.0411,-3.8998 -16.8384,-8.8124 -3.0005,5.7331 -10.0971,-0.2368 -9.2335,-5.5809 2.1703,-3.592 -11.494,-6.9471 -0.035,-5.5318 -1.9171,0.012 2.6875,-22.7902 c -5.7795,-4.0968 -11.4634,-8.3271 -17.0468,-12.6875 l 6.0477,-8.1867 c -34.8586,-25.6775 -65.8034,-56.2814 -91.8655,-90.8534 l -8.0409,6.0428 c -3.4264,-4.543 -6.7678,-9.1494 -10.0227,-13.8168 l 8.848,-48.5491 5.997,-8.0078 3.4439,2.5784 9.8911,-13.2088 -3.4439,-2.5784 28.9825,-38.6997 11.0869,-60.8309 -1.4879,-0.2711 -31.4801,-77.2523 6.6372,-7.819 -6.5917,-5.5953 4.921,-27.0009 -3.4925,-0.6361 2.4176,-13.2647 3.4924,0.637 4.9207,-27.0011 8.1419,-2.9101 -0.4114,-1.1495 c 1.9055,-0.6812 3.3051,-2.324 3.6712,-4.3141 0.1783,-0.9789 0.092,-1.9874 -0.2448,-2.9239 l 4.5753,-1.6355 2.8792,-15.7974 c 42.2328,-24.3225 71.9948,-66.115 80.8427,-114.6032 8.7099,-48.0404 -4.0842,-97.317 -34.685,-134.9656 2.4332,-0.2221 4.4205,-2.0375 4.8611,-4.4408 0.5388,-2.9581 -1.4214,-5.7927 -4.3792,-6.3326 -0.063,-0.012 -0.1273,-0.018 -0.1909,-0.028 l 1.2798,-1.5068 11.0372,2.0116 3.7434,3.1766 114.6715,-135.0772 64.1268,0.9293 0.1481,-10.2494 17.532,0.2549 c 39.3757,0.5699 74.1462,-8.2111 74.1462,-8.2111 l 125.7687,-31.7565 0.6853,2.714 -2.9965,0.7566 1.6079,6.3683 7.2739,-1.8366 -1.6076,-6.3671 -1.5917,0.4019 -0.685,-2.7132 12.0255,-3.0367 10.4506,41.3887 35.6739,-9.0077 -14.692,-58.1858 17.6642,-4.4603 -52.8368,-209.25448 -1.1812,-4.67574 -0.6559,-2.59672 -7.273,1.83642 0.6556,2.5963 -10.3907,2.62365 -9.3873,-37.17649 10.3915,-2.62337 7.2727,-1.83634 -1.1804,-4.67504 -0.6564,-2.59925 -7.2725,1.83632 0.656,2.59794 -10.3916,2.62387 -6.4257,-25.44828 -25.9752,6.55876 -4.1413,-16.40107 z m -1.5037,5.35359 2.96,11.72455 -7.0126,1.77069 8.9779,35.55655 -12.9883,3.2792 -11.283,-44.6846 2.5977,-0.65565 -0.6557,-2.59761 17.4037,-4.39448 z m 6.1068,53.72887 9.3867,37.17491 -12.9886,3.27965 -8.7308,-34.57725 2.5976,-0.65565 -0.6564,-2.59882 10.3916,-2.62338 z m 56.6762,19.45526 8.7308,34.57864 -2.5967,0.65587 0.6561,2.59839 -10.3907,2.62355 -9.3873,-37.17645 12.9887,-3.27964 z m -46.1091,22.39469 9.387,37.17608 -12.9883,3.27919 -8.731,-34.57812 2.5988,-0.6564 -0.6557,-2.59757 10.3907,-2.62356 z m 56.6765,19.45829 8.731,34.5777 -2.5972,0.65579 0.6556,2.5976 -10.391,2.6237 -9.3867,-37.1753 12.9883,-3.2792 z m -46.1089,22.39372 9.3869,37.17607 -12.9886,3.2797 -8.7308,-34.57865 2.5976,-0.65563 -0.6564,-2.59879 10.3916,-2.62385 z m 56.6767,19.45737 8.7302,34.5765 -2.5984,0.6561 0.6558,2.5971 -10.3915,2.6239 -9.387,-37.1762 12.9886,-3.2796 z m -46.1098,22.3935 9.3866,37.1753 -12.9883,3.2792 -8.7307,-34.5769 2.5988,-0.6564 -0.6563,-2.5988 10.3902,-2.6235 z m 56.6769,19.4564 8.7307,34.5786 -2.5976,0.6556 0.656,2.598 -10.3916,2.6239 -9.3866,-37.1753 12.9887,-3.2797 z m -46.11,22.3934 11.9366,47.2738 -12.9887,3.2797 -11.2806,-44.6758 2.5976,-0.6557 -0.6558,-2.5966 10.3906,-2.6236 z m 56.6775,19.4585 8.7311,34.5782 -2.5988,0.6564 0.6555,2.5963 -10.3907,2.6235 -9.3865,-37.174 12.9887,-3.2796 z m -541.1023,975.975 c 0.3312,0.3358 0.6629,0.6711 0.9951,1.006 l -7.3052,7.783 -1.0947,-1.0477 7.4048,-7.7413 z m 94.0957,64.3086 9.3122,5.6279 4.5345,2.373 -7.4361,13.9141 -2.4768,-1.3355 -3.9338,-20.5795 z"
       id="rect4160"
       inkscape:connector-curvature="0" />
  </g>
  <g
     inkscape:groupmode="layer"
     id="layer1"
     inkscape:label="Text"
     transform="translate(74.249985,74.250005)">
    <g
       style="font-style:normal;font-variant:normal;font-weight:bold;font-stretch:normal;font-size:125px;line-height:125%;font-family:Overpass;-inkscape-font-specification:'Overpass, Bold';text-align:start;letter-spacing:0px;word-spacing:0px;writing-mode:lr-tb;text-anchor:start;fill:none;fill-opacity:1;stroke:#60646c;stroke-width:3;stroke-linecap:butt;stroke-linejoin:miter;stroke-miterlimit:4;stroke-dasharray:none;stroke-opacity:1"
       id="text4771"
       transform="translate(60.00005,-42.6875)">
      <path
         d="m 690.90485,1072.9937 -6.77491,-18.1275 -33.75244,0 -6.71386,18.1275 -18.12745,0 33.5083,-87.52446 16.4795,0 33.5083,87.52446 -18.12744,0 z m -20.87403,-56.2745 q -0.67138,-1.5869 -1.46484,-3.7841 -0.73242,-2.1973 -1.28174,-4.0894 -0.48828,1.8921 -1.28174,4.0894 -0.79345,2.1972 -1.46484,3.7841 l -8.66699,22.7662 22.76611,0 -8.60596,-22.7662 z"
         id="path4838"
         inkscape:connector-curvature="0"
         style="fill:none;stroke:#60646c;stroke-width:3;stroke-miterlimit:4;stroke-dasharray:none;stroke-opacity:1" />
      <path
         d="m 724.90143,1072.9937 0,-87.52446 40.64941,0 q 8.30078,0 13.85498,2.31933 5.61524,2.2583 9.03321,6.04248 3.41796,3.78418 4.88281,8.72805 1.46484,4.9438 1.46484,10.3149 0,3.7232 -1.09863,7.5684 -1.0376,3.7842 -3.17383,7.2021 -2.13623,3.418 -5.31006,6.2256 -3.17383,2.7466 -7.38525,4.2725 l 16.96777,34.8511 -18.98193,0 -16.35742,-32.6539 -17.63916,0 0,32.6539 -16.90674,0 z m 40.89355,-48.6451 q 3.23487,0 5.43213,-0.9155 2.19727,-0.9766 3.54004,-2.5635 1.34277,-1.5869 1.89209,-3.6621 0.61035,-2.0752 0.61035,-4.3335 0,-2.0752 -0.54931,-4.0893 -0.48829,-2.0752 -1.77002,-3.6621 -1.28174,-1.648 -3.54004,-2.6246 -2.19727,-0.9765 -5.61524,-0.9765 l -23.98681,0 0,22.8271 23.98681,0 z"
         id="path4840"
         inkscape:connector-curvature="0"
         style="fill:none;stroke:#60646c;stroke-width:3;stroke-miterlimit:4;stroke-dasharray:none;stroke-opacity:1" />
      <path
         d="m 869.00543,1072.9937 -34.729,-51.0254 q -0.85449,-1.2818 -1.89209,-3.1128 -0.97656,-1.8921 -1.70899,-3.479 0.18311,1.4038 0.24414,3.2959 0.12207,1.8921 0.12207,3.2959 l 0,51.0254 -16.78466,0 0,-87.52446 15.86914,0 33.87451,50.41506 q 0.79346,1.2207 1.83105,3.0517 1.0376,1.8311 1.83106,3.5401 -0.18311,-1.77 -0.30518,-3.5401 -0.061,-1.831 -0.061,-3.0517 l 0,-50.41506 16.72363,0 0,87.52446 -15.01465,0 z"
         id="path4842"
         inkscape:connector-curvature="0"
         style="fill:none;stroke:#60646c;stroke-width:3;stroke-miterlimit:4;stroke-dasharray:none;stroke-opacity:1" />
    </g>
    <g
       style="font-style:normal;font-variant:normal;font-weight:normal;font-stretch:normal;font-size:45px;line-height:125%;font-family:Overpass;-inkscape-font-specification:'Overpass, Normal';text-align:start;letter-spacing:0px;word-spacing:0px;writing-mode:lr-tb;text-anchor:start;fill:#60646c;fill-opacity:1;stroke:none;stroke-width:1px;stroke-linecap:butt;stroke-linejoin:miter;stroke-opacity:1"
       id="text4775"
       transform="translate(60.00005,-41.3125)">
      <path
         d="m 573.34991,1096.2706 q -0.28564,-0.6811 -0.79101,-1.2524 -0.50537,-0.5933 -1.23047,-1.0108 -0.7251,-0.4394 -1.66992,-0.6811 -0.92285,-0.2417 -2.06543,-0.2417 -2.26318,0 -3.5376,0.9888 -1.27441,0.9887 -1.27441,2.7905 0,1.1206 0.70312,1.9116 0.70313,0.7691 1.84571,1.3623 1.14257,0.5933 2.59277,1.0987 1.47217,0.4833 2.98828,1.0766 1.53809,0.5713 2.98828,1.3403 1.47217,0.7471 2.61475,1.8457 1.14258,1.0767 1.8457,2.6148 0.70313,1.5161 0.70313,3.6475 0,2.2631 -0.83497,4.0209 -0.81298,1.7359 -2.26318,2.9444 -1.45019,1.1865 -3.42773,1.8237 -1.95557,0.6152 -4.21875,0.6152 -2.10938,0 -3.95508,-0.5493 -1.82373,-0.5273 -3.31787,-1.5161 -1.47217,-1.0107 -2.54883,-2.417 -1.07666,-1.4282 -1.66992,-3.186 l 4.4165,-1.604 q 0.4834,1.0547 1.18652,1.9336 0.7251,0.8789 1.64795,1.5161 0.92286,0.6152 2.02149,0.9668 1.1206,0.3516 2.39502,0.3516 1.27441,0 2.3291,-0.3077 1.05469,-0.3076 1.80176,-0.9228 0.74707,-0.6152 1.16455,-1.5161 0.41748,-0.9229 0.41748,-2.1094 0,-1.4063 -0.70313,-2.3511 -0.70312,-0.9668 -1.8457,-1.6699 -1.14258,-0.7031 -2.61475,-1.2305 -1.45019,-0.5273 -2.98828,-1.0766 -1.51611,-0.5493 -2.98828,-1.2305 -1.45019,-0.6811 -2.59277,-1.6699 -1.14258,-0.9888 -1.84571,-2.3731 -0.70312,-1.3842 -0.70312,-3.3838 0,-1.6699 0.65918,-3.164 0.68115,-1.4942 1.95557,-2.6148 1.27441,-1.1425 3.14209,-1.8017 1.86767,-0.6592 4.26269,-0.6592 1.99951,0 3.62549,0.4834 1.62598,0.4614 2.83447,1.2964 1.23047,0.8349 2.04346,1.9775 0.81299,1.1426 1.23047,2.4829 l -4.32862,1.4502 z"
         id="path4803"
         inkscape:connector-curvature="0"
         style="fill:#60646c;fill-opacity:1" />
      <path
         d="m 591.78497,1121.1656 q -1.3623,0 -2.35107,-0.4174 -0.9668,-0.3955 -1.604,-1.1426 -0.61524,-0.7471 -0.90088,-1.8018 -0.28565,-1.0766 -0.28565,-2.373 l 0,-13.7549 -3.55957,0 0,-4.0649 3.55957,0 0,-7.229 4.68018,-2.2632 0,9.4922 5.44922,0 0,4.0649 -5.44922,0 0,12.5464 q 0,0.5713 0.0879,1.0547 0.10986,0.4834 0.35156,0.8349 0.26367,0.3516 0.70313,0.5494 0.43945,0.1757 1.1206,0.1757 1.66992,0 3.40576,-1.0766 l -0.57129,4.3506 q -0.96679,0.4834 -2.10937,0.769 -1.14258,0.2856 -2.52686,0.2856 z"
         id="path4805"
         inkscape:connector-curvature="0"
         style="fill:#60646c;fill-opacity:1" />
      <path
         d="m 611.53839,1121.1656 q -2.41699,0 -4.37256,-0.8129 -1.93359,-0.813 -3.2959,-2.3511 -1.3623,-1.5601 -2.10937,-3.7793 -0.7251,-2.2412 -0.7251,-5.0757 0,-2.8345 0.7251,-5.0757 0.74707,-2.2412 2.10937,-3.7793 1.36231,-1.56 3.2959,-2.373 1.95557,-0.835 4.37256,-0.835 2.39502,0 4.35059,0.835 1.95556,0.813 3.31787,2.373 1.3623,1.5381 2.10937,3.7793 0.74707,2.2412 0.74707,5.0757 0,2.8345 -0.74707,5.0757 -0.74707,2.2192 -2.10937,3.7793 -1.36231,1.5381 -3.31787,2.3511 -1.95557,0.8129 -4.35059,0.8129 z m 0,-4.4165 q 1.34033,0 2.41699,-0.5273 1.09864,-0.5273 1.84571,-1.4941 0.76904,-0.9888 1.16455,-2.3951 0.41748,-1.4062 0.41748,-3.186 0,-1.7798 -0.41748,-3.186 -0.39551,-1.4283 -1.16455,-2.417 -0.74707,-0.9888 -1.84571,-1.5161 -1.07666,-0.5274 -2.41699,-0.5274 -1.34033,0 -2.41699,0.5274 -1.07666,0.5273 -1.8457,1.5161 -0.74707,0.9887 -1.16455,2.417 -0.39551,1.4062 -0.39551,3.186 0,1.7798 0.39551,3.186 0.41748,1.4063 1.16455,2.3951 0.76904,0.9668 1.8457,1.4941 1.07666,0.5273 2.41699,0.5273 z"
         id="path4807"
         inkscape:connector-curvature="0"
         style="fill:#60646c;fill-opacity:1" />
      <path
         d="m 636.56525,1121.1656 q -2.30713,0 -4.17481,-0.8129 -1.8457,-0.813 -3.16406,-2.3511 -1.29639,-1.5601 -1.99951,-3.7793 -0.70313,-2.2412 -0.70313,-5.0757 0,-2.8345 0.70313,-5.0757 0.70312,-2.2412 1.99951,-3.7793 1.31836,-1.56 3.16406,-2.373 1.86768,-0.835 4.17481,-0.835 3.208,0 5.42724,1.4282 2.24121,1.4283 3.25196,4.5044 l -4.43848,1.5381 q -0.50537,-1.3183 -1.53809,-2.1313 -1.03271,-0.835 -2.52685,-0.835 -1.31836,0 -2.3291,0.5274 -1.01075,0.5273 -1.71387,1.5161 -0.68115,0.9668 -1.05469,2.373 -0.35156,1.3843 -0.35156,3.1421 0,1.7578 0.35156,3.1641 0.37354,1.3842 1.03272,2.351 0.68115,0.9668 1.64795,1.4942 0.98877,0.5054 2.24121,0.5054 1.58203,0 2.70263,-0.879 1.14258,-0.8789 1.62598,-2.5048 l 4.43848,1.4062 q -0.92286,3.208 -3.14209,4.856 -2.19727,1.6259 -5.625,1.6259 z"
         id="path4809"
         inkscape:connector-curvature="0"
         style="fill:#60646c;fill-opacity:1" />
      <path
         d="m 650.95734,1120.6163 0,-30.2783 4.68017,-2.2192 0,16.6113 6.78955,-7.1191 5.75684,0 -6.30615,6.394 8.63525,16.6113 -5.11963,0 -6.78955,-13.2275 -2.96631,2.9663 0,10.2612 -4.68017,0 z"
         id="path4811"
         inkscape:connector-curvature="0"
         style="fill:#60646c;fill-opacity:1" />
      <path
         d="m 689.9588,1120.6163 0,-13.7329 q 0,-1.4502 -0.35156,-2.4609 -0.35156,-1.0327 -0.9668,-1.6699 -0.61523,-0.6592 -1.45019,-0.9449 -0.83496,-0.3076 -1.82373,-0.3076 -1.05469,0 -1.95557,0.2857 -0.90088,0.2636 -1.56006,0.8789 -0.65918,0.6152 -1.05469,1.6479 -0.37353,1.0108 -0.37353,2.4829 l 0,13.8208 -4.68018,0 0,-30.3222 4.68018,-2.1753 0,11.7114 q 1.1206,-1.4282 2.5708,-2.0874 1.45019,-0.6592 3.36182,-0.6592 1.80175,0 3.31787,0.5274 1.51611,0.5053 2.61474,1.6699 1.12061,1.1645 1.73584,3.0322 0.61524,1.8677 0.61524,4.5703 l 0,13.7329 -4.68018,0 z"
         id="path4813"
         inkscape:connector-curvature="0"
         style="fill:#60646c;fill-opacity:1" />
      <path
         d="m 710.50323,1121.1656 q -2.41699,0 -4.37255,-0.8129 -1.9336,-0.813 -3.2959,-2.3511 -1.36231,-1.5601 -2.10938,-3.7793 -0.72509,-2.2412 -0.72509,-5.0757 0,-2.8345 0.72509,-5.0757 0.74707,-2.2412 2.10938,-3.7793 1.3623,-1.56 3.2959,-2.373 1.95556,-0.835 4.37255,-0.835 2.39502,0 4.35059,0.835 1.95557,0.813 3.31787,2.373 1.36231,1.5381 2.10938,3.7793 0.74707,2.2412 0.74707,5.0757 0,2.8345 -0.74707,5.0757 -0.74707,2.2192 -2.10938,3.7793 -1.3623,1.5381 -3.31787,2.3511 -1.95557,0.8129 -4.35059,0.8129 z m 0,-4.4165 q 1.34034,0 2.417,-0.5273 1.09863,-0.5273 1.8457,-1.4941 0.76904,-0.9888 1.16455,-2.3951 0.41748,-1.4062 0.41748,-3.186 0,-1.7798 -0.41748,-3.186 -0.39551,-1.4283 -1.16455,-2.417 -0.74707,-0.9888 -1.8457,-1.5161 -1.07666,-0.5274 -2.417,-0.5274 -1.34033,0 -2.41699,0.5274 -1.07666,0.5273 -1.8457,1.5161 -0.74707,0.9887 -1.16455,2.417 -0.39551,1.4062 -0.39551,3.186 0,1.7798 0.39551,3.186 0.41748,1.4063 1.16455,2.3951 0.76904,0.9668 1.8457,1.4941 1.07666,0.5273 2.41699,0.5273 z"
         id="path4815"
         inkscape:connector-curvature="0"
         style="fill:#60646c;fill-opacity:1" />
      <path
         d="m 726.85089,1120.6163 0,-30.2783 4.68018,-2.2192 0,32.4975 -4.68018,0 z"
         id="path4817"
         inkscape:connector-curvature="0"
         style="fill:#60646c;fill-opacity:1" />
      <path
         d="m 765.47882,1120.6163 0,-13.7768 q 0,-2.5708 -1.05469,-3.9551 -1.05468,-1.3843 -3.16406,-1.3843 -0.94482,0 -1.77978,0.3516 -0.83497,0.3515 -1.47217,1.0547 -0.61524,0.7031 -0.98877,1.7578 -0.35156,1.0327 -0.35156,2.417 l 0,13.5351 -4.68018,0 0,-13.7768 q 0,-2.5708 -1.07666,-3.9551 -1.05469,-1.3843 -3.16406,-1.3843 -0.94483,0 -1.77979,0.3516 -0.81299,0.3515 -1.45019,1.0547 -0.61524,0.7031 -0.98877,1.7578 -0.35157,1.0327 -0.35157,2.417 l 0,13.5351 -4.68017,0 0,-23.0053 4.68017,0 0,2.1313 q 0.98877,-1.4282 2.50489,-2.0434 1.51611,-0.6153 3.2959,-0.6153 1.88964,0 3.49365,0.7691 1.62597,0.747 2.61474,2.5048 1.09864,-1.6919 2.8125,-2.4829 1.71387,-0.791 3.99903,-0.791 1.75781,0 3.25195,0.5054 1.51611,0.5054 2.61475,1.56 1.1206,1.0547 1.75781,2.7027 0.63721,1.6479 0.63721,3.9111 l 0,14.8535 -4.68018,0 z"
         id="path4819"
         inkscape:connector-curvature="0"
         style="fill:#60646c;fill-opacity:1" />
      <path
         d="m 775.58624,1109.7179 0,-4.043 17.77588,0 0,4.043 -17.77588,0 z"
         id="path4821"
         inkscape:connector-curvature="0"
         style="fill:#60646c;fill-opacity:1" />
      <path
         d="m 820.23468,1120.6163 -2.50488,-7.2509 -12.74414,0 -2.5708,7.2509 -4.85596,0 11.38183,-31.5088 4.81202,0 11.33789,31.5088 -4.85596,0 z m -7.77832,-22.1045 q -0.26367,-0.747 -0.59326,-1.7358 -0.30762,-0.9888 -0.4834,-1.8018 -0.21973,0.813 -0.52734,1.8018 -0.28565,0.9668 -0.54932,1.7358 l -3.88916,10.7227 9.86572,0 -3.82324,-10.7227 z"
         id="path4823"
         inkscape:connector-curvature="0"
         style="fill:#60646c;fill-opacity:1" />
      <path
         d="m 830.3421,1120.6163 0,-23.0053 4.68018,0 0,2.7905 q 0.81299,-1.7578 2.10937,-2.5269 1.29639,-0.791 3.01026,-0.791 2.28515,0 3.86718,1.3843 l -0.68115,4.3286 q -0.63721,-0.4394 -1.51611,-0.769 -0.85693,-0.3516 -2.10938,-0.3516 -0.79101,0 -1.62597,0.2856 -0.81299,0.2637 -1.49414,0.9668 -0.68116,0.6812 -1.12061,1.8457 -0.43945,1.1426 -0.43945,2.9224 l 0,12.9199 -4.68018,0 z"
         id="path4825"
         inkscape:connector-curvature="0"
         style="fill:#60646c;fill-opacity:1" />
      <path
         d="m 848.75519,1120.6163 0,-30.2783 4.68017,-2.2192 0,32.4975 -4.68017,0 z"
         id="path4827"
         inkscape:connector-curvature="0"
         style="fill:#60646c;fill-opacity:1" />
      <path
         d="m 878.02277,1120.6163 -4.48243,0 0,-1.9775 q -0.43945,0.4614 -1.05468,0.9228 -0.61524,0.4395 -1.40625,0.813 -0.76905,0.3516 -1.73584,0.5713 -0.9668,0.2197 -2.10938,0.2197 -1.75781,0 -3.25195,-0.4833 -1.49414,-0.4834 -2.59277,-1.4502 -1.09864,-0.9888 -1.73584,-2.417 -0.61524,-1.4502 -0.61524,-3.3619 0,-1.9775 0.74707,-3.4057 0.74707,-1.4502 1.97754,-2.3731 1.23047,-0.9448 2.8125,-1.3842 1.604,-0.4395 3.2959,-0.4395 1.58203,0 3.03223,0.3516 1.47216,0.3296 2.63671,1.0107 l 0,-1.2744 q 0,-1.2964 -0.30761,-2.1973 -0.28565,-0.9008 -0.90088,-1.4502 -0.59326,-0.5713 -1.51612,-0.813 -0.92285,-0.2636 -2.19726,-0.2636 -2.15332,0 -3.73535,0.5713 -1.56006,0.5713 -2.83447,1.5161 l -1.38428,-3.8452 q 0.70312,-0.4834 1.604,-0.9009 0.90088,-0.4395 1.97754,-0.7691 1.07666,-0.3295 2.3291,-0.5053 1.25244,-0.1978 2.68067,-0.1978 0.96679,0 1.99951,0.1099 1.03271,0.1098 1.99951,0.4394 0.98877,0.3077 1.8457,0.9009 0.87891,0.5933 1.51612,1.5601 0.65918,0.9448 1.03271,2.3291 0.37354,1.3843 0.37354,3.2959 l 0,14.8974 z m -9.93164,-3.6035 q 1.77978,0 3.14209,-0.7251 1.38427,-0.7251 2.30712,-1.7358 l 0,-3.5156 q -0.96679,-0.5054 -2.26318,-0.813 -1.29639,-0.3077 -2.65869,-0.3077 -1.05469,0 -1.97754,0.1978 -0.92285,0.1978 -1.62598,0.6372 -0.68115,0.4175 -1.07666,1.0986 -0.3955,0.6592 -0.3955,1.604 0,1.648 1.14257,2.6148 1.16455,0.9448 3.40577,0.9448 z"
         id="path4829"
         inkscape:connector-curvature="0"
         style="fill:#60646c;fill-opacity:1" />
      <path
         d="m 898.61115,1120.6163 0,-13.7329 q 0,-1.4502 -0.35157,-2.4609 -0.35156,-1.0327 -0.96679,-1.6699 -0.61524,-0.6592 -1.4502,-0.9449 -0.83496,-0.3076 -1.82373,-0.3076 -1.05469,0 -1.95557,0.2857 -0.90088,0.2636 -1.56006,0.8789 -0.65917,0.6152 -1.05468,1.6479 -0.37354,1.0108 -0.37354,2.4829 l 0,13.8208 -4.68017,0 0,-23.0053 4.68017,0 0,2.2192 q 1.12061,-1.4282 2.5708,-2.0874 1.4502,-0.6592 3.36182,-0.6592 1.80176,0 3.31787,0.5274 1.51611,0.5053 2.61475,1.6699 1.1206,1.1645 1.73584,3.0322 0.61523,1.8677 0.61523,4.5703 l 0,13.7329 -4.68017,0 z"
         id="path4831"
         inkscape:connector-curvature="0"
         style="fill:#60646c;fill-opacity:1" />
      <path
         d="m 918.21075,1121.1656 q -2.17529,0 -3.95507,-0.8129 -1.75782,-0.835 -3.01026,-2.3731 -1.25244,-1.56 -1.93359,-3.8013 -0.65918,-2.2412 -0.65918,-5.0756 0,-2.8345 0.70312,-5.0537 0.70313,-2.2413 1.95557,-3.7793 1.27441,-1.5601 3.03223,-2.3731 1.75781,-0.813 3.86718,-0.813 1.88965,0 3.20801,0.6153 1.34033,0.6152 2.21924,1.538 l 0,-8.9428 4.68018,-2.1753 0,32.4975 -4.68018,0 0,-1.6259 q -0.92285,1.0327 -2.21924,1.604 -1.27441,0.5712 -3.20801,0.5712 z m 0.65918,-4.4165 q 1.58204,0 2.79053,-0.6811 1.2085,-0.6812 1.97754,-1.9336 l 0,-10.1294 q -0.26367,-0.4394 -0.70312,-0.8789 -0.43946,-0.4395 -1.05469,-0.791 -0.59326,-0.3736 -1.36231,-0.5933 -0.74707,-0.2417 -1.64795,-0.2417 -2.63671,0 -4.08691,1.9556 -1.4502,1.9336 -1.4502,5.647 0,1.6699 0.37354,3.0761 0.39551,1.3843 1.09863,2.417 0.7251,1.0108 1.73584,1.5821 1.03272,0.5712 2.3291,0.5712 z"
         id="path4833"
         inkscape:connector-curvature="0"
         style="fill:#60646c;fill-opacity:1" />
      <path
         d="m 952.7298,1120.6163 -4.48242,0 0,-1.9775 q -0.43946,0.4614 -1.05469,0.9228 -0.61524,0.4395 -1.40625,0.813 -0.76904,0.3516 -1.73584,0.5713 -0.9668,0.2197 -2.10938,0.2197 -1.75781,0 -3.25195,-0.4833 -1.49414,-0.4834 -2.59277,-1.4502 -1.09864,-0.9888 -1.73584,-2.417 -0.61524,-1.4502 -0.61524,-3.3619 0,-1.9775 0.74707,-3.4057 0.74707,-1.4502 1.97754,-2.3731 1.23047,-0.9448 2.8125,-1.3842 1.60401,-0.4395 3.2959,-0.4395 1.58203,0 3.03223,0.3516 1.47216,0.3296 2.63672,1.0107 l 0,-1.2744 q 0,-1.2964 -0.30762,-2.1973 -0.28565,-0.9008 -0.90088,-1.4502 -0.59326,-0.5713 -1.51611,-0.813 -0.92286,-0.2636 -2.19727,-0.2636 -2.15332,0 -3.73535,0.5713 -1.56006,0.5713 -2.83447,1.5161 l -1.38428,-3.8452 q 0.70312,-0.4834 1.604,-0.9009 0.90088,-0.4395 1.97754,-0.7691 1.07666,-0.3295 2.3291,-0.5053 1.25244,-0.1978 2.68067,-0.1978 0.96679,0 1.99951,0.1099 1.03271,0.1098 1.99951,0.4394 0.98877,0.3077 1.8457,0.9009 0.87891,0.5933 1.51612,1.5601 0.65918,0.9448 1.03271,2.3291 0.37354,1.3843 0.37354,3.2959 l 0,14.8974 z m -9.93164,-3.6035 q 1.77978,0 3.14209,-0.7251 1.38427,-0.7251 2.30713,-1.7358 l 0,-3.5156 q -0.9668,-0.5054 -2.26319,-0.813 -1.29638,-0.3077 -2.65869,-0.3077 -1.05469,0 -1.97754,0.1978 -0.92285,0.1978 -1.62598,0.6372 -0.68115,0.4175 -1.07666,1.0986 -0.3955,0.6592 -0.3955,1.604 0,1.648 1.14258,2.6148 1.16455,0.9448 3.40576,0.9448 z"
         id="path4835"
         inkscape:connector-curvature="0"
         style="fill:#60646c;fill-opacity:1" />
    </g>
    <g
       style="font-style:normal;font-variant:normal;font-weight:300;font-stretch:normal;font-size:12.5px;line-height:125%;font-family:Overpass;-inkscape-font-specification:'Overpass, Light';text-align:end;letter-spacing:0px;word-spacing:0px;writing-mode:lr-tb;text-anchor:end;fill:#60646c;fill-opacity:1;stroke:none;stroke-width:1px;stroke-linecap:butt;stroke-linejoin:miter;stroke-opacity:1"
       id="text4201">
      <path
         d="m 1037.1285,1416.5261 0,-2.3625 -4.25,0 0,-0.4625 4.6,-5.925 0.525,0 0,5.6375 1.325,0 0,0.75 -1.325,0 0,2.3625 -0.875,0 z m 0,-3.1125 0,-4.125 -3.1125,4.125 3.1125,0 z"
         style=""
         id="path4210" />
      <path
         d="m 1047.983,1409.2886 q -0.1625,-0.35 -0.5875,-0.6125 -0.4125,-0.2625 -1.075,-0.2625 -0.775,0 -1.2125,0.3375 -0.425,0.3375 -0.425,0.9 0,0.35 0.1625,0.6125 0.175,0.25 0.45,0.4625 0.2875,0.2 0.65,0.3625 0.3625,0.1625 0.75,0.3125 0.45,0.175 0.9,0.4125 0.45,0.2375 0.8125,0.575 0.3625,0.3375 0.5875,0.8 0.225,0.45 0.225,1.0625 0,0.5875 -0.2125,1.0375 -0.2,0.45 -0.5625,0.7625 -0.3625,0.3 -0.875,0.4625 -0.5125,0.1625 -1.1125,0.1625 -0.55,0 -1.025,-0.15 -0.475,-0.1375 -0.85,-0.375 -0.375,-0.25 -0.65,-0.5625 -0.2625,-0.325 -0.3875,-0.6875 l 0.825,-0.3 q 0.2625,0.575 0.8,0.9375 0.55,0.35 1.3,0.35 0.8625,0 1.35,-0.4125 0.5,-0.4125 0.5,-1.2 0,-0.4 -0.1625,-0.7125 -0.1625,-0.325 -0.4375,-0.5625 -0.275,-0.25 -0.6375,-0.425 -0.35,-0.1875 -0.7375,-0.3375 -0.4625,-0.175 -0.925,-0.3875 -0.45,-0.225 -0.825,-0.525 -0.3625,-0.3125 -0.5875,-0.7125 -0.225,-0.4 -0.225,-0.95 0,-0.4125 0.175,-0.7875 0.175,-0.375 0.5,-0.65 0.3375,-0.275 0.8125,-0.4375 0.475,-0.1625 1.0875,-0.1625 0.9625,0 1.6125,0.4 0.65,0.3875 0.825,0.9875 l -0.8125,0.275 z"
         style=""
         id="path4212" />
      <path
         d="m 1051.743,1413.6886 q 0.1125,0.975 0.5875,1.575 0.475,0.6 1.3,0.6 0.35,0 0.7125,-0.1125 0.3625,-0.1125 0.725,-0.3875 l 0.475,0.5875 q -0.375,0.3125 -0.8875,0.525 -0.5,0.2 -1.0625,0.2 -0.65,0 -1.1625,-0.2625 -0.5125,-0.275 -0.875,-0.7375 -0.35,-0.4625 -0.55,-1.0625 -0.1875,-0.6125 -0.1875,-1.2875 0,-0.8 0.2,-1.4125 0.2125,-0.625 0.575,-1.05 0.3625,-0.425 0.875,-0.65 0.5125,-0.225 1.125,-0.225 0.5125,0 0.9625,0.1875 0.4625,0.175 0.8125,0.55 0.35,0.375 0.55,0.9625 0.2,0.5875 0.2,1.3875 0,0.1 0,0.25 0,0.15 -0.025,0.3625 l -4.35,0 z m 1.85,-2.9125 q -0.775,0 -1.3,0.5125 -0.5125,0.5125 -0.575,1.6125 l 3.5125,0 q 0,-0.65 -0.1625,-1.0625 -0.1625,-0.4125 -0.4125,-0.65 -0.2375,-0.2375 -0.525,-0.325 -0.2875,-0.087 -0.5375,-0.087 z"
         style=""
         id="path4214" />
      <path
         d="m 1060.4967,1416.6761 q -0.675,0 -1.075,-0.2375 -0.4,-0.2375 -0.675,-0.5625 l 0,2.75 -0.875,0.4375 0,-8.925 0.875,0 0,0.575 q 0.3125,-0.2875 0.7,-0.5 0.4,-0.225 1.05,-0.225 0.6125,0 1.1,0.2375 0.4875,0.2375 0.825,0.675 0.35,0.4375 0.525,1.0625 0.1875,0.6125 0.1875,1.3625 0,0.8 -0.2,1.425 -0.1875,0.625 -0.5375,1.05 -0.35,0.425 -0.8375,0.65 -0.4875,0.225 -1.0625,0.225 z m -0.1,-0.7875 q 0.875,0 1.35,-0.65 0.475,-0.6625 0.475,-1.9125 0,-1.175 -0.4875,-1.8625 -0.475,-0.6875 -1.3375,-0.6875 -0.525,0 -0.9625,0.2625 -0.425,0.25 -0.6875,0.725 l 0,3.1375 q 0.325,0.425 0.725,0.7125 0.4,0.275 0.925,0.275 z"
         style=""
         id="path4216" />
      <path
         d="m 1067.5707,1416.5261 q 0,-0.825 0.2375,-1.4125 0.2375,-0.6 0.6125,-1.05 0.375,-0.45 0.85,-0.7875 0.475,-0.3375 0.95,-0.6625 0.4125,-0.275 0.7875,-0.5375 0.375,-0.275 0.6625,-0.575 0.3,-0.3 0.475,-0.6375 0.175,-0.35 0.175,-0.775 0,-0.7125 -0.5,-1.1875 -0.4875,-0.4875 -1.4,-0.4875 -0.8875,0 -1.3375,0.4 -0.45,0.3875 -0.6125,1.0125 l -0.775,-0.35 q 0.1,-0.3875 0.3375,-0.725 0.2375,-0.3375 0.6,-0.5875 0.3625,-0.25 0.825,-0.3875 0.475,-0.15 1.0375,-0.15 1.3,0 2.0125,0.675 0.725,0.6625 0.725,1.7875 0,0.6 -0.2375,1.0625 -0.225,0.4625 -0.6,0.85 -0.3625,0.375 -0.825,0.7 -0.4625,0.3125 -0.9375,0.6125 -0.375,0.25 -0.725,0.5 -0.35,0.2375 -0.65,0.525 -0.2875,0.275 -0.4875,0.6125 -0.2,0.325 -0.275,0.7375 l 4.8125,0 0,0.8375 -5.7375,0 z"
         style=""
         id="path4218" />
      <path
         d="m 1078.0533,1416.6761 q -0.8625,0 -1.4375,-0.4 -0.575,-0.4 -0.925,-1.0375 -0.3375,-0.65 -0.4875,-1.45 -0.15,-0.8125 -0.15,-1.6375 0,-0.45 0.05,-0.9625 0.05,-0.525 0.175,-1.025 0.1375,-0.5 0.35,-0.9625 0.225,-0.4625 0.5625,-0.8125 0.3375,-0.35 0.7875,-0.55 0.4625,-0.2125 1.075,-0.2125 0.8625,0 1.4375,0.4125 0.575,0.4 0.9125,1.05 0.35,0.65 0.5,1.4625 0.15,0.8 0.15,1.6 0,0.4625 -0.062,0.975 -0.05,0.5125 -0.1875,1.025 -0.125,0.5 -0.35,0.9625 -0.2125,0.45 -0.55,0.8 -0.3375,0.35 -0.8,0.5625 -0.45,0.2 -1.05,0.2 z m 0,-0.7875 q 0.65,0 1.05,-0.35 0.4125,-0.3625 0.6375,-0.9125 0.225,-0.55 0.3,-1.2125 0.075,-0.6625 0.075,-1.2625 0,-0.675 -0.088,-1.3375 -0.087,-0.675 -0.325,-1.2 -0.2375,-0.5375 -0.6375,-0.8625 -0.4,-0.3375 -1.0125,-0.3375 -0.6625,0 -1.075,0.3625 -0.4,0.3625 -0.625,0.9125 -0.225,0.55 -0.3125,1.2125 -0.075,0.65 -0.075,1.25 0,0.6875 0.088,1.3625 0.087,0.6625 0.325,1.2 0.2375,0.525 0.6375,0.85 0.4125,0.325 1.0375,0.325 z"
         style=""
         id="path4220" />
      <path
         d="m 1083.9051,1416.5261 0,-7.1625 -1.4875,0 0,-0.5 q 0.6625,0 1.125,-0.225 0.4625,-0.2375 0.675,-0.8625 l 0.5625,0 0,8.75 -0.875,0 z"
         style=""
         id="path4222" />
      <path
         d="m 1089.7424,1407.6261 q 0.7125,0 1.2375,0.2625 0.525,0.2625 0.8625,0.725 0.35,0.45 0.525,1.075 0.175,0.6125 0.175,1.325 0,0.9375 -0.325,1.85 -0.3125,0.9125 -0.8875,1.6875 -0.5625,0.7625 -1.35,1.325 -0.7875,0.5625 -1.7375,0.8 l 0,-0.6875 q 0.6375,-0.1875 1.1875,-0.5625 0.55,-0.3875 0.975,-0.8875 0.4375,-0.5 0.7125,-1.075 0.2875,-0.575 0.3625,-1.1375 -0.325,0.4125 -0.8625,0.6375 -0.525,0.2125 -1.2125,0.2125 -0.5375,0 -1.0125,-0.2125 -0.4625,-0.2125 -0.8125,-0.575 -0.3375,-0.375 -0.5375,-0.85 -0.2,-0.4875 -0.2,-1.0125 0,-0.6125 0.225,-1.1375 0.225,-0.5375 0.6125,-0.925 0.4,-0.3875 0.925,-0.6125 0.525,-0.225 1.1375,-0.225 z m -0.062,4.85 q 0.4375,0 0.8,-0.15 0.375,-0.1625 0.6375,-0.4375 0.2625,-0.275 0.4125,-0.65 0.15,-0.375 0.15,-0.8125 0,-0.425 -0.1625,-0.7875 -0.15,-0.3625 -0.425,-0.6375 -0.2625,-0.275 -0.625,-0.425 -0.3625,-0.1625 -0.7875,-0.1625 -0.45,0 -0.825,0.1625 -0.3625,0.15 -0.625,0.425 -0.2625,0.275 -0.4125,0.6375 -0.1375,0.3625 -0.1375,0.7875 0,0.4375 0.1375,0.8125 0.1375,0.375 0.4,0.65 0.2625,0.275 0.625,0.4375 0.375,0.15 0.8375,0.15 z"
         style=""
         id="path4224" />
      <path
         d="m 907.12756,1432.3011 q -0.675,0 -1.075,-0.2375 -0.4,-0.2375 -0.675,-0.5625 l 0,2.75 -0.875,0.4375 0,-8.925 0.875,0 0,0.575 q 0.3125,-0.2875 0.7,-0.5 0.4,-0.225 1.05,-0.225 0.6125,0 1.1,0.2375 0.4875,0.2375 0.825,0.675 0.35,0.4375 0.525,1.0625 0.1875,0.6125 0.1875,1.3625 0,0.8 -0.2,1.425 -0.1875,0.625 -0.5375,1.05 -0.35,0.425 -0.8375,0.65 -0.4875,0.225 -1.0625,0.225 z m -0.1,-0.7875 q 0.875,0 1.35,-0.65 0.475,-0.6625 0.475,-1.9125 0,-1.175 -0.4875,-1.8625 -0.475,-0.6875 -1.3375,-0.6875 -0.525,0 -0.9625,0.2625 -0.425,0.25 -0.6875,0.725 l 0,3.1375 q 0.325,0.425 0.725,0.7125 0.4,0.275 0.925,0.275 z"
         style=""
         id="path4226" />
      <path
         d="m 914.20823,1432.3011 q -0.3375,0 -0.6,-0.062 -0.2625,-0.062 -0.475,-0.1625 -0.2,-0.1125 -0.375,-0.2375 -0.175,-0.125 -0.325,-0.2625 l 0,0.575 -0.875,0 0,-8.5875 0.875,-0.4375 0,3.2625 q 0.3125,-0.3375 0.7625,-0.55 0.4625,-0.225 0.9375,-0.225 0.6,0 1.0875,0.225 0.4875,0.225 0.825,0.6625 0.35,0.425 0.5375,1.05 0.1875,0.6125 0.1875,1.4 0,1.6375 -0.675,2.5 -0.675,0.85 -1.8875,0.85 z m -0.1375,-0.7875 q 0.9,0 1.3375,-0.6875 0.45,-0.6875 0.45,-1.875 0,-1.2375 -0.45,-1.8875 -0.4375,-0.6625 -1.3375,-0.6625 -0.3,0 -0.5625,0.1 -0.25,0.088 -0.4625,0.2375 -0.2125,0.1375 -0.375,0.3125 -0.15,0.175 -0.2375,0.325 l 0,3.1375 q 0.2625,0.45 0.7125,0.725 0.45,0.275 0.925,0.275 z"
         style=""
         id="path4228" />
      <path
         d="m 920.86506,1431.5136 q 0.875,0 1.35,-0.675 0.475,-0.675 0.475,-1.8875 0,-1.2 -0.4625,-1.875 -0.4625,-0.675 -1.3625,-0.675 -0.9,0 -1.3625,0.6625 -0.4625,0.65 -0.4625,1.9 0,1.2 0.4625,1.875 0.4625,0.675 1.3625,0.675 z m 0,-5.9 q 0.6125,0 1.1125,0.225 0.5125,0.225 0.8625,0.65 0.3625,0.425 0.5625,1.05 0.2,0.6125 0.2,1.4125 0,0.7875 -0.2,1.4125 -0.2,0.625 -0.5625,1.0625 -0.35,0.425 -0.8625,0.65 -0.5,0.225 -1.1125,0.225 -0.6125,0 -1.125,-0.225 -0.5,-0.225 -0.8625,-0.65 -0.35,-0.425 -0.55,-1.0375 -0.2,-0.625 -0.2,-1.425 0,-0.7875 0.2,-1.4 0.2,-0.625 0.55,-1.05 0.3625,-0.4375 0.8625,-0.6625 0.5125,-0.2375 1.125,-0.2375 z"
         style=""
         id="path4230" />
      <path
         d="m 926.801,1434.1261 q 0.775,-0.037 1.2625,-0.2 0.5,-0.15 0.775,-0.3875 0.2875,-0.225 0.3875,-0.525 0.1,-0.2875 0.1,-0.6125 l 0,-0.975 q -0.275,0.4 -0.6875,0.6375 -0.4,0.2375 -1.0625,0.2375 -0.5125,0 -0.9875,-0.2125 -0.475,-0.2125 -0.8375,-0.625 -0.3625,-0.425 -0.575,-1.05 -0.2125,-0.625 -0.2125,-1.4625 0,-0.7875 0.1875,-1.4 0.2,-0.625 0.55,-1.05 0.3625,-0.4375 0.85,-0.6625 0.4875,-0.225 1.075,-0.225 0.3625,0 0.6375,0.088 0.2875,0.075 0.4875,0.2 0.2125,0.1125 0.35,0.25 0.15,0.125 0.225,0.2125 l 0,-0.6 0.875,0 0,6.2875 q 0,0.7875 -0.25,1.3 -0.25,0.525 -0.6625,0.8375 -0.4125,0.325 -0.9625,0.4625 -0.5375,0.1375 -1.125,0.1625 l -0.4,-0.6875 z m 0.975,-2.6125 q 0.4,0 0.8375,-0.275 0.45,-0.2875 0.7125,-0.7875 l 0,-3.075 q -0.1375,-0.2375 -0.3375,-0.4125 -0.1875,-0.1875 -0.4,-0.3125 -0.2125,-0.125 -0.425,-0.1875 -0.2125,-0.062 -0.3875,-0.062 -0.95,0 -1.425,0.6625 -0.475,0.65 -0.475,1.8875 0,0.6125 0.1375,1.0875 0.15,0.475 0.4,0.8125 0.2625,0.325 0.6,0.5 0.35,0.1625 0.7625,0.1625 z"
         style=""
         id="path4232" />
      <path
         d="m 936.13167,1432.1511 0,-0.625 q -0.3875,0.35 -0.875,0.5625 -0.475,0.2125 -1,0.2125 -0.9625,0 -1.575,-0.5375 -0.6,-0.55 -0.6,-1.625 0,-0.55 0.1875,-0.95 0.2,-0.4 0.5125,-0.65 0.325,-0.2625 0.75,-0.3875 0.425,-0.125 0.875,-0.125 0.4,0 0.825,0.1 0.425,0.1 0.9,0.35 l 0,-0.5375 q 0,-0.4875 -0.125,-0.7875 -0.1125,-0.3 -0.3125,-0.475 -0.1875,-0.175 -0.45,-0.2375 -0.25,-0.062 -0.5125,-0.062 -0.2375,0 -0.5,0.062 -0.2625,0.062 -0.5125,0.1625 -0.25,0.1 -0.4875,0.225 -0.225,0.1125 -0.4,0.2375 l -0.25,-0.75 q 0.3875,-0.25 0.975,-0.475 0.6,-0.225 1.2625,-0.225 0.3375,0 0.7125,0.1 0.375,0.087 0.6875,0.3375 0.3125,0.2375 0.5125,0.675 0.2125,0.425 0.2125,1.1 l 0,4.325 -0.8125,0 z m -1.7875,-0.6125 q 0.2875,0 0.55,-0.088 0.2625,-0.088 0.4875,-0.225 0.225,-0.1375 0.4125,-0.3125 0.1875,-0.1875 0.3375,-0.3625 l 0,-1.2375 q -0.3125,-0.2125 -0.775,-0.3625 -0.45,-0.1625 -0.8625,-0.1625 -0.325,0 -0.6125,0.087 -0.2875,0.075 -0.5125,0.25 -0.2125,0.1625 -0.35,0.4125 -0.125,0.25 -0.125,0.6 0,0.6375 0.375,1.025 0.375,0.375 1.075,0.375 z"
         style=""
         id="path4234" />
      <path
         d="m 938.95081,1432.1511 0,-6.3875 0.875,0 0,0.9 q 0.35,-0.525 0.8125,-0.7875 0.4625,-0.2625 0.9,-0.2625 0.475,0 0.8,0.2625 l -0.1375,0.85 q -0.125,-0.075 -0.325,-0.15 -0.1875,-0.088 -0.5,-0.088 -0.2125,0 -0.4875,0.1 -0.2625,0.1 -0.5,0.3375 -0.2375,0.2375 -0.4,0.6375 -0.1625,0.3875 -0.1625,0.975 l 0,3.6125 -0.875,0 z"
         style=""
         id="path4236" />
      <path
         d="m 945.61858,1432.3011 q -0.6125,0 -1.1,-0.2375 -0.4875,-0.2375 -0.8375,-0.675 -0.3375,-0.4375 -0.525,-1.05 -0.175,-0.625 -0.175,-1.3875 0,-1.5875 0.7,-2.4625 0.7125,-0.875 1.9375,-0.875 0.6,0 1,0.1875 0.4125,0.175 0.7,0.4125 l 0,-2.65 0.875,-0.4375 0,9.025 -0.875,0 0,-0.55 q -0.2875,0.2875 -0.7,0.5 -0.4,0.2 -1,0.2 z m 0.1,-0.7875 q 0.475,0 0.9,-0.2625 0.4375,-0.2625 0.7,-0.7375 l 0,-3.1875 q -0.1,-0.1625 -0.25,-0.325 -0.15,-0.1625 -0.35,-0.2875 -0.1875,-0.1375 -0.45,-0.225 -0.25,-0.087 -0.55,-0.087 -0.8875,0 -1.3625,0.6625 -0.4625,0.65 -0.4625,1.8875 0,0.5375 0.125,1.0125 0.125,0.4625 0.3625,0.8125 0.2375,0.3375 0.575,0.5375 0.3375,0.2 0.7625,0.2 z"
         style=""
         id="path4238" />
      <path
         d="m 950.73733,1432.3261 q -0.3375,0 -0.5625,-0.2375 -0.225,-0.25 -0.225,-0.55 0,-0.3 0.225,-0.5375 0.225,-0.25 0.5625,-0.25 0.3375,0 0.5625,0.25 0.225,0.2375 0.225,0.5375 0,0.3 -0.225,0.55 -0.225,0.2375 -0.5625,0.2375 z"
         style=""
         id="path4240" />
      <path
         d="m 954.92991,1432.3011 q -1.1625,0 -1.85,-0.8625 -0.675,-0.875 -0.675,-2.475 0,-1.5875 0.6875,-2.4625 0.7,-0.8875 1.9375,-0.8875 0.7125,0 1.25,0.35 0.5375,0.3375 0.8,0.9875 l -0.8,0.3125 q -0.15,-0.3625 -0.4625,-0.6125 -0.3,-0.25 -0.825,-0.25 -0.45,0 -0.7625,0.1875 -0.3125,0.175 -0.525,0.5125 -0.2,0.325 -0.3,0.8 -0.0875,0.475 -0.0875,1.0625 0,1.2125 0.4,1.8875 0.4,0.6625 1.25,0.6625 0.525,0 0.8875,-0.2625 0.3625,-0.2625 0.525,-0.7125 l 0.7875,0.3 q -0.225,0.675 -0.825,1.075 -0.5875,0.3875 -1.4125,0.3875 z"
         style=""
         id="path4242" />
      <path
         d="m 961.14827,1431.5136 q 0.875,0 1.35,-0.675 0.475,-0.675 0.475,-1.8875 0,-1.2 -0.4625,-1.875 -0.4625,-0.675 -1.3625,-0.675 -0.9,0 -1.3625,0.6625 -0.4625,0.65 -0.4625,1.9 0,1.2 0.4625,1.875 0.4625,0.675 1.3625,0.675 z m 0,-5.9 q 0.6125,0 1.1125,0.225 0.5125,0.225 0.8625,0.65 0.3625,0.425 0.5625,1.05 0.2,0.6125 0.2,1.4125 0,0.7875 -0.2,1.4125 -0.2,0.625 -0.5625,1.0625 -0.35,0.425 -0.8625,0.65 -0.5,0.225 -1.1125,0.225 -0.6125,0 -1.125,-0.225 -0.5,-0.225 -0.8625,-0.65 -0.35,-0.425 -0.55,-1.0375 -0.2,-0.625 -0.2,-1.425 0,-0.7875 0.2,-1.4 0.2,-0.625 0.55,-1.05 0.3625,-0.4375 0.8625,-0.6625 0.5125,-0.2375 1.125,-0.2375 z"
         style=""
         id="path4244" />
      <path
         d="m 971.8467,1425.6136 q 0.4625,0 0.8625,0.1625 0.4,0.1625 0.6875,0.4625 0.3,0.2875 0.4625,0.7125 0.175,0.425 0.175,0.95 l 0,4.25 -0.875,0 0,-3.9125 q 0,-0.3 -0.05,-0.625 -0.05,-0.325 -0.2,-0.5875 -0.1375,-0.275 -0.4125,-0.45 -0.275,-0.175 -0.725,-0.175 -0.3625,0 -0.6375,0.15 -0.275,0.15 -0.4625,0.4 -0.1875,0.25 -0.2875,0.5875 -0.0875,0.325 -0.0875,0.7 l 0,3.9125 -0.875,0 0,-3.9125 q 0,-0.3 -0.05,-0.625 -0.05,-0.325 -0.2,-0.5875 -0.1375,-0.275 -0.4125,-0.45 -0.275,-0.175 -0.725,-0.175 -0.375,0 -0.65,0.1375 -0.275,0.125 -0.4625,0.3625 -0.175,0.2375 -0.275,0.55 -0.0875,0.3125 -0.0875,0.6875 l 0,4.0125 -0.875,0 0,-6.3875 0.875,0 0,0.625 q 0.6625,-0.775 1.7375,-0.775 0.5125,0 0.975,0.2625 0.475,0.25 0.75,0.7125 0.2625,-0.4 0.725,-0.6875 0.475,-0.2875 1.1,-0.2875 z"
         style=""
         id="path4246" />
      <path
         d="m 975.10608,1433.7761 4.9125,-10.525 0.85,0 -4.9125,10.525 -0.85,0 z"
         style=""
         id="path4248" />
      <path
         d="m 983.91018,1432.3011 q -0.6875,0 -0.975,-0.4125 -0.2875,-0.425 -0.2875,-1.05 l 0,-4.2875 -1.0875,0 0,-0.7875 1.0875,0 0,-2.2 0.875,-0.4375 0,2.6375 1.625,0 0,0.7875 -1.625,0 0,3.9125 q 0,0.2125 0.0125,0.4 0.025,0.175 0.1,0.3125 0.075,0.1375 0.2125,0.225 0.1375,0.075 0.3625,0.075 0.325,0 0.55,-0.125 0.2375,-0.125 0.4125,-0.25 l -0.1,0.9125 q -0.25,0.1375 -0.525,0.2125 -0.275,0.075 -0.6375,0.075 z"
         style=""
         id="path4250" />
      <path
         d="m 987.28987,1429.3136 q 0.1125,0.975 0.5875,1.575 0.475,0.6 1.3,0.6 0.35,0 0.7125,-0.1125 0.3625,-0.1125 0.725,-0.3875 l 0.475,0.5875 q -0.375,0.3125 -0.8875,0.525 -0.5,0.2 -1.0625,0.2 -0.65,0 -1.1625,-0.2625 -0.5125,-0.275 -0.875,-0.7375 -0.35,-0.4625 -0.55,-1.0625 -0.1875,-0.6125 -0.1875,-1.2875 0,-0.8 0.2,-1.4125 0.2125,-0.625 0.575,-1.05 0.3625,-0.425 0.875,-0.65 0.5125,-0.225 1.125,-0.225 0.5125,0 0.9625,0.1875 0.4625,0.175 0.8125,0.55 0.35,0.375 0.55,0.9625 0.2,0.5875 0.2,1.3875 0,0.1 0,0.25 0,0.15 -0.025,0.3625 l -4.35,0 z m 1.85,-2.9125 q -0.775,0 -1.3,0.5125 -0.5125,0.5125 -0.575,1.6125 l 3.5125,0 q 0,-0.65 -0.1625,-1.0625 -0.1625,-0.4125 -0.4125,-0.65 -0.2375,-0.2375 -0.525,-0.325 -0.2875,-0.087 -0.5375,-0.087 z"
         style=""
         id="path4252" />
      <path
         d="m 993.41858,1432.1511 0,-6.3875 0.875,0 0,0.9 q 0.35,-0.525 0.8125,-0.7875 0.4625,-0.2625 0.9,-0.2625 0.475,0 0.8,0.2625 l -0.1375,0.85 q -0.125,-0.075 -0.325,-0.15 -0.1875,-0.088 -0.5,-0.088 -0.2125,0 -0.4875,0.1 -0.2625,0.1 -0.5,0.3375 -0.2375,0.2375 -0.4,0.6375 -0.1625,0.3875 -0.1625,0.975 l 0,3.6125 -0.875,0 z"
         style=""
         id="path4254" />
      <path
         d="m 1004.3418,1425.6136 q 0.4625,0 0.8625,0.1625 0.4,0.1625 0.6875,0.4625 0.3,0.2875 0.4625,0.7125 0.175,0.425 0.175,0.95 l 0,4.25 -0.875,0 0,-3.9125 q 0,-0.3 -0.05,-0.625 -0.05,-0.325 -0.2,-0.5875 -0.1375,-0.275 -0.4125,-0.45 -0.275,-0.175 -0.725,-0.175 -0.3625,0 -0.6375,0.15 -0.275,0.15 -0.4625,0.4 -0.1875,0.25 -0.2875,0.5875 -0.087,0.325 -0.087,0.7 l 0,3.9125 -0.875,0 0,-3.9125 q 0,-0.3 -0.05,-0.625 -0.05,-0.325 -0.2,-0.5875 -0.1375,-0.275 -0.4125,-0.45 -0.275,-0.175 -0.725,-0.175 -0.375,0 -0.64998,0.1375 -0.275,0.125 -0.4625,0.3625 -0.175,0.2375 -0.275,0.55 -0.0875,0.3125 -0.0875,0.6875 l 0,4.0125 -0.875,0 0,-6.3875 0.875,0 0,0.625 q 0.6625,-0.775 1.73748,-0.775 0.5125,0 0.975,0.2625 0.475,0.25 0.75,0.7125 0.2625,-0.4 0.725,-0.6875 0.475,-0.2875 1.1,-0.2875 z"
         style=""
         id="path4256" />
      <path
         d="m 1008.7387,1432.1511 0,-6.3875 0.875,0 0,6.3875 -0.875,0 z m 0.4375,-7.7 q -0.25,0 -0.4125,-0.1625 -0.1625,-0.1625 -0.1625,-0.4125 0,-0.25 0.1625,-0.425 0.1625,-0.175 0.4125,-0.175 0.25,0 0.4125,0.175 0.1625,0.175 0.1625,0.425 0,0.25 -0.1625,0.4125 -0.1625,0.1625 -0.4125,0.1625 z"
         style=""
         id="path4258" />
      <path
         d="m 1012.7506,1426.4636 q 0.3,-0.4375 0.7125,-0.6375 0.425,-0.2125 0.9375,-0.2125 1.175,0 1.725,0.7125 0.5625,0.7 0.5625,2.2875 l 0,3.5375 -0.875,0 0,-3.9 q 0,-1.0125 -0.425,-1.425 -0.425,-0.425 -1.0625,-0.425 -0.3375,0 -0.625,0.087 -0.2875,0.088 -0.5,0.3 -0.2125,0.2125 -0.3375,0.5625 -0.1125,0.35 -0.1125,0.875 l 0,3.925 -0.875,0 0,-6.3875 0.875,0 0,0.7 z"
         style=""
         id="path4260" />
      <path
         d="m 1022.5574,1432.1511 0,-0.625 q -0.3875,0.35 -0.875,0.5625 -0.475,0.2125 -1,0.2125 -0.9625,0 -1.575,-0.5375 -0.6,-0.55 -0.6,-1.625 0,-0.55 0.1875,-0.95 0.2,-0.4 0.5125,-0.65 0.325,-0.2625 0.75,-0.3875 0.425,-0.125 0.875,-0.125 0.4,0 0.825,0.1 0.425,0.1 0.9,0.35 l 0,-0.5375 q 0,-0.4875 -0.125,-0.7875 -0.1125,-0.3 -0.3125,-0.475 -0.1875,-0.175 -0.45,-0.2375 -0.25,-0.062 -0.5125,-0.062 -0.2375,0 -0.5,0.062 -0.2625,0.062 -0.5125,0.1625 -0.25,0.1 -0.4875,0.225 -0.225,0.1125 -0.4,0.2375 l -0.25,-0.75 q 0.3875,-0.25 0.975,-0.475 0.6,-0.225 1.2625,-0.225 0.3375,0 0.7125,0.1 0.375,0.087 0.6875,0.3375 0.3125,0.2375 0.5125,0.675 0.2125,0.425 0.2125,1.1 l 0,4.325 -0.8125,0 z m -1.7875,-0.6125 q 0.2875,0 0.55,-0.088 0.2625,-0.088 0.4875,-0.225 0.225,-0.1375 0.4125,-0.3125 0.1875,-0.1875 0.3375,-0.3625 l 0,-1.2375 q -0.3125,-0.2125 -0.775,-0.3625 -0.45,-0.1625 -0.8625,-0.1625 -0.325,0 -0.6125,0.087 -0.2875,0.075 -0.5125,0.25 -0.2125,0.1625 -0.35,0.4125 -0.125,0.25 -0.125,0.6 0,0.6375 0.375,1.025 0.375,0.375 1.075,0.375 z"
         style=""
         id="path4262" />
      <path
         d="m 1025.4391,1432.1511 0,-8.6 0.875,-0.425 0,9.025 -0.875,0 z"
         style=""
         id="path4264" />
      <path
         d="m 1028.6237,1428.8511 0,-0.85 2.7875,0 0,0.85 -2.7875,0 z"
         style=""
         id="path4266" />
      <path
         d="m 1036.8405,1427.0761 q -0.25,-0.25 -0.625,-0.4625 -0.375,-0.225 -0.9,-0.225 -0.5625,0 -0.8875,0.225 -0.325,0.225 -0.325,0.6125 0,0.25 0.125,0.425 0.125,0.175 0.325,0.325 0.2,0.1375 0.4625,0.25 0.2625,0.1125 0.55,0.225 0.35,0.1375 0.7125,0.3125 0.375,0.1625 0.6625,0.4 0.2875,0.2375 0.475,0.575 0.1875,0.325 0.1875,0.8125 0,0.8 -0.575,1.275 -0.575,0.475 -1.575,0.475 -0.65,0 -1.225,-0.3125 -0.575,-0.325 -0.975,-0.8 l 0.6125,-0.5375 q 0.2875,0.35 0.725,0.6125 0.4375,0.2625 0.9375,0.2625 0.525,0 0.8875,-0.2375 0.3625,-0.2375 0.3625,-0.6875 0,-0.2875 -0.1375,-0.5 -0.1375,-0.225 -0.3625,-0.3875 -0.225,-0.1625 -0.5125,-0.2875 -0.2875,-0.1375 -0.575,-0.25 -0.375,-0.15 -0.725,-0.325 -0.35,-0.175 -0.6125,-0.4 -0.2625,-0.225 -0.425,-0.5125 -0.15,-0.3 -0.15,-0.7 0,-0.3625 0.15,-0.6625 0.1625,-0.3 0.425,-0.5125 0.275,-0.2125 0.65,-0.325 0.3875,-0.125 0.8375,-0.125 0.65,0 1.1625,0.2625 0.525,0.25 0.9125,0.7125 l -0.575,0.4875 z"
         style=""
         id="path4268" />
      <path
         d="m 1039.4516,1432.1511 0,-6.3875 0.875,0 0,6.3875 -0.875,0 z m 0.4375,-7.7 q -0.25,0 -0.4125,-0.1625 -0.1625,-0.1625 -0.1625,-0.4125 0,-0.25 0.1625,-0.425 0.1625,-0.175 0.4125,-0.175 0.25,0 0.4125,0.175 0.1625,0.175 0.1625,0.425 0,0.25 -0.1625,0.4125 -0.1625,0.1625 -0.4125,0.1625 z"
         style=""
         id="path4270" />
      <path
         d="m 1042.651,1432.1511 0,-8.6 0.875,-0.425 0,9.025 -0.875,0 z"
         style=""
         id="path4272" />
      <path
         d="m 1048.3606,1425.6136 q 1.175,0 1.725,0.7125 0.5625,0.7 0.5625,2.2875 l 0,3.5375 -0.875,0 0,-3.9 q 0,-1.0125 -0.425,-1.425 -0.425,-0.425 -1.0625,-0.425 -0.3375,0 -0.625,0.087 -0.2875,0.088 -0.5,0.3 -0.2125,0.2125 -0.3375,0.5625 -0.1125,0.35 -0.1125,0.875 l 0,3.925 -0.875,0 0,-8.6125 0.875,-0.4125 0,3.35 q 0.2875,-0.4375 0.7125,-0.65 0.425,-0.2125 0.9375,-0.2125 z"
         style=""
         id="path4274" />
      <path
         d="m 1055.1424,1431.5136 q 0.875,0 1.35,-0.675 0.475,-0.675 0.475,-1.8875 0,-1.2 -0.4625,-1.875 -0.4625,-0.675 -1.3625,-0.675 -0.9,0 -1.3625,0.6625 -0.4625,0.65 -0.4625,1.9 0,1.2 0.4625,1.875 0.4625,0.675 1.3625,0.675 z m 0,-5.9 q 0.6125,0 1.1125,0.225 0.5125,0.225 0.8625,0.65 0.3625,0.425 0.5625,1.05 0.2,0.6125 0.2,1.4125 0,0.7875 -0.2,1.4125 -0.2,0.625 -0.5625,1.0625 -0.35,0.425 -0.8625,0.65 -0.5,0.225 -1.1125,0.225 -0.6125,0 -1.125,-0.225 -0.5,-0.225 -0.8625,-0.65 -0.35,-0.425 -0.55,-1.0375 -0.2,-0.625 -0.2,-1.425 0,-0.7875 0.2,-1.4 0.2,-0.625 0.55,-1.05 0.3625,-0.4375 0.8625,-0.6625 0.5125,-0.2375 1.125,-0.2375 z"
         style=""
         id="path4276" />
      <path
         d="m 1063.5533,1432.1511 0,-0.6125 q -0.3375,0.4375 -0.7125,0.6 -0.375,0.1625 -0.875,0.1625 -1.2375,0 -1.8,-0.7 -0.55,-0.7 -0.55,-2.275 l 0,-3.5625 0.875,0 0,3.9 q 0,1 0.4125,1.425 0.425,0.425 1.0625,0.425 0.3375,0 0.625,-0.088 0.2875,-0.087 0.5,-0.3 0.225,-0.2125 0.3375,-0.5625 0.125,-0.35 0.125,-0.875 l 0,-3.925 0.875,0 0,6.3875 -0.875,0 z"
         style=""
         id="path4278" />
      <path
         d="m 1067.1727,1429.3136 q 0.1125,0.975 0.5875,1.575 0.475,0.6 1.3,0.6 0.35,0 0.7125,-0.1125 0.3625,-0.1125 0.725,-0.3875 l 0.475,0.5875 q -0.375,0.3125 -0.8875,0.525 -0.5,0.2 -1.0625,0.2 -0.65,0 -1.1625,-0.2625 -0.5125,-0.275 -0.875,-0.7375 -0.35,-0.4625 -0.55,-1.0625 -0.1875,-0.6125 -0.1875,-1.2875 0,-0.8 0.2,-1.4125 0.2125,-0.625 0.575,-1.05 0.3625,-0.425 0.875,-0.65 0.5125,-0.225 1.125,-0.225 0.5125,0 0.9625,0.1875 0.4625,0.175 0.8125,0.55 0.35,0.375 0.55,0.9625 0.2,0.5875 0.2,1.3875 0,0.1 0,0.25 0,0.15 -0.025,0.3625 l -4.35,0 z m 1.85,-2.9125 q -0.775,0 -1.3,0.5125 -0.5125,0.5125 -0.575,1.6125 l 3.5125,0 q 0,-0.65 -0.1625,-1.0625 -0.1625,-0.4125 -0.4125,-0.65 -0.2375,-0.2375 -0.525,-0.325 -0.2875,-0.087 -0.5375,-0.087 z"
         style=""
         id="path4280" />
      <path
         d="m 1074.7793,1432.3011 q -0.6875,0 -0.975,-0.4125 -0.2875,-0.425 -0.2875,-1.05 l 0,-4.2875 -1.0875,0 0,-0.7875 1.0875,0 0,-2.2 0.875,-0.4375 0,2.6375 1.625,0 0,0.7875 -1.625,0 0,3.9125 q 0,0.2125 0.012,0.4 0.025,0.175 0.1,0.3125 0.075,0.1375 0.2125,0.225 0.1375,0.075 0.3625,0.075 0.325,0 0.55,-0.125 0.2375,-0.125 0.4125,-0.25 l -0.1,0.9125 q -0.25,0.1375 -0.525,0.2125 -0.275,0.075 -0.6375,0.075 z"
         style=""
         id="path4282" />
      <path
         d="m 1079.3936,1432.3011 q -0.6875,0 -0.975,-0.4125 -0.2875,-0.425 -0.2875,-1.05 l 0,-4.2875 -1.0875,0 0,-0.7875 1.0875,0 0,-2.2 0.875,-0.4375 0,2.6375 1.625,0 0,0.7875 -1.625,0 0,3.9125 q 0,0.2125 0.013,0.4 0.025,0.175 0.1,0.3125 0.075,0.1375 0.2125,0.225 0.1375,0.075 0.3625,0.075 0.325,0 0.55,-0.125 0.2375,-0.125 0.4125,-0.25 l -0.1,0.9125 q -0.25,0.1375 -0.525,0.2125 -0.275,0.075 -0.6375,0.075 z"
         style=""
         id="path4284" />
      <path
         d="m 1082.7733,1429.3136 q 0.1125,0.975 0.5875,1.575 0.475,0.6 1.3,0.6 0.35,0 0.7125,-0.1125 0.3625,-0.1125 0.725,-0.3875 l 0.475,0.5875 q -0.375,0.3125 -0.8875,0.525 -0.5,0.2 -1.0625,0.2 -0.65,0 -1.1625,-0.2625 -0.5125,-0.275 -0.875,-0.7375 -0.35,-0.4625 -0.55,-1.0625 -0.1875,-0.6125 -0.1875,-1.2875 0,-0.8 0.2,-1.4125 0.2125,-0.625 0.575,-1.05 0.3625,-0.425 0.875,-0.65 0.5125,-0.225 1.125,-0.225 0.5125,0 0.9625,0.1875 0.4625,0.175 0.8125,0.55 0.35,0.375 0.55,0.9625 0.2,0.5875 0.2,1.3875 0,0.1 0,0.25 0,0.15 -0.025,0.3625 l -4.35,0 z m 1.85,-2.9125 q -0.775,0 -1.3,0.5125 -0.5125,0.5125 -0.575,1.6125 l 3.5125,0 q 0,-0.65 -0.1625,-1.0625 -0.1625,-0.4125 -0.4125,-0.65 -0.2375,-0.2375 -0.525,-0.325 -0.2875,-0.087 -0.5375,-0.087 z"
         style=""
         id="path4286" />
      <path
         d="m 1091.9674,1427.0761 q -0.25,-0.25 -0.625,-0.4625 -0.375,-0.225 -0.9,-0.225 -0.5625,0 -0.8875,0.225 -0.325,0.225 -0.325,0.6125 0,0.25 0.125,0.425 0.125,0.175 0.325,0.325 0.2,0.1375 0.4625,0.25 0.2625,0.1125 0.55,0.225 0.35,0.1375 0.7125,0.3125 0.375,0.1625 0.6625,0.4 0.2875,0.2375 0.475,0.575 0.1875,0.325 0.1875,0.8125 0,0.8 -0.575,1.275 -0.575,0.475 -1.575,0.475 -0.65,0 -1.225,-0.3125 -0.575,-0.325 -0.975,-0.8 l 0.6125,-0.5375 q 0.2875,0.35 0.725,0.6125 0.4375,0.2625 0.9375,0.2625 0.525,0 0.8875,-0.2375 0.3625,-0.2375 0.3625,-0.6875 0,-0.2875 -0.1375,-0.5 -0.1375,-0.225 -0.3625,-0.3875 -0.225,-0.1625 -0.5125,-0.2875 -0.2875,-0.1375 -0.575,-0.25 -0.375,-0.15 -0.725,-0.325 -0.35,-0.175 -0.6125,-0.4 -0.2625,-0.225 -0.425,-0.5125 -0.15,-0.3 -0.15,-0.7 0,-0.3625 0.15,-0.6625 0.1625,-0.3 0.425,-0.5125 0.275,-0.2125 0.65,-0.325 0.3875,-0.125 0.8375,-0.125 0.65,0 1.1625,0.2625 0.525,0.25 0.9125,0.7125 l -0.575,0.4875 z"
         style=""
         id="path4288" />
    </g>
  </g>
</svg>
