<?xml version="1.0" encoding="UTF-8" standalone="no"?>
<svg
   xmlns:dc="http://purl.org/dc/elements/1.1/"
   xmlns:cc="http://creativecommons.org/ns#"
   xmlns:rdf="http://www.w3.org/1999/02/22-rdf-syntax-ns#"
   xmlns:svg="http://www.w3.org/2000/svg"
   xmlns="http://www.w3.org/2000/svg"
   xmlns:sodipodi="http://sodipodi.sourceforge.net/DTD/sodipodi-0.dtd"
   xmlns:inkscape="http://www.inkscape.org/namespaces/inkscape"
   sodipodi:docname="ATL.svg"
   inkscape:version="0.92.4 (5da689c313, 2019-01-14)"
   id="svg8"
   version="1.1"
   viewBox="0 0 783.03674 261.76769"
   height="989.35815"
   width="2959.509"
   inkscape:export-filename="C:\Users\paulb\OneDrive\Projects\Terminal Silhouettes\Silhouettes\png\ATL.png"
   inkscape:export-xdpi="96"
   inkscape:export-ydpi="96">
  <title
     id="title815">ATL</title>
  <defs
     id="defs2" />
  <sodipodi:namedview
     fit-margin-bottom="100"
     fit-margin-right="100"
     fit-margin-left="100"
     fit-margin-top="100"
     inkscape:document-rotation="0"
     inkscape:object-nodes="true"
     inkscape:snap-smooth-nodes="true"
     inkscape:snap-midpoints="false"
     inkscape:snap-object-midpoints="false"
     inkscape:guide-bbox="true"
     showguides="false"
     inkscape:window-maximized="1"
     inkscape:window-y="-8"
     inkscape:window-x="1912"
     inkscape:window-height="1137"
     inkscape:window-width="1920"
     units="px"
     showgrid="false"
     inkscape:current-layer="layer3"
     inkscape:document-units="px"
     inkscape:cy="160.33496"
     inkscape:cx="1637.9906"
     inkscape:zoom="0.35355339"
     inkscape:pageshadow="2"
     inkscape:pageopacity="1"
     borderopacity="1.0"
     bordercolor="#666666"
     pagecolor="#ffffff"
     id="base"
     inkscape:snap-bbox="false"
     inkscape:bbox-nodes="true"
     inkscape:snap-page="true">
    <sodipodi:guide
       inkscape:locked="false"
       id="guide825"
       orientation="1,0"
       position="-322.48989,-124.69492" />
    <sodipodi:guide
       inkscape:locked="false"
       id="guide827"
       orientation="1,0"
       position="-292.06279,-124.29804" />
    <sodipodi:guide
       position="-307.27639,85.843393"
       orientation="1,0"
       id="guide882"
       inkscape:locked="false" />
    <sodipodi:guide
       position="-366.94182,129.53031"
       orientation="1,0"
       id="guide900"
       inkscape:locked="false" />
    <sodipodi:guide
       position="1.2333206,-238.0425"
       orientation="1,0"
       id="guide860"
       inkscape:locked="false" />
    <sodipodi:guide
       position="16.44682,162.85288"
       orientation="1,0"
       id="guide920"
       inkscape:locked="false" />
    <sodipodi:guide
       position="-5.0000794,267.84566"
       orientation="1,0"
       id="guide945"
       inkscape:locked="false" />
    <sodipodi:guide
       position="-42.87528,112.65813"
       orientation="1,0"
       id="guide962"
       inkscape:locked="false" />
    <sodipodi:guide
       position="-33.93038,134.7125"
       orientation="1,0"
       id="guide968"
       inkscape:locked="false" />
    <sodipodi:guide
       position="44.44932,304.79"
       orientation="1,0"
       id="guide975"
       inkscape:locked="false" />
    <sodipodi:guide
       position="31.66042,324.43999"
       orientation="1,0"
       id="guide1002"
       inkscape:locked="false" />
    <sodipodi:guide
       position="324.77772,339.87485"
       orientation="1,0"
       id="guide1036"
       inkscape:locked="false" />
    <sodipodi:guide
       position="355.20482,339.87485"
       orientation="1,0"
       id="guide1038"
       inkscape:locked="false" />
    <sodipodi:guide
       position="339.99132,346.23587"
       orientation="1,0"
       id="guide1042"
       inkscape:locked="false" />
    <sodipodi:guide
       position="362.77122,225.6796"
       orientation="1,0"
       id="guide1072"
       inkscape:locked="false" />
    <sodipodi:guide
       position="359.70042,252.4025"
       orientation="1,0"
       id="guide1099"
       inkscape:locked="false" />
    <sodipodi:guide
       position="310.02482,167.20666"
       orientation="1,0"
       id="guide1166"
       inkscape:locked="false" />
    <sodipodi:guide
       position="297.06022,165.1892"
       orientation="1,0"
       id="guide1197"
       inkscape:locked="false" />
    <sodipodi:guide
       position="284.09562,147.65902"
       orientation="1,0"
       id="guide1199"
       inkscape:locked="false" />
    <sodipodi:guide
       position="376.94142,174.58195"
       orientation="1,0"
       id="guide1230"
       inkscape:locked="false" />
    <sodipodi:guide
       position="651.33732,91.998853"
       orientation="1,0"
       id="guide1254"
       inkscape:locked="false" />
    <sodipodi:guide
       position="680.21002,163.56864"
       orientation="1,0"
       id="guide1256"
       inkscape:locked="false" />
    <sodipodi:guide
       position="663.98212,-120.26979"
       orientation="1,0"
       id="guide1260"
       inkscape:locked="false" />
    <sodipodi:guide
       position="653.93882,34.319685"
       orientation="1,0"
       id="guide1262"
       inkscape:locked="false" />
    <sodipodi:guide
       position="674.02532,-176.88396"
       orientation="1,0"
       id="guide1266"
       inkscape:locked="false" />
    <sodipodi:guide
       position="610.52162,151.19587"
       orientation="1,0"
       id="guide1410"
       inkscape:locked="false" />
    <sodipodi:guide
       position="633.06582,167.56613"
       orientation="1,0"
       id="guide1424"
       inkscape:locked="false" />
    <sodipodi:guide
       position="715.30042,89.749893"
       orientation="1,0"
       id="guide1457"
       inkscape:locked="false" />
    <sodipodi:guide
       position="707.16442,154.58088"
       orientation="1,0"
       id="guide1467"
       inkscape:locked="false" />
    <sodipodi:guide
       position="674.75292,152.02621"
       orientation="1,0"
       id="guide1486"
       inkscape:locked="false" />
    <sodipodi:guide
       position="1034.917,363.85825"
       orientation="1,0"
       id="guide1495"
       inkscape:locked="false" />
    <sodipodi:guide
       position="1046.9556,-256.45741"
       orientation="0,1"
       id="guide1499"
       inkscape:locked="false" />
    <sodipodi:guide
       position="995.26942,511.15451"
       orientation="1,0"
       id="guide1504"
       inkscape:locked="false" />
    <sodipodi:guide
       position="1037.7874,512.95096"
       orientation="1,0"
       id="guide1508"
       inkscape:locked="false" />
    <sodipodi:guide
       position="998.13992,-181.72861"
       orientation="1,0"
       id="guide1510"
       inkscape:locked="false" />
    <sodipodi:guide
       position="1034.024,480.2749"
       orientation="0,1"
       id="guide1516"
       inkscape:locked="false" />
    <sodipodi:guide
       position="1085.2591,405.9171"
       orientation="0,1"
       id="guide1518"
       inkscape:locked="false" />
    <sodipodi:guide
       position="968.89002,282.99985"
       orientation="0,1"
       id="guide1689"
       inkscape:locked="false" />
    <sodipodi:guide
       position="1037.7874,296.19829"
       orientation="0,1"
       id="guide1714"
       inkscape:locked="false" />
    <sodipodi:guide
       position="1037.7875,341.89053"
       orientation="0,1"
       id="guide1743"
       inkscape:locked="false" />
    <sodipodi:guide
       position="1054.893,335.15096"
       orientation="0,1"
       id="guide1777"
       inkscape:locked="false" />
    <sodipodi:guide
       position="1044.442,361.08013"
       orientation="0,1"
       id="guide1779"
       inkscape:locked="false" />
    <sodipodi:guide
       position="1287.6603,159.07072"
       orientation="1,0"
       id="guide1834"
       inkscape:locked="false" />
    <sodipodi:guide
       position="1073.9431,32.070725"
       orientation="1,0"
       id="guide1845"
       inkscape:locked="false" />
    <sodipodi:guide
       position="1234.2806,133.9353"
       orientation="1,0"
       id="guide1847"
       inkscape:locked="false" />
    <sodipodi:guide
       position="1278.3337,160.39364"
       orientation="1,0"
       id="guide1887"
       inkscape:locked="false" />
    <sodipodi:guide
       position="1022.3973,46.706863"
       orientation="1,0"
       id="guide1946"
       inkscape:locked="false" />
    <sodipodi:guide
       position="913.88582,43.900533"
       orientation="1,0"
       id="guide1971"
       inkscape:locked="false" />
    <sodipodi:guide
       position="956.72912,51.009903"
       orientation="1,0"
       id="guide1984"
       inkscape:locked="false" />
    <sodipodi:guide
       position="989.54092,177.45928"
       orientation="1,0"
       id="guide1992"
       inkscape:locked="false" />
    <sodipodi:guide
       position="1106.026,151.36124"
       orientation="1,0"
       id="guide2017"
       inkscape:locked="false" />
    <sodipodi:guide
       position="1577.4451,-210.68448"
       orientation="1,0"
       id="guide2034"
       inkscape:locked="false" />
    <sodipodi:guide
       position="1609.8566,135.39051"
       orientation="1,0"
       id="guide2036"
       inkscape:locked="false" />
    <sodipodi:guide
       position="1665.9823,94.414473"
       orientation="0,1"
       id="guide2038"
       inkscape:locked="false" />
    <sodipodi:guide
       position="1566.7295,-260.55845"
       orientation="0,1"
       id="guide2044"
       inkscape:locked="false" />
    <sodipodi:guide
       position="1576.1222,-172.18761"
       orientation="1,0"
       id="guide2050"
       inkscape:locked="false" />
    <sodipodi:guide
       position="1637.6384,-93.422566"
       orientation="0,1"
       id="guide2056"
       inkscape:locked="false" />
    <sodipodi:guide
       position="1638.1061,-126.91143"
       orientation="0,1"
       id="guide2058"
       inkscape:locked="false" />
    <sodipodi:guide
       position="1639.2914,-229.07303"
       orientation="0,1"
       id="guide2080"
       inkscape:locked="false" />
    <sodipodi:guide
       position="1640.7467,-219.28345"
       orientation="0,1"
       id="guide2082"
       inkscape:locked="false" />
    <sodipodi:guide
       position="1640.1514,105.62489"
       orientation="1,0"
       id="guide2084"
       inkscape:locked="false" />
    <sodipodi:guide
       position="1845.681,36.604063"
       orientation="1,0"
       id="guide2092"
       inkscape:locked="false" />
    <sodipodi:guide
       position="1631.6185,-217.4975"
       orientation="0,1"
       id="guide2094"
       inkscape:locked="false" />
    <sodipodi:guide
       position="1687.3105,-6.8005051"
       orientation="0,1"
       id="guide2099"
       inkscape:locked="false" />
    <sodipodi:guide
       position="1560.6441,78.901973"
       orientation="1,0"
       id="guide2104"
       inkscape:locked="false" />
    <sodipodi:guide
       position="1553.1034,23.604075"
       orientation="0,1"
       id="guide2106"
       inkscape:locked="false" />
    <sodipodi:guide
       position="1560.6441,49.980903"
       orientation="0.46174861,0.88701083"
       id="guide2108"
       inkscape:locked="false"
       inkscape:label=""
       inkscape:color="rgb(0,0,255)" />
    <sodipodi:guide
       position="1852.3227,94.414473"
       orientation="-0.38268343,0.92387953"
       id="guide2133"
       inkscape:locked="false"
       inkscape:label=""
       inkscape:color="rgb(0,0,255)" />
    <sodipodi:guide
       position="1835.4847,45.023053"
       orientation="0,1"
       id="guide2135"
       inkscape:locked="false" />
    <sodipodi:guide
       position="1859.9933,102.08509"
       orientation="-0.70710678,0.70710678"
       id="guide2151"
       inkscape:locked="false"
       inkscape:label=""
       inkscape:color="rgb(0,0,255)" />
    <sodipodi:guide
       position="1862.4255,67.660783"
       orientation="0.70710678,0.70710678"
       id="guide2157"
       inkscape:locked="false"
       inkscape:label=""
       inkscape:color="rgb(0,0,255)" />
    <sodipodi:guide
       position="1609.8566,124.7093"
       orientation="-0.92387953,-0.38268343"
       id="guide2165"
       inkscape:locked="false"
       inkscape:label=""
       inkscape:color="rgb(0,0,255)" />
    <sodipodi:guide
       position="1858.4965,89.784033"
       orientation="1,0"
       id="guide2169"
       inkscape:locked="false" />
    <sodipodi:guide
       position="1851.2703,91.046863"
       orientation="-0.92387953,-0.38268343"
       id="guide2171"
       inkscape:locked="false"
       inkscape:label=""
       inkscape:color="rgb(0,0,255)" />
    <sodipodi:guide
       position="1554.8517,111.43953"
       orientation="0,1"
       id="guide2183"
       inkscape:locked="false" />
    <sodipodi:guide
       position="1577.4451,94.414473"
       orientation="0.17364818,-0.98480775"
       id="guide2194"
       inkscape:locked="false"
       inkscape:label=""
       inkscape:color="rgb(0,0,255)" />
    <sodipodi:guide
       position="1599.5659,153.25384"
       orientation="0.70710678,0.70710678"
       id="guide2196"
       inkscape:locked="false"
       inkscape:label=""
       inkscape:color="rgb(0,0,255)" />
    <sodipodi:guide
       position="1616.4974,118.73598"
       orientation="-0.92387953,-0.38268343"
       id="guide2202"
       inkscape:locked="false"
       inkscape:label=""
       inkscape:color="rgb(0,0,255)" />
    <sodipodi:guide
       position="1554.9451,159.14715"
       orientation="0,1"
       id="guide2222"
       inkscape:locked="false" />
  </sodipodi:namedview>
  <metadata
     id="metadata5">
    <rdf:RDF>
      <cc:Work
         rdf:about="">
        <dc:format>image/svg+xml</dc:format>
        <dc:type
           rdf:resource="http://purl.org/dc/dcmitype/StillImage" />
        <dc:title>ATL</dc:title>
        <dc:date>8 Dec 2019</dc:date>
        <dc:creator>
          <cc:Agent>
            <dc:title>Paul Bogard</dc:title>
          </cc:Agent>
        </dc:creator>
        <cc:license
           rdf:resource="http://creativecommons.org/licenses/by-sa/4.0/" />
        <dc:description>Terminal silhouette of ATL (Atlanta)</dc:description>
      </cc:Work>
      <cc:License
         rdf:about="http://creativecommons.org/licenses/by-sa/4.0/">
        <cc:permits
           rdf:resource="http://creativecommons.org/ns#Reproduction" />
        <cc:permits
           rdf:resource="http://creativecommons.org/ns#Distribution" />
        <cc:requires
           rdf:resource="http://creativecommons.org/ns#Notice" />
        <cc:requires
           rdf:resource="http://creativecommons.org/ns#Attribution" />
        <cc:permits
           rdf:resource="http://creativecommons.org/ns#DerivativeWorks" />
        <cc:requires
           rdf:resource="http://creativecommons.org/ns#ShareAlike" />
      </cc:License>
    </rdf:RDF>
  </metadata>
  <g
     inkscape:groupmode="layer"
     id="layer1"
     inkscape:label="Background"
     transform="translate(-1.2590205e-5,21.408779)">
    <rect
       style="opacity:1;fill:#dbdcdf;fill-opacity:1;stroke:none;stroke-width:0.26458332;stroke-linecap:round;stroke-linejoin:round;stroke-miterlimit:4;stroke-dasharray:none;stroke-dashoffset:0;stroke-opacity:1"
       id="rect2248"
       width="783.0368"
       height="261.76767"
       x="0"
       y="-21.408777" />
  </g>
  <g
     transform="translate(351.93302,1.0917604)"
     style="display:inline"
     inkscape:label="Terminal"
     id="layer2"
     inkscape:groupmode="layer" />
  <g
     id="g2245"
     transform="matrix(0.25024,0,0,0.25024,-40.084167,16.378223)"
     style="fill:#60646c;fill-opacity:1;stroke:none">
    <path
       style="display:inline;opacity:1;fill:#60646c;fill-opacity:1;stroke:none;stroke-width:1;stroke-linecap:round;stroke-linejoin:round;stroke-miterlimit:4;stroke-dasharray:none;stroke-dashoffset:0;stroke-opacity:1"
       d="M -3729.9883,-729.39258 V 60.318359 L -3895.957,190.94531 v 1.27149 h -53.7383 V 34.585938 23.958984 c 2e-4,-0.01367 2e-4,-0.02734 0,-0.04102 9e-4,-0.673022 -0.5438,-1.219441 -1.2168,-1.220703 -0.6738,2.13e-4 -1.2197,0.54694 -1.2188,1.220703 v 10.667969 h -56.5214 V 23.958984 c 2e-4,-0.01367 2e-4,-0.02734 0,-0.04102 9e-4,-0.673022 -0.5438,-1.219441 -1.2168,-1.220703 -0.6738,2.13e-4 -1.2197,0.54694 -1.2188,1.220703 v 10.667969 h -56.5195 V 23.958984 c 2e-4,-0.01367 2e-4,-0.02734 0,-0.04102 9e-4,-0.673022 -0.5438,-1.219441 -1.2168,-1.220703 -0.6738,2.13e-4 -1.2197,0.54694 -1.2188,1.220703 v 10.667969 h -56.5215 V 23.958984 c 2e-4,-0.01367 2e-4,-0.02734 0,-0.04102 9e-4,-0.673022 -0.5465,-1.219441 -1.2167,-1.220703 -0.6738,2.13e-4 -1.2197,0.54694 -1.2188,1.220703 v 10.667969 h -56.5215 V 23.958984 c 2e-4,-0.01367 2e-4,-0.02734 0,-0.04102 9e-4,-0.673022 -0.5438,-1.219441 -1.2168,-1.220703 -0.6738,2.13e-4 -1.2196,0.54694 -1.2187,1.220703 v 10.667969 h -56.5196 V 23.958984 c 2e-4,-0.01367 2e-4,-0.02734 0,-0.04102 9e-4,-0.673022 -0.5438,-1.219441 -1.2168,-1.220703 -0.6738,2.13e-4 -1.2196,0.54694 -1.2187,1.220703 v 10.667969 h -56.5215 V 23.958984 c 2e-4,-0.01367 2e-4,-0.02734 0,-0.04102 9e-4,-0.673022 -0.5438,-1.219441 -1.2168,-1.220703 -0.6738,2.13e-4 -1.2196,0.54694 -1.2187,1.220703 v 10.667969 h -56.5196 V 23.958984 c 2e-4,-0.01367 2e-4,-0.02734 0,-0.04102 9e-4,-0.673022 -0.5438,-1.219441 -1.2168,-1.220703 -0.6738,1.58e-4 -1.2196,0.546901 -1.2187,1.220703 v 10.667969 h -56.5215 V 23.958984 c 2e-4,-0.01367 2e-4,-0.02734 0,-0.04102 9e-4,-0.673022 -0.5438,-1.219441 -1.2168,-1.220703 -0.6738,2.13e-4 -1.2196,0.54694 -1.2187,1.220703 v 10.667969 h -56.5215 V 23.958984 c 2e-4,-0.01367 2e-4,-0.02734 0,-0.04102 9e-4,-0.673022 -0.5438,-1.219441 -1.2168,-1.220703 -0.6738,2.13e-4 -1.2197,0.54694 -1.2188,1.220703 v 10.667969 h -56.5195 V 23.958984 c 2e-4,-0.01367 2e-4,-0.02734 0,-0.04102 9e-4,-0.673022 -0.5438,-1.219441 -1.2168,-1.220703 -0.6738,1.58e-4 -1.2197,0.546901 -1.2188,1.220703 v 10.667969 h -56.5214 V 23.958984 c 2e-4,-0.01367 2e-4,-0.02734 0,-0.04102 9e-4,-0.673022 -0.5438,-1.219441 -1.2168,-1.220703 -0.6738,2.13e-4 -1.2197,0.54694 -1.2188,1.220703 v 10.667969 h -56.5195 V 23.958984 c 2e-4,-0.01367 2e-4,-0.02734 0,-0.04102 9e-4,-0.673022 -0.5438,-1.219441 -1.2168,-1.220703 -0.6738,1.58e-4 -1.2197,0.546901 -1.2188,1.220703 v 10.667969 h -56.5215 V 23.958984 c 2e-4,-0.01367 2e-4,-0.02734 0,-0.04102 9e-4,-0.673022 -0.5438,-1.219441 -1.2168,-1.220703 -0.671,1.58e-4 -1.2196,0.546901 -1.2187,1.220703 v 10.667969 h -56.5195 V 23.958984 c 2e-4,-0.01367 2e-4,-0.02734 0,-0.04102 9e-4,-0.673763 -0.545,-1.22049 -1.2188,-1.220703 -0.6745,-8.93e-4 -1.2216,0.546158 -1.2207,1.220703 v 10.667969 h -56.5195 V 23.958984 c 2e-4,-0.01367 2e-4,-0.02734 0,-0.04102 9e-4,-0.673022 -0.5438,-1.219441 -1.2168,-1.220703 -0.6738,1.58e-4 -1.2197,0.546901 -1.2188,1.220703 v 10.667969 h -56.5214 V 23.958984 c 2e-4,-0.01367 2e-4,-0.02734 0,-0.04102 9e-4,-0.673022 -0.5438,-1.219441 -1.2168,-1.220703 -0.6738,1.58e-4 -1.2197,0.546901 -1.2188,1.220703 v 10.667969 h -56.5215 V 23.958984 c 9e-4,-0.01366 0,-0.02733 0,-0.04102 9e-4,-0.673763 -0.5449,-1.22049 -1.2187,-1.220703 -0.6745,-8.93e-4 -1.2216,0.546158 -1.2207,1.220703 v 10.667969 h -56.5215 V 23.958984 c 2e-4,-0.01367 2e-4,-0.02734 0,-0.04102 9e-4,-0.673022 -0.5438,-1.219441 -1.2168,-1.220703 h -0.035 c -0.6738,2.13e-4 -1.2196,0.54694 -1.2187,1.220703 V 34.585938 221.05469 l -4.4707,-0.006 v -1.92188 h -11.6074 v 1.9043 l -33.2129,-0.0508 v -1.85352 h -11.6075 v 1.83203 h -15.5039 v -88.16015 h -17.6777 v 18.57031 h -3.7363 v -18.57031 h -18.2285 v 88.16015 h -18.8106 V 356.1932 h -137.1933 v -51.58789 h -14.75 v -90.71875 h -54.5 v 90.71875 h -3.25 v 71.5625 h -6.1758 v 265.87305 h 6.1758 v 71.56445 h 3.25 v 23.54101 h 66 v -23.54101 h 3.25 v -51.58789 h 137.1933 v 131.1914 0.1836 h 18.8106 v 87.97656 h 18.2285 v -18.57031 h 3.7363 v 18.57031 h 17.6777 v -87.97656 c 5.168,-0.002 10.336,0.005 15.5039,0.008 v 1.82422 h 11.6055 v -1.81641 c 16.431,0.0164 32.862,0.0416 49.293,0.0645 V 979.58203 990.25 c -9e-4,0.6738 0.5449,1.22054 1.2187,1.2207 v 0.002 c 0.673,-10e-4 1.2177,-0.54769 1.2168,-1.22071 3e-4,-0.0143 3e-4,-0.0286 0,-0.043 v -10.62695 h 56.5215 V 990.25 c -9e-4,0.67454 0.5462,1.22159 1.2207,1.2207 v 0.002 c 0.6738,-2.1e-4 1.2197,-0.54694 1.2188,-1.22071 3e-4,-0.0143 3e-4,-0.0286 0,-0.043 v -10.62695 h 56.5214 V 990.25 c 0,0.6738 0.545,1.22054 1.2188,1.2207 v 0.002 c 0.673,-10e-4 1.2177,-0.54769 1.2168,-1.22071 3e-4,-0.0143 3e-4,-0.0286 0,-0.043 v -10.62695 h 56.5215 V 990.25 c -9e-4,0.67376 0.5449,1.22049 1.2187,1.2207 v 0.002 c 0.673,-10e-4 1.2177,-0.54769 1.2168,-1.22071 3e-4,-0.0143 3e-4,-0.0286 0,-0.043 v -10.62695 h 56.5196 V 990.25 c -9e-4,0.67454 0.5462,1.22159 1.2207,1.2207 v 0.002 c 0.6738,-1.6e-4 1.2196,-0.54691 1.2187,-1.22071 3e-4,-0.0143 3e-4,-0.0286 0,-0.043 v -10.62695 h 56.5195 V 990.25 c -9e-4,0.6738 0.545,1.22054 1.2188,1.2207 v 0.002 c 0.673,-10e-4 1.2177,-0.54769 1.2168,-1.22071 3e-4,-0.0143 3e-4,-0.0286 0,-0.043 v -10.62695 h 56.5215 V 990.25 c -9e-4,0.67376 0.5449,1.22049 1.2187,1.2207 v 0.002 c 0.673,-10e-4 1.2177,-0.54769 1.2168,-1.22071 3e-4,-0.0143 3e-4,-0.0286 0,-0.043 v -10.62695 h 56.5196 V 990.25 c -9e-4,0.6738 0.5449,1.22054 1.2187,1.2207 v 0.002 c 0.673,-10e-4 1.2177,-0.54769 1.2168,-1.22071 3e-4,-0.0143 3e-4,-0.0286 0,-0.043 v -10.62695 h 56.5215 V 990.25 c -9e-4,0.6738 0.5449,1.22054 1.2187,1.2207 v 0.002 c 0.673,-10e-4 1.2177,-0.54769 1.2168,-1.22071 3e-4,-0.0143 3e-4,-0.0286 0,-0.043 v -10.62695 h 56.5196 V 990.25 c -9e-4,0.6738 0.5449,1.22054 1.2187,1.2207 v 0.002 c 0.673,-10e-4 1.2177,-0.54769 1.2168,-1.22071 3e-4,-0.0143 3e-4,-0.0286 0,-0.043 v -10.62695 h 56.5215 V 990.25 c -9e-4,0.6738 0.5449,1.22054 1.2187,1.2207 v 0.002 c 0.673,-10e-4 1.2177,-0.54769 1.2168,-1.22071 3e-4,-0.0143 3e-4,-0.0286 0,-0.043 v -10.62695 h 56.5215 V 990.25 c -9e-4,0.6738 0.545,1.22054 1.2188,1.2207 v 0.002 c 0.673,-10e-4 1.2177,-0.54769 1.2168,-1.22071 3e-4,-0.0143 3e-4,-0.0286 0,-0.043 v -10.62695 h 56.5195 V 990.25 c -9e-4,0.6738 0.545,1.22054 1.2188,1.2207 v 0.002 c 0.673,-10e-4 1.2176,-0.54769 1.2167,-1.22071 3e-4,-0.0143 3e-4,-0.0286 0,-0.043 v -10.62695 h 56.5215 V 990.25 c -9e-4,0.6738 0.545,1.22054 1.2188,1.2207 v 0.002 c 0.673,-10e-4 1.2177,-0.54769 1.2168,-1.22071 3e-4,-0.0143 3e-4,-0.0286 0,-0.043 v -10.62695 h 56.5195 V 990.25 c -9e-4,0.6738 0.545,1.22054 1.2188,1.2207 v 0.002 c 0.673,-10e-4 1.2177,-0.54769 1.2168,-1.22071 3e-4,-0.0143 3e-4,-0.0286 0,-0.043 v -10.62695 h 56.5214 V 990.25 c -9e-4,0.6738 0.545,1.22054 1.2188,1.2207 v 0.002 c 0.673,-10e-4 1.2177,-0.54769 1.2168,-1.22071 3e-4,-0.0143 3e-4,-0.0286 0,-0.043 v -10.62695 h 56.5215 V 990.25 c -9e-4,0.6738 0.5449,1.22054 1.2187,1.2207 v 0.002 c 0.673,-10e-4 1.2177,-0.54769 1.2168,-1.22071 3e-4,-0.0143 3e-4,-0.0286 0,-0.043 v -10.62695 h 56.5196 V 990.25 c -9e-4,0.6738 0.5449,1.22054 1.2187,1.2207 v 0.002 c 0.673,-10e-4 1.2177,-0.54769 1.2168,-1.22071 3e-4,-0.0143 3e-4,-0.0286 0,-0.043 v -10.62695 h 56.5215 V 990.25 c -9e-4,0.6738 0.5449,1.22054 1.2187,1.2207 v 0.002 c 0.673,-10e-4 1.2177,-0.54769 1.2168,-1.22071 3e-4,-0.0143 3e-4,-0.0286 0,-0.043 v -10.62695 l 0.033,-159.86523 h 53.7403 v 1.27148 L -3740,951.85156 V 2085.7344 h 32.5 v -11.6504 h 57.8184 v -135.1348 h 12.1816 v -10.7148 h -12.1816 V 608.23438 h -6.4141 V 546.51953 H -3576 v -17.5 h 21.25 v -2.78515 c 5.4817,-3.98729 8.7322,-10.35051 8.75,-17.12891 -0.011,-6.78598 -3.2622,-13.15864 -8.75,-17.15039 v -31.68555 h 14.25 v -15.75 H -3648 v 41.25 h -8.0957 v -67.5 h 41.8457 v -13.5 h -27.5 v -19 h -4.5 v -76.25 l 3.4999,-7.5e-4 V 35.696513 l -17.2343,7.53e-4 V -499.23047 h 22.4844 v -13.5 h -22.4844 V -729.39258 Z M -5279.2598,383.06445 h 107.127 v 16.04688 h 23.8906 v 236.03515 h -131.0176 z m 324.9746,0.32617 h 58.0762 v 251.42774 h -130.9336 V 409.66211 h 72.8574 z m 914.1797,26.4668 h 41.1641 l 9.0918,9.0918 v 4.29297 h 26.0117 v 25 h 27.2734 v 37.88086 h -103.541 z m 54.2969,0 h 21.9707 v 2.52539 h -19.4453 z m -54.2969,122.22852 h 103.541 v 34.18359 h 129.2989 v 42.08203 h -232.8399 z m 105.9766,24.24414 h 23.4238 v 7.5039 h -23.4238 z m 25.8594,0 h 23.4257 v 7.5039 h -23.4257 z m 25.8613,0 h 23.4238 v 7.5039 h -23.4238 z m 25.8594,0 h 23.4238 v 7.5039 h -23.4238 z m 25.8593,0 h 23.4239 v 7.5039 h -23.4239 z"
       transform="matrix(0.26458333,0,0,0.26458333,1685.1691,306.38231)"
       id="rect841"
       inkscape:connector-curvature="0"
       sodipodi:nodetypes="ccccccccccccccccccccccccccccccccccccccccccccccccccccccccccccccccccccccccccccccccccccccccccccccccccccccccccccccccccccccccccccccccccccccccccccccccccccccccccccccccccccccccccccccccccccccccccccsccccccccccccccccccccccccccccccccccccccccccccccccccccccccccccccccccccccccccccccccccccccccccccccccccccccccccccccccccccccccccccccccccccccccccccccccccccccccccccccccccccccccccccccccccccccccccccccccccccccccccccccccccccccccccccc">
      <desc
         id="desc870">Terminal T</desc>
    </path>
    <path
       transform="scale(0.26458333)"
       inkscape:connector-curvature="0"
       id="rect866"
       d="m 5043.6641,317.23438 v 743.64452 h -23.5606 v 19.7988 h 23.5606 v 321.9942 h -18.9161 v 73.334 h -32.5546 v 112.5078 h 21.9433 l -14.75,10.248 h 44.2774 v 15.7149 h -56.4805 v 19.5859 h -76.4219 l -33.8066,48.2832 v 50.1035 l 33.8066,48.2813 h 132.9024 v 592.1972 h -2.5469 v -23.7031 h -33.6563 v 33.7383 h 36.2032 v 127.4668 h -28.5977 v 56.6055 h 28.5977 v 475.8652 h 36.207 v 87.4531 h -38.9727 v 30.4356 h 134.9532 v -30.4356 h -17.1875 V 1861.8086 h 6.6171 v -49.1934 h 35.9844 v -21.8632 h 82.459 l 42.8008,-51.0059 v -63.5098 l -28.127,-33.5195 h -120.8203 v -40.9941 h 15.9883 v -13.209 h 29.1055 v -112.5078 h -45.0938 v -65.5899 h -18.914 v -4.4082 h 28.5976 v -56.6055 h -28.5976 V 968.5 H 5199.5 v -25 h 7.5 v -21 h -23.5 v 19 h -24.8359 v -7.01953 h 18.914 v -17.49805 h -18.914 V 787.10547 h 28.5976 V 730.5 h -28.5976 V 317.23438 Z"
       style="display:inline;opacity:1;fill:#60646c;fill-opacity:1;stroke:none;stroke-width:1;stroke-linecap:round;stroke-linejoin:round;stroke-miterlimit:4;stroke-dasharray:none;stroke-dashoffset:0;stroke-opacity:1" />
    <path
       transform="scale(0.26458333)"
       id="rect1046"
       d="m 6316.9375,484.76367 v 8.66406 l -13.4336,13.4336 V 522 h -36.9941 l -36.1914,30.36719 v 90.2539 l 36.1914,30.36914 v 243.28516 h -18.9141 v 17.49805 h 18.9141 v 120.74026 h -24.5254 v 148.4941 h 3.1816 v 40.3047 h 21.3438 v 173.2402 h -36.1934 V 1548.25 H 6210.75 v 5.5664 l -49,10.416 v 10.4824 l -49,10.4161 v 17.7285 l -58.9902,12.539 25.2226,43.6895 c 5.2067,9.0182 15.6211,9.0195 15.6211,9.0195 l 7.6602,13.2676 c 2.3818,4.125 7.1445,4.125 7.1445,4.125 h 157.1016 v 46.4238 h -30.5352 v 90.5078 h 30.5352 v 65.8145 h -7.5528 v 61.8711 h 7.5528 V 2007.5 h -18.9141 V 2156 h 18.9141 v 856.4941 h 115 v -384.4277 h 7.5527 v -61.8711 h -7.5527 V 2156 h 18.914 v -148.5 h -18.914 v -339.3926 h 174.6015 c 0,0 4.7627,0 7.1446,-4.125 l 7.6582,-13.2676 c 0,0 10.4163,0 15.623,-9.0195 l 32.7344,-56.7012 -80.3027,-17.0683 v -13.7656 l -75.3067,-16.0079 v -6.6933 h -82.1523 V 1351.75 h 28.5957 v -61.5 h -28.5977 v -87.2422 H 6398.5 V 1176.75 h -16.9902 V 1149.5 H 6407.5 v -124 h -7.0762 v -69 h -18.914 V 791.11719 h 7.5527 v -61.8711 h -7.5527 v -56.25781 l 36.1894,-30.36719 v -90.2539 L 6381.5098,522 h -36.9961 v -15.14062 l -13.4336,-13.4336 v -8.66211 z"
       style="display:inline;opacity:1;fill:#60646c;fill-opacity:1;stroke:none;stroke-width:0.99999994;stroke-linecap:round;stroke-linejoin:round;stroke-miterlimit:4;stroke-dasharray:none;stroke-dashoffset:0;stroke-opacity:1"
       inkscape:connector-curvature="0" />
    <path
       transform="scale(0.26458333)"
       id="rect1270"
       d="M 7510.582,491.6582 V 794 h -7.5527 v 55.75391 h 7.5527 v 593.49219 h -7.5527 V 1499 h 7.5527 v 32.459 h -22.6758 v 22.9805 h -12.58 l -43.6348,20.3457 v 10.2089 h -85.2051 v 53.0606 h 6.7168 v 4.6621 H 7325.5 V 1685.5 h 58.5 v 28.5 l 61.75,28.793 v 9.957 h 55 v 18.75 h 9.832 v 610 h -4.0254 v -14.4199 h -11.4902 V 2381.5 h -4.0254 v 186 h 19.541 v 146.9473 h -19.541 v 88.3886 h 19.541 V 2982 h 9.4981 v 35.75 h -9.4981 v 52.7266 H 7586.5 V 3017.75 H 7577 V 2982 h 9.5 v -170.25 h 4.0254 v 14.4199 h 11.4902 V 2811.75 h 4.0254 v -97.3027 H 7586.5 V 2480.748 h 7.5527 v -61.871 H 7586.5 V 2065 h 19.541 V 1947.5 H 7586.5 V 1714 h 40 v 5 h 28.25 l 76.1543,-59.5 H 7757.5 v -16.7832 h -15 V 1603.5 h -30.75 v -18.5059 H 7681 V 1558.5 h -57 v -8.75 h -14.125 v -13 l -5.291,-5.291 h -10.043 l -5.291,5.291 v 13 h -2.75 v -396.5938 h 16.666 v -35.7089 H 7586.5 V 572.5 h 4.0254 v 14.41992 h 11.4902 V 572.5 h 1.1504 V 513 h 6.3633 v -21.3418 z"
       style="display:inline;opacity:1;fill:#60646c;fill-opacity:1;stroke:none;stroke-width:0.99999994;stroke-linecap:round;stroke-linejoin:round;stroke-miterlimit:4;stroke-dasharray:none;stroke-dashoffset:0;stroke-opacity:1"
       inkscape:connector-curvature="0" />
    <path
       transform="scale(0.26458333)"
       id="rect1501"
       d="M 8800.6504,152.24609 V 613.63281 H 8811.5 v 202.74805 h -10.8496 v 34.64648 H 8811.5 v 222.58006 h -10.8496 v 39.8223 H 8811.5 V 1347 h -10.8496 v 34.6465 H 8811.5 V 1517 H 8779 v 37.5 h -30.4824 l -93.5313,54 v 19.4785 h -161.9277 v 205.0606 h 161.9277 v 21.8671 l 96.166,66.0938 h 49.4981 v 27.5 H 8811.5 v 225.1758 h -10.8496 V 2213.5 H 8811.5 v 203.6094 h -10.8496 v 48.084 H 8811.5 v 182.3945 h -10.8496 v 39.8242 H 8811.5 v 142.6484 h -10.8496 v 34.6485 H 8811.5 V 3066.5 h -10.8496 v 107 h 14.2246 v 80.8242 h 132.25 v 52.3262 h 14.2227 V 3106.8926 H 8950.5 v -4.9512 h 23.7461 v -64.3457 h -12.8965 V 2830.0605 H 8950.5 v -142.6484 h 10.8477 v -93.5254 H 8950.5 v -136.9531 h 10.8496 v -39.8242 H 8950.5 V 2185.5 H 9098 v -147.7539 h 10.8496 v -34.6465 H 9098 v -72.3105 h 59.7402 V 1889 H 9395.5 l 12,-12 v -71.25 h 50 v 10.8477 h 39.8242 V 1805.75 H 9692.5 v 10.8477 h 39.8242 V 1805.75 H 9922.498 V 1585 h -16.75 v -16.75 h -35.25 v 87.6504 h -47 V 1666.75 H 9704 v -10.8496 h -34.6465 V 1666.75 H 9407.5 v -71.25 l -12,-12 h -141.5938 v -26.5859 h -34.6484 V 1583.5 h -61.5176 v -41.7891 H 9098 V 1287 h -147.502 v -16.1113 h 10.8497 v -39.8242 H 8950.5 v -172.6954 h 10.8477 v -34.6464 H 8950.5 V 876.5 h 10.8496 v -98 H 8950.5 V 643.68555 h 10.8496 V 609.03711 H 8950.5 V 377.5 h 10.8477 v -77 H 8947.125 V 328 H 8859 v -10.76562 h -44.125 V 152.24609 Z"
       style="display:inline;opacity:1;fill:#60646c;fill-opacity:1;stroke:none;stroke-width:0.99999994;stroke-linecap:round;stroke-linejoin:round;stroke-miterlimit:4;stroke-dasharray:none;stroke-dashoffset:0;stroke-opacity:1"
       inkscape:connector-curvature="0" />
    <path
       transform="scale(0.26458333)"
       id="rect2040"
       d="m 11001,1480.3789 v 61.332 h -5 v 180.3125 h 5 v 64.3457 l -63.5,11.1973 v 156.7422 l 53.195,27.6914 h -24.697 v 72 H 10996 v 200 h 5 v 247 h -5 v 314.5 h 5 v 297 h 36.5 v 15.5 h 13 v 25.5 h 60.5 v -41 h 36.5 V 3009 h 67.25 v -34.25 h -38.5 v -9.5 H 11161 v 6.75 h -8.5 v -287.5 h -5 v -61.623 h 41.051 v -126.5723 h 13.435 V 2376.5 h 48.789 V 2349 h 43.725 v -127.7598 h 24.158 v -27.5761 h 22.627 v -24.75 h 18.465 l 28.912,-79.4356 V 2054 h 12.912 l 2.926,-8.0352 V 2011 h 10 v -4.5 h 75.5 v -59.6172 h 355.453 v 26.1641 h 83.44 v -18.3848 h 12.019 v -21.2148 l 91.57,-91.5684 -17.677,-17.6797 v -12.7265 l 16.078,-16.0801 c 0,0 2.483,-2.4818 1.129,-5.752 0,0 -1.354,-3.2715 -4.866,-3.2715 H 11238 c 0,0 -41.129,0 -77.814,-36.6836 0,0 -36.686,-36.6863 -36.686,-77.8164 0,0 0,-38.0182 -10.951,-64.455 0,0 -10.949,-26.4354 -37.832,-53.3184 z"
       style="display:inline;opacity:1;fill:#60646c;fill-opacity:1;stroke:none;stroke-width:0.99999994;stroke-linecap:round;stroke-linejoin:round;stroke-miterlimit:4;stroke-dasharray:none;stroke-dashoffset:0;stroke-opacity:1"
       inkscape:connector-curvature="0" />
    <path
       id="rect26"
       transform="scale(0.26458333)"
       d="M 3820.1426,317.23438 V 877.875 h -28.5977 v 56.60547 h 28.5977 V 1490.582 h -10.8614 v 7.7442 h -46.916 v 73.334 h -79.2558 l -30.9727,30.9746 v 75.6113 l 30.9727,30.9727 h 79.2558 v 3.8144 h 47.9473 v 60.4102 h 9.8301 v 1356.9101 h -36.8262 v 132.7324 h 224.1035 v -132.7324 h -72.2773 v -825.123 h 2.5469 v 23.7031 h 33.6562 v -33.7383 h -36.2031 v -421.0879 h 18.5293 v -27.3301 h -18.5293 v -15.2187 h 7.7793 v -58.1152 h 2.0508 v -81.5332 h -9.8301 v -5.9219 h 135.0898 l 30.9746,-30.9727 v -67.3691 l -30.9746,-30.9727 h -47.3262 v 12.0254 h -6.1484 v -6.1484 h -81.6152 V 910.77734 h 2.5488 v 23.70313 h 33.6543 v -33.73828 h -36.2031 V 405.71484 h -38.8633 v -88.48046 z"
       style="fill:#60646c;fill-opacity:1;fill-rule:evenodd;stroke:none;stroke-width:1;stroke-miterlimit:4;stroke-dasharray:none"
       inkscape:connector-curvature="0" />
  </g>
  <g
     inkscape:groupmode="layer"
     id="layer3"
     inkscape:label="Text"
     transform="translate(-1.2590205e-5,21.408779)"
     style="display:inline">
    <g
       id="g2283"
       transform="translate(1.2895642e-5,-21.408777)">
      <g
         aria-label="ATL"
         style="font-style:normal;font-variant:normal;font-weight:bold;font-stretch:normal;font-size:35.27777863px;line-height:125%;font-family:Overpass;-inkscape-font-specification:'Overpass Bold';text-align:start;letter-spacing:0px;word-spacing:0px;writing-mode:lr-tb;text-anchor:start;fill:none;fill-opacity:1;stroke:#60646c;stroke-width:0.79374999;stroke-linecap:butt;stroke-linejoin:miter;stroke-miterlimit:4;stroke-dasharray:none;stroke-opacity:1"
         id="text2253">
        <path
           d="m 710.67187,51.556541 -1.91203,-5.115966 h -9.52569 l -1.8948,5.115966 h -5.11597 l 9.45679,-24.701335 h 4.65088 l 9.45679,24.701335 z m -5.89111,-15.88189 q -0.18948,-0.447863 -0.41342,-1.06798 -0.2067,-0.620117 -0.36173,-1.154107 -0.13781,0.53399 -0.36174,1.154107 -0.22393,0.620117 -0.41341,1.06798 l -2.44602,6.425103 h 6.42511 z"
           style="font-style:normal;font-variant:normal;font-weight:bold;font-stretch:normal;font-size:35.27777863px;font-family:Overpass;-inkscape-font-specification:'Overpass Bold';fill:none;stroke:#60646c;stroke-width:0.79374999;stroke-miterlimit:4;stroke-dasharray:none;stroke-opacity:1"
           id="path2372"
           inkscape:connector-curvature="0" />
        <path
           d="m 727.67342,31.454409 v 20.102132 h -4.75424 V 31.454409 h -7.06244 v -4.599203 h 18.87912 v 4.599203 z"
           style="font-style:normal;font-variant:normal;font-weight:bold;font-stretch:normal;font-size:35.27777863px;font-family:Overpass;-inkscape-font-specification:'Overpass Bold';fill:none;stroke:#60646c;stroke-width:0.79374999;stroke-miterlimit:4;stroke-dasharray:none;stroke-opacity:1"
           id="path2374"
           inkscape:connector-curvature="0" />
        <path
           d="M 739.49009,51.556541 V 26.855206 h 4.77146 v 20.119358 h 11.92003 v 4.581977 z"
           style="font-style:normal;font-variant:normal;font-weight:bold;font-stretch:normal;font-size:35.27777863px;font-family:Overpass;-inkscape-font-specification:'Overpass Bold';fill:none;stroke:#60646c;stroke-width:0.79374999;stroke-miterlimit:4;stroke-dasharray:none;stroke-opacity:1"
           id="path2376"
           inkscape:connector-curvature="0" />
      </g>
      <g
         aria-label="Atlanta"
         style="font-style:normal;font-variant:normal;font-weight:normal;font-stretch:normal;font-size:12.69999981px;line-height:125%;font-family:Overpass;-inkscape-font-specification:'Overpass, Normal';text-align:start;letter-spacing:0px;word-spacing:0px;writing-mode:lr-tb;text-anchor:start;fill:#60646c;fill-opacity:1;stroke:none;stroke-width:0.26458332px;stroke-linecap:butt;stroke-linejoin:miter;stroke-opacity:1"
         id="text2257">
        <path
           d="m 710.03282,69.062469 -0.70693,-2.046386 h -3.59668 l -0.72554,2.046386 h -1.37045 l 3.2122,-8.89248 h 1.35806 l 3.1998,8.89248 z m -2.19521,-6.238378 q -0.0744,-0.21084 -0.16743,-0.489893 -0.0868,-0.279053 -0.13643,-0.508496 -0.062,0.229443 -0.14883,0.508496 -0.0806,0.272852 -0.15503,0.489893 l -1.0976,3.026171 h 2.78432 z"
           style="font-size:12.69999981px;fill:#60646c;fill-opacity:1;stroke-width:0.26458332px"
           id="path2379"
           inkscape:connector-curvature="0" />
        <path
           d="m 714.76432,69.217499 q -0.38447,0 -0.66353,-0.117822 -0.27285,-0.111622 -0.45268,-0.322461 -0.17364,-0.21084 -0.25425,-0.508497 -0.0806,-0.303857 -0.0806,-0.669726 v -3.881934 h -1.00459 v -1.147216 h 1.00459 v -2.040186 l 1.32085,-0.638721 v 2.678907 h 1.53789 v 1.147216 h -1.53789 v 3.540869 q 0,0.161231 0.0248,0.297657 0.031,0.136426 0.0992,0.235644 0.0744,0.09922 0.19843,0.15503 0.12403,0.04961 0.31626,0.04961 0.47129,0 0.96119,-0.303857 l -0.16123,1.227832 q -0.27286,0.136425 -0.59532,0.217041 -0.32246,0.08062 -0.71313,0.08062 z"
           style="font-size:12.69999981px;fill:#60646c;fill-opacity:1;stroke-width:0.26458332px"
           id="path2381"
           inkscape:connector-curvature="0" />
        <path
           d="m 717.75948,69.062469 v -8.545214 l 1.32085,-0.626319 v 9.171533 z"
           style="font-size:12.69999981px;fill:#60646c;fill-opacity:1;stroke-width:0.26458332px"
           id="path2383"
           inkscape:connector-curvature="0" />
        <path
           d="m 726.01945,69.062469 h -1.26504 v -0.558105 q -0.12403,0.130225 -0.29766,0.260449 -0.17363,0.124024 -0.39687,0.229444 -0.21705,0.09922 -0.4899,0.16123 -0.27285,0.06201 -0.59531,0.06201 -0.49609,0 -0.91777,-0.136426 -0.42168,-0.136426 -0.73174,-0.409277 -0.31006,-0.279053 -0.48989,-0.682129 -0.17364,-0.409278 -0.17364,-0.94878 0,-0.558105 0.21084,-0.961181 0.21084,-0.409277 0.55811,-0.669727 0.34726,-0.26665 0.79375,-0.390674 0.45268,-0.124023 0.93017,-0.124023 0.44649,0 0.85577,0.09922 0.41547,0.09302 0.74414,0.285254 v -0.359668 q 0,-0.365869 -0.0868,-0.620117 -0.0806,-0.254248 -0.25425,-0.409278 -0.16743,-0.16123 -0.42788,-0.229443 -0.26045,-0.07441 -0.62012,-0.07441 -0.60771,0 -1.0542,0.16123 -0.44028,0.161231 -0.79995,0.427881 l -0.39067,-1.085205 q 0.19844,-0.136426 0.45269,-0.254248 0.25424,-0.124023 0.5581,-0.217041 0.30386,-0.09302 0.65733,-0.142627 0.35346,-0.05581 0.75654,-0.05581 0.27285,0 0.5643,0.03101 0.29146,0.03101 0.56431,0.124024 0.27905,0.08682 0.5209,0.254248 0.24805,0.167431 0.42788,0.440283 0.18604,0.26665 0.29146,0.657324 0.10542,0.390674 0.10542,0.930176 z m -2.80293,-1.016992 q 0.50229,0 0.88676,-0.204638 0.39068,-0.204639 0.65113,-0.489893 v -0.992187 q -0.27285,-0.142627 -0.63872,-0.229444 -0.36587,-0.08682 -0.75035,-0.08682 -0.29765,0 -0.5581,0.05581 -0.26045,0.05581 -0.45889,0.179834 -0.19223,0.117823 -0.30386,0.310059 -0.11162,0.186035 -0.11162,0.452685 0,0.465088 0.32246,0.73794 0.32867,0.26665 0.96119,0.26665 z"
           style="font-size:12.69999981px;fill:#60646c;fill-opacity:1;stroke-width:0.26458332px"
           id="path2385"
           inkscape:connector-curvature="0" />
        <path
           d="m 731.82994,69.062469 v -3.875732 q 0,-0.409277 -0.0992,-0.694531 -0.0992,-0.291455 -0.27285,-0.471289 -0.17363,-0.186035 -0.40927,-0.266651 -0.23565,-0.08682 -0.5147,-0.08682 -0.29766,0 -0.55191,0.08061 -0.25424,0.07441 -0.44028,0.248047 -0.18603,0.173633 -0.29766,0.465088 -0.10542,0.285254 -0.10542,0.700732 v 3.900537 h -1.32085 v -6.492626 h 1.32085 v 0.626318 q 0.31626,-0.403076 0.72554,-0.589111 0.40928,-0.186035 0.94878,-0.186035 0.5085,0 0.93638,0.148828 0.42788,0.142627 0.73794,0.471289 0.31626,0.328662 0.48989,0.855761 0.17363,0.5271 0.17363,1.289844 v 3.875732 z"
           style="font-size:12.69999981px;fill:#60646c;fill-opacity:1;stroke-width:0.26458332px"
           id="path2387"
           inkscape:connector-curvature="0" />
        <path
           d="m 736.86529,69.217499 q -0.38447,0 -0.66352,-0.117822 -0.27285,-0.111622 -0.45269,-0.322461 -0.17363,-0.21084 -0.25424,-0.508497 -0.0806,-0.303857 -0.0806,-0.669726 v -3.881934 h -1.00459 v -1.147216 h 1.00459 v -2.040186 l 1.32085,-0.638721 v 2.678907 h 1.53789 v 1.147216 h -1.53789 v 3.540869 q 0,0.161231 0.0248,0.297657 0.031,0.136426 0.0992,0.235644 0.0744,0.09922 0.19844,0.15503 0.12402,0.04961 0.31626,0.04961 0.47129,0 0.96118,-0.303857 l -0.16123,1.227832 q -0.27285,0.136425 -0.59531,0.217041 -0.32246,0.08062 -0.71314,0.08062 z"
           style="font-size:12.69999981px;fill:#60646c;fill-opacity:1;stroke-width:0.26458332px"
           id="path2389"
           inkscape:connector-curvature="0" />
        <path
           d="m 744.77179,69.062469 h -1.26504 v -0.558105 q -0.12402,0.130225 -0.29766,0.260449 -0.17363,0.124024 -0.39687,0.229444 -0.21704,0.09922 -0.48989,0.16123 -0.27286,0.06201 -0.59532,0.06201 -0.49609,0 -0.91777,-0.136426 -0.42168,-0.136426 -0.73174,-0.409277 -0.31006,-0.279053 -0.48989,-0.682129 -0.17363,-0.409278 -0.17363,-0.94878 0,-0.558105 0.21084,-0.961181 0.21084,-0.409277 0.5581,-0.669727 0.34727,-0.26665 0.79375,-0.390674 0.45269,-0.124023 0.93018,-0.124023 0.44648,0 0.85576,0.09922 0.41548,0.09302 0.74414,0.285254 v -0.359668 q 0,-0.365869 -0.0868,-0.620117 -0.0806,-0.254248 -0.25425,-0.409278 -0.16743,-0.16123 -0.42788,-0.229443 -0.26045,-0.07441 -0.62011,-0.07441 -0.60772,0 -1.0542,0.16123 -0.44029,0.161231 -0.79995,0.427881 l -0.39068,-1.085205 q 0.19844,-0.136426 0.45269,-0.254248 0.25425,-0.124023 0.5581,-0.217041 0.30386,-0.09302 0.65733,-0.142627 0.35346,-0.05581 0.75654,-0.05581 0.27285,0 0.56431,0.03101 0.29145,0.03101 0.5643,0.124024 0.27906,0.08682 0.5209,0.254248 0.24805,0.167431 0.42788,0.440283 0.18604,0.26665 0.29146,0.657324 0.10542,0.390674 0.10542,0.930176 z m -2.80293,-1.016992 q 0.50229,0 0.88677,-0.204638 0.39067,-0.204639 0.65112,-0.489893 v -0.992187 q -0.27285,-0.142627 -0.63872,-0.229444 -0.36587,-0.08682 -0.75034,-0.08682 -0.29766,0 -0.55811,0.05581 -0.26045,0.05581 -0.45889,0.179834 -0.19223,0.117823 -0.30385,0.310059 -0.11162,0.186035 -0.11162,0.452685 0,0.465088 0.32246,0.73794 0.32866,0.26665 0.96118,0.26665 z"
           style="font-size:12.69999981px;fill:#60646c;fill-opacity:1;stroke-width:0.26458332px"
           id="path2391"
           inkscape:connector-curvature="0" />
      </g>
    </g>
    <g
       aria-label="8 Dec 2019 pbogard.com/terminal-silhouettes"
       style="font-style:normal;font-variant:normal;font-weight:300;font-stretch:normal;font-size:3.52777791px;line-height:125%;font-family:Overpass;-inkscape-font-specification:'Overpass Light';text-align:end;letter-spacing:0px;word-spacing:0px;writing-mode:lr-tb;text-anchor:end;fill:#60646c;fill-opacity:1;stroke:none;stroke-width:0.26458335px;stroke-linecap:butt;stroke-linejoin:miter;stroke-opacity:1"
       id="text2287">
      <path
         d="m 761.80269,229.72618 q 0.11642,0 0.21519,-0.0353 0.10231,-0.0388 0.17639,-0.10936 0.0741,-0.0705 0.11642,-0.17286 0.0423,-0.1023 0.0423,-0.23283 0,-0.10936 -0.0388,-0.20814 -0.0388,-0.0988 -0.11289,-0.17286 -0.0706,-0.0776 -0.17286,-0.11995 -0.10231,-0.0459 -0.22578,-0.0459 -0.12347,0 -0.22578,0.0459 -0.1023,0.0423 -0.17639,0.11995 -0.0706,0.0741 -0.10936,0.17286 -0.0388,0.0988 -0.0388,0.20814 0,0.13053 0.0423,0.23283 0.0423,0.10231 0.11642,0.17286 0.0741,0.0706 0.17286,0.10936 0.1023,0.0353 0.21872,0.0353 z m 0,-2.33186 q 0.14817,0 0.27517,0.0529 0.13052,0.0494 0.22225,0.13758 0.0917,0.0882 0.14463,0.20461 0.0529,0.11642 0.0529,0.24342 0,0.15875 -0.0811,0.29986 -0.0776,0.13758 -0.24694,0.20814 0.19755,0.0741 0.3175,0.25753 0.12347,0.17991 0.12347,0.41275 0,0.15522 -0.06,0.2928 -0.06,0.13406 -0.16934,0.23283 -0.10936,0.0988 -0.25752,0.15523 -0.14817,0.0564 -0.32103,0.0564 -0.17639,0 -0.32456,-0.0564 -0.14464,-0.0564 -0.254,-0.15523 -0.10936,-0.0988 -0.16933,-0.23283 -0.06,-0.13758 -0.06,-0.2928 0,-0.11642 0.0317,-0.22225 0.0317,-0.10584 0.0882,-0.1905 0.06,-0.0882 0.14111,-0.15523 0.0811,-0.067 0.17639,-0.1023 -0.15875,-0.0706 -0.24341,-0.20814 -0.0811,-0.14111 -0.0811,-0.29986 0,-0.127 0.0529,-0.24342 0.0529,-0.11642 0.14464,-0.20461 0.0917,-0.0882 0.21872,-0.13758 0.13053,-0.0529 0.2787,-0.0529 z m 0,1.07244 q 0.20461,0 0.32455,-0.11288 0.11995,-0.11289 0.11995,-0.28928 0,-0.20814 -0.127,-0.32809 -0.127,-0.11994 -0.3175,-0.11994 -0.1905,0 -0.3175,0.11994 -0.127,0.11995 -0.127,0.32809 0,0.17639 0.11994,0.28928 0.11995,0.11288 0.32456,0.11288 z"
         style="font-style:normal;font-variant:normal;font-weight:300;font-stretch:normal;font-size:3.52777791px;font-family:Overpass;-inkscape-font-specification:'Overpass Light';text-align:end;text-anchor:end;fill:#60646c;fill-opacity:1;stroke-width:0.26458335px"
         id="path2291"
         inkscape:connector-curvature="0" />
      <path
         d="m 764.03974,227.43665 h 0.65617 q 0.31397,0 0.52564,0.10936 0.21519,0.10584 0.34572,0.28223 0.13405,0.17286 0.1905,0.39511 0.0564,0.21872 0.0564,0.44803 0,0.21166 -0.0529,0.43391 -0.0494,0.21872 -0.17992,0.39864 -0.13053,0.17639 -0.34925,0.28928 -0.21872,0.11289 -0.55033,0.11289 h -0.64206 z m 0.6597,2.2472 q 0.24694,0 0.41275,-0.0882 0.1658,-0.0917 0.26458,-0.23636 0.0988,-0.14816 0.13758,-0.32808 0.0423,-0.17992 0.0423,-0.35983 0,-0.1905 -0.0459,-0.37395 -0.0459,-0.18344 -0.14463,-0.32455 -0.0988,-0.14112 -0.254,-0.22578 -0.15523,-0.0882 -0.37395,-0.0882 h -0.45155 v 2.02495 z"
         style="font-style:normal;font-variant:normal;font-weight:300;font-stretch:normal;font-size:3.52777791px;font-family:Overpass;-inkscape-font-specification:'Overpass Light';text-align:end;text-anchor:end;fill:#60646c;fill-opacity:1;stroke-width:0.26458335px"
         id="path2293"
         inkscape:connector-curvature="0" />
      <path
         d="m 766.48085,229.10529 q 0.0317,0.27517 0.16581,0.4445 0.13405,0.16934 0.36689,0.16934 0.0988,0 0.20108,-0.0318 0.10231,-0.0317 0.20461,-0.10937 l 0.13406,0.16581 q -0.10584,0.0882 -0.25047,0.14817 -0.14112,0.0564 -0.29987,0.0564 -0.18344,0 -0.32808,-0.0741 -0.14464,-0.0776 -0.24694,-0.20814 -0.0988,-0.13053 -0.15523,-0.29986 -0.0529,-0.17286 -0.0529,-0.36336 0,-0.22578 0.0564,-0.39864 0.06,-0.17639 0.16228,-0.29634 0.10231,-0.11994 0.24694,-0.18344 0.14464,-0.0635 0.3175,-0.0635 0.14464,0 0.27164,0.0529 0.13053,0.0494 0.22931,0.15522 0.0988,0.10583 0.15522,0.27164 0.0565,0.1658 0.0565,0.39158 0,0.0282 0,0.0706 0,0.0423 -0.007,0.1023 z m 0.52211,-0.82197 q -0.21872,0 -0.36688,0.14464 -0.14464,0.14464 -0.16228,0.45508 h 0.9913 q 0,-0.18344 -0.0459,-0.29986 -0.0459,-0.11642 -0.11641,-0.18344 -0.067,-0.067 -0.14817,-0.0917 -0.0811,-0.0247 -0.1517,-0.0247 z"
         style="font-style:normal;font-variant:normal;font-weight:300;font-stretch:normal;font-size:3.52777791px;font-family:Overpass;-inkscape-font-specification:'Overpass Light';text-align:end;text-anchor:end;fill:#60646c;fill-opacity:1;stroke-width:0.26458335px"
         id="path2295"
         inkscape:connector-curvature="0" />
      <path
         d="m 768.79965,229.94843 q -0.32808,0 -0.52211,-0.24342 -0.1905,-0.24694 -0.1905,-0.6985 0,-0.44802 0.19403,-0.69497 0.19755,-0.25047 0.5468,-0.25047 0.20109,0 0.35278,0.0988 0.1517,0.0952 0.22578,0.27869 l -0.22578,0.0882 q -0.0423,-0.10231 -0.13053,-0.17286 -0.0847,-0.0706 -0.23283,-0.0706 -0.127,0 -0.21519,0.0529 -0.0882,0.0494 -0.14817,0.14464 -0.0565,0.0917 -0.0847,0.22577 -0.0247,0.13406 -0.0247,0.29986 0,0.3422 0.11289,0.5327 0.11289,0.18697 0.35277,0.18697 0.14817,0 0.25048,-0.0741 0.1023,-0.0741 0.14816,-0.20109 l 0.22225,0.0847 q -0.0635,0.1905 -0.23283,0.30339 -0.16581,0.10936 -0.39864,0.10936 z"
         style="font-style:normal;font-variant:normal;font-weight:300;font-stretch:normal;font-size:3.52777791px;font-family:Overpass;-inkscape-font-specification:'Overpass Light';text-align:end;text-anchor:end;fill:#60646c;fill-opacity:1;stroke-width:0.26458335px"
         id="path2297"
         inkscape:connector-curvature="0" />
      <path
         d="m 770.65151,229.9061 q 0,-0.23284 0.067,-0.39864 0.067,-0.16933 0.17286,-0.29633 0.10584,-0.127 0.23989,-0.22225 0.13406,-0.0952 0.26811,-0.18698 0.11642,-0.0776 0.22225,-0.15169 0.10584,-0.0776 0.18698,-0.16228 0.0847,-0.0847 0.13405,-0.17992 0.0494,-0.0988 0.0494,-0.21872 0,-0.20108 -0.14111,-0.33514 -0.13758,-0.13758 -0.39511,-0.13758 -0.25047,0 -0.37747,0.11289 -0.127,0.10936 -0.17287,0.28575 l -0.21872,-0.0988 q 0.0282,-0.10936 0.0953,-0.20461 0.067,-0.0952 0.16934,-0.16581 0.1023,-0.0705 0.23283,-0.10936 0.13405,-0.0423 0.2928,-0.0423 0.36689,0 0.56798,0.1905 0.20461,0.18697 0.20461,0.50447 0,0.16934 -0.067,0.29986 -0.0635,0.13053 -0.16933,0.23989 -0.10231,0.10584 -0.23284,0.19756 -0.13052,0.0882 -0.26458,0.17286 -0.10583,0.0705 -0.20461,0.14111 -0.0988,0.067 -0.18345,0.14817 -0.0811,0.0776 -0.13758,0.17286 -0.0564,0.0917 -0.0776,0.20814 h 1.35819 v 0.23636 z"
         style="font-style:normal;font-variant:normal;font-weight:300;font-stretch:normal;font-size:3.52777791px;font-family:Overpass;-inkscape-font-specification:'Overpass Light';text-align:end;text-anchor:end;fill:#60646c;fill-opacity:1;stroke-width:0.26458335px"
         id="path2299"
         inkscape:connector-curvature="0" />
      <path
         d="m 773.60994,229.94843 q -0.24342,0 -0.40569,-0.11289 -0.16228,-0.11289 -0.26106,-0.2928 -0.0952,-0.18345 -0.13758,-0.40923 -0.0423,-0.2293 -0.0423,-0.46213 0,-0.127 0.0141,-0.27164 0.0141,-0.14817 0.0494,-0.28928 0.0388,-0.14111 0.0988,-0.27164 0.0635,-0.13053 0.15875,-0.22931 0.0952,-0.0988 0.22225,-0.15522 0.13053,-0.06 0.30339,-0.06 0.24342,0 0.4057,0.11642 0.16227,0.11289 0.25752,0.29633 0.0988,0.18344 0.14111,0.41275 0.0423,0.22578 0.0423,0.45156 0,0.13052 -0.0176,0.27516 -0.0141,0.14464 -0.0529,0.28928 -0.0353,0.14111 -0.0988,0.27164 -0.06,0.127 -0.15522,0.22578 -0.0953,0.0988 -0.22578,0.15875 -0.127,0.0564 -0.29633,0.0564 z m 0,-0.22225 q 0.18345,0 0.29633,-0.0988 0.11642,-0.1023 0.17992,-0.25752 0.0635,-0.15523 0.0847,-0.3422 0.0212,-0.18697 0.0212,-0.3563 0,-0.1905 -0.0247,-0.37748 -0.0247,-0.1905 -0.0917,-0.33866 -0.067,-0.1517 -0.17992,-0.24342 -0.11289,-0.0952 -0.28575,-0.0952 -0.18697,0 -0.30339,0.10231 -0.11289,0.1023 -0.17639,0.25752 -0.0635,0.15523 -0.0882,0.3422 -0.0212,0.18344 -0.0212,0.35278 0,0.19402 0.0247,0.38452 0.0247,0.18698 0.0917,0.33867 0.067,0.14817 0.17992,0.23989 0.11641,0.0917 0.2928,0.0917 z"
         style="font-style:normal;font-variant:normal;font-weight:300;font-stretch:normal;font-size:3.52777791px;font-family:Overpass;-inkscape-font-specification:'Overpass Light';text-align:end;text-anchor:end;fill:#60646c;fill-opacity:1;stroke-width:0.26458335px"
         id="path2301"
         inkscape:connector-curvature="0" />
      <path
         d="m 775.26144,229.9061 v -2.02142 h -0.41981 v -0.14111 q 0.18697,0 0.3175,-0.0635 0.13053,-0.067 0.1905,-0.24342 h 0.15875 v 2.46945 z"
         style="font-style:normal;font-variant:normal;font-weight:300;font-stretch:normal;font-size:3.52777791px;font-family:Overpass;-inkscape-font-specification:'Overpass Light';text-align:end;text-anchor:end;fill:#60646c;fill-opacity:1;stroke-width:0.26458335px"
         id="path2303"
         inkscape:connector-curvature="0" />
      <path
         d="m 776.90885,227.39432 q 0.20109,0 0.34925,0.0741 0.14817,0.0741 0.24342,0.20461 0.0988,0.127 0.14817,0.30339 0.0494,0.17286 0.0494,0.37395 0,0.26458 -0.0917,0.52211 -0.0882,0.25753 -0.25047,0.47625 -0.15875,0.21519 -0.381,0.37394 -0.22225,0.15875 -0.49036,0.22578 v -0.19403 q 0.17992,-0.0529 0.33514,-0.15875 0.15522,-0.10936 0.27517,-0.25047 0.12347,-0.14111 0.20108,-0.30339 0.0811,-0.16228 0.10231,-0.32103 -0.0917,0.11642 -0.24342,0.17992 -0.14817,0.06 -0.3422,0.06 -0.15169,0 -0.28575,-0.06 -0.13052,-0.06 -0.2293,-0.16228 -0.0952,-0.10583 -0.1517,-0.23989 -0.0564,-0.13758 -0.0564,-0.28575 0,-0.17286 0.0635,-0.32102 0.0635,-0.1517 0.17286,-0.26106 0.11289,-0.10936 0.26106,-0.17286 0.14816,-0.0635 0.32102,-0.0635 z m -0.0176,1.36878 q 0.12347,0 0.22577,-0.0423 0.10584,-0.0459 0.17992,-0.12347 0.0741,-0.0776 0.11642,-0.18344 0.0423,-0.10584 0.0423,-0.22931 0,-0.11994 -0.0459,-0.22225 -0.0423,-0.1023 -0.11995,-0.17991 -0.0741,-0.0776 -0.17638,-0.11995 -0.10231,-0.0459 -0.22225,-0.0459 -0.127,0 -0.23284,0.0459 -0.1023,0.0423 -0.17639,0.11995 -0.0741,0.0776 -0.11641,0.17991 -0.0388,0.10231 -0.0388,0.22225 0,0.12347 0.0388,0.22931 0.0388,0.10583 0.11289,0.18344 0.0741,0.0776 0.17638,0.12347 0.10584,0.0423 0.23637,0.0423 z"
         style="font-style:normal;font-variant:normal;font-weight:300;font-stretch:normal;font-size:3.52777791px;font-family:Overpass;-inkscape-font-specification:'Overpass Light';text-align:end;text-anchor:end;fill:#60646c;fill-opacity:1;stroke-width:0.26458335px"
         id="path2305"
         inkscape:connector-curvature="0" />
      <path
         d="m 725.32954,234.35815 q -0.1905,0 -0.30338,-0.067 -0.11289,-0.067 -0.1905,-0.15875 v 0.77611 l -0.24695,0.12347 v -2.51883 h 0.24695 v 0.16227 q 0.0882,-0.0811 0.19755,-0.14111 0.11289,-0.0635 0.29633,-0.0635 0.17287,0 0.31045,0.067 0.13758,0.067 0.23283,0.1905 0.0988,0.12347 0.14817,0.29986 0.0529,0.17286 0.0529,0.38453 0,0.22578 -0.0564,0.40217 -0.0529,0.17638 -0.15169,0.29633 -0.0988,0.11994 -0.23636,0.18344 -0.13759,0.0635 -0.29987,0.0635 z m -0.0282,-0.22225 q 0.24695,0 0.381,-0.18344 0.13406,-0.18697 0.13406,-0.53975 0,-0.33161 -0.13759,-0.52564 -0.13405,-0.19403 -0.37747,-0.19403 -0.14816,0 -0.27164,0.0741 -0.11994,0.0705 -0.19402,0.20461 v 0.88547 q 0.0917,0.11994 0.20461,0.20108 0.11289,0.0776 0.26105,0.0776 z"
         style="font-style:normal;font-variant:normal;font-weight:300;font-stretch:normal;font-size:3.52777791px;font-family:Overpass;-inkscape-font-specification:'Overpass Light';text-align:end;text-anchor:end;fill:#60646c;fill-opacity:1;stroke-width:0.26458335px"
         id="path2307"
         inkscape:connector-curvature="0" />
      <path
         d="m 727.33476,234.35815 q -0.0952,0 -0.16934,-0.0176 -0.0741,-0.0176 -0.13405,-0.0459 -0.0565,-0.0317 -0.10584,-0.067 -0.0494,-0.0353 -0.0917,-0.0741 v 0.16228 h -0.24694 v -2.42358 l 0.24694,-0.12348 v 0.92075 q 0.0882,-0.0953 0.2152,-0.15522 0.13052,-0.0635 0.26458,-0.0635 0.16933,0 0.30692,0.0635 0.13758,0.0635 0.23283,0.18697 0.0988,0.11995 0.15169,0.29634 0.0529,0.17286 0.0529,0.39511 0,0.46214 -0.1905,0.70555 -0.1905,0.23989 -0.53269,0.23989 z m -0.0388,-0.22225 q 0.254,0 0.37747,-0.19402 0.127,-0.19403 0.127,-0.52917 0,-0.34925 -0.127,-0.5327 -0.12347,-0.18697 -0.37747,-0.18697 -0.0847,0 -0.15875,0.0282 -0.0706,0.0247 -0.13053,0.067 -0.06,0.0388 -0.10583,0.0882 -0.0423,0.0494 -0.067,0.0917 v 0.88547 q 0.0741,0.127 0.20108,0.20461 0.127,0.0776 0.26106,0.0776 z"
         style="font-style:normal;font-variant:normal;font-weight:300;font-stretch:normal;font-size:3.52777791px;font-family:Overpass;-inkscape-font-specification:'Overpass Light';text-align:end;text-anchor:end;fill:#60646c;fill-opacity:1;stroke-width:0.26458335px"
         id="path2309"
         inkscape:connector-curvature="0" />
      <path
         d="m 729.22035,234.1359 q 0.24695,0 0.381,-0.1905 0.13406,-0.1905 0.13406,-0.53269 0,-0.33867 -0.13053,-0.52917 -0.13053,-0.1905 -0.38453,-0.1905 -0.254,0 -0.38452,0.18697 -0.13053,0.18345 -0.13053,0.53623 0,0.33866 0.13053,0.52916 0.13052,0.1905 0.38452,0.1905 z m 0,-1.66511 q 0.17286,0 0.31398,0.0635 0.14463,0.0635 0.24341,0.18345 0.10231,0.11994 0.15875,0.29633 0.0564,0.17286 0.0564,0.39864 0,0.22225 -0.0564,0.39864 -0.0564,0.17639 -0.15875,0.29986 -0.0988,0.11994 -0.24341,0.18344 -0.14112,0.0635 -0.31398,0.0635 -0.17286,0 -0.3175,-0.0635 -0.14111,-0.0635 -0.24341,-0.18344 -0.0988,-0.11995 -0.15523,-0.29281 -0.0564,-0.17639 -0.0564,-0.40216 0,-0.22225 0.0564,-0.39511 0.0565,-0.17639 0.15523,-0.29634 0.1023,-0.12347 0.24341,-0.18697 0.14464,-0.067 0.3175,-0.067 z"
         style="font-style:normal;font-variant:normal;font-weight:300;font-stretch:normal;font-size:3.52777791px;font-family:Overpass;-inkscape-font-specification:'Overpass Light';text-align:end;text-anchor:end;fill:#60646c;fill-opacity:1;stroke-width:0.26458335px"
         id="path2311"
         inkscape:connector-curvature="0" />
      <path
         d="m 730.9025,234.87321 q 0.21872,-0.0106 0.3563,-0.0565 0.14111,-0.0423 0.21872,-0.10936 0.0811,-0.0635 0.10937,-0.14816 0.0282,-0.0811 0.0282,-0.17286 v -0.27517 q -0.0776,0.11289 -0.19403,0.17992 -0.11289,0.067 -0.29986,0.067 -0.14464,0 -0.2787,-0.06 -0.13405,-0.06 -0.23636,-0.17639 -0.1023,-0.11994 -0.16227,-0.29633 -0.06,-0.17639 -0.06,-0.41275 0,-0.22225 0.0529,-0.39511 0.0564,-0.17639 0.15522,-0.29634 0.10231,-0.12347 0.23989,-0.18697 0.13758,-0.0635 0.30339,-0.0635 0.10231,0 0.17992,0.0247 0.0811,0.0212 0.13758,0.0564 0.06,0.0317 0.0988,0.0706 0.0423,0.0353 0.0635,0.06 v -0.16933 h 0.24694 v 1.77447 q 0,0.22225 -0.0705,0.36689 -0.0706,0.14816 -0.18698,0.23636 -0.11641,0.0917 -0.27163,0.13053 -0.1517,0.0388 -0.3175,0.0459 z m 0.27516,-0.73731 q 0.11289,0 0.23636,-0.0776 0.127,-0.0811 0.20109,-0.22225 v -0.86783 q -0.0388,-0.067 -0.0952,-0.11642 -0.0529,-0.0529 -0.11289,-0.0882 -0.06,-0.0353 -0.11995,-0.0529 -0.06,-0.0176 -0.10936,-0.0176 -0.26811,0 -0.40216,0.18697 -0.13406,0.18345 -0.13406,0.5327 0,0.17286 0.0388,0.30692 0.0423,0.13405 0.11289,0.2293 0.0741,0.0917 0.16933,0.14111 0.0988,0.0459 0.21519,0.0459 z"
         style="font-style:normal;font-variant:normal;font-weight:300;font-stretch:normal;font-size:3.52777791px;font-family:Overpass;-inkscape-font-specification:'Overpass Light';text-align:end;text-anchor:end;fill:#60646c;fill-opacity:1;stroke-width:0.26458335px"
         id="path2313"
         inkscape:connector-curvature="0" />
      <path
         d="m 733.53582,234.31582 v -0.17639 q -0.10936,0.0988 -0.24695,0.15875 -0.13405,0.06 -0.28222,0.06 -0.27164,0 -0.4445,-0.15169 -0.16933,-0.15522 -0.16933,-0.45861 0,-0.15522 0.0529,-0.26811 0.0564,-0.11289 0.14464,-0.18345 0.0917,-0.0741 0.21167,-0.10936 0.11994,-0.0353 0.24694,-0.0353 0.11289,0 0.23284,0.0282 0.11994,0.0282 0.254,0.0988 v -0.15169 q 0,-0.13758 -0.0353,-0.22225 -0.0317,-0.0847 -0.0882,-0.13406 -0.0529,-0.0494 -0.127,-0.067 -0.0706,-0.0176 -0.14464,-0.0176 -0.067,0 -0.14111,0.0176 -0.0741,0.0176 -0.14464,0.0459 -0.0706,0.0282 -0.13759,0.0635 -0.0635,0.0317 -0.11289,0.067 l -0.0705,-0.21166 q 0.10936,-0.0706 0.27517,-0.13406 0.16933,-0.0635 0.3563,-0.0635 0.0953,0 0.20108,0.0282 0.10584,0.0247 0.19403,0.0952 0.0882,0.067 0.14464,0.1905 0.06,0.11995 0.06,0.31045 v 1.22061 z m -0.50447,-0.17286 q 0.0811,0 0.15522,-0.0247 0.0741,-0.0247 0.13758,-0.0635 0.0635,-0.0388 0.11642,-0.0882 0.0529,-0.0529 0.0952,-0.10231 V 233.515 q -0.0882,-0.06 -0.21872,-0.1023 -0.127,-0.0459 -0.24342,-0.0459 -0.0917,0 -0.17286,0.0247 -0.0811,0.0212 -0.14464,0.0706 -0.06,0.0459 -0.0988,0.11641 -0.0353,0.0706 -0.0353,0.16934 0,0.17991 0.10584,0.28928 0.10583,0.10583 0.30339,0.10583 z"
         style="font-style:normal;font-variant:normal;font-weight:300;font-stretch:normal;font-size:3.52777791px;font-family:Overpass;-inkscape-font-specification:'Overpass Light';text-align:end;text-anchor:end;fill:#60646c;fill-opacity:1;stroke-width:0.26458335px"
         id="path2315"
         inkscape:connector-curvature="0" />
      <path
         d="m 734.33144,234.31582 v -1.80269 h 0.24695 v 0.254 q 0.0988,-0.14817 0.2293,-0.22225 0.13053,-0.0741 0.254,-0.0741 0.13406,0 0.22578,0.0741 l -0.0388,0.23988 q -0.0353,-0.0212 -0.0917,-0.0423 -0.0529,-0.0247 -0.14111,-0.0247 -0.06,0 -0.13758,0.0282 -0.0741,0.0282 -0.14111,0.0952 -0.067,0.067 -0.11289,0.17992 -0.0459,0.10936 -0.0459,0.27516 v 1.01953 z"
         style="font-style:normal;font-variant:normal;font-weight:300;font-stretch:normal;font-size:3.52777791px;font-family:Overpass;-inkscape-font-specification:'Overpass Light';text-align:end;text-anchor:end;fill:#60646c;fill-opacity:1;stroke-width:0.26458335px"
         id="path2317"
         inkscape:connector-curvature="0" />
      <path
         d="m 736.21324,234.35815 q -0.17287,0 -0.31045,-0.067 -0.13758,-0.067 -0.23636,-0.1905 -0.0952,-0.12348 -0.14817,-0.29634 -0.0494,-0.17639 -0.0494,-0.39158 0,-0.44803 0.19756,-0.69497 0.20108,-0.24695 0.54681,-0.24695 0.16933,0 0.28222,0.0529 0.11641,0.0494 0.19755,0.11642 v -0.74789 l 0.24695,-0.12348 v 2.54706 H 736.693 v -0.15522 q -0.0811,0.0811 -0.19755,0.14111 -0.11289,0.0564 -0.28222,0.0564 z m 0.0282,-0.22225 q 0.13405,0 0.254,-0.0741 0.12347,-0.0741 0.19755,-0.20814 v -0.89958 q -0.0282,-0.0459 -0.0705,-0.0917 -0.0423,-0.0459 -0.0988,-0.0811 -0.0529,-0.0388 -0.127,-0.0635 -0.0706,-0.0247 -0.15522,-0.0247 -0.25047,0 -0.38453,0.18697 -0.13053,0.18345 -0.13053,0.5327 0,0.15169 0.0353,0.28575 0.0353,0.13053 0.10231,0.2293 0.067,0.0952 0.16227,0.1517 0.0952,0.0564 0.2152,0.0564 z"
         style="font-style:normal;font-variant:normal;font-weight:300;font-stretch:normal;font-size:3.52777791px;font-family:Overpass;-inkscape-font-specification:'Overpass Light';text-align:end;text-anchor:end;fill:#60646c;fill-opacity:1;stroke-width:0.26458335px"
         id="path2319"
         inkscape:connector-curvature="0" />
      <path
         d="m 737.65786,234.36521 q -0.0953,0 -0.15875,-0.067 -0.0635,-0.0705 -0.0635,-0.15522 0,-0.0847 0.0635,-0.1517 0.0635,-0.0705 0.15875,-0.0705 0.0952,0 0.15875,0.0705 0.0635,0.067 0.0635,0.1517 0,0.0847 -0.0635,0.15522 -0.0635,0.067 -0.15875,0.067 z"
         style="font-style:normal;font-variant:normal;font-weight:300;font-stretch:normal;font-size:3.52777791px;font-family:Overpass;-inkscape-font-specification:'Overpass Light';text-align:end;text-anchor:end;fill:#60646c;fill-opacity:1;stroke-width:0.26458335px"
         id="path2321"
         inkscape:connector-curvature="0" />
      <path
         d="m 738.8411,234.35815 q -0.32808,0 -0.52211,-0.24341 -0.1905,-0.24695 -0.1905,-0.6985 0,-0.44803 0.19403,-0.69498 0.19755,-0.25047 0.5468,-0.25047 0.20108,0 0.35278,0.0988 0.15169,0.0952 0.22578,0.27869 l -0.22578,0.0882 q -0.0423,-0.10231 -0.13053,-0.17286 -0.0847,-0.0706 -0.23283,-0.0706 -0.127,0 -0.2152,0.0529 -0.0882,0.0494 -0.14816,0.14464 -0.0564,0.0917 -0.0847,0.22578 -0.0247,0.13405 -0.0247,0.29986 0,0.34219 0.11288,0.53269 0.11289,0.18697 0.35278,0.18697 0.14817,0 0.25047,-0.0741 0.10231,-0.0741 0.14817,-0.20108 l 0.22225,0.0847 q -0.0635,0.1905 -0.23283,0.30339 -0.16581,0.10936 -0.39864,0.10936 z"
         style="font-style:normal;font-variant:normal;font-weight:300;font-stretch:normal;font-size:3.52777791px;font-family:Overpass;-inkscape-font-specification:'Overpass Light';text-align:end;text-anchor:end;fill:#60646c;fill-opacity:1;stroke-width:0.26458335px"
         id="path2323"
         inkscape:connector-curvature="0" />
      <path
         d="m 740.59606,234.1359 q 0.24694,0 0.381,-0.1905 0.13405,-0.1905 0.13405,-0.53269 0,-0.33867 -0.13052,-0.52917 -0.13053,-0.1905 -0.38453,-0.1905 -0.254,0 -0.38453,0.18697 -0.13053,0.18345 -0.13053,0.53623 0,0.33866 0.13053,0.52916 0.13053,0.1905 0.38453,0.1905 z m 0,-1.66511 q 0.17286,0 0.31397,0.0635 0.14464,0.0635 0.24342,0.18345 0.1023,0.11994 0.15875,0.29633 0.0564,0.17286 0.0564,0.39864 0,0.22225 -0.0564,0.39864 -0.0564,0.17639 -0.15875,0.29986 -0.0988,0.11994 -0.24342,0.18344 -0.14111,0.0635 -0.31397,0.0635 -0.17286,0 -0.3175,-0.0635 -0.14111,-0.0635 -0.24342,-0.18344 -0.0988,-0.11995 -0.15522,-0.29281 -0.0564,-0.17639 -0.0564,-0.40216 0,-0.22225 0.0564,-0.39511 0.0564,-0.17639 0.15522,-0.29634 0.10231,-0.12347 0.24342,-0.18697 0.14464,-0.067 0.3175,-0.067 z"
         style="font-style:normal;font-variant:normal;font-weight:300;font-stretch:normal;font-size:3.52777791px;font-family:Overpass;-inkscape-font-specification:'Overpass Light';text-align:end;text-anchor:end;fill:#60646c;fill-opacity:1;stroke-width:0.26458335px"
         id="path2325"
         inkscape:connector-curvature="0" />
      <path
         d="m 743.62229,232.47079 q 0.13052,0 0.24341,0.0459 0.11289,0.0459 0.19403,0.13053 0.0847,0.0811 0.13053,0.20108 0.0494,0.11995 0.0494,0.26812 v 1.19944 h -0.24695 v -1.10419 q 0,-0.0847 -0.0141,-0.17639 -0.0141,-0.0917 -0.0564,-0.16581 -0.0388,-0.0776 -0.11642,-0.127 -0.0776,-0.0494 -0.20461,-0.0494 -0.10231,0 -0.17992,0.0423 -0.0776,0.0423 -0.13053,0.11288 -0.0529,0.0706 -0.0811,0.16581 -0.0247,0.0917 -0.0247,0.19756 v 1.10419 h -0.24694 v -1.10419 q 0,-0.0847 -0.0141,-0.17639 -0.0141,-0.0917 -0.0565,-0.16581 -0.0388,-0.0776 -0.11642,-0.127 -0.0776,-0.0494 -0.20461,-0.0494 -0.10583,0 -0.18344,0.0388 -0.0776,0.0353 -0.13053,0.1023 -0.0494,0.067 -0.0776,0.15523 -0.0247,0.0882 -0.0247,0.19402 v 1.13242 h -0.24695 v -1.80269 h 0.24695 v 0.17638 q 0.18697,-0.21872 0.49036,-0.21872 0.14464,0 0.27516,0.0741 0.13406,0.0705 0.21167,0.20108 0.0741,-0.11289 0.20461,-0.19403 0.13406,-0.0811 0.31045,-0.0811 z"
         style="font-style:normal;font-variant:normal;font-weight:300;font-stretch:normal;font-size:3.52777791px;font-family:Overpass;-inkscape-font-specification:'Overpass Light';text-align:end;text-anchor:end;fill:#60646c;fill-opacity:1;stroke-width:0.26458335px"
         id="path2327"
         inkscape:connector-curvature="0" />
      <path
         d="m 744.54215,234.77443 1.38642,-2.97039 h 0.23989 l -1.38642,2.97039 z"
         style="font-style:normal;font-variant:normal;font-weight:300;font-stretch:normal;font-size:3.52777791px;font-family:Overpass;-inkscape-font-specification:'Overpass Light';text-align:end;text-anchor:end;fill:#60646c;fill-opacity:1;stroke-width:0.26458335px"
         id="path2329"
         inkscape:connector-curvature="0" />
      <path
         d="m 747.02687,234.35815 q -0.19403,0 -0.27517,-0.11641 -0.0811,-0.11995 -0.0811,-0.29634 v -1.21002 h -0.30691 v -0.22225 h 0.30691 v -0.62089 l 0.24695,-0.12348 v 0.74437 h 0.45861 v 0.22225 h -0.45861 v 1.10419 q 0,0.06 0.004,0.11289 0.007,0.0494 0.0282,0.0882 0.0212,0.0388 0.06,0.0635 0.0388,0.0212 0.1023,0.0212 0.0917,0 0.15523,-0.0353 0.067,-0.0353 0.11641,-0.0705 l -0.0282,0.25752 q -0.0706,0.0388 -0.14817,0.06 -0.0776,0.0212 -0.17991,0.0212 z"
         style="font-style:normal;font-variant:normal;font-weight:300;font-stretch:normal;font-size:3.52777791px;font-family:Overpass;-inkscape-font-specification:'Overpass Light';text-align:end;text-anchor:end;fill:#60646c;fill-opacity:1;stroke-width:0.26458335px"
         id="path2331"
         inkscape:connector-curvature="0" />
      <path
         d="m 747.98069,233.51501 q 0.0317,0.27517 0.1658,0.4445 0.13406,0.16934 0.36689,0.16934 0.0988,0 0.20109,-0.0317 0.1023,-0.0318 0.20461,-0.10936 l 0.13405,0.1658 q -0.10583,0.0882 -0.25047,0.14817 -0.14111,0.0564 -0.29986,0.0564 -0.18344,0 -0.32808,-0.0741 -0.14464,-0.0776 -0.24695,-0.20814 -0.0988,-0.13053 -0.15522,-0.29986 -0.0529,-0.17286 -0.0529,-0.36336 0,-0.22578 0.0564,-0.39864 0.06,-0.17639 0.16228,-0.29633 0.1023,-0.11995 0.24694,-0.18345 0.14464,-0.0635 0.3175,-0.0635 0.14464,0 0.27164,0.0529 0.13053,0.0494 0.2293,0.15522 0.0988,0.10583 0.15523,0.27164 0.0564,0.16581 0.0564,0.39158 0,0.0282 0,0.0706 0,0.0423 -0.007,0.1023 z m 0.52211,-0.82197 q -0.21872,0 -0.36689,0.14464 -0.14464,0.14464 -0.16228,0.45508 h 0.99131 q 0,-0.18344 -0.0459,-0.29986 -0.0459,-0.11641 -0.11642,-0.18344 -0.067,-0.067 -0.14817,-0.0917 -0.0811,-0.0247 -0.15169,-0.0247 z"
         style="font-style:normal;font-variant:normal;font-weight:300;font-stretch:normal;font-size:3.52777791px;font-family:Overpass;-inkscape-font-specification:'Overpass Light';text-align:end;text-anchor:end;fill:#60646c;fill-opacity:1;stroke-width:0.26458335px"
         id="path2333"
         inkscape:connector-curvature="0" />
      <path
         d="m 749.71035,234.31582 v -1.80269 h 0.24694 v 0.254 q 0.0988,-0.14817 0.22931,-0.22225 0.13053,-0.0741 0.254,-0.0741 0.13405,0 0.22578,0.0741 l -0.0388,0.23988 q -0.0353,-0.0212 -0.0917,-0.0423 -0.0529,-0.0247 -0.14111,-0.0247 -0.06,0 -0.13759,0.0282 -0.0741,0.0282 -0.14111,0.0952 -0.067,0.067 -0.11289,0.17992 -0.0459,0.10936 -0.0459,0.27516 v 1.01953 z"
         style="font-style:normal;font-variant:normal;font-weight:300;font-stretch:normal;font-size:3.52777791px;font-family:Overpass;-inkscape-font-specification:'Overpass Light';text-align:end;text-anchor:end;fill:#60646c;fill-opacity:1;stroke-width:0.26458335px"
         id="path2335"
         inkscape:connector-curvature="0" />
      <path
         d="m 752.79313,232.47079 q 0.13053,0 0.24342,0.0459 0.11289,0.0459 0.19403,0.13053 0.0847,0.0811 0.13052,0.20108 0.0494,0.11995 0.0494,0.26812 v 1.19944 h -0.24694 v -1.10419 q 0,-0.0847 -0.0141,-0.17639 -0.0141,-0.0917 -0.0565,-0.16581 -0.0388,-0.0776 -0.11641,-0.127 -0.0776,-0.0494 -0.20462,-0.0494 -0.1023,0 -0.17991,0.0423 -0.0776,0.0423 -0.13053,0.11288 -0.0529,0.0706 -0.0811,0.16581 -0.0247,0.0917 -0.0247,0.19756 v 1.10419 h -0.24695 v -1.10419 q 0,-0.0847 -0.0141,-0.17639 -0.0141,-0.0917 -0.0564,-0.16581 -0.0388,-0.0776 -0.11642,-0.127 -0.0776,-0.0494 -0.20461,-0.0494 -0.10583,0 -0.18345,0.0388 -0.0776,0.0353 -0.13052,0.1023 -0.0494,0.067 -0.0776,0.15523 -0.0247,0.0882 -0.0247,0.19402 v 1.13242 H 751.054 v -1.80269 h 0.24694 v 0.17638 q 0.18697,-0.21872 0.49036,-0.21872 0.14464,0 0.27517,0.0741 0.13405,0.0705 0.21167,0.20108 0.0741,-0.11289 0.20461,-0.19403 0.13405,-0.0811 0.31044,-0.0811 z"
         style="font-style:normal;font-variant:normal;font-weight:300;font-stretch:normal;font-size:3.52777791px;font-family:Overpass;-inkscape-font-specification:'Overpass Light';text-align:end;text-anchor:end;fill:#60646c;fill-opacity:1;stroke-width:0.26458335px"
         id="path2337"
         inkscape:connector-curvature="0" />
      <path
         d="m 754.03403,234.31582 v -1.80269 h 0.24694 v 1.80269 z m 0.12347,-2.17311 q -0.0706,0 -0.11642,-0.0459 -0.0459,-0.0459 -0.0459,-0.11642 0,-0.0706 0.0459,-0.11994 0.0459,-0.0494 0.11642,-0.0494 0.0706,0 0.11642,0.0494 0.0459,0.0494 0.0459,0.11994 0,0.0706 -0.0459,0.11642 -0.0459,0.0459 -0.11642,0.0459 z"
         style="font-style:normal;font-variant:normal;font-weight:300;font-stretch:normal;font-size:3.52777791px;font-family:Overpass;-inkscape-font-specification:'Overpass Light';text-align:end;text-anchor:end;fill:#60646c;fill-opacity:1;stroke-width:0.26458335px"
         id="path2339"
         inkscape:connector-curvature="0" />
      <path
         d="m 755.16628,232.71068 q 0.0847,-0.12347 0.20108,-0.17992 0.11995,-0.06 0.26458,-0.06 0.33162,0 0.48684,0.20109 0.15875,0.19755 0.15875,0.64558 v 0.99836 h -0.24695 v -1.10067 q 0,-0.28575 -0.11994,-0.40216 -0.11995,-0.11995 -0.29986,-0.11995 -0.0952,0 -0.17639,0.0247 -0.0811,0.0247 -0.14111,0.0847 -0.06,0.06 -0.0952,0.15875 -0.0317,0.0988 -0.0317,0.24695 v 1.10772 h -0.24695 v -1.80269 h 0.24695 z"
         style="font-style:normal;font-variant:normal;font-weight:300;font-stretch:normal;font-size:3.52777791px;font-family:Overpass;-inkscape-font-specification:'Overpass Light';text-align:end;text-anchor:end;fill:#60646c;fill-opacity:1;stroke-width:0.26458335px"
         id="path2341"
         inkscape:connector-curvature="0" />
      <path
         d="m 757.93398,234.31582 v -0.17639 q -0.10936,0.0988 -0.24694,0.15875 -0.13406,0.06 -0.28222,0.06 -0.27164,0 -0.4445,-0.15169 -0.16934,-0.15522 -0.16934,-0.45861 0,-0.15522 0.0529,-0.26811 0.0564,-0.11289 0.14464,-0.18345 0.0917,-0.0741 0.21167,-0.10936 0.11994,-0.0353 0.24694,-0.0353 0.11289,0 0.23283,0.0282 0.11995,0.0282 0.254,0.0988 v -0.15169 q 0,-0.13758 -0.0353,-0.22225 -0.0318,-0.0847 -0.0882,-0.13406 -0.0529,-0.0494 -0.127,-0.067 -0.0705,-0.0176 -0.14464,-0.0176 -0.067,0 -0.14111,0.0176 -0.0741,0.0176 -0.14464,0.0459 -0.0705,0.0282 -0.13758,0.0635 -0.0635,0.0317 -0.11289,0.067 l -0.0706,-0.21166 q 0.10937,-0.0706 0.27517,-0.13406 0.16933,-0.0635 0.35631,-0.0635 0.0952,0 0.20108,0.0282 0.10583,0.0247 0.19403,0.0952 0.0882,0.067 0.14464,0.1905 0.06,0.11995 0.06,0.31045 v 1.22061 z m -0.50447,-0.17286 q 0.0811,0 0.15522,-0.0247 0.0741,-0.0247 0.13759,-0.0635 0.0635,-0.0388 0.11641,-0.0882 0.0529,-0.0529 0.0952,-0.10231 V 233.515 q -0.0882,-0.06 -0.21872,-0.1023 -0.127,-0.0459 -0.24342,-0.0459 -0.0917,0 -0.17286,0.0247 -0.0811,0.0212 -0.14464,0.0706 -0.06,0.0459 -0.0988,0.11641 -0.0353,0.0706 -0.0353,0.16934 0,0.17991 0.10583,0.28928 0.10584,0.10583 0.30339,0.10583 z"
         style="font-style:normal;font-variant:normal;font-weight:300;font-stretch:normal;font-size:3.52777791px;font-family:Overpass;-inkscape-font-specification:'Overpass Light';text-align:end;text-anchor:end;fill:#60646c;fill-opacity:1;stroke-width:0.26458335px"
         id="path2343"
         inkscape:connector-curvature="0" />
      <path
         d="m 758.74725,234.31582 v -2.42711 l 0.24694,-0.11995 v 2.54706 z"
         style="font-style:normal;font-variant:normal;font-weight:300;font-stretch:normal;font-size:3.52777791px;font-family:Overpass;-inkscape-font-specification:'Overpass Light';text-align:end;text-anchor:end;fill:#60646c;fill-opacity:1;stroke-width:0.26458335px"
         id="path2345"
         inkscape:connector-curvature="0" />
      <path
         d="m 759.646,233.38449 v -0.23989 h 0.7867 v 0.23989 z"
         style="font-style:normal;font-variant:normal;font-weight:300;font-stretch:normal;font-size:3.52777791px;font-family:Overpass;-inkscape-font-specification:'Overpass Light';text-align:end;text-anchor:end;fill:#60646c;fill-opacity:1;stroke-width:0.26458335px"
         id="path2347"
         inkscape:connector-curvature="0" />
      <path
         d="m 761.96497,232.88354 q -0.0706,-0.0705 -0.17639,-0.13053 -0.10583,-0.0635 -0.254,-0.0635 -0.15875,0 -0.25047,0.0635 -0.0917,0.0635 -0.0917,0.17287 0,0.0705 0.0353,0.11994 0.0353,0.0494 0.0917,0.0917 0.0564,0.0388 0.13053,0.0706 0.0741,0.0317 0.15522,0.0635 0.0988,0.0388 0.20109,0.0882 0.10583,0.0459 0.18697,0.11289 0.0811,0.067 0.13406,0.16228 0.0529,0.0917 0.0529,0.2293 0,0.22578 -0.16228,0.35984 -0.16227,0.13405 -0.4445,0.13405 -0.18344,0 -0.34572,-0.0882 -0.16228,-0.0917 -0.27516,-0.22578 l 0.17286,-0.15169 q 0.0811,0.0988 0.20461,0.17286 0.12347,0.0741 0.26458,0.0741 0.14817,0 0.25047,-0.067 0.10231,-0.067 0.10231,-0.19402 0,-0.0811 -0.0388,-0.14112 -0.0388,-0.0635 -0.1023,-0.10936 -0.0635,-0.0459 -0.14464,-0.0811 -0.0811,-0.0388 -0.16228,-0.0705 -0.10583,-0.0423 -0.20461,-0.0917 -0.0988,-0.0494 -0.17286,-0.11289 -0.0741,-0.0635 -0.11995,-0.14464 -0.0423,-0.0847 -0.0423,-0.19756 0,-0.1023 0.0423,-0.18697 0.0459,-0.0847 0.11995,-0.14464 0.0776,-0.06 0.18344,-0.0917 0.10936,-0.0353 0.23636,-0.0353 0.18345,0 0.32809,0.0741 0.14816,0.0705 0.25753,0.20108 z"
         style="font-style:normal;font-variant:normal;font-weight:300;font-stretch:normal;font-size:3.52777791px;font-family:Overpass;-inkscape-font-specification:'Overpass Light';text-align:end;text-anchor:end;fill:#60646c;fill-opacity:1;stroke-width:0.26458335px"
         id="path2349"
         inkscape:connector-curvature="0" />
      <path
         d="m 762.70188,234.31582 v -1.80269 h 0.24695 v 1.80269 z m 0.12348,-2.17311 q -0.0706,0 -0.11642,-0.0459 -0.0459,-0.0459 -0.0459,-0.11642 0,-0.0706 0.0459,-0.11994 0.0459,-0.0494 0.11642,-0.0494 0.0705,0 0.11641,0.0494 0.0459,0.0494 0.0459,0.11994 0,0.0706 -0.0459,0.11642 -0.0459,0.0459 -0.11641,0.0459 z"
         style="font-style:normal;font-variant:normal;font-weight:300;font-stretch:normal;font-size:3.52777791px;font-family:Overpass;-inkscape-font-specification:'Overpass Light';text-align:end;text-anchor:end;fill:#60646c;fill-opacity:1;stroke-width:0.26458335px"
         id="path2351"
         inkscape:connector-curvature="0" />
      <path
         d="m 763.60483,234.31582 v -2.42711 l 0.24695,-0.11995 v 2.54706 z"
         style="font-style:normal;font-variant:normal;font-weight:300;font-stretch:normal;font-size:3.52777791px;font-family:Overpass;-inkscape-font-specification:'Overpass Light';text-align:end;text-anchor:end;fill:#60646c;fill-opacity:1;stroke-width:0.26458335px"
         id="path2353"
         inkscape:connector-curvature="0" />
      <path
         d="m 765.2162,232.47079 q 0.33161,0 0.48683,0.20109 0.15875,0.19755 0.15875,0.64558 v 0.99836 h -0.24694 v -1.10067 q 0,-0.28575 -0.11994,-0.40216 -0.11995,-0.11995 -0.29987,-0.11995 -0.0952,0 -0.17638,0.0247 -0.0811,0.0247 -0.14112,0.0847 -0.06,0.06 -0.0952,0.15875 -0.0317,0.0988 -0.0317,0.24695 v 1.10772 h -0.24694 v -2.43064 l 0.24694,-0.11642 v 0.94545 q 0.0811,-0.12347 0.20109,-0.18345 0.11994,-0.06 0.26458,-0.06 z"
         style="font-style:normal;font-variant:normal;font-weight:300;font-stretch:normal;font-size:3.52777791px;font-family:Overpass;-inkscape-font-specification:'Overpass Light';text-align:end;text-anchor:end;fill:#60646c;fill-opacity:1;stroke-width:0.26458335px"
         id="path2355"
         inkscape:connector-curvature="0" />
      <path
         d="m 767.13019,234.1359 q 0.24694,0 0.381,-0.1905 0.13405,-0.1905 0.13405,-0.53269 0,-0.33867 -0.13053,-0.52917 -0.13052,-0.1905 -0.38452,-0.1905 -0.254,0 -0.38453,0.18697 -0.13053,0.18345 -0.13053,0.53623 0,0.33866 0.13053,0.52916 0.13053,0.1905 0.38453,0.1905 z m 0,-1.66511 q 0.17286,0 0.31397,0.0635 0.14464,0.0635 0.24342,0.18345 0.1023,0.11994 0.15875,0.29633 0.0564,0.17286 0.0564,0.39864 0,0.22225 -0.0564,0.39864 -0.0564,0.17639 -0.15875,0.29986 -0.0988,0.11994 -0.24342,0.18344 -0.14111,0.0635 -0.31397,0.0635 -0.17286,0 -0.3175,-0.0635 -0.14111,-0.0635 -0.24342,-0.18344 -0.0988,-0.11995 -0.15522,-0.29281 -0.0564,-0.17639 -0.0564,-0.40216 0,-0.22225 0.0564,-0.39511 0.0564,-0.17639 0.15522,-0.29634 0.10231,-0.12347 0.24342,-0.18697 0.14464,-0.067 0.3175,-0.067 z"
         style="font-style:normal;font-variant:normal;font-weight:300;font-stretch:normal;font-size:3.52777791px;font-family:Overpass;-inkscape-font-specification:'Overpass Light';text-align:end;text-anchor:end;fill:#60646c;fill-opacity:1;stroke-width:0.26458335px"
         id="path2357"
         inkscape:connector-curvature="0" />
      <path
         d="m 769.51083,234.31582 v -0.17286 q -0.0953,0.12347 -0.20108,0.16933 -0.10584,0.0459 -0.24695,0.0459 -0.34925,0 -0.508,-0.19755 -0.15522,-0.19756 -0.15522,-0.64206 v -1.00541 h 0.24694 v 1.10066 q 0,0.28222 0.11642,0.40217 0.11994,0.11994 0.29986,0.11994 0.0952,0 0.17639,-0.0247 0.0811,-0.0247 0.14111,-0.0847 0.0635,-0.06 0.0952,-0.15875 0.0353,-0.0988 0.0353,-0.24694 v -1.10772 h 0.24694 v 1.80269 z"
         style="font-style:normal;font-variant:normal;font-weight:300;font-stretch:normal;font-size:3.52777791px;font-family:Overpass;-inkscape-font-specification:'Overpass Light';text-align:end;text-anchor:end;fill:#60646c;fill-opacity:1;stroke-width:0.26458335px"
         id="path2359"
         inkscape:connector-curvature="0" />
      <path
         d="m 770.53229,233.51501 q 0.0317,0.27517 0.1658,0.4445 0.13406,0.16934 0.36689,0.16934 0.0988,0 0.20108,-0.0317 0.10231,-0.0318 0.20462,-0.10936 l 0.13405,0.1658 q -0.10583,0.0882 -0.25047,0.14817 -0.14111,0.0564 -0.29986,0.0564 -0.18345,0 -0.32809,-0.0741 -0.14463,-0.0776 -0.24694,-0.20814 -0.0988,-0.13053 -0.15522,-0.29986 -0.0529,-0.17286 -0.0529,-0.36336 0,-0.22578 0.0565,-0.39864 0.06,-0.17639 0.16227,-0.29633 0.10231,-0.11995 0.24695,-0.18345 0.14464,-0.0635 0.3175,-0.0635 0.14464,0 0.27164,0.0529 0.13052,0.0494 0.2293,0.15522 0.0988,0.10583 0.15522,0.27164 0.0565,0.16581 0.0565,0.39158 0,0.0282 0,0.0706 0,0.0423 -0.007,0.1023 z m 0.52211,-0.82197 q -0.21872,0 -0.36689,0.14464 -0.14464,0.14464 -0.16228,0.45508 h 0.99131 q 0,-0.18344 -0.0459,-0.29986 -0.0459,-0.11641 -0.11642,-0.18344 -0.067,-0.067 -0.14817,-0.0917 -0.0811,-0.0247 -0.15169,-0.0247 z"
         style="font-style:normal;font-variant:normal;font-weight:300;font-stretch:normal;font-size:3.52777791px;font-family:Overpass;-inkscape-font-specification:'Overpass Light';text-align:end;text-anchor:end;fill:#60646c;fill-opacity:1;stroke-width:0.26458335px"
         id="path2361"
         inkscape:connector-curvature="0" />
      <path
         d="m 772.67905,234.35815 q -0.19403,0 -0.27517,-0.11641 -0.0811,-0.11995 -0.0811,-0.29634 v -1.21002 h -0.30691 v -0.22225 h 0.30691 v -0.62089 l 0.24695,-0.12348 v 0.74437 h 0.45861 v 0.22225 h -0.45861 v 1.10419 q 0,0.06 0.004,0.11289 0.007,0.0494 0.0282,0.0882 0.0212,0.0388 0.06,0.0635 0.0388,0.0212 0.10231,0.0212 0.0917,0 0.15522,-0.0353 0.067,-0.0353 0.11641,-0.0705 l -0.0282,0.25752 q -0.0705,0.0388 -0.14816,0.06 -0.0776,0.0212 -0.17992,0.0212 z"
         style="font-style:normal;font-variant:normal;font-weight:300;font-stretch:normal;font-size:3.52777791px;font-family:Overpass;-inkscape-font-specification:'Overpass Light';text-align:end;text-anchor:end;fill:#60646c;fill-opacity:1;stroke-width:0.26458335px"
         id="path2363"
         inkscape:connector-curvature="0" />
      <path
         d="m 773.9813,234.35815 q -0.19403,0 -0.27517,-0.11641 -0.0811,-0.11995 -0.0811,-0.29634 v -1.21002 h -0.30692 v -0.22225 h 0.30692 v -0.62089 l 0.24694,-0.12348 v 0.74437 h 0.45862 v 0.22225 h -0.45862 v 1.10419 q 0,0.06 0.004,0.11289 0.007,0.0494 0.0282,0.0882 0.0212,0.0388 0.06,0.0635 0.0388,0.0212 0.1023,0.0212 0.0917,0 0.15522,-0.0353 0.067,-0.0353 0.11642,-0.0705 l -0.0282,0.25752 q -0.0706,0.0388 -0.14817,0.06 -0.0776,0.0212 -0.17991,0.0212 z"
         style="font-style:normal;font-variant:normal;font-weight:300;font-stretch:normal;font-size:3.52777791px;font-family:Overpass;-inkscape-font-specification:'Overpass Light';text-align:end;text-anchor:end;fill:#60646c;fill-opacity:1;stroke-width:0.26458335px"
         id="path2365"
         inkscape:connector-curvature="0" />
      <path
         d="m 774.93512,233.51501 q 0.0317,0.27517 0.1658,0.4445 0.13406,0.16934 0.36689,0.16934 0.0988,0 0.20109,-0.0317 0.1023,-0.0318 0.20461,-0.10936 l 0.13405,0.1658 q -0.10583,0.0882 -0.25047,0.14817 -0.14111,0.0564 -0.29986,0.0564 -0.18344,0 -0.32808,-0.0741 -0.14464,-0.0776 -0.24695,-0.20814 -0.0988,-0.13053 -0.15522,-0.29986 -0.0529,-0.17286 -0.0529,-0.36336 0,-0.22578 0.0564,-0.39864 0.06,-0.17639 0.16228,-0.29633 0.1023,-0.11995 0.24694,-0.18345 0.14464,-0.0635 0.3175,-0.0635 0.14464,0 0.27164,0.0529 0.13053,0.0494 0.2293,0.15522 0.0988,0.10583 0.15523,0.27164 0.0564,0.16581 0.0564,0.39158 0,0.0282 0,0.0706 0,0.0423 -0.007,0.1023 z m 0.52211,-0.82197 q -0.21872,0 -0.36689,0.14464 -0.14464,0.14464 -0.16228,0.45508 h 0.99131 q 0,-0.18344 -0.0459,-0.29986 -0.0459,-0.11641 -0.11642,-0.18344 -0.067,-0.067 -0.14817,-0.0917 -0.0811,-0.0247 -0.15169,-0.0247 z"
         style="font-style:normal;font-variant:normal;font-weight:300;font-stretch:normal;font-size:3.52777791px;font-family:Overpass;-inkscape-font-specification:'Overpass Light';text-align:end;text-anchor:end;fill:#60646c;fill-opacity:1;stroke-width:0.26458335px"
         id="path2367"
         inkscape:connector-curvature="0" />
      <path
         d="m 777.52991,232.88354 q -0.0706,-0.0705 -0.17639,-0.13053 -0.10583,-0.0635 -0.254,-0.0635 -0.15875,0 -0.25047,0.0635 -0.0917,0.0635 -0.0917,0.17287 0,0.0705 0.0353,0.11994 0.0353,0.0494 0.0917,0.0917 0.0564,0.0388 0.13052,0.0706 0.0741,0.0317 0.15523,0.0635 0.0988,0.0388 0.20108,0.0882 0.10583,0.0459 0.18697,0.11289 0.0811,0.067 0.13406,0.16228 0.0529,0.0917 0.0529,0.2293 0,0.22578 -0.16227,0.35984 -0.16228,0.13405 -0.4445,0.13405 -0.18345,0 -0.34573,-0.0882 -0.16227,-0.0917 -0.27516,-0.22578 l 0.17286,-0.15169 q 0.0811,0.0988 0.20461,0.17286 0.12347,0.0741 0.26458,0.0741 0.14817,0 0.25047,-0.067 0.10231,-0.067 0.10231,-0.19402 0,-0.0811 -0.0388,-0.14112 -0.0388,-0.0635 -0.1023,-0.10936 -0.0635,-0.0459 -0.14464,-0.0811 -0.0811,-0.0388 -0.16228,-0.0705 -0.10583,-0.0423 -0.20461,-0.0917 -0.0988,-0.0494 -0.17286,-0.11289 -0.0741,-0.0635 -0.11994,-0.14464 -0.0423,-0.0847 -0.0423,-0.19756 0,-0.1023 0.0423,-0.18697 0.0459,-0.0847 0.11994,-0.14464 0.0776,-0.06 0.18344,-0.0917 0.10937,-0.0353 0.23637,-0.0353 0.18344,0 0.32808,0.0741 0.14817,0.0705 0.25753,0.20108 z"
         style="font-style:normal;font-variant:normal;font-weight:300;font-stretch:normal;font-size:3.52777791px;font-family:Overpass;-inkscape-font-specification:'Overpass Light';text-align:end;text-anchor:end;fill:#60646c;fill-opacity:1;stroke-width:0.26458335px"
         id="path2369"
         inkscape:connector-curvature="0" />
    </g>
  </g>
</svg>
