<?xml version="1.0" encoding="UTF-8" standalone="no"?>
<!-- Created with Inkscape (http://www.inkscape.org/) -->

<svg
   xmlns:dc="http://purl.org/dc/elements/1.1/"
   xmlns:cc="http://creativecommons.org/ns#"
   xmlns:rdf="http://www.w3.org/1999/02/22-rdf-syntax-ns#"
   xmlns:svg="http://www.w3.org/2000/svg"
   xmlns="http://www.w3.org/2000/svg"
   xmlns:sodipodi="http://sodipodi.sourceforge.net/DTD/sodipodi-0.dtd"
   xmlns:inkscape="http://www.inkscape.org/namespaces/inkscape"
   width="691.68024"
   height="268.41519"
   viewBox="0 0 691.68024 268.4152"
   id="svg2"
   version="1.1"
   inkscape:version="0.92.4 (5da689c313, 2019-01-14)"
   sodipodi:docname="AUS.svg"
   inkscape:export-filename="C:\Users\paulb\Dropbox\Projects\Terminal Silhouettes\Silhouettes\png\AUS.png"
   inkscape:export-xdpi="90"
   inkscape:export-ydpi="90">
  <sodipodi:namedview
     id="base"
     pagecolor="#ffffff"
     bordercolor="#666666"
     borderopacity="1.0"
     inkscape:pageopacity="1"
     inkscape:pageshadow="2"
     inkscape:zoom="0.98994949"
     inkscape:cx="156.54323"
     inkscape:cy="207.22223"
     inkscape:document-units="px"
     inkscape:current-layer="layer4"
     showgrid="false"
     units="px"
     fit-margin-top="25"
     fit-margin-left="25"
     fit-margin-right="25"
     fit-margin-bottom="25"
     inkscape:window-width="1920"
     inkscape:window-height="1137"
     inkscape:window-x="1912"
     inkscape:window-y="-8"
     inkscape:window-maximized="1"
     showguides="true"
     inkscape:guide-bbox="true"
     inkscape:object-nodes="true" />
  <defs
     id="defs4" />
  <metadata
     id="metadata7">
    <rdf:RDF>
      <cc:Work
         rdf:about="">
        <dc:format>image/svg+xml</dc:format>
        <dc:type
           rdf:resource="http://purl.org/dc/dcmitype/StillImage" />
        <dc:title />
        <dc:creator>
          <cc:Agent>
            <dc:title>Paul Bogard</dc:title>
          </cc:Agent>
        </dc:creator>
        <dc:description>Terminal silhouette of AUS (Austin)</dc:description>
      </cc:Work>
    </rdf:RDF>
  </metadata>
  <g
     inkscape:label="Terminal"
     id="layer2"
     inkscape:groupmode="layer"
     transform="translate(-370.52179,-366.00352)">
    <path
       inkscape:connector-curvature="0"
       id="rect4159-3"
       d="m 936.86647,391.78797 c -2.89013,0.0857 -6.1447,0.33567 -9.80947,0.79504 0,0 -12.76685,1.46011 -20.63825,7.16199 l -1.24796,0.0289 -0.0507,-2.1897 -9.52375,0.22094 0.0507,2.18971 -63.40044,1.47086 -0.0508,-2.1897 -9.5238,0.22095 0.0508,2.18971 -63.40145,1.47088 -0.0508,-2.1897 -9.52379,0.22094 0.0508,2.18971 -75.78206,1.75811 0.0944,4.069 -277.82092,6.44533 0.6944,29.93191 222.67006,-5.16585 c 0,0 15.90722,9.26653 43.12838,18.89215 l -0.32428,0.90662 -1.23041,-0.43996 -1.20813,3.37911 6.90363,2.46763 1.20813,-3.3791 -3.09777,-1.10728 0.33217,-0.92996 c 60.74433,20.97241 174.3711,42.33436 293.69769,-27.66337 l 77.37195,-1.795 -0.6944,-29.93191 -75.83154,1.75926 c 0.46662,-2.57875 -0.44927,-3.93759 -0.44927,-3.93759 0,0 -2.36185,-7.44932 -22.59313,-6.84968 z"
       style="display:inline;opacity:1;fill:#dddddd;fill-opacity:1;stroke:#222222;stroke-width:1.5;stroke-linejoin:miter;stroke-miterlimit:4;stroke-dasharray:none;stroke-dashoffset:0;stroke-opacity:1" />
  </g>
  <g
     inkscape:groupmode="layer"
     id="layer3"
     inkscape:label="Label"
     transform="translate(-370.52179,-366.00352)">
    <g
       id="g4239"
       transform="translate(0,18)">
      <g
         style="font-style:normal;font-variant:normal;font-weight:bold;font-stretch:normal;font-size:125px;line-height:125%;font-family:Overpass;-inkscape-font-specification:'Overpass, Bold';text-align:start;letter-spacing:0px;word-spacing:0px;writing-mode:lr-tb;text-anchor:start;fill:#dddddd;fill-opacity:1;stroke:#222222;stroke-width:0.25;stroke-linecap:butt;stroke-linejoin:miter;stroke-miterlimit:4;stroke-dasharray:none;stroke-opacity:1"
         id="text4227">
        <path
           d="m 461.01544,589.76782 -6.7749,-18.12744 -33.75244,0 -6.71387,18.12744 -18.12744,0 33.5083,-87.52441 16.47949,0 33.5083,87.52441 -18.12744,0 z m -20.87402,-56.27441 q -0.67139,-1.58692 -1.46485,-3.78418 -0.73242,-2.19727 -1.28173,-4.08936 -0.48828,1.89209 -1.28174,4.08936 -0.79346,2.19726 -1.46485,3.78418 l -8.66699,22.76611 22.76612,0 -8.60596,-22.76611 z"
           style=""
           id="path4265" />
        <path
           d="m 529.67999,591.2937 q -4.45556,0 -8.85009,-0.79346 -4.3335,-0.73242 -8.23975,-2.4414 -3.90625,-1.70899 -7.26318,-4.39453 -3.2959,-2.74659 -5.73731,-6.65284 -2.44141,-3.90625 -3.84521,-9.0332 -1.34278,-5.12695 -1.34278,-11.71875 l 0,-54.01611 16.90674,0 0,54.01611 q 0,5.43213 1.2207,9.09424 1.28174,3.60107 3.66211,5.7373 2.38037,2.13623 5.79834,3.05176 3.41797,0.85449 7.69043,0.85449 4.21143,0 7.56836,-0.85449 3.41797,-0.91553 5.79834,-3.05176 2.44141,-2.13623 3.72315,-5.7373 1.28173,-3.66211 1.28173,-9.09424 l 0,-54.01611 16.84571,0 0,54.01611 q 0,9.76563 -2.92969,16.47949 -2.92969,6.65284 -7.87353,10.80323 -4.88282,4.08935 -11.23047,5.92041 -6.34766,1.83105 -13.1836,1.83105 z"
           style=""
           id="path4267" />
        <path
           d="m 628.80109,526.04712 q -0.79346,-1.95313 -2.13623,-3.66211 -1.34278,-1.70898 -3.23487,-2.92969 -1.83105,-1.28174 -4.27246,-1.95312 -2.38037,-0.73242 -5.31006,-0.73242 -5.49316,0 -8.60595,2.19726 -3.05176,2.19727 -3.05176,6.16455 0,2.62451 1.95312,4.39453 1.95313,1.77002 5.12696,3.23487 3.17382,1.4038 7.20214,2.68554 4.08936,1.28174 8.36182,2.86866 4.27246,1.52587 8.30078,3.6621 4.08936,2.0752 7.26319,5.18799 3.17382,3.05176 5.12695,7.32422 1.95312,4.21143 1.95312,10.13184 0,6.40869 -2.4414,11.35254 -2.44141,4.94384 -6.71387,8.36181 -4.21142,3.41797 -10.00976,5.18799 -5.79834,1.77002 -12.51221,1.77002 -6.16455,0 -11.53565,-1.64795 -5.37109,-1.70898 -9.76562,-4.82178 -4.3335,-3.11279 -7.56836,-7.56835 -3.23486,-4.45557 -5.12695,-10.00977 l 15.38086,-5.73731 q 1.4038,3.05176 3.35693,5.61524 2.01416,2.50244 4.45557,4.3335 2.4414,1.77001 5.24902,2.80761 2.86865,0.97657 6.10351,0.97657 3.17383,0 5.73731,-0.67139 2.62451,-0.67139 4.45557,-2.01416 1.89209,-1.34278 2.86865,-3.2959 1.0376,-2.01416 1.0376,-4.63867 0,-3.17383 -1.95313,-5.31006 -1.95312,-2.19727 -5.12695,-3.78418 -3.17383,-1.64795 -7.26319,-2.92969 -4.02832,-1.34277 -8.30078,-2.80762 -4.21142,-1.46484 -8.30078,-3.41796 -4.02832,-1.95313 -7.20215,-4.82178 -3.17383,-2.86865 -5.12695,-6.89697 -1.95313,-4.02832 -1.95313,-9.76563 0,-4.94385 1.95313,-9.27734 2.01416,-4.39453 5.79834,-7.69043 3.78418,-3.2959 9.27734,-5.18799 5.49317,-1.95313 12.57325,-1.95313 5.92041,0 10.68115,1.52588 4.82178,1.52588 8.48388,4.27246 3.66211,2.68555 6.16456,6.4087 2.50244,3.66211 3.78418,8.05664 l -15.13672,5.00488 z"
           style=""
           id="path4269" />
      </g>
      <g
         style="font-style:normal;font-variant:normal;font-weight:normal;font-stretch:normal;font-size:45px;line-height:125%;font-family:Overpass;-inkscape-font-specification:'Overpass, Normal';text-align:start;letter-spacing:0px;word-spacing:0px;writing-mode:lr-tb;text-anchor:start;fill:#222222;fill-opacity:1;stroke:none;stroke-width:1px;stroke-linecap:butt;stroke-linejoin:miter;stroke-opacity:1"
         id="text4231">
        <path
           d="m 700.27863,590.86938 -2.50489,-7.25097 -12.74414,0 -2.5708,7.25097 -4.85596,0 11.38184,-31.50878 4.81201,0 11.33789,31.50878 -4.85595,0 z m -7.77832,-22.10449 q -0.26368,-0.74707 -0.59327,-1.73584 -0.30761,-0.98877 -0.48339,-1.80176 -0.21973,0.81299 -0.52735,1.80176 -0.28564,0.9668 -0.54932,1.73584 l -3.88916,10.72266 9.86573,0 -3.82324,-10.72266 z"
           style=""
           id="path4272" />
        <path
           d="m 724.38263,590.86938 0,-2.19726 q -1.12061,1.42822 -2.59277,2.0874 -1.4502,0.65918 -3.36182,0.65918 -1.80176,0 -3.31787,-0.52734 -1.51611,-0.50537 -2.63672,-1.66992 -1.09863,-1.18653 -1.71387,-3.0542 -0.61523,-1.86768 -0.61523,-4.57032 l 0,-13.73291 4.68017,0 0,13.73291 q 0,1.4502 0.35157,2.48291 0.35156,1.01075 0.96679,1.66993 0.61524,0.65918 1.4502,0.96679 0.83496,0.28565 1.82373,0.28565 1.05469,0 1.95557,-0.26367 0.90087,-0.28565 1.56005,-0.90088 0.68116,-0.63721 1.05469,-1.64795 0.39551,-1.01074 0.39551,-2.50489 l 0,-13.8208 4.68018,0 0,23.00537 -4.68018,0 z"
           style=""
           id="path4274" />
        <path
           d="m 742.88361,591.4187 q -1.36231,0 -2.6587,-0.26367 -1.29638,-0.26367 -2.43896,-0.74707 -1.12061,-0.4834 -2.04346,-1.16455 -0.92285,-0.70313 -1.53808,-1.56006 l 3.31787,-2.83447 q 0.35156,0.32959 0.85693,0.74707 0.50537,0.39551 1.16455,0.74707 0.65918,0.35156 1.47217,0.59326 0.81299,0.2417 1.77979,0.2417 0.8789,0 1.62597,-0.13184 0.74707,-0.13183 1.27442,-0.41748 0.54931,-0.28564 0.83496,-0.74707 0.30761,-0.4834 0.30761,-1.18652 0,-0.81299 -0.57128,-1.38428 -0.54932,-0.59326 -1.4502,-1.05469 -0.90088,-0.48339 -2.04346,-0.90088 -1.14258,-0.43945 -2.30713,-0.92285 -1.07666,-0.46142 -2.10937,-1.01074 -1.03272,-0.54932 -1.8457,-1.31836 -0.79102,-0.76904 -1.29639,-1.82373 -0.4834,-1.07666 -0.4834,-2.59277 0,-1.53809 0.61523,-2.72461 0.63721,-1.18653 1.71387,-1.97754 1.09863,-0.81299 2.54883,-1.23047 1.47217,-0.41748 3.14209,-0.41748 1.47217,0 2.70264,0.28564 1.25244,0.28565 2.24121,0.76905 1.01074,0.4834 1.77978,1.1206 0.76905,0.61524 1.34033,1.29639 l -3.38378,2.68066 q -0.30762,-0.30761 -0.74707,-0.6372 -0.41748,-0.35157 -0.98877,-0.63721 -0.57129,-0.28564 -1.29639,-0.46143 -0.7251,-0.19775 -1.64795,-0.19775 -1.49414,0 -2.37305,0.54932 -0.85693,0.54931 -0.85693,1.58203 0,0.65918 0.46143,1.16455 0.46142,0.4834 1.25244,0.90088 0.79101,0.41748 1.80175,0.81299 1.03272,0.37353 2.15332,0.81298 1.18653,0.46143 2.32911,1.03272 1.14257,0.57129 2.02148,1.40625 0.90088,0.83496 1.42822,2.02148 0.54932,1.18653 0.54932,2.85645 0,1.64795 -0.61523,2.92236 -0.61524,1.25244 -1.75782,2.10938 -1.1206,0.83496 -2.72461,1.25244 -1.58203,0.43945 -3.53759,0.43945 z"
           style=""
           id="path4276" />
        <path
           d="m 763.80157,591.4187 q -1.3623,0 -2.35107,-0.41748 -0.9668,-0.39551 -1.604,-1.14258 -0.61524,-0.74707 -0.90088,-1.80176 -0.28565,-1.07666 -0.28565,-2.37304 l 0,-13.75488 -3.55957,0 0,-4.06495 3.55957,0 0,-7.229 4.68018,-2.26318 0,9.49218 5.44922,0 0,4.06495 -5.44922,0 0,12.54638 q 0,0.57129 0.0879,1.05469 0.10986,0.4834 0.35156,0.83496 0.26367,0.35156 0.70313,0.54932 0.43945,0.17578 1.1206,0.17578 1.66992,0 3.40576,-1.07666 l -0.57128,4.35058 q -0.9668,0.4834 -2.10938,0.76905 -1.14258,0.28564 -2.52686,0.28564 z"
           style=""
           id="path4278" />
        <path
           d="m 774.23859,590.86938 0,-23.00537 4.68017,0 0,23.00537 -4.68017,0 z m 2.3291,-26.58691 q -0.59326,0 -1.12061,-0.21973 -0.50537,-0.21972 -0.90088,-0.59326 -0.37353,-0.39551 -0.59326,-0.90088 -0.21972,-0.52734 -0.21972,-1.1206 0,-0.59326 0.21972,-1.09863 0.21973,-0.52735 0.59326,-0.90088 0.39551,-0.39551 0.90088,-0.61524 0.52735,-0.21972 1.12061,-0.21972 0.59326,0 1.09863,0.21972 0.52734,0.21973 0.90088,0.61524 0.39551,0.37353 0.61523,0.90088 0.21973,0.50537 0.21973,1.09863 0,0.59326 -0.21973,1.1206 -0.21972,0.50537 -0.61523,0.90088 -0.37354,0.37354 -0.90088,0.59326 -0.50537,0.21973 -1.09863,0.21973 z"
           style=""
           id="path4280" />
        <path
           d="m 799.92462,590.86938 0,-13.73291 q 0,-1.45019 -0.35156,-2.46093 -0.35156,-1.03272 -0.9668,-1.66992 -0.61523,-0.65918 -1.45019,-0.94483 -0.83496,-0.30762 -1.82373,-0.30762 -1.05469,0 -1.95557,0.28565 -0.90088,0.26367 -1.56006,0.8789 -0.65918,0.61524 -1.05469,1.64795 -0.37353,1.01075 -0.37353,2.48291 l 0,13.8208 -4.68018,0 0,-23.00537 4.68018,0 0,2.21924 q 1.1206,-1.42822 2.5708,-2.0874 1.45019,-0.65918 3.36182,-0.65918 1.80175,0 3.31787,0.52734 1.51611,0.50537 2.61474,1.66993 1.12061,1.16455 1.73584,3.03222 0.61524,1.86768 0.61524,4.57031 l 0,13.73291 -4.68018,0 z"
           style=""
           id="path4282" />
      </g>
    </g>
  </g>
  <g
     inkscape:groupmode="layer"
     id="layer4"
     inkscape:label="Date"
     transform="translate(-370.52179,-366.00352)">
    <g
       style="font-style:normal;font-variant:normal;font-weight:300;font-stretch:normal;font-size:15px;line-height:125%;font-family:Overpass;-inkscape-font-specification:'Overpass, Light';text-align:start;letter-spacing:0px;word-spacing:0px;writing-mode:lr-tb;text-anchor:start;fill:#222222;fill-opacity:1;stroke:none;stroke-width:1px;stroke-linecap:butt;stroke-linejoin:miter;stroke-opacity:1"
       id="text4223">
      <path
         d="m 966.52038,609.23871 0,-8.595 -1.785,0 0,-0.6 q 0.795,0 1.35,-0.27 0.555,-0.285 0.81,-1.035 l 0.675,0 0,10.5 -1.05,0 z"
         style=""
         id="path4246" />
      <path
         d="m 971.53014,609.23871 0,-8.595 -1.785,0 0,-0.6 q 0.795,0 1.35,-0.27 0.555,-0.285 0.81,-1.035 l 0.675,0 0,10.5 -1.05,0 z"
         style=""
         id="path4248" />
      <path
         d="m 985.54694,609.23871 -5.31,-8.535 0,8.535 -1.05,0 0,-10.5 1.065,0 5.31,8.655 0,-8.655 1.05,0 0,10.5 -1.065,0 z"
         style=""
         id="path4250" />
      <path
         d="m 992.29811,608.47371 q 1.05,0 1.62,-0.81 0.57,-0.81 0.57,-2.265 0,-1.44 -0.555,-2.25 -0.555,-0.81 -1.635,-0.81 -1.08,0 -1.635,0.795 -0.555,0.78 -0.555,2.28 0,1.44 0.555,2.25 0.555,0.81 1.635,0.81 z m 0,-7.08 q 0.735,0 1.335,0.27 0.615,0.27 1.035,0.78 0.435,0.51 0.675,1.26 0.24,0.735 0.24,1.695 0,0.945 -0.24,1.695 -0.24,0.75 -0.675,1.275 -0.42,0.51 -1.035,0.78 -0.6,0.27 -1.335,0.27 -0.735,0 -1.35,-0.27 -0.6,-0.27 -1.035,-0.78 -0.42,-0.51 -0.66,-1.245 -0.24,-0.75 -0.24,-1.71 0,-0.945 0.24,-1.68 0.24,-0.75 0.66,-1.26 0.435,-0.525 1.035,-0.795 0.615,-0.285 1.35,-0.285 z"
         style=""
         id="path4252" />
      <path
         d="m 1000.1504,609.23871 -0.73502,0 -2.805,-7.665 1.08,0 2.13,5.985 2.08502,-5.985 1.05,0 -2.805,7.665 z"
         style=""
         id="path4254" />
      <path
         d="m 1008.091,609.23871 q 0,-0.99 0.285,-1.695 0.285,-0.72 0.735,-1.26 0.45,-0.54 1.02,-0.945 0.57,-0.405 1.14,-0.795 0.495,-0.33 0.945,-0.645 0.45,-0.33 0.795,-0.69 0.36,-0.36 0.57,-0.765 0.21,-0.42 0.21,-0.93 0,-0.855 -0.6,-1.425 -0.585,-0.585 -1.68,-0.585 -1.065,0 -1.605,0.48 -0.54,0.465 -0.735,1.215 l -0.93,-0.42 q 0.12,-0.465 0.405,-0.87 0.285,-0.405 0.72,-0.705 0.435,-0.3 0.99,-0.465 0.57,-0.18 1.245,-0.18 1.56,0 2.415,0.81 0.87,0.795 0.87,2.145 0,0.72 -0.285,1.275 -0.27,0.555 -0.72,1.02 -0.435,0.45 -0.99,0.84 -0.555,0.375 -1.125,0.735 -0.45,0.3 -0.87,0.6 -0.42,0.285 -0.78,0.63 -0.345,0.33 -0.585,0.735 -0.24,0.39 -0.33,0.885 l 5.775,0 0,1.005 -6.885,0 z"
         style=""
         id="path4256" />
      <path
         d="m 1020.6701,609.41871 q -1.035,0 -1.725,-0.48 -0.69,-0.48 -1.11,-1.245 -0.405,-0.78 -0.585,-1.74 -0.18,-0.975 -0.18,-1.965 0,-0.54 0.06,-1.155 0.06,-0.63 0.21,-1.23 0.165,-0.6 0.42,-1.155 0.27,-0.555 0.675,-0.975 0.405,-0.42 0.945,-0.66 0.555,-0.255 1.29,-0.255 1.035,0 1.725,0.495 0.69,0.48 1.095,1.26 0.42,0.78 0.6,1.755 0.18,0.96 0.18,1.92 0,0.555 -0.075,1.17 -0.06,0.615 -0.225,1.23 -0.15,0.6 -0.42,1.155 -0.255,0.54 -0.66,0.96 -0.405,0.42 -0.96,0.675 -0.54,0.24 -1.26,0.24 z m 0,-0.945 q 0.78,0 1.26,-0.42 0.495,-0.435 0.765,-1.095 0.27,-0.66 0.36,-1.455 0.09,-0.795 0.09,-1.515 0,-0.81 -0.105,-1.605 -0.105,-0.81 -0.39,-1.44 -0.285,-0.645 -0.765,-1.035 -0.48,-0.405 -1.215,-0.405 -0.795,0 -1.29,0.435 -0.48,0.435 -0.75,1.095 -0.27,0.66 -0.375,1.455 -0.09,0.78 -0.09,1.5 0,0.825 0.105,1.635 0.105,0.795 0.39,1.44 0.285,0.63 0.765,1.02 0.495,0.39 1.245,0.39 z"
         style=""
         id="path4258" />
      <path
         d="m 1027.6923,609.23871 0,-8.595 -1.785,0 0,-0.6 q 0.795,0 1.35,-0.27 0.555,-0.285 0.81,-1.035 l 0.675,0 0,10.5 -1.05,0 z"
         style=""
         id="path4260" />
      <path
         d="m 1032.777,609.23871 q 0.015,-1.23 0.15,-2.43 0.15,-1.2 0.51,-2.385 0.375,-1.185 0.99,-2.37 0.615,-1.2 1.575,-2.415 l -5.085,0 0,-0.9 6.285,0 0,0.69 q -1.095,1.26 -1.755,2.595 -0.66,1.32 -1.02,2.61 -0.36,1.275 -0.48,2.46 -0.12,1.185 -0.12,2.145 l -1.05,0 z"
         style=""
         id="path4262" />
    </g>
  </g>
</svg>
