<?xml version="1.0" encoding="UTF-8" standalone="no"?>
<!-- Created with Inkscape (http://www.inkscape.org/) -->

<svg
   xmlns:dc="http://purl.org/dc/elements/1.1/"
   xmlns:cc="http://creativecommons.org/ns#"
   xmlns:rdf="http://www.w3.org/1999/02/22-rdf-syntax-ns#"
   xmlns:svg="http://www.w3.org/2000/svg"
   xmlns="http://www.w3.org/2000/svg"
   xmlns:sodipodi="http://sodipodi.sourceforge.net/DTD/sodipodi-0.dtd"
   xmlns:inkscape="http://www.inkscape.org/namespaces/inkscape"
   width="518.66833"
   height="279.19788"
   viewBox="0 0 518.66833 279.19788"
   id="svg2"
   version="1.1"
   inkscape:version="0.91 r13725"
   sodipodi:docname="AVP.svg"
   inkscape:export-filename="C:\Users\paulb\Dropbox\Projects\Terminal Silhouettes\Silhouettes\png\AVP.png"
   inkscape:export-xdpi="90"
   inkscape:export-ydpi="90">
  <defs
     id="defs4" />
  <sodipodi:namedview
     id="base"
     pagecolor="#ffffff"
     bordercolor="#666666"
     borderopacity="1.0"
     inkscape:pageopacity="1"
     inkscape:pageshadow="2"
     inkscape:zoom="1"
     inkscape:cx="502.48232"
     inkscape:cy="210.22598"
     inkscape:document-units="px"
     inkscape:current-layer="layer7"
     showgrid="false"
     inkscape:window-width="1920"
     inkscape:window-height="1137"
     inkscape:window-x="1912"
     inkscape:window-y="-8"
     inkscape:window-maximized="1"
     units="px"
     fit-margin-top="25"
     fit-margin-left="25"
     fit-margin-right="25"
     fit-margin-bottom="25"
     showguides="true"
     inkscape:guide-bbox="true"
     inkscape:object-nodes="true" />
  <metadata
     id="metadata7">
    <rdf:RDF>
      <cc:Work
         rdf:about="">
        <dc:format>image/svg+xml</dc:format>
        <dc:type
           rdf:resource="http://purl.org/dc/dcmitype/StillImage" />
        <dc:title></dc:title>
        <dc:description>Terminal silhouette of AVP (Wilkes-Barre/Scranton)</dc:description>
      </cc:Work>
    </rdf:RDF>
  </metadata>
  <g
     inkscape:groupmode="layer"
     id="layer2"
     inkscape:label="Terminal"
     transform="translate(-201.51371,-431.95818)">
    <path
       inkscape:connector-curvature="0"
       style="opacity:1;fill:#dddddd;fill-opacity:1;stroke:#222222;stroke-width:1.5;stroke-linejoin:miter;stroke-miterlimit:4;stroke-dasharray:none;stroke-dashoffset:0;stroke-opacity:1"
       d="m 691.74872,464.75008 -2.81335,-1.79652 -3.52798,5.52525 -16.42163,-10.48489 -30.82554,48.27798 3.11858,1.99119 -1.85389,2.90322 5.69862,3.63834 -10.36684,16.23668 -3.1179,-1.99099 -6.72811,10.53672 -8.06422,-5.14883 -2.2656,3.54861 -9.2468,-5.90419 -5.69041,8.91294 -13.47445,-4.37552 -1.42061,0.78694 -17.83426,-32.19506 -4.89921,2.71389 -2.80066,-5.05586 -19.86396,11.00352 1.75149,3.16186 -3.17049,1.75627 53.06557,95.79589 7.57516,-4.19621 0.34972,0.63133 21.77911,-12.0644 -9.04526,-16.32883 6.61087,-10.35335 11.61264,7.4151 14.34859,-22.47291 -4.30092,-2.74612 11.53354,-18.06332 1.72064,1.09853 5.97294,-9.35481 -2.90346,-1.85432 3.84445,-6.02088 3.22567,2.05931 30.82554,-48.27798 -5.92556,-3.78334 3.52798,-5.52524 z"
       id="rect6386" />
  </g>
  <g
     inkscape:groupmode="layer"
     id="layer6"
     inkscape:label="Label"
     transform="translate(-201.51371,-431.95818)">
    <g
       id="g6856">
      <g
         style="font-style:normal;font-variant:normal;font-weight:bold;font-stretch:normal;font-size:125px;line-height:125%;font-family:Overpass;-inkscape-font-specification:'Overpass, Bold';text-align:start;letter-spacing:0px;word-spacing:0px;writing-mode:lr-tb;text-anchor:start;fill:#dddddd;fill-opacity:1;stroke:#222222;stroke-width:0.25;stroke-linecap:butt;stroke-linejoin:miter;stroke-miterlimit:4;stroke-dasharray:none;stroke-opacity:1"
         id="text6726">
        <path
           d="m 292.00737,632.68866 -6.7749,-18.12744 -33.75244,0 -6.71387,18.12744 -18.12744,0 33.5083,-87.52441 16.47949,0 33.5083,87.52441 -18.12744,0 z m -20.87402,-56.27441 q -0.67139,-1.58692 -1.46485,-3.78418 -0.73242,-2.19727 -1.28174,-4.08936 -0.48828,1.89209 -1.28173,4.08936 -0.79346,2.19726 -1.46485,3.78418 l -8.66699,22.76611 22.76611,0 -8.60595,-22.76611 z"
           style=""
           id="path6863" />
        <path
           d="m 355.05669,632.68866 -16.23536,0 -31.00585,-87.52441 18.24951,0 19.22607,57.25097 q 0.48828,1.40381 0.91553,3.05176 0.48828,1.58691 0.85449,2.99072 0.30518,-1.34277 0.73242,-2.92968 0.42725,-1.58692 0.91553,-3.1128 l 19.22607,-57.25097 18.00538,0 -30.88379,87.52441 z"
           style=""
           id="path6865" />
        <path
           d="m 402.17583,632.68866 0,-87.52441 37.53662,0 q 8.30078,0 13.97705,2.4414 5.67627,2.38037 9.21631,6.34766 3.54004,3.90625 5.06592,8.8501 1.58691,4.94384 1.58691,10.00976 0,3.17383 -0.73242,6.46973 -0.73242,3.23486 -2.2583,6.34765 -1.52588,3.05176 -3.90625,5.73731 -2.38037,2.68555 -5.73731,4.76074 -3.2959,2.01416 -7.62939,3.17383 -4.27246,1.15967 -9.58252,1.15967 l -20.62988,0 0,32.22656 -16.90674,0 z m 38.26904,-48.27881 q 3.23486,0 5.43213,-1.0376 2.19726,-1.03759 3.54004,-2.68554 1.40381,-1.64795 2.01416,-3.72315 0.61035,-2.07519 0.61035,-4.15039 0,-1.89209 -0.54932,-3.90625 -0.48828,-2.07519 -1.83105,-3.78418 -1.28174,-1.70898 -3.54004,-2.80762 -2.2583,-1.09863 -5.67627,-1.09863 l -21.3623,0 0,23.19336 21.3623,0 z"
           style=""
           id="path6867" />
      </g>
      <g
         style="font-style:normal;font-variant:normal;font-weight:normal;font-stretch:normal;font-size:45px;line-height:125%;font-family:Overpass;-inkscape-font-specification:'Overpass, Normal';text-align:start;letter-spacing:0px;word-spacing:0px;writing-mode:lr-tb;text-anchor:start;fill:#222222;fill-opacity:1;stroke:none;stroke-width:1px;stroke-linecap:butt;stroke-linejoin:miter;stroke-opacity:1"
         id="text6730">
        <path
           d="m 260.81303,648.80255 -6.81152,31.50879 -4.21875,0 -5.44922,-20.43457 q -0.32959,-1.25244 -0.52734,-2.02148 -0.17578,-0.79102 -0.2417,-1.38428 -0.0659,0.59326 -0.2417,1.38428 -0.17578,0.76904 -0.50537,2.02148 l -5.31738,20.43457 -4.24073,0 -6.7456,-31.50879 4.81201,0 3.91113,19.40186 q 0.28565,1.3623 0.43946,2.19726 0.17578,0.83496 0.24169,1.4502 0.0659,-0.61524 0.26368,-1.42822 0.21972,-0.83497 0.54931,-2.21924 l 4.94385,-19.40186 3.93311,0 5.07568,19.35791 q 0.37353,1.36231 0.54932,2.17529 0.19775,0.81299 0.26367,1.42823 0.0659,-0.61524 0.19775,-1.4502 0.15381,-0.83496 0.41748,-2.15332 l 3.97705,-19.35791 4.72412,0 z"
           style=""
           id="path6870" />
        <path
           d="m 266.24028,680.31134 0,-23.00537 4.68018,0 0,23.00537 -4.68018,0 z m 2.3291,-26.58691 q -0.59326,0 -1.1206,-0.21973 -0.50537,-0.21973 -0.90088,-0.59326 -0.37354,-0.39551 -0.59326,-0.90088 -0.21973,-0.52734 -0.21973,-1.12061 0,-0.59326 0.21973,-1.09863 0.21972,-0.52734 0.59326,-0.90088 0.39551,-0.39551 0.90088,-0.61523 0.52734,-0.21973 1.1206,-0.21973 0.59326,0 1.09863,0.21973 0.52735,0.21972 0.90088,0.61523 0.39551,0.37354 0.61524,0.90088 0.21972,0.50537 0.21972,1.09863 0,0.59327 -0.21972,1.12061 -0.21973,0.50537 -0.61524,0.90088 -0.37353,0.37353 -0.90088,0.59326 -0.50537,0.21973 -1.09863,0.21973 z"
           style=""
           id="path6872" />
        <path
           d="m 277.92973,680.31134 0,-30.27832 4.68018,-2.21924 0,32.49756 -4.68018,0 z"
           style=""
           id="path6874" />
        <path
           d="m 289.57524,680.31134 0,-30.27832 4.68018,-2.21924 0,16.61133 6.78955,-7.11914 5.75683,0 -6.30615,6.39404 8.63526,16.61133 -5.11963,0 -6.78955,-13.22754 -2.96631,2.96631 0,10.26123 -4.68018,0 z"
           style=""
           id="path6876" />
        <path
           d="m 323.6768,680.86066 q -2.39502,0 -4.32861,-0.81299 -1.93359,-0.83496 -3.2959,-2.37305 -1.3623,-1.56006 -2.10937,-3.80127 -0.7251,-2.24121 -0.7251,-5.07568 0,-2.83447 0.74707,-5.05371 0.74707,-2.24121 2.10937,-3.7793 1.38428,-1.56006 3.2959,-2.37305 1.9336,-0.81298 4.30664,-0.81298 2.04346,0 3.82325,0.65918 1.80175,0.6372 3.14209,1.97753 1.3623,1.31836 2.13134,3.33985 0.79102,2.02148 0.79102,4.76806 0,0.74707 -0.0439,1.58204 -0.022,0.83496 -0.13183,1.45019 l -15.49073,0 q 0.022,1.42822 0.50538,2.5708 0.50537,1.12061 1.31836,1.9336 0.81298,0.79101 1.8457,1.23046 1.03271,0.41748 2.15332,0.41748 1.42822,0 2.63672,-0.59326 1.23047,-0.59326 2.13135,-1.73584 l 3.05419,3.14209 q -1.25244,1.49414 -3.208,2.417 -1.95557,0.92285 -4.65821,0.92285 z m 0,-19.95118 q -1.09863,0 -2.10937,0.32959 -1.01074,0.30762 -1.80176,1.01075 -0.76904,0.68115 -1.27441,1.80175 -0.50537,1.12061 -0.59327,2.72461 l 10.98633,0 q -0.0439,-1.604 -0.50537,-2.72461 -0.46142,-1.1206 -1.20849,-1.80175 -0.74707,-0.70313 -1.66993,-1.01075 -0.90087,-0.32959 -1.82373,-0.32959 z"
           style=""
           id="path6878" />
        <path
           d="m 346.06694,680.86066 q -1.3623,0 -2.65869,-0.26368 -1.29639,-0.26367 -2.43897,-0.74707 -1.1206,-0.48339 -2.04345,-1.16455 -0.92285,-0.70312 -1.53809,-1.56005 l 3.31787,-2.83448 q 0.35156,0.32959 0.85694,0.74707 0.50537,0.39551 1.16455,0.74707 0.65918,0.35157 1.47216,0.59326 0.81299,0.2417 1.77979,0.2417 0.87891,0 1.62598,-0.13183 0.74707,-0.13184 1.27441,-0.41748 0.54932,-0.28565 0.83496,-0.74707 0.30762,-0.4834 0.30762,-1.18653 0,-0.81298 -0.57129,-1.38427 -0.54932,-0.59327 -1.4502,-1.05469 -0.90087,-0.4834 -2.04345,-0.90088 -1.14258,-0.43945 -2.30713,-0.92285 -1.07666,-0.46143 -2.10938,-1.01074 -1.03271,-0.54932 -1.8457,-1.31836 -0.79102,-0.76905 -1.29639,-1.82373 -0.4834,-1.07666 -0.4834,-2.59278 0,-1.53808 0.61524,-2.72461 0.63721,-1.18652 1.71387,-1.97754 1.09863,-0.81298 2.54882,-1.23046 1.47217,-0.41748 3.14209,-0.41748 1.47217,0 2.70264,0.28564 1.25244,0.28564 2.24121,0.76904 1.01074,0.4834 1.77979,1.12061 0.76904,0.61523 1.34033,1.29639 l -3.38379,2.68066 q -0.30762,-0.30762 -0.74707,-0.63721 -0.41748,-0.35156 -0.98877,-0.6372 -0.57129,-0.28565 -1.29639,-0.46143 -0.72509,-0.19775 -1.64795,-0.19775 -1.49414,0 -2.37304,0.54931 -0.85694,0.54932 -0.85694,1.58203 0,0.65918 0.46143,1.16455 0.46143,0.4834 1.25244,0.90088 0.79102,0.41748 1.80176,0.81299 1.03271,0.37354 2.15332,0.81299 1.18652,0.46143 2.3291,1.03271 1.14258,0.57129 2.02149,1.40625 0.90087,0.83497 1.42822,2.02149 0.54931,1.18652 0.54931,2.85644 0,1.64795 -0.61523,2.92237 -0.61523,1.25244 -1.75781,2.10937 -1.12061,0.83496 -2.72461,1.25244 -1.58203,0.43946 -3.5376,0.43946 z"
           style=""
           id="path6880" />
        <path
           d="m 371.35747,648.80255 11.93115,0 q 2.8125,0 4.72412,0.7251 1.91162,0.70312 3.07617,1.88965 1.16455,1.16455 1.64795,2.68066 0.50537,1.51611 0.50537,3.12012 0,1.97754 -1.07666,3.73535 -1.07666,1.73584 -3.25195,2.79053 1.47217,0.52734 2.50488,1.34033 1.03272,0.79102 1.6919,1.75781 0.65918,0.9668 0.94482,2.06543 0.30762,1.07666 0.30762,2.17529 0,1.60401 -0.54932,3.25196 -0.52734,1.64795 -1.75781,2.98828 -1.23047,1.31836 -3.22998,2.15332 -1.97754,0.83496 -4.85596,0.83496 l -12.6123,0 0,-31.50879 z m 12.96386,27.18018 q 1.56006,0 2.57081,-0.41748 1.03271,-0.41748 1.62597,-1.07666 0.59326,-0.68116 0.83496,-1.51612 0.2417,-0.83496 0.2417,-1.66992 0,-0.98877 -0.28564,-1.91162 -0.28565,-0.94482 -1.03272,-1.64795 -0.74707,-0.7251 -2.04345,-1.16455 -1.27442,-0.43945 -3.25196,-0.43945 l -6.94336,0 0,9.84375 8.28369,0 z m -1.80175,-14.17237 q 1.47216,0 2.59277,-0.30761 1.12061,-0.32959 1.86768,-0.90088 0.74707,-0.59326 1.1206,-1.38428 0.37354,-0.79102 0.37354,-1.75781 0,-0.76905 -0.19776,-1.53809 -0.19775,-0.76904 -0.76904,-1.38428 -0.54932,-0.6372 -1.53809,-1.01074 -0.96679,-0.39551 -2.54882,-0.39551 l -7.38282,0 0,8.6792 6.48194,0 z"
           style=""
           id="path6882" />
        <path
           d="m 418.29106,680.31134 -4.48242,0 0,-1.97754 q -0.43945,0.46143 -1.05469,0.92285 -0.61523,0.43946 -1.40625,0.81299 -0.76904,0.35156 -1.73584,0.57129 -0.96679,0.21973 -2.10937,0.21973 -1.75782,0 -3.25196,-0.4834 -1.49414,-0.4834 -2.59277,-1.4502 -1.09863,-0.98877 -1.73584,-2.41699 -0.61523,-1.45019 -0.61523,-3.36182 0,-1.97753 0.74707,-3.40576 0.74707,-1.45019 1.97754,-2.37304 1.23046,-0.94483 2.8125,-1.38428 1.604,-0.43945 3.29589,-0.43945 1.58204,0 3.03223,0.35156 1.47217,0.32959 2.63672,1.01074 l 0,-1.27441 q 0,-1.29639 -0.30762,-2.19727 -0.28564,-0.90088 -0.90088,-1.45019 -0.59326,-0.57129 -1.51611,-0.81299 -0.92285,-0.26368 -2.19727,-0.26368 -2.15332,0 -3.73535,0.57129 -1.56006,0.57129 -2.83447,1.51612 l -1.38428,-3.84522 q 0.70313,-0.4834 1.60401,-0.90088 0.90088,-0.43945 1.97754,-0.76904 1.07666,-0.32959 2.3291,-0.50537 1.25244,-0.19775 2.68066,-0.19775 0.9668,0 1.99951,0.10986 1.03272,0.10986 1.99951,0.43945 0.98877,0.30762 1.84571,0.90088 0.8789,0.59326 1.51611,1.56006 0.65918,0.94482 1.03272,2.3291 0.37353,1.38428 0.37353,3.2959 l 0,14.89746 z m -9.93164,-3.60352 q 1.77979,0 3.14209,-0.72509 1.38428,-0.7251 2.30713,-1.73584 l 0,-3.51563 q -0.9668,-0.50537 -2.26318,-0.81299 -1.29639,-0.30761 -2.6587,-0.30761 -1.05468,0 -1.97753,0.19775 -0.92286,0.19775 -1.62598,0.63721 -0.68115,0.41748 -1.07666,1.09863 -0.39551,0.65918 -0.39551,1.604 0,1.64795 1.14258,2.61475 1.16455,0.94482 3.40576,0.94482 z"
           style=""
           id="path6884" />
        <path
           d="m 424.66313,680.31134 0,-23.00537 4.68018,0 0,2.79053 q 0.81299,-1.75782 2.10937,-2.52686 1.29639,-0.79101 3.01026,-0.79101 2.28515,0 3.86718,1.38427 l -0.68115,4.32862 q -0.63721,-0.43946 -1.51611,-0.76905 -0.85694,-0.35156 -2.10938,-0.35156 -0.79101,0 -1.62597,0.28565 -0.81299,0.26367 -1.49414,0.96679 -0.68116,0.68115 -1.12061,1.84571 -0.43945,1.14257 -0.43945,2.92236 l 0,12.91992 -4.68018,0 z"
           style=""
           id="path6886" />
        <path
           d="m 442.85649,680.31134 0,-23.00537 4.68018,0 0,2.79053 q 0.81299,-1.75782 2.10937,-2.52686 1.29639,-0.79101 3.01026,-0.79101 2.28515,0 3.86718,1.38427 l -0.68115,4.32862 q -0.63721,-0.43946 -1.51611,-0.76905 -0.85694,-0.35156 -2.10938,-0.35156 -0.79101,0 -1.62597,0.28565 -0.81299,0.26367 -1.49414,0.96679 -0.68116,0.68115 -1.12061,1.84571 -0.43945,1.14257 -0.43945,2.92236 l 0,12.91992 -4.68018,0 z"
           style=""
           id="path6888" />
        <path
           d="m 470.36626,680.86066 q -2.39502,0 -4.32862,-0.81299 -1.93359,-0.83496 -3.2959,-2.37305 -1.3623,-1.56006 -2.10937,-3.80127 -0.7251,-2.24121 -0.7251,-5.07568 0,-2.83447 0.74707,-5.05371 0.74707,-2.24121 2.10938,-3.7793 1.38427,-1.56006 3.2959,-2.37305 1.93359,-0.81298 4.30664,-0.81298 2.04345,0 3.82324,0.65918 1.80176,0.6372 3.14209,1.97753 1.3623,1.31836 2.13135,3.33985 0.79101,2.02148 0.79101,4.76806 0,0.74707 -0.0439,1.58204 -0.022,0.83496 -0.13184,1.45019 l -15.49072,0 q 0.022,1.42822 0.50537,2.5708 0.50537,1.12061 1.31836,1.9336 0.81299,0.79101 1.8457,1.23046 1.03272,0.41748 2.15332,0.41748 1.42822,0 2.63672,-0.59326 1.23047,-0.59326 2.13135,-1.73584 l 3.0542,3.14209 q -1.25244,1.49414 -3.20801,2.417 -1.95557,0.92285 -4.6582,0.92285 z m 0,-19.95118 q -1.09864,0 -2.10938,0.32959 -1.01074,0.30762 -1.80176,1.01075 -0.76904,0.68115 -1.27441,1.80175 -0.50537,1.12061 -0.59326,2.72461 l 10.98633,0 q -0.0439,-1.604 -0.50537,-2.72461 -0.46143,-1.1206 -1.2085,-1.80175 -0.74707,-0.70313 -1.66992,-1.01075 -0.90088,-0.32959 -1.82373,-0.32959 z"
           style=""
           id="path6890" />
        <path
           d="m 479.39702,686.15607 17.68799,-37.88086 4.72412,0 -17.68799,37.88086 -4.72412,0 z"
           style=""
           id="path6892" />
        <path
           d="m 521.07915,655.96564 q -0.28565,-0.68116 -0.79102,-1.25244 -0.50537,-0.59327 -1.23047,-1.01075 -0.72509,-0.43945 -1.66992,-0.68115 -0.92285,-0.2417 -2.06543,-0.2417 -2.26318,0 -3.5376,0.98877 -1.27441,0.98877 -1.27441,2.79053 0,1.1206 0.70312,1.91162 0.70313,0.76904 1.84571,1.3623 1.14258,0.59327 2.59277,1.09864 1.47217,0.4834 2.98828,1.07666 1.53809,0.57129 2.98828,1.34033 1.47217,0.74707 2.61475,1.8457 1.14258,1.07666 1.8457,2.61475 0.70313,1.51611 0.70313,3.64746 0,2.26318 -0.83496,4.021 -0.81299,1.73584 -2.26319,2.94433 -1.45019,1.18653 -3.42773,1.82373 -1.95557,0.61524 -4.21875,0.61524 -2.10938,0 -3.95508,-0.54932 -1.82373,-0.52734 -3.31787,-1.51611 -1.47217,-1.01075 -2.54883,-2.417 -1.07666,-1.42822 -1.66992,-3.18603 l 4.4165,-1.604 q 0.4834,1.05468 1.18653,1.93359 0.72509,0.87891 1.64795,1.51611 0.92285,0.61524 2.02148,0.9668 1.12061,0.35156 2.39502,0.35156 1.27441,0 2.3291,-0.30761 1.05469,-0.30762 1.80176,-0.92286 0.74707,-0.61523 1.16455,-1.51611 0.41748,-0.92285 0.41748,-2.10937 0,-1.40625 -0.70312,-2.35108 -0.70313,-0.9668 -1.84571,-1.66992 -1.14258,-0.70313 -2.61474,-1.23047 -1.4502,-0.52734 -2.98828,-1.07666 -1.51612,-0.54932 -2.98829,-1.23047 -1.45019,-0.68115 -2.59277,-1.66992 -1.14258,-0.98877 -1.8457,-2.37305 -0.70313,-1.38427 -0.70313,-3.38379 0,-1.66992 0.65918,-3.16406 0.68115,-1.49414 1.95557,-2.61474 1.27441,-1.14258 3.14209,-1.80176 1.86767,-0.65918 4.26269,-0.65918 1.99952,0 3.62549,0.4834 1.62598,0.46142 2.83447,1.29638 1.23047,0.83496 2.04346,1.97754 0.81299,1.14258 1.23047,2.48291 l -4.32861,1.4502 z"
           style=""
           id="path6894" />
        <path
           d="m 541.75542,680.86066 q -2.30713,0 -4.17481,-0.81299 -1.8457,-0.81299 -3.16406,-2.35108 -1.29639,-1.56005 -1.99951,-3.77929 -0.70313,-2.24121 -0.70313,-5.07569 0,-2.83447 0.70313,-5.07568 0.70312,-2.24121 1.99951,-3.7793 1.31836,-1.56006 3.16406,-2.37304 1.86768,-0.83496 4.17481,-0.83496 3.208,0 5.42724,1.42822 2.24121,1.42822 3.25196,4.50439 l -4.43848,1.53809 q -0.50537,-1.31836 -1.53809,-2.13135 -1.03271,-0.83496 -2.52685,-0.83496 -1.31836,0 -2.3291,0.52734 -1.01075,0.52735 -1.71387,1.51612 -0.68115,0.96679 -1.05469,2.37304 -0.35156,1.38428 -0.35156,3.14209 0,1.75782 0.35156,3.16407 0.37354,1.38427 1.03272,2.35107 0.68115,0.9668 1.64795,1.49414 0.98877,0.50537 2.24121,0.50537 1.58203,0 2.70263,-0.8789 1.14258,-0.87891 1.62598,-2.50489 l 4.43848,1.40625 q -0.92285,3.20801 -3.14209,4.85596 -2.19727,1.62598 -5.625,1.62598 z"
           style=""
           id="path6896" />
        <path
           d="m 556.14751,680.31134 0,-23.00537 4.68017,0 0,2.79053 q 0.81299,-1.75782 2.10938,-2.52686 1.29638,-0.79101 3.01025,-0.79101 2.28516,0 3.86719,1.38427 l -0.68115,4.32862 q -0.63721,-0.43946 -1.51612,-0.76905 -0.85693,-0.35156 -2.10937,-0.35156 -0.79102,0 -1.62598,0.28565 -0.81299,0.26367 -1.49414,0.96679 -0.68115,0.68115 -1.1206,1.84571 -0.43946,1.14257 -0.43946,2.92236 l 0,12.91992 -4.68017,0 z"
           style=""
           id="path6898" />
        <path
           d="m 591.96294,680.31134 -4.48243,0 0,-1.97754 q -0.43945,0.46143 -1.05468,0.92285 -0.61524,0.43946 -1.40625,0.81299 -0.76905,0.35156 -1.73584,0.57129 -0.9668,0.21973 -2.10938,0.21973 -1.75781,0 -3.25195,-0.4834 -1.49414,-0.4834 -2.59277,-1.4502 -1.09864,-0.98877 -1.73584,-2.41699 -0.61524,-1.45019 -0.61524,-3.36182 0,-1.97753 0.74707,-3.40576 0.74707,-1.45019 1.97754,-2.37304 1.23047,-0.94483 2.8125,-1.38428 1.604,-0.43945 3.2959,-0.43945 1.58203,0 3.03223,0.35156 1.47216,0.32959 2.63671,1.01074 l 0,-1.27441 q 0,-1.29639 -0.30761,-2.19727 -0.28565,-0.90088 -0.90088,-1.45019 -0.59326,-0.57129 -1.51611,-0.81299 -0.92286,-0.26368 -2.19727,-0.26368 -2.15332,0 -3.73535,0.57129 -1.56006,0.57129 -2.83447,1.51612 l -1.38428,-3.84522 q 0.70312,-0.4834 1.604,-0.90088 0.90088,-0.43945 1.97754,-0.76904 1.07666,-0.32959 2.3291,-0.50537 1.25244,-0.19775 2.68067,-0.19775 0.96679,0 1.99951,0.10986 1.03271,0.10986 1.99951,0.43945 0.98877,0.30762 1.8457,0.90088 0.87891,0.59326 1.51612,1.56006 0.65918,0.94482 1.03271,2.3291 0.37354,1.38428 0.37354,3.2959 l 0,14.89746 z m -9.93164,-3.60352 q 1.77978,0 3.14209,-0.72509 1.38427,-0.7251 2.30712,-1.73584 l 0,-3.51563 q -0.96679,-0.50537 -2.26318,-0.81299 -1.29639,-0.30761 -2.65869,-0.30761 -1.05469,0 -1.97754,0.19775 -0.92285,0.19775 -1.62598,0.63721 -0.68115,0.41748 -1.07666,1.09863 -0.3955,0.65918 -0.3955,1.604 0,1.64795 1.14257,2.61475 1.16455,0.94482 3.40577,0.94482 z"
           style=""
           id="path6900" />
        <path
           d="m 612.55132,680.31134 0,-13.73291 q 0,-1.4502 -0.35157,-2.46094 -0.35156,-1.03271 -0.96679,-1.66992 -0.61524,-0.65918 -1.4502,-0.94482 -0.83496,-0.30762 -1.82373,-0.30762 -1.05469,0 -1.95557,0.28564 -0.90088,0.26368 -1.56005,0.87891 -0.65918,0.61523 -1.05469,1.64795 -0.37354,1.01074 -0.37354,2.48291 l 0,13.8208 -4.68017,0 0,-23.00537 4.68017,0 0,2.21924 q 1.12061,-1.42823 2.5708,-2.0874 1.4502,-0.65918 3.36182,-0.65918 1.80176,0 3.31787,0.52734 1.51611,0.50537 2.61475,1.66992 1.1206,1.16455 1.73584,3.03223 0.61523,1.86767 0.61523,4.57031 l 0,13.73291 -4.68017,0 z"
           style=""
           id="path6902" />
        <path
           d="m 630.39311,680.86066 q -1.3623,0 -2.35107,-0.41748 -0.9668,-0.39551 -1.60401,-1.14258 -0.61523,-0.74707 -0.90087,-1.80176 -0.28565,-1.07666 -0.28565,-2.37305 l 0,-13.75488 -3.55957,0 0,-4.06494 3.55957,0 0,-7.229 4.68018,-2.26319 0,9.49219 5.44922,0 0,4.06494 -5.44922,0 0,12.54639 q 0,0.57129 0.0879,1.05468 0.10986,0.4834 0.35156,0.83497 0.26367,0.35156 0.70312,0.54931 0.43946,0.17578 1.12061,0.17578 1.66992,0 3.40576,-1.07666 l -0.57129,4.35059 q -0.96679,0.4834 -2.10937,0.76904 -1.14258,0.28565 -2.52686,0.28565 z"
           style=""
           id="path6904" />
        <path
           d="m 650.14653,680.86066 q -2.41699,0 -4.37256,-0.81299 -1.93359,-0.81299 -3.2959,-2.35108 -1.3623,-1.56005 -2.10937,-3.77929 -0.7251,-2.24121 -0.7251,-5.07569 0,-2.83447 0.7251,-5.07568 0.74707,-2.24121 2.10937,-3.7793 1.36231,-1.56006 3.2959,-2.37304 1.95557,-0.83496 4.37256,-0.83496 2.39502,0 4.35059,0.83496 1.95556,0.81298 3.31787,2.37304 1.3623,1.53809 2.10937,3.7793 0.74707,2.24121 0.74707,5.07568 0,2.83448 -0.74707,5.07569 -0.74707,2.21924 -2.10937,3.77929 -1.36231,1.53809 -3.31787,2.35108 -1.95557,0.81299 -4.35059,0.81299 z m 0,-4.41651 q 1.34033,0 2.41699,-0.52734 1.09864,-0.52734 1.84571,-1.49414 0.76904,-0.98877 1.16455,-2.39502 0.41748,-1.40625 0.41748,-3.18604 0,-1.77978 -0.41748,-3.18603 -0.39551,-1.42822 -1.16455,-2.41699 -0.74707,-0.98877 -1.84571,-1.51612 -1.07666,-0.52734 -2.41699,-0.52734 -1.34033,0 -2.41699,0.52734 -1.07666,0.52735 -1.84571,1.51612 -0.74707,0.98877 -1.16455,2.41699 -0.3955,1.40625 -0.3955,3.18603 0,1.77979 0.3955,3.18604 0.41748,1.40625 1.16455,2.39502 0.76905,0.9668 1.84571,1.49414 1.07666,0.52734 2.41699,0.52734 z"
           style=""
           id="path6906" />
        <path
           d="m 680.49077,680.31134 0,-13.73291 q 0,-1.4502 -0.35156,-2.46094 -0.35157,-1.03271 -0.9668,-1.66992 -0.61524,-0.65918 -1.4502,-0.94482 -0.83496,-0.30762 -1.82373,-0.30762 -1.05468,0 -1.95556,0.28564 -0.90088,0.26368 -1.56006,0.87891 -0.65918,0.61523 -1.05469,1.64795 -0.37353,1.01074 -0.37353,2.48291 l 0,13.8208 -4.68018,0 0,-23.00537 4.68018,0 0,2.21924 q 1.1206,-1.42823 2.5708,-2.0874 1.45019,-0.65918 3.36181,-0.65918 1.80176,0 3.31787,0.52734 1.51612,0.50537 2.61475,1.66992 1.12061,1.16455 1.73584,3.03223 0.61523,1.86767 0.61523,4.57031 l 0,13.73291 -4.68017,0 z"
           style=""
           id="path6908" />
      </g>
    </g>
  </g>
  <g
     inkscape:groupmode="layer"
     id="layer7"
     inkscape:label="Date"
     transform="translate(-201.51371,-431.95818)">
    <g
       style="font-style:normal;font-variant:normal;font-weight:300;font-stretch:normal;font-size:15px;line-height:125%;font-family:Overpass;-inkscape-font-specification:'Overpass, Light';text-align:start;letter-spacing:0px;word-spacing:0px;writing-mode:lr-tb;text-anchor:start;fill:#222222;fill-opacity:1;stroke:none;stroke-width:1px;stroke-linecap:butt;stroke-linejoin:miter;stroke-opacity:1"
       id="text6734">
      <path
         d="m 228.29871,467.78818 0,-8.595 -1.785,0 0,-0.6 q 0.795,0 1.35,-0.27 0.555,-0.285 0.81,-1.035 l 0.675,0 0,10.5 -1.05,0 z"
         style=""
         id="path6911" />
      <path
         d="m 236.18051,467.78818 0,-2.835 -5.1,0 0,-0.555 5.52,-7.11 0.63,0 0,6.765 1.59,0 0,0.9 -1.59,0 0,2.835 -1.05,0 z m 0,-3.735 0,-4.95 -3.735,4.95 3.735,0 z"
         style=""
         id="path6913" />
      <path
         d="m 248.3059,467.02318 q 0.9,0 1.515,-0.405 0.63,-0.405 1.005,-1.05 0.39,-0.645 0.555,-1.44 0.18,-0.81 0.18,-1.59 0,-0.855 -0.18,-1.665 -0.165,-0.81 -0.555,-1.425 -0.375,-0.63 -1.005,-1.005 -0.615,-0.39 -1.515,-0.39 -0.9,0 -1.53,0.405 -0.615,0.405 -1.005,1.05 -0.375,0.645 -0.555,1.455 -0.165,0.795 -0.165,1.575 0,0.855 0.165,1.665 0.18,0.81 0.555,1.44 0.39,0.615 1.005,1.005 0.63,0.375 1.53,0.375 z m 0,0.945 q -1.215,0 -2.055,-0.48 -0.825,-0.48 -1.335,-1.26 -0.51,-0.78 -0.735,-1.74 -0.225,-0.975 -0.225,-1.95 0,-0.975 0.225,-1.935 0.225,-0.975 0.735,-1.755 0.51,-0.78 1.335,-1.26 0.84,-0.48 2.055,-0.48 1.215,0 2.04,0.48 0.84,0.48 1.35,1.26 0.51,0.78 0.735,1.755 0.225,0.96 0.225,1.935 0,0.975 -0.225,1.95 -0.225,0.96 -0.735,1.74 -0.51,0.78 -1.35,1.26 -0.825,0.48 -2.04,0.48 z"
         style=""
         id="path6915" />
      <path
         d="m 257.39566,467.96818 q -1.395,0 -2.22,-1.035 -0.81,-1.05 -0.81,-2.97 0,-1.905 0.825,-2.955 0.84,-1.065 2.325,-1.065 0.855,0 1.5,0.42 0.645,0.405 0.96,1.185 l -0.96,0.375 q -0.18,-0.435 -0.555,-0.735 -0.36,-0.3 -0.99,-0.3 -0.54,0 -0.915,0.225 -0.375,0.21 -0.63,0.615 -0.24,0.39 -0.36,0.96 -0.105,0.57 -0.105,1.275 0,1.455 0.48,2.265 0.48,0.795 1.5,0.795 0.63,0 1.065,-0.315 0.435,-0.315 0.63,-0.855 l 0.945,0.36 q -0.27,0.81 -0.99,1.29 -0.705,0.465 -1.695,0.465 z"
         style=""
         id="path6917" />
      <path
         d="m 263.87121,467.96818 q -0.825,0 -1.17,-0.495 -0.345,-0.51 -0.345,-1.26 l 0,-5.145 -1.305,0 0,-0.945 1.305,0 0,-2.64 1.05,-0.525 0,3.165 1.95,0 0,0.945 -1.95,0 0,4.695 q 0,0.255 0.015,0.48 0.03,0.21 0.12,0.375 0.09,0.165 0.255,0.27 0.165,0.09 0.435,0.09 0.39,0 0.66,-0.15 0.285,-0.15 0.495,-0.3 l -0.12,1.095 q -0.3,0.165 -0.63,0.255 -0.33,0.09 -0.765,0.09 z"
         style=""
         id="path6919" />
      <path
         d="m 270.66035,467.78818 q 0,-0.99 0.285,-1.695 0.285,-0.72 0.735,-1.26 0.45,-0.54 1.02,-0.945 0.57,-0.405 1.14,-0.795 0.495,-0.33 0.945,-0.645 0.45,-0.33 0.795,-0.69 0.36,-0.36 0.57,-0.765 0.21,-0.42 0.21,-0.93 0,-0.855 -0.6,-1.425 -0.585,-0.585 -1.68,-0.585 -1.065,0 -1.605,0.48 -0.54,0.465 -0.735,1.215 l -0.93,-0.42 q 0.12,-0.465 0.405,-0.87 0.285,-0.405 0.72,-0.705 0.435,-0.3 0.99,-0.465 0.57,-0.18 1.245,-0.18 1.56,0 2.415,0.81 0.87,0.795 0.87,2.145 0,0.72 -0.285,1.275 -0.27,0.555 -0.72,1.02 -0.435,0.45 -0.99,0.84 -0.555,0.375 -1.125,0.735 -0.45,0.3 -0.87,0.6 -0.42,0.285 -0.78,0.63 -0.345,0.33 -0.585,0.735 -0.24,0.39 -0.33,0.885 l 5.775,0 0,1.005 -6.885,0 z"
         style=""
         id="path6921" />
      <path
         d="m 283.23949,467.96818 q -1.035,0 -1.725,-0.48 -0.69,-0.48 -1.11,-1.245 -0.405,-0.78 -0.585,-1.74 -0.18,-0.975 -0.18,-1.965 0,-0.54 0.06,-1.155 0.06,-0.63 0.21,-1.23 0.165,-0.6 0.42,-1.155 0.27,-0.555 0.675,-0.975 0.405,-0.42 0.945,-0.66 0.555,-0.255 1.29,-0.255 1.035,0 1.725,0.495 0.69,0.48 1.095,1.26 0.42,0.78 0.6,1.755 0.18,0.96 0.18,1.92 0,0.555 -0.075,1.17 -0.06,0.615 -0.225,1.23 -0.15,0.6 -0.42,1.155 -0.255,0.54 -0.66,0.96 -0.405,0.42 -0.96,0.675 -0.54,0.24 -1.26,0.24 z m 0,-0.945 q 0.78,0 1.26,-0.42 0.495,-0.435 0.765,-1.095 0.27,-0.66 0.36,-1.455 0.09,-0.795 0.09,-1.515 0,-0.81 -0.105,-1.605 -0.105,-0.81 -0.39,-1.44 -0.285,-0.645 -0.765,-1.035 -0.48,-0.405 -1.215,-0.405 -0.795,0 -1.29,0.435 -0.48,0.435 -0.75,1.095 -0.27,0.66 -0.375,1.455 -0.09,0.78 -0.09,1.5 0,0.825 0.105,1.635 0.105,0.795 0.39,1.44 0.285,0.63 0.765,1.02 0.495,0.39 1.245,0.39 z"
         style=""
         id="path6923" />
      <path
         d="m 290.2616,467.78818 0,-8.595 -1.785,0 0,-0.6 q 0.795,0 1.35,-0.27 0.555,-0.285 0.81,-1.035 l 0.675,0 0,10.5 -1.05,0 z"
         style=""
         id="path6925" />
      <path
         d="m 295.34637,467.78818 q 0.015,-1.23 0.15,-2.43 0.15,-1.2 0.51,-2.385 0.375,-1.185 0.99,-2.37 0.615,-1.2 1.575,-2.415 l -5.085,0 0,-0.9 6.285,0 0,0.69 q -1.095,1.26 -1.755,2.595 -0.66,1.32 -1.02,2.61 -0.36,1.275 -0.48,2.46 -0.12,1.185 -0.12,2.145 l -1.05,0 z"
         style=""
         id="path6927" />
    </g>
  </g>
</svg>
