<?xml version="1.0" encoding="UTF-8" standalone="no"?>
<!-- Created with Inkscape (http://www.inkscape.org/) -->

<svg
   xmlns:dc="http://purl.org/dc/elements/1.1/"
   xmlns:cc="http://creativecommons.org/ns#"
   xmlns:rdf="http://www.w3.org/1999/02/22-rdf-syntax-ns#"
   xmlns:svg="http://www.w3.org/2000/svg"
   xmlns="http://www.w3.org/2000/svg"
   xmlns:sodipodi="http://sodipodi.sourceforge.net/DTD/sodipodi-0.dtd"
   xmlns:inkscape="http://www.inkscape.org/namespaces/inkscape"
   width="398.15027"
   height="185.82135"
   viewBox="0 0 398.15027 185.82135"
   id="svg2"
   version="1.1"
   inkscape:version="0.91 r13725"
   sodipodi:docname="BFL.svg"
   inkscape:export-filename="C:\Users\paulb\Dropbox\Projects\Terminal Silhouettes\Silhouettes\png-portfolio\BFL.png"
   inkscape:export-xdpi="90"
   inkscape:export-ydpi="90">
  <title
     id="title4147">Terminal Silhouette of BFL (Bakersfield)</title>
  <defs
     id="defs4" />
  <sodipodi:namedview
     id="base"
     pagecolor="#ffffff"
     bordercolor="#666666"
     borderopacity="1.0"
     inkscape:pageopacity="1"
     inkscape:pageshadow="2"
     inkscape:zoom="0.7"
     inkscape:cx="236.70453"
     inkscape:cy="362.79583"
     inkscape:document-units="px"
     inkscape:current-layer="layer3"
     showgrid="false"
     units="px"
     inkscape:window-width="1920"
     inkscape:window-height="1137"
     inkscape:window-x="1912"
     inkscape:window-y="-8"
     inkscape:window-maximized="1"
     fit-margin-top="25"
     fit-margin-left="25"
     fit-margin-right="25"
     fit-margin-bottom="25"
     showguides="true"
     inkscape:guide-bbox="true" />
  <metadata
     id="metadata7">
    <rdf:RDF>
      <cc:Work
         rdf:about="">
        <dc:format>image/svg+xml</dc:format>
        <dc:type
           rdf:resource="http://purl.org/dc/dcmitype/StillImage" />
        <dc:title>Terminal Silhouette of BFL (Bakersfield)</dc:title>
      </cc:Work>
    </rdf:RDF>
  </metadata>
  <g
     inkscape:groupmode="layer"
     id="layer2"
     inkscape:label="Terminal"
     transform="translate(715.82103,-307.92037)">
    <path
       style="opacity:1;fill:#dddddd;fill-opacity:1;stroke:#222222;stroke-width:1.5;stroke-linejoin:miter;stroke-miterlimit:4;stroke-dasharray:none;stroke-dashoffset:0;stroke-opacity:1"
       d="m -416.11733,340.73122 -8.1144,7.92892 4.23827,4.33747 -2.70281,2.64077 10.13167,10.36848 9.18444,9.39889 a 24.111921,24.111921 0 0 0 -3.2e-4,3.1e-4 l 6.25586,6.40196 -5.50513,5.37948 -4.64701,-4.75534 a 24.111921,24.111921 0 0 1 0,-3.1e-4 l -4.84446,-4.95751 -10.86098,10.61252 7.66535,7.84485 a 31.581184,31.581184 0 0 0 21.95783,24.53656 l 0,7.9812 -7.83099,0 0,33.51285 22.34169,0 0,-33.51285 -7.48555,0 0,-6.70301 0,-2.81302 a 31.581184,31.581184 0 0 0 2.07301,0.0989 31.581184,31.581184 0 0 0 7.60835,-1.00139 l 16.04365,16.41869 10.85719,-10.60938 -1.57355,-1.61041 7.59387,-7.42035 -17.62257,-18.03478 a 24.111921,24.111921 0 0 0 0.87699,-6.34276 24.111921,24.111921 0 0 0 -17.09415,-23.04487 l -24.48397,-25.05615 -6.39378,6.24798 -7.6685,-7.84768 z"
       id="path4150"
       inkscape:connector-curvature="0" />
  </g>
  <g
     inkscape:groupmode="layer"
     id="layer3"
     inkscape:label="Label"
     transform="translate(-547.75037,-456.80817)">
    <g
       style="font-style:normal;font-variant:normal;font-weight:bold;font-stretch:normal;font-size:125px;line-height:125%;font-family:Overpass;-inkscape-font-specification:'Overpass, Bold';text-align:start;letter-spacing:0px;word-spacing:0px;writing-mode:lr-tb;text-anchor:start;fill:#dddddd;fill-opacity:1;stroke:#222222;stroke-width:0.25;stroke-linecap:butt;stroke-linejoin:miter;stroke-miterlimit:4;stroke-dasharray:none;stroke-opacity:1"
       id="text4240">
      <path
         d="m 572.87537,481.93317 38.39111,0 q 7.9956,0 13.42773,2.01416 5.43213,2.01416 8.72803,5.31006 3.35693,3.29589 4.76074,7.50732 1.46485,4.21143 1.46485,8.66699 0,2.80762 -0.61035,5.43213 -0.54932,2.62451 -1.83106,4.94385 -1.28174,2.2583 -3.2959,4.21142 -2.01416,1.89209 -4.88281,3.2959 3.72314,1.40381 6.28662,3.66211 2.62451,2.19727 4.21143,4.88281 1.64795,2.68555 2.38037,5.67627 0.73242,2.99073 0.73242,5.92041 0,4.63868 -1.58691,9.27735 -1.52588,4.63867 -5.06592,8.36181 -3.47901,3.72315 -9.15528,6.04248 -5.61523,2.31934 -13.79394,2.31934 l -40.16113,0 0,-87.52441 z m 41.01562,71.77734 q 3.41797,0 5.67627,-0.91553 2.2583,-0.97656 3.54004,-2.4414 1.34277,-1.46485 1.89209,-3.2959 0.54932,-1.83106 0.54932,-3.60108 0,-2.13623 -0.67139,-4.15039 -0.61035,-2.07519 -2.31934,-3.66211 -1.70898,-1.58691 -4.63867,-2.56347 -2.92969,-0.97657 -7.50732,-0.97657 l -20.62989,0 0,21.60645 24.10889,0 z m -4.63867,-37.35352 q 6.71387,0 9.94873,-2.56347 3.2959,-2.62451 3.2959,-6.83594 0,-1.64795 -0.42725,-3.2959 -0.42724,-1.64795 -1.64795,-2.99072 -1.15967,-1.34277 -3.2959,-2.13623 -2.13623,-0.85449 -5.61523,-0.85449 l -21.72852,0 0,18.67675 19.47022,0 z"
         style=""
         id="path4280" />
      <path
         d="m 661.98669,569.45758 0,-87.52441 58.65479,0 0,16.05224 -41.74805,0 0,18.37158 26.48926,0 0,15.99122 -26.48926,0 0,37.10937 -16.90674,0 z"
         style=""
         id="path4282" />
      <path
         d="m 736.20544,569.45758 0,-87.52441 16.90674,0 0,71.28906 42.23633,0 0,16.23535 -59.14307,0 z"
         style=""
         id="path4284" />
    </g>
    <g
       style="font-style:normal;font-variant:normal;font-weight:normal;font-stretch:normal;font-size:45px;line-height:125%;font-family:Overpass;-inkscape-font-specification:'Overpass, Normal';text-align:start;letter-spacing:0px;word-spacing:0px;writing-mode:lr-tb;text-anchor:start;fill:#222222;fill-opacity:1;stroke:none;stroke-width:1px;stroke-linecap:butt;stroke-linejoin:miter;stroke-opacity:1"
       id="text4244">
      <path
         d="m 572.75037,585.57141 11.93115,0 q 2.8125,0 4.72412,0.7251 1.91162,0.70312 3.07617,1.88965 1.16455,1.16455 1.64795,2.68066 0.50537,1.51611 0.50537,3.12012 0,1.97754 -1.07666,3.73535 -1.07666,1.73584 -3.25195,2.79053 1.47217,0.52734 2.50488,1.34033 1.03272,0.79102 1.6919,1.75781 0.65918,0.9668 0.94482,2.06543 0.30762,1.07666 0.30762,2.17529 0,1.60401 -0.54932,3.25196 -0.52734,1.64795 -1.75781,2.98828 -1.23047,1.31836 -3.22998,2.15332 -1.97754,0.83496 -4.85596,0.83496 l -12.6123,0 0,-31.50879 z m 12.96386,27.18018 q 1.56006,0 2.5708,-0.41748 1.03272,-0.41748 1.62598,-1.07666 0.59326,-0.68116 0.83496,-1.51612 0.2417,-0.83496 0.2417,-1.66992 0,-0.98877 -0.28564,-1.91162 -0.28565,-0.94482 -1.03272,-1.64795 -0.74707,-0.7251 -2.04346,-1.16455 -1.27441,-0.43945 -3.25195,-0.43945 l -6.94336,0 0,9.84375 8.28369,0 z m -1.80175,-14.17237 q 1.47216,0 2.59277,-0.30761 1.1206,-0.32959 1.86767,-0.90088 0.74708,-0.59326 1.12061,-1.38428 0.37354,-0.79102 0.37354,-1.75781 0,-0.76905 -0.19776,-1.53809 -0.19775,-0.76904 -0.76904,-1.38428 -0.54932,-0.6372 -1.53809,-1.01074 -0.96679,-0.39551 -2.54883,-0.39551 l -7.38281,0 0,8.6792 6.48194,0 z"
         style=""
         id="path4259" />
      <path
         d="m 619.68396,617.0802 -4.48242,0 0,-1.97754 q -0.43946,0.46143 -1.05469,0.92285 -0.61523,0.43946 -1.40625,0.81299 -0.76904,0.35156 -1.73584,0.57129 -0.9668,0.21973 -2.10937,0.21973 -1.75782,0 -3.25196,-0.4834 -1.49414,-0.4834 -2.59277,-1.4502 -1.09863,-0.98877 -1.73584,-2.41699 -0.61524,-1.45019 -0.61524,-3.36182 0,-1.97753 0.74708,-3.40576 0.74707,-1.45019 1.97753,-2.37304 1.23047,-0.94483 2.8125,-1.38428 1.60401,-0.43945 3.2959,-0.43945 1.58203,0 3.03223,0.35156 1.47217,0.32959 2.63672,1.01074 l 0,-1.27441 q 0,-1.29639 -0.30762,-2.19727 -0.28564,-0.90088 -0.90088,-1.4502 -0.59326,-0.57128 -1.51611,-0.81298 -0.92285,-0.26368 -2.19727,-0.26368 -2.15332,0 -3.73535,0.57129 -1.56006,0.57129 -2.83447,1.51612 l -1.38428,-3.84522 q 0.70313,-0.4834 1.60401,-0.90088 0.90087,-0.43945 1.97753,-0.76904 1.07666,-0.32959 2.32911,-0.50537 1.25244,-0.19775 2.68066,-0.19775 0.9668,0 1.99951,0.10986 1.03272,0.10986 1.99951,0.43945 0.98877,0.30762 1.84571,0.90088 0.8789,0.59326 1.51611,1.56006 0.65918,0.94482 1.03271,2.3291 0.37354,1.38428 0.37354,3.2959 l 0,14.89746 z m -9.93164,-3.60352 q 1.77978,0 3.14209,-0.72509 1.38428,-0.7251 2.30713,-1.73584 l 0,-3.51563 q -0.9668,-0.50537 -2.26319,-0.81299 -1.29638,-0.30761 -2.65869,-0.30761 -1.05468,0 -1.97754,0.19775 -0.92285,0.19775 -1.62597,0.63721 -0.68115,0.41748 -1.07666,1.09863 -0.39551,0.65918 -0.39551,1.604 0,1.64795 1.14258,2.61475 1.16455,0.94482 3.40576,0.94482 z"
         style=""
         id="path4261" />
      <path
         d="m 626.05603,617.0802 0,-30.27832 4.68018,-2.21924 0,16.61133 6.78955,-7.11914 5.75683,0 -6.30615,6.39404 8.63525,16.61133 -5.11962,0 -6.78956,-13.22754 -2.9663,2.96631 0,10.26123 -4.68018,0 z"
         style=""
         id="path4263" />
      <path
         d="m 660.15759,617.62952 q -2.39502,0 -4.32861,-0.81299 -1.93359,-0.83496 -3.2959,-2.37305 -1.3623,-1.56006 -2.10937,-3.80127 -0.7251,-2.24121 -0.7251,-5.07568 0,-2.83447 0.74707,-5.05371 0.74707,-2.24121 2.10937,-3.7793 1.38428,-1.56006 3.2959,-2.37305 1.9336,-0.81298 4.30664,-0.81298 2.04346,0 3.82324,0.65918 1.80176,0.6372 3.14209,1.97753 1.36231,1.31836 2.13135,3.33985 0.79102,2.02148 0.79102,4.76806 0,0.74707 -0.0439,1.58204 -0.022,0.83496 -0.13183,1.45019 l -15.49073,0 q 0.022,1.42822 0.50538,2.5708 0.50537,1.12061 1.31835,1.9336 0.81299,0.79101 1.84571,1.23046 1.03271,0.41748 2.15332,0.41748 1.42822,0 2.63672,-0.59326 1.23047,-0.59326 2.13134,-1.73584 l 3.0542,3.14209 q -1.25244,1.49414 -3.208,2.417 -1.95557,0.92285 -4.65821,0.92285 z m 0,-19.95118 q -1.09863,0 -2.10937,0.32959 -1.01074,0.30762 -1.80176,1.01075 -0.76904,0.68115 -1.27441,1.80175 -0.50538,1.12061 -0.59327,2.72461 l 10.98633,0 q -0.0439,-1.604 -0.50537,-2.72461 -0.46142,-1.1206 -1.20849,-1.80175 -0.74708,-0.70313 -1.66993,-1.01075 -0.90088,-0.32959 -1.82373,-0.32959 z"
         style=""
         id="path4265" />
      <path
         d="m 675.45056,617.0802 0,-23.00537 4.68018,0 0,2.79053 q 0.81299,-1.75782 2.10937,-2.52686 1.29639,-0.79101 3.01026,-0.79101 2.28515,0 3.86718,1.38427 l -0.68115,4.32862 q -0.63721,-0.43946 -1.51611,-0.76905 -0.85694,-0.35156 -2.10938,-0.35156 -0.79101,0 -1.62597,0.28565 -0.81299,0.26367 -1.49414,0.96679 -0.68116,0.68115 -1.12061,1.84571 -0.43945,1.14257 -0.43945,2.92236 l 0,12.91992 -4.68018,0 z"
         style=""
         id="path4267" />
      <path
         d="m 700.74109,617.62952 q -1.36231,0 -2.65869,-0.26368 -1.29639,-0.26367 -2.43897,-0.74707 -1.1206,-0.48339 -2.04345,-1.16455 -0.92286,-0.70312 -1.53809,-1.56005 l 3.31787,-2.83448 q 0.35156,0.32959 0.85693,0.74707 0.50538,0.39551 1.16456,0.74707 0.65917,0.35157 1.47216,0.59326 0.81299,0.2417 1.77979,0.2417 0.8789,0 1.62597,-0.13183 0.74708,-0.13184 1.27442,-0.41748 0.54932,-0.28565 0.83496,-0.74707 0.30762,-0.4834 0.30762,-1.18653 0,-0.81298 -0.57129,-1.38427 -0.54932,-0.59327 -1.4502,-1.05469 -0.90088,-0.4834 -2.04345,-0.90088 -1.14258,-0.43945 -2.30713,-0.92285 -1.07666,-0.46143 -2.10938,-1.01074 -1.03271,-0.54932 -1.8457,-1.31836 -0.79102,-0.76905 -1.29639,-1.82373 -0.4834,-1.07666 -0.4834,-2.59278 0,-1.53808 0.61524,-2.72461 0.6372,-1.18652 1.71386,-1.97754 1.09864,-0.81298 2.54883,-1.23046 1.47217,-0.41748 3.14209,-0.41748 1.47217,0 2.70264,0.28564 1.25244,0.28564 2.24121,0.76904 1.01074,0.4834 1.77979,1.12061 0.76904,0.61523 1.34033,1.29639 l -3.38379,2.68066 q -0.30762,-0.30762 -0.74707,-0.63721 -0.41748,-0.35156 -0.98877,-0.6372 -0.57129,-0.28565 -1.29639,-0.46143 -0.7251,-0.19775 -1.64795,-0.19775 -1.49414,0 -2.37304,0.54931 -0.85694,0.54932 -0.85694,1.58203 0,0.65918 0.46143,1.16455 0.46142,0.4834 1.25244,0.90088 0.79102,0.41748 1.80176,0.81299 1.03271,0.37354 2.15332,0.81299 1.18652,0.46143 2.3291,1.03271 1.14258,0.57129 2.02148,1.40625 0.90088,0.83497 1.42823,2.02149 0.54931,1.18652 0.54931,2.85644 0,1.64795 -0.61523,2.92237 -0.61524,1.25244 -1.75781,2.10937 -1.12061,0.83496 -2.72461,1.25244 -1.58203,0.43946 -3.5376,0.43946 z"
         style=""
         id="path4269" />
      <path
         d="m 721.28552,598.13977 0,18.94043 -4.68017,0 0,-18.94043 -3.40577,0 0,-4.06494 3.40577,0 0,-3.66943 q 0,-1.58204 0.46142,-2.61475 0.46143,-1.05469 1.18653,-1.64795 0.74707,-0.61523 1.69189,-0.85693 0.94482,-0.2417 1.93359,-0.2417 1.36231,0 2.46094,0.28564 1.09863,0.28565 2.13135,0.79102 l 0,3.86719 q -1.05469,-0.43946 -1.82373,-0.61524 -0.76904,-0.19775 -1.47217,-0.19775 -0.57129,0 -0.94482,0.15381 -0.35157,0.1538 -0.57129,0.43945 -0.21973,0.28564 -0.30762,0.65918 -0.0659,0.37353 -0.0659,0.81299 l 0,2.83447 5.18555,0 0,4.06494 -5.18555,0 z m 8.45948,18.94043 0,-23.00537 4.68017,0 0,23.00537 -4.68017,0 z m 2.35107,-26.58691 q -0.59326,0 -1.12061,-0.21973 -0.50537,-0.21973 -0.90088,-0.59326 -0.37353,-0.39551 -0.59326,-0.90088 -0.21972,-0.52734 -0.21972,-1.12061 0,-0.59326 0.21972,-1.09863 0.21973,-0.52734 0.59326,-0.90088 0.39551,-0.39551 0.90088,-0.61523 0.52735,-0.21973 1.12061,-0.21973 0.59326,0 1.09863,0.21973 0.52735,0.21972 0.90088,0.61523 0.39551,0.37354 0.61524,0.90088 0.21972,0.50537 0.21972,1.09863 0,0.59327 -0.21972,1.12061 -0.21973,0.50537 -0.61524,0.90088 -0.37353,0.37353 -0.90088,0.59326 -0.50537,0.21973 -1.09863,0.21973 z"
         style=""
         id="path4271" />
      <path
         d="m 750.59705,617.62952 q -2.39502,0 -4.32862,-0.81299 -1.93359,-0.83496 -3.2959,-2.37305 -1.3623,-1.56006 -2.10937,-3.80127 -0.7251,-2.24121 -0.7251,-5.07568 0,-2.83447 0.74707,-5.05371 0.74707,-2.24121 2.10938,-3.7793 1.38427,-1.56006 3.2959,-2.37305 1.93359,-0.81298 4.30664,-0.81298 2.04345,0 3.82324,0.65918 1.80176,0.6372 3.14209,1.97753 1.3623,1.31836 2.13135,3.33985 0.79101,2.02148 0.79101,4.76806 0,0.74707 -0.0439,1.58204 -0.022,0.83496 -0.13184,1.45019 l -15.49072,0 q 0.022,1.42822 0.50537,2.5708 0.50537,1.12061 1.31836,1.9336 0.81299,0.79101 1.8457,1.23046 1.03272,0.41748 2.15332,0.41748 1.42822,0 2.63672,-0.59326 1.23047,-0.59326 2.13135,-1.73584 l 3.0542,3.14209 q -1.25244,1.49414 -3.20801,2.417 -1.95557,0.92285 -4.6582,0.92285 z m 0,-19.95118 q -1.09864,0 -2.10938,0.32959 -1.01074,0.30762 -1.80176,1.01075 -0.76904,0.68115 -1.27441,1.80175 -0.50537,1.12061 -0.59326,2.72461 l 10.98633,0 q -0.0439,-1.604 -0.50538,-2.72461 -0.46142,-1.1206 -1.20849,-1.80175 -0.74707,-0.70313 -1.66992,-1.01075 -0.90088,-0.32959 -1.82373,-0.32959 z"
         style=""
         id="path4273" />
      <path
         d="m 766.10974,617.0802 0,-30.27832 4.68018,-2.21924 0,32.49756 -4.68018,0 z"
         style=""
         id="path4275" />
      <path
         d="m 786.17078,617.62952 q -2.1753,0 -3.95508,-0.81299 -1.75781,-0.83496 -3.01026,-2.37305 -1.25244,-1.56006 -1.93359,-3.80127 -0.65918,-2.24121 -0.65918,-5.07568 0,-2.83447 0.70313,-5.05371 0.70312,-2.24121 1.95556,-3.7793 1.27442,-1.56006 3.03223,-2.37305 1.75781,-0.81298 3.86719,-0.81298 1.88964,0 3.208,0.61523 1.34034,0.61523 2.21924,1.53809 l 0,-8.94288 4.68018,-2.17529 0,32.49756 -4.68018,0 0,-1.62598 q -0.92285,1.03272 -2.21924,1.60401 -1.27441,0.57129 -3.208,0.57129 z m 0.65918,-4.41651 q 1.58203,0 2.79052,-0.68115 1.2085,-0.68115 1.97754,-1.93359 l 0,-10.1294 q -0.26367,-0.43945 -0.70312,-0.8789 -0.43946,-0.43946 -1.05469,-0.79102 -0.59326,-0.37353 -1.3623,-0.59326 -0.74708,-0.2417 -1.64795,-0.2417 -2.63672,0 -4.08692,1.95557 -1.45019,1.93359 -1.45019,5.64697 0,1.66992 0.37353,3.07617 0.39551,1.38428 1.09863,2.41699 0.7251,1.01074 1.73584,1.58203 1.03272,0.57129 2.32911,0.57129 z"
         style=""
         id="path4277" />
    </g>
  </g>
</svg>
