<?xml version="1.0" encoding="UTF-8" standalone="no"?>
<!-- Created with Inkscape (http://www.inkscape.org/) -->

<svg
   xmlns:dc="http://purl.org/dc/elements/1.1/"
   xmlns:cc="http://creativecommons.org/ns#"
   xmlns:rdf="http://www.w3.org/1999/02/22-rdf-syntax-ns#"
   xmlns:svg="http://www.w3.org/2000/svg"
   xmlns="http://www.w3.org/2000/svg"
   xmlns:sodipodi="http://sodipodi.sourceforge.net/DTD/sodipodi-0.dtd"
   xmlns:inkscape="http://www.inkscape.org/namespaces/inkscape"
   width="1001.9342"
   height="619.4007"
   viewBox="0 0 1001.9342 619.4007"
   id="svg2"
   version="1.1"
   inkscape:version="0.91 r13725"
   sodipodi:docname="BHM.svg"
   inkscape:export-filename="C:\Users\paulb\OneDrive\Projects\Terminal Silhouettes\Silhouettes\png\BHM.png"
   inkscape:export-xdpi="90"
   inkscape:export-ydpi="90">
  <sodipodi:namedview
     id="base"
     pagecolor="#ffffff"
     bordercolor="#666666"
     borderopacity="1.0"
     inkscape:pageopacity="1"
     inkscape:pageshadow="2"
     inkscape:zoom="2"
     inkscape:cx="732.7655"
     inkscape:cy="252.40966"
     inkscape:document-units="px"
     inkscape:current-layer="layer1"
     showgrid="false"
     inkscape:window-width="1920"
     inkscape:window-height="1137"
     inkscape:window-x="1912"
     inkscape:window-y="-8"
     inkscape:window-maximized="1"
     showguides="true"
     inkscape:guide-bbox="true"
     inkscape:snap-object-midpoints="true"
     inkscape:object-nodes="true"
     fit-margin-top="100"
     fit-margin-left="100"
     fit-margin-right="100"
     fit-margin-bottom="100"
     units="px"
     inkscape:snap-smooth-nodes="true"
     inkscape:snap-page="true" />
  <title
     id="title4260">BHM</title>
  <defs
     id="defs4" />
  <metadata
     id="metadata7">
    <rdf:RDF>
      <cc:Work
         rdf:about="">
        <dc:format>image/svg+xml</dc:format>
        <dc:type
           rdf:resource="http://purl.org/dc/dcmitype/StillImage" />
        <dc:title>BHM</dc:title>
        <dc:creator>
          <cc:Agent>
            <dc:title>Paul Bogard</dc:title>
          </cc:Agent>
        </dc:creator>
        <dc:description>Terminal silhouette of BHM (Birmingham)</dc:description>
      </cc:Work>
    </rdf:RDF>
  </metadata>
  <g
     inkscape:groupmode="layer"
     id="layer4"
     inkscape:label="Background">
    <rect
       style="opacity:1;fill:#dbdcdf;fill-opacity:1;stroke:none;stroke-width:3;stroke-linecap:butt;stroke-linejoin:miter;stroke-miterlimit:4;stroke-dasharray:none;stroke-dashoffset:0;stroke-opacity:1"
       id="rect5474"
       width="1001.9342"
       height="619.4007"
       x="0"
       y="0" />
  </g>
  <g
     inkscape:groupmode="layer"
     id="layer2"
     inkscape:label="Terminal"
     transform="translate(884.68944,-261.12438)">
    <path
       style="opacity:1;fill:#60646c;fill-opacity:1;stroke:none;stroke-width:1.5;stroke-linecap:butt;stroke-linejoin:round;stroke-miterlimit:4;stroke-dasharray:none;stroke-dashoffset:0;stroke-opacity:1"
       d="m -424.03917,361.12438 -29.84479,76.71736 11.42935,-3.49272 -4.87218,12.52421 -155.36681,47.47985 0.80615,2.63754 a 10.093933,10.093933 0 0 0 -8.42746,8.5073 l -2.65072,-0.78535 -18.69163,63.07318 12.75789,-3.89887 -14.70654,49.62605 -150.35134,-3.29905 -0.47337,21.57316 -0.23152,10.55142 -0.0273,1.24317 148.57635,3.2601 0.0273,-1.24315 12.50977,0.27449 a 151.08401,151.08401 0 0 0 34.93215,84.20719 l 21.64007,-18.16559 a 122.7306,122.7306 0 0 0 8.89176,9.5189 l 5.39867,-5.61033 a 114.93507,114.93507 0 0 1 -35.31401,-85.24003 114.93507,114.93507 0 0 1 117.42863,-112.38627 l 23.37086,0.51281 0.1677,-7.64257 9.87893,0.21677 7.26964,-18.68708 -8.21725,-3.19661 19.338,-49.70936 -6.0654,-2.35977 25.85663,-66.46587 -25.03953,-9.74088 z"
       id="rect4155"
       inkscape:connector-curvature="0" />
  </g>
  <g
     inkscape:groupmode="layer"
     id="layer1"
     inkscape:label="Text"
     transform="translate(187.06015,74.250018)">
    <g
       style="font-style:normal;font-variant:normal;font-weight:bold;font-stretch:normal;font-size:125px;line-height:125%;font-family:Overpass;-inkscape-font-specification:'Overpass, Bold';text-align:start;letter-spacing:0px;word-spacing:0px;writing-mode:lr-tb;text-anchor:start;fill:none;fill-opacity:1;stroke:#60646c;stroke-width:3;stroke-linecap:butt;stroke-linejoin:round;stroke-miterlimit:4;stroke-dasharray:none;stroke-opacity:1"
       id="text4264"
       transform="translate(276.30951,-62.865458)">
      <path
         d="m 173.82014,358.85715 38.39112,0 q 7.9956,0 13.42773,2.01416 5.43213,2.01416 8.72803,5.31006 3.35693,3.29589 4.76074,7.50732 1.46485,4.21143 1.46485,8.66699 0,2.80762 -0.61036,5.43213 -0.54931,2.62451 -1.83105,4.94385 -1.28174,2.2583 -3.2959,4.21142 -2.01416,1.89209 -4.88281,3.2959 3.72314,1.40381 6.28662,3.66211 2.62451,2.19727 4.21143,4.88282 1.64794,2.68554 2.38037,5.67626 0.73242,2.99073 0.73242,5.92041 0,4.63868 -1.58692,9.27735 -1.52587,4.63867 -5.06591,8.36181 -3.47901,3.72315 -9.15528,6.04249 -5.61523,2.31933 -13.79394,2.31933 l -40.16114,0 0,-87.52441 z m 41.01563,71.77734 q 3.41797,0 5.67627,-0.91553 2.2583,-0.97656 3.54004,-2.4414 1.34277,-1.46485 1.89209,-3.2959 0.54931,-1.83106 0.54931,-3.60108 0,-2.13623 -0.67138,-4.15039 -0.61035,-2.07519 -2.31934,-3.66211 -1.70898,-1.58691 -4.63867,-2.56347 -2.92969,-0.97656 -7.50732,-0.97656 l -20.62989,0 0,21.60644 24.10889,0 z m -4.63867,-37.35351 q 6.71386,0 9.94873,-2.56348 3.2959,-2.62451 3.2959,-6.83594 0,-1.64795 -0.42725,-3.2959 -0.42725,-1.64795 -1.64795,-2.99072 -1.15967,-1.34277 -3.2959,-2.13623 -2.13623,-0.85449 -5.61523,-0.85449 l -21.72852,0 0,18.67676 19.47022,0 z"
         id="path4321"
         inkscape:connector-curvature="0"
         style="fill:none;stroke:#60646c;stroke-width:3;stroke-miterlimit:4;stroke-dasharray:none;stroke-opacity:1;stroke-linejoin:round" />
      <path
         d="m 316.4593,446.38156 0,-36.9873 -36.62109,0 0,36.9873 -16.90674,0 0,-87.52441 16.90674,0 0,34.5459 36.62109,0 0,-34.5459 16.84571,0 0,87.52441 -16.84571,0 z"
         id="path4323"
         inkscape:connector-curvature="0"
         style="fill:none;stroke:#60646c;stroke-width:3;stroke-miterlimit:4;stroke-dasharray:none;stroke-opacity:1;stroke-linejoin:round" />
      <path
         d="m 420.21907,446.38156 0,-44.98291 q 0,-0.73242 0,-1.70898 0.061,-0.97657 0.061,-1.95313 0.061,-1.0376 0.061,-1.89209 0.061,-0.85449 0.12207,-1.34277 -0.67139,2.07519 -1.34277,3.72314 -0.61035,1.64795 -1.28174,3.17383 l -21.24024,46.50879 -21.3623,-46.50879 q -0.67139,-1.52588 -1.34277,-3.17383 -0.61035,-1.64795 -1.28174,-3.72314 0.061,0.48828 0.061,1.34277 0.061,0.85449 0.061,1.89209 0.061,0.97656 0.061,1.95313 0.061,0.97656 0.061,1.70898 l 0,44.98291 -16.90674,0 0,-87.52441 17.15088,0 21.48437,48.27881 q 0.67139,1.58691 1.22071,3.05175 0.54931,1.40381 1.0376,2.92969 0.48828,-1.52588 1.03759,-2.92969 0.54932,-1.46484 1.22071,-3.05175 l 21.85058,-48.27881 16.11328,0 0,87.52441 -16.8457,0 z"
         id="path4325"
         inkscape:connector-curvature="0"
         style="fill:none;stroke:#60646c;stroke-width:3;stroke-miterlimit:4;stroke-dasharray:none;stroke-opacity:1;stroke-linejoin:round" />
    </g>
    <g
       style="font-style:normal;font-variant:normal;font-weight:normal;font-stretch:normal;font-size:45px;line-height:125%;font-family:Overpass;-inkscape-font-specification:'Overpass, Normal';text-align:start;letter-spacing:0px;word-spacing:0px;writing-mode:lr-tb;text-anchor:start;fill:#60646c;fill-opacity:1;stroke:none;stroke-width:1px;stroke-linecap:butt;stroke-linejoin:miter;stroke-opacity:1"
       id="text4268"
       transform="translate(264.82942,-59.388242)">
      <path
         d="m 196.65511,464.02133 11.93115,0 q 2.8125,0 4.72412,0.7251 1.91162,0.70312 3.07617,1.88965 1.16455,1.16455 1.64795,2.68066 0.50537,1.51612 0.50537,3.12012 0,1.97754 -1.07666,3.73535 -1.07666,1.73584 -3.25195,2.79053 1.47217,0.52734 2.50488,1.34033 1.03272,0.79102 1.6919,1.75781 0.65917,0.9668 0.94482,2.06543 0.30762,1.07666 0.30762,2.1753 0,1.604 -0.54932,3.25195 -0.52734,1.64795 -1.75781,2.98828 -1.23047,1.31836 -3.22998,2.15332 -1.97754,0.83496 -4.85596,0.83496 l -12.6123,0 0,-31.50879 z m 12.96386,27.18018 q 1.56006,0 2.5708,-0.41748 1.03272,-0.41748 1.62598,-1.07666 0.59326,-0.68116 0.83496,-1.51612 0.2417,-0.83496 0.2417,-1.66992 0,-0.98877 -0.28564,-1.91162 -0.28565,-0.94482 -1.03272,-1.64795 -0.74707,-0.7251 -2.04346,-1.16455 -1.27441,-0.43945 -3.25195,-0.43945 l -6.94336,0 0,9.84375 8.28369,0 z m -1.80176,-14.17237 q 1.47217,0 2.59278,-0.30761 1.1206,-0.32959 1.86767,-0.90088 0.74707,-0.59326 1.12061,-1.38428 0.37353,-0.79101 0.37353,-1.75781 0,-0.76904 -0.19775,-1.53809 -0.19775,-0.76904 -0.76904,-1.38427 -0.54932,-0.63721 -1.53809,-1.01075 -0.96679,-0.3955 -2.54883,-0.3955 l -7.38281,0 0,8.67919 6.48193,0 z"
         id="path4328"
         inkscape:connector-curvature="0"
         style="fill:#60646c;fill-opacity:1" />
      <path
         d="m 226.01057,495.53012 0,-23.00537 4.68018,0 0,23.00537 -4.68018,0 z m 2.32911,-26.58691 q -0.59327,0 -1.12061,-0.21973 -0.50537,-0.21973 -0.90088,-0.59326 -0.37353,-0.39551 -0.59326,-0.90088 -0.21973,-0.52734 -0.21973,-1.12061 0,-0.59326 0.21973,-1.09863 0.21973,-0.52734 0.59326,-0.90088 0.39551,-0.39551 0.90088,-0.61523 0.52734,-0.21973 1.12061,-0.21973 0.59326,0 1.09863,0.21973 0.52734,0.21972 0.90088,0.61523 0.39551,0.37354 0.61523,0.90088 0.21973,0.50537 0.21973,1.09863 0,0.59327 -0.21973,1.12061 -0.21972,0.50537 -0.61523,0.90088 -0.37354,0.37353 -0.90088,0.59326 -0.50537,0.21973 -1.09863,0.21973 z"
         id="path4330"
         inkscape:connector-curvature="0"
         style="fill:#60646c;fill-opacity:1" />
      <path
         d="m 237.4803,495.53012 0,-23.00537 4.68018,0 0,2.79053 q 0.81298,-1.75782 2.10937,-2.52686 1.29639,-0.79101 3.01026,-0.79101 2.28515,0 3.86718,1.38427 l -0.68115,4.32862 q -0.63721,-0.43946 -1.51611,-0.76905 -0.85694,-0.35156 -2.10938,-0.35156 -0.79101,0 -1.62597,0.28565 -0.81299,0.26367 -1.49414,0.96679 -0.68116,0.68115 -1.12061,1.84571 -0.43945,1.14257 -0.43945,2.92236 l 0,12.91992 -4.68018,0 z"
         id="path4332"
         inkscape:connector-curvature="0"
         style="fill:#60646c;fill-opacity:1" />
      <path
         d="m 282.65608,495.53012 0,-13.77685 q 0,-2.57081 -1.05469,-3.95508 -1.05468,-1.38428 -3.16406,-1.38428 -0.94482,0 -1.77978,0.35156 -0.83496,0.35156 -1.47217,1.05469 -0.61524,0.70312 -0.98877,1.75781 -0.35156,1.03272 -0.35156,2.41699 l 0,13.53516 -4.68018,0 0,-13.77685 q 0,-2.57081 -1.07666,-3.95508 -1.05469,-1.38428 -3.16406,-1.38428 -0.94483,0 -1.77979,0.35156 -0.81298,0.35156 -1.45019,1.05469 -0.61524,0.70312 -0.98877,1.75781 -0.35156,1.03272 -0.35156,2.41699 l 0,13.53516 -4.68018,0 0,-23.00537 4.68018,0 0,2.13135 q 0.98877,-1.42823 2.50488,-2.04346 1.51611,-0.61523 3.2959,-0.61523 1.88965,0 3.49365,0.76904 1.62598,0.74707 2.61475,2.50488 1.09863,-1.69189 2.8125,-2.48291 1.71386,-0.79101 3.99902,-0.79101 1.75781,0 3.25195,0.50537 1.51612,0.50537 2.61475,1.56006 1.1206,1.05468 1.75781,2.70263 0.63721,1.64795 0.63721,3.91114 l 0,14.85351 -4.68018,0 z"
         id="path4334"
         inkscape:connector-curvature="0"
         style="fill:#60646c;fill-opacity:1" />
      <path
         d="m 293.95003,495.53012 0,-23.00537 4.68017,0 0,23.00537 -4.68017,0 z m 2.3291,-26.58691 q -0.59326,0 -1.12061,-0.21973 -0.50537,-0.21973 -0.90088,-0.59326 -0.37353,-0.39551 -0.59326,-0.90088 -0.21972,-0.52734 -0.21972,-1.12061 0,-0.59326 0.21972,-1.09863 0.21973,-0.52734 0.59326,-0.90088 0.39551,-0.39551 0.90088,-0.61523 0.52735,-0.21973 1.12061,-0.21973 0.59326,0 1.09863,0.21973 0.52735,0.21972 0.90088,0.61523 0.39551,0.37354 0.61524,0.90088 0.21972,0.50537 0.21972,1.09863 0,0.59327 -0.21972,1.12061 -0.21973,0.50537 -0.61524,0.90088 -0.37353,0.37353 -0.90088,0.59326 -0.50537,0.21973 -1.09863,0.21973 z"
         id="path4336"
         inkscape:connector-curvature="0"
         style="fill:#60646c;fill-opacity:1" />
      <path
         d="m 319.63606,495.53012 0,-13.73291 q 0,-1.45019 -0.35156,-2.46094 -0.35156,-1.03271 -0.9668,-1.66992 -0.61523,-0.65918 -1.45019,-0.94482 -0.83496,-0.30762 -1.82373,-0.30762 -1.05469,0 -1.95557,0.28564 -0.90088,0.26368 -1.56006,0.87891 -0.65918,0.61524 -1.05469,1.64795 -0.37353,1.01074 -0.37353,2.48291 l 0,13.8208 -4.68018,0 0,-23.00537 4.68018,0 0,2.21924 q 1.12061,-1.42822 2.5708,-2.0874 1.4502,-0.65918 3.36182,-0.65918 1.80175,0 3.31787,0.52734 1.51611,0.50537 2.61474,1.66992 1.12061,1.16455 1.73584,3.03223 0.61524,1.86767 0.61524,4.57031 l 0,13.73291 -4.68018,0 z"
         id="path4338"
         inkscape:connector-curvature="0"
         style="fill:#60646c;fill-opacity:1" />
      <path
         d="m 336.1595,500.93539 q 2.52686,-0.1538 4.1748,-0.59326 1.64795,-0.43945 2.61475,-1.1206 0.9668,-0.65918 1.34033,-1.56006 0.37354,-0.90088 0.37354,-1.95557 l 0,-2.02148 q -1.91162,2.39502 -5.53711,2.39502 -1.97754,0 -3.69141,-0.74707 -1.71386,-0.76905 -3.01025,-2.28516 -1.27442,-1.51611 -2.02149,-3.75732 -0.72509,-2.26319 -0.72509,-5.27344 0,-2.83447 0.70312,-5.05371 0.70313,-2.24121 1.95557,-3.7793 1.27441,-1.56006 3.03222,-2.37305 1.75782,-0.81298 3.86719,-0.81298 1.01074,0 1.84571,0.19775 0.83496,0.17578 1.49414,0.4834 0.68115,0.30762 1.18652,0.70312 0.52734,0.37354 0.90088,0.76905 l 0,-1.62598 4.68017,0 0,21.24756 q 0,2.63672 -0.52734,4.48242 -0.52734,1.8457 -1.80176,3.16406 -0.85693,0.87891 -1.88965,1.42823 -1.01074,0.57128 -2.13134,0.92285 -1.09864,0.35156 -2.24121,0.50537 -1.14258,0.17578 -2.24122,0.26367 l -2.35107,-3.60352 z m 3.82324,-9.27246 q 1.42822,0 2.65869,-0.70312 1.25245,-0.70313 2.02149,-1.99951 l 0,-9.95362 q -0.35156,-0.57129 -0.87891,-1.03271 -0.50537,-0.4834 -1.1206,-0.83496 -0.59327,-0.35156 -1.29639,-0.52735 -0.68115,-0.19775 -1.38428,-0.19775 -2.74658,0 -4.19678,1.95557 -1.42822,1.93359 -1.42822,5.64697 0,1.75781 0.39551,3.18603 0.39551,1.40625 1.12061,2.39502 0.72509,0.98877 1.75781,1.53809 1.05469,0.52734 2.35107,0.52734 z"
         id="path4340"
         inkscape:connector-curvature="0"
         style="fill:#60646c;fill-opacity:1" />
      <path
         d="m 370.34895,495.53012 0,-13.73291 q 0,-1.45019 -0.35156,-2.46094 -0.35156,-1.03271 -0.9668,-1.66992 -0.61523,-0.65918 -1.45019,-0.94482 -0.83496,-0.30762 -1.82373,-0.30762 -1.05469,0 -1.95557,0.28564 -0.90088,0.26368 -1.56006,0.87891 -0.65918,0.61524 -1.05468,1.64795 -0.37354,1.01074 -0.37354,2.48291 l 0,13.8208 -4.68018,0 0,-30.32226 4.68018,-2.1753 0,11.71143 q 1.12061,-1.42822 2.5708,-2.0874 1.4502,-0.65918 3.36182,-0.65918 1.80176,0 3.31787,0.52734 1.51611,0.50537 2.61474,1.66992 1.12061,1.16455 1.73584,3.03223 0.61524,1.86767 0.61524,4.57031 l 0,13.73291 -4.68018,0 z"
         id="path4342"
         inkscape:connector-curvature="0"
         style="fill:#60646c;fill-opacity:1" />
      <path
         d="m 399.15511,495.53012 -4.48243,0 0,-1.97754 q -0.43945,0.46143 -1.05468,0.92285 -0.61524,0.43946 -1.40625,0.81299 -0.76905,0.35156 -1.73584,0.57129 -0.9668,0.21973 -2.10938,0.21973 -1.75781,0 -3.25195,-0.4834 -1.49414,-0.4834 -2.59278,-1.4502 -1.09863,-0.98877 -1.73584,-2.41699 -0.61523,-1.45019 -0.61523,-3.36182 0,-1.97753 0.74707,-3.40576 0.74707,-1.45019 1.97754,-2.37304 1.23047,-0.94483 2.8125,-1.38428 1.604,-0.43945 3.2959,-0.43945 1.58203,0 3.03222,0.35156 1.47217,0.32959 2.63672,1.01074 l 0,-1.27441 q 0,-1.29639 -0.30761,-2.19727 -0.28565,-0.90088 -0.90088,-1.45019 -0.59326,-0.57129 -1.51612,-0.81299 -0.92285,-0.26367 -2.19726,-0.26367 -2.15332,0 -3.73535,0.57128 -1.56006,0.57129 -2.83448,1.51612 l -1.38427,-3.84522 q 0.70312,-0.4834 1.604,-0.90088 0.90088,-0.43945 1.97754,-0.76904 1.07666,-0.32959 2.3291,-0.50537 1.25244,-0.19775 2.68067,-0.19775 0.96679,0 1.99951,0.10986 1.03271,0.10986 1.99951,0.43945 0.98877,0.30762 1.8457,0.90088 0.87891,0.59326 1.51612,1.56006 0.65918,0.94482 1.03271,2.3291 0.37354,1.38428 0.37354,3.2959 l 0,14.89746 z m -9.93165,-3.60351 q 1.77979,0 3.14209,-0.7251 1.38428,-0.7251 2.30713,-1.73584 l 0,-3.51563 q -0.96679,-0.50537 -2.26318,-0.81299 -1.29639,-0.30761 -2.65869,-0.30761 -1.05469,0 -1.97754,0.19775 -0.92285,0.19776 -1.62598,0.63721 -0.68115,0.41748 -1.07666,1.09863 -0.3955,0.65918 -0.3955,1.604 0,1.64795 1.14257,2.61475 1.16455,0.94483 3.40576,0.94483 z"
         id="path4344"
         inkscape:connector-curvature="0"
         style="fill:#60646c;fill-opacity:1" />
      <path
         d="m 432.5096,495.53012 0,-13.77685 q 0,-2.57081 -1.05469,-3.95508 -1.05469,-1.38428 -3.16406,-1.38428 -0.94483,0 -1.77979,0.35156 -0.83496,0.35156 -1.47217,1.05469 -0.61523,0.70312 -0.98876,1.75781 -0.35157,1.03272 -0.35157,2.41699 l 0,13.53516 -4.68017,0 0,-13.77685 q 0,-2.57081 -1.07666,-3.95508 -1.05469,-1.38428 -3.16407,-1.38428 -0.94482,0 -1.77978,0.35156 -0.81299,0.35156 -1.4502,1.05469 -0.61523,0.70312 -0.98877,1.75781 -0.35156,1.03272 -0.35156,2.41699 l 0,13.53516 -4.68017,0 0,-23.00537 4.68017,0 0,2.13135 q 0.98877,-1.42823 2.50488,-2.04346 1.51612,-0.61523 3.2959,-0.61523 1.88965,0 3.49366,0.76904 1.62597,0.74707 2.61474,2.50488 1.09863,-1.69189 2.8125,-2.48291 1.71387,-0.79101 3.99902,-0.79101 1.75782,0 3.25196,0.50537 1.51611,0.50537 2.61474,1.56006 1.12061,1.05468 1.75782,2.70263 0.6372,1.64795 0.6372,3.91114 l 0,14.85351 -4.68017,0 z"
         id="path4346"
         inkscape:connector-curvature="0"
         style="fill:#60646c;fill-opacity:1" />
    </g>
    <text
       xml:space="preserve"
       style="font-style:normal;font-variant:normal;font-weight:300;font-stretch:normal;font-size:12.5px;line-height:125%;font-family:Overpass;-inkscape-font-specification:'Overpass, Light';text-align:end;letter-spacing:0px;word-spacing:0px;writing-mode:lr;text-anchor:end;fill:#60646c;fill-opacity:1;stroke:none;stroke-width:1px;stroke-linecap:butt;stroke-linejoin:miter;stroke-opacity:1;"
       x="795.58521"
       y="-45.225021"
       id="text5476"
       sodipodi:linespacing="125%"><tspan
         sodipodi:role="line"
         id="tspan5482">pbogard.com/terminal-silhouettes</tspan><tspan
         sodipodi:role="line"
         id="tspan5484">26 Jul 2019</tspan><tspan
         sodipodi:role="line"
         id="tspan5486"></tspan></text>
  </g>
</svg>
