<?xml version="1.0" encoding="UTF-8" standalone="no"?>
<!-- Created with Inkscape (http://www.inkscape.org/) -->

<svg
   xmlns:dc="http://purl.org/dc/elements/1.1/"
   xmlns:cc="http://creativecommons.org/ns#"
   xmlns:rdf="http://www.w3.org/1999/02/22-rdf-syntax-ns#"
   xmlns:svg="http://www.w3.org/2000/svg"
   xmlns="http://www.w3.org/2000/svg"
   xmlns:sodipodi="http://sodipodi.sourceforge.net/DTD/sodipodi-0.dtd"
   xmlns:inkscape="http://www.inkscape.org/namespaces/inkscape"
   width="688.38635"
   height="909.40198"
   viewBox="0 0 688.38635 909.40201"
   id="svg2"
   version="1.1"
   inkscape:version="0.91 r13725"
   sodipodi:docname="BNA.svg"
   inkscape:export-filename="C:\Users\paulb\Dropbox\Projects\Terminal Silhouettes\Silhouettes\png\BNA.png"
   inkscape:export-xdpi="90"
   inkscape:export-ydpi="90">
  <sodipodi:namedview
     id="base"
     pagecolor="#ffffff"
     bordercolor="#666666"
     borderopacity="1.0"
     inkscape:pageopacity="1"
     inkscape:pageshadow="2"
     inkscape:zoom="0.70710678"
     inkscape:cx="315.5947"
     inkscape:cy="502.69468"
     inkscape:document-units="px"
     inkscape:current-layer="layer1"
     showgrid="false"
     units="px"
     fit-margin-top="25"
     fit-margin-left="25"
     fit-margin-right="25"
     fit-margin-bottom="25"
     inkscape:window-width="1920"
     inkscape:window-height="1137"
     inkscape:window-x="1912"
     inkscape:window-y="-8"
     inkscape:window-maximized="1"
     showguides="true"
     inkscape:guide-bbox="true"
     inkscape:object-nodes="true"
     inkscape:snap-object-midpoints="false" />
  <title
     id="title4147">BNA</title>
  <defs
     id="defs4" />
  <metadata
     id="metadata7">
    <rdf:RDF>
      <cc:Work
         rdf:about="">
        <dc:format>image/svg+xml</dc:format>
        <dc:type
           rdf:resource="http://purl.org/dc/dcmitype/StillImage" />
        <dc:title>BNA</dc:title>
        <dc:creator>
          <cc:Agent>
            <dc:title>Paul Bogard</dc:title>
          </cc:Agent>
        </dc:creator>
        <dc:subject>
          <rdf:Bag>
            <rdf:li>BNA</rdf:li>
          </rdf:Bag>
        </dc:subject>
        <dc:description>Terminal silhouette for BNA (Nashville)</dc:description>
      </cc:Work>
    </rdf:RDF>
  </metadata>
  <g
     inkscape:label="Terminal"
     id="layer2"
     inkscape:groupmode="layer"
     transform="translate(-1670.7299,-1097.2373)">
    <path
       id="rect4156"
       d="m 1707.0421,1386.3912 -9.5905,22.2718 0.5419,0.2333 -1.2782,2.9701 8.4901,3.6554 1.2783,-2.9686 39.693,17.0913 -1.2791,2.9704 14.5281,6.2551 1.2791,-2.9689 28.0319,12.0714 -1.2797,2.9701 8.4895,3.6551 1.2794,-2.9695 22.9325,9.8751 -1.2785,2.9707 8.4901,3.6554 1.2779,-2.9695 45.0966,19.4198 -1.2779,2.9695 11.3783,4.8993 1.2782,-2.97 16.1557,6.9576 4.1684,13.5228 16.166,6.9618 40.5394,131.5141 -5.5034,-3.4974 -20.3382,32.0001 -1.3513,-0.859 4.0408,-6.3573 -4.2045,-2.6732 -10.6778,16.7998 4.2054,2.6727 4.0403,-6.3576 1.3514,0.859 -12.3816,19.4808 -1.3502,-0.8584 -4.2054,-2.6728 -6.6357,10.4415 4.2042,2.6722 4.0408,-6.3588 1.3508,0.8586 -22.2628,35.0288 -1.3508,-0.8586 4.0414,-6.3586 -4.2054,-2.6728 -10.6772,16.8001 4.2043,2.6722 4.0405,-6.3568 1.3506,0.8578 -19.8205,31.1847 -8.347,13.135 -11.5244,18.133 -1.3507,-0.8587 4.0408,-6.3588 -4.2051,-2.672 -10.6775,16.7992 4.2037,2.6719 4.0414,-6.3585 1.3502,0.8583 -2.3497,3.698 -11.2094,17.6367 2.8936,19.9325 27.2385,23.7127 5.6367,4.9074 -1.051,1.2067 -5.682,-4.9465 -3.2712,3.7577 15.0132,13.07 3.2719,-3.7574 -5.682,-4.9466 1.0503,-1.2069 14.1335,12.3044 13.936,12.1315 -1.0513,1.2074 -5.6825,-4.9469 -3.2713,3.7577 15.0133,13.0701 3.2718,-3.7574 -5.6819,-4.9466 1.0503,-1.207 27.7291,24.1392 -1.0513,1.2074 -5.6819,-4.9466 -3.2712,3.7577 15.0131,13.0701 3.2719,-3.7575 -5.6825,-4.9468 1.0503,-1.207 27.9426,24.3255 -1.0512,1.2073 -5.6816,-4.9471 -3.2714,3.7577 15.013,13.0707 0.01,0.01 3.2713,-3.7577 -5.6826,-4.9468 1.0507,-1.2076 17.3822,15.1324 13.7362,-0.9505 5.9424,-6.8255 -0.9507,-13.7356 -17.416,-15.1624 1.0512,-1.2073 5.6825,4.9468 3.2707,-3.7579 -15.0132,-13.0701 -3.271,3.7571 5.6814,4.9463 -1.0509,1.2082 -28.1054,-24.4686 1.0503,-1.2071 5.6828,4.9463 3.2703,-3.7574 -15.0135,-13.0709 -3.2706,3.7579 5.6825,4.9469 -1.0515,1.2079 -27.4667,-23.912 1.0511,-1.2073 5.682,4.9465 3.271,-3.7571 -15.0126,-13.0698 -3.271,3.7571 5.6822,4.946 -1.0515,1.2079 -13.9994,-12.1876 6.2711,-7.2036 -10.3918,-71.5807 -8.0605,-5.1228 4.9858,-7.8452 9.1565,5.8189 2.5955,-4.0838 -9.1557,-5.8192 12.2951,-19.3461 9.1565,5.8189 -4.0409,6.3588 4.2039,2.6728 10.6781,-16.8003 -4.2042,-2.6722 -4.0406,6.3582 -9.1562,-5.8195 34.7338,-54.6532 9.1577,5.8195 2.5951,-4.0832 -0.99,-0.6285 20.7618,-32.6684 16.6393,13.0494 1.4992,12.3952 44.3503,34.7822 7.7533,-9.8856 9.4843,7.4381 9.3775,-11.9568 -17.4338,-13.6728 -5.396,6.8803 -28.4555,-22.3163 -6.9466,-5.4477 1.3626,-1.7373 4.6099,-5.878 -3.674,-2.8814 -4.6099,5.8779 1.4034,1.1007 -1.362,1.7367 -28.2452,-22.1518 -2.7687,-8.9821 36.5011,-11.2517 9.5599,-2.9472 1.5689,-0.4837 -4.1757,-13.5463 7.3523,-2.2663 c 0,0 6.43,20.8594 26.898,36.7734 l 7.5289,-7.9905 c 0,0 -17.7208,-13.7813 -23.394,-32.1856 l 9.897,-3.0507 c 0.1089,0.3531 2.6082,8.394 4.7112,11.7401 l 4.448,-1.3708 c 1.0241,-3.2684 0.3526,-5.4402 0.3526,-5.4402 l -2.2135,-7.1799 -1.2374,-4.0142 -1.5364,-4.9843 -1.1272,-3.6567 -7.6017,-24.6606 -1.0395,-3.3722 17.6839,-5.4511 17.3427,56.2609 5.3536,-1.6503 -23.5799,-76.4952 9.5236,-2.9354 4.3614,14.1496 4.475,-1.3795 -4.3619,-14.15 74.8557,-23.0744 3.1372,10.1776 4.4738,-1.3789 -3.1376,-10.1794 54.7973,-16.8913 -3.8996,-12.6519 -54.7981,16.8918 -3.1372,-10.1771 -4.4746,1.3792 3.1375,10.178 -74.8549,23.0741 -4.3624,-14.1522 -4.4723,1.3789 4.3621,14.1509 -9.5223,2.9354 -23.58,-76.4962 -5.354,1.6504 17.343,56.2628 -17.683,5.4505 -1.0394,-3.3718 -7.6019,-24.6614 -1.8159,-5.8908 -0.8474,-2.7494 -1.2375,-4.0147 -2.2133,-7.1804 c 0,0 -0.6689,-2.171 -3.3552,-4.2957 l -4.4465,1.3709 c 0.1462,3.9491 2.607,12.0028 2.7153,12.356 l -9.8969,3.0508 c 0,0 -2.5629,-8.3139 -2.8186,-14.1864 l -11.365,0.3037 c -0.2246,6.3316 1.5513,12.0925 1.5513,12.0925 l 1.5876,5.1503 0.012,0.04 -7.3531,2.2666 -4.1756,-13.5459 -1.5688,0.4838 -9.5579,2.946 -20.5199,6.3252 -3.6401,-11.8091 -1.7766,-0.565 5.5525,-17.4745 -11.8911,-3.7786 25.5798,-80.4948 40.7052,-128.0833 8.1705,0.2666 4.6105,-14.5083 -6.3508,-4.9809 1.5027,-3.1281 12.4442,5.9781 43.5606,-90.6784 -16.5557,-7.9532 -34.7237,72.2828 -8.837,18.3956 -2.5004,5.2052 -16.4414,-12.8946 1.9952,-2.5441 -8.3303,-6.5334 -1.9955,2.5439 -0.3779,-0.2959 -10.0013,12.7518 20.0238,15.7043 -2.989,9.406 -3.0819,-0.9787 -2.7994,8.8081 3.081,0.9805 -19.6672,61.8872 -3.0817,-0.9792 -2.7993,8.8095 3.0807,0.9781 -14.1801,44.6218 7.5036,2.3825 -19.7076,62.0136 -3.0818,-0.9787 -2.8006,8.809 3.0816,0.9793 -8.4512,26.5953 -26.0675,8.0354 -0.1715,-0.074 3.3391,-7.7512 -17.7761,-7.6553 -2.0588,4.783 -3.9561,-1.7045 -1.279,2.9703 -48.0733,-20.7011 1.2785,-2.9707 -8.4886,-3.6554 -1.2794,2.9695 -50.9472,-21.9398 1.2788,-2.9682 -8.4892,-3.6572 -1.2791,2.9704 -42.4003,-18.2586 1.2788,-2.9698 -11.5078,-4.9557 -1.2794,2.9695 -0.5422,-0.2328 z m 283.3106,110.5066 7.3531,-2.2665 7.6017,24.6595 -1.0441,0.3222 -2.2881,-7.4228 -4.8195,1.4856 1.0002,3.2448 -1.4899,0.4593 -6.3137,-20.4831 z m 18.3879,-5.6681 9.8974,-3.0508 10e-5,0 7.6014,24.6602 -9.897,3.0507 -7.6014,-24.6601 z m 11.5024,37.3149 9.8966,-3.0505 3.3753,10.9505 3.9002,12.6536 3.3755,10.9504 -9.8966,3.0506 -10.6516,-34.5544 z m 15.986,-9.2301 17.6834,-5.4511 4.5864,14.879 -17.6839,5.4508 -3.3756,-10.95 -1.211,-3.9285 z m -18.5313,66.2815 1.4894,-0.4593 1.0003,3.2448 4.8185,-1.4857 -2.2879,-7.4224 1.045,-0.3221 3e-4,10e-5 7.6014,24.6597 -7.3532,2.2666 -6.3142,-20.4839 z m 27.0174,-38.7463 17.6839,-5.4508 4.5861,14.8781 -17.6839,5.4509 -1.2109,-3.9276 -3.3752,-10.9506 z m -9.9182,28.9031 9.8952,-3.0502 7.6011,24.6593 -9.8952,3.0502 -7.6014,-24.6601 z"
       style="opacity:1;fill:#dddddd;fill-opacity:1;stroke:#222222;stroke-width:1.5;stroke-linejoin:miter;stroke-miterlimit:4;stroke-dasharray:none;stroke-dashoffset:0;stroke-opacity:1"
       inkscape:connector-curvature="0" />
  </g>
  <g
     inkscape:groupmode="layer"
     id="layer1"
     inkscape:label="Label"
     transform="translate(-1670.7299,-1097.2373)">
    <g
       id="g4842"
       transform="translate(-264.53997,470.51681)">
      <g
         style="font-style:normal;font-variant:normal;font-weight:bold;font-stretch:normal;font-size:125px;line-height:125%;font-family:Overpass;-inkscape-font-specification:'Overpass, Bold';text-align:start;letter-spacing:0px;word-spacing:0px;writing-mode:lr-tb;text-anchor:start;fill:#dddddd;fill-opacity:1;stroke:#222222;stroke-width:0.25;stroke-linecap:butt;stroke-linejoin:miter;stroke-miterlimit:4;stroke-dasharray:none;stroke-opacity:1"
         id="text4834">
        <path
           d="m 2340.2305,1339.4143 38.3911,0 q 7.9956,0 13.4277,2.0142 5.4321,2.0141 8.728,5.31 3.357,3.2959 4.7608,7.5073 1.4648,4.2115 1.4648,8.667 0,2.8077 -0.6103,5.4322 -0.5493,2.6245 -1.8311,4.9438 -1.2817,2.2583 -3.2959,4.2114 -2.0141,1.8921 -4.8828,3.2959 3.7232,1.4039 6.2866,3.6622 2.6245,2.1972 4.2115,4.8828 1.6479,2.6855 2.3803,5.6762 0.7325,2.9908 0.7325,5.9204 0,4.6387 -1.587,9.2774 -1.5258,4.6387 -5.0659,8.3618 -3.479,3.7231 -9.1553,6.0425 -5.6152,2.3193 -13.7939,2.3193 l -40.1611,0 0,-87.5244 z m 41.0156,71.7774 q 3.418,0 5.6763,-0.9156 2.2583,-0.9765 3.54,-2.4414 1.3428,-1.4648 1.8921,-3.2959 0.5493,-1.831 0.5493,-3.6011 0,-2.1362 -0.6714,-4.1503 -0.6103,-2.0752 -2.3193,-3.6622 -1.709,-1.5869 -4.6387,-2.5634 -2.9297,-0.9766 -7.5073,-0.9766 l -20.6299,0 0,21.6065 24.1089,0 z m -4.6387,-37.3536 q 6.7139,0 9.9488,-2.5634 3.2959,-2.6246 3.2959,-6.836 0,-1.6479 -0.4273,-3.2959 -0.4272,-1.6479 -1.6479,-2.9907 -1.1597,-1.3428 -3.2959,-2.1362 -2.1363,-0.8545 -5.6153,-0.8545 l -21.7285,0 0,18.6767 19.4702,0 z"
           style=""
           id="path4868" />
        <path
           d="m 2484.0903,1426.9387 -34.729,-51.0254 q -0.8545,-1.2817 -1.8921,-3.1128 -0.9765,-1.8921 -1.7089,-3.479 0.1831,1.4038 0.2441,3.2959 0.1221,1.8921 0.1221,3.2959 l 0,51.0254 -16.7847,0 0,-87.5244 15.8691,0 33.8745,50.415 q 0.7935,1.2207 1.8311,3.0518 1.0376,1.8311 1.8311,3.54 -0.1831,-1.77 -0.3052,-3.54 -0.061,-1.8311 -0.061,-3.0518 l 0,-50.415 16.7237,0 0,87.5244 -15.0147,0 z"
           style=""
           id="path4870" />
        <path
           d="m 2580.4038,1426.9387 -6.7749,-18.1274 -33.7524,0 -6.7139,18.1274 -18.1274,0 33.5083,-87.5244 16.4794,0 33.5084,87.5244 -18.1275,0 z m -20.874,-56.2744 q -0.6714,-1.5869 -1.4649,-3.7842 -0.7324,-2.1972 -1.2817,-4.0893 -0.4883,1.8921 -1.2817,4.0893 -0.7935,2.1973 -1.4649,3.7842 l -8.667,22.7661 22.7661,0 -8.6059,-22.7661 z"
           style=""
           id="path4872" />
      </g>
      <g
         style="font-style:normal;font-variant:normal;font-weight:normal;font-stretch:normal;font-size:45px;line-height:125%;font-family:Overpass;-inkscape-font-specification:'Overpass, Normal';text-align:start;letter-spacing:0px;word-spacing:0px;writing-mode:lr-tb;text-anchor:start;fill:#222222;fill-opacity:1;stroke:none;stroke-width:1px;stroke-linecap:butt;stroke-linejoin:miter;stroke-opacity:1"
         id="text4838">
        <path
           d="m 2398.8267,1474.5613 -13.6231,-21.3794 -1.2744,-2.3291 0.1318,2.3291 0,21.3794 -4.6801,0 0,-31.5088 4.7241,0 13.2934,21.0278 1.2964,2.417 -0.1318,-2.373 0,-21.0718 4.6802,0 0,31.5088 -4.4165,0 z"
           style=""
           id="path4875" />
        <path
           d="m 2428.3359,1474.5613 -4.4824,0 0,-1.9776 q -0.4394,0.4615 -1.0547,0.9229 -0.6152,0.4394 -1.4062,0.813 -0.7691,0.3515 -1.7359,0.5713 -0.9668,0.2197 -2.1093,0.2197 -1.7578,0 -3.252,-0.4834 -1.4941,-0.4834 -2.5928,-1.4502 -1.0986,-0.9888 -1.7358,-2.417 -0.6152,-1.4502 -0.6152,-3.3618 0,-1.9775 0.747,-3.4058 0.7471,-1.4502 1.9776,-2.373 1.2304,-0.9448 2.8125,-1.3843 1.604,-0.4394 3.2959,-0.4394 1.582,0 3.0322,0.3515 1.4722,0.3296 2.6367,1.0108 l 0,-1.2745 q 0,-1.2963 -0.3076,-2.1972 -0.2856,-0.9009 -0.9009,-1.4502 -0.5932,-0.5713 -1.5161,-0.813 -0.9228,-0.2637 -2.1973,-0.2637 -2.1533,0 -3.7353,0.5713 -1.5601,0.5713 -2.8345,1.5161 l -1.3843,-3.8452 q 0.7032,-0.4834 1.604,-0.9009 0.9009,-0.4394 1.9776,-0.769 1.0766,-0.3296 2.3291,-0.5054 1.2524,-0.1977 2.6806,-0.1977 0.9668,0 1.9996,0.1098 1.0327,0.1099 1.9995,0.4395 0.9887,0.3076 1.8457,0.9009 0.8789,0.5932 1.5161,1.56 0.6592,0.9448 1.0327,2.3291 0.3735,1.3843 0.3735,3.2959 l 0,14.8975 z m -9.9316,-3.6035 q 1.7798,0 3.1421,-0.7251 1.3843,-0.7251 2.3071,-1.7359 l 0,-3.5156 q -0.9668,-0.5054 -2.2632,-0.813 -1.2964,-0.3076 -2.6587,-0.3076 -1.0546,0 -1.9775,0.1977 -0.9228,0.1978 -1.626,0.6373 -0.6811,0.4174 -1.0766,1.0986 -0.3955,0.6592 -0.3955,1.604 0,1.6479 1.1425,2.6147 1.1646,0.9449 3.4058,0.9449 z"
           style=""
           id="path4877" />
        <path
           d="m 2441.8052,1475.1106 q -1.3623,0 -2.6587,-0.2637 -1.2964,-0.2636 -2.439,-0.747 -1.1206,-0.4834 -2.0434,-1.1646 -0.9229,-0.7031 -1.5381,-1.5601 l 3.3178,-2.8344 q 0.3516,0.3296 0.857,0.747 0.5054,0.3955 1.1645,0.7471 0.6592,0.3516 1.4722,0.5933 0.813,0.2417 1.7798,0.2417 0.8789,0 1.626,-0.1319 0.747,-0.1318 1.2744,-0.4174 0.5493,-0.2857 0.8349,-0.7471 0.3077,-0.4834 0.3077,-1.1865 0,-0.813 -0.5713,-1.3843 -0.5494,-0.5933 -1.4502,-1.0547 -0.9009,-0.4834 -2.0435,-0.9009 -1.1426,-0.4394 -2.3071,-0.9228 -1.0767,-0.4615 -2.1094,-1.0108 -1.0327,-0.5493 -1.8457,-1.3183 -0.791,-0.7691 -1.2964,-1.8238 -0.4834,-1.0766 -0.4834,-2.5927 0,-1.5381 0.6153,-2.7246 0.6372,-1.1866 1.7138,-1.9776 1.0987,-0.813 2.5489,-1.2305 1.4721,-0.4174 3.142,-0.4174 1.4722,0 2.7027,0.2856 1.2524,0.2857 2.2412,0.7691 1.0107,0.4834 1.7798,1.1206 0.769,0.6152 1.3403,1.2963 l -3.3838,2.6807 q -0.3076,-0.3076 -0.7471,-0.6372 -0.4174,-0.3516 -0.9887,-0.6372 -0.5713,-0.2857 -1.2964,-0.4614 -0.7251,-0.1978 -1.648,-0.1978 -1.4941,0 -2.373,0.5493 -0.8569,0.5493 -0.8569,1.5821 0,0.6591 0.4614,1.1645 0.4614,0.4834 1.2524,0.9009 0.791,0.4175 1.8018,0.813 1.0327,0.3735 2.1533,0.813 1.1865,0.4614 2.3291,1.0327 1.1426,0.5713 2.0215,1.4062 0.9009,0.835 1.4282,2.0215 0.5493,1.1865 0.5493,2.8565 0,1.6479 -0.6152,2.9223 -0.6152,1.2525 -1.7578,2.1094 -1.1206,0.835 -2.7246,1.2524 -1.5821,0.4395 -3.5376,0.4395 z"
           style=""
           id="path4879" />
        <path
           d="m 2470.2817,1474.5613 0,-13.7329 q 0,-1.4502 -0.3515,-2.461 -0.3516,-1.0327 -0.9668,-1.6699 -0.6153,-0.6592 -1.4502,-0.9448 -0.835,-0.3076 -1.8237,-0.3076 -1.0547,0 -1.9556,0.2856 -0.9009,0.2637 -1.5601,0.8789 -0.6592,0.6153 -1.0547,1.648 -0.3735,1.0107 -0.3735,2.4829 l 0,13.8208 -4.6802,0 0,-30.3223 4.6802,-2.1753 0,11.7114 q 1.1206,-1.4282 2.5708,-2.0874 1.4502,-0.6591 3.3618,-0.6591 1.8018,0 3.3179,0.5273 1.5161,0.5054 2.6147,1.6699 1.1206,1.1646 1.7359,3.0323 0.6152,1.8676 0.6152,4.5703 l 0,13.7329 -4.6802,0 z"
           style=""
           id="path4881" />
        <path
           d="m 2491.9907,1474.5613 -4.3725,0 -8.4156,-23.0054 4.6802,0 5.3174,15.0952 q 0.1977,0.5933 0.3296,1.0327 0.1538,0.4395 0.3076,0.9888 0.1318,-0.5493 0.2637,-0.9888 0.1538,-0.4394 0.3515,-1.0327 l 5.2735,-15.0952 4.6802,0 -8.4156,23.0054 z"
           style=""
           id="path4883" />
        <path
           d="m 2504.9766,1474.5613 0,-23.0054 4.6801,0 0,23.0054 -4.6801,0 z m 2.3291,-26.5869 q -0.5933,0 -1.1206,-0.2198 -0.5054,-0.2197 -0.9009,-0.5932 -0.3736,-0.3955 -0.5933,-0.9009 -0.2197,-0.5273 -0.2197,-1.1206 0,-0.5933 0.2197,-1.0986 0.2197,-0.5274 0.5933,-0.9009 0.3955,-0.3955 0.9009,-0.6153 0.5273,-0.2197 1.1206,-0.2197 0.5932,0 1.0986,0.2197 0.5273,0.2198 0.9009,0.6153 0.3955,0.3735 0.6152,0.9009 0.2197,0.5053 0.2197,1.0986 0,0.5933 -0.2197,1.1206 -0.2197,0.5054 -0.6152,0.9009 -0.3736,0.3735 -0.9009,0.5932 -0.5054,0.2198 -1.0986,0.2198 z"
           style=""
           id="path4885" />
        <path
           d="m 2516.666,1474.5613 0,-30.2783 4.6802,-2.2193 0,32.4976 -4.6802,0 z"
           style=""
           id="path4887" />
        <path
           d="m 2528.5313,1474.5613 0,-30.2783 4.6801,-2.2193 0,32.4976 -4.6801,0 z"
           style=""
           id="path4889" />
        <path
           d="m 2549.4932,1475.1106 q -2.3951,0 -4.3286,-0.813 -1.9336,-0.835 -3.2959,-2.373 -1.3624,-1.5601 -2.1094,-3.8013 -0.7251,-2.2412 -0.7251,-5.0757 0,-2.8345 0.7471,-5.0537 0.747,-2.2412 2.1093,-3.7793 1.3843,-1.5601 3.2959,-2.373 1.9336,-0.813 4.3067,-0.813 2.0434,0 3.8232,0.6591 1.8018,0.6373 3.1421,1.9776 1.3623,1.3183 2.1313,3.3398 0.7911,2.0215 0.7911,4.7681 0,0.7471 -0.044,1.582 -0.022,0.835 -0.1318,1.4502 l -15.4907,0 q 0.022,1.4282 0.5053,2.5708 0.5054,1.1206 1.3184,1.9336 0.813,0.791 1.8457,1.2305 1.0327,0.4175 2.1533,0.4175 1.4282,0 2.6367,-0.5933 1.2305,-0.5933 2.1314,-1.7358 l 3.0542,3.1421 q -1.2525,1.4941 -3.208,2.4169 -1.9556,0.9229 -4.6582,0.9229 z m 0,-19.9512 q -1.0987,0 -2.1094,0.3296 -1.0108,0.3076 -1.8018,1.0108 -0.769,0.6811 -1.2744,1.8017 -0.5054,1.1206 -0.5932,2.7246 l 10.9863,0 q -0.044,-1.604 -0.5054,-2.7246 -0.4614,-1.1206 -1.2085,-1.8017 -0.7471,-0.7032 -1.6699,-1.0108 -0.9009,-0.3296 -1.8237,-0.3296 z"
           style=""
           id="path4891" />
      </g>
    </g>
  </g>
  <g
     inkscape:groupmode="layer"
     id="layer3"
     inkscape:label="Date"
     transform="translate(-1670.7299,-1097.2373)">
    <g
       style="font-style:normal;font-variant:normal;font-weight:300;font-stretch:normal;font-size:15px;line-height:125%;font-family:Overpass;-inkscape-font-specification:'Overpass, Light';text-align:start;letter-spacing:0px;word-spacing:0px;writing-mode:lr-tb;text-anchor:start;fill:#222222;fill-opacity:1;stroke:none;stroke-width:1px;stroke-linecap:butt;stroke-linejoin:miter;stroke-opacity:1"
       id="text4830">
      <path
         d="m 1695.7299,1981.4592 q 0,-0.99 0.285,-1.695 0.285,-0.72 0.735,-1.26 0.45,-0.54 1.02,-0.945 0.57,-0.405 1.14,-0.795 0.495,-0.33 0.945,-0.645 0.45,-0.33 0.795,-0.69 0.36,-0.36 0.57,-0.765 0.21,-0.42 0.21,-0.93 0,-0.855 -0.6,-1.425 -0.585,-0.585 -1.68,-0.585 -1.065,0 -1.605,0.48 -0.54,0.465 -0.735,1.215 l -0.93,-0.42 q 0.12,-0.465 0.405,-0.87 0.285,-0.405 0.72,-0.705 0.435,-0.3 0.99,-0.465 0.57,-0.18 1.245,-0.18 1.56,0 2.415,0.81 0.87,0.795 0.87,2.145 0,0.72 -0.285,1.275 -0.27,0.555 -0.72,1.02 -0.435,0.45 -0.99,0.84 -0.555,0.375 -1.125,0.735 -0.45,0.3 -0.87,0.6 -0.42,0.285 -0.78,0.63 -0.345,0.33 -0.585,0.735 -0.24,0.39 -0.33,0.885 l 5.775,0 0,1.005 -6.885,0 z"
         style=""
         id="path4849" />
      <path
         d="m 1704.7241,1981.4592 q 0,-0.99 0.285,-1.695 0.285,-0.72 0.735,-1.26 0.45,-0.54 1.02,-0.945 0.57,-0.405 1.14,-0.795 0.495,-0.33 0.945,-0.645 0.45,-0.33 0.795,-0.69 0.36,-0.36 0.57,-0.765 0.21,-0.42 0.21,-0.93 0,-0.855 -0.6,-1.425 -0.585,-0.585 -1.68,-0.585 -1.065,0 -1.605,0.48 -0.54,0.465 -0.735,1.215 l -0.93,-0.42 q 0.12,-0.465 0.405,-0.87 0.285,-0.405 0.72,-0.705 0.435,-0.3 0.99,-0.465 0.57,-0.18 1.245,-0.18 1.56,0 2.415,0.81 0.87,0.795 0.87,2.145 0,0.72 -0.285,1.275 -0.27,0.555 -0.72,1.02 -0.435,0.45 -0.99,0.84 -0.555,0.375 -1.125,0.735 -0.45,0.3 -0.87,0.6 -0.42,0.285 -0.78,0.63 -0.345,0.33 -0.585,0.735 -0.24,0.39 -0.33,0.885 l 5.775,0 0,1.005 -6.885,0 z"
         style=""
         id="path4851" />
      <path
         d="m 1724.0452,1981.4592 -5.31,-8.535 0,8.535 -1.05,0 0,-10.5 1.065,0 5.31,8.655 0,-8.655 1.05,0 0,10.5 -1.065,0 z"
         style=""
         id="path4853" />
      <path
         d="m 1730.7964,1980.6942 q 1.05,0 1.62,-0.81 0.57,-0.81 0.57,-2.265 0,-1.44 -0.555,-2.25 -0.555,-0.81 -1.635,-0.81 -1.08,0 -1.635,0.795 -0.555,0.78 -0.555,2.28 0,1.44 0.555,2.25 0.555,0.81 1.635,0.81 z m 0,-7.08 q 0.735,0 1.335,0.27 0.615,0.27 1.035,0.78 0.435,0.51 0.675,1.26 0.24,0.735 0.24,1.695 0,0.945 -0.24,1.695 -0.24,0.75 -0.675,1.275 -0.42,0.51 -1.035,0.78 -0.6,0.27 -1.335,0.27 -0.735,0 -1.35,-0.27 -0.6,-0.27 -1.035,-0.78 -0.42,-0.51 -0.66,-1.245 -0.24,-0.75 -0.24,-1.71 0,-0.945 0.24,-1.68 0.24,-0.75 0.66,-1.26 0.435,-0.525 1.035,-0.795 0.615,-0.285 1.35,-0.285 z"
         style=""
         id="path4855" />
      <path
         d="m 1738.6487,1981.4592 -0.735,0 -2.805,-7.665 1.08,0 2.13,5.985 2.085,-5.985 1.05,0 -2.805,7.665 z"
         style=""
         id="path4857" />
      <path
         d="m 1746.5893,1981.4592 q 0,-0.99 0.285,-1.695 0.285,-0.72 0.735,-1.26 0.45,-0.54 1.02,-0.945 0.57,-0.405 1.14,-0.795 0.495,-0.33 0.945,-0.645 0.45,-0.33 0.795,-0.69 0.36,-0.36 0.57,-0.765 0.21,-0.42 0.21,-0.93 0,-0.855 -0.6,-1.425 -0.585,-0.585 -1.68,-0.585 -1.065,0 -1.605,0.48 -0.54,0.465 -0.735,1.215 l -0.93,-0.42 q 0.12,-0.465 0.405,-0.87 0.285,-0.405 0.72,-0.705 0.435,-0.3 0.99,-0.465 0.57,-0.18 1.245,-0.18 1.56,0 2.415,0.81 0.87,0.795 0.87,2.145 0,0.72 -0.285,1.275 -0.27,0.555 -0.72,1.02 -0.435,0.45 -0.99,0.84 -0.555,0.375 -1.125,0.735 -0.45,0.3 -0.87,0.6 -0.42,0.285 -0.78,0.63 -0.345,0.33 -0.585,0.735 -0.24,0.39 -0.33,0.885 l 5.775,0 0,1.005 -6.885,0 z"
         style=""
         id="path4859" />
      <path
         d="m 1759.1684,1981.6392 q -1.035,0 -1.725,-0.48 -0.69,-0.48 -1.11,-1.245 -0.405,-0.78 -0.585,-1.74 -0.18,-0.975 -0.18,-1.965 0,-0.54 0.06,-1.155 0.06,-0.63 0.21,-1.23 0.165,-0.6 0.42,-1.155 0.27,-0.555 0.675,-0.975 0.405,-0.42 0.945,-0.66 0.555,-0.255 1.29,-0.255 1.035,0 1.725,0.495 0.69,0.48 1.095,1.26 0.42,0.78 0.6,1.755 0.18,0.96 0.18,1.92 0,0.555 -0.075,1.17 -0.06,0.615 -0.225,1.23 -0.15,0.6 -0.42,1.155 -0.255,0.54 -0.66,0.96 -0.405,0.42 -0.96,0.675 -0.54,0.24 -1.26,0.24 z m 0,-0.945 q 0.78,0 1.26,-0.42 0.495,-0.435 0.765,-1.095 0.27,-0.66 0.36,-1.455 0.09,-0.795 0.09,-1.515 0,-0.81 -0.105,-1.605 -0.105,-0.81 -0.39,-1.44 -0.285,-0.645 -0.765,-1.035 -0.48,-0.405 -1.215,-0.405 -0.795,0 -1.29,0.435 -0.48,0.435 -0.75,1.095 -0.27,0.66 -0.375,1.455 -0.09,0.78 -0.09,1.5 0,0.825 0.105,1.635 0.105,0.795 0.39,1.44 0.285,0.63 0.765,1.02 0.495,0.39 1.245,0.39 z"
         style=""
         id="path4861" />
      <path
         d="m 1766.1905,1981.4592 0,-8.595 -1.785,0 0,-0.6 q 0.795,0 1.35,-0.27 0.555,-0.285 0.81,-1.035 l 0.675,0 0,10.5 -1.05,0 z"
         style=""
         id="path4863" />
      <path
         d="m 1771.2753,1981.4592 q 0.015,-1.23 0.15,-2.43 0.15,-1.2 0.51,-2.385 0.375,-1.185 0.99,-2.37 0.615,-1.2 1.575,-2.415 l -5.085,0 0,-0.9 6.285,0 0,0.69 q -1.095,1.26 -1.755,2.595 -0.66,1.32 -1.02,2.61 -0.36,1.275 -0.48,2.46 -0.12,1.185 -0.12,2.145 l -1.05,0 z"
         style=""
         id="path4865" />
    </g>
  </g>
</svg>
