<?xml version="1.0" encoding="UTF-8" standalone="no"?>
<!-- Created with Inkscape (http://www.inkscape.org/) -->

<svg
   xmlns:dc="http://purl.org/dc/elements/1.1/"
   xmlns:cc="http://creativecommons.org/ns#"
   xmlns:rdf="http://www.w3.org/1999/02/22-rdf-syntax-ns#"
   xmlns:svg="http://www.w3.org/2000/svg"
   xmlns="http://www.w3.org/2000/svg"
   xmlns:sodipodi="http://sodipodi.sourceforge.net/DTD/sodipodi-0.dtd"
   xmlns:inkscape="http://www.inkscape.org/namespaces/inkscape"
   width="976.57886"
   height="1257.4109"
   viewBox="0 0 976.57886 1257.4109"
   id="svg2"
   version="1.1"
   inkscape:version="0.91 r13725"
   sodipodi:docname="BOS.svg">
  <defs
     id="defs4" />
  <sodipodi:namedview
     id="base"
     pagecolor="#ffffff"
     bordercolor="#666666"
     borderopacity="1.0"
     inkscape:pageopacity="1"
     inkscape:pageshadow="2"
     inkscape:zoom="0.49497475"
     inkscape:cx="-88.091082"
     inkscape:cy="594.78621"
     inkscape:document-units="px"
     inkscape:current-layer="layer1"
     showgrid="false"
     units="px"
     fit-margin-top="25"
     fit-margin-left="25"
     fit-margin-right="25"
     fit-margin-bottom="25"
     inkscape:window-width="1680"
     inkscape:window-height="987"
     inkscape:window-x="1672"
     inkscape:window-y="-8"
     inkscape:window-maximized="1" />
  <metadata
     id="metadata7">
    <rdf:RDF>
      <cc:Work
         rdf:about="">
        <dc:format>image/svg+xml</dc:format>
        <dc:type
           rdf:resource="http://purl.org/dc/dcmitype/StillImage" />
        <dc:title></dc:title>
      </cc:Work>
    </rdf:RDF>
  </metadata>
  <g
     inkscape:groupmode="layer"
     id="layer2"
     inkscape:label="Terminal"
     transform="translate(-187.59382,-317.86)">
    <path
       id="path3349"
       style="fill:#dddddd;fill-opacity:1;fill-rule:evenodd;stroke:#222222;stroke-width:1;stroke-linecap:butt;stroke-linejoin:miter;stroke-miterlimit:4;stroke-dasharray:none;stroke-opacity:1"
       d="m 637.85378,343.39062 -9.51466,2.08515 -10.15626,15.5006 -7.60479,-4.35551 -3.17486,4.83836 -23.58493,-15.27076 4.08267,18.5961 8.4663,5.59404 -9.3741,14.06034 3.93054,2.72179 1.6635,-2.26871 11.03595,7.40801 -39.63948,64.30089 167.83778,102.84074 1.06986,-2.13807 25.44189,14.9665 -0.64158,5.77262 6.2009,3.63456 -7.9107,14.32657 3.84787,41.90488 -1.9231,-0.21331 c 0,0 0.42613,9.40705 2.778,17.31788 l -5.12112,1.40554 c 0,0 13.46069,44.99123 41.04171,75.35172 0,0 23.51879,26.93995 67.7767,49.81723 l 0.79041,-1.80239 c 0,0 13.75774,6.65184 30.69034,11.33855 l 5.44191,1.51137 7.10541,83.15163 c 0,0 -23.58376,9.67577 -39.00451,21.16575 0,0 -22.07261,16.02432 -35.67917,33.41047 l -10.60933,14.14468 -14.7532,-10.47705 -16.88959,26.72671 3.84786,2.13808 -12.61512,19.66927 5.13104,2.99296 -32.92597,55.16319 8.55229,4.4895 -1.06821,2.5647 1.49648,1.0698 -7.05579,13.2567 -2.77967,7.9108 0.8549,5.131 1.92477,-0.6416 90.44058,376.2989 -14.75319,40.4101 1.49648,0.6416 -2.77965,8.5523 5.98759,2.3513 -9.19387,24.3737 -15.60809,2.993 -12.82843,-9.1938 2.99298,-2.1381 -62.4307,-73.1211 9.19387,-7.4841 -50.33315,-208.7802 -23.13184,6.0471 12.39684,51.403 -13.90821,3.4774 -0.90781,-1.814 -16.10086,3.9306 -0.37701,2.5697 -7.63621,1.0583 -0.17032,41.4054 5.13104,-1.389 1.60397,5.8801 -45.00699,11.2245 -2.24555,-9.1938 -43.61632,11.2244 2.03224,7.6974 -30.14796,7.9107 6.2009,28.0082 30.7879,-8.9788 1.17569,3.9553 47.67916,-11.9735 -1.7098,-6.7351 42.33315,-10.6903 1.39066,6.5217 10.1546,-2.1381 0.64158,2.2439 24.48117,-5.0235 -0.42827,-2.2456 6.73501,-1.1757 14.86067,60.2926 -16.92599,4.0298 5.59405,22.8276 13.75773,-3.9305 1.88838,7.3319 -9.67506,-0.9062 2.19264,12.0943 c 0,0 4.3834,24.9459 26.30506,41.1227 l 61.98588,44.296 32.05123,-1.361 1.36089,-2.8722 2.41918,0.1521 28.87471,-78.768 -1.05829,-1.0583 38.70357,-103.8626 -21.16575,4.5357 -1.05829,1.6636 -5.74452,-1.6636 -1.36089,7.1054 -13.30466,3.3254 -12.24471,-49.7396 c 0,0 10.43074,-21.0136 -8.61843,-39.0045 l -3.32535,0.9062 -4.98882,-20.5605 3.4758,-0.9061 -2.11657,-8.6185 -3.77842,1.0583 -1.66349,-6.5003 40.51753,-9.9793 -5.74452,-22.5249 76.49765,-18.2936 1.81563,7.4081 20.56052,-5.141 0.45311,-8.4663 c 0,0 1.66363,-13.1532 -5.44196,-23.5849 l -4.68788,-6.3497 -21.16572,5.4435 1.81563,7.7107 -57.29966,13.7577 -1.20876,-4.6878 -12.24637,2.8721 -1.36089,-7.408 -27.81808,-6.1976 -0.45308,3.0228 -2.41918,-0.3009 -26.60767,6.5001 c 0.0191,-0.5195 -23.88753,-103.4095 -23.88753,-103.4095 l 2.11658,-0.7557 0.6052,-4.6879 -6.95493,-25.0962 -2.87226,-1.0583 3.02273,-5.1394 -4.23315,-2.4192 1.3609,-2.1166 -0.90616,-0.453 1.81397,-3.0244 -7.25753,-4.6863 36.67627,-63.2971 9.40719,4.48946 c 0,0 -2.35074,5.55999 -4.06119,10.26373 l 15.60644,5.98597 c 0,0 8.55252,-23.5184 26.29845,-45.11284 l -5.77263,-5.13105 c 0,0 7.69676,-8.76578 15.8214,-15.82139 l 5.98759,6.41421 c 0,0 18.81413,-17.74603 45.32612,-29.93299 l 50.45878,-4.06284 -0.21326,-11.54525 10.36952,6.73501 3.41962,-5.45184 1.28316,0.8549 -3.84785,6.30673 80.49762,50.35133 2.5663,-4.48945 23.0906,14.53822 -23.3055,38.05871 -6.4143,-4.70446 -3.5088,5.34604 -2.2637,-1.4982 -7.8843,12 18.7896,13.2303 79.322,-125.93294 -20.0976,-12.50764 -10.5845,15.50226 3.5287,2.45886 -2.8872,4.16866 c 0,0 -1.1752,1.49683 0.7491,2.77967 l 4.4895,3.20628 -3.6345,5.88011 -9.5147,-5.77263 -17.7462,27.36665 -13.3626,-7.58991 0.7475,-1.49648 -25.1211,-15.39478 8.7656,-14.9665 -23.198,-14.6457 -9.2997,15.28729 -19.5635,-12.18684 2.4589,-4.06118 -12.40176,-7.48408 -0.10583,-3.52708 17.63869,-6.20089 -0.5457,-12.32575 1.2088,-0.15213 c -0.022,-0.56506 -1.6264,-23.54897 -4.8334,-48.35051 l -1.4965,0 -0.7474,-14.9665 -25.44364,-6.62752 74.29844,-65.74611 -4.2761,-4.38197 3.8478,-3.10046 3.5288,3.31377 8.2314,-7.3766 18.7069,20.84661 -3.8479,3.42124 4.597,5.23853 6.3067,-6.5217 4.9177,5.23853 -2.6721,2.45887 6.52,7.37659 16.9988,-15.60809 -98.3513,-109.68323 -16.78377,16.03471 4.70437,5.13269 2.4589,-2.35304 6.6275,7.16329 -6.4142,6.2009 39.5535,43.29554 -8.5523,7.5899 -2.138,-2.35138 -61.723,56.62169 -10.88554,-11.18809 -1.66185,1.51137 -13.30462,-10.88547 -17.68829,-0.90617 1.05829,20.41007 -5.44357,5.13931 c 0,0 -11.33738,-0.90733 -27.81642,-6.65233 l -1.21042,3.6296 c 0,0 -40.06421,-12.24685 -72.56876,-48.83336 l -1.51136,1.21042 c 0,0 -26.75886,-29.17968 -34.01568,-66.06856 l 2.87226,-0.45308 -1.05829,-7.02934 -3.93055,0.37701 c 0,0 -3.29606,-6.79773 -3.08226,-23.26083 l 0.10583,-23.30548 c 0,0 -0.32029,-5.55866 1.60397,-9.40717 l 3.10045,1.70979 2.56635,-4.70277 -0.74907,-0.32079 29.39889,-47.89246 -0.89292,-4.24308 9.67506,-1.20876 4.08268,-6.50186 -2.41919,-9.37246 -3.47746,-1.96609 -5.89665,10.12979 -4.23315,0.90782 -0.75568,-2.87392 -10.58288,-6.5002 6.34973,-10.12979 5.59404,2.87225 5.44192,-8.31417 -6.19761,-3.62794 13.00206,-20.41007 -1.05828,-5.29144 -13.75774,-7.86274 -5.89665,1.51302 -3.02438,4.8367 -1.05829,-0.60355 -9.8272,14.81602 -46.86559,-28.42328 16.17525,-24.49109 -17.08307,-10.4324 -6.5002,9.37411 6.65067,4.38363 -1.51136,2.41918 -31.14342,-18.59609 -2.56965,-9.22199 8.16369,-13.00205 -5.25671,-2.92684 -3.52708,5.87846 -5.23852,-2.35138 -11.75856,5.88011 -0.96239,-0.53411 -3.52872,5.87846 -19.56344,-11.54526 -2.88548,4.81026 -26.83255,-15.39313 0.74741,-1.28317 -6.52004,-4.16866 -1.0153,1.389 -3.52872,-2.35138 13.84373,-20.73913 -6.30674,-3.74203 z m 127.9635,166.66208 25.87016,16.6763 8.97891,-14.75153 2.13807,1.06821 -26.29679,41.26494 4.48946,3.20794 -5.13104,7.48242 -5.13105,-3.63456 -4.91772,6.84249 -18.60107,-11.76022 9.19223,-14.1116 -7.48242,-4.48946 16.89126,-27.79493 z m -354.65081,538.8394 12.69945,-18.8981 -2.41894,-1.6629 2.26776,-3.6285 -13.45537,-43.54093 -6.19854,-3.93079 3.32604,-4.98906 -4.53551,-3.17486 1.36065,-1.66303 -1.81421,-1.05829 3.7796,-5.29143 1.81421,1.36065 1.8142,-2.87249 -1.51183,-5.59381 -4.38434,1.36066 -1.96539,-6.50092 6.50091,-1.96538 4.08197,14.51365 9.22222,7.10565 10.2805,11.48998 1.36066,-1.36066 9.67577,8.61749 1.20947,-1.20947 29.1785,25.39894 103.10744,63.7996 34.31875,13.7577 -1.05829,1.663 10.12933,4.5355 -2.72132,1.6631 2.8725,1.2095 -14.81602,23.7358 -11.94353,-6.8032 -21.46812,33.5627 -9.3734,-5.7449 -2.26776,3.0237 -7.86157,-4.6868 2.26776,-3.6284 -16.9326,-9.9781 -1.66302,2.7213 -8.4663,-4.9891 1.66302,-2.7212 -8.61748,-4.9891 -1.20948,2.1165 -8.01275,-4.0819 -4.98906,-5.2914 1.05829,-1.3607 -3.62842,-2.4189 -25.85245,14.2112 0.15118,-28.5737 -6.19854,-0.4536 1.96539,-3.1748 -8.61748,-5.4427 -1.51184,2.5701 -7.25683,-4.3842 1.51184,-2.7214 -13.00182,-8.4663 -1.66302,2.7214 -7.10565,-4.2332 1.81421,-2.8725 z m -198.03925,324.9385 26.61889,2.3518 0.96213,-13.3628 4.27613,0.2138 0.4276,-10.2628 -4.16922,-0.3206 1.71046,-26.2983 4.70374,0.3208 0.42761,-10.1558 -4.59684,-0.1069 0.85522,-14.0043 6.4142,0.3207 0.74832,-11.7594 4.81064,0.3207 0.32072,-10.4765 -4.38303,-0.2138 0.85522,-19.6702 55.91036,-27.4741 -50.88592,-35.0642 0.32072,-5.3452 3.63471,0.3207 0.42761,-10.0489 -3.63471,-0.3207 0.74832,-13.4698 3.63471,0.2138 0.53451,-10.4765 -3.5278,-0.3207 0.2138,-3.5278 -6.09347,-0.3207 1.81735,-25.9775 3.95541,0.2138 0.64143,-9.4074 -3.74162,-0.3208 1.28284,-25.0153 -5.55896,-0.6414 0.64141,-12.5077 1.06904,-0.107 0.32071,-8.8729 -2.88639,-0.2138 1.49664,-29.2915 1.17594,0.1069 0.42761,-9.9419 -4.70374,-0.2138 -3.4209,60.721 -13.89741,-0.8553 z"
       inkscape:connector-curvature="0" />
  </g>
  <g
     inkscape:groupmode="layer"
     id="layer1"
     inkscape:label="Label">
    <g
       id="g4165"
       transform="translate(-77.357637,-268.17392)">
      <g
         style="font-style:normal;font-variant:normal;font-weight:bold;font-stretch:normal;font-size:125px;line-height:110.00000238%;font-family:Overpass;-inkscape-font-specification:'Overpass, Bold';text-align:center;letter-spacing:0px;word-spacing:0px;writing-mode:lr-tb;text-anchor:middle;fill:#dddddd;fill-opacity:1;stroke:#222222;stroke-width:0.25;stroke-linecap:butt;stroke-linejoin:miter;stroke-miterlimit:4;stroke-dasharray:none;stroke-opacity:1"
         id="text4157">
        <path
           d="m 102.48264,294.76376 38.39111,0 q 7.9956,0 13.42773,2.01416 5.43213,2.01416 8.72803,5.31006 3.35693,3.2959 4.76074,7.50733 1.46485,4.21142 1.46485,8.66699 0,2.80762 -0.61036,5.43213 -0.54931,2.62451 -1.83105,4.94385 -1.28174,2.2583 -3.2959,4.21142 -2.01416,1.89209 -4.88281,3.2959 3.72314,1.40381 6.28662,3.66211 2.62451,2.19726 4.21143,4.88281 1.64795,2.68555 2.38037,5.67627 0.73242,2.99072 0.73242,5.92041 0,4.63867 -1.58691,9.27734 -1.52588,4.63868 -5.06592,8.36182 -3.47901,3.72315 -9.15528,6.04248 -5.61523,2.31934 -13.79394,2.31934 l -40.16113,0 0,-87.52442 z m 41.01562,71.77735 q 3.41797,0 5.67627,-0.91553 2.2583,-0.97656 3.54004,-2.44141 1.34277,-1.46484 1.89209,-3.29589 0.54932,-1.83106 0.54932,-3.60108 0,-2.13623 -0.67139,-4.15039 -0.61035,-2.0752 -2.31934,-3.66211 -1.70898,-1.58691 -4.63867,-2.56348 -2.92969,-0.97656 -7.50732,-0.97656 l -20.62989,0 0,21.60645 24.10889,0 z m -4.63867,-37.35352 q 6.71387,0 9.94873,-2.56348 3.2959,-2.62451 3.2959,-6.83593 0,-1.64795 -0.42725,-3.2959 -0.42724,-1.64795 -1.64795,-2.99072 -1.15967,-1.34278 -3.2959,-2.13623 -2.13623,-0.8545 -5.61523,-0.8545 l -21.72852,0 0,18.67676 19.47022,0 z"
           style=""
           id="path4172" />
        <path
           d="m 227.11642,383.81406 q -7.08007,0 -12.69531,-1.83106 -5.61523,-1.89209 -9.94873,-5.06592 -4.27246,-3.23486 -7.32422,-7.56836 -3.05175,-4.39453 -5.00488,-9.39941 -1.89209,-5.06592 -2.80762,-10.49805 -0.85449,-5.49316 -0.85449,-10.92529 0,-5.37109 0.85449,-10.80322 0.91553,-5.49317 2.80762,-10.49805 1.95313,-5.06592 5.00488,-9.39941 3.05176,-4.39453 7.32422,-7.56836 4.3335,-3.23487 9.94873,-5.06592 5.61524,-1.89209 12.69531,-1.89209 7.08008,0 12.63428,1.89209 5.61524,1.83105 9.8877,5.06592 4.27246,3.17383 7.32422,7.56836 3.05175,4.33349 4.94384,9.39941 1.95313,5.00488 2.80762,10.49805 0.91553,5.43213 0.91553,10.80322 0,5.43213 -0.91553,10.92529 -0.85449,5.43213 -2.80762,10.49805 -1.89209,5.00488 -4.94384,9.39941 -3.05176,4.3335 -7.32422,7.56836 -4.27246,3.17383 -9.8877,5.06592 -5.5542,1.83106 -12.63428,1.83106 z m 0,-16.29639 q 5.85938,0 9.82666,-2.74658 4.02833,-2.74658 6.46973,-7.01905 2.50244,-4.27246 3.60108,-9.33837 1.09863,-5.12696 1.09863,-9.8877 0,-3.35693 -0.48828,-6.7749 -0.42725,-3.47901 -1.46485,-6.65283 -1.03759,-3.23487 -2.68554,-6.04248 -1.64795,-2.86866 -3.96729,-4.94385 -2.31933,-2.13623 -5.43213,-3.35694 -3.05176,-1.2207 -6.95801,-1.2207 -3.96728,0 -7.08007,1.28174 -3.05176,1.28174 -5.43213,3.479 -2.31934,2.13623 -3.96729,5.00489 -1.64795,2.86865 -2.68554,6.10351 -1.0376,3.23487 -1.52588,6.5918 -0.42725,3.35693 -0.42725,6.53076 0,5.00488 1.09863,10.19287 1.09864,5.12695 3.54004,9.33838 2.50244,4.15039 6.53076,6.83594 4.02832,2.62451 9.94873,2.62451 z"
           style=""
           id="path4174" />
        <path
           d="m 327.09201,318.56747 q -0.79346,-1.95312 -2.13623,-3.66211 -1.34277,-1.70898 -3.23486,-2.92968 -1.83106,-1.28174 -4.27246,-1.95313 -2.38038,-0.73242 -5.31006,-0.73242 -5.49317,0 -8.60596,2.19727 -3.05176,2.19726 -3.05176,6.16455 0,2.62451 1.95313,4.39453 1.95312,1.77002 5.12695,3.23486 3.17383,1.40381 7.20215,2.68555 4.08935,1.28174 8.36182,2.86865 4.27246,1.52588 8.30078,3.66211 4.08935,2.0752 7.26318,5.18799 3.17383,3.05176 5.12695,7.32422 1.95313,4.21142 1.95313,10.13183 0,6.40869 -2.44141,11.35254 -2.4414,4.94385 -6.71387,8.36182 -4.21142,3.41797 -10.00976,5.18799 -5.79834,1.77002 -12.51221,1.77002 -6.16455,0 -11.53564,-1.64795 -5.3711,-1.70899 -9.76563,-4.82178 -4.33349,-3.11279 -7.56836,-7.56836 -3.23486,-4.45557 -5.12695,-10.00977 l 15.38086,-5.7373 q 1.40381,3.05176 3.35693,5.61523 2.01416,2.50245 4.45557,4.3335 2.44141,1.77002 5.24902,2.80762 2.86866,0.97656 6.10352,0.97656 3.17383,0 5.7373,-0.67139 2.62452,-0.67138 4.45557,-2.01416 1.89209,-1.34277 2.86865,-3.2959 1.0376,-2.01416 1.0376,-4.63867 0,-3.17383 -1.95313,-5.31006 -1.95312,-2.19726 -5.12695,-3.78418 -3.17383,-1.64794 -7.26318,-2.92968 -4.02832,-1.34278 -8.30078,-2.80762 -4.21143,-1.46484 -8.30078,-3.41797 -4.02832,-1.95312 -7.20215,-4.82178 -3.17383,-2.86865 -5.12696,-6.89697 -1.95312,-4.02832 -1.95312,-9.76562 0,-4.94385 1.95312,-9.27735 2.01416,-4.39453 5.79834,-7.69043 3.78418,-3.2959 9.27735,-5.18799 5.49316,-1.95312 12.57324,-1.95312 5.92041,0 10.68115,1.52588 4.82178,1.52588 8.48389,4.27246 3.66211,2.68555 6.16455,6.40869 2.50244,3.66211 3.78418,8.05664 l -15.13672,5.00488 z"
           style=""
           id="path4176" />
      </g>
      <g
         style="font-style:normal;font-variant:normal;font-weight:normal;font-stretch:normal;font-size:45px;line-height:110.00000238%;font-family:Overpass;-inkscape-font-specification:'Overpass, Normal';text-align:center;letter-spacing:0px;word-spacing:0px;writing-mode:lr-tb;text-anchor:middle;fill:#222222;fill-opacity:1;stroke:none;stroke-width:1px;stroke-linecap:butt;stroke-linejoin:miter;stroke-opacity:1"
         id="text4161">
        <path
           d="m 155.32932,399.92795 11.93115,0 q 2.8125,0 4.72412,0.7251 1.91162,0.70312 3.07617,1.88964 1.16455,1.16455 1.64795,2.68067 0.50537,1.51611 0.50537,3.12012 0,1.97753 -1.07666,3.73535 -1.07666,1.73584 -3.25195,2.79052 1.47217,0.52735 2.50488,1.34034 1.03272,0.79101 1.69189,1.75781 0.65918,0.9668 0.94483,2.06543 0.30762,1.07666 0.30762,2.17529 0,1.60401 -0.54932,3.25195 -0.52734,1.64795 -1.75781,2.98829 -1.23047,1.31836 -3.22998,2.15332 -1.97754,0.83496 -4.85596,0.83496 l -12.6123,0 0,-31.50879 z m 12.96386,27.18017 q 1.56006,0 2.5708,-0.41748 1.03272,-0.41748 1.62598,-1.07666 0.59326,-0.68115 0.83496,-1.51611 0.2417,-0.83496 0.2417,-1.66992 0,-0.98877 -0.28564,-1.91162 -0.28565,-0.94483 -1.03272,-1.64795 -0.74707,-0.7251 -2.04346,-1.16455 -1.27441,-0.43946 -3.25195,-0.43946 l -6.94336,0 0,9.84375 8.28369,0 z m -1.80176,-14.17236 q 1.47217,0 2.59278,-0.30762 1.1206,-0.32959 1.86767,-0.90088 0.74707,-0.59326 1.12061,-1.38427 0.37353,-0.79102 0.37353,-1.75782 0,-0.76904 -0.19775,-1.53808 -0.19775,-0.76904 -0.76904,-1.38428 -0.54932,-0.63721 -1.53809,-1.01074 -0.9668,-0.39551 -2.54883,-0.39551 l -7.38281,0 0,8.6792 6.48193,0 z"
           style=""
           id="path4179" />
        <path
           d="m 194.00119,431.98605 q -2.41699,0 -4.37256,-0.81298 -1.93359,-0.81299 -3.2959,-2.35108 -1.3623,-1.56006 -2.10937,-3.7793 -0.7251,-2.24121 -0.7251,-5.07568 0,-2.83447 0.7251,-5.07568 0.74707,-2.24121 2.10937,-3.7793 1.36231,-1.56006 3.2959,-2.37305 1.95557,-0.83496 4.37256,-0.83496 2.39502,0 4.35059,0.83496 1.95556,0.81299 3.31787,2.37305 1.3623,1.53809 2.10937,3.7793 0.74707,2.24121 0.74707,5.07568 0,2.83447 -0.74707,5.07568 -0.74707,2.21924 -2.10937,3.7793 -1.36231,1.53809 -3.31787,2.35108 -1.95557,0.81298 -4.35059,0.81298 z m 0,-4.4165 q 1.34033,0 2.41699,-0.52734 1.09864,-0.52735 1.84571,-1.49414 0.76904,-0.98877 1.16455,-2.39502 0.41748,-1.40625 0.41748,-3.18604 0,-1.77978 -0.41748,-3.18603 -0.39551,-1.42823 -1.16455,-2.417 -0.74707,-0.98877 -1.84571,-1.51611 -1.07666,-0.52734 -2.41699,-0.52734 -1.34033,0 -2.41699,0.52734 -1.07666,0.52734 -1.84571,1.51611 -0.74707,0.98877 -1.16455,2.417 -0.3955,1.40625 -0.3955,3.18603 0,1.77979 0.3955,3.18604 0.41748,1.40625 1.16455,2.39502 0.76905,0.96679 1.84571,1.49414 1.07666,0.52734 2.41699,0.52734 z"
           style=""
           id="path4181" />
        <path
           d="m 217.22629,431.98605 q -1.36231,0 -2.65869,-0.26367 -1.29639,-0.26367 -2.43897,-0.74707 -1.1206,-0.4834 -2.04346,-1.16455 -0.92285,-0.70312 -1.53808,-1.56006 l 3.31787,-2.83447 q 0.35156,0.32959 0.85693,0.74707 0.50537,0.39551 1.16455,0.74707 0.65918,0.35156 1.47217,0.59326 0.81299,0.2417 1.77979,0.2417 0.8789,0 1.62597,-0.13184 0.74707,-0.13183 1.27442,-0.41748 0.54931,-0.28564 0.83496,-0.74707 0.30762,-0.48339 0.30762,-1.18652 0,-0.81299 -0.57129,-1.38428 -0.54932,-0.59326 -1.4502,-1.05468 -0.90088,-0.4834 -2.04346,-0.90088 -1.14257,-0.43946 -2.30712,-0.92285 -1.07666,-0.46143 -2.10938,-1.01075 -1.03271,-0.54931 -1.8457,-1.31836 -0.79102,-0.76904 -1.29639,-1.82373 -0.4834,-1.07666 -0.4834,-2.59277 0,-1.53809 0.61524,-2.72461 0.6372,-1.18652 1.71386,-1.97754 1.09864,-0.81299 2.54883,-1.23047 1.47217,-0.41748 3.14209,-0.41748 1.47217,0 2.70264,0.28565 1.25244,0.28564 2.24121,0.76904 1.01074,0.4834 1.77978,1.12061 0.76905,0.61523 1.34034,1.29638 l -3.38379,2.68067 q -0.30762,-0.30762 -0.74707,-0.63721 -0.41748,-0.35156 -0.98877,-0.63721 -0.57129,-0.28564 -1.29639,-0.46142 -0.7251,-0.19776 -1.64795,-0.19776 -1.49414,0 -2.37304,0.54932 -0.85694,0.54932 -0.85694,1.58203 0,0.65918 0.46143,1.16455 0.46142,0.4834 1.25244,0.90088 0.79101,0.41748 1.80176,0.81299 1.03271,0.37353 2.15332,0.81299 1.18652,0.46142 2.3291,1.03271 1.14258,0.57129 2.02148,1.40625 0.90088,0.83496 1.42823,2.02149 0.54931,1.18652 0.54931,2.85644 0,1.64795 -0.61523,2.92236 -0.61524,1.25245 -1.75782,2.10938 -1.1206,0.83496 -2.7246,1.25244 -1.58204,0.43945 -3.5376,0.43945 z"
           style=""
           id="path4183" />
        <path
           d="m 238.14426,431.98605 q -1.36231,0 -2.35108,-0.41748 -0.96679,-0.3955 -1.604,-1.14258 -0.61524,-0.74707 -0.90088,-1.80175 -0.28564,-1.07666 -0.28564,-2.37305 l 0,-13.75488 -3.55958,0 0,-4.06494 3.55958,0 0,-7.22901 4.68017,-2.26318 0,9.49219 5.44922,0 0,4.06494 -5.44922,0 0,12.54638 q 0,0.57129 0.0879,1.05469 0.10986,0.4834 0.35156,0.83496 0.26368,0.35157 0.70313,0.54932 0.43945,0.17578 1.1206,0.17578 1.66993,0 3.40577,-1.07666 l -0.57129,4.35059 q -0.9668,0.48339 -2.10938,0.76904 -1.14258,0.28564 -2.52685,0.28564 z"
           style=""
           id="path4185" />
        <path
           d="m 257.89767,431.98605 q -2.41699,0 -4.37255,-0.81298 -1.9336,-0.81299 -3.2959,-2.35108 -1.36231,-1.56006 -2.10938,-3.7793 -0.7251,-2.24121 -0.7251,-5.07568 0,-2.83447 0.7251,-5.07568 0.74707,-2.24121 2.10938,-3.7793 1.3623,-1.56006 3.2959,-2.37305 1.95556,-0.83496 4.37255,-0.83496 2.39502,0 4.35059,0.83496 1.95557,0.81299 3.31787,2.37305 1.36231,1.53809 2.10938,3.7793 0.74707,2.24121 0.74707,5.07568 0,2.83447 -0.74707,5.07568 -0.74707,2.21924 -2.10938,3.7793 -1.3623,1.53809 -3.31787,2.35108 -1.95557,0.81298 -4.35059,0.81298 z m 0,-4.4165 q 1.34034,0 2.417,-0.52734 1.09863,-0.52735 1.8457,-1.49414 0.76904,-0.98877 1.16455,-2.39502 0.41748,-1.40625 0.41748,-3.18604 0,-1.77978 -0.41748,-3.18603 -0.39551,-1.42823 -1.16455,-2.417 -0.74707,-0.98877 -1.8457,-1.51611 -1.07666,-0.52734 -2.417,-0.52734 -1.34033,0 -2.41699,0.52734 -1.07666,0.52734 -1.8457,1.51611 -0.74707,0.98877 -1.16455,2.417 -0.39551,1.40625 -0.39551,3.18603 0,1.77979 0.39551,3.18604 0.41748,1.40625 1.16455,2.39502 0.76904,0.96679 1.8457,1.49414 1.07666,0.52734 2.41699,0.52734 z"
           style=""
           id="path4187" />
        <path
           d="m 288.24191,431.43674 0,-13.73291 q 0,-1.4502 -0.35156,-2.46094 -0.35156,-1.03272 -0.9668,-1.66992 -0.61523,-0.65918 -1.45019,-0.94483 -0.83496,-0.30761 -1.82373,-0.30761 -1.05469,0 -1.95557,0.28564 -0.90088,0.26367 -1.56006,0.87891 -0.65918,0.61523 -1.05468,1.64795 -0.37354,1.01074 -0.37354,2.48291 l 0,13.8208 -4.68018,0 0,-23.00537 4.68018,0 0,2.21923 q 1.12061,-1.42822 2.5708,-2.0874 1.4502,-0.65918 3.36182,-0.65918 1.80176,0 3.31787,0.52735 1.51611,0.50537 2.61474,1.66992 1.12061,1.16455 1.73584,3.03222 0.61524,1.86768 0.61524,4.57032 l 0,13.73291 -4.68018,0 z"
           style=""
           id="path4189" />
      </g>
    </g>
  </g>
</svg>
