<?xml version="1.0" encoding="UTF-8" standalone="no"?>
<!-- Created with Inkscape (http://www.inkscape.org/) -->

<svg
   xmlns:dc="http://purl.org/dc/elements/1.1/"
   xmlns:cc="http://creativecommons.org/ns#"
   xmlns:rdf="http://www.w3.org/1999/02/22-rdf-syntax-ns#"
   xmlns:svg="http://www.w3.org/2000/svg"
   xmlns="http://www.w3.org/2000/svg"
   xmlns:sodipodi="http://sodipodi.sourceforge.net/DTD/sodipodi-0.dtd"
   xmlns:inkscape="http://www.inkscape.org/namespaces/inkscape"
   width="1330.3926"
   height="1439.6173"
   viewBox="0 0 1330.3926 1439.6173"
   id="svg2"
   version="1.1"
   inkscape:version="0.91 r13725"
   sodipodi:docname="BOS.svg"
   inkscape:export-filename="C:\Users\paulb\OneDrive\Projects\Terminal Silhouettes\Silhouettes\png\BOS.png"
   inkscape:export-xdpi="90"
   inkscape:export-ydpi="90">
  <sodipodi:namedview
     id="base"
     pagecolor="#ffffff"
     bordercolor="#666666"
     borderopacity="1.0"
     inkscape:pageopacity="1"
     inkscape:pageshadow="2"
     inkscape:zoom="0.5"
     inkscape:cx="511.98663"
     inkscape:cy="622.17141"
     inkscape:document-units="px"
     inkscape:current-layer="layer1"
     showgrid="false"
     units="px"
     fit-margin-top="100"
     fit-margin-left="100"
     fit-margin-right="100"
     fit-margin-bottom="100"
     inkscape:window-width="1920"
     inkscape:window-height="1137"
     inkscape:window-x="1912"
     inkscape:window-y="-8"
     inkscape:window-maximized="1"
     showguides="true"
     inkscape:guide-bbox="true"
     inkscape:object-nodes="true"
     inkscape:snap-smooth-nodes="true"
     inkscape:snap-midpoints="true"
     inkscape:snap-object-midpoints="true"
     inkscape:snap-intersection-paths="true"
     inkscape:snap-page="true" />
  <defs
     id="defs4" />
  <metadata
     id="metadata7">
    <rdf:RDF>
      <cc:Work
         rdf:about="">
        <dc:format>image/svg+xml</dc:format>
        <dc:type
           rdf:resource="http://purl.org/dc/dcmitype/StillImage" />
        <dc:title></dc:title>
      </cc:Work>
    </rdf:RDF>
  </metadata>
  <g
     inkscape:groupmode="layer"
     id="layer6"
     inkscape:label="Background"
     transform="translate(277.76808,106.65675)"
     style="display:inline">
    <rect
       style="opacity:1;fill:#dbdcdf;fill-opacity:1;stroke:none;stroke-width:1.25;stroke-linecap:butt;stroke-linejoin:miter;stroke-miterlimit:4;stroke-dasharray:none;stroke-dashoffset:0;stroke-opacity:1"
       id="rect6996"
       width="1331.427"
       height="1441.5955"
       x="-277.76807"
       y="-107.563" />
  </g>
  <g
     inkscape:groupmode="layer"
     id="layer2"
     inkscape:label="Terminal"
     transform="translate(90.174265,-211.20325)"
     style="display:inline">
    <path
       style="fill:#60646c;fill-opacity:1;fill-rule:evenodd;stroke:none;stroke-width:1.5;stroke-linecap:butt;stroke-linejoin:miter;stroke-miterlimit:4;stroke-dasharray:none;stroke-opacity:1"
       d="m 490.19141,100.90625 -12.09766,19.90039 -4.13281,-1.43164 c -3.16251,9.3015 -7.08798,18.32038 -11.72656,26.96875 l -19.99415,-10.87305 -3.45703,6.35547 17.35352,14.94141 c -11.80164,18.47587 -26.87694,34.59889 -44.46289,47.58984 l -13.5625,-18.26367 -5.8086,4.31641 9.4336,20.78515 c -0.34134,0.21826 -0.67455,0.44614 -1.01758,0.66211 l 10.79492,17.04688 c 18.95883,-12.03293 35.7464,-27.18583 49.65039,-44.81836 l 20.52149,12.59961 -9.54883,15.55468 -15.70508,-9.64257 -12.125,19.75 -3.40234,-2.08985 -5.32618,8.67578 -24.77734,0.56055 -32.23633,14.57227 -6.12304,-17.22266 c -21.69854,7.71406 -44.72614,10.98803 -67.71485,9.625 l -0.91015,15.26758 c -3.66738,-0.21928 -7.32828,-0.54534 -10.97657,-0.98047 l -1.19531,10.06445 c 30.15214,3.63105 60.73469,0.25203 89.36719,-9.87304 l -0.43164,-1.21094 31.52344,-14.25 35.44531,-0.80274 11.91601,-19.4082 7.84961,4.81836 -12.84765,20.92578 12.16015,7.4668 -1.32031,2.15234 -2.32031,-1.42578 -2.57617,4.19727 9.74023,5.98046 2.57617,-4.19726 -2.32226,-1.42578 1.32031,-2.15235 29.47266,18.09571 -1.32032,2.15234 -2.32031,-1.42383 -2.57617,4.19532 9.74023,5.98046 2.57618,-4.19726 -2.32227,-1.42383 1.32227,-2.15234 29.4707,18.09375 -1.32227,2.15234 -2.32031,-1.42578 -2.57617,4.19727 9.74023,5.97851 2.57617,-4.19531 -2.32226,-1.42578 1.32226,-2.15235 29.47266,18.09571 -1.32227,2.15234 -2.32031,-1.42578 -2.57617,4.19726 1.64258,1.00782 -266.375,434.89843 -0.25781,-0.1582 -4.75391,-15.12305 -0.002,0.004 -6.51563,2.04883 2.04688,6.51562 3.56445,-1.11914 2.38477,7.58594 -1.71485,-1.05469 -1.35547,2.20703 -2.19531,0.68946 0.60156,1.9082 -1.01757,1.6582 1.90429,1.16993 0.51758,1.64062 -0.26367,0.42969 0.49414,0.30469 0.41601,1.32812 -2.29882,3.75391 6.46679,3.95898 0.60157,-0.98828 3.95507,2.42969 -2.07812,0.65234 1.73242,5.50977 -4.26953,1.34179 4.08594,13.00391 1.03125,-0.32617 7.81445,24.85156 -11.93945,19.44531 -5.91992,-3.63476 -1.7168,2.79687 32.2832,19.82031 -1.7168,2.79688 8.28516,5.08594 1.7168,-2.79492 12.16015,7.46484 -1.71679,2.79883 8.28515,5.08593 1.71875,-2.79687 13.66797,8.39063 -0.80469,29.7832 26.19336,-14.19336 8.82813,5.41797 -1.7168,2.79687 8.28516,5.08594 1.71679,-2.79492 8.39258,5.15234 -1.71679,2.79492 8.28515,5.08789 1.7168,-2.79687 16.78711,10.30664 -1.7168,2.79883 8.28516,5.08594 1.71875,-2.79688 9.89844,6.07813 18.23632,-29.70118 3.95313,2.42774 2.64258,-4.30469 5.48633,3.36914 6.54101,-10.65234 -5.81055,-3.56836 3.15625,-5.13867 10.75196,-7.1211 -3.96094,-1.64453 33.57031,-22.23047 0.5918,1.53125 1.52539,-0.58789 23.43359,60.75977 -1.57031,0.60351 2.50391,10.42383 1.22461,-0.29492 6.84375,28.48437 -1.22071,0.29297 1.10157,4.58985 1.22265,-0.29297 1.52539,6.34375 7.39453,16.0293 7.33985,30.54883 -23.10938,5.5547 12.45117,51.8086 -14.36523,3.4531 -0.48633,-2.0273 -16.45117,3.955 0.48633,2.0254 -8.00195,1.9239 -0.53126,40.2851 5.13086,-1.2344 1.57227,6.543 -39.84766,9.5762 -1.80273,-7.502 -2.42969,0.586 -0.41797,-1.7383 -43.58008,10.4726 0.41797,1.7383 -2.42968,0.584 1.80273,7.502 -47.81641,11.4922 -2.78515,25.0253 56.13476,-13.4921 1.80274,7.5019 2.43164,-0.584 0.41601,1.7363 43.58008,-10.4726 -0.41797,-1.7383 2.43164,-0.584 -1.80273,-7.5019 11.73047,-2.8184 -1.48828,2.4278 c 0,0 4.86828,2.9773 11.79883,9.1406 l -2.09961,2.6758 c 12.91823,11.4975 33.21626,34.3772 41.79882,70.0878 l 32.24024,-7.748 1.11914,0.3691 0.80664,3.3575 -2.45312,-0.8086 3.04492,12.6679 c 0,0 6.47777,26.9545 26.30468,41.1231 l 65.19141,45.8144 29.24023,-1.3222 1.73047,1.2168 68.70313,-188.9004 -20.32617,4.8847 -0.70899,1.9512 -5.38086,-1.957 -2.30078,6.332 -14.44531,3.4727 -11.94141,-49.6875 1.08399,-0.2598 c 0,0 7.888,-22.413 -9.32422,-38.7949 l -3.73047,0.8965 -4.86914,-20.2578 3.73242,-0.8965 -2.03711,-8.4707 -3.73047,0.8965 -1.85937,-7.7364 60.16211,-14.459 -4.66797,-19.4179 -19.89063,4.7793 -0.66796,-2.7774 45.41406,-10.916 1.06445,4.4297 11.89258,-2.8594 -1.06445,-4.42772 19.5332,-4.69531 1.83594,7.64062 20.22851,-4.86133 c 0,0 2.15411,-9.17754 -0.36133,-20.21094 l 0.002,0 c -1.31772,-5.7794 -3.91582,-12.0679 -8.77735,-17.8125 l -20.22851,4.86133 1.83594,7.64063 -60.20313,14.46875 -1.10352,-4.59571 -9.94335,2.39063 1.10351,4.5957 -2.82422,0.67774 -2.35742,-9.81055 -28.6875,-6.60352 -27.46094,6.59961 -24.87109,-103.48046 -17.46875,4.19726 -3.99219,-16.60156 4.57227,-1.09766 -1.10157,-4.58789 -1.95703,0.46875 -0.60937,-2.53906 9.36719,-15.29688 1.39453,0.85157 0.85156,-1.39258 4.14062,2.53515 3.95899,-6.46484 -4.13867,-2.5332 0.85156,-1.39453 -1.39453,-0.85352 1.7832,-2.9082 -6.4668,-3.95703 -1.78125,2.90625 -1.39062,-0.85547 -0.85352,1.39453 -0.94922,-0.58008 9.31641,-15.20898 4.16992,2.55468 6,-9.79882 -4.16797,-2.55469 21.58204,-35.24219 c -3.22931,7.16911 -6.04174,14.52055 -8.40625,22.02539 l 19.4375,5.96484 c 1.52785,-5.02922 3.27615,-9.99098 5.23828,-14.86718 l 9.57812,3.88672 c 6.67636,-16.4962 15.90753,-31.83933 27.35742,-45.46289 l -7.86328,-6.625 c 4.49111,-5.38565 9.2943,-10.50499 14.38281,-15.33008 l 7.18946,7.66406 c 14.41811,-13.45956 31.07495,-24.2979 49.2207,-32.0293 l 15.26367,-1.30468 1.5918,18.64843 22.41992,-1.91797 -1.59375,-18.64843 6.90625,-0.58789 -1.20703,-14.13672 5.03906,-0.42969 0.98438,0.61719 -1.83789,2.92969 8.81054,5.53124 -1.16992,1.86719 43.29883,27.17578 -1.06641,1.70118 9.64844,6.05859 1.06836,-1.70117 28.27735,17.75 1.17382,-1.86719 14.61914,9.17578 -17.83984,28.41992 9.96289,6.25391 -4.99414,7.95312 -6.52539,-4.0957 -3.19531,5.08594 -3.4375,-2.1582 -6.67578,10.63867 19.44921,12.20703 78.12303,-124.46289 -24.2773,-15.23828 -9.64065,15.36132 4.82617,3.03126 -25.65234,40.86523 -14.61719,-9.17578 1.17383,-1.86524 -5.96289,-3.74023 1.07031,-1.70117 -19.31054,-12.1211 7.77148,-12.38476 -22.95508,-14.41016 -7.77343,12.38672 -19.78126,-12.41406 0.8125,-1.29297 -12.13671,-7.61524 -0.11524,-1.375 18.24805,-7.70507 -1.22461,-14.34961 1.1543,-0.0977 -4.13672,-48.4082 -1.15625,0.0977 -1.22656,-14.34765 -27.42383,-6.38867 3.22851,-2.89453 1.47266,1.64062 11.32617,-10.1582 1.33789,1.49414 16.71484,-14.98633 -1.33984,-1.49414 21.40625,-19.19727 1.34375,1.49414 16.71094,-14.98828 -1.3418,-1.49414 5.23828,-4.70117 -1.46875,-1.64063 10.58008,-9.48632 23.51367,26.21875 2.26758,-2.03321 11.14258,12.42578 17.09575,-15.33007 -98.63677,-109.98828 -17.09179,15.33007 10.18945,11.36328 -4.24609,3.80469 41.06836,45.79492 -8.60547,7.71875 -1.47071,-1.64062 -5.23828,4.69922 -1.33984,-1.4961 -14.89063,13.35352 1.33789,1.49609 -28.72265,25.75977 -1.33985,-1.49414 -16.71484,14.98633 1.3418,1.49414 -5.83203,5.22656 -3.6875,-4.10937 6.39648,-7.82813 -18.50586,-15.125 -17.77344,-2.08789 -0.73046,6.24023 1.16992,13.71485 -8.88477,10.87304 c -0.0407,-0.006 -0.0804,-0.0119 -0.12109,-0.0176 l 0.83594,-5.34375 c -9.67784,-1.49974 -19.19845,-3.87992 -28.44336,-7.11133 l -0.86914,2.47265 c -22.71453,-8.07922 -43.36176,-21.08277 -60.46094,-38.07812 l 4.12109,-4.16992 c -8.58334,-8.42088 -16.17445,-17.79631 -22.62305,-27.94532 l -7.35937,4.63868 c -9.22253,-14.54536 -16.13213,-30.43478 -20.48047,-47.09961 l 3.83789,-0.98633 c -0.58878,-2.51574 -1.11795,-5.04507 -1.58594,-7.58594 l -3.95703,0.81641 c -1.43275,-6.43541 -2.48278,-12.94981 -3.14258,-19.50977 -0.18559,-2.97955 -0.28943,-5.96201 -0.31445,-8.94726 l 0.01,-28.26953 7.16992,4.40234 3.16992,-5.16602 -1.19922,-5.01757 27.42383,-44.66797 -3.46875,-14.49414 -9.17773,-5.63672 0.88281,-1.43946 13.0625,8.01954 -1.42969,2.33007 9.2832,5.69922 3.16993,-5.16406 -2.24414,-9.37891 -3.47071,-2.13086 -1.43164,2.33008 -13.0625,-8.01953 2.85938,-4.6582 5.24414,3.2207 4.6914,-7.64062 -5.24414,-3.21875 -0.42578,-0.26172 11.24805,-18.32031 -2.24219,-9.37696 -10.33008,-6.3418 -9.37695,2.24219 -11.24805,18.32031 -46.41406,-28.49609 14.81445,-24.13086 -2.58203,-1.58594 -2.58398,-1.58593 -11.00391,-6.75586 -5.63281,9.17578 5.19336,3.18945 -1.49414,2.4336 -32.64063,-20.03907 -1.85156,-7.74218 7.89453,-12.86133 -5.55078,-3.40821 -3.71289,6.04688 -3.50977,-2.1543 -9.3789,2.24219 -6.47852,10.55078 -20.59765,-12.64648 -4.77149,7.76953 -36.75586,-22.56641 14.81641,-24.13086 -5.16602,-3.17187 -9.37695,2.24414 -11.24805,18.32031 -20.0039,-12.28125 c 1.62856,-4.01934 3.12275,-8.09235 4.48046,-12.21094 l 7.44922,-21.50976 z m 206.13281,186.37109 13.0625,8.01954 -0.60547,0.98828 -13.0625,-8.01954 z m -44.87305,9.00586 17.97266,11.03321 -0.46875,0.75976 2.64258,11.05274 1.90234,1.16797 -20.38281,33.19726 -26.79102,-16.28711 z m -76.01562,19.00586 29.47265,18.09571 -1.32031,2.15234 -2.32031,-1.42578 -2.57617,4.19726 9.74023,5.98047 2.57617,-4.19726 -2.32226,-1.42578 1.32031,-2.1504 39.59766,24.3086 0.006,31.01172 c 0.028,3.33867 0.14397,6.67358 0.35156,10.00586 1.11265,12.28209 3.44286,24.42503 6.95703,36.24609 l -13.4668,3.93164 c 20.17497,68.53899 75.37872,121.10871 144.82031,137.91602 l 0.0898,1.0625 -37.92188,-8.83789 4.09961,47.97656 -55.51367,4.74609 -0.14062,-1.6289 -4.70118,0.40234 0.92383,10.80859 4.70313,-0.40039 -0.14063,-1.6289 55.51563,-4.7461 4.10156,47.9961 35.87305,-15.14258 0.082,0.97851 c -33.68585,14.54353 -62.72269,38.07128 -83.93164,68.01172 l -16.3418,-11.52734 -17.49023,28.55469 18.42578,9.17383 c -0.26221,0.51688 -0.51187,1.03954 -0.76953,1.55859 l -3.48243,-2.13281 -40.80664,66.625 -62.12304,-38.05078 0.85351,-1.39063 -9.2539,-5.66797 -5.66407,9.25195 1.39453,0.85352 -38.7539,63.27148 -1.39258,-0.85351 -3.875,6.32812 0.27734,0.71485 -36.5039,24.17187 0.76172,-1.23828 -8.84571,-3.67383 4.80274,-7.82031 -146.79688,-90.125 -4.80078,7.82031 -16.875,-14.4375 -1.39453,1.62891 -16.0332,-13.71484 0.63281,-1.03321 -1.4082,-0.86523 266.37304,-434.89844 1.64063,1.00781 2.57617,-4.19726 -2.32227,-1.42578 z m 9.32812,474.91016 67.24219,41.18359 -0.85352,1.39453 1.39454,0.85157 -11.00977,17.97461 1.34375,5.5957 -1.2207,0.29297 1.10156,4.58789 1.22266,-0.29492 3.99023,16.60156 23.55469,98.00976 -5.86719,1.41016 c -1.07748,0.259 -1.73739,1.33471 -1.47852,2.41211 l 3.52149,14.64844 c 0.25884,1.0772 1.3344,1.73687 2.41015,1.48047 l 5.86719,-1.41016 9.85547,41.0059 -5.86719,1.4101 c -1.07735,0.2589 -1.73547,1.335 -1.47656,2.4121 l 3.51953,14.6485 c 0.25893,1.0773 1.33441,1.7365 2.41016,1.4804 l 5.86914,-1.4101 9.85547,41.0058 -5.86914,1.4102 c -1.07736,0.2588 -1.73552,1.3348 -1.47657,2.4121 l 3.51954,14.6484 c 0.25899,1.0773 1.33641,1.7366 2.41211,1.4805 l 5.86718,-1.4102 9.85547,41.0059 -5.86719,1.4102 c -1.07743,0.2589 -1.73683,1.3345 -1.48046,2.4101 l 2.91015,12.1133 7.8125,-1.8769 17.16211,71.4023 -15.04883,41.3848 1.56836,0.5703 -2.81055,7.7304 5.37696,1.9551 -9.21485,24.2442 -17.0625,3.2695 -12.05664,-8.4727 3.67383,-3.1367 -52.6289,-61.6406 -3.95899,-16.4707 3.14844,-2.6875 -14.82031,-61.666 5.86914,-1.4102 c 1.07735,-0.2588 1.73539,-1.3348 1.47656,-2.4121 l -3.52148,-14.6484 c -0.25891,-1.0773 -1.33439,-1.7369 -2.41016,-1.4805 l -5.86719,1.4102 -9.85547,-41.0059 5.86719,-1.4102 c 1.07735,-0.2588 1.73741,-1.3349 1.47852,-2.4121 l -3.52149,-14.6504 c -0.2589,-1.0773 -1.33438,-1.7349 -2.41016,-1.4785 l -5.86718,1.4102 -9.85547,-41.0059 5.86719,-1.4101 c 1.0773,-0.259 1.73543,-1.3349 1.47656,-2.4121 l -3.51953,-14.6504 c -0.2589,-1.0772 -1.33446,-1.7349 -2.41016,-1.4786 l -1.11133,0.2676 -14.97656,-62.32224 1.21875,-0.29297 -1.10156,-4.59179 -1.22266,0.29297 -6.84375,-28.48243 1.21875,-0.29296 -2.84179,-11.82422 -1.56641,0.60351 -23.43359,-60.75586 c 0.49715,-0.19621 1.0173,-0.39686 1.52343,-0.59179 l -0.74023,-1.91797 1.07812,-1.75977 -1.39453,-0.85156 38.75195,-63.27149 1.39454,0.85157 z m -448.03906,31.79101 -0.66211,9.70118 -3.5293,51.70312 -12.51953,-0.85351 -8.36328,122.51558 3.58984,0.2442 -1.61914,23.6953 -3.58789,-0.2461 -9.23437,135.2793 8.42187,0.5742 -1.08398,15.8672 37.64453,19.1016 -5.41797,29.5019 -1.75586,9.5625 3.51367,0.6445 1.75586,-9.5624 -0.51367,-0.094 5.83008,-31.7422 -28.15625,-14.2871 3.01953,-5.9492 -9.28906,-4.7149 0.53906,-7.9121 10.78906,0.7364 0.9336,-13.6914 3.27539,0.2226 0.66211,-9.6992 -3.27539,-0.2246 1.83593,-26.8985 3.27539,0.2227 0.66211,-9.6992 -3.27539,-0.2246 0.93555,-13.6914 6.54492,0.4472 0.78125,-11.4414 3.27539,0.2227 0.66211,-9.6992 -3.27539,-0.2246 1.44336,-21.1407 56.0957,-27.4765 -51.84179,-34.84183 0.28125,-4.13477 3.27539,0.22266 0.66211,-9.69922 -3.27539,-0.22461 0.99804,-14.61328 3.27539,0.22266 0.66211,-9.69922 -3.27539,-0.22461 0.28321,-4.13477 -6.54688,-0.44726 1.74805,-25.60743 3.27734,0.22266 0.66211,-9.70117 -3.27734,-0.22266 1.75,-25.60937 -6.69141,-0.45703 0.87695,-12.83594 0.51953,0.0332 0.66211,-9.69922 -3.5625,-0.24414 1.99024,-29.16601 0.51953,0.0351 0.66211,-9.69921 z"
       id="path4395"
       inkscape:connector-curvature="0"
       sodipodi:nodetypes="cccccccccccccccccccccccccccccccccccccccccccccccccccccccccccccccccccccccccccccccccccccccccccccccccccccccccccccccccccccccccccccccccccccccccccccccccccccccccccccccccccccccccccccccccccccccccccccccccccccccccccccccccccccccccccccccccccccccccccccccccccccccccccccccccccccccccccccccccccccccccccccccccccccccccccccccccccccccccccccccccccccccccccccccccccccccccccccccccccccccccccccccccccccccccccccccccccccccccccccccccccccccccccccccccccccccccccccccccccccccccccccccccccccccccccccccccccccccccccccccccccccccccccccccccccccccccccccccccccccccccccccccccccccccccccccccccccccccccccccccccccccccccccccccccccccccccccccccccccccccccccccccccccccccccccccccccccccc"
       transform="translate(115.07378,210.297)" />
  </g>
  <g
     inkscape:groupmode="layer"
     id="layer1"
     inkscape:label="Text"
     style="display:inline"
     transform="translate(277.76808,106.65675)">
    <g
       id="g7035"
       transform="translate(-206.04687,18)">
      <g
         transform="translate(-72.703853,-18.455672)"
         style="font-style:normal;font-variant:normal;font-weight:bold;font-stretch:normal;font-size:125px;line-height:110.00000238%;font-family:Overpass;-inkscape-font-specification:'Overpass, Bold';text-align:center;letter-spacing:0px;word-spacing:0px;writing-mode:lr-tb;text-anchor:middle;fill:none;fill-opacity:1;stroke:#60646c;stroke-width:3;stroke-linecap:butt;stroke-linejoin:miter;stroke-miterlimit:4;stroke-dasharray:none;stroke-opacity:1"
         id="text4157">
        <path
           style="fill:none;stroke:#60646c;stroke-width:3;stroke-miterlimit:4;stroke-dasharray:none;stroke-opacity:1"
           d="m 102.48264,294.76376 38.39111,0 q 7.9956,0 13.42773,2.01416 5.43213,2.01416 8.72803,5.31006 3.35693,3.2959 4.76074,7.50733 1.46485,4.21142 1.46485,8.66699 0,2.80762 -0.61036,5.43213 -0.54931,2.62451 -1.83105,4.94385 -1.28174,2.2583 -3.2959,4.21142 -2.01416,1.89209 -4.88281,3.2959 3.72314,1.40381 6.28662,3.66211 2.62451,2.19726 4.21143,4.88281 1.64795,2.68555 2.38037,5.67627 0.73242,2.99072 0.73242,5.92041 0,4.63867 -1.58691,9.27734 -1.52588,4.63868 -5.06592,8.36182 -3.47901,3.72315 -9.15528,6.04248 -5.61523,2.31934 -13.79394,2.31934 l -40.16113,0 0,-87.52442 z m 41.01562,71.77735 q 3.41797,0 5.67627,-0.91553 2.2583,-0.97656 3.54004,-2.44141 1.34277,-1.46484 1.89209,-3.29589 0.54932,-1.83106 0.54932,-3.60108 0,-2.13623 -0.67139,-4.15039 -0.61035,-2.0752 -2.31934,-3.66211 -1.70898,-1.58691 -4.63867,-2.56348 -2.92969,-0.97656 -7.50732,-0.97656 l -20.62989,0 0,21.60645 24.10889,0 z m -4.63867,-37.35352 q 6.71387,0 9.94873,-2.56348 3.2959,-2.62451 3.2959,-6.83593 0,-1.64795 -0.42725,-3.2959 -0.42724,-1.64795 -1.64795,-2.99072 -1.15967,-1.34278 -3.2959,-2.13623 -2.13623,-0.8545 -5.61523,-0.8545 l -21.72852,0 0,18.67676 19.47022,0 z"
           id="path4172"
           inkscape:connector-curvature="0" />
        <path
           style="fill:none;stroke:#60646c;stroke-width:3;stroke-miterlimit:4;stroke-dasharray:none;stroke-opacity:1"
           d="m 227.11642,383.81406 q -7.08007,0 -12.69531,-1.83106 -5.61523,-1.89209 -9.94873,-5.06592 -4.27246,-3.23486 -7.32422,-7.56836 -3.05175,-4.39453 -5.00488,-9.39941 -1.89209,-5.06592 -2.80762,-10.49805 -0.85449,-5.49316 -0.85449,-10.92529 0,-5.37109 0.85449,-10.80322 0.91553,-5.49317 2.80762,-10.49805 1.95313,-5.06592 5.00488,-9.39941 3.05176,-4.39453 7.32422,-7.56836 4.3335,-3.23487 9.94873,-5.06592 5.61524,-1.89209 12.69531,-1.89209 7.08008,0 12.63428,1.89209 5.61524,1.83105 9.8877,5.06592 4.27246,3.17383 7.32422,7.56836 3.05175,4.33349 4.94384,9.39941 1.95313,5.00488 2.80762,10.49805 0.91553,5.43213 0.91553,10.80322 0,5.43213 -0.91553,10.92529 -0.85449,5.43213 -2.80762,10.49805 -1.89209,5.00488 -4.94384,9.39941 -3.05176,4.3335 -7.32422,7.56836 -4.27246,3.17383 -9.8877,5.06592 -5.5542,1.83106 -12.63428,1.83106 z m 0,-16.29639 q 5.85938,0 9.82666,-2.74658 4.02833,-2.74658 6.46973,-7.01905 2.50244,-4.27246 3.60108,-9.33837 1.09863,-5.12696 1.09863,-9.8877 0,-3.35693 -0.48828,-6.7749 -0.42725,-3.47901 -1.46485,-6.65283 -1.03759,-3.23487 -2.68554,-6.04248 -1.64795,-2.86866 -3.96729,-4.94385 -2.31933,-2.13623 -5.43213,-3.35694 -3.05176,-1.2207 -6.95801,-1.2207 -3.96728,0 -7.08007,1.28174 -3.05176,1.28174 -5.43213,3.479 -2.31934,2.13623 -3.96729,5.00489 -1.64795,2.86865 -2.68554,6.10351 -1.0376,3.23487 -1.52588,6.5918 -0.42725,3.35693 -0.42725,6.53076 0,5.00488 1.09863,10.19287 1.09864,5.12695 3.54004,9.33838 2.50244,4.15039 6.53076,6.83594 4.02832,2.62451 9.94873,2.62451 z"
           id="path4174"
           inkscape:connector-curvature="0" />
        <path
           style="fill:none;stroke:#60646c;stroke-width:3;stroke-miterlimit:4;stroke-dasharray:none;stroke-opacity:1"
           d="m 327.09201,318.56747 q -0.79346,-1.95312 -2.13623,-3.66211 -1.34277,-1.70898 -3.23486,-2.92968 -1.83106,-1.28174 -4.27246,-1.95313 -2.38038,-0.73242 -5.31006,-0.73242 -5.49317,0 -8.60596,2.19727 -3.05176,2.19726 -3.05176,6.16455 0,2.62451 1.95313,4.39453 1.95312,1.77002 5.12695,3.23486 3.17383,1.40381 7.20215,2.68555 4.08935,1.28174 8.36182,2.86865 4.27246,1.52588 8.30078,3.66211 4.08935,2.0752 7.26318,5.18799 3.17383,3.05176 5.12695,7.32422 1.95313,4.21142 1.95313,10.13183 0,6.40869 -2.44141,11.35254 -2.4414,4.94385 -6.71387,8.36182 -4.21142,3.41797 -10.00976,5.18799 -5.79834,1.77002 -12.51221,1.77002 -6.16455,0 -11.53564,-1.64795 -5.3711,-1.70899 -9.76563,-4.82178 -4.33349,-3.11279 -7.56836,-7.56836 -3.23486,-4.45557 -5.12695,-10.00977 l 15.38086,-5.7373 q 1.40381,3.05176 3.35693,5.61523 2.01416,2.50245 4.45557,4.3335 2.44141,1.77002 5.24902,2.80762 2.86866,0.97656 6.10352,0.97656 3.17383,0 5.7373,-0.67139 2.62452,-0.67138 4.45557,-2.01416 1.89209,-1.34277 2.86865,-3.2959 1.0376,-2.01416 1.0376,-4.63867 0,-3.17383 -1.95313,-5.31006 -1.95312,-2.19726 -5.12695,-3.78418 -3.17383,-1.64794 -7.26318,-2.92968 -4.02832,-1.34278 -8.30078,-2.80762 -4.21143,-1.46484 -8.30078,-3.41797 -4.02832,-1.95312 -7.20215,-4.82178 -3.17383,-2.86865 -5.12696,-6.89697 -1.95312,-4.02832 -1.95312,-9.76562 0,-4.94385 1.95312,-9.27735 2.01416,-4.39453 5.79834,-7.69043 3.78418,-3.2959 9.27735,-5.18799 5.49316,-1.95312 12.57324,-1.95312 5.92041,0 10.68115,1.52588 4.82178,1.52588 8.48389,4.27246 3.66211,2.68555 6.16455,6.40869 2.50244,3.66211 3.78418,8.05664 l -15.13672,5.00488 z"
           id="path4176"
           inkscape:connector-curvature="0" />
      </g>
      <g
         transform="translate(-127.05053,-17.080692)"
         style="font-style:normal;font-variant:normal;font-weight:normal;font-stretch:normal;font-size:45px;line-height:110.00000238%;font-family:Overpass;-inkscape-font-specification:'Overpass, Normal';text-align:center;letter-spacing:0px;word-spacing:0px;writing-mode:lr-tb;text-anchor:middle;fill:#60646c;fill-opacity:1;stroke:none;stroke-width:1px;stroke-linecap:butt;stroke-linejoin:miter;stroke-opacity:1"
         id="text4161">
        <path
           style="fill:#60646c;fill-opacity:1"
           d="m 155.32932,399.92795 11.93115,0 q 2.8125,0 4.72412,0.7251 1.91162,0.70312 3.07617,1.88964 1.16455,1.16455 1.64795,2.68067 0.50537,1.51611 0.50537,3.12012 0,1.97753 -1.07666,3.73535 -1.07666,1.73584 -3.25195,2.79052 1.47217,0.52735 2.50488,1.34034 1.03272,0.79101 1.69189,1.75781 0.65918,0.9668 0.94483,2.06543 0.30762,1.07666 0.30762,2.17529 0,1.60401 -0.54932,3.25195 -0.52734,1.64795 -1.75781,2.98829 -1.23047,1.31836 -3.22998,2.15332 -1.97754,0.83496 -4.85596,0.83496 l -12.6123,0 0,-31.50879 z m 12.96386,27.18017 q 1.56006,0 2.5708,-0.41748 1.03272,-0.41748 1.62598,-1.07666 0.59326,-0.68115 0.83496,-1.51611 0.2417,-0.83496 0.2417,-1.66992 0,-0.98877 -0.28564,-1.91162 -0.28565,-0.94483 -1.03272,-1.64795 -0.74707,-0.7251 -2.04346,-1.16455 -1.27441,-0.43946 -3.25195,-0.43946 l -6.94336,0 0,9.84375 8.28369,0 z m -1.80176,-14.17236 q 1.47217,0 2.59278,-0.30762 1.1206,-0.32959 1.86767,-0.90088 0.74707,-0.59326 1.12061,-1.38427 0.37353,-0.79102 0.37353,-1.75782 0,-0.76904 -0.19775,-1.53808 -0.19775,-0.76904 -0.76904,-1.38428 -0.54932,-0.63721 -1.53809,-1.01074 -0.9668,-0.39551 -2.54883,-0.39551 l -7.38281,0 0,8.6792 6.48193,0 z"
           id="path4179"
           inkscape:connector-curvature="0" />
        <path
           style="fill:#60646c;fill-opacity:1"
           d="m 194.00119,431.98605 q -2.41699,0 -4.37256,-0.81298 -1.93359,-0.81299 -3.2959,-2.35108 -1.3623,-1.56006 -2.10937,-3.7793 -0.7251,-2.24121 -0.7251,-5.07568 0,-2.83447 0.7251,-5.07568 0.74707,-2.24121 2.10937,-3.7793 1.36231,-1.56006 3.2959,-2.37305 1.95557,-0.83496 4.37256,-0.83496 2.39502,0 4.35059,0.83496 1.95556,0.81299 3.31787,2.37305 1.3623,1.53809 2.10937,3.7793 0.74707,2.24121 0.74707,5.07568 0,2.83447 -0.74707,5.07568 -0.74707,2.21924 -2.10937,3.7793 -1.36231,1.53809 -3.31787,2.35108 -1.95557,0.81298 -4.35059,0.81298 z m 0,-4.4165 q 1.34033,0 2.41699,-0.52734 1.09864,-0.52735 1.84571,-1.49414 0.76904,-0.98877 1.16455,-2.39502 0.41748,-1.40625 0.41748,-3.18604 0,-1.77978 -0.41748,-3.18603 -0.39551,-1.42823 -1.16455,-2.417 -0.74707,-0.98877 -1.84571,-1.51611 -1.07666,-0.52734 -2.41699,-0.52734 -1.34033,0 -2.41699,0.52734 -1.07666,0.52734 -1.84571,1.51611 -0.74707,0.98877 -1.16455,2.417 -0.3955,1.40625 -0.3955,3.18603 0,1.77979 0.3955,3.18604 0.41748,1.40625 1.16455,2.39502 0.76905,0.96679 1.84571,1.49414 1.07666,0.52734 2.41699,0.52734 z"
           id="path4181"
           inkscape:connector-curvature="0" />
        <path
           style="fill:#60646c;fill-opacity:1"
           d="m 217.22629,431.98605 q -1.36231,0 -2.65869,-0.26367 -1.29639,-0.26367 -2.43897,-0.74707 -1.1206,-0.4834 -2.04346,-1.16455 -0.92285,-0.70312 -1.53808,-1.56006 l 3.31787,-2.83447 q 0.35156,0.32959 0.85693,0.74707 0.50537,0.39551 1.16455,0.74707 0.65918,0.35156 1.47217,0.59326 0.81299,0.2417 1.77979,0.2417 0.8789,0 1.62597,-0.13184 0.74707,-0.13183 1.27442,-0.41748 0.54931,-0.28564 0.83496,-0.74707 0.30762,-0.48339 0.30762,-1.18652 0,-0.81299 -0.57129,-1.38428 -0.54932,-0.59326 -1.4502,-1.05468 -0.90088,-0.4834 -2.04346,-0.90088 -1.14257,-0.43946 -2.30712,-0.92285 -1.07666,-0.46143 -2.10938,-1.01075 -1.03271,-0.54931 -1.8457,-1.31836 -0.79102,-0.76904 -1.29639,-1.82373 -0.4834,-1.07666 -0.4834,-2.59277 0,-1.53809 0.61524,-2.72461 0.6372,-1.18652 1.71386,-1.97754 1.09864,-0.81299 2.54883,-1.23047 1.47217,-0.41748 3.14209,-0.41748 1.47217,0 2.70264,0.28565 1.25244,0.28564 2.24121,0.76904 1.01074,0.4834 1.77978,1.12061 0.76905,0.61523 1.34034,1.29638 l -3.38379,2.68067 q -0.30762,-0.30762 -0.74707,-0.63721 -0.41748,-0.35156 -0.98877,-0.63721 -0.57129,-0.28564 -1.29639,-0.46142 -0.7251,-0.19776 -1.64795,-0.19776 -1.49414,0 -2.37304,0.54932 -0.85694,0.54932 -0.85694,1.58203 0,0.65918 0.46143,1.16455 0.46142,0.4834 1.25244,0.90088 0.79101,0.41748 1.80176,0.81299 1.03271,0.37353 2.15332,0.81299 1.18652,0.46142 2.3291,1.03271 1.14258,0.57129 2.02148,1.40625 0.90088,0.83496 1.42823,2.02149 0.54931,1.18652 0.54931,2.85644 0,1.64795 -0.61523,2.92236 -0.61524,1.25245 -1.75782,2.10938 -1.1206,0.83496 -2.7246,1.25244 -1.58204,0.43945 -3.5376,0.43945 z"
           id="path4183"
           inkscape:connector-curvature="0" />
        <path
           style="fill:#60646c;fill-opacity:1"
           d="m 238.14426,431.98605 q -1.36231,0 -2.35108,-0.41748 -0.96679,-0.3955 -1.604,-1.14258 -0.61524,-0.74707 -0.90088,-1.80175 -0.28564,-1.07666 -0.28564,-2.37305 l 0,-13.75488 -3.55958,0 0,-4.06494 3.55958,0 0,-7.22901 4.68017,-2.26318 0,9.49219 5.44922,0 0,4.06494 -5.44922,0 0,12.54638 q 0,0.57129 0.0879,1.05469 0.10986,0.4834 0.35156,0.83496 0.26368,0.35157 0.70313,0.54932 0.43945,0.17578 1.1206,0.17578 1.66993,0 3.40577,-1.07666 l -0.57129,4.35059 q -0.9668,0.48339 -2.10938,0.76904 -1.14258,0.28564 -2.52685,0.28564 z"
           id="path4185"
           inkscape:connector-curvature="0" />
        <path
           style="fill:#60646c;fill-opacity:1"
           d="m 257.89767,431.98605 q -2.41699,0 -4.37255,-0.81298 -1.9336,-0.81299 -3.2959,-2.35108 -1.36231,-1.56006 -2.10938,-3.7793 -0.7251,-2.24121 -0.7251,-5.07568 0,-2.83447 0.7251,-5.07568 0.74707,-2.24121 2.10938,-3.7793 1.3623,-1.56006 3.2959,-2.37305 1.95556,-0.83496 4.37255,-0.83496 2.39502,0 4.35059,0.83496 1.95557,0.81299 3.31787,2.37305 1.36231,1.53809 2.10938,3.7793 0.74707,2.24121 0.74707,5.07568 0,2.83447 -0.74707,5.07568 -0.74707,2.21924 -2.10938,3.7793 -1.3623,1.53809 -3.31787,2.35108 -1.95557,0.81298 -4.35059,0.81298 z m 0,-4.4165 q 1.34034,0 2.417,-0.52734 1.09863,-0.52735 1.8457,-1.49414 0.76904,-0.98877 1.16455,-2.39502 0.41748,-1.40625 0.41748,-3.18604 0,-1.77978 -0.41748,-3.18603 -0.39551,-1.42823 -1.16455,-2.417 -0.74707,-0.98877 -1.8457,-1.51611 -1.07666,-0.52734 -2.417,-0.52734 -1.34033,0 -2.41699,0.52734 -1.07666,0.52734 -1.8457,1.51611 -0.74707,0.98877 -1.16455,2.417 -0.39551,1.40625 -0.39551,3.18603 0,1.77979 0.39551,3.18604 0.41748,1.40625 1.16455,2.39502 0.76904,0.96679 1.8457,1.49414 1.07666,0.52734 2.41699,0.52734 z"
           id="path4187"
           inkscape:connector-curvature="0" />
        <path
           style="fill:#60646c;fill-opacity:1"
           d="m 288.24191,431.43674 0,-13.73291 q 0,-1.4502 -0.35156,-2.46094 -0.35156,-1.03272 -0.9668,-1.66992 -0.61523,-0.65918 -1.45019,-0.94483 -0.83496,-0.30761 -1.82373,-0.30761 -1.05469,0 -1.95557,0.28564 -0.90088,0.26367 -1.56006,0.87891 -0.65918,0.61523 -1.05468,1.64795 -0.37354,1.01074 -0.37354,2.48291 l 0,13.8208 -4.68018,0 0,-23.00537 4.68018,0 0,2.21923 q 1.12061,-1.42822 2.5708,-2.0874 1.4502,-0.65918 3.36182,-0.65918 1.80176,0 3.31787,0.52735 1.51611,0.50537 2.61474,1.66992 1.12061,1.16455 1.73584,3.03222 0.61524,1.86768 0.61524,4.57032 l 0,13.73291 -4.68018,0 z"
           id="path4189"
           inkscape:connector-curvature="0" />
      </g>
    </g>
    <g
       style="font-style:normal;font-variant:normal;font-weight:300;font-stretch:normal;font-size:12.5px;line-height:125%;font-family:Overpass;-inkscape-font-specification:'Overpass, Light';text-align:end;letter-spacing:0px;word-spacing:0px;writing-mode:lr-tb;text-anchor:end;fill:#60646c;fill-opacity:1;stroke:none;stroke-width:1px;stroke-linecap:butt;stroke-linejoin:miter;stroke-opacity:1"
       id="text7048">
      <path
         d="m 975.33713,1294.8231 q -0.6375,0 -1.1125,-0.15 -0.475,-0.1625 -0.825,-0.4375 -0.3375,-0.2875 -0.575,-0.65 -0.225,-0.375 -0.3875,-0.8125 l 0.8125,-0.3375 q 0.325,0.8125 0.8125,1.2 0.5,0.375 1.275,0.375 0.4125,0 0.7875,-0.1 0.375,-0.1125 0.65,-0.325 0.2875,-0.2125 0.45,-0.525 0.1625,-0.325 0.1625,-0.7625 0,-0.8125 -0.5,-1.2875 -0.5,-0.4875 -1.45,-0.4875 l -0.5875,0 0,-0.8 0.4625,0 q 0.7875,0 1.25,-0.425 0.475,-0.4375 0.475,-1.1625 0,-0.3625 -0.1375,-0.65 -0.125,-0.2875 -0.35,-0.4875 -0.225,-0.2 -0.525,-0.3 -0.2875,-0.1125 -0.6,-0.1125 -0.4125,0 -0.7375,0.125 -0.3125,0.125 -0.55,0.325 -0.2375,0.2 -0.4,0.4375 -0.15,0.2375 -0.25,0.4625 l -0.8125,-0.3125 q 0.1375,-0.35 0.3625,-0.675 0.2375,-0.3375 0.575,-0.6 0.3375,-0.2625 0.775,-0.4125 0.45,-0.1625 1,-0.1625 0.5375,0 1,0.1625 0.475,0.1625 0.825,0.45 0.35,0.2875 0.5375,0.7125 0.2,0.4125 0.2,0.9125 0,0.5875 -0.3,1.1125 -0.2875,0.5125 -0.8125,0.8 0.6875,0.275 1.075,0.8875 0.4,0.6 0.4,1.4625 0,0.55 -0.2375,1.025 -0.2375,0.4625 -0.65,0.8 -0.4125,0.3375 -0.95,0.5375 -0.5375,0.1875 -1.1375,0.1875 z"
         id="path4790"
         inkscape:connector-curvature="0" />
      <path
         d="m 988.67854,1294.6731 -4.425,-7.1125 0,7.1125 -0.875,0 0,-8.75 0.8875,0 4.425,7.2125 0,-7.2125 0.875,0 0,8.75 -0.8875,0 z"
         id="path4792"
         inkscape:connector-curvature="0" />
      <path
         d="m 994.30452,1294.0356 q 0.875,0 1.35,-0.675 0.475,-0.675 0.475,-1.8875 0,-1.2 -0.4625,-1.875 -0.4625,-0.675 -1.3625,-0.675 -0.9,0 -1.3625,0.6625 -0.4625,0.65 -0.4625,1.9 0,1.2 0.4625,1.875 0.4625,0.675 1.3625,0.675 z m 0,-5.9 q 0.6125,0 1.1125,0.225 0.5125,0.225 0.8625,0.65 0.3625,0.425 0.5625,1.05 0.2,0.6125 0.2,1.4125 0,0.7875 -0.2,1.4125 -0.2,0.625 -0.5625,1.0625 -0.35,0.425 -0.8625,0.65 -0.5,0.225 -1.1125,0.225 -0.6125,0 -1.125,-0.225 -0.5,-0.225 -0.8625,-0.65 -0.35,-0.425 -0.55,-1.0375 -0.2,-0.625 -0.2,-1.425 0,-0.7875 0.2,-1.4 0.2,-0.625 0.55,-1.05 0.3625,-0.4375 0.8625,-0.6625 0.5125,-0.2375 1.125,-0.2375 z"
         id="path4794"
         inkscape:connector-curvature="0" />
      <path
         d="m 1000.8481,1294.6731 -0.6125,0 -2.33753,-6.3875 0.9,0 1.77503,4.9875 1.7375,-4.9875 0.875,0 -2.3375,6.3875 z"
         id="path4796"
         inkscape:connector-curvature="0" />
      <path
         d="m 1007.4653,1294.6731 q 0,-0.825 0.2375,-1.4125 0.2375,-0.6 0.6125,-1.05 0.375,-0.45 0.85,-0.7875 0.475,-0.3375 0.95,-0.6625 0.4125,-0.275 0.7875,-0.5375 0.375,-0.275 0.6625,-0.575 0.3,-0.3 0.475,-0.6375 0.175,-0.35 0.175,-0.775 0,-0.7125 -0.5,-1.1875 -0.4875,-0.4875 -1.4,-0.4875 -0.8875,0 -1.3375,0.4 -0.45,0.3875 -0.6125,1.0125 l -0.775,-0.35 q 0.1,-0.3875 0.3375,-0.725 0.2375,-0.3375 0.6,-0.5875 0.3625,-0.25 0.825,-0.3875 0.475,-0.15 1.0375,-0.15 1.3,0 2.0125,0.675 0.725,0.6625 0.725,1.7875 0,0.6 -0.2375,1.0625 -0.225,0.4625 -0.6,0.85 -0.3625,0.375 -0.825,0.7 -0.4625,0.3125 -0.9375,0.6125 -0.375,0.25 -0.725,0.5 -0.35,0.2375 -0.65,0.525 -0.2875,0.275 -0.4875,0.6125 -0.2,0.325 -0.275,0.7375 l 4.8125,0 0,0.8375 -5.7375,0 z"
         id="path4798"
         inkscape:connector-curvature="0" />
      <path
         d="m 1017.9479,1294.8231 q -0.8625,0 -1.4375,-0.4 -0.575,-0.4 -0.925,-1.0375 -0.3375,-0.65 -0.4875,-1.45 -0.15,-0.8125 -0.15,-1.6375 0,-0.45 0.05,-0.9625 0.05,-0.525 0.175,-1.025 0.1375,-0.5 0.35,-0.9625 0.225,-0.4625 0.5625,-0.8125 0.3375,-0.35 0.7875,-0.55 0.4625,-0.2125 1.075,-0.2125 0.8625,0 1.4375,0.4125 0.575,0.4 0.9125,1.05 0.35,0.65 0.5,1.4625 0.15,0.8 0.15,1.6 0,0.4625 -0.062,0.975 -0.05,0.5125 -0.1875,1.025 -0.125,0.5 -0.35,0.9625 -0.2125,0.45 -0.55,0.8 -0.3375,0.35 -0.8,0.5625 -0.45,0.2 -1.05,0.2 z m 0,-0.7875 q 0.65,0 1.05,-0.35 0.4125,-0.3625 0.6375,-0.9125 0.225,-0.55 0.3,-1.2125 0.075,-0.6625 0.075,-1.2625 0,-0.675 -0.087,-1.3375 -0.087,-0.675 -0.325,-1.2 -0.2375,-0.5375 -0.6375,-0.8625 -0.4,-0.3375 -1.0125,-0.3375 -0.6625,0 -1.075,0.3625 -0.4,0.3625 -0.625,0.9125 -0.225,0.55 -0.3125,1.2125 -0.075,0.65 -0.075,1.25 0,0.6875 0.087,1.3625 0.087,0.6625 0.325,1.2 0.2375,0.525 0.6375,0.85 0.4125,0.325 1.0375,0.325 z"
         id="path4800"
         inkscape:connector-curvature="0" />
      <path
         d="m 1023.7996,1294.6731 0,-7.1625 -1.4875,0 0,-0.5 q 0.6625,0 1.125,-0.225 0.4625,-0.2375 0.675,-0.8625 l 0.5625,0 0,8.75 -0.875,0 z"
         id="path4802"
         inkscape:connector-curvature="0" />
      <path
         d="m 1029.6369,1285.7731 q 0.7125,0 1.2375,0.2625 0.525,0.2625 0.8625,0.725 0.35,0.45 0.525,1.075 0.175,0.6125 0.175,1.325 0,0.9375 -0.325,1.85 -0.3125,0.9125 -0.8875,1.6875 -0.5625,0.7625 -1.35,1.325 -0.7875,0.5625 -1.7375,0.8 l 0,-0.6875 q 0.6375,-0.1875 1.1875,-0.5625 0.55,-0.3875 0.975,-0.8875 0.4375,-0.5 0.7125,-1.075 0.2875,-0.575 0.3625,-1.1375 -0.325,0.4125 -0.8625,0.6375 -0.525,0.2125 -1.2125,0.2125 -0.5375,0 -1.0125,-0.2125 -0.4625,-0.2125 -0.8125,-0.575 -0.3375,-0.375 -0.5375,-0.85 -0.2,-0.4875 -0.2,-1.0125 0,-0.6125 0.225,-1.1375 0.225,-0.5375 0.6125,-0.925 0.4,-0.3875 0.925,-0.6125 0.525,-0.225 1.1375,-0.225 z m -0.062,4.85 q 0.4375,0 0.8,-0.15 0.375,-0.1625 0.6375,-0.4375 0.2625,-0.275 0.4125,-0.65 0.15,-0.375 0.15,-0.8125 0,-0.425 -0.1625,-0.7875 -0.15,-0.3625 -0.425,-0.6375 -0.2625,-0.275 -0.625,-0.425 -0.3625,-0.1625 -0.7875,-0.1625 -0.45,0 -0.825,0.1625 -0.3625,0.15 -0.625,0.425 -0.2625,0.275 -0.4125,0.6375 -0.1375,0.3625 -0.1375,0.7875 0,0.4375 0.1375,0.8125 0.1375,0.375 0.4,0.65 0.2625,0.275 0.625,0.4375 0.375,0.15 0.8375,0.15 z"
         id="path4804"
         inkscape:connector-curvature="0" />
      <path
         d="m 847.02209,1310.4481 q -0.675,0 -1.075,-0.2375 -0.4,-0.2375 -0.675,-0.5625 l 0,2.75 -0.875,0.4375 0,-8.925 0.875,0 0,0.575 q 0.3125,-0.2875 0.7,-0.5 0.4,-0.225 1.05,-0.225 0.6125,0 1.1,0.2375 0.4875,0.2375 0.825,0.675 0.35,0.4375 0.525,1.0625 0.1875,0.6125 0.1875,1.3625 0,0.8 -0.2,1.425 -0.1875,0.625 -0.5375,1.05 -0.35,0.425 -0.8375,0.65 -0.4875,0.225 -1.0625,0.225 z m -0.1,-0.7875 q 0.875,0 1.35,-0.65 0.475,-0.6625 0.475,-1.9125 0,-1.175 -0.4875,-1.8625 -0.475,-0.6875 -1.3375,-0.6875 -0.525,0 -0.9625,0.2625 -0.425,0.25 -0.6875,0.725 l 0,3.1375 q 0.325,0.425 0.725,0.7125 0.4,0.275 0.925,0.275 z"
         id="path4806"
         inkscape:connector-curvature="0" />
      <path
         d="m 854.10276,1310.4481 q -0.3375,0 -0.6,-0.062 -0.2625,-0.062 -0.475,-0.1625 -0.2,-0.1125 -0.375,-0.2375 -0.175,-0.125 -0.325,-0.2625 l 0,0.575 -0.875,0 0,-8.5875 0.875,-0.4375 0,3.2625 q 0.3125,-0.3375 0.7625,-0.55 0.4625,-0.225 0.9375,-0.225 0.6,0 1.0875,0.225 0.4875,0.225 0.825,0.6625 0.35,0.425 0.5375,1.05 0.1875,0.6125 0.1875,1.4 0,1.6375 -0.675,2.5 -0.675,0.85 -1.8875,0.85 z m -0.1375,-0.7875 q 0.9,0 1.3375,-0.6875 0.45,-0.6875 0.45,-1.875 0,-1.2375 -0.45,-1.8875 -0.4375,-0.6625 -1.3375,-0.6625 -0.3,0 -0.5625,0.1 -0.25,0.087 -0.4625,0.2375 -0.2125,0.1375 -0.375,0.3125 -0.15,0.175 -0.2375,0.325 l 0,3.1375 q 0.2625,0.45 0.7125,0.725 0.45,0.275 0.925,0.275 z"
         id="path4808"
         inkscape:connector-curvature="0" />
      <path
         d="m 860.75959,1309.6606 q 0.875,0 1.35,-0.675 0.475,-0.675 0.475,-1.8875 0,-1.2 -0.4625,-1.875 -0.4625,-0.675 -1.3625,-0.675 -0.9,0 -1.3625,0.6625 -0.4625,0.65 -0.4625,1.9 0,1.2 0.4625,1.875 0.4625,0.675 1.3625,0.675 z m 0,-5.9 q 0.6125,0 1.1125,0.225 0.5125,0.225 0.8625,0.65 0.3625,0.425 0.5625,1.05 0.2,0.6125 0.2,1.4125 0,0.7875 -0.2,1.4125 -0.2,0.625 -0.5625,1.0625 -0.35,0.425 -0.8625,0.65 -0.5,0.225 -1.1125,0.225 -0.6125,0 -1.125,-0.225 -0.5,-0.225 -0.8625,-0.65 -0.35,-0.425 -0.55,-1.0375 -0.2,-0.625 -0.2,-1.425 0,-0.7875 0.2,-1.4 0.2,-0.625 0.55,-1.05 0.3625,-0.4375 0.8625,-0.6625 0.5125,-0.2375 1.125,-0.2375 z"
         id="path4810"
         inkscape:connector-curvature="0" />
      <path
         d="m 866.69553,1312.2731 q 0.775,-0.038 1.2625,-0.2 0.5,-0.15 0.775,-0.3875 0.2875,-0.225 0.3875,-0.525 0.1,-0.2875 0.1,-0.6125 l 0,-0.975 q -0.275,0.4 -0.6875,0.6375 -0.4,0.2375 -1.0625,0.2375 -0.5125,0 -0.9875,-0.2125 -0.475,-0.2125 -0.8375,-0.625 -0.3625,-0.425 -0.575,-1.05 -0.2125,-0.625 -0.2125,-1.4625 0,-0.7875 0.1875,-1.4 0.2,-0.625 0.55,-1.05 0.3625,-0.4375 0.85,-0.6625 0.4875,-0.225 1.075,-0.225 0.3625,0 0.6375,0.087 0.2875,0.075 0.4875,0.2 0.2125,0.1125 0.35,0.25 0.15,0.125 0.225,0.2125 l 0,-0.6 0.875,0 0,6.2875 q 0,0.7875 -0.25,1.3 -0.25,0.525 -0.6625,0.8375 -0.4125,0.325 -0.9625,0.4625 -0.5375,0.1375 -1.125,0.1625 l -0.4,-0.6875 z m 0.975,-2.6125 q 0.4,0 0.8375,-0.275 0.45,-0.2875 0.7125,-0.7875 l 0,-3.075 q -0.1375,-0.2375 -0.3375,-0.4125 -0.1875,-0.1875 -0.4,-0.3125 -0.2125,-0.125 -0.425,-0.1875 -0.2125,-0.062 -0.3875,-0.062 -0.95,0 -1.425,0.6625 -0.475,0.65 -0.475,1.8875 0,0.6125 0.1375,1.0875 0.15,0.475 0.4,0.8125 0.2625,0.325 0.6,0.5 0.35,0.1625 0.7625,0.1625 z"
         id="path4812"
         inkscape:connector-curvature="0" />
      <path
         d="m 876.0262,1310.2981 0,-0.625 q -0.3875,0.35 -0.875,0.5625 -0.475,0.2125 -1,0.2125 -0.9625,0 -1.575,-0.5375 -0.6,-0.55 -0.6,-1.625 0,-0.55 0.1875,-0.95 0.2,-0.4 0.5125,-0.65 0.325,-0.2625 0.75,-0.3875 0.425,-0.125 0.875,-0.125 0.4,0 0.825,0.1 0.425,0.1 0.9,0.35 l 0,-0.5375 q 0,-0.4875 -0.125,-0.7875 -0.1125,-0.3 -0.3125,-0.475 -0.1875,-0.175 -0.45,-0.2375 -0.25,-0.062 -0.5125,-0.062 -0.2375,0 -0.5,0.062 -0.2625,0.062 -0.5125,0.1625 -0.25,0.1 -0.4875,0.225 -0.225,0.1125 -0.4,0.2375 l -0.25,-0.75 q 0.3875,-0.25 0.975,-0.475 0.6,-0.225 1.2625,-0.225 0.3375,0 0.7125,0.1 0.375,0.088 0.6875,0.3375 0.3125,0.2375 0.5125,0.675 0.2125,0.425 0.2125,1.1 l 0,4.325 -0.8125,0 z m -1.7875,-0.6125 q 0.2875,0 0.55,-0.088 0.2625,-0.087 0.4875,-0.225 0.225,-0.1375 0.4125,-0.3125 0.1875,-0.1875 0.3375,-0.3625 l 0,-1.2375 q -0.3125,-0.2125 -0.775,-0.3625 -0.45,-0.1625 -0.8625,-0.1625 -0.325,0 -0.6125,0.088 -0.2875,0.075 -0.5125,0.25 -0.2125,0.1625 -0.35,0.4125 -0.125,0.25 -0.125,0.6 0,0.6375 0.375,1.025 0.375,0.375 1.075,0.375 z"
         id="path4814"
         inkscape:connector-curvature="0" />
      <path
         d="m 878.84534,1310.2981 0,-6.3875 0.875,0 0,0.9 q 0.35,-0.525 0.8125,-0.7875 0.4625,-0.2625 0.9,-0.2625 0.475,0 0.8,0.2625 l -0.1375,0.85 q -0.125,-0.075 -0.325,-0.15 -0.1875,-0.087 -0.5,-0.087 -0.2125,0 -0.4875,0.1 -0.2625,0.1 -0.5,0.3375 -0.2375,0.2375 -0.4,0.6375 -0.1625,0.3875 -0.1625,0.975 l 0,3.6125 -0.875,0 z"
         id="path4816"
         inkscape:connector-curvature="0" />
      <path
         d="m 885.51311,1310.4481 q -0.6125,0 -1.1,-0.2375 -0.4875,-0.2375 -0.8375,-0.675 -0.3375,-0.4375 -0.525,-1.05 -0.175,-0.625 -0.175,-1.3875 0,-1.5875 0.7,-2.4625 0.7125,-0.875 1.9375,-0.875 0.6,0 1,0.1875 0.4125,0.175 0.7,0.4125 l 0,-2.65 0.875,-0.4375 0,9.025 -0.875,0 0,-0.55 q -0.2875,0.2875 -0.7,0.5 -0.4,0.2 -1,0.2 z m 0.1,-0.7875 q 0.475,0 0.9,-0.2625 0.4375,-0.2625 0.7,-0.7375 l 0,-3.1875 q -0.1,-0.1625 -0.25,-0.325 -0.15,-0.1625 -0.35,-0.2875 -0.1875,-0.1375 -0.45,-0.225 -0.25,-0.088 -0.55,-0.088 -0.8875,0 -1.3625,0.6625 -0.4625,0.65 -0.4625,1.8875 0,0.5375 0.125,1.0125 0.125,0.4625 0.3625,0.8125 0.2375,0.3375 0.575,0.5375 0.3375,0.2 0.7625,0.2 z"
         id="path4818"
         inkscape:connector-curvature="0" />
      <path
         d="m 890.63186,1310.4731 q -0.3375,0 -0.5625,-0.2375 -0.225,-0.25 -0.225,-0.55 0,-0.3 0.225,-0.5375 0.225,-0.25 0.5625,-0.25 0.3375,0 0.5625,0.25 0.225,0.2375 0.225,0.5375 0,0.3 -0.225,0.55 -0.225,0.2375 -0.5625,0.2375 z"
         id="path4820"
         inkscape:connector-curvature="0" />
      <path
         d="m 894.82444,1310.4481 q -1.1625,0 -1.85,-0.8625 -0.675,-0.875 -0.675,-2.475 0,-1.5875 0.6875,-2.4625 0.7,-0.8875 1.9375,-0.8875 0.7125,0 1.25,0.35 0.5375,0.3375 0.8,0.9875 l -0.8,0.3125 q -0.15,-0.3625 -0.4625,-0.6125 -0.3,-0.25 -0.825,-0.25 -0.45,0 -0.7625,0.1875 -0.3125,0.175 -0.525,0.5125 -0.2,0.325 -0.3,0.8 -0.0875,0.475 -0.0875,1.0625 0,1.2125 0.4,1.8875 0.4,0.6625 1.25,0.6625 0.525,0 0.8875,-0.2625 0.3625,-0.2625 0.525,-0.7125 l 0.7875,0.3 q -0.225,0.675 -0.825,1.075 -0.5875,0.3875 -1.4125,0.3875 z"
         id="path4822"
         inkscape:connector-curvature="0" />
      <path
         d="m 901.0428,1309.6606 q 0.875,0 1.35,-0.675 0.475,-0.675 0.475,-1.8875 0,-1.2 -0.4625,-1.875 -0.4625,-0.675 -1.3625,-0.675 -0.9,0 -1.3625,0.6625 -0.4625,0.65 -0.4625,1.9 0,1.2 0.4625,1.875 0.4625,0.675 1.3625,0.675 z m 0,-5.9 q 0.6125,0 1.1125,0.225 0.5125,0.225 0.8625,0.65 0.3625,0.425 0.5625,1.05 0.2,0.6125 0.2,1.4125 0,0.7875 -0.2,1.4125 -0.2,0.625 -0.5625,1.0625 -0.35,0.425 -0.8625,0.65 -0.5,0.225 -1.1125,0.225 -0.6125,0 -1.125,-0.225 -0.5,-0.225 -0.8625,-0.65 -0.35,-0.425 -0.55,-1.0375 -0.2,-0.625 -0.2,-1.425 0,-0.7875 0.2,-1.4 0.2,-0.625 0.55,-1.05 0.3625,-0.4375 0.8625,-0.6625 0.5125,-0.2375 1.125,-0.2375 z"
         id="path4824"
         inkscape:connector-curvature="0" />
      <path
         d="m 911.74124,1303.7606 q 0.4625,0 0.8625,0.1625 0.4,0.1625 0.6875,0.4625 0.3,0.2875 0.4625,0.7125 0.175,0.425 0.175,0.95 l 0,4.25 -0.875,0 0,-3.9125 q 0,-0.3 -0.05,-0.625 -0.05,-0.325 -0.2,-0.5875 -0.1375,-0.275 -0.4125,-0.45 -0.275,-0.175 -0.725,-0.175 -0.3625,0 -0.6375,0.15 -0.275,0.15 -0.4625,0.4 -0.1875,0.25 -0.2875,0.5875 -0.0875,0.325 -0.0875,0.7 l 0,3.9125 -0.875,0 0,-3.9125 q 0,-0.3 -0.05,-0.625 -0.05,-0.325 -0.2,-0.5875 -0.1375,-0.275 -0.4125,-0.45 -0.275,-0.175 -0.725,-0.175 -0.375,0 -0.65,0.1375 -0.275,0.125 -0.4625,0.3625 -0.175,0.2375 -0.275,0.55 -0.0875,0.3125 -0.0875,0.6875 l 0,4.0125 -0.875,0 0,-6.3875 0.875,0 0,0.625 q 0.6625,-0.775 1.7375,-0.775 0.5125,0 0.975,0.2625 0.475,0.25 0.75,0.7125 0.2625,-0.4 0.725,-0.6875 0.475,-0.2875 1.1,-0.2875 z"
         id="path4826"
         inkscape:connector-curvature="0" />
      <path
         d="m 915.00061,1311.9231 4.9125,-10.525 0.85,0 -4.9125,10.525 -0.85,0 z"
         id="path4828"
         inkscape:connector-curvature="0" />
      <path
         d="m 923.80471,1310.4481 q -0.6875,0 -0.975,-0.4125 -0.2875,-0.425 -0.2875,-1.05 l 0,-4.2875 -1.0875,0 0,-0.7875 1.0875,0 0,-2.2 0.875,-0.4375 0,2.6375 1.625,0 0,0.7875 -1.625,0 0,3.9125 q 0,0.2125 0.0125,0.4 0.025,0.175 0.1,0.3125 0.075,0.1375 0.2125,0.225 0.1375,0.075 0.3625,0.075 0.325,0 0.55,-0.125 0.2375,-0.125 0.4125,-0.25 l -0.1,0.9125 q -0.25,0.1375 -0.525,0.2125 -0.275,0.075 -0.6375,0.075 z"
         id="path4830"
         inkscape:connector-curvature="0" />
      <path
         d="m 927.1844,1307.4606 q 0.1125,0.975 0.5875,1.575 0.475,0.6 1.3,0.6 0.35,0 0.7125,-0.1125 0.3625,-0.1125 0.725,-0.3875 l 0.475,0.5875 q -0.375,0.3125 -0.8875,0.525 -0.5,0.2 -1.0625,0.2 -0.65,0 -1.1625,-0.2625 -0.5125,-0.275 -0.875,-0.7375 -0.35,-0.4625 -0.55,-1.0625 -0.1875,-0.6125 -0.1875,-1.2875 0,-0.8 0.2,-1.4125 0.2125,-0.625 0.575,-1.05 0.3625,-0.425 0.875,-0.65 0.5125,-0.225 1.125,-0.225 0.5125,0 0.9625,0.1875 0.4625,0.175 0.8125,0.55 0.35,0.375 0.55,0.9625 0.2,0.5875 0.2,1.3875 0,0.1 0,0.25 0,0.15 -0.025,0.3625 l -4.35,0 z m 1.85,-2.9125 q -0.775,0 -1.3,0.5125 -0.5125,0.5125 -0.575,1.6125 l 3.5125,0 q 0,-0.65 -0.1625,-1.0625 -0.1625,-0.4125 -0.4125,-0.65 -0.2375,-0.2375 -0.525,-0.325 -0.2875,-0.088 -0.5375,-0.088 z"
         id="path4832"
         inkscape:connector-curvature="0" />
      <path
         d="m 933.31311,1310.2981 0,-6.3875 0.875,0 0,0.9 q 0.35,-0.525 0.8125,-0.7875 0.4625,-0.2625 0.9,-0.2625 0.475,0 0.8,0.2625 l -0.1375,0.85 q -0.125,-0.075 -0.325,-0.15 -0.1875,-0.087 -0.5,-0.087 -0.2125,0 -0.4875,0.1 -0.2625,0.1 -0.5,0.3375 -0.2375,0.2375 -0.4,0.6375 -0.1625,0.3875 -0.1625,0.975 l 0,3.6125 -0.875,0 z"
         id="path4834"
         inkscape:connector-curvature="0" />
      <path
         d="m 944.23635,1303.7606 q 0.4625,0 0.8625,0.1625 0.4,0.1625 0.6875,0.4625 0.3,0.2875 0.4625,0.7125 0.175,0.425 0.175,0.95 l 0,4.25 -0.875,0 0,-3.9125 q 0,-0.3 -0.05,-0.625 -0.05,-0.325 -0.2,-0.5875 -0.1375,-0.275 -0.4125,-0.45 -0.275,-0.175 -0.725,-0.175 -0.3625,0 -0.6375,0.15 -0.275,0.15 -0.4625,0.4 -0.1875,0.25 -0.2875,0.5875 -0.0875,0.325 -0.0875,0.7 l 0,3.9125 -0.875,0 0,-3.9125 q 0,-0.3 -0.05,-0.625 -0.05,-0.325 -0.2,-0.5875 -0.1375,-0.275 -0.4125,-0.45 -0.275,-0.175 -0.725,-0.175 -0.375,0 -0.65,0.1375 -0.275,0.125 -0.4625,0.3625 -0.175,0.2375 -0.275,0.55 -0.0875,0.3125 -0.0875,0.6875 l 0,4.0125 -0.875,0 0,-6.3875 0.875,0 0,0.625 q 0.6625,-0.775 1.7375,-0.775 0.5125,0 0.975,0.2625 0.475,0.25 0.75,0.7125 0.2625,-0.4 0.725,-0.6875 0.475,-0.2875 1.1,-0.2875 z"
         id="path4836"
         inkscape:connector-curvature="0" />
      <path
         d="m 948.63323,1310.2981 0,-6.3875 0.875,0 0,6.3875 -0.875,0 z m 0.4375,-7.7 q -0.25,0 -0.4125,-0.1625 -0.1625,-0.1625 -0.1625,-0.4125 0,-0.25 0.1625,-0.425 0.1625,-0.175 0.4125,-0.175 0.25,0 0.4125,0.175 0.1625,0.175 0.1625,0.425 0,0.25 -0.1625,0.4125 -0.1625,0.1625 -0.4125,0.1625 z"
         id="path4838"
         inkscape:connector-curvature="0" />
      <path
         d="m 952.64514,1304.6106 q 0.3,-0.4375 0.7125,-0.6375 0.425,-0.2125 0.9375,-0.2125 1.175,0 1.725,0.7125 0.5625,0.7 0.5625,2.2875 l 0,3.5375 -0.875,0 0,-3.9 q 0,-1.0125 -0.425,-1.425 -0.425,-0.425 -1.0625,-0.425 -0.3375,0 -0.625,0.088 -0.2875,0.087 -0.5,0.3 -0.2125,0.2125 -0.3375,0.5625 -0.1125,0.35 -0.1125,0.875 l 0,3.925 -0.875,0 0,-6.3875 0.875,0 0,0.7 z"
         id="path4840"
         inkscape:connector-curvature="0" />
      <path
         d="m 962.45198,1310.2981 0,-0.625 q -0.3875,0.35 -0.875,0.5625 -0.475,0.2125 -1,0.2125 -0.9625,0 -1.575,-0.5375 -0.6,-0.55 -0.6,-1.625 0,-0.55 0.1875,-0.95 0.2,-0.4 0.5125,-0.65 0.325,-0.2625 0.75,-0.3875 0.425,-0.125 0.875,-0.125 0.4,0 0.825,0.1 0.425,0.1 0.9,0.35 l 0,-0.5375 q 0,-0.4875 -0.125,-0.7875 -0.1125,-0.3 -0.3125,-0.475 -0.1875,-0.175 -0.45,-0.2375 -0.25,-0.062 -0.5125,-0.062 -0.2375,0 -0.5,0.062 -0.2625,0.062 -0.5125,0.1625 -0.25,0.1 -0.4875,0.225 -0.225,0.1125 -0.4,0.2375 l -0.25,-0.75 q 0.3875,-0.25 0.975,-0.475 0.6,-0.225 1.2625,-0.225 0.3375,0 0.7125,0.1 0.375,0.088 0.6875,0.3375 0.3125,0.2375 0.5125,0.675 0.2125,0.425 0.2125,1.1 l 0,4.325 -0.8125,0 z m -1.7875,-0.6125 q 0.2875,0 0.55,-0.088 0.2625,-0.087 0.4875,-0.225 0.225,-0.1375 0.4125,-0.3125 0.1875,-0.1875 0.3375,-0.3625 l 0,-1.2375 q -0.3125,-0.2125 -0.775,-0.3625 -0.45,-0.1625 -0.8625,-0.1625 -0.325,0 -0.6125,0.088 -0.2875,0.075 -0.5125,0.25 -0.2125,0.1625 -0.35,0.4125 -0.125,0.25 -0.125,0.6 0,0.6375 0.375,1.025 0.375,0.375 1.075,0.375 z"
         id="path4842"
         inkscape:connector-curvature="0" />
      <path
         d="m 965.33362,1310.2981 0,-8.6 0.875,-0.425 0,9.025 -0.875,0 z"
         id="path4844"
         inkscape:connector-curvature="0" />
      <path
         d="m 968.51819,1306.9981 0,-0.85 2.7875,0 0,0.85 -2.7875,0 z"
         id="path4846"
         inkscape:connector-curvature="0" />
      <path
         d="m 976.73499,1305.2231 q -0.25,-0.25 -0.625,-0.4625 -0.375,-0.225 -0.9,-0.225 -0.5625,0 -0.8875,0.225 -0.325,0.225 -0.325,0.6125 0,0.25 0.125,0.425 0.125,0.175 0.325,0.325 0.2,0.1375 0.4625,0.25 0.2625,0.1125 0.55,0.225 0.35,0.1375 0.7125,0.3125 0.375,0.1625 0.6625,0.4 0.2875,0.2375 0.475,0.575 0.1875,0.325 0.1875,0.8125 0,0.8 -0.575,1.275 -0.575,0.475 -1.575,0.475 -0.65,0 -1.225,-0.3125 -0.575,-0.325 -0.975,-0.8 l 0.6125,-0.5375 q 0.2875,0.35 0.725,0.6125 0.4375,0.2625 0.9375,0.2625 0.525,0 0.8875,-0.2375 0.3625,-0.2375 0.3625,-0.6875 0,-0.2875 -0.1375,-0.5 -0.1375,-0.225 -0.3625,-0.3875 -0.225,-0.1625 -0.5125,-0.2875 -0.2875,-0.1375 -0.575,-0.25 -0.375,-0.15 -0.725,-0.325 -0.35,-0.175 -0.6125,-0.4 -0.2625,-0.225 -0.425,-0.5125 -0.15,-0.3 -0.15,-0.7 0,-0.3625 0.15,-0.6625 0.1625,-0.3 0.425,-0.5125 0.275,-0.2125 0.65,-0.325 0.3875,-0.125 0.8375,-0.125 0.65,0 1.1625,0.2625 0.525,0.25 0.9125,0.7125 l -0.575,0.4875 z"
         id="path4848"
         inkscape:connector-curvature="0" />
      <path
         d="m 979.34612,1310.2981 0,-6.3875 0.875,0 0,6.3875 -0.875,0 z m 0.4375,-7.7 q -0.25,0 -0.4125,-0.1625 -0.1625,-0.1625 -0.1625,-0.4125 0,-0.25 0.1625,-0.425 0.1625,-0.175 0.4125,-0.175 0.25,0 0.4125,0.175 0.1625,0.175 0.1625,0.425 0,0.25 -0.1625,0.4125 -0.1625,0.1625 -0.4125,0.1625 z"
         id="path4850"
         inkscape:connector-curvature="0" />
      <path
         d="m 982.54553,1310.2981 0,-8.6 0.875,-0.425 0,9.025 -0.875,0 z"
         id="path4852"
         inkscape:connector-curvature="0" />
      <path
         d="m 988.2551,1303.7606 q 1.175,0 1.725,0.7125 0.5625,0.7 0.5625,2.2875 l 0,3.5375 -0.875,0 0,-3.9 q 0,-1.0125 -0.425,-1.425 -0.425,-0.425 -1.0625,-0.425 -0.3375,0 -0.625,0.088 -0.2875,0.087 -0.5,0.3 -0.2125,0.2125 -0.3375,0.5625 -0.1125,0.35 -0.1125,0.875 l 0,3.925 -0.875,0 0,-8.6125 0.875,-0.4125 0,3.35 q 0.2875,-0.4375 0.7125,-0.65 0.425,-0.2125 0.9375,-0.2125 z"
         id="path4854"
         inkscape:connector-curvature="0" />
      <path
         d="m 995.03694,1309.6606 q 0.875,0 1.35,-0.675 0.475,-0.675 0.475,-1.8875 0,-1.2 -0.4625,-1.875 -0.4625,-0.675 -1.3625,-0.675 -0.9,0 -1.3625,0.6625 -0.4625,0.65 -0.4625,1.9 0,1.2 0.4625,1.875 0.4625,0.675 1.3625,0.675 z m 0,-5.9 q 0.6125,0 1.1125,0.225 0.5125,0.225 0.8625,0.65 0.3625,0.425 0.5625,1.05 0.2,0.6125 0.2,1.4125 0,0.7875 -0.2,1.4125 -0.2,0.625 -0.5625,1.0625 -0.35,0.425 -0.8625,0.65 -0.5,0.225 -1.1125,0.225 -0.6125,0 -1.125,-0.225 -0.5,-0.225 -0.8625,-0.65 -0.35,-0.425 -0.55,-1.0375 -0.2,-0.625 -0.2,-1.425 0,-0.7875 0.2,-1.4 0.2,-0.625 0.55,-1.05 0.3625,-0.4375 0.8625,-0.6625 0.5125,-0.2375 1.125,-0.2375 z"
         id="path4856"
         inkscape:connector-curvature="0" />
      <path
         d="m 1003.4479,1310.2981 0,-0.6125 q -0.3375,0.4375 -0.7125,0.6 -0.375,0.1625 -0.875,0.1625 -1.2375,0 -1.8,-0.7 -0.55002,-0.7 -0.55002,-2.275 l 0,-3.5625 0.87502,0 0,3.9 q 0,1 0.4125,1.425 0.425,0.425 1.0625,0.425 0.3375,0 0.625,-0.087 0.2875,-0.088 0.5,-0.3 0.225,-0.2125 0.3375,-0.5625 0.125,-0.35 0.125,-0.875 l 0,-3.925 0.875,0 0,6.3875 -0.875,0 z"
         id="path4858"
         inkscape:connector-curvature="0" />
      <path
         d="m 1007.0672,1307.4606 q 0.1125,0.975 0.5875,1.575 0.475,0.6 1.3,0.6 0.35,0 0.7125,-0.1125 0.3625,-0.1125 0.725,-0.3875 l 0.475,0.5875 q -0.375,0.3125 -0.8875,0.525 -0.5,0.2 -1.0625,0.2 -0.65,0 -1.1625,-0.2625 -0.5125,-0.275 -0.875,-0.7375 -0.35,-0.4625 -0.55,-1.0625 -0.1875,-0.6125 -0.1875,-1.2875 0,-0.8 0.2,-1.4125 0.2125,-0.625 0.575,-1.05 0.3625,-0.425 0.875,-0.65 0.5125,-0.225 1.125,-0.225 0.5125,0 0.9625,0.1875 0.4625,0.175 0.8125,0.55 0.35,0.375 0.55,0.9625 0.2,0.5875 0.2,1.3875 0,0.1 0,0.25 0,0.15 -0.025,0.3625 l -4.35,0 z m 1.85,-2.9125 q -0.775,0 -1.3,0.5125 -0.5125,0.5125 -0.575,1.6125 l 3.5125,0 q 0,-0.65 -0.1625,-1.0625 -0.1625,-0.4125 -0.4125,-0.65 -0.2375,-0.2375 -0.525,-0.325 -0.2875,-0.088 -0.5375,-0.088 z"
         id="path4860"
         inkscape:connector-curvature="0" />
      <path
         d="m 1014.6739,1310.4481 q -0.6875,0 -0.975,-0.4125 -0.2875,-0.425 -0.2875,-1.05 l 0,-4.2875 -1.0875,0 0,-0.7875 1.0875,0 0,-2.2 0.875,-0.4375 0,2.6375 1.625,0 0,0.7875 -1.625,0 0,3.9125 q 0,0.2125 0.013,0.4 0.025,0.175 0.1,0.3125 0.075,0.1375 0.2125,0.225 0.1375,0.075 0.3625,0.075 0.325,0 0.55,-0.125 0.2375,-0.125 0.4125,-0.25 l -0.1,0.9125 q -0.25,0.1375 -0.525,0.2125 -0.275,0.075 -0.6375,0.075 z"
         id="path4862"
         inkscape:connector-curvature="0" />
      <path
         d="m 1019.2881,1310.4481 q -0.6875,0 -0.975,-0.4125 -0.2875,-0.425 -0.2875,-1.05 l 0,-4.2875 -1.0875,0 0,-0.7875 1.0875,0 0,-2.2 0.875,-0.4375 0,2.6375 1.625,0 0,0.7875 -1.625,0 0,3.9125 q 0,0.2125 0.012,0.4 0.025,0.175 0.1,0.3125 0.075,0.1375 0.2125,0.225 0.1375,0.075 0.3625,0.075 0.325,0 0.55,-0.125 0.2375,-0.125 0.4125,-0.25 l -0.1,0.9125 q -0.25,0.1375 -0.525,0.2125 -0.275,0.075 -0.6375,0.075 z"
         id="path4864"
         inkscape:connector-curvature="0" />
      <path
         d="m 1022.6678,1307.4606 q 0.1125,0.975 0.5875,1.575 0.475,0.6 1.3,0.6 0.35,0 0.7125,-0.1125 0.3625,-0.1125 0.725,-0.3875 l 0.475,0.5875 q -0.375,0.3125 -0.8875,0.525 -0.5,0.2 -1.0625,0.2 -0.65,0 -1.1625,-0.2625 -0.5125,-0.275 -0.875,-0.7375 -0.35,-0.4625 -0.55,-1.0625 -0.1875,-0.6125 -0.1875,-1.2875 0,-0.8 0.2,-1.4125 0.2125,-0.625 0.575,-1.05 0.3625,-0.425 0.875,-0.65 0.5125,-0.225 1.125,-0.225 0.5125,0 0.9625,0.1875 0.4625,0.175 0.8125,0.55 0.35,0.375 0.55,0.9625 0.2,0.5875 0.2,1.3875 0,0.1 0,0.25 0,0.15 -0.025,0.3625 l -4.35,0 z m 1.85,-2.9125 q -0.775,0 -1.3,0.5125 -0.5125,0.5125 -0.575,1.6125 l 3.5125,0 q 0,-0.65 -0.1625,-1.0625 -0.1625,-0.4125 -0.4125,-0.65 -0.2375,-0.2375 -0.525,-0.325 -0.2875,-0.088 -0.5375,-0.088 z"
         id="path4866"
         inkscape:connector-curvature="0" />
      <path
         d="m 1031.8619,1305.2231 q -0.25,-0.25 -0.625,-0.4625 -0.375,-0.225 -0.9,-0.225 -0.5625,0 -0.8875,0.225 -0.325,0.225 -0.325,0.6125 0,0.25 0.125,0.425 0.125,0.175 0.325,0.325 0.2,0.1375 0.4625,0.25 0.2625,0.1125 0.55,0.225 0.35,0.1375 0.7125,0.3125 0.375,0.1625 0.6625,0.4 0.2875,0.2375 0.475,0.575 0.1875,0.325 0.1875,0.8125 0,0.8 -0.575,1.275 -0.575,0.475 -1.575,0.475 -0.65,0 -1.225,-0.3125 -0.575,-0.325 -0.975,-0.8 l 0.6125,-0.5375 q 0.2875,0.35 0.725,0.6125 0.4375,0.2625 0.9375,0.2625 0.525,0 0.8875,-0.2375 0.3625,-0.2375 0.3625,-0.6875 0,-0.2875 -0.1375,-0.5 -0.1375,-0.225 -0.3625,-0.3875 -0.225,-0.1625 -0.5125,-0.2875 -0.2875,-0.1375 -0.575,-0.25 -0.375,-0.15 -0.725,-0.325 -0.35,-0.175 -0.6125,-0.4 -0.2625,-0.225 -0.425,-0.5125 -0.15,-0.3 -0.15,-0.7 0,-0.3625 0.15,-0.6625 0.1625,-0.3 0.425,-0.5125 0.275,-0.2125 0.65,-0.325 0.3875,-0.125 0.8375,-0.125 0.65,0 1.1625,0.2625 0.525,0.25 0.9125,0.7125 l -0.575,0.4875 z"
         id="path4868"
         inkscape:connector-curvature="0" />
    </g>
  </g>
</svg>
