<?xml version="1.0" encoding="UTF-8" standalone="no"?>
<!-- Created with Inkscape (http://www.inkscape.org/) -->

<svg
   xmlns:dc="http://purl.org/dc/elements/1.1/"
   xmlns:cc="http://creativecommons.org/ns#"
   xmlns:rdf="http://www.w3.org/1999/02/22-rdf-syntax-ns#"
   xmlns:svg="http://www.w3.org/2000/svg"
   xmlns="http://www.w3.org/2000/svg"
   xmlns:sodipodi="http://sodipodi.sourceforge.net/DTD/sodipodi-0.dtd"
   xmlns:inkscape="http://www.inkscape.org/namespaces/inkscape"
   width="1023.2692"
   height="838.34985"
   viewBox="0 0 1023.2692 838.34987"
   id="svg2"
   version="1.1"
   inkscape:version="0.92.4 (5da689c313, 2019-01-14)"
   sodipodi:docname="BWI.svg"
   inkscape:export-filename="C:\Users\Paul Bogard\Dropbox\Documents\Websites\Flight Log\Images\Terminals\BWI.png"
   inkscape:export-xdpi="90"
   inkscape:export-ydpi="90">
  <defs
     id="defs4" />
  <sodipodi:namedview
     id="base"
     pagecolor="#ffffff"
     bordercolor="#666666"
     borderopacity="1.0"
     inkscape:pageopacity="1"
     inkscape:pageshadow="2"
     inkscape:zoom="0.70710678"
     inkscape:cx="381.37416"
     inkscape:cy="175.23277"
     inkscape:document-units="px"
     inkscape:current-layer="layer1"
     showgrid="false"
     units="px"
     fit-margin-top="25"
     fit-margin-left="25"
     fit-margin-right="25"
     fit-margin-bottom="25"
     inkscape:window-width="1920"
     inkscape:window-height="1137"
     inkscape:window-x="1912"
     inkscape:window-y="-8"
     inkscape:window-maximized="1" />
  <metadata
     id="metadata7">
    <rdf:RDF>
      <cc:Work
         rdf:about="">
        <dc:format>image/svg+xml</dc:format>
        <dc:type
           rdf:resource="http://purl.org/dc/dcmitype/StillImage" />
        <dc:title />
      </cc:Work>
    </rdf:RDF>
  </metadata>
  <g
     inkscape:groupmode="layer"
     id="layer2"
     inkscape:label="Terminal"
     transform="translate(-4883.5112,-4488.6347)">
    <path
       id="path3345"
       style="fill:#dddddd;fill-rule:evenodd;stroke:#222222;stroke-width:1.5;stroke-linecap:butt;stroke-linejoin:miter;stroke-miterlimit:4;stroke-dasharray:none;stroke-opacity:1;fill-opacity:1"
       d="m 4937.8802,4785.3795 -16.5563,11.5928 -1.2919,-1.7678 -10.2329,7.8192 1.1899,1.7338 -2.3458,1.7338 32.0927,44.7393 -0.476,0.34 17.7122,24.7494 -1.3259,0.9519 14.1425,19.5819 3.4677,-2.5157 4.8954,6.7992 44.1954,0.578 0,-0.408 17.3722,0.204 c 0,0 24.6897,81.8848 100.0764,140.9248 l -8.7743,19.5919 -0.3125,0.1442 -13.9908,31.1066 -0.4086,0 0,0.5769 0.673,0.024 20.0967,28.1017 -3.5097,2.5962 11.2263,15.6254 3.6059,-2.6443 37.7894,53.3668 -2.3798,1.6828 2.2837,3.2453 2.4279,-1.851 35.593,49.3087 -3.1277,2.2778 6.5953,9.077 3.0597,-2.2778 35.5263,49.4988 c 0,0 17.2702,-0.7819 24.5454,-17.8481 l -20.8917,-29.1454 4.1107,-3.1732 -6.154,-8.6781 -4.2309,3.053 -9.832,-13.6542 4.2789,-3.1972 -16.6591,-23.1737 -4.2068,3.053 -20.5534,-28.5104 4.2308,-3.077 -22.3082,-31.2509 -4.1588,3.0049 -24.5199,-33.9913 3.5578,-2.6683 -8.7743,-12.26 -3.5337,2.6203 -18.8518,-26.2957 15.3901,-33.5136 10.2888,4.7117 6.5146,2.2116 4.7357,0.7692 3.9664,0.072 3.6299,-0.4086 3.9424,-1.0577 3.1972,-1.178 3.7501,-2.1875 3.6059,-1.8991 4.0386,-1.7308 1.7308,-0.577 1.226,5.1925 57.2546,-13.3763 -1.3599,-5.5074 50.6707,-11.9104 4.4472,1.7548 c 0,0 11.6851,4.9541 27.1535,1.0446 l 5.9964,8.3067 4.7117,-3.3415 -5.1204,-7.1156 c 0,0 2.9328,-1.0577 6.6348,-3.3173 l 85.5512,118.6078 -1.1219,0.7819 c 0,0 -1.4958,-2.0058 -3.7736,-0.476 0,0 -1.7338,1.5299 -0.408,3.4677 l 4.8615,6.8333 5.2695,-3.8756 18.1339,25.0495 -4.904,3.3655 4.327,6.3463 c 0,0 1.7068,1.7308 3.654,0.2644 0,0 1.5625,-1.4423 0.5288,-3.1251 l 0.9375,-0.5769 9.6157,13.3657 -4.8319,3.5098 4.8319,6.7069 c 0,0 1.4664,1.7308 3.5337,0 0,0 1.4664,-1.1539 0.096,-3.1732 0.1442,0 0.9856,-0.6731 0.9856,-0.6731 l 11.8272,16.587 c 0.1924,-0.024 17.3322,-1.8029 17.3322,-1.8029 l 6.8031,-16.0101 -25.818,-36.4433 0.5769,-0.3846 c 0,0 1.4905,1.6347 3.2453,0.4087 0,0 1.8991,-1.3943 0.601,-3.3415 l -1.5385,-2.0914 0.3125,-0.1923 -3.1732,-4.2789 -4.8318,3.3895 -64.7373,-89.6419 4.814,-3.3031 -4.8955,-6.7653 c 0,0 -1.7936,-2.0232 -3.8609,-0.4366 0,0 -1.6347,1.5625 -0.2645,3.4135 l -0.5048,0.4087 -21.3467,-29.6883 0.7212,-0.5529 1.7067,2.3798 c 1.5145,1.827 3.2453,0.577 3.2453,0.577 1.8751,-1.4424 0.5529,-3.6059 0.5529,-3.6059 l -4.5434,-6.4905 -0.6731,0.4807 -0.1683,-0.2163 -3.1972,2.3077 0.1443,0.1803 -0.8189,0.592 -19.0855,-26.5662 0.6731,-0.4808 1.1298,1.5625 c 2.0674,2.6443 4.0626,0.9857 4.0626,0.9857 2.3318,-1.8751 0.048,-4.3752 0.048,-4.3752 l -4.2429,-5.5049 -0.8053,0.5649 -0.1442,-0.1803 -3.1011,2.1996 0.1683,0.2163 -0.8654,0.6251 -12.5734,-17.4036 15.0735,-10.4938 30.145,-49.0879 3.077,1.7789 25.0968,-41.1549 -3.0289,-1.827 6.731,-10.8657 5.2405,3.2213 13.1734,2.0673 6.154,-2.5962 95.8199,15.6735 25.6257,34.9048 -3.2213,2.3558 5.0483,6.9233 3.125,-2.3559 16.9236,23.318 -3.077,2.3077 5.0963,7.0675 3.0289,-2.5481 27.2603,37.2606 -3.1731,2.3558 5.0482,6.779 2.9327,-2.1154 22.0679,30.3854 -3.2212,2.3559 5.2405,7.0194 24.7603,-17.789 -0.7212,-0.8654 3.3655,-2.5 -5.0963,-6.8752 -3.2212,2.3558 -21.8275,-30.145 3.2693,-2.3078 -5.0001,-6.9232 -3.2213,2.3558 -21.5871,-29.6162 3.2212,-2.3558 -5.1924,-7.1156 -3.1251,2.4039 -21.6833,-30.0008 3.1251,-2.2597 -4.952,-6.8271 -3.2213,2.3559 -16.4908,-22.6929 10.5291,-7.4041 2.1155,0.3606 0.4807,-2.3318 c 0.2385,-0.01 53.069,-38.4246 53.069,-38.4246 l 2.7877,3.6376 7.2752,-5.5754 -2.5157,-3.4336 33.0445,-24.0015 2.4138,3.0937 7.3772,-5.3375 -2.2778,-3.1956 22.5554,-16.4049 -0.3125,-0.4327 22.116,-15.7216 -5.263,-7.4206 12.8834,-9.2866 -0.4087,-0.5769 19.8082,-14.4235 2.1636,2.9328 17.7889,2.8847 18.6063,25.5055 3.2933,-2.2357 4.2069,5.529 1.274,-0.8894 5.6733,7.8367 -1.0337,0.6731 -0.048,0.6972 1.6587,2.2356 0.7212,0.024 0.8894,-0.6731 26.2507,36.1308 -1.0337,0.7212 0.024,0.7933 3.1491,4.3991 0.9616,0.1443 0.8413,-0.577 4.1108,5.7454 0.3845,-0.2404 0.9136,1.226 5.3607,-3.8222 -0.9856,-1.2981 4.952,-3.4617 0.6491,0.8654 0.625,0.096 2.2356,-1.5625 0.096,-0.6491 -0.9376,-1.2741 0.1443,-0.5529 -3.5818,-5.1203 1.0336,-0.6971 0.072,-0.5529 -1.5867,-2.2838 -0.7451,-0.1202 -0.9135,0.7212 -7.5242,-10.457 1.0576,-0.8173 0.048,-0.601 -1.6588,-2.1635 -0.7212,-0.048 -0.8894,0.6491 -30.3307,-41.6816 1.0369,-0.7649 0.102,-0.5949 -1.5978,-2.2438 -0.7989,-0.17 -0.901,0.663 -7.2752,-9.91 0.9859,-0.7649 0.204,-0.7479 -1.5299,-2.0738 -0.8669,-0.051 -0.8669,0.6459 -30.0528,-41.2886 1.0029,-0.799 0.102,-0.5779 -1.5979,-2.2268 -0.7309,-0.1359 -0.9689,0.6629 -5.7794,-7.9382 1.0199,-0.7649 0.068,-0.6629 -3.3656,-4.6745 -0.765,-0.119 -0.9349,0.7139 -4.1815,-5.7114 -0.306,0.221 -0.7649,-1.0369 -0.6629,-0.153 -2.2098,1.5808 -0.085,0.731 0.7139,0.9858 -4.7085,3.5017 -0.7476,-1.0957 -0.7693,-0.096 -4.6155,3.2693 -0.1082,0.7332 0.8306,1.2099 -0.3014,0.263 4.7595,6.5783 -4.7255,3.3147 9.893,13.7006 -2.9577,17.7461 2.2438,3.0937 -19.854,14.5504 -2.7537,-3.6716 -12.5787,9.315 -2.5497,-3.3316 -11.1338,8.1931 -0.527,-0.6969 -2.6347,1.8358 0.493,0.7139 -26.8912,19.854 -2.4647,-3.3487 -7.4283,5.4054 2.4138,3.3147 -47.816,34.9653 -2.4987,-3.3316 -7.4113,5.3544 2.3628,3.3656 -44.6883,32.5856 -2.4308,-3.3826 -7.4622,5.4904 2.3798,3.3317 -5.9664,4.2325 -0.323,2.7027 -108.5208,-17.6041 -12.2119,-16.9476 -1.6106,-21.4669 c -0.1923,-0.3847 -11.1436,-15.5269 -11.1436,-15.5269 l 6.2213,-4.4875 -6.1024,-8.4821 2.8388,-1.9378 -27.5032,-38.161 -1.2408,0.9689 -3.2467,-4.5555 -14.5675,10.5729 -1.0708,-1.3429 -2.8217,2.2098 -12.3238,-16.9812 -16.2502,11.9327 11.9667,17.2362 -0.8159,0.5779 0.6119,0.884 -12.1367,8.4651 -21.5537,-30.0189 7.2072,-5.2354 -9.7546,-13.6687 2.5482,-16.4428 32.2124,4.8559 -1.0097,5.6251 3.9905,0.7212 0.8654,-5.4809 22.8852,3.3174 3.8944,-23.0775 -12.7407,-18.3178 1.2981,-7.9329 -12.4523,-17.5486 2.9809,-18.8466 27.4045,-20.0006 2.9328,4.1347 -7.8367,5.4329 c 0,0 -2.3799,2.1154 -0.4087,4.8078 0,0 1.9952,2.1635 4.5194,0.4808 l 7.1876,-5.3367 1.827,0.3125 6.4425,-4.7597 0.2163,-1.5866 7.6445,-5.4809 c 0,0 2.0673,-1.8751 0.2885,-4.3511 0,0 -1.803,-2.5241 -4.4232,-0.6731 l -7.4762,5.3367 -2.9568,-4.3511 43.8954,-31.6355 2.9328,4.2309 -7.4041,5.4329 c 0,0 -2.0193,2.1635 -0.5769,4.3991 0,0 1.4664,2.3559 4.2309,0.9135 l 7.38,-5.3126 1.5625,0.4086 6.6348,-4.952 0.1442,-1.6587 7.332,-5.2886 c 0,0 2.2837,-1.9232 0.4327,-4.5675 0,0 -2.0434,-2.2837 -4.4473,-0.5048 l -7.2117,5.2886 -2.8847,-3.9183 22.1881,-16.3707 -17.7889,-24.6641 -22.2122,16.2024 -3.2212,-4.7838 7.356,-5.3848 c 0,0 2.2837,-2.0193 0.3846,-4.2309 0,0 -1.7308,-2.1875 -4.3992,-0.3606 l -7.0915,5.0963 -1.3462,-0.3606 -6.6348,4.6636 -0.2163,1.7549 -7.2118,5.1203 c 0,0 -2.2837,1.7549 -0.649,4.3271 0,0 1.8991,2.5 4.7357,0.2644 l 6.9713,-4.9521 3.3655,4.7117 -43.8714,31.7556 -3.2453,-4.6635 7.5243,-5.7454 c 0,0 2.1154,-1.6106 0.3606,-4.0626 0,0 -1.7549,-2.1876 -4.4232,-0.4087 l -7.0435,5.0963 -1.5144,-0.2163 -6.6108,4.7357 -0.2164,1.4423 -7.0434,5.0482 c 0,0 -2.7886,2.0914 -0.8414,4.5915 0.096,0.072 1.7789,1.9712 4.1828,0.3846 l 7.4041,-5.2405 3.4135,4.8078 -35.1692,25.3132 -17.5966,-2.9328 -1.6106,1.178 -6.8993,-9.7599 -12.2839,8.5098 7.0915,9.9522 -16.2745,11.8273 -15.1927,-2.6444 0.3606,-2.2356 -18.0774,-3.0529 -8.1252,-11.2984 -7.981,5.6251 -3.5578,-4.7357 -8.4858,5.9858 -50.8875,-70.9524 -5.0482,3.7501 50.9115,70.9283 c 0,0 -15.4331,11.0099 -15.2408,11.1542 0.1923,0.1442 155.2387,215.1922 155.2387,215.1922 l -45.1983,73.3495 -54.2583,39.2998 -83.2232,19.888 -110.4472,-154.2388 -23.3179,-3.7501 c 0,0 1.4495,33.9971 11.7689,65.7395 l -33.1635,-0.2889 c 0,0 1.1558,4.3855 2.3117,7.9211 l -41.9856,-0.2379 -23.5011,-32.8442 1.3462,-0.8895 -30.1691,-42.0684 -0.7933,0.5769 z"
       inkscape:connector-curvature="0"
       sodipodi:nodetypes="cccccccccccccccccccccccccccccccccccccccccccccccccccccccccccccccccccccccccccccccccccccccccccccccccccccccccccccccccccccccccccccccccccccccccccccccccccccccccccccccccccccccccccccccccccccccccccccccccccccccccccccccccccccccccccccccccccccccccccccccccccccccccccccccccccccccccccccccccccccccccccccccccccccccccccccccccccccccccccccccccccccccccccccccccccccccccccccccccccccccccccccccccccccccccccccccccccccccccccccccccccccccccccccccccc" />
  </g>
  <g
     inkscape:groupmode="layer"
     id="layer1"
     inkscape:label="Label"
     style="display:inline">
    <g
       id="g4167"
       transform="translate(-0.12506786,-0.06249827)">
      <g
         style="font-style:normal;font-variant:normal;font-weight:bold;font-stretch:normal;font-size:125px;line-height:110.00000238%;font-family:Overpass;-inkscape-font-specification:'Overpass, Bold';text-align:center;letter-spacing:0px;word-spacing:0px;writing-mode:lr-tb;text-anchor:middle;fill:#dddddd;fill-opacity:1;stroke:#222222;stroke-width:0.25;stroke-linecap:butt;stroke-linejoin:miter;stroke-miterlimit:4;stroke-dasharray:none;stroke-opacity:1"
         id="text4149">
        <path
           d="m 783.1972,678.38611 38.39112,0 q 7.9956,0 13.42773,2.01416 5.43213,2.01416 8.72803,5.31006 3.35693,3.2959 4.76074,7.50732 1.46485,4.21143 1.46485,8.66699 0,2.80762 -0.61036,5.43213 -0.54931,2.62451 -1.83105,4.94385 -1.28174,2.2583 -3.2959,4.21143 -2.01416,1.89209 -4.88281,3.29589 3.72314,1.40381 6.28662,3.66211 2.62451,2.19727 4.21143,4.88282 1.64794,2.68554 2.38037,5.67627 0.73242,2.99072 0.73242,5.92041 0,4.63867 -1.58692,9.27734 -1.52587,4.63867 -5.06591,8.36182 -3.47901,3.72314 -9.15528,6.04248 -5.61523,2.31933 -13.79394,2.31933 l -40.16114,0 0,-87.52441 z m 41.01563,71.77734 q 3.41797,0 5.67627,-0.91553 2.2583,-0.97656 3.54004,-2.4414 1.34277,-1.46485 1.89209,-3.2959 0.54931,-1.83105 0.54931,-3.60107 0,-2.13623 -0.67138,-4.15039 -0.61035,-2.0752 -2.31934,-3.66211 -1.70898,-1.58692 -4.63867,-2.56348 -2.92969,-0.97656 -7.50732,-0.97656 l -20.62989,0 0,21.60644 24.10889,0 z m -4.63867,-37.35351 q 6.71386,0 9.94873,-2.56348 3.2959,-2.62451 3.2959,-6.83594 0,-1.64795 -0.42725,-3.2959 -0.42725,-1.64795 -1.64795,-2.99072 -1.15967,-1.34277 -3.2959,-2.13623 -2.13623,-0.85449 -5.61523,-0.85449 l -21.72852,0 0,18.67676 19.47022,0 z"
           style=""
           id="path4174" />
        <path
           d="m 964.47162,678.38611 -18.9209,87.52441 -15.74707,0 -13.24463,-51.51367 q -0.54932,-2.07519 -0.79346,-3.66211 -0.24414,-1.64795 -0.42724,-2.92969 -0.18311,1.28174 -0.48828,2.92969 -0.30518,1.58692 -0.79346,3.54004 l -12.87842,51.63574 -15.74707,0 -18.73779,-87.52441 17.39502,0 9.76562,49.25537 q 0.48828,2.2583 0.67139,3.72314 0.24414,1.46485 0.42725,2.80762 0.1831,-1.34277 0.42724,-2.80762 0.24414,-1.52587 0.79346,-3.84521 l 12.02392,-49.1333 14.64844,0 12.20703,49.1333 q 0.61035,2.31934 0.8545,3.84521 0.24414,1.46485 0.42724,2.80762 0.18311,-1.34277 0.36621,-2.80762 0.24414,-1.46484 0.73242,-3.72314 l 9.76563,-49.25537 17.27295,0 z"
           style=""
           id="path4176" />
        <path
           d="m 982.11078,765.91052 0,-87.52441 16.8457,0 0,87.52441 -16.8457,0 z"
           style=""
           id="path4178" />
      </g>
      <g
         style="font-style:normal;font-variant:normal;font-weight:normal;font-stretch:normal;font-size:45px;line-height:110.00000238%;font-family:Overpass;-inkscape-font-specification:'Overpass, Normal';text-align:center;letter-spacing:0px;word-spacing:0px;writing-mode:lr-tb;text-anchor:middle;fill:#222222;fill-opacity:1;stroke:none;stroke-width:1px;stroke-linecap:butt;stroke-linejoin:miter;stroke-opacity:1"
         id="text4153">
        <path
           d="m 804.22797,782.02441 11.93115,0 q 2.8125,0 4.72412,0.7251 1.91162,0.70313 3.07617,1.88965 1.16455,1.16455 1.64795,2.68066 0.50537,1.51612 0.50537,3.12012 0,1.97754 -1.07666,3.73535 -1.07666,1.73584 -3.25195,2.79053 1.47217,0.52734 2.50488,1.34033 1.03272,0.79102 1.6919,1.75781 0.65918,0.9668 0.94482,2.06543 0.30762,1.07666 0.30762,2.1753 0,1.604 -0.54932,3.25195 -0.52734,1.64795 -1.75781,2.98828 -1.23047,1.31836 -3.22998,2.15332 -1.97754,0.83496 -4.85596,0.83496 l -12.6123,0 0,-31.50879 z m 12.96386,27.18018 q 1.56006,0 2.5708,-0.41748 1.03272,-0.41748 1.62598,-1.07666 0.59326,-0.68115 0.83496,-1.51611 0.2417,-0.83497 0.2417,-1.66993 0,-0.98877 -0.28564,-1.91162 -0.28565,-0.94482 -1.03272,-1.64795 -0.74707,-0.72509 -2.04346,-1.16455 -1.27441,-0.43945 -3.25195,-0.43945 l -6.94336,0 0,9.84375 8.28369,0 z m -1.80175,-14.17236 q 1.47216,0 2.59277,-0.30762 1.1206,-0.32959 1.86767,-0.90088 0.74708,-0.59326 1.12061,-1.38428 0.37354,-0.79101 0.37354,-1.75781 0,-0.76904 -0.19776,-1.53809 -0.19775,-0.76904 -0.76904,-1.38427 -0.54932,-0.63721 -1.53809,-1.01074 -0.96679,-0.39551 -2.54883,-0.39551 l -7.38281,0 0,8.6792 6.48194,0 z"
           style=""
           id="path4181" />
        <path
           d="m 851.16156,813.5332 -4.48242,0 0,-1.97754 q -0.43945,0.46143 -1.05469,0.92286 -0.61523,0.43945 -1.40625,0.81298 -0.76904,0.35157 -1.73584,0.57129 -0.9668,0.21973 -2.10937,0.21973 -1.75782,0 -3.25196,-0.4834 -1.49414,-0.4834 -2.59277,-1.45019 -1.09863,-0.98877 -1.73584,-2.417 -0.61523,-1.45019 -0.61523,-3.36181 0,-1.97754 0.74707,-3.40576 0.74707,-1.4502 1.97753,-2.37305 1.23047,-0.94483 2.8125,-1.38428 1.60401,-0.43945 3.2959,-0.43945 1.58203,0 3.03223,0.35156 1.47217,0.32959 2.63672,1.01074 l 0,-1.27441 q 0,-1.29639 -0.30762,-2.19727 -0.28564,-0.90088 -0.90088,-1.45019 -0.59326,-0.57129 -1.51611,-0.81299 -0.92285,-0.26367 -2.19727,-0.26367 -2.15332,0 -3.73535,0.57129 -1.56006,0.57129 -2.83447,1.51611 l -1.38428,-3.84521 q 0.70313,-0.4834 1.60401,-0.90088 0.90087,-0.43946 1.97753,-0.76905 1.07666,-0.32959 2.32911,-0.50537 1.25244,-0.19775 2.68066,-0.19775 0.9668,0 1.99951,0.10986 1.03272,0.10986 1.99951,0.43945 0.98877,0.30762 1.84571,0.90088 0.8789,0.59327 1.51611,1.56006 0.65918,0.94483 1.03271,2.3291 0.37354,1.38428 0.37354,3.2959 l 0,14.89746 z m -9.93164,-3.60351 q 1.77978,0 3.14209,-0.7251 1.38428,-0.7251 2.30713,-1.73584 l 0,-3.51563 q -0.9668,-0.50537 -2.26319,-0.81298 -1.29638,-0.30762 -2.65869,-0.30762 -1.05468,0 -1.97754,0.19775 -0.92285,0.19776 -1.62597,0.63721 -0.68115,0.41748 -1.07666,1.09863 -0.39551,0.65918 -0.39551,1.60401 0,1.64795 1.14258,2.61474 1.16455,0.94483 3.40576,0.94483 z"
           style=""
           id="path4183" />
        <path
           d="m 857.75336,813.5332 0,-30.27832 4.68017,-2.21924 0,32.49756 -4.68017,0 z"
           style=""
           id="path4185" />
        <path
           d="m 876.05658,814.08252 q -1.36231,0 -2.35107,-0.41748 -0.9668,-0.39551 -1.60401,-1.14258 -0.61523,-0.74707 -0.90088,-1.80176 -0.28564,-1.07666 -0.28564,-2.37304 l 0,-13.75489 -3.55957,0 0,-4.06494 3.55957,0 0,-7.229 4.68017,-2.26319 0,9.49219 5.44922,0 0,4.06494 -5.44922,0 0,12.54639 q 0,0.57129 0.0879,1.05469 0.10987,0.4834 0.35157,0.83496 0.26367,0.35156 0.70312,0.54931 0.43946,0.17579 1.12061,0.17579 1.66992,0 3.40576,-1.07666 l -0.57129,4.35058 q -0.9668,0.4834 -2.10937,0.76904 -1.14258,0.28565 -2.52686,0.28565 z"
           style=""
           id="path4187" />
        <path
           d="m 886.49359,813.5332 0,-23.00537 4.68018,0 0,23.00537 -4.68018,0 z m 2.3291,-26.58691 q -0.59326,0 -1.1206,-0.21973 -0.50537,-0.21972 -0.90088,-0.59326 -0.37354,-0.39551 -0.59326,-0.90088 -0.21973,-0.52734 -0.21973,-1.1206 0,-0.59327 0.21973,-1.09864 0.21972,-0.52734 0.59326,-0.90088 0.39551,-0.3955 0.90088,-0.61523 0.52734,-0.21973 1.1206,-0.21973 0.59326,0 1.09864,0.21973 0.52734,0.21973 0.90087,0.61523 0.39551,0.37354 0.61524,0.90088 0.21973,0.50537 0.21973,1.09864 0,0.59326 -0.21973,1.1206 -0.21973,0.50537 -0.61524,0.90088 -0.37353,0.37354 -0.90087,0.59326 -0.50538,0.21973 -1.09864,0.21973 z"
           style=""
           id="path4189" />
        <path
           d="m 924.94574,813.5332 0,-13.77685 q 0,-2.5708 -1.05469,-3.95508 -1.05469,-1.38428 -3.16406,-1.38428 -0.94482,0 -1.77979,0.35156 -0.83496,0.35157 -1.47216,1.05469 -0.61524,0.70313 -0.98877,1.75781 -0.35157,1.03272 -0.35157,2.417 l 0,13.53515 -4.68017,0 0,-13.77685 q 0,-2.5708 -1.07666,-3.95508 -1.05469,-1.38428 -3.16406,-1.38428 -0.94483,0 -1.77979,0.35156 -0.81299,0.35157 -1.45019,1.05469 -0.61524,0.70313 -0.98877,1.75781 -0.35157,1.03272 -0.35157,2.417 l 0,13.53515 -4.68017,0 0,-23.00537 4.68017,0 0,2.13135 q 0.98877,-1.42822 2.50489,-2.04346 1.51611,-0.61523 3.29589,-0.61523 1.88965,0 3.49366,0.76904 1.62597,0.74707 2.61474,2.50488 1.09864,-1.69189 2.8125,-2.48291 1.71387,-0.79101 3.99903,-0.79101 1.75781,0 3.25195,0.50537 1.51611,0.50537 2.61475,1.56006 1.1206,1.05469 1.75781,2.70263 0.63721,1.64795 0.63721,3.91114 l 0,14.85351 -4.68018,0 z"
           style=""
           id="path4191" />
        <path
           d="m 945.55609,814.08252 q -2.41699,0 -4.37256,-0.81299 -1.93359,-0.81299 -3.2959,-2.35107 -1.3623,-1.56006 -2.10937,-3.7793 -0.7251,-2.24121 -0.7251,-5.07568 0,-2.83448 0.7251,-5.07569 0.74707,-2.24121 2.10937,-3.77929 1.36231,-1.56006 3.2959,-2.37305 1.95557,-0.83496 4.37256,-0.83496 2.39502,0 4.35059,0.83496 1.95556,0.81299 3.31787,2.37305 1.3623,1.53808 2.10937,3.77929 0.74707,2.24121 0.74707,5.07569 0,2.83447 -0.74707,5.07568 -0.74707,2.21924 -2.10937,3.7793 -1.36231,1.53808 -3.31787,2.35107 -1.95557,0.81299 -4.35059,0.81299 z m 0,-4.4165 q 1.34033,0 2.41699,-0.52735 1.09864,-0.52734 1.84571,-1.49414 0.76904,-0.98877 1.16455,-2.39502 0.41748,-1.40625 0.41748,-3.18603 0,-1.77979 -0.41748,-3.18604 -0.39551,-1.42822 -1.16455,-2.41699 -0.74707,-0.98877 -1.84571,-1.51611 -1.07666,-0.52735 -2.41699,-0.52735 -1.34033,0 -2.41699,0.52735 -1.07666,0.52734 -1.8457,1.51611 -0.74707,0.98877 -1.16455,2.41699 -0.39551,1.40625 -0.39551,3.18604 0,1.77978 0.39551,3.18603 0.41748,1.40625 1.16455,2.39502 0.76904,0.9668 1.8457,1.49414 1.07666,0.52735 2.41699,0.52735 z"
           style=""
           id="path4193" />
        <path
           d="m 961.68402,813.5332 0,-23.00537 4.68018,0 0,2.79053 q 0.81299,-1.75781 2.10937,-2.52686 1.29639,-0.79101 3.01026,-0.79101 2.28515,0 3.86718,1.38428 l -0.68115,4.32861 q -0.63721,-0.43945 -1.51611,-0.76904 -0.85694,-0.35157 -2.10938,-0.35157 -0.79101,0 -1.62597,0.28565 -0.81299,0.26367 -1.49414,0.96679 -0.68116,0.68116 -1.12061,1.84571 -0.43945,1.14258 -0.43945,2.92236 l 0,12.91992 -4.68018,0 z"
           style=""
           id="path4195" />
        <path
           d="m 989.19379,814.08252 q -2.39502,0 -4.32862,-0.81299 -1.93359,-0.83496 -3.2959,-2.37305 -1.3623,-1.56005 -2.10937,-3.80127 -0.7251,-2.24121 -0.7251,-5.07568 0,-2.83447 0.74707,-5.05371 0.74707,-2.24121 2.10938,-3.7793 1.38427,-1.56006 3.2959,-2.37304 1.93359,-0.81299 4.30664,-0.81299 2.04345,0 3.82324,0.65918 1.80176,0.6372 3.14209,1.97754 1.3623,1.31836 2.13135,3.33984 0.79101,2.02149 0.79101,4.76807 0,0.74707 -0.0439,1.58203 -0.022,0.83496 -0.13184,1.45019 l -15.49072,0 q 0.022,1.42823 0.50537,2.5708 0.50537,1.12061 1.31836,1.9336 0.81299,0.79101 1.8457,1.23047 1.03272,0.41748 2.15332,0.41748 1.42822,0 2.63672,-0.59326 1.23047,-0.59327 2.13135,-1.73584 l 3.0542,3.14209 q -1.25244,1.49414 -3.20801,2.41699 -1.95557,0.92285 -4.6582,0.92285 z m 0,-19.95117 q -1.09864,0 -2.10938,0.32959 -1.01074,0.30761 -1.80176,1.01074 -0.76904,0.68115 -1.27441,1.80176 -0.50537,1.1206 -0.59326,2.72461 l 10.98633,0 q -0.0439,-1.60401 -0.50537,-2.72461 -0.46143,-1.12061 -1.2085,-1.80176 -0.74707,-0.70313 -1.66992,-1.01074 -0.90088,-0.32959 -1.82373,-0.32959 z"
           style=""
           id="path4197" />
      </g>
    </g>
  </g>
</svg>
