<?xml version="1.0" encoding="UTF-8" standalone="no"?>
<!-- Created with Inkscape (http://www.inkscape.org/) -->

<svg
   xmlns:dc="http://purl.org/dc/elements/1.1/"
   xmlns:cc="http://creativecommons.org/ns#"
   xmlns:rdf="http://www.w3.org/1999/02/22-rdf-syntax-ns#"
   xmlns:svg="http://www.w3.org/2000/svg"
   xmlns="http://www.w3.org/2000/svg"
   xmlns:sodipodi="http://sodipodi.sourceforge.net/DTD/sodipodi-0.dtd"
   xmlns:inkscape="http://www.inkscape.org/namespaces/inkscape"
   width="4902.7544"
   height="1725.0219"
   viewBox="0 0 4902.7545 1725.0219"
   id="svg2"
   version="1.1"
   inkscape:version="0.92.4 (5da689c313, 2019-01-14)"
   sodipodi:docname="CDG.svg"
   inkscape:export-filename="C:\Users\paulb\Dropbox\Projects\Terminal Silhouettes\Silhouettes\png\CDG.png"
   inkscape:export-xdpi="89.996498"
   inkscape:export-ydpi="89.996498">
  <defs
     id="defs4" />
  <sodipodi:namedview
     id="base"
     pagecolor="#ffffff"
     bordercolor="#666666"
     borderopacity="1.0"
     inkscape:pageopacity="1"
     inkscape:pageshadow="2"
     inkscape:zoom="0.25"
     inkscape:cx="1806.466"
     inkscape:cy="1219.9621"
     inkscape:document-units="px"
     inkscape:current-layer="layer6"
     showgrid="false"
     units="px"
     fit-margin-top="25"
     fit-margin-left="25"
     fit-margin-right="25"
     fit-margin-bottom="25"
     inkscape:window-width="1920"
     inkscape:window-height="1137"
     inkscape:window-x="1912"
     inkscape:window-y="-8"
     inkscape:window-maximized="1"
     showguides="true"
     inkscape:guide-bbox="true" />
  <metadata
     id="metadata7">
    <rdf:RDF>
      <cc:Work
         rdf:about="">
        <dc:format>image/svg+xml</dc:format>
        <dc:type
           rdf:resource="http://purl.org/dc/dcmitype/StillImage" />
        <dc:title />
        <dc:description>Terminal silhouette of CDG (Paris-Charles de Gaulle)</dc:description>
      </cc:Work>
    </rdf:RDF>
  </metadata>
  <g
     inkscape:groupmode="layer"
     id="layer2"
     inkscape:label="Terminals"
     transform="translate(-1752.3773,-615.13327)">
    <g
       inkscape:groupmode="layer"
       id="layer5"
       inkscape:label="T3" />
    <g
       inkscape:groupmode="layer"
       id="layer4"
       inkscape:label="T2"
       style="display:inline;opacity:1" />
    <g
       inkscape:groupmode="layer"
       id="layer3"
       inkscape:label="T1"
       style="display:inline">
      <g
         id="g5278"
         transform="matrix(0.61565,0,0,0.61565,1615.713,567.93254)"
         style="fill:#dddddd;fill-opacity:1;stroke:#222222;stroke-opacity:1;stroke-width:2.43644928;stroke-miterlimit:4;stroke-dasharray:none">
        <path
           id="path5206"
           d="m 2780.5215,462.37109 -130.4629,14.31836 -0.5293,-3.88867 -21.9199,2.47461 11.666,95.63672 21.7441,-3.00586 4.5957,41.89648 130.461,-14.49609 -15.5547,-132.93555 z M 2626.25,646.5 l -56,7 4.7402,42.5957 a 22.432098,22.432098 0 0 1 0.7598,-0.0273 22.432098,22.432098 0 0 1 22.4316,22.43164 22.432098,22.432098 0 0 1 -18.248,22.02148 l 2.5703,23.09961 A 22.432098,22.432098 0 0 1 2584,763.56836 22.432098,22.432098 0 0 1 2606.4316,786 22.432098,22.432098 0 0 1 2587.459,808.14844 l 2.3887,21.46094 a 22.432098,22.432098 0 0 1 1.1523,-0.041 22.432098,22.432098 0 0 1 22.4316,22.43164 22.432098,22.432098 0 0 1 -18.6328,22.10742 l 2.5039,22.50391 a 22.432098,22.432098 0 0 1 1.1973,-0.043 22.432098,22.432098 0 0 1 22.4316,22.43164 22.432098,22.432098 0 0 1 -18.6757,22.11328 L 2607,983.75 l 56.25,-7 -8.2676,-73.80273 8.7696,-0.80469 2.9668,26.38867 70.0312,-7.03125 8.5,71.75 95,-11.5 -33.5,-290.5 -96.5,10.25 -1.5,-13.5 -18.75,2.25 -2.25,-19.5 -49.4004,5.46094 10.5566,93.89844 -8.7187,0.80078 L 2626.25,646.5 Z m 26.3164,156.1582 1.9727,17.55078 -8.7383,0.80274 -1.9649,-17.55078 8.7305,-0.80274 z m 5.6328,50.10157 1.8926,16.83203 -8.7578,0.80468 -1.8848,-16.83203 8.75,-0.80468 z m 59.2559,80.18945 -49.7207,4.61719 5.4824,48.76953 49.498,-4.24219 -5.2597,-49.14453 z"
           style="fill:#dddddd;fill-opacity:1;fill-rule:evenodd;stroke:#222222;stroke-width:2.43644928;stroke-linecap:butt;stroke-linejoin:miter;stroke-opacity:1;stroke-miterlimit:4;stroke-dasharray:none"
           inkscape:connector-curvature="0" />
        <path
           inkscape:connector-curvature="0"
           id="path4196"
           d="m 6525.0039,1531.3398 -51.4414,4.9493 -0.1758,-1.5918 -63.2871,6.3652 0.707,7.248 53.3868,-5.6582 1.9472,18.2696 -7.3906,0.8281 9.7871,87.3672 -54.9023,6.1152 1.0156,9.1133 54.9082,-6.1152 12.0937,107.9492 -54.582,6.0801 1.0156,9.1132 54.5879,-6.08 12.045,107.5215 -54.92,6.1171 1.0137,9.1133 54.9277,-6.1172 13.1641,117.5118 -149.5391,16.6972 20.8594,184.9082 149.3106,-17.4355 1.3476,12.0273 -54.668,6.0899 1.0137,9.1132 54.6758,-6.0898 12.25,109.3457 -54.5039,6.0703 1.0137,9.1133 54.5097,-6.0723 12.0469,107.5235 -54.8437,6.1093 1.0156,9.1133 54.8476,-6.1093 12.211,108.996 -54.6387,6.086 1.0156,9.1133 54.6446,-6.086 11.7753,105.1153 -54.3535,6.0546 1.0137,9.1133 54.3613,-6.0527 6.8496,61.1367 10.6836,-1.1582 3.1973,33.3379 114.5,-13.25 -1,-6.75 -56,6.5 -3.0547,-26.0859 3.4453,-0.3731 -11.2734,-100.0937 65.9746,-7.3477 -1.0156,-9.1133 -65.9864,7.3496 -15.0449,-133.5683 65.8828,-7.3379 -1.0156,-9.1133 -65.8945,7.3398 -15.0625,-133.7246 65.5527,-7.3007 -1.0156,-9.1133 -65.5645,7.3008 -17.5195,-155.543 63.9277,-7.4649 -20.5078,-183.4941 -64.123,7.1602 -7.4453,-66.0938 65.123,-7.2519 -1.0156,-9.1153 -65.1328,7.2539 -15.041,-133.5312 64.9394,-7.2324 -1.0156,-9.1133 -64.9512,7.2324 -15.0976,-134.0391 64.6933,-7.205 -1.0156,-9.1133 -64.7051,7.207 -9.7637,-86.6855 -2.3515,0.2636 -2.4219,-22.7129 z m -766.3398,65.586 -7.5567,0.6816 0.9512,8.3399 -14.3438,1.7304 0.6407,5.6641 14.3711,-1.5352 3.2734,28.6934 -9.0625,0.7617 0.3047,2.6778 -5.3672,0.5605 47.875,423.8203 -14.7617,1.1621 L 5774.5,2063 c -25.4999,2.7501 -57.8945,4.1484 -57.8945,4.1484 -159.0991,4.9498 -336.0528,-10.6054 -336.0528,-10.6054 -38.5373,-3.0052 -83.3027,-15.793 -83.3027,-15.793 l 0.057,-10.9395 c -43.5729,-8.8505 -86.1741,-15.0521 -127.5586,-19.0507 1.2291,-13.2702 2.1857,-25.8284 2.9122,-37.7286 l 6.8203,0.5333 41.164,-2.8711 c 0,0 6.1561,0.2088 7.1446,-4.92 0,0 0.9481,-5.2995 -3.6914,-7.3086 l -32.9415,-14.5019 34.4024,-8.1582 c 0,0 5.8675,-2.0854 5.1738,-6.6426 0,0 0.8829,-4.0162 -5.3066,-5.666 l -35.5469,-10.0859 39.6191,-24.793 c 0,0 6.001,-2.2978 4.127,-8.0332 0,0 -0.4291,-4.9808 -7.3848,-4.457 l -35.2265,6.1699 43.1386,-42.4844 c 0,0 4.9764,-5.1448 0.1622,-9.4727 0,0 -3.8336,-4.0104 -9.1172,-0.9707 l -32.5352,19.3379 45.5352,-57.1933 c 0,0 3.3464,-5.1311 -1.1758,-8.9825 0,0 -3.6606,-4.0502 -9.8828,1.2032 l -44.0957,38.3496 11.4804,-71.8008 c 0,0 0.3772,-6.9821 -5.4004,-7.6387 0,0 -6.7709,-0.2455 -7.9042,5.8243 l -12.4297,52.0585 -6.2188,1.5625 c -3.9726,-14.3418 -7.4082,-20.2578 -7.4082,-20.2578 l -15.2031,-1.0605 c -4.2715,5.5189 -8.1542,12.4974 -11.6895,20.5371 l -7.3418,-2.8945 -5.5996,-53.2286 c -0.3397,-6.1652 -7.0859,-6.7968 -7.0859,-6.7968 -5.8141,-0.095 -6.3418,6.8789 -6.3418,6.8789 l 2.1094,72.6816 -38.7735,-43.7265 c -5.4914,-6.0132 -9.6445,-2.4688 -9.6445,-2.4688 -4.9819,3.2347 -2.3262,8.7559 -2.3262,8.7559 l 37.7656,62.5957 -29.7656,-23.3789 c -4.8467,-3.6967 -9.166,-0.2149 -9.166,-0.2149 -5.3329,3.6697 -1.0625,9.416 -1.0625,9.416 l 37.2891,47.6993 -34.1328,-10.668 c -6.8298,-1.418 -7.8985,3.4648 -7.8985,3.4648 -2.5992,5.4452 3.0528,8.5 3.0528,8.5 l 36.0839,29.7012 -36.5507,5.4102 c -6.3507,0.8366 -5.9942,4.9336 -5.9942,4.9336 -1.2766,4.4293 4.2715,7.2558 4.2715,7.2558 l 33.0606,12.5332 -34.5372,10.125 c -4.8603,1.3931 -4.6054,6.7715 -4.6054,6.7715 0.3177,5.2134 6.4472,5.8008 6.4472,5.8008 l 40.4493,8.164 8.3339,0.4297 c -1.3289,16.6829 -2.0625,29.935 -2.3808,36.7071 -147.2932,-5.279 -275.8054,15.877 -373.0488,40.9726 -3.625,-12.755 -7.2471,-24.7542 -10.8497,-36.084 l 6.1778,-1.7715 37.5605,-17.0898 c 0,0 5.8387,-1.9569 4.9707,-7.1074 0,0 -0.9664,-5.2974 -6.0156,-5.5567 l -35.9316,-2.0625 29.375,-19.6757 c 0,0 4.7674,-4.0066 2.5234,-8.0332 0,0 -0.5775,-4.0727 -6.9531,-3.4532 l -36.8282,2.9864 28.4434,-37.084 c 0,0 4.8166,-4.2532 1.0547,-8.9707 0,0 -2.1455,-4.5157 -8.4785,-1.5918 l -30.8418,18.1035 25.5527,-54.8906 c 0,0 2.8619,-6.5613 -3.1621,-8.9317 0,0 -4.9946,-2.4166 -8.8808,2.2793 l -23.7149,29.4981 22.6504,-69.5098 c 0,0 1.3415,-5.978 -4.2422,-8.0039 0,0 -4.8465,-2.514 -8.8379,4.584 l -27.8965,51.3535 -14.3593,-71.2793 c 0,0 -2.0902,-6.6754 -7.7325,-5.2695 0,0 -6.4288,2.14 -5.3671,8.2226 l 6.5664,53.1172 -6.3262,4.3594 c -11.8051,-16.2219 -19.0977,-21.416 -19.0977,-21.416 l -8.4863,2.1211 c -2.0131,9.2523 -3.1551,19.2993 -3.6094,29.8437 l -8.0566,-0.1465 -23.8652,-47.9062 c -2.4749,-5.6569 -9.0157,-3.8887 -9.0157,-3.8887 -5.4801,1.9445 -3.5351,8.6621 -3.5351,8.6621 l 27.4004,67.3516 -51.6192,-27.4004 c -7.2479,-3.7124 -9.9004,1.0605 -9.9004,1.0605 -3.5356,4.773 0.8848,9.0157 0.8848,9.0157 l 57.2754,45.4316 -36.0625,-11.4902 c -5.8337,-1.7678 -8.6621,3.0058 -8.6621,3.0058 -3.7123,5.3033 2.2988,9.1914 2.2988,9.1914 l 51.6172,31.6446 -35.709,1.9433 c -6.8943,1.0607 -6.1855,6.0098 -6.1855,6.0098 -0.5303,6.0104 5.832,6.8945 5.832,6.8945 l 44.1953,15.2031 -32.3496,17.8555 c -5.6569,3.0052 -3.8906,6.7168 -3.8906,6.7168 0.3535,4.5962 6.541,5.3027 6.541,5.3027 l 35.3555,0.1778 -28.8145,21.5664 c -4.0659,3.0052 -1.9453,7.9551 -1.9453,7.9551 2.1213,4.7729 8.0703,3.1777 8.0703,3.1777 l 40.75,-6.5 6.6406,-2.0977 c 5.0156,17.1378 9.1874,29.5536 10.8125,34.2735 -75.6156,24.5602 -119,46.873 -119,46.873 l 3.1719,7.1504 a 35.355339,35.355339 0 0 0 -21.3613,32.4238 35.355339,35.355339 0 0 0 35.3535,35.3555 35.355339,35.355339 0 0 0 14.6445,-3.2226 l 0.4688,1.0586 -29.6055,10.0605 -1.625,-5.125 c -93.2604,27.9924 -181.1668,45.5302 -259.1934,56.3184 L 4233,1929 l -81,9.5 21.5352,189.5371 -28.7852,2.9629 14.5957,129.9414 c -133.6545,9.8174 -218.6836,0.061 -218.6836,0.061 l -0.4101,6.5996 -13.7442,-0.3575 27.2891,-76.7265 13.1601,5.414 2.336,-5.7441 -1.9317,-0.8242 22.8418,-55.4805 -9.3691,-4.1543 -23.7461,55.2578 -2.4336,-1.0371 -0.4785,1.0039 -35.4805,-12.4863 -0.9629,2.7402 -15.2754,-4.6367 0.6094,-2.6094 -11.8516,-2.8125 13.8711,-59.4629 -10.3418,-2.4746 -14.2304,59.3985 -13.8907,-3.2969 -0.7382,3.2793 -14.9746,-2.5957 0.33,-2.8945 -37.0664,-4.2852 -0.2988,2.8106 -1.3555,-0.09 3.293,-63.6387 -10.1641,-0.6191 -3.623,63.5508 -3.7754,-0.2539 0,-3.0762 -37.1543,0 -0.012,3.418 -14.9649,0.6562 -0.3535,-3.3535 -13.2871,1.4609 -6.3535,-60.6816 -10.25,1 5.75,60.875 -13.4902,1.4824 0.3964,3.3067 -15.3554,2.3711 -0.7012,-3.0684 -36.6484,8.4219 0.834,3.5801 -1.9668,0.5507 -17.5137,-61.3261 -9.5449,3.0058 17.5,60.9883 -3.0645,0.8555 -1.0156,-2.9649 -35.5508,12.1856 1.2949,3.5957 -14.3164,5.7636 -1.6601,-3.4902 -11.6778,5.7832 -26.2695,-54.416 -9.75,4.5 26.1738,54.793 -11.8125,5.8476 1.4024,2.9473 -14.041,7.709 -1.3457,-2.1289 -31.0274,19.4316 41.6914,67.0781 -5.2344,3.4434 -3.9257,-6.3242 c -28.2112,18.6553 -57.2118,27.0601 -83.2559,30.0215 l 0,-7.043 a 17.75,17.75 0 0 0 13.75,-17.2754 17.75,17.75 0 0 0 -17.75,-17.75 17.75,17.75 0 0 0 -16.3926,10.9844 l -8.2695,-1.8672 7.6621,-32.3672 -17.5,-4.5 -7.5,35.5 -16,-3.5 -3.5,17.75 32.25,6.5 3.6797,-15.5449 8.0859,1.7402 A 17.75,17.75 0 0 0 3440,2304.5 a 17.75,17.75 0 0 0 17.75,17.75 17.75,17.75 0 0 0 0.5,-0.025 l 0,6.9609 c -49.3557,4.7501 -87.2324,-9.6972 -87.2324,-9.6972 l -2.0781,6.3847 -6.8047,-2.3339 16.2871,-47.7793 6.1445,2.2832 6.2754,-19.3555 c -23.1974,-9.1435 -45.8537,-16.1828 -67.8809,-21.4414 l 15.0743,-60.6602 -9.6055,-2.3867 -15.1211,60.8477 c -23.141,-5.0228 -45.5566,-8.0924 -67.1328,-9.5625 l 3.043,-62.5918 -9.8887,-0.4805 -3.0371,62.5098 c -23.9908,-1.113 -46.8883,-0.2705 -68.5489,1.9941 l -6.1562,-61.7832 -9.8496,0.9824 6.1699,61.9317 c -24.1967,3.0578 -46.7437,7.8591 -67.418,13.6445 l -16.0156,-59.9883 -9.5644,2.5547 16.0683,60.1914 c -24.0402,7.2679 -45.3104,15.7701 -63.4531,24.2012 l -26.4551,-56.1035 -8.9531,4.2226 26.4726,56.1387 c -21.5339,10.5593 -37.8965,20.6271 -48.3632,27.6172 l -33.5723,-50.9609 -8.2676,5.4453 33.6992,51.1543 c -3.3303,2.3991 -5.2187,3.8769 -5.2187,3.8769 l 10.6074,16.086 3.2324,-1.6875 26.6465,42.4667 -4.6875,2.8965 -3.791,-6.0527 c -65.1251,43.5 -136.625,29.25 -136.625,29.25 l -5.75,38.5 c 98.75,13.75 163.3652,-34.2441 163.3652,-34.2441 l -3.3203,-5.2989 4.8633,-2.6504 8.5918,13.693 31.9727,-21.1875 35.7089,-16.9707 37.4766,-13.4356 38.8906,-8.4843 39.2461,-5.3047 39.5977,-0.3535 38.5371,4.9492 38.8906,9.1933 L 3348,2365 l 5.2773,-15.4785 7.1114,2.6055 -3.0449,9.3554 c 119.0929,39.7324 211.8593,-23.7031 211.8593,-23.7031 l -6.875,-11.0781 5.3242,-3.2012 8.6661,13.957 32.9316,-19.707 35.25,-17.5 37.5,-13.25 38.25,-8.5 39.25,-4.75 39,-0.25 40,4.75 38,8.75 38.0801,13.7793 5.5351,-15.5605 18.9922,0.7871 -0.3574,5.7441 c 77.4176,6.1047 153.2989,4.8139 223.9805,-0.668 l 3.1933,28.4258 c -68.6459,12.7758 -88.039,29.7774 -88.039,29.7774 26.2086,8.5093 62.1486,9.8844 92.3964,9.0293 l 3.545,31.5546 c -70.2646,10.5722 -145.6567,26.2998 -219.3262,49.6309 l 2.25,6.5 -17,4 -10.25,-14.75 -34,21 -35.5,17.5 -37,13.25 -38.75,8.5 -38.75,4.5 -40.25,0 -39,-4.5 -37.75,-8.75 -39,-13.75 -1.25,4.25 c 0,0 -109.5,-48.75 -222,26 l -2.75,-4 -34.25,21.5 -35.25,17 -37.25,13 -38.5,8.75 -38.75,4.25 -39.5,0 -39.5,-4 -39.25,-9 -36.7266,-13.082 -5.6504,15.6972 -4.248,-1.2402 1.875,-5.625 c 0,0 -80.75,-33.5 -167.25,2.25 l 14,36.25 c 0,0 53.25,-29 135.5,-4 l 8.9277,3.4746 -12,33.3399 c 0,0 -90.6326,-40.9414 -156.8105,22.121 -7.8407,-6.2674 -17.5794,-9.6828 -27.6172,-9.6855 -15.4359,0.022 -29.7448,8.0861 -37.7578,21.2793 l -35.4863,-15.9512 c 0,0 -7.222,-3.5591 -9.4454,2.9356 0,0 -2.6412,5.5533 4.6231,8.7617 l 35.5879,14.9473 c -1.164,3.989 -1.7604,8.122 -1.7715,12.2773 0.016,5.0311 0.8899,10.0225 2.584,14.7598 L 2735,2707.5 c 0,0 -7.25,3.5 -3.5,9.25 0,0 2.75,5.5 9.75,1.75 l 33.666,-18.834 c 4.4819,6.4686 10.6077,11.6249 17.7461,14.9375 l -12.0391,38.086 c 0,0 -2.697,7.5857 4.0118,9.041 0,0 5.8216,1.9798 8.166,-5.6075 l 11.0019,-38.0527 c 2.4588,0.4363 4.9501,0.6637 7.4473,0.6797 24.4386,0 44.25,-19.8114 44.25,-44.25 -0.01,-9.1549 -2.8602,-18.0813 -8.1562,-25.5488 8.5288,-8.1038 61.9498,-54.0792 144.1035,-19.3809 l -2.4082,6.6934 -8.7891,-3.7637 -4.25,8 c 0,0 0.8742,0.4258 1.4473,0.709 l -22.8262,55.25 8.9375,3.6933 22.6992,-54.9394 c 12.2686,5.268 35.1158,13.9983 66.1113,21.2187 l -12.8769,59.836 9.4551,2.0351 12.8613,-59.7656 c 19.9633,4.2074 42.8939,7.636 68.1855,9.1621 l -2.9003,62.0196 9.6601,0.4531 2.9004,-61.9942 c 21.9358,0.869 45.521,0.2504 70.416,-2.5488 l 5.0723,62.8828 9.6386,-0.7773 -5.1035,-63.2696 c 21.1131,-2.8208 43.1053,-7.232 65.7774,-13.6543 l 17.4101,60.9512 9.2989,-2.6543 -17.4317,-61.0312 c 20.8981,-6.3787 42.3382,-14.4804 64.1641,-24.625 l 26.5332,56.6465 8.7578,-4.1016 -26.5625,-56.707 c 19.0519,-9.2915 38.3761,-20.1456 57.875,-32.7891 l 8.75,-5.5 15.25,22.25 c 0,0 4.25,6.25 5,12.75 l 1,6.75 c 0,0 0,7 8.5,7.25 l 27,1 c 0,0 4.75,-0.25 8,-1 l 25,-7.25 c 0,0 5.25,-2.25 5,-7 l -0.5,-14 c 0,0 -0.25,-6.75 2.5,-13.75 l 9.3066,-21.5566 12.4551,4.2089 -4.4785,13.2774 36.6094,11.9199 1.5722,-4.4238 5.8692,1.6972 -18.4395,67.7188 5.127,1.4141 18.9336,-67.5079 3.2676,0.9434 -1.1407,4.8066 37.4258,9.0254 0.9785,-4.4824 14.4825,2.2617 -0.5977,4.752 18.043,2.1172 -7.0703,63.9941 5.8339,0.707 6.92,-64.0332 15.5058,1.8184 0.5625,-5.4785 14.9219,0.7031 0.037,4.4473 38.2129,-0.375 -0.045,-3.8633 5.0859,-0.2383 4.1211,70.0215 6,-0.375 -4.1348,-69.9277 2.9082,-0.1368 0.4844,4.4415 38.5567,-3.7715 -0.668,-5.7227 14.1855,-2.3828 1.2735,5.7617 17.709,-3.8847 13.9023,63.6269 6.3633,-1.4141 -13.9551,-63.5957 14.0469,-3.082 -1.4551,-6.1328 14.2012,-4.334 2.2715,6.3027 35.6445,-12.8574 -2.1778,-6.0683 5.5176,-2.334 27.2246,66.4687 5.3028,-2.4746 -27.1289,-66.2773 3.4687,-1.4668 3.0039,6.125 33.7637,-16.5371 -2.3379,-4.7832 13.5098,-7.5469 2.9941,4.7168 14.0918,-8.9824 34.6484,54.623 4.9493,-3.3594 -34.8418,-54.2968 14.9375,-9.5196 -48.3301,-76.3672 12.7265,-2.4746 1.5918,4.7735 c 0,0 79.5617,-28.2723 212.4649,-48.5801 l 2.6133,23.2578 c -55.4966,8.0305 -106.0762,21.2129 -106.0762,21.2129 22.5,93 112.25,93.25 112.25,93.25 l 35.8711,-4.2715 20.8789,183.7715 80.25,-8.75 -20.7793,-184.5898 26.5293,-3.1602 C 4486,2519 4470.5,2423.5 4470.5,2423.5 c -72.75,0 -155.25,5.5 -155.25,5.5 l -25.8984,0.5879 -2.5625,-22.7598 c 63.289,-5.6192 134.0689,-8.5109 210.7109,-6.3281 0,0 27,0.75 73.75,5.5 l 0.5,-5 11.25,1.5 c 0,0 -23,14.75 -23,39 0,0 -0.5,20 10.25,25.75 l -1.75,11.5 c 0,0 8.2724,2.2182 23.6426,5.3242 l -11.5039,80.7012 -21.6856,-2.9531 -0.5937,-5.3555 -210.0059,24.041 14.4961,123.3906 209.3027,-22.9804 -12.1855,-109.9375 79.0078,11.6504 1.0606,-10.6075 55.33,7.2481 10.291,-79.6719 c 56.6531,4.677 128.4182,6.4803 210.8301,-0.4355 l 1.3516,20.0195 -127.3379,14.3164 11.75,107.75 53.6562,-6.0078 2.8418,16.2305 c -56.9663,8.7373 -115.6563,19.5821 -175.3652,32.9589 l -7.4922,-34.6582 -4.7363,1.0235 7.5019,34.6992 c -59.6037,13.4751 -120.2021,29.4793 -181.1035,48.4551 l 2.0254,7.1679 c 0,0 -8.5975,24.958 10.7871,38.17 l 1.8125,6.4101 c 0,0 22.7406,-7.4009 63.7676,-18.3906 l 7.0859,27.7812 5.3282,-1.3593 -7.0977,-27.8321 c 28.6013,-7.5838 65.3215,-16.6987 109.0996,-26.2597 l 5.7481,26.5879 4.7363,-1.0235 -5.7519,-26.6015 c 33.1024,-7.1692 70.0737,-14.5479 110.3554,-21.6602 l 5.209,34.0059 5.4375,-0.8321 -5.2266,-34.123 c 34.4772,-6.0221 71.3156,-11.8354 110.2266,-17.1484 l 2.7578,28.3339 5.4746,-0.5332 -2.7773,-28.5293 c 35.3788,-4.7647 72.4207,-9.1031 110.8926,-12.8086 l 2.414,28.6075 5.4805,-0.4629 -2.4199,-28.6778 c 36.0977,-3.4074 73.4305,-6.2452 111.8008,-8.3418 l 1.0957,30.2813 5.496,-0.1992 -1.0996,-30.375 c 36.267,-1.9094 73.4406,-3.1531 111.3672,-3.5762 l 0,28.1094 4.8438,0 0,-28.166 c 36.8655,-0.3428 74.4292,0.093 112.5351,1.4375 l -1.1347,27.9843 4.8906,0.1973 1.1348,-28 c 36.6931,1.368 73.8817,3.584 111.4335,6.7695 l -1.7382,27.4082 4.8769,0.3086 1.7324,-27.2968 c 14.4201,1.2544 28.889,2.6432 43.4063,4.1914 l 0.793,-7.5899 c 0,0 14.7419,-18.3595 3.998,-38.3496 l 0.9238,-8.8535 c 0,0 -16.1708,-2.0401 -45.6269,-4.4766 l 1.8105,-28.539 -4.8769,-0.3086 -1.8047,28.4511 c -27.6422,-2.2145 -65.8226,-4.6744 -112.7168,-6.2128 l 1.1172,-27.5547 -4.8906,-0.1993 -1.1192,27.6075 c -34.0694,-1.0576 -72.5437,-1.6119 -114.7441,-1.2422 l 0,-35.6602 -4.8438,0 0,35.711 c -53.2726,0.5531 -112.2553,2.5747 -175.6933,6.9609 l -0.7246,-16.7988 29.5937,-3.3145 -0.3769,-3.8633 -2.627,0.2266 -6.375,-58.625 3.2402,-0.5371 -0.4004,-4.0781 -14.7148,1.7402 -1.5,-10 71.5,-13 -5,-26 -158.9941,17.877 -3.0215,-20.3809 c 101.5653,-15.6025 214.7702,-45.1146 332.8789,-97.1387 l -4.6387,-10.959 c 0,0 17.7754,-15.1484 9.5254,-33.6484 0,0 -12.8472,-28.8437 -41.4238,-37.1719 l -12.541,-27.8437 c 0,0 -118.7633,58.3835 -296.0118,86.5019 l -8.0839,-70.4375 68.2089,-7.3808 -11.4902,-98.4649 -68.0527,7.0703 -8.4785,-73.8867 C 5146.404,2112.792 5274,2146 5274,2146 l 5.8828,-29.3242 C 5313.7652,2082.8521 5367.5,2090 5367.5,2090 c 266.7365,19.488 409.8496,11.502 409.8496,11.502 l -0.4785,-7.0118 15.7812,-0.4843 77.7872,688.6191 6.0605,-0.5 3.082,27.1445 -6.0722,0.5469 0.4941,4.3613 15.7207,-1.4043 1.3731,12.0391 8.5019,-0.6484 -1.3945,-12.1485 21.5625,-1.9258 3.1074,27.3672 58.625,-6.957 -2.3984,-20.9844 29.3457,-3.3027 0.4941,4.5176 10.209,-1.2735 -4.1641,-37.0215 -10.0449,1.17 3.0137,28.0976 -29.3809,3.2012 -12.2539,-107.166 28.9356,-3.2559 0.4941,4.5176 10.209,-1.2734 -4.9141,-43.3965 -10.0449,1.1699 0.3359,3.0684 -29.1308,3.1738 -12.6172,-110.3399 29.1621,-3.2832 0.4941,4.5176 10.209,-1.2734 -4.914,-43.3965 -10.045,1.1699 0.336,3.0684 -29.3594,3.1992 -12.5781,-110.0117 29.2402,-3.291 0.4942,4.5175 10.2089,-1.2734 -4.914,-43.3965 -10.0449,1.1699 0.3359,3.0684 -29.4375,3.207 -14.3516,-125.5136 34.8184,-4.1973 -5.0938,-43.0938 8.9844,-1.1015 -8.4863,-71.0625 -8.8945,1.1113 -4.8946,-41.418 -34.209,4.3008 -4.8691,-42.5801 29.3418,-3.3027 0.4941,4.5176 10.209,-1.2735 -4.914,-43.3964 -10.045,1.1699 0.336,3.0683 -29.5391,3.2188 -6.9785,-61.0352 29.4766,-3.3183 0.4941,4.5176 10.209,-1.2735 -4.9141,-43.3965 -10.0449,1.17 0.3359,3.0683 -29.6718,3.2324 -8.9434,-78.2031 29.4531,-3.3144 0.4942,4.5175 10.2089,-1.2734 -4.914,-43.3965 -10.0449,1.1699 0.3359,3.0684 -29.6484,3.2305 -8.7559,-76.5703 29.7734,-3.3516 0.4942,4.5176 10.209,-1.2735 -4.9141,-43.3965 -10.0449,1.17 0.3359,3.0683 -29.9687,3.2657 -8.6875,-75.9727 -57.7871,5.918 2.5117,22.1113 -23.0235,2.2715 -4.9882,-43.4375 z m 28.5195,45.6387 3.4805,30.6347 -22.9805,2.2676 -1.0801,-9.4004 -7.6094,0.6875 -1.0898,-9.5625 7.5996,-0.707 -1.3379,-11.6504 23.0176,-2.2695 z m 3.9883,35.1074 3.4375,30.2715 -22.9375,2.2617 -3.4746,-30.2676 22.9746,-2.2656 z m 89.9277,9.6074 2.9356,26.8945 -29.8086,3.2481 -3.0606,-26.7735 29.9336,-3.3691 z m -85.9824,25.1348 3.2773,28.8652 -22.8945,2.2578 -3.3145,-28.8613 22.9317,-2.2617 z m 3.7851,33.3379 3.4375,30.2714 -22.8515,2.252 -3.4746,-30.2656 22.8886,-2.2578 z m -687.9804,0.6191 4.832,51.2441 c 0.6469,3.8269 3.5664,5.1055 3.5664,5.1055 l 7.209,2.6914 c -2.7844,6.831 -5.3418,14.3298 -7.6855,22.3027 l -8.9278,-2.8437 -3.1933,-78.3691 4.1992,-0.1309 z m 74.5117,3.8418 4.1484,0.6719 -13.291,77.3007 -7.8301,1.4141 c -1.5049,-9.206 -3.1433,-16.8601 -4.7441,-23.1777 l 6.1113,-1.416 c 0,0 3.0595,-0.8924 4.1953,-4.6036 l 11.4102,-50.1894 z m -123.7715,27.0156 41.8613,48.086 c 2.0932,2.4799 5.1153,3.9863 5.1153,3.9863 l 8.9453,2.8398 c -1.9387,6.9591 -3.7194,14.2412 -5.3652,21.709 l -9.7344,-2.5039 -44.4199,-72.0645 3.5976,-2.0527 z m 741.1856,3.2656 3.4785,30.6368 -22.8067,2.248 -3.5175,-30.6309 22.8457,-2.2539 z m -572.5528,6.6817 3.3028,2.5 -53.3575,65.7226 -8.3691,1.0274 c -0.7873,-8.1922 -1.7066,-15.604 -2.709,-22.2754 l 7.8223,-1.4063 c 0,0 3.1919,-1.1041 5.5879,-3.2929 l 47.7226,-42.2754 z m -582.5215,9.5527 14.5899,77.0664 -7.7969,4.6328 c -4.5693,-7.8385 -8.8117,-14.4419 -12.6406,-19.9316 l 6.2734,-4.1563 c 0,0 2.5545,-1.9053 2.3203,-5.7793 l -6.8672,-51.0097 4.1211,-0.8223 z m 1245.877,3.1563 2.9355,26.8945 -29.4882,3.2129 -3.0606,-26.7734 29.6133,-3.334 z m -86.8164,15.7168 3.4375,30.2714 -22.7617,2.2461 -3.4766,-30.2675 22.8008,-2.25 z m -1108.2227,0.8828 3.9668,1.1875 -26.9961,80.2343 -8.2324,4.2813 c -3.6463,-7.304 -7.1496,-13.8486 -10.5,-19.7656 l 7.7578,-4.5996 c 0,0 2.605,-2.1505 4.084,-5.0391 l 29.9199,-56.2988 z m -126.1054,3.5312 22.4511,46.3145 c 1.9446,3.3588 5.127,3.5371 5.127,3.5371 l 7.9062,0 c -0.1882,7.6574 -0.038,15.549 0.4063,23.5801 l -9.3731,0.4609 -30.4062,-72.3027 3.8887,-1.5899 z m 486.2207,3.4805 37.2011,29.7402 c 4.6392,3.2418 6.2735,2.9082 6.2735,2.9082 l 9.0351,2.2598 c -1.6039,7.6094 -3.0766,15.3747 -4.4101,23.1934 l -9.5567,-1.6309 -41.9726,-52.8457 3.4297,-3.625 z m 168.5019,9.9375 2.9336,4.0391 -48.4473,46.9804 -7.8945,0.3125 c -0.3754,-8.4815 -0.8788,-16.4135 -1.5078,-23.6914 l 7.5879,-0.8789 c 0,0 1.5785,0.5414 6.5976,-2.0742 l 40.7305,-24.6875 z m 583.5508,16.9121 3.3672,29.6582 -22.7188,2.2402 -3.4043,-29.6543 22.7559,-2.2441 z m -1098.8594,10.5469 4.1582,2.7578 -28.9511,60.959 -7.7891,3.2656 c -3.3998,-7.7774 -6.7106,-14.8876 -9.9356,-21.5 l 7.5391,-3.8574 c 0,0 1.668,-0.044 5.4551,-4.25 l 29.5234,-37.375 z m -174.7695,5.2617 56.0391,30.4062 c 2.8284,1.591 6.1875,1.9434 6.1875,1.9434 l 9.3027,-0.4648 c 0.5013,7.3518 1.2343,14.7982 2.1445,22.2617 l -9.5039,1.0078 -66.8223,-51.9727 2.6524,-3.1816 z m 516.5742,5.1016 41.543,13.0586 10.8281,1.7167 c -1.2442,7.5815 -2.3801,15.1717 -3.3965,22.6641 l -9.2187,-0.8945 -41.3047,-33.916 1.5488,-2.6289 z m 172.2949,10.1836 1.1953,2.8085 -45.3398,28.295 -7.3828,-0.2422 c -0.038,-8.1239 -0.2041,-15.785 -0.4727,-23.0254 l 9.1172,-0.252 42.8828,-7.5839 z m 588.6348,3.0351 3.2773,28.8652 -22.6757,2.2364 -3.3145,-28.8614 22.7129,-2.2402 z m 2181.2207,11.6504 -124.5,40.5 -29.25,-25.25 L 7754,2008 l 6.4961,6.293 1.4141,-1.5918 2.6523,2.4765 1.2383,0 18.7383,-19.8007 9.7226,-0.1758 15.7324,15.0254 4.9493,0 8.8398,-9.7227 5.4805,5.6582 14.1406,-15.7344 8.8398,-2.4746 1.9454,14.4961 12.5371,-1.3672 2.3984,21.5938 a 6.7175145,6.7175145 0 0 0 -0.4922,0.9863 l -88.6894,26.8691 -1.7696,-8.6621 -26.5117,2.8614 -0.7109,-6.5723 -19.4512,1.7168 0.8555,6.9395 -39.8692,4.3007 4.5137,45.6348 7.3301,-0.7168 0.2969,2.6621 -2.2149,0.2461 0.5918,5.1836 2.1973,-0.248 0.4394,3.9492 -2.1836,0.248 4.0547,35.4317 2.0606,-0.2364 0.3593,3.2383 -2.0507,0.2324 4.0312,35.2168 1.9297,-0.2168 0.4277,3.8496 -1.9179,0.2149 1.6211,14.166 31.6757,-3.4219 -1.5722,-14.3008 -2.3946,0.2676 -0.4316,-3.8496 2.4043,-0.2695 -3.875,-35.2695 -2.4844,0.2832 -0.3672,-3.2774 2.4903,-0.2851 -3.8868,-35.3946 -2.5742,0.291 -0.4414,-3.9375 2.5821,-0.289 -0.2832,-2.584 4.6464,-0.6445 -2.7402,-25.3672 133.8203,-40.6504 a 6.7175145,6.7175145 0 0 0 4.3301,1.584 6.7175145,6.7175145 0 0 0 5.3516,-2.6719 l 158.5214,10.625 1.4141,15.9102 -8.6523,1.0039 0.4921,4.5976 -2.291,0.2539 0.4922,4.7676 2.3086,-0.2598 0.4082,3.8086 -2.3242,0.2617 3.5957,34.8985 2.4609,-0.2832 0.3965,3.6992 -2.4765,0.2812 3.6699,35.6036 2.6172,-0.293 0.414,3.873 -2.6328,0.295 1.5977,15.5 32.1797,-3.4766 -1.6231,-15.627 -2.5058,0.2793 -0.4278,-3.873 2.5313,-0.2832 -3.7012,-35.6348 -2.7695,0.3125 -0.4121,-3.7343 2.7929,-0.3204 -3.6172,-34.8379 -3.0273,0.3418 -0.4199,-3.7968 3.0527,-0.3418 -0.4902,-4.7246 -12.7774,1.4199 -0.6445,-4.5547 7.125,-0.75 -2.625,-24 2.6895,-0.2305 -2.1719,-19.6328 -11.2676,1.3633 2,19.375 -163.875,-10.125 -2.0195,-22.0469 164.8925,-17.9785 -0.623,-3.9746 16.625,-1.625 0.6152,3.7891 75.8809,-8.2735 -2.1231,-19.2656 10.877,-1 -0.75,-8.375 -11.0215,1.252 -2.289,-20.7696 -121.1895,13.0176 -13.25,-40.5 z m -3268.2969,10.1641 2.1035,2.2129 -32.5781,42.3671 -7.2578,2.4414 c -2.9583,-7.5605 -5.8685,-14.61 -8.7344,-21.291 l 8.9473,-3.6269 37.5195,-22.1035 z m -176.9922,4.2363 45.2539,14.8496 c 5.4801,1.4142 6.8946,0.5293 6.8946,0.5293 l 8.6933,-0.9805 c 1.0307,7.8273 2.2314,15.6533 3.5879,23.3907 l -8.5683,1.6328 -57.8067,-34.8262 1.9453,-4.5957 z m 542.5079,1.8476 9.0312,0.6954 c -1.0583,8.0907 -1.9923,16.0215 -2.8125,23.666 l -10.0137,-1.0586 -40.1816,-15.1914 1.2383,-3.3125 42.7383,-4.7989 z m 813.6386,1.711 2.9356,26.8945 -29.5118,3.2168 -3.0605,-26.7754 29.6367,-3.3359 z m -732.2519,2.664 7.1875,0.379 41.7617,10.2792 0.7988,3.4454 -41.8066,9.873 -8.3008,-0.2012 c 0.2387,-8.3151 0.3521,-16.229 0.3594,-23.7754 z m 643.959,1.0645 3.4375,30.2715 -22.6309,2.2324 -3.4766,-30.2676 22.67,-2.2363 z m -728.1817,22.373 8.5742,1.0723 c -0.8651,8.381 -1.5954,16.3467 -2.207,23.7051 l -7.6777,-0.5469 -40.752,-8.6133 0.3047,-3.8476 41.7578,-11.7696 z m 83.7168,4.8516 6.9141,0.035 39.8867,17.0644 -0.1953,3.8574 -41.5215,3.2754 -6.1563,-0.3593 c 0.4755,-8.3076 0.8159,-16.2218 1.0723,-23.8731 z m -432.7422,5.2207 1.9531,2.9473 -35.7128,23.875 -7.7852,2.6933 c -2.7716,-7.84 -5.5181,-15.2596 -8.2344,-22.3183 l 7.0606,-2.2188 42.7187,-4.9785 z m 1081.1524,2.2969 3.4785,30.6367 -22.586,2.2266 -3.5175,-30.6309 22.625,-2.2324 z m -1206.5625,0.1894 c 1.3981,7.6512 2.9095,15.2012 4.5058,22.5508 l -7.6933,2.0528 -50.5586,-17.3243 0.5312,-3.0058 43.4864,-2.2988 9.7285,-1.9747 z m 5.4687,26.8848 c 1.7907,8.0175 3.6506,15.7642 5.5254,23.1445 l -8.3476,2.1504 -42.9571,-0.1758 0,-3.5371 38.3594,-19.4453 7.4199,-2.1367 z m 86.2676,2.0586 43.3359,2.0352 1.166,3.6796 -37.7519,17.5938 -5.5391,1.709 c -2.5447,-7.9005 -5.078,-15.4463 -7.5937,-22.6719 l 6.3828,-2.3457 z m 1118.8125,5.9746 3.4375,30.2715 -22.541,2.2246 -3.4766,-30.2676 22.5801,-2.2285 z m -1198.4375,19.4922 c 2.1475,8.2756 4.2818,15.9951 6.3086,23.0371 l -6.0508,1.7793 -41.1894,6.1875 -1.0606,-3.7129 35.002,-25.6328 6.9902,-1.6582 z m 1289.7598,3.9785 2.9355,26.8945 -29.3769,3.2012 -3.0625,-26.7754 29.5039,-3.3203 z m -87.377,11.2734 3.9922,35.1465 -30.3613,3.2696 -3.0879,-27.0762 7.8867,-0.7188 -0.9649,-8.3984 22.5352,-2.2227 z m -938.0703,110.2305 8.9101,80.1934 -3.6796,0.5273 -0.9551,-8.3008 -17.6621,2.2774 11.8437,105.0039 17.9219,-2.0879 -1.0059,-8.75 3.3379,-0.4473 8.5235,76.7051 c -99.0012,9.4551 -211.4038,7.6734 -328.9434,-17.5137 l -4.9492,30.4063 -12.0215,-1.4141 1.4141,-13.082 c 0,0 -37.8297,-5.3026 -77.7813,-6.7168 0,0 -89.2969,-3.9349 -213.7969,7.3066 l -3.4335,-30.5078 c 70.248,-13.1299 86.0626,-29.125 86.0624,-29.125 -23.5334,-8.2542 -59.7972,-9.6137 -90.3437,-8.8945 l -3.291,-29.2324 c 169.0664,-24.0648 287.7344,-65.4649 287.7344,-65.4649 L 4558.75,2209 l 8.7383,-2.8828 8.5683,19.3183 c 109.7925,-52.2186 218.4535,-79.7091 316.1895,-92.7988 z m 968.0742,153.9824 4.1485,36.5254 -22.1563,2.1856 -4.1563,-36.1973 22.1641,-2.5137 z m 4.6563,40.9981 3.4375,30.2715 -22.1114,2.1797 -3.4765,-30.2676 22.1504,-2.1836 z m 3.9453,34.7422 3.4804,30.6367 -22.0683,2.1758 -3.5176,-30.6309 22.1055,-2.1816 z m 89.7832,8.3379 2.9355,26.8945 -29.2754,3.1894 -3.0625,-26.7753 29.4024,-3.3086 z m -85.7949,26.7695 3.4375,30.2715 -22.0254,2.1719 -3.4766,-30.2657 22.0645,-2.1777 z m 3.9453,34.7441 3.2793,28.8633 -21.9844,2.1699 -3.3145,-28.8613 22.0196,-2.1719 z m 3.7871,33.336 3.4375,30.2715 -21.9395,2.164 -3.4765,-30.2676 21.9785,-2.1679 z m 3.9453,34.7441 3.4785,30.6348 -21.8945,2.1601 -3.5176,-30.6328 21.9336,-2.1621 z m 90.7344,16.4238 2.9355,26.8946 -29.1973,3.1816 -3.0625,-26.7754 29.3243,-3.3008 z m -86.7481,18.6836 3.4375,30.2715 -21.8496,2.1543 -3.4766,-30.2676 21.8887,-2.1582 z m 3.9453,34.7422 3.3672,29.6582 -21.8066,2.1504 -3.4063,-29.6543 21.8457,-2.1543 z m 3.875,34.1309 3.2774,28.8652 -21.7637,2.1465 -3.3144,-28.8633 21.8007,-2.1484 z m -852.2129,9.8867 0.625,15.0684 c -5.7173,0.4948 -11.4552,1.0027 -17.2324,1.5371 l -2.1504,-14.5039 18.7578,-2.1016 z m -119.0371,13.3301 0.9766,14.4902 c -5.5222,0.7093 -11.0716,1.4454 -16.6328,2.1934 l -2.3164,-14.6719 17.9726,-2.0117 z m 975.0352,10.1191 3.4375,30.2715 -21.7188,2.1426 -3.4765,-30.2695 21.7578,-2.1446 z m -3165.5488,2.0645 c 0.4507,-0.045 0.8066,0.1328 0.8066,0.1328 l 36.0098,15.4844 c -0.4931,1.0142 -0.9472,2.0468 -1.3614,3.0957 l -36.0996,-15.4629 c -1.2621,-0.6004 -0.7285,-2.0489 -0.7285,-2.0489 0.3765,-0.8888 0.9223,-1.1564 1.3731,-1.2011 z m 3257.1972,23.4062 2.9356,26.8946 -28.9707,3.1562 -3.0606,-26.7754 29.0957,-3.2754 z m -87.7031,9.2735 3.4785,30.6347 -21.6738,2.1387 -3.5176,-30.6328 21.7129,-2.1406 z m -3132.9121,20.875 c 0.4791,1.0207 0.9971,2.0227 1.5527,3.0039 l -34.4531,18.957 c -1.25,0.625 -2.0625,-0.6875 -2.0625,-0.6875 -0.9375,-1.6875 0.5,-2.375 0.5,-2.375 l 34.4629,-18.8984 z m 3136.8984,14.2324 3.4375,30.2715 -21.6289,2.1328 -3.4765,-30.2695 21.6679,-2.1348 z m -3111.4941,8.7461 c 1.0631,0.373 2.14,0.7053 3.2285,0.9961 l -11.4629,38.6308 c -0.45,1.3231 -1.9512,0.959 -1.9512,0.959 -1.8529,-0.5417 -1.3125,-2.041 -1.3125,-2.041 l 11.4981,-38.5449 z m 3115.4394,25.9961 3.5586,31.3359 -21.6035,1.9649 -3.5801,-31.168 21.625,-2.1328 z m 4.1641,36.6523 3.0469,26.8438 -21.5645,1.9414 -3.1015,-27.0039 21.6191,-1.7813 z"
           style="display:inline;opacity:1;fill:#dddddd;fill-opacity:1;stroke:#222222;stroke-width:2.43644928;stroke-linejoin:miter;stroke-miterlimit:4;stroke-dasharray:none;stroke-dashoffset:0;stroke-opacity:1" />
        <path
           inkscape:connector-curvature="0"
           id="path4149"
           d="m 713,118.5 -117.5,13 34.83594,69.3418 24.62109,-2.72852 5.45313,48.40234 a 319.07248,319.07248 0 0 1 15.6914,-2.07031 l -5.22851,-48.0957 24.09179,-2.66992 L 713,118.5 Z m 183.50977,43.45117 -18.6875,75.25586 21.07226,14.09766 -26.63672,39.33789 a 319.07248,319.07248 0 0 1 13.37305,8.83984 l 26.65625,-39.21875 19.33008,12.92969 62.37304,-46.08789 -97.48046,-65.1543 z M 427.5,216 346.5,300.75 418,332 434.97461,314.23633 c 0,0 15.5016,14.51154 34.85937,32.66406 a 319.07248,319.07248 0 0 1 10.21485,-10.81055 L 445.59375,303.12305 462.58398,285.3418 427.5,216 Z m 262.86133,159.63672 a 187.07248,187.07248 0 0 0 -15.19922,1.8457 l 3.5957,31.92188 a 155.84396,155.84396 0 0 0 -79.75195,40.5 l -23.66211,-22.63868 a 187.07248,187.07248 0 0 0 -9.56836,10.13477 c 8.99131,8.56745 17.28566,16.50229 23.5918,22.625 a 155.84396,155.84396 0 0 0 -37.22266,81.96484 l -32.78711,-1.97265 a 187.07248,187.07248 0 0 0 -1.07031,14.58203 l 32.61719,1.70312 a 155.84396,155.84396 0 0 0 -0.32032,6.41211 155.84396,155.84396 0 0 0 24.05664,83.06836 l -26,18.86133 a 187.07248,187.07248 0 0 0 8.55274,11.96094 l 25.75195,-18.98242 a 155.84396,155.84396 0 0 0 123.48242,60.93554 155.84396,155.84396 0 0 0 140.75,-89.37304 l 27.06446,12.05078 a 187.07248,187.07248 0 0 0 5.53906,-13.13867 l -27.23633,-11.74805 a 155.84396,155.84396 0 0 0 9.72852,-53.63477 155.84396,155.84396 0 0 0 -5.63867,-41.50781 l 28.82226,-8.21484 a 187.07248,187.07248 0 0 0 -4.69141,-14.43555 l -28.78124,8.59961 A 155.84396,155.84396 0 0 0 794.22461,433.9668 l 17.36523,-25.55078 a 187.07248,187.07248 0 0 0 -13.41211,-8.36719 l -17.41406,25.71679 a 155.84396,155.84396 0 0 0 -74.33594,-18.89453 155.84396,155.84396 0 0 0 -12.60742,0.58203 l -3.45898,-31.8164 z m 415.24997,4.50781 -61.5175,45.57422 6.4648,22.10547 -43.3106,12.9414 a 319.07248,319.07248 0 0 1 4.8848,16.11915 l 43.3145,-12.34571 6.8164,23.3086 77.6933,4.92773 -34.3457,-112.63086 z M 271.25,474.25 263.75,591.5 338,570 l 1.41602,-24.74023 47.0039,2.45507 a 319.07248,319.07248 0 0 1 1.19141,-15.6289 l -47.27735,-2.84571 1.41797,-24.7539 L 271.25,474.25 Z m 779.3086,201.36328 -9.6094,21.99805 -39.8066,-17.16992 a 319.07248,319.07248 0 0 1 -6.4551,14.42578 l 39.7324,17.6914 -10.0937,23.10938 56.5371,52.57812 46.4668,-107.58203 -76.7715,-5.05078 z m -608.90235,66.63867 -35.36719,25.6543 -14.5664,-19.51172 L 318.25,770.25 387.5,864.75 430.25,800 415.89258,780.76953 451.16797,754.76562 a 319.07248,319.07248 0 0 1 -9.51172,-12.51367 z"
           style="fill:#dddddd;fill-opacity:1;stroke:#222222;stroke-width:2.43644928;stroke-linejoin:miter;stroke-miterlimit:4;stroke-dasharray:none;stroke-dashoffset:0;stroke-opacity:1" />
      </g>
    </g>
  </g>
  <g
     inkscape:groupmode="layer"
     id="layer6"
     inkscape:label="Label">
    <g
       id="g5294"
       transform="translate(-149.97313,446.04965)">
      <g
         style="font-style:normal;font-variant:normal;font-weight:bold;font-stretch:normal;font-size:125px;line-height:125%;font-family:Overpass;-inkscape-font-specification:'Overpass, Bold';text-align:start;letter-spacing:0px;word-spacing:0px;writing-mode:lr-tb;text-anchor:start;fill:#dddddd;fill-opacity:1;stroke:#222222;stroke-width:0.25;stroke-linecap:butt;stroke-linejoin:miter;stroke-miterlimit:4;stroke-dasharray:none;stroke-opacity:1"
         id="text5284">
        <path
           d="m 211.73808,1206.1696 q -6.83593,0 -12.20703,-1.8311 -5.37109,-1.8311 -9.46045,-5.0659 -4.08935,-3.2349 -6.95801,-7.5684 -2.86865,-4.3335 -4.6997,-9.3384 -1.77002,-5.0659 -2.62451,-10.498 -0.79346,-5.4321 -0.79346,-10.8643 0,-5.0048 0.85449,-10.2539 0.85449,-5.31 2.62451,-10.3149 1.83106,-5.0049 4.69971,-9.4605 2.92969,-4.4555 6.95801,-7.8125 4.08935,-3.3569 9.46045,-5.31 5.37109,-1.9531 12.14599,-1.9531 6.28662,0 11.41358,1.7089 5.12695,1.709 9.0332,4.5166 3.90625,2.7466 6.5918,6.2867 2.74658,3.54 4.21142,7.2021 l -15.13672,6.897 q -1.58691,-2.4414 -3.23486,-4.3945 -1.64795,-1.9532 -3.54004,-3.2349 -1.89209,-1.3428 -4.21142,-2.0142 -2.2583,-0.7324 -5.12696,-0.7324 -3.66211,0 -6.53076,1.2817 -2.86865,1.2208 -5.00488,3.357 -2.13623,2.1362 -3.60108,5.0049 -1.46484,2.8686 -2.38037,6.1035 -0.91552,3.1738 -1.34277,6.5918 -0.36621,3.3569 -0.36621,6.5307 0,5.127 1.09863,10.2539 1.09863,5.127 3.41797,9.2774 2.31934,4.1504 5.92041,6.7749 3.66211,2.5635 8.78906,2.5635 2.68555,0 4.94385,-0.7935 2.2583,-0.8545 4.15039,-2.3193 1.95313,-1.4649 3.60108,-3.5401 1.70898,-2.0752 3.17382,-4.5776 l 15.50293,5.8594 q -2.07519,4.8218 -5.00488,8.8501 -2.92969,3.9673 -6.83594,6.8359 -3.84521,2.8076 -8.72802,4.3945 -4.88282,1.587 -10.80323,1.587 z"
           style=""
           id="path5301" />
        <path
           d="m 260.62724,1117.2413 29.54102,0 q 7.62939,0 13.73291,1.7701 6.10351,1.7089 10.80322,4.7607 4.76074,3.0518 8.11768,7.2632 3.35693,4.1504 5.49316,9.0332 2.19727,4.8218 3.17383,10.1929 1.0376,5.371 1.0376,10.7421 0,5.0049 -0.97657,10.2539 -0.91552,5.188 -2.99072,10.0708 -2.07519,4.8218 -5.43213,9.0943 -3.2959,4.2724 -8.11767,7.5073 -4.76074,3.1738 -11.04737,5.0049 -6.28662,1.831 -14.34326,1.831 l -28.9917,0 0,-87.5244 z m 31.00586,71.5332 q 6.53076,0 10.98633,-2.5024 4.45557,-2.5635 7.20215,-6.5308 2.74658,-4.0283 3.96728,-8.9721 1.22071,-4.9439 1.22071,-9.7657 0,-5.1269 -1.28174,-10.0708 -1.28174,-5.0048 -3.96729,-8.9111 -2.62451,-3.9062 -6.83593,-6.2866 -4.15039,-2.4414 -9.8877,-2.4414 l -15.50293,0 0,55.4809 14.09912,0 z"
           style=""
           id="path5303" />
        <path
           d="m 387.33623,1206.2916 q -6.7749,0 -12.26807,-1.77 -5.49316,-1.77 -9.76562,-4.8828 -4.27246,-3.1128 -7.38526,-7.3853 -3.11279,-4.3335 -5.12695,-9.3383 -2.01416,-5.0049 -2.99072,-10.5591 -0.97657,-5.6153 -0.97657,-11.3526 0,-5.31 0.97657,-10.7421 1.03759,-5.4322 3.11279,-10.4371 2.13623,-5.0659 5.24902,-9.4604 3.17383,-4.3945 7.44629,-7.6294 4.3335,-3.2349 9.70459,-5.0659 5.43213,-1.8921 12.02393,-1.8921 6.34765,0 11.16943,1.5869 4.88281,1.5869 8.60596,4.2114 3.78418,2.5635 6.53076,5.9815 2.80762,3.3569 5.06592,6.958 l -14.89258,8.4839 q -1.46484,-2.1973 -3.17383,-4.1504 -1.70898,-2.0142 -3.72314,-3.5401 -1.95313,-1.5258 -4.3335,-2.3803 -2.38037,-0.9156 -5.24902,-0.9156 -4.08936,0 -7.20215,1.2818 -3.11279,1.2207 -5.49317,3.4179 -2.31933,2.1363 -3.90625,5.0049 -1.58691,2.8687 -2.56347,6.1035 -0.97656,3.2349 -1.40381,6.6529 -0.42725,3.3569 -0.42725,6.5307 0,5.5542 1.15967,10.8033 1.15967,5.188 3.66211,9.2773 2.56348,4.0283 6.53076,6.4697 4.02832,2.4414 9.64356,2.4414 3.17383,0 5.92041,-1.0986 2.80761,-1.1597 4.88281,-3.0518 2.0752,-1.9531 3.23486,-4.5776 1.22071,-2.6245 1.22071,-5.6152 l 0,-0.7324 -14.89258,0 0,-16.0523 32.10449,0 0,12.8784 q 0,8.4229 -2.50244,14.8926 -2.50244,6.4087 -6.89697,10.8032 -4.3335,4.3335 -10.25391,6.5918 -5.92041,2.2583 -12.81738,2.2583 z"
           style=""
           id="path5305" />
      </g>
      <g
         style="font-style:normal;font-variant:normal;font-weight:normal;font-stretch:normal;font-size:45px;line-height:125%;font-family:Overpass;-inkscape-font-specification:'Overpass, Normal';text-align:start;letter-spacing:0px;word-spacing:0px;writing-mode:lr-tb;text-anchor:start;fill:#222222;fill-opacity:1;stroke:none;stroke-width:1px;stroke-linecap:butt;stroke-linejoin:miter;stroke-opacity:1"
         id="text5288">
        <path
           d="m 174.86992,1253.9143 0,-31.5088 12.65625,0 q 2.90039,0 4.87793,0.857 1.99951,0.8349 3.20801,2.1972 1.23047,1.3623 1.75781,3.0982 0.54932,1.7138 0.54932,3.4936 0,1.0986 -0.26368,2.2412 -0.2417,1.1426 -0.76904,2.2193 -0.52734,1.0547 -1.3623,1.9995 -0.83497,0.9448 -1.99952,1.6479 -1.14257,0.7031 -2.63671,1.1206 -1.49415,0.3955 -3.36182,0.3955 l -7.97608,0 0,12.2388 -4.68017,0 z m 12.91992,-16.7432 q 1.47217,0 2.46094,-0.4614 1.01074,-0.4614 1.62597,-1.1865 0.63721,-0.7471 0.90088,-1.648 0.28565,-0.9228 0.28565,-1.8237 0,-0.8349 -0.2417,-1.7358 -0.2417,-0.9009 -0.83496,-1.648 -0.59326,-0.769 -1.62598,-1.2524 -1.01074,-0.5054 -2.5708,-0.5054 l -8.23975,0 0,10.2612 8.23975,0 z"
           style=""
           id="path5308" />
        <path
           d="m 220.74883,1253.9143 -4.48243,0 0,-1.9775 q -0.43945,0.4614 -1.05468,0.9228 -0.61524,0.4395 -1.40625,0.813 -0.76905,0.3516 -1.73584,0.5713 -0.9668,0.2197 -2.10938,0.2197 -1.75781,0 -3.25195,-0.4834 -1.49414,-0.4834 -2.59278,-1.4502 -1.09863,-0.9887 -1.73584,-2.417 -0.61523,-1.4502 -0.61523,-3.3618 0,-1.9775 0.74707,-3.4057 0.74707,-1.4502 1.97754,-2.3731 1.23047,-0.9448 2.8125,-1.3843 1.604,-0.4394 3.2959,-0.4394 1.58203,0 3.03222,0.3515 1.47217,0.3296 2.63672,1.0108 l 0,-1.2744 q 0,-1.2964 -0.30761,-2.1973 -0.28565,-0.9009 -0.90088,-1.4502 -0.59326,-0.5713 -1.51612,-0.813 -0.92285,-0.2636 -2.19726,-0.2636 -2.15332,0 -3.73535,0.5712 -1.56006,0.5713 -2.83448,1.5162 l -1.38427,-3.8453 q 0.70312,-0.4834 1.604,-0.9008 0.90088,-0.4395 1.97754,-0.7691 1.07666,-0.3296 2.3291,-0.5054 1.25244,-0.1977 2.68067,-0.1977 0.96679,0 1.99951,0.1099 1.03271,0.1098 1.99951,0.4394 0.98877,0.3076 1.8457,0.9009 0.87891,0.5932 1.51612,1.56 0.65917,0.9449 1.03271,2.3291 0.37354,1.3843 0.37354,3.2959 l 0,14.8975 z m -9.93165,-3.6035 q 1.77979,0 3.14209,-0.7251 1.38428,-0.7251 2.30713,-1.7358 l 0,-3.5157 q -0.96679,-0.5053 -2.26318,-0.813 -1.29639,-0.3076 -2.65869,-0.3076 -1.05469,0 -1.97754,0.1978 -0.92285,0.1977 -1.62598,0.6372 -0.68115,0.4175 -1.07666,1.0986 -0.39551,0.6592 -0.39551,1.604 0,1.648 1.14258,2.6148 1.16455,0.9448 3.40576,0.9448 z"
           style=""
           id="path5310" />
        <path
           d="m 227.1209,1253.9143 0,-23.0054 4.68017,0 0,2.7906 q 0.81299,-1.7578 2.10938,-2.5269 1.29638,-0.791 3.01025,-0.791 2.28516,0 3.86719,1.3843 l -0.68115,4.3286 q -0.63721,-0.4395 -1.51612,-0.7691 -0.85693,-0.3515 -2.10937,-0.3515 -0.79102,0 -1.62598,0.2856 -0.81299,0.2637 -1.49414,0.9668 -0.68115,0.6812 -1.12061,1.8457 -0.43945,1.1426 -0.43945,2.9224 l 0,12.9199 -4.68017,0 z"
           style=""
           id="path5312" />
        <path
           d="m 245.3582,1253.9143 0,-23.0054 4.68018,0 0,23.0054 -4.68018,0 z m 2.3291,-26.5869 q -0.59326,0 -1.1206,-0.2197 -0.50537,-0.2198 -0.90088,-0.5933 -0.37354,-0.3955 -0.59326,-0.9009 -0.21973,-0.5273 -0.21973,-1.1206 0,-0.5932 0.21973,-1.0986 0.21972,-0.5274 0.59326,-0.9009 0.39551,-0.3955 0.90088,-0.6152 0.52734,-0.2198 1.1206,-0.2198 0.59326,0 1.09863,0.2198 0.52735,0.2197 0.90088,0.6152 0.39551,0.3735 0.61524,0.9009 0.21972,0.5054 0.21972,1.0986 0,0.5933 -0.21972,1.1206 -0.21973,0.5054 -0.61524,0.9009 -0.37353,0.3735 -0.90088,0.5933 -0.50537,0.2197 -1.09863,0.2197 z"
           style=""
           id="path5314" />
        <path
           d="m 263.92509,1254.4636 q -1.3623,0 -2.65869,-0.2636 -1.29638,-0.2637 -2.43896,-0.7471 -1.12061,-0.4834 -2.04346,-1.1646 -0.92285,-0.7031 -1.53808,-1.56 l 3.31787,-2.8345 q 0.35156,0.3296 0.85693,0.7471 0.50537,0.3955 1.16455,0.747 0.65918,0.3516 1.47217,0.5933 0.81299,0.2417 1.77978,0.2417 0.87891,0 1.62598,-0.1318 0.74707,-0.1319 1.27441,-0.4175 0.54932,-0.2857 0.83497,-0.7471 0.30761,-0.4834 0.30761,-1.1865 0,-0.813 -0.57129,-1.3843 -0.54931,-0.5932 -1.45019,-1.0547 -0.90088,-0.4834 -2.04346,-0.9009 -1.14258,-0.4394 -2.30713,-0.9228 -1.07666,-0.4614 -2.10937,-1.0107 -1.03272,-0.5494 -1.84571,-1.3184 -0.79101,-0.769 -1.29638,-1.8237 -0.4834,-1.0767 -0.4834,-2.5928 0,-1.5381 0.61523,-2.7246 0.63721,-1.1865 1.71387,-1.9776 1.09863,-0.8129 2.54883,-1.2304 1.47217,-0.4175 3.14209,-0.4175 1.47217,0 2.70264,0.2856 1.25244,0.2857 2.24121,0.7691 1.01074,0.4834 1.77978,1.1206 0.76904,0.6152 1.34033,1.2964 l -3.38379,2.6806 q -0.30761,-0.3076 -0.74707,-0.6372 -0.41748,-0.3515 -0.98877,-0.6372 -0.57128,-0.2856 -1.29638,-0.4614 -0.7251,-0.1978 -1.64795,-0.1978 -1.49414,0 -2.37305,0.5494 -0.85693,0.5493 -0.85693,1.582 0,0.6592 0.46142,1.1645 0.46143,0.4834 1.25245,0.9009 0.79101,0.4175 1.80175,0.813 1.03272,0.3735 2.15332,0.813 1.18653,0.4614 2.32911,1.0327 1.14257,0.5713 2.02148,1.4063 0.90088,0.8349 1.42822,2.0214 0.54932,1.1866 0.54932,2.8565 0,1.6479 -0.61524,2.9224 -0.61523,1.2524 -1.75781,2.1093 -1.1206,0.835 -2.72461,1.2525 -1.58203,0.4394 -3.5376,0.4394 z"
           style=""
           id="path5316" />
        <path
           d="m 277.04277,1243.0159 0,-4.043 17.77588,0 0,4.043 -17.77588,0 z"
           style=""
           id="path5318" />
        <path
           d="m 313.14384,1254.4636 q -2.43896,0 -4.37255,-0.6592 -1.91163,-0.6811 -3.36182,-1.8237 -1.4502,-1.1645 -2.48291,-2.7246 -1.01074,-1.582 -1.64795,-3.3838 -0.63721,-1.8237 -0.94482,-3.7793 -0.28565,-1.9775 -0.28565,-3.9331 0,-1.8017 0.28565,-3.7134 0.30761,-1.9116 0.94482,-3.7133 0.65918,-1.8238 1.69189,-3.4278 1.03272,-1.604 2.48291,-2.8125 1.4502,-1.2085 3.36182,-1.9116 1.91162,-0.7031 4.32861,-0.7031 2.21924,0 3.99903,0.5493 1.77978,0.5273 3.09814,1.4062 1.34033,0.8789 2.24121,1.9996 0.90088,1.1206 1.38428,2.2851 l -4.28467,1.9995 q -0.57129,-0.9009 -1.20849,-1.582 -0.61524,-0.7031 -1.38428,-1.1865 -0.74707,-0.4834 -1.6919,-0.7251 -0.94482,-0.2417 -2.15332,-0.2417 -1.58203,0 -2.8125,0.5053 -1.20849,0.5054 -2.13134,1.3843 -0.90088,0.8789 -1.53809,2.0435 -0.63721,1.1645 -1.03271,2.4829 -0.37354,1.2964 -0.54932,2.6806 -0.17578,1.3843 -0.17578,2.6807 0,2.0874 0.46142,4.1968 0.4834,2.1094 1.49414,3.8013 1.01075,1.6919 2.57081,2.7465 1.56005,1.0547 3.71337,1.0547 1.16456,0 2.08741,-0.2856 0.94482,-0.3076 1.71386,-0.835 0.79102,-0.5493 1.40625,-1.2964 0.63721,-0.747 1.18653,-1.6479 l 4.37256,1.6699 q -0.65918,1.5381 -1.64795,2.8125 -0.9668,1.2744 -2.30713,2.1753 -1.31836,0.9009 -3.03223,1.4063 -1.69189,0.5053 -3.7793,0.5053 z"
           style=""
           id="path5320" />
        <path
           d="m 343.99345,1253.9143 0,-13.7329 q 0,-1.4502 -0.35156,-2.4609 -0.35156,-1.0328 -0.9668,-1.67 -0.61523,-0.6591 -1.45019,-0.9448 -0.83496,-0.3076 -1.82373,-0.3076 -1.05469,0 -1.95557,0.2856 -0.90088,0.2637 -1.56006,0.8789 -0.65918,0.6153 -1.05468,1.648 -0.37354,1.0107 -0.37354,2.4829 l 0,13.8208 -4.68017,0 0,-30.3223 4.68017,-2.1753 0,11.7115 q 1.12061,-1.4282 2.5708,-2.0874 1.4502,-0.6592 3.36182,-0.6592 1.80176,0 3.31787,0.5273 1.51611,0.5054 2.61475,1.67 1.1206,1.1645 1.73584,3.0322 0.61523,1.8677 0.61523,4.5703 l 0,13.7329 -4.68018,0 z"
           style=""
           id="path5322" />
        <path
           d="m 372.79961,1253.9143 -4.48243,0 0,-1.9775 q -0.43945,0.4614 -1.05468,0.9228 -0.61524,0.4395 -1.40625,0.813 -0.76905,0.3516 -1.73584,0.5713 -0.9668,0.2197 -2.10938,0.2197 -1.75781,0 -3.25195,-0.4834 -1.49414,-0.4834 -2.59277,-1.4502 -1.09864,-0.9887 -1.73584,-2.417 -0.61524,-1.4502 -0.61524,-3.3618 0,-1.9775 0.74707,-3.4057 0.74707,-1.4502 1.97754,-2.3731 1.23047,-0.9448 2.8125,-1.3843 1.604,-0.4394 3.2959,-0.4394 1.58203,0 3.03223,0.3515 1.47216,0.3296 2.63671,1.0108 l 0,-1.2744 q 0,-1.2964 -0.30761,-2.1973 -0.28565,-0.9009 -0.90088,-1.4502 -0.59326,-0.5713 -1.51611,-0.813 -0.92286,-0.2636 -2.19727,-0.2636 -2.15332,0 -3.73535,0.5712 -1.56006,0.5713 -2.83447,1.5162 l -1.38428,-3.8453 q 0.70312,-0.4834 1.604,-0.9008 0.90088,-0.4395 1.97754,-0.7691 1.07666,-0.3296 2.3291,-0.5054 1.25244,-0.1977 2.68067,-0.1977 0.96679,0 1.99951,0.1099 1.03271,0.1098 1.99951,0.4394 0.98877,0.3076 1.8457,0.9009 0.87891,0.5932 1.51612,1.56 0.65918,0.9449 1.03271,2.3291 0.37354,1.3843 0.37354,3.2959 l 0,14.8975 z m -9.93164,-3.6035 q 1.77978,0 3.14209,-0.7251 1.38427,-0.7251 2.30712,-1.7358 l 0,-3.5157 q -0.96679,-0.5053 -2.26318,-0.813 -1.29639,-0.3076 -2.65869,-0.3076 -1.05469,0 -1.97754,0.1978 -0.92285,0.1977 -1.62598,0.6372 -0.68115,0.4175 -1.07666,1.0986 -0.3955,0.6592 -0.3955,1.604 0,1.648 1.14257,2.6148 1.16455,0.9448 3.40577,0.9448 z"
           style=""
           id="path5324" />
        <path
           d="m 379.17168,1253.9143 0,-23.0054 4.68017,0 0,2.7906 q 0.81299,-1.7578 2.10938,-2.5269 1.29638,-0.791 3.01025,-0.791 2.28516,0 3.86719,1.3843 l -0.68115,4.3286 q -0.63721,-0.4395 -1.51612,-0.7691 -0.85693,-0.3515 -2.10937,-0.3515 -0.79102,0 -1.62598,0.2856 -0.81299,0.2637 -1.49414,0.9668 -0.68115,0.6812 -1.1206,1.8457 -0.43946,1.1426 -0.43946,2.9224 l 0,12.9199 -4.68017,0 z"
           style=""
           id="path5326" />
        <path
           d="m 397.58476,1253.9143 0,-30.2783 4.68018,-2.2193 0,32.4976 -4.68018,0 z"
           style=""
           id="path5328" />
        <path
           d="m 418.54668,1254.4636 q -2.39502,0 -4.32862,-0.813 -1.93359,-0.8349 -3.2959,-2.373 -1.3623,-1.5601 -2.10937,-3.8013 -0.7251,-2.2412 -0.7251,-5.0757 0,-2.8344 0.74707,-5.0537 0.74707,-2.2412 2.10938,-3.7793 1.38427,-1.56 3.2959,-2.373 1.93359,-0.813 4.30664,-0.813 2.04345,0 3.82324,0.6592 1.80176,0.6372 3.14209,1.9775 1.3623,1.3184 2.13135,3.3399 0.79101,2.0214 0.79101,4.768 0,0.7471 -0.0439,1.5821 -0.022,0.8349 -0.13184,1.4501 l -15.49072,0 q 0.022,1.4283 0.50537,2.5708 0.50537,1.1207 1.31836,1.9336 0.81299,0.7911 1.8457,1.2305 1.03272,0.4175 2.15332,0.4175 1.42822,0 2.63672,-0.5933 1.23047,-0.5932 2.13135,-1.7358 l 3.0542,3.1421 q -1.25244,1.4941 -3.20801,2.417 -1.95557,0.9228 -4.6582,0.9228 z m 0,-19.9511 q -1.09864,0 -2.10938,0.3295 -1.01074,0.3077 -1.80176,1.0108 -0.76904,0.6811 -1.27441,1.8017 -0.50537,1.1206 -0.59326,2.7247 l 10.98633,0 q -0.044,-1.6041 -0.50537,-2.7247 -0.46143,-1.1206 -1.2085,-1.8017 -0.74707,-0.7031 -1.66992,-1.0108 -0.90088,-0.3295 -1.82373,-0.3295 z"
           style=""
           id="path5330" />
        <path
           d="m 440.93681,1254.4636 q -1.3623,0 -2.65869,-0.2636 -1.29638,-0.2637 -2.43896,-0.7471 -1.12061,-0.4834 -2.04346,-1.1646 -0.92285,-0.7031 -1.53809,-1.56 l 3.31788,-2.8345 q 0.35156,0.3296 0.85693,0.7471 0.50537,0.3955 1.16455,0.747 0.65918,0.3516 1.47217,0.5933 0.81299,0.2417 1.77978,0.2417 0.87891,0 1.62598,-0.1318 0.74707,-0.1319 1.27441,-0.4175 0.54932,-0.2857 0.83496,-0.7471 0.30762,-0.4834 0.30762,-1.1865 0,-0.813 -0.57129,-1.3843 -0.54931,-0.5932 -1.45019,-1.0547 -0.90088,-0.4834 -2.04346,-0.9009 -1.14258,-0.4394 -2.30713,-0.9228 -1.07666,-0.4614 -2.10937,-1.0107 -1.03272,-0.5494 -1.84571,-1.3184 -0.79101,-0.769 -1.29638,-1.8237 -0.4834,-1.0767 -0.4834,-2.5928 0,-1.5381 0.61523,-2.7246 0.63721,-1.1865 1.71387,-1.9776 1.09863,-0.8129 2.54883,-1.2304 1.47217,-0.4175 3.14209,-0.4175 1.47217,0 2.70263,0.2856 1.25245,0.2857 2.24122,0.7691 1.01074,0.4834 1.77978,1.1206 0.76904,0.6152 1.34033,1.2964 l -3.38379,2.6806 q -0.30761,-0.3076 -0.74707,-0.6372 -0.41748,-0.3515 -0.98877,-0.6372 -0.57129,-0.2856 -1.29638,-0.4614 -0.7251,-0.1978 -1.64795,-0.1978 -1.49414,0 -2.37305,0.5494 -0.85693,0.5493 -0.85693,1.582 0,0.6592 0.46142,1.1645 0.46143,0.4834 1.25244,0.9009 0.79102,0.4175 1.80176,0.813 1.03272,0.3735 2.15332,0.813 1.18653,0.4614 2.3291,1.0327 1.14258,0.5713 2.02149,1.4063 0.90088,0.8349 1.42822,2.0214 0.54932,1.1866 0.54932,2.8565 0,1.6479 -0.61524,2.9224 -0.61523,1.2524 -1.75781,2.1093 -1.12061,0.835 -2.72461,1.2525 -1.58203,0.4394 -3.5376,0.4394 z"
           style=""
           id="path5332" />
        <path
           d="m 473.98369,1254.4636 q -2.17529,0 -3.95508,-0.813 -1.75781,-0.8349 -3.01025,-2.373 -1.25245,-1.5601 -1.9336,-3.8013 -0.65918,-2.2412 -0.65918,-5.0757 0,-2.8344 0.70313,-5.0537 0.70312,-2.2412 1.95556,-3.7793 1.27442,-1.56 3.03223,-2.373 1.75781,-0.813 3.86719,-0.813 1.88965,0 3.20801,0.6152 1.34033,0.6153 2.21923,1.5381 l 0,-8.9429 4.68018,-2.1753 0,32.4976 -4.68018,0 0,-1.626 q -0.92285,1.0327 -2.21923,1.604 -1.27442,0.5713 -3.20801,0.5713 z m 0.65918,-4.4165 q 1.58203,0 2.79053,-0.6811 1.20849,-0.6812 1.97753,-1.9336 l 0,-10.1294 q -0.26367,-0.4395 -0.70312,-0.8789 -0.43945,-0.4395 -1.05469,-0.791 -0.59326,-0.3736 -1.3623,-0.5933 -0.74707,-0.2417 -1.64795,-0.2417 -2.63672,0 -4.08692,1.9556 -1.45019,1.9336 -1.45019,5.6469 0,1.67 0.37353,3.0762 0.39551,1.3843 1.09864,2.417 0.72509,1.0107 1.73584,1.582 1.03271,0.5713 2.3291,0.5713 z"
           style=""
           id="path5334" />
        <path
           d="m 500.19707,1254.4636 q -2.39502,0 -4.32862,-0.813 -1.93359,-0.8349 -3.29589,-2.373 -1.36231,-1.5601 -2.10938,-3.8013 -0.7251,-2.2412 -0.7251,-5.0757 0,-2.8344 0.74707,-5.0537 0.74707,-2.2412 2.10938,-3.7793 1.38428,-1.56 3.2959,-2.373 1.93359,-0.813 4.30664,-0.813 2.04345,0 3.82324,0.6592 1.80176,0.6372 3.14209,1.9775 1.3623,1.3184 2.13135,3.3399 0.79101,2.0214 0.79101,4.768 0,0.7471 -0.0439,1.5821 -0.022,0.8349 -0.13184,1.4501 l -15.49072,0 q 0.022,1.4283 0.50537,2.5708 0.50537,1.1207 1.31836,1.9336 0.81299,0.7911 1.8457,1.2305 1.03272,0.4175 2.15332,0.4175 1.42823,0 2.63672,-0.5933 1.23047,-0.5932 2.13135,-1.7358 l 3.0542,3.1421 q -1.25244,1.4941 -3.20801,2.417 -1.95557,0.9228 -4.6582,0.9228 z m 0,-19.9511 q -1.09864,0 -2.10938,0.3295 -1.01074,0.3077 -1.80176,1.0108 -0.76904,0.6811 -1.27441,1.8017 -0.50537,1.1206 -0.59326,2.7247 l 10.98633,0 q -0.0439,-1.6041 -0.50537,-2.7247 -0.46143,-1.1206 -1.2085,-1.8017 -0.74707,-0.7031 -1.66992,-1.0108 -0.90088,-0.3295 -1.82373,-0.3295 z"
           style=""
           id="path5336" />
        <path
           d="m 539.13261,1254.4636 q -2.43896,0 -4.39453,-0.6372 -1.95556,-0.6372 -3.49365,-1.7578 -1.51611,-1.1206 -2.63672,-2.6587 -1.09863,-1.56 -1.82373,-3.3618 -0.70312,-1.8018 -1.05469,-3.8013 -0.32959,-2.0215 -0.32959,-4.0869 0,-1.9116 0.35157,-3.8672 0.37353,-1.9555 1.1206,-3.7573 0.74707,-1.8237 1.86768,-3.4058 1.1206,-1.582 2.63672,-2.7465 1.53808,-1.1646 3.47168,-1.8238 1.93359,-0.6811 4.28466,-0.6811 2.26319,0 3.93311,0.5053 1.69189,0.4834 2.96631,1.3184 1.27441,0.835 2.19726,1.9116 0.92286,1.0767 1.64795,2.2412 l -4.21875,2.439 q -0.54931,-0.769 -1.18652,-1.4502 -0.61523,-0.7031 -1.40625,-1.2305 -0.79102,-0.5273 -1.75781,-0.8349 -0.9668,-0.3076 -2.1753,-0.3076 -1.71386,0 -3.0542,0.5053 -1.31835,0.5054 -2.30712,1.3843 -0.9668,0.8569 -1.64795,2.0215 -0.68116,1.1426 -1.09864,2.439 -0.3955,1.2963 -0.59326,2.6806 -0.17578,1.3623 -0.17578,2.6587 0,2.2632 0.50537,4.3726 0.50537,2.1093 1.58203,3.7573 1.07666,1.626 2.74659,2.6147 1.69189,0.9668 4.04296,0.9668 1.47217,0 2.70264,-0.5053 1.23047,-0.5274 2.10938,-1.4283 0.8789,-0.9008 1.3623,-2.1093 0.4834,-1.2085 0.4834,-2.6148 l 0,-0.6372 -5.66895,0 0,-4.4165 10.48096,0 0,4.1089 q 0,2.9663 -0.87891,5.2515 -0.8789,2.2631 -2.43896,3.8232 -1.53809,1.5381 -3.62549,2.3291 -2.0874,0.791 -4.52637,0.791 z"
           style=""
           id="path5338" />
        <path
           d="m 574.50859,1253.9143 -4.48242,0 0,-1.9775 q -0.43945,0.4614 -1.05469,0.9228 -0.61523,0.4395 -1.40625,0.813 -0.76904,0.3516 -1.73584,0.5713 -0.9668,0.2197 -2.10937,0.2197 -1.75782,0 -3.25196,-0.4834 -1.49414,-0.4834 -2.59277,-1.4502 -1.09863,-0.9887 -1.73584,-2.417 -0.61523,-1.4502 -0.61523,-3.3618 0,-1.9775 0.74707,-3.4057 0.74707,-1.4502 1.97754,-2.3731 1.23046,-0.9448 2.8125,-1.3843 1.604,-0.4394 3.29589,-0.4394 1.58203,0 3.03223,0.3515 1.47217,0.3296 2.63672,1.0108 l 0,-1.2744 q 0,-1.2964 -0.30762,-2.1973 -0.28564,-0.9009 -0.90088,-1.4502 -0.59326,-0.5713 -1.51611,-0.813 -0.92285,-0.2636 -2.19727,-0.2636 -2.15332,0 -3.73535,0.5712 -1.56006,0.5713 -2.83447,1.5162 l -1.38428,-3.8453 q 0.70313,-0.4834 1.60401,-0.9008 0.90088,-0.4395 1.97754,-0.7691 1.07666,-0.3296 2.3291,-0.5054 1.25244,-0.1977 2.68066,-0.1977 0.9668,0 1.99951,0.1099 1.03272,0.1098 1.99951,0.4394 0.98877,0.3076 1.84571,0.9009 0.8789,0.5932 1.51611,1.56 0.65918,0.9449 1.03272,2.3291 0.37353,1.3843 0.37353,3.2959 l 0,14.8975 z m -9.93164,-3.6035 q 1.77979,0 3.14209,-0.7251 1.38428,-0.7251 2.30713,-1.7358 l 0,-3.5157 q -0.9668,-0.5053 -2.26318,-0.813 -1.29639,-0.3076 -2.6587,-0.3076 -1.05468,0 -1.97754,0.1978 -0.92285,0.1977 -1.62597,0.6372 -0.68115,0.4175 -1.07666,1.0986 -0.39551,0.6592 -0.39551,1.604 0,1.648 1.14258,2.6148 1.16455,0.9448 3.40576,0.9448 z"
           style=""
           id="path5340" />
        <path
           d="m 594.87724,1253.9143 0,-2.1973 q -1.1206,1.4283 -2.59277,2.0874 -1.4502,0.6592 -3.36182,0.6592 -1.80175,0 -3.31787,-0.5273 -1.51611,-0.5054 -2.63672,-1.6699 -1.09863,-1.1866 -1.71386,-3.0542 -0.61524,-1.8677 -0.61524,-4.5704 l 0,-13.7329 4.68018,0 0,13.7329 q 0,1.4502 0.35156,2.483 0.35156,1.0107 0.9668,1.6699 0.61523,0.6592 1.45019,0.9668 0.83496,0.2856 1.82373,0.2856 1.05469,0 1.95557,-0.2637 0.90088,-0.2856 1.56006,-0.9008 0.68115,-0.6372 1.05469,-1.648 0.3955,-1.0107 0.3955,-2.5049 l 0,-13.8208 4.68018,0 0,23.0054 -4.68018,0 z"
           style=""
           id="path5342" />
        <path
           d="m 606.50078,1253.9143 0,-30.2783 4.68017,-2.2193 0,32.4976 -4.68017,0 z"
           style=""
           id="path5344" />
        <path
           d="m 618.36601,1253.9143 0,-30.2783 4.68018,-2.2193 0,32.4976 -4.68018,0 z"
           style=""
           id="path5346" />
        <path
           d="m 639.32793,1254.4636 q -2.39502,0 -4.32862,-0.813 -1.93359,-0.8349 -3.2959,-2.373 -1.3623,-1.5601 -2.10937,-3.8013 -0.7251,-2.2412 -0.7251,-5.0757 0,-2.8344 0.74707,-5.0537 0.74707,-2.2412 2.10938,-3.7793 1.38427,-1.56 3.2959,-2.373 1.93359,-0.813 4.30664,-0.813 2.04345,0 3.82324,0.6592 1.80176,0.6372 3.14209,1.9775 1.3623,1.3184 2.13135,3.3399 0.79101,2.0214 0.79101,4.768 0,0.7471 -0.0439,1.5821 -0.022,0.8349 -0.13184,1.4501 l -15.49072,0 q 0.022,1.4283 0.50537,2.5708 0.50537,1.1207 1.31836,1.9336 0.81299,0.7911 1.8457,1.2305 1.03272,0.4175 2.15332,0.4175 1.42822,0 2.63672,-0.5933 1.23047,-0.5932 2.13135,-1.7358 l 3.0542,3.1421 q -1.25244,1.4941 -3.20801,2.417 -1.95557,0.9228 -4.6582,0.9228 z m 0,-19.9511 q -1.09864,0 -2.10938,0.3295 -1.01074,0.3077 -1.80176,1.0108 -0.76904,0.6811 -1.27441,1.8017 -0.50537,1.1206 -0.59326,2.7247 l 10.98633,0 q -0.0439,-1.6041 -0.50537,-2.7247 -0.46143,-1.1206 -1.2085,-1.8017 -0.74707,-0.7031 -1.66992,-1.0108 -0.90088,-0.3295 -1.82373,-0.3295 z"
           style=""
           id="path5348" />
      </g>
    </g>
  </g>
</svg>
