<?xml version="1.0" encoding="UTF-8" standalone="no"?>
<!-- Created with Inkscape (http://www.inkscape.org/) -->

<svg
   xmlns:dc="http://purl.org/dc/elements/1.1/"
   xmlns:cc="http://creativecommons.org/ns#"
   xmlns:rdf="http://www.w3.org/1999/02/22-rdf-syntax-ns#"
   xmlns:svg="http://www.w3.org/2000/svg"
   xmlns="http://www.w3.org/2000/svg"
   xmlns:sodipodi="http://sodipodi.sourceforge.net/DTD/sodipodi-0.dtd"
   xmlns:inkscape="http://www.inkscape.org/namespaces/inkscape"
   width="597.37085"
   height="413.31824"
   viewBox="0 0 597.37085 413.31825"
   id="svg2"
   version="1.1"
   inkscape:version="0.91 r13725"
   sodipodi:docname="CHC.svg"
   inkscape:export-filename="C:\Users\paulb\Dropbox\Projects\Terminal Silhouettes\Silhouettes\png\CHC.png"
   inkscape:export-xdpi="90"
   inkscape:export-ydpi="90">
  <sodipodi:namedview
     id="base"
     pagecolor="#ffffff"
     bordercolor="#666666"
     borderopacity="1.0"
     inkscape:pageopacity="1"
     inkscape:pageshadow="2"
     inkscape:zoom="1"
     inkscape:cx="154.58999"
     inkscape:cy="205.70821"
     inkscape:document-units="px"
     inkscape:current-layer="layer4"
     showgrid="false"
     units="px"
     fit-margin-top="25"
     fit-margin-left="25"
     fit-margin-right="25"
     fit-margin-bottom="25"
     inkscape:window-width="1920"
     inkscape:window-height="1137"
     inkscape:window-x="1912"
     inkscape:window-y="-8"
     inkscape:window-maximized="1"
     showguides="true"
     inkscape:guide-bbox="true"
     inkscape:snap-object-midpoints="false"
     inkscape:object-paths="false"
     inkscape:object-nodes="true" />
  <defs
     id="defs4" />
  <metadata
     id="metadata7">
    <rdf:RDF>
      <cc:Work
         rdf:about="">
        <dc:format>image/svg+xml</dc:format>
        <dc:type
           rdf:resource="http://purl.org/dc/dcmitype/StillImage" />
        <dc:title></dc:title>
        <dc:creator>
          <cc:Agent>
            <dc:title>Paul Bogard</dc:title>
          </cc:Agent>
        </dc:creator>
        <dc:description>Terminal silhouette of CHC (Christchurch)</dc:description>
      </cc:Work>
    </rdf:RDF>
  </metadata>
  <g
     inkscape:label="Terminal"
     id="layer2"
     inkscape:groupmode="layer"
     transform="translate(-1932.4317,-1284.6995)">
    <path
       id="path4162"
       d="m 1959.8503,1520.6874 43.9175,37.0275 2.1701,25.4962 3.2105,-0.2732 1.8875,22.1758 9.9866,8.4199 -1.9031,2.2575 42.5459,35.8714 1.903,-2.2575 26.7528,22.5559 15.917,-18.879 -41.1168,-34.6665 19.0032,-33.3642 1.7637,-0.1501 -0.7179,-8.4338 -1.1396,0.097 -3.3993,-39.9377 22.4345,-26.6088 -0.9142,0.078 -0.257,-3.0188 0.9139,-0.078 -26.6085,-22.4342 -3.7662,-44.2485 76.9859,-18.1497 -4.7516,-20.1543 30.8117,1.4658 0.5957,-12.5259 19.5168,0.9284 0.4364,-9.1761 5.6145,0.2669 0.2817,-5.9296 2.5768,0.1227 0.7341,-15.4364 1.2551,0.06 0.5287,-11.1223 -9.446,-0.4491 -0.072,1.5242 -17.8029,-0.8469 0.3275,-6.8887 74.2438,3.5319 0.9287,-19.5297 -74.2437,-3.5319 0.4447,-9.3509 -97.9289,-4.6584 -78.233,92.7897 3.6327,1.0404 -5.4442,6.4573 -2.3822,-2.5237 -9.0826,10.7725 0.046,0.535 4.8714,57.2325 -37.0279,43.9175 z"
       style="fill:#dddddd;fill-opacity:1;fill-rule:evenodd;stroke:#222222;stroke-width:1.5;stroke-linecap:butt;stroke-linejoin:miter;stroke-miterlimit:4;stroke-dasharray:none;stroke-opacity:1"
       inkscape:connector-curvature="0" />
  </g>
  <g
     inkscape:groupmode="layer"
     id="layer3"
     inkscape:label="Label"
     transform="translate(-1932.4317,-1284.6995)">
    <g
       id="g4263"
       transform="translate(-132,89)">
      <g
         style="font-style:normal;font-variant:normal;font-weight:bold;font-stretch:normal;font-size:125px;line-height:125%;font-family:Overpass;-inkscape-font-specification:'Overpass, Bold';text-align:start;letter-spacing:0px;word-spacing:0px;writing-mode:lr-tb;text-anchor:start;fill:#dddddd;fill-opacity:1;stroke:#222222;stroke-width:0.25;stroke-linecap:butt;stroke-linejoin:miter;stroke-miterlimit:4;stroke-dasharray:none;stroke-opacity:1"
         id="text4251">
        <path
           d="m 2422.8608,1424.6406 q -6.8359,0 -12.207,-1.831 -5.3711,-1.8311 -9.4604,-5.0659 -4.0894,-3.2349 -6.958,-7.5684 -2.8687,-4.3335 -4.6998,-9.3384 -1.77,-5.0659 -2.6245,-10.498 -0.7934,-5.4322 -0.7934,-10.8643 0,-5.0049 0.8545,-10.2539 0.8545,-5.3101 2.6245,-10.3149 1.831,-5.0049 4.6997,-9.4605 2.9297,-4.4556 6.958,-7.8125 4.0894,-3.3569 9.4604,-5.31 5.3711,-1.9532 12.146,-1.9532 6.2867,0 11.4136,1.709 5.127,1.709 9.0332,4.5166 3.9063,2.7466 6.5918,6.2866 2.7466,3.5401 4.2114,7.2022 l -15.1367,6.897 q -1.5869,-2.4414 -3.2348,-4.3946 -1.648,-1.9531 -3.5401,-3.2348 -1.8921,-1.3428 -4.2114,-2.0142 -2.2583,-0.7324 -5.127,-0.7324 -3.6621,0 -6.5307,1.2817 -2.8687,1.2207 -5.0049,3.357 -2.1362,2.1362 -3.6011,5.0048 -1.4648,2.8687 -2.3803,6.1036 -0.9156,3.1738 -1.3428,6.5917 -0.3662,3.357 -0.3662,6.5308 0,5.127 1.0986,10.2539 1.0986,5.127 3.418,9.2774 2.3193,4.1504 5.9204,6.7749 3.6621,2.5634 8.789,2.5634 2.6856,0 4.9439,-0.7934 2.2583,-0.8545 4.1504,-2.3194 1.9531,-1.4648 3.6011,-3.54 1.7089,-2.0752 3.1738,-4.5776 l 15.5029,5.8593 q -2.0752,4.8218 -5.0049,8.8501 -2.9297,3.9673 -6.8359,6.836 -3.8452,2.8076 -8.728,4.3945 -4.8828,1.5869 -10.8033,1.5869 z"
           style=""
           id="path4289" />
        <path
           d="m 2525.2778,1423.2368 0,-36.9873 -36.6211,0 0,36.9873 -16.9067,0 0,-87.5244 16.9067,0 0,34.5459 36.6211,0 0,-34.5459 16.8457,0 0,87.5244 -16.8457,0 z"
           style=""
           id="path4291" />
        <path
           d="m 2598.3979,1424.6406 q -6.8359,0 -12.207,-1.831 -5.3711,-1.8311 -9.4604,-5.0659 -4.0894,-3.2349 -6.958,-7.5684 -2.8687,-4.3335 -4.6997,-9.3384 -1.7701,-5.0659 -2.6246,-10.498 -0.7934,-5.4322 -0.7934,-10.8643 0,-5.0049 0.8545,-10.2539 0.8545,-5.3101 2.6245,-10.3149 1.831,-5.0049 4.6997,-9.4605 2.9297,-4.4556 6.958,-7.8125 4.0894,-3.3569 9.4605,-5.31 5.371,-1.9532 12.1459,-1.9532 6.2867,0 11.4136,1.709 5.127,1.709 9.0332,4.5166 3.9063,2.7466 6.5918,6.2866 2.7466,3.5401 4.2114,7.2022 l -15.1367,6.897 q -1.5869,-2.4414 -3.2348,-4.3946 -1.648,-1.9531 -3.5401,-3.2348 -1.8921,-1.3428 -4.2114,-2.0142 -2.2583,-0.7324 -5.127,-0.7324 -3.6621,0 -6.5307,1.2817 -2.8687,1.2207 -5.0049,3.357 -2.1362,2.1362 -3.6011,5.0048 -1.4648,2.8687 -2.3803,6.1036 -0.9156,3.1738 -1.3428,6.5917 -0.3662,3.357 -0.3662,6.5308 0,5.127 1.0986,10.2539 1.0986,5.127 3.418,9.2774 2.3193,4.1504 5.9204,6.7749 3.6621,2.5634 8.789,2.5634 2.6856,0 4.9439,-0.7934 2.2583,-0.8545 4.1504,-2.3194 1.9531,-1.4648 3.6011,-3.54 1.7089,-2.0752 3.1738,-4.5776 l 15.5029,5.8593 q -2.0752,4.8218 -5.0049,8.8501 -2.9297,3.9673 -6.8359,6.836 -3.8452,2.8076 -8.728,4.3945 -4.8828,1.5869 -10.8033,1.5869 z"
           style=""
           id="path4293" />
      </g>
      <g
         style="font-style:normal;font-variant:normal;font-weight:normal;font-stretch:normal;font-size:45px;line-height:125%;font-family:Overpass;-inkscape-font-specification:'Overpass, Normal';text-align:start;letter-spacing:0px;word-spacing:0px;writing-mode:lr-tb;text-anchor:start;fill:#222222;fill-opacity:1;stroke:none;stroke-width:1px;stroke-linecap:butt;stroke-linejoin:miter;stroke-opacity:1"
         id="text4255">
        <path
           d="m 2392.1809,1472.8125 q -2.439,0 -4.3726,-0.6592 -1.9116,-0.6811 -3.3618,-1.8237 -1.4502,-1.1646 -2.4829,-2.7246 -1.0107,-1.5821 -1.6479,-3.3838 -0.6372,-1.8237 -0.9449,-3.7793 -0.2856,-1.9775 -0.2856,-3.9331 0,-1.8018 0.2856,-3.7134 0.3077,-1.9116 0.9449,-3.7134 0.6592,-1.8237 1.6919,-3.4277 1.0327,-1.604 2.4829,-2.8125 1.4502,-1.2085 3.3618,-1.9116 1.9116,-0.7031 4.3286,-0.7031 2.2192,0 3.999,0.5493 1.7798,0.5273 3.0982,1.4062 1.3403,0.8789 2.2412,1.9995 0.9009,1.1206 1.3843,2.2852 l -4.2847,1.9995 q -0.5713,-0.9009 -1.2085,-1.582 -0.6152,-0.7032 -1.3843,-1.1866 -0.747,-0.4834 -1.6919,-0.7251 -0.9448,-0.2417 -2.1533,-0.2417 -1.582,0 -2.8125,0.5054 -1.2085,0.5054 -2.1313,1.3843 -0.9009,0.8789 -1.5381,2.0435 -0.6372,1.1645 -1.0327,2.4829 -0.3736,1.2963 -0.5494,2.6806 -0.1757,1.3843 -0.1757,2.6807 0,2.0874 0.4614,4.1968 0.4834,2.1093 1.4941,3.8012 1.0108,1.6919 2.5708,2.7466 1.5601,1.0547 3.7134,1.0547 1.1646,0 2.0874,-0.2856 0.9448,-0.3077 1.7139,-0.835 0.791,-0.5493 1.4062,-1.2964 0.6372,-0.7471 1.1866,-1.6479 l 4.3725,1.6699 q -0.6592,1.5381 -1.6479,2.8125 -0.9668,1.2744 -2.3072,2.1753 -1.3183,0.9009 -3.0322,1.4062 -1.6919,0.5054 -3.7793,0.5054 z"
           style=""
           id="path4296" />
        <path
           d="m 2423.0305,1472.2632 0,-13.7329 q 0,-1.4502 -0.3515,-2.461 -0.3516,-1.0327 -0.9668,-1.6699 -0.6153,-0.6592 -1.4502,-0.9448 -0.835,-0.3076 -1.8238,-0.3076 -1.0547,0 -1.9555,0.2856 -0.9009,0.2637 -1.5601,0.8789 -0.6592,0.6153 -1.0547,1.648 -0.3735,1.0107 -0.3735,2.4829 l 0,13.8208 -4.6802,0 0,-30.3223 4.6802,-2.1753 0,11.7115 q 1.1206,-1.4283 2.5708,-2.0875 1.4502,-0.6591 3.3618,-0.6591 1.8018,0 3.3179,0.5273 1.5161,0.5054 2.6147,1.6699 1.1206,1.1646 1.7359,3.0323 0.6152,1.8676 0.6152,4.5703 l 0,13.7329 -4.6802,0 z"
           style=""
           id="path4298" />
        <path
           d="m 2434.2146,1472.2632 0,-23.0054 4.6802,0 0,2.7905 q 0.813,-1.7578 2.1094,-2.5268 1.2963,-0.791 3.0102,-0.791 2.2852,0 3.8672,1.3842 l -0.6812,4.3287 q -0.6372,-0.4395 -1.5161,-0.7691 -0.8569,-0.3515 -2.1093,-0.3515 -0.7911,0 -1.626,0.2856 -0.813,0.2637 -1.4942,0.9668 -0.6811,0.6811 -1.1206,1.8457 -0.4394,1.1426 -0.4394,2.9224 l 0,12.9199 -4.6802,0 z"
           style=""
           id="path4300" />
        <path
           d="m 2452.4519,1472.2632 0,-23.0054 4.6802,0 0,23.0054 -4.6802,0 z m 2.3291,-26.5869 q -0.5933,0 -1.1206,-0.2198 -0.5054,-0.2197 -0.9009,-0.5932 -0.3735,-0.3955 -0.5932,-0.9009 -0.2198,-0.5273 -0.2198,-1.1206 0,-0.5933 0.2198,-1.0986 0.2197,-0.5274 0.5932,-0.9009 0.3955,-0.3955 0.9009,-0.6152 0.5273,-0.2198 1.1206,-0.2198 0.5933,0 1.0986,0.2198 0.5274,0.2197 0.9009,0.6152 0.3955,0.3735 0.6153,0.9009 0.2197,0.5053 0.2197,1.0986 0,0.5933 -0.2197,1.1206 -0.2198,0.5054 -0.6153,0.9009 -0.3735,0.3735 -0.9009,0.5932 -0.5053,0.2198 -1.0986,0.2198 z"
           style=""
           id="path4302" />
        <path
           d="m 2471.0188,1472.8125 q -1.3623,0 -2.6587,-0.2637 -1.2964,-0.2636 -2.439,-0.747 -1.1206,-0.4834 -2.0434,-1.1646 -0.9229,-0.7031 -1.5381,-1.5601 l 3.3179,-2.8344 q 0.3515,0.3296 0.8569,0.747 0.5054,0.3956 1.1646,0.7471 0.6591,0.3516 1.4721,0.5933 0.813,0.2417 1.7798,0.2417 0.8789,0 1.626,-0.1319 0.7471,-0.1318 1.2744,-0.4174 0.5493,-0.2857 0.835,-0.7471 0.3076,-0.4834 0.3076,-1.1865 0,-0.813 -0.5713,-1.3843 -0.5493,-0.5933 -1.4502,-1.0547 -0.9009,-0.4834 -2.0435,-0.9009 -1.1425,-0.4394 -2.3071,-0.9228 -1.0767,-0.4615 -2.1094,-1.0108 -1.0327,-0.5493 -1.8457,-1.3183 -0.791,-0.7691 -1.2964,-1.8238 -0.4834,-1.0766 -0.4834,-2.5927 0,-1.5381 0.6153,-2.7246 0.6372,-1.1866 1.7138,-1.9776 1.0987,-0.813 2.5489,-1.2305 1.4721,-0.4174 3.1421,-0.4174 1.4721,0 2.7026,0.2856 1.2524,0.2857 2.2412,0.7691 1.0108,0.4834 1.7798,1.1206 0.769,0.6152 1.3403,1.2963 l -3.3838,2.6807 q -0.3076,-0.3076 -0.747,-0.6372 -0.4175,-0.3516 -0.9888,-0.6372 -0.5713,-0.2856 -1.2964,-0.4614 -0.7251,-0.1978 -1.6479,-0.1978 -1.4942,0 -2.3731,0.5493 -0.8569,0.5494 -0.8569,1.5821 0,0.6591 0.4614,1.1645 0.4614,0.4834 1.2524,0.9009 0.7911,0.4175 1.8018,0.813 1.0327,0.3735 2.1533,0.813 1.1866,0.4614 2.3291,1.0327 1.1426,0.5713 2.0215,1.4062 0.9009,0.835 1.4282,2.0215 0.5494,1.1865 0.5494,2.8565 0,1.6479 -0.6153,2.9223 -0.6152,1.2525 -1.7578,2.1094 -1.1206,0.835 -2.7246,1.2524 -1.582,0.4395 -3.5376,0.4395 z"
           style=""
           id="path4304" />
        <path
           d="m 2491.9368,1472.8125 q -1.3623,0 -2.3511,-0.4175 -0.9668,-0.3955 -1.604,-1.1426 -0.6152,-0.747 -0.9009,-1.8017 -0.2856,-1.0767 -0.2856,-2.3731 l 0,-13.7548 -3.5596,0 0,-4.065 3.5596,0 0,-7.229 4.6801,-2.2632 0,9.4922 5.4493,0 0,4.065 -5.4493,0 0,12.5463 q 0,0.5713 0.088,1.0547 0.1099,0.4834 0.3516,0.835 0.2637,0.3516 0.7031,0.5493 0.4395,0.1758 1.1206,0.1758 1.6699,0 3.4058,-1.0767 l -0.5713,4.3506 q -0.9668,0.4834 -2.1094,0.7691 -1.1426,0.2856 -2.5268,0.2856 z"
           style=""
           id="path4306" />
        <path
           d="m 2511.2288,1472.8125 q -2.3072,0 -4.1748,-0.813 -1.8457,-0.813 -3.1641,-2.3511 -1.2964,-1.56 -1.9995,-3.7793 -0.7031,-2.2412 -0.7031,-5.0756 0,-2.8345 0.7031,-5.0757 0.7031,-2.2412 1.9995,-3.7793 1.3184,-1.5601 3.1641,-2.3731 1.8676,-0.8349 4.1748,-0.8349 3.208,0 5.4272,1.4282 2.2412,1.4282 3.252,4.5044 l -4.4385,1.5381 q -0.5054,-1.3184 -1.5381,-2.1314 -1.0327,-0.8349 -2.5269,-0.8349 -1.3183,0 -2.3291,0.5273 -1.0107,0.5274 -1.7138,1.5161 -0.6812,0.9668 -1.0547,2.3731 -0.3516,1.3842 -0.3516,3.1421 0,1.7578 0.3516,3.164 0.3735,1.3843 1.0327,2.3511 0.6812,0.9668 1.6479,1.4941 0.9888,0.5054 2.2413,0.5054 1.582,0 2.7026,-0.8789 1.1426,-0.8789 1.626,-2.5049 l 4.4384,1.4063 q -0.9228,3.208 -3.142,4.8559 -2.1973,1.626 -5.625,1.626 z"
           style=""
           id="path4308" />
        <path
           d="m 2539.8372,1472.2632 0,-13.7329 q 0,-1.4502 -0.3516,-2.461 -0.3516,-1.0327 -0.9668,-1.6699 -0.6152,-0.6592 -1.4502,-0.9448 -0.835,-0.3076 -1.8237,-0.3076 -1.0547,0 -1.9556,0.2856 -0.9009,0.2637 -1.5601,0.8789 -0.6591,0.6153 -1.0546,1.648 -0.3736,1.0107 -0.3736,2.4829 l 0,13.8208 -4.6802,0 0,-30.3223 4.6802,-2.1753 0,11.7115 q 1.1206,-1.4283 2.5708,-2.0875 1.4502,-0.6591 3.3618,-0.6591 1.8018,0 3.3179,0.5273 1.5161,0.5054 2.6148,1.6699 1.1206,1.1646 1.7358,3.0323 0.6152,1.8676 0.6152,4.5703 l 0,13.7329 -4.6801,0 z"
           style=""
           id="path4310" />
        <path
           d="m 2565.0178,1472.2632 0,-2.1973 q -1.1206,1.4282 -2.5928,2.0874 -1.4501,0.6592 -3.3618,0.6592 -1.8017,0 -3.3178,-0.5273 -1.5162,-0.5054 -2.6368,-1.67 -1.0986,-1.1865 -1.7138,-3.0542 -0.6153,-1.8676 -0.6153,-4.5703 l 0,-13.7329 4.6802,0 0,13.7329 q 0,1.4502 0.3516,2.4829 0.3515,1.0108 0.9668,1.67 0.6152,0.6591 1.4502,0.9668 0.8349,0.2856 1.8237,0.2856 1.0547,0 1.9556,-0.2637 0.9008,-0.2856 1.56,-0.9009 0.6812,-0.6372 1.0547,-1.6479 0.3955,-1.0107 0.3955,-2.5049 l 0,-13.8208 4.6802,0 0,23.0054 -4.6802,0 z"
           style=""
           id="path4312" />
        <path
           d="m 2576.4216,1472.2632 0,-23.0054 4.6802,0 0,2.7905 q 0.813,-1.7578 2.1094,-2.5268 1.2964,-0.791 3.0102,-0.791 2.2852,0 3.8672,1.3842 l -0.6811,4.3287 q -0.6372,-0.4395 -1.5161,-0.7691 -0.857,-0.3515 -2.1094,-0.3515 -0.791,0 -1.626,0.2856 -0.813,0.2637 -1.4941,0.9668 -0.6812,0.6811 -1.1206,1.8457 -0.4395,1.1426 -0.4395,2.9224 l 0,12.9199 -4.6802,0 z"
           style=""
           id="path4314" />
        <path
           d="m 2603.5139,1472.8125 q -2.3071,0 -4.1748,-0.813 -1.8457,-0.813 -3.1641,-2.3511 -1.2963,-1.56 -1.9995,-3.7793 -0.7031,-2.2412 -0.7031,-5.0756 0,-2.8345 0.7031,-5.0757 0.7032,-2.2412 1.9995,-3.7793 1.3184,-1.5601 3.1641,-2.3731 1.8677,-0.8349 4.1748,-0.8349 3.208,0 5.4273,1.4282 2.2412,1.4282 3.2519,4.5044 l -4.4385,1.5381 q -0.5053,-1.3184 -1.538,-2.1314 -1.0328,-0.8349 -2.5269,-0.8349 -1.3184,0 -2.3291,0.5273 -1.0107,0.5274 -1.7139,1.5161 -0.6811,0.9668 -1.0547,2.3731 -0.3515,1.3842 -0.3515,3.1421 0,1.7578 0.3515,3.164 0.3736,1.3843 1.0328,2.3511 0.6811,0.9668 1.6479,1.4941 0.9888,0.5054 2.2412,0.5054 1.582,0 2.7027,-0.8789 1.1425,-0.8789 1.6259,-2.5049 l 4.4385,1.4063 q -0.9228,3.208 -3.1421,4.8559 -2.1972,1.626 -5.625,1.626 z"
           style=""
           id="path4316" />
        <path
           d="m 2632.1223,1472.2632 0,-13.7329 q 0,-1.4502 -0.3515,-2.461 -0.3516,-1.0327 -0.9668,-1.6699 -0.6153,-0.6592 -1.4502,-0.9448 -0.835,-0.3076 -1.8238,-0.3076 -1.0547,0 -1.9555,0.2856 -0.9009,0.2637 -1.5601,0.8789 -0.6592,0.6153 -1.0547,1.648 -0.3735,1.0107 -0.3735,2.4829 l 0,13.8208 -4.6802,0 0,-30.3223 4.6802,-2.1753 0,11.7115 q 1.1206,-1.4283 2.5708,-2.0875 1.4502,-0.6591 3.3618,-0.6591 1.8018,0 3.3179,0.5273 1.5161,0.5054 2.6147,1.6699 1.1206,1.1646 1.7359,3.0323 0.6152,1.8676 0.6152,4.5703 l 0,13.7329 -4.6802,0 z"
           style=""
           id="path4318" />
      </g>
    </g>
  </g>
  <g
     inkscape:groupmode="layer"
     id="layer4"
     inkscape:label="Date"
     transform="translate(-1932.4317,-1284.6995)">
    <g
       style="font-style:normal;font-variant:normal;font-weight:300;font-stretch:normal;font-size:15px;line-height:125%;font-family:Overpass;-inkscape-font-specification:'Overpass, Light';text-align:start;letter-spacing:0px;word-spacing:0px;writing-mode:lr-tb;text-anchor:start;fill:#222222;fill-opacity:1;stroke:none;stroke-width:1px;stroke-linecap:butt;stroke-linejoin:miter;stroke-opacity:1"
       id="text4259">
      <path
         d="m 2424.1194,1672.8378 q 0,-0.99 0.285,-1.695 0.285,-0.72 0.735,-1.26 0.45,-0.54 1.02,-0.945 0.57,-0.405 1.14,-0.795 0.495,-0.33 0.945,-0.645 0.45,-0.33 0.795,-0.69 0.36,-0.36 0.57,-0.765 0.21,-0.42 0.21,-0.93 0,-0.855 -0.6,-1.425 -0.585,-0.585 -1.68,-0.585 -1.065,0 -1.605,0.48 -0.54,0.465 -0.735,1.215 l -0.93,-0.42 q 0.12,-0.465 0.405,-0.87 0.285,-0.405 0.72,-0.705 0.435,-0.3 0.99,-0.465 0.57,-0.18 1.245,-0.18 1.56,0 2.415,0.81 0.87,0.795 0.87,2.145 0,0.72 -0.285,1.275 -0.27,0.555 -0.72,1.02 -0.435,0.45 -0.99,0.84 -0.555,0.375 -1.125,0.735 -0.45,0.3 -0.87,0.6 -0.42,0.285 -0.78,0.63 -0.345,0.33 -0.585,0.735 -0.24,0.39 -0.33,0.885 l 5.775,0 0,1.005 -6.885,0 z"
         style=""
         id="path4270" />
      <path
         d="m 2433.1136,1672.8378 q 0,-0.99 0.285,-1.695 0.285,-0.72 0.735,-1.26 0.45,-0.54 1.02,-0.945 0.57,-0.405 1.14,-0.795 0.495,-0.33 0.945,-0.645 0.45,-0.33 0.795,-0.69 0.36,-0.36 0.57,-0.765 0.21,-0.42 0.21,-0.93 0,-0.855 -0.6,-1.425 -0.585,-0.585 -1.68,-0.585 -1.065,0 -1.605,0.48 -0.54,0.465 -0.735,1.215 l -0.93,-0.42 q 0.12,-0.465 0.405,-0.87 0.285,-0.405 0.72,-0.705 0.435,-0.3 0.99,-0.465 0.57,-0.18 1.245,-0.18 1.56,0 2.415,0.81 0.87,0.795 0.87,2.145 0,0.72 -0.285,1.275 -0.27,0.555 -0.72,1.02 -0.435,0.45 -0.99,0.84 -0.555,0.375 -1.125,0.735 -0.45,0.3 -0.87,0.6 -0.42,0.285 -0.78,0.63 -0.345,0.33 -0.585,0.735 -0.24,0.39 -0.33,0.885 l 5.775,0 0,1.005 -6.885,0 z"
         style=""
         id="path4272" />
      <path
         d="m 2453.9048,1672.8378 0,-7.77 -3.51,7.95 -3.27,-7.905 0,7.725 -1.05,0 0,-10.5 0.9,0 3.51,8.175 3.555,-8.175 0.915,0 0,10.5 -1.05,0 z"
         style=""
         id="path4274" />
      <path
         d="m 2462.3008,1672.8378 0,-0.75 q -0.465,0.42 -1.05,0.675 -0.57,0.255 -1.2,0.255 -1.155,0 -1.89,-0.645 -0.72,-0.66 -0.72,-1.95 0,-0.66 0.225,-1.14 0.24,-0.48 0.615,-0.78 0.39,-0.315 0.9,-0.465 0.51,-0.15 1.05,-0.15 0.48,0 0.99,0.12 0.51,0.12 1.08,0.42 l 0,-0.645 q 0,-0.585 -0.15,-0.945 -0.135,-0.36 -0.375,-0.57 -0.225,-0.21 -0.54,-0.285 -0.3,-0.075 -0.615,-0.075 -0.285,0 -0.6,0.075 -0.315,0.075 -0.615,0.195 -0.3,0.12 -0.585,0.27 -0.27,0.135 -0.48,0.285 l -0.3,-0.9 q 0.465,-0.3 1.17,-0.57 0.72,-0.27 1.515,-0.27 0.405,0 0.855,0.12 0.45,0.105 0.825,0.405 0.375,0.285 0.615,0.81 0.255,0.51 0.255,1.32 l 0,5.19 -0.975,0 z m -2.145,-0.735 q 0.345,0 0.66,-0.105 0.315,-0.105 0.585,-0.27 0.27,-0.165 0.495,-0.375 0.225,-0.225 0.405,-0.435 l 0,-1.485 q -0.375,-0.255 -0.93,-0.435 -0.54,-0.195 -1.035,-0.195 -0.39,0 -0.735,0.105 -0.345,0.09 -0.615,0.3 -0.255,0.195 -0.42,0.495 -0.15,0.3 -0.15,0.72 0,0.765 0.45,1.23 0.45,0.45 1.29,0.45 z"
         style=""
         id="path4276" />
      <path
         d="m 2465.6837,1672.8378 0,-7.665 1.05,0 0,1.08 q 0.42,-0.63 0.975,-0.945 0.555,-0.315 1.08,-0.315 0.57,0 0.96,0.315 l -0.165,1.02 q -0.15,-0.09 -0.39,-0.18 -0.225,-0.105 -0.6,-0.105 -0.255,0 -0.585,0.12 -0.315,0.12 -0.6,0.405 -0.285,0.285 -0.48,0.765 -0.195,0.465 -0.195,1.17 l 0,4.335 -1.05,0 z"
         style=""
         id="path4278" />
      <path
         d="m 2474.6566,1672.8378 q 0,-0.99 0.285,-1.695 0.285,-0.72 0.735,-1.26 0.45,-0.54 1.02,-0.945 0.57,-0.405 1.14,-0.795 0.495,-0.33 0.945,-0.645 0.45,-0.33 0.795,-0.69 0.36,-0.36 0.57,-0.765 0.21,-0.42 0.21,-0.93 0,-0.855 -0.6,-1.425 -0.585,-0.585 -1.68,-0.585 -1.065,0 -1.605,0.48 -0.54,0.465 -0.735,1.215 l -0.93,-0.42 q 0.12,-0.465 0.405,-0.87 0.285,-0.405 0.72,-0.705 0.435,-0.3 0.99,-0.465 0.57,-0.18 1.245,-0.18 1.56,0 2.415,0.81 0.87,0.795 0.87,2.145 0,0.72 -0.285,1.275 -0.27,0.555 -0.72,1.02 -0.435,0.45 -0.99,0.84 -0.555,0.375 -1.125,0.735 -0.45,0.3 -0.87,0.6 -0.42,0.285 -0.78,0.63 -0.345,0.33 -0.585,0.735 -0.24,0.39 -0.33,0.885 l 5.775,0 0,1.005 -6.885,0 z"
         style=""
         id="path4280" />
      <path
         d="m 2487.2357,1673.0178 q -1.035,0 -1.725,-0.48 -0.69,-0.48 -1.11,-1.245 -0.405,-0.78 -0.585,-1.74 -0.18,-0.975 -0.18,-1.965 0,-0.54 0.06,-1.155 0.06,-0.63 0.21,-1.23 0.165,-0.6 0.42,-1.155 0.27,-0.555 0.675,-0.975 0.405,-0.42 0.945,-0.66 0.555,-0.255 1.29,-0.255 1.035,0 1.725,0.495 0.69,0.48 1.095,1.26 0.42,0.78 0.6,1.755 0.18,0.96 0.18,1.92 0,0.555 -0.075,1.17 -0.06,0.615 -0.225,1.23 -0.15,0.6 -0.42,1.155 -0.255,0.54 -0.66,0.96 -0.405,0.42 -0.96,0.675 -0.54,0.24 -1.26,0.24 z m 0,-0.945 q 0.78,0 1.26,-0.42 0.495,-0.435 0.765,-1.095 0.27,-0.66 0.36,-1.455 0.09,-0.795 0.09,-1.515 0,-0.81 -0.105,-1.605 -0.105,-0.81 -0.39,-1.44 -0.285,-0.645 -0.765,-1.035 -0.48,-0.405 -1.215,-0.405 -0.795,0 -1.29,0.435 -0.48,0.435 -0.75,1.095 -0.27,0.66 -0.375,1.455 -0.09,0.78 -0.09,1.5 0,0.825 0.105,1.635 0.105,0.795 0.39,1.44 0.285,0.63 0.765,1.02 0.495,0.39 1.245,0.39 z"
         style=""
         id="path4282" />
      <path
         d="m 2494.2578,1672.8378 0,-8.595 -1.785,0 0,-0.6 q 0.795,0 1.35,-0.27 0.555,-0.285 0.81,-1.035 l 0.675,0 0,10.5 -1.05,0 z"
         style=""
         id="path4284" />
      <path
         d="m 2501.3676,1672.0728 q 0.495,0 0.915,-0.15 0.435,-0.165 0.75,-0.465 0.315,-0.3 0.495,-0.735 0.18,-0.435 0.18,-0.99 0,-0.465 -0.165,-0.885 -0.165,-0.42 -0.48,-0.735 -0.3,-0.33 -0.735,-0.51 -0.435,-0.195 -0.96,-0.195 -0.525,0 -0.96,0.195 -0.435,0.18 -0.75,0.51 -0.3,0.315 -0.465,0.735 -0.165,0.42 -0.165,0.885 0,0.555 0.18,0.99 0.18,0.435 0.495,0.735 0.315,0.3 0.735,0.465 0.435,0.15 0.93,0.15 z m 0,-9.915 q 0.63,0 1.17,0.225 0.555,0.21 0.945,0.585 0.39,0.375 0.615,0.87 0.225,0.495 0.225,1.035 0,0.675 -0.345,1.275 -0.33,0.585 -1.05,0.885 0.84,0.315 1.35,1.095 0.525,0.765 0.525,1.755 0,0.66 -0.255,1.245 -0.255,0.57 -0.72,0.99 -0.465,0.42 -1.095,0.66 -0.63,0.24 -1.365,0.24 -0.75,0 -1.38,-0.24 -0.615,-0.24 -1.08,-0.66 -0.465,-0.42 -0.72,-0.99 -0.255,-0.585 -0.255,-1.245 0,-0.495 0.135,-0.945 0.135,-0.45 0.375,-0.81 0.255,-0.375 0.6,-0.66 0.345,-0.285 0.75,-0.435 -0.675,-0.3 -1.035,-0.885 -0.345,-0.6 -0.345,-1.275 0,-0.54 0.225,-1.035 0.225,-0.495 0.615,-0.87 0.39,-0.375 0.93,-0.585 0.555,-0.225 1.185,-0.225 z m 0,4.56 q 0.87,0 1.38,-0.48 0.51,-0.48 0.51,-1.23 0,-0.885 -0.54,-1.395 -0.54,-0.51 -1.35,-0.51 -0.81,0 -1.35,0.51 -0.54,0.51 -0.54,1.395 0,0.75 0.51,1.23 0.51,0.48 1.38,0.48 z"
         style=""
         id="path4286" />
    </g>
  </g>
</svg>
