<?xml version="1.0" encoding="UTF-8" standalone="no"?>
<!-- Created with Inkscape (http://www.inkscape.org/) -->

<svg
   xmlns:dc="http://purl.org/dc/elements/1.1/"
   xmlns:cc="http://creativecommons.org/ns#"
   xmlns:rdf="http://www.w3.org/1999/02/22-rdf-syntax-ns#"
   xmlns:svg="http://www.w3.org/2000/svg"
   xmlns="http://www.w3.org/2000/svg"
   xmlns:sodipodi="http://sodipodi.sourceforge.net/DTD/sodipodi-0.dtd"
   xmlns:inkscape="http://www.inkscape.org/namespaces/inkscape"
   width="657.30475"
   height="285.06781"
   viewBox="0 0 657.30474 285.06781"
   id="svg2"
   version="1.1"
   inkscape:version="0.92.4 (5da689c313, 2019-01-14)"
   sodipodi:docname="CHS.svg"
   inkscape:export-filename="C:\Users\Paul Bogard\Dropbox\Documents\Websites\Flight Log\Images\Terminals\CHS.png"
   inkscape:export-xdpi="89.996498"
   inkscape:export-ydpi="89.996498">
  <defs
     id="defs4" />
  <sodipodi:namedview
     id="base"
     pagecolor="#ffffff"
     bordercolor="#666666"
     borderopacity="1.0"
     inkscape:pageopacity="1"
     inkscape:pageshadow="2"
     inkscape:zoom="1"
     inkscape:cx="-77.10366"
     inkscape:cy="59.948025"
     inkscape:document-units="px"
     inkscape:current-layer="layer1"
     showgrid="false"
     units="px"
     fit-margin-top="25"
     fit-margin-left="25"
     fit-margin-right="25"
     fit-margin-bottom="25"
     inkscape:window-width="1920"
     inkscape:window-height="1137"
     inkscape:window-x="1912"
     inkscape:window-y="-8"
     inkscape:window-maximized="1" />
  <metadata
     id="metadata7">
    <rdf:RDF>
      <cc:Work
         rdf:about="">
        <dc:format>image/svg+xml</dc:format>
        <dc:type
           rdf:resource="http://purl.org/dc/dcmitype/StillImage" />
        <dc:title />
      </cc:Work>
    </rdf:RDF>
  </metadata>
  <g
     inkscape:groupmode="layer"
     id="layer2"
     inkscape:label="Terminal"
     style="display:inline"
     transform="translate(-963.58217,-745.2842)">
    <path
       id="path3345"
       style="fill:#dddddd;fill-opacity:1;fill-rule:evenodd;stroke:#222222;stroke-width:1.5;stroke-linecap:butt;stroke-linejoin:miter;stroke-miterlimit:4;stroke-dasharray:none;stroke-opacity:1"
       d="m 1238.0897,971.93339 7.2489,3.4055 -12.3571,29.01971 -78.9612,-34.91051 -62.2998,-1.16962 -76.0944,30.75427 -2.5113,-5.26333 -9.3226,-23.59891 3.8873,-1.47921 -3.3564,-8.58939 21.6037,-8.53138 -2.704,-7.24183 23.5037,-9.0601 -21.0572,-55.03932 -2.3737,0.89442 -6.5705,-16.92517 3.4744,-1.37603 0.4128,0.79122 0.5849,-0.24081 -31.64018,-79.15136 32.44958,-12.96522 29.188,71.09773 0.5858,-0.21468 -0.4136,-1.1676 3.3812,-1.28923 25.298,63.97475 16.189,0.25287 0.1088,-3.51242 52.396,0.6811 -0.055,3.73037 16.6861,0.22299 20.8812,-47.50742 3.5089,1.58243 -0.3096,0.79122 0.6192,0.3096 10.5266,-24.04612 32.6119,14.68912 -13.9266,31.25431 2.4568,1.1676 -11.1651,25.8818 5.5461,2.7244 0.4378,-0.82705 8.6111,3.94065 -16.2475,35.54574 32.2163,14.44833 z"
       inkscape:connector-curvature="0"
       sodipodi:nodetypes="cccccccccccccccccccccccccccccccccccccccccccccc" />
  </g>
  <g
     inkscape:groupmode="layer"
     id="layer1"
     inkscape:label="Label"
     transform="translate(0.84838832,0.84600968)">
    <g
       id="text4153"
       style="font-style:normal;font-variant:normal;font-weight:bold;font-stretch:normal;font-size:125px;line-height:110.00000238%;font-family:Overpass;-inkscape-font-specification:'Overpass, Bold';text-align:start;letter-spacing:0px;word-spacing:0px;writing-mode:lr-tb;text-anchor:start;fill:#dddddd;fill-opacity:1;stroke:#222222;stroke-width:0.25;stroke-linecap:butt;stroke-linejoin:miter;stroke-opacity:1;stroke-miterlimit:4;stroke-dasharray:none"
       transform="translate(296.795,226.5506)">
      <path
         inkscape:connector-curvature="0"
         id="path4252"
         d="m 104.06688,-88.500694 q -6.835938,0 -12.207032,-1.831055 -5.371094,-1.831055 -9.460449,-5.065918 -4.089356,-3.234863 -6.958008,-7.568363 -2.868652,-4.33349 -4.699707,-9.33838 -1.77002,-5.06591 -2.624512,-10.49804 -0.793457,-5.43213 -0.793457,-10.86426 0,-5.00488 0.854492,-10.25391 0.854493,-5.31005 2.624512,-10.31494 1.831055,-5.00488 4.699707,-9.46045 2.929688,-4.45556 6.958008,-7.8125 4.089355,-3.35693 9.460449,-5.31006 5.371094,-1.95312 12.145997,-1.95312 6.28662,0 11.41357,1.70898 5.12696,1.70899 9.03321,4.51661 3.90625,2.74658 6.59179,6.28662 2.74659,3.54004 4.21143,7.20215 l -15.13672,6.89697 q -1.58691,-2.44141 -3.23486,-4.39453 -1.64795,-1.95313 -3.54004,-3.23487 -1.89209,-1.34277 -4.21143,-2.01416 -2.2583,-0.73242 -5.12695,-0.73242 -3.66211,0 -6.530762,1.28174 -2.868653,1.2207 -5.004883,3.35693 -2.136231,2.13623 -3.601074,5.00489 -1.464844,2.86865 -2.380372,6.10351 -0.915527,3.17383 -1.342773,6.5918 -0.366211,3.35693 -0.366211,6.53076 0,5.12695 1.098633,10.25391 1.098633,5.12695 3.417969,9.27734 2.319336,4.15039 5.92041,6.7749 3.662109,2.56348 8.789063,2.56348 2.68555,0 4.94385,-0.79346 2.2583,-0.85449 4.15039,-2.31933 1.95312,-1.46485 3.60107,-3.54004 1.70899,-2.0752 3.17383,-4.57764 l 15.50293,5.85938 q -2.0752,4.82177 -5.00488,8.85009 -2.92969,3.967288 -6.83594,6.83594 -3.84522,2.807618 -8.72803,4.394532 -4.88281,1.586914 -10.80322,1.586914 z"
         style="stroke:#222222;stroke-opacity:1;stroke-width:0.25;stroke-miterlimit:4;stroke-dasharray:none" />
      <path
         inkscape:connector-curvature="0"
         id="path4254"
         d="m 206.48387,-89.904503 0,-36.987307 -36.62109,0 0,36.987307 -16.90674,0 0,-87.524417 16.90674,0 0,34.5459 36.62109,0 0,-34.5459 16.8457,0 0,87.524417 -16.8457,0 z"
         style="stroke:#222222;stroke-opacity:1;stroke-width:0.25;stroke-miterlimit:4;stroke-dasharray:none" />
      <path
         inkscape:connector-curvature="0"
         id="path4256"
         d="m 287.96581,-153.62521 q -0.79346,-1.95312 -2.13624,-3.66211 -1.34277,-1.70898 -3.23486,-2.92968 -1.83105,-1.28174 -4.27246,-1.95313 -2.38037,-0.73242 -5.31006,-0.73242 -5.49316,0 -8.60596,2.19727 -3.05175,2.19726 -3.05175,6.16455 0,2.62451 1.95312,4.39453 1.95313,1.77002 5.12696,3.23486 3.17382,1.40381 7.20214,2.68555 4.08936,1.28174 8.36182,2.86865 4.27246,1.52588 8.30078,3.66211 4.08936,2.0752 7.26318,5.18799 3.17383,3.05176 5.12696,7.32422 1.95312,4.21142 1.95312,10.13183 0,6.40869 -2.4414,11.35254 -2.44141,4.943849 -6.71387,8.361818 -4.21143,3.417969 -10.00977,5.187989 -5.79834,1.770019 -12.5122,1.770019 -6.16455,0 -11.53565,-1.647949 -5.37109,-1.708985 -9.76562,-4.821778 -4.3335,-3.112792 -7.56836,-7.568359 -3.23487,-4.45557 -5.12696,-10.00977 l 15.38086,-5.7373 q 1.40381,3.05176 3.35694,5.61523 2.01416,2.50245 4.45556,4.3335 2.44141,1.77002 5.24903,2.80762 2.86865,0.97656 6.10351,0.97656 3.17383,0 5.73731,-0.67139 2.62451,-0.67138 4.45556,-2.01416 1.89209,-1.34277 2.86866,-3.2959 1.03759,-2.01416 1.03759,-4.63867 0,-3.17383 -1.95312,-5.31006 -1.95313,-2.19726 -5.12695,-3.78418 -3.17383,-1.64794 -7.26319,-2.92968 -4.02832,-1.34278 -8.30078,-2.80762 -4.21142,-1.46484 -8.30078,-3.41797 -4.02832,-1.95312 -7.20215,-4.82178 -3.17383,-2.86865 -5.12695,-6.89697 -1.95313,-4.02832 -1.95313,-9.76562 0,-4.94385 1.95313,-9.27735 2.01416,-4.39453 5.79834,-7.69043 3.78418,-3.2959 9.27734,-5.18799 5.49317,-1.95312 12.57324,-1.95312 5.92041,0 10.68116,1.52588 4.82177,1.52588 8.48388,4.27246 3.66211,2.68555 6.16455,6.40869 2.50245,3.66211 3.78418,8.05664 l -15.13671,5.00488 z"
         style="stroke:#222222;stroke-opacity:1;stroke-width:0.25;stroke-miterlimit:4;stroke-dasharray:none" />
    </g>
    <g
       id="text4164"
       style="font-style:normal;font-variant:normal;font-weight:normal;font-stretch:normal;font-size:45px;line-height:110.00000238%;font-family:Overpass;-inkscape-font-specification:'Overpass, Normal';text-align:center;letter-spacing:0px;word-spacing:0px;writing-mode:lr-tb;text-anchor:middle;fill:#000000;fill-opacity:1;stroke:none;stroke-width:1px;stroke-linecap:butt;stroke-linejoin:miter;stroke-opacity:1"
       transform="translate(2,3.9739126)">
      <path
         inkscape:connector-curvature="0"
         id="path4180"
         d="m 381.8465,182.24504 q -2.43897,0 -4.37256,-0.65918 -1.91162,-0.68115 -3.36182,-1.82373 -1.45019,-1.16455 -2.48291,-2.72461 -1.01074,-1.58203 -1.64795,-3.38379 -0.6372,-1.82373 -0.94482,-3.77929 -0.28565,-1.97754 -0.28565,-3.93311 0,-1.80176 0.28565,-3.71338 0.30762,-1.91162 0.94482,-3.71338 0.65918,-1.82373 1.6919,-3.42773 1.03271,-1.60401 2.48291,-2.8125 1.45019,-1.2085 3.36181,-1.91162 1.91162,-0.70313 4.32862,-0.70313 2.21923,0 3.99902,0.54932 1.77979,0.52734 3.09814,1.40625 1.34034,0.8789 2.24122,1.99951 0.90087,1.12061 1.38427,2.28516 l -4.28467,1.99951 q -0.57128,-0.90088 -1.20849,-1.58203 -0.61524,-0.70313 -1.38428,-1.18653 -0.74707,-0.4834 -1.69189,-0.72509 -0.94483,-0.2417 -2.15332,-0.2417 -1.58203,0 -2.8125,0.50537 -1.2085,0.50537 -2.13135,1.38427 -0.90088,0.87891 -1.53809,2.04346 -0.6372,1.16455 -1.03271,2.48291 -0.37354,1.29639 -0.54932,2.68067 -0.17578,1.38427 -0.17578,2.68066 0,2.0874 0.46143,4.19678 0.48339,2.10937 1.49414,3.80127 1.01074,1.69189 2.5708,2.74658 1.56006,1.05469 3.71338,1.05469 1.16455,0 2.0874,-0.28565 0.94482,-0.30762 1.71387,-0.83496 0.79101,-0.54932 1.40625,-1.29639 0.6372,-0.74707 1.18652,-1.64795 l 4.37256,1.66993 q -0.65918,1.53808 -1.64795,2.8125 -0.9668,1.27441 -2.30713,2.17529 -1.31836,0.90088 -3.03223,1.40625 -1.69189,0.50537 -3.77929,0.50537 z" />
      <path
         inkscape:connector-curvature="0"
         id="path4182"
         d="m 412.69611,181.69572 0,-13.73291 q 0,-1.45019 -0.35157,-2.46093 -0.35156,-1.03272 -0.96679,-1.66993 -0.61524,-0.65917 -1.4502,-0.94482 -0.83496,-0.30762 -1.82373,-0.30762 -1.05469,0 -1.95557,0.28565 -0.90087,0.26367 -1.56005,0.8789 -0.65918,0.61524 -1.05469,1.64795 -0.37354,1.01075 -0.37354,2.48291 l 0,13.8208 -4.68017,0 0,-30.32226 4.68017,-2.17529 0,11.71142 q 1.12061,-1.42822 2.5708,-2.0874 1.4502,-0.65918 3.36182,-0.65918 1.80176,0 3.31787,0.52734 1.51611,0.50537 2.61475,1.66993 1.1206,1.16455 1.73584,3.03222 0.61523,1.86768 0.61523,4.57031 l 0,13.73291 -4.68017,0 z" />
      <path
         inkscape:connector-curvature="0"
         id="path4184"
         d="m 441.50226,181.69572 -4.48242,0 0,-1.97753 q -0.43946,0.46142 -1.05469,0.92285 -0.61524,0.43945 -1.40625,0.81299 -0.76904,0.35156 -1.73584,0.57128 -0.9668,0.21973 -2.10938,0.21973 -1.75781,0 -3.25195,-0.4834 -1.49414,-0.4834 -2.59277,-1.45019 -1.09864,-0.98877 -1.73584,-2.417 -0.61524,-1.45019 -0.61524,-3.36181 0,-1.97754 0.74707,-3.40576 0.74707,-1.4502 1.97754,-2.37305 1.23047,-0.94482 2.8125,-1.38428 1.60401,-0.43945 3.2959,-0.43945 1.58203,0 3.03223,0.35156 1.47217,0.32959 2.63672,1.01074 l 0,-1.27441 q 0,-1.29639 -0.30762,-2.19727 -0.28565,-0.90087 -0.90088,-1.45019 -0.59326,-0.57129 -1.51611,-0.81299 -0.92285,-0.26367 -2.19727,-0.26367 -2.15332,0 -3.73535,0.57129 -1.56006,0.57129 -2.83447,1.51611 l -1.38428,-3.84521 q 0.70312,-0.4834 1.604,-0.90088 0.90088,-0.43946 1.97754,-0.76905 1.07666,-0.32959 2.3291,-0.50537 1.25245,-0.19775 2.68067,-0.19775 0.9668,0 1.99951,0.10986 1.03272,0.10987 1.99951,0.43946 0.98877,0.30761 1.84571,0.90087 0.8789,0.59327 1.51611,1.56006 0.65918,0.94483 1.03271,2.32911 0.37354,1.38427 0.37354,3.29589 l 0,14.89746 z m -9.93164,-3.60351 q 1.77978,0 3.14209,-0.7251 1.38427,-0.7251 2.30713,-1.73584 l 0,-3.51562 q -0.9668,-0.50537 -2.26319,-0.81299 -1.29638,-0.30762 -2.65869,-0.30762 -1.05469,0 -1.97754,0.19775 -0.92285,0.19776 -1.62597,0.63721 -0.68116,0.41748 -1.07666,1.09863 -0.39551,0.65918 -0.39551,1.60401 0,1.64795 1.14258,2.61474 1.16455,0.94483 3.40576,0.94483 z" />
      <path
         inkscape:connector-curvature="0"
         id="path4186"
         d="m 447.87433,181.69572 0,-23.00537 4.68017,0 0,2.79053 q 0.81299,-1.75781 2.10938,-2.52685 1.29639,-0.79102 3.01025,-0.79102 2.28516,0 3.86719,1.38428 l -0.68115,4.32861 q -0.63721,-0.43945 -1.51611,-0.76904 -0.85694,-0.35157 -2.10938,-0.35157 -0.79102,0 -1.62598,0.28565 -0.81298,0.26367 -1.49414,0.9668 -0.68115,0.68115 -1.1206,1.8457 -0.43946,1.14258 -0.43946,2.92236 l 0,12.91992 -4.68017,0 z" />
      <path
         inkscape:connector-curvature="0"
         id="path4188"
         d="m 466.28741,181.69572 0,-30.27832 4.68018,-2.21923 0,32.49755 -4.68018,0 z" />
      <path
         inkscape:connector-curvature="0"
         id="path4190"
         d="m 487.24933,182.24504 q -2.39502,0 -4.32861,-0.81299 -1.9336,-0.83496 -3.2959,-2.37304 -1.36231,-1.56006 -2.10938,-3.80127 -0.7251,-2.24121 -0.7251,-5.07569 0,-2.83447 0.74707,-5.05371 0.74707,-2.24121 2.10938,-3.7793 1.38428,-1.56005 3.2959,-2.37304 1.93359,-0.81299 4.30664,-0.81299 2.04346,0 3.82324,0.65918 1.80176,0.63721 3.14209,1.97754 1.36231,1.31836 2.13135,3.33984 0.79101,2.02149 0.79101,4.76807 0,0.74707 -0.0439,1.58203 -0.022,0.83496 -0.13184,1.4502 l -15.49072,0 q 0.022,1.42822 0.50537,2.5708 0.50537,1.1206 1.31836,1.93359 0.81299,0.79102 1.8457,1.23047 1.03272,0.41748 2.15332,0.41748 1.42823,0 2.63672,-0.59326 1.23047,-0.59326 2.13135,-1.73584 l 3.0542,3.14209 q -1.25244,1.49414 -3.20801,2.41699 -1.95556,0.92285 -4.6582,0.92285 z m 0,-19.95117 q -1.09863,0 -2.10938,0.32959 -1.01074,0.30762 -1.80175,1.01074 -0.76905,0.68115 -1.27442,1.80176 -0.50537,1.1206 -0.59326,2.72461 l 10.98633,0 q -0.0439,-1.60401 -0.50537,-2.72461 -0.46143,-1.12061 -1.2085,-1.80176 -0.74707,-0.70312 -1.66992,-1.01074 -0.90088,-0.32959 -1.82373,-0.32959 z" />
      <path
         inkscape:connector-curvature="0"
         id="path4192"
         d="m 509.63947,182.24504 q -1.36231,0 -2.6587,-0.26367 -1.29638,-0.26367 -2.43896,-0.74707 -1.12061,-0.4834 -2.04346,-1.16455 -0.92285,-0.70313 -1.53808,-1.56006 l 3.31787,-2.83447 q 0.35156,0.32959 0.85693,0.74707 0.50537,0.3955 1.16455,0.74707 0.65918,0.35156 1.47217,0.59326 0.81299,0.2417 1.77978,0.2417 0.87891,0 1.62598,-0.13184 0.74707,-0.13183 1.27442,-0.41748 0.54931,-0.28564 0.83496,-0.74707 0.30761,-0.4834 0.30761,-1.18652 0,-0.81299 -0.57129,-1.38428 -0.54931,-0.59326 -1.45019,-1.05469 -0.90088,-0.4834 -2.04346,-0.90088 -1.14258,-0.43945 -2.30713,-0.92285 -1.07666,-0.46142 -2.10937,-1.01074 -1.03272,-0.54932 -1.8457,-1.31836 -0.79102,-0.76904 -1.29639,-1.82373 -0.4834,-1.07666 -0.4834,-2.59277 0,-1.53809 0.61523,-2.72461 0.63721,-1.18653 1.71387,-1.97754 1.09863,-0.81299 2.54883,-1.23047 1.47217,-0.41748 3.14209,-0.41748 1.47217,0 2.70264,0.28564 1.25244,0.28565 2.24121,0.76905 1.01074,0.4834 1.77978,1.1206 0.76905,0.61524 1.34033,1.29639 l -3.38378,2.68066 q -0.30762,-0.30761 -0.74708,-0.6372 -0.41748,-0.35157 -0.98876,-0.63721 -0.57129,-0.28565 -1.29639,-0.46143 -0.7251,-0.19775 -1.64795,-0.19775 -1.49414,0 -2.37305,0.54932 -0.85693,0.54931 -0.85693,1.58203 0,0.65918 0.46142,1.16455 0.46143,0.4834 1.25245,0.90088 0.79101,0.41748 1.80175,0.81299 1.03272,0.37353 2.15332,0.81298 1.18653,0.46143 2.32911,1.03272 1.14257,0.57129 2.02148,1.40625 0.90088,0.83496 1.42822,2.02148 0.54932,1.18653 0.54932,2.85645 0,1.64795 -0.61524,2.92236 -0.61523,1.25244 -1.75781,2.10938 -1.1206,0.83496 -2.72461,1.25244 -1.58203,0.43945 -3.53759,0.43945 z" />
      <path
         inkscape:connector-curvature="0"
         id="path4194"
         d="m 530.55743,182.24504 q -1.3623,0 -2.35107,-0.41748 -0.9668,-0.39551 -1.604,-1.14258 -0.61524,-0.74707 -0.90088,-1.80176 -0.28565,-1.07666 -0.28565,-2.37304 l 0,-13.75489 -3.55957,0 0,-4.06494 3.55957,0 0,-7.229 4.68018,-2.26318 0,9.49218 5.44922,0 0,4.06494 -5.44922,0 0,12.54639 q 0,0.57129 0.0879,1.05469 0.10986,0.4834 0.35156,0.83496 0.26367,0.35156 0.70313,0.54932 0.43945,0.17578 1.1206,0.17578 1.66992,0 3.40576,-1.07666 l -0.57129,4.35058 q -0.96679,0.4834 -2.10937,0.76905 -1.14258,0.28564 -2.52686,0.28564 z" />
      <path
         inkscape:connector-curvature="0"
         id="path4196"
         d="m 550.31085,182.24504 q -2.41699,0 -4.37256,-0.81299 -1.93359,-0.81299 -3.29589,-2.35107 -1.36231,-1.56006 -2.10938,-3.7793 -0.7251,-2.24121 -0.7251,-5.07568 0,-2.83447 0.7251,-5.07569 0.74707,-2.24121 2.10938,-3.77929 1.3623,-1.56006 3.29589,-2.37305 1.95557,-0.83496 4.37256,-0.83496 2.39502,0 4.35059,0.83496 1.95556,0.81299 3.31787,2.37305 1.3623,1.53808 2.10937,3.77929 0.74707,2.24122 0.74707,5.07569 0,2.83447 -0.74707,5.07568 -0.74707,2.21924 -2.10937,3.7793 -1.36231,1.53808 -3.31787,2.35107 -1.95557,0.81299 -4.35059,0.81299 z m 0,-4.4165 q 1.34033,0 2.41699,-0.52735 1.09864,-0.52734 1.84571,-1.49414 0.76904,-0.98877 1.16455,-2.39502 0.41748,-1.40625 0.41748,-3.18603 0,-1.77979 -0.41748,-3.18604 -0.39551,-1.42822 -1.16455,-2.41699 -0.74707,-0.98877 -1.84571,-1.51611 -1.07666,-0.52735 -2.41699,-0.52735 -1.34033,0 -2.41699,0.52735 -1.07666,0.52734 -1.8457,1.51611 -0.74707,0.98877 -1.16455,2.41699 -0.39551,1.40625 -0.39551,3.18604 0,1.77978 0.39551,3.18603 0.41748,1.40625 1.16455,2.39502 0.76904,0.9668 1.8457,1.49414 1.07666,0.52735 2.41699,0.52735 z" />
      <path
         inkscape:connector-curvature="0"
         id="path4198"
         d="m 580.65509,181.69572 0,-13.73291 q 0,-1.45019 -0.35156,-2.46093 -0.35156,-1.03272 -0.9668,-1.66993 -0.61523,-0.65917 -1.45019,-0.94482 -0.83497,-0.30762 -1.82373,-0.30762 -1.05469,0 -1.95557,0.28565 -0.90088,0.26367 -1.56006,0.8789 -0.65918,0.61524 -1.05469,1.64795 -0.37353,1.01075 -0.37353,2.48291 l 0,13.8208 -4.68018,0 0,-23.00537 4.68018,0 0,2.21924 q 1.1206,-1.42822 2.5708,-2.0874 1.45019,-0.65918 3.36181,-0.65918 1.80176,0 3.31788,0.52734 1.51611,0.50537 2.61474,1.66993 1.12061,1.16455 1.73584,3.03222 0.61524,1.86768 0.61524,4.57031 l 0,13.73291 -4.68018,0 z" />
      <path
         inkscape:connector-curvature="0"
         id="path4200"
         d="m 590.30109,186.92522 q 0.30761,-0.26368 0.72509,-0.76905 0.43946,-0.48339 0.85694,-1.1206 0.41748,-0.61524 0.7251,-1.34033 0.32959,-0.70313 0.43945,-1.4502 -0.59326,-0.0659 -1.14258,-0.30762 -0.54932,-0.2417 -0.9668,-0.65918 -0.3955,-0.41748 -0.65918,-0.96679 -0.2417,-0.54932 -0.2417,-1.23047 0,-0.76904 0.26368,-1.38428 0.28564,-0.63721 0.72509,-1.07666 0.46143,-0.46142 1.05469,-0.70312 0.61524,-0.2417 1.27442,-0.2417 0.70312,0 1.34033,0.26367 0.65918,0.2417 1.14258,0.74707 0.50537,0.50537 0.79101,1.27441 0.28565,0.76905 0.28565,1.80176 0,1.29639 -0.39551,2.52686 -0.37354,1.23046 -1.03272,2.28515 -0.65918,1.07666 -1.56006,1.95557 -0.8789,0.90088 -1.86767,1.51611 l -1.75781,-1.1206 z" />
      <path
         inkscape:connector-curvature="0"
         id="path4202"
         d="m 350.62335,206.85002 q -0.28564,-0.68115 -0.79101,-1.25244 -0.50537,-0.59326 -1.23047,-1.01074 -0.7251,-0.43945 -1.66992,-0.68115 -0.92286,-0.2417 -2.06543,-0.2417 -2.26319,0 -3.5376,0.98877 -1.27442,0.98877 -1.27442,2.79052 0,1.12061 0.70313,1.91163 0.70312,0.76904 1.8457,1.3623 1.14258,0.59326 2.59278,1.09863 1.47216,0.4834 2.98828,1.07666 1.53808,0.57129 2.98828,1.34033 1.47217,0.74708 2.61474,1.84571 1.14258,1.07666 1.84571,2.61474 0.70312,1.51612 0.70312,3.64747 0,2.26318 -0.83496,4.02099 -0.81299,1.73584 -2.26318,2.94434 -1.4502,1.18652 -3.42774,1.82373 -1.95556,0.61523 -4.21875,0.61523 -2.10937,0 -3.95507,-0.54931 -1.82373,-0.52735 -3.31788,-1.51612 -1.47216,-1.01074 -2.54882,-2.41699 -1.07666,-1.42822 -1.66993,-3.18604 l 4.41651,-1.604 q 0.4834,1.05469 1.18652,1.93359 0.7251,0.87891 1.64795,1.51612 0.92285,0.61523 2.02149,0.96679 1.1206,0.35157 2.39502,0.35157 1.27441,0 2.3291,-0.30762 1.05468,-0.30762 1.80175,-0.92285 0.74707,-0.61524 1.16456,-1.51611 0.41748,-0.92286 0.41748,-2.10938 0,-1.40625 -0.70313,-2.35107 -0.70312,-0.9668 -1.8457,-1.66993 -1.14258,-0.70312 -2.61475,-1.23046 -1.45019,-0.52735 -2.98828,-1.07666 -1.51611,-0.54932 -2.98828,-1.23047 -1.4502,-0.68116 -2.59277,-1.66993 -1.14258,-0.98876 -1.84571,-2.37304 -0.70312,-1.38428 -0.70312,-3.38379 0,-1.66992 0.65918,-3.16406 0.68115,-1.49414 1.95556,-2.61475 1.27442,-1.14258 3.14209,-1.80176 1.86768,-0.65918 4.2627,-0.65918 1.99951,0 3.62549,0.4834 1.62597,0.46143 2.83447,1.29639 1.23047,0.83496 2.04346,1.97754 0.81298,1.14258 1.23047,2.48291 l -4.32862,1.45019 z" />
      <path
         inkscape:connector-curvature="0"
         id="path4204"
         d="m 371.76105,231.74504 q -2.41699,0 -4.37256,-0.81299 -1.93359,-0.81298 -3.2959,-2.35107 -1.3623,-1.56006 -2.10937,-3.7793 -0.7251,-2.24121 -0.7251,-5.07568 0,-2.83447 0.7251,-5.07568 0.74707,-2.24122 2.10937,-3.7793 1.36231,-1.56006 3.2959,-2.37305 1.95557,-0.83496 4.37256,-0.83496 2.39502,0 4.35058,0.83496 1.95557,0.81299 3.31787,2.37305 1.36231,1.53808 2.10938,3.7793 0.74707,2.24121 0.74707,5.07568 0,2.83447 -0.74707,5.07568 -0.74707,2.21924 -2.10938,3.7793 -1.3623,1.53809 -3.31787,2.35107 -1.95556,0.81299 -4.35058,0.81299 z m 0,-4.4165 q 1.34033,0 2.41699,-0.52735 1.09863,-0.52734 1.8457,-1.49414 0.76905,-0.98877 1.16455,-2.39502 0.41748,-1.40625 0.41748,-3.18603 0,-1.77979 -0.41748,-3.18604 -0.3955,-1.42822 -1.16455,-2.41699 -0.74707,-0.98877 -1.8457,-1.51611 -1.07666,-0.52735 -2.41699,-0.52735 -1.34033,0 -2.41699,0.52735 -1.07666,0.52734 -1.84571,1.51611 -0.74707,0.98877 -1.16455,2.41699 -0.39551,1.40625 -0.39551,3.18604 0,1.77978 0.39551,3.18603 0.41748,1.40625 1.16455,2.39502 0.76905,0.9668 1.84571,1.49414 1.07666,0.52735 2.41699,0.52735 z" />
      <path
         inkscape:connector-curvature="0"
         id="path4206"
         d="m 401.88556,231.19573 0,-2.19727 q -1.12061,1.42822 -2.59277,2.0874 -1.4502,0.65918 -3.36182,0.65918 -1.80176,0 -3.31787,-0.52734 -1.51612,-0.50537 -2.63672,-1.66992 -1.09863,-1.18653 -1.71387,-3.0542 -0.61523,-1.86768 -0.61523,-4.57032 l 0,-13.73291 4.68017,0 0,13.73291 q 0,1.4502 0.35157,2.48291 0.35156,1.01075 0.96679,1.66993 0.61524,0.65918 1.4502,0.96679 0.83496,0.28565 1.82373,0.28565 1.05469,0 1.95557,-0.26367 0.90087,-0.28565 1.56005,-0.90088 0.68116,-0.63721 1.05469,-1.64795 0.39551,-1.01074 0.39551,-2.50488 l 0,-13.82081 4.68017,0 0,23.00538 -4.68017,0 z" />
      <path
         inkscape:connector-curvature="0"
         id="path4208"
         d="m 419.94708,231.74504 q -1.3623,0 -2.35107,-0.41748 -0.9668,-0.39551 -1.60401,-1.14258 -0.61523,-0.74707 -0.90087,-1.80175 -0.28565,-1.07666 -0.28565,-2.37305 l 0,-13.75488 -3.55957,0 0,-4.06495 3.55957,0 0,-7.229 4.68018,-2.26318 0,9.49218 5.44922,0 0,4.06495 -5.44922,0 0,12.54638 q 0,0.57129 0.0879,1.05469 0.10986,0.4834 0.35156,0.83496 0.26367,0.35156 0.70312,0.54932 0.43946,0.17578 1.12061,0.17578 1.66992,0 3.40576,-1.07666 l -0.57129,4.35058 q -0.96679,0.4834 -2.10937,0.76905 -1.14258,0.28564 -2.52686,0.28564 z" />
      <path
         inkscape:connector-curvature="0"
         id="path4210"
         d="m 444.55646,231.19573 0,-13.73291 q 0,-1.4502 -0.35156,-2.46094 -0.35157,-1.03272 -0.9668,-1.66992 -0.61524,-0.65918 -1.4502,-0.94483 -0.83496,-0.30762 -1.82373,-0.30762 -1.05469,0 -1.95556,0.28565 -0.90088,0.26367 -1.56006,0.87891 -0.65918,0.61523 -1.05469,1.64794 -0.37354,1.01075 -0.37354,2.48291 l 0,13.82081 -4.68017,0 0,-30.32227 4.68017,-2.17529 0,11.71142 q 1.12061,-1.42822 2.57081,-2.0874 1.45019,-0.65918 3.36181,-0.65918 1.80176,0 3.31787,0.52734 1.51612,0.50538 2.61475,1.66993 1.1206,1.16455 1.73584,3.03222 0.61523,1.86768 0.61523,4.57032 l 0,13.73291 -4.68017,0 z" />
      <path
         inkscape:connector-curvature="0"
         id="path4212"
         d="m 478.74591,231.74504 q -2.43896,0 -4.37256,-0.65918 -1.91162,-0.68115 -3.36181,-1.82373 -1.4502,-1.16455 -2.48291,-2.72461 -1.01075,-1.58203 -1.64795,-3.38379 -0.63721,-1.82373 -0.94483,-3.77929 -0.28564,-1.97754 -0.28564,-3.93311 0,-1.80176 0.28564,-3.71338 0.30762,-1.91162 0.94483,-3.71338 0.65918,-1.82373 1.69189,-3.42773 1.03272,-1.60401 2.48291,-2.8125 1.4502,-1.2085 3.36182,-1.91162 1.91162,-0.70313 4.32861,-0.70313 2.21924,0 3.99902,0.54932 1.77979,0.52734 3.09815,1.40625 1.34033,0.87891 2.24121,1.99951 0.90088,1.12061 1.38428,2.28516 l -4.28467,1.99951 q -0.57129,-0.90088 -1.2085,-1.58203 -0.61523,-0.70313 -1.38427,-1.18653 -0.74707,-0.48339 -1.6919,-0.72509 -0.94482,-0.2417 -2.15332,-0.2417 -1.58203,0 -2.8125,0.50537 -1.2085,0.50537 -2.13135,1.38428 -0.90088,0.8789 -1.53808,2.04345 -0.63721,1.16455 -1.03272,2.48291 -0.37353,1.29639 -0.54931,2.68067 -0.17579,1.38427 -0.17579,2.68066 0,2.0874 0.46143,4.19678 0.4834,2.10937 1.49414,3.80127 1.01074,1.69189 2.5708,2.74658 1.56006,1.05469 3.71338,1.05469 1.16455,0 2.0874,-0.28565 0.94483,-0.30761 1.71387,-0.83496 0.79102,-0.54931 1.40625,-1.29638 0.63721,-0.74708 1.18652,-1.64795 l 4.37256,1.66992 q -0.65918,1.53808 -1.64795,2.8125 -0.96679,1.27441 -2.30713,2.17529 -1.31836,0.90088 -3.03222,1.40625 -1.6919,0.50537 -3.7793,0.50537 z" />
      <path
         inkscape:connector-curvature="0"
         id="path4214"
         d="m 513.00128,231.19573 -4.48242,0 0,-1.97754 q -0.43945,0.46142 -1.05469,0.92285 -0.61523,0.43945 -1.40625,0.81299 -0.76904,0.35156 -1.73584,0.57129 -0.96679,0.21972 -2.10937,0.21972 -1.75781,0 -3.25196,-0.4834 -1.49414,-0.48339 -2.59277,-1.45019 -1.09863,-0.98877 -1.73584,-2.41699 -0.61523,-1.4502 -0.61523,-3.36182 0,-1.97754 0.74707,-3.40576 0.74707,-1.4502 1.97754,-2.37305 1.23046,-0.94482 2.8125,-1.38428 1.604,-0.43945 3.29589,-0.43945 1.58204,0 3.03223,0.35156 1.47217,0.32959 2.63672,1.01075 l 0,-1.27442 q 0,-1.29639 -0.30762,-2.19726 -0.28564,-0.90088 -0.90088,-1.4502 -0.59326,-0.57129 -1.51611,-0.81299 -0.92285,-0.26367 -2.19727,-0.26367 -2.15332,0 -3.73535,0.57129 -1.56006,0.57129 -2.83447,1.51611 l -1.38428,-3.84521 q 0.70313,-0.4834 1.60401,-0.90088 0.90088,-0.43945 1.97754,-0.76904 1.07666,-0.32959 2.3291,-0.50538 1.25244,-0.19775 2.68066,-0.19775 0.9668,0 1.99951,0.10986 1.03272,0.10987 1.99952,0.43946 0.98876,0.30761 1.8457,0.90088 0.8789,0.59326 1.51611,1.56005 0.65918,0.94483 1.03272,2.32911 0.37353,1.38427 0.37353,3.29589 l 0,14.89747 z m -9.93164,-3.60352 q 1.77979,0 3.14209,-0.7251 1.38428,-0.7251 2.30713,-1.73584 l 0,-3.51562 q -0.9668,-0.50537 -2.26318,-0.81299 -1.29639,-0.30762 -2.6587,-0.30762 -1.05468,0 -1.97753,0.19776 -0.92286,0.19775 -1.62598,0.6372 -0.68115,0.41748 -1.07666,1.09864 -0.39551,0.65918 -0.39551,1.604 0,1.64795 1.14258,2.61475 1.16455,0.94482 3.40576,0.94482 z" />
      <path
         inkscape:connector-curvature="0"
         id="path4216"
         d="m 519.37335,231.19573 0,-23.00538 4.68018,0 0,2.79053 q 0.81299,-1.75781 2.10937,-2.52685 1.29639,-0.79102 3.01026,-0.79102 2.28515,0 3.86718,1.38428 l -0.68115,4.32861 q -0.63721,-0.43945 -1.51611,-0.76904 -0.85693,-0.35156 -2.10938,-0.35156 -0.79101,0 -1.62597,0.28564 -0.81299,0.26367 -1.49414,0.9668 -0.68116,0.68115 -1.12061,1.8457 -0.43945,1.14258 -0.43945,2.92236 l 0,12.91993 -4.68018,0 z" />
      <path
         inkscape:connector-curvature="0"
         id="path4218"
         d="m 546.92706,231.74504 q -2.41699,0 -4.37256,-0.81299 -1.93359,-0.81298 -3.29589,-2.35107 -1.36231,-1.56006 -2.10938,-3.7793 -0.7251,-2.24121 -0.7251,-5.07568 0,-2.83447 0.7251,-5.07568 0.74707,-2.24122 2.10938,-3.7793 1.3623,-1.56006 3.29589,-2.37305 1.95557,-0.83496 4.37256,-0.83496 2.39502,0 4.35059,0.83496 1.95557,0.81299 3.31787,2.37305 1.3623,1.53808 2.10938,3.7793 0.74707,2.24121 0.74707,5.07568 0,2.83447 -0.74707,5.07568 -0.74708,2.21924 -2.10938,3.7793 -1.3623,1.53809 -3.31787,2.35107 -1.95557,0.81299 -4.35059,0.81299 z m 0,-4.4165 q 1.34034,0 2.417,-0.52735 1.09863,-0.52734 1.8457,-1.49414 0.76904,-0.98877 1.16455,-2.39502 0.41748,-1.40625 0.41748,-3.18603 0,-1.77979 -0.41748,-3.18604 -0.39551,-1.42822 -1.16455,-2.41699 -0.74707,-0.98877 -1.8457,-1.51611 -1.07666,-0.52735 -2.417,-0.52735 -1.34033,0 -2.41699,0.52735 -1.07666,0.52734 -1.8457,1.51611 -0.74707,0.98877 -1.16455,2.41699 -0.39551,1.40625 -0.39551,3.18604 0,1.77978 0.39551,3.18603 0.41748,1.40625 1.16455,2.39502 0.76904,0.9668 1.8457,1.49414 1.07666,0.52735 2.41699,0.52735 z" />
      <path
         inkscape:connector-curvature="0"
         id="path4220"
         d="m 563.27472,231.19573 0,-30.27832 4.68018,-2.21924 0,32.49756 -4.68018,0 z" />
      <path
         inkscape:connector-curvature="0"
         id="path4222"
         d="m 574.96417,231.19573 0,-23.00538 4.68018,0 0,23.00538 -4.68018,0 z m 2.3291,-26.58692 q -0.59326,0 -1.1206,-0.21973 -0.50537,-0.21972 -0.90088,-0.59326 -0.37354,-0.3955 -0.59326,-0.90088 -0.21973,-0.52734 -0.21973,-1.1206 0,-0.59326 0.21973,-1.09863 0.21972,-0.52735 0.59326,-0.90088 0.39551,-0.39551 0.90088,-0.61524 0.52734,-0.21972 1.1206,-0.21972 0.59327,0 1.09864,0.21972 0.52734,0.21973 0.90088,0.61524 0.3955,0.37353 0.61523,0.90088 0.21973,0.50537 0.21973,1.09863 0,0.59326 -0.21973,1.1206 -0.21973,0.50538 -0.61523,0.90088 -0.37354,0.37354 -0.90088,0.59326 -0.50537,0.21973 -1.09864,0.21973 z" />
      <path
         inkscape:connector-curvature="0"
         id="path4224"
         d="m 600.65021,231.19573 0,-13.73291 q 0,-1.4502 -0.35156,-2.46094 -0.35157,-1.03272 -0.9668,-1.66992 -0.61524,-0.65918 -1.4502,-0.94483 -0.83496,-0.30762 -1.82373,-0.30762 -1.05469,0 -1.95556,0.28565 -0.90088,0.26367 -1.56006,0.87891 -0.65918,0.61523 -1.05469,1.64794 -0.37354,1.01075 -0.37354,2.48291 l 0,13.82081 -4.68017,0 0,-23.00538 4.68017,0 0,2.21924 q 1.12061,-1.42822 2.57081,-2.0874 1.45019,-0.65918 3.36181,-0.65918 1.80176,0 3.31787,0.52734 1.51612,0.50538 2.61475,1.66993 1.1206,1.16455 1.73584,3.03222 0.61523,1.86768 0.61523,4.57032 l 0,13.73291 -4.68017,0 z" />
      <path
         inkscape:connector-curvature="0"
         id="path4226"
         d="m 629.45636,231.19573 -4.48242,0 0,-1.97754 q -0.43946,0.46142 -1.05469,0.92285 -0.61523,0.43945 -1.40625,0.81299 -0.76904,0.35156 -1.73584,0.57129 -0.9668,0.21972 -2.10937,0.21972 -1.75782,0 -3.25196,-0.4834 -1.49414,-0.48339 -2.59277,-1.45019 -1.09863,-0.98877 -1.73584,-2.41699 -0.61524,-1.4502 -0.61524,-3.36182 0,-1.97754 0.74708,-3.40576 0.74707,-1.4502 1.97753,-2.37305 1.23047,-0.94482 2.8125,-1.38428 1.60401,-0.43945 3.2959,-0.43945 1.58203,0 3.03223,0.35156 1.47217,0.32959 2.63672,1.01075 l 0,-1.27442 q 0,-1.29639 -0.30762,-2.19726 -0.28564,-0.90088 -0.90088,-1.4502 -0.59326,-0.57129 -1.51611,-0.81299 -0.92285,-0.26367 -2.19727,-0.26367 -2.15332,0 -3.73535,0.57129 -1.56006,0.57129 -2.83447,1.51611 l -1.38428,-3.84521 q 0.70313,-0.4834 1.60401,-0.90088 0.90087,-0.43945 1.97753,-0.76904 1.07666,-0.32959 2.32911,-0.50538 1.25244,-0.19775 2.68066,-0.19775 0.9668,0 1.99951,0.10986 1.03272,0.10987 1.99951,0.43946 0.98877,0.30761 1.84571,0.90088 0.8789,0.59326 1.51611,1.56005 0.65918,0.94483 1.03271,2.32911 0.37354,1.38427 0.37354,3.29589 l 0,14.89747 z m -9.93164,-3.60352 q 1.77978,0 3.14209,-0.7251 1.38428,-0.7251 2.30713,-1.73584 l 0,-3.51562 q -0.9668,-0.50537 -2.26319,-0.81299 -1.29638,-0.30762 -2.65869,-0.30762 -1.05468,0 -1.97754,0.19776 -0.92285,0.19775 -1.62597,0.6372 -0.68115,0.41748 -1.07666,1.09864 -0.39551,0.65918 -0.39551,1.604 0,1.64795 1.14258,2.61475 1.16455,0.94482 3.40576,0.94482 z" />
    </g>
  </g>
</svg>
