<?xml version="1.0" encoding="UTF-8" standalone="no"?>
<!-- Created with Inkscape (http://www.inkscape.org/) -->

<svg
   xmlns:dc="http://purl.org/dc/elements/1.1/"
   xmlns:cc="http://creativecommons.org/ns#"
   xmlns:rdf="http://www.w3.org/1999/02/22-rdf-syntax-ns#"
   xmlns:svg="http://www.w3.org/2000/svg"
   xmlns="http://www.w3.org/2000/svg"
   xmlns:sodipodi="http://sodipodi.sourceforge.net/DTD/sodipodi-0.dtd"
   xmlns:inkscape="http://www.inkscape.org/namespaces/inkscape"
   width="532.59607"
   height="1049.1722"
   viewBox="0 0 532.59607 1049.1722"
   id="svg2"
   version="1.1"
   inkscape:version="0.92.4 (5da689c313, 2019-01-14)"
   sodipodi:docname="CLE.svg"
   inkscape:export-filename="C:\Users\paulb\Dropbox\Projects\Terminal Silhouettes\Silhouettes\png\CLE.png"
   inkscape:export-xdpi="90"
   inkscape:export-ydpi="90">
  <defs
     id="defs4" />
  <sodipodi:namedview
     id="base"
     pagecolor="#ffffff"
     bordercolor="#666666"
     borderopacity="1.0"
     inkscape:pageopacity="1"
     inkscape:pageshadow="2"
     inkscape:zoom="1"
     inkscape:cx="-51.86389"
     inkscape:cy="712.75531"
     inkscape:document-units="px"
     inkscape:current-layer="layer3"
     showgrid="false"
     inkscape:window-width="1920"
     inkscape:window-height="1137"
     inkscape:window-x="1912"
     inkscape:window-y="-8"
     inkscape:window-maximized="1"
     showguides="true"
     inkscape:guide-bbox="true"
     units="px"
     fit-margin-top="25"
     fit-margin-left="25"
     fit-margin-right="25"
     fit-margin-bottom="25"
     inkscape:snap-object-midpoints="false" />
  <metadata
     id="metadata7">
    <rdf:RDF>
      <cc:Work
         rdf:about="">
        <dc:format>image/svg+xml</dc:format>
        <dc:type
           rdf:resource="http://purl.org/dc/dcmitype/StillImage" />
        <dc:title />
        <dc:description>Terminal silhouette of CLE (Cleveland)</dc:description>
      </cc:Work>
    </rdf:RDF>
  </metadata>
  <g
     inkscape:groupmode="layer"
     id="layer2"
     inkscape:label="Terminal"
     transform="translate(-285.30635,-290.26679)">
    <path
       style="fill:#dddddd;fill-opacity:1;fill-rule:evenodd;stroke:#222222;stroke-width:1.5;stroke-linecap:butt;stroke-linejoin:miter;stroke-miterlimit:4;stroke-dasharray:none;stroke-opacity:1"
       d="m 661.45688,316.16993 -0.92758,4.96521 -18.42586,-3.44193 -2.28923,12.25628 -4.43948,-0.82951 -3.652,19.54518 4.43948,0.82951 -5.47263,29.2957 6.80522,1.27119 -1.4888,7.96975 6.93986,1.29598 -0.64854,3.47532 4.67974,0.87476 -10.11248,54.13034 -9.9035,-1.85077 -10.2062,54.63452 9.9035,1.84969 -3.24152,17.34752 -9.9035,-1.84969 -5.85182,31.3253 15.26839,2.85265 -5.21515,27.91676 -11.402,-2.12979 -1.99619,10.68452 -22.42369,-4.18956 -1.44467,7.72952 -5.98431,-1.11823 0.62807,-3.36113 -6.29887,-1.17747 -2.02531,10.83964 5.6676,1.05897 -1.09994,5.88737 -5.66761,-1.05897 -1.85288,9.91964 -16.34457,-3.05303 1.01803,-5.44998 -11.8609,-2.21598 0.72498,-3.88253 -12.26057,-2.29031 0.60435,-3.23402 -9.88192,-1.84646 -0.60436,3.23401 -40.7645,-7.6164 0.60436,-3.23294 -10.21695,-1.90895 -0.60436,3.23401 -49.25779,-9.20325 0.60435,-3.23293 -10.64359,-1.98866 -0.60435,3.23401 -22.52061,-4.20788 0.83056,-4.44595 -24.81525,-4.63556 -0.83061,4.44595 -0.72498,3.88254 -0.33613,1.79798 -3.37406,-0.63129 -1.96927,10.53693 3.37511,0.63129 -1.36707,7.32015 105.27337,19.66692 1.29818,-6.94849 25.68247,4.79823 -1.19795,6.41308 36.88084,6.89032 1.19795,-6.41309 4.48796,0.83813 -0.56878,3.04333 10.5089,1.96282 0.56878,-3.04226 9.3875,1.75383 0.31886,-1.70427 27.04635,5.05247 -1.08163,5.78717 -3.5852,-0.67007 -3.29216,17.62223 -2.02961,-0.3792 -1.28847,6.89355 23.71106,4.42979 1.48234,-7.93312 6.90433,1.28951 -24.1495,129.27098 -173.55817,177.26944 a 61.040057,61.040057 0 0 0 -30.52383,-10.46797 l -0.47937,7.3826 -1.82707,28.16454 a 25.376203,25.376203 0 0 0 -1.6407,-0.0819 25.376203,25.376203 0 0 0 -25.37653,25.37648 25.376203,25.376203 0 0 0 1.31969,7.974 l -26.81044,8.8877 a 53.632944,53.632944 0 0 0 50.86728,36.7709 53.632944,53.632944 0 0 0 53.63262,-53.6326 53.632944,53.632944 0 0 0 -9.66968,-30.61099 l 5.25607,-5.36815 11.7758,-12.02682 17.884,-18.2664 12.68826,12.42213 a 7.2467594,7.2467594 0 0 0 -0.446,2.47671 7.2467594,7.2467594 0 0 0 7.24691,7.24581 7.2467594,7.2467594 0 0 0 7.24691,-7.24581 7.2467594,7.2467594 0 0 0 -7.24691,-7.24691 7.2467594,7.2467594 0 0 0 -2.97114,0.64638 l -12.58164,-12.31876 128.53197,-131.28011 -4.08614,-4.00105 15.138,-15.46228 2.5241,0.47185 0.70457,-3.76942 1.05251,-5.6342 3.92558,-21.01137 4.43412,-23.73798 5.52756,1.03204 -4.43517,23.73906 19.44604,3.6326 20.95536,3.91486 23.55595,-126.08761 2.76215,0.70562 4.68079,-5.55771 5.16772,-8.38559 2.3151,-8.92531 -1.76784,-1.6267 71.6147,-73.14551 -4.81438,-4.7142 c 0,0 9.37376,-7.03421 11.62389,-24.10317 l -2.97004,-2.9076 -4.0226,4.10984 -12.41032,-12.15069 -38.63902,39.46526 -57.29323,-10.70283 12.65489,-67.7343 5.36484,1.00187 5.72899,-30.66708 4.36303,0.81444 1.64396,-8.7982 -4.36303,-0.81442 10.04458,-53.76946 4.36303,0.8155 1.72691,-9.2431 -4.36302,-0.81443 7.25226,-38.81889 -21.41746,-4.00104 z m -15.67127,224.5741 40.71491,7.60671 -46.01086,46.99548 -14.08445,-2.6318 0.013,-0.0722 -2.71692,-0.5074 4.12602,-22.08435 2.71686,0.50848 2.80529,0.52356 1.39293,0.2607 5.14726,0.96094 5.896,-31.56014 z m 56.91728,456.20226 -79.49613,126.96991 -4.44808,-6.1858 a 7.2467594,7.2467594 0 0 0 0.35119,-2.2149 7.2467594,7.2467594 0 0 0 -7.24691,-7.2458 7.2467594,7.2467594 0 0 0 -7.24692,7.2458 7.2467594,7.2467594 0 0 0 7.24692,7.2469 7.2467594,7.2467594 0 0 0 2.64367,-0.4998 l 5.23126,7.193 -80.45807,128.505 25.03499,15.6746 0.78102,-1.2486 13.15368,8.2358 1.03849,-1.6579 45.22334,28.3153 -1.0374,1.6569 7.13699,4.4686 4.45459,-7.1144 -7.13809,-4.4686 -1.15918,1.8507 -45.22333,-28.3142 1.15918,-1.8508 -13.15368,-8.2359 48.72343,-77.8198 13.10845,8.2078 1.0385,-1.6579 45.22333,28.3154 -1.03739,1.6568 7.13698,4.4686 4.45459,-7.1144 -7.13809,-4.4685 -1.15917,1.8507 -45.22334,-28.3143 1.15912,-1.8507 -13.10839,-8.2079 45.94192,-73.3771 13.15583,8.2369 1.0385,-1.659 45.22333,28.3153 -1.03745,1.658 7.13704,4.4675 4.45459,-7.1133 -7.13809,-4.4697 -1.15918,1.8519 -45.22333,-28.3154 1.15912,-1.8508 -13.15577,-8.2358 48.80209,-77.947 13.12565,8.2186 1.0385,-1.659 45.22334,28.3154 -1.03745,1.6579 7.13704,4.4675 4.45459,-7.1133 -7.13809,-4.4696 -1.15918,1.8518 -45.22334,-28.3153 1.15913,-1.8508 -13.12566,-8.2175 1.35527,-2.1643 -25.03395,-15.67451 z"
       id="path4156"
       inkscape:connector-curvature="0" />
  </g>
  <g
     inkscape:groupmode="layer"
     id="layer3"
     inkscape:label="Label"
     transform="translate(-1251.7139,-500.82812)">
    <g
       id="g4420"
       transform="translate(-595.21227,-228.13263)">
      <g
         style="font-style:normal;font-variant:normal;font-weight:bold;font-stretch:normal;font-size:125px;line-height:125%;font-family:Overpass;-inkscape-font-specification:'Overpass, Bold';text-align:start;letter-spacing:0px;word-spacing:0px;writing-mode:lr-tb;text-anchor:start;fill:#dddddd;fill-opacity:1;stroke:#222222;stroke-width:0.25;stroke-linecap:butt;stroke-linejoin:miter;stroke-miterlimit:4;stroke-dasharray:none;stroke-opacity:1"
         id="text4412">
        <path
           d="m 1908.7943,844.35675 q -6.8359,0 -12.207,-1.83105 -5.3711,-1.83106 -9.4605,-5.06592 -4.0893,-3.23487 -6.958,-7.56836 -2.8686,-4.3335 -4.6997,-9.33838 -1.77,-5.06592 -2.6245,-10.49805 -0.7935,-5.43213 -0.7935,-10.86426 0,-5.00488 0.8545,-10.2539 0.8545,-5.31006 2.6246,-10.31494 1.831,-5.00489 4.6997,-9.46045 2.9296,-4.45557 6.958,-7.8125 4.0893,-3.35694 9.4604,-5.31006 5.3711,-1.95313 12.146,-1.95313 6.2866,0 11.4136,1.70899 5.1269,1.70898 9.0332,4.5166 3.9062,2.74658 6.5918,6.28662 2.7466,3.54004 4.2114,7.20215 l -15.1367,6.89697 q -1.5869,-2.4414 -3.2349,-4.39453 -1.6479,-1.95312 -3.54,-3.23486 -1.8921,-1.34278 -4.2114,-2.01416 -2.2583,-0.73242 -5.127,-0.73242 -3.6621,0 -6.5308,1.28173 -2.8686,1.22071 -5.0048,3.35694 -2.1363,2.13623 -3.6011,5.00488 -1.4649,2.86865 -2.3804,6.10352 -0.9155,3.17382 -1.3428,6.59179 -0.3662,3.35694 -0.3662,6.53076 0,5.12696 1.0987,10.25391 1.0986,5.12695 3.4179,9.27734 2.3194,4.1504 5.9204,6.77491 3.6622,2.56347 8.7891,2.56347 2.6856,0 4.9439,-0.79345 2.2583,-0.8545 4.1503,-2.31934 1.9532,-1.46484 3.6011,-3.54004 1.709,-2.07519 3.1739,-4.57763 l 15.5029,5.85937 q -2.0752,4.82178 -5.0049,8.8501 -2.9297,3.96728 -6.8359,6.83594 -3.8453,2.80761 -8.7281,4.39453 -4.8828,1.58691 -10.8032,1.58691 z"
           style=""
           id="path4427" />
        <path
           d="m 1957.6835,842.95294 0,-87.52441 16.9067,0 0,71.28906 42.2363,0 0,16.23535 -59.143,0 z"
           style=""
           id="path4429" />
        <path
           d="m 2029.9491,842.95294 0,-87.52441 59.7534,0 0,16.05224 -42.8467,0 0,18.37159 25.2076,0 0,15.99121 -25.2076,0 0,21.11816 45.4712,0 0,15.99121 -62.3779,0 z"
           style=""
           id="path4431" />
      </g>
      <g
         style="font-style:normal;font-variant:normal;font-weight:normal;font-stretch:normal;font-size:45px;line-height:125%;font-family:Overpass;-inkscape-font-specification:'Overpass, Normal';text-align:start;letter-spacing:0px;word-spacing:0px;writing-mode:lr-tb;text-anchor:start;fill:#222222;fill-opacity:1;stroke:none;stroke-width:1px;stroke-linecap:butt;stroke-linejoin:miter;stroke-opacity:1"
         id="text4416">
        <path
           d="m 1898.2535,892.52875 q -2.4389,0 -4.3725,-0.65918 -1.9116,-0.68115 -3.3618,-1.82373 -1.4502,-1.16455 -2.4829,-2.72461 -1.0108,-1.58203 -1.648,-3.38379 -0.6372,-1.82373 -0.9448,-3.7793 -0.2857,-1.97754 -0.2857,-3.9331 0,-1.80176 0.2857,-3.71338 0.3076,-1.91162 0.9448,-3.71338 0.6592,-1.82373 1.6919,-3.42774 1.0327,-1.604 2.4829,-2.8125 1.4502,-1.20849 3.3618,-1.91162 1.9116,-0.70312 4.3286,-0.70312 2.2193,0 3.9991,0.54931 1.7797,0.52735 3.0981,1.40625 1.3403,0.87891 2.2412,1.99952 0.9009,1.1206 1.3843,2.28515 l -4.2847,1.99951 q -0.5713,-0.90087 -1.2085,-1.58203 -0.6152,-0.70312 -1.3842,-1.18652 -0.7471,-0.4834 -1.6919,-0.7251 -0.9449,-0.2417 -2.1534,-0.2417 -1.582,0 -2.8125,0.50537 -1.2085,0.50538 -2.1313,1.38428 -0.9009,0.87891 -1.5381,2.04346 -0.6372,1.16455 -1.0327,2.48291 -0.3735,1.29639 -0.5493,2.68066 -0.1758,1.38428 -0.1758,2.68067 0,2.0874 0.4614,4.19677 0.4834,2.10938 1.4942,3.80127 1.0107,1.6919 2.5708,2.74659 1.56,1.05468 3.7133,1.05468 1.1646,0 2.0874,-0.28564 0.9449,-0.30762 1.7139,-0.83496 0.791,-0.54932 1.4063,-1.29639 0.6372,-0.74707 1.1865,-1.64795 l 4.3725,1.66992 q -0.6591,1.53809 -1.6479,2.8125 -0.9668,1.27442 -2.3071,2.1753 -1.3184,0.90088 -3.0323,1.40625 -1.6919,0.50537 -3.7793,0.50537 z"
           style=""
           id="path4434" />
        <path
           d="m 1915.1066,891.97943 0,-30.27832 4.6801,-2.21924 0,32.49756 -4.6801,0 z"
           style=""
           id="path4436" />
        <path
           d="m 1936.0685,892.52875 q -2.395,0 -4.3286,-0.81299 -1.9336,-0.83496 -3.2959,-2.37305 -1.3623,-1.56006 -2.1094,-3.80127 -0.7251,-2.24121 -0.7251,-5.07568 0,-2.83447 0.7471,-5.05371 0.747,-2.24121 2.1093,-3.7793 1.3843,-1.56006 3.2959,-2.37305 1.9336,-0.81298 4.3067,-0.81298 2.0434,0 3.8232,0.65918 1.8018,0.6372 3.1421,1.97754 1.3623,1.31835 2.1314,3.33984 0.791,2.02148 0.791,4.76807 0,0.74707 -0.044,1.58203 -0.022,0.83496 -0.1318,1.45019 l -15.4907,0 q 0.022,1.42822 0.5053,2.5708 0.5054,1.12061 1.3184,1.9336 0.813,0.79101 1.8457,1.23047 1.0327,0.41748 2.1533,0.41748 1.4282,0 2.6367,-0.59327 1.2305,-0.59326 2.1314,-1.73584 l 3.0542,3.14209 q -1.2524,1.49414 -3.208,2.417 -1.9556,0.92285 -4.6582,0.92285 z m 0,-19.95117 q -1.0987,0 -2.1094,0.32959 -1.0107,0.30761 -1.8018,1.01074 -0.769,0.68115 -1.2744,1.80176 -0.5053,1.1206 -0.5932,2.7246 l 10.9863,0 q -0.044,-1.604 -0.5054,-2.7246 -0.4614,-1.12061 -1.2085,-1.80176 -0.747,-0.70313 -1.6699,-1.01074 -0.9009,-0.32959 -1.8237,-0.32959 z"
           style=""
           id="path4438" />
        <path
           d="m 1961.8864,891.97943 -4.3726,0 -8.4155,-23.00537 4.6801,0 5.3174,15.09521 q 0.1978,0.59327 0.3296,1.03272 0.1538,0.43945 0.3076,0.98877 0.1319,-0.54932 0.2637,-0.98877 0.1538,-0.43945 0.3516,-1.03272 l 5.2734,-15.09521 4.6802,0 -8.4155,23.00537 z"
           style=""
           id="path4440" />
        <path
           d="m 1984.1447,892.52875 q -2.3951,0 -4.3287,-0.81299 -1.9336,-0.83496 -3.2959,-2.37305 -1.3623,-1.56006 -2.1093,-3.80127 -0.7251,-2.24121 -0.7251,-5.07568 0,-2.83447 0.747,-5.05371 0.7471,-2.24121 2.1094,-3.7793 1.3843,-1.56006 3.2959,-2.37305 1.9336,-0.81298 4.3067,-0.81298 2.0434,0 3.8232,0.65918 1.8018,0.6372 3.1421,1.97754 1.3623,1.31835 2.1313,3.33984 0.791,2.02148 0.791,4.76807 0,0.74707 -0.044,1.58203 -0.022,0.83496 -0.1318,1.45019 l -15.4908,0 q 0.022,1.42822 0.5054,2.5708 0.5054,1.12061 1.3184,1.9336 0.813,0.79101 1.8457,1.23047 1.0327,0.41748 2.1533,0.41748 1.4282,0 2.6367,-0.59327 1.2305,-0.59326 2.1314,-1.73584 l 3.0542,3.14209 q -1.2525,1.49414 -3.208,2.417 -1.9556,0.92285 -4.6582,0.92285 z m 0,-19.95117 q -1.0987,0 -2.1094,0.32959 -1.0108,0.30761 -1.8018,1.01074 -0.769,0.68115 -1.2744,1.80176 -0.5054,1.1206 -0.5933,2.7246 l 10.9864,0 q -0.044,-1.604 -0.5054,-2.7246 -0.4614,-1.12061 -1.2085,-1.80176 -0.7471,-0.70313 -1.6699,-1.01074 -0.9009,-0.32959 -1.8237,-0.32959 z"
           style=""
           id="path4442" />
        <path
           d="m 1999.6573,891.97943 0,-30.27832 4.6802,-2.21924 0,32.49756 -4.6802,0 z"
           style=""
           id="path4444" />
        <path
           d="m 2028.9249,891.97943 -4.4824,0 0,-1.97754 q -0.4394,0.46143 -1.0547,0.92285 -0.6152,0.43946 -1.4062,0.81299 -0.7691,0.35156 -1.7359,0.57129 -0.9668,0.21973 -2.1093,0.21973 -1.7579,0 -3.252,-0.4834 -1.4941,-0.4834 -2.5928,-1.4502 -1.0986,-0.98877 -1.7358,-2.41699 -0.6152,-1.45019 -0.6152,-3.36181 0,-1.97754 0.747,-3.40577 0.7471,-1.45019 1.9776,-2.37304 1.2304,-0.94483 2.8125,-1.38428 1.604,-0.43945 3.2959,-0.43945 1.582,0 3.0322,0.35156 1.4722,0.32959 2.6367,1.01074 l 0,-1.27441 q 0,-1.29639 -0.3076,-2.19727 -0.2857,-0.90088 -0.9009,-1.45019 -0.5933,-0.57129 -1.5161,-0.81299 -0.9229,-0.26367 -2.1973,-0.26367 -2.1533,0 -3.7353,0.57128 -1.5601,0.57129 -2.8345,1.51612 l -1.3843,-3.84522 q 0.7032,-0.4834 1.604,-0.90088 0.9009,-0.43945 1.9776,-0.76904 1.0766,-0.32959 2.3291,-0.50537 1.2524,-0.19775 2.6806,-0.19775 0.9668,0 1.9995,0.10986 1.0328,0.10986 1.9996,0.43945 0.9887,0.30762 1.8457,0.90088 0.8789,0.59326 1.5161,1.56006 0.6592,0.94482 1.0327,2.3291 0.3735,1.38428 0.3735,3.2959 l 0,14.89746 z m -9.9316,-3.60351 q 1.7798,0 3.1421,-0.7251 1.3843,-0.7251 2.3071,-1.73584 l 0,-3.51563 q -0.9668,-0.50537 -2.2632,-0.81299 -1.2964,-0.30761 -2.6587,-0.30761 -1.0547,0 -1.9775,0.19775 -0.9229,0.19776 -1.626,0.63721 -0.6811,0.41748 -1.0766,1.09863 -0.3956,0.65918 -0.3956,1.60401 0,1.64794 1.1426,2.61474 1.1646,0.94483 3.4058,0.94483 z"
           style=""
           id="path4446" />
        <path
           d="m 2049.5133,891.97943 0,-13.73291 q 0,-1.45019 -0.3516,-2.46094 -0.3515,-1.03271 -0.9668,-1.66992 -0.6152,-0.65918 -1.4501,-0.94482 -0.835,-0.30762 -1.8238,-0.30762 -1.0547,0 -1.9555,0.28564 -0.9009,0.26368 -1.5601,0.87891 -0.6592,0.61524 -1.0547,1.64795 -0.3735,1.01074 -0.3735,2.48291 l 0,13.8208 -4.6802,0 0,-23.00537 4.6802,0 0,2.21924 q 1.1206,-1.42822 2.5708,-2.0874 1.4502,-0.65918 3.3618,-0.65918 1.8017,0 3.3179,0.52734 1.5161,0.50537 2.6147,1.66992 1.1206,1.16455 1.7358,3.03223 0.6153,1.86767 0.6153,4.57031 l 0,13.73291 -4.6802,0 z"
           style=""
           id="path4448" />
        <path
           d="m 2069.1129,892.52875 q -2.1753,0 -3.9551,-0.81299 -1.7578,-0.83496 -3.0102,-2.37305 -1.2525,-1.56006 -1.9336,-3.80127 -0.6592,-2.24121 -0.6592,-5.07568 0,-2.83447 0.7031,-5.05371 0.7032,-2.24121 1.9556,-3.7793 1.2744,-1.56006 3.0322,-2.37305 1.7578,-0.81298 3.8672,-0.81298 1.8897,0 3.208,0.61523 1.3404,0.61524 2.2193,1.53809 l 0,-8.94287 4.6801,-2.1753 0,32.49756 -4.6801,0 0,-1.62598 q -0.9229,1.03272 -2.2193,1.60401 -1.2744,0.57129 -3.208,0.57129 z m 0.6592,-4.41651 q 1.582,0 2.7905,-0.68115 1.2085,-0.68115 1.9776,-1.93359 l 0,-10.1294 q -0.2637,-0.43945 -0.7032,-0.8789 -0.4394,-0.43946 -1.0547,-0.79102 -0.5932,-0.37353 -1.3623,-0.59326 -0.747,-0.2417 -1.6479,-0.2417 -2.6367,0 -4.0869,1.95557 -1.4502,1.93359 -1.4502,5.64697 0,1.66992 0.3735,3.07617 0.3955,1.38428 1.0987,2.41699 0.7251,1.01075 1.7358,1.58203 1.0327,0.57129 2.3291,0.57129 z"
           style=""
           id="path4450" />
      </g>
    </g>
  </g>
</svg>
