<?xml version="1.0" encoding="UTF-8" standalone="no"?>
<!-- Created with Inkscape (http://www.inkscape.org/) -->

<svg
   xmlns:dc="http://purl.org/dc/elements/1.1/"
   xmlns:cc="http://creativecommons.org/ns#"
   xmlns:rdf="http://www.w3.org/1999/02/22-rdf-syntax-ns#"
   xmlns:svg="http://www.w3.org/2000/svg"
   xmlns="http://www.w3.org/2000/svg"
   xmlns:sodipodi="http://sodipodi.sourceforge.net/DTD/sodipodi-0.dtd"
   xmlns:inkscape="http://www.inkscape.org/namespaces/inkscape"
   width="935.7207"
   height="843.57391"
   viewBox="0 0 935.72072 843.57393"
   id="svg2"
   version="1.1"
   inkscape:version="0.91 r13725"
   sodipodi:docname="CLT.svg"
   inkscape:export-filename="C:\Users\Paul Bogard\Dropbox\Documents\Websites\Flight Log\Images\Terminals\CLT.png"
   inkscape:export-xdpi="89.996498"
   inkscape:export-ydpi="89.996498">
  <defs
     id="defs4" />
  <sodipodi:namedview
     id="base"
     pagecolor="#ffffff"
     bordercolor="#666666"
     borderopacity="1.0"
     inkscape:pageopacity="1"
     inkscape:pageshadow="2"
     inkscape:zoom="1"
     inkscape:cx="102.48194"
     inkscape:cy="373.27589"
     inkscape:document-units="px"
     inkscape:current-layer="layer3"
     showgrid="false"
     units="px"
     fit-margin-top="25"
     fit-margin-left="25"
     fit-margin-right="25"
     fit-margin-bottom="25"
     inkscape:window-width="1680"
     inkscape:window-height="987"
     inkscape:window-x="1672"
     inkscape:window-y="-8"
     inkscape:window-maximized="1" />
  <metadata
     id="metadata7">
    <rdf:RDF>
      <cc:Work
         rdf:about="">
        <dc:format>image/svg+xml</dc:format>
        <dc:type
           rdf:resource="http://purl.org/dc/dcmitype/StillImage" />
        <dc:title />
      </cc:Work>
    </rdf:RDF>
  </metadata>
  <g
     inkscape:groupmode="layer"
     id="layer2"
     inkscape:label="Terminal"
     transform="translate(-2855.6335,-2644.986)">
    <path
       id="path3350"
       style="opacity:1;fill:#dddddd;fill-opacity:1;stroke:#222222;stroke-width:1.5;stroke-miterlimit:4;stroke-dasharray:none;stroke-opacity:1"
       d="m 3123.8132,3153.8195 -7.7079,-7.6355 -7.708,7.8888 -48.1655,0.2533 -0.072,-2.6055 -2.4246,0 0,2.497 -1.3751,0 0,-8.0336 -2.5693,0 0.072,-3.3655 -7.5994,-0.036 0.036,3.5464 -18.3833,0.072 -0.1085,-3.474 -5.8262,0 -0.036,3.474 -15.3797,0.1085 -0.072,-3.5101 -5.8262,0.036 -0.072,3.4379 -44.764,0.1085 -0.036,-3.4016 -36.6579,0.1809 -0.072,-3.5825 -5.8623,-0.036 -0.036,3.474 -28.3348,0.2171 -0.072,12.2676 -3.3655,0 0.1448,9.5173 3.4378,-0.072 0,6.6223 17.7319,-0.072 0.072,3.5826 7.4184,0 0.036,-3.6187 16.8995,0 0,3.4378 7.708,0.072 -0.1086,-3.5463 10.5668,-0.036 0.1085,3.474 12.159,-0.036 -0.036,-3.5464 15.4159,0.1448 0,3.293 9.445,0 0,-3.4378 61.0121,-0.2533 0.036,3.474 10.6029,-0.036 -0.1086,-3.4378 2.5332,0 0,-7.9974 52.0014,-0.3257 7.6718,7.4184 7.527,-7.5632 47.876,0.1086 -0.398,11.58 11.3628,27.213 6.6585,1.737 -1.5922,7.1651 -3.474,-0.9409 -1.4475,5.8624 3.293,0.9409 -5.7431,23.8284 -3.4289,-0.9212 -1.4329,5.9365 3.3777,1.0235 -11.4125,47.6969 -3.5312,-0.8189 -1.3306,5.8854 3.2754,1.0235 -5.9366,23.8996 -3.4288,-0.9212 -1.3306,5.9365 3.5312,1.0236 -2.0983,7.9324 -1.5353,-0.4094 -3.2241,14.2272 -4.6059,-1.2283 -1.4842,6.1924 4.4524,1.1259 -4.2988,17.7072 -4.6059,-1.1259 -2.8659,12.0266 4.4012,1.2282 -4.1965,17.7072 -4.4524,-1.1259 -1.5865,6.3459 4.4524,0.9212 -2.8147,11.6683 -4.4524,-1.0747 -1.5865,6.346 4.4012,0.9211 -1.9447,8.1883 35.9773,8.7513 1.8936,-8.1372 4.5547,1.1771 1.5353,-6.2436 -4.6571,-1.2282 2.0982,-8.5465 4.4524,1.2794 2.7124,-9.263 -4.7083,-1.2283 4.3501,-17.7072 4.5035,1.1771 3.0707,-12.2824 -4.606,-1.0747 5.8854,-23.4902 0.6653,0.2047 -0.8189,3.48 6.0645,1.5865 0.8444,-3.7103 2.3797,0.742 1.4842,-6.4738 -9.2375,-2.0471 2.0582,-8.255 -10.4944,-2.3883 3.4016,-14.0046 3.5826,0.7961 1.5199,-6.1157 -3.655,-0.7599 4.3425,-18.0214 3.6912,0.9409 1.4475,-5.9709 -3.7273,-0.9771 2.135,-8.106 6.2966,1.5922 9.5897,-40.4576 -2.6417,-0.579 1.2666,-5.2472 -3.6549,-0.9047 5.9347,-23.9199 3.6911,0.9771 1.3752,-5.9348 -3.5826,-0.7961 1.7732,-7.0566 -16.1034,-3.872 2.316,-8.9022 8.106,-3.5101 0.3618,0.9046 -1.0084,0.4926 c -3.1258,1.3986 -4.5546,5.0438 -3.2118,8.1939 1.3428,3.1502 4.962,4.6435 8.1355,3.3569 l 10.0531,-4.263 11.2543,-4.9215 c 0,0 6.8033,-3.4017 15.1626,-3.3655 l 12.2675,0.181 c 1.5101,-0.06 2.5929,-1.3653 2.7865,-3.3655 l 63.6538,-0.2533 c 0,0 -0.4343,3.2569 2.7141,3.3293 l 11.6523,-0.1086 c 0,0 4.2702,-0.2171 7.8165,2.2436 l 34.7038,24.8246 -1.4836,2.0989 -0.3619,0 -0.7238,1.2666 1.3752,5.3919 -3.4017,0.9047 1.6285,6.0795 3.2568,-0.9409 6.1519,23.739 -3.3292,0.9409 1.556,6.0071 3.1122,-0.9408 10.5667,41.507 -3.2931,0.7961 1.5561,5.971 3.2207,-0.7961 11.4352,45.9581 -3.2206,0.9409 2.1712,8.1783 -5.8624,1.4113 1.5561,5.8986 -1.1942,0.3981 1.6646,6.5499 -3.4378,0.9409 1.5923,6.1157 3.3292,-0.9409 5.3196,20.6631 -3.4016,0.9408 1.5922,6.0072 3.2931,-1.0133 4.053,16.2844 -3.3655,0.9409 1.6647,5.9709 3.1121,-0.7961 3.0035,11.7971 -3.293,0.8323 1.5922,6.0071 3.1122,-0.7599 1.9541,7.9612 36.0065,-9.264 -2.0626,-7.8888 3.6911,-1.0133 -1.4837,-5.9347 -3.7635,0.9047 -2.9674,-11.7972 3.7635,-0.9408 -1.6284,-6.0072 -3.5826,0.9409 -4.1318,-16.2688 3.7104,-0.9724 -1.5609,-5.9621 -3.6848,1.0236 -5.1177,-20.8034 4.1198,-1.1259 -1.6121,-5.8598 -3.9662,0.998 -1.8424,-6.8065 -1.4585,0.4094 -1.4074,-5.5783 3.6336,-0.9212 -1.868,-7.4206 2.4821,-0.6909 -5.9365,-24.2323 -2.5077,0.7421 -1.2282,-5.0665 -3.8383,0.9468 -4.1829,-17.596 3.6188,-1.0494 -1.5923,-6.0795 -3.7273,1.0132 -10.4673,-41.4109 3.7103,-1.0235 -1.5865,-6.1668 -3.7103,1.0235 -5.9109,-23.6181 3.7103,-0.9979 -4.7078,-18.4198 13.896,-18.9984 c 0,0 10.422,5.3919 16.791,-4.2702 0,0 4.2339,-6.8756 -2.1713,-13.2808 0,0 -3.1845,-3.4378 -8.5041,-3.4378 l 0,-3.0397 -7.3098,0.1085 0,-5.3195 4.3063,-0.036 0.072,4.3425 18.3108,-0.1448 0,-4.3063 59.3113,-0.1085 0.072,19.4326 38.0331,0 -0.2533,6.4414 30.3975,-0.3619 4.2339,4.2702 9.843,0 4.2701,-4.3063 136.246,-1.158 -0.1981,-9.0189 c 0,0 13.9595,-13.5212 0.017,-29.8465 l 0,-9.0831 -130.4197,0.2895 -10.1325,-10.4944 -9.3364,0.2172 -0.051,-5.1766 -0.6653,-0.7677 -60.5934,0.128 c -0.028,-0.3356 0.01,-4.0991 0.01,-4.0991 l 3.1845,-0.036 -0.036,-9.0469 -3.2931,0.036 -0.036,-4.8129 c 0,0 0.072,-1.4113 -0.5066,-2.3884 l 0.7238,-0.072 0,-5.4643 -1.6647,0.036 c 0.01,-0.1757 -0.5247,-61.374 -0.5247,-61.374 0,0 3.5645,-2.6779 2.0808,-7.5994 l 1.8818,-2.8588 6.4413,3.7997 24.5713,-43.425 -1.1941,-0.7237 13.896,-24.5352 -5.2472,-2.9131 -0.018,-0.8142 c 0,0 4.4362,-0.4939 5.818,-5.0998 l 1.7656,-0.9468 3.4288,6.5762 2.6356,-1.4841 -0.6397,-1.1771 8.7257,-5.0409 0.7676,1.433 50.5884,-29.785 c -0.026,-0.1535 -2.3542,-4.5291 -2.3542,-4.5291 l 3.3521,-1.74 -0.7932,-1.1003 1.5353,-0.8956 c 0,0 7.7698,7.6082 20.0735,-0.932 l 4.3769,4.4086 c 0,0 2.8588,-1.9541 4.3787,-4.451 l 4.6682,2.714 c 0,0 3.6187,-4.7767 4.0168,-10.1686 l 5.03,0.036 -0.1447,6.2605 37.635,0.072 0.036,-1.6647 21.0611,-0.036 0,1.3752 8.3593,0.072 0,1.4837 27.4663,-0.036 -0.1085,-26.3083 -27.5387,0.3257 0.036,1.4475 -14.475,-0.036 0,1.5561 -14.9817,0 0.036,-1.4837 -37.6712,0 0.1448,6.3328 -1.339,-0.036 -0.2533,-12.3037 -13.9683,-13.6789 -11.6524,0.1809 0,-1.6284 7.2737,-0.072 0.1345,-36.7708 1.8423,0.051 -0.5655,-53.7128 7.0927,0.036 -0.072,-5.6453 1.2665,-0.036 c 0,0 6.5861,-0.9047 6.1519,-7.7441 l 1.2666,0 -0.036,-0.3619 1.0856,0 -0.1086,-5.5367 -3.2568,0 0,2.7865 c 0,0 -1.0133,-1.8818 -3.0398,-2.7141 l -0.1447,-11.7247 -10.4944,0.072 -1.7732,-73.0987 -29.7823,0.7237 1.8455,84.9683 c 0,0 -6.8394,5.3919 0.2534,11.7971 l 0.8685,75.7766 1.3027,0.036 0.095,8.2261 -1.5865,0.1023 -0.2303,13.1269 7.1392,-0.128 0.051,1.6377 2.6868,-0.026 0.026,2.8403 c 0,0 -5.3224,0.4606 -10.6448,4.35 l -3.7871,-5.6294 -5.0154,3.4288 2.8148,4.043 0.7165,-0.4094 1.3817,1.8424 c 0,0 -0.8188,0.5117 -1.4329,1.2794 l 8.5977,8.2395 c 0,0 -4.9642,5.4247 -4.0942,13.0501 l -4.6059,2.7123 -2.5076,-4.0429 -13.8178,8.0859 -0.8188,-1.4329 -48.0039,28.1472 0.9979,1.6377 -2.3029,1.4073 3.1218,5.2457 c 0,0 -3.8639,-0.8444 -6.6274,3.1729 0,0 -1.5609,2.2774 -0.9212,5.5527 l -1.1771,0.1536 -40.7942,72.1655 c 0,0 -3.4562,1.5432 -3.999,5.162 -0.5353,3.5688 1.5922,5.9347 1.5922,5.9347 l -0.8685,0.8504 0.1598,63.7629 -4.1042,0.054 0.1086,9.0469 -23.8958,0.01 0,0.87 0.8188,0.1024 0.051,3.1218 -42.7327,0.1535 0,0.6141 -3.6335,0.1024 -0.026,-0.7677 -1.3306,0.026 -0.051,-6.0901 -243.091,0.9183 -0.072,6.8756 -9.8068,-0.072 0.4343,19.0347 -4.053,0.072 -0.3076,21.0069 z"
       inkscape:connector-curvature="0"
       sodipodi:nodetypes="ccccccccccccccccccccccccccccccccccccccccccccccccccccccccccccccccccccccccccccccccccccccccccccccccccccccccccccccccccccccccccccccccccccccccccccccccscccccccccccccccccccccccccccccccccccccccccccccccccccccccccccccccccccccccccccccccccccccccccccccccccccccccccccccccccccccccccccccccccccccccccccccccccccccccccccccccccccccccccccccccccccccccccccccccccccccccccccccccccccccccccccccccccscccccccccccccccccccccc" />
  </g>
  <g
     inkscape:groupmode="layer"
     id="layer3"
     inkscape:label="Label">
    <g
       id="text4154"
       style="font-style:normal;font-variant:normal;font-weight:bold;font-stretch:normal;font-size:125px;line-height:110.00000238%;font-family:Overpass;-inkscape-font-specification:'Overpass, Bold';text-align:start;letter-spacing:0px;word-spacing:0px;writing-mode:lr-tb;text-anchor:start;fill:#dddddd;fill-opacity:1;stroke:#222222;stroke-width:0.25;stroke-linecap:butt;stroke-linejoin:miter;stroke-opacity:1;stroke-miterlimit:4;stroke-dasharray:none"
       transform="translate(-2804.7512,-2634.986)">
      <path
         inkscape:connector-curvature="0"
         id="path4187"
         d="m 2926.4944,2908.5129 q -6.836,0 -12.207,-1.831 -5.3711,-1.8311 -9.4605,-5.0659 -4.0894,-3.2349 -6.958,-7.5684 -2.8687,-4.3335 -4.6997,-9.3384 -1.77,-5.0659 -2.6245,-10.498 -0.7935,-5.4321 -0.7935,-10.8643 0,-5.0049 0.8545,-10.2539 0.8545,-5.31 2.6245,-10.3149 1.8311,-5.0049 4.6997,-9.4605 2.9297,-4.4555 6.958,-7.8125 4.0894,-3.3569 9.4605,-5.31 5.3711,-1.9532 12.146,-1.9532 6.2866,0 11.4136,1.709 5.1269,1.709 9.0332,4.5166 3.9062,2.7466 6.5918,6.2867 2.7465,3.54 4.2114,7.2021 l -15.1367,6.897 q -1.5869,-2.4414 -3.2349,-4.3946 -1.6479,-1.9531 -3.54,-3.2348 -1.8921,-1.3428 -4.2115,-2.0142 -2.2583,-0.7324 -5.1269,-0.7324 -3.6621,0 -6.5308,1.2817 -2.8686,1.2207 -5.0049,3.357 -2.1362,2.1362 -3.601,5.0048 -1.4649,2.8687 -2.3804,6.1036 -0.9155,3.1738 -1.3428,6.5918 -0.3662,3.3569 -0.3662,6.5307 0,5.127 1.0986,10.2539 1.0987,5.127 3.418,9.2774 2.3193,4.1504 5.9204,6.7749 3.6621,2.5635 8.7891,2.5635 2.6855,0 4.9438,-0.7935 2.2583,-0.8545 4.1504,-2.3193 1.9531,-1.4649 3.6011,-3.5401 1.709,-2.0752 3.1738,-4.5776 l 15.503,5.8594 q -2.0752,4.8217 -5.0049,8.8501 -2.9297,3.9672 -6.836,6.8359 -3.8452,2.8076 -8.728,4.3945 -4.8828,1.5869 -10.8032,1.5869 z"
         style="stroke:#222222;stroke-opacity:1;stroke-width:0.25;stroke-miterlimit:4;stroke-dasharray:none" />
      <path
         inkscape:connector-curvature="0"
         id="path4189"
         d="m 2975.3835,2907.1091 0,-87.5244 16.9068,0 0,71.2891 42.2363,0 0,16.2353 -59.1431,0 z"
         style="stroke:#222222;stroke-opacity:1;stroke-width:0.25;stroke-miterlimit:4;stroke-dasharray:none" />
      <path
         inkscape:connector-curvature="0"
         id="path4191"
         d="m 3083.9041,2835.8811 0,71.228 -16.8458,0 0,-71.228 -25.0244,0 0,-16.2964 66.8946,0 0,16.2964 -25.0244,0 z"
         style="stroke:#222222;stroke-opacity:1;stroke-width:0.25;stroke-miterlimit:4;stroke-dasharray:none" />
    </g>
    <g
       id="text4158"
       style="font-style:normal;font-variant:normal;font-weight:normal;font-stretch:normal;font-size:45px;line-height:110.00000238%;font-family:Overpass;-inkscape-font-specification:'Overpass, Normal';text-align:start;letter-spacing:0px;word-spacing:0px;writing-mode:lr-tb;text-anchor:start;fill:#222222;fill-opacity:1;stroke:none;stroke-width:1px;stroke-linecap:butt;stroke-linejoin:miter;stroke-opacity:1"
       transform="translate(-2804.7512,-2634.986)">
      <path
         inkscape:connector-curvature="0"
         id="path4194"
         d="m 2918.4475,2956.5598 q -2.439,0 -4.3725,-0.6592 -1.9117,-0.6811 -3.3619,-1.8237 -1.4502,-1.1645 -2.4829,-2.7246 -1.0107,-1.582 -1.6479,-3.3838 -0.6372,-1.8237 -0.9448,-3.7793 -0.2857,-1.9775 -0.2857,-3.9331 0,-1.8018 0.2857,-3.7134 0.3076,-1.9116 0.9448,-3.7134 0.6592,-1.8237 1.6919,-3.4277 1.0327,-1.604 2.4829,-2.8125 1.4502,-1.2085 3.3618,-1.9116 1.9116,-0.7031 4.3286,-0.7031 2.2192,0 3.999,0.5493 1.7798,0.5273 3.0982,1.4062 1.3403,0.8789 2.2412,1.9995 0.9009,1.1206 1.3843,2.2852 l -4.2847,1.9995 q -0.5713,-0.9009 -1.2085,-1.582 -0.6152,-0.7031 -1.3843,-1.1865 -0.747,-0.4834 -1.6919,-0.7251 -0.9448,-0.2417 -2.1533,-0.2417 -1.582,0 -2.8125,0.5053 -1.2085,0.5054 -2.1313,1.3843 -0.9009,0.8789 -1.5381,2.0435 -0.6372,1.1645 -1.0327,2.4829 -0.3736,1.2964 -0.5494,2.6806 -0.1757,1.3843 -0.1757,2.6807 0,2.0874 0.4614,4.1968 0.4834,2.1094 1.4941,3.8013 1.0108,1.6918 2.5708,2.7465 1.5601,1.0547 3.7134,1.0547 1.1646,0 2.0874,-0.2856 0.9448,-0.3076 1.7139,-0.835 0.791,-0.5493 1.4062,-1.2964 0.6372,-0.747 1.1866,-1.6479 l 4.3725,1.6699 q -0.6592,1.5381 -1.6479,2.8125 -0.9668,1.2744 -2.3072,2.1753 -1.3183,0.9009 -3.0322,1.4062 -1.6919,0.5054 -3.7793,0.5054 z" />
      <path
         inkscape:connector-curvature="0"
         id="path4196"
         d="m 2949.2971,2956.0105 0,-13.7329 q 0,-1.4502 -0.3515,-2.4609 -0.3516,-1.0328 -0.9668,-1.67 -0.6153,-0.6592 -1.4502,-0.9448 -0.835,-0.3076 -1.8238,-0.3076 -1.0547,0 -1.9555,0.2856 -0.9009,0.2637 -1.5601,0.8789 -0.6592,0.6153 -1.0547,1.648 -0.3735,1.0107 -0.3735,2.4829 l 0,13.8208 -4.6802,0 0,-30.3223 4.6802,-2.1753 0,11.7115 q 1.1206,-1.4283 2.5708,-2.0874 1.4502,-0.6592 3.3618,-0.6592 1.8018,0 3.3179,0.5273 1.5161,0.5054 2.6147,1.6699 1.1206,1.1646 1.7359,3.0323 0.6152,1.8677 0.6152,4.5703 l 0,13.7329 -4.6802,0 z" />
      <path
         inkscape:connector-curvature="0"
         id="path4198"
         d="m 2978.1033,2956.0105 -4.4825,0 0,-1.9775 q -0.4394,0.4614 -1.0546,0.9228 -0.6153,0.4395 -1.4063,0.813 -0.769,0.3516 -1.7358,0.5713 -0.9668,0.2197 -2.1094,0.2197 -1.7578,0 -3.252,-0.4834 -1.4941,-0.4834 -2.5927,-1.4502 -1.0987,-0.9887 -1.7359,-2.417 -0.6152,-1.4502 -0.6152,-3.3618 0,-1.9775 0.7471,-3.4057 0.747,-1.4502 1.9775,-2.3731 1.2305,-0.9448 2.8125,-1.3843 1.604,-0.4394 3.2959,-0.4394 1.582,0 3.0322,0.3515 1.4722,0.3296 2.6367,1.0108 l 0,-1.2744 q 0,-1.2964 -0.3076,-2.1973 -0.2856,-0.9009 -0.9008,-1.4502 -0.5933,-0.5713 -1.5162,-0.813 -0.9228,-0.2637 -2.1972,-0.2637 -2.1533,0 -3.7354,0.5713 -1.56,0.5713 -2.8344,1.5161 l -1.3843,-3.8452 q 0.7031,-0.4834 1.604,-0.9008 0.9009,-0.4395 1.9775,-0.7691 1.0767,-0.3296 2.3291,-0.5054 1.2525,-0.1977 2.6807,-0.1977 0.9668,0 1.9995,0.1098 1.0327,0.1099 1.9995,0.4395 0.9888,0.3076 1.8457,0.9009 0.8789,0.5932 1.5161,1.56 0.6592,0.9449 1.0327,2.3291 0.3736,1.3843 0.3736,3.2959 l 0,14.8975 z m -9.9317,-3.6035 q 1.7798,0 3.1421,-0.7251 1.3843,-0.7251 2.3071,-1.7359 l 0,-3.5156 q -0.9667,-0.5054 -2.2631,-0.813 -1.2964,-0.3076 -2.6587,-0.3076 -1.0547,0 -1.9776,0.1978 -0.9228,0.1977 -1.6259,0.6372 -0.6812,0.4175 -1.0767,1.0986 -0.3955,0.6592 -0.3955,1.604 0,1.648 1.1426,2.6148 1.1645,0.9448 3.4057,0.9448 z" />
      <path
         inkscape:connector-curvature="0"
         id="path4200"
         d="m 2984.4753,2956.0105 0,-23.0054 4.6802,0 0,2.7906 q 0.813,-1.7579 2.1094,-2.5269 1.2964,-0.791 3.0102,-0.791 2.2852,0 3.8672,1.3843 l -0.6811,4.3286 q -0.6372,-0.4395 -1.5161,-0.7691 -0.857,-0.3515 -2.1094,-0.3515 -0.791,0 -1.626,0.2856 -0.813,0.2637 -1.4941,0.9668 -0.6812,0.6812 -1.1206,1.8457 -0.4395,1.1426 -0.4395,2.9224 l 0,12.9199 -4.6802,0 z" />
      <path
         inkscape:connector-curvature="0"
         id="path4202"
         d="m 3002.8884,2956.0105 0,-30.2783 4.6802,-2.2193 0,32.4976 -4.6802,0 z" />
      <path
         inkscape:connector-curvature="0"
         id="path4204"
         d="m 3023.8943,2956.5598 q -2.417,0 -4.3726,-0.813 -1.9336,-0.813 -3.2959,-2.351 -1.3623,-1.5601 -2.1093,-3.7793 -0.7251,-2.2413 -0.7251,-5.0757 0,-2.8345 0.7251,-5.0757 0.747,-2.2412 2.1093,-3.7793 1.3623,-1.5601 3.2959,-2.3731 1.9556,-0.8349 4.3726,-0.8349 2.395,0 4.3506,0.8349 1.9555,0.813 3.3178,2.3731 1.3623,1.5381 2.1094,3.7793 0.7471,2.2412 0.7471,5.0757 0,2.8344 -0.7471,5.0757 -0.7471,2.2192 -2.1094,3.7793 -1.3623,1.538 -3.3178,2.351 -1.9556,0.813 -4.3506,0.813 z m 0,-4.4165 q 1.3403,0 2.417,-0.5273 1.0986,-0.5274 1.8457,-1.4942 0.769,-0.9887 1.1645,-2.395 0.4175,-1.4062 0.4175,-3.186 0,-1.7798 -0.4175,-3.1861 -0.3955,-1.4282 -1.1645,-2.417 -0.7471,-0.9887 -1.8457,-1.5161 -1.0767,-0.5273 -2.417,-0.5273 -1.3403,0 -2.417,0.5273 -1.0767,0.5274 -1.8457,1.5161 -0.7471,0.9888 -1.1646,2.417 -0.3955,1.4063 -0.3955,3.1861 0,1.7798 0.3955,3.186 0.4175,1.4063 1.1646,2.395 0.769,0.9668 1.8457,1.4942 1.0767,0.5273 2.417,0.5273 z" />
      <path
         inkscape:connector-curvature="0"
         id="path4206"
         d="m 3046.6799,2956.5598 q -1.3623,0 -2.351,-0.4175 -0.9668,-0.3955 -1.604,-1.1425 -0.6153,-0.7471 -0.9009,-1.8018 -0.2857,-1.0767 -0.2857,-2.373 l 0,-13.7549 -3.5595,0 0,-4.065 3.5595,0 0,-7.229 4.6802,-2.2632 0,9.4922 5.4492,0 0,4.065 -5.4492,0 0,12.5464 q 0,0.5712 0.088,1.0546 0.1099,0.4834 0.3516,0.835 0.2636,0.3516 0.7031,0.5493 0.4394,0.1758 1.1206,0.1758 1.6699,0 3.4058,-1.0767 l -0.5713,4.3506 q -0.9668,0.4834 -2.1094,0.7691 -1.1426,0.2856 -2.5269,0.2856 z" />
      <path
         inkscape:connector-curvature="0"
         id="path4208"
         d="m 3063.7307,2956.5598 q -1.3623,0 -2.3511,-0.4175 -0.9668,-0.3955 -1.604,-1.1425 -0.6152,-0.7471 -0.9008,-1.8018 -0.2857,-1.0767 -0.2857,-2.373 l 0,-13.7549 -3.5596,0 0,-4.065 3.5596,0 0,-7.229 4.6802,-2.2632 0,9.4922 5.4492,0 0,4.065 -5.4492,0 0,12.5464 q 0,0.5712 0.088,1.0546 0.1098,0.4834 0.3515,0.835 0.2637,0.3516 0.7032,0.5493 0.4394,0.1758 1.1206,0.1758 1.6699,0 3.4057,-1.0767 l -0.5713,4.3506 q -0.9668,0.4834 -2.1093,0.7691 -1.1426,0.2856 -2.5269,0.2856 z" />
      <path
         inkscape:connector-curvature="0"
         id="path4210"
         d="m 3083.4402,2956.5598 q -2.395,0 -4.3286,-0.813 -1.9336,-0.8349 -3.2959,-2.373 -1.3623,-1.5601 -2.1094,-3.8013 -0.7251,-2.2412 -0.7251,-5.0757 0,-2.8344 0.7471,-5.0537 0.747,-2.2412 2.1093,-3.7793 1.3843,-1.56 3.2959,-2.373 1.9336,-0.813 4.3067,-0.813 2.0434,0 3.8232,0.6592 1.8018,0.6372 3.1421,1.9775 1.3623,1.3184 2.1314,3.3398 0.791,2.0215 0.791,4.7681 0,0.7471 -0.044,1.582 -0.022,0.835 -0.1318,1.4502 l -15.4907,0 q 0.022,1.4283 0.5053,2.5708 0.5054,1.1206 1.3184,1.9336 0.813,0.791 1.8457,1.2305 1.0327,0.4175 2.1533,0.4175 1.4283,0 2.6367,-0.5933 1.2305,-0.5932 2.1314,-1.7358 l 3.0542,3.1421 q -1.2524,1.4941 -3.208,2.417 -1.9556,0.9228 -4.6582,0.9228 z m 0,-19.9512 q -1.0986,0 -2.1094,0.3296 -1.0107,0.3076 -1.8017,1.0108 -0.7691,0.6811 -1.2745,1.8017 -0.5053,1.1206 -0.5932,2.7246 l 10.9863,0 q -0.044,-1.604 -0.5054,-2.7246 -0.4614,-1.1206 -1.2085,-1.8017 -0.747,-0.7032 -1.6699,-1.0108 -0.9009,-0.3296 -1.8237,-0.3296 z" />
    </g>
  </g>
</svg>
