<?xml version="1.0" encoding="UTF-8" standalone="no"?>
<!-- Created with Inkscape (http://www.inkscape.org/) -->

<svg
   xmlns:dc="http://purl.org/dc/elements/1.1/"
   xmlns:cc="http://creativecommons.org/ns#"
   xmlns:rdf="http://www.w3.org/1999/02/22-rdf-syntax-ns#"
   xmlns:svg="http://www.w3.org/2000/svg"
   xmlns="http://www.w3.org/2000/svg"
   xmlns:sodipodi="http://sodipodi.sourceforge.net/DTD/sodipodi-0.dtd"
   xmlns:inkscape="http://www.inkscape.org/namespaces/inkscape"
   width="921.59747"
   height="861.11249"
   viewBox="0 0 921.59749 861.1125"
   id="svg2"
   version="1.1"
   inkscape:version="0.91 r13725"
   sodipodi:docname="CLT.svg"
   inkscape:export-filename="C:\Users\paulb\Dropbox\Projects\Terminal Silhouettes\Silhouettes\png-flight-historian\CLT.png"
   inkscape:export-xdpi="89.996498"
   inkscape:export-ydpi="89.996498">
  <sodipodi:namedview
     id="base"
     pagecolor="#ffffff"
     bordercolor="#666666"
     borderopacity="1.0"
     inkscape:pageopacity="1"
     inkscape:pageshadow="2"
     inkscape:zoom="0.70710678"
     inkscape:cx="643.27818"
     inkscape:cy="289.21251"
     inkscape:document-units="px"
     inkscape:current-layer="layer4"
     showgrid="false"
     units="px"
     fit-margin-top="25"
     fit-margin-left="25"
     fit-margin-right="25"
     fit-margin-bottom="25"
     inkscape:window-width="1920"
     inkscape:window-height="1137"
     inkscape:window-x="1912"
     inkscape:window-y="-8"
     inkscape:window-maximized="1"
     showguides="true"
     inkscape:guide-bbox="true"
     inkscape:object-nodes="true" />
  <defs
     id="defs4" />
  <metadata
     id="metadata7">
    <rdf:RDF>
      <cc:Work
         rdf:about="">
        <dc:format>image/svg+xml</dc:format>
        <dc:type
           rdf:resource="http://purl.org/dc/dcmitype/StillImage" />
        <dc:title></dc:title>
      </cc:Work>
    </rdf:RDF>
  </metadata>
  <g
     style="display:inline"
     transform="translate(-2873.6537,-2627.4817)"
     inkscape:label="Terminal"
     id="layer2"
     inkscape:groupmode="layer">
    <path
       style="fill:#dddddd;fill-opacity:1;fill-rule:evenodd;stroke:#222222;stroke-width:1.5;stroke-linecap:butt;stroke-linejoin:miter;stroke-opacity:1;stroke-miterlimit:4;stroke-dasharray:none"
       d="M 764.4707 25.818359 L 734.66797 28.517578 L 742.15039 113.55664 C 742.15039 113.55664 735.65215 119.41368 743.18555 125.36328 L 749.07812 201.25391 L 750.38672 201.20312 L 751.02734 209.44141 L 749.44336 209.65039 L 750.08203 222.82227 L 757.23047 222.2207 L 757.38867 223.85742 L 760.08008 223.6543 L 760.29492 226.5 C 760.29492 226.5 754.99076 227.31345 749.91406 231.56445 L 745.74414 226.17383 L 740.94531 229.94141 L 744.03516 233.80859 L 744.72461 233.34961 L 746.23242 235.10547 C 746.23242 235.10547 745.44546 235.67232 744.88086 236.48242 L 754.04492 244.16992 C 754.04492 244.16992 749.42729 249.93638 750.80469 257.52148 L 746.36914 260.54492 L 743.58789 256.66016 L 730.27539 265.67969 L 729.35938 264.29688 L 683.11133 295.68945 L 684.2207 297.26562 L 682.00586 298.82812 L 685.48242 303.87891 C 685.48242 303.87891 681.55428 303.28845 679.05078 307.49805 C 679.05078 307.49805 677.63594 309.8847 678.49414 313.125 L 677.32617 313.35742 L 641.2207 388.38867 C 641.2207 388.38867 637.85879 390.16513 637.55469 393.82812 C 637.25459 397.44043 639.54492 399.66992 639.54492 399.66992 L 638.73047 400.58008 L 643.11719 464.47656 L 639.00586 464.80273 L 639.71484 473.86328 L 615.76562 475.45703 L 615.82227 476.33008 L 616.65039 476.37695 L 616.9082 479.50391 L 574.08789 482.48828 L 574.12891 483.10352 L 570.49414 483.44727 L 570.41797 482.67969 L 569.08594 482.79492 L 568.63086 476.69336 L 325.05078 493.72461 L 325.43359 500.62109 L 315.59961 501.19922 L 317.29688 520.24805 L 313.23828 520.58789 L 314.32227 541.66211 L 270.53125 544.75 L 222.00195 473.10352 L 210.69531 315.84766 L 215.20703 315.52344 L 211.91797 269.76562 L 60.033203 280.68359 L 63.322266 326.44336 L 198.23633 316.74414 L 203.45703 389.35547 L 188.41797 390.4375 L 191.66016 435.55078 L 206.69922 434.4707 L 209.81055 477.74023 L 222.37305 496.28711 L 225.42578 538.75 L 200.45898 540.54492 L 200.54102 541.69922 L 197.9668 541.86914 L 197.81641 538.49219 L 190.19727 538.95898 L 190.46875 542.51172 L 172.04883 543.80273 L 171.70898 540.32812 L 165.86914 540.71484 L 166.06445 544.19727 L 150.65625 545.32617 L 150.35156 541.8125 L 144.51562 542.23633 L 144.67188 545.68555 L 99.8125 548.76172 L 99.550781 545.35547 L 62.822266 547.96484 L 62.513672 544.37891 L 56.634766 544.73242 L 56.830078 548.2168 L 28.445312 550.3125 L 29.185547 562.61133 L 25.8125 562.83398 L 26.587891 572.36328 L 30.029297 572.06445 L 30.46875 578.70117 L 48.236328 577.45508 L 48.544922 581.04102 L 55.980469 580.54883 L 55.777344 576.91992 L 72.714844 575.79883 L 72.941406 579.24609 L 80.671875 578.80664 L 80.328125 575.25977 L 90.916016 574.52344 L 91.255859 577.99805 L 103.43945 577.15625 L 103.16797 573.60352 L 118.62891 572.72656 L 118.84766 576.02734 L 128.31445 575.40039 L 128.08594 571.95508 L 189.21875 567.6582 L 189.48633 571.13672 L 200.10938 570.39844 L 199.77344 566.96094 L 202.3125 566.79297 L 201.7832 558.77734 L 253.88086 555.00391 L 262.06055 561.93164 L 269.10352 553.85156 L 317.0957 550.78711 L 317.46289 562.41992 L 330.65625 588.94141 L 337.44531 590.24219 L 336.32422 597.52734 L 332.7793 596.81445 L 331.7168 602.78711 L 335.08008 603.51172 L 330.90234 627.77539 L 327.40625 627.07812 L 326.36328 633.12305 L 329.81641 633.92578 L 321.53906 682.48633 L 317.94531 681.90039 L 317.00195 687.88672 L 320.35156 688.69531 L 315.98633 713.04297 L 312.48828 712.34766 L 311.54883 718.38477 L 315.15625 719.17773 L 313.57812 727.26562 L 312.01172 726.95703 L 309.72266 741.43164 L 305.02539 740.50586 L 303.94922 746.81055 L 308.48633 747.64258 L 305.35156 765.67578 L 300.66016 764.85156 L 298.58398 777.0957 L 303.07812 778.03516 L 300.04492 796.06055 L 295.50781 795.22656 L 294.33789 801.69336 L 298.86133 802.32031 L 296.81445 814.20117 L 292.2793 813.41992 L 291.11133 819.88477 L 295.58203 820.51758 L 294.17578 828.85352 L 330.81445 835.24023 L 332.17383 826.95898 L 336.81641 827.83594 L 337.94141 821.47656 L 333.19336 820.55469 L 334.72852 811.84961 L 339.27734 812.83594 L 341.38086 803.37305 L 336.58008 802.45312 L 339.76758 784.41797 L 344.35938 785.29883 L 346.62305 772.78516 L 341.93555 772.01367 L 346.27734 748.08008 L 346.95703 748.24219 L 346.36719 751.7832 L 352.55078 752.97266 L 353.15039 749.19727 L 355.58594 749.7832 L 356.64453 743.19727 L 347.25 741.75781 L 348.76562 733.34766 L 338.08984 731.64844 L 340.57031 717.38672 L 344.21289 717.94727 L 345.33203 711.7168 L 341.61719 711.19727 L 344.77539 692.84766 L 348.53711 693.54688 L 349.59375 687.4668 L 345.79297 686.73438 L 347.39453 678.4668 L 353.81055 679.64648 L 360.74219 638.46094 L 358.05469 638.05664 L 358.97656 632.71289 L 355.25391 632.04883 L 359.61719 607.68164 L 363.38086 608.41602 L 364.36523 602.37695 L 360.72266 601.81641 L 362.03125 594.62695 L 345.63477 591.8125 L 347.36719 582.73633 L 355.25781 578.68164 L 355.68164 579.56445 L 354.70312 580.125 C 351.66294 581.7338 350.47274 585.48268 352.02734 588.55078 C 353.58204 591.61918 357.30704 592.8748 360.40234 591.375 L 370.19727 586.43555 L 381.15039 580.75781 C 381.15039 580.75781 387.7444 576.89661 396.125 576.37891 L 408.43164 575.74805 C 409.94124 575.58785 410.94055 574.20705 411.00195 572.18945 L 474.7832 567.71875 C 474.7832 567.71875 474.56226 571.0111 477.72266 570.875 L 489.39453 569.99414 C 489.39453 569.99414 493.65965 569.49341 497.37695 571.72461 L 533.80469 594.30469 L 532.45703 596.50781 L 532.09375 596.5293 L 531.45312 597.84766 L 533.18945 603.16016 L 529.83984 604.29297 L 531.875 610.27734 L 535.07617 609.11914 L 542.81445 632.50391 L 539.54102 633.66797 L 541.49805 639.58594 L 544.55469 638.43555 L 557.89648 679.33594 L 554.64844 680.35352 L 556.60547 686.23438 L 559.7793 685.22266 L 574.28711 730.52734 L 571.12109 731.68359 L 573.83984 739.73633 L 568.05664 741.53906 L 570.00781 747.34766 L 568.83789 747.82617 L 570.93945 754.28125 L 567.55664 755.45117 L 569.55859 761.47656 L 572.83203 760.3125 L 579.5332 780.66992 L 576.18555 781.83789 L 578.17969 787.75391 L 581.41406 786.51953 L 586.55469 802.57227 L 583.24414 803.73828 L 585.30859 809.61328 L 588.375 808.60742 L 592.16797 820.23242 L 588.92188 821.28516 L 590.91602 827.20117 L 593.98438 826.23242 L 596.4707 834.08203 L 631.94531 822.41016 L 629.35547 814.64062 L 632.98633 813.38086 L 631.10742 807.53125 L 627.39453 808.6875 L 623.63867 797.06055 L 627.34766 795.86719 L 625.31836 789.95508 L 621.78906 791.13477 L 616.57031 775.10352 L 620.22461 773.88281 L 618.26562 768.01172 L 614.63867 769.28125 L 608.13086 748.76953 L 612.18555 747.36719 L 610.18164 741.60156 L 606.27344 742.86523 L 603.97461 736.16602 L 602.54102 736.67188 L 600.75977 731.17383 L 604.3418 730.00977 L 601.97656 722.69727 L 604.41992 721.83984 L 596.86328 697.94531 L 594.39844 698.85547 L 592.83203 693.85938 L 589.04688 695.0625 L 583.68945 677.70508 L 587.24609 676.41211 L 585.24805 670.42578 L 581.58008 671.6875 L 568.34375 630.87695 L 571.99414 629.60547 L 569.99609 623.5293 L 566.3457 624.80078 L 558.85547 601.52148 L 562.50781 600.27539 L 556.56836 582.125 L 569.23633 562.16406 C 569.23633 562.16406 580.0402 566.87563 585.7832 556.76953 C 585.7832 556.76953 589.57066 549.59872 582.72656 543.60352 C 582.72656 543.60352 579.30816 540.3681 573.97656 540.7207 L 573.77344 537.67578 L 566.45508 538.26758 L 566.10156 532.9375 L 570.41602 532.61523 L 570.77539 536.96289 L 589.11914 535.60352 L 588.83203 531.28711 L 648.27148 527.24805 L 649.63086 546.7207 L 687.75 544.19922 L 687.92383 550.67188 L 718.36523 548.29492 L 722.89258 552.29492 L 732.75781 551.64258 L 736.75195 547.04297 L 873.23047 536.85352 L 872.43359 527.82617 C 872.43359 527.82617 885.52816 513.34836 870.47266 497.91016 L 869.87109 488.80664 L 739.17578 497.74219 L 728.32422 487.89453 L 718.98047 488.73047 L 718.58789 483.54688 L 717.86914 482.82031 L 657.14648 486.96484 C 657.09648 486.63024 656.88477 482.85547 656.88477 482.85547 L 660.07422 482.60938 L 659.43945 473.54297 L 656.14062 473.79883 L 655.78516 468.97656 C 655.78516 468.97656 655.76424 467.55809 655.11914 466.61719 L 655.83984 466.49609 L 655.47852 461.01953 L 653.8125 461.16602 C 653.8125 460.98932 649.21875 399.6875 649.21875 399.6875 C 649.21875 399.6875 652.61398 396.76789 650.80078 391.93359 L 652.49805 388.94336 L 659.20508 392.32422 L 680.95312 347.17188 L 679.70898 346.52539 L 692.00977 321.01562 L 686.55859 318.44336 L 686.48633 317.62695 C 686.48633 317.62695 690.89882 316.83876 691.97852 312.13086 L 693.68555 311.06445 L 697.55859 317.42969 L 700.10156 315.76758 L 699.38281 314.62891 L 707.79297 308.99805 L 708.6582 310.38477 L 757.38672 277.17969 C 757.35072 277.02759 754.72656 272.79492 754.72656 272.79492 L 757.97266 270.83008 L 757.10352 269.7793 L 758.58398 268.7793 C 758.58398 268.7793 766.87502 275.89054 778.64062 266.51562 L 783.32031 270.64453 C 783.32031 270.64453 786.05626 268.49588 787.41406 265.89258 L 792.27148 268.30273 C 792.27148 268.30273 795.58125 263.276 795.62305 257.8457 L 800.66797 257.54883 L 800.9375 263.83203 L 838.66211 261.41016 L 838.58789 259.73828 L 859.69531 258.30664 L 859.78516 259.68555 L 868.16797 259.20312 L 868.26758 260.68945 L 895.79297 258.83398 L 893.93945 232.47266 L 866.36133 234.625 L 866.49219 236.07422 L 851.98242 236.99609 L 852.08594 238.55664 L 837.07031 239.54883 L 837.00781 238.06055 L 799.25195 240.55664 L 799.81641 246.89453 L 798.47266 246.94727 L 797.40234 234.63281 L 782.49609 221.84766 L 770.83008 222.80078 L 770.72266 221.16992 L 778.00781 220.61523 L 775.70508 183.75195 L 777.55469 183.68164 L 773.42773 129.88477 L 780.53906 129.45117 L 780.09375 123.79688 L 781.35938 123.67773 C 781.35938 123.67773 787.90012 122.33391 787.01172 115.50781 L 788.28125 115.42383 L 788.22266 115.06445 L 789.31055 114.99219 L 788.83398 109.44922 L 785.57031 109.66602 L 785.75391 112.45898 C 785.75391 112.45898 784.61354 110.63935 782.52734 109.93945 L 781.60547 98.197266 L 771.0918 98.964844 L 764.4707 25.818359 z "
       id="path4176"
       transform="translate(2873.6537,2627.4817)" />
  </g>
  <g
     inkscape:label="Label"
     id="layer3"
     inkscape:groupmode="layer"
     transform="translate(-18.020222,17.504326)">
    <g
       id="g4254"
       transform="translate(271.529,-125.86501)">
      <g
         id="text4154"
         style="font-style:normal;font-variant:normal;font-weight:bold;font-stretch:normal;font-size:125px;line-height:110.00000238%;font-family:Overpass;-inkscape-font-specification:'Overpass, Bold';text-align:start;letter-spacing:0px;word-spacing:0px;writing-mode:lr-tb;text-anchor:start;fill:#dddddd;fill-opacity:1;stroke:#222222;stroke-width:0.25;stroke-linecap:butt;stroke-linejoin:miter;stroke-miterlimit:4;stroke-dasharray:none;stroke-opacity:1"
         transform="translate(-2804.7512,-2634.986)">
        <path
           inkscape:connector-curvature="0"
           id="path4187"
           d="m 2926.4944,2908.5129 q -6.836,0 -12.207,-1.831 -5.3711,-1.8311 -9.4605,-5.0659 -4.0894,-3.2349 -6.958,-7.5684 -2.8687,-4.3335 -4.6997,-9.3384 -1.77,-5.0659 -2.6245,-10.498 -0.7935,-5.4321 -0.7935,-10.8643 0,-5.0049 0.8545,-10.2539 0.8545,-5.31 2.6245,-10.3149 1.8311,-5.0049 4.6997,-9.4605 2.9297,-4.4555 6.958,-7.8125 4.0894,-3.3569 9.4605,-5.31 5.3711,-1.9532 12.146,-1.9532 6.2866,0 11.4136,1.709 5.1269,1.709 9.0332,4.5166 3.9062,2.7466 6.5918,6.2867 2.7465,3.54 4.2114,7.2021 l -15.1367,6.897 q -1.5869,-2.4414 -3.2349,-4.3946 -1.6479,-1.9531 -3.54,-3.2348 -1.8921,-1.3428 -4.2115,-2.0142 -2.2583,-0.7324 -5.1269,-0.7324 -3.6621,0 -6.5308,1.2817 -2.8686,1.2207 -5.0049,3.357 -2.1362,2.1362 -3.601,5.0048 -1.4649,2.8687 -2.3804,6.1036 -0.9155,3.1738 -1.3428,6.5918 -0.3662,3.3569 -0.3662,6.5307 0,5.127 1.0986,10.2539 1.0987,5.127 3.418,9.2774 2.3193,4.1504 5.9204,6.7749 3.6621,2.5635 8.7891,2.5635 2.6855,0 4.9438,-0.7935 2.2583,-0.8545 4.1504,-2.3193 1.9531,-1.4649 3.6011,-3.5401 1.709,-2.0752 3.1738,-4.5776 l 15.503,5.8594 q -2.0752,4.8217 -5.0049,8.8501 -2.9297,3.9672 -6.836,6.8359 -3.8452,2.8076 -8.728,4.3945 -4.8828,1.5869 -10.8032,1.5869 z"
           style="stroke:#222222;stroke-width:0.25;stroke-miterlimit:4;stroke-dasharray:none;stroke-opacity:1" />
        <path
           inkscape:connector-curvature="0"
           id="path4189"
           d="m 2975.3835,2907.1091 0,-87.5244 16.9068,0 0,71.2891 42.2363,0 0,16.2353 -59.1431,0 z"
           style="stroke:#222222;stroke-width:0.25;stroke-miterlimit:4;stroke-dasharray:none;stroke-opacity:1" />
        <path
           inkscape:connector-curvature="0"
           id="path4191"
           d="m 3083.9041,2835.8811 0,71.228 -16.8458,0 0,-71.228 -25.0244,0 0,-16.2964 66.8946,0 0,16.2964 -25.0244,0 z"
           style="stroke:#222222;stroke-width:0.25;stroke-miterlimit:4;stroke-dasharray:none;stroke-opacity:1" />
      </g>
      <g
         id="text4158"
         style="font-style:normal;font-variant:normal;font-weight:normal;font-stretch:normal;font-size:45px;line-height:110.00000238%;font-family:Overpass;-inkscape-font-specification:'Overpass, Normal';text-align:start;letter-spacing:0px;word-spacing:0px;writing-mode:lr-tb;text-anchor:start;fill:#222222;fill-opacity:1;stroke:none;stroke-width:1px;stroke-linecap:butt;stroke-linejoin:miter;stroke-opacity:1"
         transform="translate(-2804.7512,-2634.986)">
        <path
           inkscape:connector-curvature="0"
           id="path4194"
           d="m 2918.4475,2956.5598 q -2.439,0 -4.3725,-0.6592 -1.9117,-0.6811 -3.3619,-1.8237 -1.4502,-1.1645 -2.4829,-2.7246 -1.0107,-1.582 -1.6479,-3.3838 -0.6372,-1.8237 -0.9448,-3.7793 -0.2857,-1.9775 -0.2857,-3.9331 0,-1.8018 0.2857,-3.7134 0.3076,-1.9116 0.9448,-3.7134 0.6592,-1.8237 1.6919,-3.4277 1.0327,-1.604 2.4829,-2.8125 1.4502,-1.2085 3.3618,-1.9116 1.9116,-0.7031 4.3286,-0.7031 2.2192,0 3.999,0.5493 1.7798,0.5273 3.0982,1.4062 1.3403,0.8789 2.2412,1.9995 0.9009,1.1206 1.3843,2.2852 l -4.2847,1.9995 q -0.5713,-0.9009 -1.2085,-1.582 -0.6152,-0.7031 -1.3843,-1.1865 -0.747,-0.4834 -1.6919,-0.7251 -0.9448,-0.2417 -2.1533,-0.2417 -1.582,0 -2.8125,0.5053 -1.2085,0.5054 -2.1313,1.3843 -0.9009,0.8789 -1.5381,2.0435 -0.6372,1.1645 -1.0327,2.4829 -0.3736,1.2964 -0.5494,2.6806 -0.1757,1.3843 -0.1757,2.6807 0,2.0874 0.4614,4.1968 0.4834,2.1094 1.4941,3.8013 1.0108,1.6918 2.5708,2.7465 1.5601,1.0547 3.7134,1.0547 1.1646,0 2.0874,-0.2856 0.9448,-0.3076 1.7139,-0.835 0.791,-0.5493 1.4062,-1.2964 0.6372,-0.747 1.1866,-1.6479 l 4.3725,1.6699 q -0.6592,1.5381 -1.6479,2.8125 -0.9668,1.2744 -2.3072,2.1753 -1.3183,0.9009 -3.0322,1.4062 -1.6919,0.5054 -3.7793,0.5054 z" />
        <path
           inkscape:connector-curvature="0"
           id="path4196"
           d="m 2949.2971,2956.0105 0,-13.7329 q 0,-1.4502 -0.3515,-2.4609 -0.3516,-1.0328 -0.9668,-1.67 -0.6153,-0.6592 -1.4502,-0.9448 -0.835,-0.3076 -1.8238,-0.3076 -1.0547,0 -1.9555,0.2856 -0.9009,0.2637 -1.5601,0.8789 -0.6592,0.6153 -1.0547,1.648 -0.3735,1.0107 -0.3735,2.4829 l 0,13.8208 -4.6802,0 0,-30.3223 4.6802,-2.1753 0,11.7115 q 1.1206,-1.4283 2.5708,-2.0874 1.4502,-0.6592 3.3618,-0.6592 1.8018,0 3.3179,0.5273 1.5161,0.5054 2.6147,1.6699 1.1206,1.1646 1.7359,3.0323 0.6152,1.8677 0.6152,4.5703 l 0,13.7329 -4.6802,0 z" />
        <path
           inkscape:connector-curvature="0"
           id="path4198"
           d="m 2978.1033,2956.0105 -4.4825,0 0,-1.9775 q -0.4394,0.4614 -1.0546,0.9228 -0.6153,0.4395 -1.4063,0.813 -0.769,0.3516 -1.7358,0.5713 -0.9668,0.2197 -2.1094,0.2197 -1.7578,0 -3.252,-0.4834 -1.4941,-0.4834 -2.5927,-1.4502 -1.0987,-0.9887 -1.7359,-2.417 -0.6152,-1.4502 -0.6152,-3.3618 0,-1.9775 0.7471,-3.4057 0.747,-1.4502 1.9775,-2.3731 1.2305,-0.9448 2.8125,-1.3843 1.604,-0.4394 3.2959,-0.4394 1.582,0 3.0322,0.3515 1.4722,0.3296 2.6367,1.0108 l 0,-1.2744 q 0,-1.2964 -0.3076,-2.1973 -0.2856,-0.9009 -0.9008,-1.4502 -0.5933,-0.5713 -1.5162,-0.813 -0.9228,-0.2637 -2.1972,-0.2637 -2.1533,0 -3.7354,0.5713 -1.56,0.5713 -2.8344,1.5161 l -1.3843,-3.8452 q 0.7031,-0.4834 1.604,-0.9008 0.9009,-0.4395 1.9775,-0.7691 1.0767,-0.3296 2.3291,-0.5054 1.2525,-0.1977 2.6807,-0.1977 0.9668,0 1.9995,0.1098 1.0327,0.1099 1.9995,0.4395 0.9888,0.3076 1.8457,0.9009 0.8789,0.5932 1.5161,1.56 0.6592,0.9449 1.0327,2.3291 0.3736,1.3843 0.3736,3.2959 l 0,14.8975 z m -9.9317,-3.6035 q 1.7798,0 3.1421,-0.7251 1.3843,-0.7251 2.3071,-1.7359 l 0,-3.5156 q -0.9667,-0.5054 -2.2631,-0.813 -1.2964,-0.3076 -2.6587,-0.3076 -1.0547,0 -1.9776,0.1978 -0.9228,0.1977 -1.6259,0.6372 -0.6812,0.4175 -1.0767,1.0986 -0.3955,0.6592 -0.3955,1.604 0,1.648 1.1426,2.6148 1.1645,0.9448 3.4057,0.9448 z" />
        <path
           inkscape:connector-curvature="0"
           id="path4200"
           d="m 2984.4753,2956.0105 0,-23.0054 4.6802,0 0,2.7906 q 0.813,-1.7579 2.1094,-2.5269 1.2964,-0.791 3.0102,-0.791 2.2852,0 3.8672,1.3843 l -0.6811,4.3286 q -0.6372,-0.4395 -1.5161,-0.7691 -0.857,-0.3515 -2.1094,-0.3515 -0.791,0 -1.626,0.2856 -0.813,0.2637 -1.4941,0.9668 -0.6812,0.6812 -1.1206,1.8457 -0.4395,1.1426 -0.4395,2.9224 l 0,12.9199 -4.6802,0 z" />
        <path
           inkscape:connector-curvature="0"
           id="path4202"
           d="m 3002.8884,2956.0105 0,-30.2783 4.6802,-2.2193 0,32.4976 -4.6802,0 z" />
        <path
           inkscape:connector-curvature="0"
           id="path4204"
           d="m 3023.8943,2956.5598 q -2.417,0 -4.3726,-0.813 -1.9336,-0.813 -3.2959,-2.351 -1.3623,-1.5601 -2.1093,-3.7793 -0.7251,-2.2413 -0.7251,-5.0757 0,-2.8345 0.7251,-5.0757 0.747,-2.2412 2.1093,-3.7793 1.3623,-1.5601 3.2959,-2.3731 1.9556,-0.8349 4.3726,-0.8349 2.395,0 4.3506,0.8349 1.9555,0.813 3.3178,2.3731 1.3623,1.5381 2.1094,3.7793 0.7471,2.2412 0.7471,5.0757 0,2.8344 -0.7471,5.0757 -0.7471,2.2192 -2.1094,3.7793 -1.3623,1.538 -3.3178,2.351 -1.9556,0.813 -4.3506,0.813 z m 0,-4.4165 q 1.3403,0 2.417,-0.5273 1.0986,-0.5274 1.8457,-1.4942 0.769,-0.9887 1.1645,-2.395 0.4175,-1.4062 0.4175,-3.186 0,-1.7798 -0.4175,-3.1861 -0.3955,-1.4282 -1.1645,-2.417 -0.7471,-0.9887 -1.8457,-1.5161 -1.0767,-0.5273 -2.417,-0.5273 -1.3403,0 -2.417,0.5273 -1.0767,0.5274 -1.8457,1.5161 -0.7471,0.9888 -1.1646,2.417 -0.3955,1.4063 -0.3955,3.1861 0,1.7798 0.3955,3.186 0.4175,1.4063 1.1646,2.395 0.769,0.9668 1.8457,1.4942 1.0767,0.5273 2.417,0.5273 z" />
        <path
           inkscape:connector-curvature="0"
           id="path4206"
           d="m 3046.6799,2956.5598 q -1.3623,0 -2.351,-0.4175 -0.9668,-0.3955 -1.604,-1.1425 -0.6153,-0.7471 -0.9009,-1.8018 -0.2857,-1.0767 -0.2857,-2.373 l 0,-13.7549 -3.5595,0 0,-4.065 3.5595,0 0,-7.229 4.6802,-2.2632 0,9.4922 5.4492,0 0,4.065 -5.4492,0 0,12.5464 q 0,0.5712 0.088,1.0546 0.1099,0.4834 0.3516,0.835 0.2636,0.3516 0.7031,0.5493 0.4394,0.1758 1.1206,0.1758 1.6699,0 3.4058,-1.0767 l -0.5713,4.3506 q -0.9668,0.4834 -2.1094,0.7691 -1.1426,0.2856 -2.5269,0.2856 z" />
        <path
           inkscape:connector-curvature="0"
           id="path4208"
           d="m 3063.7307,2956.5598 q -1.3623,0 -2.3511,-0.4175 -0.9668,-0.3955 -1.604,-1.1425 -0.6152,-0.7471 -0.9008,-1.8018 -0.2857,-1.0767 -0.2857,-2.373 l 0,-13.7549 -3.5596,0 0,-4.065 3.5596,0 0,-7.229 4.6802,-2.2632 0,9.4922 5.4492,0 0,4.065 -5.4492,0 0,12.5464 q 0,0.5712 0.088,1.0546 0.1098,0.4834 0.3515,0.835 0.2637,0.3516 0.7032,0.5493 0.4394,0.1758 1.1206,0.1758 1.6699,0 3.4057,-1.0767 l -0.5713,4.3506 q -0.9668,0.4834 -2.1093,0.7691 -1.1426,0.2856 -2.5269,0.2856 z" />
        <path
           inkscape:connector-curvature="0"
           id="path4210"
           d="m 3083.4402,2956.5598 q -2.395,0 -4.3286,-0.813 -1.9336,-0.8349 -3.2959,-2.373 -1.3623,-1.5601 -2.1094,-3.8013 -0.7251,-2.2412 -0.7251,-5.0757 0,-2.8344 0.7471,-5.0537 0.747,-2.2412 2.1093,-3.7793 1.3843,-1.56 3.2959,-2.373 1.9336,-0.813 4.3067,-0.813 2.0434,0 3.8232,0.6592 1.8018,0.6372 3.1421,1.9775 1.3623,1.3184 2.1314,3.3398 0.791,2.0215 0.791,4.7681 0,0.7471 -0.044,1.582 -0.022,0.835 -0.1318,1.4502 l -15.4907,0 q 0.022,1.4283 0.5053,2.5708 0.5054,1.1206 1.3184,1.9336 0.813,0.791 1.8457,1.2305 1.0327,0.4175 2.1533,0.4175 1.4283,0 2.6367,-0.5933 1.2305,-0.5932 2.1314,-1.7358 l 3.0542,3.1421 q -1.2524,1.4941 -3.208,2.417 -1.9556,0.9228 -4.6582,0.9228 z m 0,-19.9512 q -1.0986,0 -2.1094,0.3296 -1.0107,0.3076 -1.8017,1.0108 -0.7691,0.6811 -1.2745,1.8017 -0.5053,1.1206 -0.5932,2.7246 l 10.9863,0 q -0.044,-1.604 -0.5054,-2.7246 -0.4614,-1.1206 -1.2085,-1.8017 -0.747,-0.7032 -1.6699,-1.0108 -0.9009,-0.3296 -1.8237,-0.3296 z" />
      </g>
    </g>
  </g>
  <g
     inkscape:label="Date"
     id="layer4"
     inkscape:groupmode="layer"
     transform="translate(-18.020222,17.504326)">
    <g
       style="font-style:normal;font-variant:normal;font-weight:300;font-stretch:normal;font-size:15px;line-height:125%;font-family:Overpass;-inkscape-font-specification:'Overpass, Light';text-align:start;letter-spacing:0px;word-spacing:0px;writing-mode:lr-tb;text-anchor:start;fill:#000000;fill-opacity:1;stroke:none;stroke-width:1px;stroke-linecap:butt;stroke-linejoin:miter;stroke-opacity:1"
       id="text4151">
      <path
         d="m 838.82879,815.41315 0,-8.595 -1.785,0 0,-0.6 q 0.795,0 1.35,-0.27 0.555,-0.285 0.81,-1.035 l 0.675,0 0,10.5 -1.05,0 z"
         style=""
         id="path4277" />
      <path
         d="m 845.93855,814.64815 q 0.495,0 0.915,-0.15 0.435,-0.165 0.75,-0.465 0.315,-0.3 0.495,-0.735 0.18,-0.435 0.18,-0.99 0,-0.465 -0.165,-0.885 -0.165,-0.42 -0.48,-0.735 -0.3,-0.33 -0.735,-0.51 -0.435,-0.195 -0.96,-0.195 -0.525,0 -0.96,0.195 -0.435,0.18 -0.75,0.51 -0.3,0.315 -0.465,0.735 -0.165,0.42 -0.165,0.885 0,0.555 0.18,0.99 0.18,0.435 0.495,0.735 0.315,0.3 0.735,0.465 0.435,0.15 0.93,0.15 z m 0,-9.915 q 0.63,0 1.17,0.225 0.555,0.21 0.945,0.585 0.39,0.375 0.615,0.87 0.225,0.495 0.225,1.035 0,0.675 -0.345,1.275 -0.33,0.585 -1.05,0.885 0.84,0.315 1.35,1.095 0.525,0.765 0.525,1.755 0,0.66 -0.255,1.245 -0.255,0.57 -0.72,0.99 -0.465,0.42 -1.095,0.66 -0.63,0.24 -1.365,0.24 -0.75,0 -1.38,-0.24 -0.615,-0.24 -1.08,-0.66 -0.465,-0.42 -0.72,-0.99 -0.255,-0.585 -0.255,-1.245 0,-0.495 0.135,-0.945 0.135,-0.45 0.375,-0.81 0.255,-0.375 0.6,-0.66 0.345,-0.285 0.75,-0.435 -0.675,-0.3 -1.035,-0.885 -0.345,-0.6 -0.345,-1.275 0,-0.54 0.225,-1.035 0.225,-0.495 0.615,-0.87 0.39,-0.375 0.93,-0.585 0.555,-0.225 1.185,-0.225 z m 0,4.56 q 0.87,0 1.38,-0.48 0.51,-0.48 0.51,-1.23 0,-0.885 -0.54,-1.395 -0.54,-0.51 -1.35,-0.51 -0.81,0 -1.35,0.51 -0.54,0.51 -0.54,1.395 0,0.75 0.51,1.23 0.51,0.48 1.38,0.48 z"
         style=""
         id="path4279" />
      <path
         d="m 861.25449,815.41315 -0.96,-2.715 -4.095,0 -0.915,2.715 -1.095,0 3.645,-10.5 0.81,0 3.675,10.5 -1.065,0 z m -1.275,-3.645 -1.44,-4.2 q -0.075,-0.195 -0.18,-0.495 -0.09,-0.3 -0.12,-0.45 -0.045,0.15 -0.135,0.45 -0.075,0.3 -0.15,0.495 l -1.44,4.2 3.465,0 z"
         style=""
         id="path4281" />
      <path
         d="m 869.07465,815.41315 0,-0.735 q -0.405,0.525 -0.855,0.72 -0.45,0.195 -1.05,0.195 -1.485,0 -2.16,-0.84 -0.66,-0.84 -0.66,-2.73 l 0,-4.275 1.05,0 0,4.68 q 0,1.2 0.495,1.71 0.51,0.51 1.275,0.51 0.405,0 0.75,-0.105 0.345,-0.105 0.6,-0.36 0.27,-0.255 0.405,-0.675 0.15,-0.42 0.15,-1.05 l 0,-4.71 1.05,0 0,7.665 -1.05,0 z"
         style=""
         id="path4283" />
      <path
         d="m 874.51285,817.78315 q 0.93,-0.045 1.515,-0.24 0.6,-0.18 0.93,-0.465 0.345,-0.27 0.465,-0.63 0.12,-0.345 0.12,-0.735 l 0,-1.17 q -0.33,0.48 -0.825,0.765 -0.48,0.285 -1.275,0.285 -0.615,0 -1.185,-0.255 -0.57,-0.255 -1.005,-0.75 -0.435,-0.51 -0.69,-1.26 -0.255,-0.75 -0.255,-1.755 0,-0.945 0.225,-1.68 0.24,-0.75 0.66,-1.26 0.435,-0.525 1.02,-0.795 0.585,-0.27 1.29,-0.27 0.435,0 0.765,0.105 0.345,0.09 0.585,0.24 0.255,0.135 0.42,0.3 0.18,0.15 0.27,0.255 l 0,-0.72 1.05,0 0,7.545 q 0,0.945 -0.3,1.56 -0.3,0.63 -0.795,1.005 -0.495,0.39 -1.155,0.555 -0.645,0.165 -1.35,0.195 l -0.48,-0.825 z m 1.17,-3.135 q 0.48,0 1.005,-0.33 0.54,-0.345 0.855,-0.945 l 0,-3.69 q -0.165,-0.285 -0.405,-0.495 -0.225,-0.225 -0.48,-0.375 -0.255,-0.15 -0.51,-0.225 -0.255,-0.075 -0.465,-0.075 -1.14,0 -1.71,0.795 -0.57,0.78 -0.57,2.265 0,0.735 0.165,1.305 0.18,0.57 0.48,0.975 0.315,0.39 0.72,0.6 0.42,0.195 0.915,0.195 z"
         style=""
         id="path4285" />
      <path
         d="m 884.47168,815.41315 q 0,-0.99 0.285,-1.695 0.285,-0.72 0.735,-1.26 0.45,-0.54 1.02,-0.945 0.57,-0.405 1.14,-0.795 0.495,-0.33 0.945,-0.645 0.45,-0.33 0.795,-0.69 0.36,-0.36 0.57,-0.765 0.21,-0.42 0.21,-0.93 0,-0.855 -0.6,-1.425 -0.585,-0.585 -1.68,-0.585 -1.065,0 -1.605,0.48 -0.54,0.465 -0.735,1.215 l -0.93,-0.42 q 0.12,-0.465 0.405,-0.87 0.285,-0.405 0.72,-0.705 0.435,-0.3 0.99,-0.465 0.57,-0.18 1.245,-0.18 1.56,0 2.415,0.81 0.87,0.795 0.87,2.145 0,0.72 -0.285,1.275 -0.27,0.555 -0.72,1.02 -0.435,0.45 -0.99,0.84 -0.555,0.375 -1.125,0.735 -0.45,0.3 -0.87,0.6 -0.42,0.285 -0.78,0.63 -0.345,0.33 -0.585,0.735 -0.24,0.39 -0.33,0.885 l 5.775,0 0,1.005 -6.885,0 z"
         style=""
         id="path4287" />
      <path
         d="m 897.05082,815.59315 q -1.035,0 -1.725,-0.48 -0.69,-0.48 -1.11,-1.245 -0.405,-0.78 -0.585,-1.74 -0.18,-0.975 -0.18,-1.965 0,-0.54 0.06,-1.155 0.06,-0.63 0.21,-1.23 0.165,-0.6 0.42,-1.155 0.27,-0.555 0.675,-0.975 0.405,-0.42 0.945,-0.66 0.555,-0.255 1.29,-0.255 1.035,0 1.725,0.495 0.69,0.48 1.095,1.26 0.42,0.78 0.6,1.755 0.18,0.96 0.18,1.92 0,0.555 -0.075,1.17 -0.06,0.615 -0.225,1.23 -0.15,0.6 -0.42,1.155 -0.255,0.54 -0.66,0.96 -0.405,0.42 -0.96,0.675 -0.54,0.24 -1.26,0.24 z m 0,-0.945 q 0.78,0 1.26,-0.42 0.495,-0.435 0.765,-1.095 0.27,-0.66 0.36,-1.455 0.09,-0.795 0.09,-1.515 0,-0.81 -0.105,-1.605 -0.105,-0.81 -0.39,-1.44 -0.285,-0.645 -0.765,-1.035 -0.48,-0.405 -1.215,-0.405 -0.795,0 -1.29,0.435 -0.48,0.435 -0.75,1.095 -0.27,0.66 -0.375,1.455 -0.09,0.78 -0.09,1.5 0,0.825 0.105,1.635 0.105,0.795 0.39,1.44 0.285,0.63 0.765,1.02 0.495,0.39 1.245,0.39 z"
         style=""
         id="path4289" />
      <path
         d="m 904.07293,815.41315 0,-8.595 -1.785,0 0,-0.6 q 0.795,0 1.35,-0.27 0.555,-0.285 0.81,-1.035 l 0.675,0 0,10.5 -1.05,0 z"
         style=""
         id="path4291" />
      <path
         d="m 911.18269,814.64815 q 0.495,0 0.915,-0.15 0.435,-0.165 0.75,-0.465 0.315,-0.3 0.495,-0.735 0.18,-0.435 0.18,-0.99 0,-0.465 -0.165,-0.885 -0.165,-0.42 -0.48,-0.735 -0.3,-0.33 -0.735,-0.51 -0.435,-0.195 -0.96,-0.195 -0.525,0 -0.96,0.195 -0.435,0.18 -0.75,0.51 -0.3,0.315 -0.465,0.735 -0.165,0.42 -0.165,0.885 0,0.555 0.18,0.99 0.18,0.435 0.495,0.735 0.315,0.3 0.735,0.465 0.435,0.15 0.93,0.15 z m 0,-9.915 q 0.63,0 1.17,0.225 0.555,0.21 0.945,0.585 0.39,0.375 0.615,0.87 0.225,0.495 0.225,1.035 0,0.675 -0.345,1.275 -0.33,0.585 -1.05,0.885 0.84,0.315 1.35,1.095 0.525,0.765 0.525,1.755 0,0.66 -0.255,1.245 -0.255,0.57 -0.72,0.99 -0.465,0.42 -1.095,0.66 -0.63,0.24 -1.365,0.24 -0.75,0 -1.38,-0.24 -0.615,-0.24 -1.08,-0.66 -0.465,-0.42 -0.72,-0.99 -0.255,-0.585 -0.255,-1.245 0,-0.495 0.135,-0.945 0.135,-0.45 0.375,-0.81 0.255,-0.375 0.6,-0.66 0.345,-0.285 0.75,-0.435 -0.675,-0.3 -1.035,-0.885 -0.345,-0.6 -0.345,-1.275 0,-0.54 0.225,-1.035 0.225,-0.495 0.615,-0.87 0.39,-0.375 0.93,-0.585 0.555,-0.225 1.185,-0.225 z m 0,4.56 q 0.87,0 1.38,-0.48 0.51,-0.48 0.51,-1.23 0,-0.885 -0.54,-1.395 -0.54,-0.51 -1.35,-0.51 -0.81,0 -1.35,0.51 -0.54,0.51 -0.54,1.395 0,0.75 0.51,1.23 0.51,0.48 1.38,0.48 z"
         style=""
         id="path4293" />
    </g>
  </g>
</svg>
