<?xml version="1.0" encoding="UTF-8" standalone="no"?>
<!-- Created with Inkscape (http://www.inkscape.org/) -->

<svg
   xmlns:dc="http://purl.org/dc/elements/1.1/"
   xmlns:cc="http://creativecommons.org/ns#"
   xmlns:rdf="http://www.w3.org/1999/02/22-rdf-syntax-ns#"
   xmlns:svg="http://www.w3.org/2000/svg"
   xmlns="http://www.w3.org/2000/svg"
   xmlns:sodipodi="http://sodipodi.sourceforge.net/DTD/sodipodi-0.dtd"
   xmlns:inkscape="http://www.inkscape.org/namespaces/inkscape"
   width="639.54865"
   height="462.43082"
   id="svg2"
   version="1.1"
   inkscape:version="0.91 r13725"
   sodipodi:docname="CMH.svg"
   inkscape:export-filename="C:\Users\Paul Bogard\Dropbox\Documents\Websites\Flight Log\Images\Terminals\CMH.png"
   inkscape:export-xdpi="90"
   inkscape:export-ydpi="90">
  <defs
     id="defs4" />
  <sodipodi:namedview
     id="base"
     pagecolor="#ffffff"
     bordercolor="#666666"
     borderopacity="1.0"
     inkscape:pageopacity="1"
     inkscape:pageshadow="2"
     inkscape:zoom="1"
     inkscape:cx="358.1979"
     inkscape:cy="227.67802"
     inkscape:document-units="px"
     inkscape:current-layer="layer2"
     showgrid="false"
     fit-margin-top="25"
     fit-margin-left="25"
     fit-margin-right="25"
     fit-margin-bottom="25"
     inkscape:window-width="1920"
     inkscape:window-height="1137"
     inkscape:window-x="1912"
     inkscape:window-y="-8"
     inkscape:window-maximized="1" />
  <metadata
     id="metadata7">
    <rdf:RDF>
      <cc:Work
         rdf:about="">
        <dc:format>image/svg+xml</dc:format>
        <dc:type
           rdf:resource="http://purl.org/dc/dcmitype/StillImage" />
        <dc:title />
      </cc:Work>
    </rdf:RDF>
  </metadata>
  <g
     inkscape:groupmode="layer"
     id="layer2"
     inkscape:label="Terminal"
     transform="translate(-489.4928,-248.27332)">
    <path
       id="path3778-45-52"
       style="fill:#dddddd;fill-opacity:1;stroke:#222222;stroke-width:1.5;stroke-miterlimit:4;stroke-dasharray:none;stroke-opacity:1"
       d="m 565.95609,545.71842 c -1.29171,0.0109 -2.33187,1.06355 -2.32733,2.3553 0.005,1.29635 1.05902,2.34364 2.35537,2.33911 l -0.20372,3.7817 2.80367,0.1956 -0.2608,5.54213 169.85004,12.5187 -0.60515,8.80701 8.23371,0.37073 c 0.19319,1.64328 1.38647,2.99383 2.99344,3.38794 2.12678,0.52159 4.2737,-0.77967 4.79529,-2.90644 l 8.22851,0.71534 0.46104,-8.48322 18.07295,1.1065 0.46105,-15.67551 -17.61191,-0.92209 -0.0922,-4.79487 -6.36242,-0.36883 0.82988,-15.85994 23.88211,-32.0887 3.04289,2.1208 3.78057,-5.53253 0.92209,-2.85848 3.22732,2.76627 -31.90429,46.4733 11.06506,7.2845 17.33528,-24.34316 7.00788,5.25592 24.43537,-36.79137 30.15232,21.11584 20.28597,-30.42894 -35.77707,-25.26525 4.1494,-5.71695 5.80917,-0.0922 -0.18442,9.3131 38.08228,1.56756 0.36884,-8.02218 c 0.36883,0.27662 10.88065,0.36883 10.88065,0.36883 l 9.12869,-9.12868 12.72482,0.73767 -1.19871,18.6262 47.21097,3.13511 1.0143,-18.6262 c 0.5561,-0.067 100.5753,7.49638 100.5753,7.49638 l 17.7348,20.08208 0,1.82565 -3.2601,-0.13041 -0.3912,9.25862 3.1297,0.26083 -4.3033,52.68286 12.6491,1.69524 14.0835,-190.91017 -13.8227,-0.65201 -2.6081,52.94367 -2.7384,-0.52162 -0.5216,9.64984 2.8688,0.26083 0,1.17363 -20.3429,18.12603 -160.31465,-12.1028 -8.94855,-11.10895 -10.56265,-0.65202 0.52161,-8.99781 -6.78096,-0.39121 0.26081,-4.95532 -33.5136,-2.99929 -0.78242,-2.86886 38.86013,-19.43008 -16.03959,-31.16634 -40.42496,19.56047 -17.86523,-34.55683 2.60806,-42.1202 -17.08281,-1.04322 0.39121,-3.7817 c 0,0 -13.82273,-11.73628 -36.12166,-2.34725 l 0.13041,4.82491 -51.77005,-3.65128 0,1.43443 -35.07843,-1.82564 0.26079,-2.34726 -34.55682,-2.21686 -0.13041,1.69525 -2.47766,-0.26079 0.1304,-1.95604 -39.64254,-2.34725 0,1.56484 -3.52089,-0.13041 0.1304,-1.82565 -31.03595,-0.91282 c 0,0 -21.90772,-0.1304 -47.33633,6.38976 l 1.92059,9.37952 c -1.44903,0.36326 -2.33356,1.82756 -1.98081,3.27918 0.35455,1.45909 1.8248,2.3545 3.28389,1.99994 l 0.33754,1.16835 c 0,0 5.99358,-2.21301 12.54042,-2.76627 l 0.19186,0.42549 c 0.23912,0.9607 1.20999,1.54726 2.17164,1.312 0.96439,-0.23592 1.55493,-1.20896 1.319,-2.17336 0,0 7.32841,-1.87076 14.40947,-2.05447 10e-4,0.13768 0.0186,0.27475 0.0512,0.40851 0.23543,0.96451 1.20818,1.55554 2.17268,1.32011 0.96451,-0.23544 1.55555,-1.20818 1.32012,-2.17269 0,0 8.11686,-0.67649 14.72512,-0.43859 -0.0153,0.12757 -0.0168,0.2564 -0.005,0.38429 0.0947,0.98831 0.97261,1.71274 1.96092,1.61806 0.9883,-0.0947 1.71273,-0.97261 1.61804,-1.96092 l 15.07328,-0.0309 c -0.0153,0.12758 -0.0168,0.25641 -0.005,0.3843 0.0947,0.98831 0.97261,1.71274 1.96092,1.61805 0.98831,-0.0947 1.71273,-0.97261 1.61805,-1.96091 l 14.52547,0.77716 c -0.0153,0.12758 -0.0168,0.25641 -0.005,0.3843 0.0947,0.98831 0.97261,1.71273 1.96092,1.61805 0.98831,-0.0947 1.71273,-0.97261 1.61805,-1.96091 l 15.12418,1.40495 c -0.0153,0.12758 -0.0168,0.25642 -0.005,0.3843 0.0947,0.9883 0.9726,1.71274 1.96091,1.61806 0.98831,-0.0947 1.71273,-0.97262 1.61805,-1.96092 l 15.32843,1.34169 c -0.0153,0.12758 -0.0168,0.25641 -0.005,0.38429 0.0947,0.98831 0.97261,1.71274 1.96091,1.61806 0.98831,-0.0947 1.71273,-0.97261 1.61805,-1.96092 l 14.31412,1.3417 c -0.0153,0.12758 -0.0168,0.25641 -0.005,0.3843 0.0947,0.9883 0.97261,1.71273 1.96092,1.61805 0.9883,-0.0947 1.71273,-0.97261 1.61804,-1.96091 l 15.03089,1.69779 c -0.0153,0.12758 -0.0168,0.25641 -0.005,0.3843 0.0947,0.9883 0.97261,1.71273 1.96092,1.61805 0.9883,-0.0947 1.71273,-0.97261 1.61804,-1.96092 l 76.24021,5.40267 -1.61344,32.0089 1.82564,0.19563 -0.45641,5.47693 3.71649,0.0652 -3.12967,41.6638 -2.80367,-0.32603 c 0,0 -0.97802,-0.58682 -1.04322,1.23883 l -0.84762,22.75534 c 0,0 0.0652,3.84689 4.4337,3.91209 l 0.71722,3.45569 c 0,0 -6.52016,-0.1304 -6.65056,6.91136 l -2.28205,0 -1.10843,19.16926 1.89085,0.26081 c 0,0 -1.43444,5.60733 5.73773,7.82418 l -1.23883,3.9773 c 0,0 -5.15092,-1.76044 -5.60733,3.91209 l -1.63004,21.19051 c 0,0 -0.13041,1.43443 1.23883,1.69524 l 1.56484,0.0652 -2.47766,41.8594 -3.58609,0.13041 -0.0652,5.54213 -5.60733,0 -2.73846,30.90554 -57.60051,-3.91059 c 0.0144,-0.111 0.0186,-0.22311 0.0121,-0.33488 -0.0565,-0.99122 -0.90592,-1.74892 -1.89714,-1.69238 -0.99122,0.0566 -1.74892,0.90592 -1.69238,1.89714 l -14.95663,-0.69976 c 0.0144,-0.111 0.0186,-0.22311 0.0121,-0.33488 -0.0565,-0.99122 -0.90592,-1.74892 -1.89714,-1.69238 -0.99121,0.0566 -1.74892,0.90592 -1.69237,1.89714 l -15.6943,-1.25301 c 0.0144,-0.11101 0.0186,-0.22311 0.0122,-0.33489 -0.0566,-0.99122 -0.90592,-1.74892 -1.89714,-1.69237 -0.99122,0.0565 -1.74892,0.90592 -1.69238,1.89713 l -14.49559,-1.62183 c 0.0144,-0.11101 0.0186,-0.22311 0.0122,-0.33488 -0.0565,-0.99122 -0.90592,-1.74892 -1.89714,-1.69238 -0.99121,0.0565 -1.74892,0.90592 -1.69238,1.89714 L 604.07731,546.865 c 0.0144,-0.111 0.0186,-0.22311 0.0122,-0.33488 -0.0565,-0.99122 -0.90592,-1.74892 -1.89714,-1.69238 -0.99121,0.0566 -1.74892,0.90593 -1.69238,1.89714 l -14.42731,-0.84214 c 0.0144,-0.11101 0.0186,-0.22311 0.0122,-0.33489 -0.0565,-0.99122 -0.90592,-1.74892 -1.89714,-1.69237 -0.99121,0.0565 -1.74892,0.90592 -1.69238,1.89713 l -16.32666,-1.34818 z"
       inkscape:connector-curvature="0"
       sodipodi:nodetypes="cscccscccscccscccscccccccccccccccccccccccccccsccccccccccccccccccccccccccccccccccccccccccccccccccccccccccsccccccccccscccsccccscccscccccccccccccccccccccccccccccscccscccscccscccscccsc" />
    <text
       xml:space="preserve"
       style="font-style:normal;font-variant:normal;font-weight:bold;font-stretch:normal;font-size:72px;line-height:125%;font-family:Overpass;-inkscape-font-specification:'Sans Bold';letter-spacing:0px;word-spacing:0px;fill:#000000;fill-opacity:1;stroke:none"
       x="452.54834"
       y="33.29055"
       id="text2983"
       sodipodi:linespacing="125%"
       transform="translate(373.34189,248.28101)"><tspan
         sodipodi:role="line"
         id="tspan2985"
         x="452.54834"
         y="33.29055" /></text>
  </g>
  <g
     inkscape:groupmode="layer"
     id="layer1"
     inkscape:label="Label"
     transform="translate(-116.15093,0.00769478)">
    <g
       style="font-style:normal;font-variant:normal;font-weight:bold;font-stretch:normal;font-size:72px;line-height:125%;font-family:Overpass;-inkscape-font-specification:'Sans Bold';letter-spacing:0px;word-spacing:0px;fill:#000000;fill-opacity:1;stroke:none"
       id="text2988" />
    <g
       style="font-style:normal;font-variant:normal;font-weight:normal;font-stretch:normal;font-size:36px;line-height:125%;font-family:Overpass;-inkscape-font-specification:Overpass;text-align:start;letter-spacing:0px;word-spacing:0px;writing-mode:lr-tb;text-anchor:start;fill:#000000;fill-opacity:1;stroke:none"
       id="text2989" />
    <g
       id="text3341"
       style="font-style:normal;font-variant:normal;font-weight:normal;font-stretch:normal;font-size:45px;line-height:125%;font-family:Overpass;-inkscape-font-specification:Sans;text-align:start;letter-spacing:0px;word-spacing:0px;writing-mode:lr-tb;text-anchor:start;fill:#222222;fill-opacity:1;stroke:none;stroke-width:1px;stroke-linecap:butt;stroke-linejoin:miter;stroke-opacity:1">
      <path
         inkscape:connector-curvature="0"
         id="path4145"
         d="m 155.74352,431.62234 q -2.43897,0 -4.37256,-0.65917 -1.91162,-0.68116 -3.36182,-1.82374 -1.4502,-1.16455 -2.48291,-2.7246 -1.01074,-1.58204 -1.64795,-3.38379 -0.63721,-1.82373 -0.94482,-3.7793 -0.28565,-1.97754 -0.28565,-3.93311 0,-1.80175 0.28565,-3.71337 0.30761,-1.91163 0.94482,-3.71338 0.65918,-1.82373 1.6919,-3.42774 1.03271,-1.604 2.48291,-2.8125 1.45019,-1.20849 3.36181,-1.91162 1.91162,-0.70312 4.32862,-0.70312 2.21923,0 3.99902,0.54931 1.77978,0.52735 3.09814,1.40625 1.34034,0.87891 2.24121,1.99951 0.90088,1.12061 1.38428,2.28516 l -4.28467,1.99951 q -0.57129,-0.90088 -1.20849,-1.58203 -0.61524,-0.70312 -1.38428,-1.18652 -0.74707,-0.4834 -1.69189,-0.7251 -0.94483,-0.2417 -2.15332,-0.2417 -1.58204,0 -2.8125,0.50537 -1.2085,0.50537 -2.13135,1.38428 -0.90088,0.8789 -1.53809,2.04346 -0.63721,1.16455 -1.03271,2.48291 -0.37354,1.29638 -0.54932,2.68066 -0.17578,1.38428 -0.17578,2.68066 0,2.08741 0.46142,4.19678 0.4834,2.10938 1.49415,3.80127 1.01074,1.6919 2.5708,2.74658 1.56005,1.05469 3.71338,1.05469 1.16455,0 2.0874,-0.28564 0.94482,-0.30762 1.71386,-0.83497 0.79102,-0.54931 1.40625,-1.29638 0.63721,-0.74707 1.18653,-1.64795 l 4.37256,1.66992 q -0.65918,1.53809 -1.64795,2.8125 -0.9668,1.27441 -2.30713,2.17529 -1.31836,0.90088 -3.03223,1.40625 -1.69189,0.50537 -3.77929,0.50537 z" />
      <path
         inkscape:connector-curvature="0"
         id="path4147"
         d="m 181.73717,431.62234 q -2.41699,0 -4.37256,-0.81298 -1.93359,-0.81299 -3.2959,-2.35108 -1.3623,-1.56006 -2.10937,-3.77929 -0.7251,-2.24122 -0.7251,-5.07569 0,-2.83447 0.7251,-5.07568 0.74707,-2.24121 2.10937,-3.7793 1.36231,-1.56006 3.2959,-2.37305 1.95557,-0.83496 4.37256,-0.83496 2.39502,0 4.35058,0.83496 1.95557,0.81299 3.31787,2.37305 1.36231,1.53809 2.10938,3.7793 0.74707,2.24121 0.74707,5.07568 0,2.83447 -0.74707,5.07569 -0.74707,2.21923 -2.10938,3.77929 -1.3623,1.53809 -3.31787,2.35108 -1.95556,0.81298 -4.35058,0.81298 z m 0,-4.4165 q 1.34033,0 2.41699,-0.52734 1.09863,-0.52735 1.8457,-1.49414 0.76905,-0.98877 1.16455,-2.39502 0.41748,-1.40625 0.41748,-3.18604 0,-1.77978 -0.41748,-3.18603 -0.3955,-1.42823 -1.16455,-2.417 -0.74707,-0.98876 -1.8457,-1.51611 -1.07666,-0.52734 -2.41699,-0.52734 -1.34033,0 -2.41699,0.52734 -1.07666,0.52735 -1.84571,1.51611 -0.74707,0.98877 -1.16455,2.417 -0.39551,1.40625 -0.39551,3.18603 0,1.77979 0.39551,3.18604 0.41748,1.40625 1.16455,2.39502 0.76905,0.96679 1.84571,1.49414 1.07666,0.52734 2.41699,0.52734 z" />
      <path
         inkscape:connector-curvature="0"
         id="path4149"
         d="m 198.08482,431.07303 0,-30.27832 4.68018,-2.21924 0,32.49756 -4.68018,0 z" />
      <path
         inkscape:connector-curvature="0"
         id="path4151"
         d="m 223.72691,431.07303 0,-2.19727 q -1.1206,1.42823 -2.59277,2.08741 -1.4502,0.65917 -3.36182,0.65917 -1.80175,0 -3.31787,-0.52734 -1.51611,-0.50537 -2.63672,-1.66992 -1.09863,-1.18652 -1.71386,-3.0542 -0.61524,-1.86768 -0.61524,-4.57031 l 0,-13.73291 4.68018,0 0,13.73291 q 0,1.45019 0.35156,2.48291 0.35156,1.01074 0.9668,1.66992 0.61523,0.65918 1.45019,0.9668 0.83496,0.28564 1.82373,0.28564 1.05469,0 1.95557,-0.26367 0.90088,-0.28565 1.56006,-0.90088 0.68115,-0.63721 1.05469,-1.64795 0.3955,-1.01074 0.3955,-2.50488 l 0,-13.8208 4.68018,0 0,23.00537 -4.68018,0 z" />
      <path
         inkscape:connector-curvature="0"
         id="path4153"
         d="m 262.11314,431.07303 0,-13.77686 q 0,-2.5708 -1.05468,-3.95508 -1.05469,-1.38427 -3.16407,-1.38427 -0.94482,0 -1.77978,0.35156 -0.83496,0.35156 -1.47217,1.05469 -0.61523,0.70312 -0.98877,1.75781 -0.35156,1.03271 -0.35156,2.41699 l 0,13.53516 -4.68018,0 0,-13.77686 q 0,-2.5708 -1.07666,-3.95508 -1.05468,-1.38427 -3.16406,-1.38427 -0.94482,0 -1.77978,0.35156 -0.81299,0.35156 -1.4502,1.05469 -0.61523,0.70312 -0.98877,1.75781 -0.35156,1.03271 -0.35156,2.41699 l 0,13.53516 -4.68018,0 0,-23.00537 4.68018,0 0,2.13135 q 0.98877,-1.42823 2.50488,-2.04346 1.51611,-0.61524 3.2959,-0.61524 1.88965,0 3.49365,0.76905 1.62598,0.74707 2.61475,2.50488 1.09863,-1.6919 2.8125,-2.48291 1.71386,-0.79102 3.99902,-0.79102 1.75781,0 3.25195,0.50537 1.51612,0.50538 2.61475,1.56006 1.12061,1.05469 1.75781,2.70264 0.63721,1.64795 0.63721,3.91113 l 0,14.85352 -4.68018,0 z" />
      <path
         inkscape:connector-curvature="0"
         id="path4155"
         d="m 283.47057,431.62234 q -0.98877,0 -1.80176,-0.19775 -0.79102,-0.17578 -1.4502,-0.4834 -0.65918,-0.32959 -1.18652,-0.76904 -0.52734,-0.43945 -0.98877,-0.94482 l 0,1.8457 -4.68018,0 0,-30.32227 4.68018,-2.17529 0,11.25 q 0.87891,-0.98877 2.19727,-1.62598 1.34033,-0.65918 3.22998,-0.65918 2.10937,0 3.86718,0.81299 1.75782,0.81299 3.01026,2.37305 1.27441,1.53808 1.97754,3.7793 0.70312,2.21923 0.70312,5.05371 0,2.92236 -0.65918,5.18554 -0.65918,2.24121 -1.91162,3.7793 -1.23047,1.51611 -3.01025,2.30713 -1.75782,0.79101 -3.97705,0.79101 z m -0.57129,-4.4165 q 1.34033,0 2.35107,-0.52734 1.01074,-0.54932 1.6919,-1.53809 0.70312,-0.98877 1.05468,-2.39502 0.35157,-1.42822 0.35157,-3.18603 0,-3.71338 -1.40625,-5.64698 -1.38428,-1.95556 -4.04297,-1.95556 -0.90088,0 -1.66993,0.2417 -0.76904,0.2417 -1.40625,0.61523 -0.61523,0.37354 -1.07666,0.83496 -0.43945,0.46143 -0.70312,0.90088 l 0,10.0415 q 0.76904,1.25245 2.02148,1.9336 1.27442,0.68115 2.83448,0.68115 z" />
      <path
         inkscape:connector-curvature="0"
         id="path4157"
         d="m 312.67223,431.07303 0,-2.19727 q -1.12061,1.42823 -2.59278,2.08741 -1.45019,0.65917 -3.36181,0.65917 -1.80176,0 -3.31787,-0.52734 -1.51612,-0.50537 -2.63672,-1.66992 -1.09864,-1.18652 -1.71387,-3.0542 -0.61524,-1.86768 -0.61524,-4.57031 l 0,-13.73291 4.68018,0 0,13.73291 q 0,1.45019 0.35156,2.48291 0.35157,1.01074 0.9668,1.66992 0.61523,0.65918 1.4502,0.9668 0.83496,0.28564 1.82373,0.28564 1.05468,0 1.95556,-0.26367 0.90088,-0.28565 1.56006,-0.90088 0.68115,-0.63721 1.05469,-1.64795 0.39551,-1.01074 0.39551,-2.50488 l 0,-13.8208 4.68017,0 0,23.00537 -4.68017,0 z" />
      <path
         inkscape:connector-curvature="0"
         id="path4159"
         d="m 331.1732,431.62234 q -1.3623,0 -2.65869,-0.26367 -1.29639,-0.26367 -2.43896,-0.74707 -1.12061,-0.4834 -2.04346,-1.16455 -0.92285,-0.70312 -1.53809,-1.56006 l 3.31787,-2.83447 q 0.35157,0.32959 0.85694,0.74707 0.50537,0.39551 1.16455,0.74707 0.65918,0.35156 1.47217,0.59326 0.81299,0.2417 1.77978,0.2417 0.87891,0 1.62598,-0.13183 0.74707,-0.13184 1.27441,-0.41748 0.54932,-0.28565 0.83496,-0.74707 0.30762,-0.4834 0.30762,-1.18653 0,-0.81299 -0.57129,-1.38428 -0.54931,-0.59326 -1.45019,-1.05468 -0.90088,-0.4834 -2.04346,-0.90088 -1.14258,-0.43945 -2.30713,-0.92285 -1.07666,-0.46143 -2.10937,-1.01075 -1.03272,-0.54931 -1.84571,-1.31835 -0.79101,-0.76905 -1.29638,-1.82374 -0.4834,-1.07666 -0.4834,-2.59277 0,-1.53808 0.61523,-2.72461 0.63721,-1.18652 1.71387,-1.97754 1.09863,-0.81299 2.54883,-1.23047 1.47216,-0.41748 3.14209,-0.41748 1.47216,0 2.70263,0.28565 1.25244,0.28564 2.24121,0.76904 1.01075,0.4834 1.77979,1.12061 0.76904,0.61523 1.34033,1.29638 l -3.38379,2.68067 q -0.30761,-0.30762 -0.74707,-0.63721 -0.41748,-0.35156 -0.98877,-0.63721 -0.57129,-0.28564 -1.29638,-0.46142 -0.7251,-0.19776 -1.64795,-0.19776 -1.49414,0 -2.37305,0.54932 -0.85693,0.54932 -0.85693,1.58203 0,0.65918 0.46142,1.16455 0.46143,0.4834 1.25244,0.90088 0.79102,0.41748 1.80176,0.81299 1.03272,0.37353 2.15332,0.81299 1.18652,0.46142 2.3291,1.03271 1.14258,0.57129 2.02149,1.40625 0.90088,0.83496 1.42822,2.02149 0.54932,1.18652 0.54932,2.85644 0,1.64795 -0.61524,2.92237 -0.61523,1.25244 -1.75781,2.10937 -1.12061,0.83496 -2.72461,1.25244 -1.58203,0.43945 -3.5376,0.43945 z" />
      <path
         inkscape:connector-curvature="0"
         id="path4161"
         d="m 343.89537,436.30252 q 0.30762,-0.26367 0.7251,-0.76904 0.43945,-0.4834 0.85693,-1.12061 0.41748,-0.61523 0.7251,-1.34033 0.32959,-0.70312 0.43945,-1.4502 -0.59326,-0.0659 -1.14258,-0.30761 -0.54931,-0.2417 -0.96679,-0.65918 -0.39551,-0.41748 -0.65918,-0.9668 -0.2417,-0.54932 -0.2417,-1.23047 0,-0.76904 0.26367,-1.38427 0.28565,-0.63721 0.7251,-1.07667 0.46142,-0.46142 1.05469,-0.70312 0.61523,-0.2417 1.27441,-0.2417 0.70312,0 1.34033,0.26367 0.65918,0.2417 1.14258,0.74707 0.50537,0.50537 0.79102,1.27442 0.28564,0.76904 0.28564,1.80175 0,1.29639 -0.39551,2.52686 -0.37353,1.23047 -1.03271,2.28516 -0.65918,1.07666 -1.56006,1.95556 -0.87891,0.90088 -1.86768,1.51612 l -1.75781,-1.12061 z" />
      <path
         inkscape:connector-curvature="0"
         id="path4163"
         d="m 379.09557,431.62234 q -2.52686,0 -4.52637,-0.65917 -1.99951,-0.68116 -3.5376,-1.82374 -1.51611,-1.16455 -2.59277,-2.7246 -1.07666,-1.58204 -1.75781,-3.38379 -0.68116,-1.82373 -1.01075,-3.7793 -0.30761,-1.97754 -0.30761,-3.93311 0,-1.93359 0.30761,-3.88916 0.32959,-1.97754 1.01075,-3.77929 0.68115,-1.82373 1.75781,-3.38379 1.07666,-1.58203 2.59277,-2.72461 1.53809,-1.16455 3.5376,-1.82373 1.99951,-0.68115 4.52637,-0.68115 2.52685,0 4.52636,0.68115 1.99951,0.65918 3.51563,1.82373 1.53808,1.14258 2.61474,2.72461 1.07666,1.56006 1.75782,3.38379 0.68115,1.80175 0.98877,3.77929 0.30761,1.95557 0.30761,3.88916 0,1.95557 -0.30761,3.93311 -0.30762,1.95557 -0.98877,3.7793 -0.68116,1.80175 -1.75782,3.38379 -1.07666,1.56005 -2.61474,2.7246 -1.51612,1.14258 -3.51563,1.82374 -1.99951,0.65917 -4.52636,0.65917 z m 0,-4.50439 q 1.64795,0 2.94433,-0.50537 1.29639,-0.52734 2.26319,-1.40625 0.98876,-0.87891 1.66992,-2.04346 0.70312,-1.18652 1.14258,-2.48291 0.43945,-1.31836 0.6372,-2.68066 0.19776,-1.38428 0.19776,-2.68067 0,-1.3623 -0.19776,-2.76855 -0.19775,-1.42822 -0.6372,-2.72461 -0.43946,-1.31836 -1.14258,-2.46094 -0.68116,-1.14258 -1.66992,-1.97754 -0.9668,-0.85693 -2.26319,-1.34033 -1.29638,-0.50537 -2.94433,-0.50537 -1.64795,0 -2.94434,0.52734 -1.29639,0.50538 -2.28516,1.38428 -0.98877,0.87891 -1.69189,2.06543 -0.68115,1.16455 -1.12061,2.48291 -0.43945,1.29639 -0.6372,2.68067 -0.19776,1.3623 -0.19776,2.63671 0,2.06543 0.46143,4.17481 0.46142,2.0874 1.51611,3.80127 1.05469,1.69189 2.74658,2.76855 1.6919,1.05469 4.15284,1.05469 z" />
      <path
         inkscape:connector-curvature="0"
         id="path4165"
         d="m 413.35094,431.07303 0,-13.73291 q 0,-1.4502 -0.35157,-2.46094 -0.35156,-1.03271 -0.96679,-1.66992 -0.61524,-0.65918 -1.4502,-0.94483 -0.83496,-0.30761 -1.82373,-0.30761 -1.05469,0 -1.95556,0.28564 -0.90088,0.26367 -1.56006,0.87891 -0.65918,0.61523 -1.05469,1.64795 -0.37354,1.01074 -0.37354,2.48291 l 0,13.8208 -4.68017,0 0,-30.32227 4.68017,-2.17529 0,11.71143 q 1.12061,-1.42823 2.5708,-2.08741 1.4502,-0.65918 3.36182,-0.65918 1.80176,0 3.31787,0.52735 1.51612,0.50537 2.61475,1.66992 1.1206,1.16455 1.73584,3.03223 0.61523,1.86767 0.61523,4.57031 l 0,13.73291 -4.68017,0 z" />
      <path
         inkscape:connector-curvature="0"
         id="path4167"
         d="m 424.57896,431.07303 0,-23.00537 4.68018,0 0,23.00537 -4.68018,0 z m 2.32911,-26.58692 q -0.59327,0 -1.12061,-0.21972 -0.50537,-0.21973 -0.90088,-0.59326 -0.37353,-0.39551 -0.59326,-0.90088 -0.21973,-0.52735 -0.21973,-1.12061 0,-0.59326 0.21973,-1.09863 0.21973,-0.52734 0.59326,-0.90088 0.39551,-0.39551 0.90088,-0.61523 0.52734,-0.21973 1.12061,-0.21973 0.59326,0 1.09863,0.21973 0.52734,0.21972 0.90088,0.61523 0.39551,0.37354 0.61523,0.90088 0.21973,0.50537 0.21973,1.09863 0,0.59326 -0.21973,1.12061 -0.21972,0.50537 -0.61523,0.90088 -0.37354,0.37353 -0.90088,0.59326 -0.50537,0.21972 -1.09863,0.21972 z" />
      <path
         inkscape:connector-curvature="0"
         id="path4169"
         d="m 445.40904,431.62234 q -2.41699,0 -4.37256,-0.81298 -1.93359,-0.81299 -3.29589,-2.35108 -1.36231,-1.56006 -2.10938,-3.77929 -0.7251,-2.24122 -0.7251,-5.07569 0,-2.83447 0.7251,-5.07568 0.74707,-2.24121 2.10938,-3.7793 1.3623,-1.56006 3.29589,-2.37305 1.95557,-0.83496 4.37256,-0.83496 2.39502,0 4.35059,0.83496 1.95556,0.81299 3.31787,2.37305 1.3623,1.53809 2.10937,3.7793 0.74707,2.24121 0.74707,5.07568 0,2.83447 -0.74707,5.07569 -0.74707,2.21923 -2.10937,3.77929 -1.36231,1.53809 -3.31787,2.35108 -1.95557,0.81298 -4.35059,0.81298 z m 0,-4.4165 q 1.34033,0 2.41699,-0.52734 1.09864,-0.52735 1.84571,-1.49414 0.76904,-0.98877 1.16455,-2.39502 0.41748,-1.40625 0.41748,-3.18604 0,-1.77978 -0.41748,-3.18603 -0.39551,-1.42823 -1.16455,-2.417 -0.74707,-0.98876 -1.84571,-1.51611 -1.07666,-0.52734 -2.41699,-0.52734 -1.34033,0 -2.41699,0.52734 -1.07666,0.52735 -1.8457,1.51611 -0.74707,0.98877 -1.16455,2.417 -0.39551,1.40625 -0.39551,3.18603 0,1.77979 0.39551,3.18604 0.41748,1.40625 1.16455,2.39502 0.76904,0.96679 1.8457,1.49414 1.07666,0.52734 2.41699,0.52734 z" />
    </g>
    <g
       id="text3345"
       style="font-style:normal;font-variant:normal;font-weight:bold;font-stretch:normal;font-size:125px;line-height:125%;font-family:Overpass;-inkscape-font-specification:'Overpass, Bold';text-align:start;letter-spacing:0px;word-spacing:0px;writing-mode:lr-tb;text-anchor:start;fill:#dddddd;fill-opacity:1;stroke:#222222;stroke-width:0.25;stroke-linecap:butt;stroke-linejoin:miter;stroke-opacity:1;stroke-miterlimit:4;stroke-dasharray:none">
      <path
         inkscape:connector-curvature="0"
         id="path4172"
         d="m 507.67712,432.47684 q -6.83593,0 -12.20703,-1.83106 -5.37109,-1.83105 -9.46045,-5.06592 -4.08935,-3.23486 -6.958,-7.56835 -2.86866,-4.3335 -4.69971,-9.33838 -1.77002,-5.06592 -2.62451,-10.49805 -0.79346,-5.43213 -0.79346,-10.86426 0,-5.00488 0.85449,-10.2539 0.85449,-5.31006 2.62451,-10.31495 1.83106,-5.00488 4.69971,-9.46045 2.92969,-4.45556 6.95801,-7.8125 4.08935,-3.35693 9.46045,-5.31005 5.37109,-1.95313 12.14599,-1.95313 6.28663,0 11.41358,1.70899 5.12695,1.70898 9.0332,4.5166 3.90625,2.74658 6.5918,6.28662 2.74658,3.54004 4.21142,7.20215 l -15.13671,6.89697 q -1.58692,-2.44141 -3.23487,-4.39453 -1.64795,-1.95313 -3.54004,-3.23487 -1.89209,-1.34277 -4.21142,-2.01416 -2.2583,-0.73242 -5.12696,-0.73242 -3.66211,0 -6.53076,1.28174 -2.86865,1.2207 -5.00488,3.35693 -2.13623,2.13623 -3.60107,5.00489 -1.46485,2.86865 -2.38038,6.10351 -0.91552,3.17383 -1.34277,6.5918 -0.36621,3.35693 -0.36621,6.53076 0,5.12695 1.09863,10.25391 1.09864,5.12695 3.41797,9.27734 2.31934,4.15039 5.92041,6.7749 3.66211,2.56348 8.78906,2.56348 2.68555,0 4.94385,-0.79346 2.2583,-0.85449 4.15039,-2.31933 1.95313,-1.46485 3.60108,-3.54004 1.70898,-2.0752 3.17382,-4.57764 l 15.50293,5.85938 q -2.07519,4.82177 -5.00488,8.85009 -2.92969,3.96729 -6.83594,6.83594 -3.84521,2.80762 -8.72802,4.39453 -4.88282,1.58692 -10.80323,1.58692 z"
         style="stroke:#222222;stroke-opacity:1;stroke-width:0.25;stroke-miterlimit:4;stroke-dasharray:none" />
      <path
         inkscape:connector-curvature="0"
         id="path4174"
         d="m 620.8363,431.07303 0,-44.98291 q 0,-0.73242 0,-1.70899 0.061,-0.97656 0.061,-1.95312 0.061,-1.0376 0.061,-1.89209 0.061,-0.85449 0.12207,-1.34277 -0.67138,2.07519 -1.34277,3.72314 -0.61035,1.64795 -1.28174,3.17383 l -21.24023,46.50879 -21.36231,-46.50879 q -0.67138,-1.52588 -1.34277,-3.17383 -0.61035,-1.64795 -1.28174,-3.72314 0.061,0.48828 0.061,1.34277 0.061,0.85449 0.061,1.89209 0.061,0.97656 0.061,1.95312 0.061,0.97657 0.061,1.70899 l 0,44.98291 -16.90674,0 0,-87.52442 17.15088,0 21.48438,48.27881 q 0.67138,1.58692 1.2207,3.05176 0.54932,1.40381 1.0376,2.92969 0.48828,-1.52588 1.0376,-2.92969 0.54931,-1.46484 1.2207,-3.05176 l 21.85059,-48.27881 16.11328,0 0,87.52442 -16.84571,0 z"
         style="stroke:#222222;stroke-opacity:1;stroke-width:0.25;stroke-miterlimit:4;stroke-dasharray:none" />
      <path
         inkscape:connector-curvature="0"
         id="path4176"
         d="m 713.85388,431.07303 0,-36.98731 -36.62109,0 0,36.98731 -16.90674,0 0,-87.52442 16.90674,0 0,34.5459 36.62109,0 0,-34.5459 16.8457,0 0,87.52442 -16.8457,0 z"
         style="stroke:#222222;stroke-opacity:1;stroke-width:0.25;stroke-miterlimit:4;stroke-dasharray:none" />
    </g>
  </g>
</svg>
