<?xml version="1.0" encoding="UTF-8" standalone="no"?>
<!-- Created with Inkscape (http://www.inkscape.org/) -->

<svg
   xmlns:dc="http://purl.org/dc/elements/1.1/"
   xmlns:cc="http://creativecommons.org/ns#"
   xmlns:rdf="http://www.w3.org/1999/02/22-rdf-syntax-ns#"
   xmlns:svg="http://www.w3.org/2000/svg"
   xmlns="http://www.w3.org/2000/svg"
   xmlns:sodipodi="http://sodipodi.sourceforge.net/DTD/sodipodi-0.dtd"
   xmlns:inkscape="http://www.inkscape.org/namespaces/inkscape"
   width="663.7124"
   height="433.8963"
   viewBox="0 0 663.7124 433.89631"
   id="svg2"
   version="1.1"
   inkscape:version="0.91 r13725"
   sodipodi:docname="COS.svg"
   inkscape:export-filename="C:\Users\paulb\Dropbox\Projects\Terminal Silhouettes\Silhouettes\png\COS.png"
   inkscape:export-xdpi="90"
   inkscape:export-ydpi="90">
  <sodipodi:namedview
     id="base"
     pagecolor="#ffffff"
     bordercolor="#666666"
     borderopacity="1.0"
     inkscape:pageopacity="1"
     inkscape:pageshadow="2"
     inkscape:zoom="0.98994949"
     inkscape:cx="186.992"
     inkscape:cy="276.8401"
     inkscape:document-units="px"
     inkscape:current-layer="layer3"
     showgrid="false"
     units="px"
     fit-margin-top="25"
     fit-margin-left="25"
     fit-margin-right="25"
     fit-margin-bottom="25"
     inkscape:window-width="1920"
     inkscape:window-height="1137"
     inkscape:window-x="1912"
     inkscape:window-y="-8"
     inkscape:window-maximized="1"
     showguides="true"
     inkscape:guide-bbox="true"
     inkscape:object-nodes="true" />
  <defs
     id="defs4" />
  <metadata
     id="metadata7">
    <rdf:RDF>
      <cc:Work
         rdf:about="">
        <dc:format>image/svg+xml</dc:format>
        <dc:type
           rdf:resource="http://purl.org/dc/dcmitype/StillImage" />
        <dc:title></dc:title>
        <dc:description>Terminal silhouette of COS (Colorado Springs)</dc:description>
        <dc:creator>
          <cc:Agent>
            <dc:title>Paul Bogard</dc:title>
          </cc:Agent>
        </dc:creator>
      </cc:Work>
    </rdf:RDF>
  </metadata>
  <g
     transform="translate(492.38943,-391.18295)"
     inkscape:label="Terminal"
     id="layer2"
     inkscape:groupmode="layer">
    <path
       id="rect4148"
       d="m -400.87353,416.93295 0,1.30262 -8.83558,0 0,0.5047 -2.82645,0 0,9.05005 2.82645,0 0,27.21467 -2.82645,0 0,9.05005 2.82645,0 0,33.32353 -2.82645,0 0,9.05006 -5.42794,0 0,23.10959 1.64833,0 0,12.60544 6.60606,0 0,12.63768 -2.82645,0 0,9.05081 2.82645,0 0,36.36071 -2.82645,0 0,9.05081 -6.49432,0 0,26.61547 -45.29979,0 0,22.06046 -2.30976,0 0,8.92107 2.30976,0 0,15.09367 10.29568,0 0,40.75751 33.21254,0 4.41854,-4.41854 42.64656,0 4.41854,4.41854 33.21254,0 0,-40.75751 10.29567,0 0,-5.07397 71.73603,0 0,5.68816 5.43019,0 0,-5.68816 0.54894,0 46.67364,-46.67288 5.13846,0 8.40363,-8.40288 2.28126,2.28126 25.7118,-25.71182 3.0852,3.08593 6.7193,0 4.66227,0 12.34147,0 0,-8.22814 2.74244,0 0,-116.6961 -12.20421,0 0,85.9793 -52.31456,52.31455 0.9629,0.9629 -56.01391,56.01391 -75.90485,0 0,-4.94573 2.30977,0 0,-8.92107 -2.30977,0 0,-22.06046 -45.29978,0 0,-26.61547 -6.49432,0 0,-9.05081 -2.82646,0 0,-33.17279 2.82646,0 0,-9.05006 -2.82646,0 0,-39.21867 2.82646,0 0,-9.0508 -2.82646,0 0,-39.63337 2.82646,0 0,-9.05081 -2.82646,0 0,-33.22604 2.82646,0 0,-9.05005 -2.82646,0 0,-0.5047 -8.83558,0 0,-1.30262 -11.58779,0 z"
       style="opacity:1;fill:#dddddd;fill-opacity:1;stroke:#222222;stroke-width:1.5;stroke-linejoin:miter;stroke-miterlimit:4;stroke-dasharray:none;stroke-dashoffset:0;stroke-opacity:1"
       inkscape:connector-curvature="0" />
  </g>
  <g
     inkscape:groupmode="layer"
     id="layer1"
     inkscape:label="Label"
     transform="translate(-527.11947,-357.57074)">
    <g
       id="g4218"
       transform="translate(-21.659915,477.80215)">
      <g
         style="font-style:normal;font-variant:normal;font-weight:bold;font-stretch:normal;font-size:125px;line-height:125%;font-family:Overpass;-inkscape-font-specification:'Overpass, Bold';text-align:start;letter-spacing:0px;word-spacing:0px;writing-mode:lr-tb;text-anchor:start;fill:#dddddd;fill-opacity:1;stroke:#222222;stroke-width:0.25;stroke-linecap:butt;stroke-linejoin:miter;stroke-miterlimit:4;stroke-dasharray:none;stroke-opacity:1"
         id="text4210">
        <path
           d="m 984.3028,231.86742 q -6.83594,0 -12.20704,-1.83106 -5.37109,-1.83105 -9.46045,-5.06592 -4.08935,-3.23486 -6.958,-7.56836 -2.86866,-4.33349 -4.69971,-9.33837 -1.77002,-5.06592 -2.62451,-10.49805 -0.79346,-5.43213 -0.79346,-10.86426 0,-5.00488 0.85449,-10.25391 0.8545,-5.31005 2.62452,-10.31494 1.83105,-5.00488 4.6997,-9.46045 2.92969,-4.45556 6.95801,-7.8125 4.08936,-3.35693 9.46045,-5.31005 5.37109,-1.95313 12.146,-1.95313 6.28662,0 11.41357,1.70898 5.12693,1.70899 9.03323,4.51661 3.9062,2.74658 6.5918,6.28662 2.7466,3.54004 4.2114,7.20215 l -15.1367,6.89697 q -1.58694,-2.44141 -3.23489,-4.39453 -1.64795,-1.95313 -3.54004,-3.23487 -1.89209,-1.34277 -4.21142,-2.01416 -2.2583,-0.73242 -5.12695,-0.73242 -3.66211,0 -6.53077,1.28174 -2.86865,1.2207 -5.00488,3.35693 -2.13623,2.13623 -3.60107,5.00489 -1.46485,2.86865 -2.38037,6.10351 -0.91553,3.17383 -1.34278,6.5918 -0.36621,3.35693 -0.36621,6.53076 0,5.12695 1.09863,10.25391 1.09864,5.12695 3.41797,9.27734 2.31934,4.15039 5.92041,6.7749 3.66211,2.56348 8.78907,2.56348 2.68554,0 4.94384,-0.79346 2.2583,-0.85449 4.15039,-2.31933 1.95313,-1.46485 3.60108,-3.54004 1.70898,-2.0752 3.17379,-4.57764 l 15.503,5.85938 q -2.0752,4.82177 -5.0049,8.85009 -2.9297,3.96729 -6.836,6.83594 -3.84517,2.80762 -8.72798,4.39453 -4.88281,1.58692 -10.80322,1.58692 z"
           style=""
           id="path4244" />
        <path
           d="m 1068.7144,231.98949 q -7.0801,0 -12.6953,-1.83106 -5.6152,-1.89209 -9.9487,-5.06592 -4.2725,-3.23486 -7.3242,-7.56836 -3.0518,-4.39453 -5.0049,-9.39941 -1.8921,-5.06592 -2.8076,-10.49805 -0.8545,-5.49316 -0.8545,-10.92529 0,-5.37109 0.8545,-10.80322 0.9155,-5.49317 2.8076,-10.49805 1.9531,-5.06592 5.0049,-9.39941 3.0517,-4.39453 7.3242,-7.56836 4.3335,-3.23487 9.9487,-5.06592 5.6152,-1.89209 12.6953,-1.89209 7.0801,0 12.6343,1.89209 5.6152,1.83105 9.8877,5.06592 4.2725,3.17383 7.3242,7.56836 3.0518,4.33349 4.9439,9.39941 1.9531,5.00488 2.8076,10.49805 0.9155,5.43213 0.9155,10.80322 0,5.43213 -0.9155,10.92529 -0.8545,5.43213 -2.8076,10.49805 -1.8921,5.00488 -4.9439,9.39941 -3.0517,4.3335 -7.3242,7.56836 -4.2725,3.17383 -9.8877,5.06592 -5.5542,1.83106 -12.6343,1.83106 z m 0,-16.29639 q 5.8594,0 9.8267,-2.74658 4.0283,-2.74658 6.4697,-7.01905 2.5024,-4.27246 3.6011,-9.33837 1.0986,-5.12696 1.0986,-9.8877 0,-3.35693 -0.4883,-6.7749 -0.4272,-3.47901 -1.4648,-6.65283 -1.0376,-3.23487 -2.6856,-6.04248 -1.6479,-2.86866 -3.9672,-4.94385 -2.3194,-2.13623 -5.4322,-3.35694 -3.0517,-1.2207 -6.958,-1.2207 -3.9673,0 -7.0801,1.28174 -3.0517,1.28174 -5.4321,3.479 -2.3193,2.13623 -3.9673,5.00489 -1.6479,2.86865 -2.6855,6.10351 -1.0376,3.23487 -1.5259,6.5918 -0.4272,3.35693 -0.4272,6.53076 0,5.00488 1.0986,10.19287 1.0986,5.12695 3.54,9.33838 2.5025,4.15039 6.5308,6.83594 4.0283,2.62451 9.9487,2.62451 z"
           style=""
           id="path4246" />
        <path
           d="m 1168.69,166.7429 q -0.7935,-1.95312 -2.1362,-3.6621 -1.3428,-1.70899 -3.2349,-2.92969 -1.831,-1.28174 -4.2725,-1.95313 -2.3803,-0.73242 -5.31,-0.73242 -5.4932,0 -8.606,2.19727 -3.0517,2.19726 -3.0517,6.16455 0,2.62451 1.9531,4.39453 1.9531,1.77002 5.127,3.23486 3.1738,1.40381 7.2021,2.68555 4.0894,1.28174 8.3618,2.86865 4.2725,1.52588 8.3008,3.66211 4.0894,2.0752 7.2632,5.18799 3.1738,3.05176 5.1269,7.32422 1.9532,4.21142 1.9532,10.13183 0,6.40869 -2.4414,11.35254 -2.4415,4.94385 -6.7139,8.36182 -4.2114,3.41797 -10.0098,5.18799 -5.7983,1.77002 -12.5122,1.77002 -6.1645,0 -11.5356,-1.64795 -5.3711,-1.70899 -9.7657,-4.82178 -4.3335,-3.11279 -7.5683,-7.56836 -3.2349,-4.45557 -5.127,-10.00976 l 15.3809,-5.73731 q 1.4038,3.05176 3.3569,5.61523 2.0142,2.50245 4.4556,4.3335 2.4414,1.77002 5.249,2.80762 2.8687,0.97656 6.1035,0.97656 3.1739,0 5.7373,-0.67139 2.6245,-0.67138 4.4556,-2.01416 1.8921,-1.34277 2.8687,-3.29589 1.0376,-2.01416 1.0376,-4.63868 0,-3.17382 -1.9532,-5.31006 -1.9531,-2.19726 -5.1269,-3.78417 -3.1739,-1.64795 -7.2632,-2.92969 -4.0283,-1.34278 -8.3008,-2.80762 -4.2114,-1.46484 -8.3008,-3.41797 -4.0283,-1.95312 -7.2021,-4.82178 -3.1738,-2.86865 -5.127,-6.89697 -1.9531,-4.02832 -1.9531,-9.76562 0,-4.94385 1.9531,-9.27735 2.0142,-4.39453 5.7984,-7.69043 3.7841,-3.2959 9.2773,-5.18799 5.4932,-1.95312 12.5733,-1.95312 5.9204,0 10.6811,1.52588 4.8218,1.52588 8.4839,4.27246 3.6621,2.68555 6.1645,6.40869 2.5025,3.66211 3.7842,8.05664 l -15.1367,5.00488 z"
           style=""
           id="path4248" />
      </g>
      <g
         style="font-style:normal;font-variant:normal;font-weight:normal;font-stretch:normal;font-size:45px;line-height:125%;font-family:Overpass;-inkscape-font-specification:'Overpass, Normal';text-align:start;letter-spacing:0px;word-spacing:0px;writing-mode:lr-tb;text-anchor:start;fill:#222222;fill-opacity:1;stroke:none;stroke-width:1px;stroke-linecap:butt;stroke-linejoin:miter;stroke-opacity:1"
         id="text4214">
        <path
           d="m 856.03424,280.16147 q -2.43896,0 -4.37256,-0.65918 -1.91162,-0.68115 -3.36181,-1.82373 -1.4502,-1.16455 -2.48291,-2.72461 -1.01075,-1.58203 -1.64795,-3.38379 -0.63721,-1.82373 -0.94483,-3.7793 -0.28564,-1.97754 -0.28564,-3.9331 0,-1.80176 0.28564,-3.71338 0.30762,-1.91162 0.94483,-3.71338 0.65918,-1.82373 1.69189,-3.42773 1.03272,-1.60401 2.48291,-2.8125 1.4502,-1.2085 3.36182,-1.91163 1.91162,-0.70312 4.32861,-0.70312 2.21924,0 3.99902,0.54932 1.77979,0.52734 3.09815,1.40625 1.34033,0.8789 2.24121,1.99951 0.90088,1.1206 1.38428,2.28515 l -4.28467,1.99952 q -0.57129,-0.90088 -1.2085,-1.58204 -0.61523,-0.70312 -1.38427,-1.18652 -0.74707,-0.4834 -1.6919,-0.7251 -0.94482,-0.2417 -2.15332,-0.2417 -1.58203,0 -2.8125,0.50537 -1.2085,0.50538 -2.13135,1.38428 -0.90088,0.87891 -1.53808,2.04346 -0.63721,1.16455 -1.03272,2.48291 -0.37353,1.29639 -0.54931,2.68066 -0.17579,1.38428 -0.17579,2.68067 0,2.0874 0.46143,4.19677 0.4834,2.10938 1.49414,3.80127 1.01074,1.6919 2.5708,2.74659 1.56006,1.05468 3.71338,1.05468 1.16455,0 2.0874,-0.28564 0.94483,-0.30762 1.71387,-0.83496 0.79102,-0.54932 1.40625,-1.29639 0.63721,-0.74707 1.18652,-1.64795 l 4.37256,1.66992 q -0.65918,1.53809 -1.64795,2.8125 -0.96679,1.27442 -2.30713,2.1753 -1.31836,0.90088 -3.03222,1.40625 -1.6919,0.50537 -3.7793,0.50537 z"
           style=""
           id="path4251" />
        <path
           d="m 882.02789,280.16147 q -2.41699,0 -4.37256,-0.81299 -1.93359,-0.81299 -3.29589,-2.35107 -1.36231,-1.56006 -2.10938,-3.7793 -0.7251,-2.24121 -0.7251,-5.07568 0,-2.83448 0.7251,-5.07569 0.74707,-2.24121 2.10938,-3.77929 1.3623,-1.56006 3.29589,-2.37305 1.95557,-0.83496 4.37256,-0.83496 2.39502,0 4.35059,0.83496 1.95557,0.81299 3.31787,2.37305 1.3623,1.53808 2.10938,3.77929 0.74707,2.24121 0.74707,5.07569 0,2.83447 -0.74707,5.07568 -0.74708,2.21924 -2.10938,3.7793 -1.3623,1.53808 -3.31787,2.35107 -1.95557,0.81299 -4.35059,0.81299 z m 0,-4.41651 q 1.34034,0 2.417,-0.52734 1.09863,-0.52734 1.8457,-1.49414 0.76904,-0.98877 1.16455,-2.39502 0.41748,-1.40625 0.41748,-3.18603 0,-1.77979 -0.41748,-3.18604 -0.39551,-1.42822 -1.16455,-2.41699 -0.74707,-0.98877 -1.8457,-1.51612 -1.07666,-0.52734 -2.417,-0.52734 -1.34033,0 -2.41699,0.52734 -1.07666,0.52735 -1.8457,1.51612 -0.74707,0.98877 -1.16455,2.41699 -0.39551,1.40625 -0.39551,3.18604 0,1.77978 0.39551,3.18603 0.41748,1.40625 1.16455,2.39502 0.76904,0.9668 1.8457,1.49414 1.07666,0.52734 2.41699,0.52734 z"
           style=""
           id="path4253" />
        <path
           d="m 898.37555,279.61215 0,-30.27832 4.68018,-2.21924 0,32.49756 -4.68018,0 z"
           style=""
           id="path4255" />
        <path
           d="m 919.38141,280.16147 q -2.41699,0 -4.37256,-0.81299 -1.93359,-0.81299 -3.2959,-2.35107 -1.3623,-1.56006 -2.10937,-3.7793 -0.7251,-2.24121 -0.7251,-5.07568 0,-2.83448 0.7251,-5.07569 0.74707,-2.24121 2.10937,-3.77929 1.36231,-1.56006 3.2959,-2.37305 1.95557,-0.83496 4.37256,-0.83496 2.39502,0 4.35058,0.83496 1.95557,0.81299 3.31788,2.37305 1.3623,1.53808 2.10937,3.77929 0.74707,2.24121 0.74707,5.07569 0,2.83447 -0.74707,5.07568 -0.74707,2.21924 -2.10937,3.7793 -1.36231,1.53808 -3.31788,2.35107 -1.95556,0.81299 -4.35058,0.81299 z m 0,-4.41651 q 1.34033,0 2.41699,-0.52734 1.09863,-0.52734 1.8457,-1.49414 0.76905,-0.98877 1.16455,-2.39502 0.41749,-1.40625 0.41749,-3.18603 0,-1.77979 -0.41749,-3.18604 -0.3955,-1.42822 -1.16455,-2.41699 -0.74707,-0.98877 -1.8457,-1.51612 -1.07666,-0.52734 -2.41699,-0.52734 -1.34033,0 -2.41699,0.52734 -1.07666,0.52735 -1.84571,1.51612 -0.74707,0.98877 -1.16455,2.41699 -0.39551,1.40625 -0.39551,3.18604 0,1.77978 0.39551,3.18603 0.41748,1.40625 1.16455,2.39502 0.76905,0.9668 1.84571,1.49414 1.07666,0.52734 2.41699,0.52734 z"
           style=""
           id="path4257" />
        <path
           d="m 935.50934,279.61215 0,-23.00537 4.68017,0 0,2.79053 q 0.81299,-1.75781 2.10938,-2.52686 1.29639,-0.79101 3.01025,-0.79101 2.28516,0 3.86719,1.38427 l -0.68115,4.32862 q -0.63721,-0.43946 -1.51612,-0.76905 -0.85693,-0.35156 -2.10937,-0.35156 -0.79102,0 -1.62598,0.28565 -0.81298,0.26367 -1.49414,0.96679 -0.68115,0.68116 -1.1206,1.84571 -0.43946,1.14258 -0.43946,2.92236 l 0,12.91992 -4.68017,0 z"
           style=""
           id="path4259" />
        <path
           d="m 971.32477,279.61215 -4.48242,0 0,-1.97754 q -0.43946,0.46143 -1.05469,0.92285 -0.61524,0.43946 -1.40625,0.81299 -0.76904,0.35157 -1.73584,0.57129 -0.9668,0.21973 -2.10938,0.21973 -1.75781,0 -3.25195,-0.4834 -1.49414,-0.4834 -2.59277,-1.4502 -1.09864,-0.98876 -1.73584,-2.41699 -0.61524,-1.45019 -0.61524,-3.36181 0,-1.97754 0.74707,-3.40577 0.74707,-1.45019 1.97754,-2.37304 1.23047,-0.94483 2.8125,-1.38428 1.60401,-0.43945 3.2959,-0.43945 1.58203,0 3.03223,0.35156 1.47217,0.32959 2.63672,1.01074 l 0,-1.27441 q 0,-1.29639 -0.30762,-2.19727 -0.28565,-0.90088 -0.90088,-1.45019 -0.59326,-0.57129 -1.51611,-0.81299 -0.92285,-0.26367 -2.19727,-0.26367 -2.15332,0 -3.73535,0.57129 -1.56006,0.57128 -2.83447,1.51611 l -1.38428,-3.84522 q 0.70312,-0.48339 1.604,-0.90087 0.90088,-0.43946 1.97754,-0.76905 1.07666,-0.32959 2.3291,-0.50537 1.25245,-0.19775 2.68067,-0.19775 0.9668,0 1.99951,0.10986 1.03271,0.10986 1.99951,0.43945 0.98877,0.30762 1.8457,0.90088 0.87891,0.59326 1.51612,1.56006 0.65918,0.94483 1.03271,2.3291 0.37354,1.38428 0.37354,3.2959 l 0,14.89746 z m -9.93164,-3.60351 q 1.77978,0 3.14209,-0.7251 1.38427,-0.7251 2.30713,-1.73584 l 0,-3.51563 q -0.9668,-0.50537 -2.26319,-0.81298 -1.29638,-0.30762 -2.65869,-0.30762 -1.05469,0 -1.97754,0.19775 -0.92285,0.19776 -1.62597,0.63721 -0.68116,0.41748 -1.07666,1.09863 -0.39551,0.65918 -0.39551,1.60401 0,1.64795 1.14258,2.61474 1.16455,0.94483 3.40576,0.94483 z"
           style=""
           id="path4261" />
        <path
           d="m 986.11237,280.16147 q -2.1753,0 -3.95508,-0.81299 -1.75781,-0.83496 -3.01026,-2.37305 -1.25244,-1.56006 -1.93359,-3.80127 -0.65918,-2.24121 -0.65918,-5.07568 0,-2.83447 0.70313,-5.05371 0.70312,-2.24121 1.95556,-3.7793 1.27442,-1.56006 3.03223,-2.37304 1.75781,-0.81299 3.86719,-0.81299 1.88964,0 3.208,0.61523 1.34034,0.61524 2.21924,1.53809 l 0,-8.94287 4.68018,-2.1753 0,32.49756 -4.68018,0 0,-1.62597 q -0.92285,1.03271 -2.21924,1.604 -1.27441,0.57129 -3.208,0.57129 z m 0.65918,-4.41651 q 1.58203,0 2.79052,-0.68115 1.2085,-0.68115 1.97754,-1.93359 l 0,-10.1294 q -0.26367,-0.43945 -0.70312,-0.8789 -0.43946,-0.43946 -1.05469,-0.79102 -0.59326,-0.37353 -1.36231,-0.59326 -0.74707,-0.2417 -1.64794,-0.2417 -2.63672,0 -4.08692,1.95557 -1.45019,1.93359 -1.45019,5.64697 0,1.66992 0.37353,3.07617 0.39551,1.38428 1.09863,2.41699 0.7251,1.01075 1.73584,1.58204 1.03272,0.57128 2.32911,0.57128 z"
           style=""
           id="path4263" />
        <path
           d="m 1012.3697,280.16147 q -2.417,0 -4.3726,-0.81299 -1.9336,-0.81299 -3.2959,-2.35107 -1.3623,-1.56006 -2.1093,-3.7793 -0.7251,-2.24121 -0.7251,-5.07568 0,-2.83448 0.7251,-5.07569 0.747,-2.24121 2.1093,-3.77929 1.3623,-1.56006 3.2959,-2.37305 1.9556,-0.83496 4.3726,-0.83496 2.395,0 4.3506,0.83496 1.9555,0.81299 3.3178,2.37305 1.3624,1.53808 2.1094,3.77929 0.7471,2.24121 0.7471,5.07569 0,2.83447 -0.7471,5.07568 -0.747,2.21924 -2.1094,3.7793 -1.3623,1.53808 -3.3178,2.35107 -1.9556,0.81299 -4.3506,0.81299 z m 0,-4.41651 q 1.3403,0 2.417,-0.52734 1.0986,-0.52734 1.8457,-1.49414 0.769,-0.98877 1.1645,-2.39502 0.4175,-1.40625 0.4175,-3.18603 0,-1.77979 -0.4175,-3.18604 -0.3955,-1.42822 -1.1645,-2.41699 -0.7471,-0.98877 -1.8457,-1.51612 -1.0767,-0.52734 -2.417,-0.52734 -1.3403,0 -2.417,0.52734 -1.0767,0.52735 -1.8457,1.51612 -0.7471,0.98877 -1.1646,2.41699 -0.3955,1.40625 -0.3955,3.18604 0,1.77978 0.3955,3.18603 0.4175,1.40625 1.1646,2.39502 0.769,0.9668 1.8457,1.49414 1.0767,0.52734 2.417,0.52734 z"
           style=""
           id="path4265" />
        <path
           d="m 1054.2496,255.26645 q -0.2857,-0.68115 -0.791,-1.25244 -0.5054,-0.59326 -1.2305,-1.01074 -0.7251,-0.43946 -1.6699,-0.68116 -0.9229,-0.2417 -2.0655,-0.2417 -2.2631,0 -3.5376,0.98877 -1.2744,0.98877 -1.2744,2.79053 0,1.12061 0.7032,1.91162 0.7031,0.76904 1.8457,1.36231 1.1425,0.59326 2.5927,1.09863 1.4722,0.4834 2.9883,1.07666 1.5381,0.57129 2.9883,1.34033 1.4722,0.74707 2.6147,1.8457 1.1426,1.07666 1.8457,2.61475 0.7032,1.51611 0.7032,3.64746 0,2.26319 -0.835,4.021 -0.813,1.73584 -2.2632,2.94433 -1.4502,1.18653 -3.4277,1.82373 -1.9556,0.61524 -4.2188,0.61524 -2.1093,0 -3.955,-0.54932 -1.8238,-0.52734 -3.3179,-1.51611 -1.4722,-1.01074 -2.5488,-2.41699 -1.0767,-1.42823 -1.67,-3.18604 l 4.4165,-1.604 q 0.4834,1.05469 1.1866,1.93359 0.7251,0.87891 1.6479,1.51611 0.9229,0.61524 2.0215,0.9668 1.1206,0.35156 2.395,0.35156 1.2744,0 2.3291,-0.30761 1.0547,-0.30762 1.8018,-0.92285 0.747,-0.61524 1.1645,-1.51612 0.4175,-0.92285 0.4175,-2.10937 0,-1.40625 -0.7031,-2.35108 -0.7031,-0.96679 -1.8457,-1.66992 -1.1426,-0.70312 -2.6148,-1.23047 -1.4502,-0.52734 -2.9882,-1.07666 -1.5162,-0.54931 -2.9883,-1.23047 -1.4502,-0.68115 -2.5928,-1.66992 -1.1426,-0.98877 -1.8457,-2.37305 -0.7031,-1.38427 -0.7031,-3.38378 0,-1.66993 0.6591,-3.16407 0.6812,-1.49414 1.9556,-2.61474 1.2744,-1.14258 3.1421,-1.80176 1.8677,-0.65918 4.2627,-0.65918 1.9995,0 3.6255,0.4834 1.626,0.46142 2.8345,1.29638 1.2304,0.83497 2.0434,1.97754 0.813,1.14258 1.2305,2.48291 l -4.3286,1.4502 z"
           style=""
           id="path4267" />
        <path
           d="m 1076.2222,280.16147 q -1.0107,0 -1.8457,-0.19776 -0.813,-0.19775 -1.4941,-0.54931 -0.6812,-0.35156 -1.2305,-0.79102 -0.5273,-0.46142 -0.9448,-0.98877 l 0,8.85498 -4.6802,2.1753 0,-32.05811 4.6802,0 0,1.8457 q 0.9009,-1.01074 2.2192,-1.69189 1.3184,-0.68115 3.2959,-0.68115 2.1753,0 3.9331,0.83496 1.7578,0.81299 2.9883,2.37305 1.2305,1.53808 1.8897,3.77929 0.6591,2.24121 0.6591,5.07569 0,2.83447 -0.7031,5.07568 -0.6811,2.21924 -1.9336,3.7793 -1.2304,1.53808 -2.9883,2.35107 -1.7358,0.81299 -3.8452,0.81299 z m -0.6592,-4.41651 q 2.6587,0 4.043,-1.95556 1.4063,-1.95557 1.4063,-5.64697 0,-1.66993 -0.3736,-3.07618 -0.3515,-1.40625 -1.0547,-2.41699 -0.7031,-1.01074 -1.7138,-1.58203 -1.0108,-0.57129 -2.3072,-0.57129 -1.6479,0 -2.8784,0.68115 -1.2085,0.65918 -1.9775,1.91162 l 0,9.99756 q 0.3955,0.52735 0.8789,1.01075 0.5054,0.48339 1.0986,0.85693 0.6153,0.35156 1.3184,0.57129 0.7251,0.21972 1.56,0.21972 z"
           style=""
           id="path4269" />
        <path
           d="m 1091.3394,279.61215 0,-23.00537 4.6802,0 0,2.79053 q 0.813,-1.75781 2.1094,-2.52686 1.2964,-0.79101 3.0102,-0.79101 2.2852,0 3.8672,1.38427 l -0.6811,4.32862 q -0.6373,-0.43946 -1.5162,-0.76905 -0.8569,-0.35156 -2.1093,-0.35156 -0.791,0 -1.626,0.28565 -0.813,0.26367 -1.4941,0.96679 -0.6812,0.68116 -1.1207,1.84571 -0.4394,1.14258 -0.4394,2.92236 l 0,12.91992 -4.6802,0 z"
           style=""
           id="path4271" />
        <path
           d="m 1109.5767,279.61215 0,-23.00537 4.6802,0 0,23.00537 -4.6802,0 z m 2.3291,-26.58691 q -0.5932,0 -1.1206,-0.21973 -0.5054,-0.21973 -0.9009,-0.59326 -0.3735,-0.39551 -0.5932,-0.90088 -0.2197,-0.52734 -0.2197,-1.1206 0,-0.59327 0.2197,-1.09864 0.2197,-0.52734 0.5932,-0.90088 0.3955,-0.3955 0.9009,-0.61523 0.5274,-0.21973 1.1206,-0.21973 0.5933,0 1.0987,0.21973 0.5273,0.21973 0.9008,0.61523 0.3955,0.37354 0.6153,0.90088 0.2197,0.50537 0.2197,1.09864 0,0.59326 -0.2197,1.1206 -0.2198,0.50537 -0.6153,0.90088 -0.3735,0.37353 -0.9008,0.59326 -0.5054,0.21973 -1.0987,0.21973 z"
           style=""
           id="path4273" />
        <path
           d="m 1135.2628,279.61215 0,-13.73291 q 0,-1.45019 -0.3516,-2.46094 -0.3516,-1.03271 -0.9668,-1.66992 -0.6152,-0.65918 -1.4502,-0.94482 -0.835,-0.30762 -1.8237,-0.30762 -1.0547,0 -1.9556,0.28565 -0.9009,0.26367 -1.5601,0.8789 -0.6591,0.61524 -1.0546,1.64795 -0.3736,1.01074 -0.3736,2.48291 l 0,13.8208 -4.6802,0 0,-23.00537 4.6802,0 0,2.21924 q 1.1206,-1.42822 2.5708,-2.0874 1.4502,-0.65918 3.3618,-0.65918 1.8018,0 3.3179,0.52734 1.5161,0.50537 2.6148,1.66992 1.1206,1.16455 1.7358,3.03223 0.6152,1.86768 0.6152,4.57031 l 0,13.73291 -4.6801,0 z"
           style=""
           id="path4275" />
        <path
           d="m 1151.7862,285.01743 q 2.5268,-0.15381 4.1748,-0.59327 1.6479,-0.43945 2.6147,-1.1206 0.9668,-0.65918 1.3404,-1.56006 0.3735,-0.90088 0.3735,-1.95557 l 0,-2.02148 q -1.9116,2.39502 -5.5371,2.39502 -1.9775,0 -3.6914,-0.74707 -1.7139,-0.76904 -3.0103,-2.28516 -1.2744,-1.51611 -2.0214,-3.75732 -0.7251,-2.26319 -0.7251,-5.27344 0,-2.83447 0.7031,-5.05371 0.7031,-2.24121 1.9556,-3.7793 1.2744,-1.56006 3.0322,-2.37304 1.7578,-0.81299 3.8672,-0.81299 1.0107,0 1.8457,0.19775 0.8349,0.17578 1.4941,0.4834 0.6812,0.30762 1.1865,0.70312 0.5274,0.37354 0.9009,0.76905 l 0,-1.62598 4.6802,0 0,21.24756 q 0,2.63672 -0.5274,4.48242 -0.5273,1.8457 -1.8017,3.16406 -0.8569,0.87891 -1.8897,1.42823 -1.0107,0.57129 -2.1313,0.92285 -1.0986,0.35156 -2.2412,0.50537 -1.1426,0.17578 -2.2412,0.26367 l -2.3511,-3.60351 z m 3.8232,-9.27247 q 1.4283,0 2.6587,-0.70312 1.2525,-0.70313 2.0215,-1.99951 l 0,-9.95362 q -0.3516,-0.57128 -0.8789,-1.03271 -0.5054,-0.4834 -1.1206,-0.83496 -0.5933,-0.35156 -1.2964,-0.52734 -0.6811,-0.19776 -1.3843,-0.19776 -2.7465,0 -4.1967,1.95557 -1.4283,1.93359 -1.4283,5.64697 0,1.75781 0.3955,3.18604 0.3956,1.40625 1.1206,2.39501 0.7251,0.98877 1.7579,1.53809 1.0546,0.52734 2.351,0.52734 z"
           style=""
           id="path4277" />
        <path
           d="m 1178.8565,280.16147 q -1.3623,0 -2.6587,-0.26367 -1.2964,-0.26368 -2.4389,-0.74707 -1.1207,-0.4834 -2.0435,-1.16455 -0.9229,-0.70313 -1.5381,-1.56006 l 3.3179,-2.83448 q 0.3515,0.32959 0.8569,0.74707 0.5054,0.39551 1.1646,0.74707 0.6591,0.35157 1.4721,0.59327 0.813,0.2417 1.7798,0.2417 0.8789,0 1.626,-0.13184 0.7471,-0.13184 1.2744,-0.41748 0.5493,-0.28565 0.835,-0.74707 0.3076,-0.4834 0.3076,-1.18652 0,-0.81299 -0.5713,-1.38428 -0.5493,-0.59326 -1.4502,-1.05469 -0.9009,-0.4834 -2.0435,-0.90088 -1.1425,-0.43945 -2.3071,-0.92285 -1.0766,-0.46143 -2.1094,-1.01074 -1.0327,-0.54932 -1.8457,-1.31836 -0.791,-0.76904 -1.2964,-1.82373 -0.4833,-1.07666 -0.4833,-2.59278 0,-1.53808 0.6152,-2.7246 0.6372,-1.18653 1.7139,-1.97754 1.0986,-0.81299 2.5488,-1.23047 1.4721,-0.41748 3.1421,-0.41748 1.4721,0 2.7026,0.28564 1.2524,0.28565 2.2412,0.76904 1.0108,0.4834 1.7798,1.12061 0.769,0.61523 1.3403,1.29639 l -3.3838,2.68066 q -0.3076,-0.30762 -0.747,-0.63721 -0.4175,-0.35156 -0.9888,-0.6372 -0.5713,-0.28565 -1.2964,-0.46143 -0.7251,-0.19775 -1.6479,-0.19775 -1.4942,0 -2.3731,0.54931 -0.8569,0.54932 -0.8569,1.58203 0,0.65918 0.4614,1.16456 0.4614,0.48339 1.2525,0.90087 0.791,0.41749 1.8017,0.81299 1.0327,0.37354 2.1533,0.81299 1.1866,0.46143 2.3291,1.03272 1.1426,0.57129 2.0215,1.40625 0.9009,0.83496 1.4282,2.02148 0.5494,1.18652 0.5494,2.85645 0,1.64794 -0.6153,2.92236 -0.6152,1.25244 -1.7578,2.10937 -1.1206,0.83496 -2.7246,1.25245 -1.582,0.43945 -3.5376,0.43945 z"
           style=""
           id="path4279" />
      </g>
    </g>
  </g>
  <g
     inkscape:groupmode="layer"
     id="layer3"
     inkscape:label="Date"
     transform="translate(-527.11947,-357.57074)">
    <g
       style="font-style:normal;font-variant:normal;font-weight:300;font-stretch:normal;font-size:15px;line-height:125%;font-family:Overpass;-inkscape-font-specification:'Overpass, Light';text-align:start;letter-spacing:0px;word-spacing:0px;writing-mode:lr-tb;text-anchor:start;fill:#222222;fill-opacity:1;stroke:none;stroke-width:1px;stroke-linecap:butt;stroke-linejoin:miter;stroke-opacity:1"
       id="text4206">
      <path
         d="m 552.11944,766.28705 q 0,-0.99 0.285,-1.695 0.285,-0.72 0.735,-1.26 0.45,-0.54 1.02,-0.945 0.57,-0.405 1.14,-0.795 0.495,-0.33 0.945,-0.645 0.45,-0.33 0.795,-0.69 0.36,-0.36 0.57,-0.765 0.21,-0.42 0.21,-0.93 0,-0.855 -0.6,-1.425 -0.585,-0.585 -1.68,-0.585 -1.065,0 -1.605,0.48 -0.54,0.465 -0.735,1.215 l -0.93,-0.42 q 0.12,-0.465 0.405,-0.87 0.285,-0.405 0.72,-0.705 0.435,-0.3 0.99,-0.465 0.57,-0.18 1.245,-0.18 1.56,0 2.415,0.81 0.87,0.795 0.87,2.145 0,0.72 -0.285,1.275 -0.27,0.555 -0.72,1.02 -0.435,0.45 -0.99,0.84 -0.555,0.375 -1.125,0.735 -0.45,0.3 -0.87,0.6 -0.42,0.285 -0.78,0.63 -0.345,0.33 -0.585,0.735 -0.24,0.39 -0.33,0.885 l 5.775,0 0,1.005 -6.885,0 z"
         style=""
         id="path4225" />
      <path
         d="m 565.4521,766.28705 0,-2.835 -5.1,0 0,-0.555 5.52,-7.11 0.63,0 0,6.765 1.59,0 0,0.9 -1.59,0 0,2.835 -1.05,0 z m 0,-3.735 0,-4.95 -3.735,4.95 3.735,0 z"
         style=""
         id="path4227" />
      <path
         d="m 577.57749,765.52205 q 0.9,0 1.515,-0.405 0.63,-0.405 1.005,-1.05 0.39,-0.645 0.555,-1.44 0.18,-0.81 0.18,-1.59 0,-0.855 -0.18,-1.665 -0.165,-0.81 -0.555,-1.425 -0.375,-0.63 -1.005,-1.005 -0.615,-0.39 -1.515,-0.39 -0.9,0 -1.53,0.405 -0.615,0.405 -1.005,1.05 -0.375,0.645 -0.555,1.455 -0.165,0.795 -0.165,1.575 0,0.855 0.165,1.665 0.18,0.81 0.555,1.44 0.39,0.615 1.005,1.005 0.63,0.375 1.53,0.375 z m 0,0.945 q -1.215,0 -2.055,-0.48 -0.825,-0.48 -1.335,-1.26 -0.51,-0.78 -0.735,-1.74 -0.225,-0.975 -0.225,-1.95 0,-0.975 0.225,-1.935 0.225,-0.975 0.735,-1.755 0.51,-0.78 1.335,-1.26 0.84,-0.48 2.055,-0.48 1.215,0 2.04,0.48 0.84,0.48 1.35,1.26 0.51,0.78 0.735,1.755 0.225,0.96 0.225,1.935 0,0.975 -0.225,1.95 -0.225,0.96 -0.735,1.74 -0.51,0.78 -1.35,1.26 -0.825,0.48 -2.04,0.48 z"
         style=""
         id="path4229" />
      <path
         d="m 586.66726,766.46705 q -1.395,0 -2.22,-1.035 -0.81,-1.05 -0.81,-2.97 0,-1.905 0.825,-2.955 0.84,-1.065 2.325,-1.065 0.855,0 1.5,0.42 0.645,0.405 0.96,1.185 l -0.96,0.375 q -0.18,-0.435 -0.555,-0.735 -0.36,-0.3 -0.99,-0.3 -0.54,0 -0.915,0.225 -0.375,0.21 -0.63,0.615 -0.24,0.39 -0.36,0.96 -0.105,0.57 -0.105,1.275 0,1.455 0.48,2.265 0.48,0.795 1.5,0.795 0.63,0 1.065,-0.315 0.435,-0.315 0.63,-0.855 l 0.945,0.36 q -0.27,0.81 -0.99,1.29 -0.705,0.465 -1.695,0.465 z"
         style=""
         id="path4231" />
      <path
         d="m 593.1428,766.46705 q -0.825,0 -1.17,-0.495 -0.345,-0.51 -0.345,-1.26 l 0,-5.145 -1.305,0 0,-0.945 1.305,0 0,-2.64 1.05,-0.525 0,3.165 1.95,0 0,0.945 -1.95,0 0,4.695 q 0,0.255 0.015,0.48 0.03,0.21 0.12,0.375 0.09,0.165 0.255,0.27 0.165,0.09 0.435,0.09 0.39,0 0.66,-0.15 0.285,-0.15 0.495,-0.3 l -0.12,1.095 q -0.3,0.165 -0.63,0.255 -0.33,0.09 -0.765,0.09 z"
         style=""
         id="path4233" />
      <path
         d="m 599.93194,766.28705 q 0,-0.99 0.285,-1.695 0.285,-0.72 0.735,-1.26 0.45,-0.54 1.02,-0.945 0.57,-0.405 1.14,-0.795 0.495,-0.33 0.945,-0.645 0.45,-0.33 0.795,-0.69 0.36,-0.36 0.57,-0.765 0.21,-0.42 0.21,-0.93 0,-0.855 -0.6,-1.425 -0.585,-0.585 -1.68,-0.585 -1.065,0 -1.605,0.48 -0.54,0.465 -0.735,1.215 l -0.93,-0.42 q 0.12,-0.465 0.405,-0.87 0.285,-0.405 0.72,-0.705 0.435,-0.3 0.99,-0.465 0.57,-0.18 1.245,-0.18 1.56,0 2.415,0.81 0.87,0.795 0.87,2.145 0,0.72 -0.285,1.275 -0.27,0.555 -0.72,1.02 -0.435,0.45 -0.99,0.84 -0.555,0.375 -1.125,0.735 -0.45,0.3 -0.87,0.6 -0.42,0.285 -0.78,0.63 -0.345,0.33 -0.585,0.735 -0.24,0.39 -0.33,0.885 l 5.775,0 0,1.005 -6.885,0 z"
         style=""
         id="path4235" />
      <path
         d="m 612.51108,766.46705 q -1.035,0 -1.725,-0.48 -0.69,-0.48 -1.11,-1.245 -0.405,-0.78 -0.585,-1.74 -0.18,-0.975 -0.18,-1.965 0,-0.54 0.06,-1.155 0.06,-0.63 0.21,-1.23 0.165,-0.6 0.42,-1.155 0.27,-0.555 0.675,-0.975 0.405,-0.42 0.945,-0.66 0.555,-0.255 1.29,-0.255 1.035,0 1.725,0.495 0.69,0.48 1.095,1.26 0.42,0.78 0.6,1.755 0.18,0.96 0.18,1.92 0,0.555 -0.075,1.17 -0.06,0.615 -0.225,1.23 -0.15,0.6 -0.42,1.155 -0.255,0.54 -0.66,0.96 -0.405,0.42 -0.96,0.675 -0.54,0.24 -1.26,0.24 z m 0,-0.945 q 0.78,0 1.26,-0.42 0.495,-0.435 0.765,-1.095 0.27,-0.66 0.36,-1.455 0.09,-0.795 0.09,-1.515 0,-0.81 -0.105,-1.605 -0.105,-0.81 -0.39,-1.44 -0.285,-0.645 -0.765,-1.035 -0.48,-0.405 -1.215,-0.405 -0.795,0 -1.29,0.435 -0.48,0.435 -0.75,1.095 -0.27,0.66 -0.375,1.455 -0.09,0.78 -0.09,1.5 0,0.825 0.105,1.635 0.105,0.795 0.39,1.44 0.285,0.63 0.765,1.02 0.495,0.39 1.245,0.39 z"
         style=""
         id="path4237" />
      <path
         d="m 619.53319,766.28705 0,-8.595 -1.785,0 0,-0.6 q 0.795,0 1.35,-0.27 0.555,-0.285 0.81,-1.035 l 0.675,0 0,10.5 -1.05,0 z"
         style=""
         id="path4239" />
      <path
         d="m 624.61796,766.28705 q 0.015,-1.23 0.15,-2.43 0.15,-1.2 0.51,-2.385 0.375,-1.185 0.99,-2.37 0.615,-1.2 1.575,-2.415 l -5.085,0 0,-0.9 6.285,0 0,0.69 q -1.095,1.26 -1.755,2.595 -0.66,1.32 -1.02,2.61 -0.36,1.275 -0.48,2.46 -0.12,1.185 -0.12,2.145 l -1.05,0 z"
         style=""
         id="path4241" />
    </g>
  </g>
</svg>
