<?xml version="1.0" encoding="UTF-8" standalone="no"?>
<!-- Created with Inkscape (http://www.inkscape.org/) -->

<svg
   xmlns:dc="http://purl.org/dc/elements/1.1/"
   xmlns:cc="http://creativecommons.org/ns#"
   xmlns:rdf="http://www.w3.org/1999/02/22-rdf-syntax-ns#"
   xmlns:svg="http://www.w3.org/2000/svg"
   xmlns="http://www.w3.org/2000/svg"
   xmlns:sodipodi="http://sodipodi.sourceforge.net/DTD/sodipodi-0.dtd"
   xmlns:inkscape="http://www.inkscape.org/namespaces/inkscape"
   width="890.43341"
   height="708.5285"
   viewBox="0 0 890.43339 708.52852"
   id="svg2"
   version="1.1"
   inkscape:version="0.91 r13725"
   sodipodi:docname="CVG.svg"
   inkscape:export-filename="C:\Users\paulb\Dropbox\Projects\Terminal Silhouettes\Silhouettes\png\CVG.png"
   inkscape:export-xdpi="90"
   inkscape:export-ydpi="90">
  <defs
     id="defs4" />
  <sodipodi:namedview
     id="base"
     pagecolor="#ffffff"
     bordercolor="#666666"
     borderopacity="1.0"
     inkscape:pageopacity="1"
     inkscape:pageshadow="2"
     inkscape:zoom="0.70710678"
     inkscape:cx="157.98253"
     inkscape:cy="257.21483"
     inkscape:document-units="px"
     inkscape:current-layer="layer1"
     showgrid="false"
     units="px"
     fit-margin-top="25"
     fit-margin-left="25"
     fit-margin-right="25"
     fit-margin-bottom="25"
     inkscape:window-width="1920"
     inkscape:window-height="1137"
     inkscape:window-x="1912"
     inkscape:window-y="-8"
     inkscape:window-maximized="1"
     inkscape:object-paths="false" />
  <metadata
     id="metadata7">
    <rdf:RDF>
      <cc:Work
         rdf:about="">
        <dc:format>image/svg+xml</dc:format>
        <dc:type
           rdf:resource="http://purl.org/dc/dcmitype/StillImage" />
        <dc:title></dc:title>
      </cc:Work>
    </rdf:RDF>
  </metadata>
  <g
     inkscape:groupmode="layer"
     id="layer2"
     inkscape:label="Terminal"
     style="display:inline"
     transform="translate(-1955.624,-1177.0276)">
    <path
       style="fill:#dddddd;fill-opacity:1;fill-rule:evenodd;stroke:#222222;stroke-width:1.5;stroke-linecap:butt;stroke-linejoin:miter;stroke-miterlimit:4;stroke-dasharray:none;stroke-opacity:1"
       d="m 890.84766,25.755859 -56.07813,0.396485 -1.83594,2.630859 c -11.7119,-5.6574 -18.95703,0.693359 -18.95703,0.693359 L 811.64453,26.103516 755.86328,26.5 l 0.0469,7.667969 -7.95508,0.02344 0.0488,5.0625 2.18359,0.05078 0.49609,18.310546 -2.58007,0 0,10.373047 2.33203,0.04883 0.0508,2.830079 1.72851,0.02734 0,1.261719 28.28321,-0.279297 0.0703,2.105469 8.8418,0 0.14062,8.912109 c 6.0357,3.5793 12.2832,5.19336 12.2832,5.19336 l 0,6.175781 -19.9707,0.21289 -1.12109,33.757818 11.9375,-0.19922 0,4.71484 c 18.3666,5.0118 34.38672,4.61523 34.38672,4.61523 21.0196,-0.1985 33.94726,-4.99218 33.94726,-4.99218 l -0.21679,-5.05274 12.41015,-0.14062 -0.0332,-0.73047 9.10742,0 -0.14844,-6.20313 -9.28515,0.0488 -1.29883,-26.378904 -21.99024,0.06836 -6.03711,-3.158203 c 0,0 8.84425,-0.70145 22.81055,-8.28125 l 0.0703,-8.984375 5.12305,0.07031 -0.0703,-1.824218 23.54297,0.05273 0,-1.488281 19.55273,-0.150391 0,-1.537109 19.95117,0.197265 9.31055,3.908203 6.45703,1.191407 7.79102,1.755859 41.33789,-0.703125 -0.0703,-14.876953 -49.47851,0.560547 0.0703,4.703125 c -0.3509,0.0704 -9.19531,-0.07031 -9.19531,-0.07031 l -17.33399,-7.298828 -8.98437,0.06836 -0.41992,-25.404297 -23.08008,0.154297 -0.0586,-7.113282 z m -40.17774,190.566411 0.0293,53.53906 -73.00781,0.28125 -0.0156,35.92187 -5.21289,-0.0234 0,16.52734 43.26758,0.10547 0.0391,1.50781 c -0.0269,4.5254 2.37306,8.71833 6.28906,10.98633 3.9161,2.2679 8.74836,2.26368 12.66016,-0.0117 3.9119,-2.2753 6.30453,-6.47275 6.26953,-10.99805 l -0.0273,-3.13476 9.82422,0.0351 0.0391,8.16407 27.54297,0.0996 -0.0527,-29.2793 5.37891,0 -0.0117,9.42383 321.70115,-0.76953 -0.051,-34.23829 -321.62496,0.64649 -0.01,11.63672 -5.41016,-0.0488 -0.125,-70.22266 -27.49219,-0.14843 z M 823.90039,568.9043 c -3.21506,-0.0119 -6.43286,0.79261 -9.31641,2.41211 -5.7671,3.239 -9.30929,9.24517 -9.27929,15.73437 l -2.70703,-0.0684 -0.0508,-7.24609 c 0,0 -19.56051,2.43121 -42.72071,14.85351 l -13.93164,-0.17578 0,2.80664 -12.89844,-0.041 0.0195,11.20117 -20.66796,0 c 0,0 -0.89063,-0.0587 -0.89063,-0.90234 l 0,-1.43946 -18.44531,-0.18554 0,2.52734 -73.69141,-0.38672 -0.0351,-2.34961 -19.50977,-0.14062 -1.7207,1.71875 -3.05274,0 0,4.91211 c 0,0 -5.6011,3.87841 -5.75,14.34961 0,0 -0.69533,10.07481 5.85547,15.13671 l 0,4.97461 3.08789,-0.0351 1.86133,1.96484 128.32813,0.10547 -0.0547,10.31055 25.14453,-0.0645 0,3.43946 c 0,0 0.0347,0.5275 1.85937,0.5625 l 46.03907,0.0351 -0.0684,14.07032 12.21093,-0.0703 c 10e-6,0 4.56119,6.03683 13.33399,5.86133 0,0 8.52895,-0.0357 12.56445,-5.58008 l 11.5625,0.0176 -0.0117,-0.46484 4.55469,-0.0449 -0.0352,-13.43945 47.12695,0.35156 0.0352,-16.31835 251.25395,0.14062 -0.035,-4 c 0,0 6.3899,-5.14152 6.3399,-15.16602 0,0 0.3471,-8.43557 -6.0547,-14.14257 l 0,-4.58985 -252.30473,-0.46289 -0.11132,-13.25976 -15.22461,0.14843 -0.004,-1.58984 c 0,0 -21.42942,-12.06054 -41.47852,-14.24414 l -0.0488,7.04687 -2.62305,0.01 c 0.0808,-6.4888 -3.41445,-12.52123 -9.15625,-15.80273 -2.8709,-1.6409 -6.08377,-2.46857 -9.29883,-2.48047 z"
       transform="translate(1614.9235,1177.027)"
       id="path4188"
       inkscape:connector-curvature="0" />
  </g>
  <g
     inkscape:groupmode="layer"
     id="layer1"
     inkscape:label="Label"
     transform="translate(-340.7005,-5.8138989e-4)">
    <g
       id="g4153"
       transform="translate(0,0.12556639)">
      <g
         transform="translate(255.7078,-57.39859)"
         style="font-style:normal;font-variant:normal;font-weight:bold;font-stretch:normal;font-size:125px;line-height:110.00000238%;font-family:Overpass;-inkscape-font-specification:'Overpass, Bold';text-align:start;letter-spacing:0px;word-spacing:0px;writing-mode:lr-tb;text-anchor:start;display:inline;fill:#dddddd;fill-opacity:1;stroke:#222222;stroke-width:0.25;stroke-linecap:butt;stroke-linejoin:miter;stroke-miterlimit:4;stroke-dasharray:none;stroke-opacity:1"
         id="text4136">
        <path
           style="stroke:#222222;stroke-width:0.25;stroke-miterlimit:4;stroke-dasharray:none;stroke-opacity:1"
           d="m 146.86086,172.79167 q -6.83593,0 -12.20703,-1.83105 -5.37109,-1.83106 -9.46045,-5.06592 -4.08935,-3.23486 -6.95801,-7.56836 -2.86865,-4.3335 -4.6997,-9.33838 -1.77002,-5.06592 -2.62451,-10.49805 -0.79346,-5.43212 -0.79346,-10.86425 0,-5.00489 0.85449,-10.25391 0.85449,-5.31006 2.62451,-10.31494 1.83106,-5.00488 4.69971,-9.460451 2.92969,-4.455566 6.95801,-7.8125 4.08935,-3.356933 9.46045,-5.310058 5.37109,-1.953125 12.14599,-1.953125 6.28662,0 11.41358,1.708984 5.12695,1.708984 9.0332,4.516602 3.90625,2.746582 6.5918,6.286621 2.74658,3.540039 4.21142,7.202147 l -15.13672,6.89697 q -1.58691,-2.4414 -3.23486,-4.39453 -1.64795,-1.95312 -3.54004,-3.23486 -1.89209,-1.34277 -4.21142,-2.014161 -2.2583,-0.732422 -5.12696,-0.732422 -3.66211,0 -6.53076,1.281743 -2.86865,1.2207 -5.00488,3.35693 -2.13623,2.13623 -3.60108,5.00488 -1.46484,2.86865 -2.38037,6.10352 -0.91552,3.17383 -1.34277,6.59179 -0.36621,3.35694 -0.36621,6.53077 0,5.12695 1.09863,10.2539 1.09863,5.12696 3.41797,9.27735 2.31934,4.15039 5.92041,6.7749 3.66211,2.56348 8.78906,2.56348 2.68555,0 4.94385,-0.79346 2.2583,-0.85449 4.15039,-2.31934 1.95313,-1.46484 3.60108,-3.54004 1.70898,-2.07519 3.17382,-4.57763 l 15.50293,5.85937 q -2.07519,4.82178 -5.00488,8.8501 -2.92969,3.96728 -6.83594,6.83594 -3.84521,2.80761 -8.72802,4.39453 -4.88282,1.58691 -10.80323,1.58691 z"
           id="path4142"
           inkscape:connector-curvature="0" />
        <path
           style="stroke:#222222;stroke-width:0.25;stroke-miterlimit:4;stroke-dasharray:none;stroke-opacity:1"
           d="m 236.76565,171.38786 -16.23535,0 -31.00586,-87.524411 18.24951,0 19.22607,57.250981 q 0.48828,1.4038 0.91553,3.05175 0.48828,1.58692 0.85449,2.99073 0.30518,-1.34278 0.73242,-2.92969 0.42725,-1.58692 0.91553,-3.11279 l 19.22608,-57.250981 18.00537,0 -30.88379,87.524411 z"
           id="path4144"
           inkscape:connector-curvature="0" />
        <path
           style="stroke:#222222;stroke-width:0.25;stroke-miterlimit:4;stroke-dasharray:none;stroke-opacity:1"
           d="m 312.44924,172.91374 q -6.7749,0 -12.26806,-1.77002 -5.49317,-1.77002 -9.76563,-4.88281 -4.27246,-3.11279 -7.38525,-7.38525 -3.1128,-4.3335 -5.12696,-9.33838 -2.01416,-5.00489 -2.99072,-10.55908 -0.97656,-5.61524 -0.97656,-11.35254 0,-5.31006 0.97656,-10.74219 1.0376,-5.43213 3.11279,-10.43701 2.13623,-5.06592 5.24903,-9.460452 3.17383,-4.394532 7.44629,-7.629395 4.33349,-3.234863 9.70459,-5.065918 5.43212,-1.89209 12.02392,-1.89209 6.34766,0 11.16944,1.586914 4.88281,1.586914 8.60595,4.211426 3.78418,2.563477 6.53076,5.981446 2.80762,3.356933 5.06592,6.958009 l -14.89258,8.48389 q -1.46484,-2.19727 -3.17382,-4.1504 -1.70899,-2.01416 -3.72315,-3.54003 -1.95312,-1.52588 -4.33349,-2.380376 -2.38038,-0.915527 -5.24903,-0.915527 -4.08935,0 -7.20215,1.281738 -3.11279,1.220705 -5.49316,3.417965 -2.31934,2.13623 -3.90625,5.00489 -1.58691,2.86865 -2.56348,6.10351 -0.97656,3.23487 -1.40381,6.65283 -0.42724,3.35694 -0.42724,6.53077 0,5.5542 1.15967,10.80322 1.15966,5.18799 3.66211,9.27734 2.56347,4.02832 6.53076,6.46973 4.02832,2.44141 9.64355,2.44141 3.17383,0 5.92041,-1.09864 2.80762,-1.15967 4.88281,-3.05176 2.0752,-1.95312 3.23487,-4.57763 1.2207,-2.62451 1.2207,-5.61524 l 0,-0.73242 -14.89258,0 0,-16.05224 32.10449,0 0,12.87841 q 0,8.42286 -2.50244,14.89258 -2.50244,6.40869 -6.89697,10.80322 -4.3335,4.3335 -10.25391,6.5918 -5.92041,2.2583 -12.81738,2.2583 z"
           id="path4146"
           inkscape:connector-curvature="0" />
      </g>
      <g
         transform="translate(255.7078,-57.39859)"
         style="font-style:normal;font-variant:normal;font-weight:normal;font-stretch:normal;font-size:45px;line-height:110.00000238%;font-family:Overpass;-inkscape-font-specification:'Overpass, Normal';text-align:start;letter-spacing:0px;word-spacing:0px;writing-mode:lr-tb;text-anchor:start;display:inline;fill:#222222;fill-opacity:1;stroke:none;stroke-width:1px;stroke-linecap:butt;stroke-linejoin:miter;stroke-opacity:1"
         id="text4142">
        <path
           d="m 141.36404,220.96072 q -2.43897,0 -4.37256,-0.65918 -1.91162,-0.68115 -3.36182,-1.82373 -1.45019,-1.16455 -2.48291,-2.72461 -1.01074,-1.58203 -1.64795,-3.38378 -0.6372,-1.82374 -0.94482,-3.7793 -0.28565,-1.97754 -0.28565,-3.93311 0,-1.80175 0.28565,-3.71338 0.30762,-1.91162 0.94482,-3.71337 0.65918,-1.82374 1.6919,-3.42774 1.03271,-1.604 2.48291,-2.8125 1.45019,-1.2085 3.36181,-1.91162 1.91162,-0.70313 4.32862,-0.70313 2.21923,0 3.99902,0.54932 1.77979,0.52734 3.09814,1.40625 1.34034,0.87891 2.24122,1.99951 0.90087,1.12061 1.38427,2.28516 l -4.28467,1.99951 q -0.57128,-0.90088 -1.20849,-1.58203 -0.61524,-0.70313 -1.38428,-1.18652 -0.74707,-0.4834 -1.69189,-0.7251 -0.94483,-0.2417 -2.15332,-0.2417 -1.58203,0 -2.8125,0.50537 -1.2085,0.50537 -2.13135,1.38428 -0.90088,0.8789 -1.53809,2.04345 -0.6372,1.16456 -1.03271,2.48291 -0.37354,1.29639 -0.54932,2.68067 -0.17578,1.38428 -0.17578,2.68066 0,2.08741 0.46143,4.19678 0.48339,2.10938 1.49414,3.80127 1.01074,1.69189 2.5708,2.74658 1.56006,1.05469 3.71338,1.05469 1.16455,0 2.0874,-0.28565 0.94482,-0.30761 1.71387,-0.83496 0.79101,-0.54931 1.40625,-1.29638 0.6372,-0.74707 1.18652,-1.64795 l 4.37256,1.66992 q -0.65918,1.53809 -1.64795,2.8125 -0.9668,1.27441 -2.30713,2.17529 -1.31836,0.90088 -3.03223,1.40625 -1.69189,0.50537 -3.77929,0.50537 z"
           id="path4149"
           inkscape:connector-curvature="0" />
        <path
           d="m 158.04128,220.41141 0,-23.00537 4.68018,0 0,23.00537 -4.68018,0 z m 2.3291,-26.58692 q -0.59326,0 -1.1206,-0.21972 -0.50537,-0.21973 -0.90088,-0.59326 -0.37354,-0.39551 -0.59326,-0.90088 -0.21973,-0.52735 -0.21973,-1.12061 0,-0.59326 0.21973,-1.09863 0.21972,-0.52735 0.59326,-0.90088 0.39551,-0.39551 0.90088,-0.61524 0.52734,-0.21972 1.1206,-0.21972 0.59327,0 1.09864,0.21972 0.52734,0.21973 0.90088,0.61524 0.3955,0.37353 0.61523,0.90088 0.21973,0.50537 0.21973,1.09863 0,0.59326 -0.21973,1.12061 -0.21973,0.50537 -0.61523,0.90088 -0.37354,0.37353 -0.90088,0.59326 -0.50537,0.21972 -1.09864,0.21972 z"
           id="path4151"
           inkscape:connector-curvature="0" />
        <path
           d="m 183.72732,220.41141 0,-13.73291 q 0,-1.4502 -0.35156,-2.46094 -0.35157,-1.03272 -0.9668,-1.66992 -0.61524,-0.65918 -1.4502,-0.94483 -0.83496,-0.30761 -1.82373,-0.30761 -1.05468,0 -1.95556,0.28564 -0.90088,0.26367 -1.56006,0.87891 -0.65918,0.61523 -1.05469,1.64795 -0.37354,1.01074 -0.37354,2.48291 l 0,13.8208 -4.68017,0 0,-23.00537 4.68017,0 0,2.21923 q 1.12061,-1.42822 2.57081,-2.0874 1.45019,-0.65918 3.36181,-0.65918 1.80176,0 3.31787,0.52735 1.51612,0.50537 2.61475,1.66992 1.1206,1.16455 1.73584,3.03222 0.61523,1.86768 0.61523,4.57032 l 0,13.73291 -4.68017,0 z"
           id="path4153"
           inkscape:connector-curvature="0" />
        <path
           d="m 203.81033,220.96072 q -2.30713,0 -4.17481,-0.81298 -1.8457,-0.81299 -3.16406,-2.35108 -1.29639,-1.56006 -1.99951,-3.7793 -0.70313,-2.24121 -0.70313,-5.07568 0,-2.83447 0.70313,-5.07568 0.70312,-2.24121 1.99951,-3.7793 1.31836,-1.56006 3.16406,-2.37305 1.86768,-0.83496 4.17481,-0.83496 3.208,0 5.42724,1.42823 2.24121,1.42822 3.25195,4.50439 l -4.43847,1.53809 q -0.50537,-1.31836 -1.53809,-2.13135 -1.03271,-0.83496 -2.52685,-0.83496 -1.31836,0 -2.3291,0.52734 -1.01075,0.52734 -1.71387,1.51611 -0.68115,0.9668 -1.05469,2.37305 -0.35156,1.38428 -0.35156,3.14209 0,1.75781 0.35156,3.16406 0.37354,1.38428 1.03272,2.35108 0.68115,0.96679 1.64794,1.49414 0.98877,0.50537 2.24122,0.50537 1.58203,0 2.70263,-0.87891 1.14258,-0.8789 1.62598,-2.50488 l 4.43848,1.40625 q -0.92286,3.20801 -3.14209,4.85596 -2.19727,1.62597 -5.625,1.62597 z"
           id="path4155"
           inkscape:connector-curvature="0" />
        <path
           d="m 218.24636,220.41141 0,-23.00537 4.68018,0 0,23.00537 -4.68018,0 z m 2.3291,-26.58692 q -0.59326,0 -1.1206,-0.21972 -0.50537,-0.21973 -0.90088,-0.59326 -0.37354,-0.39551 -0.59326,-0.90088 -0.21973,-0.52735 -0.21973,-1.12061 0,-0.59326 0.21973,-1.09863 0.21972,-0.52735 0.59326,-0.90088 0.39551,-0.39551 0.90088,-0.61524 0.52734,-0.21972 1.1206,-0.21972 0.59326,0 1.09864,0.21972 0.52734,0.21973 0.90087,0.61524 0.39551,0.37353 0.61524,0.90088 0.21972,0.50537 0.21972,1.09863 0,0.59326 -0.21972,1.12061 -0.21973,0.50537 -0.61524,0.90088 -0.37353,0.37353 -0.90087,0.59326 -0.50538,0.21972 -1.09864,0.21972 z"
           id="path4157"
           inkscape:connector-curvature="0" />
        <path
           d="m 243.9324,220.41141 0,-13.73291 q 0,-1.4502 -0.35157,-2.46094 -0.35156,-1.03272 -0.96679,-1.66992 -0.61524,-0.65918 -1.4502,-0.94483 -0.83496,-0.30761 -1.82373,-0.30761 -1.05469,0 -1.95557,0.28564 -0.90087,0.26367 -1.56005,0.87891 -0.65918,0.61523 -1.05469,1.64795 -0.37354,1.01074 -0.37354,2.48291 l 0,13.8208 -4.68017,0 0,-23.00537 4.68017,0 0,2.21923 q 1.12061,-1.42822 2.5708,-2.0874 1.4502,-0.65918 3.36182,-0.65918 1.80176,0 3.31787,0.52735 1.51611,0.50537 2.61475,1.66992 1.1206,1.16455 1.73584,3.03222 0.61523,1.86768 0.61523,4.57032 l 0,13.73291 -4.68017,0 z"
           id="path4159"
           inkscape:connector-curvature="0" />
        <path
           d="m 269.33279,220.41141 0,-13.73291 q 0,-1.4502 -0.35157,-2.46094 -0.35156,-1.03272 -0.96679,-1.66992 -0.61524,-0.65918 -1.4502,-0.94483 -0.83496,-0.30761 -1.82373,-0.30761 -1.05469,0 -1.95557,0.28564 -0.90087,0.26367 -1.56005,0.87891 -0.65918,0.61523 -1.05469,1.64795 -0.37354,1.01074 -0.37354,2.48291 l 0,13.8208 -4.68017,0 0,-23.00537 4.68017,0 0,2.21923 q 1.12061,-1.42822 2.5708,-2.0874 1.4502,-0.65918 3.36182,-0.65918 1.80176,0 3.31787,0.52735 1.51612,0.50537 2.61475,1.66992 1.1206,1.16455 1.73584,3.03222 0.61523,1.86768 0.61523,4.57032 l 0,13.73291 -4.68017,0 z"
           id="path4161"
           inkscape:connector-curvature="0" />
        <path
           d="m 298.13894,220.41141 -4.48242,0 0,-1.97754 q -0.43946,0.46142 -1.05469,0.92285 -0.61523,0.43945 -1.40625,0.81299 -0.76904,0.35156 -1.73584,0.57129 -0.9668,0.21972 -2.10938,0.21972 -1.75781,0 -3.25195,-0.48339 -1.49414,-0.4834 -2.59277,-1.4502 -1.09863,-0.98877 -1.73584,-2.41699 -0.61524,-1.4502 -0.61524,-3.36182 0,-1.97754 0.74707,-3.40576 0.74707,-1.4502 1.97754,-2.37305 1.23047,-0.94482 2.8125,-1.38427 1.60401,-0.43946 3.2959,-0.43946 1.58203,0 3.03223,0.35156 1.47217,0.32959 2.63672,1.01075 l 0,-1.27442 q 0,-1.29638 -0.30762,-2.19726 -0.28564,-0.90088 -0.90088,-1.4502 -0.59326,-0.57129 -1.51611,-0.81299 -0.92285,-0.26367 -2.19727,-0.26367 -2.15332,0 -3.73535,0.57129 -1.56006,0.57129 -2.83447,1.51611 l -1.38428,-3.84521 q 0.70313,-0.4834 1.604,-0.90088 0.90088,-0.43945 1.97754,-0.76904 1.07666,-0.32959 2.3291,-0.50537 1.25245,-0.19776 2.68067,-0.19776 0.9668,0 1.99951,0.10987 1.03272,0.10986 1.99951,0.43945 0.98877,0.30762 1.84571,0.90088 0.8789,0.59326 1.51611,1.56006 0.65918,0.94482 1.03271,2.3291 0.37354,1.38428 0.37354,3.2959 l 0,14.89746 z m -9.93164,-3.60352 q 1.77978,0 3.14209,-0.7251 1.38428,-0.72509 2.30713,-1.73584 l 0,-3.51562 q -0.9668,-0.50537 -2.26319,-0.81299 -1.29638,-0.30762 -2.65869,-0.30762 -1.05469,0 -1.97754,0.19776 -0.92285,0.19775 -1.62597,0.6372 -0.68116,0.41749 -1.07666,1.09864 -0.39551,0.65918 -0.39551,1.604 0,1.64795 1.14258,2.61475 1.16455,0.94482 3.40576,0.94482 z"
           id="path4163"
           inkscape:connector-curvature="0" />
        <path
           d="m 311.16872,220.96072 q -1.3623,0 -2.35107,-0.41748 -0.9668,-0.3955 -1.604,-1.14257 -0.61524,-0.74708 -0.90088,-1.80176 -0.28565,-1.07666 -0.28565,-2.37305 l 0,-13.75488 -3.55957,0 0,-4.06494 3.55957,0 0,-7.22901 4.68018,-2.26318 0,9.49219 5.44922,0 0,4.06494 -5.44922,0 0,12.54638 q 0,0.57129 0.0879,1.05469 0.10986,0.4834 0.35156,0.83496 0.26367,0.35157 0.70313,0.54932 0.43945,0.17578 1.1206,0.17578 1.66992,0 3.40576,-1.07666 l -0.57129,4.35059 q -0.96679,0.48339 -2.10937,0.76904 -1.14258,0.28564 -2.52686,0.28564 z"
           id="path4165"
           inkscape:connector-curvature="0" />
        <path
           d="m 321.60574,220.41141 0,-23.00537 4.68017,0 0,23.00537 -4.68017,0 z m 2.3291,-26.58692 q -0.59326,0 -1.12061,-0.21972 -0.50537,-0.21973 -0.90088,-0.59326 -0.37353,-0.39551 -0.59326,-0.90088 -0.21973,-0.52735 -0.21973,-1.12061 0,-0.59326 0.21973,-1.09863 0.21973,-0.52735 0.59326,-0.90088 0.39551,-0.39551 0.90088,-0.61524 0.52735,-0.21972 1.12061,-0.21972 0.59326,0 1.09863,0.21972 0.52734,0.21973 0.90088,0.61524 0.39551,0.37353 0.61523,0.90088 0.21973,0.50537 0.21973,1.09863 0,0.59326 -0.21973,1.12061 -0.21972,0.50537 -0.61523,0.90088 -0.37354,0.37353 -0.90088,0.59326 -0.50537,0.21972 -1.09863,0.21972 z"
           id="path4167"
           inkscape:connector-curvature="0" />
      </g>
    </g>
  </g>
  <g
     inkscape:groupmode="layer"
     id="layer3"
     inkscape:label="Date">
    <g
       style="font-style:normal;font-variant:normal;font-weight:300;font-stretch:normal;font-size:15px;line-height:125%;font-family:Overpass;-inkscape-font-specification:'Overpass, Light';text-align:start;letter-spacing:0px;word-spacing:0px;writing-mode:lr-tb;text-anchor:start;fill:#000000;fill-opacity:1;stroke:none;stroke-width:1px;stroke-linecap:butt;stroke-linejoin:miter;stroke-opacity:1"
       id="text4171">
      <path
         d="m 26.785,683.34845 0,-8.595 -1.785,0 0,-0.6 q 0.795,0 1.35,-0.27 0.555,-0.285 0.81,-1.035 l 0.675,0 0,10.5 -1.05,0 z"
         style=""
         id="path4176" />
      <path
         d="m 33.894765,682.58345 q 0.495,0 0.915,-0.15 0.435,-0.165 0.75,-0.465 0.315,-0.3 0.495,-0.735 0.18,-0.435 0.18,-0.99 0,-0.465 -0.165,-0.885 -0.165,-0.42 -0.48,-0.735 -0.3,-0.33 -0.735,-0.51 -0.435,-0.195 -0.96,-0.195 -0.525,0 -0.96,0.195 -0.435,0.18 -0.75,0.51 -0.3,0.315 -0.465,0.735 -0.165,0.42 -0.165,0.885 0,0.555 0.18,0.99 0.18,0.435 0.495,0.735 0.315,0.3 0.735,0.465 0.435,0.15 0.93,0.15 z m 0,-9.915 q 0.63,0 1.17,0.225 0.555,0.21 0.945,0.585 0.39,0.375 0.615,0.87 0.225,0.495 0.225,1.035 0,0.675 -0.345,1.275 -0.33,0.585 -1.05,0.885 0.84,0.315 1.35,1.095 0.525,0.765 0.525,1.755 0,0.66 -0.255,1.245 -0.255,0.57 -0.72,0.99 -0.465,0.42 -1.095,0.66 -0.63,0.24 -1.365,0.24 -0.75,0 -1.38,-0.24 -0.615,-0.24 -1.08,-0.66 -0.465,-0.42 -0.72,-0.99 -0.255,-0.585 -0.255,-1.245 0,-0.495 0.135,-0.945 0.135,-0.45 0.375,-0.81 0.255,-0.375 0.6,-0.66 0.345,-0.285 0.75,-0.435 -0.675,-0.3 -1.035,-0.885 -0.345,-0.6 -0.345,-1.275 0,-0.54 0.225,-1.035 0.225,-0.495 0.615,-0.87 0.39,-0.375 0.93,-0.585 0.555,-0.225 1.185,-0.225 z m 0,4.56 q 0.87,0 1.38,-0.48 0.51,-0.48 0.51,-1.23 0,-0.885 -0.54,-1.395 -0.54,-0.51 -1.35,-0.51 -0.81,0 -1.35,0.51 -0.54,0.51 -0.54,1.395 0,0.75 0.51,1.23 0.51,0.48 1.38,0.48 z"
         style=""
         id="path4178" />
      <path
         d="m 51.23664,683.34845 0,-7.77 -3.51,7.95 -3.27,-7.905 0,7.725 -1.05,0 0,-10.5 0.9,0 3.51,8.175 3.555,-8.175 0.915,0 0,10.5 -1.05,0 z"
         style=""
         id="path4180" />
      <path
         d="m 59.632656,683.34845 0,-0.75 q -0.465,0.42 -1.05,0.675 -0.57,0.255 -1.2,0.255 -1.155,0 -1.89,-0.645 -0.72,-0.66 -0.72,-1.95 0,-0.66 0.225,-1.14 0.24,-0.48 0.615,-0.78 0.39,-0.315 0.9,-0.465 0.51,-0.15 1.05,-0.15 0.48,0 0.99,0.12 0.51,0.12 1.08,0.42 l 0,-0.645 q 0,-0.585 -0.15,-0.945 -0.135,-0.36 -0.375,-0.57 -0.225,-0.21 -0.54,-0.285 -0.3,-0.075 -0.615,-0.075 -0.285,0 -0.6,0.075 -0.315,0.075 -0.615,0.195 -0.3,0.12 -0.585,0.27 -0.27,0.135 -0.48,0.285 l -0.3,-0.9 q 0.465,-0.3 1.17,-0.57 0.72,-0.27 1.515,-0.27 0.405,0 0.855,0.12 0.45,0.105 0.825,0.405 0.375,0.285 0.615,0.81 0.255,0.51 0.255,1.32 l 0,5.19 -0.975,0 z m -2.145,-0.735 q 0.345,0 0.66,-0.105 0.315,-0.105 0.585,-0.27 0.27,-0.165 0.495,-0.375 0.225,-0.225 0.405,-0.435 l 0,-1.485 q -0.375,-0.255 -0.93,-0.435 -0.54,-0.195 -1.035,-0.195 -0.39,0 -0.735,0.105 -0.345,0.09 -0.615,0.3 -0.255,0.195 -0.42,0.495 -0.15,0.3 -0.15,0.72 0,0.765 0.45,1.23 0.45,0.45 1.29,0.45 z"
         style=""
         id="path4182" />
      <path
         d="m 63.015625,683.34845 0,-7.665 1.05,0 0,1.08 q 0.42,-0.63 0.975,-0.945 0.555,-0.315 1.08,-0.315 0.57,0 0.96,0.315 l -0.165,1.02 q -0.15,-0.09 -0.39,-0.18 -0.225,-0.105 -0.6,-0.105 -0.255,0 -0.585,0.12 -0.315,0.12 -0.6,0.405 -0.285,0.285 -0.48,0.765 -0.195,0.465 -0.195,1.17 l 0,4.335 -1.05,0 z"
         style=""
         id="path4184" />
      <path
         d="m 71.988437,683.34845 q 0,-0.99 0.285,-1.695 0.285,-0.72 0.735,-1.26 0.45,-0.54 1.02,-0.945 0.57,-0.405 1.14,-0.795 0.495,-0.33 0.945,-0.645 0.45,-0.33 0.795,-0.69 0.36,-0.36 0.57,-0.765 0.21,-0.42 0.21,-0.93 0,-0.855 -0.6,-1.425 -0.585,-0.585 -1.68,-0.585 -1.065,0 -1.605,0.48 -0.54,0.465 -0.735,1.215 l -0.93,-0.42 q 0.12,-0.465 0.405,-0.87 0.285,-0.405 0.72,-0.705 0.435,-0.3 0.99,-0.465 0.57,-0.18 1.245,-0.18 1.56,0 2.415,0.81 0.87,0.795 0.87,2.145 0,0.72 -0.285,1.275 -0.27,0.555 -0.72,1.02 -0.435,0.45 -0.99,0.84 -0.555,0.375 -1.125,0.735 -0.45,0.3 -0.87,0.6 -0.42,0.285 -0.78,0.63 -0.345,0.33 -0.585,0.735 -0.24,0.39 -0.33,0.885 l 5.775,0 0,1.005 -6.885,0 z"
         style=""
         id="path4186" />
      <path
         d="m 84.567578,683.52845 q -1.035,0 -1.725,-0.48 -0.69,-0.48 -1.11,-1.245 -0.405,-0.78 -0.585,-1.74 -0.18,-0.975 -0.18,-1.965 0,-0.54 0.06,-1.155 0.06,-0.63 0.21,-1.23 0.165,-0.6 0.42,-1.155 0.27,-0.555 0.675,-0.975 0.405,-0.42 0.945,-0.66 0.555,-0.255 1.29,-0.255 1.035,0 1.725,0.495 0.69,0.48 1.095,1.26 0.42,0.78 0.6,1.755 0.18,0.96 0.18,1.92 0,0.555 -0.075,1.17 -0.06,0.615 -0.225,1.23 -0.15,0.6 -0.42,1.155 -0.255,0.54 -0.66,0.96 -0.405,0.42 -0.96,0.675 -0.54,0.24 -1.26,0.24 z m 0,-0.945 q 0.78,0 1.26,-0.42 0.495,-0.435 0.765,-1.095 0.27,-0.66 0.36,-1.455 0.09,-0.795 0.09,-1.515 0,-0.81 -0.105,-1.605 -0.105,-0.81 -0.39,-1.44 -0.285,-0.645 -0.765,-1.035 -0.48,-0.405 -1.215,-0.405 -0.795,0 -1.29,0.435 -0.48,0.435 -0.75,1.095 -0.27,0.66 -0.375,1.455 -0.09,0.78 -0.09,1.5 0,0.825 0.105,1.635 0.105,0.795 0.39,1.44 0.285,0.63 0.765,1.02 0.495,0.39 1.245,0.39 z"
         style=""
         id="path4189" />
      <path
         d="m 91.589687,683.34845 0,-8.595 -1.785,0 0,-0.6 q 0.795,0 1.35,-0.27 0.555,-0.285 0.81,-1.035 l 0.675,0 0,10.5 -1.05,0 z"
         style=""
         id="path4191" />
      <path
         d="m 98.699453,682.58345 q 0.495,0 0.915,-0.15 0.434997,-0.165 0.749997,-0.465 0.315,-0.3 0.495,-0.735 0.18,-0.435 0.18,-0.99 0,-0.465 -0.165,-0.885 -0.165,-0.42 -0.48,-0.735 -0.3,-0.33 -0.734997,-0.51 -0.435,-0.195 -0.96,-0.195 -0.525,0 -0.96,0.195 -0.435,0.18 -0.75,0.51 -0.3,0.315 -0.465,0.735 -0.165,0.42 -0.165,0.885 0,0.555 0.18,0.99 0.18,0.435 0.495,0.735 0.315,0.3 0.735,0.465 0.435,0.15 0.93,0.15 z m 0,-9.915 q 0.63,0 1.17,0.225 0.554997,0.21 0.944997,0.585 0.39,0.375 0.615,0.87 0.225,0.495 0.225,1.035 0,0.675 -0.345,1.275 -0.33,0.585 -1.05,0.885 0.84,0.315 1.35,1.095 0.525,0.765 0.525,1.755 0,0.66 -0.255,1.245 -0.255,0.57 -0.72,0.99 -0.465,0.42 -1.095,0.66 -0.629997,0.24 -1.364997,0.24 -0.75,0 -1.38,-0.24 -0.615,-0.24 -1.08,-0.66 -0.465,-0.42 -0.72,-0.99 -0.255,-0.585 -0.255,-1.245 0,-0.495 0.135,-0.945 0.135,-0.45 0.375,-0.81 0.255,-0.375 0.6,-0.66 0.345,-0.285 0.75,-0.435 -0.675,-0.3 -1.035,-0.885 -0.345,-0.6 -0.345,-1.275 0,-0.54 0.225,-1.035 0.225,-0.495 0.615,-0.87 0.39,-0.375 0.93,-0.585 0.555,-0.225 1.185,-0.225 z m 0,4.56 q 0.87,0 1.379997,-0.48 0.51,-0.48 0.51,-1.23 0,-0.885 -0.54,-1.395 -0.539997,-0.51 -1.349997,-0.51 -0.81,0 -1.35,0.51 -0.54,0.51 -0.54,1.395 0,0.75 0.51,1.23 0.51,0.48 1.38,0.48 z"
         style=""
         id="path4193" />
    </g>
  </g>
</svg>
