<?xml version="1.0" encoding="UTF-8" standalone="no"?>
<!-- Created with Inkscape (http://www.inkscape.org/) -->

<svg
   xmlns:dc="http://purl.org/dc/elements/1.1/"
   xmlns:cc="http://creativecommons.org/ns#"
   xmlns:rdf="http://www.w3.org/1999/02/22-rdf-syntax-ns#"
   xmlns:svg="http://www.w3.org/2000/svg"
   xmlns="http://www.w3.org/2000/svg"
   xmlns:sodipodi="http://sodipodi.sourceforge.net/DTD/sodipodi-0.dtd"
   xmlns:inkscape="http://www.inkscape.org/namespaces/inkscape"
   width="1041.0575"
   height="857.77319"
   viewBox="0 0 1041.0575 857.77321"
   id="svg2"
   version="1.1"
   inkscape:version="0.92.4 (5da689c313, 2019-01-14)"
   sodipodi:docname="CVG.svg"
   inkscape:export-filename="C:\Users\paulb\Dropbox\Projects\Terminal Silhouettes\Silhouettes\png\CVG.png"
   inkscape:export-xdpi="90"
   inkscape:export-ydpi="90">
  <defs
     id="defs4" />
  <sodipodi:namedview
     id="base"
     pagecolor="#ffffff"
     bordercolor="#666666"
     borderopacity="1.0"
     inkscape:pageopacity="1"
     inkscape:pageshadow="2"
     inkscape:zoom="1"
     inkscape:cx="369.47777"
     inkscape:cy="420.42813"
     inkscape:document-units="px"
     inkscape:current-layer="layer1"
     showgrid="false"
     units="px"
     fit-margin-top="100"
     fit-margin-left="100"
     fit-margin-right="100"
     fit-margin-bottom="100"
     inkscape:window-width="1920"
     inkscape:window-height="1137"
     inkscape:window-x="1912"
     inkscape:window-y="-8"
     inkscape:window-maximized="1"
     inkscape:object-paths="false"
     inkscape:snap-page="true"
     inkscape:object-nodes="true" />
  <metadata
     id="metadata7">
    <rdf:RDF>
      <cc:Work
         rdf:about="">
        <dc:format>image/svg+xml</dc:format>
        <dc:type
           rdf:resource="http://purl.org/dc/dcmitype/StillImage" />
        <dc:title />
      </cc:Work>
    </rdf:RDF>
  </metadata>
  <g
     inkscape:groupmode="layer"
     id="layer3"
     inkscape:label="Background">
    <rect
       style="opacity:1;fill:#dbdcdf;fill-opacity:1;stroke:none;stroke-width:3;stroke-linecap:butt;stroke-linejoin:miter;stroke-miterlimit:4;stroke-dasharray:none;stroke-dashoffset:0;stroke-opacity:1"
       id="rect4209"
       width="1041.0575"
       height="857.77319"
       x="0"
       y="0" />
  </g>
  <g
     inkscape:groupmode="layer"
     id="layer2"
     inkscape:label="Terminal"
     style="display:inline"
     transform="translate(-1879.2491,-1102.7828)">
    <path
       style="fill:#60646c;fill-opacity:1;fill-rule:evenodd;stroke:none;stroke-width:1.5;stroke-linecap:butt;stroke-linejoin:miter;stroke-miterlimit:4;stroke-dasharray:none;stroke-opacity:1"
       d="m 890.84766,25.755859 -56.07813,0.396485 -1.83594,2.630859 c -11.7119,-5.6574 -18.95703,0.693359 -18.95703,0.693359 L 811.64453,26.103516 755.86328,26.5 l 0.0469,7.667969 -7.95508,0.02344 0.0488,5.0625 2.18359,0.05078 0.49609,18.310546 -2.58007,0 0,10.373047 2.33203,0.04883 0.0508,2.830079 1.72851,0.02734 0,1.261719 28.28321,-0.279297 0.0703,2.105469 8.8418,0 0.14062,8.912109 c 6.0357,3.5793 12.2832,5.19336 12.2832,5.19336 l 0,6.175781 -19.9707,0.21289 -1.12109,33.757818 11.9375,-0.19922 0,4.71484 c 18.3666,5.0118 34.38672,4.61523 34.38672,4.61523 21.0196,-0.1985 33.94726,-4.99218 33.94726,-4.99218 l -0.21679,-5.05274 12.41015,-0.14062 -0.0332,-0.73047 9.10742,0 -0.14844,-6.20313 -9.28515,0.0488 -1.29883,-26.378904 -21.99024,0.06836 -6.03711,-3.158203 c 0,0 8.84425,-0.70145 22.81055,-8.28125 l 0.0703,-8.984375 5.12305,0.07031 -0.0703,-1.824218 23.54297,0.05273 0,-1.488281 19.55273,-0.150391 0,-1.537109 19.95117,0.197265 9.31055,3.908203 6.45703,1.191407 7.79102,1.755859 41.33789,-0.703125 -0.0703,-14.876953 -49.47851,0.560547 0.0703,4.703125 c -0.3509,0.0704 -9.19531,-0.07031 -9.19531,-0.07031 l -17.33399,-7.298828 -8.98437,0.06836 -0.41992,-25.404297 -23.08008,0.154297 -0.0586,-7.113282 z m -40.17774,190.566411 0.0293,53.53906 -73.00781,0.28125 -0.0156,35.92187 -5.21289,-0.0234 0,16.52734 43.26758,0.10547 0.0391,1.50781 c -0.0269,4.5254 2.37306,8.71833 6.28906,10.98633 3.9161,2.2679 8.74836,2.26368 12.66016,-0.0117 3.9119,-2.2753 6.30453,-6.47275 6.26953,-10.99805 l -0.0273,-3.13476 9.82422,0.0351 0.0391,8.16407 27.54297,0.0996 -0.0527,-29.2793 5.37891,0 -0.0117,9.42383 321.70115,-0.76953 -0.051,-34.23829 -321.62496,0.64649 -0.01,11.63672 -5.41016,-0.0488 -0.125,-70.22266 -27.49219,-0.14843 z M 823.90039,568.9043 c -3.21506,-0.0119 -6.43286,0.79261 -9.31641,2.41211 -5.7671,3.239 -9.30929,9.24517 -9.27929,15.73437 l -2.70703,-0.0684 -0.0508,-7.24609 c 0,0 -19.56051,2.43121 -42.72071,14.85351 l -13.93164,-0.17578 0,2.80664 -12.89844,-0.041 0.0195,11.20117 -20.66796,0 c 0,0 -0.89063,-0.0587 -0.89063,-0.90234 l 0,-1.43946 -18.44531,-0.18554 0,2.52734 -73.69141,-0.38672 -0.0351,-2.34961 -19.50977,-0.14062 -1.7207,1.71875 -3.05274,0 0,4.91211 c 0,0 -5.6011,3.87841 -5.75,14.34961 0,0 -0.69533,10.07481 5.85547,15.13671 l 0,4.97461 3.08789,-0.0351 1.86133,1.96484 128.32813,0.10547 -0.0547,10.31055 25.14453,-0.0645 0,3.43946 c 0,0 0.0347,0.5275 1.85937,0.5625 l 46.03907,0.0351 -0.0684,14.07032 12.21093,-0.0703 c 10e-6,0 4.56119,6.03683 13.33399,5.86133 0,0 8.52895,-0.0357 12.56445,-5.58008 l 11.5625,0.0176 -0.0117,-0.46484 4.55469,-0.0449 -0.0352,-13.43945 47.12695,0.35156 0.0352,-16.31835 251.25395,0.14062 -0.035,-4 c 0,0 6.3899,-5.14152 6.3399,-15.16602 0,0 0.3471,-8.43557 -6.0547,-14.14257 l 0,-4.58985 -252.30473,-0.46289 -0.11132,-13.25976 -15.22461,0.14843 -0.004,-1.58984 c 0,0 -21.42942,-12.06054 -41.47852,-14.24414 l -0.0488,7.04687 -2.62305,0.01 c 0.0808,-6.4888 -3.41445,-12.52123 -9.15625,-15.80273 -2.8709,-1.6409 -6.08377,-2.46857 -9.29883,-2.48047 z"
       transform="translate(1614.9235,1177.027)"
       id="path4188"
       inkscape:connector-curvature="0" />
  </g>
  <g
     inkscape:groupmode="layer"
     id="layer1"
     inkscape:label="Text"
     transform="translate(-264.32555,74.244192)">
    <g
       id="g4185"
       transform="translate(0,2.8802224)">
      <g
         transform="translate(255.70785,-58.023019)"
         style="font-style:normal;font-variant:normal;font-weight:bold;font-stretch:normal;font-size:125px;line-height:110.00000238%;font-family:Overpass;-inkscape-font-specification:'Overpass, Bold';text-align:start;letter-spacing:0px;word-spacing:0px;writing-mode:lr-tb;text-anchor:start;display:inline;fill:none;fill-opacity:1;stroke:#60646c;stroke-width:3;stroke-linecap:butt;stroke-linejoin:miter;stroke-miterlimit:4;stroke-dasharray:none;stroke-opacity:1"
         id="text4136">
        <path
           style="fill:none;stroke:#60646c;stroke-width:3;stroke-miterlimit:4;stroke-dasharray:none;stroke-opacity:1"
           d="m 146.86086,172.79167 q -6.83593,0 -12.20703,-1.83105 -5.37109,-1.83106 -9.46045,-5.06592 -4.08935,-3.23486 -6.95801,-7.56836 -2.86865,-4.3335 -4.6997,-9.33838 -1.77002,-5.06592 -2.62451,-10.49805 -0.79346,-5.43212 -0.79346,-10.86425 0,-5.00489 0.85449,-10.25391 0.85449,-5.31006 2.62451,-10.31494 1.83106,-5.00488 4.69971,-9.460451 2.92969,-4.455566 6.95801,-7.8125 4.08935,-3.356933 9.46045,-5.310058 5.37109,-1.953125 12.14599,-1.953125 6.28662,0 11.41358,1.708984 5.12695,1.708984 9.0332,4.516602 3.90625,2.746582 6.5918,6.286621 2.74658,3.540039 4.21142,7.202147 l -15.13672,6.89697 q -1.58691,-2.4414 -3.23486,-4.39453 -1.64795,-1.95312 -3.54004,-3.23486 -1.89209,-1.34277 -4.21142,-2.014161 -2.2583,-0.732422 -5.12696,-0.732422 -3.66211,0 -6.53076,1.281743 -2.86865,1.2207 -5.00488,3.35693 -2.13623,2.13623 -3.60108,5.00488 -1.46484,2.86865 -2.38037,6.10352 -0.91552,3.17383 -1.34277,6.59179 -0.36621,3.35694 -0.36621,6.53077 0,5.12695 1.09863,10.2539 1.09863,5.12696 3.41797,9.27735 2.31934,4.15039 5.92041,6.7749 3.66211,2.56348 8.78906,2.56348 2.68555,0 4.94385,-0.79346 2.2583,-0.85449 4.15039,-2.31934 1.95313,-1.46484 3.60108,-3.54004 1.70898,-2.07519 3.17382,-4.57763 l 15.50293,5.85937 q -2.07519,4.82178 -5.00488,8.8501 -2.92969,3.96728 -6.83594,6.83594 -3.84521,2.80761 -8.72802,4.39453 -4.88282,1.58691 -10.80323,1.58691 z"
           id="path4142"
           inkscape:connector-curvature="0" />
        <path
           style="fill:none;stroke:#60646c;stroke-width:3;stroke-miterlimit:4;stroke-dasharray:none;stroke-opacity:1"
           d="m 236.76565,171.38786 -16.23535,0 -31.00586,-87.524411 18.24951,0 19.22607,57.250981 q 0.48828,1.4038 0.91553,3.05175 0.48828,1.58692 0.85449,2.99073 0.30518,-1.34278 0.73242,-2.92969 0.42725,-1.58692 0.91553,-3.11279 l 19.22608,-57.250981 18.00537,0 -30.88379,87.524411 z"
           id="path4144"
           inkscape:connector-curvature="0" />
        <path
           style="fill:none;stroke:#60646c;stroke-width:3;stroke-miterlimit:4;stroke-dasharray:none;stroke-opacity:1"
           d="m 312.44924,172.91374 q -6.7749,0 -12.26806,-1.77002 -5.49317,-1.77002 -9.76563,-4.88281 -4.27246,-3.11279 -7.38525,-7.38525 -3.1128,-4.3335 -5.12696,-9.33838 -2.01416,-5.00489 -2.99072,-10.55908 -0.97656,-5.61524 -0.97656,-11.35254 0,-5.31006 0.97656,-10.74219 1.0376,-5.43213 3.11279,-10.43701 2.13623,-5.06592 5.24903,-9.460452 3.17383,-4.394532 7.44629,-7.629395 4.33349,-3.234863 9.70459,-5.065918 5.43212,-1.89209 12.02392,-1.89209 6.34766,0 11.16944,1.586914 4.88281,1.586914 8.60595,4.211426 3.78418,2.563477 6.53076,5.981446 2.80762,3.356933 5.06592,6.958009 l -14.89258,8.48389 q -1.46484,-2.19727 -3.17382,-4.1504 -1.70899,-2.01416 -3.72315,-3.54003 -1.95312,-1.52588 -4.33349,-2.380376 -2.38038,-0.915527 -5.24903,-0.915527 -4.08935,0 -7.20215,1.281738 -3.11279,1.220705 -5.49316,3.417965 -2.31934,2.13623 -3.90625,5.00489 -1.58691,2.86865 -2.56348,6.10351 -0.97656,3.23487 -1.40381,6.65283 -0.42724,3.35694 -0.42724,6.53077 0,5.5542 1.15967,10.80322 1.15966,5.18799 3.66211,9.27734 2.56347,4.02832 6.53076,6.46973 4.02832,2.44141 9.64355,2.44141 3.17383,0 5.92041,-1.09864 2.80762,-1.15967 4.88281,-3.05176 2.0752,-1.95312 3.23487,-4.57763 1.2207,-2.62451 1.2207,-5.61524 l 0,-0.73242 -14.89258,0 0,-16.05224 32.10449,0 0,12.87841 q 0,8.42286 -2.50244,14.89258 -2.50244,6.40869 -6.89697,10.80322 -4.3335,4.3335 -10.25391,6.5918 -5.92041,2.2583 -12.81738,2.2583 z"
           id="path4146"
           inkscape:connector-curvature="0" />
      </g>
      <g
         transform="translate(255.70785,-56.523029)"
         style="font-style:normal;font-variant:normal;font-weight:normal;font-stretch:normal;font-size:45px;line-height:110.00000238%;font-family:Overpass;-inkscape-font-specification:'Overpass, Normal';text-align:start;letter-spacing:0px;word-spacing:0px;writing-mode:lr-tb;text-anchor:start;display:inline;fill:#60646c;fill-opacity:1;stroke:none;stroke-width:1px;stroke-linecap:butt;stroke-linejoin:miter;stroke-opacity:1"
         id="text4142">
        <path
           style="fill:#60646c;fill-opacity:1"
           d="m 141.36404,220.96072 q -2.43897,0 -4.37256,-0.65918 -1.91162,-0.68115 -3.36182,-1.82373 -1.45019,-1.16455 -2.48291,-2.72461 -1.01074,-1.58203 -1.64795,-3.38378 -0.6372,-1.82374 -0.94482,-3.7793 -0.28565,-1.97754 -0.28565,-3.93311 0,-1.80175 0.28565,-3.71338 0.30762,-1.91162 0.94482,-3.71337 0.65918,-1.82374 1.6919,-3.42774 1.03271,-1.604 2.48291,-2.8125 1.45019,-1.2085 3.36181,-1.91162 1.91162,-0.70313 4.32862,-0.70313 2.21923,0 3.99902,0.54932 1.77979,0.52734 3.09814,1.40625 1.34034,0.87891 2.24122,1.99951 0.90087,1.12061 1.38427,2.28516 l -4.28467,1.99951 q -0.57128,-0.90088 -1.20849,-1.58203 -0.61524,-0.70313 -1.38428,-1.18652 -0.74707,-0.4834 -1.69189,-0.7251 -0.94483,-0.2417 -2.15332,-0.2417 -1.58203,0 -2.8125,0.50537 -1.2085,0.50537 -2.13135,1.38428 -0.90088,0.8789 -1.53809,2.04345 -0.6372,1.16456 -1.03271,2.48291 -0.37354,1.29639 -0.54932,2.68067 -0.17578,1.38428 -0.17578,2.68066 0,2.08741 0.46143,4.19678 0.48339,2.10938 1.49414,3.80127 1.01074,1.69189 2.5708,2.74658 1.56006,1.05469 3.71338,1.05469 1.16455,0 2.0874,-0.28565 0.94482,-0.30761 1.71387,-0.83496 0.79101,-0.54931 1.40625,-1.29638 0.6372,-0.74707 1.18652,-1.64795 l 4.37256,1.66992 q -0.65918,1.53809 -1.64795,2.8125 -0.9668,1.27441 -2.30713,2.17529 -1.31836,0.90088 -3.03223,1.40625 -1.69189,0.50537 -3.77929,0.50537 z"
           id="path4149"
           inkscape:connector-curvature="0" />
        <path
           style="fill:#60646c;fill-opacity:1"
           d="m 158.04128,220.41141 0,-23.00537 4.68018,0 0,23.00537 -4.68018,0 z m 2.3291,-26.58692 q -0.59326,0 -1.1206,-0.21972 -0.50537,-0.21973 -0.90088,-0.59326 -0.37354,-0.39551 -0.59326,-0.90088 -0.21973,-0.52735 -0.21973,-1.12061 0,-0.59326 0.21973,-1.09863 0.21972,-0.52735 0.59326,-0.90088 0.39551,-0.39551 0.90088,-0.61524 0.52734,-0.21972 1.1206,-0.21972 0.59327,0 1.09864,0.21972 0.52734,0.21973 0.90088,0.61524 0.3955,0.37353 0.61523,0.90088 0.21973,0.50537 0.21973,1.09863 0,0.59326 -0.21973,1.12061 -0.21973,0.50537 -0.61523,0.90088 -0.37354,0.37353 -0.90088,0.59326 -0.50537,0.21972 -1.09864,0.21972 z"
           id="path4151"
           inkscape:connector-curvature="0" />
        <path
           style="fill:#60646c;fill-opacity:1"
           d="m 183.72732,220.41141 0,-13.73291 q 0,-1.4502 -0.35156,-2.46094 -0.35157,-1.03272 -0.9668,-1.66992 -0.61524,-0.65918 -1.4502,-0.94483 -0.83496,-0.30761 -1.82373,-0.30761 -1.05468,0 -1.95556,0.28564 -0.90088,0.26367 -1.56006,0.87891 -0.65918,0.61523 -1.05469,1.64795 -0.37354,1.01074 -0.37354,2.48291 l 0,13.8208 -4.68017,0 0,-23.00537 4.68017,0 0,2.21923 q 1.12061,-1.42822 2.57081,-2.0874 1.45019,-0.65918 3.36181,-0.65918 1.80176,0 3.31787,0.52735 1.51612,0.50537 2.61475,1.66992 1.1206,1.16455 1.73584,3.03222 0.61523,1.86768 0.61523,4.57032 l 0,13.73291 -4.68017,0 z"
           id="path4153"
           inkscape:connector-curvature="0" />
        <path
           style="fill:#60646c;fill-opacity:1"
           d="m 203.81033,220.96072 q -2.30713,0 -4.17481,-0.81298 -1.8457,-0.81299 -3.16406,-2.35108 -1.29639,-1.56006 -1.99951,-3.7793 -0.70313,-2.24121 -0.70313,-5.07568 0,-2.83447 0.70313,-5.07568 0.70312,-2.24121 1.99951,-3.7793 1.31836,-1.56006 3.16406,-2.37305 1.86768,-0.83496 4.17481,-0.83496 3.208,0 5.42724,1.42823 2.24121,1.42822 3.25195,4.50439 l -4.43847,1.53809 q -0.50537,-1.31836 -1.53809,-2.13135 -1.03271,-0.83496 -2.52685,-0.83496 -1.31836,0 -2.3291,0.52734 -1.01075,0.52734 -1.71387,1.51611 -0.68115,0.9668 -1.05469,2.37305 -0.35156,1.38428 -0.35156,3.14209 0,1.75781 0.35156,3.16406 0.37354,1.38428 1.03272,2.35108 0.68115,0.96679 1.64794,1.49414 0.98877,0.50537 2.24122,0.50537 1.58203,0 2.70263,-0.87891 1.14258,-0.8789 1.62598,-2.50488 l 4.43848,1.40625 q -0.92286,3.20801 -3.14209,4.85596 -2.19727,1.62597 -5.625,1.62597 z"
           id="path4155"
           inkscape:connector-curvature="0" />
        <path
           style="fill:#60646c;fill-opacity:1"
           d="m 218.24636,220.41141 0,-23.00537 4.68018,0 0,23.00537 -4.68018,0 z m 2.3291,-26.58692 q -0.59326,0 -1.1206,-0.21972 -0.50537,-0.21973 -0.90088,-0.59326 -0.37354,-0.39551 -0.59326,-0.90088 -0.21973,-0.52735 -0.21973,-1.12061 0,-0.59326 0.21973,-1.09863 0.21972,-0.52735 0.59326,-0.90088 0.39551,-0.39551 0.90088,-0.61524 0.52734,-0.21972 1.1206,-0.21972 0.59326,0 1.09864,0.21972 0.52734,0.21973 0.90087,0.61524 0.39551,0.37353 0.61524,0.90088 0.21972,0.50537 0.21972,1.09863 0,0.59326 -0.21972,1.12061 -0.21973,0.50537 -0.61524,0.90088 -0.37353,0.37353 -0.90087,0.59326 -0.50538,0.21972 -1.09864,0.21972 z"
           id="path4157"
           inkscape:connector-curvature="0" />
        <path
           style="fill:#60646c;fill-opacity:1"
           d="m 243.9324,220.41141 0,-13.73291 q 0,-1.4502 -0.35157,-2.46094 -0.35156,-1.03272 -0.96679,-1.66992 -0.61524,-0.65918 -1.4502,-0.94483 -0.83496,-0.30761 -1.82373,-0.30761 -1.05469,0 -1.95557,0.28564 -0.90087,0.26367 -1.56005,0.87891 -0.65918,0.61523 -1.05469,1.64795 -0.37354,1.01074 -0.37354,2.48291 l 0,13.8208 -4.68017,0 0,-23.00537 4.68017,0 0,2.21923 q 1.12061,-1.42822 2.5708,-2.0874 1.4502,-0.65918 3.36182,-0.65918 1.80176,0 3.31787,0.52735 1.51611,0.50537 2.61475,1.66992 1.1206,1.16455 1.73584,3.03222 0.61523,1.86768 0.61523,4.57032 l 0,13.73291 -4.68017,0 z"
           id="path4159"
           inkscape:connector-curvature="0" />
        <path
           style="fill:#60646c;fill-opacity:1"
           d="m 269.33279,220.41141 0,-13.73291 q 0,-1.4502 -0.35157,-2.46094 -0.35156,-1.03272 -0.96679,-1.66992 -0.61524,-0.65918 -1.4502,-0.94483 -0.83496,-0.30761 -1.82373,-0.30761 -1.05469,0 -1.95557,0.28564 -0.90087,0.26367 -1.56005,0.87891 -0.65918,0.61523 -1.05469,1.64795 -0.37354,1.01074 -0.37354,2.48291 l 0,13.8208 -4.68017,0 0,-23.00537 4.68017,0 0,2.21923 q 1.12061,-1.42822 2.5708,-2.0874 1.4502,-0.65918 3.36182,-0.65918 1.80176,0 3.31787,0.52735 1.51612,0.50537 2.61475,1.66992 1.1206,1.16455 1.73584,3.03222 0.61523,1.86768 0.61523,4.57032 l 0,13.73291 -4.68017,0 z"
           id="path4161"
           inkscape:connector-curvature="0" />
        <path
           style="fill:#60646c;fill-opacity:1"
           d="m 298.13894,220.41141 -4.48242,0 0,-1.97754 q -0.43946,0.46142 -1.05469,0.92285 -0.61523,0.43945 -1.40625,0.81299 -0.76904,0.35156 -1.73584,0.57129 -0.9668,0.21972 -2.10938,0.21972 -1.75781,0 -3.25195,-0.48339 -1.49414,-0.4834 -2.59277,-1.4502 -1.09863,-0.98877 -1.73584,-2.41699 -0.61524,-1.4502 -0.61524,-3.36182 0,-1.97754 0.74707,-3.40576 0.74707,-1.4502 1.97754,-2.37305 1.23047,-0.94482 2.8125,-1.38427 1.60401,-0.43946 3.2959,-0.43946 1.58203,0 3.03223,0.35156 1.47217,0.32959 2.63672,1.01075 l 0,-1.27442 q 0,-1.29638 -0.30762,-2.19726 -0.28564,-0.90088 -0.90088,-1.4502 -0.59326,-0.57129 -1.51611,-0.81299 -0.92285,-0.26367 -2.19727,-0.26367 -2.15332,0 -3.73535,0.57129 -1.56006,0.57129 -2.83447,1.51611 l -1.38428,-3.84521 q 0.70313,-0.4834 1.604,-0.90088 0.90088,-0.43945 1.97754,-0.76904 1.07666,-0.32959 2.3291,-0.50537 1.25245,-0.19776 2.68067,-0.19776 0.9668,0 1.99951,0.10987 1.03272,0.10986 1.99951,0.43945 0.98877,0.30762 1.84571,0.90088 0.8789,0.59326 1.51611,1.56006 0.65918,0.94482 1.03271,2.3291 0.37354,1.38428 0.37354,3.2959 l 0,14.89746 z m -9.93164,-3.60352 q 1.77978,0 3.14209,-0.7251 1.38428,-0.72509 2.30713,-1.73584 l 0,-3.51562 q -0.9668,-0.50537 -2.26319,-0.81299 -1.29638,-0.30762 -2.65869,-0.30762 -1.05469,0 -1.97754,0.19776 -0.92285,0.19775 -1.62597,0.6372 -0.68116,0.41749 -1.07666,1.09864 -0.39551,0.65918 -0.39551,1.604 0,1.64795 1.14258,2.61475 1.16455,0.94482 3.40576,0.94482 z"
           id="path4163"
           inkscape:connector-curvature="0" />
        <path
           style="fill:#60646c;fill-opacity:1"
           d="m 311.16872,220.96072 q -1.3623,0 -2.35107,-0.41748 -0.9668,-0.3955 -1.604,-1.14257 -0.61524,-0.74708 -0.90088,-1.80176 -0.28565,-1.07666 -0.28565,-2.37305 l 0,-13.75488 -3.55957,0 0,-4.06494 3.55957,0 0,-7.22901 4.68018,-2.26318 0,9.49219 5.44922,0 0,4.06494 -5.44922,0 0,12.54638 q 0,0.57129 0.0879,1.05469 0.10986,0.4834 0.35156,0.83496 0.26367,0.35157 0.70313,0.54932 0.43945,0.17578 1.1206,0.17578 1.66992,0 3.40576,-1.07666 l -0.57129,4.35059 q -0.96679,0.48339 -2.10937,0.76904 -1.14258,0.28564 -2.52686,0.28564 z"
           id="path4165"
           inkscape:connector-curvature="0" />
        <path
           style="fill:#60646c;fill-opacity:1"
           d="m 321.60574,220.41141 0,-23.00537 4.68017,0 0,23.00537 -4.68017,0 z m 2.3291,-26.58692 q -0.59326,0 -1.12061,-0.21972 -0.50537,-0.21973 -0.90088,-0.59326 -0.37353,-0.39551 -0.59326,-0.90088 -0.21973,-0.52735 -0.21973,-1.12061 0,-0.59326 0.21973,-1.09863 0.21973,-0.52735 0.59326,-0.90088 0.39551,-0.39551 0.90088,-0.61524 0.52735,-0.21972 1.12061,-0.21972 0.59326,0 1.09863,0.21972 0.52734,0.21973 0.90088,0.61524 0.39551,0.37353 0.61523,0.90088 0.21973,0.50537 0.21973,1.09863 0,0.59326 -0.21973,1.12061 -0.21972,0.50537 -0.61523,0.90088 -0.37354,0.37353 -0.90088,0.59326 -0.50537,0.21972 -1.09863,0.21972 z"
           id="path4167"
           inkscape:connector-curvature="0" />
      </g>
    </g>
    <g
       style="font-style:normal;font-variant:normal;font-weight:300;font-stretch:normal;font-size:12.5px;line-height:125%;font-family:Overpass;-inkscape-font-specification:'Overpass, Light';text-align:start;letter-spacing:0px;word-spacing:0px;writing-mode:lr-tb;text-anchor:start;fill:#60646c;fill-opacity:1;stroke:none;stroke-width:1px;stroke-linecap:butt;stroke-linejoin:miter;stroke-opacity:1"
       id="text4202">
      <path
         d="m 285.81306,745.24152 0,-7.1625 -1.4875,0 0,-0.5 q 0.6625,0 1.125,-0.225 0.4625,-0.2375 0.675,-0.8625 l 0.5625,0 0,8.75 -0.875,0 z"
         style=""
         id="path4212" />
      <path
         d="m 291.73787,744.60402 q 0.4125,0 0.7625,-0.125 0.3625,-0.1375 0.625,-0.3875 0.2625,-0.25 0.4125,-0.6125 0.15,-0.3625 0.15,-0.825 0,-0.3875 -0.1375,-0.7375 -0.1375,-0.35 -0.4,-0.6125 -0.25,-0.275 -0.6125,-0.425 -0.3625,-0.1625 -0.8,-0.1625 -0.4375,0 -0.8,0.1625 -0.3625,0.15 -0.625,0.425 -0.25,0.2625 -0.3875,0.6125 -0.1375,0.35 -0.1375,0.7375 0,0.4625 0.15,0.825 0.15,0.3625 0.4125,0.6125 0.2625,0.25 0.6125,0.3875 0.3625,0.125 0.775,0.125 z m 0,-8.2625 q 0.525,0 0.975,0.1875 0.4625,0.175 0.7875,0.4875 0.325,0.3125 0.5125,0.725 0.1875,0.4125 0.1875,0.8625 0,0.5625 -0.2875,1.0625 -0.275,0.4875 -0.875,0.7375 0.7,0.2625 1.125,0.9125 0.4375,0.6375 0.4375,1.4625 0,0.55 -0.2125,1.0375 -0.2125,0.475 -0.6,0.825 -0.3875,0.35 -0.9125,0.55 -0.525,0.2 -1.1375,0.2 -0.625,0 -1.15,-0.2 -0.5125,-0.2 -0.9,-0.55 -0.3875,-0.35 -0.6,-0.825 -0.2125,-0.4875 -0.2125,-1.0375 0,-0.4125 0.1125,-0.7875 0.1125,-0.375 0.3125,-0.675 0.2125,-0.3125 0.5,-0.55 0.2875,-0.2375 0.625,-0.3625 -0.5625,-0.25 -0.8625,-0.7375 -0.2875,-0.5 -0.2875,-1.0625 0,-0.45 0.1875,-0.8625 0.1875,-0.4125 0.5125,-0.725 0.325,-0.3125 0.775,-0.4875 0.4625,-0.1875 0.9875,-0.1875 z m 0,3.8 q 0.725,0 1.15,-0.4 0.425,-0.4 0.425,-1.025 0,-0.7375 -0.45,-1.1625 -0.45,-0.425 -1.125,-0.425 -0.675,0 -1.125,0.425 -0.45,0.425 -0.45,1.1625 0,0.625 0.425,1.025 0.425,0.4 1.15,0.4 z"
         style=""
         id="path4214" />
      <path
         d="m 306.18943,745.24152 0,-6.475 -2.925,6.625 -2.725,-6.5875 0,6.4375 -0.875,0 0,-8.75 0.75,0 2.925,6.8125 2.9625,-6.8125 0.7625,0 0,8.75 -0.875,0 z"
         style=""
         id="path4216" />
      <path
         d="m 313.18611,745.24152 0,-0.625 q -0.3875,0.35 -0.875,0.5625 -0.475,0.2125 -1,0.2125 -0.9625,0 -1.575,-0.5375 -0.6,-0.55 -0.6,-1.625 0,-0.55 0.1875,-0.95 0.2,-0.4 0.5125,-0.65 0.325,-0.2625 0.75,-0.3875 0.425,-0.125 0.875,-0.125 0.4,0 0.825,0.1 0.425,0.1 0.9,0.35 l 0,-0.5375 q 0,-0.4875 -0.125,-0.7875 -0.1125,-0.3 -0.3125,-0.475 -0.1875,-0.175 -0.45,-0.2375 -0.25,-0.0625 -0.5125,-0.0625 -0.2375,0 -0.5,0.0625 -0.2625,0.0625 -0.5125,0.1625 -0.25,0.1 -0.4875,0.225 -0.225,0.1125 -0.4,0.2375 l -0.25,-0.75 q 0.3875,-0.25 0.975,-0.475 0.6,-0.225 1.2625,-0.225 0.3375,0 0.7125,0.1 0.375,0.0875 0.6875,0.3375 0.3125,0.2375 0.5125,0.675 0.2125,0.425 0.2125,1.1 l 0,4.325 -0.8125,0 z m -1.7875,-0.6125 q 0.2875,0 0.55,-0.0875 0.2625,-0.0875 0.4875,-0.225 0.225,-0.1375 0.4125,-0.3125 0.1875,-0.1875 0.3375,-0.3625 l 0,-1.2375 q -0.3125,-0.2125 -0.775,-0.3625 -0.45,-0.1625 -0.8625,-0.1625 -0.325,0 -0.6125,0.0875 -0.2875,0.075 -0.5125,0.25 -0.2125,0.1625 -0.35,0.4125 -0.125,0.25 -0.125,0.6 0,0.6375 0.375,1.025 0.375,0.375 1.075,0.375 z"
         style=""
         id="path4218" />
      <path
         d="m 316.00525,745.24152 0,-6.3875 0.875,0 0,0.9 q 0.35,-0.525 0.8125,-0.7875 0.4625,-0.2625 0.9,-0.2625 0.475,0 0.8,0.2625 l -0.1375,0.85 q -0.125,-0.075 -0.325,-0.15 -0.1875,-0.0875 -0.5,-0.0875 -0.2125,0 -0.4875,0.1 -0.2625,0.1 -0.5,0.3375 -0.2375,0.2375 -0.4,0.6375 -0.1625,0.3875 -0.1625,0.975 l 0,3.6125 -0.875,0 z"
         style=""
         id="path4220" />
      <path
         d="m 323.48259,745.24152 q 0,-0.825 0.2375,-1.4125 0.2375,-0.6 0.6125,-1.05 0.375,-0.45 0.85,-0.7875 0.475,-0.3375 0.95,-0.6625 0.4125,-0.275 0.7875,-0.5375 0.375,-0.275 0.6625,-0.575 0.3,-0.3 0.475,-0.6375 0.175,-0.35 0.175,-0.775 0,-0.7125 -0.5,-1.1875 -0.4875,-0.4875 -1.4,-0.4875 -0.8875,0 -1.3375,0.4 -0.45,0.3875 -0.6125,1.0125 l -0.775,-0.35 q 0.1,-0.3875 0.3375,-0.725 0.2375,-0.3375 0.6,-0.5875 0.3625,-0.25 0.825,-0.3875 0.475,-0.15 1.0375,-0.15 1.3,0 2.0125,0.675 0.725,0.6625 0.725,1.7875 0,0.6 -0.2375,1.0625 -0.225,0.4625 -0.6,0.85 -0.3625,0.375 -0.825,0.7 -0.4625,0.3125 -0.9375,0.6125 -0.375,0.25 -0.725,0.5 -0.35,0.2375 -0.65,0.525 -0.2875,0.275 -0.4875,0.6125 -0.2,0.325 -0.275,0.7375 l 4.8125,0 0,0.8375 -5.7375,0 z"
         style=""
         id="path4222" />
      <path
         d="m 333.96521,745.39152 q -0.8625,0 -1.4375,-0.4 -0.575,-0.4 -0.925,-1.0375 -0.3375,-0.65 -0.4875,-1.45 -0.15,-0.8125 -0.15,-1.6375 0,-0.45 0.05,-0.9625 0.05,-0.525 0.175,-1.025 0.1375,-0.5 0.35,-0.9625 0.225,-0.4625 0.5625,-0.8125 0.3375,-0.35 0.7875,-0.55 0.4625,-0.2125 1.075,-0.2125 0.8625,0 1.4375,0.4125 0.575,0.4 0.9125,1.05 0.35,0.65 0.5,1.4625 0.15,0.8 0.15,1.6 0,0.4625 -0.0625,0.975 -0.05,0.5125 -0.1875,1.025 -0.125,0.5 -0.35,0.9625 -0.2125,0.45 -0.55,0.8 -0.3375,0.35 -0.8,0.5625 -0.45,0.2 -1.05,0.2 z m 0,-0.7875 q 0.65,0 1.05,-0.35 0.4125,-0.3625 0.6375,-0.9125 0.225,-0.55 0.3,-1.2125 0.075,-0.6625 0.075,-1.2625 0,-0.675 -0.0875,-1.3375 -0.0875,-0.675 -0.325,-1.2 -0.2375,-0.5375 -0.6375,-0.8625 -0.4,-0.3375 -1.0125,-0.3375 -0.6625,0 -1.075,0.3625 -0.4,0.3625 -0.625,0.9125 -0.225,0.55 -0.3125,1.2125 -0.075,0.65 -0.075,1.25 0,0.6875 0.0875,1.3625 0.0875,0.6625 0.325,1.2 0.2375,0.525 0.6375,0.85 0.4125,0.325 1.0375,0.325 z"
         style=""
         id="path4224" />
      <path
         d="m 339.81697,745.24152 0,-7.1625 -1.4875,0 0,-0.5 q 0.6625,0 1.125,-0.225 0.4625,-0.2375 0.675,-0.8625 l 0.5625,0 0,8.75 -0.875,0 z"
         style=""
         id="path4226" />
      <path
         d="m 345.74177,744.60402 q 0.4125,0 0.7625,-0.125 0.3625,-0.1375 0.625,-0.3875 0.2625,-0.25 0.4125,-0.6125 0.15,-0.3625 0.15,-0.825 0,-0.3875 -0.1375,-0.7375 -0.1375,-0.35 -0.4,-0.6125 -0.25,-0.275 -0.6125,-0.425 -0.3625,-0.1625 -0.8,-0.1625 -0.4375,0 -0.8,0.1625 -0.3625,0.15 -0.625,0.425 -0.25,0.2625 -0.3875,0.6125 -0.1375,0.35 -0.1375,0.7375 0,0.4625 0.15,0.825 0.15,0.3625 0.4125,0.6125 0.2625,0.25 0.6125,0.3875 0.3625,0.125 0.775,0.125 z m 0,-8.2625 q 0.525,0 0.975,0.1875 0.4625,0.175 0.7875,0.4875 0.325,0.3125 0.5125,0.725 0.1875,0.4125 0.1875,0.8625 0,0.5625 -0.2875,1.0625 -0.275,0.4875 -0.875,0.7375 0.7,0.2625 1.125,0.9125 0.4375,0.6375 0.4375,1.4625 0,0.55 -0.2125,1.0375 -0.2125,0.475 -0.6,0.825 -0.3875,0.35 -0.9125,0.55 -0.525,0.2 -1.1375,0.2 -0.625,0 -1.15,-0.2 -0.5125,-0.2 -0.9,-0.55 -0.3875,-0.35 -0.6,-0.825 -0.2125,-0.4875 -0.2125,-1.0375 0,-0.4125 0.1125,-0.7875 0.1125,-0.375 0.3125,-0.675 0.2125,-0.3125 0.5,-0.55 0.2875,-0.2375 0.625,-0.3625 -0.5625,-0.25 -0.8625,-0.7375 -0.2875,-0.5 -0.2875,-1.0625 0,-0.45 0.1875,-0.8625 0.1875,-0.4125 0.5125,-0.725 0.325,-0.3125 0.775,-0.4875 0.4625,-0.1875 0.9875,-0.1875 z m 0,3.8 q 0.725,0 1.15,-0.4 0.425,-0.4 0.425,-1.025 0,-0.7375 -0.45,-1.1625 -0.45,-0.425 -1.125,-0.425 -0.675,0 -1.125,0.425 -0.45,0.425 -0.45,1.1625 0,0.625 0.425,1.025 0.425,0.4 1.15,0.4 z"
         style=""
         id="path4228" />
      <path
         d="m 287.57556,761.01652 q -0.675,0 -1.075,-0.2375 -0.4,-0.2375 -0.675,-0.5625 l 0,2.75 -0.875,0.4375 0,-8.925 0.875,0 0,0.575 q 0.3125,-0.2875 0.7,-0.5 0.4,-0.225 1.05,-0.225 0.6125,0 1.1,0.2375 0.4875,0.2375 0.825,0.675 0.35,0.4375 0.525,1.0625 0.1875,0.6125 0.1875,1.3625 0,0.8 -0.2,1.425 -0.1875,0.625 -0.5375,1.05 -0.35,0.425 -0.8375,0.65 -0.4875,0.225 -1.0625,0.225 z m -0.1,-0.7875 q 0.875,0 1.35,-0.65 0.475,-0.6625 0.475,-1.9125 0,-1.175 -0.4875,-1.8625 -0.475,-0.6875 -1.3375,-0.6875 -0.525,0 -0.9625,0.2625 -0.425,0.25 -0.6875,0.725 l 0,3.1375 q 0.325,0.425 0.725,0.7125 0.4,0.275 0.925,0.275 z"
         style=""
         id="path4230" />
      <path
         d="m 294.65623,761.01652 q -0.3375,0 -0.6,-0.0625 -0.2625,-0.0625 -0.475,-0.1625 -0.2,-0.1125 -0.375,-0.2375 -0.175,-0.125 -0.325,-0.2625 l 0,0.575 -0.875,0 0,-8.5875 0.875,-0.4375 0,3.2625 q 0.3125,-0.3375 0.7625,-0.55 0.4625,-0.225 0.9375,-0.225 0.6,0 1.0875,0.225 0.4875,0.225 0.825,0.6625 0.35,0.425 0.5375,1.05 0.1875,0.6125 0.1875,1.4 0,1.6375 -0.675,2.5 -0.675,0.85 -1.8875,0.85 z m -0.1375,-0.7875 q 0.9,0 1.3375,-0.6875 0.45,-0.6875 0.45,-1.875 0,-1.2375 -0.45,-1.8875 -0.4375,-0.6625 -1.3375,-0.6625 -0.3,0 -0.5625,0.1 -0.25,0.0875 -0.4625,0.2375 -0.2125,0.1375 -0.375,0.3125 -0.15,0.175 -0.2375,0.325 l 0,3.1375 q 0.2625,0.45 0.7125,0.725 0.45,0.275 0.925,0.275 z"
         style=""
         id="path4232" />
      <path
         d="m 301.31306,760.22902 q 0.875,0 1.35,-0.675 0.475,-0.675 0.475,-1.8875 0,-1.2 -0.4625,-1.875 -0.4625,-0.675 -1.3625,-0.675 -0.9,0 -1.3625,0.6625 -0.4625,0.65 -0.4625,1.9 0,1.2 0.4625,1.875 0.4625,0.675 1.3625,0.675 z m 0,-5.9 q 0.6125,0 1.1125,0.225 0.5125,0.225 0.8625,0.65 0.3625,0.425 0.5625,1.05 0.2,0.6125 0.2,1.4125 0,0.7875 -0.2,1.4125 -0.2,0.625 -0.5625,1.0625 -0.35,0.425 -0.8625,0.65 -0.5,0.225 -1.1125,0.225 -0.6125,0 -1.125,-0.225 -0.5,-0.225 -0.8625,-0.65 -0.35,-0.425 -0.55,-1.0375 -0.2,-0.625 -0.2,-1.425 0,-0.7875 0.2,-1.4 0.2,-0.625 0.55,-1.05 0.3625,-0.4375 0.8625,-0.6625 0.5125,-0.2375 1.125,-0.2375 z"
         style=""
         id="path4234" />
      <path
         d="m 307.249,762.84152 q 0.775,-0.0375 1.2625,-0.2 0.5,-0.15 0.775,-0.3875 0.2875,-0.225 0.3875,-0.525 0.1,-0.2875 0.1,-0.6125 l 0,-0.975 q -0.275,0.4 -0.6875,0.6375 -0.4,0.2375 -1.0625,0.2375 -0.5125,0 -0.9875,-0.2125 -0.475,-0.2125 -0.8375,-0.625 -0.3625,-0.425 -0.575,-1.05 -0.2125,-0.625 -0.2125,-1.4625 0,-0.7875 0.1875,-1.4 0.2,-0.625 0.55,-1.05 0.3625,-0.4375 0.85,-0.6625 0.4875,-0.225 1.075,-0.225 0.3625,0 0.6375,0.0875 0.2875,0.075 0.4875,0.2 0.2125,0.1125 0.35,0.25 0.15,0.125 0.225,0.2125 l 0,-0.6 0.875,0 0,6.2875 q 0,0.7875 -0.25,1.3 -0.25,0.525 -0.6625,0.8375 -0.4125,0.325 -0.9625,0.4625 -0.5375,0.1375 -1.125,0.1625 l -0.4,-0.6875 z m 0.975,-2.6125 q 0.4,0 0.8375,-0.275 0.45,-0.2875 0.7125,-0.7875 l 0,-3.075 q -0.1375,-0.2375 -0.3375,-0.4125 -0.1875,-0.1875 -0.4,-0.3125 -0.2125,-0.125 -0.425,-0.1875 -0.2125,-0.0625 -0.3875,-0.0625 -0.95,0 -1.425,0.6625 -0.475,0.65 -0.475,1.8875 0,0.6125 0.1375,1.0875 0.15,0.475 0.4,0.8125 0.2625,0.325 0.6,0.5 0.35,0.1625 0.7625,0.1625 z"
         style=""
         id="path4236" />
      <path
         d="m 316.57966,760.86652 0,-0.625 q -0.3875,0.35 -0.875,0.5625 -0.475,0.2125 -1,0.2125 -0.9625,0 -1.575,-0.5375 -0.6,-0.55 -0.6,-1.625 0,-0.55 0.1875,-0.95 0.2,-0.4 0.5125,-0.65 0.325,-0.2625 0.75,-0.3875 0.425,-0.125 0.875,-0.125 0.4,0 0.825,0.1 0.425,0.1 0.9,0.35 l 0,-0.5375 q 0,-0.4875 -0.125,-0.7875 -0.1125,-0.3 -0.3125,-0.475 -0.1875,-0.175 -0.45,-0.2375 -0.25,-0.0625 -0.5125,-0.0625 -0.2375,0 -0.5,0.0625 -0.2625,0.0625 -0.5125,0.1625 -0.25,0.1 -0.4875,0.225 -0.225,0.1125 -0.4,0.2375 l -0.25,-0.75 q 0.3875,-0.25 0.975,-0.475 0.6,-0.225 1.2625,-0.225 0.3375,0 0.7125,0.1 0.375,0.0875 0.6875,0.3375 0.3125,0.2375 0.5125,0.675 0.2125,0.425 0.2125,1.1 l 0,4.325 -0.8125,0 z m -1.7875,-0.6125 q 0.2875,0 0.55,-0.0875 0.2625,-0.0875 0.4875,-0.225 0.225,-0.1375 0.4125,-0.3125 0.1875,-0.1875 0.3375,-0.3625 l 0,-1.2375 q -0.3125,-0.2125 -0.775,-0.3625 -0.45,-0.1625 -0.8625,-0.1625 -0.325,0 -0.6125,0.0875 -0.2875,0.075 -0.5125,0.25 -0.2125,0.1625 -0.35,0.4125 -0.125,0.25 -0.125,0.6 0,0.6375 0.375,1.025 0.375,0.375 1.075,0.375 z"
         style=""
         id="path4238" />
      <path
         d="m 319.3988,760.86652 0,-6.3875 0.875,0 0,0.9 q 0.35,-0.525 0.8125,-0.7875 0.4625,-0.2625 0.9,-0.2625 0.475,0 0.8,0.2625 l -0.1375,0.85 q -0.125,-0.075 -0.325,-0.15 -0.1875,-0.0875 -0.5,-0.0875 -0.2125,0 -0.4875,0.1 -0.2625,0.1 -0.5,0.3375 -0.2375,0.2375 -0.4,0.6375 -0.1625,0.3875 -0.1625,0.975 l 0,3.6125 -0.875,0 z"
         style=""
         id="path4240" />
      <path
         d="m 326.06658,761.01652 q -0.6125,0 -1.1,-0.2375 -0.4875,-0.2375 -0.8375,-0.675 -0.3375,-0.4375 -0.525,-1.05 -0.175,-0.625 -0.175,-1.3875 0,-1.5875 0.7,-2.4625 0.7125,-0.875 1.9375,-0.875 0.6,0 1,0.1875 0.4125,0.175 0.7,0.4125 l 0,-2.65 0.875,-0.4375 0,9.025 -0.875,0 0,-0.55 q -0.2875,0.2875 -0.7,0.5 -0.4,0.2 -1,0.2 z m 0.1,-0.7875 q 0.475,0 0.9,-0.2625 0.4375,-0.2625 0.7,-0.7375 l 0,-3.1875 q -0.1,-0.1625 -0.25,-0.325 -0.15,-0.1625 -0.35,-0.2875 -0.1875,-0.1375 -0.45,-0.225 -0.25,-0.0875 -0.55,-0.0875 -0.8875,0 -1.3625,0.6625 -0.4625,0.65 -0.4625,1.8875 0,0.5375 0.125,1.0125 0.125,0.4625 0.3625,0.8125 0.2375,0.3375 0.575,0.5375 0.3375,0.2 0.7625,0.2 z"
         style=""
         id="path4242" />
      <path
         d="m 331.18533,761.04152 q -0.3375,0 -0.5625,-0.2375 -0.225,-0.25 -0.225,-0.55 0,-0.3 0.225,-0.5375 0.225,-0.25 0.5625,-0.25 0.3375,0 0.5625,0.25 0.225,0.2375 0.225,0.5375 0,0.3 -0.225,0.55 -0.225,0.2375 -0.5625,0.2375 z"
         style=""
         id="path4244" />
      <path
         d="m 335.37791,761.01652 q -1.1625,0 -1.85,-0.8625 -0.675,-0.875 -0.675,-2.475 0,-1.5875 0.6875,-2.4625 0.7,-0.8875 1.9375,-0.8875 0.7125,0 1.25,0.35 0.5375,0.3375 0.8,0.9875 l -0.8,0.3125 q -0.15,-0.3625 -0.4625,-0.6125 -0.3,-0.25 -0.825,-0.25 -0.45,0 -0.7625,0.1875 -0.3125,0.175 -0.525,0.5125 -0.2,0.325 -0.3,0.8 -0.0875,0.475 -0.0875,1.0625 0,1.2125 0.4,1.8875 0.4,0.6625 1.25,0.6625 0.525,0 0.8875,-0.2625 0.3625,-0.2625 0.525,-0.7125 l 0.7875,0.3 q -0.225,0.675 -0.825,1.075 -0.5875,0.3875 -1.4125,0.3875 z"
         style=""
         id="path4246" />
      <path
         d="m 341.59626,760.22902 q 0.875,0 1.35,-0.675 0.475,-0.675 0.475,-1.8875 0,-1.2 -0.4625,-1.875 -0.4625,-0.675 -1.3625,-0.675 -0.9,0 -1.3625,0.6625 -0.4625,0.65 -0.4625,1.9 0,1.2 0.4625,1.875 0.4625,0.675 1.3625,0.675 z m 0,-5.9 q 0.6125,0 1.1125,0.225 0.5125,0.225 0.8625,0.65 0.3625,0.425 0.5625,1.05 0.2,0.6125 0.2,1.4125 0,0.7875 -0.2,1.4125 -0.2,0.625 -0.5625,1.0625 -0.35,0.425 -0.8625,0.65 -0.5,0.225 -1.1125,0.225 -0.6125,0 -1.125,-0.225 -0.5,-0.225 -0.8625,-0.65 -0.35,-0.425 -0.55,-1.0375 -0.2,-0.625 -0.2,-1.425 0,-0.7875 0.2,-1.4 0.2,-0.625 0.55,-1.05 0.3625,-0.4375 0.8625,-0.6625 0.5125,-0.2375 1.125,-0.2375 z"
         style=""
         id="path4248" />
      <path
         d="m 352.2947,754.32902 q 0.4625,0 0.8625,0.1625 0.4,0.1625 0.6875,0.4625 0.3,0.2875 0.4625,0.7125 0.175,0.425 0.175,0.95 l 0,4.25 -0.875,0 0,-3.9125 q 0,-0.3 -0.05,-0.625 -0.05,-0.325 -0.2,-0.5875 -0.1375,-0.275 -0.4125,-0.45 -0.275,-0.175 -0.725,-0.175 -0.3625,0 -0.6375,0.15 -0.275,0.15 -0.4625,0.4 -0.1875,0.25 -0.2875,0.5875 -0.0875,0.325 -0.0875,0.7 l 0,3.9125 -0.875,0 0,-3.9125 q 0,-0.3 -0.05,-0.625 -0.05,-0.325 -0.2,-0.5875 -0.1375,-0.275 -0.4125,-0.45 -0.275,-0.175 -0.725,-0.175 -0.375,0 -0.65,0.1375 -0.275,0.125 -0.4625,0.3625 -0.175,0.2375 -0.275,0.55 -0.0875,0.3125 -0.0875,0.6875 l 0,4.0125 -0.875,0 0,-6.3875 0.875,0 0,0.625 q 0.6625,-0.775 1.7375,-0.775 0.5125,0 0.975,0.2625 0.475,0.25 0.75,0.7125 0.2625,-0.4 0.725,-0.6875 0.475,-0.2875 1.1,-0.2875 z"
         style=""
         id="path4250" />
      <path
         d="m 355.55408,762.49152 4.9125,-10.525 0.85,0 -4.9125,10.525 -0.85,0 z"
         style=""
         id="path4252" />
      <path
         d="m 364.35818,761.01652 q -0.6875,0 -0.975,-0.4125 -0.2875,-0.425 -0.2875,-1.05 l 0,-4.2875 -1.0875,0 0,-0.7875 1.0875,0 0,-2.2 0.875,-0.4375 0,2.6375 1.625,0 0,0.7875 -1.625,0 0,3.9125 q 0,0.2125 0.0125,0.4 0.025,0.175 0.1,0.3125 0.075,0.1375 0.2125,0.225 0.1375,0.075 0.3625,0.075 0.325,0 0.55,-0.125 0.2375,-0.125 0.4125,-0.25 l -0.1,0.9125 q -0.25,0.1375 -0.525,0.2125 -0.275,0.075 -0.6375,0.075 z"
         style=""
         id="path4254" />
      <path
         d="m 367.73787,758.02902 q 0.1125,0.975 0.5875,1.575 0.475,0.6 1.3,0.6 0.35,0 0.7125,-0.1125 0.3625,-0.1125 0.725,-0.3875 l 0.475,0.5875 q -0.375,0.3125 -0.8875,0.525 -0.5,0.2 -1.0625,0.2 -0.65,0 -1.1625,-0.2625 -0.5125,-0.275 -0.875,-0.7375 -0.35,-0.4625 -0.55,-1.0625 -0.1875,-0.6125 -0.1875,-1.2875 0,-0.8 0.2,-1.4125 0.2125,-0.625 0.575,-1.05 0.3625,-0.425 0.875,-0.65 0.5125,-0.225 1.125,-0.225 0.5125,0 0.9625,0.1875 0.4625,0.175 0.8125,0.55 0.35,0.375 0.55,0.9625 0.2,0.5875 0.2,1.3875 0,0.1 0,0.25 0,0.15 -0.025,0.3625 l -4.35,0 z m 1.85,-2.9125 q -0.775,0 -1.3,0.5125 -0.5125,0.5125 -0.575,1.6125 l 3.5125,0 q 0,-0.65 -0.1625,-1.0625 -0.1625,-0.4125 -0.4125,-0.65 -0.2375,-0.2375 -0.525,-0.325 -0.2875,-0.0875 -0.5375,-0.0875 z"
         style=""
         id="path4256" />
      <path
         d="m 373.86658,760.86652 0,-6.3875 0.875,0 0,0.9 q 0.35,-0.525 0.8125,-0.7875 0.4625,-0.2625 0.9,-0.2625 0.475,0 0.8,0.2625 l -0.1375,0.85 q -0.125,-0.075 -0.325,-0.15 -0.1875,-0.0875 -0.5,-0.0875 -0.2125,0 -0.4875,0.1 -0.2625,0.1 -0.5,0.3375 -0.2375,0.2375 -0.4,0.6375 -0.1625,0.3875 -0.1625,0.975 l 0,3.6125 -0.875,0 z"
         style=""
         id="path4258" />
      <path
         d="m 384.78982,754.32902 q 0.4625,0 0.8625,0.1625 0.4,0.1625 0.6875,0.4625 0.3,0.2875 0.4625,0.7125 0.175,0.425 0.175,0.95 l 0,4.25 -0.875,0 0,-3.9125 q 0,-0.3 -0.05,-0.625 -0.05,-0.325 -0.2,-0.5875 -0.1375,-0.275 -0.4125,-0.45 -0.275,-0.175 -0.725,-0.175 -0.3625,0 -0.6375,0.15 -0.275,0.15 -0.4625,0.4 -0.1875,0.25 -0.2875,0.5875 -0.0875,0.325 -0.0875,0.7 l 0,3.9125 -0.875,0 0,-3.9125 q 0,-0.3 -0.05,-0.625 -0.05,-0.325 -0.2,-0.5875 -0.1375,-0.275 -0.4125,-0.45 -0.275,-0.175 -0.725,-0.175 -0.375,0 -0.65,0.1375 -0.275,0.125 -0.4625,0.3625 -0.175,0.2375 -0.275,0.55 -0.0875,0.3125 -0.0875,0.6875 l 0,4.0125 -0.875,0 0,-6.3875 0.875,0 0,0.625 q 0.6625,-0.775 1.7375,-0.775 0.5125,0 0.975,0.2625 0.475,0.25 0.75,0.7125 0.2625,-0.4 0.725,-0.6875 0.475,-0.2875 1.1,-0.2875 z"
         style=""
         id="path4260" />
      <path
         d="m 389.18669,760.86652 0,-6.3875 0.875,0 0,6.3875 -0.875,0 z m 0.4375,-7.7 q -0.25,0 -0.4125,-0.1625 -0.1625,-0.1625 -0.1625,-0.4125 0,-0.25 0.1625,-0.425 0.1625,-0.175 0.4125,-0.175 0.25,0 0.4125,0.175 0.1625,0.175 0.1625,0.425 0,0.25 -0.1625,0.4125 -0.1625,0.1625 -0.4125,0.1625 z"
         style=""
         id="path4262" />
      <path
         d="m 393.19861,755.17902 q 0.3,-0.4375 0.7125,-0.6375 0.425,-0.2125 0.9375,-0.2125 1.175,0 1.725,0.7125 0.5625,0.7 0.5625,2.2875 l 0,3.5375 -0.875,0 0,-3.9 q 0,-1.0125 -0.425,-1.425 -0.425,-0.425 -1.0625,-0.425 -0.3375,0 -0.625,0.0875 -0.2875,0.0875 -0.5,0.3 -0.2125,0.2125 -0.3375,0.5625 -0.1125,0.35 -0.1125,0.875 l 0,3.925 -0.875,0 0,-6.3875 0.875,0 0,0.7 z"
         style=""
         id="path4264" />
      <path
         d="m 403.00544,760.86652 0,-0.625 q -0.3875,0.35 -0.875,0.5625 -0.475,0.2125 -1,0.2125 -0.9625,0 -1.575,-0.5375 -0.6,-0.55 -0.6,-1.625 0,-0.55 0.1875,-0.95 0.2,-0.4 0.5125,-0.65 0.325,-0.2625 0.75,-0.3875 0.425,-0.125 0.875,-0.125 0.4,0 0.825,0.1 0.425,0.1 0.9,0.35 l 0,-0.5375 q 0,-0.4875 -0.125,-0.7875 -0.1125,-0.3 -0.3125,-0.475 -0.1875,-0.175 -0.45,-0.2375 -0.25,-0.0625 -0.5125,-0.0625 -0.2375,0 -0.5,0.0625 -0.2625,0.0625 -0.5125,0.1625 -0.25,0.1 -0.4875,0.225 -0.225,0.1125 -0.4,0.2375 l -0.25,-0.75 q 0.3875,-0.25 0.975,-0.475 0.6,-0.225 1.2625,-0.225 0.3375,0 0.7125,0.1 0.375,0.0875 0.6875,0.3375 0.3125,0.2375 0.5125,0.675 0.2125,0.425 0.2125,1.1 l 0,4.325 -0.8125,0 z m -1.7875,-0.6125 q 0.2875,0 0.55,-0.0875 0.2625,-0.0875 0.4875,-0.225 0.225,-0.1375 0.4125,-0.3125 0.1875,-0.1875 0.3375,-0.3625 l 0,-1.2375 q -0.3125,-0.2125 -0.775,-0.3625 -0.45,-0.1625 -0.8625,-0.1625 -0.325,0 -0.6125,0.0875 -0.2875,0.075 -0.5125,0.25 -0.2125,0.1625 -0.35,0.4125 -0.125,0.25 -0.125,0.6 0,0.6375 0.375,1.025 0.375,0.375 1.075,0.375 z"
         style=""
         id="path4266" />
      <path
         d="m 405.88708,760.86652 0,-8.6 0.875,-0.425 0,9.025 -0.875,0 z"
         style=""
         id="path4268" />
      <path
         d="m 409.07166,757.56652 0,-0.85 2.7875,0 0,0.85 -2.7875,0 z"
         style=""
         id="path4270" />
      <path
         d="m 417.28845,755.79152 q -0.25,-0.25 -0.625,-0.4625 -0.375,-0.225 -0.9,-0.225 -0.5625,0 -0.8875,0.225 -0.325,0.225 -0.325,0.6125 0,0.25 0.125,0.425 0.125,0.175 0.325,0.325 0.2,0.1375 0.4625,0.25 0.2625,0.1125 0.55,0.225 0.35,0.1375 0.7125,0.3125 0.375,0.1625 0.6625,0.4 0.2875,0.2375 0.475,0.575 0.1875,0.325 0.1875,0.8125 0,0.8 -0.575,1.275 -0.575,0.475 -1.575,0.475 -0.65,0 -1.225,-0.3125 -0.575,-0.325 -0.975,-0.8 l 0.6125,-0.5375 q 0.2875,0.35 0.725,0.6125 0.4375,0.2625 0.9375,0.2625 0.525,0 0.8875,-0.2375 0.3625,-0.2375 0.3625,-0.6875 0,-0.2875 -0.1375,-0.5 -0.1375,-0.225 -0.3625,-0.3875 -0.225,-0.1625 -0.5125,-0.2875 -0.2875,-0.1375 -0.575,-0.25 -0.375,-0.15 -0.725,-0.325 -0.35,-0.175 -0.6125,-0.4 -0.2625,-0.225 -0.425,-0.5125 -0.15,-0.3 -0.15,-0.7 0,-0.3625 0.15,-0.6625 0.1625,-0.3 0.425,-0.5125 0.275,-0.2125 0.65,-0.325 0.3875,-0.125 0.8375,-0.125 0.65,0 1.1625,0.2625 0.525,0.25 0.9125,0.7125 l -0.575,0.4875 z"
         style=""
         id="path4272" />
      <path
         d="m 419.89958,760.86652 0,-6.3875 0.875,0 0,6.3875 -0.875,0 z m 0.4375,-7.7 q -0.25,0 -0.4125,-0.1625 -0.1625,-0.1625 -0.1625,-0.4125 0,-0.25 0.1625,-0.425 0.1625,-0.175 0.4125,-0.175 0.25,0 0.4125,0.175 0.1625,0.175 0.1625,0.425 0,0.25 -0.1625,0.4125 -0.1625,0.1625 -0.4125,0.1625 z"
         style=""
         id="path4274" />
      <path
         d="m 423.099,760.86652 0,-8.6 0.875,-0.425 0,9.025 -0.875,0 z"
         style=""
         id="path4276" />
      <path
         d="m 428.80857,754.32902 q 1.175,0 1.725,0.7125 0.5625,0.7 0.5625,2.2875 l 0,3.5375 -0.875,0 0,-3.9 q 0,-1.0125 -0.425,-1.425 -0.425,-0.425 -1.0625,-0.425 -0.3375,0 -0.625,0.0875 -0.2875,0.0875 -0.5,0.3 -0.2125,0.2125 -0.3375,0.5625 -0.1125,0.35 -0.1125,0.875 l 0,3.925 -0.875,0 0,-8.6125 0.875,-0.4125 0,3.35 q 0.2875,-0.4375 0.7125,-0.65 0.425,-0.2125 0.9375,-0.2125 z"
         style=""
         id="path4278" />
      <path
         d="m 435.59041,760.22902 q 0.875,0 1.35,-0.675 0.475,-0.675 0.475,-1.8875 0,-1.2 -0.4625,-1.875 -0.4625,-0.675 -1.3625,-0.675 -0.9,0 -1.3625,0.6625 -0.4625,0.65 -0.4625,1.9 0,1.2 0.4625,1.875 0.4625,0.675 1.3625,0.675 z m 0,-5.9 q 0.6125,0 1.1125,0.225 0.5125,0.225 0.8625,0.65 0.3625,0.425 0.5625,1.05 0.2,0.6125 0.2,1.4125 0,0.7875 -0.2,1.4125 -0.2,0.625 -0.5625,1.0625 -0.35,0.425 -0.8625,0.65 -0.5,0.225 -1.1125,0.225 -0.6125,0 -1.125,-0.225 -0.5,-0.225 -0.8625,-0.65 -0.35,-0.425 -0.55,-1.0375 -0.2,-0.625 -0.2,-1.425 0,-0.7875 0.2,-1.4 0.2,-0.625 0.55,-1.05 0.3625,-0.4375 0.8625,-0.6625 0.5125,-0.2375 1.125,-0.2375 z"
         style=""
         id="path4280" />
      <path
         d="m 444.00134,760.86652 0,-0.6125 q -0.3375,0.4375 -0.7125,0.6 -0.375,0.1625 -0.875,0.1625 -1.2375,0 -1.8,-0.7 -0.55,-0.7 -0.55,-2.275 l 0,-3.5625 0.875,0 0,3.9 q 0,1 0.4125,1.425 0.425,0.425 1.0625,0.425 0.3375,0 0.625,-0.0875 0.2875,-0.0875 0.5,-0.3 0.225,-0.2125 0.3375,-0.5625 0.125,-0.35 0.125,-0.875 l 0,-3.925 0.875,0 0,6.3875 -0.875,0 z"
         style=""
         id="path4282" />
      <path
         d="m 447.62068,758.02902 q 0.1125,0.975 0.5875,1.575 0.475,0.6 1.3,0.6 0.35,0 0.7125,-0.1125 0.3625,-0.1125 0.725,-0.3875 l 0.475,0.5875 q -0.375,0.3125 -0.8875,0.525 -0.5,0.2 -1.0625,0.2 -0.65,0 -1.1625,-0.2625 -0.5125,-0.275 -0.875,-0.7375 -0.35,-0.4625 -0.55,-1.0625 -0.1875,-0.6125 -0.1875,-1.2875 0,-0.8 0.2,-1.4125 0.2125,-0.625 0.575,-1.05 0.3625,-0.425 0.875,-0.65 0.5125,-0.225 1.125,-0.225 0.5125,0 0.9625,0.1875 0.4625,0.175 0.8125,0.55 0.35,0.375 0.55,0.9625 0.2,0.5875 0.2,1.3875 0,0.1 0,0.25 0,0.15 -0.025,0.3625 l -4.35,0 z m 1.85,-2.9125 q -0.775,0 -1.3,0.5125 -0.5125,0.5125 -0.575,1.6125 l 3.5125,0 q 0,-0.65 -0.1625,-1.0625 -0.1625,-0.4125 -0.4125,-0.65 -0.2375,-0.2375 -0.525,-0.325 -0.2875,-0.0875 -0.5375,-0.0875 z"
         style=""
         id="path4284" />
      <path
         d="m 455.22732,761.01652 q -0.6875,0 -0.975,-0.4125 -0.2875,-0.425 -0.2875,-1.05 l 0,-4.2875 -1.0875,0 0,-0.7875 1.0875,0 0,-2.2 0.875,-0.4375 0,2.6375 1.625,0 0,0.7875 -1.625,0 0,3.9125 q 0,0.2125 0.0125,0.4 0.025,0.175 0.1,0.3125 0.075,0.1375 0.2125,0.225 0.1375,0.075 0.3625,0.075 0.325,0 0.55,-0.125 0.2375,-0.125 0.4125,-0.25 l -0.1,0.9125 q -0.25,0.1375 -0.525,0.2125 -0.275,0.075 -0.6375,0.075 z"
         style=""
         id="path4286" />
      <path
         d="m 459.84158,761.01652 q -0.6875,0 -0.975,-0.4125 -0.2875,-0.425 -0.2875,-1.05 l 0,-4.2875 -1.0875,0 0,-0.7875 1.0875,0 0,-2.2 0.875,-0.4375 0,2.6375 1.625,0 0,0.7875 -1.625,0 0,3.9125 q 0,0.2125 0.0125,0.4 0.025,0.175 0.1,0.3125 0.075,0.1375 0.2125,0.225 0.1375,0.075 0.3625,0.075 0.325,0 0.55,-0.125 0.2375,-0.125 0.4125,-0.25 l -0.1,0.9125 q -0.25,0.1375 -0.525,0.2125 -0.275,0.075 -0.6375,0.075 z"
         style=""
         id="path4288" />
      <path
         d="m 463.22126,758.02902 q 0.1125,0.975 0.5875,1.575 0.475,0.6 1.3,0.6 0.35,0 0.7125,-0.1125 0.3625,-0.1125 0.725,-0.3875 l 0.475,0.5875 q -0.375,0.3125 -0.8875,0.525 -0.5,0.2 -1.0625,0.2 -0.65,0 -1.1625,-0.2625 -0.5125,-0.275 -0.875,-0.7375 -0.35,-0.4625 -0.55,-1.0625 -0.1875,-0.6125 -0.1875,-1.2875 0,-0.8 0.2,-1.4125 0.2125,-0.625 0.575,-1.05 0.3625,-0.425 0.875,-0.65 0.5125,-0.225 1.125,-0.225 0.5125,0 0.9625,0.1875 0.4625,0.175 0.8125,0.55 0.35,0.375 0.55,0.9625 0.2,0.5875 0.2,1.3875 0,0.1 0,0.25 0,0.15 -0.025,0.3625 l -4.35,0 z m 1.85,-2.9125 q -0.775,0 -1.3,0.5125 -0.5125,0.5125 -0.575,1.6125 l 3.5125,0 q 0,-0.65 -0.1625,-1.0625 -0.1625,-0.4125 -0.4125,-0.65 -0.2375,-0.2375 -0.525,-0.325 -0.2875,-0.0875 -0.5375,-0.0875 z"
         style=""
         id="path4290" />
      <path
         d="m 472.41541,755.79152 q -0.25,-0.25 -0.625,-0.4625 -0.375,-0.225 -0.9,-0.225 -0.5625,0 -0.8875,0.225 -0.325,0.225 -0.325,0.6125 0,0.25 0.125,0.425 0.125,0.175 0.325,0.325 0.2,0.1375 0.4625,0.25 0.2625,0.1125 0.55,0.225 0.35,0.1375 0.7125,0.3125 0.375,0.1625 0.6625,0.4 0.2875,0.2375 0.475,0.575 0.1875,0.325 0.1875,0.8125 0,0.8 -0.575,1.275 -0.575,0.475 -1.575,0.475 -0.65,0 -1.225,-0.3125 -0.575,-0.325 -0.975,-0.8 l 0.6125,-0.5375 q 0.2875,0.35 0.725,0.6125 0.4375,0.2625 0.9375,0.2625 0.525,0 0.8875,-0.2375 0.3625,-0.2375 0.3625,-0.6875 0,-0.2875 -0.1375,-0.5 -0.1375,-0.225 -0.3625,-0.3875 -0.225,-0.1625 -0.5125,-0.2875 -0.2875,-0.1375 -0.575,-0.25 -0.375,-0.15 -0.725,-0.325 -0.35,-0.175 -0.6125,-0.4 -0.2625,-0.225 -0.425,-0.5125 -0.15,-0.3 -0.15,-0.7 0,-0.3625 0.15,-0.6625 0.1625,-0.3 0.425,-0.5125 0.275,-0.2125 0.65,-0.325 0.3875,-0.125 0.8375,-0.125 0.65,0 1.1625,0.2625 0.525,0.25 0.9125,0.7125 l -0.575,0.4875 z"
         style=""
         id="path4292" />
    </g>
  </g>
</svg>
