<?xml version="1.0" encoding="UTF-8" standalone="no"?>
<!-- Created with Inkscape (http://www.inkscape.org/) -->

<svg
   xmlns:dc="http://purl.org/dc/elements/1.1/"
   xmlns:cc="http://creativecommons.org/ns#"
   xmlns:rdf="http://www.w3.org/1999/02/22-rdf-syntax-ns#"
   xmlns:svg="http://www.w3.org/2000/svg"
   xmlns="http://www.w3.org/2000/svg"
   xmlns:sodipodi="http://sodipodi.sourceforge.net/DTD/sodipodi-0.dtd"
   xmlns:inkscape="http://www.inkscape.org/namespaces/inkscape"
   width="568.64404"
   height="471.10449"
   id="svg2"
   version="1.1"
   inkscape:version="0.92.4 (5da689c313, 2019-01-14)"
   sodipodi:docname="DAY.svg"
   inkscape:export-filename="C:\Users\Paul Bogard\Dropbox\Documents\Websites\Flight Log\Images\Terminals\DAY.png"
   inkscape:export-xdpi="90"
   inkscape:export-ydpi="90">
  <defs
     id="defs4" />
  <sodipodi:namedview
     id="base"
     pagecolor="#ffffff"
     bordercolor="#666666"
     borderopacity="1.0"
     inkscape:pageopacity="1"
     inkscape:pageshadow="2"
     inkscape:zoom="1"
     inkscape:cx="-389.94673"
     inkscape:cy="298.65993"
     inkscape:document-units="px"
     inkscape:current-layer="layer1"
     showgrid="false"
     fit-margin-top="25"
     fit-margin-left="25"
     fit-margin-right="25"
     fit-margin-bottom="25"
     inkscape:window-width="1920"
     inkscape:window-height="1137"
     inkscape:window-x="1912"
     inkscape:window-y="-8"
     inkscape:window-maximized="1" />
  <metadata
     id="metadata7">
    <rdf:RDF>
      <cc:Work
         rdf:about="">
        <dc:format>image/svg+xml</dc:format>
        <dc:type
           rdf:resource="http://purl.org/dc/dcmitype/StillImage" />
        <dc:title />
      </cc:Work>
    </rdf:RDF>
  </metadata>
  <g
     inkscape:groupmode="layer"
     id="layer2"
     inkscape:label="Terminal"
     transform="translate(-248.38708,-84.363336)">
    <path
       style="fill:#dddddd;fill-opacity:1;stroke:#222222;stroke-width:1.5;stroke-linecap:butt;stroke-linejoin:miter;stroke-miterlimit:4;stroke-dasharray:none;stroke-opacity:1"
       d="m 626.18057,174.60016 -22.70831,19.46426 -1.21652,-1.21651 -4.3254,3.78472 2.1627,2.29786 -31.7646,26.49303 3.64955,5.00123 -53.79707,47.17381 42.98359,48.5255 -11.89483,10.54315 -37.84718,-39.46921 -42.71325,37.57684 56.2301,64.61055 -6.75843,6.21776 -21.35662,-23.51933 -4.32539,4.59574 50.82336,58.66313 4.05505,-3.51438 1.08135,-1.35169 -19.19393,-23.24898 6.48809,-6.21775 67.58426,77.85706 7.2991,-5.94742 20.27527,23.51933 7.56944,-5.67708 25.68202,28.65572 24.60066,-21.35662 -100.56537,-114.89324 -4.32539,4.3254 -3.78472,-3.78472 12.43551,-10.54314 18.38292,20.00493 11.08381,-8.65078 33.25145,37.84718 22.43798,-20.54561 14.05752,15.40921 30.27775,-25.95235 -5.94741,-7.2991 15.13887,-14.5982 0,-2.70337 59.74448,-52.71573 -15.94988,-16.76089 -75.42403,65.6919 1.08135,1.35168 -5.67708,4.86607 3.51438,4.59573 -37.57685,34.06246 -10.54314,-0.81101 -26.76337,-30.27774 11.35416,-7.83978 -77.31639,-84.34515 -8.11011,6.75843 -15.13887,-18.11258 0.27033,-10.27281 44.60561,-37.57685 4.59573,5.67708 39.19887,-33.52179 1.35168,1.35168 4.86607,-4.05505 -1.89236,-2.1627 73.26134,-63.5292 1.89235,1.89236 4.59573,-3.51438 -2.43303,-2.9737 6.75843,-5.13641 -18.11258,-18.92359 -70.55797,60.55549 z"
       id="path2996-1"
       inkscape:connector-curvature="0" />
  </g>
  <g
     inkscape:groupmode="layer"
     id="layer1"
     inkscape:label="Label"
     transform="translate(194.76917,31.636667)">
    <g
       style="font-style:normal;font-variant:normal;font-weight:normal;font-stretch:normal;font-size:40px;line-height:125%;font-family:Overpass;-inkscape-font-specification:Sans;letter-spacing:0px;word-spacing:0px;fill:#222222;fill-opacity:1;stroke:none"
       id="text2984" />
    <g
       style="font-style:normal;font-variant:normal;font-weight:bold;font-stretch:normal;font-size:60px;line-height:125%;font-family:Overpass;-inkscape-font-specification:'Sans Bold';letter-spacing:0px;word-spacing:0px;fill:#000000;fill-opacity:1;stroke:none"
       id="text3803" />
    <g
       style="font-style:normal;font-variant:normal;font-weight:normal;font-stretch:normal;font-size:36px;line-height:125%;font-family:Overpass;-inkscape-font-specification:Sans;letter-spacing:0px;word-spacing:0px;fill:#000000;fill-opacity:1;stroke:none"
       id="text2988" />
    <g
       id="text4141"
       style="font-style:normal;font-variant:normal;font-weight:bold;font-stretch:normal;font-size:125px;line-height:125%;font-family:Overpass;-inkscape-font-specification:'Overpass, Bold';text-align:start;letter-spacing:0px;word-spacing:0px;writing-mode:lr-tb;text-anchor:start;fill:#dddddd;fill-opacity:1;stroke:#222222;stroke-width:0.25;stroke-linecap:butt;stroke-linejoin:miter;stroke-opacity:1;stroke-miterlimit:4;stroke-dasharray:none">
      <path
         inkscape:connector-curvature="0"
         id="path4144"
         d="m -169.76917,-6.6366653 29.54102,0 q 7.6294,0 13.73291,1.7700195 6.10352,1.7089844 10.80322,4.76074217 4.76075,3.05175783 8.11768,7.26318363 3.35693,4.150391 5.49316,9.033203 2.197269,4.821777 3.173831,10.192871 1.037598,5.371094 1.037598,10.742188 0,5.004882 -0.976562,10.253906 -0.915528,5.187988 -2.990727,10.070801 -2.07519,4.821777 -5.43213,9.094238 -3.29589,4.272461 -8.11767,7.507324 -4.76074,3.173828 -11.04736,5.004883 -6.28663,1.831055 -14.34327,1.831055 l -28.9917,0 0,-87.5244143 z m 31.00586,71.5332033 q 6.53077,0 10.98633,-2.502442 4.45557,-2.563476 7.20215,-6.530761 2.74658,-4.028321 3.96729,-8.972168 1.2207,-4.943848 1.2207,-9.765625 0,-5.126953 -1.28174,-10.070801 -1.28174,-5.004883 -3.96728,-8.911133 -2.62452,-3.90625 -6.83594,-6.286621 -4.15039,-2.4414063 -9.8877,-2.4414063 l -15.50293,0 0,55.4809573 14.09912,0 z"
         style="stroke:#222222;stroke-opacity:1;stroke-width:0.25;stroke-miterlimit:4;stroke-dasharray:none" />
      <path
         inkscape:connector-curvature="0"
         id="path4146"
         d="m -25.787231,80.887749 -6.774903,-18.127442 -33.752441,0 -6.713867,18.127442 -18.127442,0 33.508301,-87.5244143 16.479492,0 33.508301,87.5244143 -18.127441,0 z M -46.661255,24.613335 q -0.671387,-1.586914 -1.464844,-3.78418 -0.732422,-2.197266 -1.281738,-4.089356 -0.488281,1.89209 -1.281738,4.089356 -0.793457,2.197266 -1.464844,3.78418 l -8.666992,22.766113 22.766113,0 -8.605957,-22.766113 z"
         style="stroke:#222222;stroke-opacity:1;stroke-width:0.25;stroke-miterlimit:4;stroke-dasharray:none" />
      <path
         inkscape:connector-curvature="0"
         id="path4148"
         d="m 21.148804,80.887749 0,-34.118653 -32.409668,-53.4057613 19.1650388,0 21.6064452,35.7666013 21.606445,-35.7666013 19.165039,0 -32.409667,53.4057613 0,34.118653 -16.723633,0 z"
         style="stroke:#222222;stroke-opacity:1;stroke-width:0.25;stroke-miterlimit:4;stroke-dasharray:none" />
    </g>
    <g
       id="text4145"
       style="font-style:normal;font-variant:normal;font-weight:normal;font-stretch:normal;font-size:45px;line-height:125%;font-family:Overpass;-inkscape-font-specification:'Overpass, Normal';text-align:start;letter-spacing:0px;word-spacing:0px;writing-mode:lr-tb;text-anchor:start;fill:#222222;fill-opacity:1;stroke:none;stroke-width:1px;stroke-linecap:butt;stroke-linejoin:miter;stroke-opacity:1">
      <path
         inkscape:connector-curvature="0"
         id="path4151"
         d="m -169.76917,96.876617 8.83301,0 q 2.74658,0 4.92188,0.637207 2.17529,0.615235 3.84521,1.713868 1.66992,1.098628 2.85645,2.614748 1.18652,1.49414 1.93359,3.25195 0.76904,1.73584 1.12061,3.66943 0.35156,1.9336 0.35156,3.86719 0,1.80176 -0.32959,3.69141 -0.30762,1.86767 -1.05469,3.62549 -0.7251,1.73584 -1.88965,3.27392 -1.16455,1.53809 -2.85644,2.70264 -1.6919,1.14258 -3.95508,1.80176 -2.24121,0.65918 -5.11963,0.65918 l -8.65723,0 0,-31.508793 z m 9.4043,27.092283 q 1.80176,0 3.20801,-0.46142 1.42822,-0.4834 2.48291,-1.29639 1.07666,-0.81299 1.80176,-1.91162 0.74707,-1.09863 1.20849,-2.35108 0.4834,-1.27441 0.68116,-2.61474 0.21972,-1.36231 0.21972,-2.70264 0,-2.13135 -0.52734,-4.15283 -0.50537,-2.04346 -1.60401,-3.62549 -1.09863,-1.604 -2.83447,-2.5708 -1.71386,-0.98877 -4.13086,-0.98877 l -5.22949,0 0,22.67578 4.72412,0 z" />
      <path
         inkscape:connector-curvature="0"
         id="path4153"
         d="m -121.95667,128.38541 -4.48242,0 0,-1.97754 q -0.43945,0.46142 -1.05468,0.92285 -0.61524,0.43945 -1.40625,0.81299 -0.76905,0.35156 -1.73584,0.57129 -0.9668,0.21972 -2.10938,0.21972 -1.75781,0 -3.25195,-0.4834 -1.49414,-0.48339 -2.59278,-1.45019 -1.09863,-0.98877 -1.73584,-2.41699 -0.61523,-1.4502 -0.61523,-3.36182 0,-1.97754 0.74707,-3.40576 0.74707,-1.4502 1.97754,-2.37305 1.23047,-0.94482 2.8125,-1.38428 1.604,-0.43945 3.2959,-0.43945 1.58203,0 3.03222,0.35156 1.47217,0.32959 2.63672,1.01075 l 0,-1.27442 q 0,-1.29638 -0.30761,-2.19726 -0.28565,-0.90088 -0.90088,-1.4502 -0.59326,-0.57129 -1.51612,-0.81299 -0.92285,-0.26367 -2.19726,-0.26367 -2.15332,0 -3.73535,0.57129 -1.56006,0.57129 -2.83448,1.51611 l -1.38427,-3.84521 q 0.70312,-0.4834 1.604,-0.90088 0.90088,-0.43945 1.97754,-0.76904 1.07666,-0.32959 2.3291,-0.50537 1.25244,-0.19776 2.68067,-0.19776 0.96679,0 1.99951,0.10986 1.03271,0.10987 1.99951,0.43946 0.98877,0.30762 1.8457,0.90088 0.87891,0.59326 1.51611,1.56006 0.65918,0.94482 1.03272,2.3291 0.37353,1.38427 0.37353,3.2959 l 0,14.89746 z m -9.93164,-3.60352 q 1.77979,0 3.14209,-0.7251 1.38428,-0.72509 2.30713,-1.73584 l 0,-3.51562 q -0.96679,-0.50537 -2.26318,-0.81299 -1.29639,-0.30762 -2.65869,-0.30762 -1.05469,0 -1.97754,0.19776 -0.92285,0.19775 -1.62598,0.6372 -0.68115,0.41748 -1.07666,1.09864 -0.39551,0.65918 -0.39551,1.604 0,1.64795 1.14258,2.61475 1.16455,0.94482 3.40576,0.94482 z" />
      <path
         inkscape:connector-curvature="0"
         id="path4155"
         d="m -108.026,137.10855 -4.76807,0 3.5376,-9.11865 -8.59131,-22.60986 4.63623,0 5.66895,15.05126 q 0.2417,0.63721 0.37353,1.05469 0.13184,0.41748 0.26367,0.9668 0.13184,-0.54932 0.26368,-0.9668 0.13183,-0.41748 0.37353,-1.05469 l 5.71289,-15.05126 4.680178,0 -12.150878,31.72851 z" />
      <path
         inkscape:connector-curvature="0"
         id="path4157"
         d="m -84.669067,128.93472 q -1.362305,0 -2.351075,-0.41748 -0.966796,-0.39551 -1.604004,-1.14258 -0.615234,-0.74707 -0.900878,-1.80175 -0.285645,-1.07666 -0.285645,-2.37305 l 0,-13.75488 -3.55957,0 0,-4.06494 3.55957,0 0,-7.229009 4.680176,-2.263183 0,9.492192 5.449219,0 0,4.06494 -5.449219,0 0,12.54638 q 0,0.57129 0.08789,1.05469 0.109864,0.4834 0.351563,0.83496 0.263672,0.35156 0.703125,0.54932 0.439453,0.17578 1.120605,0.17578 1.669922,0 3.405762,-1.07666 l -0.571289,4.35059 q -0.966797,0.48339 -2.109375,0.76904 -1.142578,0.28564 -2.526855,0.28564 z" />
      <path
         inkscape:connector-curvature="0"
         id="path4159"
         d="m -64.915649,128.93472 q -2.416993,0 -4.372559,-0.81299 -1.933594,-0.81298 -3.295898,-2.35107 -1.362305,-1.56006 -2.109375,-3.7793 -0.725098,-2.24121 -0.725098,-5.07568 0,-2.83447 0.725098,-5.07568 0.74707,-2.24121 2.109375,-3.7793 1.362304,-1.56006 3.295898,-2.37305 1.955566,-0.83496 4.372559,-0.83496 2.395019,0 4.350586,0.83496 1.955566,0.81299 3.317871,2.37305 1.362304,1.53809 2.109375,3.7793 0.74707,2.24121 0.74707,5.07568 0,2.83447 -0.74707,5.07568 -0.747071,2.21924 -2.109375,3.7793 -1.362305,1.53809 -3.317871,2.35107 -1.955567,0.81299 -4.350586,0.81299 z m 0,-4.4165 q 1.340332,0 2.416992,-0.52734 1.098633,-0.52735 1.845703,-1.49415 0.769043,-0.98876 1.164551,-2.39501 0.41748,-1.40625 0.41748,-3.18604 0,-1.77979 -0.41748,-3.18604 -0.395508,-1.42822 -1.164551,-2.41699 -0.74707,-0.98877 -1.845703,-1.51611 -1.07666,-0.52734 -2.416992,-0.52734 -1.340332,0 -2.416993,0.52734 -1.07666,0.52734 -1.845703,1.51611 -0.74707,0.98877 -1.164551,2.41699 -0.395507,1.40625 -0.395507,3.18604 0,1.77979 0.395507,3.18604 0.417481,1.40625 1.164551,2.39501 0.769043,0.9668 1.845703,1.49415 1.076661,0.52734 2.416993,0.52734 z" />
      <path
         inkscape:connector-curvature="0"
         id="path4161"
         d="m -34.571411,128.38541 0,-13.73291 q 0,-1.4502 -0.351563,-2.46094 -0.351562,-1.03272 -0.966797,-1.66992 -0.615234,-0.65918 -1.450195,-0.94483 -0.834961,-0.30761 -1.82373,-0.30761 -1.054688,0 -1.955567,0.28564 -0.900879,0.26367 -1.560058,0.87891 -0.65918,0.61523 -1.054688,1.64795 -0.373535,1.01074 -0.373535,2.48291 l 0,13.8208 -4.680176,0 0,-23.00537 4.680176,0 0,2.21923 q 1.120606,-1.42822 2.570801,-2.0874 1.450195,-0.65918 3.361816,-0.65918 1.801758,0 3.317871,0.52735 1.516114,0.50537 2.614746,1.66992 1.120606,1.16455 1.73584,3.03222 0.615235,1.86768 0.615235,4.57032 l 0,13.73291 -4.680176,0 z" />
    </g>
  </g>
</svg>
