<?xml version="1.0" encoding="UTF-8" standalone="no"?>
<!-- Created with Inkscape (http://www.inkscape.org/) -->

<svg
   xmlns:dc="http://purl.org/dc/elements/1.1/"
   xmlns:cc="http://creativecommons.org/ns#"
   xmlns:rdf="http://www.w3.org/1999/02/22-rdf-syntax-ns#"
   xmlns:svg="http://www.w3.org/2000/svg"
   xmlns="http://www.w3.org/2000/svg"
   xmlns:sodipodi="http://sodipodi.sourceforge.net/DTD/sodipodi-0.dtd"
   xmlns:inkscape="http://www.inkscape.org/namespaces/inkscape"
   width="563.08026"
   height="1143.6671"
   viewBox="0 0 563.08026 1143.6672"
   id="svg2"
   version="1.1"
   inkscape:version="0.91 r13725"
   sodipodi:docname="DCA.svg"
   inkscape:export-filename="C:\Users\paulb\Dropbox\Projects\Terminal Silhouettes\Silhouettes\png\DCA.png"
   inkscape:export-xdpi="90"
   inkscape:export-ydpi="90">
  <sodipodi:namedview
     id="base"
     pagecolor="#ffffff"
     bordercolor="#666666"
     borderopacity="1.0"
     inkscape:pageopacity="1"
     inkscape:pageshadow="2"
     inkscape:zoom="0.70710678"
     inkscape:cx="245.77311"
     inkscape:cy="556.45826"
     inkscape:document-units="px"
     inkscape:current-layer="layer3"
     showgrid="false"
     units="px"
     fit-margin-top="25"
     fit-margin-left="25"
     fit-margin-right="25"
     fit-margin-bottom="25"
     showguides="true"
     inkscape:guide-bbox="true"
     inkscape:window-width="1920"
     inkscape:window-height="1137"
     inkscape:window-x="1912"
     inkscape:window-y="-8"
     inkscape:window-maximized="1"
     inkscape:object-nodes="true"
     inkscape:snap-smooth-nodes="false"
     inkscape:snap-intersection-paths="false"
     inkscape:snap-object-midpoints="true" />
  <defs
     id="defs4" />
  <metadata
     id="metadata7">
    <rdf:RDF>
      <cc:Work
         rdf:about="">
        <dc:format>image/svg+xml</dc:format>
        <dc:type
           rdf:resource="http://purl.org/dc/dcmitype/StillImage" />
        <dc:title></dc:title>
        <dc:description>Terminal silhouette of DCA (Washington–Reagan National)</dc:description>
      </cc:Work>
    </rdf:RDF>
  </metadata>
  <g
     inkscape:label="Terminal"
     id="layer2"
     inkscape:groupmode="layer"
     transform="translate(-1559.8697,-775.0227)">
    <path
       style="opacity:1;fill:#dddddd;fill-opacity:1;stroke:#222222;stroke-width:1.5;stroke-linejoin:miter;stroke-miterlimit:4;stroke-dasharray:none;stroke-dashoffset:0;stroke-opacity:1"
       d="m 1821.26,842.82779 20.9731,65.69772 3.1146,9.75638 -12.1848,3.88986 0.3513,1.10059 -15.8484,5.05938 111.1669,348.22698 15.8484,-5.0594 0.3513,1.1006 12.1849,-3.8899 11.7658,36.8559 12.2665,38.4246 17.9713,-5.7371 0.3986,1.2487 6.839,21.4229 29.7242,93.1104 3.654,11.446 6.3947,20.0312 9.5862,30.0284 -9.4336,3.8791 c 0,0 -3.2578,1.4746 -5.7766,-1.5803 0,0 -2.4208,-4.6293 -18.3066,-17.0519 l -16.343,-13.0491 c 0,0 -1.9505,-1.0066 -3.237,0.6047 0,0 -1.5766,2.0467 0.7004,3.8068 l 25.1674,20.0072 c 0,0 11.5049,9.4432 15.7415,22.7144 0,0 1.0762,4.8061 9.075,3.721 a 89.190026,89.190026 0 0 1 1.8583,31.7582 c -1.994,-0.3168 -3.5093,-0.1945 -4.6573,0.1427 -2.8857,0.8478 -3.4485,3.0537 -3.4485,3.0537 -28.9912,77.3443 -100.5057,36.53 -100.5057,36.53 l -0.4653,4.451 c 0,0 10.1657,8.0749 3.7742,30.7348 a 112.45599,112.45599 0 0 1 -6.4553,-1.0411 l -1.5388,7.449 -8.6347,-1.9717 -8.4797,41.0341 a 162.03568,162.03568 0 0 0 8.1673,1.7326 l -1.8643,24.8541 -7.0816,6.0931 -2.8629,38.1736 12.699,14.7583 5.2977,0.3976 -0.9542,30.4548 -2.9522,-0.2216 -2.3301,16.8108 -1.0971,0.2536 -1.1276,-4.6224 -2.9134,0.7106 2.5239,10.3446 a 26.803228,26.803228 0 0 0 -0.3556,0.094 26.803228,26.803228 0 0 0 -11.2695,7.1037 l -8.1324,-6.894 -1.9391,2.2877 8.1349,6.8959 a 26.803228,26.803228 0 0 0 -5.1845,12.6468 l -10.634,-0.7978 -0.2245,2.9897 10.63,0.7971 a 26.803228,26.803228 0 0 0 1.237,8.6553 26.803228,26.803228 0 0 0 1.9959,4.6303 l -9.061,5.5986 1.576,2.5508 9.0689,-5.6029 a 26.803228,26.803228 0 0 0 10.429,8.8348 l -4.0448,9.8678 2.7746,1.1374 4.0448,-9.8678 a 26.803228,26.803228 0 0 0 13.6314,1.0293 l 2.5257,10.3534 2.9125,-0.7104 -2.5238,-10.3445 a 26.803228,26.803228 0 0 0 0.3555,-0.094 26.803228,26.803228 0 0 0 11.2704,-7.104 l 8.1323,6.894 1.9383,-2.2874 -8.1349,-6.8959 a 26.803228,26.803228 0 0 0 5.1854,-12.6471 l 10.6339,0.7978 0.2238,-2.9893 -10.6289,-0.7967 a 26.803228,26.803228 0 0 0 -1.2376,-8.657 26.803228,26.803228 0 0 0 -1.9965,-4.6292 l 9.061,-5.5985 -1.5759,-2.5508 -9.0681,5.6027 a 26.803228,26.803228 0 0 0 -10.431,-8.8352 l 4.0457,-9.868 -2.7735,-1.1369 -1.7816,4.3468 -0.8674,-0.343 0.2035,-16.9705 -2.9521,-0.2216 3.7857,-31.8276 1.3684,0.1025 3.5752,-13.2661 0.011,-3.7638 -1.7119,-0.4233 0.2944,-5.9149 -1.4169,-0.6394 1.4308,-31.9884 5.0278,-1.7262 0.5637,-9.0668 -4.2792,-0.3213 0.187,-2.3052 9.5635,0.7175 1.4787,-8.648 -2.7167,-0.2039 0.1615,-2.5587 a 162.03568,162.03568 0 0 0 17.3764,-0.3698 l 0.058,0.5911 0.1074,1.0912 a 138.34935,138.34935 0 0 0 28.5,-5.8182 l -0.334,-1.0462 a 137.25098,137.25098 0 0 0 12.3277,-4.6735 l 6.5629,2.3423 -0.9703,2.7192 -3.018,-1.0775 -1.8737,5.2513 11.5963,4.1384 1.8739,-5.2505 -5.4388,-1.9413 0.971,-2.7196 3.6192,1.2917 5.1339,8.2076 10.3872,-6.4975 -10.1824,-16.2774 -3.4745,-5.5539 -3.4537,-5.5212 a 124.22953,124.22953 0 0 0 52.5448,-142.9686 l 0.042,-0.013 -20.5188,-64.2745 -3.0813,0.9837 -15.2485,-47.7657 -10.7864,3.4434 -26.1276,-81.844 a 26.100672,26.100672 0 0 0 5.7662,-13.1045 l 3.1622,-1.0095 -1.282,-4.016 27.4867,-8.7748 2.8812,9.0253 49.5268,-15.8108 -15.6703,-49.0866 -49.5268,15.8107 2.8812,9.0252 -27.4867,8.7748 -1.4807,-4.6381 -3.484,1.1122 a 26.100672,26.100672 0 0 0 -12.3682,-6.9824 l -1.0567,-3.3103 -11.9848,3.826 -3.1146,-9.7564 1.4726,-0.4701 -45.3758,-142.1384 10.5122,-3.3559 -1.0519,-3.2949 a 26.100672,26.100672 0 0 0 6.1529,-13.5976 l 3.1622,-1.0094 -1.2821,-4.016 78.7176,-25.1295 2.8812,9.0252 49.5267,-15.8108 -15.6702,-49.0866 -49.5268,15.8107 2.8812,9.0252 -78.7176,25.1296 -1.4806,-4.6382 -3.484,1.1122 a 26.100672,26.100672 0 0 0 -12.3682,-6.9824 l -1.0568,-3.3103 -10.5122,3.3559 -45.1774,-141.51696 -1.4726,0.47011 -3.1146,-9.75639 11.9848,-3.82599 -1.0524,-3.29668 a 26.100672,26.100672 0 0 0 6.1526,-13.59554 l 3.163,-1.00975 -1.2821,-4.01594 64.7717,-20.67748 2.8811,9.02521 49.5268,-15.81076 -15.6703,-49.08667 -49.5267,15.81076 2.8811,9.02521 -64.7716,20.67748 -1.4806,-4.63815 -3.4831,1.11193 a 26.100672,26.100672 0 0 0 -12.3696,-6.98381 l -0.7131,-2.23353 -28.4834,9.09298 z m 226.7832,745.31371 c 2.1344,-0.7176 4.7369,0.3327 4.7369,0.3327 l 6.9856,1.7684 a 97.97044,97.97044 0 0 1 -8.6595,19.0724 l -11.6321,-8.5811 c 4.7248,-6.2539 6.7048,-11.1812 6.7048,-11.1812 0.4938,-0.7365 1.1529,-1.172 1.8643,-1.4112 z m -80.0593,36.7128 9.1961,5.4898 -1.5257,0.3304 2.7092,14.6299 a 86.610599,86.610599 0 0 1 -3.0273,0.4215 l 0.7491,7.5908 -6.9775,0.2756 0,3e-4 -0.1682,-6.9874 a 112.45599,112.45599 0 0 1 -7.1747,-0.213 c -3.0026,-16.7082 6.2198,-21.5379 6.2198,-21.5379 z m 16.6649,1.7117 c 2.0206,0.02 3.9781,-0.036 5.881,-0.1526 l 11.1432,24.7048 a 97.97044,97.97044 0 0 1 -5.037,1.8209 l -3.4548,-10.8221 a 86.610599,86.610599 0 0 1 -4.9281,1.2834 l -2.7518,-14.8574 -1.988,0.4302 1.1355,-2.4072 z m 42.2285,-13.1817 13.9433,10.2857 a 97.97044,97.97044 0 0 1 -34.9173,25.6803 l -10.5479,-23.3837 c 13.5194,-1.6909 23.8336,-6.7516 31.5219,-12.5823 z"
       id="rect4152"
       inkscape:connector-curvature="0" />
  </g>
  <g
     inkscape:groupmode="layer"
     id="layer1"
     inkscape:label="Label"
     transform="translate(-1559.8697,-775.0227)"
     style="display:inline">
    <g
       id="g4160"
       transform="translate(-685.55043,326.15642)">
      <g
         style="font-style:normal;font-variant:normal;font-weight:bold;font-stretch:normal;font-size:125px;line-height:125%;font-family:Overpass;-inkscape-font-specification:'Overpass, Bold';text-align:start;letter-spacing:0px;word-spacing:0px;writing-mode:lr-tb;text-anchor:start;fill:#dddddd;fill-opacity:1;stroke:#222222;stroke-width:0.25;stroke-linecap:butt;stroke-linejoin:miter;stroke-miterlimit:4;stroke-dasharray:none;stroke-opacity:1"
         id="text4144">
        <path
           d="m 2270.5452,1024.2384 29.541,0 q 7.6294,0 13.7329,1.77 6.1035,1.709 10.8032,4.7608 4.7608,3.0517 8.1177,7.2631 3.3569,4.1504 5.4932,9.0333 2.1972,4.8217 3.1738,10.1928 1.0376,5.3711 1.0376,10.7422 0,5.0049 -0.9766,10.2539 -0.9155,5.188 -2.9907,10.0708 -2.0752,4.8218 -5.4321,9.0943 -3.2959,4.2724 -8.1177,7.5073 -4.7608,3.1738 -11.0474,5.0049 -6.2866,1.831 -14.3432,1.831 l -28.9917,0 0,-87.5244 z m 31.0058,71.5332 q 6.5308,0 10.9864,-2.5024 4.4555,-2.5635 7.2021,-6.5308 2.7466,-4.0283 3.9673,-8.9722 1.2207,-4.9438 1.2207,-9.7656 0,-5.1269 -1.2817,-10.0708 -1.2818,-5.0049 -3.9673,-8.9111 -2.6245,-3.9063 -6.836,-6.2866 -4.1504,-2.4415 -9.8877,-2.4415 l -15.5029,0 0,55.481 14.0991,0 z"
           style=""
           id="path4185" />
        <path
           d="m 2395.4841,1113.1666 q -6.8359,0 -12.207,-1.831 -5.3711,-1.8311 -9.4604,-5.0659 -4.0894,-3.2349 -6.9581,-7.5684 -2.8686,-4.3335 -4.6997,-9.3384 -1.77,-5.0659 -2.6245,-10.498 -0.7934,-5.4322 -0.7934,-10.8643 0,-5.0049 0.8545,-10.2539 0.8545,-5.3101 2.6245,-10.3149 1.831,-5.0049 4.6997,-9.4605 2.9297,-4.4556 6.958,-7.8125 4.0893,-3.3569 9.4604,-5.31 5.3711,-1.9532 12.146,-1.9532 6.2867,0 11.4136,1.709 5.127,1.709 9.0332,4.5166 3.9063,2.7466 6.5918,6.2866 2.7466,3.5401 4.2114,7.2022 l -15.1367,6.897 q -1.5869,-2.4414 -3.2349,-4.3946 -1.6479,-1.9531 -3.54,-3.2348 -1.8921,-1.3428 -4.2114,-2.0142 -2.2583,-0.7324 -5.127,-0.7324 -3.6621,0 -6.5307,1.2817 -2.8687,1.2207 -5.0049,3.357 -2.1362,2.1362 -3.6011,5.0048 -1.4648,2.8687 -2.3804,6.1036 -0.9155,3.1738 -1.3427,6.5917 -0.3662,3.357 -0.3662,6.5308 0,5.127 1.0986,10.2539 1.0986,5.127 3.418,9.2774 2.3193,4.1504 5.9204,6.7749 3.6621,2.5634 8.789,2.5634 2.6856,0 4.9439,-0.7934 2.2583,-0.8545 4.1504,-2.3194 1.9531,-1.4648 3.601,-3.54 1.709,-2.0752 3.1739,-4.5776 l 15.5029,5.8593 q -2.0752,4.8218 -5.0049,8.8501 -2.9297,3.9673 -6.8359,6.836 -3.8452,2.8076 -8.728,4.3945 -4.8829,1.5869 -10.8033,1.5869 z"
           style=""
           id="path4187" />
        <path
           d="m 2503.1501,1111.7628 -6.7749,-18.1274 -33.7524,0 -6.7139,18.1274 -18.1274,0 33.5083,-87.5244 16.4795,0 33.5083,87.5244 -18.1275,0 z m -20.874,-56.2744 q -0.6714,-1.5869 -1.4648,-3.7842 -0.7324,-2.1972 -1.2818,-4.0893 -0.4882,1.8921 -1.2817,4.0893 -0.7935,2.1973 -1.4648,3.7842 l -8.667,22.7661 22.7661,0 -8.606,-22.7661 z"
           style=""
           id="path4189" />
      </g>
      <g
         style="font-style:normal;font-variant:normal;font-weight:normal;font-stretch:normal;font-size:45px;line-height:110.00000238%;font-family:Overpass;-inkscape-font-specification:'Overpass, Normal';text-align:start;letter-spacing:0px;word-spacing:0px;writing-mode:lr-tb;text-anchor:start;fill:#222222;fill-opacity:1;stroke:none;stroke-width:1px;stroke-linecap:butt;stroke-linejoin:miter;stroke-opacity:1"
         id="text4148">
        <path
           d="m 2304.7195,1129.2805 -6.8115,31.5088 -4.2188,0 -5.4492,-20.4346 q -0.3296,-1.2524 -0.5274,-2.0214 -0.1757,-0.7911 -0.2417,-1.3843 -0.066,0.5932 -0.2417,1.3843 -0.1757,0.769 -0.5053,2.0214 l -5.3174,20.4346 -4.2407,0 -6.7456,-31.5088 4.812,0 3.9111,19.4019 q 0.2857,1.3623 0.4395,2.1972 0.1757,0.835 0.2417,1.4502 0.066,-0.6152 0.2636,-1.4282 0.2198,-0.8349 0.5494,-2.2192 l 4.9438,-19.4019 3.9331,0 5.0757,19.3579 q 0.3735,1.3623 0.5493,2.1753 0.1978,0.813 0.2637,1.4282 0.066,-0.6152 0.1977,-1.4502 0.1538,-0.8349 0.4175,-2.1533 l 3.9771,-19.3579 4.7241,0 z"
           style=""
           id="path4192" />
        <path
           d="m 2327.7249,1160.7893 -4.4825,0 0,-1.9775 q -0.4394,0.4614 -1.0547,0.9228 -0.6152,0.4395 -1.4062,0.813 -0.769,0.3516 -1.7358,0.5713 -0.9668,0.2197 -2.1094,0.2197 -1.7578,0 -3.252,-0.4834 -1.4941,-0.4834 -2.5927,-1.4502 -1.0987,-0.9887 -1.7359,-2.417 -0.6152,-1.4502 -0.6152,-3.3618 0,-1.9775 0.747,-3.4057 0.7471,-1.4502 1.9776,-2.3731 1.2305,-0.9448 2.8125,-1.3843 1.604,-0.4394 3.2959,-0.4394 1.582,0 3.0322,0.3515 1.4722,0.3296 2.6367,1.0108 l 0,-1.2744 q 0,-1.2964 -0.3076,-2.1973 -0.2856,-0.9009 -0.9009,-1.4502 -0.5932,-0.5713 -1.5161,-0.813 -0.9228,-0.2636 -2.1972,-0.2636 -2.1534,0 -3.7354,0.5712 -1.5601,0.5713 -2.8345,1.5162 l -1.3842,-3.8453 q 0.7031,-0.4834 1.604,-0.9008 0.9008,-0.4395 1.9775,-0.7691 1.0767,-0.3296 2.3291,-0.5054 1.2524,-0.1977 2.6807,-0.1977 0.9668,0 1.9995,0.1099 1.0327,0.1098 1.9995,0.4394 0.9888,0.3076 1.8457,0.9009 0.8789,0.5932 1.5161,1.56 0.6592,0.9449 1.0327,2.3291 0.3736,1.3843 0.3736,3.2959 l 0,14.8975 z m -9.9317,-3.6035 q 1.7798,0 3.1421,-0.7251 1.3843,-0.7251 2.3071,-1.7358 l 0,-3.5157 q -0.9668,-0.5053 -2.2632,-0.813 -1.2963,-0.3076 -2.6586,-0.3076 -1.0547,0 -1.9776,0.1978 -0.9228,0.1977 -1.626,0.6372 -0.6811,0.4175 -1.0766,1.0986 -0.3955,0.6592 -0.3955,1.604 0,1.648 1.1426,2.6148 1.1645,0.9448 3.4057,0.9448 z"
           style=""
           id="path4194" />
        <path
           d="m 2341.1941,1161.3386 q -1.3623,0 -2.6587,-0.2636 -1.2964,-0.2637 -2.439,-0.7471 -1.1206,-0.4834 -2.0434,-1.1646 -0.9229,-0.7031 -1.5381,-1.56 l 3.3179,-2.8345 q 0.3515,0.3296 0.8569,0.7471 0.5054,0.3955 1.1645,0.747 0.6592,0.3516 1.4722,0.5933 0.813,0.2417 1.7798,0.2417 0.8789,0 1.626,-0.1318 0.747,-0.1319 1.2744,-0.4175 0.5493,-0.2857 0.835,-0.7471 0.3076,-0.4834 0.3076,-1.1865 0,-0.813 -0.5713,-1.3843 -0.5493,-0.5932 -1.4502,-1.0547 -0.9009,-0.4834 -2.0435,-0.9009 -1.1425,-0.4394 -2.3071,-0.9228 -1.0767,-0.4614 -2.1094,-1.0107 -1.0327,-0.5494 -1.8457,-1.3184 -0.791,-0.769 -1.2964,-1.8237 -0.4834,-1.0767 -0.4834,-2.5928 0,-1.5381 0.6153,-2.7246 0.6372,-1.1865 1.7138,-1.9776 1.0987,-0.8129 2.5489,-1.2304 1.4721,-0.4175 3.1421,-0.4175 1.4721,0 2.7026,0.2856 1.2524,0.2857 2.2412,0.7691 1.0107,0.4834 1.7798,1.1206 0.769,0.6152 1.3403,1.2964 l -3.3838,2.6806 q -0.3076,-0.3076 -0.747,-0.6372 -0.4175,-0.3515 -0.9888,-0.6372 -0.5713,-0.2856 -1.2964,-0.4614 -0.7251,-0.1978 -1.6479,-0.1978 -1.4942,0 -2.3731,0.5494 -0.8569,0.5493 -0.8569,1.582 0,0.6592 0.4614,1.1645 0.4614,0.4834 1.2524,0.9009 0.7911,0.4175 1.8018,0.813 1.0327,0.3735 2.1533,0.813 1.1865,0.4614 2.3291,1.0327 1.1426,0.5713 2.0215,1.4063 0.9009,0.8349 1.4282,2.0214 0.5493,1.1866 0.5493,2.8565 0,1.6479 -0.6152,2.9224 -0.6152,1.2524 -1.7578,2.1093 -1.1206,0.835 -2.7246,1.2525 -1.582,0.4394 -3.5376,0.4394 z"
           style=""
           id="path4196" />
        <path
           d="m 2369.6707,1160.7893 0,-13.7329 q 0,-1.4502 -0.3516,-2.4609 -0.3516,-1.0328 -0.9668,-1.67 -0.6152,-0.6591 -1.4502,-0.9448 -0.835,-0.3076 -1.8237,-0.3076 -1.0547,0 -1.9556,0.2856 -0.9009,0.2637 -1.5601,0.8789 -0.6591,0.6153 -1.0546,1.648 -0.3736,1.0107 -0.3736,2.4829 l 0,13.8208 -4.6802,0 0,-30.3223 4.6802,-2.1753 0,11.7115 q 1.1206,-1.4282 2.5708,-2.0874 1.4502,-0.6592 3.3618,-0.6592 1.8018,0 3.3179,0.5273 1.5161,0.5054 2.6148,1.67 1.1206,1.1645 1.7358,3.0322 0.6152,1.8677 0.6152,4.5703 l 0,13.7329 -4.6801,0 z"
           style=""
           id="path4198" />
        <path
           d="m 2380.8987,1160.7893 0,-23.0054 4.6802,0 0,23.0054 -4.6802,0 z m 2.3291,-26.5869 q -0.5933,0 -1.1206,-0.2197 -0.5054,-0.2198 -0.9009,-0.5933 -0.3735,-0.3955 -0.5933,-0.9009 -0.2197,-0.5273 -0.2197,-1.1206 0,-0.5932 0.2197,-1.0986 0.2198,-0.5274 0.5933,-0.9009 0.3955,-0.3955 0.9009,-0.6152 0.5273,-0.2198 1.1206,-0.2198 0.5932,0 1.0986,0.2198 0.5274,0.2197 0.9009,0.6152 0.3955,0.3735 0.6152,0.9009 0.2198,0.5054 0.2198,1.0986 0,0.5933 -0.2198,1.1206 -0.2197,0.5054 -0.6152,0.9009 -0.3735,0.3735 -0.9009,0.5933 -0.5054,0.2197 -1.0986,0.2197 z"
           style=""
           id="path4200" />
        <path
           d="m 2406.5847,1160.7893 0,-13.7329 q 0,-1.4502 -0.3515,-2.4609 -0.3516,-1.0328 -0.9668,-1.67 -0.6153,-0.6591 -1.4502,-0.9448 -0.835,-0.3076 -1.8238,-0.3076 -1.0547,0 -1.9555,0.2856 -0.9009,0.2637 -1.5601,0.8789 -0.6592,0.6153 -1.0547,1.648 -0.3735,1.0107 -0.3735,2.4829 l 0,13.8208 -4.6802,0 0,-23.0054 4.6802,0 0,2.2193 q 1.1206,-1.4282 2.5708,-2.0874 1.4502,-0.6592 3.3618,-0.6592 1.8018,0 3.3179,0.5273 1.5161,0.5054 2.6147,1.67 1.1206,1.1645 1.7359,3.0322 0.6152,1.8677 0.6152,4.5703 l 0,13.7329 -4.6802,0 z"
           style=""
           id="path4202" />
        <path
           d="m 2423.1082,1166.1946 q 2.5268,-0.1538 4.1748,-0.5933 1.6479,-0.4394 2.6147,-1.1206 0.9668,-0.6592 1.3403,-1.56 0.3736,-0.9009 0.3736,-1.9556 l 0,-2.0215 q -1.9116,2.395 -5.5371,2.395 -1.9776,0 -3.6914,-0.747 -1.7139,-0.7691 -3.0103,-2.2852 -1.2744,-1.5161 -2.0215,-3.7573 -0.7251,-2.2632 -0.7251,-5.2735 0,-2.8344 0.7031,-5.0537 0.7032,-2.2412 1.9556,-3.7793 1.2744,-1.56 3.0322,-2.373 1.7579,-0.813 3.8672,-0.813 1.0108,0 1.8457,0.1977 0.835,0.1758 1.4942,0.4834 0.6811,0.3077 1.1865,0.7032 0.5273,0.3735 0.9009,0.769 l 0,-1.626 4.6801,0 0,21.2476 q 0,2.6367 -0.5273,4.4824 -0.5273,1.8457 -1.8018,3.1641 -0.8569,0.8789 -1.8896,1.4282 -1.0107,0.5713 -2.1313,0.9229 -1.0987,0.3515 -2.2413,0.5053 -1.1425,0.1758 -2.2412,0.2637 l -2.351,-3.6035 z m 3.8232,-9.2725 q 1.4282,0 2.6587,-0.7031 1.2524,-0.7031 2.0215,-1.9995 l 0,-9.9536 q -0.3516,-0.5713 -0.8789,-1.0327 -0.5054,-0.4834 -1.1206,-0.835 -0.5933,-0.3516 -1.2964,-0.5274 -0.6812,-0.1977 -1.3843,-0.1977 -2.7466,0 -4.1968,1.9556 -1.4282,1.9336 -1.4282,5.6469 0,1.7578 0.3955,3.1861 0.3955,1.4062 1.1206,2.395 0.7251,0.9888 1.7578,1.5381 1.0547,0.5273 2.3511,0.5273 z"
           style=""
           id="path4204" />
        <path
           d="m 2449.739,1161.3386 q -1.3623,0 -2.3511,-0.4175 -0.9668,-0.3955 -1.604,-1.1425 -0.6152,-0.7471 -0.9008,-1.8018 -0.2857,-1.0767 -0.2857,-2.373 l 0,-13.7549 -3.5596,0 0,-4.065 3.5596,0 0,-7.229 4.6802,-2.2632 0,9.4922 5.4492,0 0,4.065 -5.4492,0 0,12.5464 q 0,0.5713 0.088,1.0547 0.1098,0.4833 0.3515,0.8349 0.2637,0.3516 0.7032,0.5493 0.4394,0.1758 1.1206,0.1758 1.6699,0 3.4057,-1.0767 l -0.5713,4.3506 q -0.9668,0.4834 -2.1093,0.7691 -1.1426,0.2856 -2.5269,0.2856 z"
           style=""
           id="path4206" />
        <path
           d="m 2469.4924,1161.3386 q -2.417,0 -4.3725,-0.813 -1.9336,-0.813 -3.2959,-2.351 -1.3623,-1.5601 -2.1094,-3.7793 -0.7251,-2.2412 -0.7251,-5.0757 0,-2.8345 0.7251,-5.0757 0.7471,-2.2412 2.1094,-3.7793 1.3623,-1.5601 3.2959,-2.373 1.9555,-0.835 4.3725,-0.835 2.3951,0 4.3506,0.835 1.9556,0.8129 3.3179,2.373 1.3623,1.5381 2.1094,3.7793 0.747,2.2412 0.747,5.0757 0,2.8345 -0.747,5.0757 -0.7471,2.2192 -2.1094,3.7793 -1.3623,1.538 -3.3179,2.351 -1.9555,0.813 -4.3506,0.813 z m 0,-4.4165 q 1.3404,0 2.417,-0.5273 1.0987,-0.5274 1.8457,-1.4942 0.7691,-0.9887 1.1646,-2.395 0.4175,-1.4062 0.4175,-3.186 0,-1.7798 -0.4175,-3.1861 -0.3955,-1.4282 -1.1646,-2.4169 -0.747,-0.9888 -1.8457,-1.5162 -1.0766,-0.5273 -2.417,-0.5273 -1.3403,0 -2.417,0.5273 -1.0766,0.5274 -1.8457,1.5162 -0.747,0.9887 -1.1645,2.4169 -0.3955,1.4063 -0.3955,3.1861 0,1.7798 0.3955,3.186 0.4175,1.4063 1.1645,2.395 0.7691,0.9668 1.8457,1.4942 1.0767,0.5273 2.417,0.5273 z"
           style=""
           id="path4208" />
        <path
           d="m 2499.8367,1160.7893 0,-13.7329 q 0,-1.4502 -0.3516,-2.4609 -0.3516,-1.0328 -0.9668,-1.67 -0.6152,-0.6591 -1.4502,-0.9448 -0.8349,-0.3076 -1.8237,-0.3076 -1.0547,0 -1.9556,0.2856 -0.9009,0.2637 -1.56,0.8789 -0.6592,0.6153 -1.0547,1.648 -0.3736,1.0107 -0.3736,2.4829 l 0,13.8208 -4.6801,0 0,-23.0054 4.6801,0 0,2.2193 q 1.1206,-1.4282 2.5708,-2.0874 1.4502,-0.6592 3.3619,-0.6592 1.8017,0 3.3178,0.5273 1.5161,0.5054 2.6148,1.67 1.1206,1.1645 1.7358,3.0322 0.6152,1.8677 0.6152,4.5703 l 0,13.7329 -4.6801,0 z"
           style=""
           id="path4210" />
        <path
           d="m 2509.8782,1149.8909 0,-4.043 17.7759,0 0,4.043 -17.7759,0 z"
           style=""
           id="path4212" />
        <path
           d="m 2272.4417,1210.2893 0,-31.5088 13.2714,0 q 2.9004,0 4.856,0.791 1.9556,0.791 3.1421,2.1094 1.1865,1.2964 1.6699,2.9663 0.5054,1.6699 0.5054,3.4497 0,1.3623 -0.3955,2.7466 -0.3955,1.3843 -1.2305,2.6148 -0.813,1.2084 -2.1094,2.1533 -1.2964,0.9228 -3.0981,1.4062 l 6.4819,13.2715 -5.3613,0 -6.1963,-12.876 -6.8555,0 0,12.876 -4.6801,0 z m 13.3813,-17.3804 q 1.4722,0 2.4609,-0.3955 0.9888,-0.4175 1.604,-1.0986 0.6153,-0.6812 0.8789,-1.5381 0.2637,-0.8569 0.2637,-1.7798 0,-0.813 -0.2417,-1.6699 -0.2197,-0.8569 -0.813,-1.5601 -0.5932,-0.7031 -1.604,-1.1425 -1.0107,-0.4395 -2.5488,-0.4395 l -8.7012,0 0,9.624 8.7012,0 z"
           style=""
           id="path4214" />
        <path
           d="m 2311.509,1210.8386 q -2.395,0 -4.3286,-0.813 -1.9336,-0.8349 -3.2959,-2.373 -1.3623,-1.5601 -2.1094,-3.8013 -0.7251,-2.2412 -0.7251,-5.0757 0,-2.8344 0.7471,-5.0537 0.7471,-2.2412 2.1094,-3.7793 1.3843,-1.56 3.2959,-2.373 1.9336,-0.813 4.3066,-0.813 2.0435,0 3.8233,0.6592 1.8017,0.6372 3.1421,1.9775 1.3623,1.3184 2.1313,3.3399 0.791,2.0214 0.791,4.768 0,0.7471 -0.044,1.5821 -0.022,0.8349 -0.1319,1.4501 l -15.4907,0 q 0.022,1.4283 0.5054,2.5708 0.5054,1.1207 1.3184,1.9336 0.8129,0.7911 1.8457,1.2305 1.0327,0.4175 2.1533,0.4175 1.4282,0 2.6367,-0.5933 1.2305,-0.5932 2.1313,-1.7358 l 3.0542,3.1421 q -1.2524,1.4941 -3.208,2.417 -1.9555,0.9228 -4.6582,0.9228 z m 0,-19.9511 q -1.0986,0 -2.1093,0.3295 -1.0108,0.3077 -1.8018,1.0108 -0.769,0.6811 -1.2744,1.8017 -0.5054,1.1206 -0.5933,2.7247 l 10.9864,0 q -0.044,-1.6041 -0.5054,-2.7247 -0.4614,-1.1206 -1.2085,-1.8017 -0.7471,-0.7031 -1.6699,-1.0108 -0.9009,-0.3295 -1.8238,-0.3295 z"
           style=""
           id="path4216" />
        <path
           d="m 2344.4241,1210.2893 -4.4824,0 0,-1.9775 q -0.4395,0.4614 -1.0547,0.9228 -0.6153,0.4395 -1.4063,0.813 -0.769,0.3516 -1.7358,0.5713 -0.9668,0.2197 -2.1094,0.2197 -1.7578,0 -3.252,-0.4834 -1.4941,-0.4834 -2.5927,-1.4502 -1.0987,-0.9887 -1.7359,-2.417 -0.6152,-1.4502 -0.6152,-3.3618 0,-1.9775 0.7471,-3.4057 0.747,-1.4502 1.9775,-2.3731 1.2305,-0.9448 2.8125,-1.3843 1.604,-0.4394 3.2959,-0.4394 1.582,0 3.0322,0.3515 1.4722,0.3296 2.6368,1.0108 l 0,-1.2744 q 0,-1.2964 -0.3077,-2.1973 -0.2856,-0.9009 -0.9008,-1.4502 -0.5933,-0.5713 -1.5162,-0.813 -0.9228,-0.2636 -2.1972,-0.2636 -2.1533,0 -3.7354,0.5712 -1.56,0.5713 -2.8344,1.5162 l -1.3843,-3.8453 q 0.7031,-0.4834 1.604,-0.9008 0.9009,-0.4395 1.9775,-0.7691 1.0767,-0.3296 2.3291,-0.5054 1.2525,-0.1977 2.6807,-0.1977 0.9668,0 1.9995,0.1099 1.0327,0.1098 1.9995,0.4394 0.9888,0.3076 1.8457,0.9009 0.8789,0.5932 1.5161,1.56 0.6592,0.9449 1.0327,2.3291 0.3736,1.3843 0.3736,3.2959 l 0,14.8975 z m -9.9317,-3.6035 q 1.7798,0 3.1421,-0.7251 1.3843,-0.7251 2.3072,-1.7358 l 0,-3.5157 q -0.9668,-0.5053 -2.2632,-0.813 -1.2964,-0.3076 -2.6587,-0.3076 -1.0547,0 -1.9776,0.1978 -0.9228,0.1977 -1.6259,0.6372 -0.6812,0.4175 -1.0767,1.0986 -0.3955,0.6592 -0.3955,1.604 0,1.648 1.1426,2.6148 1.1645,0.9448 3.4057,0.9448 z"
           style=""
           id="path4218" />
        <path
           d="m 2356.1355,1215.6946 q 2.5269,-0.1538 4.1748,-0.5933 1.648,-0.4394 2.6147,-1.1206 0.9668,-0.6592 1.3404,-1.56 0.3735,-0.9009 0.3735,-1.9556 l 0,-2.0215 q -1.9116,2.395 -5.5371,2.395 -1.9775,0 -3.6914,-0.747 -1.7139,-0.7691 -3.0103,-2.2852 -1.2744,-1.5161 -2.0214,-3.7573 -0.7251,-2.2632 -0.7251,-5.2735 0,-2.8344 0.7031,-5.0537 0.7031,-2.2412 1.9556,-3.7793 1.2744,-1.56 3.0322,-2.373 1.7578,-0.813 3.8672,-0.813 1.0107,0 1.8457,0.1977 0.8349,0.1758 1.4941,0.4834 0.6812,0.3077 1.1865,0.7032 0.5274,0.3735 0.9009,0.769 l 0,-1.626 4.6802,0 0,21.2476 q 0,2.6367 -0.5274,4.4824 -0.5273,1.8457 -1.8017,3.1641 -0.8569,0.8789 -1.8897,1.4282 -1.0107,0.5713 -2.1313,0.9229 -1.0986,0.3515 -2.2412,0.5053 -1.1426,0.1758 -2.2412,0.2637 l -2.3511,-3.6035 z m 3.8232,-9.2725 q 1.4283,0 2.6587,-0.7031 1.2525,-0.7031 2.0215,-1.9995 l 0,-9.9536 q -0.3515,-0.5713 -0.8789,-1.0327 -0.5054,-0.4834 -1.1206,-0.835 -0.5933,-0.3516 -1.2964,-0.5273 -0.6811,-0.1978 -1.3843,-0.1978 -2.7465,0 -4.1967,1.9556 -1.4283,1.9336 -1.4283,5.6469 0,1.7578 0.3955,3.1861 0.3956,1.4062 1.1207,2.395 0.7251,0.9888 1.7578,1.5381 1.0547,0.5273 2.351,0.5273 z"
           style=""
           id="path4220" />
        <path
           d="m 2393.7307,1210.2893 -4.4824,0 0,-1.9775 q -0.4395,0.4614 -1.0547,0.9228 -0.6152,0.4395 -1.4062,0.813 -0.7691,0.3516 -1.7359,0.5713 -0.9668,0.2197 -2.1094,0.2197 -1.7578,0 -3.2519,-0.4834 -1.4942,-0.4834 -2.5928,-1.4502 -1.0986,-0.9887 -1.7358,-2.417 -0.6153,-1.4502 -0.6153,-3.3618 0,-1.9775 0.7471,-3.4057 0.7471,-1.4502 1.9775,-2.3731 1.2305,-0.9448 2.8125,-1.3843 1.6041,-0.4394 3.2959,-0.4394 1.5821,0 3.0323,0.3515 1.4721,0.3296 2.6367,1.0108 l 0,-1.2744 q 0,-1.2964 -0.3076,-2.1973 -0.2857,-0.9009 -0.9009,-1.4502 -0.5933,-0.5713 -1.5161,-0.813 -0.9229,-0.2636 -2.1973,-0.2636 -2.1533,0 -3.7353,0.5712 -1.5601,0.5713 -2.8345,1.5162 l -1.3843,-3.8453 q 0.7031,-0.4834 1.604,-0.9008 0.9009,-0.4395 1.9776,-0.7691 1.0766,-0.3296 2.3291,-0.5054 1.2524,-0.1977 2.6806,-0.1977 0.9668,0 1.9995,0.1099 1.0327,0.1098 1.9995,0.4394 0.9888,0.3076 1.8457,0.9009 0.879,0.5932 1.5162,1.56 0.6591,0.9449 1.0327,2.3291 0.3735,1.3843 0.3735,3.2959 l 0,14.8975 z m -9.9316,-3.6035 q 1.7798,0 3.1421,-0.7251 1.3842,-0.7251 2.3071,-1.7358 l 0,-3.5157 q -0.9668,-0.5053 -2.2632,-0.813 -1.2964,-0.3076 -2.6587,-0.3076 -1.0547,0 -1.9775,0.1978 -0.9229,0.1977 -1.626,0.6372 -0.6812,0.4175 -1.0767,1.0986 -0.3955,0.6592 -0.3955,1.604 0,1.648 1.1426,2.6148 1.1646,0.9448 3.4058,0.9448 z"
           style=""
           id="path4222" />
        <path
           d="m 2414.3191,1210.2893 0,-13.7329 q 0,-1.4502 -0.3516,-2.4609 -0.3515,-1.0328 -0.9668,-1.67 -0.6152,-0.6591 -1.4502,-0.9448 -0.8349,-0.3076 -1.8237,-0.3076 -1.0547,0 -1.9556,0.2856 -0.9008,0.2637 -1.56,0.8789 -0.6592,0.6153 -1.0547,1.648 -0.3735,1.0107 -0.3735,2.4829 l 0,13.8208 -4.6802,0 0,-23.0054 4.6802,0 0,2.2193 q 1.1206,-1.4282 2.5708,-2.0874 1.4502,-0.6592 3.3618,-0.6592 1.8017,0 3.3178,0.5273 1.5162,0.5054 2.6148,1.67 1.1206,1.1645 1.7358,3.0322 0.6153,1.8677 0.6153,4.5703 l 0,13.7329 -4.6802,0 z"
           style=""
           id="path4224" />
        <path
           d="m 2455.9792,1210.2893 -13.623,-21.3794 -1.2744,-2.3291 0.1318,2.3291 0,21.3794 -4.6802,0 0,-31.5088 4.7242,0 13.2934,21.0279 1.2964,2.4169 -0.1318,-2.373 0,-21.0718 4.6802,0 0,31.5088 -4.4166,0 z"
           style=""
           id="path4226" />
        <path
           d="m 2485.4885,1210.2893 -4.4824,0 0,-1.9775 q -0.4394,0.4614 -1.0547,0.9228 -0.6152,0.4395 -1.4062,0.813 -0.7691,0.3516 -1.7359,0.5713 -0.9668,0.2197 -2.1093,0.2197 -1.7579,0 -3.252,-0.4834 -1.4941,-0.4834 -2.5928,-1.4502 -1.0986,-0.9887 -1.7358,-2.417 -0.6152,-1.4502 -0.6152,-3.3618 0,-1.9775 0.747,-3.4057 0.7471,-1.4502 1.9776,-2.3731 1.2304,-0.9448 2.8125,-1.3843 1.604,-0.4394 3.2959,-0.4394 1.582,0 3.0322,0.3515 1.4722,0.3296 2.6367,1.0108 l 0,-1.2744 q 0,-1.2964 -0.3076,-2.1973 -0.2857,-0.9009 -0.9009,-1.4502 -0.5933,-0.5713 -1.5161,-0.813 -0.9229,-0.2636 -2.1973,-0.2636 -2.1533,0 -3.7353,0.5712 -1.5601,0.5713 -2.8345,1.5162 l -1.3843,-3.8453 q 0.7032,-0.4834 1.604,-0.9008 0.9009,-0.4395 1.9776,-0.7691 1.0766,-0.3296 2.3291,-0.5054 1.2524,-0.1977 2.6806,-0.1977 0.9668,0 1.9995,0.1099 1.0328,0.1098 1.9996,0.4394 0.9887,0.3076 1.8457,0.9009 0.8789,0.5932 1.5161,1.56 0.6592,0.9449 1.0327,2.3291 0.3735,1.3843 0.3735,3.2959 l 0,14.8975 z m -9.9316,-3.6035 q 1.7798,0 3.1421,-0.7251 1.3843,-0.7251 2.3071,-1.7358 l 0,-3.5157 q -0.9668,-0.5053 -2.2632,-0.813 -1.2964,-0.3076 -2.6587,-0.3076 -1.0547,0 -1.9775,0.1978 -0.9229,0.1977 -1.626,0.6372 -0.6811,0.4175 -1.0766,1.0986 -0.3956,0.6592 -0.3956,1.604 0,1.648 1.1426,2.6148 1.1646,0.9448 3.4058,0.9448 z"
           style=""
           id="path4228" />
        <path
           d="m 2498.5183,1210.8386 q -1.3623,0 -2.3511,-0.4175 -0.9668,-0.3955 -1.604,-1.1425 -0.6152,-0.7471 -0.9008,-1.8018 -0.2857,-1.0767 -0.2857,-2.373 l 0,-13.7549 -3.5596,0 0,-4.065 3.5596,0 0,-7.229 4.6802,-2.2632 0,9.4922 5.4492,0 0,4.065 -5.4492,0 0,12.5464 q 0,0.5713 0.088,1.0547 0.1098,0.4834 0.3515,0.8349 0.2637,0.3516 0.7032,0.5493 0.4394,0.1758 1.1206,0.1758 1.6699,0 3.4057,-1.0766 l -0.5713,4.3505 q -0.9668,0.4834 -2.1093,0.7691 -1.1426,0.2856 -2.5269,0.2856 z"
           style=""
           id="path4230" />
        <path
           d="m 2508.9553,1210.2893 0,-23.0054 4.6802,0 0,23.0054 -4.6802,0 z m 2.3291,-26.5869 q -0.5932,0 -1.1206,-0.2197 -0.5054,-0.2198 -0.9009,-0.5933 -0.3735,-0.3955 -0.5932,-0.9009 -0.2197,-0.5273 -0.2197,-1.1206 0,-0.5932 0.2197,-1.0986 0.2197,-0.5274 0.5932,-0.9009 0.3955,-0.3955 0.9009,-0.6152 0.5274,-0.2198 1.1206,-0.2198 0.5933,0 1.0987,0.2198 0.5273,0.2197 0.9008,0.6152 0.3955,0.3735 0.6153,0.9009 0.2197,0.5054 0.2197,1.0986 0,0.5933 -0.2197,1.1206 -0.2198,0.5054 -0.6153,0.9009 -0.3735,0.3735 -0.9008,0.5933 -0.5054,0.2197 -1.0987,0.2197 z"
           style=""
           id="path4232" />
        <path
           d="m 2529.7854,1210.8386 q -2.417,0 -4.3726,-0.813 -1.9336,-0.813 -3.2959,-2.351 -1.3623,-1.5601 -2.1093,-3.7793 -0.7251,-2.2412 -0.7251,-5.0757 0,-2.8345 0.7251,-5.0757 0.747,-2.2412 2.1093,-3.7793 1.3623,-1.5601 3.2959,-2.373 1.9556,-0.835 4.3726,-0.835 2.395,0 4.3506,0.835 1.9556,0.8129 3.3179,2.373 1.3623,1.5381 2.1093,3.7793 0.7471,2.2412 0.7471,5.0757 0,2.8345 -0.7471,5.0757 -0.747,2.2192 -2.1093,3.7793 -1.3623,1.538 -3.3179,2.351 -1.9556,0.813 -4.3506,0.813 z m 0,-4.4165 q 1.3403,0 2.417,-0.5273 1.0986,-0.5274 1.8457,-1.4942 0.769,-0.9887 1.1645,-2.395 0.4175,-1.4062 0.4175,-3.186 0,-1.7798 -0.4175,-3.1861 -0.3955,-1.4282 -1.1645,-2.4169 -0.7471,-0.9888 -1.8457,-1.5162 -1.0767,-0.5273 -2.417,-0.5273 -1.3403,0 -2.417,0.5273 -1.0767,0.5274 -1.8457,1.5162 -0.7471,0.9887 -1.1645,2.4169 -0.3956,1.4063 -0.3956,3.1861 0,1.7798 0.3956,3.186 0.4174,1.4063 1.1645,2.395 0.769,0.9668 1.8457,1.4942 1.0767,0.5273 2.417,0.5273 z"
           style=""
           id="path4234" />
        <path
           d="m 2560.1296,1210.2893 0,-13.7329 q 0,-1.4502 -0.3515,-2.4609 -0.3516,-1.0328 -0.9668,-1.67 -0.6153,-0.6591 -1.4502,-0.9448 -0.835,-0.3076 -1.8237,-0.3076 -1.0547,0 -1.9556,0.2856 -0.9009,0.2637 -1.5601,0.8789 -0.6592,0.6153 -1.0547,1.648 -0.3735,1.0107 -0.3735,2.4829 l 0,13.8208 -4.6802,0 0,-23.0054 4.6802,0 0,2.2193 q 1.1206,-1.4282 2.5708,-2.0874 1.4502,-0.6592 3.3618,-0.6592 1.8018,0 3.3179,0.5273 1.5161,0.5054 2.6147,1.67 1.1206,1.1645 1.7359,3.0322 0.6152,1.8677 0.6152,4.5703 l 0,13.7329 -4.6802,0 z"
           style=""
           id="path4236" />
        <path
           d="m 2588.9358,1210.2893 -4.4824,0 0,-1.9775 q -0.4395,0.4614 -1.0547,0.9228 -0.6153,0.4395 -1.4063,0.813 -0.769,0.3516 -1.7358,0.5713 -0.9668,0.2197 -2.1094,0.2197 -1.7578,0 -3.2519,-0.4834 -1.4942,-0.4834 -2.5928,-1.4502 -1.0986,-0.9887 -1.7358,-2.417 -0.6153,-1.4502 -0.6153,-3.3618 0,-1.9775 0.7471,-3.4057 0.7471,-1.4502 1.9775,-2.3731 1.2305,-0.9448 2.8125,-1.3843 1.604,-0.4394 3.2959,-0.4394 1.5821,0 3.0323,0.3515 1.4721,0.3296 2.6367,1.0108 l 0,-1.2744 q 0,-1.2964 -0.3076,-2.1973 -0.2857,-0.9009 -0.9009,-1.4502 -0.5933,-0.5713 -1.5161,-0.813 -0.9229,-0.2636 -2.1973,-0.2636 -2.1533,0 -3.7354,0.5712 -1.56,0.5713 -2.8344,1.5162 l -1.3843,-3.8453 q 0.7031,-0.4834 1.604,-0.9008 0.9009,-0.4395 1.9775,-0.7691 1.0767,-0.3296 2.3291,-0.5054 1.2525,-0.1977 2.6807,-0.1977 0.9668,0 1.9995,0.1099 1.0327,0.1098 1.9995,0.4394 0.9888,0.3076 1.8457,0.9009 0.8789,0.5932 1.5161,1.56 0.6592,0.9449 1.0328,2.3291 0.3735,1.3843 0.3735,3.2959 l 0,14.8975 z m -9.9316,-3.6035 q 1.7797,0 3.142,-0.7251 1.3843,-0.7251 2.3072,-1.7358 l 0,-3.5157 q -0.9668,-0.5053 -2.2632,-0.813 -1.2964,-0.3076 -2.6587,-0.3076 -1.0547,0 -1.9775,0.1978 -0.9229,0.1977 -1.626,0.6372 -0.6812,0.4175 -1.0767,1.0986 -0.3955,0.6592 -0.3955,1.604 0,1.648 1.1426,2.6148 1.1645,0.9448 3.4058,0.9448 z"
           style=""
           id="path4238" />
        <path
           d="m 2595.5276,1210.2893 0,-30.2783 4.6802,-2.2193 0,32.4976 -4.6802,0 z"
           style=""
           id="path4240" />
      </g>
    </g>
  </g>
  <g
     inkscape:groupmode="layer"
     id="layer3"
     inkscape:label="Date"
     transform="translate(-1559.8697,-775.0227)"
     style="display:inline">
    <g
       style="font-style:normal;font-variant:normal;font-weight:300;font-stretch:normal;font-size:15px;line-height:125%;font-family:Overpass;-inkscape-font-specification:'Overpass, Light';text-align:start;letter-spacing:0px;word-spacing:0px;writing-mode:lr-tb;text-anchor:start;fill:#222222;fill-opacity:1;stroke:none;stroke-width:1px;stroke-linecap:butt;stroke-linejoin:miter;stroke-opacity:1"
       id="text4152">
      <path
         d="m 1588.3497,1882.8298 q 0.855,0 1.485,0.315 0.63,0.315 1.035,0.87 0.42,0.54 0.63,1.29 0.21,0.735 0.21,1.59 0,1.125 -0.39,2.22 -0.375,1.095 -1.065,2.025 -0.675,0.915 -1.62,1.59 -0.945,0.675 -2.085,0.96 l 0,-0.825 q 0.765,-0.225 1.425,-0.675 0.66,-0.465 1.17,-1.065 0.525,-0.6 0.855,-1.29 0.345,-0.69 0.435,-1.365 -0.39,0.495 -1.035,0.765 -0.63,0.255 -1.455,0.255 -0.645,0 -1.215,-0.255 -0.555,-0.255 -0.975,-0.69 -0.405,-0.45 -0.645,-1.02 -0.24,-0.585 -0.24,-1.215 0,-0.735 0.27,-1.365 0.27,-0.645 0.735,-1.11 0.48,-0.465 1.11,-0.735 0.63,-0.27 1.365,-0.27 z m -0.075,5.82 q 0.525,0 0.96,-0.18 0.45,-0.195 0.765,-0.525 0.315,-0.33 0.495,-0.78 0.18,-0.45 0.18,-0.975 0,-0.51 -0.195,-0.945 -0.18,-0.435 -0.51,-0.765 -0.315,-0.33 -0.75,-0.51 -0.435,-0.195 -0.945,-0.195 -0.54,0 -0.99,0.195 -0.435,0.18 -0.75,0.51 -0.315,0.33 -0.495,0.765 -0.165,0.435 -0.165,0.945 0,0.525 0.165,0.975 0.165,0.45 0.48,0.78 0.315,0.33 0.75,0.525 0.45,0.18 1.005,0.18 z"
         style=""
         id="path4168" />
      <path
         d="m 1601.6451,1892.7448 q 0.9,0 1.515,-0.405 0.63,-0.405 1.005,-1.05 0.39,-0.645 0.555,-1.44 0.18,-0.81 0.18,-1.59 0,-0.855 -0.18,-1.665 -0.165,-0.81 -0.555,-1.425 -0.375,-0.63 -1.005,-1.005 -0.615,-0.39 -1.515,-0.39 -0.9,0 -1.53,0.405 -0.615,0.405 -1.005,1.05 -0.375,0.645 -0.555,1.455 -0.165,0.795 -0.165,1.575 0,0.855 0.165,1.665 0.18,0.81 0.555,1.44 0.39,0.615 1.005,1.005 0.63,0.375 1.53,0.375 z m 0,0.945 q -1.215,0 -2.055,-0.48 -0.825,-0.48 -1.335,-1.26 -0.51,-0.78 -0.735,-1.74 -0.225,-0.975 -0.225,-1.95 0,-0.975 0.225,-1.935 0.225,-0.975 0.735,-1.755 0.51,-0.78 1.335,-1.26 0.84,-0.48 2.055,-0.48 1.215,0 2.04,0.48 0.84,0.48 1.35,1.26 0.51,0.78 0.735,1.755 0.225,0.96 0.225,1.935 0,0.975 -0.225,1.95 -0.225,0.96 -0.735,1.74 -0.51,0.78 -1.35,1.26 -0.825,0.48 -2.04,0.48 z"
         style=""
         id="path4170" />
      <path
         d="m 1610.7349,1893.6898 q -1.395,0 -2.22,-1.035 -0.81,-1.05 -0.81,-2.97 0,-1.905 0.825,-2.955 0.84,-1.065 2.325,-1.065 0.855,0 1.5,0.42 0.645,0.405 0.96,1.185 l -0.96,0.375 q -0.18,-0.435 -0.555,-0.735 -0.36,-0.3 -0.99,-0.3 -0.54,0 -0.915,0.225 -0.375,0.21 -0.63,0.615 -0.24,0.39 -0.36,0.96 -0.105,0.57 -0.105,1.275 0,1.455 0.48,2.265 0.48,0.795 1.5,0.795 0.63,0 1.065,-0.315 0.435,-0.315 0.63,-0.855 l 0.945,0.36 q -0.27,0.81 -0.99,1.29 -0.705,0.465 -1.695,0.465 z"
         style=""
         id="path4172" />
      <path
         d="m 1617.2104,1893.6898 q -0.825,0 -1.17,-0.495 -0.345,-0.51 -0.345,-1.26 l 0,-5.145 -1.305,0 0,-0.945 1.305,0 0,-2.64 1.05,-0.525 0,3.165 1.95,0 0,0.945 -1.95,0 0,4.695 q 0,0.255 0.015,0.48 0.03,0.21 0.12,0.375 0.09,0.165 0.255,0.27 0.165,0.09 0.435,0.09 0.39,0 0.66,-0.15 0.285,-0.15 0.495,-0.3 l -0.12,1.095 q -0.3,0.165 -0.63,0.255 -0.33,0.09 -0.765,0.09 z"
         style=""
         id="path4174" />
      <path
         d="m 1623.9996,1893.5098 q 0,-0.99 0.285,-1.695 0.285,-0.72 0.735,-1.26 0.45,-0.54 1.02,-0.945 0.57,-0.405 1.14,-0.795 0.495,-0.33 0.945,-0.645 0.45,-0.33 0.795,-0.69 0.36,-0.36 0.57,-0.765 0.21,-0.42 0.21,-0.93 0,-0.855 -0.6,-1.425 -0.585,-0.585 -1.68,-0.585 -1.065,0 -1.605,0.48 -0.54,0.465 -0.735,1.215 l -0.93,-0.42 q 0.12,-0.465 0.405,-0.87 0.285,-0.405 0.72,-0.705 0.435,-0.3 0.99,-0.465 0.57,-0.18 1.245,-0.18 1.56,0 2.415,0.81 0.87,0.795 0.87,2.145 0,0.72 -0.285,1.275 -0.27,0.555 -0.72,1.02 -0.435,0.45 -0.99,0.84 -0.555,0.375 -1.125,0.735 -0.45,0.3 -0.87,0.6 -0.42,0.285 -0.78,0.63 -0.345,0.33 -0.585,0.735 -0.24,0.39 -0.33,0.885 l 5.775,0 0,1.005 -6.885,0 z"
         style=""
         id="path4176" />
      <path
         d="m 1636.5787,1893.6898 q -1.035,0 -1.725,-0.48 -0.69,-0.48 -1.11,-1.245 -0.405,-0.78 -0.585,-1.74 -0.18,-0.975 -0.18,-1.965 0,-0.54 0.06,-1.155 0.06,-0.63 0.21,-1.23 0.165,-0.6 0.42,-1.155 0.27,-0.555 0.675,-0.975 0.405,-0.42 0.945,-0.66 0.555,-0.255 1.29,-0.255 1.035,0 1.725,0.495 0.69,0.48 1.095,1.26 0.42,0.78 0.6,1.755 0.18,0.96 0.18,1.92 0,0.555 -0.075,1.17 -0.06,0.615 -0.225,1.23 -0.15,0.6 -0.42,1.155 -0.255,0.54 -0.66,0.96 -0.405,0.42 -0.96,0.675 -0.54,0.24 -1.26,0.24 z m 0,-0.945 q 0.78,0 1.26,-0.42 0.495,-0.435 0.765,-1.095 0.27,-0.66 0.36,-1.455 0.09,-0.795 0.09,-1.515 0,-0.81 -0.105,-1.605 -0.105,-0.81 -0.39,-1.44 -0.285,-0.645 -0.765,-1.035 -0.48,-0.405 -1.215,-0.405 -0.795,0 -1.29,0.435 -0.48,0.435 -0.75,1.095 -0.27,0.66 -0.375,1.455 -0.09,0.78 -0.09,1.5 0,0.825 0.105,1.635 0.105,0.795 0.39,1.44 0.285,0.63 0.765,1.02 0.495,0.39 1.245,0.39 z"
         style=""
         id="path4178" />
      <path
         d="m 1643.6008,1893.5098 0,-8.595 -1.785,0 0,-0.6 q 0.795,0 1.35,-0.27 0.555,-0.285 0.81,-1.035 l 0.675,0 0,10.5 -1.05,0 z"
         style=""
         id="path4180" />
      <path
         d="m 1648.6856,1893.5098 q 0.015,-1.23 0.15,-2.43 0.15,-1.2 0.51,-2.385 0.375,-1.185 0.99,-2.37 0.615,-1.2 1.575,-2.415 l -5.085,0 0,-0.9 6.285,0 0,0.69 q -1.095,1.26 -1.755,2.595 -0.66,1.32 -1.02,2.61 -0.36,1.275 -0.48,2.46 -0.12,1.185 -0.12,2.145 l -1.05,0 z"
         style=""
         id="path4182" />
    </g>
  </g>
</svg>
