<?xml version="1.0" encoding="UTF-8" standalone="no"?>
<!-- Created with Inkscape (http://www.inkscape.org/) -->

<svg
   xmlns:dc="http://purl.org/dc/elements/1.1/"
   xmlns:cc="http://creativecommons.org/ns#"
   xmlns:rdf="http://www.w3.org/1999/02/22-rdf-syntax-ns#"
   xmlns:svg="http://www.w3.org/2000/svg"
   xmlns="http://www.w3.org/2000/svg"
   xmlns:sodipodi="http://sodipodi.sourceforge.net/DTD/sodipodi-0.dtd"
   xmlns:inkscape="http://www.inkscape.org/namespaces/inkscape"
   width="1262.788"
   height="1789.0343"
   viewBox="0 0 1262.788 1789.0343"
   id="svg2"
   version="1.1"
   inkscape:version="0.91 r13725"
   sodipodi:docname="DEN.svg"
   inkscape:export-filename="C:\Users\Paul Bogard\Dropbox\Documents\Websites\Flight Log\Images\Terminals\DEN.png"
   inkscape:export-xdpi="90"
   inkscape:export-ydpi="90">
  <defs
     id="defs4" />
  <sodipodi:namedview
     id="base"
     pagecolor="#ffffff"
     bordercolor="#666666"
     borderopacity="1.0"
     inkscape:pageopacity="1"
     inkscape:pageshadow="2"
     inkscape:zoom="0.35"
     inkscape:cx="198.187"
     inkscape:cy="784.09997"
     inkscape:document-units="px"
     inkscape:current-layer="layer1"
     showgrid="false"
     inkscape:window-width="1680"
     inkscape:window-height="987"
     inkscape:window-x="1672"
     inkscape:window-y="-8"
     inkscape:window-maximized="1"
     units="px"
     fit-margin-top="25"
     fit-margin-left="25"
     fit-margin-right="25"
     fit-margin-bottom="25" />
  <metadata
     id="metadata7">
    <rdf:RDF>
      <cc:Work
         rdf:about="">
        <dc:format>image/svg+xml</dc:format>
        <dc:type
           rdf:resource="http://purl.org/dc/dcmitype/StillImage" />
        <dc:title></dc:title>
      </cc:Work>
    </rdf:RDF>
  </metadata>
  <g
     inkscape:groupmode="layer"
     id="layer2"
     inkscape:label="Terminal"
     transform="translate(-41.487252,130.49256)">
    <path
       id="path3345"
       style="fill:#dddddd;fill-opacity:1;fill-rule:evenodd;stroke:#222222;stroke-width:1.5;stroke-linecap:butt;stroke-linejoin:miter;stroke-miterlimit:4;stroke-dasharray:none;stroke-opacity:1"
       d="m 280.48072,953.4367 -0.3564,27.42866 5.09979,0.13778 0.13783,-1.37831 19.57216,0.41348 0.13783,11.99139 61.05965,0.82705 0.13783,3.8593 47.00076,0.41348 -0.13783,-3.44581 115.779,0.55134 0,11.44004 7.7186,0 -0.13784,5.2376 22.74231,22.4667 -3.58364,3.7214 17.64252,18.0561 -5.51329,0 0,6.2024 6.47811,0 -0.4135,106.4064 -7.85643,-0.1378 0.13783,3.4458 -6.06461,-0.1378 -0.27566,-4.962 -43.14146,-0.5513 0,15.2993 1.92965,0 0,7.7186 -2.20532,-0.1378 -0.13784,15.8507 54.58154,0.2757 -0.4135,18.6073 -7.75305,0.1034 -0.0344,-5.2721 -26.53269,-0.2067 -12.4049,4.8241 0.13783,1.9296 25.77462,0 -0.55133,91.1071 -19.15867,-0.5514 0,17.9182 -15.29936,-0.2756 0,-3.5837 -12.4049,0 -0.13783,18.3317 8.68343,0 -0.55134,27.5664 -7.85643,-0.1378 -0.13783,9.0969 7.58077,-0.1378 0.41349,27.7042 -7.7186,0 0.27567,26.6017 6.61594,0 -0.27566,28.1177 -6.75378,0 -0.13783,9.0969 6.75378,0 -0.13783,27.5665 -7.16728,0 0,26.4637 6.47811,0.1379 -0.27566,28.2556 -7.30511,0.1378 0,8.9591 7.16728,0 -0.27567,26.7394 -8.68343,0.1378 0.13784,15.9886 12.81839,0 0,-1.9297 22.60447,0.2757 8.26993,1.2405 c 0,0 -1.92965,4.6862 -6.34028,7.7186 0,0 11.9914,5.6511 18.88301,15.1615 0,0 5.92678,-11.3022 22.05314,-11.4401 0,0 10.19957,-0.9648 23.70712,11.4401 0,0 8.82126,-12.6805 19.02084,-13.7832 0,0 -4.54846,-2.0675 -7.99427,-7.7186 l 10.33741,-1.654 21.50182,-0.1378 0,1.3783 12.40489,0.2757 0,-14.7481 -8.13209,-0.2756 0.55133,-27.2908 7.85643,0 -0.27567,-9.0969 -7.44293,0 0.13783,-28.1178 7.7186,0.1378 -0.13783,-26.8772 -7.58077,-0.1379 c 0.27566,-0.6891 0.96483,-27.4285 0.96483,-27.4285 l 7.3051,0.2756 -0.13784,-9.2347 -7.58076,0 0.68916,-27.5664 7.16727,0.1377 0.13784,-27.2907 -7.44294,-0.2756 0.82699,-28.1178 6.75378,0.4135 0.13783,-8.5456 -6.89161,0 0.27566,-28.3934 7.99427,0.2756 0.13783,-18.056 -13.23188,0 -0.13783,3.4458 -10.19959,-0.1378 0,-17.229 -20.95048,-0.1378 1.10266,-90.0045 27.0151,0.2758 0,-3.3081 -11.5779,-4.6863 -31.15007,-0.4134 -0.13783,5.0997 -8.1321,-0.1378 0.13784,-19.0208 53.7545,0.5513 0,-13.3697 -2.20532,0 -0.13783,-8.9591 2.34315,0 -0.13784,-13.9211 -43.27928,-0.5513 0,4.2728 -11.16441,-0.1378 -2.06748,-4.5485 1.10266,-105.855 7.99426,0 -0.27566,-5.6512 -5.92679,-0.1378 24.39629,-22.4667 -3.8593,-4.9619 17.78035,-16.2642 0.13783,-7.4429 9.37258,-10e-5 0,-9.09689 118.39782,1.37839 0,3.308 44.24412,0.2756 0,-3.44582 62.30013,0.82705 0.22537,-10.38847 2.72894,0 0,1.3645 3.70355,0 0,-1.26701 2.82641,0 -0.0975,-3.70362 34.69649,0 0,1.75436 11.40306,0.0974 -0.0975,-1.85169 42.88328,0.2923 0.0975,2.72899 7.30967,0.1949 0,9.94117 23.09845,-0.19497 0,1.55938 10.13611,0.0975 -0.097,-1.4619 3.5086,0 0,-1.75436 1.267,0 -0.049,-7.01721 -1.0233,-8e-5 0,-1.26701 5.4578,-0.0974 -0.097,-1.55939 3.8984,0 -0.097,-6.82239 -3.3137,0.0975 -0.097,-3.0213 -7.797,-0.0975 0,2.6315 -29.43363,-0.0976 8e-5,-2.92381 -12.67008,-0.19489 0.0975,2.82639 -42.78587,-0.48735 0.0975,-2.63142 -11.59798,0 -0.0975,2.82639 -33.91679,0 0,-4.77565 -2.72894,-0.0975 0.0975,-1.85177 -3.50863,0.0975 0,1.65688 -3.89849,-0.0975 0,-10.9158 -61.49854,-0.97455 -0.0975,-3.50864 -43.27314,0.0974 -0.0975,2.4366 -2.0467,0.1949 0.0975,-18.51779 -5.94519,-0.0974 0.0975,-3.02133 -6.43249,0 -0.0975,2.72894 -4.48325,-0.0975 -0.0975,19.10258 -51.26503,-0.38987 0.0975,-19.10256 -5.26295,0 0,-3.21625 -7.60204,0.0975 0,3.11879 -3.60609,0 -0.38985,19.00507 -32.64979,-0.48727 0,-9.84369 -18.51779,0.58476 -28.7513,-28.75129 -15.78886,-0.19491 -27.87414,28.06906 -19.49241,-0.38979 10e-6,9.16136 -1.46194,0.0975 -0.0975,-18.71273 -4.77564,-0.0975 0.0975,-3.21625 -7.40712,0 -0.0975,3.02133 -3.99595,0 10e-6,19.1026 -51.75235,-0.87722 0.19492,-18.81015 -5.16548,0 0,-2.8264 -7.40712,0.0975 0,2.92386 -4.19087,0 -0.0975,19.10258 -31.67517,-0.87714 0,-3.21627 -45.70969,0.0974 -0.0975,2.33912 -61.40108,0.0975 0,-2.33904 z m 280.87609,-616.49496 -0.55177,61.61011 -7.30402,7.16684 -18.74625,0 -0.27437,7.44423 -118.81217,-0.82764 -0.13719,-2.75729 -43.55581,-0.13719 -0.13719,2.20554 -117.70865,-1.24071 -0.1387,-2.61859 -45.20808,-0.1387 -0.13869,2.34423 -120.051366,-0.68895 0,1.79095 -21.087453,-0.41306 -0.247242,9.12061 3.119102,0 0,18.61509 -2.924624,0 0,9.06484 21.345242,0.0965 0,1.26784 120.851871,0.97387 0.098,2.53417 44.73471,0.39046 0.098,-2.04724 116.56442,1.07186 0.098,2.92462 43.95531,-0.098 0,-2.92311 119.00062,0.77939 0,10.23318 20.17389,-0.39045 11.40302,11.50101 0,8.57639 7.99298,-0.0965 5.45729,5.26281 -0.0965,12.28042 2.43619,-0.098 0,1.07186 13.25428,0.19447 0.098,-1.07186 2.63065,0.098 0.19599,-12.57287 6.3588,-5.96232 7.7397,0.101 0.15679,-7.89196 12.8382,-12.85328 19.49247,0.19447 -0.19447,-7.11558 118.70815,1.07337 0,3.60603 44.24778,0.29246 0.098,-3.50955 118.02674,1.85276 0,3.21559 45.12515,0.58492 0.19451,-3.80051 118.61158,0.48694 0.097,-0.87739 2.2417,-0.098 0,30.60305 20.5644,18.03167 -0.1945,26.11962 3.8985,0 0.098,6.52915 162.6635,1.07187 -0.1944,-16.46987 -149.7997,-1.65679 -6.6271,-21.73418 -9.8442,0 -14.7166,-13.9372 0.5849,-69.29555 -4.8723,0 0.096,4.57991 -3.0211,0 -0.2756,-1.86354 -5.589,-0.12555 -0.1776,-13.79937 10.1351,0.098 0,-2.29146 3.8021,0 -0.048,-3.89849 -3.5577,-0.0482 0,-2.14371 5.4573,0.0482 0.098,8.82061 10.9161,0.098 -0.2924,-9.06484 135.6664,0.48694 0,-4.28744 -205.9373,-1.36432 0,-0.97538 -14.0338,0.098 0,0.7794 -11.9879,-0.19448 0,4.57991 12.7673,0 -0.098,1.75477 -2.9231,0.098 0,3.8005 3.5081,0 -0.098,16.76383 -57.1478,-0.10251 0.13724,-2.75578 -45.07092,-0.41457 -0.13718,2.4814 -116.88252,-0.68894 -0.13719,-3.58342 -45.48546,0 0,2.89448 -117.56996,-0.82765 0.41306,-8.68342 -20.3985,0.13869 -6.89247,-7.02965 0.68894,-62.43775 z m 479.10489,58.92217 4.892,0.0693 -0.2065,10.88896 8.8899,0 0.1387,-10.75177 3.9287,0 0,2.48141 1.6537,0 0.068,2.68794 -3.1011,0.0694 0,16.81508 -26.0502,-0.0693 0.2081,-16.81509 9.5095,0.0694 z m 25.1549,0.27588 26.6698,0.27587 0,2.27467 -1.6557,-4.7e-4 0.07,2.89512 -10.0622,-0.0693 0.2069,17.02248 -20.7448,-0.27674 0,-13.92062 3.998,0 -0.07,-2.82512 4.9628,0.13718 0,-3.23862 -3.3079,4.7e-4 z m -702.73787,-465.389988 -0.13783,36.939012 12.12923,-0.137831 0,3.8593 44.10629,0.275662 0.13783,-3.58363 117.15732,1.378318 -0.13783,9.510419 22.3288,-8e-6 12.26707,12.818395 0.13783,9.3725879 9.37258,0 8.82126,7.7186 -0.4135,17.2290191 -8.26992,-0.137831 -0.27567,24.258456 26.73944,0.413493 0,-24.291893 -7.58077,-0.242225 0.27566,-17.091188 8.26993,-7.8564388 8.82126,7.7e-6 0,-8.959087 12.40489,-12.5427249 19.43433,0.275662 0,-9.510419 118.53565,1.378318 0,4.410632 43.96845,0.551332 0.13784,-4.548463 13.23188,0.413493 0.29458,-36.942501 -13.05991,-0.389851 0.0975,-3.313711 -44.54016,-0.389843 0,3.021323 -117.92907,-1.072083 -0.0975,-9.746207 -19.86553,0.07379 -27.40357,-28.435277 -14.91168,-0.19492 -28.55638,28.361458 -20.27211,-0.292388 -0.19492,8.869042 -117.44176,-1.169545 0,-3.021323 -45.12493,0.09746 -0.0975,2.826405 z"
       inkscape:connector-curvature="0" />
  </g>
  <g
     inkscape:groupmode="layer"
     id="layer1"
     inkscape:label="Label">
    <g
       style=""
       id="g4156"
       transform="translate(284.24841,339.48351)">
      <g
         style="font-style:normal;font-variant:normal;font-weight:bold;font-stretch:normal;font-size:125px;line-height:110.00000238%;font-family:Overpass;-inkscape-font-specification:'Overpass, Bold';text-align:center;letter-spacing:0px;word-spacing:0px;writing-mode:lr-tb;text-anchor:middle;fill:#dddddd;fill-opacity:1;stroke:#222222;stroke-width:0.25;stroke-linecap:butt;stroke-linejoin:miter;stroke-miterlimit:4;stroke-dasharray:none;stroke-opacity:1"
         id="text4148">
        <path
           d="m 552.06213,1112.7003 29.54102,0 q 7.62939,0 13.73291,1.77 6.10352,1.709 10.80322,4.7608 4.76074,3.0517 8.11768,7.2632 3.35693,4.1504 5.49316,9.0332 2.19727,4.8217 3.17383,10.1928 1.0376,5.3711 1.0376,10.7422 0,5.0049 -0.97656,10.2539 -0.91553,5.188 -2.99073,10.0708 -2.07519,4.8218 -5.43213,9.0943 -3.29589,4.2724 -8.11767,7.5073 -4.76074,3.1738 -11.04737,5.0049 -6.28662,1.831 -14.34326,1.831 l -28.9917,0 0,-87.5244 z m 31.00586,71.5332 q 6.53076,0 10.98633,-2.5024 4.45557,-2.5635 7.20215,-6.5308 2.74658,-4.0283 3.96728,-8.9722 1.22071,-4.9438 1.22071,-9.7656 0,-5.1269 -1.28174,-10.0708 -1.28174,-5.0049 -3.96729,-8.9111 -2.62451,-3.9063 -6.83593,-6.2866 -4.15039,-2.4414 -9.8877,-2.4414 l -15.50293,0 0,55.4809 14.09912,0 z"
           style=""
           id="path4169" />
        <path
           d="m 643.37073,1200.2247 0,-87.5244 59.75342,0 0,16.0523 -42.84668,0 0,18.3715 25.20752,0 0,15.9913 -25.20752,0 0,21.1181 45.47119,0 0,15.9912 -62.37793,0 z"
           style=""
           id="path4171" />
        <path
           d="m 778.68567,1200.2247 -34.729,-51.0254 q -0.8545,-1.2817 -1.89209,-3.1128 -0.97657,-1.892 -1.70899,-3.479 0.18311,1.4039 0.24414,3.2959 0.12207,1.8921 0.12207,3.2959 l 0,51.0254 -16.78467,0 0,-87.5244 15.86914,0 33.87452,50.4151 q 0.79345,1.2207 1.83105,3.0517 1.0376,1.8311 1.83106,3.5401 -0.18311,-1.7701 -0.30518,-3.5401 -0.061,-1.831 -0.061,-3.0517 l 0,-50.4151 16.72364,0 0,87.5244 -15.01465,0 z"
           style=""
           id="path4173" />
      </g>
      <g
         style="font-style:normal;font-variant:normal;font-weight:normal;font-stretch:normal;font-size:45px;line-height:110.00000238%;font-family:Overpass;-inkscape-font-specification:'Overpass, Normal';text-align:center;letter-spacing:0px;word-spacing:0px;writing-mode:lr-tb;text-anchor:middle;fill:#222222;fill-opacity:1;stroke:none;stroke-width:1px;stroke-linecap:butt;stroke-linejoin:miter;stroke-opacity:1"
         id="text4152">
        <path
           d="m 601.90955,1215.3499 8.833,0 q 2.74659,0 4.92188,0.6372 2.17529,0.6152 3.84521,1.7138 1.66993,1.0987 2.85645,2.6148 1.18652,1.4941 1.93359,3.2519 0.76905,1.7359 1.12061,3.6695 0.35156,1.9336 0.35156,3.8671 0,1.8018 -0.32959,3.6915 -0.30762,1.8676 -1.05469,3.6254 -0.72509,1.7359 -1.88965,3.274 -1.16455,1.5381 -2.85644,2.7026 -1.6919,1.1426 -3.95508,1.8018 -2.24121,0.6591 -5.11963,0.6591 l -8.65722,0 0,-31.5087 z m 9.40429,27.0922 q 1.80176,0 3.20801,-0.4614 1.42822,-0.4834 2.48291,-1.2964 1.07666,-0.813 1.80176,-1.9116 0.74707,-1.0986 1.20849,-2.3511 0.4834,-1.2744 0.68116,-2.6147 0.21972,-1.3623 0.21972,-2.7027 0,-2.1313 -0.52734,-4.1528 -0.50537,-2.0434 -1.604,-3.6255 -1.09864,-1.604 -2.83448,-2.5708 -1.71386,-0.9887 -4.13086,-0.9887 l -5.22949,0 0,22.6757 4.72412,0 z"
           style=""
           id="path4176" />
        <path
           d="m 641.41638,1247.408 q -2.39502,0 -4.32861,-0.813 -1.9336,-0.835 -3.2959,-2.3731 -1.3623,-1.56 -2.10937,-3.8012 -0.7251,-2.2413 -0.7251,-5.0757 0,-2.8345 0.74707,-5.0537 0.74707,-2.2413 2.10937,-3.7793 1.38428,-1.5601 3.2959,-2.3731 1.93359,-0.813 4.30664,-0.813 2.04346,0 3.82324,0.6592 1.80176,0.6372 3.14209,1.9775 1.36231,1.3184 2.13135,3.3399 0.79102,2.0215 0.79102,4.7681 0,0.747 -0.0439,1.582 -0.022,0.8349 -0.13183,1.4502 l -15.49073,0 q 0.022,1.4282 0.50537,2.5708 0.50538,1.1206 1.31836,1.9336 0.81299,0.791 1.84571,1.2304 1.03271,0.4175 2.15332,0.4175 1.42822,0 2.63672,-0.5932 1.23046,-0.5933 2.13134,-1.7359 l 3.0542,3.1421 q -1.25244,1.4942 -3.20801,2.417 -1.95556,0.9229 -4.6582,0.9229 z m 0,-19.9512 q -1.09863,0 -2.10937,0.3296 -1.01075,0.3076 -1.80176,1.0107 -0.76904,0.6812 -1.27442,1.8018 -0.50537,1.1206 -0.59326,2.7246 l 10.98633,0 q -0.0439,-1.604 -0.50537,-2.7246 -0.46143,-1.1206 -1.2085,-1.8018 -0.74707,-0.7031 -1.66992,-1.0107 -0.90088,-0.3296 -1.82373,-0.3296 z"
           style=""
           id="path4178" />
        <path
           d="m 670.92566,1246.8586 0,-13.7329 q 0,-1.4502 -0.35156,-2.4609 -0.35157,-1.0327 -0.9668,-1.6699 -0.61523,-0.6592 -1.4502,-0.9449 -0.83496,-0.3076 -1.82373,-0.3076 -1.05468,0 -1.95556,0.2857 -0.90088,0.2636 -1.56006,0.8789 -0.65918,0.6152 -1.05469,1.6479 -0.37353,1.0108 -0.37353,2.4829 l 0,13.8208 -4.68018,0 0,-23.0053 4.68018,0 0,2.2192 q 1.1206,-1.4282 2.5708,-2.0874 1.45019,-0.6592 3.36181,-0.6592 1.80176,0 3.31787,0.5274 1.51612,0.5053 2.61475,1.6699 1.12061,1.1645 1.73584,3.0322 0.61523,1.8677 0.61523,4.5703 l 0,13.7329 -4.68017,0 z"
           style=""
           id="path4180" />
        <path
           d="m 692.63464,1246.8586 -4.37256,0 -8.41552,-23.0053 4.68017,0 5.31739,15.0952 q 0.19775,0.5932 0.32959,1.0327 0.1538,0.4395 0.30761,0.9888 0.13184,-0.5493 0.26368,-0.9888 0.1538,-0.4395 0.35156,-1.0327 l 5.27344,-15.0952 4.68017,0 -8.41553,23.0053 z"
           style=""
           id="path4182" />
        <path
           d="m 714.89294,1247.408 q -2.39502,0 -4.32861,-0.813 -1.93359,-0.835 -3.2959,-2.3731 -1.3623,-1.56 -2.10937,-3.8012 -0.7251,-2.2413 -0.7251,-5.0757 0,-2.8345 0.74707,-5.0537 0.74707,-2.2413 2.10938,-3.7793 1.38427,-1.5601 3.29589,-2.3731 1.9336,-0.813 4.30664,-0.813 2.04346,0 3.82325,0.6592 1.80175,0.6372 3.14209,1.9775 1.3623,1.3184 2.13134,3.3399 0.79102,2.0215 0.79102,4.7681 0,0.747 -0.0439,1.582 -0.022,0.8349 -0.13183,1.4502 l -15.49072,0 q 0.022,1.4282 0.50537,2.5708 0.50537,1.1206 1.31836,1.9336 0.81298,0.791 1.8457,1.2304 1.03271,0.4175 2.15332,0.4175 1.42822,0 2.63672,-0.5932 1.23047,-0.5933 2.13135,-1.7359 l 3.0542,3.1421 q -1.25245,1.4942 -3.20801,2.417 -1.95557,0.9229 -4.65821,0.9229 z m 0,-19.9512 q -1.09863,0 -2.10937,0.3296 -1.01074,0.3076 -1.80176,1.0107 -0.76904,0.6812 -1.27441,1.8018 -0.50537,1.1206 -0.59326,2.7246 l 10.98632,0 q -0.0439,-1.604 -0.50537,-2.7246 -0.46142,-1.1206 -1.20849,-1.8018 -0.74707,-0.7031 -1.66993,-1.0107 -0.90087,-0.3296 -1.82373,-0.3296 z"
           style=""
           id="path4184" />
        <path
           d="m 730.18591,1246.8586 0,-23.0053 4.68018,0 0,2.7905 q 0.81299,-1.7578 2.10937,-2.5269 1.29639,-0.791 3.01026,-0.791 2.28515,0 3.86719,1.3843 l -0.68116,4.3286 q -0.6372,-0.4394 -1.51611,-0.769 -0.85693,-0.3516 -2.10938,-0.3516 -0.79101,0 -1.62597,0.2857 -0.81299,0.2636 -1.49414,0.9668 -0.68115,0.6811 -1.12061,1.8457 -0.43945,1.1425 -0.43945,2.9223 l 0,12.9199 -4.68018,0 z"
           style=""
           id="path4186" />
      </g>
    </g>
  </g>
</svg>
