<?xml version="1.0" encoding="UTF-8" standalone="no"?>
<!-- Created with Inkscape (http://www.inkscape.org/) -->

<svg
   xmlns:dc="http://purl.org/dc/elements/1.1/"
   xmlns:cc="http://creativecommons.org/ns#"
   xmlns:rdf="http://www.w3.org/1999/02/22-rdf-syntax-ns#"
   xmlns:svg="http://www.w3.org/2000/svg"
   xmlns="http://www.w3.org/2000/svg"
   xmlns:sodipodi="http://sodipodi.sourceforge.net/DTD/sodipodi-0.dtd"
   xmlns:inkscape="http://www.inkscape.org/namespaces/inkscape"
   width="1149.0679"
   height="2262.1074"
   id="svg2"
   version="1.1"
   inkscape:version="0.91 r13725"
   sodipodi:docname="DFW.svg"
   inkscape:export-filename="C:\Users\Paul Bogard\Dropbox\Documents\Websites\Flight Log\Images\Terminals\DFW.png"
   inkscape:export-xdpi="90"
   inkscape:export-ydpi="90">
  <defs
     id="defs4" />
  <sodipodi:namedview
     id="base"
     pagecolor="#ffffff"
     bordercolor="#666666"
     borderopacity="1.0"
     inkscape:pageopacity="1"
     inkscape:pageshadow="2"
     inkscape:zoom="0.5"
     inkscape:cx="-801.18722"
     inkscape:cy="685.4385"
     inkscape:document-units="px"
     inkscape:current-layer="layer1"
     showgrid="false"
     fit-margin-top="25"
     fit-margin-left="25"
     fit-margin-right="25"
     fit-margin-bottom="25"
     inkscape:window-width="1680"
     inkscape:window-height="987"
     inkscape:window-x="1672"
     inkscape:window-y="-8"
     inkscape:window-maximized="1" />
  <metadata
     id="metadata7">
    <rdf:RDF>
      <cc:Work
         rdf:about="">
        <dc:format>image/svg+xml</dc:format>
        <dc:type
           rdf:resource="http://purl.org/dc/dcmitype/StillImage" />
        <dc:title />
      </cc:Work>
    </rdf:RDF>
  </metadata>
  <g
     inkscape:groupmode="layer"
     id="layer2"
     inkscape:label="Terminal"
     transform="translate(-204.08872,-318.35255)">
    <path
       id="path3832"
       style="fill:#dddddd;fill-opacity:1;stroke:#000000;stroke-width:1.5;stroke-linecap:butt;stroke-linejoin:miter;stroke-miterlimit:4;stroke-opacity:1;stroke-dasharray:none"
       d="m 1242.1337,2554.7099 39.2216,-46.4415 c 0,0 4.488,4.488 11.5128,-4.0978 1.1708,-1.1708 5.0735,-6.4394 1.1708,-12.4885 l 33.3677,-51.515 -23.6111,-14.0495 -14.83,25.3672 -7.4151,-4.488 -16.3911,25.3672 7.6102,4.8783 -11.1226,15.2203 -7.415,-5.4637 -18.7327,23.4159 6.6345,5.4637 -19.9036,22.05 z m -383.79759,-633.2049 0,21.2694 16.39113,0.3903 0.39026,23.0256 6.04911,-0.3903 0,4.8783 14.24467,0 0,-4.8783 29.26988,3.1222 6.24426,1.1707 -0.97566,4.6832 12.29335,3.7075 0.97566,-5.4637 c 0,0 19.70838,5.2686 35.12385,11.3177 l -2.34159,4.2929 11.70795,6.6345 3.51238,-5.4637 30.83094,18.3425 -3.3173,3.3172 11.1226,8.781 2.7319,-3.7075 3.7075,3.1221 15.2203,-16.9765 c 0,0 52.3845,41.5847 76.9449,108.3667 l -21.5248,8.0028 2.144,5.5883 -3.5124,1.1708 4.4881,14.2447 3.5123,-1.366 c 0,0 5.4638,15.8058 7.0248,34.5385 l -4.2929,0 1.5611,15.2203 4.8783,0 0.5854,33.9531 -7.0248,0 0.7805,14.2446 4.0978,-0.1951 c 0,0 -2.7318,16.9765 -8.0004,34.1482 l -3.1221,-1.7562 -5.854,14.0495 4.0978,1.9514 c 0,0 -3.9027,15.8057 -13.4642,30.8309 l -4.0978,-3.1221 -8.7809,16.0008 3.7075,2.7319 c 0,0 -15.2203,23.611 -35.5141,42.3438 l -3.3173,-2.927 -12.6836,12.0982 3.1221,3.5124 c 0,0 -14.0495,10.342 -26.538,17.9522 l -2.7318,-3.5124 -11.90312,6.4393 2.14645,4.293 c 0,0 -11.90308,7.6101 -27.70881,12.6836 l -1.75619,-4.2929 -19.90352,6.6345 1.75619,4.6831 c 0,0 -19.12298,5.854 -37.85572,6.8297 l -0.5854,-4.4881 -6.04911,0 0,5.0735 -65.95478,0.7805 0.19513,31.4163 -2.73186,0 -0.58539,21.6597 84.6875,1.1708 10.53718,-13.8544 c 0,0 36.68491,-4.6831 72.00385,-21.6597 l 8.9761,18.5376 6.6345,6.8297 6.8297,-3.3173 26.1477,-23.4159 2.3416,3.1221 42.734,-38.8313 -2.3415,-2.5368 14.0495,-12.4884 4.2929,-6.6346 -16.5863,-14.0495 21.7062,-25.0971 28.1478,-52.1562 12.1421,-38.0824 7.7269,-44.4294 -0.2759,-44.7053 -1.9318,-10.2105 -6.0711,1.1038 -5.7951,-27.8719 7.1749,-1.9316 -6.8989,-25.3883 c 0,0 -14.6259,-45.8092 -35.3228,-73.1291 l 17.6614,-16.0057 -5.2433,-8.8307 -19.5931,-18.7651 1.9318,-2.4837 -42.2217,-38.9102 -1.9317,2.7596 -20.145,-17.1095 -9.9346,-4.9673 -11.5903,18.7653 -41.39382,-19.3172 1.65574,-6.0711 -35.04682,-11.3143 -17.66136,-0.276 -0.55191,4.6913 -21.80077,-2.7595 -0.55192,6.623 -36.70255,-1.1039 0,-7.1749 z M 277.79253,344.1026 l -47.95381,1.29275 0.561,17.97658 44.75852,-0.58539 21.75727,18.17171 3.43921,-3.85387 46.10006,38.34354 -33.70914,30.66019 -4.29292,5.46371 16.39113,13.65928 c 0,0 -38.15447,47.52805 -46.2464,115.51844 l -7.2199,-0.39027 -2.73186,25.36723 5.65885,0.5854 c 0,0 -0.78053,14.04954 -0.5854,32.19686 l -5.85398,1.17079 2.73186,22.44024 5.65884,-0.97566 c 0,0 10.14689,72.97955 47.61233,118.64056 l -10.73229,7.61017 -1.56106,-1.36593 -5.07344,6.43937 4.29291,5.07345 85.66317,79.02866 5.65884,3.70752 4.68318,-5.46371 -1.95132,-1.95133 4.48805,-9.17123 c 0,0 52.29551,31.8066 121.17728,34.14819 l -0.19513,-3.90265 6.6345,0.39027 39.6119,51.51498 -0.39027,27.12341 5.07345,0 0.39026,30.24554 -3.51238,0 0.39026,14.8301 -5.85397,0.1951 -0.39027,122.9335 -4.29291,8.5858 0,33.3677 -7.02477,6.8296 -24.0013,0 0,-5.2686 -24.78183,0 0.19514,14.635 -48.19773,0 0,-14.635 -23.61103,0 0,13.8544 -48.97826,-0.1951 -0.19513,-14.6349 -23.4159,0 0,14.6349 -51.51498,0 0,-7.2199 -30.44067,0.1951 -1.36593,-1.561 -8.58583,0.1951 0.0976,9.3664 2.34159,2.0489 0,27.5136 6.73208,0.098 0.39026,31.9042 -15.0252,-0.098 0.19513,24.0013 14.83007,0.1951 0.39027,26.5381 -22.44024,22.8305 -0.19513,149.8617 20.87917,22.05 -0.39026,27.7088 -14.83007,0 0.19513,24.0013 2.34159,0 0,6.6345 11.90308,0 -0.19513,27.5137 -7.2199,0 0.19513,32.0017 -2.53672,2.3416 0.19513,8.3907 7.8053,-0.1951 1.56106,-2.5367 31.02607,-0.1952 0,-8.3907 50.92958,0.3903 0,3.1221 -5.65884,0 0.19513,2.7319 -15.0252,0 0,6.8296 43.90481,0.1951 -0.19513,-12.8787 43.70968,-0.1951 0.19513,11.3176 5.46371,0 0,1.9514 24.5867,0.1951 -0.39027,-13.4641 48.19773,-0.3903 -0.19513,14.2447 25.17209,-0.1952 -0.39027,-13.4641 22.04998,0 0,-4.2929 35.70924,0.3902 0,-9.1712 -8.19556,0 0,-8.7809 -88.59016,0.1951 -11.12255,-11.1226 c 0,0 -8.00043,2.3416 -19.51325,-9.3663 L 385.5301,1503.336 c 0,0 -17.95219,-13.6593 -17.56192,-54.0517 l 0,-74.1503 c 0,-1.5611 -3.51239,-28.6845 18.73272,-51.3199 l 83.32157,-83.5167 c 0,0 4.48805,-7.2199 16.7814,-7.6102 l 7.02477,-8.3907 50.92958,-0.1951 0,2.7319 9.36636,-0.1952 -0.19513,-5.4637 35.51411,0 0.19514,-1.7562 97.17598,-23.4159 -0.19513,3.5124 7.61017,-0.1951 -0.19514,-5.0735 62.4424,-15.2203 0,3.7075 7.41504,0.3903 0.19513,-5.2686 62.4424,-14.8301 0.0244,19.1474 60.17399,-0.8293 41.3925,4.6832 0.26827,-6.6101 4.97588,1.0975 -0.82931,5.3906 13.80562,3.1709 1.09766,-5.5369 6.34181,1.9513 -1.24393,4.5369 23.5866,8.1467 1.39036,-5.0978 4.82953,1.927 -2.21968,4.2685 8.56148,4.1466 2.34159,-4.6832 c 0,0 18.50888,7.7267 39.34358,23.3183 l -2.4879,3.0246 7.0248,5.6588 2.4879,-3.0246 3.7319,3.171 -3.3173,3.1709 17.9278,16.1472 3.732,-3.732 3.3172,3.4393 -3.4636,3.1709 6.6345,7.1955 3.3173,-3.049 6.6101,8.2932 10.7567,-7.2687 c 0,0 24.1964,29.0747 36.4897,66.5402 l -11.0982,4.7319 2.4881,6.7809 -3.732,1.6343 3.732,12.4396 3.8782,-1.3903 1.5122,5.2442 -3.4636,1.0976 4.5612,23.3183 6.6345,-0.4146 0,5.1222 -5.5368,0.122 0.1463,13.9519 -5.5125,0 0.122,33.0994 7.0492,0.4146 -1.3903,12.0007 3.7319,0.7073 -1.6587,9.0981 -3.7318,-1.0977 -6.0491,22.7574 4.0002,1.3904 -1.9514,5.7807 -3.5856,-1.0975 -3.8538,12.1469 3.1709,1.244 -1.6586,4.9515 11.7322,5.5369 c 0,0 -10.659,30.9772 -39.3435,66.2962 l -9.9518,-7.2199 c 0,0 -20.2937,25.9526 -39.6119,37.4655 l -2.9269,-3.7076 -9.9518,7.8053 2.3416,3.3173 c 0,0 -4.6832,4.0978 -11.3177,7.6102 l 7.0248,12.4884 -21.07434,12.0983 6.63454,12.6836 c 0,0 -18.92789,10.342 -41.75847,16.196 l -1.17079,-5.0735 -28.09908,5.4637 0.97566,3.9027 c 0,0 -13.65926,2.5367 -29.66013,3.3172 l 0,2.3416 -5.65884,0 0.19513,3.3173 -33.17252,-0.1952 -0.19513,11.1226 29.26987,-0.1951 c 0,0 68.68663,1.9513 129.3729,-33.1726 l 5.854,8.1956 2.1465,-1.5611 9.5614,13.0739 9.7567,-6.6345 83.7118,-74.9309 3.5124,-5.4637 -19.123,-17.5619 c 0,0 112.7866,-142.0565 2.5367,-321.8711 0.9757,-0.4878 17.9522,-14.1471 17.9522,-14.1471 l -4.6832,-8.5858 -82.7361,-76.4919 -7.8053,-4.0978 -13.8544,19.7084 c 0,0 -53.46636,-36.8801 -143.61763,-36.8801 l -39.80703,-0.1951 0.19513,8.3907 -11.51282,-0.1951 0,-113.7623 1.95133,0.3903 0.39026,-14.4398 -2.34159,0 0.97566,-114.15255 8.21996,0.0243 -0.26831,17.09848 11.04938,0 -0.2927,-6.87842 43.61212,-0.561 -0.26831,4.97588 10.75668,0 0,-5.24419 c 0,0 25.37349,1.63805 52.41745,-5.53689 l 0.56097,4.41488 11.85445,-3.02456 -1.09766,-4.41487 c 0,0 13.2527,-2.49512 22.63537,-6.6345 l 4.68319,10.22006 7.4638,-3.31725 8.5371,12.97631 10.2199,-4.97588 22.0745,-16.53748 2.4879,4.41487 48.0269,-35.87998 -2.7806,-3.31726 23.1964,-16.56187 6.3418,-5.7808 -22.9036,-27.31855 6.0734,-6.90281 5.2442,5.24419 5.7808,-6.63451 -5.7808,-4.97588 4.6832,-6.04911 1.0976,0.82932 11.8787,-18.5132 -1.3903,-0.53661 9.9517,-17.39119 1.0977,0.26831 c 0,0 7.9889,-13.78365 15.4398,-33.92866 l -2.1952,-0.82932 7.4394,-21.80605 3.0489,0.561 3.8539,-22.90367 -2.7563,-0.56101 c 0,0 3.0337,-14.34944 3.5856,-32.56274 l 1.3903,0 0,-26.22093 -1.6586,0.82932 -0.8293,-18.48881 2.1952,-0.53661 -0.5365,-7.46382 -1.927,0 c 0,0 -1.6533,-17.11955 -8.0004,-33.95305 l 1.6342,-0.80493 -8.0004,-23.73299 c 0,0 -9.091,-31.1935 -33.0994,-62.10091 l 12.6836,-9.09806 6.6345,-7.46382 -4.9759,-6.07349 -21.0254,-19.73274 2.5367,-2.73185 -43.5145,-40.58756 -2.7319,3.12212 -25.1721,-22.83051 -5.4637,-3.31725 -15.4155,30.24554 c 0,0 -52.4906,-32.00173 -106.54233,-34.14819 l 0,-2.87821 -72.15024,-0.68296 -0.0976,2.78064 c -3.54362,0.0301 -6.40284,2.92003 -6.39059,6.46376 0.0123,3.55635 2.90742,6.4273 6.46377,6.41499 l 0.17074,11.80551 55.05175,0 26.07461,1.78059 2.60986,3.4636 -1.51228,10.48837 5.39057,1.09762 -0.97566,3.85387 18.75707,4.14656 0.8294,-4.14656 23.31833,7.58577 5.3905,2.48794 -1.24401,3.1709 13.8057,6.0735 1.92689,-4.00021 32.41642,19.58642 13.952,11.31769 -3.049,3.31725 13.391,11.43964 2.9026,-3.43921 c 0,0 25.6614,22.89608 40.5631,51.31985 l -5.488,3.63434 c 0,0 22.8305,28.68448 26.9283,81.95565 l 7.0247,0 -0.1951,1.95133 -5.4637,0.39026 1.1708,16.39113 6.2442,0 -1.7562,31.2212 -4.0978,-0.58539 -1.561,14.04954 -5.2686,-0.97567 -5.854,33.95306 4.6832,1.17079 -4.2929,11.51282 3.5124,1.56106 c 0,0 -20.6841,68.29638 -76.1017,105.56668 l -2.5367,-2.53672 -12.2934,9.36636 3.5124,3.51239 c 0,0 -13.8544,8.78096 -30.63582,15.41546 l -1.7562,-3.31725 -13.65927,5.85398 2.14646,4.29291 c 0,0 -14.43981,5.85398 -32.78226,9.75663 l -0.78053,-3.70752 -14.63494,3.12212 0.5854,3.90265 -22.05,3.12212 0.78053,13.46414 -62.05213,-0.5854 -0.39027,-18.34245 -5.85397,-0.5854 -0.97567,3.51239 -87.22422,-15.6106 0.39026,-2.53673 -13.26901,0 -0.19513,2.34159 -56.39329,-0.58539 0,-1.95133 -12.68362,-0.19513 1.36593,2.34159 -91.32201,42.92915 -0.5854,-1.1708 -51.51498,-0.78053 -0.39026,-22.63537 -23.61103,-1.56106 -3.90265,-1.17079 1.17079,-7.41504 -13.07388,-2.53672 -1.36592,6.82964 -38.05084,-12.29335 2.92699,-6.6345 -11.12256,-5.07345 -2.92698,6.63451 -31.2212,-18.53759 4.48804,-5.07345 -9.56149,-7.2199 -4.48805,5.26858 -4.87831,-4.48805 -7.46382,8.29313 c 0,0 -30.51554,-27.02949 -50.24662,-57.247 l 9.12245,-5.29296 -1.75619,-2.53673 5.46371,-3.90265 -6.43938,-11.51281 -5.85397,3.51238 -14.63494,-30.44067 -1.75619,-6.43937 7.02477,-1.95133 -3.51239,-12.68361 -6.82963,2.53672 c 0,0 -5.07345,-19.12298 -7.21991,-35.12385 l 7.02477,-0.97566 -1.17079,-13.07388 -7.61017,0.5854 c 0,0 -0.97566,-17.75706 0.39027,-35.31898 l 6.24424,0.78053 1.36592,-14.83007 -6.24424,-0.78053 c 0,0 1.56106,-16.58626 8.78097,-36.09951 l 6.24424,2.53672 5.65884,-15.6106 -6.82964,-2.53672 c 0.5854,-0.97567 6.63451,-18.34246 16.39113,-33.17253 l 5.26858,3.51239 7.61017,-12.09822 -5.26858,-3.70752 c 0,0 15.22033,-25.36722 39.22163,-45.27074 l 4.29292,5.07345 c 0.97566,-1.75619 19.51325,-17.75706 50.34418,-34.73359 l -3.31725,-5.65884 1.36593,-1.17079 2.73185,5.26857 13.46414,-6.43937 -2.34159,-4.87831 c 0,0 13.85441,-6.43937 33.75793,-10.53716 l 0.78053,3.90265 10.73228,-2.92698 -0.78053,-3.70752 c 0,0 9.36636,-3.70752 35.12385,-4.09778 l 71.4185,0 0.19513,-40.68513 -18.83029,0 0,5.36614 -37.46544,-0.19513 0.0976,-4.48805 -24.78183,0 -4.29291,0.48783 0.39026,3.41482 -3.31725,0.39027 -0.48783,-3.31726 -15.22034,2.34159 0.39027,3.21969 -31.31877,7.12234 -26.92828,9.56149 -25.95262,12.29335 -4.48805,2.92699 -7.41504,-12.48848 2.92699,-1.95133 -5.26858,-5.85397 -6.6345,4.09778 -46.31958,41.3193 -46.66106,-38.75819 2.68307,-2.85381 -29.73331,-24.83061 z m 400.04602,504.1736 1.75619,2.34159 7.02477,0 0,-2.14646 56.19816,0.19513 0,1.95133 11.12255,0 0,-1.56106 87.80963,15.80573 -0.19514,1.56106 0.5854,17.56192 -16.97653,-0.39026 0,92.4928 1.95133,0 -0.19513,36.68492 -3.70752,0 0,14.2447 4.48805,0 0.19513,125.275 -1.56106,0.1952 c 0,0 -61.27161,14.83 -62.24727,15.0252 l 0,-2.7319 -7.61017,-0.3902 0,4.8783 -62.4424,15.6106 0,-3.3173 -7.41503,-0.3903 0.19513,4.4881 -96.98085,23.4159 0,-4.6832 5.65884,-0.1951 -0.19513,-65.7597 c 3.51238,-4.6831 0,-9.7566 0,-9.7566 l 0.19513,-27.7088 c 3.70752,-5.854 -0.19513,-11.3177 -0.19513,-11.3177 l 0,-17.5619 c 4.09778,-6.0491 0.39026,-12.2934 0.39026,-12.2934 l 0.39027,-28.0991 c 1.95132,-3.7075 0,-8.3907 0,-8.3907 l 0.19513,-20.2937 c 3.31725,-4.68321 -0.19513,-11.51285 -0.19513,-11.51285 l 0,-65.95478 -8.00043,0 -8.58583,-13.46415 -4.87832,0.19514 -0.39026,-17.95219 10.53715,-0.19514 93.07821,-45.85613 z m -101.17621,274.5514 4.58562,0 0.2927,24.8794 3.60995,0 0.0976,37.4655 -14.53737,14.9276 -28.87961,0.098 -0.0976,-7.1224 21.56214,-0.098 8.098,-8.0005 -0.0976,-32.2944 5.36614,-10.1469 0,-19.7084 z"
       inkscape:connector-curvature="0" />
  </g>
  <g
     inkscape:groupmode="layer"
     id="layer1"
     inkscape:label="Label">
    <g
       style="font-style:normal;font-variant:normal;font-weight:bold;font-stretch:normal;font-size:75px;line-height:125%;font-family:Overpass;-inkscape-font-specification:'Overpass Bold';letter-spacing:0px;word-spacing:0px;fill:#000000;fill-opacity:1;stroke:none;stroke-width:1px;stroke-linecap:butt;stroke-linejoin:miter;stroke-opacity:1"
       id="text3335" />
    <g
       style="font-style:normal;font-variant:normal;font-weight:normal;font-stretch:normal;font-size:45px;line-height:125%;font-family:Overpass;-inkscape-font-specification:'Overpass, Normal';text-align:start;letter-spacing:0px;word-spacing:0px;writing-mode:lr-tb;text-anchor:start;fill:#222222;fill-opacity:1;stroke:none;stroke-width:1px;stroke-linecap:butt;stroke-linejoin:miter;stroke-opacity:1"
       id="text3338">
      <path
         d="m 144.97701,1905.3474 8.833,0 q 2.74658,0 4.92188,0.6372 2.17529,0.6153 3.84521,1.7139 1.66992,1.0986 2.85645,2.6147 1.18652,1.4942 1.93359,3.252 0.76904,1.7358 1.12061,3.6694 0.35156,1.9336 0.35156,3.8672 0,1.8018 -0.32959,3.6914 -0.30762,1.8677 -1.05469,3.6255 -0.7251,1.7358 -1.88965,3.2739 -1.16455,1.5381 -2.85644,2.7027 -1.6919,1.1425 -3.95508,1.8017 -2.24121,0.6592 -5.11963,0.6592 l -8.65722,0 0,-31.5088 z m 9.40429,27.0923 q 1.80176,0 3.20801,-0.4614 1.42822,-0.4834 2.48291,-1.2964 1.07666,-0.813 1.80176,-1.9116 0.74707,-1.0987 1.20849,-2.3511 0.4834,-1.2744 0.68116,-2.6148 0.21972,-1.3623 0.21972,-2.7026 0,-2.1313 -0.52734,-4.1528 -0.50537,-2.0435 -1.604,-3.6255 -1.09864,-1.604 -2.83448,-2.5708 -1.71386,-0.9888 -4.13086,-0.9888 l -5.22949,0 0,22.6758 4.72412,0 z"
         style=""
         id="path4141" />
      <path
         d="m 192.78951,1936.8562 -4.48243,0 0,-1.9775 q -0.43945,0.4614 -1.05468,0.9228 -0.61524,0.4395 -1.40625,0.813 -0.76905,0.3516 -1.73584,0.5713 -0.9668,0.2197 -2.10938,0.2197 -1.75781,0 -3.25195,-0.4834 -1.49414,-0.4834 -2.59278,-1.4502 -1.09863,-0.9887 -1.73584,-2.417 -0.61523,-1.4502 -0.61523,-3.3618 0,-1.9775 0.74707,-3.4057 0.74707,-1.4502 1.97754,-2.3731 1.23047,-0.9448 2.8125,-1.3843 1.604,-0.4394 3.2959,-0.4394 1.58203,0 3.03222,0.3515 1.47217,0.3296 2.63672,1.0108 l 0,-1.2744 q 0,-1.2964 -0.30761,-2.1973 -0.28565,-0.9009 -0.90088,-1.4502 -0.59326,-0.5713 -1.51612,-0.813 -0.92285,-0.2637 -2.19726,-0.2637 -2.15332,0 -3.73535,0.5713 -1.56006,0.5713 -2.83448,1.5161 l -1.38427,-3.8452 q 0.70312,-0.4834 1.604,-0.9008 0.90088,-0.4395 1.97754,-0.7691 1.07666,-0.3296 2.3291,-0.5054 1.25244,-0.1977 2.68067,-0.1977 0.96679,0 1.99951,0.1098 1.03271,0.1099 1.99951,0.4395 0.98877,0.3076 1.8457,0.9009 0.87891,0.5932 1.51612,1.56 0.65917,0.9449 1.03271,2.3291 0.37354,1.3843 0.37354,3.2959 l 0,14.8975 z m -9.93165,-3.6035 q 1.77979,0 3.14209,-0.7251 1.38428,-0.7251 2.30713,-1.7359 l 0,-3.5156 q -0.96679,-0.5053 -2.26318,-0.813 -1.29639,-0.3076 -2.65869,-0.3076 -1.05469,0 -1.97754,0.1978 -0.92285,0.1977 -1.62598,0.6372 -0.68115,0.4175 -1.07666,1.0986 -0.39551,0.6592 -0.39551,1.604 0,1.648 1.14258,2.6148 1.16455,0.9448 3.40576,0.9448 z"
         style=""
         id="path4143" />
      <path
         d="m 199.3813,1936.8562 0,-30.2783 4.68018,-2.2193 0,32.4976 -4.68018,0 z"
         style=""
         id="path4145" />
      <path
         d="m 211.24654,1936.8562 0,-30.2783 4.68017,-2.2193 0,32.4976 -4.68017,0 z"
         style=""
         id="path4147" />
      <path
         d="m 240.51411,1936.8562 -4.48242,0 0,-1.9775 q -0.43945,0.4614 -1.05468,0.9228 -0.61524,0.4395 -1.40625,0.813 -0.76905,0.3516 -1.73584,0.5713 -0.9668,0.2197 -2.10938,0.2197 -1.75781,0 -3.25195,-0.4834 -1.49414,-0.4834 -2.59278,-1.4502 -1.09863,-0.9887 -1.73584,-2.417 -0.61523,-1.4502 -0.61523,-3.3618 0,-1.9775 0.74707,-3.4057 0.74707,-1.4502 1.97754,-2.3731 1.23047,-0.9448 2.8125,-1.3843 1.604,-0.4394 3.2959,-0.4394 1.58203,0 3.03222,0.3515 1.47217,0.3296 2.63672,1.0108 l 0,-1.2744 q 0,-1.2964 -0.30761,-2.1973 -0.28565,-0.9009 -0.90088,-1.4502 -0.59327,-0.5713 -1.51612,-0.813 -0.92285,-0.2637 -2.19726,-0.2637 -2.15332,0 -3.73535,0.5713 -1.56006,0.5713 -2.83448,1.5161 l -1.38427,-3.8452 q 0.70312,-0.4834 1.604,-0.9008 0.90088,-0.4395 1.97754,-0.7691 1.07666,-0.3296 2.3291,-0.5054 1.25244,-0.1977 2.68066,-0.1977 0.9668,0 1.99952,0.1098 1.03271,0.1099 1.99951,0.4395 0.98877,0.3076 1.8457,0.9009 0.87891,0.5932 1.51611,1.56 0.65918,0.9449 1.03272,2.3291 0.37353,1.3843 0.37353,3.2959 l 0,14.8975 z m -9.93164,-3.6035 q 1.77979,0 3.14209,-0.7251 1.38428,-0.7251 2.30713,-1.7359 l 0,-3.5156 q -0.96679,-0.5053 -2.26318,-0.813 -1.29639,-0.3076 -2.65869,-0.3076 -1.05469,0 -1.97754,0.1978 -0.92285,0.1977 -1.62598,0.6372 -0.68115,0.4175 -1.07666,1.0986 -0.39551,0.6592 -0.39551,1.604 0,1.648 1.14258,2.6148 1.16455,0.9448 3.40576,0.9448 z"
         style=""
         id="path4149" />
      <path
         d="m 253.98335,1937.4055 q -1.3623,0 -2.65869,-0.2637 -1.29639,-0.2636 -2.43896,-0.747 -1.12061,-0.4834 -2.04346,-1.1646 -0.92285,-0.7031 -1.53809,-1.56 l 3.31787,-2.8345 q 0.35157,0.3296 0.85694,0.7471 0.50537,0.3955 1.16455,0.747 0.65918,0.3516 1.47217,0.5933 0.81299,0.2417 1.77978,0.2417 0.87891,0 1.62598,-0.1318 0.74707,-0.1319 1.27441,-0.4175 0.54932,-0.2857 0.83496,-0.7471 0.30762,-0.4834 0.30762,-1.1865 0,-0.813 -0.57129,-1.3843 -0.54931,-0.5933 -1.45019,-1.0547 -0.90088,-0.4834 -2.04346,-0.9009 -1.14258,-0.4394 -2.30713,-0.9228 -1.07666,-0.4614 -2.10937,-1.0108 -1.03272,-0.5493 -1.84571,-1.3183 -0.79101,-0.7691 -1.29638,-1.8237 -0.4834,-1.0767 -0.4834,-2.5928 0,-1.5381 0.61523,-2.7246 0.63721,-1.1865 1.71387,-1.9776 1.09863,-0.813 2.54883,-1.2304 1.47216,-0.4175 3.14209,-0.4175 1.47216,0 2.70263,0.2856 1.25244,0.2857 2.24121,0.7691 1.01075,0.4834 1.77979,1.1206 0.76904,0.6152 1.34033,1.2964 l -3.38379,2.6806 q -0.30761,-0.3076 -0.74707,-0.6372 -0.41748,-0.3515 -0.98877,-0.6372 -0.57129,-0.2856 -1.29638,-0.4614 -0.7251,-0.1978 -1.64795,-0.1978 -1.49414,0 -2.37305,0.5494 -0.85693,0.5493 -0.85693,1.582 0,0.6592 0.46142,1.1645 0.46143,0.4834 1.25244,0.9009 0.79102,0.4175 1.80176,0.813 1.03272,0.3735 2.15332,0.813 1.18653,0.4614 2.3291,1.0327 1.14258,0.5713 2.02149,1.4063 0.90088,0.8349 1.42822,2.0214 0.54932,1.1866 0.54932,2.8565 0,1.6479 -0.61524,2.9223 -0.61523,1.2525 -1.75781,2.1094 -1.12061,0.835 -2.72461,1.2525 -1.58203,0.4394 -3.5376,0.4394 z"
         style=""
         id="path4151" />
      <path
         d="m 264.17867,1942.7009 17.68798,-37.8808 4.72412,0 -17.68798,37.8808 -4.72412,0 z"
         style=""
         id="path4153" />
      <path
         d="m 291.13911,1936.8562 0,-31.5088 19.5337,0 0,4.4165 -14.85352,0 0,8.6353 9.60205,0 0,4.4165 -9.60205,0 0,14.0405 -4.68018,0 z"
         style=""
         id="path4155" />
      <path
         d="m 321.37349,1937.4055 q -2.41699,0 -4.37256,-0.813 -1.93359,-0.813 -3.2959,-2.351 -1.3623,-1.5601 -2.10937,-3.7793 -0.7251,-2.2413 -0.7251,-5.0757 0,-2.8345 0.7251,-5.0757 0.74707,-2.2412 2.10937,-3.7793 1.36231,-1.5601 3.2959,-2.3731 1.95557,-0.8349 4.37256,-0.8349 2.39502,0 4.35059,0.8349 1.95556,0.813 3.31787,2.3731 1.3623,1.5381 2.10937,3.7793 0.74707,2.2412 0.74707,5.0757 0,2.8344 -0.74707,5.0757 -0.74707,2.2192 -2.10937,3.7793 -1.36231,1.538 -3.31787,2.351 -1.95557,0.813 -4.35059,0.813 z m 0,-4.4165 q 1.34033,0 2.41699,-0.5273 1.09863,-0.5274 1.8457,-1.4942 0.76905,-0.9887 1.16456,-2.395 0.41748,-1.4062 0.41748,-3.186 0,-1.7798 -0.41748,-3.1861 -0.39551,-1.4282 -1.16456,-2.417 -0.74707,-0.9887 -1.8457,-1.5161 -1.07666,-0.5273 -2.41699,-0.5273 -1.34033,0 -2.41699,0.5273 -1.07666,0.5274 -1.84571,1.5161 -0.74707,0.9888 -1.16455,2.417 -0.3955,1.4063 -0.3955,3.1861 0,1.7798 0.3955,3.186 0.41748,1.4063 1.16455,2.395 0.76905,0.9668 1.84571,1.4942 1.07666,0.5273 2.41699,0.5273 z"
         style=""
         id="path4157" />
      <path
         d="m 337.50142,1936.8562 0,-23.0054 4.68017,0 0,2.7906 q 0.81299,-1.7579 2.10938,-2.5269 1.29639,-0.791 3.01025,-0.791 2.28516,0 3.86719,1.3843 l -0.68115,4.3286 q -0.63721,-0.4395 -1.51611,-0.7691 -0.85694,-0.3515 -2.10938,-0.3515 -0.79101,0 -1.62598,0.2856 -0.81298,0.2637 -1.49414,0.9668 -0.68115,0.6812 -1.1206,1.8457 -0.43946,1.1426 -0.43946,2.9224 l 0,12.9199 -4.68017,0 z"
         style=""
         id="path4159" />
      <path
         d="m 362.35249,1937.4055 q -1.3623,0 -2.35107,-0.4175 -0.9668,-0.3955 -1.604,-1.1425 -0.61524,-0.7471 -0.90088,-1.8018 -0.28565,-1.0767 -0.28565,-2.373 l 0,-13.7549 -3.55957,0 0,-4.065 3.55957,0 0,-7.229 4.68018,-2.2632 0,9.4922 5.44922,0 0,4.065 -5.44922,0 0,12.5464 q 0,0.5712 0.0879,1.0546 0.10986,0.4834 0.35156,0.835 0.26367,0.3516 0.70313,0.5493 0.43945,0.1758 1.1206,0.1758 1.66992,0 3.40576,-1.0767 l -0.57129,4.3506 q -0.96679,0.4834 -2.10937,0.7691 -1.14258,0.2856 -2.52686,0.2856 z"
         style=""
         id="path4161" />
      <path
         d="m 416.05367,1905.3474 -6.81153,31.5088 -4.21875,0 -5.44922,-20.4346 q -0.32959,-1.2524 -0.52734,-2.0215 -0.17578,-0.791 -0.2417,-1.3842 -0.0659,0.5932 -0.2417,1.3842 -0.17578,0.7691 -0.50537,2.0215 l -5.31738,20.4346 -4.24073,0 -6.7456,-31.5088 4.81201,0 3.91113,19.4019 q 0.28565,1.3623 0.43946,2.1972 0.17578,0.835 0.2417,1.4502 0.0659,-0.6152 0.26367,-1.4282 0.21972,-0.835 0.54931,-2.2192 l 4.94385,-19.4019 3.93311,0 5.07568,19.3579 q 0.37354,1.3623 0.54932,2.1753 0.19775,0.813 0.26367,1.4282 0.0659,-0.6152 0.19775,-1.4502 0.15381,-0.8349 0.41748,-2.1533 l 3.97705,-19.3579 4.72413,0 z"
         style=""
         id="path4163" />
      <path
         d="m 430.79732,1937.4055 q -2.41699,0 -4.37256,-0.813 -1.93359,-0.813 -3.2959,-2.351 -1.3623,-1.5601 -2.10937,-3.7793 -0.7251,-2.2413 -0.7251,-5.0757 0,-2.8345 0.7251,-5.0757 0.74707,-2.2412 2.10937,-3.7793 1.36231,-1.5601 3.2959,-2.3731 1.95557,-0.8349 4.37256,-0.8349 2.39502,0 4.35058,0.8349 1.95557,0.813 3.31787,2.3731 1.36231,1.5381 2.10938,3.7793 0.74707,2.2412 0.74707,5.0757 0,2.8344 -0.74707,5.0757 -0.74707,2.2192 -2.10938,3.7793 -1.3623,1.538 -3.31787,2.351 -1.95556,0.813 -4.35058,0.813 z m 0,-4.4165 q 1.34033,0 2.41699,-0.5273 1.09863,-0.5274 1.8457,-1.4942 0.76905,-0.9887 1.16455,-2.395 0.41748,-1.4062 0.41748,-3.186 0,-1.7798 -0.41748,-3.1861 -0.3955,-1.4282 -1.16455,-2.417 -0.74707,-0.9887 -1.8457,-1.5161 -1.07666,-0.5273 -2.41699,-0.5273 -1.34033,0 -2.41699,0.5273 -1.07666,0.5274 -1.84571,1.5161 -0.74707,0.9888 -1.16455,2.417 -0.39551,1.4063 -0.39551,3.1861 0,1.7798 0.39551,3.186 0.41748,1.4063 1.16455,2.395 0.76905,0.9668 1.84571,1.4942 1.07666,0.5273 2.41699,0.5273 z"
         style=""
         id="path4165" />
      <path
         d="m 446.92525,1936.8562 0,-23.0054 4.68017,0 0,2.7906 q 0.81299,-1.7579 2.10938,-2.5269 1.29638,-0.791 3.01025,-0.791 2.28516,0 3.86719,1.3843 l -0.68115,4.3286 q -0.63721,-0.4395 -1.51612,-0.7691 -0.85693,-0.3515 -2.10937,-0.3515 -0.79102,0 -1.62598,0.2856 -0.81299,0.2637 -1.49414,0.9668 -0.68115,0.6812 -1.1206,1.8457 -0.43946,1.1426 -0.43946,2.9224 l 0,12.9199 -4.68017,0 z"
         style=""
         id="path4167" />
      <path
         d="m 471.77632,1937.4055 q -1.3623,0 -2.35107,-0.4175 -0.9668,-0.3955 -1.60401,-1.1425 -0.61523,-0.7471 -0.90088,-1.8018 -0.28564,-1.0767 -0.28564,-2.373 l 0,-13.7549 -3.55957,0 0,-4.065 3.55957,0 0,-7.229 4.68018,-2.2632 0,9.4922 5.44921,0 0,4.065 -5.44921,0 0,12.5464 q 0,0.5712 0.0879,1.0546 0.10986,0.4834 0.35156,0.835 0.26367,0.3516 0.70312,0.5493 0.43946,0.1758 1.12061,0.1758 1.66992,0 3.40576,-1.0767 l -0.57129,4.3506 q -0.96679,0.4834 -2.10937,0.7691 -1.14258,0.2856 -2.52686,0.2856 z"
         style=""
         id="path4169" />
      <path
         d="m 496.3857,1936.8562 0,-13.7329 q 0,-1.4502 -0.35157,-2.4609 -0.35156,-1.0328 -0.96679,-1.67 -0.61524,-0.6591 -1.4502,-0.9448 -0.83496,-0.3076 -1.82373,-0.3076 -1.05469,0 -1.95557,0.2856 -0.90087,0.2637 -1.56005,0.8789 -0.65918,0.6153 -1.05469,1.648 -0.37354,1.0107 -0.37354,2.4829 l 0,13.8208 -4.68017,0 0,-30.3223 4.68017,-2.1753 0,11.7115 q 1.12061,-1.4283 2.5708,-2.0874 1.4502,-0.6592 3.36182,-0.6592 1.80176,0 3.31787,0.5273 1.51612,0.5054 2.61475,1.67 1.1206,1.1645 1.73584,3.0322 0.61523,1.8677 0.61523,4.5703 l 0,13.7329 -4.68017,0 z"
         style=""
         id="path4171" />
    </g>
    <g
       style="font-style:normal;font-variant:normal;font-weight:bold;font-stretch:normal;font-size:125px;line-height:125%;font-family:Overpass;-inkscape-font-specification:'Overpass, Bold';text-align:start;letter-spacing:0px;word-spacing:0px;writing-mode:lr-tb;text-anchor:start;fill:#dddddd;fill-opacity:1;stroke:#222222;stroke-width:0.25;stroke-linecap:butt;stroke-linejoin:miter;stroke-opacity:1;stroke-miterlimit:4;stroke-dasharray:none"
       id="text3342">
      <path
         d="m 194.17622,1801.8342 29.54102,0 q 7.62939,0 13.73291,1.77 6.10352,1.709 10.80322,4.7608 4.76074,3.0517 8.11768,7.2632 3.35693,4.1504 5.49316,9.0332 2.19727,4.8218 3.17383,10.1928 1.0376,5.3711 1.0376,10.7422 0,5.0049 -0.97656,10.2539 -0.91553,5.188 -2.99073,10.0708 -2.07519,4.8218 -5.43213,9.0943 -3.29589,4.2724 -8.11767,7.5073 -4.76074,3.1738 -11.04737,5.0049 -6.28662,1.831 -14.34326,1.831 l -28.9917,0 0,-87.5244 z m 31.00586,71.5332 q 6.53076,0 10.98633,-2.5024 4.45557,-2.5635 7.20215,-6.5308 2.74658,-4.0283 3.96728,-8.9721 1.22071,-4.9439 1.22071,-9.7657 0,-5.1269 -1.28174,-10.0708 -1.28174,-5.0048 -3.96729,-8.9111 -2.62451,-3.9062 -6.83593,-6.2866 -4.15039,-2.4414 -9.8877,-2.4414 l -15.50293,0 0,55.4809 14.09912,0 z"
         style="stroke:#222222;stroke-opacity:1;stroke-width:0.25;stroke-miterlimit:4;stroke-dasharray:none"
         id="path4174" />
      <path
         d="m 285.48482,1889.3586 0,-87.5244 58.65478,0 0,16.0523 -41.74804,0 0,18.3716 26.48925,0 0,15.9912 -26.48925,0 0,37.1093 -16.90674,0 z"
         style="stroke:#222222;stroke-opacity:1;stroke-width:0.25;stroke-miterlimit:4;stroke-dasharray:none"
         id="path4176" />
      <path
         d="m 451.86665,1801.8342 -18.92089,87.5244 -15.74708,0 -13.24462,-51.5136 q -0.54932,-2.0752 -0.79346,-3.6621 -0.24414,-1.648 -0.42725,-2.9297 -0.1831,1.2817 -0.48828,2.9297 -0.30517,1.5869 -0.79346,3.54 l -12.87841,51.6357 -15.74707,0 -18.7378,-87.5244 17.39502,0 9.76563,49.2554 q 0.48828,2.2583 0.67138,3.7231 0.24415,1.4649 0.42725,2.8077 0.18311,-1.3428 0.42725,-2.8077 0.24414,-1.5258 0.79345,-3.8452 l 12.02393,-49.1333 14.64844,0 12.20703,49.1333 q 0.61035,2.3194 0.85449,3.8452 0.24414,1.4649 0.42725,2.8077 0.1831,-1.3428 0.36621,-2.8077 0.24414,-1.4648 0.73242,-3.7231 l 9.76562,-49.2554 17.27295,0 z"
         style="stroke:#222222;stroke-opacity:1;stroke-width:0.25;stroke-miterlimit:4;stroke-dasharray:none"
         id="path4178" />
    </g>
  </g>
</svg>
