<?xml version="1.0" encoding="UTF-8" standalone="no"?>
<!-- Created with Inkscape (http://www.inkscape.org/) -->

<svg
   xmlns:dc="http://purl.org/dc/elements/1.1/"
   xmlns:cc="http://creativecommons.org/ns#"
   xmlns:rdf="http://www.w3.org/1999/02/22-rdf-syntax-ns#"
   xmlns:svg="http://www.w3.org/2000/svg"
   xmlns="http://www.w3.org/2000/svg"
   xmlns:sodipodi="http://sodipodi.sourceforge.net/DTD/sodipodi-0.dtd"
   xmlns:inkscape="http://www.inkscape.org/namespaces/inkscape"
   width="541.06122"
   height="362.43585"
   viewBox="0 0 541.06122 362.43585"
   id="svg2"
   version="1.1"
   inkscape:version="0.91 r13725"
   sodipodi:docname="DSM.svg"
   inkscape:export-filename="C:\Users\paulb\Dropbox\Projects\Terminal Silhouettes\Silhouettes\png\DSM.png"
   inkscape:export-xdpi="89.996498"
   inkscape:export-ydpi="89.996498">
  <defs
     id="defs4" />
  <sodipodi:namedview
     id="base"
     pagecolor="#ffffff"
     bordercolor="#666666"
     borderopacity="1.0"
     inkscape:pageopacity="1"
     inkscape:pageshadow="2"
     inkscape:zoom="1"
     inkscape:cx="83.584097"
     inkscape:cy="112.757"
     inkscape:document-units="px"
     inkscape:current-layer="layer3"
     showgrid="false"
     units="px"
     fit-margin-top="25"
     fit-margin-left="25"
     fit-margin-right="25"
     fit-margin-bottom="25"
     showguides="true"
     inkscape:guide-bbox="true"
     inkscape:window-width="1920"
     inkscape:window-height="1137"
     inkscape:window-x="1912"
     inkscape:window-y="-8"
     inkscape:window-maximized="1" />
  <metadata
     id="metadata7">
    <rdf:RDF>
      <cc:Work
         rdf:about="">
        <dc:format>image/svg+xml</dc:format>
        <dc:type
           rdf:resource="http://purl.org/dc/dcmitype/StillImage" />
        <dc:title></dc:title>
        <dc:description>Terminal silhouette of DSM (Des Moines)</dc:description>
      </cc:Work>
    </rdf:RDF>
  </metadata>
  <g
     inkscape:groupmode="layer"
     id="layer2"
     inkscape:label="Terminal"
     transform="translate(-585.064,-353.31689)">
    <path
       style="fill:#dddddd;fill-opacity:1;fill-rule:evenodd;stroke:#222222;stroke-width:1.5;stroke-linecap:butt;stroke-linejoin:miter;stroke-miterlimit:4;stroke-dasharray:none;stroke-opacity:1"
       d="m 642.39664,587.94454 -9.11778,35.3218 5.79778,1.66561 -4.39921,17.45493 -5.93309,-1.554 -8.35336,32.36047 12.33003,3.50694 0.74873,-2.90132 5.69887,1.52981 6.26955,-24.22327 -5.69946,-1.59875 6.00425,-23.26647 5.74931,1.47437 9.21946,-35.62062 -5.77577,-1.47662 5.82371,-22.56688 5.74738,1.6525 1.61264,-6.23068 46.87881,12.50064 -1.84483,6.81168 17.59684,5.0378 1.06432,-0.99337 21.21555,6.315 2.80574,-0.0709 0.0633,24.19549 1.95595,8e-5 0,3.19297 -3.61871,0.071 -2.41247,4.39921 0.78051,65.06573 41.63651,-0.28294 -0.2849,-72.87133 2.00189,-2.8e-4 -0.14191,-9.22415 0.6386,-2.8382 -2.59426,-12.41614 -0.35562,-90.96491 -3.22321,-5.7e-4 0,-3.19297 -15.18437,0.071 0.071,-1.20623 -12.06235,0.14191 0,2.34151 -7.51399,0.14245 0.19533,74.7151 -13.82593,-3.47669 -3.61871,-9.15319 -12.48808,-3.19298 0.28382,-1.06432 -52.78371,-14.27856 -0.2027,0.78313 -3.06804,0.93639 -0.56764,-1.56101 1.56101,-0.49668 -4.75398,-17.10016 -0.78051,0.14191 -5.60544,-20.6479 -6.10213,1.77387 -8.59665,-32.04965 6.26305,-1.77881 -7.22311,-26.66373 -6.27729,1.46059 -7.70026,-28.70778 6.14111,-1.68066 -10.41067,-38.43044 -6.07613,1.54078 3.05855,11.40272 -12.03369,3.36027 8.09882,30.26713 5.59152,-1.57601 6.9937,25.79751 -5.67271,1.61212 7.17727,26.82309 5.75123,-1.67093 8.53895,31.49742 -5.88666,1.57934 5.49836,20.54864 -4.1138,1.21348 3.56227,12.24216 -2.00692,7.02418 -3.36157,-0.90311 -6.27159,23.53103 2.85984,0.90311 -3.16088,11.28887 z"
       id="path4150"
       inkscape:connector-curvature="0"
       sodipodi:nodetypes="ccccccccccccccccccccccccccccccccccccccccccccccccccccccccc" />
  </g>
  <g
     inkscape:groupmode="layer"
     id="layer3"
     inkscape:label="Label"
     transform="translate(-585.064,-353.31689)">
    <g
       id="g4177"
       transform="translate(-47,63)">
      <g
         style="font-style:normal;font-variant:normal;font-weight:bold;font-stretch:normal;font-size:125px;line-height:125%;font-family:Overpass;-inkscape-font-specification:'Overpass, Bold';text-align:start;letter-spacing:0px;word-spacing:0px;writing-mode:lr-tb;text-anchor:start;fill:#dddddd;fill-opacity:1;stroke:#222222;stroke-width:0.25;stroke-linecap:butt;stroke-linejoin:miter;stroke-miterlimit:4;stroke-dasharray:none;stroke-opacity:1"
         id="text4169">
        <path
           d="m 896.23053,490.77216 29.54102,0 q 7.62939,0 13.73291,1.77002 6.10351,1.70898 10.80322,4.76074 4.76074,3.05176 8.11767,7.26318 3.35694,4.15039 5.49317,9.0332 2.19726,4.82178 3.17383,10.19288 1.03759,5.37109 1.03759,10.74218 0,5.00489 -0.97656,10.25391 -0.91553,5.18799 -2.99072,10.0708 -2.0752,4.82178 -5.43213,9.09424 -3.2959,4.27246 -8.11768,7.50732 -4.76074,3.17383 -11.04736,5.00489 -6.28662,1.83105 -14.34326,1.83105 l -28.9917,0 0,-87.52441 z m 31.00586,71.5332 q 6.53076,0 10.98633,-2.50244 4.45556,-2.56348 7.20215,-6.53076 2.74658,-4.02832 3.96728,-8.97217 1.2207,-4.94385 1.2207,-9.76563 0,-5.12695 -1.28173,-10.0708 -1.28174,-5.00488 -3.96729,-8.91113 -2.62451,-3.90625 -6.83594,-6.28662 -4.15039,-2.44141 -9.88769,-2.44141 l -15.50293,0 0,55.48096 14.09912,0 z"
           id="path4184"
           inkscape:connector-curvature="0" />
        <path
           d="m 1029.5313,514.57587 q -0.7934,-1.95313 -2.1362,-3.66211 -1.3428,-1.70899 -3.2349,-2.92969 -1.831,-1.28174 -4.2724,-1.95313 -2.3804,-0.73242 -5.3101,-0.73242 -5.4932,0 -8.606,2.19727 -3.0517,2.19726 -3.0517,6.16455 0,2.62451 1.9531,4.39453 1.9531,1.77002 5.127,3.23486 3.1738,1.40381 7.2021,2.68555 4.0894,1.28174 8.3618,2.86865 4.2725,1.52588 8.3008,3.66211 4.0894,2.0752 7.2632,5.18799 3.1738,3.05176 5.1269,7.32422 1.9532,4.21143 1.9532,10.13184 0,6.40869 -2.4414,11.35253 -2.4414,4.94385 -6.7139,8.36182 -4.2114,3.41797 -10.0098,5.18799 -5.7983,1.77002 -12.5122,1.77002 -6.1645,0 -11.5356,-1.64795 -5.37112,-1.70898 -9.76565,-4.82178 -4.33349,-3.11279 -7.56836,-7.56836 -3.23486,-4.45556 -5.12695,-10.00976 l 15.38086,-5.73731 q 1.40381,3.05176 3.3569,5.61524 2.0142,2.50244 4.4556,4.33349 2.4414,1.77002 5.249,2.80762 2.8687,0.97656 6.1035,0.97656 3.1739,0 5.7373,-0.67138 2.6246,-0.67139 4.4556,-2.01416 1.8921,-1.34278 2.8687,-3.2959 1.0376,-2.01416 1.0376,-4.63867 0,-3.17383 -1.9532,-5.31006 -1.9531,-2.19727 -5.1269,-3.78418 -3.1738,-1.64795 -7.2632,-2.92969 -4.0283,-1.34277 -8.3008,-2.80762 -4.2114,-1.46484 -8.3008,-3.41797 -4.02828,-1.95312 -7.20211,-4.82177 -3.17383,-2.86866 -5.12696,-6.89698 -1.95312,-4.02832 -1.95312,-9.76562 0,-4.94385 1.95312,-9.27735 2.01416,-4.39453 5.79834,-7.69042 3.78418,-3.2959 9.27733,-5.18799 5.4932,-1.95313 12.5733,-1.95313 5.9204,0 10.6811,1.52588 4.8218,1.52588 8.4839,4.27246 3.6621,2.68555 6.1646,6.40869 2.5024,3.66211 3.7841,8.05664 l -15.1367,5.00489 z"
           id="path4186"
           inkscape:connector-curvature="0" />
        <path
           d="m 1131.1548,578.29657 0,-44.98291 q 0,-0.73242 0,-1.70898 0.061,-0.97657 0.061,-1.95313 0.061,-1.0376 0.061,-1.89209 0.061,-0.85449 0.1221,-1.34277 -0.6714,2.07519 -1.3428,3.72314 -0.6103,1.64795 -1.2817,3.17383 l -21.2403,46.50879 -21.3623,-46.50879 q -0.6714,-1.52588 -1.3427,-3.17383 -0.6104,-1.64795 -1.2818,-3.72314 0.061,0.48828 0.061,1.34277 0.061,0.85449 0.061,1.89209 0.061,0.97656 0.061,1.95313 0.061,0.97656 0.061,1.70898 l 0,44.98291 -16.9068,0 0,-87.52441 17.1509,0 21.4844,48.2788 q 0.6714,1.58692 1.2207,3.05176 0.5493,1.40381 1.0376,2.92969 0.4883,-1.52588 1.0376,-2.92969 0.5493,-1.46484 1.2207,-3.05176 l 21.8506,-48.2788 16.1132,0 0,87.52441 -16.8457,0 z"
           id="path4188"
           inkscape:connector-curvature="0" />
      </g>
      <g
         style="font-style:normal;font-variant:normal;font-weight:normal;font-stretch:normal;font-size:45px;line-height:125%;font-family:Overpass;-inkscape-font-specification:'Overpass, Normal';text-align:start;letter-spacing:0px;word-spacing:0px;writing-mode:lr-tb;text-anchor:start;fill:#222222;fill-opacity:1;stroke:none;stroke-width:1px;stroke-linecap:butt;stroke-linejoin:miter;stroke-opacity:1"
         id="text4173">
        <path
           d="m 909.37384,595.69464 8.83301,0 q 2.74658,0 4.92187,0.63721 2.1753,0.61523 3.84522,1.71387 1.66992,1.09863 2.85644,2.61474 1.18653,1.49414 1.9336,3.25195 0.76904,1.73584 1.1206,3.66944 0.35157,1.93359 0.35157,3.86719 0,1.80175 -0.32959,3.6914 -0.30762,1.86768 -1.05469,3.62549 -0.7251,1.73584 -1.88965,3.27393 -1.16455,1.53808 -2.85645,2.70263 -1.69189,1.14258 -3.95507,1.80176 -2.24122,0.65918 -5.11963,0.65918 l -8.65723,0 0,-31.50879 z m 9.4043,27.09229 q 1.80176,0 3.20801,-0.46143 1.42822,-0.4834 2.48291,-1.29639 1.07666,-0.81298 1.80175,-1.91162 0.74707,-1.09863 1.2085,-2.35107 0.4834,-1.27442 0.68115,-2.61475 0.21973,-1.3623 0.21973,-2.70263 0,-2.13135 -0.52735,-4.15284 -0.50537,-2.04345 -1.604,-3.62548 -1.09863,-1.60401 -2.83447,-2.57081 -1.71387,-0.98876 -4.13086,-0.98876 l -5.22949,0 0,22.67578 4.72412,0 z"
           id="path4191"
           inkscape:connector-curvature="0" />
        <path
           d="m 948.88068,627.75275 q -2.39502,0 -4.32862,-0.81299 -1.93359,-0.83496 -3.2959,-2.37305 -1.3623,-1.56006 -2.10937,-3.80127 -0.7251,-2.24121 -0.7251,-5.07568 0,-2.83447 0.74707,-5.05371 0.74707,-2.24121 2.10938,-3.7793 1.38427,-1.56006 3.2959,-2.37305 1.93359,-0.81298 4.30664,-0.81298 2.04345,0 3.82324,0.65918 1.80176,0.6372 3.14209,1.97753 1.3623,1.31836 2.13135,3.33985 0.79101,2.02148 0.79101,4.76806 0,0.74707 -0.0439,1.58204 -0.022,0.83496 -0.13184,1.45019 l -15.49072,0 q 0.022,1.42822 0.50537,2.5708 0.50537,1.12061 1.31836,1.9336 0.81299,0.79101 1.8457,1.23046 1.03272,0.41748 2.15332,0.41748 1.42822,0 2.63672,-0.59326 1.23047,-0.59326 2.13135,-1.73584 l 3.0542,3.14209 q -1.25244,1.49414 -3.20801,2.417 -1.95557,0.92285 -4.6582,0.92285 z m 0,-19.95118 q -1.09864,0 -2.10938,0.32959 -1.01074,0.30762 -1.80176,1.01075 -0.76904,0.68115 -1.27441,1.80175 -0.50537,1.12061 -0.59326,2.72461 l 10.98633,0 q -0.0439,-1.604 -0.50538,-2.72461 -0.46142,-1.1206 -1.20849,-1.80175 -0.74707,-0.70313 -1.66992,-1.01075 -0.90088,-0.32959 -1.82373,-0.32959 z"
           id="path4193"
           inkscape:connector-curvature="0" />
        <path
           d="m 971.27081,627.75275 q -1.3623,0 -2.65869,-0.26368 -1.29639,-0.26367 -2.43896,-0.74707 -1.12061,-0.48339 -2.04346,-1.16455 -0.92285,-0.70312 -1.53809,-1.56005 l 3.31787,-2.83448 q 0.35157,0.32959 0.85694,0.74707 0.50537,0.39551 1.16455,0.74707 0.65918,0.35157 1.47217,0.59326 0.81299,0.2417 1.77978,0.2417 0.87891,0 1.62598,-0.13183 0.74707,-0.13184 1.27441,-0.41748 0.54932,-0.28565 0.83496,-0.74707 0.30762,-0.4834 0.30762,-1.18653 0,-0.81298 -0.57129,-1.38427 -0.54931,-0.59327 -1.45019,-1.05469 -0.90088,-0.4834 -2.04346,-0.90088 -1.14258,-0.43945 -2.30713,-0.92285 -1.07666,-0.46143 -2.10937,-1.01074 -1.03272,-0.54932 -1.84571,-1.31836 -0.79101,-0.76905 -1.29638,-1.82373 -0.4834,-1.07666 -0.4834,-2.59278 0,-1.53808 0.61523,-2.72461 0.63721,-1.18652 1.71387,-1.97754 1.09863,-0.81298 2.54883,-1.23046 1.47217,-0.41748 3.14209,-0.41748 1.47217,0 2.70263,0.28564 1.25245,0.28564 2.24121,0.76904 1.01075,0.4834 1.77979,1.12061 0.76904,0.61523 1.34033,1.29639 l -3.38379,2.68066 q -0.30761,-0.30762 -0.74707,-0.63721 -0.41748,-0.35156 -0.98877,-0.6372 -0.57129,-0.28565 -1.29638,-0.46143 -0.7251,-0.19775 -1.64795,-0.19775 -1.49414,0 -2.37305,0.54931 -0.85693,0.54932 -0.85693,1.58203 0,0.65918 0.46142,1.16455 0.46143,0.4834 1.25244,0.90088 0.79102,0.41748 1.80176,0.81299 1.03272,0.37354 2.15332,0.81299 1.18653,0.46143 2.3291,1.03271 1.14258,0.57129 2.02149,1.40625 0.90088,0.83497 1.42822,2.02149 0.54932,1.18652 0.54932,2.85644 0,1.64795 -0.61524,2.92237 -0.61523,1.25244 -1.75781,2.10937 -1.12061,0.83496 -2.72461,1.25244 -1.58203,0.43946 -3.5376,0.43946 z"
           id="path4195"
           inkscape:connector-curvature="0" />
        <path
           d="m 1019.9622,627.20343 0,-17.22656 0.1319,-4.72412 -1.8457,4.85595 -7.6026,17.64405 -7.6465,-17.77588 -1.8896,-4.72412 0.1318,4.72412 0,17.22656 -4.68016,0 0,-31.50879 4.72416,0 8.4594,19.66553 0.857,2.30713 0.9008,-2.30713 8.4156,-19.66553 4.7241,0 0,31.50879 -4.6802,0 z"
           id="path4197"
           inkscape:connector-curvature="0" />
        <path
           d="m 1041.4734,627.75275 q -2.4169,0 -4.3725,-0.81299 -1.9336,-0.81299 -3.2959,-2.35108 -1.3623,-1.56005 -2.1094,-3.77929 -0.7251,-2.24121 -0.7251,-5.07569 0,-2.83447 0.7251,-5.07568 0.7471,-2.24121 2.1094,-3.7793 1.3623,-1.56006 3.2959,-2.37304 1.9556,-0.83496 4.3725,-0.83496 2.3951,0 4.3506,0.83496 1.9556,0.81298 3.3179,2.37304 1.3623,1.53809 2.1094,3.7793 0.7471,2.24121 0.7471,5.07568 0,2.83448 -0.7471,5.07569 -0.7471,2.21924 -2.1094,3.77929 -1.3623,1.53809 -3.3179,2.35108 -1.9555,0.81299 -4.3506,0.81299 z m 0,-4.41651 q 1.3404,0 2.417,-0.52734 1.0987,-0.52734 1.8457,-1.49414 0.7691,-0.98877 1.1646,-2.39502 0.4175,-1.40625 0.4175,-3.18604 0,-1.77978 -0.4175,-3.18603 -0.3955,-1.42822 -1.1646,-2.41699 -0.747,-0.98877 -1.8457,-1.51612 -1.0766,-0.52734 -2.417,-0.52734 -1.3403,0 -2.4169,0.52734 -1.0767,0.52735 -1.8457,1.51612 -0.7471,0.98877 -1.1646,2.41699 -0.3955,1.40625 -0.3955,3.18603 0,1.77979 0.3955,3.18604 0.4175,1.40625 1.1646,2.39502 0.769,0.9668 1.8457,1.49414 1.0766,0.52734 2.4169,0.52734 z"
           id="path4199"
           inkscape:connector-curvature="0" />
        <path
           d="m 1057.6453,627.20343 0,-23.00537 4.6802,0 0,23.00537 -4.6802,0 z m 2.3291,-26.58691 q -0.5932,0 -1.1206,-0.21973 -0.5054,-0.21973 -0.9009,-0.59326 -0.3735,-0.39551 -0.5932,-0.90088 -0.2197,-0.52734 -0.2197,-1.12061 0,-0.59326 0.2197,-1.09863 0.2197,-0.52734 0.5932,-0.90088 0.3955,-0.39551 0.9009,-0.61523 0.5274,-0.21973 1.1206,-0.21973 0.5933,0 1.0987,0.21973 0.5273,0.21972 0.9008,0.61523 0.3955,0.37354 0.6153,0.90088 0.2197,0.50537 0.2197,1.09863 0,0.59327 -0.2197,1.12061 -0.2198,0.50537 -0.6153,0.90088 -0.3735,0.37353 -0.9008,0.59326 -0.5054,0.21973 -1.0987,0.21973 z"
           id="path4201"
           inkscape:connector-curvature="0" />
        <path
           d="m 1083.3314,627.20343 0,-13.73291 q 0,-1.4502 -0.3516,-2.46094 -0.3516,-1.03271 -0.9668,-1.66992 -0.6152,-0.65918 -1.4502,-0.94482 -0.835,-0.30762 -1.8237,-0.30762 -1.0547,0 -1.9556,0.28564 -0.9009,0.26368 -1.5601,0.87891 -0.6591,0.61523 -1.0546,1.64795 -0.3736,1.01074 -0.3736,2.48291 l 0,13.8208 -4.6801,0 0,-23.00537 4.6801,0 0,2.21924 q 1.1206,-1.42823 2.5708,-2.0874 1.4502,-0.65918 3.3618,-0.65918 1.8018,0 3.3179,0.52734 1.5161,0.50537 2.6148,1.66992 1.1206,1.16455 1.7358,3.03223 0.6152,1.86767 0.6152,4.57031 l 0,13.73291 -4.6801,0 z"
           id="path4203"
           inkscape:connector-curvature="0" />
        <path
           d="m 1103.8318,627.75275 q -2.395,0 -4.3286,-0.81299 -1.9336,-0.83496 -3.2959,-2.37305 -1.3623,-1.56006 -2.1093,-3.80127 -0.7251,-2.24121 -0.7251,-5.07568 0,-2.83447 0.747,-5.05371 0.7471,-2.24121 2.1094,-3.7793 1.3843,-1.56006 3.2959,-2.37305 1.9336,-0.81298 4.3066,-0.81298 2.0435,0 3.8233,0.65918 1.8017,0.6372 3.1421,1.97753 1.3623,1.31836 2.1313,3.33985 0.791,2.02148 0.791,4.76806 0,0.74707 -0.044,1.58204 -0.022,0.83496 -0.1318,1.45019 l -15.4908,0 q 0.022,1.42822 0.5054,2.5708 0.5054,1.12061 1.3184,1.9336 0.813,0.79101 1.8457,1.23046 1.0327,0.41748 2.1533,0.41748 1.4282,0 2.6367,-0.59326 1.2305,-0.59326 2.1314,-1.73584 l 3.0542,3.14209 q -1.2525,1.49414 -3.208,2.417 -1.9556,0.92285 -4.6583,0.92285 z m 0,-19.95118 q -1.0986,0 -2.1093,0.32959 -1.0108,0.30762 -1.8018,1.01075 -0.769,0.68115 -1.2744,1.80175 -0.5054,1.12061 -0.5933,2.72461 l 10.9864,0 q -0.044,-1.604 -0.5054,-2.72461 -0.4614,-1.1206 -1.2085,-1.80175 -0.7471,-0.70313 -1.6699,-1.01075 -0.9009,-0.32959 -1.8238,-0.32959 z"
           id="path4205"
           inkscape:connector-curvature="0" />
        <path
           d="m 1126.222,627.75275 q -1.3623,0 -2.6587,-0.26368 -1.2964,-0.26367 -2.439,-0.74707 -1.1206,-0.48339 -2.0434,-1.16455 -0.9229,-0.70312 -1.5381,-1.56005 l 3.3179,-2.83448 q 0.3515,0.32959 0.8569,0.74707 0.5054,0.39551 1.1645,0.74707 0.6592,0.35157 1.4722,0.59326 0.813,0.2417 1.7798,0.2417 0.8789,0 1.626,-0.13183 0.747,-0.13184 1.2744,-0.41748 0.5493,-0.28565 0.8349,-0.74707 0.3077,-0.4834 0.3077,-1.18653 0,-0.81298 -0.5713,-1.38427 -0.5493,-0.59327 -1.4502,-1.05469 -0.9009,-0.4834 -2.0435,-0.90088 -1.1426,-0.43945 -2.3071,-0.92285 -1.0767,-0.46143 -2.1094,-1.01074 -1.0327,-0.54932 -1.8457,-1.31836 -0.791,-0.76905 -1.2964,-1.82373 -0.4834,-1.07666 -0.4834,-2.59278 0,-1.53808 0.6153,-2.72461 0.6372,-1.18652 1.7138,-1.97754 1.0987,-0.81298 2.5489,-1.23046 1.4721,-0.41748 3.142,-0.41748 1.4722,0 2.7027,0.28564 1.2524,0.28564 2.2412,0.76904 1.0107,0.4834 1.7798,1.12061 0.769,0.61523 1.3403,1.29639 l -3.3838,2.68066 q -0.3076,-0.30762 -0.747,-0.63721 -0.4175,-0.35156 -0.9888,-0.6372 -0.5713,-0.28565 -1.2964,-0.46143 -0.7251,-0.19775 -1.648,-0.19775 -1.4941,0 -2.373,0.54931 -0.8569,0.54932 -0.8569,1.58203 0,0.65918 0.4614,1.16455 0.4614,0.4834 1.2524,0.90088 0.7911,0.41748 1.8018,0.81299 1.0327,0.37354 2.1533,0.81299 1.1865,0.46143 2.3291,1.03271 1.1426,0.57129 2.0215,1.40625 0.9009,0.83497 1.4282,2.02149 0.5493,1.18652 0.5493,2.85644 0,1.64795 -0.6152,2.92237 -0.6152,1.25244 -1.7578,2.10937 -1.1206,0.83496 -2.7246,1.25244 -1.582,0.43946 -3.5376,0.43946 z"
           id="path4207"
           inkscape:connector-curvature="0" />
      </g>
    </g>
  </g>
</svg>
