<?xml version="1.0" encoding="UTF-8" standalone="no"?>
<!-- Created with Inkscape (http://www.inkscape.org/) -->

<svg
   xmlns:dc="http://purl.org/dc/elements/1.1/"
   xmlns:cc="http://creativecommons.org/ns#"
   xmlns:rdf="http://www.w3.org/1999/02/22-rdf-syntax-ns#"
   xmlns:svg="http://www.w3.org/2000/svg"
   xmlns="http://www.w3.org/2000/svg"
   xmlns:sodipodi="http://sodipodi.sourceforge.net/DTD/sodipodi-0.dtd"
   xmlns:inkscape="http://www.inkscape.org/namespaces/inkscape"
   width="1523.3649"
   height="3057.1113"
   viewBox="0 0 1523.3649 3057.1114"
   id="svg2"
   version="1.1"
   inkscape:version="0.91 r13725"
   sodipodi:docname="DTW.svg"
   inkscape:export-filename="C:\Users\paulb\Dropbox\Projects\Terminal Silhouettes\Silhouettes\png\DTW.png"
   inkscape:export-xdpi="90"
   inkscape:export-ydpi="90">
  <sodipodi:namedview
     id="base"
     pagecolor="#ffffff"
     bordercolor="#666666"
     borderopacity="1.0"
     inkscape:pageopacity="1"
     inkscape:pageshadow="2"
     inkscape:zoom="0.25"
     inkscape:cx="-408.46361"
     inkscape:cy="1517.4795"
     inkscape:document-units="px"
     inkscape:current-layer="layer1"
     showgrid="false"
     units="px"
     fit-margin-top="25"
     fit-margin-left="25"
     fit-margin-right="25"
     fit-margin-bottom="25"
     inkscape:window-width="1920"
     inkscape:window-height="1137"
     inkscape:window-x="1912"
     inkscape:window-y="-8"
     inkscape:window-maximized="1"
     showguides="true"
     inkscape:guide-bbox="true"
     inkscape:object-nodes="true"
     inkscape:snap-smooth-nodes="false"
     inkscape:snap-object-midpoints="false" />
  <defs
     id="defs4" />
  <metadata
     id="metadata7">
    <rdf:RDF>
      <cc:Work
         rdf:about="">
        <dc:format>image/svg+xml</dc:format>
        <dc:type
           rdf:resource="http://purl.org/dc/dcmitype/StillImage" />
        <dc:title></dc:title>
        <dc:description>Terminal silhouette of DTW (Detroit)</dc:description>
        <dc:creator>
          <cc:Agent>
            <dc:title>Paul Bogard</dc:title>
          </cc:Agent>
        </dc:creator>
      </cc:Work>
    </rdf:RDF>
  </metadata>
  <g
     style="display:inline"
     inkscape:label="Terminal"
     id="layer2"
     inkscape:groupmode="layer"
     transform="translate(-1208.4683,-25.76028)">
    <path
       style="opacity:1;fill:#dddddd;fill-opacity:1;stroke:#222222;stroke-width:1.5;stroke-linejoin:miter;stroke-miterlimit:4;stroke-dasharray:none;stroke-dashoffset:0;stroke-opacity:1"
       d="m 1338.1384,3036.046 10.1513,5.5495 -1.564,2.8608 22.6763,12.3974 1.5639,-2.8608 2.7293,1.4913 34.6964,-63.4617 5.8152,-10.6384 24.6159,-45.025 24.5248,-44.8602 43.4874,-79.5423 24.5249,-44.8601 43.4874,-79.5422 24.5259,-44.8585 43.4874,-79.5434 24.5241,-44.8573 4.4472,-8.1325 7.2766,-7.2721 21.998,12.0265 -9.4924,17.3647 1.976,1.0798 -5.5953,10.2351 47.3362,25.8795 -0.6361,1.1633 7.4434,4.0694 4.2177,-7.7134 28.1722,7.5431 6e-4,4e-4 1.6072,0.4315 -1.3546,2.476 9.4222,5.1501 -0.5086,0.9304 16.5158,9.0294 112.7987,-206.3211 -16.5142,-9.0287 -7.1854,13.1429 -18.8399,-10.3002 -2.8455,5.2023 -15.827,10.1614 -0.9985,1.8271 -24.416,-13.3486 1.361,-2.4896 -5.9226,-3.2383 -1.3609,2.4895 -38.4869,-21.0413 1.3603,-2.4866 -8.2259,-4.497 -1.3593,2.4884 -11.8752,21.7212 -1.6448,-0.8986 5.9987,-16.0487 1.7318,-7.9388 6.3972,-29.3073 4.5354,-8.2979 24.5259,-44.8604 43.4856,-79.5411 24.5248,-44.8602 43.4875,-79.5423 24.5247,-44.8602 43.4875,-79.5421 0.1644,-0.2993 3.8666,2.115 1.8341,6.2561 7.494,4.0968 6.2561,-1.8342 14.7419,8.0598 19.4227,10.6192 15.387,-28.1446 -27.9124,-15.2601 -3.4975,6.3973 -1.9772,-1.0817 -4.2104,7.7016 -8.3201,-4.5484 -7.4941,-4.0967 -6.2562,1.8342 -3.8665,-2.1151 11.8263,-21.6316 3.9531,2.1615 33.3194,-60.9428 -3.9559,-2.1623 14.3554,-26.2552 34.6962,-63.4618 -2.7301,-1.493 1.5638,-2.8609 -22.6745,-12.3965 -1.564,2.8608 -10.1513,-5.5496 -49.6885,90.8842 10.1511,5.5496 -25.6138,46.8492 -1.5248,-0.8335 -24.5259,44.8585 1.5259,0.8352 -43.4857,79.5411 -1.5277,-0.8343 -24.5248,44.8604 1.5259,0.8352 -3.8769,7.0906 -5.4977,-3.0055 1.4315,-2.6183 -21.5973,-11.8076 -3.8181,6.9844 21.5985,11.8077 1.4317,-2.62 5.4995,3.0062 -33.0364,60.4283 -5.4995,-3.0064 1.4314,-2.6181 -21.5957,-11.8073 -3.8179,6.9834 21.5985,11.8078 1.4319,-2.62 5.4995,3.0063 -4.6646,8.5318 -1.5278,-0.8341 -24.5248,44.8602 1.5278,0.8341 -3.8476,7.0379 -5.4995,-3.0063 1.4317,-2.6189 -21.5985,-11.8077 -3.8181,6.9844 21.5986,11.8077 1.4317,-2.62 5.4995,3.0061 -33.0363,60.4272 -5.4978,-3.0057 1.4317,-2.62 -21.5984,-11.8079 -3.8181,6.9844 21.5986,11.8079 1.4317,-2.6201 5.4995,3.0062 -4.6943,8.5863 -1.5259,-0.8351 -24.5267,44.8613 1.5258,0.8342 -3.8176,6.9826 -5.4995,-3.0063 1.4319,-2.6201 -21.5986,-11.8079 -3.8179,6.9846 21.5984,11.8078 1.4317,-2.6201 5.4995,3.0063 -33.0382,60.4293 -5.4994,-3.0062 1.4318,-2.619 -21.5984,-11.8077 -3.818,6.9844 21.5983,11.8078 1.4336,-2.6212 5.4985,3.0061 -27.3952,50.1095 -5.4995,-3.0063 0.5164,-0.9434 a 24.615362,16.870702 28.666 0 0 -28.9789,3.3638 l -0.7042,-0.385 -3.4588,6.3287 21.5968,11.8071 1.9617,-3.5886 5.4995,3.0062 -30.5682,55.9121 -5.4984,-3.0061 1.4311,-2.6173 -21.5985,-11.8077 -3.8176,6.9827 21.5957,11.8071 1.4335,-2.6213 5.4995,3.0063 -4.7546,8.6984 -1.5278,-0.8342 -24.5241,44.8573 1.5261,0.8353 -3.7578,6.8726 -5.4985,-3.0061 1.4312,-2.6173 -21.5975,-11.8075 -3.818,6.9845 21.5975,11.8075 1.4335,-2.6212 5.4995,3.0062 -33.0382,60.4294 -5.4995,-3.0063 1.4311,-2.6172 -21.5974,-11.8076 -3.8179,6.9833 21.5984,11.8079 1.4318,-2.6201 5.4996,3.0062 -4.7844,8.753 -1.5261,-0.8353 -24.5258,44.8585 1.5277,0.8341 -3.728,6.8179 -5.4994,-3.0062 1.431,-2.6173 -21.5967,-11.8084 -3.8181,6.9843 21.5972,11.8063 1.4318,-2.62 5.4995,3.0062 -33.0381,60.4306 -5.4995,-3.0064 1.4318,-2.62 -21.5973,-11.8063 -3.8179,6.9834 21.5985,11.8077 1.4318,-2.62 5.4994,3.0062 -4.8151,8.8058 -1.5251,-0.8336 -24.5258,44.8586 1.526,0.8351 -43.4857,79.5412 -1.5278,-0.8341 -24.5248,44.8602 1.526,0.8351 -24.6159,45.0252 -10.1512,-5.5496 -40.5117,74.1001 z m -103.5667,-469.6167 23.026,12.5891 149.9449,-274.2658 4.8514,2.6518 10.0266,-18.3382 8.3057,4.5405 2.9621,1.6186 5.4275,2.9677 11.194,-20.4769 -4.5224,-2.4724 5.8919,-10.7751 4.5213,2.4724 1.7091,-3.1239 -4.523,-2.4729 6.4611,-11.8184 -0.9286,-0.5084 4.5976,-8.4108 0.9286,0.5081 4.5241,2.4732 1.4374,-2.6307 -4.5231,-2.473 2.6077,-4.7688 -11.0185,-6.0247 -2.8774,5.2631 -6.0023,-3.2818 2.428,-4.4432 -6.0034,-3.2821 14.1233,-25.8322 6.004,3.2825 21.1102,-38.6144 -6.0053,-3.2825 16.9377,-30.9809 6.0033,3.2822 21.1096,-38.6116 -6.0041,-3.2824 16.9378,-30.9819 6.004,3.2825 21.1102,-38.6131 -6.0052,-3.2825 16.9378,-30.982 6.0052,3.2826 21.1095,-38.6117 -6.0041,-3.2824 18.4913,-33.8242 6.0039,3.2824 21.1103,-38.613 0.5257,-0.9636 -8.3057,-4.5405 -0.5815,1.063 -6.4135,-3.5062 0.5815,-1.0632 -8.3068,-4.5423 -0.5258,0.9637 -21.1112,38.6126 6.0023,3.2817 -18.4912,33.8242 -6.0024,-3.2818 -21.1095,38.6116 6.0024,3.2817 -16.9378,30.982 -6.0023,-3.2818 -21.1102,38.6131 6.0023,3.2819 -16.9378,30.9819 -6.0023,-3.2819 -21.11,38.6126 6.0012,3.2798 -16.9395,30.983 -6.0022,-3.2817 -21.11,38.6125 6.0023,3.2817 -14.1233,25.8325 -6.0022,-3.2819 -7.824,14.3091 -6.085,-3.3259 -25.6276,46.8745 6.0862,3.3277 -159.9714,292.6041 z m 450.8899,-69.8899 13.336,-13.3266 10.2724,-13.7115 7.4534,-13.633 44.7366,24.4571 -1.1461,2.0941 30.7033,16.7859 -16.2694,29.759 -0.014,26.5513 -2.4999,4.572 2.4974,1.3659 0,7.3342 10e-4,1.8309 -26.3019,-7.0464 27.6737,-50.6191 -7.4434,-4.0692 -2.094,-1.1448 -0.4581,0.8398 -39.2107,-21.4369 -1.1952,2.1847 -8.0075,-4.3778 -12.2492,22.4051 -19.7783,-10.8124 z m 553.7281,-1374.4328 11.932,0.5744 0.2234,-4.6291 7.7622,-2.5905 a 21.744459,21.744459 0 0 0 1.823,4.0385 l -3.7375,2.173 a 26.05607,26.05607 0 0 0 3.9879,5.1777 l 3.0647,-3.0217 a 21.744459,21.744459 0 0 0 9.2067,5.5482 l -1.2489,4.1486 a 26.05607,26.05607 0 0 0 6.4505,1.0578 l 0.175,-4.2867 a 21.744459,21.744459 0 0 0 10.5213,-2.2355 l 1.9137,3.8691 a 26.05607,26.05607 0 0 0 5.4334,-3.6323 l -2.7964,-3.2481 a 21.744459,21.744459 0 0 0 6.1591,-8.8177 l 4.0357,1.517 a 26.05607,26.05607 0 0 0 1.4878,-6.366 l -4.2786,-0.4638 a 21.744459,21.744459 0 0 0 -1.122,-9.6624 l 2.5482,-1.9473 0.836,1.096 2.4038,-1.8376 -0.8348,-1.0943 2.7683,-2.1155 1.5378,2.0119 66.0247,-50.4421 -3.7892,-4.9593 24.5588,-18.7629 a 19.402383,19.402383 0 0 0 25.5166,4.789 19.402383,19.402383 0 0 0 5.4284,-4.961 l 22.7921,17.0259 -1.5871,2.1229 7.642,5.707 -3.3787,4.5232 77.3341,57.7723 4.9622,-6.644 11.5393,8.6207 a 21.744459,21.744459 0 0 0 -2.3601,12.2061 l -4.2936,0.4261 a 26.055667,26.055667 0 0 0 3.6615,10.9977 l 3.6794,-2.2443 a 21.744459,21.744459 0 0 0 6.7613,6.9161 l -2.3388,3.615 a 26.055667,26.055667 0 0 0 10.8872,3.9483 l 0.5358,-4.2521 a 21.744459,21.744459 0 0 0 9.62,-0.9531 l 1.3743,4.0986 a 26.055667,26.055667 0 0 0 5.294,-2.453 26.055667,26.055667 0 0 0 4.5928,-3.5948 l -3.0109,-3.0906 a 21.744459,21.744459 0 0 0 5.2728,-8.1072 l 4.0287,1.4702 a 26.055667,26.055667 0 0 0 1.4276,-11.4918 l -4.2706,0.424 a 21.744459,21.744459 0 0 0 -3.046,-9.1776 l 3.6793,-2.2444 a 26.055667,26.055667 0 0 0 -8.1068,-8.2789 l -2.334,3.6071 a 21.744459,21.744459 0 0 0 -9.0842,-3.3112 l 0.5423,-4.2972 a 26.055667,26.055667 0 0 0 -11.53,1.1744 l 1.3651,4.0752 a 21.744459,21.744459 0 0 0 -4.4184,2.0352 21.744459,21.744459 0 0 0 -3.3427,2.5339 l -11.6215,-8.6797 5.0447,-6.7551 -40.9581,-30.5998 -15.6698,-11.7052 -20.7043,-15.4682 2.3989,-3.21 20.7043,15.4681 19.5189,-26.13 -62.7741,-46.89641 -5.3643,3.27215 -0.7382,-3.83872 -3.0755,-2.41313 -0.7382,-3.83883 -3.0755,-2.4132 -0.7382,-3.83887 -3.0754,-2.41307 -0.7382,-3.83877 -3.0756,-2.4132 -0.738,-3.83887 -3.0756,-2.41306 -0.7381,-3.83887 18.7646,-11.44632 -47.6696,-78.14772 -16.6519,10.15753 -23.5959,-38.68222 7.9376,-15.23243 -10.9004,-5.6797 -9.072,17.4092 6.7859,3.53631 2.1819,3.57688 -3.6016,2.19697 0.7809,1.28014 -11.4413,6.97912 3.3442,-6.41662 -5.6259,-2.93139 -9.0441,17.3556 -0.046,13.8125 0.4811,0.78858 4.2795,7.0158 2.8301,4.63948 -3.508,2.13976 7.8345,12.84334 -11.9363,7.28123 -1.153,0.70315 0.7383,3.83892 3.0755,2.41307 0.738,3.83886 3.0756,2.41306 0.7381,3.83886 3.0755,2.41307 0.7382,3.83892 3.0756,2.41305 0.7381,3.83887 3.0756,2.41312 0.7381,3.83887 3.0756,2.41305 0.7369,3.83717 3.0755,2.41306 0.7381,3.83886 3.0756,2.41307 0.7381,3.83892 3.0756,2.41306 0.7381,3.83887 3.0756,2.41306 0.7381,3.83891 3.0756,2.41307 0.7381,3.83887 3.0754,2.41303 0.7383,3.83893 3.0755,2.41302 0.7381,3.83893 3.0755,2.41303 0.7383,3.83893 3.0754,2.41302 0.7381,3.83883 3.0755,2.41312 0.7381,3.83904 3.0756,2.41302 0.7381,3.83872 3.0756,2.4131 1.1527,-0.7032 5.9391,-3.6227 5.2265,8.5682 -24.5149,18.7312 -3.9407,-5.1555 -2.1144,-2.7666 -11.0057,8.4093 2.1145,2.7665 -9e-4,-5e-4 -4.5915,3.5091 -61.4323,46.9347 1.5379,2.012 -2.7681,2.1155 -0.8369,-1.0932 -2.4051,1.8358 0.8378,1.095 -2.5901,1.9778 a 21.744459,21.744459 0 0 0 -8.9305,-3.6037 l 0.6804,-4.2578 a 26.05607,26.05607 0 0 0 -6.5341,-0.1845 l 0.4032,4.2881 a 21.744459,21.744459 0 0 0 -9.2947,3.0571 21.744459,21.744459 0 0 0 -0.8328,0.5516 l -2.4164,-3.5793 a 26.05607,26.05607 0 0 0 -4.8987,4.3298 l 3.2164,2.8511 a 21.744459,21.744459 0 0 0 -2.5488,3.5368 l -6.6337,-3.8355 0.3405,-7.066 -1.7656,-0.083 -11.935,-0.575 -0.9842,20.5224 -0.742,15.4356 z m -27.0471,-266.55772 64.7374,-19.08954 14.5378,-4.28526 2.121,7.19961 5.0229,2.74617 4.3512,-7.95981 8.7218,4.76935 42.2601,-77.299 -8.7231,-4.76906 20.8557,-38.14755 8.722,4.7694 18.6934,-34.19258 -8.7219,-4.76934 28.6555,-52.4139 8.7219,4.76925 0.463,-0.84763 33.7589,18.45575 22.0026,-40.24551 24.51,13.39904 50.7392,-92.80837 12.2083,-22.3304 63.7108,-116.53604 -14.4211,-7.88406 -2.2889,4.18589 -11.1646,-6.10386 -12.5893,23.02604 -10.0005,-5.46742 -0.8905,1.62898 -14.8869,-8.13871 13.3524,-24.42327 10.468,5.72273 c 21.8878,-22.62755 28.7756,-56.77877 28.7756,-56.77877 l -14.6551,-8.01319 -10.5824,-5.78558 8.9013,-16.28121 8.722,4.76924 30.1387,-55.12841 -8.7219,-4.76939 43.436,-79.44761 8.722,4.76933 24.0095,-43.91515 -8.722,-4.76939 5.0358,-9.21182 -4.5895,-2.50859 -8.6167,2.50996 -4.0204,-13.809013 -11.1982,-38.450059 -25.1292,7.320466 18.5426,63.661776 -302.168,552.69919 -1.8697,-1.021 -12.9711,23.72559 1.8668,1.02037 -57.3112,104.82873 -89.9248,26.51342 7.4013,25.10651 z"
       id="rect4154"
       inkscape:connector-curvature="0" />
  </g>
  <g
     inkscape:groupmode="layer"
     id="layer1"
     inkscape:label="Label">
    <g
       style="font-style:normal;font-variant:normal;font-weight:bold;font-stretch:normal;font-size:125px;line-height:125%;font-family:Overpass;-inkscape-font-specification:'Overpass, Bold';text-align:start;letter-spacing:0px;word-spacing:0px;writing-mode:lr-tb;text-anchor:start;fill:#dddddd;fill-opacity:1;stroke:#222222;stroke-width:0.25;stroke-linecap:butt;stroke-linejoin:miter;stroke-miterlimit:4;stroke-dasharray:none;stroke-opacity:1"
       id="text4144">
      <path
         d="m 25.125007,25.125023 29.541015,0 q 7.629395,0 13.73291,1.770019 6.103516,1.708985 10.803223,4.760743 4.760742,3.051757 8.117676,7.263183 3.356933,4.150391 5.493164,9.033203 2.197266,4.821778 3.173828,10.192871 1.037598,5.371094 1.037598,10.742188 0,5.004883 -0.976563,10.253906 -0.915527,5.187988 -2.990722,10.070801 -2.075196,4.821777 -5.432129,9.094238 -3.295899,4.272465 -8.117676,7.507325 -4.760742,3.17383 -11.047363,5.00488 -6.286621,1.83106 -14.343262,1.83106 l -28.991699,0 0,-87.524417 z m 31.005859,71.533203 q 6.530762,0 10.986328,-2.502441 4.455567,-2.563477 7.202149,-6.530762 2.746582,-4.02832 3.967285,-8.972168 1.220703,-4.943848 1.220703,-9.765625 0,-5.126953 -1.281738,-10.070801 -1.281739,-5.004883 -3.967286,-8.911133 -2.624511,-3.90625 -6.835937,-6.286621 -4.150391,-2.441406 -9.887695,-2.441406 l -15.50293,0 0,55.480957 14.099121,0 z"
         style=""
         id="path4201" />
      <path
         d="m 149.7588,41.42141 0,71.22803 -16.84571,0 0,-71.22803 -25.02441,0 0,-16.296387 66.89453,0 0,16.296387 -25.02441,0 z"
         style=""
         id="path4203" />
      <path
         d="m 283.792,25.125023 -18.9209,87.524417 -15.74707,0 -13.24463,-51.513675 q -0.54932,-2.075195 -0.79346,-3.662109 -0.24414,-1.64795 -0.42724,-2.929688 -0.18311,1.281738 -0.48828,2.929688 -0.30518,1.586914 -0.79346,3.540039 l -12.87842,51.635745 -15.74707,0 -18.73779,-87.524417 17.39502,0 9.76562,49.255371 q 0.48828,2.258301 0.67139,3.723145 0.24414,1.464843 0.42725,2.807617 0.1831,-1.342774 0.42724,-2.807617 0.24414,-1.525879 0.79346,-3.845215 l 12.02392,-49.133301 14.64844,0 12.20703,49.133301 q 0.61036,2.319336 0.8545,3.845215 0.24414,1.464843 0.42724,2.807617 0.18311,-1.342774 0.36621,-2.807617 0.24414,-1.464844 0.73242,-3.723145 l 9.76563,-49.255371 17.27295,0 z"
         style=""
         id="path4205" />
    </g>
    <g
       style="font-style:normal;font-variant:normal;font-weight:normal;font-stretch:normal;font-size:45px;line-height:125%;font-family:Overpass;-inkscape-font-specification:'Overpass, Normal';text-align:start;letter-spacing:0px;word-spacing:0px;writing-mode:lr-tb;text-anchor:start;fill:#222222;fill-opacity:1;stroke:none;stroke-width:1px;stroke-linecap:butt;stroke-linejoin:miter;stroke-opacity:1"
       id="text4148">
      <path
         d="m 25.000008,128.76334 8.833007,0 q 2.746582,0 4.921875,0.6372 2.175293,0.61524 3.845215,1.71387 1.669922,1.09863 2.856446,2.61475 1.186523,1.49414 1.933593,3.25195 0.769043,1.73584 1.120606,3.66943 0.351562,1.9336 0.351562,3.86719 0,1.80176 -0.32959,3.69141 -0.307617,1.86767 -1.054687,3.62549 -0.725098,1.73584 -1.889648,3.27392 -1.164551,1.53809 -2.856446,2.70264 -1.691894,1.14258 -3.955078,1.80176 -2.241211,0.65918 -5.119629,0.65918 l -8.657226,0 0,-31.50879 z m 9.404297,27.09228 q 1.801757,0 3.208007,-0.46142 1.428223,-0.4834 2.48291,-1.29639 1.076661,-0.81299 1.801758,-1.91162 0.747071,-1.09864 1.208496,-2.35108 0.483399,-1.27441 0.681153,-2.61474 0.219726,-1.36231 0.219726,-2.70264 0,-2.13135 -0.527343,-4.15283 -0.505372,-2.04346 -1.604004,-3.62549 -1.098633,-1.604 -2.834473,-2.5708 -1.713867,-0.98877 -4.130859,-0.98877 l -5.229493,0 0,22.67578 4.724122,0 z"
         style=""
         id="path4186" />
      <path
         d="m 64.506844,160.82144 q -2.39502,0 -4.328614,-0.81299 -1.933593,-0.83496 -3.295898,-2.37304 -1.362305,-1.56006 -2.109375,-3.80127 -0.725098,-2.24121 -0.725098,-5.07569 0,-2.83447 0.747071,-5.05371 0.74707,-2.24121 2.109375,-3.77929 1.384277,-1.56006 3.295898,-2.37305 1.933594,-0.81299 4.306641,-0.81299 2.043457,0 3.823242,0.65918 1.801758,0.63721 3.14209,1.97754 1.362304,1.31836 2.131347,3.33984 0.791016,2.02149 0.791016,4.76807 0,0.74707 -0.04394,1.58203 -0.02197,0.83496 -0.131836,1.4502 l -15.490723,0 q 0.02197,1.42822 0.505371,2.5708 0.505371,1.1206 1.318359,1.93359 0.812989,0.79102 1.845704,1.23047 1.032714,0.41748 2.15332,0.41748 1.428223,0 2.636719,-0.59326 1.230468,-0.59326 2.131347,-1.73584 l 3.0542,3.14209 q -1.252442,1.49414 -3.208008,2.41699 -1.955567,0.92285 -4.658203,0.92285 z m 0,-19.95117 q -1.098633,0 -2.109375,0.32959 -1.010743,0.30762 -1.801758,1.01074 -0.769043,0.68115 -1.274414,1.80176 -0.505371,1.12061 -0.593262,2.72461 l 10.986328,0 q -0.04395,-1.604 -0.505371,-2.72461 -0.461426,-1.12061 -1.208496,-1.80176 -0.74707,-0.70312 -1.669922,-1.01074 -0.900879,-0.32959 -1.82373,-0.32959 z"
         style=""
         id="path4188" />
      <path
         d="m 86.457527,160.82144 q -1.362305,0 -2.351074,-0.41748 -0.966797,-0.39551 -1.604004,-1.14258 -0.615234,-0.74707 -0.900879,-1.80175 -0.285644,-1.07666 -0.285644,-2.37305 l 0,-13.75488 -3.559571,0 0,-4.06495 3.559571,0 0,-7.229 4.680175,-2.26318 0,9.49218 5.449219,0 0,4.06495 -5.449219,0 0,12.54638 q 0,0.57129 0.08789,1.05469 0.109863,0.4834 0.351563,0.83496 0.263671,0.35156 0.703125,0.54932 0.439453,0.17578 1.120605,0.17578 1.669922,0 3.405762,-1.07666 l -0.571289,4.35058 q -0.966797,0.4834 -2.109375,0.76905 -1.142578,0.28564 -2.526856,0.28564 z"
         style=""
         id="path4190" />
      <path
         d="m 96.850594,160.27213 0,-23.00538 4.680176,0 0,2.79053 q 0.81299,-1.75781 2.10937,-2.52685 1.29639,-0.79102 3.01026,-0.79102 2.28515,0 3.86719,1.38428 l -0.68116,4.32861 q -0.6372,-0.43945 -1.51611,-0.76904 -0.85693,-0.35156 -2.10937,-0.35156 -0.79102,0 -1.62598,0.28564 -0.81299,0.26367 -1.49414,0.9668 -0.68115,0.68115 -1.12061,1.8457 -0.43945,1.14258 -0.43945,2.92236 l 0,12.91993 -4.680176,0 z"
         style=""
         id="path4192" />
      <path
         d="m 124.4043,160.82144 q -2.41699,0 -4.37255,-0.81299 -1.9336,-0.81298 -3.2959,-2.35107 -1.36231,-1.56006 -2.10938,-3.7793 -0.7251,-2.24121 -0.7251,-5.07568 0,-2.83447 0.7251,-5.07568 0.74707,-2.24122 2.10938,-3.7793 1.3623,-1.56006 3.2959,-2.37305 1.95556,-0.83496 4.37255,-0.83496 2.39502,0 4.35059,0.83496 1.95557,0.81299 3.31787,2.37305 1.36231,1.53808 2.10938,3.7793 0.74707,2.24121 0.74707,5.07568 0,2.83447 -0.74707,5.07568 -0.74707,2.21924 -2.10938,3.7793 -1.3623,1.53809 -3.31787,2.35107 -1.95557,0.81299 -4.35059,0.81299 z m 0,-4.4165 q 1.34034,0 2.417,-0.52735 1.09863,-0.52734 1.8457,-1.49414 0.76904,-0.98877 1.16455,-2.39502 0.41748,-1.40625 0.41748,-3.18603 0,-1.77979 -0.41748,-3.18604 -0.39551,-1.42822 -1.16455,-2.41699 -0.74707,-0.98877 -1.8457,-1.51611 -1.07666,-0.52735 -2.417,-0.52735 -1.34033,0 -2.41699,0.52735 -1.07666,0.52734 -1.8457,1.51611 -0.74707,0.98877 -1.16455,2.41699 -0.39551,1.40625 -0.39551,3.18604 0,1.77978 0.39551,3.18603 0.41748,1.40625 1.16455,2.39502 0.76904,0.9668 1.8457,1.49414 1.07666,0.52735 2.41699,0.52735 z"
         style=""
         id="path4194" />
      <path
         d="m 140.57618,160.27213 0,-23.00538 4.68018,0 0,23.00538 -4.68018,0 z m 2.3291,-26.58692 q -0.59326,0 -1.1206,-0.21973 -0.50538,-0.21972 -0.90088,-0.59326 -0.37354,-0.3955 -0.59327,-0.90088 -0.21972,-0.52734 -0.21972,-1.1206 0,-0.59326 0.21972,-1.09863 0.21973,-0.52735 0.59327,-0.90088 0.3955,-0.39551 0.90088,-0.61524 0.52734,-0.21972 1.1206,-0.21972 0.59326,0 1.09863,0.21972 0.52735,0.21973 0.90088,0.61524 0.39551,0.37353 0.61524,0.90088 0.21972,0.50537 0.21972,1.09863 0,0.59326 -0.21972,1.1206 -0.21973,0.50538 -0.61524,0.90088 -0.37353,0.37354 -0.90088,0.59326 -0.50537,0.21973 -1.09863,0.21973 z"
         style=""
         id="path4196" />
      <path
         d="m 158.70362,160.82144 q -1.3623,0 -2.35107,-0.41748 -0.9668,-0.39551 -1.60401,-1.14258 -0.61523,-0.74707 -0.90088,-1.80175 -0.28564,-1.07666 -0.28564,-2.37305 l 0,-13.75488 -3.55957,0 0,-4.06495 3.55957,0 0,-7.229 4.68018,-2.26318 0,9.49218 5.44921,0 0,4.06495 -5.44921,0 0,12.54638 q 0,0.57129 0.0879,1.05469 0.10986,0.4834 0.35156,0.83496 0.26367,0.35156 0.70312,0.54932 0.43946,0.17578 1.12061,0.17578 1.66992,0 3.40576,-1.07666 l -0.57129,4.35058 q -0.9668,0.4834 -2.10937,0.76905 -1.14258,0.28564 -2.52686,0.28564 z"
         style=""
         id="path4198" />
    </g>
  </g>
  <g
     inkscape:groupmode="layer"
     id="layer3"
     inkscape:label="Date">
    <g
       style="font-style:normal;font-variant:normal;font-weight:300;font-stretch:normal;font-size:15px;line-height:125%;font-family:Overpass;-inkscape-font-specification:'Overpass, Light';text-align:start;letter-spacing:0px;word-spacing:0px;writing-mode:lr-tb;text-anchor:start;fill:#222222;fill-opacity:1;stroke:none;stroke-width:1px;stroke-linecap:butt;stroke-linejoin:miter;stroke-opacity:1"
       id="text4152">
      <path
         d="m 1426.5994,3031.9314 0,-8.595 -1.785,0 0,-0.6 q 0.795,0 1.35,-0.27 0.555,-0.285 0.81,-1.035 l 0.675,0 0,10.5 -1.05,0 z"
         style=""
         id="path4167" />
      <path
         d="m 1433.6041,3021.2514 q 0.855,0 1.485,0.315 0.63,0.315 1.035,0.87 0.42,0.54 0.63,1.29 0.21,0.735 0.21,1.59 0,1.125 -0.39,2.22 -0.375,1.095 -1.065,2.025 -0.675,0.915 -1.62,1.59 -0.945,0.675 -2.085,0.96 l 0,-0.825 q 0.765,-0.225 1.425,-0.675 0.66,-0.465 1.17,-1.065 0.525,-0.6 0.855,-1.29 0.345,-0.69 0.435,-1.365 -0.39,0.495 -1.035,0.765 -0.63,0.255 -1.455,0.255 -0.645,0 -1.215,-0.255 -0.555,-0.255 -0.975,-0.69 -0.405,-0.45 -0.645,-1.02 -0.24,-0.585 -0.24,-1.215 0,-0.735 0.27,-1.365 0.27,-0.645 0.735,-1.11 0.48,-0.465 1.11,-0.735 0.63,-0.27 1.365,-0.27 z m -0.075,5.82 q 0.525,0 0.96,-0.18 0.45,-0.195 0.765,-0.525 0.315,-0.33 0.495,-0.78 0.18,-0.45 0.18,-0.975 0,-0.51 -0.195,-0.945 -0.18,-0.435 -0.51,-0.765 -0.315,-0.33 -0.75,-0.51 -0.435,-0.195 -0.945,-0.195 -0.54,0 -0.99,0.195 -0.435,0.18 -0.75,0.51 -0.315,0.33 -0.495,0.765 -0.165,0.435 -0.165,0.945 0,0.525 0.165,0.975 0.165,0.45 0.48,0.78 0.315,0.33 0.75,0.525 0.45,0.18 1.005,0.18 z"
         style=""
         id="path4169" />
      <path
         d="m 1446.8995,3031.1664 q 0.9,0 1.515,-0.405 0.63,-0.405 1.005,-1.05 0.39,-0.645 0.555,-1.44 0.18,-0.81 0.18,-1.59 0,-0.855 -0.18,-1.665 -0.165,-0.81 -0.555,-1.425 -0.375,-0.63 -1.005,-1.005 -0.615,-0.39 -1.515,-0.39 -0.9,0 -1.53,0.405 -0.615,0.405 -1.005,1.05 -0.375,0.645 -0.555,1.455 -0.165,0.795 -0.165,1.575 0,0.855 0.165,1.665 0.18,0.81 0.555,1.44 0.39,0.615 1.005,1.005 0.63,0.375 1.53,0.375 z m 0,0.945 q -1.215,0 -2.055,-0.48 -0.825,-0.48 -1.335,-1.26 -0.51,-0.78 -0.735,-1.74 -0.225,-0.975 -0.225,-1.95 0,-0.975 0.225,-1.935 0.225,-0.975 0.735,-1.755 0.51,-0.78 1.335,-1.26 0.84,-0.48 2.055,-0.48 1.215,0 2.04,0.48 0.84,0.48 1.35,1.26 0.51,0.78 0.735,1.755 0.225,0.96 0.225,1.935 0,0.975 -0.225,1.95 -0.225,0.96 -0.735,1.74 -0.51,0.78 -1.35,1.26 -0.825,0.48 -2.04,0.48 z"
         style=""
         id="path4171" />
      <path
         d="m 1455.9893,3032.1114 q -1.395,0 -2.22,-1.035 -0.81,-1.05 -0.81,-2.97 0,-1.905 0.825,-2.955 0.84,-1.065 2.325,-1.065 0.855,0 1.5,0.42 0.645,0.405 0.96,1.185 l -0.96,0.375 q -0.18,-0.435 -0.555,-0.735 -0.36,-0.3 -0.99,-0.3 -0.54,0 -0.915,0.225 -0.375,0.21 -0.63,0.615 -0.24,0.39 -0.36,0.96 -0.105,0.57 -0.105,1.275 0,1.455 0.48,2.265 0.48,0.795 1.5,0.795 0.63,0 1.065,-0.315 0.435,-0.315 0.63,-0.855 l 0.945,0.36 q -0.27,0.81 -0.99,1.29 -0.705,0.465 -1.695,0.465 z"
         style=""
         id="path4173" />
      <path
         d="m 1462.4648,3032.1114 q -0.825,0 -1.17,-0.495 -0.345,-0.51 -0.345,-1.26 l 0,-5.145 -1.305,0 0,-0.945 1.305,0 0,-2.64 1.05,-0.525 0,3.165 1.95,0 0,0.945 -1.95,0 0,4.695 q 0,0.255 0.015,0.48 0.03,0.21 0.12,0.375 0.09,0.165 0.255,0.27 0.165,0.09 0.435,0.09 0.39,0 0.66,-0.15 0.285,-0.15 0.495,-0.3 l -0.12,1.095 q -0.3,0.165 -0.63,0.255 -0.33,0.09 -0.765,0.09 z"
         style=""
         id="path4175" />
      <path
         d="m 1469.254,3031.9314 q 0,-0.99 0.285,-1.695 0.285,-0.72 0.735,-1.26 0.45,-0.54 1.02,-0.945 0.57,-0.405 1.14,-0.795 0.495,-0.33 0.945,-0.645 0.45,-0.33 0.795,-0.69 0.36,-0.36 0.57,-0.765 0.21,-0.42 0.21,-0.93 0,-0.855 -0.6,-1.425 -0.585,-0.585 -1.68,-0.585 -1.065,0 -1.605,0.48 -0.54,0.465 -0.735,1.215 l -0.93,-0.42 q 0.12,-0.465 0.405,-0.87 0.285,-0.405 0.72,-0.705 0.435,-0.3 0.99,-0.465 0.57,-0.18 1.245,-0.18 1.56,0 2.415,0.81 0.87,0.795 0.87,2.145 0,0.72 -0.285,1.275 -0.27,0.555 -0.72,1.02 -0.435,0.45 -0.99,0.84 -0.555,0.375 -1.125,0.735 -0.45,0.3 -0.87,0.6 -0.42,0.285 -0.78,0.63 -0.345,0.33 -0.585,0.735 -0.24,0.39 -0.33,0.885 l 5.775,0 0,1.005 -6.885,0 z"
         style=""
         id="path4177" />
      <path
         d="m 1481.8331,3032.1114 q -1.035,0 -1.725,-0.48 -0.69,-0.48 -1.11,-1.245 -0.405,-0.78 -0.585,-1.74 -0.18,-0.975 -0.18,-1.965 0,-0.54 0.06,-1.155 0.06,-0.63 0.21,-1.23 0.165,-0.6 0.42,-1.155 0.27,-0.555 0.675,-0.975 0.405,-0.42 0.945,-0.66 0.555,-0.255 1.29,-0.255 1.035,0 1.725,0.495 0.69,0.48 1.095,1.26 0.42,0.78 0.6,1.755 0.18,0.96 0.18,1.92 0,0.555 -0.075,1.17 -0.06,0.615 -0.225,1.23 -0.15,0.6 -0.42,1.155 -0.255,0.54 -0.66,0.96 -0.405,0.42 -0.96,0.675 -0.54,0.24 -1.26,0.24 z m 0,-0.945 q 0.78,0 1.26,-0.42 0.495,-0.435 0.765,-1.095 0.27,-0.66 0.36,-1.455 0.09,-0.795 0.09,-1.515 0,-0.81 -0.105,-1.605 -0.105,-0.81 -0.39,-1.44 -0.285,-0.645 -0.765,-1.035 -0.48,-0.405 -1.215,-0.405 -0.795,0 -1.29,0.435 -0.48,0.435 -0.75,1.095 -0.27,0.66 -0.375,1.455 -0.09,0.78 -0.09,1.5 0,0.825 0.105,1.635 0.105,0.795 0.39,1.44 0.285,0.63 0.765,1.02 0.495,0.39 1.245,0.39 z"
         style=""
         id="path4179" />
      <path
         d="m 1488.8552,3031.9314 0,-8.595 -1.785,0 0,-0.6 q 0.795,0 1.35,-0.27 0.555,-0.285 0.81,-1.035 l 0.675,0 0,10.5 -1.05,0 z"
         style=""
         id="path4181" />
      <path
         d="m 1493.94,3031.9314 q 0.015,-1.23 0.15,-2.43 0.15,-1.2 0.51,-2.385 0.375,-1.185 0.99,-2.37 0.615,-1.2 1.575,-2.415 l -5.085,0 0,-0.9 6.285,0 0,0.69 q -1.095,1.26 -1.755,2.595 -0.66,1.32 -1.02,2.61 -0.36,1.275 -0.48,2.46 -0.12,1.185 -0.12,2.145 l -1.05,0 z"
         style=""
         id="path4183" />
    </g>
  </g>
</svg>
