<?xml version="1.0" encoding="UTF-8" standalone="no"?>
<!-- Created with Inkscape (http://www.inkscape.org/) -->

<svg
   xmlns:dc="http://purl.org/dc/elements/1.1/"
   xmlns:cc="http://creativecommons.org/ns#"
   xmlns:rdf="http://www.w3.org/1999/02/22-rdf-syntax-ns#"
   xmlns:svg="http://www.w3.org/2000/svg"
   xmlns="http://www.w3.org/2000/svg"
   xmlns:sodipodi="http://sodipodi.sourceforge.net/DTD/sodipodi-0.dtd"
   xmlns:inkscape="http://www.inkscape.org/namespaces/inkscape"
   width="509.4798"
   height="217.44945"
   viewBox="0 0 509.4798 217.44945"
   id="svg2"
   version="1.1"
   inkscape:version="0.92.4 (5da689c313, 2019-01-14)"
   sodipodi:docname="DUD.svg"
   inkscape:export-filename="C:\Users\paulb\Dropbox\Projects\Terminal Silhouettes\Silhouettes\png\DUD.png"
   inkscape:export-xdpi="90"
   inkscape:export-ydpi="90">
  <sodipodi:namedview
     id="base"
     pagecolor="#ffffff"
     bordercolor="#666666"
     borderopacity="1.0"
     inkscape:pageopacity="1"
     inkscape:pageshadow="2"
     inkscape:zoom="1"
     inkscape:cx="189.9119"
     inkscape:cy="122.71224"
     inkscape:document-units="px"
     inkscape:current-layer="layer4"
     showgrid="false"
     units="px"
     fit-margin-top="25"
     fit-margin-left="25"
     fit-margin-right="25"
     fit-margin-bottom="25"
     showguides="true"
     inkscape:guide-bbox="true"
     inkscape:window-width="1920"
     inkscape:window-height="1137"
     inkscape:window-x="1912"
     inkscape:window-y="-8"
     inkscape:window-maximized="1"
     inkscape:object-nodes="true" />
  <defs
     id="defs4" />
  <metadata
     id="metadata7">
    <rdf:RDF>
      <cc:Work
         rdf:about="">
        <dc:format>image/svg+xml</dc:format>
        <dc:type
           rdf:resource="http://purl.org/dc/dcmitype/StillImage" />
        <dc:title />
        <dc:creator>
          <cc:Agent>
            <dc:title>Paul Bogard</dc:title>
          </cc:Agent>
        </dc:creator>
        <dc:description>Terminal silhouette of DUD (Dunedin)</dc:description>
      </cc:Work>
    </rdf:RDF>
  </metadata>
  <g
     inkscape:label="Terminal"
     id="layer2"
     inkscape:groupmode="layer"
     transform="translate(-2092.1055,-1427.5263)">
    <path
       sodipodi:nodetypes="cccccccccccccccccccccccccccccccccccccccccc"
       inkscape:connector-curvature="0"
       id="rect4160"
       d="m 2470.8848,1503.7506 7.5518,11.3026 c -12.1558,8.1219 -24.3116,16.2439 -36.4674,24.3658 l -2.8875,-4.3215 -4.4921,3.0013 2.8875,4.3216 -8.7854,5.87 18.7305,28.0332 -2.1039,1.4057 1.3096,1.96 -2.2685,8.9319 1.6003,0.4064 -6.53,25.7102 -0.8064,0.5388 2.4447,3.6589 4.061,-2.7133 -2.4447,-3.6589 -0.3539,0.2364 c 2.5506,-10.042 5.1012,-20.084 7.6516,-30.1261 l 1.1636,-0.7774 1.1778,1.7627 22.0627,-14.7413 -0.611,-0.9144 11.0314,-7.3706 1.9028,2.8477 6.4822,-4.3311 -1.9027,-2.8478 16.7627,-11.2 1.4506,2.1711 35.3236,-23.6015 -2.4715,-3.6991 33.1908,-22.1765 -29.5517,-44.2288 c -17.3162,11.5699 -34.6324,23.1398 -51.9487,34.7097 l -6.0311,4.0297 c -5.7096,3.8149 -11.4192,7.6298 -17.1287,11.4446 z m -14.2795,38.5553 23.9618,-16.0102 11.8352,0.2586 8.5081,12.7337 -32.0247,21.3974 z"
       style="opacity:1;fill:#dddddd;fill-opacity:1;stroke:#222222;stroke-width:1.5;stroke-linejoin:miter;stroke-miterlimit:4;stroke-dasharray:none;stroke-dashoffset:0;stroke-opacity:1" />
  </g>
  <g
     inkscape:groupmode="layer"
     id="layer3"
     inkscape:label="Label"
     transform="translate(-2092.1055,-1427.5263)">
    <g
       id="g4819">
      <g
         style="font-style:normal;font-variant:normal;font-weight:bold;font-stretch:normal;font-size:125px;line-height:125%;font-family:Overpass;-inkscape-font-specification:'Overpass, Bold';text-align:start;letter-spacing:0px;word-spacing:0px;writing-mode:lr-tb;text-anchor:start;fill:#dddddd;fill-opacity:1;stroke:#222222;stroke-width:0.25;stroke-linecap:butt;stroke-linejoin:miter;stroke-miterlimit:4;stroke-dasharray:none;stroke-opacity:1"
         id="text4806">
        <path
           d="m 2117.2305,1452.6514 29.541,0 q 7.6294,0 13.7329,1.77 6.1035,1.709 10.8032,4.7607 4.7608,3.0518 8.1177,7.2632 3.3569,4.1504 5.4932,9.0332 2.1972,4.8218 3.1738,10.1929 1.0376,5.3711 1.0376,10.7422 0,5.0049 -0.9766,10.2539 -0.9155,5.188 -2.9907,10.0708 -2.0752,4.8218 -5.4321,9.0942 -3.2959,4.2725 -8.1177,7.5073 -4.7607,3.1739 -11.0474,5.0049 -6.2866,1.8311 -14.3432,1.8311 l -28.9917,0 0,-87.5244 z m 31.0058,71.5332 q 6.5308,0 10.9864,-2.5025 4.4555,-2.5634 7.2021,-6.5307 2.7466,-4.0284 3.9673,-8.9722 1.2207,-4.9438 1.2207,-9.7656 0,-5.127 -1.2817,-10.0708 -1.2818,-5.0049 -3.9673,-8.9112 -2.6245,-3.9062 -6.836,-6.2866 -4.1504,-2.4414 -9.8877,-2.4414 l -15.5029,0 0,55.481 14.0991,0 z"
           style=""
           id="path4845" />
        <path
           d="m 2243.207,1541.7017 q -4.4555,0 -8.8501,-0.7935 -4.3335,-0.7324 -8.2397,-2.4414 -3.9063,-1.709 -7.2632,-4.3945 -3.2959,-2.7466 -5.7373,-6.6529 -2.4414,-3.9062 -3.8452,-9.0332 -1.3428,-5.1269 -1.3428,-11.7187 l 0,-54.0161 16.9067,0 0,54.0161 q 0,5.4321 1.2208,9.0942 1.2817,3.6011 3.6621,5.7373 2.3803,2.1363 5.7983,3.0518 3.418,0.8545 7.6904,0.8545 4.2115,0 7.5684,-0.8545 3.418,-0.9155 5.7983,-3.0518 2.4414,-2.1362 3.7232,-5.7373 1.2817,-3.6621 1.2817,-9.0942 l 0,-54.0161 16.8457,0 0,54.0161 q 0,9.7656 -2.9297,16.4795 -2.9297,6.6528 -7.8735,10.8032 -4.8828,4.0894 -11.2305,5.9204 -6.3476,1.8311 -13.1836,1.8311 z"
           style=""
           id="path4847" />
        <path
           d="m 2300.3359,1452.6514 29.5411,0 q 7.6293,0 13.7329,1.77 6.1035,1.709 10.8032,4.7607 4.7607,3.0518 8.1177,7.2632 3.3569,4.1504 5.4931,9.0332 2.1973,4.8218 3.1739,10.1929 1.0376,5.3711 1.0376,10.7422 0,5.0049 -0.9766,10.2539 -0.9155,5.188 -2.9907,10.0708 -2.0752,4.8218 -5.4322,9.0942 -3.2959,4.2725 -8.1176,7.5073 -4.7608,3.1739 -11.0474,5.0049 -6.2866,1.8311 -14.3433,1.8311 l -28.9917,0 0,-87.5244 z m 31.0059,71.5332 q 6.5308,0 10.9863,-2.5025 4.4556,-2.5634 7.2022,-6.5307 2.7466,-4.0284 3.9673,-8.9722 1.2207,-4.9438 1.2207,-9.7656 0,-5.127 -1.2818,-10.0708 -1.2817,-5.0049 -3.9673,-8.9112 -2.6245,-3.9062 -6.8359,-6.2866 -4.1504,-2.4414 -9.8877,-2.4414 l -15.5029,0 0,55.481 14.0991,0 z"
           style=""
           id="path4849" />
      </g>
      <g
         style="font-style:normal;font-variant:normal;font-weight:normal;font-stretch:normal;font-size:45px;line-height:125%;font-family:Overpass;-inkscape-font-specification:'Overpass, Normal';text-align:start;letter-spacing:0px;word-spacing:0px;writing-mode:lr-tb;text-anchor:start;fill:#222222;fill-opacity:1;stroke:none;stroke-width:1px;stroke-linecap:butt;stroke-linejoin:miter;stroke-opacity:1"
         id="text4810">
        <path
           d="m 2117.1055,1557.8154 8.833,0 q 2.7466,0 4.9219,0.6372 2.1752,0.6153 3.8452,1.7139 1.6699,1.0986 2.8564,2.6148 1.1865,1.4941 1.9336,3.2519 0.769,1.7358 1.1206,3.6694 0.3516,1.9336 0.3516,3.8672 0,1.8018 -0.3296,3.6914 -0.3076,1.8677 -1.0547,3.6255 -0.7251,1.7359 -1.8897,3.2739 -1.1645,1.5381 -2.8564,2.7027 -1.6919,1.1426 -3.9551,1.8017 -2.2412,0.6592 -5.1196,0.6592 l -8.6572,0 0,-31.5088 z m 9.4043,27.0923 q 1.8017,0 3.208,-0.4614 1.4282,-0.4834 2.4829,-1.2964 1.0766,-0.813 1.8017,-1.9116 0.7471,-1.0987 1.2085,-2.3511 0.4834,-1.2744 0.6812,-2.6147 0.2197,-1.3623 0.2197,-2.7027 0,-2.1313 -0.5273,-4.1528 -0.5054,-2.0435 -1.604,-3.6255 -1.0987,-1.604 -2.8345,-2.5708 -1.7139,-0.9888 -4.1309,-0.9888 l -5.2295,0 0,22.6758 4.7242,0 z"
           style=""
           id="path4852" />
        <path
           d="m 2161.2925,1589.3242 0,-2.1972 q -1.1206,1.4282 -2.5928,2.0874 -1.4502,0.6591 -3.3618,0.6591 -1.8018,0 -3.3179,-0.5273 -1.5161,-0.5054 -2.6367,-1.6699 -1.0986,-1.1866 -1.7139,-3.0542 -0.6152,-1.8677 -0.6152,-4.5703 l 0,-13.733 4.6802,0 0,13.733 q 0,1.4502 0.3515,2.4829 0.3516,1.0107 0.9668,1.6699 0.6153,0.6592 1.4502,0.9668 0.835,0.2856 1.8238,0.2856 1.0546,0 1.9555,-0.2636 0.9009,-0.2857 1.5601,-0.9009 0.6811,-0.6372 1.0547,-1.648 0.3955,-1.0107 0.3955,-2.5049 l 0,-13.8208 4.6802,0 0,23.0054 -4.6802,0 z"
           style=""
           id="path4854" />
        <path
           d="m 2186.9126,1589.3242 0,-13.7329 q 0,-1.4502 -0.3516,-2.4609 -0.3515,-1.0327 -0.9668,-1.67 -0.6152,-0.6591 -1.4502,-0.9448 -0.8349,-0.3076 -1.8237,-0.3076 -1.0547,0 -1.9556,0.2857 -0.9008,0.2636 -1.56,0.8789 -0.6592,0.6152 -1.0547,1.6479 -0.3735,1.0108 -0.3735,2.4829 l 0,13.8208 -4.6802,0 0,-23.0054 4.6802,0 0,2.2193 q 1.1206,-1.4282 2.5708,-2.0874 1.4502,-0.6592 3.3618,-0.6592 1.8017,0 3.3179,0.5273 1.5161,0.5054 2.6147,1.67 1.1206,1.1645 1.7358,3.0322 0.6153,1.8677 0.6153,4.5703 l 0,13.7329 -4.6802,0 z"
           style=""
           id="path4856" />
        <path
           d="m 2207.4131,1589.8735 q -2.395,0 -4.3286,-0.813 -1.9336,-0.8349 -3.2959,-2.373 -1.3623,-1.5601 -2.1094,-3.8013 -0.7251,-2.2412 -0.7251,-5.0757 0,-2.8344 0.7471,-5.0537 0.747,-2.2412 2.1093,-3.7793 1.3843,-1.56 3.2959,-2.373 1.9336,-0.813 4.3067,-0.813 2.0434,0 3.8232,0.6592 1.8018,0.6372 3.1421,1.9775 1.3623,1.3184 2.1314,3.3399 0.791,2.0215 0.791,4.768 0,0.7471 -0.044,1.5821 -0.022,0.8349 -0.1318,1.4502 l -15.4907,0 q 0.022,1.4282 0.5053,2.5708 0.5054,1.1206 1.3184,1.9336 0.813,0.791 1.8457,1.2304 1.0327,0.4175 2.1533,0.4175 1.4283,0 2.6368,-0.5933 1.2304,-0.5932 2.1313,-1.7358 l 3.0542,3.1421 q -1.2524,1.4941 -3.208,2.417 -1.9556,0.9228 -4.6582,0.9228 z m 0,-19.9511 q -1.0986,0 -2.1094,0.3296 -1.0107,0.3076 -1.8017,1.0107 -0.7691,0.6811 -1.2745,1.8018 -0.5053,1.1206 -0.5932,2.7246 l 10.9863,0 q -0.044,-1.604 -0.5054,-2.7246 -0.4614,-1.1207 -1.2085,-1.8018 -0.747,-0.7031 -1.6699,-1.0107 -0.9009,-0.3296 -1.8237,-0.3296 z"
           style=""
           id="path4858" />
        <path
           d="m 2231.1216,1589.8735 q -2.1753,0 -3.9551,-0.813 -1.7578,-0.8349 -3.0102,-2.373 -1.2525,-1.5601 -1.9336,-3.8013 -0.6592,-2.2412 -0.6592,-5.0757 0,-2.8344 0.7031,-5.0537 0.7031,-2.2412 1.9556,-3.7793 1.2744,-1.56 3.0322,-2.373 1.7578,-0.813 3.8672,-0.813 1.8896,0 3.208,0.6152 1.3403,0.6153 2.2192,1.5381 l 0,-8.9428 4.6802,-2.1753 0,32.4975 -4.6802,0 0,-1.626 q -0.9228,1.0328 -2.2192,1.604 -1.2744,0.5713 -3.208,0.5713 z m 0.6592,-4.4165 q 1.582,0 2.7905,-0.6811 1.2085,-0.6812 1.9775,-1.9336 l 0,-10.1294 q -0.2636,-0.4395 -0.7031,-0.8789 -0.4394,-0.4395 -1.0547,-0.791 -0.5932,-0.3736 -1.3623,-0.5933 -0.7471,-0.2417 -1.6479,-0.2417 -2.6368,0 -4.087,1.9556 -1.4501,1.9336 -1.4501,5.6469 0,1.67 0.3735,3.0762 0.3955,1.3843 1.0986,2.417 0.7251,1.0108 1.7359,1.582 1.0327,0.5713 2.3291,0.5713 z"
           style=""
           id="path4860" />
        <path
           d="m 2248.0625,1589.3242 0,-23.0054 4.6802,0 0,23.0054 -4.6802,0 z m 2.3291,-26.5869 q -0.5933,0 -1.1206,-0.2197 -0.5054,-0.2197 -0.9009,-0.5933 -0.3735,-0.3955 -0.5932,-0.9009 -0.2198,-0.5273 -0.2198,-1.1206 0,-0.5932 0.2198,-1.0986 0.2197,-0.5273 0.5932,-0.9009 0.3955,-0.3955 0.9009,-0.6152 0.5273,-0.2197 1.1206,-0.2197 0.5933,0 1.0986,0.2197 0.5274,0.2197 0.9009,0.6152 0.3955,0.3736 0.6152,0.9009 0.2198,0.5054 0.2198,1.0986 0,0.5933 -0.2198,1.1206 -0.2197,0.5054 -0.6152,0.9009 -0.3735,0.3736 -0.9009,0.5933 -0.5053,0.2197 -1.0986,0.2197 z"
           style=""
           id="path4862" />
        <path
           d="m 2273.7485,1589.3242 0,-13.7329 q 0,-1.4502 -0.3515,-2.4609 -0.3516,-1.0327 -0.9668,-1.67 -0.6153,-0.6591 -1.4502,-0.9448 -0.835,-0.3076 -1.8237,-0.3076 -1.0547,0 -1.9556,0.2857 -0.9009,0.2636 -1.5601,0.8789 -0.6592,0.6152 -1.0547,1.6479 -0.3735,1.0108 -0.3735,2.4829 l 0,13.8208 -4.6802,0 0,-23.0054 4.6802,0 0,2.2193 q 1.1206,-1.4282 2.5708,-2.0874 1.4502,-0.6592 3.3618,-0.6592 1.8018,0 3.3179,0.5273 1.5161,0.5054 2.6147,1.67 1.1206,1.1645 1.7359,3.0322 0.6152,1.8677 0.6152,4.5703 l 0,13.7329 -4.6802,0 z"
           style=""
           id="path4864" />
      </g>
    </g>
  </g>
  <g
     inkscape:groupmode="layer"
     id="layer4"
     inkscape:label="Date"
     transform="translate(-2092.1055,-1427.5263)">
    <g
       style="font-style:normal;font-variant:normal;font-weight:300;font-stretch:normal;font-size:15px;line-height:125%;font-family:Overpass;-inkscape-font-specification:'Overpass, Light';text-align:start;letter-spacing:0px;word-spacing:0px;writing-mode:lr-tb;text-anchor:start;fill:#222222;fill-opacity:1;stroke:none;stroke-width:1px;stroke-linecap:butt;stroke-linejoin:miter;stroke-opacity:1"
       id="text4815">
      <path
         d="m 2117.1055,1619.7958 q 0,-0.99 0.285,-1.695 0.285,-0.72 0.735,-1.26 0.45,-0.54 1.02,-0.945 0.57,-0.405 1.14,-0.795 0.495,-0.33 0.945,-0.645 0.45,-0.33 0.795,-0.69 0.36,-0.36 0.57,-0.765 0.21,-0.42 0.21,-0.93 0,-0.855 -0.6,-1.425 -0.585,-0.585 -1.68,-0.585 -1.065,0 -1.605,0.48 -0.54,0.465 -0.735,1.215 l -0.93,-0.42 q 0.12,-0.465 0.405,-0.87 0.285,-0.405 0.72,-0.705 0.435,-0.3 0.99,-0.465 0.57,-0.18 1.245,-0.18 1.56,0 2.415,0.81 0.87,0.795 0.87,2.145 0,0.72 -0.285,1.275 -0.27,0.555 -0.72,1.02 -0.435,0.45 -0.99,0.84 -0.555,0.375 -1.125,0.735 -0.45,0.3 -0.87,0.6 -0.42,0.285 -0.78,0.63 -0.345,0.33 -0.585,0.735 -0.24,0.39 -0.33,0.885 l 5.775,0 0,1.005 -6.885,0 z"
         style=""
         id="path4826" />
      <path
         d="m 2130.4382,1619.7958 0,-2.835 -5.1,0 0,-0.555 5.52,-7.11 0.63,0 0,6.765 1.59,0 0,0.9 -1.59,0 0,2.835 -1.05,0 z m 0,-3.735 0,-4.95 -3.735,4.95 3.735,0 z"
         style=""
         id="path4828" />
      <path
         d="m 2146.5686,1619.7958 0,-7.77 -3.51,7.95 -3.27,-7.905 0,7.725 -1.05,0 0,-10.5 0.9,0 3.51,8.175 3.555,-8.175 0.915,0 0,10.5 -1.05,0 z"
         style=""
         id="path4830" />
      <path
         d="m 2154.9646,1619.7958 0,-0.75 q -0.465,0.42 -1.05,0.675 -0.57,0.255 -1.2,0.255 -1.155,0 -1.89,-0.645 -0.72,-0.66 -0.72,-1.95 0,-0.66 0.225,-1.14 0.24,-0.48 0.615,-0.78 0.39,-0.315 0.9,-0.465 0.51,-0.15 1.05,-0.15 0.48,0 0.99,0.12 0.51,0.12 1.08,0.42 l 0,-0.645 q 0,-0.585 -0.15,-0.945 -0.135,-0.36 -0.375,-0.57 -0.225,-0.21 -0.54,-0.285 -0.3,-0.075 -0.615,-0.075 -0.285,0 -0.6,0.075 -0.315,0.075 -0.615,0.195 -0.3,0.12 -0.585,0.27 -0.27,0.135 -0.48,0.285 l -0.3,-0.9 q 0.465,-0.3 1.17,-0.57 0.72,-0.27 1.515,-0.27 0.405,0 0.855,0.12 0.45,0.105 0.825,0.405 0.375,0.285 0.615,0.81 0.255,0.51 0.255,1.32 l 0,5.19 -0.975,0 z m -2.145,-0.735 q 0.345,0 0.66,-0.105 0.315,-0.105 0.585,-0.27 0.27,-0.165 0.495,-0.375 0.225,-0.225 0.405,-0.435 l 0,-1.485 q -0.375,-0.255 -0.93,-0.435 -0.54,-0.195 -1.035,-0.195 -0.39,0 -0.735,0.105 -0.345,0.09 -0.615,0.3 -0.255,0.195 -0.42,0.495 -0.15,0.3 -0.15,0.72 0,0.765 0.45,1.23 0.45,0.45 1.29,0.45 z"
         style=""
         id="path4832" />
      <path
         d="m 2158.3476,1619.7958 0,-7.665 1.05,0 0,1.08 q 0.42,-0.63 0.975,-0.945 0.555,-0.315 1.08,-0.315 0.57,0 0.96,0.315 l -0.165,1.02 q -0.15,-0.09 -0.39,-0.18 -0.225,-0.105 -0.6,-0.105 -0.255,0 -0.585,0.12 -0.315,0.12 -0.6,0.405 -0.285,0.285 -0.48,0.765 -0.195,0.465 -0.195,1.17 l 0,4.335 -1.05,0 z"
         style=""
         id="path4834" />
      <path
         d="m 2167.3204,1619.7958 q 0,-0.99 0.285,-1.695 0.285,-0.72 0.735,-1.26 0.45,-0.54 1.02,-0.945 0.57,-0.405 1.14,-0.795 0.495,-0.33 0.945,-0.645 0.45,-0.33 0.795,-0.69 0.36,-0.36 0.57,-0.765 0.21,-0.42 0.21,-0.93 0,-0.855 -0.6,-1.425 -0.585,-0.585 -1.68,-0.585 -1.065,0 -1.605,0.48 -0.54,0.465 -0.735,1.215 l -0.93,-0.42 q 0.12,-0.465 0.405,-0.87 0.285,-0.405 0.72,-0.705 0.435,-0.3 0.99,-0.465 0.57,-0.18 1.245,-0.18 1.56,0 2.415,0.81 0.87,0.795 0.87,2.145 0,0.72 -0.285,1.275 -0.27,0.555 -0.72,1.02 -0.435,0.45 -0.99,0.84 -0.555,0.375 -1.125,0.735 -0.45,0.3 -0.87,0.6 -0.42,0.285 -0.78,0.63 -0.345,0.33 -0.585,0.735 -0.24,0.39 -0.33,0.885 l 5.775,0 0,1.005 -6.885,0 z"
         style=""
         id="path4836" />
      <path
         d="m 2179.8995,1619.9758 q -1.035,0 -1.725,-0.48 -0.69,-0.48 -1.11,-1.245 -0.405,-0.78 -0.585,-1.74 -0.18,-0.975 -0.18,-1.965 0,-0.54 0.06,-1.155 0.06,-0.63 0.21,-1.23 0.165,-0.6 0.42,-1.155 0.27,-0.555 0.675,-0.975 0.405,-0.42 0.945,-0.66 0.555,-0.255 1.29,-0.255 1.035,0 1.725,0.495 0.69,0.48 1.095,1.26 0.42,0.78 0.6,1.755 0.18,0.96 0.18,1.92 0,0.555 -0.075,1.17 -0.06,0.615 -0.225,1.23 -0.15,0.6 -0.42,1.155 -0.255,0.54 -0.66,0.96 -0.405,0.42 -0.96,0.675 -0.54,0.24 -1.26,0.24 z m 0,-0.945 q 0.78,0 1.26,-0.42 0.495,-0.435 0.765,-1.095 0.27,-0.66 0.36,-1.455 0.09,-0.795 0.09,-1.515 0,-0.81 -0.105,-1.605 -0.105,-0.81 -0.39,-1.44 -0.285,-0.645 -0.765,-1.035 -0.48,-0.405 -1.215,-0.405 -0.795,0 -1.29,0.435 -0.48,0.435 -0.75,1.095 -0.27,0.66 -0.375,1.455 -0.09,0.78 -0.09,1.5 0,0.825 0.105,1.635 0.105,0.795 0.39,1.44 0.285,0.63 0.765,1.02 0.495,0.39 1.245,0.39 z"
         style=""
         id="path4838" />
      <path
         d="m 2186.9216,1619.7958 0,-8.595 -1.785,0 0,-0.6 q 0.795,0 1.35,-0.27 0.555,-0.285 0.81,-1.035 l 0.675,0 0,10.5 -1.05,0 z"
         style=""
         id="path4840" />
      <path
         d="m 2194.0314,1619.0308 q 0.495,0 0.915,-0.15 0.435,-0.165 0.75,-0.465 0.315,-0.3 0.495,-0.735 0.18,-0.435 0.18,-0.99 0,-0.465 -0.165,-0.885 -0.165,-0.42 -0.48,-0.735 -0.3,-0.33 -0.735,-0.51 -0.435,-0.195 -0.96,-0.195 -0.525,0 -0.96,0.195 -0.435,0.18 -0.75,0.51 -0.3,0.315 -0.465,0.735 -0.165,0.42 -0.165,0.885 0,0.555 0.18,0.99 0.18,0.435 0.495,0.735 0.315,0.3 0.735,0.465 0.435,0.15 0.93,0.15 z m 0,-9.915 q 0.63,0 1.17,0.225 0.555,0.21 0.945,0.585 0.39,0.375 0.615,0.87 0.225,0.495 0.225,1.035 0,0.675 -0.345,1.275 -0.33,0.585 -1.05,0.885 0.84,0.315 1.35,1.095 0.525,0.765 0.525,1.755 0,0.66 -0.255,1.245 -0.255,0.57 -0.72,0.99 -0.465,0.42 -1.095,0.66 -0.63,0.24 -1.365,0.24 -0.75,0 -1.38,-0.24 -0.615,-0.24 -1.08,-0.66 -0.465,-0.42 -0.72,-0.99 -0.255,-0.585 -0.255,-1.245 0,-0.495 0.135,-0.945 0.135,-0.45 0.375,-0.81 0.255,-0.375 0.6,-0.66 0.345,-0.285 0.75,-0.435 -0.675,-0.3 -1.035,-0.885 -0.345,-0.6 -0.345,-1.275 0,-0.54 0.225,-1.035 0.225,-0.495 0.615,-0.87 0.39,-0.375 0.93,-0.585 0.555,-0.225 1.185,-0.225 z m 0,4.56 q 0.87,0 1.38,-0.48 0.51,-0.48 0.51,-1.23 0,-0.885 -0.54,-1.395 -0.54,-0.51 -1.35,-0.51 -0.81,0 -1.35,0.51 -0.54,0.51 -0.54,1.395 0,0.75 0.51,1.23 0.51,0.48 1.38,0.48 z"
         style=""
         id="path4842" />
    </g>
  </g>
</svg>
