<?xml version="1.0" encoding="UTF-8" standalone="no"?>
<!-- Created with Inkscape (http://www.inkscape.org/) -->

<svg
   xmlns:dc="http://purl.org/dc/elements/1.1/"
   xmlns:cc="http://creativecommons.org/ns#"
   xmlns:rdf="http://www.w3.org/1999/02/22-rdf-syntax-ns#"
   xmlns:svg="http://www.w3.org/2000/svg"
   xmlns="http://www.w3.org/2000/svg"
   xmlns:sodipodi="http://sodipodi.sourceforge.net/DTD/sodipodi-0.dtd"
   xmlns:inkscape="http://www.inkscape.org/namespaces/inkscape"
   width="1213.151"
   height="1504.0286"
   viewBox="0 0 1213.151 1504.0286"
   id="svg2"
   version="1.1"
   inkscape:version="0.91 r13725"
   sodipodi:docname="EWR.svg"
   inkscape:export-filename="C:\Users\Paul Bogard\Dropbox\Documents\Websites\Flight Log\Images\Terminals\EWR.png"
   inkscape:export-xdpi="90"
   inkscape:export-ydpi="90">
  <defs
     id="defs4" />
  <sodipodi:namedview
     id="base"
     pagecolor="#ffffff"
     bordercolor="#666666"
     borderopacity="1.0"
     inkscape:pageopacity="1"
     inkscape:pageshadow="2"
     inkscape:zoom="0.5"
     inkscape:cx="491.93115"
     inkscape:cy="712.84939"
     inkscape:document-units="px"
     inkscape:current-layer="layer3"
     showgrid="false"
     units="px"
     fit-margin-top="25"
     fit-margin-left="25"
     fit-margin-right="25"
     fit-margin-bottom="25"
     inkscape:window-width="1680"
     inkscape:window-height="987"
     inkscape:window-x="1672"
     inkscape:window-y="-8"
     inkscape:window-maximized="1" />
  <metadata
     id="metadata7">
    <rdf:RDF>
      <cc:Work
         rdf:about="">
        <dc:format>image/svg+xml</dc:format>
        <dc:type
           rdf:resource="http://purl.org/dc/dcmitype/StillImage" />
        <dc:title></dc:title>
      </cc:Work>
    </rdf:RDF>
  </metadata>
  <g
     inkscape:groupmode="layer"
     id="layer2"
     inkscape:label="Terminal"
     transform="translate(-397.1761,-475.50335)">
    <path
       id="path4216"
       style="opacity:1;fill:#dddddd;fill-opacity:1;stroke:#222222;stroke-width:1.5;stroke-miterlimit:4;stroke-dasharray:none;stroke-opacity:1"
       d="m 923.15518,501.2831 -0.42713,6.25314 -6.25314,2.84234 7.24874,18.76256 7.6743,-3.69661 19.47236,39.79742 -8.10144,3.83793 8.66991,19.6137 8.81281,-3.97927 21.462,46.90326 -6.96451,3.26947 8.52858,18.90389 7.10584,-3.5537 24.8728,51.30966 5.5434,-2.98524 0.7113,1.70541 -3.9808,2.13253 3.5537,8.10145 3.9792,-1.84831 6.539,13.64479 c 0,0 -38.80207,-4.26338 -80.58888,1.8483 l 0.56847,3.55371 c 0,0 -6.39685,0.56748 -13.50346,2.4152 l 0.71137,3.98084 -11.22801,2.27387 2.98367,16.91269 -66.23273,-52.3037 -4.2635,5.68467 1.13694,9.52261 8.95414,8.67148 2.69943,28.2836 -27.71513,-22.17336 -14.07035,17.62563 49.46137,40.50721 4.4064,-5.68467 8.38568,7.53298 14.07035,-4.54931 5.11778,17.62405 -19.61527,7.10741 2.27544,5.11622 -7.81878,-0.28424 -3.41081,1.56407 -0.85269,-1.8483 -14.63882,7.10741 4.40483,8.24277 -26.86243,24.8728 14.64039,28.85364 76.32379,-32.12154 c 0,0 35.67566,-14.21377 83.57411,-9.38128 l -0.1838,1.57035 14.8792,1.97393 13.6683,3.01508 15.1759,4.62311 14.0703,5.22613 13.7689,6.73367 13.2663,7.73869 12.3618,8.44221 11.5578,9.44724 11.1558,10.55276 10.0502,10.85427 9.5478,11.75879 8.4422,12.46231 7.8392,12.76382 6.2311,13.16583 5.4272,14.57286 4.5226,14.77387 36.1809,-10.25126 c 0,0 -1.2061,-6.63316 -3.2161,-12.2613 l 18.6934,-7.13568 c 0,0 -3.7185,-11.05528 -8.2412,-21.30653 l 14.5729,-5.42714 c 0,0 1.7085,9.34674 10.2513,11.35679 l 36.4824,9.14572 -0.8041,4.0201 8.1408,1.90955 0.9045,-4.2211 43.3166,9.94974 -0.7036,3.41709 8.2412,2.01005 0.8041,-3.8191 44.9246,10.15076 -0.804,3.81909 7.5376,1.80905 1.0051,-3.7186 43.015,9.84925 -0.804,3.9196 9.3468,2.31155 0.9045,-4.0201 21.9095,4.82412 32.1608,30.35175 -3.4171,3.3166 6.9347,6.9347 3.3166,-3.4171 22.1105,20.5025 -3.015,3.4171 6.9346,6.5326 2.9146,-3.3165 6.2971,6.2703 c 4.138,3.8473 10.0248,5.1741 15.4131,3.4737 5.3882,-1.7005 9.4464,-6.1658 10.6265,-11.6913 1.1801,-5.5255 -0.7012,-11.2593 -4.9246,-15.0126 l -16.2013,-14.5461 3.1972,-3.4108 -6.9645,-6.8232 -3.2695,3.4831 -22.0305,-20.3958 3.483,-3.3401 -7.6758,-7.03519 -3.1972,3.34014 -23.2381,-21.32067 -5.3297,-16.84201 4.477,-1.27984 -3.1281,-9.59328 -4.4771,1.27826 -15.6344,-51.16676 20.1837,-21.32066 3.1266,2.701 6.5374,-6.82161 -2.9837,-3.41237 20.4664,-23.0245 3.4108,3.12658 6.1118,-6.11181 -3.5538,-3.4108 6.1967,-6.8012 c 3.6035,-4.08522 4.7416,-9.788 2.9821,-14.94347 -1.7594,-5.15546 -6.1474,-8.97328 -11.4966,-10.00313 -5.3492,-1.02987 -10.8397,0.88517 -14.3875,5.01885 l -14.989,15.9265 -3.2695,-3.12657 -6.8216,7.39007 3.5521,3.41237 -20.4664,22.1718 -3.5537,-3.26947 -6.6803,7.24874 3.1266,2.98524 -20.1822,22.17336 -3.4108,-2.84391 -6.6802,7.24875 3.4108,2.98524 -19.8979,22.4576 -3.5537,-3.55371 -7.1059,7.67431 3.6951,3.12814 -19.8995,21.60332 -54.2934,-12.50785 0.7098,-4.1206 -9.6639,-2.27544 -1.2799,4.40641 -28.9949,-6.96451 1.1369,-4.2635 -10.0911,-2.41678 -1.2798,4.69064 -22.456,-5.82757 c 0,0 -9.0965,-2.70032 -14.2133,5.54334 l -7.2488,-1.27984 c 0,0 -12.224,-26.72027 -30.8432,-49.17713 0,0 -0.1419,-3.97976 -2.8423,-6.68027 0,0 -2.4164,-3.55285 -6.1119,-4.26351 0,0 -11.0865,-11.7964 -19.4723,-19.89792 0,0 4.2639,2.27347 8.1014,-1.27984 l 26.864,-29.2792 2.9837,2.5581 6.396,-6.8216 -3.8363,-3.12815 19.8979,-22.74026 3.1266,2.41677 6.2547,-7.24874 -3.1281,-2.84391 20.1837,-23.30872 2.6994,2.69943 6.8232,-7.10584 -3.4108,-2.98524 20.0393,-23.73586 3.5537,3.12657 5.9704,-7.10584 -3.5537,-3.12657 20.0408,-22.74183 3.1266,2.98523 6.2531,-7.39164 -3.5521,-2.98367 20.1821,-23.02607 2.7011,2.27388 6.1118,-6.96451 -2.701,-2.13097 5.435,-6.91583 c 3.6789,-4.17062 4.8412,-9.99274 3.0449,-15.25597 -1.7963,-5.26324 -6.2742,-9.16061 -11.7352,-10.21199 -5.461,-1.05138 -11.0671,0.904 -14.6892,5.12406 l -14.1771,17.02575 -3.8379,-3.12657 -6.1118,7.6743 3.2694,2.84234 -19.6152,22.88316 -3.2679,-2.5581 -6.2547,7.10741 3.2695,2.98367 -19.4724,22.4576 -3.4108,-2.55811 -6.6803,7.24875 3.2695,2.98524 -19.1882,23.16739 -3.4107,-2.701 -6.539,7.39007 3.5538,2.84391 -19.3296,23.1674 -3.6965,-3.12815 -6.1103,6.82318 3.2679,2.98524 -19.8979,23.0245 -3.838,-3.12657 -6.1117,7.8172 3.695,2.70101 -17.0556,19.18812 c 0,0 -4.263,5.11591 -1.8468,7.95855 0,0 -8.5285,-6.82189 -16.0615,-11.51225 l 26.5782,-38.23335 c 0,0 -28.4257,-21.46214 -65.0958,-34.82254 l -0.5684,1.5625 c 0,0 -23.4522,-10.37489 -47.6146,-14.35459 l -5.969,-11.93938 7.8172,-3.83794 -8.8128,-18.76099 -9.2384,4.12218 c -0.1421,-0.8528 -18.3354,-39.22896 -18.3354,-39.22896 l 8.8128,-4.2635 -7.9601,-17.90829 -9.3797,4.2635 c 0,0 -25.15821,-47.04522 15.4916,-99.91832 l 11.0866,-15.35019 0.2842,-2.98524 8.1015,0.14133 0.8527,-14.49749 -40.5072,-1.98963 -0.4272,7.39164 -22.88312,-1.8483 0.28423,-8.24277 -22.45603,-1.56407 -0.42714,7.8172 -30.27323,-2.13253 0.42556,-8.24278 -20.46639,-0.8527 z m 12.15609,265.81498 2.21106,1.10553 5.52763,-0.20101 1.30654,8.44221 3.51758,-0.60301 1.50754,9.64824 -10.35176,1.90954 1.80905,7.43719 -11.35678,3.61809 -8.14071,-25.92965 -22.91457,5.42714 -5.72864,-4.62312 2.41206,-2.41206 12.96482,-0.70351 3.31659,2.71356 13.86934,-1.00502 0.1005,1.80904 5.82915,-0.3015 -0.40201,-6.23116 4.52261,-0.1005 z m 464.19913,447.83912 c -8.9181,0.1124 -17.8925,2.6186 -25.9203,7.6853 l 3.315,5.6234 c 0,0 -4.3075,1.724 -7.3225,5.457 l -4.3075,-4.1645 c 0,0 -15.0756,13.0653 -14.3577,31.1558 l -30.7239,7.7527 -0.7193,2.7293 -29.7189,7.4655 0.1429,0.7176 -25.7004,3.7328 1.4369,-10.1932 -42.7858,13.2082 -5.8873,18.9526 -37.4716,-11.9174 -4.5949,14.5006 -5.8872,15.3628 -5.3126,14.9324 -6.173,15.3628 -6.173,14.9309 -6.3176,15.2198 -6.8922,14.788 -7.3226,14.6452 -6.7478,14.9309 -7.4655,14.645 -7.1796,14.3577 -8.0402,14.3578 -8.1831,14.3561 -8.1831,13.7846 -8.615,14.2132 -8.7578,13.0654 32.7339,22.2534 26.85,60.3015 -16.3679,6.8923 16.9411,35.033 15.3627,-7.3226 20.2025,46.1291 c -14.855,9.3334 -20.152,28.447 -12.2204,44.0954 7.9315,15.6485 26.479,22.6769 42.7889,16.214 16.31,-6.4629 25.0104,-24.2873 20.0707,-41.1213 -4.9397,-16.834 -21.892,-27.1327 -39.1081,-23.7578 -0.147,-0.6411 -0.5778,-4.0861 -0.5778,-4.0861 l 1.7227,-0.8621 -3.0151,-29.7204 -23.6888,-50.6816 4.8807,-2.1529 -19.9561,-44.653 17.6587,-30.1507 -9.1882,-5.4555 20.1005,-37.6162 8.4705,5.3126 39.3404,-16.9426 1.0051,-2.2974 11.6284,5.8872 2.0101,-4.3074 16.798,8.1831 3.8772,9.6199 17.7512,7.8565 c -0.7278,16.0323 9.8701,30.3843 25.4067,34.4065 15.5367,4.0222 31.767,-3.3845 38.9103,-17.756 7.1432,-14.3716 3.2481,-31.782 -9.339,-41.7384 -12.5871,-9.9565 -30.4278,-9.739 -42.7684,0.5213 l -33.838,-15.738 70.6392,-162.0964 13.4971,-3.5883 9.6184,6.8907 22.1106,-5.3124 c 0,0 9.3323,17.5163 28.1407,23.4029 l 3.0151,-10.1932 c 0,0 4.4505,1.4356 8.7577,1.7227 l -0.4302,10.4805 c 0,0 15.9373,1.7236 28.7154,-7.1781 l -4.5948,-9.1896 c 0,0 3.4467,-1.7232 7.1797,-5.3126 l 6.8279,7.1954 c 17.8068,-17.9931 19.2796,-46.4823 3.4249,-66.217 -9.9093,-12.3343 -24.6153,-18.796 -39.4786,-18.6087 z m -151.4212,92.2346 -18.0716,41.2171 -5.8872,-2.6383 7.3084,-21.118 -20.1005,-7.1059 0.4051,-1.4212 36.3458,-8.9337 z m -631.37085,372.8926 -27.20791,26.4981 10.86212,10.2528 -13.19724,14.0107 1.9284,1.6237 -6.886,6.3489 8.32758,24.1206 -99.92932,33.5977 c 0,0 -4.73685,-13.3525 -19.66865,-18.0905 l 0.28894,-1.509 0.91394,0.2025 0.50723,-2.0304 -7.4105,-1.3191 -0.40672,1.7258 0.91395,0.2026 -0.30464,1.6253 c 0,0 -7.91877,-2.0308 -15.93907,0.8118 l -0.55906,-0.9139 0.91395,-0.559 -1.16677,-1.9285 -6.49811,3.4014 1.16833,1.9285 0.86213,-0.4052 0.6093,1.0145 c 0,0 -8.7311,4.3656 -12.48744,10.7615 l -1.06627,-0.5071 0.45698,-0.914 -1.9284,-1.1165 -3.85835,6.396 1.92996,1.217 0.65955,-0.9123 1.16677,0.7098 c 0,0 -4.16229,6.1935 -3.45163,16.3458 l -1.12438,0.036 -0.14289,-0.9752 -1.99278,0.1318 0.72236,7.0588 1.94253,-0.223 -0.0927,-1.1322 1.22331,-0.071 c 0,0 3.52618,13.6513 12.35866,20.0471 l -0.7412,1.0491 -0.93436,-0.592 -1.26884,1.776 6.13693,4.4645 1.49811,-1.9802 -0.90138,-0.6816 0.7789,-1.0913 c 0,0 7.55271,4.2152 16.23901,4.287 l 0.43184,2.5125 4.163,-0.6469 0.43028,2.2974 8.11243,-1.5798 -0.43028,-1.9377 -0.93435,0.072 -0.57318,-2.3571 c 0,0 27.99196,-9.8553 21.69755,-39.0939 l 86.05526,-28.4704 2.44033,8.9022 30.43812,-9.477 -1.4353,-5.3109 -3.73272,1.005 -1.00502,-4.1645 19.52574,-6.8907 c 0,0 33.59701,23.5455 82.98681,33.3087 l -5.88726,30.2936 -15.9375,-3.3008 -7.46544,38.0464 16.51067,3.4453 -4.163,21.3928 c 0,0 -17.08587,-0.9325 -26.20288,9.4048 l -0.71766,-0.7899 0.71766,-1.0772 -1.79492,-1.2924 -4.52261,5.4569 1.72425,1.2925 0.78831,-1.005 0.78989,0.7882 c 0,0 -5.024,5.3134 -6.10081,14.5022 l -1.32853,0 0.0361,-0.9343 -2.79993,-0.071 -0.53863,8.6496 2.5848,0.072 0.0707,-1.005 1.54366,0.036 c 0,0 -0.50139,9.6915 2.94441,14.8602 l -1.7164,1.1134 -0.65954,-0.8637 -1.42274,1.0663 4.4174,6.6504 1.62374,-1.1165 -0.65955,-1.016 1.92839,-1.3191 c 0,0 3.40146,6.1417 11.67557,10.5072 l -0.45697,1.1165 -1.01445,-0.4569 -0.96577,2.1828 6.80276,3.0465 0.91395,-2.1326 -1.06627,-0.559 0.50722,-1.1668 c 0,0 8.17207,2.7409 15.98932,1.1165 l 0.20415,1.4714 -1.01602,0.2042 0.2544,2.131 7.86746,-1.2689 -0.40515,-2.0304 -1.01602,0.2041 -0.40515,-1.5233 c 0,0 8.12081,-2.5379 12.13096,-7.5125 l 0.91395,0.7098 -0.81187,1.0663 1.67556,1.3708 6.03958,-6.7508 -1.62375,-1.269 -0.86369,0.7098 -1.01445,-0.9139 c 0,0 5.53205,-6.0404 6.34423,-13.7562 l 1.2704,0.102 -0.0518,1.1668 2.5895,0.1523 0.45698,-7.7654 -2.58951,-0.102 -0.1005,0.9139 -1.52324,-0.052 c 0,0 0.60864,-9.3393 -5.88882,-19.2886 l 7.1074,-5.6846 -12.38693,-13.0968 -0.91394,11.8782 c 0,0 -4.36418,-4.6708 -11.06469,-6.8028 l 6.29396,-31.0662 13.90861,3.3511 5.98932,-27.5126 -14.82255,-3.0465 6.39604,-31.2688 c 0,0 4.97583,1.2192 8.63065,1.6253 l 0,4.8728 5.5826,0.3046 51.98021,0.6093 6.80276,-0.5087 -0.10207,-5.4821 c 0,0 10.86332,-0.8122 15.43185,-2.0305 l 25.07537,21.2186 -10.3549,12.7921 59.3907,47.9193 10.65954,-12.5895 30.2544,24.2635 c 0,0 -4.41706,6.3969 -5.07695,14.1127 l -5.88725,-0.1021 0,-0.8636 -1.82789,0.051 -0.15232,4.518 2.03046,0.05 0,-0.914 5.68467,0.05 c 0,0 -0.50725,7.3617 1.37092,12.6916 l -5.38003,1.674 -0.30464,-0.8621 -1.98021,0.7615 1.87813,4.7205 1.82789,-0.6595 -0.35489,-0.9139 5.32977,-1.9284 c 0,0 1.72501,4.3653 6.64886,9.3906 l -4.16143,3.7563 -0.55904,-0.6595 -1.62374,1.674 3.39981,3.604 1.47298,-1.3694 -0.60929,-0.7616 4.67023,-4.2133 c 0,0 6.90393,6.9025 15.43185,7.9178 l -0.16176,5.2905 -1.16677,-0.1021 -0.15232,2.2848 5.5826,0.3047 0.10207,-2.2346 -1.16834,-0.05 0.16175,-5.2136 c 0,0 9.23794,0.9904 17.56281,-2.8674 l 3.04648,5.5324 -0.81187,0.559 1.21702,2.0305 4.46765,-2.3352 -1.11651,-1.8781 -0.91395,0.457 -2.99466,-5.7365 c 0,0 8.37576,-4.1616 12.48744,-12.7402 l 5.83699,2.9428 -0.30465,0.8134 1.62531,0.9642 2.18279,-3.706 -1.57349,-0.8637 -0.30464,0.6093 -6.24373,-3.1973 c 0,0 3.75503,-8.0203 2.94285,-18.2741 l 6.54836,-0.1524 0.15232,0.7617 1.87814,-0.05 -0.15232,-4.8744 -2.08071,0.1021 0,0.7616 -6.54837,0.3047 c 0,0 -2.33443,-9.3405 -7.71514,-15.2796 l 4.06093,-4.3153 0.81187,0.6093 1.42117,-1.6237 -3.70603,-3.6558 -1.57349,1.6756 0.81187,0.7113 -4.36401,4.1112 c 0,0 -7.56386,-7.3093 -15.58416,-8.7814 l 0.30465,-4.9749 1.72581,0.3549 0.3549,-2.6397 -6.04115,-0.8622 -0.30464,2.588 1.67556,0.1523 -0.60929,5.179 c 0,0 -6.49759,-0.7628 -12.48744,0.7601 l -1.11652,-5.1775 1.21859,-0.3046 -0.50722,-2.131 -6.09139,1.5217 0.50722,2.1325 1.3191,-0.4051 1.21859,5.278 c 0,0 -8.32389,2.9446 -12.28329,7.9192 L 814.58579,1791.842 c 0,0 18.37591,-3.2499 33.09672,-10.0519 l -4.46608,-14.0091 16.85302,-6.2955 -15.02669,-35.8369 -4.06094,1.5232 -1.21702,-3.0465 -14.01068,5.1774 -14.5179,4.3656 -14.5179,3.4516 -14.41583,2.1326 -15.53391,0.9139 -15.2277,0 -15.53235,-1.016 -14.61997,-2.3351 -14.5179,-3.7563 -14.72048,-4.7707 -13.50345,-5.1775 -12.79052,-6.8027 -12.79207,-7.8173 -13.09673,-8.9337 -12.28487,-9.1378 -10.96419,-10.3549 z"
       inkscape:connector-curvature="0" />
  </g>
  <g
     inkscape:groupmode="layer"
     id="layer3"
     inkscape:label="Label">
    <g
       id="g4248"
       transform="translate(104,120)">
      <g
         style="font-style:normal;font-variant:normal;font-weight:bold;font-stretch:normal;font-size:125px;line-height:110.00000238%;font-family:Overpass;-inkscape-font-specification:'Overpass, Bold';text-align:center;letter-spacing:0px;word-spacing:0px;writing-mode:lr-tb;text-anchor:middle;fill:#dddddd;fill-opacity:1;stroke:#222222;stroke-width:0.25;stroke-linecap:butt;stroke-linejoin:miter;stroke-miterlimit:4;stroke-dasharray:none;stroke-opacity:1"
         id="text4240">
        <path
           d="m 75.704147,677.21722 0,-87.52441 59.753423,0 0,16.05225 -42.846684,0 0,18.37158 25.207524,0 0,15.99121 -25.207524,0 0,21.11816 45.471194,0 0,15.99121 -62.377933,0 z"
           style=""
           id="path4255" />
        <path
           d="m 248.43364,589.69281 -18.9209,87.52441 -15.74707,0 -13.24463,-51.51367 q -0.54931,-2.07519 -0.79346,-3.66211 -0.24414,-1.64795 -0.42724,-2.92968 -0.18311,1.28173 -0.48828,2.92968 -0.30518,1.58692 -0.79346,3.54004 l -12.87842,51.63574 -15.74707,0 -18.73779,-87.52441 17.39502,0 9.76562,49.25537 q 0.48828,2.2583 0.67139,3.72315 0.24414,1.46484 0.42725,2.80761 0.1831,-1.34277 0.42724,-2.80761 0.24414,-1.52588 0.79346,-3.84522 l 12.02393,-49.1333 14.64843,0 12.20703,49.1333 q 0.61036,2.31934 0.8545,3.84522 0.24414,1.46484 0.42724,2.80761 0.18311,-1.34277 0.36621,-2.80761 0.24414,-1.46485 0.73243,-3.72315 l 9.76562,-49.25537 17.27295,0 z"
           style=""
           id="path4257" />
        <path
           d="m 265.40141,677.21722 0,-87.52441 40.64942,0 q 8.30078,0 13.85498,2.31934 5.61523,2.2583 9.0332,6.04248 3.41797,3.78418 4.88281,8.72802 1.46485,4.94385 1.46485,10.31495 0,3.72314 -1.09864,7.56835 -1.03759,3.78418 -3.17382,7.20215 -2.13623,3.41797 -5.31006,6.22559 -3.17383,2.74658 -7.38526,4.27246 l 16.96778,34.85107 -18.98194,0 -16.35742,-32.6538 -17.63916,0 0,32.6538 -16.90674,0 z m 40.89356,-48.64502 q 3.23486,0 5.43213,-0.91552 2.19726,-0.97657 3.54004,-2.56348 1.34277,-1.58691 1.89209,-3.66211 0.61035,-2.07519 0.61035,-4.33349 0,-2.0752 -0.54932,-4.08936 -0.48828,-2.0752 -1.77002,-3.66211 -1.28174,-1.64795 -3.54004,-2.62451 -2.19726,-0.97656 -5.61523,-0.97656 l -23.98682,0 0,22.82714 23.98682,0 z"
           style=""
           id="path4259" />
      </g>
      <g
         style="font-style:normal;font-variant:normal;font-weight:normal;font-stretch:normal;font-size:45px;line-height:110.00000238%;font-family:Overpass;-inkscape-font-specification:'Overpass, Normal';text-align:center;letter-spacing:0px;word-spacing:0px;writing-mode:lr-tb;text-anchor:middle;fill:#222222;fill-opacity:1;stroke:none;stroke-width:1px;stroke-linecap:butt;stroke-linejoin:miter;stroke-opacity:1"
         id="text4244">
        <path
           d="m 149.75078,724.8399 -13.62305,-21.37939 -1.27441,-2.3291 0.13183,2.3291 0,21.37939 -4.68017,0 0,-31.50878 4.72412,0 13.29346,21.02783 1.29638,2.41699 -0.13183,-2.37305 0,-21.07177 4.68017,0 0,31.50878 -4.4165,0 z"
           style=""
           id="path4262" />
        <path
           d="m 170.95439,725.38922 q -2.39502,0 -4.32861,-0.81299 -1.9336,-0.83496 -3.2959,-2.37304 -1.3623,-1.56006 -2.10938,-3.80127 -0.72509,-2.24121 -0.72509,-5.07569 0,-2.83447 0.74707,-5.05371 0.74707,-2.24121 2.10937,-3.77929 1.38428,-1.56006 3.2959,-2.37305 1.93359,-0.81299 4.30664,-0.81299 2.04346,0 3.82324,0.65918 1.80176,0.63721 3.14209,1.97754 1.36231,1.31836 2.13135,3.33984 0.79102,2.02149 0.79102,4.76807 0,0.74707 -0.044,1.58203 -0.022,0.83496 -0.13183,1.4502 l -15.49073,0 q 0.022,1.42822 0.50537,2.5708 0.50538,1.1206 1.31836,1.93359 0.81299,0.79102 1.84571,1.23047 1.03271,0.41748 2.15332,0.41748 1.42822,0 2.63672,-0.59326 1.23046,-0.59326 2.13134,-1.73584 l 3.0542,3.14209 q -1.25244,1.49414 -3.20801,2.41699 -1.95556,0.92285 -4.6582,0.92285 z m 0,-19.95117 q -1.09863,0 -2.10937,0.32959 -1.01075,0.30762 -1.80176,1.01074 -0.76904,0.68115 -1.27442,1.80176 -0.50537,1.1206 -0.59326,2.72461 l 10.98633,0 q -0.0439,-1.60401 -0.50537,-2.72461 -0.46143,-1.12061 -1.2085,-1.80176 -0.74707,-0.70312 -1.66992,-1.01074 -0.90088,-0.32959 -1.82373,-0.32959 z"
           style=""
           id="path4264" />
        <path
           d="m 207.84648,724.8399 -4.15283,0 -3.82324,-13.35937 q -0.10987,-0.39551 -0.2417,-0.81299 -0.10987,-0.41748 -0.21973,-0.79101 -0.0879,-0.39551 -0.17578,-0.7251 -0.0659,-0.32959 -0.0879,-0.54932 -0.0439,0.21973 -0.10986,0.57129 -0.0439,0.32959 -0.13184,0.7251 -0.0879,0.39551 -0.19775,0.81299 -0.10987,0.41748 -0.21973,0.81299 l -3.7793,13.31542 -4.15283,0 -6.1084,-23.00537 4.59229,0 3.22998,14.32618 q 0.17578,0.74707 0.26367,1.31835 0.10986,0.54932 0.19775,1.01075 0.0659,-0.46143 0.17579,-1.05469 0.13183,-0.59326 0.30761,-1.27441 l 3.82324,-14.32618 4.32862,0 3.82324,14.32618 q 0.17578,0.68115 0.28564,1.27441 0.13184,0.59326 0.19776,1.05469 0.0659,-0.46143 0.17578,-1.01075 0.10986,-0.57128 0.28564,-1.31835 l 3.22998,-14.32618 4.59229,0 -6.1084,23.00537 z"
           style=""
           id="path4266" />
        <path
           d="m 236.56474,724.8399 -4.48242,0 0,-1.97753 q -0.43945,0.46142 -1.05469,0.92285 -0.61523,0.43945 -1.40625,0.81299 -0.76904,0.35156 -1.73584,0.57128 -0.96679,0.21973 -2.10937,0.21973 -1.75781,0 -3.25195,-0.4834 -1.49414,-0.4834 -2.59278,-1.45019 -1.09863,-0.98877 -1.73584,-2.41699 -0.61523,-1.4502 -0.61523,-3.36182 0,-1.97754 0.74707,-3.40576 0.74707,-1.4502 1.97754,-2.37305 1.23047,-0.94482 2.8125,-1.38428 1.604,-0.43945 3.2959,-0.43945 1.58203,0 3.03222,0.35156 1.47217,0.32959 2.63672,1.01074 l 0,-1.27441 q 0,-1.29639 -0.30762,-2.19727 -0.28564,-0.90087 -0.90087,-1.45019 -0.59327,-0.57129 -1.51612,-0.81299 -0.92285,-0.26367 -2.19726,-0.26367 -2.15332,0 -3.73536,0.57129 -1.56005,0.57129 -2.83447,1.51611 l -1.38428,-3.84521 q 0.70313,-0.4834 1.60401,-0.90088 0.90088,-0.43946 1.97754,-0.76905 1.07666,-0.32958 2.3291,-0.50537 1.25244,-0.19775 2.68066,-0.19775 0.9668,0 1.99951,0.10986 1.03272,0.10987 1.99952,0.43946 0.98877,0.30761 1.8457,0.90088 0.87891,0.59326 1.51611,1.56005 0.65918,0.94483 1.03272,2.32911 0.37353,1.38427 0.37353,3.29589 l 0,14.89746 z m -9.93164,-3.60351 q 1.77979,0 3.14209,-0.7251 1.38428,-0.7251 2.30713,-1.73584 l 0,-3.51562 q -0.9668,-0.50537 -2.26318,-0.81299 -1.29639,-0.30762 -2.65869,-0.30762 -1.05469,0 -1.97754,0.19776 -0.92285,0.19775 -1.62598,0.6372 -0.68115,0.41748 -1.07666,1.09863 -0.39551,0.65918 -0.39551,1.60401 0,1.64795 1.14258,2.61474 1.16455,0.94483 3.40576,0.94483 z"
           style=""
           id="path4268" />
        <path
           d="m 242.93681,724.8399 0,-23.00537 4.68018,0 0,2.79053 q 0.81299,-1.75781 2.10937,-2.52685 1.29639,-0.79102 3.01026,-0.79102 2.28515,0 3.86719,1.38428 l -0.68116,4.32861 q -0.6372,-0.43945 -1.51611,-0.76904 -0.85693,-0.35156 -2.10938,-0.35156 -0.79101,0 -1.62597,0.28564 -0.81299,0.26367 -1.49414,0.9668 -0.68115,0.68115 -1.12061,1.8457 -0.43945,1.14258 -0.43945,2.92236 l 0,12.91992 -4.68018,0 z"
           style=""
           id="path4270" />
        <path
           d="m 261.13017,724.8399 0,-30.27832 4.68018,-2.21923 0,16.61132 6.78955,-7.11914 5.75684,0 -6.30616,6.39405 8.63526,16.61132 -5.11963,0 -6.78955,-13.22753 -2.96631,2.9663 0,10.26123 -4.68018,0 z"
           style=""
           id="path4272" />
      </g>
    </g>
  </g>
</svg>
