<?xml version="1.0" encoding="UTF-8" standalone="no"?>
<!-- Created with Inkscape (http://www.inkscape.org/) -->

<svg
   xmlns:dc="http://purl.org/dc/elements/1.1/"
   xmlns:cc="http://creativecommons.org/ns#"
   xmlns:rdf="http://www.w3.org/1999/02/22-rdf-syntax-ns#"
   xmlns:svg="http://www.w3.org/2000/svg"
   xmlns="http://www.w3.org/2000/svg"
   xmlns:sodipodi="http://sodipodi.sourceforge.net/DTD/sodipodi-0.dtd"
   xmlns:inkscape="http://www.inkscape.org/namespaces/inkscape"
   width="392.89709"
   height="221.02843"
   viewBox="0 0 392.89709 221.02843"
   id="svg2"
   version="1.1"
   inkscape:version="0.91 r13725"
   sodipodi:docname="FLG.svg"
   inkscape:export-filename="C:\Users\paulb\Dropbox\Projects\Terminal Silhouettes\Silhouettes\png\FLG.png"
   inkscape:export-xdpi="90"
   inkscape:export-ydpi="90">
  <defs
     id="defs4" />
  <sodipodi:namedview
     id="base"
     pagecolor="#ffffff"
     bordercolor="#666666"
     borderopacity="1.0"
     inkscape:pageopacity="1"
     inkscape:pageshadow="2"
     inkscape:zoom="1"
     inkscape:cx="90.28817"
     inkscape:cy="234.88537"
     inkscape:document-units="px"
     inkscape:current-layer="layer3"
     showgrid="false"
     units="px"
     fit-margin-top="25"
     fit-margin-left="25"
     fit-margin-right="25"
     fit-margin-bottom="25"
     showguides="true"
     inkscape:guide-bbox="true"
     inkscape:window-width="1920"
     inkscape:window-height="1137"
     inkscape:window-x="1912"
     inkscape:window-y="-8"
     inkscape:window-maximized="1"
     inkscape:object-nodes="true" />
  <metadata
     id="metadata7">
    <rdf:RDF>
      <cc:Work
         rdf:about="">
        <dc:format>image/svg+xml</dc:format>
        <dc:type
           rdf:resource="http://purl.org/dc/dcmitype/StillImage" />
        <dc:title></dc:title>
        <dc:description>Terminal silhouette for FLG (Flagstaff)</dc:description>
      </cc:Work>
    </rdf:RDF>
  </metadata>
  <g
     inkscape:groupmode="layer"
     id="layer2"
     inkscape:label="Terminal"
     transform="translate(-397.10571,-468.06279)">
    <path
       style="opacity:1;fill:#dddddd;fill-opacity:1;stroke:#222222;stroke-width:1.5;stroke-linejoin:miter;stroke-miterlimit:4;stroke-dasharray:none;stroke-dashoffset:0;stroke-opacity:1"
       d="m 679.98126,617.31209 0.36292,2.34113 -7.26467,1.12619 0.67572,4.35886 7.26468,-1.12618 0.28782,1.85667 -4.11664,0.63817 5.69371,36.72824 23.0058,-3.56642 -0.66319,-4.27803 15.57911,-2.41511 0.33786,2.17943 6.13501,-0.95106 -0.33787,-2.17944 3.39027,-0.52556 0.1877,1.21083 5.5697,-0.86343 -1.16378,-7.50722 29.22134,-4.52997 -4.05444,-26.15383 -3.59223,0.55688 -0.28783,-1.85667 7.30557,-1.13253 -0.67573,-4.35887 -7.30556,1.13253 -0.36293,-2.34113 -23.16718,3.59144 0.36293,2.34113 -28.85799,4.47364 -0.36293,-2.34113 -23.16717,3.59144 z m 5.64006,5.98667 13.72244,-2.12729 0.28783,1.85667 -13.72245,2.12729 -0.28782,-1.85667 z m 18.56576,-2.87811 28.85799,-4.47364 0.28783,1.85667 -28.85799,4.47364 -0.28783,-1.85667 z m 33.4594,-5.18697 13.72244,-2.12729 0.28783,1.85668 -13.72244,2.12728 -0.28783,-1.85667 z"
       id="rect4150"
       inkscape:connector-curvature="0" />
  </g>
  <g
     inkscape:groupmode="layer"
     id="layer3"
     inkscape:label="Label"
     transform="translate(-397.10571,-468.06279)">
    <g
       style="font-style:normal;font-variant:normal;font-weight:bold;font-stretch:normal;font-size:125px;line-height:125%;font-family:Overpass;-inkscape-font-specification:'Overpass, Bold';text-align:start;letter-spacing:0px;word-spacing:0px;writing-mode:lr-tb;text-anchor:start;fill:#dddddd;fill-opacity:1;stroke:#222222;stroke-width:0.25;stroke-linecap:butt;stroke-linejoin:miter;stroke-miterlimit:4;stroke-dasharray:none;stroke-opacity:1"
       id="text4198">
      <path
         d="m 422.23071,582.17706 0,-87.52441 58.65479,0 0,16.05225 -41.74805,0 0,18.37158 26.48926,0 0,15.99121 -26.48926,0 0,37.10937 -16.90674,0 z"
         id="path4254"
         inkscape:connector-curvature="0" />
      <path
         d="m 496.44946,582.17706 0,-87.52441 16.90674,0 0,71.28906 42.23633,0 0,16.23535 -59.14307,0 z"
         id="path4256"
         inkscape:connector-curvature="0" />
      <path
         d="m 604.11548,583.70294 q -6.7749,0 -12.26807,-1.77002 -5.49316,-1.77002 -9.76562,-4.88281 -4.27246,-3.11279 -7.38526,-7.38525 -3.11279,-4.3335 -5.12695,-9.33838 -2.01416,-5.00489 -2.99072,-10.55908 -0.97657,-5.61524 -0.97657,-11.35254 0,-5.31006 0.97657,-10.74219 1.0376,-5.43213 3.11279,-10.43701 2.13623,-5.06592 5.24902,-9.46045 3.17383,-4.39453 7.44629,-7.6294 4.3335,-3.23486 9.70459,-5.06591 5.43213,-1.89209 12.02393,-1.89209 6.34765,0 11.16943,1.58691 4.88281,1.58691 8.60596,4.21143 3.78418,2.56347 6.53076,5.98144 2.80762,3.35693 5.06592,6.95801 l -14.89258,8.48388 q -1.46484,-2.19726 -3.17383,-4.15039 -1.70898,-2.01416 -3.72314,-3.54003 -1.95313,-1.52588 -4.3335,-2.38038 -2.38037,-0.91552 -5.24902,-0.91552 -4.08936,0 -7.20215,1.28174 -3.11279,1.2207 -5.49316,3.41796 -2.31934,2.13623 -3.90625,5.00489 -1.58692,2.86865 -2.56348,6.10351 -0.97656,3.23487 -1.40381,6.65283 -0.42725,3.35694 -0.42725,6.53077 0,5.5542 1.15967,10.80322 1.15967,5.18799 3.66211,9.27734 2.56348,4.02832 6.53076,6.46973 4.02832,2.44141 9.64356,2.44141 3.17383,0 5.92041,-1.09864 2.80762,-1.15967 4.88281,-3.05176 2.0752,-1.95312 3.23486,-4.57763 1.22071,-2.62451 1.22071,-5.61524 l 0,-0.73242 -14.89258,0 0,-16.05224 32.10449,0 0,12.87841 q 0,8.42286 -2.50244,14.89258 -2.50244,6.40869 -6.89697,10.80322 -4.3335,4.3335 -10.25391,6.5918 -5.92041,2.2583 -12.81738,2.2583 z"
         id="path4258"
         inkscape:connector-curvature="0" />
    </g>
    <g
       style="font-style:normal;font-variant:normal;font-weight:normal;font-stretch:normal;font-size:45px;line-height:125%;font-family:Overpass;-inkscape-font-specification:'Overpass, Normal';text-align:start;letter-spacing:0px;word-spacing:0px;writing-mode:lr-tb;text-anchor:start;fill:#222222;fill-opacity:1;stroke:none;stroke-width:1px;stroke-linecap:butt;stroke-linejoin:miter;stroke-opacity:1"
       id="text4202">
      <path
         d="m 422.10571,631.32562 0,-31.50879 19.53369,0 0,4.41651 -14.85351,0 0,8.63525 9.60205,0 0,4.41651 -9.60205,0 0,14.04052 -4.68018,0 z"
         id="path4235"
         inkscape:connector-curvature="0" />
      <path
         d="m 446.80298,631.32562 0,-30.27832 4.68017,-2.21924 0,32.49756 -4.68017,0 z"
         id="path4237"
         inkscape:connector-curvature="0" />
      <path
         d="m 476.07056,631.32562 -4.48243,0 0,-1.97754 q -0.43945,0.46143 -1.05468,0.92286 -0.61524,0.43945 -1.40625,0.81298 -0.76905,0.35157 -1.73584,0.57129 -0.9668,0.21973 -2.10938,0.21973 -1.75781,0 -3.25195,-0.4834 -1.49414,-0.4834 -2.59277,-1.45019 -1.09864,-0.98877 -1.73584,-2.417 -0.61524,-1.45019 -0.61524,-3.36181 0,-1.97754 0.74707,-3.40577 0.74707,-1.45019 1.97754,-2.37304 1.23047,-0.94483 2.8125,-1.38428 1.604,-0.43945 3.2959,-0.43945 1.58203,0 3.03223,0.35156 1.47216,0.32959 2.63671,1.01074 l 0,-1.27441 q 0,-1.29639 -0.30761,-2.19727 -0.28565,-0.90088 -0.90088,-1.45019 -0.59326,-0.57129 -1.51611,-0.81299 -0.92286,-0.26367 -2.19727,-0.26367 -2.15332,0 -3.73535,0.57129 -1.56006,0.57129 -2.83447,1.51611 l -1.38428,-3.84522 q 0.70312,-0.48339 1.604,-0.90087 0.90088,-0.43946 1.97754,-0.76905 1.07666,-0.32959 2.3291,-0.50537 1.25244,-0.19775 2.68067,-0.19775 0.96679,0 1.99951,0.10986 1.03271,0.10986 1.99951,0.43945 0.98877,0.30762 1.8457,0.90088 0.87891,0.59326 1.51612,1.56006 0.65918,0.94483 1.03271,2.3291 0.37354,1.38428 0.37354,3.2959 l 0,14.89746 z m -9.93164,-3.60351 q 1.77978,0 3.14209,-0.7251 1.38427,-0.7251 2.30712,-1.73584 l 0,-3.51563 q -0.96679,-0.50537 -2.26318,-0.81298 -1.29639,-0.30762 -2.65869,-0.30762 -1.05469,0 -1.97754,0.19775 -0.92285,0.19776 -1.62598,0.63721 -0.68115,0.41748 -1.07666,1.09863 -0.3955,0.65918 -0.3955,1.60401 0,1.64795 1.14257,2.61474 1.16456,0.94483 3.40577,0.94483 z"
         id="path4239"
         inkscape:connector-curvature="0" />
      <path
         d="m 487.78198,636.7309 q 2.52686,-0.15381 4.17481,-0.59327 1.64795,-0.43945 2.61474,-1.1206 0.9668,-0.65918 1.34034,-1.56006 0.37353,-0.90088 0.37353,-1.95557 l 0,-2.02148 q -1.91162,2.39502 -5.53711,2.39502 -1.97754,0 -3.69141,-0.74707 -1.71386,-0.76904 -3.01025,-2.28516 -1.27441,-1.51611 -2.02148,-3.75732 -0.7251,-2.26319 -0.7251,-5.27344 0,-2.83447 0.70312,-5.05371 0.70313,-2.24121 1.95557,-3.7793 1.27441,-1.56006 3.03223,-2.37304 1.75781,-0.81299 3.86718,-0.81299 1.01075,0 1.84571,0.19775 0.83496,0.17578 1.49414,0.4834 0.68115,0.30762 1.18652,0.70313 0.52735,0.37353 0.90088,0.76904 l 0,-1.62598 4.68018,0 0,21.24756 q 0,2.63672 -0.52735,4.48242 -0.52734,1.84571 -1.80176,3.16406 -0.85693,0.87891 -1.88964,1.42823 -1.01075,0.57129 -2.13135,0.92285 -1.09863,0.35156 -2.24121,0.50537 -1.14258,0.17578 -2.24121,0.26367 l -2.35108,-3.60351 z m 3.82324,-9.27246 q 1.42823,0 2.6587,-0.70313 1.25244,-0.70312 2.02148,-1.99951 l 0,-9.95361 q -0.35156,-0.57129 -0.87891,-1.03272 -0.50537,-0.4834 -1.1206,-0.83496 -0.59326,-0.35156 -1.29639,-0.52734 -0.68115,-0.19776 -1.38428,-0.19776 -2.74658,0 -4.19677,1.95557 -1.42823,1.93359 -1.42823,5.64697 0,1.75781 0.39551,3.18604 0.39551,1.40625 1.12061,2.39502 0.7251,0.98876 1.75781,1.53808 1.05469,0.52735 2.35107,0.52735 z"
         id="path4241"
         inkscape:connector-curvature="0" />
      <path
         d="m 514.85229,631.87494 q -1.3623,0 -2.65869,-0.26367 -1.29638,-0.26367 -2.43896,-0.74707 -1.12061,-0.4834 -2.04346,-1.16455 -0.92285,-0.70313 -1.53808,-1.56006 l 3.31787,-2.83448 q 0.35156,0.32959 0.85693,0.74708 0.50537,0.3955 1.16455,0.74707 0.65918,0.35156 1.47217,0.59326 0.81299,0.2417 1.77978,0.2417 0.87891,0 1.62598,-0.13184 0.74707,-0.13184 1.27441,-0.41748 0.54932,-0.28564 0.83497,-0.74707 0.30761,-0.4834 0.30761,-1.18652 0,-0.81299 -0.57129,-1.38428 -0.54931,-0.59326 -1.45019,-1.05469 -0.90088,-0.4834 -2.04346,-0.90088 -1.14258,-0.43945 -2.30713,-0.92285 -1.07666,-0.46142 -2.10937,-1.01074 -1.03272,-0.54932 -1.84571,-1.31836 -0.79101,-0.76904 -1.29638,-1.82373 -0.4834,-1.07666 -0.4834,-2.59277 0,-1.53809 0.61523,-2.72461 0.63721,-1.18653 1.71387,-1.97754 1.09863,-0.81299 2.54883,-1.23047 1.47217,-0.41748 3.14209,-0.41748 1.47217,0 2.70264,0.28564 1.25244,0.28565 2.24121,0.76905 1.01074,0.48339 1.77978,1.1206 0.76904,0.61524 1.34033,1.29639 l -3.38379,2.68066 q -0.30761,-0.30762 -0.74707,-0.63721 -0.41748,-0.35156 -0.98877,-0.6372 -0.57128,-0.28565 -1.29638,-0.46143 -0.7251,-0.19775 -1.64795,-0.19775 -1.49414,0 -2.37305,0.54931 -0.85693,0.54932 -0.85693,1.58204 0,0.65918 0.46142,1.16455 0.46143,0.48339 1.25245,0.90088 0.79101,0.41748 1.80175,0.81298 1.03272,0.37354 2.15332,0.81299 1.18653,0.46143 2.32911,1.03272 1.14257,0.57129 2.02148,1.40625 0.90088,0.83496 1.42822,2.02148 0.54932,1.18652 0.54932,2.85645 0,1.64795 -0.61524,2.92236 -0.61523,1.25244 -1.75781,2.10937 -1.1206,0.83497 -2.72461,1.25245 -1.58203,0.43945 -3.5376,0.43945 z"
         id="path4243"
         inkscape:connector-curvature="0" />
      <path
         d="m 535.77026,631.87494 q -1.3623,0 -2.35107,-0.41748 -0.9668,-0.39551 -1.604,-1.14258 -0.61524,-0.74707 -0.90088,-1.80176 -0.28565,-1.07666 -0.28565,-2.37304 l 0,-13.75489 -3.55957,0 0,-4.06494 3.55957,0 0,-7.229 4.68018,-2.26319 0,9.49219 5.44922,0 0,4.06494 -5.44922,0 0,12.54639 q 0,0.57129 0.0879,1.05469 0.10986,0.4834 0.35156,0.83496 0.26367,0.35156 0.70313,0.54931 0.43945,0.17579 1.1206,0.17579 1.66992,0 3.40576,-1.07666 l -0.57129,4.35058 q -0.96679,0.4834 -2.10937,0.76904 -1.14258,0.28565 -2.52686,0.28565 z"
         id="path4245"
         inkscape:connector-curvature="0" />
      <path
         d="m 563.7854,631.32562 -4.48242,0 0,-1.97754 q -0.43945,0.46143 -1.05469,0.92286 -0.61523,0.43945 -1.40625,0.81298 -0.76904,0.35157 -1.73584,0.57129 -0.9668,0.21973 -2.10937,0.21973 -1.75782,0 -3.25196,-0.4834 -1.49414,-0.4834 -2.59277,-1.45019 -1.09863,-0.98877 -1.73584,-2.417 -0.61523,-1.45019 -0.61523,-3.36181 0,-1.97754 0.74707,-3.40577 0.74707,-1.45019 1.97753,-2.37304 1.23047,-0.94483 2.8125,-1.38428 1.60401,-0.43945 3.2959,-0.43945 1.58203,0 3.03223,0.35156 1.47217,0.32959 2.63672,1.01074 l 0,-1.27441 q 0,-1.29639 -0.30762,-2.19727 -0.28564,-0.90088 -0.90088,-1.45019 -0.59326,-0.57129 -1.51611,-0.81299 -0.92285,-0.26367 -2.19727,-0.26367 -2.15332,0 -3.73535,0.57129 -1.56006,0.57129 -2.83447,1.51611 l -1.38428,-3.84522 q 0.70313,-0.48339 1.60401,-0.90087 0.90087,-0.43946 1.97753,-0.76905 1.07667,-0.32959 2.32911,-0.50537 1.25244,-0.19775 2.68066,-0.19775 0.9668,0 1.99951,0.10986 1.03272,0.10986 1.99951,0.43945 0.98877,0.30762 1.84571,0.90088 0.8789,0.59326 1.51611,1.56006 0.65918,0.94483 1.03272,2.3291 0.37353,1.38428 0.37353,3.2959 l 0,14.89746 z m -9.93164,-3.60351 q 1.77978,0 3.14209,-0.7251 1.38428,-0.7251 2.30713,-1.73584 l 0,-3.51563 q -0.9668,-0.50537 -2.26319,-0.81298 -1.29638,-0.30762 -2.65869,-0.30762 -1.05468,0 -1.97754,0.19775 -0.92285,0.19776 -1.62597,0.63721 -0.68115,0.41748 -1.07666,1.09863 -0.39551,0.65918 -0.39551,1.60401 0,1.64795 1.14258,2.61474 1.16455,0.94483 3.40576,0.94483 z"
         id="path4247"
         inkscape:connector-curvature="0" />
      <path
         d="m 576.44165,612.38519 0,18.94043 -4.68018,0 0,-18.94043 -3.40576,0 0,-4.06494 3.40576,0 0,-3.66943 q 0,-1.58203 0.46143,-2.61475 0.46143,-1.05469 1.18652,-1.64795 0.74707,-0.61523 1.6919,-0.85693 0.94482,-0.2417 1.93359,-0.2417 1.36231,0 2.46094,0.28564 1.09863,0.28565 2.13135,0.79102 l 0,3.86719 q -1.05469,-0.43946 -1.82373,-0.61524 -0.76905,-0.19775 -1.47217,-0.19775 -0.57129,0 -0.94483,0.15381 -0.35156,0.15381 -0.57128,0.43945 -0.21973,0.28565 -0.30762,0.65918 -0.0659,0.37354 -0.0659,0.81299 l 0,2.83447 5.18555,0 0,4.06494 -5.18555,0 z"
         id="path4249"
         inkscape:connector-curvature="0" />
      <path
         d="m 591.55884,612.38519 0,18.94043 -4.68018,0 0,-18.94043 -3.40576,0 0,-4.06494 3.40576,0 0,-3.66943 q 0,-1.58203 0.46143,-2.61475 0.46142,-1.05469 1.18652,-1.64795 0.74707,-0.61523 1.6919,-0.85693 0.94482,-0.2417 1.93359,-0.2417 1.3623,0 2.46094,0.28564 1.09863,0.28565 2.13134,0.79102 l 0,3.86719 q -1.05468,-0.43946 -1.82373,-0.61524 -0.76904,-0.19775 -1.47216,-0.19775 -0.57129,0 -0.94483,0.15381 -0.35156,0.15381 -0.57129,0.43945 -0.21972,0.28565 -0.30761,0.65918 -0.0659,0.37354 -0.0659,0.81299 l 0,2.83447 5.18554,0 0,4.06494 -5.18554,0 z"
         id="path4251"
         inkscape:connector-curvature="0" />
    </g>
    <g
       style="font-style:normal;font-variant:normal;font-weight:300;font-stretch:normal;font-size:15px;line-height:125%;font-family:Overpass;-inkscape-font-specification:'Overpass, Light';text-align:start;letter-spacing:0px;word-spacing:0px;writing-mode:lr-tb;text-anchor:start;fill:#222222;fill-opacity:1;stroke:none;stroke-width:1px;stroke-linecap:butt;stroke-linejoin:miter;stroke-opacity:1"
       id="text4206">
      <path
         d="m 700.20045,503.12779 q 0.495,0 0.915,-0.15 0.435,-0.165 0.75,-0.465 0.315,-0.3 0.495,-0.735 0.18,-0.435 0.18,-0.99 0,-0.465 -0.165,-0.885 -0.165,-0.42 -0.48,-0.735 -0.3,-0.33 -0.735,-0.51 -0.435,-0.195 -0.96,-0.195 -0.525,0 -0.96,0.195 -0.435,0.18 -0.75,0.51 -0.3,0.315 -0.465,0.735 -0.165,0.42 -0.165,0.885 0,0.555 0.18,0.99 0.18,0.435 0.495,0.735 0.315,0.3 0.735,0.465 0.435,0.15 0.93,0.15 z m 0,-9.915 q 0.63,0 1.17,0.225 0.555,0.21 0.945,0.585 0.39,0.375 0.615,0.87 0.225,0.495 0.225,1.035 0,0.675 -0.345,1.275 -0.33,0.585 -1.05,0.885 0.84,0.315 1.35,1.095 0.525,0.765 0.525,1.755 0,0.66 -0.255,1.245 -0.255,0.57 -0.72,0.99 -0.465,0.42 -1.095,0.66 -0.63,0.24 -1.365,0.24 -0.75,0 -1.38,-0.24 -0.615,-0.24 -1.08,-0.66 -0.465,-0.42 -0.72,-0.99 -0.255,-0.585 -0.255,-1.245 0,-0.495 0.135,-0.945 0.135,-0.45 0.375,-0.81 0.255,-0.375 0.6,-0.66 0.345,-0.285 0.75,-0.435 -0.675,-0.3 -1.035,-0.885 -0.345,-0.6 -0.345,-1.275 0,-0.54 0.225,-1.035 0.225,-0.495 0.615,-0.87 0.39,-0.375 0.93,-0.585 0.555,-0.225 1.185,-0.225 z m 0,4.56 q 0.87,0 1.38,-0.48 0.51,-0.48 0.51,-1.23 0,-0.885 -0.54,-1.395 -0.54,-0.51 -1.35,-0.51 -0.81,0 -1.35,0.51 -0.54,0.51 -0.54,1.395 0,0.75 0.51,1.23 0.51,0.48 1.38,0.48 z"
         id="path4261"
         inkscape:connector-curvature="0" />
      <path
         d="m 713.53733,503.12779 q 0.9,0 1.515,-0.405 0.63,-0.405 1.005,-1.05 0.39,-0.645 0.555,-1.44 0.18,-0.81 0.18,-1.59 0,-0.855 -0.18,-1.665 -0.165,-0.81 -0.555,-1.425 -0.375,-0.63 -1.005,-1.005 -0.615,-0.39 -1.515,-0.39 -0.9,0 -1.53,0.405 -0.615,0.405 -1.005,1.05 -0.375,0.645 -0.555,1.455 -0.165,0.795 -0.165,1.575 0,0.855 0.165,1.665 0.18,0.81 0.555,1.44 0.39,0.615 1.005,1.005 0.63,0.375 1.53,0.375 z m 0,0.945 q -1.215,0 -2.055,-0.48 -0.825,-0.48 -1.335,-1.26 -0.51,-0.78 -0.735,-1.74 -0.225,-0.975 -0.225,-1.95 0,-0.975 0.225,-1.935 0.225,-0.975 0.735,-1.755 0.51,-0.78 1.335,-1.26 0.84,-0.48 2.055,-0.48 1.215,0 2.04,0.48 0.84,0.48 1.35,1.26 0.51,0.78 0.735,1.755 0.225,0.96 0.225,1.935 0,0.975 -0.225,1.95 -0.225,0.96 -0.735,1.74 -0.51,0.78 -1.35,1.26 -0.825,0.48 -2.04,0.48 z"
         id="path4263"
         inkscape:connector-curvature="0" />
      <path
         d="m 722.62709,504.07279 q -1.395,0 -2.22,-1.035 -0.81,-1.05 -0.81,-2.97 0,-1.905 0.825,-2.955 0.84,-1.065 2.325,-1.065 0.855,0 1.5,0.42 0.645,0.405 0.96,1.185 l -0.96,0.375 q -0.18,-0.435 -0.555,-0.735 -0.36,-0.3 -0.99,-0.3 -0.54,0 -0.915,0.225 -0.375,0.21 -0.63,0.615 -0.24,0.39 -0.36,0.96 -0.105,0.57 -0.105,1.275 0,1.455 0.48,2.265 0.48,0.795 1.5,0.795 0.63,0 1.065,-0.315 0.435,-0.315 0.63,-0.855 l 0.945,0.36 q -0.27,0.81 -0.99,1.29 -0.705,0.465 -1.695,0.465 z"
         id="path4265"
         inkscape:connector-curvature="0" />
      <path
         d="m 729.10264,504.07279 q -0.825,0 -1.17,-0.495 -0.345,-0.51 -0.345,-1.26 l 0,-5.145 -1.305,0 0,-0.945 1.305,0 0,-2.64 1.05,-0.525 0,3.165 1.95,0 0,0.945 -1.95,0 0,4.695 q 0,0.255 0.015,0.48 0.03,0.21 0.12,0.375 0.09,0.165 0.255,0.27 0.165,0.09 0.435,0.09 0.39,0 0.66,-0.15 0.285,-0.15 0.495,-0.3 l -0.12,1.095 q -0.3,0.165 -0.63,0.255 -0.33,0.09 -0.765,0.09 z"
         id="path4267"
         inkscape:connector-curvature="0" />
      <path
         d="m 735.89178,503.89279 q 0,-0.99 0.285,-1.695 0.285,-0.72 0.735,-1.26 0.45,-0.54 1.02,-0.945 0.57,-0.405 1.14,-0.795 0.495,-0.33 0.945,-0.645 0.45,-0.33 0.795,-0.69 0.36,-0.36 0.57,-0.765 0.21,-0.42 0.21,-0.93 0,-0.855 -0.6,-1.425 -0.585,-0.585 -1.68,-0.585 -1.065,0 -1.605,0.48 -0.54,0.465 -0.735,1.215 l -0.93,-0.42 q 0.12,-0.465 0.405,-0.87 0.285,-0.405 0.72,-0.705 0.435,-0.3 0.99,-0.465 0.57,-0.18 1.245,-0.18 1.56,0 2.415,0.81 0.87,0.795 0.87,2.145 0,0.72 -0.285,1.275 -0.27,0.555 -0.72,1.02 -0.435,0.45 -0.99,0.84 -0.555,0.375 -1.125,0.735 -0.45,0.3 -0.87,0.6 -0.42,0.285 -0.78,0.63 -0.345,0.33 -0.585,0.735 -0.24,0.39 -0.33,0.885 l 5.775,0 0,1.005 -6.885,0 z"
         id="path4269"
         inkscape:connector-curvature="0" />
      <path
         d="m 748.47092,504.07279 q -1.035,0 -1.725,-0.48 -0.69,-0.48 -1.11,-1.245 -0.405,-0.78 -0.585,-1.74 -0.18,-0.975 -0.18,-1.965 0,-0.54 0.06,-1.155 0.06,-0.63 0.21,-1.23 0.165,-0.6 0.42,-1.155 0.27,-0.555 0.675,-0.975 0.405,-0.42 0.945,-0.66 0.555,-0.255 1.29,-0.255 1.035,0 1.725,0.495 0.69,0.48 1.095,1.26 0.42,0.78 0.6,1.755 0.18,0.96 0.18,1.92 0,0.555 -0.075,1.17 -0.06,0.615 -0.225,1.23 -0.15,0.6 -0.42,1.155 -0.255,0.54 -0.66,0.96 -0.405,0.42 -0.96,0.675 -0.54,0.24 -1.26,0.24 z m 0,-0.945 q 0.78,0 1.26,-0.42 0.495,-0.435 0.765,-1.095 0.27,-0.66 0.36,-1.455 0.09,-0.795 0.09,-1.515 0,-0.81 -0.105,-1.605 -0.105,-0.81 -0.39,-1.44 -0.285,-0.645 -0.765,-1.035 -0.48,-0.405 -1.215,-0.405 -0.795,0 -1.29,0.435 -0.48,0.435 -0.75,1.095 -0.27,0.66 -0.375,1.455 -0.09,0.78 -0.09,1.5 0,0.825 0.105,1.635 0.105,0.795 0.39,1.44 0.285,0.63 0.765,1.02 0.495,0.39 1.245,0.39 z"
         id="path4271"
         inkscape:connector-curvature="0" />
      <path
         d="m 755.49303,503.89279 0,-8.595 -1.785,0 0,-0.6 q 0.795,0 1.35,-0.27 0.555,-0.285 0.81,-1.035 l 0.675,0 0,10.5 -1.05,0 z"
         id="path4273"
         inkscape:connector-curvature="0" />
      <path
         d="m 760.5778,503.89279 q 0.015,-1.23 0.15,-2.43 0.15,-1.2 0.51,-2.385 0.375,-1.185 0.99,-2.37 0.615,-1.2 1.575,-2.415 l -5.085,0 0,-0.9 6.285,0 0,0.69 q -1.095,1.26 -1.755,2.595 -0.66,1.32 -1.02,2.61 -0.36,1.275 -0.48,2.46 -0.12,1.185 -0.12,2.145 l -1.05,0 z"
         id="path4275"
         inkscape:connector-curvature="0" />
    </g>
  </g>
  <g
     inkscape:groupmode="layer"
     id="layer4"
     inkscape:label="Date"
     transform="translate(-397.10571,-468.06279)" />
</svg>
