<?xml version="1.0" encoding="UTF-8" standalone="no"?>
<!-- Created with Inkscape (http://www.inkscape.org/) -->

<svg
   xmlns:dc="http://purl.org/dc/elements/1.1/"
   xmlns:cc="http://creativecommons.org/ns#"
   xmlns:rdf="http://www.w3.org/1999/02/22-rdf-syntax-ns#"
   xmlns:svg="http://www.w3.org/2000/svg"
   xmlns="http://www.w3.org/2000/svg"
   xmlns:sodipodi="http://sodipodi.sourceforge.net/DTD/sodipodi-0.dtd"
   xmlns:inkscape="http://www.inkscape.org/namespaces/inkscape"
   width="2412.8699"
   height="1075.9218"
   viewBox="0 0 2412.8699 1075.9218"
   id="svg2"
   version="1.1"
   inkscape:version="0.91 r13725"
   sodipodi:docname="FRA.svg"
   inkscape:export-filename="C:\Users\paulb\Dropbox\Projects\Terminal Silhouettes\Silhouettes\png\FRA.png"
   inkscape:export-xdpi="90"
   inkscape:export-ydpi="90">
  <sodipodi:namedview
     id="base"
     pagecolor="#ffffff"
     bordercolor="#666666"
     borderopacity="1.0"
     inkscape:pageopacity="1"
     inkscape:pageshadow="2"
     inkscape:zoom="0.35355339"
     inkscape:cx="1157.8702"
     inkscape:cy="690.28434"
     inkscape:document-units="px"
     inkscape:current-layer="layer2"
     showgrid="false"
     units="px"
     fit-margin-top="25"
     fit-margin-left="25"
     fit-margin-right="25"
     fit-margin-bottom="25"
     showguides="true"
     inkscape:guide-bbox="true"
     inkscape:window-width="1920"
     inkscape:window-height="1137"
     inkscape:window-x="1912"
     inkscape:window-y="-8"
     inkscape:window-maximized="1"
     inkscape:object-nodes="true"
     inkscape:snap-others="true"
     inkscape:snap-smooth-nodes="false"
     inkscape:snap-object-midpoints="false">
    <inkscape:grid
       originy="-900.10974"
       originx="-924.67713"
       id="grid4453"
       type="xygrid" />
  </sodipodi:namedview>
  <defs
     id="defs4" />
  <metadata
     id="metadata7">
    <rdf:RDF>
      <cc:Work
         rdf:about="">
        <dc:format>image/svg+xml</dc:format>
        <dc:type
           rdf:resource="http://purl.org/dc/dcmitype/StillImage" />
        <dc:title></dc:title>
        <dc:description>Terminal silhouette of FRA (Frankfurt)</dc:description>
      </cc:Work>
    </rdf:RDF>
  </metadata>
  <g
     transform="translate(-924.67712,-1072.7185)"
     style="display:inline"
     inkscape:label="Terminal"
     id="layer2"
     inkscape:groupmode="layer">
    <path
       inkscape:connector-curvature="0"
       id="path4152"
       d="m 3286.0225,1098.4228 -114.3318,41.862 -11.7451,-32.0779 -125.5478,45.969 -14.5966,-39.8652 -79.1965,28.997 14.5966,39.8653 -124.6943,45.657 11.7451,32.0767 -7.3286,2.6838 -26.756,9.7963 -86.3881,31.6315 13.346,36.4477 -1.9845,0.7264 -0.3872,-1.0594 -21.5822,7.902 0.3872,1.0594 -2.0954,0.7672 -1.8488,-5.0481 -40.5719,14.8556 -6.9425,-18.9638 25.7904,-9.4425 -13.6704,-37.3356 -42.6501,15.6153 13.6703,37.3356 12.3914,-4.5362 6.9425,18.9626 -60.4214,22.1236 11.036,30.1404 -50.9036,18.6382 -65.7803,-30.3241 4.1638,-9.0305 -14.7236,-6.7871 2.521,-5.4686 -42.9474,-19.7988 -2.5209,5.4686 -67.925,-31.312 2.5209,-5.4686 -107.3141,-49.4705 -8.0167,2.9353 -1.7797,-0.8202 -69.8761,25.5857 -5.8263,-15.9163 -4.5251,-12.3592 -26.3737,-72.0284 -36.6389,13.4151 -1.0742,-2.9354 -114.9078,42.073 1.0742,2.934 -6.8758,2.5173 -1.0743,-2.9341 -197.8031,72.4242 1.0743,2.9329 -6.1815,2.2631 -1.0743,-2.9328 -114.9226,42.0791 1.0743,2.9316 -7.9156,2.8983 7.4321,20.2984 -5.0246,1.8401 13.6679,37.3283 -85.8565,31.4353 4.1341,11.2925 -359.8639,131.7614 -8.9084,-24.3325 -14.2414,5.2145 -1.8241,-4.9815 -11.2468,4.1182 1.8241,4.9814 -35.7964,13.1067 -1.8229,-4.9815 -11.4639,4.1971 1.8241,4.9815 -30.9198,11.3208 -1.8229,-4.9802 -7.9304,2.9033 1.8229,4.9789 -14.6114,5.3503 8.9097,24.3337 0.5155,1.4085 -120.43564,44.0968 -0.51554,-1.4084 -45.84324,16.7857 5.92496,16.1803 3.44349,9.4041 11.84623,32.3567 1.91167,-0.7005 1.94498,5.3108 3.51748,-1.2877 -1.94497,-5.3107 2.98468,-1.0927 -11.84746,-32.3555 52.82146,-19.34 11.8462,32.3554 1.9117,-0.6993 1.945,5.3096 3.5175,-1.2877 -1.945,-5.3107 2.9847,-1.0927 -11.8475,-32.3555 73.5934,-26.9448 11.8462,32.3555 1.9117,-0.7006 1.945,5.3108 3.5163,-1.2876 -1.9438,-5.3108 2.9847,-1.0927 -11.8475,-32.3554 73.2407,-26.8153 11.8462,32.3542 1.9117,-0.6993 1.945,5.3095 3.5174,-1.2876 -1.9449,-5.3108 2.9847,-1.0927 -11.8463,-32.3542 73.3184,-26.8449 11.8462,32.3543 1.9117,-0.7006 1.945,5.3107 3.5174,-1.2875 -1.9449,-5.3108 2.9847,-1.0928 -11.8463,-32.3529 73.1679,-26.7894 11.845,32.353 1.9117,-0.7006 1.945,5.3108 3.5174,-1.2876 -1.9449,-5.3108 2.9846,-1.0927 -11.8462,-32.353 59.9983,-21.967 11.8462,32.3517 1.9117,-0.6993 1.9438,5.3095 3.5175,-1.2875 -1.945,-5.3095 2.9847,-1.0928 -11.8451,-32.353 78.0951,-28.5937 c 0,0 73.6332,-25.8538 116.7085,52.4033 l 3.2597,-1.2062 8.1352,3.7371 -0.7931,1.7266 8.5939,3.9467 -0.888,1.9326 -8.5939,-3.9466 -1.8747,4.0811 8.5939,3.9467 -23.3187,50.7729 -8.5939,-3.9479 -1.8747,4.0811 8.5939,3.9479 -10.4661,22.7872 10.0566,4.6189 -5.1356,11.1802 -10.0554,-4.6189 -7.8354,17.0596 -8.594,-3.9479 -1.8746,4.0811 8.5939,3.9479 -9.9567,21.6797 10.0554,4.6188 -5.1357,11.1802 -10.0554,-4.6188 -8.3756,18.2374 -8.5951,-3.9479 -1.8747,4.081 8.5951,3.948 -10.2823,22.3876 10.0566,4.6188 -5.1356,11.1803 -10.0554,-4.6189 -12.215,26.5945 -8.5952,-3.9479 -1.8746,4.0811 8.5951,3.9479 -11.0248,24.0058 10.0554,4.6188 -5.1356,11.1803 -10.0554,-4.6189 -5.946,12.9464 -8.5951,-3.948 -1.8747,4.0811 8.5964,3.948 -33.9058,73.8215 5.3367,2.505 -3.9195,8.5347 -11.8167,4.3265 -1.3456,-3.6766 c -11.6428,4.4657 -13.7037,9.1831 -13.7061,9.1884 l 1.1878,3.2449 -9.6719,3.5422 -1.1877,-3.245 -13.219,4.8397 -1.3468,-3.6778 c -11.6424,4.4656 -13.7037,9.1817 -13.7061,9.1871 l 0,0 1.189,3.2448 -9.6731,3.5422 -1.1877,-3.2449 -13.0377,4.773 -1.3468,-3.6765 c -11.6362,4.463 -13.7014,9.1763 -13.7061,9.1871 l 0,0 1.189,3.2449 -9.6731,3.541 -1.1877,-3.2437 -13.6062,4.9814 -1.3468,-3.6766 c -11.6495,4.4682 -13.7061,9.1872 -13.7061,9.1872 l -22.7909,8.3448 -1.3456,-3.6766 c -11.6494,4.4681 -13.7073,9.1884 -13.7073,9.1884 l -22.4962,8.2362 -1.3455,-3.6766 c -11.6495,4.4682 -13.7061,9.1884 -13.7061,9.1884 l -21.787,7.9772 -1.3456,-3.6765 c -11.6494,4.4681 -13.7061,9.1871 -13.7061,9.1871 l 1.1877,3.245 -9.673,3.5409 -1.1877,-3.2437 -13.5877,4.9753 -1.3456,-3.6766 c -11.6495,4.4681 -13.7061,9.1871 -13.7061,9.1871 l 1.1877,3.2449 -9.6731,3.5409 -1.1877,-3.2436 -16.2086,5.9348 1.7242,4.7101 -0.904,0.3318 c -0.019,9.9563 1.8944,13.5174 1.8944,13.5174 l 3.5977,-1.3172 0.8485,2.3162 336.6981,-123.2809 3.9245,-8.5446 5.3872,2.5283 7.7503,-16.8745 13.1314,6.031 4.2933,-9.3475 5.2515,2.4112 13.6432,-29.705 -5.2516,-2.4112 8.2535,-17.9697 -1.068,-0.4909 1.1346,-2.4704 -12.0632,-5.5401 6.7945,-14.7927 -10.6204,-4.8779 5.1345,-11.1802 10.6202,4.8778 10.1775,-22.1581 12.0633,5.5401 1.8747,-4.0823 -12.0633,-5.5402 13.0623,-28.4408 -10.619,-4.8778 5.1344,-11.1803 10.6202,4.8779 9.4339,-20.54 12.0633,5.5401 1.8746,-4.0823 -12.0633,-5.5402 9.2242,-20.0838 -10.6203,-4.8778 5.1344,-11.1802 10.6203,4.8779 9.1094,-19.8334 12.0645,5.5414 1.8747,-4.0824 -12.0633,-5.5414 8.6828,-18.9046 -10.6204,-4.8778 5.1345,-11.1803 10.6215,4.8779 9.6176,-20.9409 12.0633,5.5414 1.8746,-4.0823 -12.0633,-5.5402 23.3188,-50.7705 12.0633,5.5402 1.8747,-4.0824 -12.0633,-5.5401 67.9299,-147.9009 118.7669,-43.4863 9.773,17.77 15.9828,-5.8523 6.3567,17.3605 7.3297,0.3762 37.0039,101.0624 -8.885,19.3449 7.6258,3.5372 -33.0819,72.0271 -3.631,-1.6675 -2.8292,6.1605 3.6309,1.6675 -3.2523,7.0806 -2.8133,-1.2925 -1.031,2.2458 2.8132,1.2926 -19.8678,43.2582 -2.9638,-1.3604 -7.754,16.8844 2.9625,1.3604 0.46,0.2121 2.1621,0.9929 -22.7761,16.1444 -8.4842,-3.8961 -3.7394,8.1412 6.4565,2.9662 -1.6317,3.552 2.9378,1.3493 1.2543,-2.7306 2.6813,28.7381 -8.6174,6.1087 5.1813,7.3087 5.513,-3.9084 1.9672,2.775 2.7133,-1.7612 -2.0436,-2.8823 0.2343,-0.1665 27.9031,12.8156 0.978,10.4834 8.9208,-0.8325 -0.6943,-7.4358 3.2818,-0.3059 -0.3009,-3.2177 -2.9921,0.2787 23.2547,-16.4824 9.2722,4.2587 3.7395,-8.1412 -6.2234,-2.8589 1.7896,-3.8949 -3.2536,-1.4936 -1.3826,3.0094 -2.796,-29.9591 10.1529,-22.1064 8.4274,3.8715 4.2414,-9.2328 -8.4274,-3.8714 14.1267,-30.7583 -7.4678,-3.4299 10.5796,-23.0339 25.3179,-9.2698 12.1867,-4.4622 0.6832,1.8648 5.1122,2.3729 6.4689,-2.368 2.389,-5.1492 5.1492,2.389 5.4501,-1.9955 2.389,-5.1492 5.1492,2.389 5.0394,-1.8451 2.389,-5.1492 5.1492,2.389 4.9087,-1.797 2.3889,-5.1492 5.148,2.389 5.4107,-1.9808 2.3889,-5.1479 5.148,2.389 5.9965,-2.1954 2.3693,-5.106 -0.6858,-1.871 5.5192,-2.0214 26.0346,-9.5325 24.1599,11.1383 -4.5868,9.9518 45.2019,20.8373 -0.962,2.0868 19.5163,8.9972 1.6021,-3.4743 15.904,22.5023 -4.7459,10.2947 7.8736,3.6297 3.0217,-6.554 2.9514,1.3604 2.3828,-5.1689 27.0484,-2.4864 6.8635,9.71 7.0806,-5.0049 -4.1649,-5.8929 2.6541,-1.8759 -3.5619,-5.0394 11.9338,-25.8866 11.0791,-1.0187 -0.793,-8.6346 -7.188,0.6611 -0.2972,-3.2363 -5.6228,0.5167 -15.3144,-21.6673 4.5264,-9.8174 -7.8749,-3.6309 -3.0217,6.5552 -2.9513,-1.3604 -2.3397,5.074 -27.1125,2.4913 1.1297,-2.4506 -39.7345,-18.3163 7.1077,-15.4181 -9.0662,-4.1797 -7.1077,15.418 -40.2624,-18.5606 3.4928,-7.6047 -1.7181,-4.6571 -18.6813,-8.6112 2.1287,-4.6336 -9.7434,-4.4919 -3.7333,8.0993 -5.1702,-2.384 -3.3744,7.3199 -3.5631,-1.6428 -14.0614,-38.4026 7.4655,-2.733 -0.016,-21.4515 1.6675,-0.6105 -27.67,-75.5704 -16.0445,5.8756 6.3123,46.0949 -13.0648,4.784 -23.5778,-64.3951 26.2813,-9.6225 -9.3056,-50.7692 36.6043,-13.4027 13.3472,-4.8865 7.3236,19.9986 40.4178,-14.7989 1.2531,3.89 12.4887,4.9753 9.5066,-6.1568 21.1876,8.441 3.4385,-8.6297 27.8673,11.1038 -3.4385,8.6296 27.9142,11.121 3.4385,-8.6296 27.8673,11.1025 -3.4385,8.6309 28.8922,11.5108 3.4385,-8.631 13.0365,5.1936 7.7453,6.2013 38.4728,15.3279 -6.8672,17.2359 2.495,0.9941 5.1184,-12.8452 12.992,5.1763 1.7489,-4.3907 37.0446,14.7594 -1.7489,4.3907 12.992,5.1763 -5.1171,12.8452 2.495,0.9941 5.1184,-12.8452 1.7489,-4.3907 11.771,4.6904 1.9967,-5.0123 -11.771,-4.6904 -2.495,-0.9941 -12.992,-5.1763 -37.0458,-14.7594 -9.0109,-3.5902 -3.9811,-1.5861 -2.4951,-0.9941 -38.4728,-15.3279 -7.7454,-6.2013 4.8372,-12.1409 -79.3445,-31.613 -8.843,-24.1501 67.4883,-24.7112 216.2785,99.702 -15.3625,33.3248 -4.4276,-2.0411 -3.7815,8.2042 4.4277,2.0411 -9.1193,19.7803 16.4651,7.59 -4.8655,10.5574 -3.0476,-1.406 -11.3776,24.6816 10.9928,-7.4555 3.5274,-7.6529 4.5448,2.0954 3.0882,-6.7007 -1.5243,-0.703 0.7695,-1.6687 13.0809,6.0298 4.1539,-1.5207 0.5969,1.6304 -1.1988,0.4391 3.8123,10.4118 4.5793,-1.6761 19.3068,-13.6382 -2.2891,-6.2506 57.1714,-20.9322 0.597,1.6304 -1.2001,0.4392 3.8123,10.4118 4.5794,-1.6774 19.3067,-13.637 -2.2879,-6.2506 56.7632,-20.783 0.597,1.6293 -1.1988,0.439 3.8122,10.4131 4.5794,-1.6773 19.3067,-13.6383 -2.2878,-6.2493 -0.7141,-1.9487 50.3869,-18.4483 -6.1717,-16.8536 2.0955,-0.7671 0.4008,1.0939 21.5822,-7.902 -0.4008,-1.0939 1.9844,-0.7265 0.4009,1.094 8.9022,-3.2597 7.252,19.8049 a 3.4424984,3.4424984 0 0 0 3.2647,2.3607 3.4424984,3.4424984 0 0 0 3.4422,-3.4423 3.4424984,3.4424984 0 0 0 -0.2577,-1.2987 l -7.2459,-19.7877 29.0316,-10.6301 1.4837,4.0527 -25.3624,9.2858 3.9343,10.7448 25.3625,-9.2857 10.5142,-3.8493 26.0901,-9.5522 -3.9344,-10.7449 -26.0901,9.5522 -1.4837,-4.0527 31.4218,-11.5058 7.252,19.8049 a 3.4424984,3.4424984 0 0 0 3.2647,2.3606 3.4424984,3.4424984 0 0 0 3.4422,-3.4422 3.4424984,3.4424984 0 0 0 -0.2577,-1.2987 l -7.2459,-19.7877 20.3637,-7.4568 8.774,-3.2128 1.4837,4.0527 -24.6927,9.0416 3.9343,10.7449 24.6928,-9.0404 8.0672,-2.955 2.4469,-0.8955 26.7598,-9.7976 -3.9344,-10.7449 -26.7597,9.7977 -1.4837,-4.0528 28.8256,-10.5549 7.0485,19.2487 -17.2901,6.3308 2.1052,5.751 27.5393,-12.9426 -8.23,-22.4777 27.332,-10.0073 1.4837,4.0528 -25.323,9.2722 3.9344,10.7449 25.3217,-9.2723 10.5142,-3.8492 26.1296,-9.5671 -3.9344,-10.7448 -26.1295,9.567 -1.4837,-4.054 31.6795,-11.5983 7.2089,19.6878 a 3.4424984,3.4424984 0 0 0 3.2646,2.3606 3.4424984,3.4424984 0 0 0 3.4423,-3.4423 3.4424984,3.4424984 0 0 0 -0.2578,-1.2986 l -7.2027,-19.6718 5.349,-1.9585 5.4181,14.7988 62.148,-22.7564 -5.4181,-14.7963 1.3752,-0.5044 7.0485,19.2474 -17.2902,6.3308 2.1054,5.751 27.5392,-12.9414 -8.2301,-22.4789 26.3343,-9.6422 1.4837,4.0528 -24.8283,9.0909 3.9343,10.7449 24.8284,-9.091 1.9918,-0.7289 8.5224,-3.1204 26.6228,-9.7483 -3.9343,-10.7448 -26.6229,9.7483 -1.4837,-4.0528 28.4347,-10.4106 7.0473,19.2475 -17.289,6.3307 2.1053,5.7511 27.5393,-12.9426 -8.2301,-22.4777 27.1162,-9.9284 1.4837,4.0516 -24.8049,9.0823 3.9343,10.7449 24.805,-9.0824 5.4686,-2.0017 5.0456,-1.8475 26.6475,-9.757 -3.9343,-10.7449 -26.6476,9.757 -1.4837,-4.0528 31.7881,-11.6377 7.2508,19.8037 a 3.4424984,3.4424984 0 0 0 3.2647,2.3606 3.4424984,3.4424984 0 0 0 3.4422,-3.4423 3.4424984,3.4424984 0 0 0 -0.2578,-1.2987 l -7.2446,-19.7877 29.1179,-10.661 1.4838,4.0528 -25.2946,9.2612 3.9331,10.7448 25.2958,-9.2624 10.5143,-3.8492 26.1566,-9.5769 -3.9343,-10.7449 -26.1567,9.5769 -1.4837,-4.0527 31.7733,-11.6329 7.2508,19.8037 a 3.4424984,3.4424984 0 0 0 3.2646,2.3607 3.4424984,3.4424984 0 0 0 3.4423,-3.4423 3.4424984,3.4424984 0 0 0 -0.2578,-1.2987 l -7.2447,-19.7865 5.5969,-2.0498 -23.8688,-65.1894 z m -4.9259,31.4119 5.5204,15.0776 -37.9449,13.8936 -5.5217,-15.0776 37.9462,-13.8936 z m -54.6222,19.9999 5.5205,15.0775 -24.5127,8.9751 -10.9558,4.0108 -2.4654,0.9028 -7.2903,2.6689 -5.5204,-15.0775 7.2903,-2.669 13.3768,-4.8976 24.557,-8.991 z m -374.6627,137.1794 5.5204,15.0788 -7.3285,2.6826 -9.8667,3.6124 -17.162,6.2838 -10.5216,3.853 -5.5204,-15.0775 10.7005,-3.9184 19.3473,-7.0843 7.5025,-2.7466 7.3285,-2.6838 z m -845.7332,0.4181 32.9141,4.2896 14.1785,38.7232 -13.3472,4.8877 -8.9701,-24.4991 -64.5394,23.6308 -1.3801,-3.7716 41.1442,-43.2606 z m 284.2059,6.7834 26.9448,12.4209 -1.0077,2.188 -26.946,-12.4209 1.0089,-2.188 z m 499.5704,15.4846 5.5205,15.0775 -37.9524,13.8961 -5.5204,-15.0788 37.9523,-13.8948 z m -676.9654,32.1038 7.1559,2.8503 -2.3718,1.5367 -8.029,-3.1993 3.2449,-1.1877 z m -311.2826,20.6918 59.0239,7.6923 0.9596,2.6196 -69.0066,25.2662 8.97,24.5003 -14.3289,5.2466 -13.272,-36.2491 27.654,-29.0759 z m 219.4297,123.308 8.5704,23.4076 8.6605,-3.1709 8.5113,23.2447 2.2595,-0.8275 12.0436,32.8919 -22.9821,-10.5944 -22.987,-62.7819 5.9238,-2.1695 z"
       style="fill:#dddddd;fill-opacity:1;fill-rule:evenodd;stroke:#222222;stroke-width:1.5;stroke-linecap:butt;stroke-linejoin:miter;stroke-miterlimit:4;stroke-dasharray:none;stroke-opacity:1" />
  </g>
  <g
     inkscape:groupmode="layer"
     id="layer3"
     inkscape:label="Label">
    <g
       id="g4755"
       transform="translate(-7.499993,0)">
      <g
         style="font-style:normal;font-variant:normal;font-weight:bold;font-stretch:normal;font-size:125px;line-height:125%;font-family:Overpass;-inkscape-font-specification:'Overpass, Bold';text-align:start;letter-spacing:0px;word-spacing:0px;writing-mode:lr-tb;text-anchor:start;fill:#dddddd;fill-opacity:1;stroke:#222222;stroke-width:0.25;stroke-linecap:butt;stroke-linejoin:miter;stroke-miterlimit:4;stroke-dasharray:none;stroke-opacity:1"
         id="text4708">
        <path
           d="m 2154.7664,1050.7968 0,-87.52446 58.6547,0 0,16.05224 -41.748,0 0,18.37159 26.4893,0 0,15.99123 -26.4893,0 0,37.1094 -16.9067,0 z"
           style=""
           id="path4786" />
        <path
           d="m 2228.9851,1050.7968 0,-87.52446 40.6494,0 q 8.3008,0 13.855,2.31933 5.6152,2.25831 9.0332,6.04249 3.418,3.78417 4.8828,8.72802 1.4649,4.94385 1.4649,10.31494 0,3.72315 -1.0987,7.56836 -1.0376,3.78422 -3.1738,7.20212 -2.1362,3.418 -5.3101,6.2256 -3.1738,2.7466 -7.3852,4.2725 l 16.9678,34.8511 -18.982,0 -16.3574,-32.6539 -17.6392,0 0,32.6539 -16.9067,0 z m 40.8936,-48.6451 q 3.2348,0 5.4321,-0.9155 2.1973,-0.9766 3.54,-2.56347 1.3428,-1.58691 1.8921,-3.66211 0.6104,-2.0752 0.6104,-4.3335 0,-2.07519 -0.5493,-4.08935 -0.4883,-2.0752 -1.7701,-3.66211 -1.2817,-1.64795 -3.54,-2.62451 -2.1973,-0.97657 -5.6152,-0.97657 l -23.9869,0 0,22.82712 23.9869,0 z"
           style=""
           id="path4788" />
        <path
           d="m 2377.1174,1050.7968 -6.7749,-18.1275 -33.7524,0 -6.7139,18.1275 -18.1274,0 33.5083,-87.52446 16.4795,0 33.5083,87.52446 -18.1275,0 z m -20.874,-56.27446 q -0.6714,-1.58692 -1.4648,-3.78418 -0.7325,-2.19727 -1.2818,-4.08936 -0.4883,1.89209 -1.2817,4.08936 -0.7935,2.19726 -1.4649,3.78418 l -8.6669,22.76616 22.7661,0 -8.606,-22.76616 z"
           style=""
           id="path4790" />
      </g>
      <g
         transform="translate(-7.49995,0)"
         id="g4749">
        <g
           style="font-style:normal;font-variant:normal;font-weight:normal;font-stretch:normal;font-size:45px;line-height:125%;font-family:Overpass;-inkscape-font-specification:'Overpass, Normal';text-align:start;letter-spacing:0px;word-spacing:0px;writing-mode:lr-tb;text-anchor:start;fill:#222222;fill-opacity:1;stroke:none;stroke-width:1px;stroke-linecap:butt;stroke-linejoin:miter;stroke-opacity:1"
           id="text4712">
          <path
             d="m 1947.8787,1002.3424 0,-31.50878 19.5337,0 0,4.4165 -14.8536,0 0,8.63526 9.6021,0 0,4.4165 -9.6021,0 0,14.04052 -4.6801,0 z"
             style=""
             id="path4793" />
          <path
             d="m 1969.1921,1002.3424 0,-23.00536 4.6802,0 0,2.79052 q 0.813,-1.75781 2.1094,-2.52685 1.2964,-0.79102 3.0102,-0.79102 2.2852,0 3.8672,1.38428 l -0.6811,4.32861 q -0.6372,-0.43945 -1.5161,-0.76904 -0.857,-0.35156 -2.1094,-0.35156 -0.791,0 -1.626,0.28564 -0.813,0.26367 -1.4941,0.9668 -0.6812,0.68115 -1.1206,1.8457 -0.4395,1.14258 -0.4395,2.92237 l 0,12.91991 -4.6802,0 z"
             style=""
             id="path4795" />
          <path
             d="m 2005.0076,1002.3424 -4.4825,0 0,-1.9775 q -0.4394,0.4614 -1.0546,0.9228 -0.6153,0.4395 -1.4063,0.813 -0.769,0.3516 -1.7358,0.5713 -0.9668,0.2197 -2.1094,0.2197 -1.7578,0 -3.252,-0.4834 -1.4941,-0.4834 -2.5927,-1.4502 -1.0987,-0.98874 -1.7359,-2.41696 -0.6152,-1.4502 -0.6152,-3.36182 0,-1.97754 0.7471,-3.40576 0.747,-1.4502 1.9775,-2.37305 1.2305,-0.94482 2.8125,-1.38427 1.604,-0.43946 3.2959,-0.43946 1.582,0 3.0322,0.35156 1.4722,0.32959 2.6367,1.01075 l 0,-1.27442 q 0,-1.29638 -0.3076,-2.19726 -0.2856,-0.90088 -0.9008,-1.4502 -0.5933,-0.57129 -1.5162,-0.81299 -0.9228,-0.26367 -2.1972,-0.26367 -2.1533,0 -3.7354,0.57129 -1.56,0.57129 -2.8345,1.51611 l -1.3842,-3.84521 q 0.7031,-0.4834 1.604,-0.90088 0.9009,-0.43945 1.9775,-0.76904 1.0767,-0.32959 2.3291,-0.50537 1.2525,-0.19776 2.6807,-0.19776 0.9668,0 1.9995,0.10987 1.0327,0.10986 1.9995,0.43945 0.9888,0.30762 1.8457,0.90088 0.8789,0.59326 1.5161,1.56006 0.6592,0.94482 1.0327,2.3291 0.3736,1.38428 0.3736,3.2959 l 0,14.89745 z m -9.9317,-3.60351 q 1.7798,0 3.1421,-0.7251 1.3843,-0.72509 2.3071,-1.73584 l 0,-3.51562 q -0.9668,-0.50537 -2.2631,-0.81299 -1.2964,-0.30762 -2.6587,-0.30762 -1.0547,0 -1.9776,0.19776 -0.9228,0.19775 -1.6259,0.6372 -0.6812,0.41749 -1.0767,1.09864 -0.3955,0.65918 -0.3955,1.604 0,1.64795 1.1426,2.61475 1.1645,0.94482 3.4057,0.94482 z"
             style=""
             id="path4797" />
          <path
             d="m 2025.5959,1002.3424 0,-13.7329 q 0,-1.4502 -0.3515,-2.46094 -0.3516,-1.03272 -0.9668,-1.66992 -0.6152,-0.65918 -1.4502,-0.94483 -0.835,-0.30761 -1.8237,-0.30761 -1.0547,0 -1.9556,0.28564 -0.9009,0.26367 -1.5601,0.87891 -0.6591,0.61523 -1.0547,1.64795 -0.3735,1.01074 -0.3735,2.48291 l 0,13.82079 -4.6802,0 0,-23.00536 4.6802,0 0,2.21923 q 1.1206,-1.42822 2.5708,-2.0874 1.4502,-0.65918 3.3618,-0.65918 1.8018,0 3.3179,0.52735 1.5161,0.50537 2.6147,1.66992 1.1207,1.16455 1.7359,3.03222 0.6152,1.86768 0.6152,4.57032 l 0,13.7329 -4.6802,0 z"
             style=""
             id="path4799" />
          <path
             d="m 2036.78,1002.3424 0,-30.27831 4.6802,-2.21924 0,16.61133 6.7896,-7.11914 5.7568,0 -6.3062,6.39404 8.6353,16.61132 -5.1196,0 -6.7896,-13.22753 -2.9663,2.96631 0,10.26122 -4.6802,0 z"
             style=""
             id="path4801" />
          <path
             d="m 2067.8494,983.40198 0,18.94042 -4.6802,0 0,-18.94042 -3.4058,0 0,-4.06494 3.4058,0 0,-3.66944 q 0,-1.58203 0.4614,-2.61474 0.4614,-1.05469 1.1865,-1.64795 0.7471,-0.61524 1.6919,-0.85694 0.9449,-0.2417 1.9336,-0.2417 1.3623,0 2.461,0.28565 1.0986,0.28564 2.1313,0.79101 l 0,3.86719 q -1.0547,-0.43945 -1.8237,-0.61523 -0.7691,-0.19776 -1.4722,-0.19776 -0.5713,0 -0.9448,0.15381 -0.3516,0.15381 -0.5713,0.43946 -0.2197,0.28564 -0.3076,0.65918 -0.066,0.37353 -0.066,0.81298 l 0,2.83448 5.1855,0 0,4.06494 -5.1855,0 z"
             style=""
             id="path4803" />
          <path
             d="m 2090.679,1002.3424 0,-2.1973 q -1.1207,1.4283 -2.5928,2.0874 -1.4502,0.6592 -3.3618,0.6592 -1.8018,0 -3.3179,-0.5273 -1.5161,-0.5054 -2.6367,-1.6699 -1.0987,-1.18657 -1.7139,-3.05424 -0.6152,-1.86768 -0.6152,-4.57031 l 0,-13.73291 4.6801,0 0,13.73291 q 0,1.45019 0.3516,2.48291 0.3516,1.01074 0.9668,1.66992 0.6152,0.65918 1.4502,0.9668 0.835,0.28564 1.8237,0.28564 1.0547,0 1.9556,-0.26367 0.9009,-0.28565 1.5601,-0.90088 0.6811,-0.63721 1.0546,-1.64795 0.3956,-1.01074 0.3956,-2.50488 l 0,-13.8208 4.6801,0 0,23.00536 -4.6801,0 z"
             style=""
             id="path4805" />
          <path
             d="m 2102.0828,1002.3424 0,-23.00536 4.6801,0 0,2.79052 q 0.813,-1.75781 2.1094,-2.52685 1.2964,-0.79102 3.0103,-0.79102 2.2851,0 3.8672,1.38428 l -0.6812,4.32861 q -0.6372,-0.43945 -1.5161,-0.76904 -0.8569,-0.35156 -2.1094,-0.35156 -0.791,0 -1.626,0.28564 -0.8129,0.26367 -1.4941,0.9668 -0.6812,0.68115 -1.1206,1.8457 -0.4395,1.14258 -0.4395,2.92237 l 0,12.91991 -4.6801,0 z"
             style=""
             id="path4807" />
          <path
             d="m 2126.9338,1002.8917 q -1.3623,0 -2.351,-0.4175 -0.9668,-0.3955 -1.604,-1.1425 -0.6153,-0.7471 -0.9009,-1.80179 -0.2857,-1.07666 -0.2857,-2.37305 l 0,-13.75488 -3.5595,0 0,-4.06494 3.5595,0 0,-7.22901 4.6802,-2.26318 0,9.49219 5.4492,0 0,4.06494 -5.4492,0 0,12.54638 q 0,0.57129 0.088,1.05469 0.1099,0.4834 0.3516,0.83496 0.2636,0.35157 0.7031,0.54932 0.4394,0.17578 1.1206,0.17578 1.6699,0 3.4058,-1.07666 l -0.5713,4.35055 q -0.9668,0.4834 -2.1094,0.7691 -1.1426,0.2856 -2.5269,0.2856 z"
             style=""
             id="path4809" />
        </g>
        <g
           style="font-style:normal;font-variant:normal;font-weight:300;font-stretch:normal;font-size:45px;line-height:125%;font-family:Overpass;-inkscape-font-specification:'Overpass, Light';text-align:start;letter-spacing:0px;word-spacing:0px;writing-mode:lr-tb;text-anchor:start;fill:#222222;fill-opacity:1;stroke:none;stroke-width:1px;stroke-linecap:butt;stroke-linejoin:miter;stroke-opacity:1"
           id="text4716">
          <path
             d="m 1778.3429,1050.3818 0,-31.5 18.405,0 0,3.015 -15.255,0 0,10.71 10.305,0 0,2.97 -10.305,0 0,14.805 -3.15,0 z"
             style=""
             id="path4812" />
          <path
             d="m 1799.9042,1050.3818 0,-22.995 3.15,0 0,3.24 q 1.26,-1.89 2.925,-2.835 1.665,-0.945 3.24,-0.945 1.71,0 2.88,0.945 l -0.495,3.06 q -0.45,-0.27 -1.17,-0.54 -0.675,-0.315 -1.8,-0.315 -0.765,0 -1.755,0.36 -0.945,0.36 -1.8,1.215 -0.855,0.855 -1.44,2.295 -0.585,1.395 -0.585,3.51 l 0,13.005 -3.15,0 z"
             style=""
             id="path4814" />
          <path
             d="m 1829.394,1050.3818 0,-2.25 q -1.395,1.26 -3.15,2.025 -1.71,0.765 -3.6,0.765 -3.465,0 -5.67,-1.935 -2.16,-1.98 -2.16,-5.85 0,-1.98 0.675,-3.42 0.72,-1.44 1.845,-2.34 1.17,-0.945 2.7,-1.395 1.53,-0.45 3.15,-0.45 1.44,0 2.97,0.36 1.53,0.36 3.24,1.26 l 0,-1.935 q 0,-1.755 -0.45,-2.835 -0.405,-1.08 -1.125,-1.71 -0.675,-0.63 -1.62,-0.855 -0.9,-0.225 -1.845,-0.225 -0.855,0 -1.8,0.225 -0.945,0.225 -1.845,0.585 -0.9,0.36 -1.755,0.81 -0.81,0.405 -1.44,0.855 l -0.9,-2.7 q 1.395,-0.9 3.51,-1.71 2.16,-0.81 4.545,-0.81 1.215,0 2.565,0.36 1.35,0.315 2.475,1.215 1.125,0.855 1.845,2.43 0.765,1.53 0.765,3.96 l 0,15.57 -2.925,0 z m -6.435,-2.205 q 1.035,0 1.98,-0.315 0.945,-0.315 1.755,-0.81 0.81,-0.495 1.485,-1.125 0.675,-0.675 1.215,-1.305 l 0,-4.455 q -1.125,-0.765 -2.79,-1.305 -1.62,-0.585 -3.105,-0.585 -1.17,0 -2.205,0.315 -1.035,0.27 -1.845,0.9 -0.765,0.585 -1.26,1.485 -0.45,0.9 -0.45,2.16 0,2.295 1.35,3.69 1.35,1.35 3.87,1.35 z"
             style=""
             id="path4816" />
          <path
             d="m 1842.6929,1029.9068 q 1.08,-1.575 2.565,-2.295 1.53,-0.765 3.375,-0.765 4.23,0 6.21,2.565 2.025,2.52 2.025,8.235 l 0,12.735 -3.15,0 0,-14.04 q 0,-3.645 -1.53,-5.13 -1.53,-1.53 -3.825,-1.53 -1.215,0 -2.25,0.315 -1.035,0.315 -1.8,1.08 -0.765,0.765 -1.215,2.025 -0.405,1.26 -0.405,3.15 l 0,14.13 -3.15,0 0,-22.995 3.15,0 0,2.52 z"
             style=""
             id="path4818" />
          <path
             d="m 1873.9475,1033.5068 8.64,16.875 -3.465,0 -7.38,-14.58 -3.825,4.095 0,10.485 -3.15,0 0,-30.96 3.15,-1.53 0,18.27 8.145,-8.775 3.645,0 -5.76,6.12 z"
             style=""
             id="path4820" />
          <path
             d="m 1891.2317,1030.2218 0,20.16 -3.15,0 0,-20.16 -3.69,0 0,-2.835 3.69,0 0,-3.915 q 0,-1.395 0.405,-2.385 0.405,-0.99 1.08,-1.575 0.675,-0.63 1.53,-0.9 0.855,-0.27 1.755,-0.27 1.305,0 2.205,0.36 0.945,0.315 1.71,0.72 l 0,2.745 q -0.72,-0.36 -1.53,-0.63 -0.765,-0.27 -1.755,-0.27 -0.81,0 -1.305,0.27 -0.45,0.225 -0.675,0.63 -0.18,0.36 -0.225,0.855 -0.045,0.495 -0.045,0.945 l 0,3.42 5.535,0 0,2.835 -5.535,0 z"
             style=""
             id="path4822" />
          <path
             d="m 1915.8953,1050.3818 0,-2.205 q -1.215,1.575 -2.565,2.16 -1.35,0.585 -3.15,0.585 -4.455,0 -6.48,-2.52 -1.98,-2.52 -1.98,-8.19 l 0,-12.825 3.15,0 0,14.04 q 0,3.6 1.485,5.13 1.53,1.53 3.825,1.53 1.215,0 2.25,-0.315 1.035,-0.315 1.8,-1.08 0.81,-0.765 1.215,-2.025 0.45,-1.26 0.45,-3.15 l 0,-14.13 3.15,0 0,22.995 -3.15,0 z"
             style=""
             id="path4824" />
          <path
             d="m 1927.1699,1050.3818 0,-22.995 3.15,0 0,3.24 q 1.26,-1.89 2.925,-2.835 1.665,-0.945 3.24,-0.945 1.71,0 2.88,0.945 l -0.495,3.06 q -0.45,-0.27 -1.17,-0.54 -0.675,-0.315 -1.8,-0.315 -0.765,0 -1.755,0.36 -0.945,0.36 -1.8,1.215 -0.855,0.855 -1.44,2.295 -0.585,1.395 -0.585,3.51 l 0,13.005 -3.15,0 z"
             style=""
             id="path4826" />
          <path
             d="m 1951.0353,1050.9218 q -2.475,0 -3.51,-1.485 -1.035,-1.53 -1.035,-3.78 l 0,-15.435 -3.915,0 0,-2.835 3.915,0 0,-7.92 3.15,-1.575 0,9.495 5.85,0 0,2.835 -5.85,0 0,14.085 q 0,0.765 0.045,1.44 0.09,0.63 0.36,1.125 0.27,0.495 0.765,0.81 0.495,0.27 1.305,0.27 1.17,0 1.98,-0.45 0.855,-0.45 1.485,-0.9 l -0.36,3.285 q -0.9,0.495 -1.89,0.765 -0.99,0.27 -2.295,0.27 z"
             style=""
             id="path4828" />
          <path
             d="m 1985.4878,1050.3818 0,-2.25 q -1.395,1.26 -3.15,2.025 -1.71,0.765 -3.6,0.765 -3.465,0 -5.67,-1.935 -2.16,-1.98 -2.16,-5.85 0,-1.98 0.675,-3.42 0.72,-1.44 1.845,-2.34 1.17,-0.945 2.7,-1.395 1.53,-0.45 3.15,-0.45 1.44,0 2.97,0.36 1.53,0.36 3.24,1.26 l 0,-1.935 q 0,-1.755 -0.45,-2.835 -0.405,-1.08 -1.125,-1.71 -0.675,-0.63 -1.62,-0.855 -0.9,-0.225 -1.845,-0.225 -0.855,0 -1.8,0.225 -0.945,0.225 -1.845,0.585 -0.9,0.36 -1.755,0.81 -0.81,0.405 -1.44,0.855 l -0.9,-2.7 q 1.395,-0.9 3.51,-1.71 2.16,-0.81 4.545,-0.81 1.215,0 2.565,0.36 1.35,0.315 2.475,1.215 1.125,0.855 1.845,2.43 0.765,1.53 0.765,3.96 l 0,15.57 -2.925,0 z m -6.435,-2.205 q 1.035,0 1.98,-0.315 0.945,-0.315 1.755,-0.81 0.81,-0.495 1.485,-1.125 0.675,-0.675 1.215,-1.305 l 0,-4.455 q -1.125,-0.765 -2.79,-1.305 -1.62,-0.585 -3.105,-0.585 -1.17,0 -2.205,0.315 -1.035,0.27 -1.845,0.9 -0.765,0.585 -1.26,1.485 -0.45,0.9 -0.45,2.16 0,2.295 1.35,3.69 1.35,1.35 3.87,1.35 z"
             style=""
             id="path4830" />
          <path
             d="m 2017.8217,1026.8468 q 1.665,0 3.105,0.585 1.44,0.585 2.475,1.665 1.08,1.035 1.665,2.565 0.63,1.53 0.63,3.42 l 0,15.3 -3.15,0 0,-14.085 q 0,-1.08 -0.18,-2.25 -0.18,-1.17 -0.72,-2.115 -0.495,-0.99 -1.485,-1.62 -0.99,-0.63 -2.61,-0.63 -1.305,0 -2.295,0.54 -0.99,0.54 -1.665,1.44 -0.675,0.9 -1.035,2.115 -0.315,1.17 -0.315,2.52 l 0,14.085 -3.15,0 0,-14.085 q 0,-1.08 -0.18,-2.25 -0.18,-1.17 -0.72,-2.115 -0.495,-0.99 -1.485,-1.62 -0.99,-0.63 -2.61,-0.63 -1.35,0 -2.34,0.495 -0.99,0.45 -1.665,1.305 -0.63,0.855 -0.99,1.98 -0.315,1.125 -0.315,2.475 l 0,14.445 -3.15,0 0,-22.995 3.15,0 0,2.25 q 2.385,-2.79 6.255,-2.79 1.845,0 3.51,0.945 1.71,0.9 2.7,2.565 0.945,-1.44 2.61,-2.475 1.71,-1.035 3.96,-1.035 z"
             style=""
             id="path4832" />
          <path
             d="m 2068.1415,1050.3818 0,-23.31 -10.53,23.85 -9.81,-23.715 0,23.175 -3.15,0 0,-31.5 2.7,0 10.53,24.525 10.665,-24.525 2.745,0 0,31.5 -3.15,0 z"
             style=""
             id="path4834" />
          <path
             d="m 2093.3296,1050.3818 0,-2.25 q -1.395,1.26 -3.15,2.025 -1.71,0.765 -3.6,0.765 -3.465,0 -5.67,-1.935 -2.16,-1.98 -2.16,-5.85 0,-1.98 0.675,-3.42 0.72,-1.44 1.845,-2.34 1.17,-0.945 2.7,-1.395 1.53,-0.45 3.15,-0.45 1.44,0 2.97,0.36 1.53,0.36 3.24,1.26 l 0,-1.935 q 0,-1.755 -0.45,-2.835 -0.405,-1.08 -1.125,-1.71 -0.675,-0.63 -1.62,-0.855 -0.9,-0.225 -1.845,-0.225 -0.855,0 -1.8,0.225 -0.945,0.225 -1.845,0.585 -0.9,0.36 -1.755,0.81 -0.81,0.405 -1.44,0.855 l -0.9,-2.7 q 1.395,-0.9 3.51,-1.71 2.16,-0.81 4.545,-0.81 1.215,0 2.565,0.36 1.35,0.315 2.475,1.215 1.125,0.855 1.845,2.43 0.765,1.53 0.765,3.96 l 0,15.57 -2.925,0 z m -6.435,-2.205 q 1.035,0 1.98,-0.315 0.945,-0.315 1.755,-0.81 0.81,-0.495 1.485,-1.125 0.675,-0.675 1.215,-1.305 l 0,-4.455 q -1.125,-0.765 -2.79,-1.305 -1.62,-0.585 -3.105,-0.585 -1.17,0 -2.205,0.315 -1.035,0.27 -1.845,0.9 -0.765,0.585 -1.26,1.485 -0.45,0.9 -0.45,2.16 0,2.295 1.35,3.69 1.35,1.35 3.87,1.35 z"
             style=""
             id="path4836" />
          <path
             d="m 2103.5235,1050.3818 0,-22.995 3.15,0 0,22.995 -3.15,0 z m 1.575,-27.72 q -0.9,0 -1.485,-0.585 -0.585,-0.585 -0.585,-1.485 0,-0.9 0.585,-1.53 0.585,-0.63 1.485,-0.63 0.9,0 1.485,0.63 0.585,0.63 0.585,1.53 0,0.9 -0.585,1.485 -0.585,0.585 -1.485,0.585 z"
             style=""
             id="path4838" />
          <path
             d="m 2117.9664,1029.9068 q 1.08,-1.575 2.565,-2.295 1.53,-0.765 3.375,-0.765 4.23,0 6.21,2.565 2.025,2.52 2.025,8.235 l 0,12.735 -3.15,0 0,-14.04 q 0,-3.645 -1.53,-5.13 -1.53,-1.53 -3.825,-1.53 -1.215,0 -2.25,0.315 -1.035,0.315 -1.8,1.08 -0.765,0.765 -1.215,2.025 -0.405,1.26 -0.405,3.15 l 0,14.13 -3.15,0 0,-22.995 3.15,0 0,2.52 z"
             style=""
             id="path4840" />
        </g>
      </g>
    </g>
  </g>
  <g
     inkscape:groupmode="layer"
     id="layer4"
     inkscape:label="Date">
    <g
       style="font-style:normal;font-variant:normal;font-weight:300;font-stretch:normal;font-size:15px;line-height:125%;font-family:Overpass;-inkscape-font-specification:'Overpass, Light';text-align:start;letter-spacing:0px;word-spacing:0px;writing-mode:lr-tb;text-anchor:start;fill:#222222;fill-opacity:1;stroke:none;stroke-width:1px;stroke-linecap:butt;stroke-linejoin:miter;stroke-opacity:1"
       id="text4721">
      <path
         d="m 24.999996,35.680023 q 0,-0.99 0.285,-1.695 0.285,-0.72 0.735,-1.26 0.45,-0.54 1.02,-0.945 0.57,-0.405 1.14,-0.795 0.495,-0.33 0.945,-0.645 0.45,-0.33 0.795,-0.69 0.36,-0.36 0.57,-0.765 0.21,-0.42 0.21,-0.93 0,-0.855 -0.6,-1.425 -0.585,-0.585 -1.68,-0.585 -1.065,0 -1.605,0.48 -0.54,0.465 -0.735,1.215 l -0.93,-0.42 q 0.12,-0.465 0.405,-0.87 0.285,-0.405 0.72,-0.705 0.435,-0.3 0.99,-0.465 0.57,-0.18 1.245,-0.18 1.56,0 2.415,0.81 0.87,0.795 0.87,2.145 0,0.72 -0.285,1.275 -0.27,0.555 -0.72,1.02 -0.435,0.45 -0.99,0.84 -0.555,0.375 -1.125,0.735 -0.45,0.3 -0.87,0.6 -0.42,0.285 -0.78,0.63 -0.345,0.33 -0.585,0.735 -0.24,0.39 -0.33,0.885 l 5.775,0 0,1.005 -6.885,0 z"
         style=""
         id="path4767" />
      <path
         d="m 37.159136,35.860023 q -0.765,0 -1.335,-0.18 -0.57,-0.195 -0.99,-0.525 -0.405,-0.345 -0.69,-0.78 -0.27,-0.45 -0.465,-0.975 l 0.975,-0.405 q 0.39,0.975 0.975,1.44 0.6,0.45 1.53,0.45 0.495,0 0.945,-0.12 0.45,-0.135 0.78,-0.39 0.345,-0.255 0.54,-0.63 0.195,-0.39 0.195,-0.915 0,-0.975 -0.6,-1.545 -0.6,-0.585 -1.74,-0.585 l -0.705,0 0,-0.96 0.555,0 q 0.945,0 1.5,-0.51 0.57,-0.525 0.57,-1.395 0,-0.435 -0.165,-0.78 -0.15,-0.345 -0.42,-0.585 -0.27,-0.24 -0.63,-0.36 -0.345,-0.135 -0.72,-0.135 -0.495,0 -0.885,0.15 -0.375,0.15 -0.66,0.39 -0.285,0.24 -0.48,0.525 -0.18,0.285 -0.3,0.555 l -0.975,-0.375 q 0.165,-0.42 0.435,-0.81 0.285,-0.405 0.69,-0.72 0.405,-0.315 0.93,-0.495 0.54,-0.195 1.2,-0.195 0.645,0 1.2,0.195 0.57,0.195 0.99,0.54 0.42,0.345 0.645,0.855 0.24,0.495 0.24,1.095 0,0.705 -0.36,1.335 -0.345,0.615 -0.975,0.96 0.825,0.33 1.29,1.065 0.48,0.72 0.48,1.755 0,0.66 -0.285,1.23 -0.285,0.555 -0.78,0.96 -0.495,0.405 -1.14,0.645 -0.645,0.225 -1.365,0.225 z"
         style=""
         id="path4769" />
      <path
         d="m 51.533824,26.995023 q -0.195,-0.42 -0.705,-0.735 -0.495,-0.315 -1.29,-0.315 -0.93,0 -1.455,0.405 -0.51,0.405 -0.51,1.08 0,0.42 0.195,0.735 0.21,0.3 0.54,0.555 0.345,0.24 0.78,0.435 0.435,0.195 0.9,0.375 0.54,0.21 1.08,0.495 0.54,0.285 0.975,0.69 0.435,0.405 0.705,0.96 0.27,0.54 0.27,1.275 0,0.705 -0.255,1.245 -0.24,0.54 -0.675,0.915 -0.435,0.36 -1.05,0.555 -0.615,0.195 -1.335,0.195 -0.66,0 -1.23,-0.18 -0.57,-0.165 -1.02,-0.45 -0.45,-0.3 -0.78,-0.675 -0.315,-0.39 -0.465,-0.825 l 0.99,-0.36 q 0.315,0.69 0.96,1.125 0.66,0.42 1.56,0.42 1.035,0 1.62,-0.495 0.6,-0.495 0.6,-1.44 0,-0.48 -0.195,-0.855 -0.195,-0.39 -0.525,-0.675 -0.33,-0.3 -0.765,-0.51 -0.42,-0.225 -0.885,-0.405 -0.555,-0.21 -1.11,-0.465 -0.54,-0.27 -0.99,-0.63 -0.435,-0.375 -0.705,-0.855 -0.27,-0.48 -0.27,-1.14 0,-0.495 0.21,-0.945 0.21,-0.45 0.6,-0.78 0.405,-0.33 0.975,-0.525 0.57,-0.195 1.305,-0.195 1.155,0 1.935,0.48 0.78,0.465 0.99,1.185 l -0.975,0.33 z"
         style=""
         id="path4771" />
      <path
         d="m 56.045777,32.275023 q 0.135,1.17 0.705,1.89 0.57,0.72 1.56,0.72 0.42,0 0.855,-0.135 0.435,-0.135 0.87,-0.465 l 0.57,0.705 q -0.45,0.375 -1.065,0.63 -0.6,0.24 -1.275,0.24 -0.78,0 -1.395,-0.315 -0.615,-0.33 -1.05,-0.885 -0.42,-0.555 -0.66,-1.275 -0.225,-0.735 -0.225,-1.545 0,-0.96 0.24,-1.695 0.255,-0.75 0.69,-1.26 0.435,-0.51 1.05,-0.78 0.615,-0.27 1.35,-0.27 0.615,0 1.155,0.225 0.555,0.21 0.975,0.66 0.42,0.45 0.66,1.155 0.24,0.705 0.24,1.665 0,0.12 0,0.3 0,0.18 -0.03,0.435 l -5.22,0 z m 2.22,-3.495 q -0.93,0 -1.56,0.615 -0.615,0.615 -0.69,1.935 l 4.215,0 q 0,-0.78 -0.195,-1.275 -0.195,-0.495 -0.495,-0.78 -0.285,-0.285 -0.63,-0.39 -0.345,-0.105 -0.645,-0.105 z"
         style=""
         id="path4773" />
      <path
         d="m 66.55023,35.860023 q -0.81,0 -1.29,-0.285 -0.48,-0.285 -0.81,-0.675 l 0,3.3 -1.05,0.525 0,-10.71 1.05,0 0,0.69 q 0.375,-0.345 0.84,-0.6 0.48,-0.27 1.26,-0.27 0.735,0 1.32,0.285 0.585,0.285 0.99,0.81 0.42,0.525 0.63,1.275 0.225,0.735 0.225,1.635 0,0.96 -0.24,1.71 -0.225,0.75 -0.645,1.26 -0.42,0.51 -1.005,0.78 -0.585,0.27 -1.275,0.27 z m -0.12,-0.945 q 1.05,0 1.62,-0.78 0.57,-0.795 0.57,-2.295 0,-1.41 -0.585,-2.235 -0.57,-0.825 -1.605,-0.825 -0.63,0 -1.155,0.315 -0.51,0.3 -0.825,0.87 l 0,3.765 q 0.39,0.51 0.87,0.855 0.48,0.33 1.11,0.33 z"
         style=""
         id="path4775" />
      <path
         d="m 75.039058,35.680023 q 0,-0.99 0.285,-1.695 0.285,-0.72 0.735,-1.26 0.45,-0.54 1.02,-0.945 0.57,-0.405 1.14,-0.795 0.495,-0.33 0.945,-0.645 0.45,-0.33 0.795,-0.69 0.36,-0.36 0.57,-0.765 0.21,-0.42 0.21,-0.93 0,-0.855 -0.6,-1.425 -0.585,-0.585 -1.68,-0.585 -1.065,0 -1.605,0.48 -0.54,0.465 -0.735,1.215 l -0.93,-0.42 q 0.12,-0.465 0.405,-0.87 0.285,-0.405 0.72,-0.705 0.435,-0.3 0.99,-0.465 0.57,-0.18 1.245,-0.18 1.56,0 2.415,0.81 0.87,0.795 0.87,2.145 0,0.72 -0.285,1.275 -0.27,0.555 -0.72,1.02 -0.435,0.45 -0.99,0.84 -0.555,0.375 -1.125,0.735 -0.45,0.3 -0.87,0.6 -0.42,0.285 -0.78,0.63 -0.345,0.33 -0.585,0.735 -0.24,0.39 -0.33,0.885 l 5.775,0 0,1.005 -6.885,0 z"
         style=""
         id="path4777" />
      <path
         d="m 87.618199,35.860023 q -1.035,0 -1.725,-0.48 -0.69,-0.48 -1.11,-1.245 -0.405,-0.78 -0.585,-1.74 -0.18,-0.975 -0.18,-1.965 0,-0.54 0.06,-1.155 0.06,-0.63 0.21,-1.23 0.165,-0.6 0.42,-1.155 0.27,-0.555 0.675,-0.975 0.405,-0.42 0.945,-0.66 0.555,-0.255 1.29,-0.255 1.035,0 1.725,0.495 0.69,0.48 1.095,1.26 0.42,0.78 0.6,1.755 0.18,0.96 0.18,1.92 0,0.555 -0.075,1.17 -0.06,0.615 -0.225,1.23 -0.15,0.6 -0.42,1.155 -0.255,0.54 -0.66,0.96 -0.405,0.42 -0.96,0.675 -0.54,0.24 -1.26,0.24 z m 0,-0.945 q 0.78,0 1.26,-0.42 0.495,-0.435 0.765,-1.095 0.27,-0.66 0.36,-1.455 0.09,-0.795 0.09,-1.515 0,-0.81 -0.105,-1.605 -0.105,-0.81 -0.39,-1.44 -0.285,-0.645 -0.765,-1.035 -0.48,-0.405 -1.215,-0.405 -0.795,0 -1.29,0.435 -0.48,0.435 -0.75,1.095 -0.27,0.66 -0.375,1.455 -0.09,0.78 -0.09,1.5 0,0.825 0.105,1.635 0.105,0.795 0.39,1.44 0.285,0.63 0.765,1.02 0.495,0.39 1.245,0.39 z"
         style=""
         id="path4779" />
      <path
         d="m 94.640308,35.680023 0,-8.595 -1.785,0 0,-0.6 q 0.795,0 1.35,-0.27 0.555,-0.285 0.81,-1.035 l 0.675,0 0,10.5 -1.05,0 z"
         style=""
         id="path4781" />
      <path
         d="m 99.725074,35.680023 q 0.015,-1.23 0.15,-2.43 0.149996,-1.2 0.509996,-2.385 0.375,-1.185 0.99,-2.37 0.615,-1.2 1.575,-2.415 l -5.084996,0 0,-0.9 6.284996,0 0,0.69 q -1.095,1.26 -1.755,2.595 -0.66,1.32 -1.02,2.61 -0.36,1.275 -0.48,2.46 -0.12,1.185 -0.12,2.145 l -1.049996,0 z"
         style=""
         id="path4783" />
    </g>
  </g>
</svg>
