<?xml version="1.0" encoding="UTF-8" standalone="no"?>
<!-- Created with Inkscape (http://www.inkscape.org/) -->

<svg
   xmlns:dc="http://purl.org/dc/elements/1.1/"
   xmlns:cc="http://creativecommons.org/ns#"
   xmlns:rdf="http://www.w3.org/1999/02/22-rdf-syntax-ns#"
   xmlns:svg="http://www.w3.org/2000/svg"
   xmlns="http://www.w3.org/2000/svg"
   xmlns:sodipodi="http://sodipodi.sourceforge.net/DTD/sodipodi-0.dtd"
   xmlns:inkscape="http://www.inkscape.org/namespaces/inkscape"
   width="519.16602"
   height="234.31087"
   viewBox="0 0 519.16602 234.31087"
   id="svg4147"
   version="1.1"
   inkscape:version="0.92.4 (5da689c313, 2019-01-14)"
   sodipodi:docname="GRK.svg"
   inkscape:export-filename="C:\Users\paulb\Dropbox\Projects\Terminal Silhouettes\Silhouettes\png\GRK.png"
   inkscape:export-xdpi="90"
   inkscape:export-ydpi="90">
  <defs
     id="defs4149" />
  <sodipodi:namedview
     id="base"
     pagecolor="#ffffff"
     bordercolor="#666666"
     borderopacity="1.0"
     inkscape:pageopacity="1"
     inkscape:pageshadow="2"
     inkscape:zoom="1"
     inkscape:cx="244.05571"
     inkscape:cy="194.48444"
     inkscape:document-units="px"
     inkscape:current-layer="layer3"
     showgrid="false"
     inkscape:window-width="1920"
     inkscape:window-height="1137"
     inkscape:window-x="1912"
     inkscape:window-y="-8"
     inkscape:window-maximized="1"
     units="px"
     fit-margin-top="25"
     fit-margin-left="25"
     fit-margin-right="25"
     fit-margin-bottom="25"
     showguides="true"
     inkscape:guide-bbox="true"
     inkscape:snap-object-midpoints="false"
     inkscape:object-nodes="true" />
  <metadata
     id="metadata4152">
    <rdf:RDF>
      <cc:Work
         rdf:about="">
        <dc:format>image/svg+xml</dc:format>
        <dc:type
           rdf:resource="http://purl.org/dc/dcmitype/StillImage" />
        <dc:title />
        <dc:description>Terminal silhouette of GRK (Killeen/Fort Hood)</dc:description>
      </cc:Work>
    </rdf:RDF>
  </metadata>
  <g
     inkscape:groupmode="layer"
     id="layer3"
     inkscape:label="Terminal"
     style="display:inline"
     transform="translate(-41.642678,-403.35736)">
    <path
       style="display:inline;fill:#dddddd;fill-opacity:1;fill-rule:evenodd;stroke:#222222;stroke-width:1.5;stroke-linecap:butt;stroke-linejoin:miter;stroke-miterlimit:4;stroke-dasharray:none;stroke-opacity:1"
       d="m 506.80097,516.53891 a 16.245892,16.245892 0 0 0 -6.68733,-7.71118 l 0.75006,-1.25616 -2.69566,-6.50245 -3.27816,1.359 -2.14055,-5.16339 3.27817,-1.359 -2.44252,-5.89181 -3.27816,1.35899 -1.64171,-3.9601 3.27816,-1.359 -8.9294,-21.53941 -3.27816,1.359 -1.68178,-4.05676 3.27816,-1.359 -2.56274,-6.18181 -4.38215,1.81667 -11.09162,-26.7551 -16.70986,6.92725 3.24334,7.82354 -13.32975,5.52599 10.41103,25.11338 6.82889,-2.83099 17.01551,41.04463 a 18.188155,18.188155 0 0 0 -3.23936,4.12534 l -4.21603,-2.75484 -1.43631,2.19742 4.51229,2.94834 a 18.188155,18.188155 0 0 0 0.091,13.64294 18.188155,18.188155 0 0 0 17.28719,11.19621 l 16.95529,40.89936 0.81373,1.96288 1.14834,2.77001 7.56312,-3.13536 -1.14833,-2.77002 7.92019,-3.28341 1.38856,3.34946 8.01739,-3.3237 4.32467,10.43192 4.09215,-1.69645 -4.32466,-10.43189 -1.96207,-4.7329 -15.37622,-37.09035 -3.27816,1.35901 -1.63338,-3.94003 3.27816,-1.359 -2.58245,-6.22936 -1.42032,-0.35764 a 16.245892,16.245892 0 0 0 -0.72852,-10.18023 z"
       id="path6517"
       inkscape:connector-curvature="0" />
  </g>
  <g
     inkscape:groupmode="layer"
     id="layer8"
     inkscape:label="Label"
     transform="translate(-41.642678,-403.35736)" />
  <g
     inkscape:groupmode="layer"
     id="layer9"
     inkscape:label="Date"
     transform="translate(-41.642678,-403.35736)">
    <g
       id="g6940">
      <g
         transform="translate(5e-5,-7.6632189)"
         id="g6929">
        <g
           style="font-style:normal;font-variant:normal;font-weight:bold;font-stretch:normal;font-size:125px;line-height:125%;font-family:Overpass;-inkscape-font-specification:'Overpass, Bold';text-align:start;letter-spacing:0px;word-spacing:0px;writing-mode:lr-tb;text-anchor:start;fill:#dddddd;fill-opacity:1;stroke:#222222;stroke-width:0.25;stroke-linecap:butt;stroke-linejoin:miter;stroke-miterlimit:4;stroke-dasharray:none;stroke-opacity:1"
           id="text6726">
          <path
             d="m 105.28081,540.85394 q -6.774901,0 -12.268065,-1.77002 -5.493164,-1.77002 -9.765625,-4.88281 -4.272461,-3.11279 -7.385254,-7.38525 -3.112793,-4.3335 -5.126953,-9.33838 -2.01416,-5.00488 -2.990723,-10.55908 -0.976562,-5.61524 -0.976562,-11.35254 0,-5.31006 0.976562,-10.74219 1.037598,-5.43213 3.112793,-10.43701 2.136231,-5.06592 5.249024,-9.46045 3.173828,-4.39453 7.446289,-7.6294 4.333496,-3.23486 9.70459,-5.06591 5.432128,-1.89209 12.023924,-1.89209 6.34766,0 11.16943,1.58691 4.88282,1.58691 8.60596,4.21143 3.78418,2.56347 6.53076,5.98144 2.80762,3.35693 5.06592,6.95801 l -14.89258,8.48389 q -1.46484,-2.19727 -3.17382,-4.15039 -1.70899,-2.01416 -3.72315,-3.54004 -1.95312,-1.52588 -4.3335,-2.38037 -2.38037,-0.91553 -5.24902,-0.91553 -4.08935,0 -7.202147,1.28174 -3.112793,1.2207 -5.493164,3.41796 -2.319336,2.13624 -3.90625,5.00489 -1.586914,2.86865 -2.563477,6.10351 -0.976562,3.23487 -1.403808,6.65284 -0.427246,3.35693 -0.427246,6.53076 0,5.5542 1.159668,10.80322 1.159667,5.18799 3.662109,9.27734 2.563476,4.02832 6.530762,6.46973 4.02832,2.44141 9.643553,2.44141 3.17383,0 5.92041,-1.09864 2.80762,-1.15966 4.88281,-3.05175 2.0752,-1.95313 3.23487,-4.57764 1.2207,-2.62451 1.2207,-5.61524 l 0,-0.73242 -14.89258,0 0,-16.05224 32.10449,0 0,12.87841 q 0,8.42286 -2.50244,14.89258 -2.50244,6.40869 -6.89697,10.80323 -4.3335,4.33349 -10.25391,6.59179 -5.92041,2.2583 -12.81738,2.2583 z"
             id="path6950"
             inkscape:connector-curvature="0" />
          <path
             d="m 156.55034,539.32806 0,-87.52441 40.64942,0 q 8.30078,0 13.85498,2.31934 5.61523,2.2583 9.0332,6.04248 3.41797,3.78418 4.88281,8.72802 1.46485,4.94385 1.46485,10.31495 0,3.72314 -1.09864,7.56835 -1.03759,3.78418 -3.17382,7.20215 -2.13623,3.41797 -5.31006,6.22559 -3.17383,2.74658 -7.38526,4.27246 l 16.96778,34.85107 -18.98194,0 -16.35742,-32.6538 -17.63916,0 0,32.6538 -16.90674,0 z m 40.89356,-48.64502 q 3.23486,0 5.43213,-0.91552 2.19726,-0.97657 3.54004,-2.56348 1.34277,-1.58691 1.89209,-3.66211 0.61035,-2.07519 0.61035,-4.33349 0,-2.0752 -0.54932,-4.08936 -0.48828,-2.0752 -1.77002,-3.66211 -1.28174,-1.64795 -3.54004,-2.62451 -2.19726,-0.97656 -5.61523,-0.97656 l -23.98682,0 0,22.82714 23.98682,0 z"
             id="path6952"
             inkscape:connector-curvature="0" />
          <path
             d="m 301.56987,539.32806 -22.52197,-41.87011 -16.23535,20.01953 0,21.85058 -16.90674,0 0,-87.52441 16.90674,0 0,41.74805 33.14209,-41.74805 19.9585,0 -25.5127,31.37207 30.88379,56.15234 -19.71436,0 z"
             id="path6954"
             inkscape:connector-curvature="0" />
        </g>
        <g
           style="font-style:normal;font-variant:normal;font-weight:normal;font-stretch:normal;font-size:45px;line-height:125%;font-family:Overpass;-inkscape-font-specification:'Overpass, Normal';text-align:start;letter-spacing:0px;word-spacing:0px;writing-mode:lr-tb;text-anchor:start;fill:#222222;fill-opacity:1;stroke:none;stroke-width:1px;stroke-linecap:butt;stroke-linejoin:miter;stroke-opacity:1"
           id="text6730">
          <path
             d="m 85.780811,588.47662 -8.876953,-16.47949 -5.581055,6.76758 0,9.71191 -4.680175,0 0,-31.50879 4.680175,0 0,15.271 12.150879,-15.271 5.405274,0 -8.811035,11.07422 11.206054,20.43457 -5.493164,0 z"
             id="path6957"
             inkscape:connector-curvature="0" />
          <path
             d="m 96.52544,588.47662 0,-23.00537 4.68018,0 0,23.00537 -4.68018,0 z m 2.329102,-26.58691 q -0.593262,0 -1.120606,-0.21973 -0.505371,-0.21972 -0.900879,-0.59326 -0.373535,-0.39551 -0.593261,-0.90088 -0.219727,-0.52734 -0.219727,-1.1206 0,-0.59326 0.219727,-1.09864 0.219726,-0.52734 0.593261,-0.90087 0.395508,-0.39551 0.900879,-0.61524 0.527344,-0.21973 1.120606,-0.21973 0.593261,0 1.098633,0.21973 0.527345,0.21973 0.900875,0.61524 0.39551,0.37353 0.61524,0.90087 0.21972,0.50538 0.21972,1.09864 0,0.59326 -0.21972,1.1206 -0.21973,0.50537 -0.61524,0.90088 -0.37353,0.37354 -0.900875,0.59326 -0.505372,0.21973 -1.098633,0.21973 z"
             id="path6959"
             inkscape:connector-curvature="0" />
          <path
             d="m 108.21489,588.47662 0,-30.27832 4.68018,-2.21924 0,32.49756 -4.68018,0 z"
             id="path6961"
             inkscape:connector-curvature="0" />
          <path
             d="m 120.08013,588.47662 0,-30.27832 4.68017,-2.21924 0,32.49756 -4.68017,0 z"
             id="path6963"
             inkscape:connector-curvature="0" />
          <path
             d="m 141.04204,589.02594 q -2.39502,0 -4.32861,-0.81299 -1.9336,-0.83496 -3.2959,-2.37305 -1.3623,-1.56005 -2.10937,-3.80126 -0.7251,-2.24122 -0.7251,-5.07569 0,-2.83447 0.74707,-5.05371 0.74707,-2.24121 2.10937,-3.7793 1.38428,-1.56005 3.2959,-2.37304 1.93359,-0.81299 4.30664,-0.81299 2.04346,0 3.82324,0.65918 1.80176,0.63721 3.14209,1.97754 1.36231,1.31836 2.13135,3.33984 0.79102,2.02149 0.79102,4.76807 0,0.74707 -0.044,1.58203 -0.022,0.83496 -0.13183,1.45019 l -15.49073,0 q 0.022,1.42823 0.50537,2.5708 0.50538,1.12061 1.31836,1.9336 0.81299,0.79101 1.84571,1.23047 1.03271,0.41748 2.15332,0.41748 1.42822,0 2.63672,-0.59326 1.23046,-0.59327 2.13134,-1.73584 l 3.0542,3.14209 q -1.25244,1.49414 -3.20801,2.41699 -1.95556,0.92285 -4.6582,0.92285 z m 0,-19.95117 q -1.09863,0 -2.10937,0.32959 -1.01075,0.30762 -1.80176,1.01074 -0.76904,0.68115 -1.27442,1.80176 -0.50537,1.1206 -0.59326,2.72461 l 10.98633,0 q -0.0439,-1.60401 -0.50537,-2.72461 -0.46143,-1.12061 -1.2085,-1.80176 -0.74707,-0.70312 -1.66992,-1.01074 -0.90088,-0.32959 -1.82373,-0.32959 z"
             id="path6965"
             inkscape:connector-curvature="0" />
          <path
             d="m 165.65142,589.02594 q -2.39502,0 -4.32862,-0.81299 -1.93359,-0.83496 -3.29589,-2.37305 -1.36231,-1.56005 -2.10938,-3.80126 -0.7251,-2.24122 -0.7251,-5.07569 0,-2.83447 0.74707,-5.05371 0.74707,-2.24121 2.10938,-3.7793 1.38428,-1.56005 3.2959,-2.37304 1.93359,-0.81299 4.30664,-0.81299 2.04345,0 3.82324,0.65918 1.80176,0.63721 3.14209,1.97754 1.3623,1.31836 2.13135,3.33984 0.79101,2.02149 0.79101,4.76807 0,0.74707 -0.0439,1.58203 -0.022,0.83496 -0.13184,1.45019 l -15.49072,0 q 0.022,1.42823 0.50537,2.5708 0.50537,1.12061 1.31836,1.9336 0.81299,0.79101 1.8457,1.23047 1.03272,0.41748 2.15332,0.41748 1.42822,0 2.63672,-0.59326 1.23047,-0.59327 2.13135,-1.73584 l 3.0542,3.14209 q -1.25244,1.49414 -3.20801,2.41699 -1.95557,0.92285 -4.6582,0.92285 z m 0,-19.95117 q -1.09864,0 -2.10938,0.32959 -1.01074,0.30762 -1.80176,1.01074 -0.76904,0.68115 -1.27441,1.80176 -0.50537,1.1206 -0.59326,2.72461 l 10.98633,0 q -0.0439,-1.60401 -0.50537,-2.72461 -0.46143,-1.12061 -1.2085,-1.80176 -0.74707,-0.70312 -1.66992,-1.01074 -0.90088,-0.32959 -1.82373,-0.32959 z"
             id="path6967"
             inkscape:connector-curvature="0" />
          <path
             d="m 195.16069,588.47662 0,-13.73291 q 0,-1.45019 -0.35156,-2.46093 -0.35156,-1.03272 -0.9668,-1.66993 -0.61523,-0.65918 -1.45019,-0.94482 -0.83496,-0.30762 -1.82373,-0.30762 -1.05469,0 -1.95557,0.28565 -0.90088,0.26367 -1.56006,0.8789 -0.65918,0.61524 -1.05468,1.64795 -0.37354,1.01074 -0.37354,2.48291 l 0,13.8208 -4.68017,0 0,-23.00537 4.68017,0 0,2.21924 q 1.12061,-1.42822 2.5708,-2.0874 1.4502,-0.65918 3.36182,-0.65918 1.80176,0 3.31787,0.52734 1.51611,0.50537 2.61475,1.66992 1.1206,1.16456 1.73584,3.03223 0.61523,1.86768 0.61523,4.57031 l 0,13.73291 -4.68018,0 z"
             id="path6969"
             inkscape:connector-curvature="0" />
          <path
             d="m 202.27983,594.32135 17.68799,-37.88086 4.72412,0 -17.68798,37.88086 -4.72413,0 z"
             id="path6971"
             inkscape:connector-curvature="0" />
          <path
             d="m 229.24028,588.47662 0,-31.50879 19.5337,0 0,4.41651 -14.85352,0 0,8.63525 9.60205,0 0,4.41651 -9.60205,0 0,14.04052 -4.68018,0 z"
             id="path6973"
             inkscape:connector-curvature="0" />
          <path
             d="m 259.47466,589.02594 q -2.41699,0 -4.37256,-0.81299 -1.93359,-0.81299 -3.2959,-2.35107 -1.3623,-1.56006 -2.10937,-3.7793 -0.7251,-2.24121 -0.7251,-5.07568 0,-2.83448 0.7251,-5.07569 0.74707,-2.24121 2.10937,-3.77929 1.36231,-1.56006 3.2959,-2.37305 1.95557,-0.83496 4.37256,-0.83496 2.39502,0 4.35058,0.83496 1.95557,0.81299 3.31788,2.37305 1.3623,1.53808 2.10937,3.77929 0.74707,2.24121 0.74707,5.07569 0,2.83447 -0.74707,5.07568 -0.74707,2.21924 -2.10937,3.7793 -1.36231,1.53808 -3.31788,2.35107 -1.95556,0.81299 -4.35058,0.81299 z m 0,-4.4165 q 1.34033,0 2.41699,-0.52735 1.09863,-0.52734 1.8457,-1.49414 0.76905,-0.98877 1.16456,-2.39502 0.41748,-1.40625 0.41748,-3.18603 0,-1.77979 -0.41748,-3.18604 -0.39551,-1.42822 -1.16456,-2.41699 -0.74707,-0.98877 -1.8457,-1.51611 -1.07666,-0.52735 -2.41699,-0.52735 -1.34033,0 -2.41699,0.52735 -1.07666,0.52734 -1.84571,1.51611 -0.74707,0.98877 -1.16455,2.41699 -0.3955,1.40625 -0.3955,3.18604 0,1.77978 0.3955,3.18603 0.41748,1.40625 1.16455,2.39502 0.76905,0.9668 1.84571,1.49414 1.07666,0.52735 2.41699,0.52735 z"
             id="path6975"
             inkscape:connector-curvature="0" />
          <path
             d="m 275.60259,588.47662 0,-23.00537 4.68017,0 0,2.79053 q 0.81299,-1.75781 2.10938,-2.52686 1.29639,-0.79101 3.01025,-0.79101 2.28516,0 3.86719,1.38428 l -0.68115,4.32861 q -0.63721,-0.43945 -1.51611,-0.76904 -0.85694,-0.35157 -2.10938,-0.35157 -0.79102,0 -1.62598,0.28565 -0.81298,0.26367 -1.49414,0.9668 -0.68115,0.68115 -1.1206,1.8457 -0.43946,1.14258 -0.43946,2.92236 l 0,12.91992 -4.68017,0 z"
             id="path6977"
             inkscape:connector-curvature="0" />
          <path
             d="m 300.45366,589.02594 q -1.3623,0 -2.35107,-0.41748 -0.9668,-0.39551 -1.60401,-1.14258 -0.61523,-0.74707 -0.90087,-1.80176 -0.28565,-1.07666 -0.28565,-2.37304 l 0,-13.75489 -3.55957,0 0,-4.06494 3.55957,0 0,-7.229 4.68018,-2.26319 0,9.49219 5.44922,0 0,4.06494 -5.44922,0 0,12.54639 q 0,0.57129 0.0879,1.05469 0.10986,0.4834 0.35156,0.83496 0.26367,0.35156 0.70313,0.54932 0.43945,0.17578 1.1206,0.17578 1.66992,0 3.40576,-1.07666 l -0.57129,4.35058 q -0.96679,0.4834 -2.10937,0.76905 -1.14258,0.28564 -2.52686,0.28564 z"
             id="path6979"
             inkscape:connector-curvature="0" />
          <path
             d="m 340.9273,588.47662 0,-14.04052 -14.37012,0 0,14.04052 -4.68018,0 0,-31.50879 4.68018,0 0,13.05176 14.37012,0 0,-13.05176 4.68017,0 0,31.50879 -4.68017,0 z"
             id="path6981"
             inkscape:connector-curvature="0" />
          <path
             d="m 362.39458,589.02594 q -2.41699,0 -4.37256,-0.81299 -1.93359,-0.81299 -3.2959,-2.35107 -1.3623,-1.56006 -2.10937,-3.7793 -0.7251,-2.24121 -0.7251,-5.07568 0,-2.83448 0.7251,-5.07569 0.74707,-2.24121 2.10937,-3.77929 1.36231,-1.56006 3.2959,-2.37305 1.95557,-0.83496 4.37256,-0.83496 2.39502,0 4.35059,0.83496 1.95556,0.81299 3.31787,2.37305 1.3623,1.53808 2.10937,3.77929 0.74707,2.24121 0.74707,5.07569 0,2.83447 -0.74707,5.07568 -0.74707,2.21924 -2.10937,3.7793 -1.36231,1.53808 -3.31787,2.35107 -1.95557,0.81299 -4.35059,0.81299 z m 0,-4.4165 q 1.34033,0 2.41699,-0.52735 1.09864,-0.52734 1.84571,-1.49414 0.76904,-0.98877 1.16455,-2.39502 0.41748,-1.40625 0.41748,-3.18603 0,-1.77979 -0.41748,-3.18604 -0.39551,-1.42822 -1.16455,-2.41699 -0.74707,-0.98877 -1.84571,-1.51611 -1.07666,-0.52735 -2.41699,-0.52735 -1.34033,0 -2.41699,0.52735 -1.07666,0.52734 -1.8457,1.51611 -0.74707,0.98877 -1.16456,2.41699 -0.3955,1.40625 -0.3955,3.18604 0,1.77978 0.3955,3.18603 0.41749,1.40625 1.16456,2.39502 0.76904,0.9668 1.8457,1.49414 1.07666,0.52735 2.41699,0.52735 z"
             id="path6983"
             inkscape:connector-curvature="0" />
          <path
             d="m 387.88286,589.02594 q -2.41699,0 -4.37256,-0.81299 -1.93359,-0.81299 -3.29589,-2.35107 -1.36231,-1.56006 -2.10938,-3.7793 -0.7251,-2.24121 -0.7251,-5.07568 0,-2.83448 0.7251,-5.07569 0.74707,-2.24121 2.10938,-3.77929 1.3623,-1.56006 3.29589,-2.37305 1.95557,-0.83496 4.37256,-0.83496 2.39502,0 4.35059,0.83496 1.95556,0.81299 3.31787,2.37305 1.3623,1.53808 2.10937,3.77929 0.74707,2.24121 0.74707,5.07569 0,2.83447 -0.74707,5.07568 -0.74707,2.21924 -2.10937,3.7793 -1.36231,1.53808 -3.31787,2.35107 -1.95557,0.81299 -4.35059,0.81299 z m 0,-4.4165 q 1.34033,0 2.41699,-0.52735 1.09864,-0.52734 1.84571,-1.49414 0.76904,-0.98877 1.16455,-2.39502 0.41748,-1.40625 0.41748,-3.18603 0,-1.77979 -0.41748,-3.18604 -0.39551,-1.42822 -1.16455,-2.41699 -0.74707,-0.98877 -1.84571,-1.51611 -1.07666,-0.52735 -2.41699,-0.52735 -1.34033,0 -2.41699,0.52735 -1.07666,0.52734 -1.8457,1.51611 -0.74707,0.98877 -1.16455,2.41699 -0.39551,1.40625 -0.39551,3.18604 0,1.77978 0.39551,3.18603 0.41748,1.40625 1.16455,2.39502 0.76904,0.9668 1.8457,1.49414 1.07666,0.52735 2.41699,0.52735 z"
             id="path6985"
             inkscape:connector-curvature="0" />
          <path
             d="m 412.42632,589.02594 q -2.17529,0 -3.95508,-0.81299 -1.75781,-0.83496 -3.01025,-2.37305 -1.25244,-1.56005 -1.9336,-3.80126 -0.65918,-2.24122 -0.65918,-5.07569 0,-2.83447 0.70313,-5.05371 0.70312,-2.24121 1.95557,-3.7793 1.27441,-1.56005 3.03222,-2.37304 1.75781,-0.81299 3.86719,-0.81299 1.88965,0 3.20801,0.61523 1.34033,0.61524 2.21924,1.53809 l 0,-8.94287 4.68017,-2.1753 0,32.49756 -4.68017,0 0,-1.62597 q -0.92286,1.03271 -2.21924,1.604 -1.27442,0.57129 -3.20801,0.57129 z m 0.65918,-4.4165 q 1.58203,0 2.79053,-0.68116 1.20849,-0.68115 1.97754,-1.93359 l 0,-10.12939 q -0.26368,-0.43946 -0.70313,-0.87891 -0.43945,-0.43945 -1.05469,-0.79102 -0.59326,-0.37353 -1.3623,-0.59326 -0.74707,-0.2417 -1.64795,-0.2417 -2.63672,0 -4.08692,1.95557 -1.45019,1.93359 -1.45019,5.64697 0,1.66992 0.37353,3.07617 0.39551,1.38428 1.09864,2.417 0.7251,1.01074 1.73584,1.58203 1.03271,0.57129 2.3291,0.57129 z"
             id="path6987"
             inkscape:connector-curvature="0" />
        </g>
      </g>
      <g
         style="font-style:normal;font-variant:normal;font-weight:300;font-stretch:normal;font-size:15px;line-height:125%;font-family:Overpass;-inkscape-font-specification:'Overpass, Light';text-align:start;letter-spacing:0px;word-spacing:0px;writing-mode:lr-tb;text-anchor:start;fill:#222222;fill-opacity:1;stroke:none;stroke-width:1px;stroke-linecap:butt;stroke-linejoin:miter;stroke-opacity:1"
         id="text6734">
        <path
           d="m 68.427679,612.48822 0,-8.595 -1.785,0 0,-0.6 q 0.795,0 1.35,-0.27 0.555,-0.285 0.81,-1.035 l 0.675,0 0,10.5 -1.05,0 z"
           id="path6990"
           inkscape:connector-curvature="0" />
        <path
           d="m 76.309476,612.48822 0,-2.835 -5.1,0 0,-0.555 5.52,-7.11 0.63,0 0,6.765 1.59,0 0,0.9 -1.59,0 0,2.835 -1.05,0 z m 0,-3.735 0,-4.95 -3.735,4.95 3.735,0 z"
           id="path6992"
           inkscape:connector-curvature="0" />
        <path
           d="m 88.434866,611.72322 q 0.9,0 1.515,-0.405 0.63,-0.405 1.005,-1.05 0.39,-0.645 0.555,-1.44 0.18,-0.81 0.18,-1.59 0,-0.855 -0.18,-1.665 -0.165,-0.81 -0.555,-1.425 -0.375,-0.63 -1.005,-1.005 -0.615,-0.39 -1.515,-0.39 -0.9,0 -1.53,0.405 -0.615,0.405 -1.005,1.05 -0.375,0.645 -0.555,1.455 -0.165,0.795 -0.165,1.575 0,0.855 0.165,1.665 0.18,0.81 0.555,1.44 0.39,0.615 1.005,1.005 0.63,0.375 1.53,0.375 z m 0,0.945 q -1.215,0 -2.055,-0.48 -0.825,-0.48 -1.335,-1.26 -0.51,-0.78 -0.735,-1.74 -0.225,-0.975 -0.225,-1.95 0,-0.975 0.225,-1.935 0.225,-0.975 0.735,-1.755 0.51,-0.78 1.335,-1.26 0.84,-0.48 2.055,-0.48 1.215,0 2.04,0.48 0.84,0.48 1.35,1.26 0.51,0.78 0.735,1.755 0.225,0.96 0.225,1.935 0,0.975 -0.225,1.95 -0.225,0.96 -0.735,1.74 -0.51,0.78 -1.35,1.26 -0.825,0.48 -2.04,0.48 z"
           id="path6994"
           inkscape:connector-curvature="0" />
        <path
           d="m 97.524632,612.66822 q -1.395,0 -2.22,-1.035 -0.81,-1.05 -0.81,-2.97 0,-1.905 0.825,-2.955 0.84,-1.065 2.325,-1.065 0.855,0 1.5,0.42 0.645,0.405 0.959998,1.185 l -0.959998,0.375 q -0.18,-0.435 -0.555,-0.735 -0.36,-0.3 -0.99,-0.3 -0.54,0 -0.915,0.225 -0.375,0.21 -0.63,0.615 -0.24,0.39 -0.36,0.96 -0.105,0.57 -0.105,1.275 0,1.455 0.48,2.265 0.48,0.795 1.5,0.795 0.63,0 1.065,-0.315 0.435,-0.315 0.63,-0.855 l 0.944998,0.36 q -0.269998,0.81 -0.989998,1.29 -0.705,0.465 -1.695,0.465 z"
           id="path6996"
           inkscape:connector-curvature="0" />
        <path
           d="m 104.00018,612.66822 q -0.825,0 -1.17,-0.495 -0.345,-0.51 -0.345,-1.26 l 0,-5.145 -1.305,0 0,-0.945 1.305,0 0,-2.64 1.05,-0.525 0,3.165 1.95,0 0,0.945 -1.95,0 0,4.695 q 0,0.255 0.015,0.48 0.03,0.21 0.12,0.375 0.09,0.165 0.255,0.27 0.165,0.09 0.435,0.09 0.39,0 0.66,-0.15 0.285,-0.15 0.495,-0.3 l -0.12,1.095 q -0.3,0.165 -0.63,0.255 -0.33,0.09 -0.765,0.09 z"
           id="path6998"
           inkscape:connector-curvature="0" />
        <path
           d="m 110.78932,612.48822 q 0,-0.99 0.285,-1.695 0.285,-0.72 0.735,-1.26 0.45,-0.54 1.02,-0.945 0.57,-0.405 1.14,-0.795 0.495,-0.33 0.945,-0.645 0.45,-0.33 0.795,-0.69 0.36,-0.36 0.57,-0.765 0.21,-0.42 0.21,-0.93 0,-0.855 -0.6,-1.425 -0.585,-0.585 -1.68,-0.585 -1.065,0 -1.605,0.48 -0.54,0.465 -0.735,1.215 l -0.93,-0.42 q 0.12,-0.465 0.405,-0.87 0.285,-0.405 0.72,-0.705 0.435,-0.3 0.99,-0.465 0.57,-0.18 1.245,-0.18 1.56,0 2.415,0.81 0.87,0.795 0.87,2.145 0,0.72 -0.285,1.275 -0.27,0.555 -0.72,1.02 -0.435,0.45 -0.99,0.84 -0.555,0.375 -1.125,0.735 -0.45,0.3 -0.87,0.6 -0.42,0.285 -0.78,0.63 -0.345,0.33 -0.585,0.735 -0.24,0.39 -0.33,0.885 l 5.775,0 0,1.005 -6.885,0 z"
           id="path7000"
           inkscape:connector-curvature="0" />
        <path
           d="m 123.36846,612.66822 q -1.035,0 -1.725,-0.48 -0.69,-0.48 -1.11,-1.245 -0.405,-0.78 -0.585,-1.74 -0.18,-0.975 -0.18,-1.965 0,-0.54 0.06,-1.155 0.06,-0.63 0.21,-1.23 0.165,-0.6 0.42,-1.155 0.27,-0.555 0.675,-0.975 0.405,-0.42 0.945,-0.66 0.555,-0.255 1.29,-0.255 1.035,0 1.725,0.495 0.69,0.48 1.095,1.26 0.42,0.78 0.6,1.755 0.18,0.96 0.18,1.92 0,0.555 -0.075,1.17 -0.06,0.615 -0.225,1.23 -0.15,0.6 -0.42,1.155 -0.255,0.54 -0.66,0.96 -0.405,0.42 -0.96,0.675 -0.54,0.24 -1.26,0.24 z m 0,-0.945 q 0.78,0 1.26,-0.42 0.495,-0.435 0.765,-1.095 0.27,-0.66 0.36,-1.455 0.09,-0.795 0.09,-1.515 0,-0.81 -0.105,-1.605 -0.105,-0.81 -0.39,-1.44 -0.285,-0.645 -0.765,-1.035 -0.48,-0.405 -1.215,-0.405 -0.795,0 -1.29,0.435 -0.48,0.435 -0.75,1.095 -0.27,0.66 -0.375,1.455 -0.09,0.78 -0.09,1.5 0,0.825 0.105,1.635 0.105,0.795 0.39,1.44 0.285,0.63 0.765,1.02 0.495,0.39 1.245,0.39 z"
           id="path7002"
           inkscape:connector-curvature="0" />
        <path
           d="m 130.39057,612.48822 0,-8.595 -1.785,0 0,-0.6 q 0.795,0 1.35,-0.27 0.555,-0.285 0.81,-1.035 l 0.675,0 0,10.5 -1.05,0 z"
           id="path7004"
           inkscape:connector-curvature="0" />
        <path
           d="m 135.47534,612.48822 q 0.015,-1.23 0.15,-2.43 0.15,-1.2 0.51,-2.385 0.375,-1.185 0.99,-2.37 0.615,-1.2 1.575,-2.415 l -5.085,0 0,-0.9 6.285,0 0,0.69 q -1.095,1.26 -1.755,2.595 -0.66,1.32 -1.02,2.61 -0.36,1.275 -0.48,2.46 -0.12,1.185 -0.12,2.145 l -1.05,0 z"
           id="path7006"
           inkscape:connector-curvature="0" />
      </g>
    </g>
  </g>
</svg>
