<?xml version="1.0" encoding="UTF-8" standalone="no"?>
<!-- Created with Inkscape (http://www.inkscape.org/) -->

<svg
   xmlns:dc="http://purl.org/dc/elements/1.1/"
   xmlns:cc="http://creativecommons.org/ns#"
   xmlns:rdf="http://www.w3.org/1999/02/22-rdf-syntax-ns#"
   xmlns:svg="http://www.w3.org/2000/svg"
   xmlns="http://www.w3.org/2000/svg"
   xmlns:sodipodi="http://sodipodi.sourceforge.net/DTD/sodipodi-0.dtd"
   xmlns:inkscape="http://www.inkscape.org/namespaces/inkscape"
   width="1255.957"
   height="1025.3813"
   viewBox="0 0 1255.957 1025.3814"
   id="svg2"
   version="1.1"
   inkscape:version="0.92.4 (5da689c313, 2019-01-14)"
   sodipodi:docname="HNL.svg"
   inkscape:export-filename="C:\Users\paulb\Dropbox\Projects\Terminal Silhouettes\Silhouettes\png\HNL.png"
   inkscape:export-xdpi="89.996498"
   inkscape:export-ydpi="89.996498">
  <defs
     id="defs4" />
  <sodipodi:namedview
     id="base"
     pagecolor="#ffffff"
     bordercolor="#666666"
     borderopacity="1.0"
     inkscape:pageopacity="1"
     inkscape:pageshadow="2"
     inkscape:zoom="0.7"
     inkscape:cx="95.056901"
     inkscape:cy="522.63555"
     inkscape:document-units="px"
     inkscape:current-layer="layer2"
     showgrid="false"
     inkscape:window-width="1920"
     inkscape:window-height="1137"
     inkscape:window-x="1912"
     inkscape:window-y="-8"
     inkscape:window-maximized="1"
     units="px"
     fit-margin-top="25"
     fit-margin-left="25"
     fit-margin-right="25"
     fit-margin-bottom="25" />
  <metadata
     id="metadata7">
    <rdf:RDF>
      <cc:Work
         rdf:about="">
        <dc:format>image/svg+xml</dc:format>
        <dc:type
           rdf:resource="http://purl.org/dc/dcmitype/StillImage" />
        <dc:title />
      </cc:Work>
    </rdf:RDF>
  </metadata>
  <g
     inkscape:groupmode="layer"
     id="layer2"
     inkscape:label="Terminal"
     style="display:inline"
     transform="translate(71.907989,-269.78114)">
    <path
       style="fill:#dddddd;fill-opacity:1;fill-rule:evenodd;stroke:#222222;stroke-width:1.5;stroke-linecap:butt;stroke-linejoin:miter;stroke-miterlimit:4;stroke-dasharray:none;stroke-opacity:1"
       d="m 186.85018,295.3661 -35.25221,223.76673 1.85546,0.55677 -0.92845,6.30826 19.29645,3.34068 1.11356,-6.12314 3.89602,0.74189 -1.6689,8.90562 -23.19391,-3.71092 -3.71091,23.00879 46.38638,7.60694 0.92844,-7.23671 30.24262,25.23448 7.23671,0.55678 -0.18511,2.22568 -8.16372,-1.29867 -44.90258,278.1317 11.01075,1.50244 -0.78638,4.592 -9.05341,-1.44217 -3.6736,24.27159 8.39762,1.44361 0,5.77157 -7.21662,6.29821 -1.04898,-0.9184 -4.3294,3.54302 -10.75963,-12.46441 -38.04759,33.45559 20.2048,21.77903 22.96,-21.77903 24.66622,3.54301 1.96738,-12.8576 70.4542,9.31459 1.44361,1.96882 -0.9184,4.45998 2.8413,0.41615 -6.64549,46.29163 c 0,0 -0.26281,6.82261 5.90359,14.03867 0,0 4.9858,4.59141 3.0178,13.90652 l -2.362,11.4141 -22.34296,143.7037 c 0,0 -5.93752,30.0588 -25.97636,46.2012 0,0 -19.85331,18.7394 -42.11869,19.4816 l -119.491012,0.3717 c 0,0 -34.882302,-2.2261 -43.41736,-40.4483 l -21.5235639,4.6379 -0.3702327,-1.2987 -4.6393524,0.7418 -8.348837,3.711 -18.554545,-3.3393 -7.421818,47.4985 26.348029,31.3576 263.101512,0.5568 30.80084,-26.5331 35.06853,-217.0868 -6.49481,-1.2987 0.7419,-5.938 -9.64751,-2.0406 0.92701,-5.1961 44.90259,-66.60988 c 0,0 3.7108,-5.75245 14.28685,-4.08255 l 0,2.59739 7.23528,1.29862 0.55677,-2.41078 28.38861,4.26624 -0.37023,2.59878 8.7205,1.11214 0.18511,-1.85546 18.73967,2.969 0,-1.48376 4.26768,0.55677 -2.59734,17.99777 16.51398,2.78246 -0.18656,1.48524 9.27728,1.66891 -0.55678,4.08255 c 0,0 13.54506,13.17309 39.52134,7.05015 l 0.92844,-5.93661 10.76107,2.41223 2.22712,-14.84362 -6.12315,-1.29869 0.7419,-4.82447 28.57371,5.19469 -0.92701,3.52585 8.34883,1.67032 -2.04057,13.91522 2.04057,2.22709 25.79126,4.45284 48.05528,111.69746 -5.37982,2.5974 2.78247,4.4543 -3.33925,1.6688 -22.452,141.9417 c 0,0 16.51453,17.6274 47.8716,7.7934 l 23.00735,-142.1281 -2.22712,-2.5974 3.5258,-3.7109 -4.26769,-3.7109 96.66877,-108.9136 13.73008,2.2257 -0.37023,3.896 16.32743,3.1541 0.7419,-3.3393 19.85322,3.711 -0.74189,3.3392 -3.15413,-0.5553 -2.22712,13.5435 1.48522,0.1866 c 0,0 -0.92786,3.8958 3.15413,4.6379 l 5.00959,0.9285 -0.55678,2.0405 c 0,0 12.06012,12.2459 39.14966,6.8651 l 0.92845,-5.9366 10.57595,1.8554 2.22568,-13.9166 -4.4528,-0.9271 0.55678,-4.0825 7.60693,1.4837 -0.55534,3.1542 6.30826,1.1135 -2.41223,16.5141 11.87462,1.8554 -0.37166,2.5973 26.71967,4.6394 0.55537,-2.5988 30.05894,5.0096 2.969,-20.7803 6.67854,1.1137 c 0,0 4.82542,0.556 6.86647,5.1946 l 22.82077,59.9314 c 0,0 2.78378,7.9787 2.22716,15.9571 l -0.55677,7.4219 -17.8127,-2.969 -14.10031,89.8037 12.05977,37.4793 32.09947,24.4927 146.95122,-0.1867 0,-4.081 38.4078,0 0,-19.1114 -8.7206,-23.0073 c 0,0 -8.7206,3.3398 -22.2654,3.7109 l -105.7609,-0.5568 c 0,0 -20.9661,-0.5571 -34.88204,-19.6682 0,0 -12.43094,-16.142 -8.90561,-39.1496 l 8.16377,-48.9838 c 0,0 0.18566,-8.5345 9.834,-13.1732 0,0 10.76148,-2.4122 12.43138,-16.6992 l 10.0192,-64.0138 -9.4623,-1.4838 c 0,0 -1.1131,10.2048 -11.87473,8.7205 l -35.06848,-6.1232 c 0,0 -0.92788,-0.3701 -2.41224,-1.6689 l 12.61647,-77.74397 -15.21385,-2.41223 -0.18507,1.85546 -568.50972,-91.65921 0.7419,-6.49338 -25.79126,-4.08257 -8.7205,51.76762 19.483,3.15413 -0.55678,4.45281 1.11356,0.18511 -4.26769,26.34804 -82.38191,-12.61796 c 0,0 -7.79369,-0.83507 -6.77321,-11.41112 l -10.66779,-1.02028 -0.74332,9.18543 -7.08029,-1.01885 -5.5104,-4.32939 -31.74938,-82.00021 0.78638,-6.55938 44.21522,6.82199 1.31159,-8.79081 -6.4288,-1.18101 2.22999,-14.957 -9.31459,-1.5742 10.23299,-62.58178 9.44661,1.57419 3.6736,-24.40361 -8.39619,-1.57419 9.44517,-62.71381 9.70921,1.5742 3.6736,-26.76419 -54.57879,-8.92139 5.773,-36.21079 -7.8724,-1.05042 0.5252,-3.14839 -13.2924,-1.76075 -30.52819,-26.31646 0,-1.04899 -8.66022,-7.08459 0.2626,-3.14983 -4.45998,-4.45998 37.78929,-230.39068 -34.14152,-6.30826 z m 20.78167,532.88438 7.05016,1.11356 30.05894,75.70199 -3.71091,5.56636 -46.01471,-6.67992 12.61652,-75.70199 z m 78.48589,97.78233 31.72785,4.45281 c 4.82417,0.74218 7.23671,6.12314 7.23671,6.12314 1.6699,2.96872 -0.92845,7.60692 -0.92845,7.60692 l -2.22568,4.08261 -6.86648,-4.26769 -26.53171,39.89294 c -5.3808,6.86545 -14.65853,1.66892 -14.65853,1.66892 -4.63861,-3.33982 -3.52579,-8.72046 -3.52579,-8.72046 l 6.12314,-42.48892 c 1.66991,-8.34952 9.64894,-8.35027 9.64894,-8.35027 z m 149.90584,27.05263 5.64242,1.18099 -0.52521,2.7552 -3.80419,-0.52518 -0.78781,4.46136 -9.57719,-1.57413 -1.05042,-1.70624 0.26261,-2.36198 1.31302,-1.04903 8.00299,1.31162 0.52378,-2.49261 z m -11.0208,10.49562 10.75963,1.57414 -0.39462,2.49408 -10.62618,-1.57568 0.26117,-2.49254 z m 150.22441,33.85017 41.59061,5.64107 -6.29822,34.1127 40.93481,6.6915 5.90359,-33.9808 42.50901,7.0845 4.32939,7.0846 -56.67819,66.1248 -6.29679,-0.5252 -4.32939,5.1172 -26.50301,-3.6736 -3.01781,-7.3472 -5.5104,-0.3931 -32.27459,-79.9008 5.64099,-6.03567 z m 389.00839,38.57277 30.43784,4.46 c 13.64478,2.3616 10.89018,11.9392 10.89018,11.9392 l -4.9852,32.9318 c -0.65592,4.8545 -5.51036,4.7226 -5.51036,4.7226 l -14.6944,0.3946 -14.82643,-39.6231 c -1.57443,-4.9857 -1.57421,-8.7894 -1.57421,-8.7894 l 0.26258,-6.0357 z"
       id="path4148"
       inkscape:connector-curvature="0" />
  </g>
  <g
     inkscape:groupmode="layer"
     id="layer1"
     inkscape:label="Label">
    <g
       id="g4167"
       transform="translate(144.57143,82.285714)">
      <g
         style="font-style:normal;font-variant:normal;font-weight:bold;font-stretch:normal;font-size:125px;line-height:110.00000238%;font-family:Overpass;-inkscape-font-specification:'Overpass, Bold';text-align:center;letter-spacing:0px;word-spacing:0px;writing-mode:lr-tb;text-anchor:middle;fill:#dddddd;fill-opacity:1;stroke:#222222;stroke-width:0.25;stroke-linecap:butt;stroke-linejoin:miter;stroke-miterlimit:4;stroke-dasharray:none;stroke-opacity:1"
         id="text4159">
        <path
           d="m 577.40277,188.71288 0,-36.98731 -36.62109,0 0,36.98731 -16.90674,0 0,-87.52442 16.90674,0 0,34.5459 36.62109,0 0,-34.5459 16.8457,0 0,87.52442 -16.8457,0 z"
           id="path4176"
           style="" />
        <path
           d="m 671.64105,188.71288 -34.729,-51.0254 q -0.85449,-1.28173 -1.89209,-3.11279 -0.97656,-1.89209 -1.70899,-3.479 0.18311,1.40381 0.24414,3.2959 0.12208,1.89209 0.12208,3.29589 l 0,51.0254 -16.78467,0 0,-87.52442 15.86914,0 33.87451,50.41504 q 0.79346,1.2207 1.83105,3.05176 1.0376,1.83105 1.83106,3.54004 -0.18311,-1.77002 -0.30518,-3.54004 -0.061,-1.83106 -0.061,-3.05176 l 0,-50.41504 16.72363,0 0,87.52442 -15.01465,0 z"
           id="path4178"
           style="" />
        <path
           d="m 709.17767,188.71288 0,-87.52442 16.90674,0 0,71.28906 42.23633,0 0,16.23536 -59.14307,0 z"
           id="path4180"
           style="" />
      </g>
      <g
         style="font-style:normal;font-variant:normal;font-weight:normal;font-stretch:normal;font-size:45px;line-height:110.00000238%;font-family:Overpass;-inkscape-font-specification:'Overpass, Normal';text-align:center;letter-spacing:0px;word-spacing:0px;writing-mode:lr-tb;text-anchor:middle;fill:#222222;fill-opacity:1;stroke:none;stroke-width:1px;stroke-linecap:butt;stroke-linejoin:miter;stroke-opacity:1"
         id="text4163">
        <path
           d="m 577.47723,236.33553 0,-14.04053 -14.37011,0 0,14.04053 -4.68018,0 0,-31.50879 4.68018,0 0,13.05175 14.37011,0 0,-13.05175 4.68018,0 0,31.50879 -4.68018,0 z"
           id="path4183"
           style="" />
        <path
           d="m 598.94452,236.88484 q -2.41699,0 -4.37256,-0.81299 -1.93359,-0.81298 -3.2959,-2.35107 -1.3623,-1.56006 -2.10937,-3.7793 -0.7251,-2.24121 -0.7251,-5.07568 0,-2.83447 0.7251,-5.07568 0.74707,-2.24122 2.10937,-3.7793 1.36231,-1.56006 3.2959,-2.37305 1.95557,-0.83496 4.37256,-0.83496 2.39502,0 4.35058,0.83496 1.95557,0.81299 3.31788,2.37305 1.3623,1.53808 2.10937,3.7793 0.74707,2.24121 0.74707,5.07568 0,2.83447 -0.74707,5.07568 -0.74707,2.21924 -2.10937,3.7793 -1.36231,1.53809 -3.31788,2.35107 -1.95556,0.81299 -4.35058,0.81299 z m 0,-4.4165 q 1.34033,0 2.41699,-0.52735 1.09863,-0.52734 1.8457,-1.49414 0.76905,-0.98877 1.16456,-2.39502 0.41748,-1.40625 0.41748,-3.18603 0,-1.77979 -0.41748,-3.18604 -0.39551,-1.42822 -1.16456,-2.41699 -0.74707,-0.98877 -1.8457,-1.51611 -1.07666,-0.52735 -2.41699,-0.52735 -1.34033,0 -2.41699,0.52735 -1.07666,0.52734 -1.84571,1.51611 -0.74707,0.98877 -1.16455,2.41699 -0.3955,1.40625 -0.3955,3.18604 0,1.77978 0.3955,3.18603 0.41748,1.40625 1.16455,2.39502 0.76905,0.9668 1.84571,1.49414 1.07666,0.52735 2.41699,0.52735 z"
           id="path4185"
           style="" />
        <path
           d="m 629.28876,236.33553 0,-13.73291 q 0,-1.4502 -0.35157,-2.46094 -0.35156,-1.03272 -0.96679,-1.66992 -0.61524,-0.65918 -1.4502,-0.94483 -0.83496,-0.30762 -1.82373,-0.30762 -1.05469,0 -1.95556,0.28565 -0.90088,0.26367 -1.56006,0.87891 -0.65918,0.61523 -1.05469,1.64794 -0.37354,1.01075 -0.37354,2.48291 l 0,13.82081 -4.68017,0 0,-23.00538 4.68017,0 0,2.21924 q 1.12061,-1.42822 2.57081,-2.0874 1.45019,-0.65918 3.36181,-0.65918 1.80176,0 3.31787,0.52734 1.51612,0.50538 2.61475,1.66993 1.1206,1.16455 1.73584,3.03222 0.61523,1.86768 0.61523,4.57032 l 0,13.73291 -4.68017,0 z"
           id="path4187"
           style="" />
        <path
           d="m 649.83319,236.88484 q -2.41699,0 -4.37256,-0.81299 -1.93359,-0.81298 -3.2959,-2.35107 -1.3623,-1.56006 -2.10937,-3.7793 -0.7251,-2.24121 -0.7251,-5.07568 0,-2.83447 0.7251,-5.07568 0.74707,-2.24122 2.10937,-3.7793 1.36231,-1.56006 3.2959,-2.37305 1.95557,-0.83496 4.37256,-0.83496 2.39502,0 4.35059,0.83496 1.95556,0.81299 3.31787,2.37305 1.3623,1.53808 2.10937,3.7793 0.74707,2.24121 0.74707,5.07568 0,2.83447 -0.74707,5.07568 -0.74707,2.21924 -2.10937,3.7793 -1.36231,1.53809 -3.31787,2.35107 -1.95557,0.81299 -4.35059,0.81299 z m 0,-4.4165 q 1.34033,0 2.41699,-0.52735 1.09864,-0.52734 1.84571,-1.49414 0.76904,-0.98877 1.16455,-2.39502 0.41748,-1.40625 0.41748,-3.18603 0,-1.77979 -0.41748,-3.18604 -0.39551,-1.42822 -1.16455,-2.41699 -0.74707,-0.98877 -1.84571,-1.51611 -1.07666,-0.52735 -2.41699,-0.52735 -1.34033,0 -2.41699,0.52735 -1.07666,0.52734 -1.8457,1.51611 -0.74707,0.98877 -1.16456,2.41699 -0.3955,1.40625 -0.3955,3.18604 0,1.77978 0.3955,3.18603 0.41749,1.40625 1.16456,2.39502 0.76904,0.9668 1.8457,1.49414 1.07666,0.52735 2.41699,0.52735 z"
           id="path4189"
           style="" />
        <path
           d="m 666.18085,236.33553 0,-30.27832 4.68017,-2.21924 0,32.49756 -4.68017,0 z"
           id="path4191"
           style="" />
        <path
           d="m 691.82294,236.33553 0,-2.19727 q -1.12061,1.42822 -2.59278,2.0874 -1.45019,0.65918 -3.36181,0.65918 -1.80176,0 -3.31787,-0.52734 -1.51612,-0.50537 -2.63672,-1.66992 -1.09864,-1.18653 -1.71387,-3.0542 -0.61523,-1.86768 -0.61523,-4.57032 l 0,-13.73291 4.68017,0 0,13.73291 q 0,1.4502 0.35156,2.48291 0.35157,1.01075 0.9668,1.66993 0.61524,0.65918 1.4502,0.96679 0.83496,0.28565 1.82373,0.28565 1.05468,0 1.95556,-0.26367 0.90088,-0.28565 1.56006,-0.90088 0.68115,-0.63721 1.05469,-1.64795 0.39551,-1.01074 0.39551,-2.50488 l 0,-13.82081 4.68017,0 0,23.00538 -4.68017,0 z"
           id="path4193"
           style="" />
        <path
           d="m 703.44647,236.33553 0,-30.27832 4.68018,-2.21924 0,32.49756 -4.68018,0 z"
           id="path4195"
           style="" />
        <path
           d="m 729.08856,236.33553 0,-2.19727 q -1.1206,1.42822 -2.59277,2.0874 -1.4502,0.65918 -3.36182,0.65918 -1.80176,0 -3.31787,-0.52734 -1.51611,-0.50537 -2.63672,-1.66992 -1.09863,-1.18653 -1.71386,-3.0542 -0.61524,-1.86768 -0.61524,-4.57032 l 0,-13.73291 4.68018,0 0,13.73291 q 0,1.4502 0.35156,2.48291 0.35156,1.01075 0.9668,1.66993 0.61523,0.65918 1.45019,0.96679 0.83496,0.28565 1.82373,0.28565 1.05469,0 1.95557,-0.26367 0.90088,-0.28565 1.56006,-0.90088 0.68115,-0.63721 1.05468,-1.64795 0.39551,-1.01074 0.39551,-2.50488 l 0,-13.82081 4.68018,0 0,23.00538 -4.68018,0 z"
           id="path4197"
           style="" />
      </g>
    </g>
  </g>
</svg>
