<?xml version="1.0" encoding="UTF-8" standalone="no"?>
<!-- Created with Inkscape (http://www.inkscape.org/) -->

<svg
   xmlns:dc="http://purl.org/dc/elements/1.1/"
   xmlns:cc="http://creativecommons.org/ns#"
   xmlns:rdf="http://www.w3.org/1999/02/22-rdf-syntax-ns#"
   xmlns:svg="http://www.w3.org/2000/svg"
   xmlns="http://www.w3.org/2000/svg"
   xmlns:sodipodi="http://sodipodi.sourceforge.net/DTD/sodipodi-0.dtd"
   xmlns:inkscape="http://www.inkscape.org/namespaces/inkscape"
   width="391.22726mm"
   height="309.33286mm"
   viewBox="0 0 1386.2383 1096.0613"
   id="svg2"
   version="1.1"
   inkscape:version="0.92.4 (5da689c313, 2019-01-14)"
   sodipodi:docname="IAD.svg"
   inkscape:export-filename="C:\Users\Paul Bogard\Dropbox\Documents\Websites\Flight Log\Images\Terminals\IAD.png"
   inkscape:export-xdpi="90"
   inkscape:export-ydpi="90">
  <defs
     id="defs4" />
  <sodipodi:namedview
     id="base"
     pagecolor="#ffffff"
     bordercolor="#666666"
     borderopacity="1.0"
     inkscape:pageopacity="1"
     inkscape:pageshadow="2"
     inkscape:zoom="0.5"
     inkscape:cx="-62.73717"
     inkscape:cy="349.29332"
     inkscape:document-units="px"
     inkscape:current-layer="layer3"
     showgrid="false"
     fit-margin-top="25"
     fit-margin-left="25"
     fit-margin-right="25"
     fit-margin-bottom="25"
     inkscape:window-width="1920"
     inkscape:window-height="1137"
     inkscape:window-x="1912"
     inkscape:window-y="-8"
     inkscape:window-maximized="1" />
  <metadata
     id="metadata7">
    <rdf:RDF>
      <cc:Work
         rdf:about="">
        <dc:format>image/svg+xml</dc:format>
        <dc:type
           rdf:resource="http://purl.org/dc/dcmitype/StillImage" />
        <dc:title />
      </cc:Work>
    </rdf:RDF>
  </metadata>
  <g
     inkscape:groupmode="layer"
     id="layer2"
     inkscape:label="Terminal"
     transform="translate(-660.12845,-313.69457)">
    <path
       id="path4154"
       style="fill:#dddddd;fill-opacity:1;fill-rule:evenodd;stroke:#222222;stroke-width:1.5;stroke-linecap:butt;stroke-linejoin:miter;stroke-miterlimit:4;stroke-dasharray:none;stroke-opacity:1"
       d="m 760.60749,1277.867 0,-17.2478 3.71155,0.2183 -0.21833,-19.2127 65.93454,0.8733 0,2.1833 156.9766,1.9649 0.43665,-13.5362 31.0023,0.4366 -0.2259,13.9877 86.916,0.9263 -0.1544,9.1084 7.1015,0.1544 0,-9.2628 15.9783,0 0.077,-1.621 24.0061,0.2316 0,2.3157 49.3679,0.2067 0.2183,16.702 32.0939,0.1092 0.2184,-6.659 7.0956,-0.2183 -0.1092,-2.4016 -8.0781,-0.1092 0,-7.6414 8.4056,0 0,-0.8733 19.9769,0.3275 -0.1092,-2.2924 6.7682,0.1091 0,2.1833 74.0126,0.655 0.1091,-2.0741 6.8773,0.2183 0,2.1833 1.1462,0.054 -0.1556,17.8918 45.3878,0.6175 c 0,0 6.9471,0.6175 11.8872,-2.3157 l -36.8968,-0.7719 0.3088,-1.0806 -17.445,0.1543 0,-10.6522 14.2159,0.032 -0.1091,-3.2749 39.8445,0.4367 0,1.3099 5.1307,0 0.2183,-1.8555 11.0255,0.2183 -0.1091,1.6374 27.0724,0.3276 0,-1.6375 11.1346,0.1092 0.2184,1.5283 39.517,0.4366 0.1092,-1.8558 15.0645,0.2183 0.1092,2.0742 13.6181,0 0.027,-1.7466 10.8071,0 0.055,1.8557 36.0561,0.3404 0.022,-12.0208 4.1482,0 -0.1091,-1.4191 23.6884,0.2182 0.3275,1.31 3.7115,-0.1091 0,12.2262 39.8436,0.5665 -0.036,-2.7788 6.8594,-0.025 0.054,3.1112 19.8678,0.109 -0.1091,-1.9649 10.5888,0.3275 -0.1092,-2.4016 24.1251,0.1091 0.3275,-3.6024 7.3139,0.2184 0.2183,3.6023 9.1697,0 -0.1091,-3.384 7.6414,0 0,3.4932 12.1171,0 -0.1091,-1.2008 8.1872,0.2183 0.1091,2.8383 1.7466,0 -0.1092,-5.5673 13.6454,0.2183 0,2.5107 12.008,0.2184 -0.1091,2.9473 4.8032,0 -0.1092,-3.0565 8.1872,0.1092 0.2183,1.7466 16.047,0.2183 0,-3.0566 -1.2008,-0.1091 -0.1092,-8.9514 18.012,0.3275 0.1091,7.696 -10.2613,-0.055 0.1091,4.2573 38.098,0.1095 0,-3.6023 13.8637,0 -0.1091,-8.7331 21.0685,0.3275 0.2182,8.6239 42.792,0.655 0,-3.0566 5.349,0.1091 0.1092,14.5827 12.1171,-0.064 0,1.5283 3.4932,0.1092 -0.059,7.8278 2.1327,-0.077 0,4.7977 -18.012,-0.2129 -0.1092,13.8638 -5.8948,0.2183 0.1092,-0.8733 -10.1522,0.2183 0.07,-6.6093 4.2454,0.077 -0.077,-1.3894 -15.0521,-0.2316 0,5.5577 -14.1258,-0.3088 -0.077,-5.4033 -9.9575,-0.077 0.3088,5.5577 -18.0625,-0.3088 -0.1543,6.484 -13.7399,-0.1544 0,-1.235 -38.4406,0.1544 0.1544,-5.5577 -17.7537,-0.1544 0.1544,-0.9263 -12.3504,0 0.1544,9.726 -15.5924,0 0,-2.7789 -16.5187,0.6175 -0.1544,-8.0277 -9.7259,0 0.1544,4.6314 2.0069,0.4631 0.6175,9.726 -2.3157,0 0,5.5576 -53.5698,-0.6175 0.1544,-23.0026 -5.4033,0.1544 0,2.7788 -9.2628,0.1544 0,-3.0876 -4.0139,-0.1544 -0.3088,4.0139 -20.0694,-0.1544 0.1544,-4.1682 -9.4172,-0.1544 0,2.9332 -9.1084,-0.1544 0,-2.7788 -29.3322,0 -0.1544,3.8595 -5.4033,0.1544 -0.7719,35.6617 -16.8274,0.4632 0.6175,-40.7563 -12.3504,-0.3088 0,3.242 -87.8422,-1.2351 0.1544,-3.2419 -35.5074,0 0.077,2.7016 -8.4137,0.077 0,-2.9332 -18.9888,-0.3088 0,3.242 -8.6453,-0.077 0.077,-0.7719 -4.8629,-0.077 -0.077,3.9367 -19.7607,0.077 0,-4.6314 -28.6375,0 -0.4631,17.9081 4.7858,0 0,5.2489 -35.9706,-0.3088 0.6176,-23.3113 -9.5716,0.1543 -0.3088,10.6523 -47.8578,-0.4632 0.1544,-1.8525 -43.8439,-0.4632 -0.1544,-8.1049 3.3964,0 -0.1544,-1.1579 -53.3383,-0.5403 0.077,10.4978 -31.8023,0.1544 -0.3087,-10.2663 -357.70116,-4.9661 0,2.4016 -6.65895,0.2183 0.10917,3.0566 z m 372.16741,-683.66873 0.7719,-67.1553 -10.961,-1.5438 0.7719,-7.41024 c 0,0 3.5507,-4.94016 2.9332,-25.16394 0,0 5.4033,1.23504 5.4033,-0.15438 0,-1.38942 -0.3087,-12.96792 -0.3087,-12.96792 l -2.0249,0.51836 -0.2183,-77.2875 392.3323,3.27489 0,14.19121 8.0781,-0.21833 -0.2183,4.36653 52.6166,-0.21832 -0.4366,51.96165 -59.3848,-0.8733 0,15.71949 -21.6143,-0.21833 0,36.02384 -158.9415,-1.30996 0,3.2749 12.2262,0 -0.2182,12.44459 10.4796,-0.21832 0,-1.09163 138.8555,1.52828 0,13.75456 -138.8555,-0.87331 0,-1.96494 -11.1347,0 0.2184,18.12109 -15.7195,-0.21833 0,4.58485 -29.6924,-0.65498 0,1.74661 -2.4016,2.40159 0,15.06452 c -0.8733,0 -27.2908,-0.87331 -27.2908,-0.87331 l 0,-36.46049 9.6064,-0.21832 0,-5.45816 6.5498,0.21833 0,-1.96494 9.6063,0.21832 -0.2183,-8.51472 -14.8462,-0.65498 0,-6.33146 -1.3099,0 0.2183,-8.07808 -142.1304,-1.52828 0,4.36653 -0.655,0 -1.7466,65.93454 z m -382.64707,272.56031 220.72788,1.96494 0.21832,-4.58485 49.77837,0.87331 0,4.14819 54.8019,0.91516 -0.1544,-4.01388 -1.8526,-0.15438 0.1544,-11.88726 17.5993,0.15438 0.4632,16.2099 144.0365,1.5438 -0.3087,-4.16826 -1.5438,-0.15438 0.1543,-11.42412 17.7537,0.15438 0.6176,16.2099 56.8118,0 -0.1544,-4.94016 -2.3157,-0.15438 -0.1544,-15.28362 6.1752,-0.15438 -0.1543,-2.93322 14.0485,0 0.1544,2.93322 4.9402,0 0.3087,15.74676 -2.47,-0.15438 0.3087,5.09454 62.5239,0.92628 -0.1544,-3.70512 -1.5438,0 0.1544,-12.19602 20.5326,0.30876 -0.1544,11.42412 -1.2351,0 -0.1543,4.32264 137.2438,1.5438 0,-4.32264 -2.007,0 0,-11.5785 17.9081,0.30876 0.1544,15.90114 44.3728,0.95026 0,-1.41912 -2.9473,-0.32749 0,-11.02548 4.2573,0 -0.1091,-1.63745 9.2788,0.10917 -0.048,15.97457 12.3504,0.30876 0.3088,10.65222 -13.1223,0.15438 0.1543,5.71206 40.602,0.61752 0,-6.79272 50.1735,0.46314 0,-8.79966 15.2836,0.46314 -0.1544,-51.87168 7.1015,0 -0.3088,51.56292 15.7468,0.30876 0.1544,8.95404 46.1596,0.30876 0,-8.79966 15.438,0.15438 0,-51.40854 6.7927,0.15438 -0.3087,51.25416 15.7467,0.46314 0.1544,8.33652 46.314,0.30876 -0.4631,-8.18214 15.438,0.30876 -0.1544,-52.18044 7.1015,0.15438 0.1543,51.87168 14.5118,0 0,1.38942 12.0416,0.30876 0.4631,33.50046 -12.9679,0 0,1.23504 -15.1292,0 -0.4632,51.7173 -6.3295,0 0.3087,-51.87168 -14.6661,0 -0.3087,-8.4909 -46.314,-0.92628 0.1543,8.4909 -16.2099,-0.15438 -0.3087,52.79796 -6.484,-0.15438 0.4632,-52.64358 -15.2837,-0.15438 0,-8.64528 -46.4683,-1.08066 0,9.2628 -15.438,0 -0.1544,51.87168 -7.2559,0.15438 0.6175,-52.02606 -14.8204,0 0.1411,12.7576 -37.1155,-0.76414 0.3275,-21.28682 -13.8354,-0.58696 0.1544,-3.70512 -27.9428,-0.30876 -0.4631,23.46576 -12.5048,-0.30876 0.1544,10.49784 -12.6592,0.30876 0.1544,-5.09454 -2.6245,0 0.1544,-5.4033 -0.6175,0 0,-7.87338 -48.9385,-0.15438 0,3.39636 2.007,0 -0.3088,12.50478 -18.9887,0.15438 0,-16.51866 -63.9134,-0.61752 0.1544,12.96792 -5.5577,0.30876 0,-13.73982 -60.2082,-0.46314 -0.1543,4.32264 1.8525,-0.15438 -0.1544,11.5785 -18.2168,0.15438 -0.1544,-15.90114 -60.9801,-0.7719 -0.1636,3.51298 -3.7116,0.10916 0,5.67649 2.0741,0 0.2184,11.89878 -12.3355,0.21832 0,-3.38406 -2.4016,0 -0.1092,-11.13464 1.6375,0 -0.1092,-3.71154 -4.9123,0 0.1091,-3.60239 -72.8118,-0.76413 -0.1091,3.92987 1.3099,0.10916 0.1092,12.00794 -18.1211,0 0.2183,-16.37446 -125.8578,-0.96156 -0.1544,3.70512 1.8525,0 0.1544,12.04164 -18.5256,0.15438 0.3088,-16.36428 -57.4294,-0.15438 0.1544,19.60626 -49.86479,0.30876 0.30876,-20.68692 -220.89422,-2.45221 z"
       inkscape:connector-curvature="0" />
  </g>
  <g
     inkscape:groupmode="layer"
     id="layer3"
     inkscape:label="Label"
     transform="translate(-73.215697,6.3050329e-6)">
    <g
       id="text4158"
       style="font-style:normal;font-variant:normal;font-weight:normal;font-stretch:normal;font-size:45px;line-height:110.00000238%;font-family:Overpass;-inkscape-font-specification:'Overpass, Normal';text-align:center;letter-spacing:0px;word-spacing:0px;writing-mode:lr-tb;text-anchor:middle;fill:#222222;fill-opacity:1;stroke:none;stroke-width:1px;stroke-linecap:butt;stroke-linejoin:miter;stroke-opacity:1"
       transform="translate(0,6)">
      <path
         inkscape:connector-curvature="0"
         id="path4142"
         d="m 1147.9368,181.59596 -6.8116,31.50879 -4.2187,0 -5.4492,-20.43457 q -0.3296,-1.25244 -0.5274,-2.02148 -0.1757,-0.79102 -0.2417,-1.38428 -0.066,0.59326 -0.2417,1.38428 -0.1757,0.76904 -0.5053,2.02148 l -5.3174,20.43457 -4.2407,0 -6.7456,-31.50879 4.812,0 3.9111,19.40186 q 0.2856,1.3623 0.4394,2.19726 0.1758,0.83496 0.2417,1.4502 0.066,-0.61524 0.2637,-1.42822 0.2197,-0.83496 0.5493,-2.21924 l 4.9439,-19.40186 3.9331,0 5.0757,19.35791 q 0.3735,1.36231 0.5493,2.1753 0.1977,0.81298 0.2637,1.42822 0.066,-0.61524 0.1977,-1.4502 0.1538,-0.83496 0.4175,-2.15332 l 3.977,-19.35791 4.7242,0 z" />
      <path
         inkscape:connector-curvature="0"
         id="path4144"
         d="m 1170.9421,213.10475 -4.4824,0 0,-1.97754 q -0.4394,0.46143 -1.0547,0.92285 -0.6152,0.43946 -1.4062,0.81299 -0.7691,0.35156 -1.7359,0.57129 -0.9668,0.21973 -2.1093,0.21973 -1.7578,0 -3.252,-0.4834 -1.4941,-0.4834 -2.5928,-1.4502 -1.0986,-0.98877 -1.7358,-2.41699 -0.6152,-1.45019 -0.6152,-3.36181 0,-1.97754 0.747,-3.40577 0.7471,-1.45019 1.9776,-2.37304 1.2304,-0.94483 2.8125,-1.38428 1.604,-0.43945 3.2959,-0.43945 1.582,0 3.0322,0.35156 1.4722,0.32959 2.6367,1.01074 l 0,-1.27441 q 0,-1.29639 -0.3076,-2.19727 -0.2856,-0.90088 -0.9009,-1.45019 -0.5932,-0.57129 -1.5161,-0.81299 -0.9228,-0.26367 -2.1973,-0.26367 -2.1533,0 -3.7353,0.57129 -1.5601,0.57128 -2.8345,1.51611 l -1.3843,-3.84522 q 0.7032,-0.48339 1.604,-0.90088 0.9009,-0.43945 1.9776,-0.76904 1.0766,-0.32959 2.3291,-0.50537 1.2524,-0.19775 2.6806,-0.19775 0.9668,0 1.9996,0.10986 1.0327,0.10986 1.9995,0.43945 0.9887,0.30762 1.8457,0.90088 0.8789,0.59326 1.5161,1.56006 0.6592,0.94482 1.0327,2.3291 0.3735,1.38428 0.3735,3.2959 l 0,14.89746 z m -9.9316,-3.60351 q 1.7798,0 3.1421,-0.7251 1.3843,-0.7251 2.3071,-1.73584 l 0,-3.51563 q -0.9668,-0.50537 -2.2632,-0.81298 -1.2964,-0.30762 -2.6587,-0.30762 -1.0546,0 -1.9775,0.19775 -0.9228,0.19776 -1.626,0.63721 -0.6811,0.41748 -1.0766,1.09863 -0.3955,0.65918 -0.3955,1.60401 0,1.64794 1.1425,2.61474 1.1646,0.94483 3.4058,0.94483 z" />
      <path
         inkscape:connector-curvature="0"
         id="path4146"
         d="m 1184.4114,213.65407 q -1.3623,0 -2.6587,-0.26367 -1.2964,-0.26368 -2.439,-0.74707 -1.1206,-0.4834 -2.0434,-1.16455 -0.9229,-0.70313 -1.5381,-1.56006 l 3.3178,-2.83448 q 0.3516,0.32959 0.857,0.74707 0.5054,0.39551 1.1645,0.74707 0.6592,0.35157 1.4722,0.59327 0.813,0.2417 1.7798,0.2417 0.8789,0 1.626,-0.13184 0.747,-0.13184 1.2744,-0.41748 0.5493,-0.28565 0.8349,-0.74707 0.3077,-0.4834 0.3077,-1.18652 0,-0.81299 -0.5713,-1.38428 -0.5494,-0.59326 -1.4502,-1.05469 -0.9009,-0.4834 -2.0435,-0.90088 -1.1426,-0.43945 -2.3071,-0.92285 -1.0767,-0.46143 -2.1094,-1.01074 -1.0327,-0.54932 -1.8457,-1.31836 -0.791,-0.76904 -1.2964,-1.82373 -0.4834,-1.07666 -0.4834,-2.59278 0,-1.53808 0.6153,-2.7246 0.6372,-1.18653 1.7138,-1.97754 1.0987,-0.81299 2.5489,-1.23047 1.4721,-0.41748 3.142,-0.41748 1.4722,0 2.7027,0.28564 1.2524,0.28565 2.2412,0.76904 1.0107,0.4834 1.7798,1.12061 0.769,0.61523 1.3403,1.29639 l -3.3838,2.68066 q -0.3076,-0.30762 -0.7471,-0.63721 -0.4174,-0.35156 -0.9887,-0.6372 -0.5713,-0.28565 -1.2964,-0.46143 -0.7251,-0.19775 -1.648,-0.19775 -1.4941,0 -2.373,0.54931 -0.8569,0.54932 -0.8569,1.58203 0,0.65918 0.4614,1.16456 0.4614,0.48339 1.2524,0.90087 0.791,0.41748 1.8018,0.81299 1.0327,0.37354 2.1533,0.81299 1.1865,0.46143 2.3291,1.03272 1.1426,0.57128 2.0215,1.40625 0.9009,0.83496 1.4282,2.02148 0.5493,1.18652 0.5493,2.85645 0,1.64794 -0.6152,2.92236 -0.6152,1.25244 -1.7578,2.10937 -1.1206,0.83496 -2.7246,1.25244 -1.5821,0.43946 -3.5376,0.43946 z" />
      <path
         inkscape:connector-curvature="0"
         id="path4148"
         d="m 1212.8879,213.10475 0,-13.73291 q 0,-1.45019 -0.3515,-2.46094 -0.3516,-1.03271 -0.9668,-1.66992 -0.6153,-0.65918 -1.4502,-0.94482 -0.835,-0.30762 -1.8237,-0.30762 -1.0547,0 -1.9556,0.28565 -0.9009,0.26367 -1.5601,0.8789 -0.6592,0.61524 -1.0547,1.64795 -0.3735,1.01074 -0.3735,2.48291 l 0,13.8208 -4.6802,0 0,-30.32226 4.6802,-2.1753 0,11.71143 q 1.1206,-1.42822 2.5708,-2.0874 1.4502,-0.65918 3.3618,-0.65918 1.8018,0 3.3179,0.52734 1.5161,0.50537 2.6147,1.66992 1.1206,1.16455 1.7359,3.03223 0.6152,1.86767 0.6152,4.57031 l 0,13.73291 -4.6802,0 z" />
      <path
         inkscape:connector-curvature="0"
         id="path4150"
         d="m 1224.116,213.10475 0,-23.00537 4.6801,0 0,23.00537 -4.6801,0 z m 2.3291,-26.58691 q -0.5933,0 -1.1206,-0.21973 -0.5054,-0.21973 -0.9009,-0.59326 -0.3736,-0.39551 -0.5933,-0.90088 -0.2197,-0.52734 -0.2197,-1.12061 0,-0.59326 0.2197,-1.09863 0.2197,-0.52734 0.5933,-0.90088 0.3955,-0.3955 0.9009,-0.61523 0.5273,-0.21973 1.1206,-0.21973 0.5932,0 1.0986,0.21973 0.5273,0.21973 0.9009,0.61523 0.3955,0.37354 0.6152,0.90088 0.2197,0.50537 0.2197,1.09863 0,0.59327 -0.2197,1.12061 -0.2197,0.50537 -0.6152,0.90088 -0.3736,0.37353 -0.9009,0.59326 -0.5054,0.21973 -1.0986,0.21973 z" />
      <path
         inkscape:connector-curvature="0"
         id="path4152"
         d="m 1249.802,213.10475 0,-13.73291 q 0,-1.45019 -0.3516,-2.46094 -0.3515,-1.03271 -0.9668,-1.66992 -0.6152,-0.65918 -1.4502,-0.94482 -0.8349,-0.30762 -1.8237,-0.30762 -1.0547,0 -1.9555,0.28565 -0.9009,0.26367 -1.5601,0.8789 -0.6592,0.61524 -1.0547,1.64795 -0.3735,1.01074 -0.3735,2.48291 l 0,13.8208 -4.6802,0 0,-23.00537 4.6802,0 0,2.21924 q 1.1206,-1.42822 2.5708,-2.0874 1.4502,-0.65918 3.3618,-0.65918 1.8017,0 3.3179,0.52734 1.5161,0.50537 2.6147,1.66992 1.1206,1.16455 1.7358,3.03223 0.6153,1.86767 0.6153,4.57031 l 0,13.73291 -4.6802,0 z" />
      <path
         inkscape:connector-curvature="0"
         id="path4155"
         d="m 1266.3254,218.51003 q 2.5269,-0.15381 4.1748,-0.59327 1.648,-0.43945 2.6148,-1.1206 0.9668,-0.65918 1.3403,-1.56006 0.3736,-0.90088 0.3736,-1.95557 l 0,-2.02148 q -1.9117,2.39502 -5.5372,2.39502 -1.9775,0 -3.6914,-0.74707 -1.7138,-0.76905 -3.0102,-2.28516 -1.2744,-1.51611 -2.0215,-3.75732 -0.7251,-2.26319 -0.7251,-5.27344 0,-2.83447 0.7031,-5.05371 0.7032,-2.24121 1.9556,-3.7793 1.2744,-1.56006 3.0322,-2.37304 1.7578,-0.81299 3.8672,-0.81299 1.0108,0 1.8457,0.19775 0.835,0.17578 1.4942,0.4834 0.6811,0.30762 1.1865,0.70312 0.5273,0.37354 0.9009,0.76905 l 0,-1.62598 4.6801,0 0,21.24756 q 0,2.63672 -0.5273,4.48242 -0.5274,1.8457 -1.8018,3.16406 -0.8569,0.87891 -1.8896,1.42823 -1.0108,0.57129 -2.1314,0.92285 -1.0986,0.35156 -2.2412,0.50537 -1.1426,0.17578 -2.2412,0.26367 l -2.3511,-3.60351 z m 3.8233,-9.27247 q 1.4282,0 2.6587,-0.70312 1.2524,-0.70313 2.0215,-1.99951 l 0,-9.95362 q -0.3516,-0.57128 -0.8789,-1.03271 -0.5054,-0.4834 -1.1207,-0.83496 -0.5932,-0.35156 -1.2963,-0.52735 -0.6812,-0.19775 -1.3843,-0.19775 -2.7466,0 -4.1968,1.95557 -1.4282,1.93359 -1.4282,5.64697 0,1.75781 0.3955,3.18603 0.3955,1.40625 1.1206,2.39502 0.7251,0.98877 1.7578,1.53809 1.0547,0.52734 2.3511,0.52734 z" />
      <path
         inkscape:connector-curvature="0"
         id="path4157"
         d="m 1292.9563,213.65407 q -1.3623,0 -2.3511,-0.41748 -0.9668,-0.39551 -1.604,-1.14258 -0.6152,-0.74707 -0.9009,-1.80176 -0.2856,-1.07666 -0.2856,-2.37305 l 0,-13.75488 -3.5596,0 0,-4.06494 3.5596,0 0,-7.229 4.6802,-2.26319 0,9.49219 5.4492,0 0,4.06494 -5.4492,0 0,12.54639 q 0,0.57129 0.088,1.05469 0.1098,0.48339 0.3515,0.83496 0.2637,0.35156 0.7032,0.54931 0.4394,0.17578 1.1206,0.17578 1.6699,0 3.4057,-1.07666 l -0.5713,4.35059 q -0.9668,0.4834 -2.1093,0.76904 -1.1426,0.28565 -2.5269,0.28565 z" />
      <path
         inkscape:connector-curvature="0"
         id="path4159"
         d="m 1312.7097,213.65407 q -2.417,0 -4.3725,-0.81299 -1.9336,-0.81299 -3.2959,-2.35107 -1.3623,-1.56006 -2.1094,-3.7793 -0.7251,-2.24121 -0.7251,-5.07568 0,-2.83448 0.7251,-5.07569 0.7471,-2.24121 2.1094,-3.7793 1.3623,-1.56005 3.2959,-2.37304 1.9555,-0.83496 4.3725,-0.83496 2.395,0 4.3506,0.83496 1.9556,0.81299 3.3179,2.37304 1.3623,1.53809 2.1093,3.7793 0.7471,2.24121 0.7471,5.07569 0,2.83447 -0.7471,5.07568 -0.747,2.21924 -2.1093,3.7793 -1.3623,1.53808 -3.3179,2.35107 -1.9556,0.81299 -4.3506,0.81299 z m 0,-4.41651 q 1.3403,0 2.417,-0.52734 1.0986,-0.52734 1.8457,-1.49414 0.7691,-0.98877 1.1646,-2.39502 0.4174,-1.40625 0.4174,-3.18603 0,-1.77979 -0.4174,-3.18604 -0.3955,-1.42822 -1.1646,-2.41699 -0.7471,-0.98877 -1.8457,-1.51612 -1.0767,-0.52734 -2.417,-0.52734 -1.3403,0 -2.417,0.52734 -1.0766,0.52735 -1.8457,1.51612 -0.747,0.98877 -1.1645,2.41699 -0.3955,1.40625 -0.3955,3.18604 0,1.77978 0.3955,3.18603 0.4175,1.40625 1.1645,2.39502 0.7691,0.9668 1.8457,1.49414 1.0767,0.52734 2.417,0.52734 z" />
      <path
         inkscape:connector-curvature="0"
         id="path4161"
         d="m 1343.054,213.10475 0,-13.73291 q 0,-1.45019 -0.3516,-2.46094 -0.3516,-1.03271 -0.9668,-1.66992 -0.6152,-0.65918 -1.4502,-0.94482 -0.835,-0.30762 -1.8237,-0.30762 -1.0547,0 -1.9556,0.28565 -0.9009,0.26367 -1.5601,0.8789 -0.6591,0.61524 -1.0546,1.64795 -0.3736,1.01074 -0.3736,2.48291 l 0,13.8208 -4.6802,0 0,-23.00537 4.6802,0 0,2.21924 q 1.1206,-1.42822 2.5708,-2.0874 1.4502,-0.65918 3.3618,-0.65918 1.8018,0 3.3179,0.52734 1.5161,0.50537 2.6148,1.66992 1.1206,1.16455 1.7358,3.03223 0.6152,1.86767 0.6152,4.57031 l 0,13.73291 -4.6801,0 z" />
      <path
         inkscape:connector-curvature="0"
         id="path4163"
         d="m 1353.0955,202.20631 0,-4.04296 17.7758,0 0,4.04296 -17.7758,0 z" />
      <path
         inkscape:connector-curvature="0"
         id="path4165"
         d="m 1183.4666,231.09596 8.833,0 q 2.7465,0 4.9218,0.63721 2.1753,0.61524 3.8453,1.71387 1.6699,1.09863 2.8564,2.61474 1.1865,1.49414 1.9336,3.25196 0.769,1.73584 1.1206,3.66943 0.3516,1.93359 0.3516,3.86719 0,1.80176 -0.3296,3.6914 -0.3076,1.86768 -1.0547,3.62549 -0.7251,1.73584 -1.8897,3.27393 -1.1645,1.53808 -2.8564,2.70264 -1.6919,1.14257 -3.9551,1.80175 -2.2412,0.65918 -5.1196,0.65918 l -8.6572,0 0,-31.50879 z m 9.4042,27.09229 q 1.8018,0 3.2081,-0.46143 1.4282,-0.4834 2.4829,-1.29638 1.0766,-0.81299 1.8017,-1.91162 0.7471,-1.09864 1.2085,-2.35108 0.4834,-1.27441 0.6812,-2.61475 0.2197,-1.3623 0.2197,-2.70263 0,-2.13135 -0.5273,-4.15283 -0.5054,-2.04346 -1.604,-3.62549 -1.0987,-1.60401 -2.8345,-2.5708 -1.7139,-0.98877 -4.1309,-0.98877 l -5.2295,0 0,22.67578 4.7241,0 z" />
      <path
         inkscape:connector-curvature="0"
         id="path4167"
         d="m 1227.6536,262.60475 0,-2.19726 q -1.1206,1.42822 -2.5928,2.0874 -1.4502,0.65918 -3.3618,0.65918 -1.8018,0 -3.3179,-0.52734 -1.5161,-0.50538 -2.6367,-1.66993 -1.0986,-1.18652 -1.7139,-3.0542 -0.6152,-1.86767 -0.6152,-4.57031 l 0,-13.73291 4.6802,0 0,13.73291 q 0,1.4502 0.3515,2.48291 0.3516,1.01074 0.9668,1.66992 0.6153,0.65918 1.4502,0.9668 0.835,0.28565 1.8237,0.28565 1.0547,0 1.9556,-0.26368 0.9009,-0.28564 1.5601,-0.90088 0.6811,-0.6372 1.0547,-1.64794 0.3955,-1.01075 0.3955,-2.50489 l 0,-13.8208 4.6801,0 0,23.00537 -4.6801,0 z" />
      <path
         inkscape:connector-curvature="0"
         id="path4169"
         d="m 1239.2771,262.60475 0,-30.27832 4.6802,-2.21924 0,32.49756 -4.6802,0 z" />
      <path
         inkscape:connector-curvature="0"
         id="path4171"
         d="m 1251.1423,262.60475 0,-30.27832 4.6802,-2.21924 0,32.49756 -4.6802,0 z" />
      <path
         inkscape:connector-curvature="0"
         id="path4173"
         d="m 1272.1042,263.15407 q -2.395,0 -4.3286,-0.81299 -1.9336,-0.83496 -3.2959,-2.37305 -1.3623,-1.56005 -2.1093,-3.80127 -0.7251,-2.24121 -0.7251,-5.07568 0,-2.83447 0.747,-5.05371 0.7471,-2.24121 2.1094,-3.7793 1.3843,-1.56006 3.2959,-2.37304 1.9336,-0.81299 4.3066,-0.81299 2.0435,0 3.8233,0.65918 1.8017,0.6372 3.1421,1.97754 1.3623,1.31836 2.1313,3.33984 0.791,2.02148 0.791,4.76807 0,0.74707 -0.044,1.58203 -0.022,0.83496 -0.1318,1.45019 l -15.4908,0 q 0.022,1.42823 0.5054,2.5708 0.5054,1.12061 1.3184,1.9336 0.813,0.79101 1.8457,1.23047 1.0327,0.41748 2.1533,0.41748 1.4282,0 2.6367,-0.59326 1.2305,-0.59327 2.1314,-1.73584 l 3.0542,3.14209 q -1.2525,1.49414 -3.208,2.41699 -1.9556,0.92285 -4.6583,0.92285 z m 0,-19.95117 q -1.0986,0 -2.1093,0.32959 -1.0108,0.30761 -1.8018,1.01074 -0.769,0.68115 -1.2744,1.80176 -0.5054,1.1206 -0.5933,2.72461 l 10.9864,0 q -0.044,-1.60401 -0.5054,-2.72461 -0.4614,-1.12061 -1.2085,-1.80176 -0.7471,-0.70313 -1.6699,-1.01074 -0.9009,-0.32959 -1.8238,-0.32959 z" />
      <path
         inkscape:connector-curvature="0"
         id="path4175"
         d="m 1294.4944,263.15407 q -1.3623,0 -2.6587,-0.26367 -1.2964,-0.26367 -2.439,-0.74707 -1.1206,-0.4834 -2.0434,-1.16455 -0.9229,-0.70313 -1.5381,-1.56006 l 3.3179,-2.83448 q 0.3515,0.32959 0.8569,0.74708 0.5054,0.3955 1.1645,0.74707 0.6592,0.35156 1.4722,0.59326 0.813,0.2417 1.7798,0.2417 0.8789,0 1.626,-0.13184 0.747,-0.13184 1.2744,-0.41748 0.5493,-0.28564 0.8349,-0.74707 0.3077,-0.4834 0.3077,-1.18652 0,-0.81299 -0.5713,-1.38428 -0.5493,-0.59326 -1.4502,-1.05469 -0.9009,-0.4834 -2.0435,-0.90088 -1.1426,-0.43945 -2.3071,-0.92285 -1.0767,-0.46142 -2.1094,-1.01074 -1.0327,-0.54932 -1.8457,-1.31836 -0.791,-0.76904 -1.2964,-1.82373 -0.4834,-1.07666 -0.4834,-2.59277 0,-1.53809 0.6153,-2.72461 0.6372,-1.18653 1.7138,-1.97754 1.0987,-0.81299 2.5489,-1.23047 1.4721,-0.41748 3.142,-0.41748 1.4722,0 2.7027,0.28564 1.2524,0.28565 2.2412,0.76905 1.0107,0.48339 1.7798,1.1206 0.769,0.61524 1.3403,1.29639 l -3.3838,2.68066 q -0.3076,-0.30762 -0.747,-0.63721 -0.4175,-0.35156 -0.9888,-0.6372 -0.5713,-0.28565 -1.2964,-0.46143 -0.7251,-0.19775 -1.648,-0.19775 -1.4941,0 -2.373,0.54931 -0.8569,0.54932 -0.8569,1.58204 0,0.65918 0.4614,1.16455 0.4614,0.48339 1.2524,0.90088 0.7911,0.41748 1.8018,0.81298 1.0327,0.37354 2.1533,0.81299 1.1865,0.46143 2.3291,1.03272 1.1426,0.57129 2.0215,1.40625 0.9009,0.83496 1.4282,2.02148 0.5493,1.18652 0.5493,2.85645 0,1.64795 -0.6152,2.92236 -0.6152,1.25244 -1.7578,2.10937 -1.1206,0.83497 -2.7246,1.25245 -1.582,0.43945 -3.5376,0.43945 z" />
    </g>
    <g
       id="text4162"
       style="font-style:normal;font-variant:normal;font-weight:bold;font-stretch:normal;font-size:125px;line-height:125%;font-family:Overpass;-inkscape-font-specification:'Overpass, Bold';text-align:start;letter-spacing:0px;word-spacing:0px;writing-mode:lr-tb;text-anchor:start;fill:#dddddd;fill-opacity:1;stroke:#222222;stroke-width:0.25;stroke-linecap:butt;stroke-linejoin:miter;stroke-opacity:1;stroke-miterlimit:4;stroke-dasharray:none"
       transform="translate(0,6)">
      <path
         inkscape:connector-curvature="0"
         id="path4178"
         d="m 1139.8679,165.6071 0,-87.524413 16.8457,0 0,87.524413 -16.8457,0 z"
         style="stroke:#222222;stroke-opacity:1;stroke-width:0.25;stroke-miterlimit:4;stroke-dasharray:none" />
      <path
         inkscape:connector-curvature="0"
         id="path4180"
         d="m 1238.7449,165.6071 -6.7749,-18.12744 -33.7525,0 -6.7138,18.12744 -18.1275,0 33.5083,-87.524413 16.4795,0 33.5083,87.524413 -18.1274,0 z m -20.8741,-56.27441 q -0.6713,-1.58692 -1.4648,-3.78418 -0.7324,-2.19727 -1.2817,-4.08936 -0.4883,1.89209 -1.2818,4.08936 -0.7934,2.19726 -1.4648,3.78418 l -8.667,22.76611 22.7661,0 -8.606,-22.76611 z"
         style="stroke:#222222;stroke-opacity:1;stroke-width:0.25;stroke-miterlimit:4;stroke-dasharray:none" />
      <path
         inkscape:connector-curvature="0"
         id="path4182"
         d="m 1272.7415,78.082687 29.541,0 q 7.6294,0 13.7329,1.77002 6.1035,1.708984 10.8032,4.760742 4.7607,3.051758 8.1177,7.263184 3.3569,4.15039 5.4931,9.033207 2.1973,4.82177 3.1739,10.19287 1.0376,5.37109 1.0376,10.74218 0,5.00489 -0.9766,10.25391 -0.9155,5.18799 -2.9907,10.0708 -2.0752,4.82178 -5.4321,9.09424 -3.2959,4.27246 -8.1177,7.50732 -4.7608,3.17383 -11.0474,5.00489 -6.2866,1.83105 -14.3432,1.83105 l -28.9917,0 0,-87.524413 z m 31.0058,71.533203 q 6.5308,0 10.9863,-2.50244 4.4556,-2.56348 7.2022,-6.53076 2.7466,-4.02832 3.9673,-8.97217 1.2207,-4.94385 1.2207,-9.76563 0,-5.12695 -1.2818,-10.0708 -1.2817,-5.00488 -3.9672,-8.91113 -2.6246,-3.906249 -6.836,-6.28662 -4.1504,-2.441407 -9.8877,-2.441407 l -15.5029,0 0,55.480957 14.0991,0 z"
         style="stroke:#222222;stroke-opacity:1;stroke-width:0.25;stroke-miterlimit:4;stroke-dasharray:none" />
    </g>
  </g>
</svg>
