<?xml version="1.0" encoding="UTF-8" standalone="no"?>
<!-- Created with Inkscape (http://www.inkscape.org/) -->

<svg
   xmlns:dc="http://purl.org/dc/elements/1.1/"
   xmlns:cc="http://creativecommons.org/ns#"
   xmlns:rdf="http://www.w3.org/1999/02/22-rdf-syntax-ns#"
   xmlns:svg="http://www.w3.org/2000/svg"
   xmlns="http://www.w3.org/2000/svg"
   xmlns:sodipodi="http://sodipodi.sourceforge.net/DTD/sodipodi-0.dtd"
   xmlns:inkscape="http://www.inkscape.org/namespaces/inkscape"
   width="2089.9746"
   height="699.10553"
   viewBox="0 0 2089.9746 699.10555"
   id="svg2"
   version="1.1"
   inkscape:version="0.91 r13725"
   sodipodi:docname="IAH.svg"
   inkscape:export-filename="C:\Users\paulb\Dropbox\Projects\Terminal Silhouettes\Silhouettes\png\IAH.png"
   inkscape:export-xdpi="90"
   inkscape:export-ydpi="90">
  <sodipodi:namedview
     id="base"
     pagecolor="#ffffff"
     bordercolor="#666666"
     borderopacity="1.0"
     inkscape:pageopacity="1"
     inkscape:pageshadow="2"
     inkscape:zoom="0.49497475"
     inkscape:cx="992.31939"
     inkscape:cy="277.43157"
     inkscape:document-units="px"
     inkscape:current-layer="layer3"
     showgrid="false"
     units="px"
     fit-margin-top="25"
     fit-margin-left="25"
     fit-margin-right="25"
     fit-margin-bottom="25"
     inkscape:window-width="1920"
     inkscape:window-height="1137"
     inkscape:window-x="1912"
     inkscape:window-y="-8"
     inkscape:window-maximized="1"
     showguides="true"
     inkscape:guide-bbox="true"
     inkscape:object-nodes="true"
     inkscape:snap-smooth-nodes="false" />
  <defs
     id="defs4" />
  <metadata
     id="metadata7">
    <rdf:RDF>
      <cc:Work
         rdf:about="">
        <dc:format>image/svg+xml</dc:format>
        <dc:type
           rdf:resource="http://purl.org/dc/dcmitype/StillImage" />
        <dc:title></dc:title>
        <dc:description>Terminal Silhouette for IAH (Houston - Bush)</dc:description>
      </cc:Work>
    </rdf:RDF>
  </metadata>
  <g
     inkscape:label="Terminal"
     id="layer2"
     inkscape:groupmode="layer"
     transform="translate(-1207.9119,-1061.8949)">
    <path
       id="path4168"
       d="m 2551.6694,1118.7915 -1.6814,1.6815 -7.0482,0 0,126.9115 2.465,0 0,11.7745 -2.465,0 -2.7225,0 0,13.6685 -12.9273,13.0102 0,35.4063 -45.041,0 0,9.5338 -102.6448,0 0,-9.3689 -53.1825,0 -8.4639,-8.0569 0,-3.1422 -22.6754,-21.5857 -3.3008,0 -1.6355,-1.5571 0,-10.321 2.4911,0 0,-156.273 -17.1682,0 -2.9765,2.6784 -2.9054,-2.6784 -16.5423,0 0,156.273 2.1884,0 0,9.7329 -2.1767,2.1452 -2.2614,0 -21.538,21.2255 0,2.2281 -9.469,9.3312 -112.7684,0 0,0.824 -6.7041,0 0,-3.7879 -52.0388,0 0,3.7879 -13.1749,0 0,4.2815 -9.6905,0 a 10.045594,10.045594 0 0 0 -8.0956,-4.1176 10.045594,10.045594 0 0 0 -3.3295,0.5809 l -0.1288,-0.7448 -10.1652,-4.7615 a 18.864554,18.864554 0 0 0 -18.8514,-18.6002 18.864554,18.864554 0 0 0 -18.8641,18.865 18.864554,18.864554 0 0 0 16.1704,18.647 l -0.038,2.1993 -48.8921,49.9539 -64.1006,0 0,-1.5842 49.7521,0 0,-22.2314 -71.1424,0 0,22.2314 13.356,0 0,1.5842 -35.6352,0 -51.4759,-50.859 0,-1.2383 a 18.864554,18.864554 0 0 0 16.6351,-18.7029 18.864554,18.864554 0 0 0 -18.865,-18.865 18.864554,18.864554 0 0 0 -18.8641,18.865 18.864554,18.864554 0 0 0 14.1458,18.24 c 0.33,3.25 1.649,4.213 1.649,4.213 l 54.0976,53.4491 0,44.4341 -2.2299,1.2518 a 13.8333,13.8333 0 0 0 -11.6781,-6.4249 13.8333,13.8333 0 0 0 -12.7778,8.563 l -5.3361,0 0,-51.9947 -239.8826,0 0,43.1696 -7.3606,3.1855 a 13.857295,13.857295 0 0 0 -9.0502,-3.3854 13.857295,13.857295 0 0 0 -7.7443,2.3812 l -15.4283,-32.1822 0,-15.2644 -27.5027,0 0,-6.7545 9.6689,0 11.7394,0 59.7597,0 0,-23.0564 -27.0155,0 0,-15.6039 -19.5692,0 0,-182.2655 -27.9963,0 0,137.8386 -28.0781,0 0,-1.0708 c -3.0429,-1.1357 -6.0499,-1.5615 -8.7458,-1.6103 -5.9309,-0.1074 -10.3579,1.6103 -10.3579,1.6103 l 0,1.0708 -18.3615,0 0,27.5018 -73.0022,0 -27.808,-47.7573 -90.5505,0 0,5.1046 80.1071,0 1.9174,3.2936 7.4768,0 19.3675,33.2611 -3.8834,2.1462 8.563,27.9953 12.8714,0 2.7739,0 36.0764,0 -3.8591,17.6221 -2.4721,0 -4.1923,1.2519 c -1.0481,0.3202 -0.961,1.3103 -0.961,1.3103 0,1.1354 1.0159,1.3023 1.0159,1.3023 l 5.4207,1.5617 -3.5006,15.9884 3.4673,50.2736 -0.3773,0.2189 a 13.857295,13.857295 0 0 0 -11.9484,-6.8708 13.857295,13.857295 0 0 0 -13.8567,13.8568 13.857295,13.857295 0 0 0 13.8567,13.8576 13.857295,13.857295 0 0 0 11.7665,-6.5691 l 0.5529,0.3351 -3.6294,48.7858 7.856,39.777 -60.5766,0 0,6.1719 -20.3789,0 0,-6.1719 -5.4729,0 0,6.1719 -18.7479,0 0,-6.1719 -6.6375,0 0,24.2209 135.9563,0 0,27.482 18.3985,0 0,1.4553 c 9.5487,3.4353 19.0973,0 19.0973,0 l 0,-1.4553 28.2358,0 0,45.8804 9.1988,0 0,4.7741 9.6653,0 0,-4.7741 9.0835,0 0,-97.5833 -31.9139,0 0,-37.9623 27.5027,0 0,-13.7333 15.5841,-32.2291 a 13.857295,13.857295 0 0 0 7.5885,2.2947 13.857295,13.857295 0 0 0 13.8441,-13.4839 l 2.5667,-0.028 0,56.2482 239.8826,0 0,-50.3916 5.554,0 a 13.8333,13.8333 0 0 0 12.5599,8.0694 13.8333,13.8333 0 0 0 11.7691,-6.5969 l 2.1389,1.5688 0,49.446 31.215,0 0,37.7579 -73.1192,0 -38.8648,0 0,-1.2348 -14.1404,0 -11.2206,11.118 0,14.3088 1.4824,0 0,9.8148 -2.3146,0 0,2.7171 2.3146,0 0,20.5861 -2.3146,0 0,10.5389 2.3146,0 0,23.5499 -2.3146,0 0,3.2935 2.3146,0 0,35.4064 -2.3146,0 0,6.7528 0,7.4102 12.1104,0 0,-10.7047 -2.7144,0 0,-10.5001 2.1408,0 0,-2.446 -2.1408,0 0,-35.2228 2.1408,0 0,-2.3883 -2.1408,0 0,-15.1509 2.7144,0 0,-10.5389 -2.7144,0 0,-33.118 5.8359,0 10.9613,-10.8604 0,-6.7437 38.8648,0 0,4.775 10.2101,7.2463 0,13.3398 62.9091,0 0,9.386 9.2222,0 0,25.8267 -2.1407,0 0,2.7946 2.1407,0 0,25.8519 -2.1407,0 0,10.5965 2.1407,0 0,27.1523 -2.1407,0 0,10.7047 2.1407,0 7.4111,0 2.6343,0 0,-10.7047 -2.6343,0 0,-3.1638 1.812,0 0,-3.0278 -1.812,0 0,-20.9607 2.6343,0 0,-10.5965 -2.6343,0 0,-28.9959 1.812,0 0,-3.1441 -1.812,0 0,-22.3332 12.5148,0 0,-9.386 62.7443,0 0,-13.3398 10.5398,-7.2463 0,-4.775 36.8888,0 0,7.9424 9.6616,9.6617 5.5901,0 0,33.118 -2.3289,0 0,10.5389 2.3289,0 0,26.911 -2.3289,0 0,3.7267 2.3289,0 0,29.7191 -2.3289,0 0,8.0694 0,5.0641 12.3428,0 0,-10.4804 -2.7946,0 0,-32.3722 2.7946,0 0,-3.7267 -2.7946,0 0,-26.911 2.7946,0 0,-10.5389 -2.7946,0 0,-33.118 2.1488,0 0,-14.2701 -11.1567,-11.1567 -13.4631,0 0,1.2348 -36.8888,0 -73.2841,0 0,-37.7579 56.3176,0 0,-48.2248 10.0732,-2.8044 a 13.8333,13.8333 0 0 0 12.1627,7.2697 13.8333,13.8333 0 0 0 13.8333,-13.8333 13.8333,13.8333 0 0 0 -13.8333,-13.8333 13.8333,13.8333 0 0 0 -11.7943,6.6383 l -10.4416,-3.3529 0,-46.7775 46.0452,-47.3115 c 0,0 1.6682,-2.206 2.0597,-6.3682 a 18.864554,18.864554 0 0 0 15.6769,-14.4799 l 6.414,4.0509 a 10.045594,10.045594 0 0 0 -2.3757,6.4862 10.045594,10.045594 0 0 0 10.0453,10.0453 10.045594,10.045594 0 0 0 6.08,-2.0587 l 3.7186,0 0,3.706 7.9875,0 0,2.2461 6.587,0 0,3.6816 40.0184,0 0,-3.6816 25.3124,0 3.6709,0 144.5426,0 34.9129,0 80.0179,0 9.2402,0 102.6448,0 49.5117,0 8.4566,0 3.4583,0 4.9407,0 0,9.3158 -3.4736,0 -4.4309,0 -50.5321,0 0,21.7037 -83.4204,0 0,19.9844 -4.6039,0 a 13.8333,13.8333 0 0 0 -12.8435,-8.7088 13.8333,13.8333 0 0 0 -13.8333,13.8333 13.8333,13.8333 0 0 0 13.8333,13.8333 13.8333,13.8333 0 0 0 12.8372,-8.7098 l 4.6102,0 0,75.3104 -4.9831,0 a 13.8333,13.8333 0 0 0 -12.4643,-7.8631 13.8333,13.8333 0 0 0 -13.8333,13.8333 13.8333,13.8333 0 0 0 13.8333,13.8333 13.8333,13.8333 0 0 0 13.1461,-9.5563 l 4.3013,0 0,20.5662 141.857,0 0,30.8187 -2.7765,0 -11.3864,-11.3854 -24.7009,0 -1.2815,6.9607 1.8471,6.9869 -38.2,0 0,-2.5622 -19.1172,0 0,-2.2461 -17.3502,0 0,2.2461 -19.1171,0 0,-2.2461 -17.3511,0 0,2.2461 -19.1162,0 0,-2.2461 -17.3511,0 0,2.2461 -18.865,0 0,2.5622 -4.2283,0 0,15.8597 132.4962,0 0,9.0574 54.9242,0 0,36.8888 15.8975,0 0,115.6071 8.2505,0 2.0588,2.0588 2.0588,-2.0588 11.6205,0 0,-103.5859 15.4471,0 0,-62.2498 0,-3.1935 54.4209,0 0,7.4759 106.4336,0 0,12.3203 49.3739,0 0,9.3158 33.3044,0 0,0.4656 17.4672,17.7005 7.5471,0 0,33.6521 -9.659,-0.4539 -1.5643,33.307 8.1531,0.3828 -1.1987,25.5069 -8.1531,-0.3827 -1.5689,33.4044 16.2091,0.7618 -0.2954,6.2764 27.6081,0 -0.2945,-6.2764 16.2082,-0.7618 -1.5689,-33.4044 -8.1532,0.3827 -1.1987,-25.5069 8.1532,-0.3828 -1.5643,-33.307 -9.6591,0.4539 0,-33.6521 9.9076,0 19.563,-19.3306 0,-5.1235 7.6857,0 0,1.8633 39.1259,0 0,-7.1661 25.7006,0 a 16.529606,43.735097 78.459 0 0 43.4299,3.2188 16.529606,43.735097 78.459 0 0 12.1906,-3.2188 l 29.0716,0 0,7.1661 45.8804,0 0,4.658 18.6317,17.9328 8.1559,0 0,33.6521 -9.659,-0.4539 -1.5643,33.307 8.1531,0.3828 -1.1987,25.5069 -8.1531,-0.3827 -1.5689,33.4044 16.2091,0.7618 -0.2954,6.2764 27.608,0 -0.2945,-6.2764 16.2082,-0.7618 -1.5688,-33.4044 -8.1532,0.3827 -1.1987,-25.5069 8.1532,-0.3828 -1.5644,-33.307 -9.659,0.4539 0,-23.0618 7.2625,0 0,-40.3472 1.3833,0 0,-25.905 -6.732,0 0,-5.3568 -33.3043,0 0,5.3568 -76.5281,0 11.7466,-33.77 94.2916,0 23.8984,0 57.6154,0 0,-11.1792 19.3306,0 0,-79.8837 -19.3306,0 0,-9.0826 -38.5441,0 0,-4.5418 -19.0713,0 0,-2.2119 -122.4211,0 -0.6997,-5.7062 11.2233,0 0,-5.6171 7.5687,-1.6031 c 1.6303,-0.5821 1.5139,-4.0752 1.5139,-4.0752 -0.2328,-2.329 -2.4451,-3.7267 -2.4451,-3.7267 l -6.6375,-1.4518 0,-4.4174 -13.7828,0 -2.8198,-23.0096 9.0772,0 0,-19.4792 98.981,0 0,-18.8317 24.5145,0 c 0.7664,0 1.3833,-0.6169 1.3833,-1.3833 l 0,-8.3991 17.3745,0 c 0.7664,0 1.3834,-0.6169 1.3834,-1.3833 l 0,-2.9386 c 0,-0.7664 -0.617,-1.3834 -1.3834,-1.3834 l -43.2723,0 -3.6204,0 -2.3056,0 0,-24.0767 c 0,-0.7664 -0.617,-1.3834 -1.3833,-1.3834 l -2.338,0 c -0.7664,0 -1.3833,0.617 -1.3833,1.3834 l 0,24.0767 -52.8637,0 0,-24.0767 c 0,-0.7664 -0.617,-1.3834 -1.3834,-1.3834 l -2.3379,0 c -0.7664,0 -1.3834,0.617 -1.3834,1.3834 l 0,24.0767 -29.982,0 -17.4673,0 -5.7431,0 0,-24.0767 c 0,-0.7664 -0.617,-1.3834 -1.3834,-1.3834 l -2.3388,0 c -0.7664,0 -1.3834,0.617 -1.3834,1.3834 l 0,24.0767 -52.78,0 0,-24.0767 c 0,-0.7664 -0.6169,-1.3834 -1.3833,-1.3834 l -2.3389,0 c -0.7663,0 -1.3833,0.617 -1.3833,1.3834 l 0,24.0767 -53.2744,0 0,-24.0767 c 0,-0.7664 -0.617,-1.3834 -1.3833,-1.3834 l -2.3389,0 c -0.7664,0 -1.3833,0.617 -1.3833,1.3834 l 0,24.0767 -50.66,0 -1.767,0 0,-24.0767 c 0,-0.7664 -0.6169,-1.3834 -1.3833,-1.3834 l -2.3389,0 c -0.7663,0 -1.3833,0.617 -1.3833,1.3834 l 0,24.0767 -2.3686,0 -22.4233,0 -19.2414,0 c -0.7664,0 -1.3834,0.617 -1.3834,1.3834 l 0,3.1719 c 0,0.7663 0.617,1.3833 1.3834,1.3833 l 16.1911,0 0,3.2746 c 0,0.7664 0.6169,1.3834 1.3833,1.3834 l 24.0903,0 0,11.9942 -69.1323,0 0,-2.6784 -19.9124,0 0,7.8019 -26.1248,0 -23.0555,0 -59.7794,0 -18.1157,0 0,6.6051 -72.7897,0 0,-83.4933 -15.6804,0 0,-133.4166 -13.3443,0 -1.6814,-1.6815 z m 240.9345,225.4945 78.6814,0 0,12.5761 13.5082,0 0,15.3715 119.3167,0 0,7.6381 0,20.8913 0,5.7062 -43.393,0 0,-2.3892 -111.5715,0 3.4655,-42.2259 a 11.033704,11.033704 0 0 0 0.6008,-3.5564 11.033704,11.033704 0 0 0 -11.0334,-11.0334 11.033704,11.033704 0 0 0 -11.0342,11.0334 11.033704,11.033704 0 0 0 11.0342,11.0342 11.033704,11.033704 0 0 0 3.7006,-0.6512 l -2.9054,35.3993 -1.7039,0 0,-4.8309 -164.4244,0 0,18.7479 -4.3085,0 0,5.4729 -38.5171,0 0,-15.8362 10.7802,0 a 13.8333,13.8333 0 0 0 13.0885,9.4077 13.8333,13.8333 0 0 0 13.8333,-13.8333 13.8333,13.8333 0 0 0 -13.8333,-13.8333 13.8333,13.8333 0 0 0 -12.531,8.0109 l -11.3377,0 0,-19.9844 -72.723,0 0,-31.0195 93.8683,0 0,3.7645 18.1157,0 0,-3.7645 19.1027,0 0,3.7645 17.6212,0 0,5.0227 46.111,0 0,-6.1755 36.4881,0 0,-4.7075 z m -1383.2805,4.7895 35.184,0 0,8.4855 -30.1892,0 0,6.1718 -7.321,0 2.3262,-14.6573 z m 54.9802,0 9.9598,0 0,8.4855 -9.9598,0 0,-8.4855 z m 19.6755,0 19.9169,0 14.6664,0 6.7599,0 0,8.4855 -20.5932,0 -11.0811,0 -9.6689,0 0,-8.4855 z m 1530.0278,23.1581 47.1341,0 0.9358,7.6381 -47.1332,0 -0.9367,-7.6381 z m -1608.8137,2.8621 9.125,0 0,5.5217 34.748,0 0,6.7545 -45.821,0 1.948,-12.2762 z m 54.248,5.5217 14.8222,0 0,6.7545 -14.8222,0 0,-6.7545 z m 1558.0619,20.1456 47.1332,0 0.6998,5.7062 -47.1332,0 -0.6998,-5.7062 z m -383.4832,30.1604 38.5171,0 0,5.5981 -11.7728,0 0,5.9288 -26.7443,0 0,-11.5269 z m 0,19.1027 26.7443,0 0,5.7639 11.7728,0 0,5.1767 -38.5171,0 0,-10.9406 z m 0,18.3931 38.5171,0 0,5.5891 4.3085,0 0,18.1662 87.0732,0 62.9208,49.1415 0,5.8224 -25.3853,0 0,-2.5622 -19.0398,0 0,-2.2461 -17.3501,0 0,2.2461 -19.1172,0 0,-2.2461 -17.3501,0 0,2.2461 -19.1172,0 0,-2.2461 -17.351,0 0,2.2461 -19.1163,0 0,-2.2461 -17.3511,0 0,2.2461 -18.865,0 0,2.329 -54.4209,0 0,-2.329 -21.0786,0 0,-30.8187 72.723,0 0,-20.5662 10.6848,0 a 13.8333,13.8333 0 0 0 13.1839,9.6968 13.8333,13.8333 0 0 0 13.8333,-13.8333 13.8333,13.8333 0 0 0 -13.8333,-13.8333 13.8333,13.8333 0 0 0 -12.3923,7.7226 l -11.4764,0 0,-14.5249 z m 147.1193,23.7553 53.4311,0 0,18.9487 28.5546,0 a 13.8333,13.8333 0 0 0 10.1318,4.4337 13.8333,13.8333 0 0 0 10.1255,-4.4337 l 77.335,0 0,2.2452 58.8843,0 9.7986,29.1382 a 16.529606,43.735097 78.459 0 0 -8.2261,1.3644 16.529606,43.735097 78.459 0 0 -12.3365,3.2674 l -124.4727,0 0,-5.3568 -33.3035,0 0,5.3568 -5.3568,0 0,-4.5381 -64.5653,-50.4258 z m -1378.1425,11.6448 46.0695,0 0,20.4951 -4.5588,0 0,17.4672 -35.8387,0 -2.474,-16.5585 6.0485,-1.6671 c 1.2351,-0.4117 1.1528,-1.2761 1.1528,-1.2761 0,-0.741 -0.7412,-1.1528 -0.7412,-1.1528 l -4.3229,-1.4815 -2.9702,0 -2.365,-15.8263 z m 56.4445,0 14.8222,0 0,37.9623 -9.9598,0 0,-17.4672 -4.8624,0 0,-20.4951 z m 1573.3109,9.5491 35.4731,0 -13.401,29.5345 a 16.529606,43.735097 78.459 0 0 -12.5571,-1.2402 l -9.515,-28.2943 z"
       style="fill:#dddddd;fill-opacity:1;fill-rule:evenodd;stroke:#222222;stroke-width:1.5;stroke-linecap:butt;stroke-linejoin:miter;stroke-miterlimit:4;stroke-dasharray:none;stroke-opacity:1"
       inkscape:connector-curvature="0" />
  </g>
  <g
     inkscape:groupmode="layer"
     id="layer3"
     inkscape:label="Label"
     transform="translate(0,30.000028)">
    <g
       id="g5061"
       transform="translate(41.50878,-30.564641)">
      <g
         style="font-style:normal;font-variant:normal;font-weight:bold;font-stretch:normal;font-size:125px;line-height:125%;font-family:Overpass;-inkscape-font-specification:'Overpass, Bold';text-align:start;letter-spacing:0px;word-spacing:0px;writing-mode:lr-tb;text-anchor:start;fill:#dddddd;fill-opacity:1;stroke:#222222;stroke-width:0.25;stroke-linecap:butt;stroke-linejoin:miter;stroke-miterlimit:4;stroke-dasharray:none;stroke-opacity:1"
         id="text5053">
        <path
           d="m 1820.0938,113.21403 0,-87.524417 16.8457,0 0,87.524417 -16.8457,0 z"
           style=""
           id="path5068" />
        <path
           d="m 1918.9707,113.21403 -6.7749,-18.127444 -33.7524,0 -6.7139,18.127444 -18.1274,0 33.5083,-87.524417 16.4794,0 33.5083,87.524417 -18.1274,0 z m -20.874,-56.274417 q -0.6714,-1.586914 -1.4649,-3.784179 -0.7324,-2.197266 -1.2817,-4.089356 -0.4883,1.89209 -1.2817,4.089356 -0.7935,2.197265 -1.4649,3.784179 l -8.667,22.766114 22.7661,0 -8.6059,-22.766114 z"
           style=""
           id="path5070" />
        <path
           d="m 2006.4951,113.21403 0,-36.987307 -36.6211,0 0,36.987307 -16.9067,0 0,-87.524417 16.9067,0 0,34.545899 36.6211,0 0,-34.545899 16.8457,0 0,87.524417 -16.8457,0 z"
           style=""
           id="path5072" />
      </g>
      <g
         style="font-style:normal;font-variant:normal;font-weight:normal;font-stretch:normal;font-size:45px;line-height:125%;font-family:Overpass;-inkscape-font-specification:'Overpass, Normal';text-align:start;letter-spacing:0px;word-spacing:0px;writing-mode:lr-tb;text-anchor:start;fill:#222222;fill-opacity:1;stroke:none;stroke-width:1px;stroke-linecap:butt;stroke-linejoin:miter;stroke-opacity:1"
         id="text5057">
        <path
           d="m 1519.8521,58.187172 0,-14.040527 -14.3702,0 0,14.040527 -4.6801,0 0,-31.508789 4.6801,0 0,13.051758 14.3702,0 0,-13.051758 4.6801,0 0,31.508789 -4.6801,0 z"
           style=""
           id="path5075" />
        <path
           d="m 1541.3193,58.736488 q -2.417,0 -4.3725,-0.812988 -1.9336,-0.812988 -3.2959,-2.351074 -1.3623,-1.560059 -2.1094,-3.779297 -0.7251,-2.241211 -0.7251,-5.075684 0,-2.834472 0.7251,-5.075683 0.7471,-2.241211 2.1094,-3.779297 1.3623,-1.560059 3.2959,-2.373047 1.9555,-0.834961 4.3725,-0.834961 2.3951,0 4.3506,0.834961 1.9556,0.812988 3.3179,2.373047 1.3623,1.538086 2.1094,3.779297 0.747,2.241211 0.747,5.075683 0,2.834473 -0.747,5.075684 -0.7471,2.219238 -2.1094,3.779297 -1.3623,1.538086 -3.3179,2.351074 -1.9555,0.812988 -4.3506,0.812988 z m 0,-4.416504 q 1.3404,0 2.417,-0.527343 1.0987,-0.527344 1.8457,-1.494141 0.7691,-0.988769 1.1646,-2.395019 0.4175,-1.40625 0.4175,-3.186036 0,-1.779785 -0.4175,-3.186035 -0.3955,-1.428222 -1.1646,-2.416992 -0.747,-0.98877 -1.8457,-1.516113 -1.0766,-0.527344 -2.417,-0.527344 -1.3403,0 -2.417,0.527344 -1.0766,0.527343 -1.8457,1.516113 -0.747,0.98877 -1.1645,2.416992 -0.3955,1.40625 -0.3955,3.186035 0,1.779786 0.3955,3.186036 0.4175,1.40625 1.1645,2.395019 0.7691,0.966797 1.8457,1.494141 1.0767,0.527343 2.417,0.527343 z"
           style=""
           id="path5077" />
        <path
           d="m 1571.4438,58.187172 0,-2.197266 q -1.1206,1.428223 -2.5927,2.087403 -1.4502,0.659179 -3.3618,0.659179 -1.8018,0 -3.3179,-0.527343 -1.5161,-0.505372 -2.6367,-1.669922 -1.0987,-1.186524 -1.7139,-3.0542 -0.6152,-1.867675 -0.6152,-4.570312 l 0,-13.73291 4.6801,0 0,13.73291 q 0,1.450195 0.3516,2.48291 0.3516,1.010742 0.9668,1.669922 0.6152,0.65918 1.4502,0.966797 0.835,0.285644 1.8237,0.285644 1.0547,0 1.9556,-0.263671 0.9009,-0.285645 1.5601,-0.900879 0.6811,-0.637207 1.0546,-1.64795 0.3955,-1.010742 0.3955,-2.504882 l 0,-13.820801 4.6802,0 0,23.005371 -4.6802,0 z"
           style=""
           id="path5079" />
        <path
           d="m 1589.9448,58.736488 q -1.3623,0 -2.6587,-0.263672 -1.2964,-0.263671 -2.4389,-0.74707 -1.1206,-0.483398 -2.0435,-1.164551 -0.9228,-0.703125 -1.5381,-1.560058 l 3.3179,-2.834473 q 0.3516,0.32959 0.8569,0.74707 0.5054,0.395508 1.1646,0.747071 0.6592,0.351562 1.4721,0.593261 0.813,0.2417 1.7798,0.2417 0.8789,0 1.626,-0.131836 0.7471,-0.131836 1.2744,-0.417481 0.5493,-0.285644 0.835,-0.74707 0.3076,-0.483398 0.3076,-1.186523 0,-0.812989 -0.5713,-1.384278 -0.5493,-0.593262 -1.4502,-1.054687 -0.9009,-0.483399 -2.0434,-0.900879 -1.1426,-0.439453 -2.3072,-0.922852 -1.0766,-0.461426 -2.1093,-1.010742 -1.0328,-0.549316 -1.8457,-1.318359 -0.7911,-0.769043 -1.2964,-1.823731 -0.4834,-1.07666 -0.4834,-2.592773 0,-1.538086 0.6152,-2.72461 0.6372,-1.186523 1.7139,-1.977539 1.0986,-0.812988 2.5488,-1.230468 1.4722,-0.417481 3.1421,-0.417481 1.4722,0 2.7026,0.285645 1.2525,0.285644 2.2412,0.769043 1.0108,0.483398 1.7798,1.120605 0.7691,0.615234 1.3404,1.296387 l -3.3838,2.680664 q -0.3077,-0.307617 -0.7471,-0.637207 -0.4175,-0.351563 -0.9888,-0.637207 -0.5713,-0.285645 -1.2964,-0.461426 -0.7251,-0.197754 -1.6479,-0.197754 -1.4942,0 -2.3731,0.549316 -0.8569,0.549317 -0.8569,1.582032 0,0.659179 0.4614,1.164551 0.4615,0.483398 1.2525,0.900878 0.791,0.417481 1.8017,0.812989 1.0327,0.373535 2.1534,0.812988 1.1865,0.461426 2.3291,1.032715 1.1425,0.571289 2.0214,1.40625 0.9009,0.834961 1.4283,2.021484 0.5493,1.186524 0.5493,2.856446 0,1.647949 -0.6153,2.922363 -0.6152,1.252441 -1.7578,2.109375 -1.1206,0.834961 -2.7246,1.252441 -1.582,0.439453 -3.5376,0.439453 z"
           style=""
           id="path5081" />
        <path
           d="m 1610.8628,58.736488 q -1.3623,0 -2.3511,-0.41748 -0.9668,-0.395508 -1.604,-1.142578 -0.6152,-0.747071 -0.9009,-1.801758 -0.2856,-1.07666 -0.2856,-2.373047 l 0,-13.754883 -3.5596,0 0,-4.064941 3.5596,0 0,-7.229004 4.6802,-2.263184 0,9.492188 5.4492,0 0,4.064941 -5.4492,0 0,12.546387 q 0,0.571289 0.088,1.054687 0.1098,0.483399 0.3515,0.834961 0.2637,0.351563 0.7031,0.549317 0.4395,0.175781 1.1207,0.175781 1.6699,0 3.4057,-1.07666 l -0.5713,4.350586 q -0.9668,0.483398 -2.1094,0.769043 -1.1425,0.285644 -2.5268,0.285644 z"
           style=""
           id="path5083" />
        <path
           d="m 1630.6162,58.736488 q -2.417,0 -4.3725,-0.812988 -1.9336,-0.812988 -3.2959,-2.351074 -1.3624,-1.560059 -2.1094,-3.779297 -0.7251,-2.241211 -0.7251,-5.075684 0,-2.834472 0.7251,-5.075683 0.747,-2.241211 2.1094,-3.779297 1.3623,-1.560059 3.2959,-2.373047 1.9555,-0.834961 4.3725,-0.834961 2.395,0 4.3506,0.834961 1.9556,0.812988 3.3179,2.373047 1.3623,1.538086 2.1093,3.779297 0.7471,2.241211 0.7471,5.075683 0,2.834473 -0.7471,5.075684 -0.747,2.219238 -2.1093,3.779297 -1.3623,1.538086 -3.3179,2.351074 -1.9556,0.812988 -4.3506,0.812988 z m 0,-4.416504 q 1.3403,0 2.417,-0.527343 1.0986,-0.527344 1.8457,-1.494141 0.769,-0.988769 1.1646,-2.395019 0.4174,-1.40625 0.4174,-3.186036 0,-1.779785 -0.4174,-3.186035 -0.3956,-1.428222 -1.1646,-2.416992 -0.7471,-0.98877 -1.8457,-1.516113 -1.0767,-0.527344 -2.417,-0.527344 -1.3403,0 -2.417,0.527344 -1.0766,0.527343 -1.8457,1.516113 -0.7471,0.98877 -1.1645,2.416992 -0.3955,1.40625 -0.3955,3.186035 0,1.779786 0.3955,3.186036 0.4174,1.40625 1.1645,2.395019 0.7691,0.966797 1.8457,1.494141 1.0767,0.527343 2.417,0.527343 z"
           style=""
           id="path5085" />
        <path
           d="m 1660.9604,58.187172 0,-13.73291 q 0,-1.450196 -0.3515,-2.460938 -0.3516,-1.032715 -0.9668,-1.669922 -0.6152,-0.659179 -1.4502,-0.944824 -0.835,-0.307617 -1.8237,-0.307617 -1.0547,0 -1.9556,0.285645 -0.9009,0.263671 -1.5601,0.878906 -0.6591,0.615234 -1.0546,1.647949 -0.3736,1.010742 -0.3736,2.48291 l 0,13.820801 -4.6802,0 0,-23.005371 4.6802,0 0,2.219238 q 1.1206,-1.428223 2.5708,-2.087402 1.4502,-0.65918 3.3618,-0.65918 1.8018,0 3.3179,0.527344 1.5161,0.505371 2.6148,1.669922 1.1206,1.16455 1.7358,3.032226 0.6152,1.867676 0.6152,4.570313 l 0,13.73291 -4.6802,0 z"
           style=""
           id="path5087" />
        <path
           d="m 1671.002,47.288734 0,-4.042968 17.7758,0 0,4.042968 -17.7758,0 z"
           style=""
           id="path5089" />
        <path
           d="m 1695.1279,26.678383 11.9312,0 q 2.8125,0 4.7241,0.725098 1.9116,0.703125 3.0762,1.889648 1.1645,1.164551 1.6479,2.680664 0.5054,1.516113 0.5054,3.120117 0,1.977539 -1.0767,3.735352 -1.0766,1.73584 -3.2519,2.790527 1.4722,0.527344 2.5049,1.340332 1.0327,0.791016 1.6919,1.757813 0.6591,0.966797 0.9448,2.065429 0.3076,1.07666 0.3076,2.175293 0,1.604004 -0.5493,3.251953 -0.5274,1.64795 -1.7578,2.988282 -1.2305,1.318359 -3.23,2.15332 -1.9775,0.834961 -4.856,0.834961 l -12.6123,0 0,-31.508789 z m 12.9639,27.180176 q 1.5601,0 2.5708,-0.417481 1.0327,-0.41748 1.626,-1.07666 0.5932,-0.681152 0.8349,-1.516113 0.2417,-0.834961 0.2417,-1.669922 0,-0.98877 -0.2856,-1.911621 -0.2857,-0.944824 -1.0327,-1.647949 -0.7471,-0.725098 -2.0435,-1.164551 -1.2744,-0.439453 -3.2519,-0.439453 l -6.9434,0 0,9.84375 8.2837,0 z M 1706.29,39.686195 q 1.4722,0 2.5928,-0.307617 1.1206,-0.32959 1.8677,-0.900879 0.7471,-0.593261 1.1206,-1.384277 0.3735,-0.791016 0.3735,-1.757813 0,-0.769043 -0.1977,-1.538086 -0.1978,-0.769042 -0.7691,-1.384277 -0.5493,-0.637207 -1.5381,-1.010742 -0.9668,-0.395508 -2.5488,-0.395508 l -7.3828,0 0,8.679199 6.4819,0 z"
           style=""
           id="path5091" />
        <path
           d="m 1738.436,58.187172 0,-2.197266 q -1.1206,1.428223 -2.5927,2.087403 -1.4502,0.659179 -3.3619,0.659179 -1.8017,0 -3.3178,-0.527343 -1.5161,-0.505372 -2.6367,-1.669922 -1.0987,-1.186524 -1.7139,-3.0542 -0.6152,-1.867675 -0.6152,-4.570312 l 0,-13.73291 4.6801,0 0,13.73291 q 0,1.450195 0.3516,2.48291 0.3516,1.010742 0.9668,1.669922 0.6152,0.65918 1.4502,0.966797 0.8349,0.285644 1.8237,0.285644 1.0547,0 1.9556,-0.263671 0.9009,-0.285645 1.56,-0.900879 0.6812,-0.637207 1.0547,-1.64795 0.3955,-1.010742 0.3955,-2.504882 l 0,-13.820801 4.6802,0 0,23.005371 -4.6802,0 z"
           style=""
           id="path5093" />
        <path
           d="m 1756.937,58.736488 q -1.3623,0 -2.6587,-0.263672 -1.2964,-0.263671 -2.4389,-0.74707 -1.1206,-0.483398 -2.0435,-1.164551 -0.9229,-0.703125 -1.5381,-1.560058 l 3.3179,-2.834473 q 0.3515,0.32959 0.8569,0.74707 0.5054,0.395508 1.1646,0.747071 0.6591,0.351562 1.4721,0.593261 0.813,0.2417 1.7798,0.2417 0.8789,0 1.626,-0.131836 0.7471,-0.131836 1.2744,-0.417481 0.5493,-0.285644 0.835,-0.74707 0.3076,-0.483398 0.3076,-1.186523 0,-0.812989 -0.5713,-1.384278 -0.5493,-0.593262 -1.4502,-1.054687 -0.9009,-0.483399 -2.0435,-0.900879 -1.1425,-0.439453 -2.3071,-0.922852 -1.0766,-0.461426 -2.1094,-1.010742 -1.0327,-0.549316 -1.8457,-1.318359 -0.791,-0.769043 -1.2963,-1.823731 -0.4834,-1.07666 -0.4834,-2.592773 0,-1.538086 0.6152,-2.72461 0.6372,-1.186523 1.7139,-1.977539 1.0986,-0.812988 2.5488,-1.230468 1.4722,-0.417481 3.1421,-0.417481 1.4721,0 2.7026,0.285645 1.2525,0.285644 2.2412,0.769043 1.0108,0.483398 1.7798,1.120605 0.7691,0.615234 1.3403,1.296387 l -3.3837,2.680664 q -0.3077,-0.307617 -0.7471,-0.637207 -0.4175,-0.351563 -0.9888,-0.637207 -0.5713,-0.285645 -1.2964,-0.461426 -0.7251,-0.197754 -1.6479,-0.197754 -1.4942,0 -2.3731,0.549316 -0.8569,0.549317 -0.8569,1.582032 0,0.659179 0.4614,1.164551 0.4614,0.483398 1.2525,0.900878 0.791,0.417481 1.8017,0.812989 1.0327,0.373535 2.1533,0.812988 1.1866,0.461426 2.3291,1.032715 1.1426,0.571289 2.0215,1.40625 0.9009,0.834961 1.4282,2.021484 0.5494,1.186524 0.5494,2.856446 0,1.647949 -0.6153,2.922363 -0.6152,1.252441 -1.7578,2.109375 -1.1206,0.834961 -2.7246,1.252441 -1.582,0.439453 -3.5376,0.439453 z"
           style=""
           id="path5095" />
        <path
           d="m 1785.4136,58.187172 0,-13.73291 q 0,-1.450196 -0.3516,-2.460938 -0.3516,-1.032715 -0.9668,-1.669922 -0.6152,-0.659179 -1.4502,-0.944824 -0.8349,-0.307617 -1.8237,-0.307617 -1.0547,0 -1.9556,0.285645 -0.9009,0.263671 -1.56,0.878906 -0.6592,0.615234 -1.0547,1.647949 -0.3736,1.010742 -0.3736,2.48291 l 0,13.820801 -4.6801,0 0,-30.322266 4.6801,-2.175293 0,11.711426 q 1.1206,-1.428223 2.5708,-2.087402 1.4502,-0.65918 3.3619,-0.65918 1.8017,0 3.3178,0.527344 1.5161,0.505371 2.6148,1.669922 1.1206,1.16455 1.7358,3.032226 0.6153,1.867676 0.6153,4.570313 l 0,13.73291 -4.6802,0 z"
           style=""
           id="path5097" />
      </g>
    </g>
  </g>
</svg>
