<?xml version="1.0" encoding="UTF-8" standalone="no"?>
<!-- Created with Inkscape (http://www.inkscape.org/) -->

<svg
   xmlns:dc="http://purl.org/dc/elements/1.1/"
   xmlns:cc="http://creativecommons.org/ns#"
   xmlns:rdf="http://www.w3.org/1999/02/22-rdf-syntax-ns#"
   xmlns:svg="http://www.w3.org/2000/svg"
   xmlns="http://www.w3.org/2000/svg"
   xmlns:sodipodi="http://sodipodi.sourceforge.net/DTD/sodipodi-0.dtd"
   xmlns:inkscape="http://www.inkscape.org/namespaces/inkscape"
   width="445.28149"
   height="384.92719"
   viewBox="0 0 445.2815 384.92719"
   id="svg2"
   version="1.1"
   inkscape:version="0.91 r13725"
   sodipodi:docname="ICT.svg"
   inkscape:export-filename="C:\Users\paulb\Dropbox\Projects\Terminal Silhouettes\Silhouettes\png\ICT.png"
   inkscape:export-xdpi="90"
   inkscape:export-ydpi="90">
  <defs
     id="defs4" />
  <sodipodi:namedview
     id="base"
     pagecolor="#ffffff"
     bordercolor="#666666"
     borderopacity="1.0"
     inkscape:pageopacity="1"
     inkscape:pageshadow="2"
     inkscape:zoom="1"
     inkscape:cx="86.565552"
     inkscape:cy="180.03813"
     inkscape:document-units="px"
     inkscape:current-layer="layer1"
     showgrid="false"
     units="px"
     fit-margin-top="25"
     fit-margin-left="25"
     fit-margin-right="25"
     fit-margin-bottom="25"
     inkscape:window-width="1920"
     inkscape:window-height="1137"
     inkscape:window-x="1912"
     inkscape:window-y="-8"
     inkscape:window-maximized="1" />
  <metadata
     id="metadata7">
    <rdf:RDF>
      <cc:Work
         rdf:about="">
        <dc:format>image/svg+xml</dc:format>
        <dc:type
           rdf:resource="http://purl.org/dc/dcmitype/StillImage" />
        <dc:title></dc:title>
      </cc:Work>
    </rdf:RDF>
  </metadata>
  <g
     inkscape:groupmode="layer"
     id="layer3"
     inkscape:label="Terminal"
     transform="translate(-532.25987,-704.67809)">
    <path
       style="fill:#dddddd;fill-opacity:1;fill-rule:evenodd;stroke:#222222;stroke-width:0.449745;stroke-linecap:butt;stroke-linejoin:miter;stroke-miterlimit:4;stroke-dasharray:none;stroke-opacity:1"
       d="m 692.40999,1064.3384 22.75204,-0.6406 0.29983,0.5996 1.94889,-1.0494 -1.12436,-2.2487 7.42079,-4.1227 -9.96934,-17.54 3.523,-1.9489 -5.09711,-8.845 -3.59796,2.0239 -9.21977,-15.966 -8.09541,4.6474 -26.61415,-46.60473 22.26125,-12.61471 1.9081,2.96817 14.2048,-8.05645 -0.42403,-3.18018 9.91156,-0.26501 -101.97676,-175.40925 -13.71722,18.43954 1.5741,2.09881 -2.69846,3.22317 -13.26748,7.87054 2.69847,4.42249 -27.54688,17.72745 5.84668,9.85691 -1.86487,1.25917 5.77732,9.59354 1.59009,-0.95405 17.17295,29.84066 -1.59008,0.95405 5.5123,10.17657 1.7491,-1.11306 21.5192,37.42009 -1.43108,0.95405 5.72432,10.22957 1.59009,-1.00706 35.35297,61.32443 -1.59009,0.95406 5.19429,9.75253 1.90811,-1.0601 21.89022,37.9502 -1.7491,1.113 5.4063,9.4345 1.59009,-1.06 z"
       id="path4157"
       inkscape:connector-curvature="0" />
  </g>
  <g
     inkscape:groupmode="layer"
     id="layer4"
     inkscape:label="Label"
     transform="translate(-498.56086,-431.33472)">
    <text
       xml:space="preserve"
       style="font-style:normal;font-variant:normal;font-weight:bold;font-stretch:normal;font-size:125px;line-height:110.00000238%;font-family:Overpass;-inkscape-font-specification:'Overpass Bold';text-align:center;letter-spacing:0px;word-spacing:0px;writing-mode:lr-tb;text-anchor:middle;fill:#000000;fill-opacity:1;stroke:none;stroke-width:1px;stroke-linecap:butt;stroke-linejoin:miter;stroke-opacity:1"
       x="956"
       y="182.01819"
       id="text4160"
       sodipodi:linespacing="110%"><tspan
         sodipodi:role="line"
         id="tspan4162"
         x="956"
         y="182.01819" /></text>
    <text
       xml:space="preserve"
       style="font-style:normal;font-variant:normal;font-weight:normal;font-stretch:normal;font-size:125px;line-height:110.00000238%;font-family:Overpass;-inkscape-font-specification:'Overpass, Normal';text-align:center;letter-spacing:0px;word-spacing:0px;writing-mode:lr-tb;text-anchor:middle;fill:#000000;fill-opacity:1;stroke:none;stroke-width:1px;stroke-linecap:butt;stroke-linejoin:miter;stroke-opacity:1"
       x="960"
       y="248.01819"
       id="text4164"
       sodipodi:linespacing="110%"><tspan
         sodipodi:role="line"
         id="tspan4166"
         x="960"
         y="248.01819" /></text>
    <g
       style="font-style:normal;font-variant:normal;font-weight:bold;font-stretch:normal;font-size:125px;line-height:110.00000238%;font-family:Overpass;-inkscape-font-specification:'Overpass, Bold';text-align:center;letter-spacing:0px;word-spacing:0px;writing-mode:lr-tb;text-anchor:middle;fill:#dddddd;fill-opacity:1;stroke:#222222;stroke-width:0.25;stroke-linecap:butt;stroke-linejoin:miter;stroke-miterlimit:4;stroke-dasharray:none;stroke-opacity:1"
       id="text4173">
      <path
         d="m 734.81842,545.3269 0,-87.52441 16.8457,0 0,87.52441 -16.8457,0 z"
         id="path3362"
         inkscape:connector-curvature="0" />
      <path
         d="m 808.54889,546.73071 q -6.83594,0 -12.20703,-1.83105 -5.3711,-1.83106 -9.46045,-5.06592 -4.08936,-3.23486 -6.95801,-7.56836 -2.86865,-4.3335 -4.69971,-9.33838 -1.77002,-5.06592 -2.62451,-10.49804 -0.79345,-5.43213 -0.79345,-10.86426 0,-5.00489 0.85449,-10.25391 0.85449,-5.31006 2.62451,-10.31494 1.83105,-5.00488 4.69971,-9.46045 2.92968,-4.45557 6.958,-7.8125 4.08936,-3.35693 9.46045,-5.31006 5.3711,-1.95312 12.146,-1.95312 6.28662,0 11.41357,1.70898 5.12696,1.70899 9.03321,4.5166 3.90625,2.74658 6.59179,6.28662 2.74659,3.54004 4.21143,7.20215 l -15.13672,6.89697 q -1.58691,-2.4414 -3.23486,-4.39453 -1.64795,-1.95312 -3.54004,-3.23486 -1.89209,-1.34277 -4.21143,-2.01416 -2.2583,-0.73242 -5.12695,-0.73242 -3.66211,0 -6.53076,1.28174 -2.86865,1.2207 -5.00489,3.35693 -2.13623,2.13623 -3.60107,5.00488 -1.46484,2.86866 -2.38037,6.10352 -0.91553,3.17383 -1.34277,6.5918 -0.36622,3.35693 -0.36622,6.53076 0,5.12695 1.09864,10.2539 1.09863,5.12696 3.41797,9.27735 2.31933,4.15039 5.92041,6.7749 3.66211,2.56348 8.78906,2.56348 2.68555,0 4.94385,-0.79346 2.2583,-0.85449 4.15039,-2.31934 1.95312,-1.46484 3.60107,-3.54004 1.70899,-2.07519 3.17383,-4.57763 l 15.50293,5.85937 q -2.0752,4.82178 -5.00488,8.8501 -2.92969,3.96729 -6.83594,6.83594 -3.84522,2.80761 -8.72803,4.39453 -4.88281,1.58691 -10.80322,1.58691 z"
         id="path3364"
         inkscape:connector-curvature="0" />
      <path
         d="m 893.69293,474.09888 0,71.22802 -16.8457,0 0,-71.22802 -25.02442,0 0,-16.29639 66.89454,0 0,16.29639 -25.02442,0 z"
         id="path3366"
         inkscape:connector-curvature="0" />
    </g>
    <g
       style="font-style:normal;font-variant:normal;font-weight:normal;font-stretch:normal;font-size:45px;line-height:110.00000238%;font-family:Overpass;-inkscape-font-specification:'Overpass, Normal';text-align:center;letter-spacing:0px;word-spacing:0px;writing-mode:lr-tb;text-anchor:middle;fill:#222222;fill-opacity:1;stroke:none;stroke-width:1px;stroke-linecap:butt;stroke-linejoin:miter;stroke-opacity:1"
       id="text4177">
      <path
         d="m 768.99274,562.8446 -6.81153,31.50879 -4.21875,0 -5.44922,-20.43457 q -0.32959,-1.25244 -0.52734,-2.02148 -0.17578,-0.79102 -0.2417,-1.38428 -0.0659,0.59326 -0.2417,1.38428 -0.17578,0.76904 -0.50537,2.02148 l -5.31738,20.43457 -4.24072,0 -6.74561,-31.50879 4.81201,0 3.91113,19.40186 q 0.28565,1.3623 0.43946,2.19727 0.17578,0.83496 0.2417,1.45019 0.0659,-0.61523 0.26367,-1.42822 0.21973,-0.83496 0.54932,-2.21924 l 4.94384,-19.40186 3.93311,0 5.07568,19.35791 q 0.37354,1.36231 0.54932,2.1753 0.19775,0.81299 0.26367,1.42822 0.0659,-0.61523 0.19775,-1.4502 0.15381,-0.83496 0.41748,-2.15332 l 3.97706,-19.35791 4.72412,0 z"
         id="path3347"
         inkscape:connector-curvature="0" />
      <path
         d="m 774.41998,594.35339 0,-23.00537 4.68018,0 0,23.00537 -4.68018,0 z m 2.3291,-26.58691 q -0.59326,0 -1.1206,-0.21973 -0.50537,-0.21972 -0.90088,-0.59326 -0.37354,-0.39551 -0.59326,-0.90088 -0.21973,-0.52734 -0.21973,-1.1206 0,-0.59326 0.21973,-1.09864 0.21972,-0.52734 0.59326,-0.90087 0.39551,-0.39551 0.90088,-0.61524 0.52734,-0.21973 1.1206,-0.21973 0.59327,0 1.09864,0.21973 0.52734,0.21973 0.90088,0.61524 0.3955,0.37353 0.61523,0.90087 0.21973,0.50538 0.21973,1.09864 0,0.59326 -0.21973,1.1206 -0.21973,0.50537 -0.61523,0.90088 -0.37354,0.37354 -0.90088,0.59326 -0.50537,0.21973 -1.09864,0.21973 z"
         id="path3349"
         inkscape:connector-curvature="0" />
      <path
         d="m 794.78864,594.90271 q -2.30713,0 -4.17481,-0.81299 -1.8457,-0.81299 -3.16406,-2.35107 -1.29639,-1.56006 -1.99951,-3.7793 -0.70313,-2.24121 -0.70313,-5.07568 0,-2.83448 0.70313,-5.07569 0.70312,-2.24121 1.99951,-3.77929 1.31836,-1.56006 3.16406,-2.37305 1.86768,-0.83496 4.17481,-0.83496 3.208,0 5.42724,1.42822 2.24121,1.42822 3.25195,4.5044 l -4.43847,1.53808 q -0.50537,-1.31836 -1.53809,-2.13135 -1.03271,-0.83496 -2.52685,-0.83496 -1.31836,0 -2.32911,0.52735 -1.01074,0.52734 -1.71386,1.51611 -0.68115,0.9668 -1.05469,2.37305 -0.35156,1.38427 -0.35156,3.14209 0,1.75781 0.35156,3.16406 0.37354,1.38428 1.03272,2.35107 0.68115,0.9668 1.64794,1.49414 0.98877,0.50538 2.24122,0.50538 1.58203,0 2.70263,-0.87891 1.14258,-0.87891 1.62598,-2.50488 l 4.43848,1.40625 q -0.92286,3.208 -3.14209,4.85595 -2.19727,1.62598 -5.625,1.62598 z"
         id="path3351"
         inkscape:connector-curvature="0" />
      <path
         d="m 823.39703,594.35339 0,-13.73291 q 0,-1.45019 -0.35156,-2.46093 -0.35156,-1.03272 -0.9668,-1.66993 -0.61523,-0.65918 -1.45019,-0.94482 -0.83496,-0.30762 -1.82373,-0.30762 -1.05469,0 -1.95557,0.28565 -0.90088,0.26367 -1.56006,0.8789 -0.65918,0.61524 -1.05468,1.64795 -0.37354,1.01074 -0.37354,2.48291 l 0,13.8208 -4.68017,0 0,-30.32226 4.68017,-2.1753 0,11.71143 q 1.12061,-1.42822 2.5708,-2.0874 1.4502,-0.65918 3.36182,-0.65918 1.80176,0 3.31787,0.52734 1.51611,0.50537 2.61475,1.66992 1.1206,1.16456 1.73584,3.03223 0.61523,1.86768 0.61523,4.57031 l 0,13.73291 -4.68018,0 z"
         id="path3353"
         inkscape:connector-curvature="0" />
      <path
         d="m 834.62506,594.35339 0,-23.00537 4.68018,0 0,23.00537 -4.68018,0 z m 2.3291,-26.58691 q -0.59326,0 -1.1206,-0.21973 -0.50537,-0.21972 -0.90088,-0.59326 -0.37354,-0.39551 -0.59326,-0.90088 -0.21973,-0.52734 -0.21973,-1.1206 0,-0.59326 0.21973,-1.09864 0.21972,-0.52734 0.59326,-0.90087 0.39551,-0.39551 0.90088,-0.61524 0.52734,-0.21973 1.1206,-0.21973 0.59326,0 1.09864,0.21973 0.52734,0.21973 0.90087,0.61524 0.39551,0.37353 0.61524,0.90087 0.21973,0.50538 0.21973,1.09864 0,0.59326 -0.21973,1.1206 -0.21973,0.50537 -0.61524,0.90088 -0.37353,0.37354 -0.90087,0.59326 -0.50538,0.21973 -1.09864,0.21973 z"
         id="path3355"
         inkscape:connector-curvature="0" />
      <path
         d="m 852.7525,594.90271 q -1.3623,0 -2.35107,-0.41748 -0.9668,-0.39551 -1.60401,-1.14258 -0.61523,-0.74707 -0.90087,-1.80176 -0.28565,-1.07666 -0.28565,-2.37304 l 0,-13.75489 -3.55957,0 0,-4.06494 3.55957,0 0,-7.229 4.68018,-2.26319 0,9.49219 5.44922,0 0,4.06494 -5.44922,0 0,12.54639 q 0,0.57129 0.0879,1.05469 0.10986,0.4834 0.35156,0.83496 0.26367,0.35156 0.70312,0.54932 0.43946,0.17578 1.12061,0.17578 1.66992,0 3.40576,-1.07666 l -0.57129,4.35058 q -0.96679,0.4834 -2.10937,0.76905 -1.14258,0.28564 -2.52686,0.28564 z"
         id="path3357"
         inkscape:connector-curvature="0" />
      <path
         d="m 880.76764,594.35339 -4.48242,0 0,-1.97754 q -0.43946,0.46143 -1.05469,0.92286 -0.61523,0.43945 -1.40625,0.81298 -0.76904,0.35157 -1.73584,0.57129 -0.9668,0.21973 -2.10938,0.21973 -1.75781,0 -3.25195,-0.4834 -1.49414,-0.4834 -2.59277,-1.45019 -1.09863,-0.98877 -1.73584,-2.417 -0.61524,-1.45019 -0.61524,-3.36181 0,-1.97754 0.74707,-3.40576 0.74707,-1.4502 1.97754,-2.37305 1.23047,-0.94483 2.8125,-1.38428 1.60401,-0.43945 3.2959,-0.43945 1.58203,0 3.03223,0.35156 1.47217,0.32959 2.63672,1.01074 l 0,-1.27441 q 0,-1.29639 -0.30762,-2.19727 -0.28564,-0.90088 -0.90088,-1.45019 -0.59326,-0.57129 -1.51611,-0.81299 -0.92285,-0.26367 -2.19727,-0.26367 -2.15332,0 -3.73535,0.57129 -1.56006,0.57129 -2.83447,1.51611 l -1.38428,-3.84521 q 0.70313,-0.4834 1.604,-0.90088 0.90088,-0.43946 1.97754,-0.76905 1.07666,-0.32959 2.32911,-0.50537 1.25244,-0.19775 2.68066,-0.19775 0.9668,0 1.99951,0.10986 1.03272,0.10987 1.99951,0.43946 0.98877,0.30761 1.84571,0.90087 0.8789,0.59327 1.51611,1.56006 0.65918,0.94483 1.03271,2.3291 0.37354,1.38428 0.37354,3.2959 l 0,14.89746 z m -9.93164,-3.60351 q 1.77978,0 3.14209,-0.7251 1.38428,-0.7251 2.30713,-1.73584 l 0,-3.51562 q -0.9668,-0.50538 -2.26319,-0.81299 -1.29638,-0.30762 -2.65869,-0.30762 -1.05469,0 -1.97754,0.19775 -0.92285,0.19776 -1.62597,0.63721 -0.68116,0.41748 -1.07666,1.09863 -0.39551,0.65918 -0.39551,1.60401 0,1.64795 1.14258,2.61474 1.16455,0.94483 3.40576,0.94483 z"
         id="path3359"
         inkscape:connector-curvature="0" />
    </g>
  </g>
  <g
     inkscape:groupmode="layer"
     id="layer1"
     inkscape:label="Date">
    <g
       style="font-style:normal;font-variant:normal;font-weight:300;font-stretch:normal;font-size:15px;line-height:125%;font-family:Overpass;-inkscape-font-specification:'Overpass, Light';text-align:start;letter-spacing:0px;word-spacing:0px;writing-mode:lr-tb;text-anchor:start;fill:#000000;fill-opacity:1;stroke:none;stroke-width:1px;stroke-linecap:butt;stroke-linejoin:miter;stroke-opacity:1"
       id="text4159">
      <path
         d="m 344.93203,359.74719 0,-8.595 -1.785,0 0,-0.6 q 0.795,0 1.35,-0.27 0.555,-0.285 0.81,-1.035 l 0.675,0 0,10.5 -1.05,0 z"
         style=""
         id="path4164" />
      <path
         d="m 352.04179,358.98219 q 0.495,0 0.915,-0.15 0.435,-0.165 0.75,-0.465 0.315,-0.3 0.495,-0.735 0.18,-0.435 0.18,-0.99 0,-0.465 -0.165,-0.885 -0.165,-0.42 -0.48,-0.735 -0.3,-0.33 -0.735,-0.51 -0.435,-0.195 -0.96,-0.195 -0.525,0 -0.96,0.195 -0.435,0.18 -0.75,0.51 -0.3,0.315 -0.465,0.735 -0.165,0.42 -0.165,0.885 0,0.555 0.18,0.99 0.18,0.435 0.495,0.735 0.315,0.3 0.735,0.465 0.435,0.15 0.93,0.15 z m 0,-9.915 q 0.63,0 1.17,0.225 0.555,0.21 0.945,0.585 0.39,0.375 0.615,0.87 0.225,0.495 0.225,1.035 0,0.675 -0.345,1.275 -0.33,0.585 -1.05,0.885 0.84,0.315 1.35,1.095 0.525,0.765 0.525,1.755 0,0.66 -0.255,1.245 -0.255,0.57 -0.72,0.99 -0.465,0.42 -1.095,0.66 -0.63,0.24 -1.365,0.24 -0.75,0 -1.38,-0.24 -0.615,-0.24 -1.08,-0.66 -0.465,-0.42 -0.72,-0.99 -0.255,-0.585 -0.255,-1.245 0,-0.495 0.135,-0.945 0.135,-0.45 0.375,-0.81 0.255,-0.375 0.6,-0.66 0.345,-0.285 0.75,-0.435 -0.675,-0.3 -1.035,-0.885 -0.345,-0.6 -0.345,-1.275 0,-0.54 0.225,-1.035 0.225,-0.495 0.615,-0.87 0.39,-0.375 0.93,-0.585 0.555,-0.225 1.185,-0.225 z m 0,4.56 q 0.87,0 1.38,-0.48 0.51,-0.48 0.51,-1.23 0,-0.885 -0.54,-1.395 -0.54,-0.51 -1.35,-0.51 -0.81,0 -1.35,0.51 -0.54,0.51 -0.54,1.395 0,0.75 0.51,1.23 0.51,0.48 1.38,0.48 z"
         style=""
         id="path4166" />
      <path
         d="m 369.38367,359.74719 0,-7.77 -3.51,7.95 -3.27,-7.905 0,7.725 -1.05,0 0,-10.5 0.9,0 3.51,8.175 3.555,-8.175 0.915,0 0,10.5 -1.05,0 z"
         style=""
         id="path4168" />
      <path
         d="m 377.77968,359.74719 0,-0.75 q -0.465,0.42 -1.05,0.675 -0.57,0.255 -1.2,0.255 -1.155,0 -1.89,-0.645 -0.72,-0.66 -0.72,-1.95 0,-0.66 0.225,-1.14 0.24,-0.48 0.615,-0.78 0.39,-0.315 0.9,-0.465 0.51,-0.15 1.05,-0.15 0.48,0 0.99,0.12 0.51,0.12 1.08,0.42 l 0,-0.645 q 0,-0.585 -0.15,-0.945 -0.135,-0.36 -0.375,-0.57 -0.225,-0.21 -0.54,-0.285 -0.3,-0.075 -0.615,-0.075 -0.285,0 -0.6,0.075 -0.315,0.075 -0.615,0.195 -0.3,0.12 -0.585,0.27 -0.27,0.135 -0.48,0.285 l -0.3,-0.9 q 0.465,-0.3 1.17,-0.57 0.72,-0.27 1.515,-0.27 0.405,0 0.855,0.12 0.45,0.105 0.825,0.405 0.375,0.285 0.615,0.81 0.255,0.51 0.255,1.32 l 0,5.19 -0.975,0 z m -2.145,-0.735 q 0.345,0 0.66,-0.105 0.315,-0.105 0.585,-0.27 0.27,-0.165 0.495,-0.375 0.225,-0.225 0.405,-0.435 l 0,-1.485 q -0.375,-0.255 -0.93,-0.435 -0.54,-0.195 -1.035,-0.195 -0.39,0 -0.735,0.105 -0.345,0.09 -0.615,0.3 -0.255,0.195 -0.42,0.495 -0.15,0.3 -0.15,0.72 0,0.765 0.45,1.23 0.45,0.45 1.29,0.45 z"
         style=""
         id="path4170" />
      <path
         d="m 381.16265,359.74719 0,-7.665 1.05,0 0,1.08 q 0.42,-0.63 0.975,-0.945 0.555,-0.315 1.08,-0.315 0.57,0 0.96,0.315 l -0.165,1.02 q -0.15,-0.09 -0.39,-0.18 -0.225,-0.105 -0.6,-0.105 -0.255,0 -0.585,0.12 -0.315,0.12 -0.6,0.405 -0.285,0.285 -0.48,0.765 -0.195,0.465 -0.195,1.17 l 0,4.335 -1.05,0 z"
         style=""
         id="path4172" />
      <path
         d="m 390.13547,359.74719 q 0,-0.99 0.285,-1.695 0.285,-0.72 0.735,-1.26 0.45,-0.54 1.02,-0.945 0.57,-0.405 1.14,-0.795 0.495,-0.33 0.945,-0.645 0.45,-0.33 0.795,-0.69 0.36,-0.36 0.57,-0.765 0.21,-0.42 0.21,-0.93 0,-0.855 -0.6,-1.425 -0.585,-0.585 -1.68,-0.585 -1.065,0 -1.605,0.48 -0.54,0.465 -0.735,1.215 l -0.93,-0.42 q 0.12,-0.465 0.405,-0.87 0.285,-0.405 0.72,-0.705 0.435,-0.3 0.99,-0.465 0.57,-0.18 1.245,-0.18 1.56,0 2.415,0.81 0.87,0.795 0.87,2.145 0,0.72 -0.285,1.275 -0.27,0.555 -0.72,1.02 -0.435,0.45 -0.99,0.84 -0.555,0.375 -1.125,0.735 -0.45,0.3 -0.87,0.6 -0.42,0.285 -0.78,0.63 -0.345,0.33 -0.585,0.735 -0.24,0.39 -0.33,0.885 l 5.775,0 0,1.005 -6.885,0 z"
         style=""
         id="path4174" />
      <path
         d="m 402.71461,359.92719 q -1.035,0 -1.725,-0.48 -0.69,-0.48 -1.11,-1.245 -0.405,-0.78 -0.585,-1.74 -0.18,-0.975 -0.18,-1.965 0,-0.54 0.06,-1.155 0.06,-0.63 0.21,-1.23 0.165,-0.6 0.42,-1.155 0.27,-0.555 0.675,-0.975 0.405,-0.42 0.945,-0.66 0.555,-0.255 1.29,-0.255 1.035,0 1.725,0.495 0.69,0.48 1.095,1.26 0.42,0.78 0.6,1.755 0.18,0.96 0.18,1.92 0,0.555 -0.075,1.17 -0.06,0.615 -0.225,1.23 -0.15,0.6 -0.42,1.155 -0.255,0.54 -0.66,0.96 -0.405,0.42 -0.96,0.675 -0.54,0.24 -1.26,0.24 z m 0,-0.945 q 0.78,0 1.26,-0.42 0.495,-0.435 0.765,-1.095 0.27,-0.66 0.36,-1.455 0.09,-0.795 0.09,-1.515 0,-0.81 -0.105,-1.605 -0.105,-0.81 -0.39,-1.44 -0.285,-0.645 -0.765,-1.035 -0.48,-0.405 -1.215,-0.405 -0.795,0 -1.29,0.435 -0.48,0.435 -0.75,1.095 -0.27,0.66 -0.375,1.455 -0.09,0.78 -0.09,1.5 0,0.825 0.105,1.635 0.105,0.795 0.39,1.44 0.285,0.63 0.765,1.02 0.495,0.39 1.245,0.39 z"
         style=""
         id="path4176" />
      <path
         d="m 409.73672,359.74719 0,-8.595 -1.785,0 0,-0.6 q 0.795,0 1.35,-0.27 0.555,-0.285 0.81,-1.035 l 0.675,0 0,10.5 -1.05,0 z"
         style=""
         id="path4178" />
      <path
         d="m 416.84648,358.98219 q 0.495,0 0.915,-0.15 0.435,-0.165 0.75,-0.465 0.315,-0.3 0.495,-0.735 0.18,-0.435 0.18,-0.99 0,-0.465 -0.165,-0.885 -0.165,-0.42 -0.48,-0.735 -0.3,-0.33 -0.735,-0.51 -0.435,-0.195 -0.96,-0.195 -0.525,0 -0.96,0.195 -0.435,0.18 -0.75,0.51 -0.3,0.315 -0.465,0.735 -0.165,0.42 -0.165,0.885 0,0.555 0.18,0.99 0.18,0.435 0.495,0.735 0.315,0.3 0.735,0.465 0.435,0.15 0.93,0.15 z m 0,-9.915 q 0.63,0 1.17,0.225 0.555,0.21 0.945,0.585 0.39,0.375 0.615,0.87 0.225,0.495 0.225,1.035 0,0.675 -0.345,1.275 -0.33,0.585 -1.05,0.885 0.84,0.315 1.35,1.095 0.525,0.765 0.525,1.755 0,0.66 -0.255,1.245 -0.255,0.57 -0.72,0.99 -0.465,0.42 -1.095,0.66 -0.63,0.24 -1.365,0.24 -0.75,0 -1.38,-0.24 -0.615,-0.24 -1.08,-0.66 -0.465,-0.42 -0.72,-0.99 -0.255,-0.585 -0.255,-1.245 0,-0.495 0.135,-0.945 0.135,-0.45 0.375,-0.81 0.255,-0.375 0.6,-0.66 0.345,-0.285 0.75,-0.435 -0.675,-0.3 -1.035,-0.885 -0.345,-0.6 -0.345,-1.275 0,-0.54 0.225,-1.035 0.225,-0.495 0.615,-0.87 0.39,-0.375 0.93,-0.585 0.555,-0.225 1.185,-0.225 z m 0,4.56 q 0.87,0 1.38,-0.48 0.51,-0.48 0.51,-1.23 0,-0.885 -0.54,-1.395 -0.54,-0.51 -1.35,-0.51 -0.81,0 -1.35,0.51 -0.54,0.51 -0.54,1.395 0,0.75 0.51,1.23 0.51,0.48 1.38,0.48 z"
         style=""
         id="path4180" />
    </g>
  </g>
</svg>
