<?xml version="1.0" encoding="UTF-8" standalone="no"?>
<!-- Created with Inkscape (http://www.inkscape.org/) -->

<svg
   xmlns:dc="http://purl.org/dc/elements/1.1/"
   xmlns:cc="http://creativecommons.org/ns#"
   xmlns:rdf="http://www.w3.org/1999/02/22-rdf-syntax-ns#"
   xmlns:svg="http://www.w3.org/2000/svg"
   xmlns="http://www.w3.org/2000/svg"
   xmlns:sodipodi="http://sodipodi.sourceforge.net/DTD/sodipodi-0.dtd"
   xmlns:inkscape="http://www.inkscape.org/namespaces/inkscape"
   width="596.35254"
   height="536.72278"
   viewBox="0 0 596.35255 536.72279"
   id="svg2"
   version="1.1"
   inkscape:version="0.91 r13725"
   sodipodi:docname="ICT.svg"
   inkscape:export-filename="C:\Users\paulb\Dropbox\Projects\Terminal Silhouettes\Silhouettes\png\ICT.png"
   inkscape:export-xdpi="90"
   inkscape:export-ydpi="90">
  <defs
     id="defs4" />
  <sodipodi:namedview
     id="base"
     pagecolor="#ffffff"
     bordercolor="#666666"
     borderopacity="1.0"
     inkscape:pageopacity="1"
     inkscape:pageshadow="2"
     inkscape:zoom="1"
     inkscape:cx="280.51952"
     inkscape:cy="155.77125"
     inkscape:document-units="px"
     inkscape:current-layer="layer1"
     showgrid="false"
     units="px"
     fit-margin-top="100"
     fit-margin-left="100"
     fit-margin-right="100"
     fit-margin-bottom="100"
     inkscape:window-width="1920"
     inkscape:window-height="1137"
     inkscape:window-x="1912"
     inkscape:window-y="-8"
     inkscape:window-maximized="1"
     inkscape:snap-page="true" />
  <metadata
     id="metadata7">
    <rdf:RDF>
      <cc:Work
         rdf:about="">
        <dc:format>image/svg+xml</dc:format>
        <dc:type
           rdf:resource="http://purl.org/dc/dcmitype/StillImage" />
        <dc:title></dc:title>
      </cc:Work>
    </rdf:RDF>
  </metadata>
  <g
     inkscape:groupmode="layer"
     id="layer1"
     inkscape:label="Background">
    <rect
       style="opacity:1;fill:#dbdcdf;fill-opacity:1;stroke:none;stroke-width:3;stroke-linecap:butt;stroke-linejoin:miter;stroke-miterlimit:4;stroke-dasharray:none;stroke-dashoffset:0;stroke-opacity:1"
       id="rect4275"
       width="596.35254"
       height="536.72278"
       x="0"
       y="0" />
  </g>
  <g
     inkscape:groupmode="layer"
     id="layer3"
     inkscape:label="Terminal"
     transform="translate(-457.56389,-627.6156)">
    <path
       style="fill:#60646c;fill-opacity:1;fill-rule:evenodd;stroke:none;stroke-width:1.5;stroke-linecap:butt;stroke-linejoin:miter;stroke-miterlimit:4;stroke-dasharray:none;stroke-opacity:1"
       d="m 692.40999,1064.3384 22.75204,-0.6406 0.29983,0.5996 1.94889,-1.0494 -1.12436,-2.2487 7.42079,-4.1227 -9.96934,-17.54 3.523,-1.9489 -5.09711,-8.845 -3.59796,2.0239 -9.21977,-15.966 -8.09541,4.6474 -26.61415,-46.60473 22.26125,-12.61471 1.9081,2.96817 14.2048,-8.05645 -0.42403,-3.18018 9.91156,-0.26501 -101.97676,-175.40925 -13.71722,18.43954 1.5741,2.09881 -2.69846,3.22317 -13.26748,7.87054 2.69847,4.42249 -27.54688,17.72745 5.84668,9.85691 -1.86487,1.25917 5.77732,9.59354 1.59009,-0.95405 17.17295,29.84066 -1.59008,0.95405 5.5123,10.17657 1.7491,-1.11306 21.5192,37.42009 -1.43108,0.95405 5.72432,10.22957 1.59009,-1.00706 35.35297,61.32443 -1.59009,0.95406 5.19429,9.75253 1.90811,-1.0601 21.89022,37.9502 -1.7491,1.113 5.4063,9.4345 1.59009,-1.06 z"
       id="path4157"
       inkscape:connector-curvature="0" />
  </g>
  <g
     inkscape:groupmode="layer"
     id="layer4"
     inkscape:label="Text"
     transform="translate(-423.86488,-354.27223)">
    <text
       xml:space="preserve"
       style="font-style:normal;font-variant:normal;font-weight:bold;font-stretch:normal;font-size:125px;line-height:110.00000238%;font-family:Overpass;-inkscape-font-specification:'Overpass Bold';text-align:center;letter-spacing:0px;word-spacing:0px;writing-mode:lr-tb;text-anchor:middle;fill:#000000;fill-opacity:1;stroke:none;stroke-width:1px;stroke-linecap:butt;stroke-linejoin:miter;stroke-opacity:1"
       x="956"
       y="182.01819"
       id="text4160"
       sodipodi:linespacing="110%"><tspan
         sodipodi:role="line"
         id="tspan4162"
         x="956"
         y="182.01819" /></text>
    <text
       xml:space="preserve"
       style="font-style:normal;font-variant:normal;font-weight:normal;font-stretch:normal;font-size:125px;line-height:110.00000238%;font-family:Overpass;-inkscape-font-specification:'Overpass, Normal';text-align:center;letter-spacing:0px;word-spacing:0px;writing-mode:lr-tb;text-anchor:middle;fill:#000000;fill-opacity:1;stroke:none;stroke-width:1px;stroke-linecap:butt;stroke-linejoin:miter;stroke-opacity:1"
       x="960"
       y="248.01819"
       id="text4164"
       sodipodi:linespacing="110%"><tspan
         sodipodi:role="line"
         id="tspan4166"
         x="960"
         y="248.01819" /></text>
    <g
       style="font-style:normal;font-variant:normal;font-weight:bold;font-stretch:normal;font-size:125px;line-height:110.00000238%;font-family:Overpass;-inkscape-font-specification:'Overpass, Bold';text-align:center;letter-spacing:0px;word-spacing:0px;writing-mode:lr-tb;text-anchor:middle;fill:none;fill-opacity:1;stroke:#60646c;stroke-width:3;stroke-linecap:butt;stroke-linejoin:miter;stroke-miterlimit:4;stroke-dasharray:none;stroke-opacity:1"
       id="text4173"
       transform="translate(5e-5,-0.68749)">
      <path
         d="m 734.81842,545.3269 0,-87.52441 16.8457,0 0,87.52441 -16.8457,0 z"
         id="path3362"
         inkscape:connector-curvature="0"
         style="fill:none;stroke:#60646c;stroke-width:3;stroke-miterlimit:4;stroke-dasharray:none;stroke-opacity:1" />
      <path
         d="m 808.54889,546.73071 q -6.83594,0 -12.20703,-1.83105 -5.3711,-1.83106 -9.46045,-5.06592 -4.08936,-3.23486 -6.95801,-7.56836 -2.86865,-4.3335 -4.69971,-9.33838 -1.77002,-5.06592 -2.62451,-10.49804 -0.79345,-5.43213 -0.79345,-10.86426 0,-5.00489 0.85449,-10.25391 0.85449,-5.31006 2.62451,-10.31494 1.83105,-5.00488 4.69971,-9.46045 2.92968,-4.45557 6.958,-7.8125 4.08936,-3.35693 9.46045,-5.31006 5.3711,-1.95312 12.146,-1.95312 6.28662,0 11.41357,1.70898 5.12696,1.70899 9.03321,4.5166 3.90625,2.74658 6.59179,6.28662 2.74659,3.54004 4.21143,7.20215 l -15.13672,6.89697 q -1.58691,-2.4414 -3.23486,-4.39453 -1.64795,-1.95312 -3.54004,-3.23486 -1.89209,-1.34277 -4.21143,-2.01416 -2.2583,-0.73242 -5.12695,-0.73242 -3.66211,0 -6.53076,1.28174 -2.86865,1.2207 -5.00489,3.35693 -2.13623,2.13623 -3.60107,5.00488 -1.46484,2.86866 -2.38037,6.10352 -0.91553,3.17383 -1.34277,6.5918 -0.36622,3.35693 -0.36622,6.53076 0,5.12695 1.09864,10.2539 1.09863,5.12696 3.41797,9.27735 2.31933,4.15039 5.92041,6.7749 3.66211,2.56348 8.78906,2.56348 2.68555,0 4.94385,-0.79346 2.2583,-0.85449 4.15039,-2.31934 1.95312,-1.46484 3.60107,-3.54004 1.70899,-2.07519 3.17383,-4.57763 l 15.50293,5.85937 q -2.0752,4.82178 -5.00488,8.8501 -2.92969,3.96729 -6.83594,6.83594 -3.84522,2.80761 -8.72803,4.39453 -4.88281,1.58691 -10.80322,1.58691 z"
         id="path3364"
         inkscape:connector-curvature="0"
         style="fill:none;stroke:#60646c;stroke-width:3;stroke-miterlimit:4;stroke-dasharray:none;stroke-opacity:1" />
      <path
         d="m 893.69293,474.09888 0,71.22802 -16.8457,0 0,-71.22802 -25.02442,0 0,-16.29639 66.89454,0 0,16.29639 -25.02442,0 z"
         id="path3366"
         inkscape:connector-curvature="0"
         style="fill:none;stroke:#60646c;stroke-width:3;stroke-miterlimit:4;stroke-dasharray:none;stroke-opacity:1" />
    </g>
    <g
       style="font-style:normal;font-variant:normal;font-weight:normal;font-stretch:normal;font-size:45px;line-height:110.00000238%;font-family:Overpass;-inkscape-font-specification:'Overpass, Normal';text-align:center;letter-spacing:0px;word-spacing:0px;writing-mode:lr-tb;text-anchor:middle;fill:#60646c;fill-opacity:1;stroke:none;stroke-width:1px;stroke-linecap:butt;stroke-linejoin:miter;stroke-opacity:1"
       id="text4177"
       transform="translate(5e-5,0.68749)">
      <path
         d="m 768.99274,562.8446 -6.81153,31.50879 -4.21875,0 -5.44922,-20.43457 q -0.32959,-1.25244 -0.52734,-2.02148 -0.17578,-0.79102 -0.2417,-1.38428 -0.0659,0.59326 -0.2417,1.38428 -0.17578,0.76904 -0.50537,2.02148 l -5.31738,20.43457 -4.24072,0 -6.74561,-31.50879 4.81201,0 3.91113,19.40186 q 0.28565,1.3623 0.43946,2.19727 0.17578,0.83496 0.2417,1.45019 0.0659,-0.61523 0.26367,-1.42822 0.21973,-0.83496 0.54932,-2.21924 l 4.94384,-19.40186 3.93311,0 5.07568,19.35791 q 0.37354,1.36231 0.54932,2.1753 0.19775,0.81299 0.26367,1.42822 0.0659,-0.61523 0.19775,-1.4502 0.15381,-0.83496 0.41748,-2.15332 l 3.97706,-19.35791 4.72412,0 z"
         id="path3347"
         inkscape:connector-curvature="0"
         style="fill:#60646c;fill-opacity:1" />
      <path
         d="m 774.41998,594.35339 0,-23.00537 4.68018,0 0,23.00537 -4.68018,0 z m 2.3291,-26.58691 q -0.59326,0 -1.1206,-0.21973 -0.50537,-0.21972 -0.90088,-0.59326 -0.37354,-0.39551 -0.59326,-0.90088 -0.21973,-0.52734 -0.21973,-1.1206 0,-0.59326 0.21973,-1.09864 0.21972,-0.52734 0.59326,-0.90087 0.39551,-0.39551 0.90088,-0.61524 0.52734,-0.21973 1.1206,-0.21973 0.59327,0 1.09864,0.21973 0.52734,0.21973 0.90088,0.61524 0.3955,0.37353 0.61523,0.90087 0.21973,0.50538 0.21973,1.09864 0,0.59326 -0.21973,1.1206 -0.21973,0.50537 -0.61523,0.90088 -0.37354,0.37354 -0.90088,0.59326 -0.50537,0.21973 -1.09864,0.21973 z"
         id="path3349"
         inkscape:connector-curvature="0"
         style="fill:#60646c;fill-opacity:1" />
      <path
         d="m 794.78864,594.90271 q -2.30713,0 -4.17481,-0.81299 -1.8457,-0.81299 -3.16406,-2.35107 -1.29639,-1.56006 -1.99951,-3.7793 -0.70313,-2.24121 -0.70313,-5.07568 0,-2.83448 0.70313,-5.07569 0.70312,-2.24121 1.99951,-3.77929 1.31836,-1.56006 3.16406,-2.37305 1.86768,-0.83496 4.17481,-0.83496 3.208,0 5.42724,1.42822 2.24121,1.42822 3.25195,4.5044 l -4.43847,1.53808 q -0.50537,-1.31836 -1.53809,-2.13135 -1.03271,-0.83496 -2.52685,-0.83496 -1.31836,0 -2.32911,0.52735 -1.01074,0.52734 -1.71386,1.51611 -0.68115,0.9668 -1.05469,2.37305 -0.35156,1.38427 -0.35156,3.14209 0,1.75781 0.35156,3.16406 0.37354,1.38428 1.03272,2.35107 0.68115,0.9668 1.64794,1.49414 0.98877,0.50538 2.24122,0.50538 1.58203,0 2.70263,-0.87891 1.14258,-0.87891 1.62598,-2.50488 l 4.43848,1.40625 q -0.92286,3.208 -3.14209,4.85595 -2.19727,1.62598 -5.625,1.62598 z"
         id="path3351"
         inkscape:connector-curvature="0"
         style="fill:#60646c;fill-opacity:1" />
      <path
         d="m 823.39703,594.35339 0,-13.73291 q 0,-1.45019 -0.35156,-2.46093 -0.35156,-1.03272 -0.9668,-1.66993 -0.61523,-0.65918 -1.45019,-0.94482 -0.83496,-0.30762 -1.82373,-0.30762 -1.05469,0 -1.95557,0.28565 -0.90088,0.26367 -1.56006,0.8789 -0.65918,0.61524 -1.05468,1.64795 -0.37354,1.01074 -0.37354,2.48291 l 0,13.8208 -4.68017,0 0,-30.32226 4.68017,-2.1753 0,11.71143 q 1.12061,-1.42822 2.5708,-2.0874 1.4502,-0.65918 3.36182,-0.65918 1.80176,0 3.31787,0.52734 1.51611,0.50537 2.61475,1.66992 1.1206,1.16456 1.73584,3.03223 0.61523,1.86768 0.61523,4.57031 l 0,13.73291 -4.68018,0 z"
         id="path3353"
         inkscape:connector-curvature="0"
         style="fill:#60646c;fill-opacity:1" />
      <path
         d="m 834.62506,594.35339 0,-23.00537 4.68018,0 0,23.00537 -4.68018,0 z m 2.3291,-26.58691 q -0.59326,0 -1.1206,-0.21973 -0.50537,-0.21972 -0.90088,-0.59326 -0.37354,-0.39551 -0.59326,-0.90088 -0.21973,-0.52734 -0.21973,-1.1206 0,-0.59326 0.21973,-1.09864 0.21972,-0.52734 0.59326,-0.90087 0.39551,-0.39551 0.90088,-0.61524 0.52734,-0.21973 1.1206,-0.21973 0.59326,0 1.09864,0.21973 0.52734,0.21973 0.90087,0.61524 0.39551,0.37353 0.61524,0.90087 0.21973,0.50538 0.21973,1.09864 0,0.59326 -0.21973,1.1206 -0.21973,0.50537 -0.61524,0.90088 -0.37353,0.37354 -0.90087,0.59326 -0.50538,0.21973 -1.09864,0.21973 z"
         id="path3355"
         inkscape:connector-curvature="0"
         style="fill:#60646c;fill-opacity:1" />
      <path
         d="m 852.7525,594.90271 q -1.3623,0 -2.35107,-0.41748 -0.9668,-0.39551 -1.60401,-1.14258 -0.61523,-0.74707 -0.90087,-1.80176 -0.28565,-1.07666 -0.28565,-2.37304 l 0,-13.75489 -3.55957,0 0,-4.06494 3.55957,0 0,-7.229 4.68018,-2.26319 0,9.49219 5.44922,0 0,4.06494 -5.44922,0 0,12.54639 q 0,0.57129 0.0879,1.05469 0.10986,0.4834 0.35156,0.83496 0.26367,0.35156 0.70312,0.54932 0.43946,0.17578 1.12061,0.17578 1.66992,0 3.40576,-1.07666 l -0.57129,4.35058 q -0.96679,0.4834 -2.10937,0.76905 -1.14258,0.28564 -2.52686,0.28564 z"
         id="path3357"
         inkscape:connector-curvature="0"
         style="fill:#60646c;fill-opacity:1" />
      <path
         d="m 880.76764,594.35339 -4.48242,0 0,-1.97754 q -0.43946,0.46143 -1.05469,0.92286 -0.61523,0.43945 -1.40625,0.81298 -0.76904,0.35157 -1.73584,0.57129 -0.9668,0.21973 -2.10938,0.21973 -1.75781,0 -3.25195,-0.4834 -1.49414,-0.4834 -2.59277,-1.45019 -1.09863,-0.98877 -1.73584,-2.417 -0.61524,-1.45019 -0.61524,-3.36181 0,-1.97754 0.74707,-3.40576 0.74707,-1.4502 1.97754,-2.37305 1.23047,-0.94483 2.8125,-1.38428 1.60401,-0.43945 3.2959,-0.43945 1.58203,0 3.03223,0.35156 1.47217,0.32959 2.63672,1.01074 l 0,-1.27441 q 0,-1.29639 -0.30762,-2.19727 -0.28564,-0.90088 -0.90088,-1.45019 -0.59326,-0.57129 -1.51611,-0.81299 -0.92285,-0.26367 -2.19727,-0.26367 -2.15332,0 -3.73535,0.57129 -1.56006,0.57129 -2.83447,1.51611 l -1.38428,-3.84521 q 0.70313,-0.4834 1.604,-0.90088 0.90088,-0.43946 1.97754,-0.76905 1.07666,-0.32959 2.32911,-0.50537 1.25244,-0.19775 2.68066,-0.19775 0.9668,0 1.99951,0.10986 1.03272,0.10987 1.99951,0.43946 0.98877,0.30761 1.84571,0.90087 0.8789,0.59327 1.51611,1.56006 0.65918,0.94483 1.03271,2.3291 0.37354,1.38428 0.37354,3.2959 l 0,14.89746 z m -9.93164,-3.60351 q 1.77978,0 3.14209,-0.7251 1.38428,-0.7251 2.30713,-1.73584 l 0,-3.51562 q -0.9668,-0.50538 -2.26319,-0.81299 -1.29638,-0.30762 -2.65869,-0.30762 -1.05469,0 -1.97754,0.19775 -0.92285,0.19776 -1.62597,0.63721 -0.68116,0.41748 -1.07666,1.09863 -0.39551,0.65918 -0.39551,1.60401 0,1.64795 1.14258,2.61474 1.16455,0.94483 3.40576,0.94483 z"
         id="path3359"
         inkscape:connector-curvature="0"
         style="fill:#60646c;fill-opacity:1" />
    </g>
    <g
       style="font-style:normal;font-variant:normal;font-weight:300;font-stretch:normal;font-size:12.5px;line-height:125%;font-family:Overpass;-inkscape-font-specification:'Overpass, Light';text-align:end;letter-spacing:0px;word-spacing:0px;writing-mode:lr-tb;text-anchor:end;fill:#60646c;fill-opacity:1;stroke:none;stroke-width:1px;stroke-linecap:butt;stroke-linejoin:miter;stroke-opacity:1"
       id="text4170">
      <path
         d="m 937.26661,852.70752 0,-7.1625 -1.4875,0 0,-0.5 q 0.6625,0 1.125,-0.225 0.4625,-0.2375 0.675,-0.8625 l 0.5625,0 0,8.75 -0.875,0 z"
         style=""
         id="path4192" />
      <path
         d="m 943.19142,852.07002 q 0.4125,0 0.7625,-0.125 0.3625,-0.1375 0.625,-0.3875 0.2625,-0.25 0.4125,-0.6125 0.15,-0.3625 0.15,-0.825 0,-0.3875 -0.1375,-0.7375 -0.1375,-0.35 -0.4,-0.6125 -0.25,-0.275 -0.6125,-0.425 -0.3625,-0.1625 -0.8,-0.1625 -0.4375,0 -0.8,0.1625 -0.3625,0.15 -0.625,0.425 -0.25,0.2625 -0.3875,0.6125 -0.1375,0.35 -0.1375,0.7375 0,0.4625 0.15,0.825 0.15,0.3625 0.4125,0.6125 0.2625,0.25 0.6125,0.3875 0.3625,0.125 0.775,0.125 z m 0,-8.2625 q 0.525,0 0.975,0.1875 0.4625,0.175 0.7875,0.4875 0.325,0.3125 0.5125,0.725 0.1875,0.4125 0.1875,0.8625 0,0.5625 -0.2875,1.0625 -0.275,0.4875 -0.875,0.7375 0.7,0.2625 1.125,0.9125 0.4375,0.6375 0.4375,1.4625 0,0.55 -0.2125,1.0375 -0.2125,0.475 -0.6,0.825 -0.3875,0.35 -0.9125,0.55 -0.525,0.2 -1.1375,0.2 -0.625,0 -1.15,-0.2 -0.5125,-0.2 -0.9,-0.55 -0.3875,-0.35 -0.6,-0.825 -0.2125,-0.4875 -0.2125,-1.0375 0,-0.4125 0.1125,-0.7875 0.1125,-0.375 0.3125,-0.675 0.2125,-0.3125 0.5,-0.55 0.2875,-0.2375 0.625,-0.3625 -0.5625,-0.25 -0.8625,-0.7375 -0.2875,-0.5 -0.2875,-1.0625 0,-0.45 0.1875,-0.8625 0.1875,-0.4125 0.5125,-0.725 0.325,-0.3125 0.775,-0.4875 0.4625,-0.1875 0.9875,-0.1875 z m 0,3.8 q 0.725,0 1.15,-0.4 0.425,-0.4 0.425,-1.025 0,-0.7375 -0.45,-1.1625 -0.45,-0.425 -1.125,-0.425 -0.675,0 -1.125,0.425 -0.45,0.425 -0.45,1.1625 0,0.625 0.425,1.025 0.425,0.4 1.15,0.4 z"
         style=""
         id="path4194" />
      <path
         d="m 957.64298,852.70752 0,-6.475 -2.925,6.625 -2.725,-6.5875 0,6.4375 -0.875,0 0,-8.75 0.75,0 2.925,6.8125 2.9625,-6.8125 0.7625,0 0,8.75 -0.875,0 z"
         style=""
         id="path4196" />
      <path
         d="m 964.63966,852.70752 0,-0.625 q -0.3875,0.35 -0.875,0.5625 -0.475,0.2125 -1,0.2125 -0.9625,0 -1.575,-0.5375 -0.6,-0.55 -0.6,-1.625 0,-0.55 0.1875,-0.95 0.2,-0.4 0.5125,-0.65 0.325,-0.2625 0.75,-0.3875 0.425,-0.125 0.875,-0.125 0.4,0 0.825,0.1 0.425,0.1 0.9,0.35 l 0,-0.5375 q 0,-0.4875 -0.125,-0.7875 -0.1125,-0.3 -0.3125,-0.475 -0.1875,-0.175 -0.45,-0.2375 -0.25,-0.0625 -0.5125,-0.0625 -0.2375,0 -0.5,0.0625 -0.2625,0.0625 -0.5125,0.1625 -0.25,0.1 -0.4875,0.225 -0.225,0.1125 -0.4,0.2375 l -0.25,-0.75 q 0.3875,-0.25 0.975,-0.475 0.6,-0.225 1.2625,-0.225 0.3375,0 0.7125,0.1 0.375,0.0875 0.6875,0.3375 0.3125,0.2375 0.5125,0.675 0.2125,0.425 0.2125,1.1 l 0,4.325 -0.8125,0 z m -1.7875,-0.6125 q 0.2875,0 0.55,-0.0875 0.2625,-0.0875 0.4875,-0.225 0.225,-0.1375 0.4125,-0.3125 0.1875,-0.1875 0.3375,-0.3625 l 0,-1.2375 q -0.3125,-0.2125 -0.775,-0.3625 -0.45,-0.1625 -0.8625,-0.1625 -0.325,0 -0.6125,0.0875 -0.2875,0.075 -0.5125,0.25 -0.2125,0.1625 -0.35,0.4125 -0.125,0.25 -0.125,0.6 0,0.6375 0.375,1.025 0.375,0.375 1.075,0.375 z"
         style=""
         id="path4198" />
      <path
         d="m 967.4588,852.70752 0,-6.3875 0.875,0 0,0.9 q 0.35,-0.525 0.8125,-0.7875 0.4625,-0.2625 0.9,-0.2625 0.475,0 0.8,0.2625 l -0.1375,0.85 q -0.125,-0.075 -0.325,-0.15 -0.1875,-0.0875 -0.5,-0.0875 -0.2125,0 -0.4875,0.1 -0.2625,0.1 -0.5,0.3375 -0.2375,0.2375 -0.4,0.6375 -0.1625,0.3875 -0.1625,0.975 l 0,3.6125 -0.875,0 z"
         style=""
         id="path4200" />
      <path
         d="m 974.93615,852.70752 q 0,-0.825 0.2375,-1.4125 0.2375,-0.6 0.6125,-1.05 0.375,-0.45 0.85,-0.7875 0.475,-0.3375 0.95,-0.6625 0.4125,-0.275 0.7875,-0.5375 0.375,-0.275 0.6625,-0.575 0.3,-0.3 0.475,-0.6375 0.175,-0.35 0.175,-0.775 0,-0.7125 -0.5,-1.1875 -0.4875,-0.4875 -1.4,-0.4875 -0.8875,0 -1.3375,0.4 -0.45,0.3875 -0.6125,1.0125 l -0.775,-0.35 q 0.1,-0.3875 0.3375,-0.725 0.2375,-0.3375 0.6,-0.5875 0.3625,-0.25 0.825,-0.3875 0.475,-0.15 1.0375,-0.15 1.3,0 2.0125,0.675 0.725,0.6625 0.725,1.7875 0,0.6 -0.2375,1.0625 -0.225,0.4625 -0.6,0.85 -0.3625,0.375 -0.825,0.7 -0.4625,0.3125 -0.9375,0.6125 -0.375,0.25 -0.725,0.5 -0.35,0.2375 -0.65,0.525 -0.2875,0.275 -0.4875,0.6125 -0.2,0.325 -0.275,0.7375 l 4.8125,0 0,0.8375 -5.7375,0 z"
         style=""
         id="path4202" />
      <path
         d="m 985.41876,852.85752 q -0.8625,0 -1.4375,-0.4 -0.575,-0.4 -0.925,-1.0375 -0.3375,-0.65 -0.4875,-1.45 -0.15,-0.8125 -0.15,-1.6375 0,-0.45 0.05,-0.9625 0.05,-0.525 0.175,-1.025 0.1375,-0.5 0.35,-0.9625 0.225,-0.4625 0.5625,-0.8125 0.3375,-0.35 0.7875,-0.55 0.4625,-0.2125 1.075,-0.2125 0.8625,0 1.4375,0.4125 0.575,0.4 0.9125,1.05 0.35,0.65 0.5,1.4625 0.15,0.8 0.15,1.6 0,0.4625 -0.0625,0.975 -0.05,0.5125 -0.1875,1.025 -0.125,0.5 -0.35,0.9625 -0.2125,0.45 -0.55,0.8 -0.3375,0.35 -0.8,0.5625 -0.45,0.2 -1.05,0.2 z m 0,-0.7875 q 0.65,0 1.05,-0.35 0.4125,-0.3625 0.6375,-0.9125 0.225,-0.55 0.3,-1.2125 0.075,-0.6625 0.075,-1.2625 0,-0.675 -0.0875,-1.3375 -0.0875,-0.675 -0.325,-1.2 -0.2375,-0.5375 -0.6375,-0.8625 -0.4,-0.3375 -1.0125,-0.3375 -0.6625,0 -1.075,0.3625 -0.4,0.3625 -0.625,0.9125 -0.225,0.55 -0.3125,1.2125 -0.075,0.65 -0.075,1.25 0,0.6875 0.0875,1.3625 0.0875,0.6625 0.325,1.2 0.2375,0.525 0.6375,0.85 0.4125,0.325 1.0375,0.325 z"
         style=""
         id="path4204" />
      <path
         d="m 991.27052,852.70752 0,-7.1625 -1.4875,0 0,-0.5 q 0.6625,0 1.125,-0.225 0.4625,-0.2375 0.675,-0.8625 l 0.5625,0 0,8.75 -0.875,0 z"
         style=""
         id="path4206" />
      <path
         d="m 997.19532,852.07002 q 0.4125,0 0.7625,-0.125 0.3625,-0.1375 0.625,-0.3875 0.2625,-0.25 0.4125,-0.6125 0.15,-0.3625 0.15,-0.825 0,-0.3875 -0.1375,-0.7375 -0.1375,-0.35 -0.4,-0.6125 -0.25,-0.275 -0.6125,-0.425 -0.3625,-0.1625 -0.8,-0.1625 -0.4375,0 -0.8,0.1625 -0.3625,0.15 -0.625,0.425 -0.25,0.2625 -0.3875,0.6125 -0.1375,0.35 -0.1375,0.7375 0,0.4625 0.15,0.825 0.15,0.3625 0.4125,0.6125 0.2625,0.25 0.6125,0.3875 0.3625,0.125 0.775,0.125 z m 0,-8.2625 q 0.525,0 0.975,0.1875 0.4625,0.175 0.7875,0.4875 0.325,0.3125 0.5125,0.725 0.1875,0.4125 0.1875,0.8625 0,0.5625 -0.2875,1.0625 -0.275,0.4875 -0.875,0.7375 0.7,0.2625 1.125,0.9125 0.43748,0.6375 0.43748,1.4625 0,0.55 -0.21248,1.0375 -0.2125,0.475 -0.6,0.825 -0.3875,0.35 -0.9125,0.55 -0.525,0.2 -1.1375,0.2 -0.625,0 -1.15,-0.2 -0.5125,-0.2 -0.9,-0.55 -0.3875,-0.35 -0.6,-0.825 -0.2125,-0.4875 -0.2125,-1.0375 0,-0.4125 0.1125,-0.7875 0.1125,-0.375 0.3125,-0.675 0.2125,-0.3125 0.5,-0.55 0.2875,-0.2375 0.625,-0.3625 -0.5625,-0.25 -0.8625,-0.7375 -0.2875,-0.5 -0.2875,-1.0625 0,-0.45 0.1875,-0.8625 0.1875,-0.4125 0.5125,-0.725 0.325,-0.3125 0.775,-0.4875 0.4625,-0.1875 0.9875,-0.1875 z m 0,3.8 q 0.725,0 1.15,-0.4 0.425,-0.4 0.425,-1.025 0,-0.7375 -0.45,-1.1625 -0.45,-0.425 -1.125,-0.425 -0.675,0 -1.125,0.425 -0.45,0.425 -0.45,1.1625 0,0.625 0.425,1.025 0.425,0.4 1.15,0.4 z"
         style=""
         id="path4208" />
      <path
         d="m 814.61505,868.48252 q -0.675,0 -1.075,-0.2375 -0.4,-0.2375 -0.675,-0.5625 l 0,2.75 -0.875,0.4375 0,-8.925 0.875,0 0,0.575 q 0.3125,-0.2875 0.7,-0.5 0.4,-0.225 1.05,-0.225 0.6125,0 1.1,0.2375 0.4875,0.2375 0.825,0.675 0.35,0.4375 0.525,1.0625 0.1875,0.6125 0.1875,1.3625 0,0.8 -0.2,1.425 -0.1875,0.625 -0.5375,1.05 -0.35,0.425 -0.8375,0.65 -0.4875,0.225 -1.0625,0.225 z m -0.1,-0.7875 q 0.875,0 1.35,-0.65 0.475,-0.6625 0.475,-1.9125 0,-1.175 -0.4875,-1.8625 -0.475,-0.6875 -1.3375,-0.6875 -0.525,0 -0.9625,0.2625 -0.425,0.25 -0.6875,0.725 l 0,3.1375 q 0.325,0.425 0.725,0.7125 0.4,0.275 0.925,0.275 z"
         style=""
         id="path4210" />
      <path
         d="m 821.69572,868.48252 q -0.3375,0 -0.6,-0.0625 -0.2625,-0.0625 -0.475,-0.1625 -0.2,-0.1125 -0.375,-0.2375 -0.175,-0.125 -0.325,-0.2625 l 0,0.575 -0.875,0 0,-8.5875 0.875,-0.4375 0,3.2625 q 0.3125,-0.3375 0.7625,-0.55 0.4625,-0.225 0.9375,-0.225 0.6,0 1.0875,0.225 0.4875,0.225 0.825,0.6625 0.35,0.425 0.5375,1.05 0.1875,0.6125 0.1875,1.4 0,1.6375 -0.675,2.5 -0.675,0.85 -1.8875,0.85 z m -0.1375,-0.7875 q 0.9,0 1.3375,-0.6875 0.45,-0.6875 0.45,-1.875 0,-1.2375 -0.45,-1.8875 -0.4375,-0.6625 -1.3375,-0.6625 -0.3,0 -0.5625,0.1 -0.25,0.0875 -0.4625,0.2375 -0.2125,0.1375 -0.375,0.3125 -0.15,0.175 -0.2375,0.325 l 0,3.1375 q 0.2625,0.45 0.7125,0.725 0.45,0.275 0.925,0.275 z"
         style=""
         id="path4212" />
      <path
         d="m 828.35255,867.69502 q 0.875,0 1.35,-0.675 0.475,-0.675 0.475,-1.8875 0,-1.2 -0.4625,-1.875 -0.4625,-0.675 -1.3625,-0.675 -0.9,0 -1.3625,0.6625 -0.4625,0.65 -0.4625,1.9 0,1.2 0.4625,1.875 0.4625,0.675 1.3625,0.675 z m 0,-5.9 q 0.6125,0 1.1125,0.225 0.5125,0.225 0.8625,0.65 0.3625,0.425 0.5625,1.05 0.2,0.6125 0.2,1.4125 0,0.7875 -0.2,1.4125 -0.2,0.625 -0.5625,1.0625 -0.35,0.425 -0.8625,0.65 -0.5,0.225 -1.1125,0.225 -0.6125,0 -1.125,-0.225 -0.5,-0.225 -0.8625,-0.65 -0.35,-0.425 -0.55,-1.0375 -0.2,-0.625 -0.2,-1.425 0,-0.7875 0.2,-1.4 0.2,-0.625 0.55,-1.05 0.3625,-0.4375 0.8625,-0.6625 0.5125,-0.2375 1.125,-0.2375 z"
         style=""
         id="path4214" />
      <path
         d="m 834.28849,870.30752 q 0.775,-0.0375 1.2625,-0.2 0.5,-0.15 0.775,-0.3875 0.2875,-0.225 0.3875,-0.525 0.1,-0.2875 0.1,-0.6125 l 0,-0.975 q -0.275,0.4 -0.6875,0.6375 -0.4,0.2375 -1.0625,0.2375 -0.5125,0 -0.9875,-0.2125 -0.475,-0.2125 -0.8375,-0.625 -0.3625,-0.425 -0.575,-1.05 -0.2125,-0.625 -0.2125,-1.4625 0,-0.7875 0.1875,-1.4 0.2,-0.625 0.55,-1.05 0.3625,-0.4375 0.85,-0.6625 0.4875,-0.225 1.075,-0.225 0.3625,0 0.6375,0.0875 0.2875,0.075 0.4875,0.2 0.2125,0.1125 0.35,0.25 0.15,0.125 0.225,0.2125 l 0,-0.6 0.875,0 0,6.2875 q 0,0.7875 -0.25,1.3 -0.25,0.525 -0.6625,0.8375 -0.4125,0.325 -0.9625,0.4625 -0.5375,0.1375 -1.125,0.1625 l -0.4,-0.6875 z m 0.975,-2.6125 q 0.4,0 0.8375,-0.275 0.45,-0.2875 0.7125,-0.7875 l 0,-3.075 q -0.1375,-0.2375 -0.3375,-0.4125 -0.1875,-0.1875 -0.4,-0.3125 -0.2125,-0.125 -0.425,-0.1875 -0.2125,-0.0625 -0.3875,-0.0625 -0.95,0 -1.425,0.6625 -0.475,0.65 -0.475,1.8875 0,0.6125 0.1375,1.0875 0.15,0.475 0.4,0.8125 0.2625,0.325 0.6,0.5 0.35,0.1625 0.7625,0.1625 z"
         style=""
         id="path4216" />
      <path
         d="m 843.61915,868.33252 0,-0.625 q -0.3875,0.35 -0.875,0.5625 -0.475,0.2125 -1,0.2125 -0.9625,0 -1.575,-0.5375 -0.6,-0.55 -0.6,-1.625 0,-0.55 0.1875,-0.95 0.2,-0.4 0.5125,-0.65 0.325,-0.2625 0.75,-0.3875 0.425,-0.125 0.875,-0.125 0.4,0 0.825,0.1 0.425,0.1 0.9,0.35 l 0,-0.5375 q 0,-0.4875 -0.125,-0.7875 -0.1125,-0.3 -0.3125,-0.475 -0.1875,-0.175 -0.45,-0.2375 -0.25,-0.0625 -0.5125,-0.0625 -0.2375,0 -0.5,0.0625 -0.2625,0.0625 -0.5125,0.1625 -0.25,0.1 -0.4875,0.225 -0.225,0.1125 -0.4,0.2375 l -0.25,-0.75 q 0.3875,-0.25 0.975,-0.475 0.6,-0.225 1.2625,-0.225 0.3375,0 0.7125,0.1 0.375,0.0875 0.6875,0.3375 0.3125,0.2375 0.5125,0.675 0.2125,0.425 0.2125,1.1 l 0,4.325 -0.8125,0 z m -1.7875,-0.6125 q 0.2875,0 0.55,-0.0875 0.2625,-0.0875 0.4875,-0.225 0.225,-0.1375 0.4125,-0.3125 0.1875,-0.1875 0.3375,-0.3625 l 0,-1.2375 q -0.3125,-0.2125 -0.775,-0.3625 -0.45,-0.1625 -0.8625,-0.1625 -0.325,0 -0.6125,0.0875 -0.2875,0.075 -0.5125,0.25 -0.2125,0.1625 -0.35,0.4125 -0.125,0.25 -0.125,0.6 0,0.6375 0.375,1.025 0.375,0.375 1.075,0.375 z"
         style=""
         id="path4218" />
      <path
         d="m 846.43829,868.33252 0,-6.3875 0.875,0 0,0.9 q 0.35,-0.525 0.8125,-0.7875 0.4625,-0.2625 0.9,-0.2625 0.475,0 0.8,0.2625 l -0.1375,0.85 q -0.125,-0.075 -0.325,-0.15 -0.1875,-0.0875 -0.5,-0.0875 -0.2125,0 -0.4875,0.1 -0.2625,0.1 -0.5,0.3375 -0.2375,0.2375 -0.4,0.6375 -0.1625,0.3875 -0.1625,0.975 l 0,3.6125 -0.875,0 z"
         style=""
         id="path4220" />
      <path
         d="m 853.10607,868.48252 q -0.6125,0 -1.1,-0.2375 -0.4875,-0.2375 -0.8375,-0.675 -0.3375,-0.4375 -0.525,-1.05 -0.175,-0.625 -0.175,-1.3875 0,-1.5875 0.7,-2.4625 0.7125,-0.875 1.9375,-0.875 0.6,0 1,0.1875 0.4125,0.175 0.7,0.4125 l 0,-2.65 0.875,-0.4375 0,9.025 -0.875,0 0,-0.55 q -0.2875,0.2875 -0.7,0.5 -0.4,0.2 -1,0.2 z m 0.1,-0.7875 q 0.475,0 0.9,-0.2625 0.4375,-0.2625 0.7,-0.7375 l 0,-3.1875 q -0.1,-0.1625 -0.25,-0.325 -0.15,-0.1625 -0.35,-0.2875 -0.1875,-0.1375 -0.45,-0.225 -0.25,-0.0875 -0.55,-0.0875 -0.8875,0 -1.3625,0.6625 -0.4625,0.65 -0.4625,1.8875 0,0.5375 0.125,1.0125 0.125,0.4625 0.3625,0.8125 0.2375,0.3375 0.575,0.5375 0.3375,0.2 0.7625,0.2 z"
         style=""
         id="path4222" />
      <path
         d="m 858.22482,868.50752 q -0.3375,0 -0.5625,-0.2375 -0.225,-0.25 -0.225,-0.55 0,-0.3 0.225,-0.5375 0.225,-0.25 0.5625,-0.25 0.3375,0 0.5625,0.25 0.225,0.2375 0.225,0.5375 0,0.3 -0.225,0.55 -0.225,0.2375 -0.5625,0.2375 z"
         style=""
         id="path4224" />
      <path
         d="m 862.4174,868.48252 q -1.1625,0 -1.85,-0.8625 -0.675,-0.875 -0.675,-2.475 0,-1.5875 0.6875,-2.4625 0.7,-0.8875 1.9375,-0.8875 0.7125,0 1.25,0.35 0.5375,0.3375 0.8,0.9875 l -0.8,0.3125 q -0.15,-0.3625 -0.4625,-0.6125 -0.3,-0.25 -0.825,-0.25 -0.45,0 -0.7625,0.1875 -0.3125,0.175 -0.525,0.5125 -0.2,0.325 -0.3,0.8 -0.0875,0.475 -0.0875,1.0625 0,1.2125 0.4,1.8875 0.4,0.6625 1.25,0.6625 0.525,0 0.8875,-0.2625 0.3625,-0.2625 0.525,-0.7125 l 0.7875,0.3 q -0.225,0.675 -0.825,1.075 -0.5875,0.3875 -1.4125,0.3875 z"
         style=""
         id="path4226" />
      <path
         d="m 868.63575,867.69502 q 0.875,0 1.35,-0.675 0.475,-0.675 0.475,-1.8875 0,-1.2 -0.4625,-1.875 -0.4625,-0.675 -1.3625,-0.675 -0.9,0 -1.3625,0.6625 -0.4625,0.65 -0.4625,1.9 0,1.2 0.4625,1.875 0.4625,0.675 1.3625,0.675 z m 0,-5.9 q 0.6125,0 1.1125,0.225 0.5125,0.225 0.8625,0.65 0.3625,0.425 0.5625,1.05 0.2,0.6125 0.2,1.4125 0,0.7875 -0.2,1.4125 -0.2,0.625 -0.5625,1.0625 -0.35,0.425 -0.8625,0.65 -0.5,0.225 -1.1125,0.225 -0.6125,0 -1.125,-0.225 -0.5,-0.225 -0.8625,-0.65 -0.35,-0.425 -0.55,-1.0375 -0.2,-0.625 -0.2,-1.425 0,-0.7875 0.2,-1.4 0.2,-0.625 0.55,-1.05 0.3625,-0.4375 0.8625,-0.6625 0.5125,-0.2375 1.125,-0.2375 z"
         style=""
         id="path4228" />
      <path
         d="m 879.33419,861.79502 q 0.4625,0 0.8625,0.1625 0.4,0.1625 0.6875,0.4625 0.3,0.2875 0.4625,0.7125 0.175,0.425 0.175,0.95 l 0,4.25 -0.875,0 0,-3.9125 q 0,-0.3 -0.05,-0.625 -0.05,-0.325 -0.2,-0.5875 -0.1375,-0.275 -0.4125,-0.45 -0.275,-0.175 -0.725,-0.175 -0.3625,0 -0.6375,0.15 -0.275,0.15 -0.4625,0.4 -0.1875,0.25 -0.2875,0.5875 -0.0875,0.325 -0.0875,0.7 l 0,3.9125 -0.875,0 0,-3.9125 q 0,-0.3 -0.05,-0.625 -0.05,-0.325 -0.2,-0.5875 -0.1375,-0.275 -0.4125,-0.45 -0.275,-0.175 -0.725,-0.175 -0.375,0 -0.65,0.1375 -0.275,0.125 -0.4625,0.3625 -0.175,0.2375 -0.275,0.55 -0.0875,0.3125 -0.0875,0.6875 l 0,4.0125 -0.875,0 0,-6.3875 0.875,0 0,0.625 q 0.6625,-0.775 1.7375,-0.775 0.5125,0 0.975,0.2625 0.475,0.25 0.75,0.7125 0.2625,-0.4 0.725,-0.6875 0.475,-0.2875 1.1,-0.2875 z"
         style=""
         id="path4230" />
      <path
         d="m 882.59357,869.95752 4.9125,-10.525 0.85,0 -4.9125,10.525 -0.85,0 z"
         style=""
         id="path4232" />
      <path
         d="m 891.39767,868.48252 q -0.6875,0 -0.975,-0.4125 -0.2875,-0.425 -0.2875,-1.05 l 0,-4.2875 -1.0875,0 0,-0.7875 1.0875,0 0,-2.2 0.875,-0.4375 0,2.6375 1.625,0 0,0.7875 -1.625,0 0,3.9125 q 0,0.2125 0.0125,0.4 0.025,0.175 0.1,0.3125 0.075,0.1375 0.2125,0.225 0.1375,0.075 0.3625,0.075 0.325,0 0.55,-0.125 0.2375,-0.125 0.4125,-0.25 l -0.1,0.9125 q -0.25,0.1375 -0.525,0.2125 -0.275,0.075 -0.6375,0.075 z"
         style=""
         id="path4234" />
      <path
         d="m 894.77736,865.49502 q 0.1125,0.975 0.5875,1.575 0.475,0.6 1.3,0.6 0.35,0 0.7125,-0.1125 0.3625,-0.1125 0.725,-0.3875 l 0.475,0.5875 q -0.375,0.3125 -0.8875,0.525 -0.5,0.2 -1.0625,0.2 -0.65,0 -1.1625,-0.2625 -0.5125,-0.275 -0.875,-0.7375 -0.35,-0.4625 -0.55,-1.0625 -0.1875,-0.6125 -0.1875,-1.2875 0,-0.8 0.2,-1.4125 0.2125,-0.625 0.575,-1.05 0.3625,-0.425 0.875,-0.65 0.5125,-0.225 1.125,-0.225 0.5125,0 0.9625,0.1875 0.4625,0.175 0.8125,0.55 0.35,0.375 0.55,0.9625 0.2,0.5875 0.2,1.3875 0,0.1 0,0.25 0,0.15 -0.025,0.3625 l -4.35,0 z m 1.85,-2.9125 q -0.775,0 -1.3,0.5125 -0.5125,0.5125 -0.575,1.6125 l 3.5125,0 q 0,-0.65 -0.1625,-1.0625 -0.1625,-0.4125 -0.4125,-0.65 -0.2375,-0.2375 -0.525,-0.325 -0.2875,-0.0875 -0.5375,-0.0875 z"
         style=""
         id="path4236" />
      <path
         d="m 900.90607,868.33252 0,-6.3875 0.875,0 0,0.9 q 0.35,-0.525 0.8125,-0.7875 0.4625,-0.2625 0.9,-0.2625 0.475,0 0.8,0.2625 l -0.1375,0.85 q -0.125,-0.075 -0.325,-0.15 -0.1875,-0.0875 -0.5,-0.0875 -0.2125,0 -0.4875,0.1 -0.2625,0.1 -0.5,0.3375 -0.2375,0.2375 -0.4,0.6375 -0.1625,0.3875 -0.1625,0.975 l 0,3.6125 -0.875,0 z"
         style=""
         id="path4238" />
      <path
         d="m 911.82931,861.79502 q 0.4625,0 0.8625,0.1625 0.4,0.1625 0.6875,0.4625 0.3,0.2875 0.4625,0.7125 0.175,0.425 0.175,0.95 l 0,4.25 -0.875,0 0,-3.9125 q 0,-0.3 -0.05,-0.625 -0.05,-0.325 -0.2,-0.5875 -0.1375,-0.275 -0.4125,-0.45 -0.275,-0.175 -0.725,-0.175 -0.3625,0 -0.6375,0.15 -0.275,0.15 -0.4625,0.4 -0.1875,0.25 -0.2875,0.5875 -0.0875,0.325 -0.0875,0.7 l 0,3.9125 -0.875,0 0,-3.9125 q 0,-0.3 -0.05,-0.625 -0.05,-0.325 -0.2,-0.5875 -0.1375,-0.275 -0.4125,-0.45 -0.275,-0.175 -0.725,-0.175 -0.375,0 -0.65,0.1375 -0.275,0.125 -0.4625,0.3625 -0.175,0.2375 -0.275,0.55 -0.0875,0.3125 -0.0875,0.6875 l 0,4.0125 -0.875,0 0,-6.3875 0.875,0 0,0.625 q 0.6625,-0.775 1.7375,-0.775 0.5125,0 0.975,0.2625 0.475,0.25 0.75,0.7125 0.2625,-0.4 0.725,-0.6875 0.475,-0.2875 1.1,-0.2875 z"
         style=""
         id="path4240" />
      <path
         d="m 916.22618,868.33252 0,-6.3875 0.875,0 0,6.3875 -0.875,0 z m 0.4375,-7.7 q -0.25,0 -0.4125,-0.1625 -0.1625,-0.1625 -0.1625,-0.4125 0,-0.25 0.1625,-0.425 0.1625,-0.175 0.4125,-0.175 0.25,0 0.4125,0.175 0.1625,0.175 0.1625,0.425 0,0.25 -0.1625,0.4125 -0.1625,0.1625 -0.4125,0.1625 z"
         style=""
         id="path4242" />
      <path
         d="m 920.2381,862.64502 q 0.3,-0.4375 0.7125,-0.6375 0.425,-0.2125 0.9375,-0.2125 1.175,0 1.725,0.7125 0.5625,0.7 0.5625,2.2875 l 0,3.5375 -0.875,0 0,-3.9 q 0,-1.0125 -0.425,-1.425 -0.425,-0.425 -1.0625,-0.425 -0.3375,0 -0.625,0.0875 -0.2875,0.0875 -0.5,0.3 -0.2125,0.2125 -0.3375,0.5625 -0.1125,0.35 -0.1125,0.875 l 0,3.925 -0.875,0 0,-6.3875 0.875,0 0,0.7 z"
         style=""
         id="path4244" />
      <path
         d="m 930.04493,868.33252 0,-0.625 q -0.3875,0.35 -0.875,0.5625 -0.475,0.2125 -1,0.2125 -0.9625,0 -1.575,-0.5375 -0.6,-0.55 -0.6,-1.625 0,-0.55 0.1875,-0.95 0.2,-0.4 0.5125,-0.65 0.325,-0.2625 0.75,-0.3875 0.425,-0.125 0.875,-0.125 0.4,0 0.825,0.1 0.425,0.1 0.9,0.35 l 0,-0.5375 q 0,-0.4875 -0.125,-0.7875 -0.1125,-0.3 -0.3125,-0.475 -0.1875,-0.175 -0.45,-0.2375 -0.25,-0.0625 -0.5125,-0.0625 -0.2375,0 -0.5,0.0625 -0.2625,0.0625 -0.5125,0.1625 -0.25,0.1 -0.4875,0.225 -0.225,0.1125 -0.4,0.2375 l -0.25,-0.75 q 0.3875,-0.25 0.975,-0.475 0.6,-0.225 1.2625,-0.225 0.3375,0 0.7125,0.1 0.375,0.0875 0.6875,0.3375 0.3125,0.2375 0.5125,0.675 0.2125,0.425 0.2125,1.1 l 0,4.325 -0.8125,0 z m -1.7875,-0.6125 q 0.2875,0 0.55,-0.0875 0.2625,-0.0875 0.4875,-0.225 0.225,-0.1375 0.4125,-0.3125 0.1875,-0.1875 0.3375,-0.3625 l 0,-1.2375 q -0.3125,-0.2125 -0.775,-0.3625 -0.45,-0.1625 -0.8625,-0.1625 -0.325,0 -0.6125,0.0875 -0.2875,0.075 -0.5125,0.25 -0.2125,0.1625 -0.35,0.4125 -0.125,0.25 -0.125,0.6 0,0.6375 0.375,1.025 0.375,0.375 1.075,0.375 z"
         style=""
         id="path4246" />
      <path
         d="m 932.92657,868.33252 0,-8.6 0.875,-0.425 0,9.025 -0.875,0 z"
         style=""
         id="path4248" />
      <path
         d="m 936.11115,865.03252 0,-0.85 2.7875,0 0,0.85 -2.7875,0 z"
         style=""
         id="path4250" />
      <path
         d="m 944.32794,863.25752 q -0.25,-0.25 -0.625,-0.4625 -0.375,-0.225 -0.9,-0.225 -0.5625,0 -0.8875,0.225 -0.325,0.225 -0.325,0.6125 0,0.25 0.125,0.425 0.125,0.175 0.325,0.325 0.2,0.1375 0.4625,0.25 0.2625,0.1125 0.55,0.225 0.35,0.1375 0.7125,0.3125 0.375,0.1625 0.6625,0.4 0.2875,0.2375 0.475,0.575 0.1875,0.325 0.1875,0.8125 0,0.8 -0.575,1.275 -0.575,0.475 -1.575,0.475 -0.65,0 -1.225,-0.3125 -0.575,-0.325 -0.975,-0.8 l 0.6125,-0.5375 q 0.2875,0.35 0.725,0.6125 0.4375,0.2625 0.9375,0.2625 0.525,0 0.8875,-0.2375 0.3625,-0.2375 0.3625,-0.6875 0,-0.2875 -0.1375,-0.5 -0.1375,-0.225 -0.3625,-0.3875 -0.225,-0.1625 -0.5125,-0.2875 -0.2875,-0.1375 -0.575,-0.25 -0.375,-0.15 -0.725,-0.325 -0.35,-0.175 -0.6125,-0.4 -0.2625,-0.225 -0.425,-0.5125 -0.15,-0.3 -0.15,-0.7 0,-0.3625 0.15,-0.6625 0.1625,-0.3 0.425,-0.5125 0.275,-0.2125 0.65,-0.325 0.3875,-0.125 0.8375,-0.125 0.65,0 1.1625,0.2625 0.525,0.25 0.9125,0.7125 l -0.575,0.4875 z"
         style=""
         id="path4252" />
      <path
         d="m 946.93907,868.33252 0,-6.3875 0.875,0 0,6.3875 -0.875,0 z m 0.4375,-7.7 q -0.25,0 -0.4125,-0.1625 -0.1625,-0.1625 -0.1625,-0.4125 0,-0.25 0.1625,-0.425 0.1625,-0.175 0.4125,-0.175 0.25,0 0.4125,0.175 0.1625,0.175 0.1625,0.425 0,0.25 -0.1625,0.4125 -0.1625,0.1625 -0.4125,0.1625 z"
         style=""
         id="path4254" />
      <path
         d="m 950.13849,868.33252 0,-8.6 0.875,-0.425 0,9.025 -0.875,0 z"
         style=""
         id="path4256" />
      <path
         d="m 955.84806,861.79502 q 1.175,0 1.725,0.7125 0.5625,0.7 0.5625,2.2875 l 0,3.5375 -0.875,0 0,-3.9 q 0,-1.0125 -0.425,-1.425 -0.425,-0.425 -1.0625,-0.425 -0.3375,0 -0.625,0.0875 -0.2875,0.0875 -0.5,0.3 -0.2125,0.2125 -0.3375,0.5625 -0.1125,0.35 -0.1125,0.875 l 0,3.925 -0.875,0 0,-8.6125 0.875,-0.4125 0,3.35 q 0.2875,-0.4375 0.7125,-0.65 0.425,-0.2125 0.9375,-0.2125 z"
         style=""
         id="path4258" />
      <path
         d="m 962.6299,867.69502 q 0.875,0 1.35,-0.675 0.475,-0.675 0.475,-1.8875 0,-1.2 -0.4625,-1.875 -0.4625,-0.675 -1.3625,-0.675 -0.9,0 -1.3625,0.6625 -0.4625,0.65 -0.4625,1.9 0,1.2 0.4625,1.875 0.4625,0.675 1.3625,0.675 z m 0,-5.9 q 0.6125,0 1.1125,0.225 0.5125,0.225 0.8625,0.65 0.3625,0.425 0.5625,1.05 0.2,0.6125 0.2,1.4125 0,0.7875 -0.2,1.4125 -0.2,0.625 -0.5625,1.0625 -0.35,0.425 -0.8625,0.65 -0.5,0.225 -1.1125,0.225 -0.6125,0 -1.125,-0.225 -0.5,-0.225 -0.8625,-0.65 -0.35,-0.425 -0.55,-1.0375 -0.2,-0.625 -0.2,-1.425 0,-0.7875 0.2,-1.4 0.2,-0.625 0.55,-1.05 0.3625,-0.4375 0.8625,-0.6625 0.5125,-0.2375 1.125,-0.2375 z"
         style=""
         id="path4260" />
      <path
         d="m 971.04083,868.33252 0,-0.6125 q -0.3375,0.4375 -0.7125,0.6 -0.375,0.1625 -0.875,0.1625 -1.2375,0 -1.8,-0.7 -0.55,-0.7 -0.55,-2.275 l 0,-3.5625 0.875,0 0,3.9 q 0,1 0.4125,1.425 0.425,0.425 1.0625,0.425 0.3375,0 0.625,-0.0875 0.2875,-0.0875 0.5,-0.3 0.225,-0.2125 0.3375,-0.5625 0.125,-0.35 0.125,-0.875 l 0,-3.925 0.875,0 0,6.3875 -0.875,0 z"
         style=""
         id="path4262" />
      <path
         d="m 974.66017,865.49502 q 0.1125,0.975 0.5875,1.575 0.475,0.6 1.3,0.6 0.35,0 0.7125,-0.1125 0.3625,-0.1125 0.725,-0.3875 l 0.475,0.5875 q -0.375,0.3125 -0.8875,0.525 -0.5,0.2 -1.0625,0.2 -0.65,0 -1.1625,-0.2625 -0.5125,-0.275 -0.875,-0.7375 -0.35,-0.4625 -0.55,-1.0625 -0.1875,-0.6125 -0.1875,-1.2875 0,-0.8 0.2,-1.4125 0.2125,-0.625 0.575,-1.05 0.3625,-0.425 0.875,-0.65 0.5125,-0.225 1.125,-0.225 0.5125,0 0.9625,0.1875 0.4625,0.175 0.8125,0.55 0.35,0.375 0.55,0.9625 0.2,0.5875 0.2,1.3875 0,0.1 0,0.25 0,0.15 -0.025,0.3625 l -4.35,0 z m 1.85,-2.9125 q -0.775,0 -1.3,0.5125 -0.5125,0.5125 -0.575,1.6125 l 3.5125,0 q 0,-0.65 -0.1625,-1.0625 -0.1625,-0.4125 -0.4125,-0.65 -0.2375,-0.2375 -0.525,-0.325 -0.2875,-0.0875 -0.5375,-0.0875 z"
         style=""
         id="path4264" />
      <path
         d="m 982.26681,868.48252 q -0.6875,0 -0.975,-0.4125 -0.2875,-0.425 -0.2875,-1.05 l 0,-4.2875 -1.0875,0 0,-0.7875 1.0875,0 0,-2.2 0.875,-0.4375 0,2.6375 1.625,0 0,0.7875 -1.625,0 0,3.9125 q 0,0.2125 0.0125,0.4 0.025,0.175 0.1,0.3125 0.075,0.1375 0.2125,0.225 0.1375,0.075 0.3625,0.075 0.325,0 0.55,-0.125 0.2375,-0.125 0.4125,-0.25 l -0.1,0.9125 q -0.25,0.1375 -0.525,0.2125 -0.275,0.075 -0.6375,0.075 z"
         style=""
         id="path4266" />
      <path
         d="m 986.88107,868.48252 q -0.6875,0 -0.975,-0.4125 -0.2875,-0.425 -0.2875,-1.05 l 0,-4.2875 -1.0875,0 0,-0.7875 1.0875,0 0,-2.2 0.875,-0.4375 0,2.6375 1.625,0 0,0.7875 -1.625,0 0,3.9125 q 0,0.2125 0.0125,0.4 0.025,0.175 0.1,0.3125 0.075,0.1375 0.2125,0.225 0.1375,0.075 0.3625,0.075 0.325,0 0.55,-0.125 0.2375,-0.125 0.4125,-0.25 l -0.1,0.9125 q -0.25,0.1375 -0.525,0.2125 -0.275,0.075 -0.6375,0.075 z"
         style=""
         id="path4268" />
      <path
         d="m 990.26075,865.49502 q 0.1125,0.975 0.5875,1.575 0.475,0.6 1.3,0.6 0.35,0 0.7125,-0.1125 0.3625,-0.1125 0.725,-0.3875 l 0.475,0.5875 q -0.375,0.3125 -0.8875,0.525 -0.5,0.2 -1.0625,0.2 -0.65,0 -1.1625,-0.2625 -0.5125,-0.275 -0.875,-0.7375 -0.35,-0.4625 -0.55,-1.0625 -0.1875,-0.6125 -0.1875,-1.2875 0,-0.8 0.2,-1.4125 0.2125,-0.625 0.575,-1.05 0.3625,-0.425 0.875,-0.65 0.5125,-0.225 1.125,-0.225 0.5125,0 0.9625,0.1875 0.4625,0.175 0.8125,0.55 0.35,0.375 0.55,0.9625 0.2,0.5875 0.2,1.3875 0,0.1 0,0.25 0,0.15 -0.025,0.3625 l -4.35,0 z m 1.85,-2.9125 q -0.775,0 -1.3,0.5125 -0.5125,0.5125 -0.575,1.6125 l 3.5125,0 q 0,-0.65 -0.1625,-1.0625 -0.1625,-0.4125 -0.4125,-0.65 -0.2375,-0.2375 -0.525,-0.325 -0.2875,-0.0875 -0.5375,-0.0875 z"
         style=""
         id="path4270" />
      <path
         d="m 999.4549,863.25752 q -0.25,-0.25 -0.625,-0.4625 -0.375,-0.225 -0.9,-0.225 -0.5625,0 -0.8875,0.225 -0.325,0.225 -0.325,0.6125 0,0.25 0.125,0.425 0.125,0.175 0.325,0.325 0.2,0.1375 0.4625,0.25 0.2625,0.1125 0.55,0.225 0.35,0.1375 0.7125,0.3125 0.375,0.1625 0.6625,0.4 0.2875,0.2375 0.475,0.575 0.1875,0.325 0.1875,0.8125 0,0.8 -0.575,1.275 -0.575,0.475 -1.575,0.475 -0.65,0 -1.225,-0.3125 -0.575,-0.325 -0.975,-0.8 l 0.6125,-0.5375 q 0.2875,0.35 0.725,0.6125 0.4375,0.2625 0.9375,0.2625 0.525,0 0.8875,-0.2375 0.3625,-0.2375 0.3625,-0.6875 0,-0.2875 -0.1375,-0.5 -0.1375,-0.225 -0.3625,-0.3875 -0.225,-0.1625 -0.5125,-0.2875 -0.2875,-0.1375 -0.575,-0.25 -0.375,-0.15 -0.725,-0.325 -0.35,-0.175 -0.6125,-0.4 -0.2625,-0.225 -0.425,-0.5125 -0.15,-0.3 -0.15,-0.7 0,-0.3625 0.15,-0.6625 0.1625,-0.3 0.425,-0.5125 0.275,-0.2125 0.65,-0.325 0.3875,-0.125 0.8375,-0.125 0.65,0 1.1625,0.2625 0.525,0.25 0.9125,0.7125 l -0.575,0.4875 z"
         style=""
         id="path4272" />
    </g>
  </g>
</svg>
