<?xml version="1.0" encoding="UTF-8" standalone="no"?>
<!-- Created with Inkscape (http://www.inkscape.org/) -->

<svg
   xmlns:dc="http://purl.org/dc/elements/1.1/"
   xmlns:cc="http://creativecommons.org/ns#"
   xmlns:rdf="http://www.w3.org/1999/02/22-rdf-syntax-ns#"
   xmlns:svg="http://www.w3.org/2000/svg"
   xmlns="http://www.w3.org/2000/svg"
   xmlns:sodipodi="http://sodipodi.sourceforge.net/DTD/sodipodi-0.dtd"
   xmlns:inkscape="http://www.inkscape.org/namespaces/inkscape"
   width="677.62183"
   height="581.24835"
   viewBox="0 0 677.62183 581.24835"
   id="svg2"
   version="1.1"
   inkscape:version="0.91 r13725"
   sodipodi:docname="IND.svg"
   inkscape:export-filename="C:\Users\Paul Bogard\Dropbox\Documents\Websites\Flight Log\Images\Terminals\IND.png"
   inkscape:export-xdpi="89.996498"
   inkscape:export-ydpi="89.996498">
  <defs
     id="defs4" />
  <sodipodi:namedview
     id="base"
     pagecolor="#ffffff"
     bordercolor="#666666"
     borderopacity="1.0"
     inkscape:pageopacity="1"
     inkscape:pageshadow="2"
     inkscape:zoom="0.98994949"
     inkscape:cx="139.69324"
     inkscape:cy="204.89663"
     inkscape:document-units="px"
     inkscape:current-layer="layer3"
     showgrid="false"
     units="px"
     fit-margin-top="25"
     fit-margin-left="25"
     fit-margin-right="25"
     fit-margin-bottom="25"
     inkscape:window-width="1680"
     inkscape:window-height="987"
     inkscape:window-x="-8"
     inkscape:window-y="-8"
     inkscape:window-maximized="1" />
  <metadata
     id="metadata7">
    <rdf:RDF>
      <cc:Work
         rdf:about="">
        <dc:format>image/svg+xml</dc:format>
        <dc:type
           rdf:resource="http://purl.org/dc/dcmitype/StillImage" />
        <dc:title />
      </cc:Work>
    </rdf:RDF>
  </metadata>
  <g
     inkscape:groupmode="layer"
     id="layer2"
     inkscape:label="Terminal"
     transform="translate(-1121.5782,-1141.379)">
    <path
       style="fill:#dddddd;fill-opacity:1;fill-rule:evenodd;stroke:#222222;stroke-width:1.5;stroke-linecap:butt;stroke-linejoin:miter;stroke-miterlimit:4;stroke-dasharray:none;stroke-opacity:1"
       d="m 1258.4345,1402.882 174.3924,-212.4245 -27.8775,-23.021 -185.5364,226.2244 c 0,0 -20.2392,25.388 -54.5134,21.8985 l -17.1113,-1.3833 -0.446,21.7639 40.4952,3.8354 c 0,0 13.9589,1.7063 23.6719,-1.3211 l 9.776,10.2806 -2.7751,2.7752 -1.766,0.063 -0.4415,4.6673 -3.0905,-0.2523 -1.4506,13.5604 -2.2706,-0.1892 -0.6033,7.3435 c 0,0 10.3022,0.3567 16.7689,4.4598 l 1.2042,-1.115 4.4598,4.5936 c 0,0 -27.9408,3.4787 -57.1749,33.7832 0,0 14.9404,40.1607 52.1353,82.3506 0,0 10.7036,10.3914 20.0246,18.2407 0,0 31.7125,28.2365 72.7089,46.811 0,0 29.2838,-26.4741 36.2,-55.6861 0,0 9.4952,7.2472 12.1442,30.0791 l 16.6509,-1.3876 7.5685,-7.6947 10.4699,10.7221 c 0,0 -0.2284,5.6544 0.7082,14.3065 l 3.7908,40.6735 20.6044,-1.1149 -1.5778,-17.599 c 0,0 -5.494,-32.0704 21.5073,-54.3675 l 226.0742,-185.6774 -20.5151,-25.9562 -212.6443,174.5575 -2.9881,-3.5679 0.4906,-0.3122 -8.0277,-8.0723 5.887,-5.441 -53.9639,-54.945 -5.7977,5.5302 -13.3795,-13.8254 c 0,0 -4.103,-19.1773 -27.9185,-28.0969 -0.3568,-0.446 -6.5113,-6.2437 -6.5113,-6.2437 l 5.8869,-5.5302 -54.3206,-54.5882 -5.6194,5.7085 -11.3502,-12.0192 -0.4683,0.5352 z"
       id="path4148"
       inkscape:connector-curvature="0"
       sodipodi:nodetypes="cccccccccccccccccccccccccccccccccccccccccccccccccccc" />
  </g>
  <g
     inkscape:groupmode="layer"
     id="layer3"
     inkscape:label="Label"
     transform="translate(1.2660546e-5,-2.390918e-5)">
    <g
       id="g4161"
       transform="translate(144.43185,-56.383933)">
      <g
         style="font-style:normal;font-variant:normal;font-weight:bold;font-stretch:normal;font-size:125px;line-height:110.00000238%;font-family:Overpass;-inkscape-font-specification:'Overpass, Bold';text-align:center;letter-spacing:0px;word-spacing:0px;writing-mode:lr-tb;text-anchor:middle;fill:#dddddd;fill-opacity:1;stroke:#222222;stroke-width:0.25;stroke-linecap:butt;stroke-linejoin:miter;stroke-miterlimit:4;stroke-dasharray:none;stroke-opacity:1"
         id="text4151">
        <path
           d="m 303.7803,169.03337 0,-87.524413 16.84571,0 0,87.524413 -16.84571,0 z"
           style=""
           id="path4142" />
        <path
           d="m 398.62894,169.03337 -34.72901,-51.02539 q -0.85449,-1.28174 -1.89209,-3.11279 -0.97656,-1.89209 -1.70898,-3.47901 0.1831,1.40381 0.24414,3.2959 0.12207,1.89209 0.12207,3.2959 l 0,51.02539 -16.78467,0 0,-87.524413 15.86914,0 33.87451,50.415043 q 0.79346,1.2207 1.83106,3.05175 1.0376,1.83106 1.83105,3.54004 -0.1831,-1.77002 -0.30517,-3.54004 -0.061,-1.83105 -0.061,-3.05175 l 0,-50.415043 16.72364,0 0,87.524413 -15.01465,0 z"
           style=""
           id="path4144" />
        <path
           d="m 436.16556,81.508957 29.54101,0 q 7.6294,0 13.73291,1.770019 6.10352,1.708985 10.80323,4.760743 4.76074,3.051757 8.11767,7.263183 3.35694,4.150391 5.49317,9.033208 2.19726,4.82177 3.17382,10.19287 1.0376,5.37109 1.0376,10.74218 0,5.00489 -0.97656,10.25391 -0.91553,5.18799 -2.99072,10.0708 -2.0752,4.82178 -5.43213,9.09424 -3.2959,4.27246 -8.11768,7.50732 -4.76074,3.17383 -11.04736,5.00489 -6.28662,1.83105 -14.34326,1.83105 l -28.9917,0 0,-87.524413 z m 31.00586,71.533203 q 6.53076,0 10.98633,-2.50244 4.45556,-2.56348 7.20214,-6.53076 2.74659,-4.02832 3.96729,-8.97217 1.2207,-4.94385 1.2207,-9.76563 0,-5.12695 -1.28174,-10.0708 -1.28173,-5.00488 -3.96728,-8.91113 -2.62451,-3.90625 -6.83594,-6.28662 -4.15039,-2.441407 -9.88769,-2.441407 l -15.50293,0 0,55.480957 14.09912,0 z"
           style=""
           id="path4146" />
      </g>
      <g
         style="font-style:normal;font-variant:normal;font-weight:normal;font-stretch:normal;font-size:45px;line-height:110.00000238%;font-family:Overpass;-inkscape-font-specification:'Overpass, Normal';text-align:center;letter-spacing:0px;word-spacing:0px;writing-mode:lr-tb;text-anchor:middle;fill:#222222;fill-opacity:1;stroke:none;stroke-width:1px;stroke-linecap:butt;stroke-linejoin:miter;stroke-opacity:1"
         id="text4157">
        <path
           d="m 270.29202,216.65604 0,-31.50879 4.68018,0 0,31.50879 -4.68018,0 z"
           style=""
           id="path4149" />
        <path
           d="m 296.87894,216.65604 0,-13.73291 q 0,-1.4502 -0.35157,-2.46094 -0.35156,-1.03272 -0.96679,-1.66992 -0.61524,-0.65918 -1.4502,-0.94483 -0.83496,-0.30761 -1.82373,-0.30761 -1.05469,0 -1.95556,0.28564 -0.90088,0.26367 -1.56006,0.87891 -0.65918,0.61523 -1.05469,1.64795 -0.37354,1.01074 -0.37354,2.48291 l 0,13.8208 -4.68017,0 0,-23.00537 4.68017,0 0,2.21923 q 1.12061,-1.42822 2.5708,-2.0874 1.4502,-0.65918 3.36182,-0.65918 1.80176,0 3.31787,0.52735 1.51612,0.50537 2.61475,1.66992 1.1206,1.16455 1.73584,3.03222 0.61523,1.86768 0.61523,4.57032 l 0,13.73291 -4.68017,0 z"
           style=""
           id="path4151" />
        <path
           d="m 316.47855,217.20535 q -2.1753,0 -3.95508,-0.81299 -1.75781,-0.83496 -3.01026,-2.37304 -1.25244,-1.56006 -1.93359,-3.80127 -0.65918,-2.24121 -0.65918,-5.07569 0,-2.83447 0.70313,-5.05371 0.70312,-2.24121 1.95556,-3.77929 1.27442,-1.56006 3.03223,-2.37305 1.75781,-0.81299 3.86719,-0.81299 1.88964,0 3.208,0.61524 1.34034,0.61523 2.21924,1.53808 l 0,-8.94287 4.68018,-2.17529 0,32.49756 -4.68018,0 0,-1.62598 q -0.92285,1.03271 -2.21924,1.604 -1.27441,0.57129 -3.208,0.57129 z m 0.65918,-4.4165 q 1.58203,0 2.79052,-0.68115 1.2085,-0.68116 1.97754,-1.9336 l 0,-10.12939 q -0.26367,-0.43945 -0.70312,-0.87891 -0.43946,-0.43945 -1.05469,-0.79101 -0.59326,-0.37354 -1.3623,-0.59327 -0.74708,-0.24169 -1.64795,-0.24169 -2.63672,0 -4.08692,1.95556 -1.45019,1.9336 -1.45019,5.64697 0,1.66993 0.37353,3.07618 0.39551,1.38427 1.09863,2.41699 0.7251,1.01074 1.73584,1.58203 1.03272,0.57129 2.32911,0.57129 z"
           style=""
           id="path4153" />
        <path
           d="m 333.41946,216.65604 0,-23.00537 4.68018,0 0,23.00537 -4.68018,0 z m 2.32911,-26.58692 q -0.59327,0 -1.12061,-0.21972 -0.50537,-0.21973 -0.90088,-0.59327 -0.37353,-0.3955 -0.59326,-0.90087 -0.21973,-0.52735 -0.21973,-1.12061 0,-0.59326 0.21973,-1.09863 0.21973,-0.52735 0.59326,-0.90088 0.39551,-0.39551 0.90088,-0.61524 0.52734,-0.21972 1.12061,-0.21972 0.59326,0 1.09863,0.21972 0.52734,0.21973 0.90088,0.61524 0.39551,0.37353 0.61523,0.90088 0.21973,0.50537 0.21973,1.09863 0,0.59326 -0.21973,1.12061 -0.21972,0.50537 -0.61523,0.90087 -0.37354,0.37354 -0.90088,0.59327 -0.50537,0.21972 -1.09863,0.21972 z"
           style=""
           id="path4155" />
        <path
           d="m 362.51126,216.65604 -4.48242,0 0,-1.97754 q -0.43945,0.46142 -1.05469,0.92285 -0.61523,0.43945 -1.40625,0.81299 -0.76904,0.35156 -1.73584,0.57129 -0.9668,0.21972 -2.10937,0.21972 -1.75782,0 -3.25196,-0.4834 -1.49414,-0.48339 -2.59277,-1.45019 -1.09863,-0.98877 -1.73584,-2.41699 -0.61523,-1.4502 -0.61523,-3.36182 0,-1.97754 0.74707,-3.40576 0.74707,-1.4502 1.97754,-2.37305 1.23046,-0.94482 2.8125,-1.38428 1.604,-0.43945 3.29589,-0.43945 1.58204,0 3.03223,0.35156 1.47217,0.32959 2.63672,1.01075 l 0,-1.27442 q 0,-1.29638 -0.30762,-2.19726 -0.28564,-0.90088 -0.90088,-1.4502 -0.59326,-0.57129 -1.51611,-0.81299 -0.92285,-0.26367 -2.19727,-0.26367 -2.15332,0 -3.73535,0.57129 -1.56006,0.57129 -2.83447,1.51611 l -1.38428,-3.84521 q 0.70313,-0.4834 1.60401,-0.90088 0.90088,-0.43945 1.97754,-0.76904 1.07666,-0.32959 2.3291,-0.50537 1.25244,-0.19776 2.68066,-0.19776 0.9668,0 1.99951,0.10986 1.03272,0.10987 1.99951,0.43946 0.98877,0.30762 1.84571,0.90088 0.8789,0.59326 1.51611,1.56006 0.65918,0.94482 1.03272,2.3291 0.37353,1.38427 0.37353,3.2959 l 0,14.89746 z m -9.93164,-3.60352 q 1.77979,0 3.14209,-0.7251 1.38428,-0.72509 2.30713,-1.73584 l 0,-3.51562 q -0.9668,-0.50537 -2.26318,-0.81299 -1.29639,-0.30762 -2.6587,-0.30762 -1.05468,0 -1.97753,0.19776 -0.92286,0.19775 -1.62598,0.6372 -0.68115,0.41748 -1.07666,1.09864 -0.39551,0.65918 -0.39551,1.604 0,1.64795 1.14258,2.61475 1.16455,0.94482 3.40576,0.94482 z"
           style=""
           id="path4157" />
        <path
           d="m 383.09964,216.65604 0,-13.73291 q 0,-1.4502 -0.35156,-2.46094 -0.35157,-1.03272 -0.9668,-1.66992 -0.61523,-0.65918 -1.45019,-0.94483 -0.83497,-0.30761 -1.82374,-0.30761 -1.05468,0 -1.95556,0.28564 -0.90088,0.26367 -1.56006,0.87891 -0.65918,0.61523 -1.05469,1.64795 -0.37353,1.01074 -0.37353,2.48291 l 0,13.8208 -4.68018,0 0,-23.00537 4.68018,0 0,2.21923 q 1.1206,-1.42822 2.5708,-2.0874 1.45019,-0.65918 3.36181,-0.65918 1.80176,0 3.31788,0.52735 1.51611,0.50537 2.61474,1.66992 1.12061,1.16455 1.73584,3.03222 0.61524,1.86768 0.61524,4.57032 l 0,13.73291 -4.68018,0 z"
           style=""
           id="path4159" />
        <path
           d="m 411.90579,216.65604 -4.48242,0 0,-1.97754 q -0.43945,0.46142 -1.05469,0.92285 -0.61523,0.43945 -1.40625,0.81299 -0.76904,0.35156 -1.73584,0.57129 -0.96679,0.21972 -2.10937,0.21972 -1.75781,0 -3.25196,-0.4834 -1.49414,-0.48339 -2.59277,-1.45019 -1.09863,-0.98877 -1.73584,-2.41699 -0.61523,-1.4502 -0.61523,-3.36182 0,-1.97754 0.74707,-3.40576 0.74707,-1.4502 1.97754,-2.37305 1.23047,-0.94482 2.8125,-1.38428 1.604,-0.43945 3.2959,-0.43945 1.58203,0 3.03222,0.35156 1.47217,0.32959 2.63672,1.01075 l 0,-1.27442 q 0,-1.29638 -0.30762,-2.19726 -0.28564,-0.90088 -0.90088,-1.4502 -0.59326,-0.57129 -1.51611,-0.81299 -0.92285,-0.26367 -2.19726,-0.26367 -2.15332,0 -3.73536,0.57129 -1.56005,0.57129 -2.83447,1.51611 l -1.38428,-3.84521 q 0.70313,-0.4834 1.60401,-0.90088 0.90088,-0.43945 1.97754,-0.76904 1.07666,-0.32959 2.3291,-0.50537 1.25244,-0.19776 2.68066,-0.19776 0.9668,0 1.99951,0.10986 1.03272,0.10987 1.99952,0.43946 0.98877,0.30762 1.8457,0.90088 0.87891,0.59326 1.51611,1.56006 0.65918,0.94482 1.03272,2.3291 0.37353,1.38427 0.37353,3.2959 l 0,14.89746 z m -9.93164,-3.60352 q 1.77979,0 3.14209,-0.7251 1.38428,-0.72509 2.30713,-1.73584 l 0,-3.51562 q -0.9668,-0.50537 -2.26318,-0.81299 -1.29639,-0.30762 -2.65869,-0.30762 -1.05469,0 -1.97754,0.19776 -0.92286,0.19775 -1.62598,0.6372 -0.68115,0.41748 -1.07666,1.09864 -0.39551,0.65918 -0.39551,1.604 0,1.64795 1.14258,2.61475 1.16455,0.94482 3.40576,0.94482 z"
           style=""
           id="path4161" />
        <path
           d="m 428.47318,217.20535 q -1.01075,0 -1.84571,-0.19775 -0.81299,-0.19776 -1.49414,-0.54932 -0.68115,-0.35156 -1.23047,-0.79101 -0.52734,-0.46143 -0.94482,-0.98877 l 0,8.85498 -4.68018,2.17529 0,-32.0581 4.68018,0 0,1.8457 q 0.90088,-1.01074 2.21924,-1.6919 1.31836,-0.68115 3.2959,-0.68115 2.17529,0 3.9331,0.83496 1.75781,0.81299 2.98828,2.37305 1.23047,1.53809 1.88965,3.7793 0.65918,2.24121 0.65918,5.07568 0,2.83447 -0.70313,5.07568 -0.68115,2.21924 -1.93359,3.7793 -1.23047,1.53809 -2.98828,2.35107 -1.73584,0.81299 -3.84521,0.81299 z m -0.65918,-4.4165 q 2.65869,0 4.04296,-1.95557 1.40625,-1.95556 1.40625,-5.64697 0,-1.66992 -0.37353,-3.07617 -0.35156,-1.40625 -1.05469,-2.41699 -0.70312,-1.01075 -1.71387,-1.58204 -1.01074,-0.57128 -2.30712,-0.57128 -1.64795,0 -2.87842,0.68115 -1.2085,0.65918 -1.97754,1.91162 l 0,9.99756 q 0.39551,0.52734 0.8789,1.01074 0.50538,0.4834 1.09864,0.85693 0.61523,0.35157 1.31836,0.57129 0.72509,0.21973 1.56006,0.21973 z"
           style=""
           id="path4163" />
        <path
           d="m 452.95071,217.20535 q -2.41699,0 -4.37255,-0.81299 -1.9336,-0.81298 -3.2959,-2.35107 -1.36231,-1.56006 -2.10938,-3.7793 -0.7251,-2.24121 -0.7251,-5.07568 0,-2.83447 0.7251,-5.07568 0.74707,-2.24121 2.10938,-3.7793 1.3623,-1.56006 3.2959,-2.37305 1.95556,-0.83496 4.37255,-0.83496 2.39502,0 4.35059,0.83496 1.95557,0.81299 3.31787,2.37305 1.36231,1.53809 2.10938,3.7793 0.74707,2.24121 0.74707,5.07568 0,2.83447 -0.74707,5.07568 -0.74707,2.21924 -2.10938,3.7793 -1.3623,1.53809 -3.31787,2.35107 -1.95557,0.81299 -4.35059,0.81299 z m 0,-4.4165 q 1.34034,0 2.417,-0.52734 1.09863,-0.52735 1.8457,-1.49415 0.76904,-0.98877 1.16455,-2.39502 0.41748,-1.40625 0.41748,-3.18603 0,-1.77979 -0.41748,-3.18604 -0.39551,-1.42822 -1.16455,-2.41699 -0.74707,-0.98877 -1.8457,-1.51611 -1.07666,-0.52734 -2.417,-0.52734 -1.34033,0 -2.41699,0.52734 -1.07666,0.52734 -1.8457,1.51611 -0.74707,0.98877 -1.16455,2.41699 -0.39551,1.40625 -0.39551,3.18604 0,1.77978 0.39551,3.18603 0.41748,1.40625 1.16455,2.39502 0.76904,0.9668 1.8457,1.49415 1.07666,0.52734 2.41699,0.52734 z"
           style=""
           id="path4165" />
        <path
           d="m 469.29837,216.65604 0,-30.27832 4.68018,-2.21924 0,32.49756 -4.68018,0 z"
           style=""
           id="path4167" />
        <path
           d="m 480.98782,216.65604 0,-23.00537 4.68018,0 0,23.00537 -4.68018,0 z m 2.32911,-26.58692 q -0.59327,0 -1.12061,-0.21972 -0.50537,-0.21973 -0.90088,-0.59327 -0.37353,-0.3955 -0.59326,-0.90087 -0.21973,-0.52735 -0.21973,-1.12061 0,-0.59326 0.21973,-1.09863 0.21973,-0.52735 0.59326,-0.90088 0.39551,-0.39551 0.90088,-0.61524 0.52734,-0.21972 1.12061,-0.21972 0.59326,0 1.09863,0.21972 0.52734,0.21973 0.90088,0.61524 0.3955,0.37353 0.61523,0.90088 0.21973,0.50537 0.21973,1.09863 0,0.59326 -0.21973,1.12061 -0.21973,0.50537 -0.61523,0.90087 -0.37354,0.37354 -0.90088,0.59327 -0.50537,0.21972 -1.09863,0.21972 z"
           style=""
           id="path4169" />
        <path
           d="m 499.55472,217.20535 q -1.36231,0 -2.65869,-0.26367 -1.29639,-0.26367 -2.43897,-0.74707 -1.1206,-0.4834 -2.04346,-1.16455 -0.92285,-0.70313 -1.53808,-1.56006 l 3.31787,-2.83447 q 0.35156,0.32959 0.85693,0.74707 0.50537,0.39551 1.16455,0.74707 0.65918,0.35156 1.47217,0.59326 0.81299,0.2417 1.77979,0.2417 0.8789,0 1.62597,-0.13184 0.74707,-0.13183 1.27442,-0.41748 0.54931,-0.28564 0.83496,-0.74707 0.30762,-0.4834 0.30762,-1.18652 0,-0.81299 -0.57129,-1.38428 -0.54932,-0.59326 -1.4502,-1.05468 -0.90088,-0.4834 -2.04346,-0.90088 -1.14257,-0.43946 -2.30712,-0.92286 -1.07666,-0.46142 -2.10938,-1.01074 -1.03271,-0.54931 -1.8457,-1.31836 -0.79102,-0.76904 -1.29639,-1.82373 -0.4834,-1.07666 -0.4834,-2.59277 0,-1.53809 0.61524,-2.72461 0.6372,-1.18652 1.71386,-1.97754 1.09864,-0.81299 2.54883,-1.23047 1.47217,-0.41748 3.14209,-0.41748 1.47217,0 2.70264,0.28565 1.25244,0.28564 2.24121,0.76904 1.01074,0.4834 1.77978,1.1206 0.76905,0.61524 1.34034,1.29639 l -3.38379,2.68067 q -0.30762,-0.30762 -0.74707,-0.63721 -0.41748,-0.35156 -0.98877,-0.63721 -0.57129,-0.28564 -1.29639,-0.46142 -0.7251,-0.19776 -1.64795,-0.19776 -1.49414,0 -2.37304,0.54932 -0.85694,0.54931 -0.85694,1.58203 0,0.65918 0.46143,1.16455 0.46142,0.4834 1.25244,0.90088 0.79101,0.41748 1.80176,0.81299 1.03271,0.37353 2.15332,0.81299 1.18652,0.46142 2.3291,1.03271 1.14258,0.57129 2.02148,1.40625 0.90088,0.83496 1.42823,2.02148 0.54931,1.18653 0.54931,2.85645 0,1.64795 -0.61523,2.92236 -0.61524,1.25244 -1.75781,2.10938 -1.12061,0.83496 -2.72461,1.25244 -1.58204,0.43945 -3.5376,0.43945 z"
           style=""
           id="path4171" />
      </g>
    </g>
  </g>
</svg>
