<?xml version="1.0" encoding="UTF-8" standalone="no"?>
<!-- Created with Inkscape (http://www.inkscape.org/) -->

<svg
   xmlns:dc="http://purl.org/dc/elements/1.1/"
   xmlns:cc="http://creativecommons.org/ns#"
   xmlns:rdf="http://www.w3.org/1999/02/22-rdf-syntax-ns#"
   xmlns:svg="http://www.w3.org/2000/svg"
   xmlns="http://www.w3.org/2000/svg"
   xmlns:sodipodi="http://sodipodi.sourceforge.net/DTD/sodipodi-0.dtd"
   xmlns:inkscape="http://www.inkscape.org/namespaces/inkscape"
   width="677.62183"
   height="581.24835"
   viewBox="0 0 677.62183 581.24835"
   id="svg2"
   version="1.1"
   inkscape:version="0.91 r13725"
   sodipodi:docname="IND.svg"
   inkscape:export-filename="C:\Users\Paul Bogard\Dropbox\Documents\Websites\Flight Log\Images\Terminals\IND.png"
   inkscape:export-xdpi="89.996498"
   inkscape:export-ydpi="89.996498">
  <defs
     id="defs4" />
  <sodipodi:namedview
     id="base"
     pagecolor="#ffffff"
     bordercolor="#666666"
     borderopacity="1.0"
     inkscape:pageopacity="1"
     inkscape:pageshadow="2"
     inkscape:zoom="0.98994949"
     inkscape:cx="290.71105"
     inkscape:cy="204.89663"
     inkscape:document-units="px"
     inkscape:current-layer="layer3"
     showgrid="false"
     units="px"
     fit-margin-top="25"
     fit-margin-left="25"
     fit-margin-right="25"
     fit-margin-bottom="25"
     inkscape:window-width="1680"
     inkscape:window-height="987"
     inkscape:window-x="1672"
     inkscape:window-y="-8"
     inkscape:window-maximized="1" />
  <metadata
     id="metadata7">
    <rdf:RDF>
      <cc:Work
         rdf:about="">
        <dc:format>image/svg+xml</dc:format>
        <dc:type
           rdf:resource="http://purl.org/dc/dcmitype/StillImage" />
        <dc:title></dc:title>
      </cc:Work>
    </rdf:RDF>
  </metadata>
  <g
     inkscape:groupmode="layer"
     id="layer2"
     inkscape:label="Terminal"
     transform="translate(-1121.5782,-1141.379)">
    <path
       style="fill:#dddddd;fill-opacity:1;fill-rule:evenodd;stroke:#222222;stroke-width:1.5;stroke-linecap:butt;stroke-linejoin:miter;stroke-miterlimit:4;stroke-dasharray:none;stroke-opacity:1"
       d="m 1258.4345,1402.882 174.3924,-212.4245 -27.8775,-23.021 -185.5364,226.2244 c 0,0 -20.2392,25.388 -54.5134,21.8985 l -17.1113,-1.3833 -0.446,21.7639 40.4952,3.8354 c 0,0 13.9589,1.7063 23.6719,-1.3211 l 9.776,10.2806 -2.7751,2.7752 -1.766,0.063 -0.4415,4.6673 -3.0905,-0.2523 -1.4506,13.5604 -2.2706,-0.1892 -0.6033,7.3435 c 0,0 10.3022,0.3567 16.7689,4.4598 l 1.2042,-1.115 4.4598,4.5936 c 0,0 -27.9408,3.4787 -57.1749,33.7832 0,0 14.9404,40.1607 52.1353,82.3506 0,0 10.7036,10.3914 20.0246,18.2407 0,0 31.7125,28.2365 72.7089,46.811 0,0 29.2838,-26.4741 36.2,-55.6861 0,0 9.4952,7.2472 12.1442,30.0791 l 16.6509,-1.3876 7.5685,-7.6947 10.4699,10.7221 c 0,0 -0.2284,5.6544 0.7082,14.3065 l 3.7908,40.6735 20.6044,-1.1149 -1.5778,-17.599 c 0,0 -5.494,-32.0704 21.5073,-54.3675 l 226.0742,-185.6774 -20.5151,-25.9562 -212.6443,174.5575 -2.9881,-3.5679 0.4906,-0.3122 -8.0277,-8.0723 5.887,-5.441 -53.9639,-54.945 -5.7977,5.5302 -13.3795,-13.8254 c 0,0 -4.103,-19.1773 -27.9185,-28.0969 -0.3568,-0.446 -6.5113,-6.2437 -6.5113,-6.2437 l 5.8869,-5.5302 -54.3206,-54.5882 -5.6194,5.7085 -11.3502,-12.0192 -0.4683,0.5352 z"
       id="path4148"
       inkscape:connector-curvature="0"
       sodipodi:nodetypes="cccccccccccccccccccccccccccccccccccccccccccccccccccc" />
  </g>
  <g
     inkscape:groupmode="layer"
     id="layer3"
     inkscape:label="Label"
     transform="translate(1.2660546e-5,-2.390918e-5)">
    <g
       id="g4161"
       transform="translate(144.43185,-56.383933)">
      <text
         sodipodi:linespacing="110%"
         id="text4151"
         y="169.03337"
         x="404.06107"
         style="font-style:normal;font-variant:normal;font-weight:bold;font-stretch:normal;font-size:125px;line-height:110.00000238%;font-family:Overpass;-inkscape-font-specification:'Overpass, Bold';text-align:center;letter-spacing:0px;word-spacing:0px;writing-mode:lr-tb;text-anchor:middle;fill:#dddddd;fill-opacity:1;stroke:#222222;stroke-width:0.25;stroke-linecap:butt;stroke-linejoin:miter;stroke-miterlimit:4;stroke-dasharray:none;stroke-opacity:1"
         xml:space="preserve"><tspan
           y="169.03337"
           x="404.06107"
           id="tspan4153"
           sodipodi:role="line">IND</tspan><tspan
           id="tspan4155"
           y="306.53339"
           x="404.06107"
           sodipodi:role="line" /></text>
      <text
         sodipodi:linespacing="110%"
         id="text4157"
         y="216.65604"
         x="388.21927"
         style="font-style:normal;font-variant:normal;font-weight:normal;font-stretch:normal;font-size:45px;line-height:110.00000238%;font-family:Overpass;-inkscape-font-specification:'Overpass, Normal';text-align:center;letter-spacing:0px;word-spacing:0px;writing-mode:lr-tb;text-anchor:middle;fill:#222222;fill-opacity:1;stroke:none;stroke-width:1px;stroke-linecap:butt;stroke-linejoin:miter;stroke-opacity:1"
         xml:space="preserve"><tspan
           y="216.65604"
           x="388.21927"
           id="tspan4159"
           sodipodi:role="line">Indianapolis</tspan></text>
    </g>
  </g>
</svg>
