<?xml version="1.0" encoding="UTF-8" standalone="no"?>
<!-- Created with Inkscape (http://www.inkscape.org/) -->

<svg
   xmlns:dc="http://purl.org/dc/elements/1.1/"
   xmlns:cc="http://creativecommons.org/ns#"
   xmlns:rdf="http://www.w3.org/1999/02/22-rdf-syntax-ns#"
   xmlns:svg="http://www.w3.org/2000/svg"
   xmlns="http://www.w3.org/2000/svg"
   xmlns:sodipodi="http://sodipodi.sourceforge.net/DTD/sodipodi-0.dtd"
   xmlns:inkscape="http://www.inkscape.org/namespaces/inkscape"
   width="2072.3872"
   height="1822.0337"
   viewBox="0 0 2072.3872 1822.0338"
   id="svg2"
   version="1.1"
   inkscape:version="0.91 r13725"
   sodipodi:docname="JFK.svg"
   style="enable-background:new"
   inkscape:export-filename="C:\Users\paulb\Dropbox\Projects\Terminal Silhouettes\Silhouettes\png\JFK.png"
   inkscape:export-xdpi="89.998337"
   inkscape:export-ydpi="89.998337">
  <sodipodi:namedview
     id="base"
     pagecolor="#ffffff"
     bordercolor="#666666"
     borderopacity="1.0"
     inkscape:pageopacity="1"
     inkscape:pageshadow="2"
     inkscape:zoom="0.5"
     inkscape:cx="1022.9895"
     inkscape:cy="919.23591"
     inkscape:document-units="px"
     inkscape:current-layer="layer10"
     showgrid="false"
     units="px"
     fit-margin-top="25"
     fit-margin-left="25"
     fit-margin-right="25"
     fit-margin-bottom="25"
     inkscape:window-width="1920"
     inkscape:window-height="1137"
     inkscape:window-x="1912"
     inkscape:window-y="-8"
     inkscape:window-maximized="1"
     showguides="true"
     inkscape:guide-bbox="true"
     inkscape:object-nodes="true"
     inkscape:snap-object-midpoints="false"
     inkscape:snap-intersection-paths="true"
     inkscape:snap-smooth-nodes="false" />
  <title
     id="title4147">JFK</title>
  <defs
     id="defs4" />
  <metadata
     id="metadata7">
    <rdf:RDF>
      <cc:Work
         rdf:about="">
        <dc:format>image/svg+xml</dc:format>
        <dc:type
           rdf:resource="http://purl.org/dc/dcmitype/StillImage" />
        <dc:title>JFK</dc:title>
        <dc:creator>
          <cc:Agent>
            <dc:title>Paul Bogard</dc:title>
          </cc:Agent>
        </dc:creator>
        <dc:subject>
          <rdf:Bag>
            <rdf:li>JFK</rdf:li>
          </rdf:Bag>
        </dc:subject>
        <dc:description>Terminal silhouette for JFK (New York-JFK)</dc:description>
      </cc:Work>
    </rdf:RDF>
  </metadata>
  <g
     inkscape:label="Terminals"
     id="layer4"
     inkscape:groupmode="layer"
     transform="translate(-1285.0767,-628.88865)">
    <g
       inkscape:label="Terminal 8"
       id="layer10"
       inkscape:groupmode="layer"
       style="display:inline">
      <path
         style="display:inline;fill:#dddddd;fill-opacity:1;fill-rule:evenodd;stroke:#222222;stroke-width:1.50000012;stroke-linecap:butt;stroke-linejoin:miter;stroke-miterlimit:4;stroke-dasharray:none;stroke-opacity:1"
         d="m 1002.8594,633.41016 -32.7344,18.50195 -0.75586,-1.33789 -298.47461,168.70898 0.75586,1.33985 -37.34375,21.10937 -3.18555,-5.63281 18.09766,-10.23047 -3.12109,-5.52148 1.63086,-0.92188 -4.72852,-8.36523 -1.63086,0.92187 -2.34961,-4.15625 -3.41992,1.9336 5.41211,9.57421 -8.9961,5.08399 0.80469,1.41992 -6.31445,3.56836 1.78516,3.15625 -3.05274,1.72461 5.38477,9.52539 -2.41797,1.36914 10.67969,18.89648 -45.38086,25.6504 0.46289,0.81836 -1.85938,1.05078 3.49024,6.17578 -18.15235,10.25976 -0.83984,-1.48437 -3.49609,1.97656 0.83984,1.48438 -5.6543,3.19531 1.9336,3.42383 c 22.26533,-12.58743 41.17165,-23.27122 61.15234,-34.56641 l -1.93359,-3.42383 -1.11524,0.63086 -0.83984,-1.48437 -4.76172,2.6914 -1.2207,-2.16015 19.26757,-10.89063 2.06055,3.64453 43.44727,-24.55859 0.75781,1.33984 12.27539,-6.93945 c 4.34356,7.68835 8.68929,15.37546 13.03516,23.0625 2.78328,-1.57325 4.93055,-2.78606 7.6621,-4.33008 -4.34316,-7.68857 -8.68936,-15.37542 -13.03515,-23.0625 l 40.80469,-23.06641 c 4.3451,7.68784 8.69108,15.37519 13.03711,23.0625 2.55384,-1.4437 5.1082,-2.88648 7.66211,-4.33007 -4.34544,-7.68728 -8.69026,-15.37492 -13.03516,-23.0625 l 35.03906,-19.80664 c 4.34511,7.68784 8.69108,15.37518 13.03711,23.0625 2.55425,-1.44364 5.10792,-2.88828 7.66211,-4.33203 -4.34672,-7.68656 -8.69075,-15.37463 -13.03516,-23.0625 l 39.80078,-22.4961 c 4.34676,7.68654 8.69104,15.37447 13.03516,23.0625 2.55467,-1.44404 5.10939,-2.88799 7.66406,-4.33203 -4.34637,-7.68713 -8.69166,-15.37485 -13.03711,-23.0625 l 33.51563,-18.94336 22.125,6.14453 15.55859,27.52539 5.20703,-2.94336 8.41211,14.87891 12.64649,-7.14844 -8.41016,-14.8789 6.69531,-3.78516 -15.55859,-27.52539 6.14453,-22.125 1.82227,-1.0293 c 4.34626,7.68718 8.69171,15.37483 13.03711,23.0625 2.55425,-1.44364 5.10793,-2.88828 7.66211,-4.33203 -4.34672,-7.68656 -8.69075,-15.37463 -13.03516,-23.0625 l 35.13281,-19.85937 c 4.3456,7.68719 8.6904,15.37483 13.03516,23.0625 2.55426,-1.44412 5.10966,-2.8862 7.66406,-4.33008 -4.34508,-7.68785 -8.69117,-15.37514 -13.03711,-23.0625 l 1.2832,-0.72657 -0.75585,-1.33789 32.73243,-18.5039 z m -21.15628,47.88672 7.2754,12.86914 -2.60352,1.47265 -7.27539,-12.87109 z m -42.79492,24.18945 7.27344,12.87109 -2.60352,1.4707 -7.27539,-12.86914 z m -95.82226,54.16211 7.27539,12.87109 -2.60352,1.4707 -7.27539,-12.86914 z m -47.46289,26.82812 7.27343,12.8711 -2.60351,1.47265 -7.27539,-12.87109 z m -42.70313,24.13867 7.27344,12.86915 -2.60352,1.47265 -7.27539,-12.87109 z m -48.46875,27.39649 7.27539,12.86914 -2.60547,1.47266 -7.27343,-12.8711 z m 375.79883,0.5918 -6.9434,3.92382 10.0489,17.7793 -0.6934,0.39258 1.2598,2.23047 0.6953,-0.39258 2.6055,4.61133 -21.5684,12.1914 -1.7832,6.41993 -32.1738,18.18554 -0.7559,-1.33789 -13.0937,7.40039 -32.04301,-56.68945 1.19726,-0.67774 -4.37304,-7.73632 -15.04493,8.5039 4.37305,7.73633 1.19922,-0.67773 20.64844,36.52929 -2.82813,1.59766 11.39644,20.16016 -8.03511,4.54297 0.75781,1.33789 -11.3457,6.41406 c -3.69918,-6.54763 -7.40046,-13.09408 -11.10156,-19.64063 -2.55384,1.44371 -5.10821,2.88648 -7.66211,4.33008 3.69847,6.54804 7.40005,13.09431 11.10156,19.64063 l -67.88672,38.37304 1.17774,2.08203 -1.57813,0.89258 c -4.09228,-7.24135 -8.18579,-14.482 -12.2793,-21.72265 -2.55384,1.4437 -5.1082,2.88648 -7.6621,4.33007 4.09107,7.24268 8.18535,14.48355 12.27929,21.72461 l -45.70117,25.83011 c -4.09227,-7.24136 -8.18579,-14.48202 -12.2793,-21.72268 -2.57262,1.45397 -5.3878,3.04647 -7.66211,4.33203 4.09397,7.24039 8.18656,14.48155 12.2793,21.72265 l -50.66406,28.6367 c -4.09276,-7.2407 -8.18505,-14.4816 -12.27735,-21.7226 -2.57255,1.4546 -5.38953,3.0444 -7.66406,4.33 4.0933,7.2415 8.18628,14.4831 12.2793,21.7247 l -18.49805,10.455 0.75586,1.3399 -22.1582,12.5254 0.25195,0.4453 -16.06055,9.0781 c -4.64935,-8.2236 -9.47463,-16.762 -13.28711,-23.5078 -2.78448,1.5725 -4.932,2.7858 -7.66406,4.3301 l 5.08789,9.0019 -10.49609,5.9356 1.25976,2.2304 -12.27539,6.9395 2.14649,3.793 c 7.59018,-4.2909 15.18063,-8.5814 22.77148,-12.8711 2.74191,4.8484 4.71298,8.3354 7.41211,13.1132 l 3.19141,-1.8046 11.51172,20.3652 20.5332,-11.6055 0.25195,0.4453 8.10157,-4.58 c 4.34559,7.6872 8.6904,15.3748 13.03515,23.0625 2.55501,-1.4428 5.10967,-2.8862 7.66407,-4.3301 -4.34506,-7.6879 -8.69116,-15.3751 -13.03711,-23.0625 l 6.39453,-3.6153 0.75586,1.3399 39.07617,-22.0859 c 4.09229,7.2413 8.18579,14.482 12.27929,21.7226 2.78359,-1.5734 4.93028,-2.7878 7.66211,-4.332 -4.09397,-7.2404 -8.18656,-14.4816 -12.27929,-21.7227 l 51.23242,-28.959 5.73633,10.1485 -4.66797,2.6386 4.22266,7.4708 4.66796,-2.6387 2.32032,4.1035 2.52929,-1.4297 -12.27929,-21.7227 38.92968,-22.0039 1.17774,2.0821 6.54687,-3.6992 4.54102,8.0332 42.72461,75.5859 -19.91602,71.6992 15.47461,-8.7461 2.06055,-7.4199 17.32031,-9.791 2.67774,4.7422 34.08983,-19.2696 8.9219,15.7813 -20.834,11.7773 5.3516,9.4668 179.0683,-101.2168 -5.3515,-9.4687 -20.8321,11.7754 -8.9199,-15.7813 2.9492,-1.6679 -2.6797,-4.7403 -2.9492,1.668 -1.4844,-2.625 -9.0722,5.1289 1.4844,2.623 -37.1993,21.0274 -65.9355,-116.65236 37.1973,-21.02539 -23.045,-40.76953 27.5918,-15.5957 -4.9258,-8.71094 0.6954,-0.39258 -1.2618,-2.23242 -0.6953,0.39258 z m -104.36914,84.42578 5.33984,9.44922 -2.60351,1.4707 -5.3418,-9.44727 z m -77.12695,43.5957 6.51757,11.53125 -2.60351,1.47266 -6.51953,-11.53125 z m -53.36329,30.16211 6.51758,11.53129 -2.60351,1.4726 -6.51758,-11.53123 z m -58.32617,32.96879 6.51758,11.5312 -2.60351,1.4727 -6.51758,-11.5313 z m 373.49215,15.3242 8.92,15.7832 -119.2578,67.4082 -8.92,-15.7813 z m -330.24996,13.1445 6.51758,11.5313 -2.60352,1.4726 -6.51758,-11.5312 z m -107.62305,7.9219 c 2.76984,4.8978 4.99788,8.8445 7.52735,13.3164 -0.86737,0.4917 -1.73484,0.9832 -2.60352,1.4726 -2.75206,-4.8665 -4.80192,-8.4928 -7.52734,-13.3164 z m 507.86331,16.1816 -6.2227,3.5176 -1.2812,-2.2637 -3.0293,1.7129 -1.627,-2.8789 c -21.2469,12.0084 -42.4923,24.0194 -63.7383,36.0293 l 1.627,2.877 c -3.2139,1.8187 -6.4295,3.6343 -9.6445,5.4511 l 1.2793,2.2657 -6.6602,3.7636 2.0723,3.668 6.6601,-3.7656 1.2813,2.2656 c 3.1639,-1.7874 6.6714,-3.7712 9.6425,-5.4532 l 1.627,2.8809 c 21.247,-12.0112 42.4948,-24.0209 63.7422,-36.0313 l -1.627,-2.8789 3.0293,-1.7129 -1.2793,-2.2656 6.2207,-3.5156 c -0.689,-1.223 -1.3807,-2.4444 -2.0722,-3.666 z m -454.12893,4.5899 7.27539,12.8691 -2.60352,1.4727 -7.27539,-12.8711 z"
         transform="translate(742.80347,21.500456)"
         id="path4522-5-7-0"
         inkscape:connector-curvature="0"
         sodipodi:nodetypes="ccccccccccccccccccccccccccccccccccccccccccccccccccccccccccccccccccccccccccccccccccccccccccccccccccccccccccccccccccccccccccccccccccccccccccccccccccccccccccccccccccccccccccccccccccccccccccccccccccccccccccccccccccccccccccccccccccccccccccccccccccccccccccccccccccccccccccccccccccccccccccc" />
    </g>
    <g
       style="display:inline"
       inkscape:label="Terminal 7"
       id="layer9"
       inkscape:groupmode="layer">
      <path
         style="fill:#dddddd;fill-opacity:1;fill-rule:evenodd;stroke:#222222;stroke-width:1.50000012;stroke-linecap:butt;stroke-linejoin:miter;stroke-miterlimit:4;stroke-dasharray:none;stroke-opacity:1"
         d="m 2442.8815,985.50994 0.7466,-3.22077 3.3898,0.78573 0.589,-2.53495 6.9631,1.61398 c 0.3171,-1.36798 0.6342,-2.73599 0.9512,-4.10399 l -6.9644,-1.61428 0.5873,-2.53393 -3.3911,-0.78605 0.7482,-3.22173 -8.5969,-1.99266 4.2135,-18.17851 48.7275,11.29443 1.91,-8.24043 -48.7275,-11.29445 2.6744,-11.53805 32.7161,7.58319 0.5731,-2.47275 -31.7483,-7.35887 4.1505,-11.81542 33.7047,7.81233 0.7915,-3.41452 -33.5539,-7.77737 0.8635,-7.30293 34.6256,8.02583 7.7573,-33.4667 -2.6394,-0.61173 0.6896,-2.97492 6.3569,1.47347 -2.7835,12.00884 -2.5521,-0.59156 -3.6567,15.77597 18.8146,4.36098 3.6567,-15.77595 -5.7833,-1.34052 2.7834,-12.00883 -3.7683,-0.87347 4.3661,-18.8367 9.5517,2.21396 4.1207,-17.7779 -9.5517,-2.21397 2.6198,-11.30254 3.7684,0.87347 5.7307,-24.72405 -7.3,-1.69204 -8.2418,-1.91034 -5.981,-1.38633 2.5028,-10.79784 c -2.3622,-0.54753 -4.7245,-1.09506 -7.0867,-1.6426 2.5502,-11.0033 5.4015,-23.30344 7.7565,-33.46407 l 2.9431,-2.49644 -1.1928,-1.40593 -3.4085,2.89015 c -0.4576,1.97374 -0.9151,3.9475 -1.3726,5.92126 l -6.7978,-1.57568 -2.4482,10.56236 c -33.9562,-7.87067 -67.9125,-15.74129 -101.8687,-23.61189 2.6476,-11.4222 5.2952,-22.84437 7.9426,-34.2666 l 0,-0.002 c -0.3139,-2.57142 -0.6275,-5.14287 -0.9409,-7.71436 l -1.8307,0.22267 0.901,7.39525 -0.7737,3.33788 -4.8987,-1.13546 c 0.2849,-1.22927 0.5699,-2.45853 0.8548,-3.6878 -1.0369,-8.5036 -2.0734,-17.00724 -3.1101,-25.51086 l -1.831,0.22391 3.0708,25.18932 c -4.0863,17.62958 -8.1726,35.25916 -12.2589,52.88873 l -19.1476,-4.43816 -24.4678,105.56153 26.1406,6.05908 11.2691,-48.61827 7.2961,1.69117 -0.7296,3.14787 12.1844,2.8242 -3.3033,14.25146 5.994,1.38936 -2.4892,10.73928 -5.994,-1.38932 -7.7572,33.46665 61.9331,14.35532 -2.4374,6.93811 -58.3781,-13.53132 -0.7914,3.41453 58.5289,13.56631 -1.4721,12.43623 -53.275,-12.34849 -0.5732,2.47272 54.2427,12.57285 -2.6743,11.53804 -54.2428,-12.57282 -1.91,8.24045 54.2429,12.57281 -4.2139,18.17982 c -18.5793,-4.3078 -37.1589,-8.61435 -55.7385,-12.92087 l -0.7465,3.2208 -3.3912,-0.78605 -0.5876,2.53522 -6.9631,-1.61397 c -0.3185,1.36765 -0.6355,2.73567 -0.9525,4.10367 l 6.9644,1.61428 -0.5874,2.53393 3.3912,0.78605 -0.7468,3.22205 c 23.7762,5.51106 47.5524,11.02208 71.3286,16.53312 z m 59.4177,-113.51671 -6.357,-1.47347 0.49,-2.11375 2.6393,0.61178 7.7571,-33.46668 -7.9374,-1.83979 0.4855,-2.09432 11.655,2.70148 -1.5555,6.71079 -2.5521,-0.59155 -4.1207,17.77791 2.5521,0.59155 z m 9.6059,-41.44311 -9.7714,-2.26493 2.3469,-10.12531 4.7088,1.09146 -2.156,9.30194 5.0626,1.17346 z"
         id="path4522-5-7"
         inkscape:connector-curvature="0"
         sodipodi:nodetypes="ccccccccccccccccccccccccccccccccccccccccccccccccccccccccccccccccccccccccccccccccccccccccccccccccccccccccccccccccccccccccccccccc" />
    </g>
    <g
       inkscape:label="Terminal 5"
       id="layer7"
       inkscape:groupmode="layer"
       style="display:inline">
      <path
         inkscape:connector-curvature="0"
         id="rect6654"
         d="m 2790.3124,985.1023 -2.972,4.98052 15.1559,9.03933 -11.762,19.72175 5.6039,3.3425 -8.2945,13.9086 26.0681,15.5475 c -20.5998,1.7534 -40.7384,7.072 -59.5177,15.7186 l -4.1765,-3.4054 -11.1246,13.6425 6.6389,5.414 -40.0554,49.1215 -45.9717,-37.4871 -2.0895,2.563 -2.6973,-2.1997 -1.6447,2.0169 -5.5402,-4.5168 c -0.8879,1.0878 -1.775,2.1762 -2.6622,3.2646 l 5.5403,4.5168 -1.644,2.0161 2.6972,2.1997 -2.0895,2.5618 48.4193,39.4836 c 0.7019,0.6974 1.5261,1.2597 2.4316,1.6586 1.6741,0.7244 3.5443,0.8596 5.3052,0.3835 l 11.8298,9.6463 1.6441,-2.0162 5.9632,4.8632 2.6616,-3.2639 -5.9633,-4.8618 1.6458,-2.0184 -11.8284,-9.6435 c 0.066,-1.1733 -0.1243,-2.347 -0.5592,-3.4388 l 40.6843,-49.8927 2.3584,-2.8922 c 0,0 6.0534,-7.423 5.815,-13.1397 0.2451,-0.1226 0.4904,-0.2445 0.7361,-0.3659 l 1.5866,3.6319 c 21.2694,-9.3068 44.2347,-14.111 67.4511,-14.1105 l 5.4161,3.2314 1.8333,-3.0714 c 0.8327,0.012 1.6653,0.03 2.4978,0.054 l -0.899,15.0839 c 4.9304,0.2873 9.8439,0.813 14.7235,1.5751 l -4.201,26.6556 c 12.0509,1.8971 23.7628,5.5326 34.7698,10.7929 l 4.9022,-10.2411 c 9.8544,4.6608 19.1195,10.4771 27.6001,17.3263 8.2167,6.7718 15.6189,14.4751 22.0578,22.9551 l 7.6196,-5.8477 c 2.7588,3.5184 5.389,7.1357 7.8854,10.8448 l -14.1919,10.7205 c -1.6113,-2.3606 -3.283,-4.6794 -5.0135,-6.9541 l -6.5848,5.0348 c -6.4982,-8.5553 -13.8494,-16.4278 -21.9402,-23.496 l -2.9103,3.3546 c 9.9865,8.7585 18.7984,18.7718 26.2164,29.7907 l -44.4451,33.5768 c -0.1113,-0.1247 -0.2185,-0.2506 -0.3315,-0.3745 0,0 -5.1674,-4.4799 -13.2514,-8.2903 -4.0489,-8.8841 0.1938,-16.6468 0.1938,-16.6468 0,0 -20.2808,-14.0414 -33.645,-40.3952 l -20.4651,21.962 0.069,4.712 c 0,0 -3.0871,0.013 -5.57,2.0309 0,0 0.945,0.8799 3.7422,1.5026 l 0.046,1.5977 c 0,0 15.0195,18.9701 25.4067,43.489 -2.9095,6.4132 -1.2842,12.4203 -0.047,15.453 -2.0286,2.7929 -4.51,6.7595 -6.1787,11.3539 2.4404,4.2355 5.5721,7.7116 8.0543,10.1102 -0.6928,3.2015 -1.2519,9.3994 2.7259,15.2108 -5.9774,25.949 -17.4789,47.2364 -17.4789,47.2364 l 0.232,1.5815 c -2.6468,1.0985 -3.425,2.129 -3.425,2.129 2.7954,1.557 5.8379,1.0339 5.8379,1.0339 l 0.7497,4.6526 23.9639,18.0797 c 8.5907,-28.2723 26.1289,-45.6185 26.1289,-45.6185 0,0 -5.5249,-6.9091 -3.0782,-16.3609 7.3007,-5.1548 11.6127,-10.463 11.6127,-10.463 0.065,-0.1025 0.1247,-0.2058 0.189,-0.3084 l 55.6446,43.9106 c -1.283,3.4744 -2.691,6.9013 -4.221,10.2742 l 4.0267,1.8745 c 0.7991,-1.869 1.5621,-3.7531 2.2887,-5.6514 l 7.768,3.2592 c 0.1874,-0.5112 0.3723,-1.0232 0.5547,-1.5362 l 14.7392,11.6317 c -2.1073,4.8528 -4.4219,9.613 -6.9376,14.2672 l 9.8844,5.4213 c 0.2669,-0.5482 0.5312,-1.0976 0.793,-1.6483 l 24.677,13.235 10.7678,8.7808 100.0643,-122.7128 220.5515,2.676 0.3482,-28.7181 0,0 -219.9815,-2.6681 c -48.8561,-39.8773 -97.7761,-79.6762 -146.6244,-119.563 2.5782,-3.1617 5.1563,-6.3234 7.7345,-9.4851 l -3.9761,-3.2421 -5.6341,6.91 -19.4026,-15.8217 0.2993,-0.502 -53.4131,-31.8561 1.0778,-1.8085 -4.4034,-2.627 -1.0791,1.8086 -4.4598,-2.6596 -2.9707,4.9804 -12.8709,-7.6762 2.9708,-4.9803 -49.7524,-29.6749 1.0792,-1.8073 -4.4035,-2.62701 -1.0791,1.8086 z m 53.3571,65.3138 2.2697,1.3538 c -0.9749,-0.092 -1.9505,-0.1762 -2.9267,-0.2522 z m 113.8393,104.7592 c 32.5404,50.3898 38.6039,113.4372 16.2633,169.1051 l -14.8642,-11.7295 c 17.7251,-48.6302 11.8567,-102.7349 -15.8827,-146.4339 z m -24.4746,18.4896 c 24.4044,39.0523 30.0597,86.9741 15.4163,130.6345 l -54.8097,-43.2505 c 7.1071,-14.1431 7.6857,-27.9481 7.6857,-27.9481 0,0 -2.955,-13.4553 -12.3741,-26.1346 z"
         style="display:inline;opacity:1;fill:#dddddd;fill-opacity:1;stroke:#222222;stroke-width:1.50000012;stroke-linejoin:miter;stroke-miterlimit:4;stroke-dasharray:none;stroke-dashoffset:0;stroke-opacity:1"
         sodipodi:nodetypes="ccccccccccccccccccccccccccccccccccccccccccccccccccccccccccccccccccccccccccccccccccccccccccccccccccccccccccccccccccccccccccccccccccccc" />
    </g>
    <g
       inkscape:label="Terminal 4"
       id="layer11"
       inkscape:groupmode="layer"
       style="display:inline">
      <path
         id="rect5503"
         d="m 2511.6898,1268.6319 c -4.07,-2.5772 -9.2221,-2.7273 -13.4352,-0.3914 l -1.2163,-2.1935 -3.0655,1.6997 1.2158,2.1926 -3.2761,1.8165 12.775,23.0408 3.1708,-1.7578 3.3102,5.9716 0,0 7.8245,37.4304 c -21.8856,4.8321 -43.2312,11.8481 -63.7158,20.9427 l 3.1018,6.8963 c 19.9406,-9.0341 40.7368,-16.0461 62.0765,-20.9308 l 2.8212,13.312 c -28.993,6.4635 -56.9229,17.0061 -82.9554,31.3129 -25.8789,14.5606 -49.5629,32.7164 -70.3451,53.9256 l -9.6304,-9.2819 c 15.3196,-15.6161 32.1652,-29.658 50.2845,-41.9153 l -4.1545,-6.2077 c -18.6721,12.4248 -36.0494,26.6932 -51.8704,42.5904 l -24.5279,-23.6444 -0.869,0.9017 -26.3,-25.3488 c -1.479,1.5318 -2.9564,3.065 -4.4339,4.5982 l 26.2999,25.3521 -0.872,0.9015 44.7611,43.1462 8.2622,14.9014 -14.0512,7.7906 3.1418,5.6682 26.9265,-14.9285 4.5368,8.1826 -2.5604,1.4198 3.108,5.6054 2.5601,-1.4204 4.5374,8.1838 -14.1351,7.8374 5.8892,10.6219 -6.1313,3.3996 15.8247,28.541 -39.3188,21.8002 -3.3152,-5.979 -12.2926,6.8156 -2.9008,-5.2319 -10.9118,6.0498 2.9008,5.232 3.3151,5.9789 1.2432,2.2424 -3.4869,-0.9995 -19.759,3.1324 -5.4671,-9.8591 c -10.6513,5.9049 -22.0948,12.2505 -31.3911,17.4047 l 10.1944,18.3859 24.2152,-13.4263 -0.9055,-1.6326 21.6825,-3.4379 7.817,-4.3341 0.9124,1.6448 -24.4789,13.5717 1.3637,2.4596 -3.5396,1.9623 2.0714,3.7367 3.5405,-1.962 0.8738,1.5765 24.4805,-13.5731 c 10.8953,19.6512 19.6853,35.5034 30.6739,55.3211 l -24.4796,13.5729 1.3636,2.4597 -3.539,1.962 2.0714,3.7369 3.5402,-1.9625 0.8727,1.5759 24.4792,-13.5727 28.039,50.571 -24.4779,13.5716 1.3636,2.4597 -3.5401,1.9625 2.0719,3.7364 3.539,-1.9619 0.8735,1.5759 24.4795,-13.5728 34.8372,62.8319 -24.4794,13.5729 1.362,2.4569 -3.5392,1.9629 2.0713,3.7368 3.5402,-1.9625 0.8741,1.5784 24.4805,-13.5731 28.039,50.5713 -24.4793,13.5727 1.3631,2.459 -3.5409,1.9629 2.0732,3.7373 3.5389,-1.9627 0.875,1.5772 24.4795,-13.5729 33.8997,61.141 -24.4795,13.5729 1.3624,2.4589 -3.5403,1.9619 2.0725,3.7374 3.5409,-1.963 0.8739,1.5766 24.4794,-13.5728 8.799,15.87 -0.7178,0.087 1.5028,12.2396 -7.9906,0.9821 6.6332,53.9782 7.9916,-0.9814 0.3419,2.7863 -27.7793,3.4144 1.0841,8.8214 27.7793,-3.4144 3.3885,27.5705 -5.1441,0.6313 1.5643,12.7234 5.1431,-0.6318 2.1603,17.5784 -27.7795,3.4145 1.0843,8.8213 27.7793,-3.4143 3.4271,27.885 -4.2951,0.5274 0.4997,4.0713 4.2959,-0.5285 3.0668,24.9582 -27.779,3.4143 1.083,8.8206 27.7802,-3.4136 0.6533,5.3225 -5.1429,0.6318 1.5631,12.7229 5.144,-0.6313 4.8944,39.826 -27.7792,3.4142 1.083,8.8208 27.7805,-3.4137 1.0051,8.1881 -4.2953,0.5273 0.5011,4.0722 2.737,-0.3372 0.5012,4.0815 1.5591,-0.191 3.2286,26.2704 4.8436,-0.5951 11.3497,92.3626 2.5193,-0.3092 6.6106,53.7871 -4.704,0.5778 4.1907,34.0977 11.1959,-1.3758 -0.8941,-7.2758 7.9016,-0.9715 -7.8665,-64.0138 4.2958,-0.5286 -0.4998,-4.0714 -4.2969,0.528 -1.5385,-12.5228 2.518,-0.3098 -11.3499,-92.3625 4.8437,-0.5952 -0.2212,-1.7996 27.779,-3.4144 -1.0841,-8.8211 -27.7792,3.4142 -7.0864,-57.6604 27.7805,-3.4135 -1.0842,-8.8213 -27.7804,3.4136 -7.0821,-57.6312 27.7793,-3.4143 -1.0843,-8.8213 -27.7793,3.4143 -8.8873,-72.3204 27.7793,-3.4145 -1.0832,-8.8206 -27.7805,3.4137 -3.5191,-28.6445 7.9905,-0.9822 -1.7278,-14.0614 27.7805,-3.4137 -1.0843,-8.8213 -27.7803,3.4137 -3.8211,-31.0954 -7.9917,0.9815 -1.5035,-12.2384 -6.1329,-11.0614 2.9544,-1.6378 0.4232,1.6917 25.1747,-6.2795 -0.5573,-2.2382 5.9681,-1.4897 -1.0335,-4.1474 -5.969,1.4907 -0.5592,-2.2378 -25.1751,6.2776 0.3595,1.4373 -4.2387,2.3495 -28.68,-51.7281 24.4787,-13.5716 -1.1195,-2.0181 5.3805,-2.9832 -2.0713,-3.7368 -5.3816,2.9838 -1.1196,-2.0182 -24.4794,13.5729 -28.4216,-51.2613 24.4788,-13.5717 -1.1196,-2.0183 5.3808,-2.9825 -2.0714,-3.7369 -5.381,2.9843 -1.1184,-2.0174 -24.4794,13.5727 -43.3351,-78.1582 24.4788,-13.5718 -1.1184,-2.0175 5.3808,-2.9826 -2.0714,-3.7369 -5.3822,2.9842 -1.1183,-2.0175 -24.4788,13.5719 -27.9212,-50.3597 24.4789,-13.5715 4.7014,8.4787 10.1902,-5.65 -16.9361,-30.546 -10.1896,5.6495 7.9243,14.2918 -24.4806,13.5732 -18.997,-34.2632 127.3098,-70.5862 32.736,59.0432 -11.8185,6.5534 14.0882,25.4107 8.0724,-4.4756 4.2262,7.623 11.0613,-6.133 -4.2274,-7.6237 8.0711,-4.4742 -14.0896,-25.4121 -11.8179,6.5524 -32.7361,-59.0433 103.2104,-57.2246 5.6283,3.3807 -14.4127,23.9925 7.6187,4.5767 14.4127,-23.9925 61.1722,36.7472 -14.4128,23.9925 7.6187,4.5766 14.4128,-23.9926 54.23,32.577 c -6.2225,10.4206 -13.2093,21.9193 -19.0609,31.666 l 0.044,9.1967 0.028,5.8939 4.1433,-0.021 -0.028,-5.8939 -1.2372,0.01 -0.04,-8.3843 4.2,-6.9912 5.1554,3.0972 14.4127,-23.9928 -2.192,-1.3167 13.6626,-22.7438 -0.8405,-0.5013 1.5684,-2.611 1.5796,1.636 c 8.157,-7.8786 16.3134,-15.7579 24.4711,-23.6358 l -4.1913,-4.3387 -4.3398,4.1907 -1.9833,-2.0529 -20.1307,19.444 0.7218,0.7483 -2.3112,3.8469 -38.0198,-22.8393 2.2292,-3.7109 -3.5162,-2.1123 -2.2291,3.711 -12.6667,-7.6088 14.4128,-23.9926 -7.6185,-4.5766 -14.4128,23.9926 -32.1698,-19.325 2.2292,-3.7108 -3.5162,-2.1124 -2.2293,3.711 -1.0344,-0.6248 14.4128,-23.9925 -7.6186,-4.5767 -14.4128,23.9926 -24.6839,-14.8281 2.2293,-3.7108 -3.5163,-2.1124 -2.2292,3.7109 -26.3047,-15.8017 4.1592,-2.3054 18.709,11.2387 4.3127,-7.1789 -14.5645,-8.7487 12.7411,-7.0647 0,0 -30.3335,-54.7088 -68.4803,37.9685 -4.5375,-8.1837 2.5604,-1.4197 -3.1069,-5.6049 -2.5611,1.4202 -4.5367,-8.1828 26.925,-14.9293 -3.1415,-5.6661 -14.0513,7.7907 -8.2634,-14.9049 -13.6524,-64.4507 -5.0026,-9.0223 c 3.4654,-4.1737 4.0179,-10.0451 1.3919,-14.792 -1.0702,-1.9303 -2.6082,-3.5607 -4.4728,-4.7416 z"
         style="opacity:1;fill:#dddddd;fill-opacity:1;stroke:#222222;stroke-width:1.50000012;stroke-linejoin:miter;stroke-miterlimit:4;stroke-dasharray:none;stroke-dashoffset:0;stroke-opacity:1"
         inkscape:connector-curvature="0"
         sodipodi:nodetypes="ccccccccccccccccccccccccccccccccccccccccccccccccccccccccccccccccccccccccccccccccccccccccccccccccccccccccccccccccccccccccccccccccccccccccccccccccccccccccccccccccccccccccccccccccccccccccccccccccccccccccccccccccccccccccccccccccccccccccccccccccccccccccccccccccccccccccccccccccccccccccccccccccccccccccccccccccccccccccccccccccc" />
    </g>
    <g
       inkscape:label="Terminal 2"
       id="layer6"
       inkscape:groupmode="layer"
       style="display:inline">
      <path
         id="path4522-5-9"
         d="m 1892.7168,1691.3696 0.6195,4.5874 3.6852,2.8098 4.5472,-0.6125 0.8033,4.5167 3.7998,2.6518 3.438,-0.6117 -2.2586,4.0931 -4.0615,-2.2411 -1.8288,3.3141 -3.3132,-1.828 -26.7773,48.5268 3.3132,1.8283 -20.9977,38.053 -3.3132,-1.8284 -26.7778,48.5282 3.3132,1.8281 -1.8282,3.3134 c 16.1759,8.9261 32.352,17.8519 48.5281,26.7777 l 1.8289,-3.3144 3.3131,1.8284 26.7773,-48.5271 -3.3131,-1.8281 20.9975,-38.0529 3.3132,1.8283 25.7851,-46.7289 12.0047,4.4784 9.6643,1.6972 -1.3592,7.7337 7.4145,1.3022 1.3542,-7.7079 34.4505,-8.8454 -1.7844,-6.9508 -34.4342,8.841 -15.5995,-2.7396 -12.2933,-4.5857 0.09,-0.1641 -4.0625,-2.2419 2.2589,-4.0941 1.3163,3.2364 4.2693,1.8008 4.2496,-1.7285 1.906,4.1736 4.3419,1.6195 4.2115,-1.9219 1.6195,-4.3418 -1.7573,-3.8519 3.8509,-1.7581 1.6189,-4.3406 -1.7572,-3.8521 3.8507,-1.7578 1.621,-4.3413 -1.9226,-4.2131 -4.3418,-1.6196 -3.4581,1.5794 -1.4311,-3.5226 -4.2696,-1.8004 -3.5221,1.4327 -1.2825,-3.5793 -4.1899,-1.9778 -3.5781,1.2828 -1.131,-3.6298 -4.1027,-2.1527 -3.6299,1.1311 -0.9774,-3.6734 -4.0088,-2.3232 -3.6739,0.9787 -0.8222,-3.7115 -3.9086,-2.4904 -3.7107,0.8241 -0.6656,-3.7439 -3.7997,-2.6518 -3.7433,0.6675 -0.5072,-3.7681 -3.6851,-2.8096 -4.5893,0.6197 -2.8087,3.6861 0.5657,4.195 -4.1956,0.5674 -2.8091,3.6839 0.5659,4.195 -4.1958,0.5675 z m 11.137,-1.1017 3.8473,-0.5189 0.679,3.8214 -3.9845,0.7095 z m 6.4384,-8.4481 3.5406,-0.4773 0.6271,3.5181 -3.6686,0.6537 z m 2.3486,14.7226 3.8227,-0.6785 0.8398,3.7897 -3.9518,0.8769 z m 6.079,-8.7089 3.5176,-0.6259 0.7733,3.4877 -3.6378,0.8079 z m -7.1996,23.2711 0.9022,-1.6357 2.6815,1.7098 -0.8056,1.4589 z m 10.1648,-8.6596 3.7909,-0.8393 0.9976,3.75 -3.9121,1.0426 z m 5.7084,-8.9576 3.4887,-0.7728 0.9184,3.4516 -3.6015,0.9607 z m -2.7396,24.8642 0.6066,-1.0986 4.4328,-1.1792 1.3672,4.3795 -0.6069,1.0987 -2.9005,-1.6003 z m 6.3156,-10.39 3.7513,-0.9969 1.1553,3.7045 -3.8661,1.2052 z m 5.3258,-9.1899 3.4528,-0.9178 1.0634,3.4096 -3.5573,1.11 z m 9.117,4.9055 3.4096,-1.0634 1.2064,3.3633 -3.5086,1.2592 z m -4.9342,9.4061 3.7045,-1.1553 1.3111,3.6545 -3.8117,1.3665 z m 0.3301,14.1824 0.8056,-1.4587 2.8765,1.3569 -0.9029,1.6354 z m 13.9189,-19.0692 3.3629,-1.205 1.3459,3.3091 -3.4528,1.4041 z m -4.5358,9.6047 3.6539,-1.3099 1.4629,3.5948 -3.7517,1.526 z m 14.031,-5.4816 3.3107,-1.3455 1.484,3.2501 -3.3918,1.5476 z m -4.1278,9.7856 3.5956,-1.4611 1.6128,3.5312 -3.6837,1.6811 z m 65.857,-82.9083 c -0.3586,1.3572 -0.7172,2.7145 -1.0757,4.0717 l 6.9106,1.8261 -0.6651,2.5153 3.3651,0.8885 -0.8445,3.1972 60.4031,15.9586 c 0.9277,0.3452 1.911,0.5165 2.9008,0.5055 1.8236,-0.032 3.5825,-0.6811 4.9893,-1.8419 l 14.7583,3.8993 0.6644,-2.5142 7.4399,1.9641 1.0765,-4.071 -7.4398,-1.9642 0.6655,-2.5181 -14.7568,-3.897 c -1.0271,-2.6707 -3.3932,-4.5967 -6.2168,-5.0605 l -60.3914,-15.9553 -0.8446,3.1974 -3.3645,-0.8899 -0.6656,2.5167 -6.9087,-1.8283 z"
         style="fill:#dddddd;fill-opacity:1;fill-rule:evenodd;stroke:#222222;stroke-width:1.50000012;stroke-linecap:butt;stroke-linejoin:miter;stroke-miterlimit:4;stroke-dasharray:none;stroke-opacity:1"
         inkscape:connector-curvature="0"
         sodipodi:nodetypes="ccccccccccccccccccccccccccccccccccccccccccccccccccccccccccccccccccccccccccccccccccccccccccccccccccccccccccccccccccccccccccccccccccccccccccccccccccccccccccccccccccccccccccccccccccccccccccccccccc" />
    </g>
    <g
       transform="translate(3.5713603,-1.4843749e-6)"
       inkscape:label="Terminal 1"
       id="layer3"
       inkscape:groupmode="layer"
       style="display:inline">
      <path
         id="rect4211"
         d="m 1649.2859,1419.944 0.8712,7.2068 18.1693,-2.1991 c 1.121,9.2666 2.2412,18.5334 3.3633,27.7999 l 3.4249,-0.414 0.3227,2.6812 12.0795,-1.4611 -0.3226,-2.681 12.6359,-1.5296 c 2.2781,14.547 5.5259,28.9254 9.7219,43.0392 l -31.5411,9.234 4.2592,14.5481 -8.0407,2.724 3.9217,11.5746 9.2002,-3.1181 -1.9059,-5.6222 2.6429,-0.948 c 6.1154,17.178 13.5408,33.861 22.2107,49.902 l -2.5037,1.456 4.4266,7.6156 -9.3476,9.6101 -3.1068,-3.0221 -5.9585,6.1259 3.1069,3.022 -32.2147,33.1201 -8.6633,-8.4265 -7.9443,8.1676 0.08,5.86 5.6933,5.5377 -29.2512,30.0732 -8.6635,-8.4264 -7.9451,8.1686 0.081,5.859 5.6933,5.5376 -22.5863,23.221 -0.5684,-0.5528 -1.3621,1.4002 -1.6587,-1.6134 -31.1533,32.0289 3.7587,3.656 11.2354,-11.5511 6.5634,6.3839 11.604,-11.9302 7.0888,6.8949 -6.4965,6.6793 0.7878,0.7662 -16.3431,16.8022 3.759,3.6561 16.3429,-16.8023 1.7546,1.7066 -8.9378,9.1889 6.2129,6.0432 20.1733,-20.7401 -3.4402,-3.3461 37.028,-38.0687 3.1069,3.022 5.9587,-6.1258 -3.1071,-3.0221 67.6712,-69.5731 6.0817,5.9155 5.9583,-6.126 -6.0817,-5.9154 11.1945,-11.5092 c 2.7447,4.5599 4.7711,7.1369 4.7711,7.1369 l 24.4409,-18.1034 c 10.1388,14.1527 21.4111,27.458 33.7057,39.7843 7.0722,6.7566 14.4492,13.1867 22.1081,19.2703 l 25.0204,0.963 19.4442,-26.7299 -5.4838,-5.3337 9.8499,-20.104 -45.1631,-77.6957 50.7508,-29.5011 29.4148,50.6019 2.859,-1.6615 1.7494,3.0087 2.2498,-1.3078 3.5918,6.1796 1.821,-1.0583 0,0 1.8208,-1.0584 -3.5914,-6.1796 2.2485,-1.3071 -1.7486,-3.0089 2.8591,-1.6616 -31.3978,-54.0134 c -0.4115,-0.9004 -0.9853,-1.7173 -1.6927,-2.4098 -1.311,-1.2678 -3.0133,-2.0535 -4.8286,-2.2288 l -7.6708,-13.1966 -2.249,1.3074 -3.8673,-6.6526 -3.642,2.1167 3.8674,6.6526 -2.2506,1.3091 7.6708,13.1947 c -0.3481,0.7869 -0.568,1.6245 -0.6512,2.481 l -52.0462,30.2544 -41.7019,-71.7419 -48.9208,-1.3002 c -0.6955,-4.7464 -1.276,-9.509 -1.7409,-14.2835 l -33.9945,-11.8969 c 0.5053,8.2384 1.319,16.455 2.4396,24.6324 l -12.5596,1.52 -0.7093,-5.8627 -8.2973,1.0046 c -0.7145,-5.897 -1.4276,-11.7942 -2.1404,-17.6914 -8.4587,1.0243 -16.9176,2.047 -25.3764,3.0702 z"
         style="opacity:1;fill:#dddddd;fill-opacity:1;stroke:#222222;stroke-width:1.50000012;stroke-linejoin:miter;stroke-miterlimit:4;stroke-dasharray:none;stroke-dashoffset:0;stroke-opacity:1"
         inkscape:connector-curvature="0"
         sodipodi:nodetypes="cccccccccccccccccccccccccccccccccccccccccccccccccccccccccccccccccccccccccccccccccccccccccccccccccccccccccccc" />
    </g>
  </g>
  <g
     inkscape:groupmode="layer"
     id="layer1"
     inkscape:label="Label"
     transform="translate(-542.27316,-607.3882)">
    <g
       id="g4169">
      <g
         style="font-style:normal;font-variant:normal;font-weight:bold;font-stretch:normal;font-size:125.00000763px;line-height:125%;font-family:Overpass;-inkscape-font-specification:'Overpass, Bold';text-align:start;letter-spacing:0px;word-spacing:0px;writing-mode:lr-tb;text-anchor:start;fill:#dddddd;fill-opacity:1;stroke:#222222;stroke-width:0.25;stroke-linecap:butt;stroke-linejoin:miter;stroke-miterlimit:4;stroke-dasharray:none;stroke-opacity:1"
         id="text4462">
        <path
           d="m 596.75598,2348.0762 q -4.76074,0 -9.15527,-1.3428 -4.3335,-1.2817 -8.11768,-3.7231 -3.72314,-2.5025 -6.83593,-6.0425 -3.05176,-3.6011 -5.24903,-8.1787 l 14.77051,-6.836 q 2.44141,4.6997 6.04248,7.2632 3.66211,2.5635 8.54492,2.5635 2.56348,0 4.94385,-0.6714 2.38037,-0.7324 4.21143,-2.6245 1.83105,-1.8921 2.92969,-5.188 1.09863,-3.3569 1.09863,-8.606 l 0,-55.664 16.8457,0 0,57.1289 q 0,6.2256 -1.28174,11.0473 -1.28173,4.8218 -3.479,8.3619 -2.19727,3.54 -5.12695,5.9814 -2.92969,2.3804 -6.28663,3.8452 -3.35693,1.4038 -6.89697,2.0142 -3.54004,0.6714 -6.95801,0.6714 z"
           id="path4180"
           inkscape:connector-curvature="0" />
        <path
           d="m 648.75794,2346.5503 0,-87.5244 58.65479,0 0,16.0522 -41.74805,0 0,18.3716 26.48926,0 0,15.9912 -26.48926,0 0,37.1094 -16.90674,0 z"
           id="path4182"
           inkscape:connector-curvature="0" />
        <path
           d="m 778.64077,2346.5503 -22.52198,-41.8701 -16.23535,20.0195 0,21.8506 -16.90674,0 0,-87.5244 16.90674,0 0,41.748 33.14209,-41.748 19.9585,0 -25.5127,31.372 30.88379,56.1524 -19.71435,0 z"
           id="path4184"
           inkscape:connector-curvature="0" />
      </g>
      <g
         style="font-style:normal;font-variant:normal;font-weight:normal;font-stretch:normal;font-size:45.00000381px;line-height:125%;font-family:Overpass;-inkscape-font-specification:'Overpass, Normal';text-align:start;letter-spacing:0px;word-spacing:0px;writing-mode:lr-tb;text-anchor:start;fill:#222222;fill-opacity:1;stroke:none;stroke-width:1px;stroke-linecap:butt;stroke-linejoin:miter;stroke-opacity:1"
         id="text4466">
        <path
           d="m 586.71887,2395.6987 -13.62304,-21.3794 -1.27442,-2.3291 0.13184,2.3291 0,21.3794 -4.68018,0 0,-31.5088 4.72412,0 13.29346,21.0279 1.29639,2.417 -0.13184,-2.3731 0,-21.0718 4.68018,0 0,31.5088 -4.41651,0 z"
           id="path4187"
           inkscape:connector-curvature="0" />
        <path
           d="m 607.92249,2396.248 q -2.39502,0 -4.32862,-0.8129 -1.93359,-0.835 -3.29589,-2.3731 -1.36231,-1.56 -2.10938,-3.8013 -0.7251,-2.2412 -0.7251,-5.0756 0,-2.8345 0.74707,-5.0538 0.74707,-2.2412 2.10938,-3.7793 1.38428,-1.56 3.2959,-2.373 1.93359,-0.813 4.30664,-0.813 2.04346,0 3.82324,0.6592 1.80176,0.6372 3.14209,1.9775 1.36231,1.3184 2.13135,3.3399 0.79101,2.0215 0.79101,4.768 0,0.7471 -0.0439,1.5821 -0.022,0.8349 -0.13184,1.4502 l -15.49072,0 q 0.022,1.4282 0.50537,2.5708 0.50537,1.1206 1.31836,1.9336 0.81299,0.791 1.8457,1.2304 1.03272,0.4175 2.15332,0.4175 1.42823,0 2.63672,-0.5932 1.23047,-0.5933 2.13135,-1.7359 l 3.0542,3.1421 q -1.25244,1.4941 -3.20801,2.417 -1.95556,0.9228 -4.6582,0.9228 z m 0,-19.9511 q -1.09863,0 -2.10938,0.3296 -1.01074,0.3076 -1.80175,1.0107 -0.76905,0.6812 -1.27442,1.8018 -0.50537,1.1206 -0.59326,2.7246 l 10.98633,0 q -0.0439,-1.604 -0.50537,-2.7246 -0.46143,-1.1206 -1.2085,-1.8018 -0.74707,-0.7031 -1.66992,-1.0107 -0.90088,-0.3296 -1.82373,-0.3296 z"
           id="path4189"
           inkscape:connector-curvature="0" />
        <path
           d="m 644.81458,2395.6987 -4.15283,0 -3.82324,-13.3593 q -0.10987,-0.3956 -0.2417,-0.813 -0.10987,-0.4175 -0.21973,-0.791 -0.0879,-0.3956 -0.17578,-0.7251 -0.0659,-0.3296 -0.0879,-0.5494 -0.0439,0.2198 -0.10986,0.5713 -0.0439,0.3296 -0.13184,0.7251 -0.0879,0.3955 -0.19775,0.813 -0.10987,0.4175 -0.21973,0.813 l -3.7793,13.3154 -4.15283,0 -6.1084,-23.0053 4.59229,0 3.22998,14.3261 q 0.17578,0.7471 0.26367,1.3184 0.10986,0.5493 0.19775,1.0107 0.0659,-0.4614 0.17578,-1.0547 0.13184,-0.5932 0.30762,-1.2744 l 3.82324,-14.3261 4.32862,0 3.82324,14.3261 q 0.17578,0.6812 0.28564,1.2744 0.13184,0.5933 0.19776,1.0547 0.0659,-0.4614 0.17578,-1.0107 0.10986,-0.5713 0.28564,-1.3184 l 3.22998,-14.3261 4.59229,0 -6.1084,23.0053 z"
           id="path4191"
           inkscape:connector-curvature="0" />
        <path
           d="m 675.53236,2395.6987 0,-12.3266 -11.05225,-19.1822 5.33936,0 8.06396,14.4141 8.06397,-14.4141 5.33935,0 -11.07422,19.1382 0,12.3706 -4.68017,0 z"
           id="path4193"
           inkscape:connector-curvature="0" />
        <path
           d="m 702.27308,2396.248 q -2.41699,0 -4.37256,-0.8129 -1.93359,-0.813 -3.2959,-2.3511 -1.3623,-1.5601 -2.10937,-3.7793 -0.7251,-2.2412 -0.7251,-5.0757 0,-2.8345 0.7251,-5.0757 0.74707,-2.2412 2.10937,-3.7793 1.36231,-1.56 3.2959,-2.373 1.95557,-0.835 4.37256,-0.835 2.39502,0 4.35059,0.835 1.95556,0.813 3.31787,2.373 1.3623,1.5381 2.10937,3.7793 0.74707,2.2412 0.74707,5.0757 0,2.8345 -0.74707,5.0757 -0.74707,2.2192 -2.10937,3.7793 -1.36231,1.5381 -3.31787,2.3511 -1.95557,0.8129 -4.35059,0.8129 z m 0,-4.4165 q 1.34033,0 2.41699,-0.5273 1.09864,-0.5273 1.84571,-1.4941 0.76904,-0.9888 1.16455,-2.3951 0.41748,-1.4062 0.41748,-3.186 0,-1.7798 -0.41748,-3.186 -0.39551,-1.4283 -1.16455,-2.417 -0.74707,-0.9888 -1.84571,-1.5161 -1.07666,-0.5274 -2.41699,-0.5274 -1.34033,0 -2.41699,0.5274 -1.07666,0.5273 -1.84571,1.5161 -0.74707,0.9887 -1.16455,2.417 -0.3955,1.4062 -0.3955,3.186 0,1.7798 0.3955,3.186 0.41748,1.4063 1.16455,2.3951 0.76905,0.9668 1.84571,1.4941 1.07666,0.5273 2.41699,0.5273 z"
           id="path4195"
           inkscape:connector-curvature="0" />
        <path
           d="m 718.40102,2395.6987 0,-23.0053 4.68017,0 0,2.7905 q 0.81299,-1.7578 2.10938,-2.5269 1.29638,-0.791 3.01025,-0.791 2.28516,0 3.86719,1.3843 l -0.68115,4.3286 q -0.63721,-0.4394 -1.51612,-0.769 -0.85693,-0.3516 -2.10937,-0.3516 -0.79102,0 -1.62598,0.2856 -0.81299,0.2637 -1.49414,0.9668 -0.68115,0.6812 -1.1206,1.8457 -0.43946,1.1426 -0.43946,2.9224 l 0,12.9199 -4.68017,0 z"
           id="path4197"
           inkscape:connector-curvature="0" />
        <path
           d="m 736.59438,2395.6987 0,-30.2783 4.68017,-2.2192 0,16.6113 6.78955,-7.1191 5.75684,0 -6.30615,6.394 8.63525,16.6113 -5.11963,0 -6.78955,-13.2275 -2.96631,2.9663 0,10.2612 -4.68017,0 z"
           id="path4199"
           inkscape:connector-curvature="0" />
        <path
           d="m 760.23695,2384.8003 0,-4.043 17.77588,0 0,4.043 -17.77588,0 z"
           id="path4201"
           inkscape:connector-curvature="0" />
        <path
           d="m 791.43813,2396.248 q -1.6919,0 -3.20801,-0.3955 -1.51611,-0.3735 -2.8125,-1.1206 -1.27442,-0.747 -2.28516,-1.8457 -1.01074,-1.1206 -1.69189,-2.5927 l 4.06494,-1.9776 q 0.83496,1.7798 2.35107,2.6148 1.51612,0.813 3.58155,0.813 1.1206,0 2.15332,-0.2857 1.05468,-0.2856 1.8457,-1.0767 0.81299,-0.791 1.29639,-2.1972 0.50537,-1.4282 0.50537,-3.6914 l 0,-20.3028 4.68017,0 0,20.94 q 0,2.1972 -0.46142,3.8891 -0.43945,1.67 -1.2085,2.9224 -0.74707,1.2305 -1.77978,2.0654 -1.03272,0.813 -2.19727,1.3184 -1.16455,0.5054 -2.41699,0.7031 -1.23047,0.2197 -2.41699,0.2197 z"
           id="path4203"
           inkscape:connector-curvature="0" />
        <path
           d="m 818.46449,2396.248 q -2.41699,0 -4.37256,-0.8129 -1.93359,-0.813 -3.29589,-2.3511 -1.36231,-1.5601 -2.10938,-3.7793 -0.7251,-2.2412 -0.7251,-5.0757 0,-2.8345 0.7251,-5.0757 0.74707,-2.2412 2.10938,-3.7793 1.3623,-1.56 3.29589,-2.373 1.95557,-0.835 4.37256,-0.835 2.39502,0 4.35059,0.835 1.95557,0.813 3.31787,2.373 1.36231,1.5381 2.10938,3.7793 0.74707,2.2412 0.74707,5.0757 0,2.8345 -0.74707,5.0757 -0.74707,2.2192 -2.10938,3.7793 -1.3623,1.5381 -3.31787,2.3511 -1.95557,0.8129 -4.35059,0.8129 z m 0,-4.4165 q 1.34034,0 2.417,-0.5273 1.09863,-0.5273 1.8457,-1.4941 0.76904,-0.9888 1.16455,-2.3951 0.41748,-1.4062 0.41748,-3.186 0,-1.7798 -0.41748,-3.186 -0.39551,-1.4283 -1.16455,-2.417 -0.74707,-0.9888 -1.8457,-1.5161 -1.07666,-0.5274 -2.417,-0.5274 -1.34033,0 -2.41699,0.5274 -1.07666,0.5273 -1.8457,1.5161 -0.74707,0.9887 -1.16455,2.417 -0.39551,1.4062 -0.39551,3.186 0,1.7798 0.39551,3.186 0.41748,1.4063 1.16455,2.3951 0.76904,0.9668 1.8457,1.4941 1.07666,0.5273 2.41699,0.5273 z"
           id="path4205"
           inkscape:connector-curvature="0" />
        <path
           d="m 848.80875,2395.6987 0,-13.7329 q 0,-1.4502 -0.35156,-2.4609 -0.35157,-1.0327 -0.9668,-1.6699 -0.61524,-0.6592 -1.4502,-0.9449 -0.83496,-0.3076 -1.82373,-0.3076 -1.05469,0 -1.95556,0.2857 -0.90088,0.2636 -1.56006,0.8789 -0.65918,0.6152 -1.05469,1.6479 -0.37354,1.0108 -0.37354,2.4829 l 0,13.8208 -4.68017,0 0,-30.3222 4.68017,-2.1753 0,11.7114 q 1.12061,-1.4282 2.57081,-2.0874 1.45019,-0.6592 3.36181,-0.6592 1.80176,0 3.31787,0.5274 1.51612,0.5053 2.61475,1.6699 1.12061,1.1645 1.73584,3.0322 0.61523,1.8677 0.61523,4.5703 l 0,13.7329 -4.68017,0 z"
           id="path4207"
           inkscape:connector-curvature="0" />
        <path
           d="m 874.20914,2395.6987 0,-13.7329 q 0,-1.4502 -0.35156,-2.4609 -0.35157,-1.0327 -0.9668,-1.6699 -0.61524,-0.6592 -1.4502,-0.9449 -0.83496,-0.3076 -1.82373,-0.3076 -1.05468,0 -1.95556,0.2857 -0.90088,0.2636 -1.56006,0.8789 -0.65918,0.6152 -1.05469,1.6479 -0.37354,1.0108 -0.37354,2.4829 l 0,13.8208 -4.68017,0 0,-23.0053 4.68017,0 0,2.2192 q 1.12061,-1.4282 2.57081,-2.0874 1.45019,-0.6592 3.36181,-0.6592 1.80176,0 3.31787,0.5274 1.51612,0.5053 2.61475,1.6699 1.12061,1.1645 1.73584,3.0322 0.61523,1.8677 0.61523,4.5703 l 0,13.7329 -4.68017,0 z"
           id="path4209"
           inkscape:connector-curvature="0" />
        <path
           d="m 896.42349,2395.6987 0,-31.5088 19.5337,0 0,4.4165 -14.85352,0 0,8.6353 9.60205,0 0,4.4165 -9.60205,0 0,14.0405 -4.68018,0 z"
           id="path4211"
           inkscape:connector-curvature="0" />
        <path
           d="m 915.73746,2396.248 q -0.7251,0 -1.34033,-0.2636 -0.61524,-0.2637 -1.07666,-0.7032 -0.43946,-0.4614 -0.70313,-1.0546 -0.2417,-0.5933 -0.2417,-1.2745 0,-0.6811 0.2417,-1.2744 0.26367,-0.6152 0.70313,-1.0547 0.46142,-0.4614 1.07666,-0.7251 0.61523,-0.2636 1.34033,-0.2636 0.70312,0 1.31836,0.2636 0.6372,0.2637 1.09863,0.7251 0.46143,0.4395 0.7251,1.0547 0.28564,0.5933 0.28564,1.2744 0,0.6812 -0.28564,1.2745 -0.26367,0.5932 -0.7251,1.0546 -0.46143,0.4395 -1.09863,0.7032 -0.61524,0.2636 -1.31836,0.2636 z"
           id="path4213"
           inkscape:connector-curvature="0" />
        <path
           d="m 954.32144,2395.6987 -8.87695,-16.4795 -5.58106,6.7676 0,9.7119 -4.68017,0 0,-31.5088 4.68017,0 0,15.271 12.15088,-15.271 5.40528,0 -8.81104,11.0743 11.20606,20.4345 -5.49317,0 z"
           id="path4215"
           inkscape:connector-curvature="0" />
        <path
           d="m 974.33853,2396.248 q -2.39502,0 -4.32861,-0.8129 -1.93359,-0.835 -3.2959,-2.3731 -1.3623,-1.56 -2.10937,-3.8013 -0.7251,-2.2412 -0.7251,-5.0756 0,-2.8345 0.74707,-5.0538 0.74707,-2.2412 2.10937,-3.7793 1.38428,-1.56 3.2959,-2.373 1.9336,-0.813 4.30664,-0.813 2.04346,0 3.82325,0.6592 1.80175,0.6372 3.14209,1.9775 1.3623,1.3184 2.13134,3.3399 0.79102,2.0215 0.79102,4.768 0,0.7471 -0.0439,1.5821 -0.022,0.8349 -0.13183,1.4502 l -15.49073,0 q 0.022,1.4282 0.50537,2.5708 0.50538,1.1206 1.31836,1.9336 0.81299,0.791 1.84571,1.2304 1.03271,0.4175 2.15332,0.4175 1.42822,0 2.63672,-0.5932 1.23047,-0.5933 2.13134,-1.7359 l 3.0542,3.1421 q -1.25244,1.4941 -3.208,2.417 -1.95557,0.9228 -4.65821,0.9228 z m 0,-19.9511 q -1.09863,0 -2.10937,0.3296 -1.01074,0.3076 -1.80176,1.0107 -0.76904,0.6812 -1.27441,1.8018 -0.50538,1.1206 -0.59327,2.7246 l 10.98633,0 q -0.0439,-1.604 -0.50537,-2.7246 -0.46142,-1.1206 -1.20849,-1.8018 -0.74708,-0.7031 -1.66993,-1.0107 -0.90088,-0.3296 -1.82373,-0.3296 z"
           id="path4217"
           inkscape:connector-curvature="0" />
        <path
           d="m 1003.8478,2395.6987 0,-13.7329 q 0,-1.4502 -0.3516,-2.4609 -0.3515,-1.0327 -0.9667,-1.6699 -0.6153,-0.6592 -1.4502,-0.9449 -0.835,-0.3076 -1.82378,-0.3076 -1.05468,0 -1.95556,0.2857 -0.90088,0.2636 -1.56006,0.8789 -0.65918,0.6152 -1.05469,1.6479 -0.37353,1.0108 -0.37353,2.4829 l 0,13.8208 -4.68018,0 0,-23.0053 4.68018,0 0,2.2192 q 1.1206,-1.4282 2.5708,-2.0874 1.45019,-0.6592 3.36182,-0.6592 1.8018,0 3.3179,0.5274 1.5161,0.5053 2.6147,1.6699 1.1206,1.1645 1.7359,3.0322 0.6152,1.8677 0.6152,4.5703 l 0,13.7329 -4.6802,0 z"
           id="path4219"
           inkscape:connector-curvature="0" />
        <path
           d="m 1029.2482,2395.6987 0,-13.7329 q 0,-1.4502 -0.3516,-2.4609 -0.3515,-1.0327 -0.9668,-1.6699 -0.6152,-0.6592 -1.4502,-0.9449 -0.8349,-0.3076 -1.8237,-0.3076 -1.0547,0 -1.9556,0.2857 -0.9008,0.2636 -1.56,0.8789 -0.6592,0.6152 -1.0547,1.6479 -0.3735,1.0108 -0.3735,2.4829 l 0,13.8208 -4.6802,0 0,-23.0053 4.6802,0 0,2.2192 q 1.1206,-1.4282 2.5708,-2.0874 1.4502,-0.6592 3.3618,-0.6592 1.8017,0 3.3179,0.5274 1.5161,0.5053 2.6147,1.6699 1.1206,1.1645 1.7358,3.0322 0.6153,1.8677 0.6153,4.5703 l 0,13.7329 -4.6802,0 z"
           id="path4221"
           inkscape:connector-curvature="0" />
        <path
           d="m 1049.7487,2396.248 q -2.395,0 -4.3286,-0.8129 -1.9336,-0.835 -3.2959,-2.3731 -1.3623,-1.56 -2.1094,-3.8013 -0.7251,-2.2412 -0.7251,-5.0756 0,-2.8345 0.7471,-5.0538 0.747,-2.2412 2.1093,-3.7793 1.3843,-1.56 3.2959,-2.373 1.9336,-0.813 4.3067,-0.813 2.0434,0 3.8232,0.6592 1.8018,0.6372 3.1421,1.9775 1.3623,1.3184 2.1314,3.3399 0.791,2.0215 0.791,4.768 0,0.7471 -0.044,1.5821 -0.022,0.8349 -0.1318,1.4502 l -15.4907,0 q 0.022,1.4282 0.5054,2.5708 0.5053,1.1206 1.3183,1.9336 0.813,0.791 1.8457,1.2304 1.0327,0.4175 2.1533,0.4175 1.4283,0 2.6368,-0.5932 1.2304,-0.5933 2.1313,-1.7359 l 3.0542,3.1421 q -1.2524,1.4941 -3.208,2.417 -1.9556,0.9228 -4.6582,0.9228 z m 0,-19.9511 q -1.0986,0 -2.1094,0.3296 -1.0107,0.3076 -1.8017,1.0107 -0.7691,0.6812 -1.2745,1.8018 -0.5053,1.1206 -0.5932,2.7246 l 10.9863,0 q -0.044,-1.604 -0.5054,-2.7246 -0.4614,-1.1206 -1.2085,-1.8018 -0.747,-0.7031 -1.6699,-1.0107 -0.9009,-0.3296 -1.8237,-0.3296 z"
           id="path4223"
           inkscape:connector-curvature="0" />
        <path
           d="m 1073.4572,2396.248 q -2.1753,0 -3.9551,-0.8129 -1.7578,-0.835 -3.0102,-2.3731 -1.2525,-1.56 -1.9336,-3.8013 -0.6592,-2.2412 -0.6592,-5.0756 0,-2.8345 0.7031,-5.0538 0.7031,-2.2412 1.9556,-3.7793 1.2744,-1.56 3.0322,-2.373 1.7578,-0.813 3.8672,-0.813 1.8896,0 3.208,0.6152 1.3403,0.6153 2.2192,1.5381 l 0,-8.9428 4.6802,-2.1753 0,32.4975 -4.6802,0 0,-1.6259 q -0.9228,1.0327 -2.2192,1.604 -1.2744,0.5712 -3.208,0.5712 z m 0.6592,-4.4165 q 1.582,0 2.7905,-0.6811 1.2085,-0.6812 1.9775,-1.9336 l 0,-10.1294 q -0.2636,-0.4395 -0.7031,-0.8789 -0.4394,-0.4395 -1.0547,-0.791 -0.5932,-0.3736 -1.3623,-0.5933 -0.7471,-0.2417 -1.6479,-0.2417 -2.6368,0 -4.0869,1.9556 -1.4502,1.9336 -1.4502,5.647 0,1.6699 0.3735,3.0761 0.3955,1.3843 1.0986,2.417 0.7251,1.0108 1.7359,1.5821 1.0327,0.5712 2.3291,0.5712 z"
           id="path4225"
           inkscape:connector-curvature="0" />
        <path
           d="m 1097.9128,2404.4219 -4.7681,0 3.5376,-9.1187 -8.5913,-22.6098 4.6362,0 5.669,15.0512 q 0.2417,0.6372 0.3735,1.0547 0.1319,0.4175 0.2637,0.9668 0.1318,-0.5493 0.2637,-0.9668 0.1318,-0.4175 0.3735,-1.0547 l 5.7129,-15.0512 4.6802,0 -12.1509,31.7285 z"
           id="path4227"
           inkscape:connector-curvature="0" />
      </g>
    </g>
  </g>
  <g
     inkscape:groupmode="layer"
     id="layer2"
     inkscape:label="Date"
     transform="translate(-542.27316,-607.3882)">
    <g
       style="font-style:normal;font-variant:normal;font-weight:300;font-stretch:normal;font-size:15.00000095px;line-height:125%;font-family:Overpass;-inkscape-font-specification:'Overpass, Light';text-align:start;letter-spacing:0px;word-spacing:0px;writing-mode:lr-tb;text-anchor:start;fill:#222222;fill-opacity:1;stroke:none;stroke-width:1px;stroke-linecap:butt;stroke-linejoin:miter;stroke-opacity:1"
       id="text4458">
      <path
         d="m 2522.7866,2404.4219 q -0.765,0 -1.335,-0.18 -0.57,-0.195 -0.99,-0.525 -0.405,-0.345 -0.69,-0.78 -0.27,-0.45 -0.465,-0.975 l 0.975,-0.405 q 0.39,0.975 0.975,1.44 0.6,0.45 1.53,0.45 0.495,0 0.945,-0.12 0.45,-0.135 0.78,-0.39 0.345,-0.255 0.54,-0.63 0.195,-0.39 0.195,-0.915 0,-0.975 -0.6,-1.545 -0.6,-0.585 -1.74,-0.585 l -0.705,0 0,-0.96 0.555,0 q 0.945,0 1.5,-0.51 0.57,-0.525 0.57,-1.395 0,-0.435 -0.165,-0.78 -0.15,-0.345 -0.42,-0.585 -0.27,-0.24 -0.63,-0.36 -0.345,-0.135 -0.72,-0.135 -0.495,0 -0.885,0.15 -0.375,0.15 -0.66,0.39 -0.285,0.24 -0.48,0.525 -0.18,0.285 -0.3,0.555 l -0.975,-0.375 q 0.165,-0.42 0.435,-0.81 0.285,-0.405 0.69,-0.72 0.405,-0.315 0.93,-0.495 0.54,-0.195 1.2,-0.195 0.645,0 1.2,0.195 0.57,0.195 0.99,0.54 0.42,0.345 0.645,0.855 0.24,0.495 0.24,1.095 0,0.705 -0.36,1.335 -0.345,0.615 -0.975,0.96 0.825,0.33 1.29,1.065 0.48,0.72 0.48,1.755 0,0.66 -0.285,1.23 -0.285,0.555 -0.78,0.96 -0.495,0.405 -1.14,0.645 -0.645,0.225 -1.365,0.225 z"
         id="path4230"
         inkscape:connector-curvature="0" />
      <path
         d="m 2532.4363,2393.7419 2.79,0 q 1.335,0 2.235,0.465 0.915,0.45 1.47,1.2 0.57,0.735 0.81,1.68 0.24,0.93 0.24,1.905 0,0.9 -0.225,1.845 -0.21,0.93 -0.765,1.695 -0.555,0.75 -1.485,1.23 -0.93,0.48 -2.34,0.48 l -2.73,0 0,-10.5 z m 2.805,9.555 q 1.05,0 1.755,-0.375 0.705,-0.39 1.125,-1.005 0.42,-0.63 0.585,-1.395 0.18,-0.765 0.18,-1.53 0,-0.81 -0.195,-1.59 -0.195,-0.78 -0.615,-1.38 -0.42,-0.6 -1.08,-0.96 -0.66,-0.375 -1.59,-0.375 l -1.92,0 0,8.61 1.755,0 z"
         id="path4232"
         inkscape:connector-curvature="0" />
      <path
         d="m 2542.8159,2400.8369 q 0.135,1.17 0.705,1.89 0.57,0.72 1.56,0.72 0.42,0 0.855,-0.135 0.435,-0.135 0.87,-0.465 l 0.57,0.705 q -0.45,0.375 -1.065,0.63 -0.6,0.24 -1.275,0.24 -0.78,0 -1.395,-0.315 -0.615,-0.33 -1.05,-0.885 -0.42,-0.555 -0.66,-1.275 -0.225,-0.735 -0.225,-1.545 0,-0.96 0.24,-1.695 0.255,-0.75 0.69,-1.26 0.435,-0.51 1.05,-0.78 0.615,-0.27 1.35,-0.27 0.615,0 1.155,0.225 0.555,0.21 0.975,0.66 0.42,0.45 0.66,1.155 0.24,0.705 0.24,1.665 0,0.12 0,0.3 0,0.18 -0.03,0.435 l -5.22,0 z m 2.22,-3.495 q -0.93,0 -1.56,0.615 -0.615,0.615 -0.69,1.935 l 4.215,0 q 0,-0.78 -0.195,-1.275 -0.195,-0.495 -0.495,-0.78 -0.285,-0.285 -0.63,-0.39 -0.345,-0.105 -0.645,-0.105 z"
         id="path4234"
         inkscape:connector-curvature="0" />
      <path
         d="m 2552.6753,2404.4219 q -1.395,0 -2.22,-1.035 -0.81,-1.05 -0.81,-2.97 0,-1.905 0.825,-2.955 0.84,-1.065 2.325,-1.065 0.855,0 1.5,0.42 0.645,0.405 0.96,1.185 l -0.96,0.375 q -0.18,-0.435 -0.555,-0.735 -0.36,-0.3 -0.99,-0.3 -0.54,0 -0.915,0.225 -0.375,0.21 -0.63,0.615 -0.24,0.39 -0.36,0.96 -0.105,0.57 -0.105,1.275 0,1.455 0.48,2.265 0.48,0.795 1.5,0.795 0.63,0 1.065,-0.315 0.435,-0.315 0.63,-0.855 l 0.945,0.36 q -0.27,0.81 -0.99,1.29 -0.705,0.465 -1.695,0.465 z"
         id="path4236"
         inkscape:connector-curvature="0" />
      <path
         d="m 2560.5494,2404.2419 q 0,-0.99 0.285,-1.695 0.285,-0.72 0.735,-1.26 0.45,-0.54 1.02,-0.945 0.57,-0.405 1.14,-0.795 0.495,-0.33 0.945,-0.645 0.45,-0.33 0.795,-0.69 0.36,-0.36 0.57,-0.765 0.21,-0.42 0.21,-0.93 0,-0.855 -0.6,-1.425 -0.585,-0.585 -1.68,-0.585 -1.065,0 -1.605,0.48 -0.54,0.465 -0.735,1.215 l -0.93,-0.42 q 0.12,-0.465 0.405,-0.87 0.285,-0.405 0.72,-0.705 0.435,-0.3 0.99,-0.465 0.57,-0.18 1.245,-0.18 1.56,0 2.415,0.81 0.87,0.795 0.87,2.145 0,0.72 -0.285,1.275 -0.27,0.555 -0.72,1.02 -0.435,0.45 -0.99,0.84 -0.555,0.375 -1.125,0.735 -0.45,0.3 -0.87,0.6 -0.42,0.285 -0.78,0.63 -0.345,0.33 -0.585,0.735 -0.24,0.39 -0.33,0.885 l 5.775,0 0,1.005 -6.885,0 z"
         id="path4238"
         inkscape:connector-curvature="0" />
      <path
         d="m 2573.1285,2404.4219 q -1.035,0 -1.725,-0.48 -0.69,-0.48 -1.11,-1.245 -0.405,-0.78 -0.585,-1.74 -0.18,-0.975 -0.18,-1.965 0,-0.54 0.06,-1.155 0.06,-0.63 0.21,-1.23 0.165,-0.6 0.42,-1.155 0.27,-0.555 0.675,-0.975 0.405,-0.42 0.945,-0.66 0.555,-0.255 1.29,-0.255 1.035,0 1.725,0.495 0.69,0.48 1.095,1.26 0.42,0.78 0.6,1.755 0.18,0.96 0.18,1.92 0,0.555 -0.075,1.17 -0.06,0.615 -0.225,1.23 -0.15,0.6 -0.42,1.155 -0.255,0.54 -0.66,0.96 -0.405,0.42 -0.96,0.675 -0.54,0.24 -1.26,0.24 z m 0,-0.945 q 0.78,0 1.26,-0.42 0.495,-0.435 0.765,-1.095 0.27,-0.66 0.36,-1.455 0.09,-0.795 0.09,-1.515 0,-0.81 -0.105,-1.605 -0.105,-0.81 -0.39,-1.44 -0.285,-0.645 -0.765,-1.035 -0.48,-0.405 -1.215,-0.405 -0.795,0 -1.29,0.435 -0.48,0.435 -0.75,1.095 -0.27,0.66 -0.375,1.455 -0.09,0.78 -0.09,1.5 0,0.825 0.105,1.635 0.105,0.795 0.39,1.44 0.285,0.63 0.765,1.02 0.495,0.39 1.245,0.39 z"
         id="path4240"
         inkscape:connector-curvature="0" />
      <path
         d="m 2580.1506,2404.2419 0,-8.595 -1.785,0 0,-0.6 q 0.795,0 1.35,-0.27 0.555,-0.285 0.81,-1.035 l 0.675,0 0,10.5 -1.05,0 z"
         id="path4242"
         inkscape:connector-curvature="0" />
      <path
         d="m 2585.2354,2404.2419 q 0.015,-1.23 0.15,-2.43 0.15,-1.2 0.51,-2.385 0.375,-1.185 0.99,-2.37 0.615,-1.2 1.575,-2.415 l -5.085,0 0,-0.9 6.285,0 0,0.69 q -1.095,1.26 -1.755,2.595 -0.66,1.32 -1.02,2.61 -0.36,1.275 -0.48,2.46 -0.12,1.185 -0.12,2.145 l -1.05,0 z"
         id="path4244"
         inkscape:connector-curvature="0" />
    </g>
  </g>
</svg>
