<?xml version="1.0" encoding="UTF-8" standalone="no"?>
<!-- Created with Inkscape (http://www.inkscape.org/) -->

<svg
   xmlns:dc="http://purl.org/dc/elements/1.1/"
   xmlns:cc="http://creativecommons.org/ns#"
   xmlns:rdf="http://www.w3.org/1999/02/22-rdf-syntax-ns#"
   xmlns:svg="http://www.w3.org/2000/svg"
   xmlns="http://www.w3.org/2000/svg"
   xmlns:sodipodi="http://sodipodi.sourceforge.net/DTD/sodipodi-0.dtd"
   xmlns:inkscape="http://www.inkscape.org/namespaces/inkscape"
   width="476.12939"
   height="472.23901"
   viewBox="0 0 476.12939 472.23901"
   id="svg2"
   version="1.1"
   inkscape:version="0.91 r13725"
   sodipodi:docname="KEF.svg"
   inkscape:export-filename="C:\Users\paulb\Dropbox\Projects\Terminal Silhouettes\Silhouettes\png-portfolio\KEF.png"
   inkscape:export-xdpi="90"
   inkscape:export-ydpi="90">
  <defs
     id="defs4" />
  <sodipodi:namedview
     id="base"
     pagecolor="#ffffff"
     bordercolor="#666666"
     borderopacity="1.0"
     inkscape:pageopacity="1"
     inkscape:pageshadow="2"
     inkscape:zoom="1"
     inkscape:cx="281.58697"
     inkscape:cy="252.69589"
     inkscape:document-units="px"
     inkscape:current-layer="layer3"
     showgrid="false"
     units="px"
     fit-margin-top="25"
     fit-margin-left="25"
     fit-margin-right="25"
     fit-margin-bottom="25"
     showguides="true"
     inkscape:guide-bbox="true"
     inkscape:window-width="1920"
     inkscape:window-height="1137"
     inkscape:window-x="1912"
     inkscape:window-y="-8"
     inkscape:window-maximized="1" />
  <metadata
     id="metadata7">
    <rdf:RDF>
      <cc:Work
         rdf:about="">
        <dc:format>image/svg+xml</dc:format>
        <dc:type
           rdf:resource="http://purl.org/dc/dcmitype/StillImage" />
        <dc:title></dc:title>
      </cc:Work>
    </rdf:RDF>
  </metadata>
  <g
     inkscape:groupmode="layer"
     id="layer2"
     inkscape:label="Terminal"
     transform="translate(-678.00006,-444.56952)">
    <path
       style="fill:#dddddd;fill-opacity:1;fill-rule:evenodd;stroke:#222222;stroke-width:1.5;stroke-linecap:butt;stroke-linejoin:miter;stroke-miterlimit:4;stroke-dasharray:none;stroke-opacity:1"
       d="m 715.49089,595.21225 -11.32361,-11.49013 c 0,0 8.49271,-5.74506 8.32618,-22.39743 l 2.99743,-0.0833 0,-83.76139 48.87469,0.0833 0.0833,-7.24378 16.23606,0 0,7.24378 46.21031,0 0,83.05827 3.29429,0.2355 c 0,0 0.58875,14.8365 5.29875,20.13525 l -8.59304,8.55813 0,16.99362 -50.51746,0 0,58.77464 2.2256,0 0,9.24206 -2.2256,0 0,57.86697 2.2256,0 0,9.32532 -2.2256,0 0,70.93908 37.36209,0 1.16567,45.96051 -2.16481,-0.33303 -0.83262,3.66353 18.65065,3.99656 0.33305,-1.58197 6.49442,1.33219 -0.24979,1.49872 2.33133,0.49956 -4.45049,23.18209 -61.4655,-13.54124 -53.34075,10.71525 -3.50306,-22.10757 21.75979,-4.67564 -0.35873,-1.7123 7.065,-1.53073 0.38919,1.7184 18.46896,-3.96853 0.15847,-4.28498 -0.58874,0 0,-38.83082 5.47537,0 0,-70.93908 -2.21381,0 0,-9.32532 2.21381,0 0,-57.86697 -2.21381,0 0,-9.24206 2.21381,0 0,-58.77464 -53.58636,0 z"
       id="path4168"
       inkscape:connector-curvature="0" />
  </g>
  <g
     inkscape:groupmode="layer"
     id="layer3"
     inkscape:label="Label"
     transform="translate(-678.00006,-444.56952)">
    <g
       id="g4193"
       transform="translate(-64,-42)">
      <g
         style="font-style:normal;font-variant:normal;font-weight:bold;font-stretch:normal;font-size:125px;line-height:125%;font-family:Overpass;-inkscape-font-specification:'Overpass, Bold';text-align:start;letter-spacing:0px;word-spacing:0px;writing-mode:lr-tb;text-anchor:start;fill:#dddddd;fill-opacity:1;stroke:#222222;stroke-width:0.25;stroke-linecap:butt;stroke-linejoin:miter;stroke-miterlimit:4;stroke-dasharray:none;stroke-opacity:1"
         id="text4179">
        <path
           d="m 1017.8946,599.21893 -22.52198,-41.87011 -16.23535,20.01953 0,21.85058 -16.90674,0 0,-87.52441 16.90674,0 0,41.74805 33.14213,-41.74805 19.9585,0 -25.5127,31.37207 30.8837,56.15234 -19.7143,0 z"
           style=""
           id="path4201" />
        <path
           d="m 1053.7833,599.21893 0,-87.52441 59.7534,0 0,16.05225 -42.8467,0 0,18.37158 25.2075,0 0,15.99121 -25.2075,0 0,21.11816 45.4712,0 0,15.99121 -62.3779,0 z"
           style=""
           id="path4203" />
        <path
           d="m 1134.3497,599.21893 0,-87.52441 58.6548,0 0,16.05225 -41.7481,0 0,18.37158 26.4893,0 0,15.99121 -26.4893,0 0,37.10937 -16.9067,0 z"
           style=""
           id="path4205" />
      </g>
      <g
         style="font-style:normal;font-variant:normal;font-weight:normal;font-stretch:normal;font-size:45px;line-height:110.00000238%;font-family:Overpass;-inkscape-font-specification:'Overpass, Normal';text-align:start;letter-spacing:0px;word-spacing:0px;writing-mode:lr-tb;text-anchor:start;fill:#222222;fill-opacity:1;stroke:none;stroke-width:1px;stroke-linecap:butt;stroke-linejoin:miter;stroke-opacity:1"
         id="text4183">
        <path
           d="m 962.10553,647.28107 0,-31.50879 13.27148,0 q 2.90039,0 4.85596,0.79101 1.95557,0.79102 3.14209,2.10938 1.18652,1.29639 1.66992,2.96631 0.50537,1.66992 0.50537,3.4497 0,1.36231 -0.3955,2.74659 -0.39551,1.38427 -1.23047,2.61474 -0.81299,1.2085 -2.10938,2.15332 -1.29638,0.92285 -3.09814,1.40625 l 6.48193,13.27149 -5.36133,0 -6.19629,-12.87598 -6.85546,0 0,12.87598 -4.68018,0 z m 13.38135,-17.38037 q 1.47217,0 2.46093,-0.39551 0.98877,-0.41748 1.60401,-1.09863 0.61523,-0.68116 0.87891,-1.53809 0.26367,-0.85693 0.26367,-1.77979 0,-0.81298 -0.2417,-1.66992 -0.21973,-0.85693 -0.81299,-1.56006 -0.59326,-0.70312 -1.604,-1.14257 -1.01075,-0.43946 -2.54883,-0.43946 l -8.70117,0 0,9.62403 8.70117,0 z"
           style=""
           id="path4208" />
        <path
           d="m 1001.1729,647.83038 q -2.39501,0 -4.3286,-0.81298 -1.93359,-0.83497 -3.2959,-2.37305 -1.3623,-1.56006 -2.10937,-3.80127 -0.7251,-2.24121 -0.7251,-5.07568 0,-2.83448 0.74707,-5.05372 0.74707,-2.24121 2.10937,-3.77929 1.38428,-1.56006 3.2959,-2.37305 1.9336,-0.81299 4.30663,-0.81299 2.0435,0 3.8233,0.65918 1.8017,0.63721 3.142,1.97754 1.3623,1.31836 2.1314,3.33984 0.791,2.02149 0.791,4.76807 0,0.74707 -0.044,1.58203 -0.022,0.83496 -0.1319,1.4502 l -15.4907,0 q 0.022,1.42822 0.50538,2.5708 0.50537,1.1206 1.31835,1.93359 0.81299,0.79102 1.84571,1.23047 1.03276,0.41748 2.15336,0.41748 1.4282,0 2.6367,-0.59326 1.2304,-0.59326 2.1313,-1.73584 l 3.0542,3.14209 q -1.2524,1.49414 -3.208,2.41699 -1.9556,0.92285 -4.6582,0.92285 z m 0,-19.95117 q -1.0986,0 -2.10936,0.32959 -1.01074,0.30762 -1.80176,1.01074 -0.76904,0.68116 -1.27441,1.80176 -0.50538,1.12061 -0.59327,2.72461 l 10.9863,0 q -0.044,-1.604 -0.5053,-2.72461 -0.4615,-1.1206 -1.2085,-1.80176 -0.7471,-0.70312 -1.67,-1.01074 -0.9008,-0.32959 -1.8237,-0.32959 z"
           style=""
           id="path4210" />
        <path
           d="m 1024.0245,656.00421 -4.7681,0 3.5376,-9.11865 -8.5913,-22.60986 4.6362,0 5.669,15.05127 q 0.2417,0.6372 0.3735,1.05468 0.1318,0.41748 0.2637,0.9668 0.1318,-0.54932 0.2637,-0.9668 0.1318,-0.41748 0.3735,-1.05468 l 5.7129,-15.05127 4.6802,0 -12.1509,31.72851 z"
           style=""
           id="path4212" />
        <path
           d="m 1040.7237,647.28107 0,-30.27832 4.6802,-2.21924 0,16.61133 6.7895,-7.11914 5.7569,0 -6.3062,6.39404 8.6353,16.61133 -5.1197,0 -6.7895,-13.22754 -2.9663,2.96631 0,10.26123 -4.6802,0 z"
           style=""
           id="path4214" />
        <path
           d="m 1059.2906,653.45538 q 1.7798,-0.3955 2.9663,-0.8789 1.2085,-0.46143 1.9336,-1.12061 0.7251,-0.65918 1.0327,-1.56006 0.3296,-0.8789 0.3296,-2.10937 l 0,-23.51074 4.6802,0 0,21.92871 q 0,1.01074 -0.088,1.99951 -0.088,1.01074 -0.3296,1.95556 -0.2417,0.94483 -0.6592,1.77979 -0.4175,0.85693 -1.0986,1.56006 -0.791,0.83496 -1.626,1.40625 -0.835,0.57129 -1.6699,0.94482 -0.835,0.39551 -1.648,0.63721 -0.813,0.26367 -1.582,0.41748 l -2.2412,-3.44971 z m 8.5913,-32.76123 q -0.5933,0 -1.1206,-0.21972 -0.5054,-0.21973 -0.9009,-0.59327 -0.3735,-0.3955 -0.5932,-0.90087 -0.2198,-0.52735 -0.2198,-1.12061 0,-0.59326 0.2198,-1.09863 0.2197,-0.52735 0.5932,-0.90088 0.3955,-0.39551 0.9009,-0.61524 0.5273,-0.21972 1.1206,-0.21972 0.5933,0 1.0986,0.21972 0.5274,0.21973 0.9009,0.61524 0.3955,0.37353 0.6152,0.90088 0.2198,0.50537 0.2198,1.09863 0,0.59326 -0.2198,1.12061 -0.2197,0.50537 -0.6152,0.90087 -0.3735,0.37354 -0.9009,0.59327 -0.5053,0.21972 -1.0986,0.21972 z"
           style=""
           id="path4216" />
        <path
           d="m 1094.6446,647.28107 -4.4824,0 0,-1.97754 q -0.4395,0.46142 -1.0547,0.92285 -0.6153,0.43945 -1.4063,0.81299 -0.769,0.35156 -1.7358,0.57129 -0.9668,0.21972 -2.1094,0.21972 -1.7578,0 -3.2519,-0.4834 -1.4942,-0.48339 -2.5928,-1.45019 -1.0986,-0.98877 -1.7358,-2.41699 -0.6153,-1.4502 -0.6153,-3.36182 0,-1.97754 0.7471,-3.40576 0.7471,-1.4502 1.9775,-2.37305 1.2305,-0.94482 2.8125,-1.38427 1.604,-0.43946 3.2959,-0.43946 1.5821,0 3.0323,0.35156 1.4721,0.32959 2.6367,1.01075 l 0,-1.27442 q 0,-1.29638 -0.3076,-2.19726 -0.2857,-0.90088 -0.9009,-1.4502 -0.5933,-0.57129 -1.5161,-0.81299 -0.9229,-0.26367 -2.1973,-0.26367 -2.1533,0 -3.7354,0.57129 -1.56,0.57129 -2.8344,1.51611 l -1.3843,-3.84521 q 0.7031,-0.4834 1.604,-0.90088 0.9009,-0.43945 1.9775,-0.76904 1.0767,-0.32959 2.3291,-0.50537 1.2525,-0.19776 2.6807,-0.19776 0.9668,0 1.9995,0.10987 1.0327,0.10986 1.9995,0.43945 0.9888,0.30762 1.8457,0.90088 0.8789,0.59326 1.5161,1.56006 0.6592,0.94482 1.0328,2.3291 0.3735,1.38427 0.3735,3.2959 l 0,14.89746 z m -9.9316,-3.60352 q 1.7797,0 3.142,-0.7251 1.3843,-0.72509 2.3072,-1.73584 l 0,-3.51562 q -0.9668,-0.50537 -2.2632,-0.81299 -1.2964,-0.30762 -2.6587,-0.30762 -1.0547,0 -1.9775,0.19776 -0.9229,0.19775 -1.626,0.6372 -0.6812,0.41748 -1.0767,1.09864 -0.3955,0.65918 -0.3955,1.604 0,1.64795 1.1426,2.61475 1.1645,0.94482 3.4058,0.94482 z"
           style=""
           id="path4218" />
        <path
           d="m 1111.5416,647.28107 -4.3726,0 -8.4155,-23.00537 4.6802,0 5.3173,15.09521 q 0.1978,0.59326 0.3296,1.03272 0.1538,0.43945 0.3076,0.98877 0.1319,-0.54932 0.2637,-0.98877 0.1538,-0.43946 0.3516,-1.03272 l 5.2734,-15.09521 4.6802,0 -8.4155,23.00537 z"
           style=""
           id="path4220" />
        <path
           d="m 1124.5274,647.28107 0,-23.00537 4.6802,0 0,23.00537 -4.6802,0 z m 1.5381,-25.92774 -4.7681,0 6.3721,-7.00927 6.394,0 -7.998,7.00927 z"
           style=""
           id="path4222" />
        <path
           d="m 1135.9971,647.28107 0,-30.27832 4.6802,-2.21924 0,16.61133 6.7896,-7.11914 5.7568,0 -6.3062,6.39404 8.6353,16.61133 -5.1196,0 -6.7896,-13.22754 -2.9663,2.96631 0,10.26123 -4.6802,0 z"
           style=""
           id="path4224" />
        <path
           d="m 1159.6397,636.38263 0,-4.04297 17.7759,0 0,4.04297 -17.7759,0 z"
           style=""
           id="path4226" />
        <path
           d="m 981.24371,696.78107 -8.87695,-16.47949 -5.58105,6.76757 0,9.71192 -4.68018,0 0,-31.50879 4.68018,0 0,15.27099 12.15087,-15.27099 5.40528,0 -8.81104,11.07422 11.20606,20.43457 -5.49317,0 z"
           style=""
           id="path4228" />
        <path
           d="m 1001.2608,697.33038 q -2.39502,0 -4.32861,-0.81298 -1.93359,-0.83496 -3.2959,-2.37305 -1.3623,-1.56006 -2.10937,-3.80127 -0.7251,-2.24121 -0.7251,-5.07568 0,-2.83448 0.74707,-5.05371 0.74707,-2.24122 2.10937,-3.7793 1.38428,-1.56006 3.2959,-2.37305 1.9336,-0.81299 4.30664,-0.81299 2.0435,0 3.8232,0.65918 1.8018,0.63721 3.1421,1.97754 1.3623,1.31836 2.1314,3.33985 0.791,2.02148 0.791,4.76806 0,0.74707 -0.044,1.58203 -0.022,0.83496 -0.1319,1.4502 l -15.49071,0 q 0.022,1.42822 0.50538,2.5708 0.50537,1.1206 1.31836,1.93359 0.81298,0.79102 1.8457,1.23047 1.03267,0.41748 2.15327,0.41748 1.4283,0 2.6368,-0.59326 1.2304,-0.59326 2.1313,-1.73584 l 3.0542,3.14209 q -1.2524,1.49414 -3.208,2.41699 -1.9556,0.92285 -4.6582,0.92285 z m 0,-19.95117 q -1.0986,0 -2.10937,0.32959 -1.01074,0.30762 -1.80176,1.01074 -0.76904,0.68116 -1.27441,1.80176 -0.50537,1.12061 -0.59327,2.72461 l 10.98631,0 q -0.044,-1.604 -0.5053,-2.72461 -0.4615,-1.1206 -1.2085,-1.80176 -0.7471,-0.70312 -1.67,-1.01074 -0.9008,-0.32959 -1.8237,-0.32959 z"
           style=""
           id="path4230" />
        <path
           d="m 1022.838,677.84064 0,18.94043 -4.6802,0 0,-18.94043 -3.4058,0 0,-4.06494 3.4058,0 0,-3.66944 q 0,-1.58203 0.4614,-2.61474 0.4614,-1.05469 1.1865,-1.64795 0.7471,-0.61524 1.6919,-0.85694 0.9448,-0.24169 1.9336,-0.24169 1.3623,0 2.461,0.28564 1.0986,0.28564 2.1313,0.79102 l 0,3.86718 q -1.0547,-0.43945 -1.8237,-0.61523 -0.7691,-0.19776 -1.4722,-0.19776 -0.5713,0 -0.9448,0.15381 -0.3516,0.15381 -0.5713,0.43946 -0.2197,0.28564 -0.3076,0.65918 -0.066,0.37353 -0.066,0.81298 l 0,2.83448 5.1855,0 0,4.06494 -5.1855,0 z m 8.3276,18.94043 0,-30.27832 4.6802,-2.21924 0,32.49756 -4.6802,0 z"
           style=""
           id="path4232" />
        <path
           d="m 1060.4551,696.78107 -4.4824,0 0,-1.97754 q -0.4394,0.46142 -1.0547,0.92285 -0.6152,0.43945 -1.4062,0.81299 -0.7691,0.35156 -1.7359,0.57129 -0.9668,0.21972 -2.1093,0.21972 -1.7578,0 -3.252,-0.48339 -1.4941,-0.4834 -2.5928,-1.4502 -1.0986,-0.98877 -1.7358,-2.41699 -0.6152,-1.4502 -0.6152,-3.36182 0,-1.97754 0.747,-3.40576 0.7471,-1.4502 1.9776,-2.37305 1.2304,-0.94482 2.8125,-1.38427 1.604,-0.43946 3.2959,-0.43946 1.582,0 3.0322,0.35157 1.4722,0.32959 2.6367,1.01074 l 0,-1.27442 q 0,-1.29638 -0.3076,-2.19726 -0.2856,-0.90088 -0.9009,-1.4502 -0.5932,-0.57129 -1.5161,-0.81299 -0.9228,-0.26367 -2.1973,-0.26367 -2.1533,0 -3.7353,0.57129 -1.5601,0.57129 -2.8345,1.51611 l -1.3843,-3.84521 q 0.7032,-0.4834 1.604,-0.90088 0.9009,-0.43945 1.9776,-0.76904 1.0766,-0.32959 2.3291,-0.50537 1.2524,-0.19776 2.6806,-0.19776 0.9668,0 1.9996,0.10987 1.0327,0.10986 1.9995,0.43945 0.9887,0.30762 1.8457,0.90088 0.8789,0.59326 1.5161,1.56006 0.6592,0.94482 1.0327,2.3291 0.3735,1.38428 0.3735,3.2959 l 0,14.89746 z m -9.9316,-3.60352 q 1.7798,0 3.1421,-0.7251 1.3843,-0.72509 2.3071,-1.73584 l 0,-3.51562 q -0.9668,-0.50537 -2.2632,-0.81299 -1.2964,-0.30762 -2.6587,-0.30762 -1.0546,0 -1.9775,0.19776 -0.9228,0.19775 -1.626,0.63721 -0.6811,0.41748 -1.0766,1.09863 -0.3955,0.65918 -0.3955,1.604 0,1.64795 1.1425,2.61475 1.1646,0.94482 3.4058,0.94482 z"
           style=""
           id="path4234" />
        <path
           d="m 1077.3521,696.78107 -4.3725,0 -8.4156,-23.00537 4.6802,0 5.3174,15.09521 q 0.1977,0.59326 0.3296,1.03272 0.1538,0.43945 0.3076,0.98877 0.1318,-0.54932 0.2637,-0.98877 0.1538,-0.43946 0.3515,-1.03272 l 5.2735,-15.09521 4.6801,0 -8.4155,23.00537 z"
           style=""
           id="path4236" />
        <path
           d="m 1090.338,696.78107 0,-23.00537 4.6801,0 0,23.00537 -4.6801,0 z m 1.538,-25.92774 -4.768,0 6.372,-7.00927 6.3941,0 -7.9981,7.00927 z"
           style=""
           id="path4238" />
        <path
           d="m 1101.8077,696.78107 0,-30.27832 4.6802,-2.21924 0,16.61133 6.7895,-7.11914 5.7568,0 -6.3061,6.39404 8.6352,16.61133 -5.1196,0 -6.7895,-13.22754 -2.9663,2.96631 0,10.26123 -4.6802,0 z"
           style=""
           id="path4240" />
      </g>
    </g>
  </g>
</svg>
