<?xml version="1.0" encoding="UTF-8" standalone="no"?>
<!-- Created with Inkscape (http://www.inkscape.org/) -->

<svg
   xmlns:dc="http://purl.org/dc/elements/1.1/"
   xmlns:cc="http://creativecommons.org/ns#"
   xmlns:rdf="http://www.w3.org/1999/02/22-rdf-syntax-ns#"
   xmlns:svg="http://www.w3.org/2000/svg"
   xmlns="http://www.w3.org/2000/svg"
   xmlns:sodipodi="http://sodipodi.sourceforge.net/DTD/sodipodi-0.dtd"
   xmlns:inkscape="http://www.inkscape.org/namespaces/inkscape"
   width="2007.8104"
   height="863.6134"
   viewBox="0 0 2007.8104 863.61343"
   id="svg2"
   version="1.1"
   inkscape:version="0.91 r13725"
   sodipodi:docname="LAS.svg"
   inkscape:export-filename="C:\Users\paulb\Dropbox\Projects\Terminal Silhouettes\Silhouettes\png\LAS.png"
   inkscape:export-xdpi="90"
   inkscape:export-ydpi="90">
  <sodipodi:namedview
     id="base"
     pagecolor="#ffffff"
     bordercolor="#666666"
     borderopacity="1.0"
     inkscape:pageopacity="1"
     inkscape:pageshadow="2"
     inkscape:zoom="0.49497475"
     inkscape:cx="961.8277"
     inkscape:cy="436.6696"
     inkscape:document-units="px"
     inkscape:current-layer="layer1"
     showgrid="false"
     units="px"
     fit-margin-top="25"
     fit-margin-left="25"
     fit-margin-right="25"
     fit-margin-bottom="25"
     showguides="true"
     inkscape:guide-bbox="true"
     inkscape:window-width="1920"
     inkscape:window-height="1137"
     inkscape:window-x="1912"
     inkscape:window-y="-8"
     inkscape:window-maximized="1"
     inkscape:object-nodes="true"
     inkscape:snap-object-midpoints="true">
    <inkscape:grid
       type="xygrid"
       id="grid4475"
       originx="-1152.4981"
       originy="-1097.3623" />
  </sodipodi:namedview>
  <defs
     id="defs4" />
  <metadata
     id="metadata7">
    <rdf:RDF>
      <cc:Work
         rdf:about="">
        <dc:format>image/svg+xml</dc:format>
        <dc:type
           rdf:resource="http://purl.org/dc/dcmitype/StillImage" />
        <dc:title></dc:title>
        <dc:creator>
          <cc:Agent>
            <dc:title>Paul Bogard</dc:title>
          </cc:Agent>
        </dc:creator>
        <dc:description>Terminal silhouette of LAS (Las Vegas)</dc:description>
      </cc:Work>
    </rdf:RDF>
  </metadata>
  <g
     inkscape:groupmode="layer"
     id="layer2"
     inkscape:label="Terminal"
     transform="translate(-1152.4982,-1087.7743)">
    <path
       style="opacity:1;fill:#dddddd;fill-opacity:1;stroke:#222222;stroke-width:1.5;stroke-linejoin:miter;stroke-miterlimit:4;stroke-dasharray:none;stroke-dashoffset:0;stroke-opacity:1"
       d="m 2911.6407,1884.7455 c 17.8167,-7.7185 22.4641,-26.415 22.4641,-26.415 l -50.9902,-50.9904 2.3436,-2.3436 -43.6982,-43.6977 -2.3441,2.3426 -29.7677,-29.7676 a 29.08166,29.08166 0 0 0 4e-4,-41.1267 l 3.9138,-3.9148 -0.7673,-0.7679 30.0875,-30.0878 0.7678,0.7689 0.6431,-0.6441 14.7287,-14.7287 19.2229,-19.2227 35.7258,-1e-4 a 52.147955,52.147955 0 0 0 -13.2351,-51.2591 52.147955,52.147955 0 0 0 -37.6399,-15.2548 l 0,5e-4 a 52.147955,52.147955 0 0 0 -13.6175,2.0193 l -4e-4,35.7247 -19.2224,19.2238 -14.7297,14.7292 -0.6425,0.6426 0.7662,0.7683 -30.0874,30.0877 -0.7669,-0.7667 -12.6363,12.6361 -2.132,-4.1718 c -20.5144,-4.0825 -41.0288,-5e-4 -41.0288,-5e-4 a 26.504085,26.504085 0 0 0 -12.0348,-7.8993 l -0.603,-8.4307 -4.3345,-3e-4 a 10.466406,10.466406 0 0 0 5.8658,-4.5353 l 2.8857,-10e-5 0,-10.9446 -2.8819,-3e-4 a 10.466406,10.466406 0 0 0 -2.8611,-3.0579 l -0.1887,-2.6301 -11.7243,5e-4 -0.1898,2.6411 a 10.466406,10.466406 0 0 0 -2.8541,3.0464 l -2.8883,0 0,10.9452 2.8831,-3e-4 a 10.466406,10.466406 0 0 0 5.8934,4.5355 l -4.3597,0 -0.6003,8.3957 a 26.504085,26.504085 0 0 0 -12.0589,7.9337 c -20.5145,-4.0825 -41.0288,-4e-4 -41.0288,-4e-4 l 0.015,0.014 -2.1243,4.1599 -12.525,-12.524 -17.1545,-17.1555 -8.1847,-8.1843 -6.5441,-6.5444 -19.2237,-19.2224 -1e-4,-35.7258 a 52.147955,52.147955 0 0 0 -51.2575,13.2357 52.147955,52.147955 0 0 0 -13.2355,51.2574 l 35.7258,-2e-4 19.2227,19.2229 6.544,6.5444 8.1847,8.1843 17.1554,17.155 3.8013,3.8014 a 29.08166,29.08166 0 0 0 10e-5,41.1277 l -29.7676,29.7678 -2.3436,-2.3436 -43.6987,43.6987 2.3436,2.3436 -50.9904,50.9902 c 5.6599,22.7667 28.4269,28.4258 28.4269,28.4258 l 50.9893,-50.9897 2.3436,2.3436 43.6987,-43.6987 -2.3437,-2.3435 48.836,-48.8368 a 97.375822,97.375822 0 0 0 38.2312,14.7247 l -0.7408,10.3675 31.3593,2e-4 -0.7423,-10.3921 a 97.375822,97.375822 0 0 0 38.2542,-14.6801 l 48.816,48.816 -2.3436,2.3435 43.6982,43.6977 2.3436,-2.3436 50.9902,50.9903 c 2.1344,-0.5306 4.1191,-1.2122 5.9622,-2.0107 z m -959.6626,17.3001 -3.1671,-6.87 2.3342,-1.0761 -1.3747,-2.9821 8.1561,-3.76 -1.4247,-3.0904 -8.1561,3.76 -24.2497,-52.6017 8.1561,-3.76 -1.4242,-3.0894 -8.1561,3.7601 -14.7797,-32.0595 8.1562,-3.76 -1.4247,-3.0904 -8.1561,3.76 -17.9126,-38.8552 8.1561,-3.7601 -1.4247,-3.0904 -8.1561,3.76 -4.8381,-10.4947 -3.878,-8.412 8.1561,-3.76 -1.4242,-3.0894 -8.1561,3.7601 -0.4274,-0.9272 3.1818,-1.4668 -9.8926,-21.4586 -3.3718,-7.314 6.2105,-2.8631 -1.4247,-3.0904 -6.2105,2.8631 -0.6198,-1.3445 -3.1818,1.4668 -5.363,2.4725 -10.7772,4.9683 5.4163,11.7488 4.3691,-2.0141 8.6069,18.6698 -2.3743,5.0646 5.5058,11.9432 -21.7496,10.0267 -30.6579,-66.5021 3.4876,-1.6079 -21.1433,-45.8633 -3.4876,1.6078 -17.915,-38.8605 -2.4107,1.1114 -4.1414,-8.9834 -4.6748,2.1551 -22.0231,-47.7718 1.7852,-0.823 2.8896,-1.3321 3.5641,-1.6431 -9.285,-20.1407 -3.5641,1.643 -38.4316,-83.3645 4.5475,-2.0964 -3.8496,-8.3504 18.586,-8.5683 1.5221,3.3018 -1.748,0.8058 3.4912,7.5731 5.8261,-2.6858 -1.2259,-2.6593 32.2921,-14.8869 1.2259,2.6593 5.8261,-2.6859 -3.4912,-7.5731 -1.7481,0.8059 -25.6827,-55.7102 5.0699,-2.3373 -24.2085,-52.5124 48.0606,-22.1563 -6.8371,-14.8308 -27.5461,-59.7521 -6.8371,-14.8307 -48.0606,22.1562 -24.2085,-52.5125 -6.7246,3.1001 -0.3589,-0.7785 c 0,0 -7.8634,1.2348 -18.7281,5.0618 l -1.3003,-2.8207 -0.01,0 c -0.02,0.017 -8.9082,7.5968 -20.452,9.4284 l -0.01,0 1.2324,2.6731 c -5.3947,3.0611 -10.8327,6.7231 -15.9439,11.1012 l 0.3589,0.7785 -6.7246,3.1001 24.2086,52.5124 -48.616,22.4124 -19.7867,-42.9206 -17.8891,-86.4851 -9.2661,1.9166 -0.3439,-1.6623 -3.205,0.6623 -6.0383,-29.1871 -8.2833,1.7132 0.7641,3.6937 -22.6678,4.6888 0.2034,29.9405 -0.7148,0.148 9.6092,46.4522 -2.1947,0.4542 8.9902,43.4616 2.1947,-0.4542 2.7545,13.3185 -60.0583,12.4242 -73.7468,-52.1196 -16.9074,23.9241 93.3674,65.9851 16.9074,-23.9241 -10.7852,-7.6217 52.8241,-10.9267 8.4943,41.0647 -5.8274,1.2055 2.0073,9.706 -23.3278,10.7542 -3.1891,-6.9178 -7.3798,3.4021 3.1891,6.9178 -7.8991,3.6416 -3.2284,-3.0199 -28.5391,17.6649 -1.937,-1.3695 4.9603,-7.019 -21.7853,-15.3966 -4.9604,7.0191 -3.65,-2.5797 6.3807,-9.0271 -23.8397,-16.8473 -6.3797,9.0268 -7.0958,-5.0152 4.9598,-7.0175 -21.7516,-15.3735 -4.9598,7.0176 -24.0541,-16.9995 -3.0978,-2.1891 -3.5346,-4.7201 -1.6132,-3.4993 -1.304,-5.7756 0.2022,-2.2011 1.3161,-14.3207 7.6729,0.7057 0.186,-2.0211 3.5947,-39.1177 a 24.504839,24.504839 0 0 0 0.7235,-0.291 24.504839,24.504839 0 0 0 11.9948,-32.5133 24.504839,24.504839 0 0 0 -32.5134,-11.9949 24.504839,24.504839 0 0 0 -11.9949,32.5134 24.504839,24.504839 0 0 0 8.7686,10.1828 l -3.5927,39.1052 7.673,0.7056 -0.185,2.0207 -1.3825,15.0453 -7.3797,-0.6785 -7.9958,11.3144 -8.5267,3.9309 3.2259,6.9975 -6.9912,3.2229 -5.6371,-12.2278 -16.5066,7.6096 2.4113,5.2304 -40.7244,18.7742 a 24.504839,24.504839 0 0 0 -25.0225,-2.7206 24.504839,24.504839 0 0 0 -11.9948,32.5134 24.504839,24.504839 0 0 0 32.5134,11.9948 24.504839,24.504839 0 0 0 14.1933,-20.8006 l 26.3417,-12.1437 -3.2259,-6.9975 2.1367,-0.985 3.2259,6.9975 24.4684,-11.2801 -3.2259,-6.9975 29.3058,-13.5101 28.287,19.9915 -4.1792,5.9146 15.3923,10.8778 4.1792,-5.9146 15.5873,11.0158 -4.1798,5.9135 27.59,19.499 4.1792,-5.9146 27.0035,19.0844 -6.0302,33.3512 29.2767,17.0745 -0.9033,9.8333 -12.9935,-1.194 -3.6439,39.6619 5.7807,0.5311 -1.2877,14.0165 -5.7822,-0.5317 -1.4898,16.2204 12.9919,1.1934 -3.7826,41.1654 -7.2101,-0.6628 -0.3129,3.3995 -8.576,-0.7877 -0.4843,5.2736 -21.9376,10.1134 1.339,2.9045 -14.8382,6.8405 5.3546,11.6152 -2.1356,0.9845 -3.2259,-6.9976 -35.1309,16.1956 a 24.504839,24.504839 0 0 0 -25.0027,-2.7309 24.504839,24.504839 0 0 0 -11.9949,32.5134 24.504839,24.504839 0 0 0 32.5134,11.9948 24.504839,24.504839 0 0 0 14.1534,-20.7809 l 37.275,-17.1841 -3.2259,-6.9974 34.6572,-15.9772 3.5062,6.8682 14.7571,1.6481 45.5119,32.1658 a 24.504839,24.504839 0 0 0 2.035,13.2717 24.504839,24.504839 0 0 0 32.5134,11.9948 24.504839,24.504839 0 0 0 11.9948,-32.5134 24.504839,24.504839 0 0 0 -32.5133,-11.9948 24.504839,24.504839 0 0 0 -0.702,0.3545 l -39.3087,-27.7798 111.1139,-38.427 51.6828,22.9766 2.605,3.3575 4.9819,-3.8663 10.5217,13.5582 58.8933,-3.7449 26.3793,33.9926 2.536,-1.1691 32.5698,70.6493 9.1735,-4.2291 0.5371,1.1651 -8.1561,3.76 1.4241,3.0893 8.1562,-3.76 23.127,50.1665 -8.156,3.76 1.4242,3.0894 8.1561,-3.76 9.8236,21.3089 -2.3078,1.0638 4.4312,9.6121 2.3078,-1.0638 10.999,23.8588 -8.1561,3.76 1.4242,3.0894 8.1561,-3.7601 12.8996,27.9814 -8.1561,3.7601 1.4243,3.0893 8.1561,-3.76 21.4899,46.6152 -8.1562,3.76 1.4242,3.0894 8.1562,-3.76 20.3345,44.1089 -8.1561,3.7601 1.4241,3.0893 8.1562,-3.76 13.5312,29.3514 0.7285,-0.3358 3.1671,6.87 4.8055,-2.2154 -3.167,-6.87 1.6333,-0.753 0.018,-0.01 9.1268,-4.2075 30.2648,-13.9523 3.1671,6.8701 4.8055,-2.2154 z m 1182.5804,-628.7653 10e-5,-29.0299 -24.192,0 -6e-4,-39.3132 -86.8374,-6e-4 3e-4,-26.7251 -481.3441,1e-4 0,26.7246 -86.8371,4e-4 -4e-4,39.3137 -24.1931,4e-4 -10e-5,29.0299 703.4036,-3e-4 z m -1429.1559,224.9601 -8.9134,4.1092 -15.0492,-19.3932 -15.8797,-9.5971 -9.3649,-12.0686 3.9615,-3.0741 -42.3254,-54.5407 -19.7866,-42.9205 48.6161,-22.4123 17.6623,38.3125 6.5462,14.2 4.376,9.4921 -12.3479,5.6924 19.7847,42.9163 22.7203,49.284 z m -82.9248,24.8857 -49.5312,-22.0215 -44.6751,15.4499 16.3356,-7.5308 -33.4177,-72.4886 36.7,-28.4812 2.1733,2.8007 -10.9455,8.4943 19.4228,25.0284 10.9454,-8.4944 2.2668,2.9199 -12.5058,9.7043 43.28,55.7707 19.2277,8.1503 4.1058,-3.1857 c 2.4669,3.1788 3.2404,4.1756 5.4529,7.0267 l -8.835,6.857 z m -104.9463,-2.8579 -56.3923,19.5021 1.9108,-20.8016 -7.5906,-0.6973 0.4306,-4.6861 -11.0063,-1.0117 3.6394,-39.6185 11.0062,1.0117 1.7008,-18.5002 0.3865,-4.2035 0.4213,-4.5943 -4.0757,-0.3745 -0.4213,4.5942 -6.9316,-0.6366 3.7912,-41.2582 31.9629,-10.2269 -0.1996,-4.4162 0.5214,-0.2404 3.1891,6.9178 7.3799,-3.4021 -3.1892,-6.9178 29.7274,-13.7045 10.6267,13.694 a 4.4115703,4.4115703 0 0 0 -1.3041,5.3271 4.4115703,4.4115703 0 0 0 5.8525,2.1591 4.4115703,4.4115703 0 0 0 0.8538,-0.5249 l 3.222,4.1509 -35.2511,27.3561 -6.3153,-13.6987 -26.605,12.2652 42.6596,92.5358 z"
       id="rect4163"
       inkscape:connector-curvature="0" />
  </g>
  <g
     inkscape:groupmode="layer"
     id="layer1"
     inkscape:label="Label"
     transform="translate(-1152.4982,-1087.7743)">
    <g
       id="g4397"
       transform="translate(22.923091,56.658337)">
      <g
         style="font-style:normal;font-variant:normal;font-weight:bold;font-stretch:normal;font-size:125px;line-height:125%;font-family:Overpass;-inkscape-font-specification:'Overpass, Bold';text-align:start;letter-spacing:0px;word-spacing:0px;writing-mode:lr-tb;text-anchor:start;fill:#dddddd;fill-opacity:1;stroke:#222222;stroke-width:0.25;stroke-linecap:butt;stroke-linejoin:miter;stroke-miterlimit:4;stroke-dasharray:none;stroke-opacity:1"
         id="text4379">
        <path
           d="m 1154.7001,1860.7206 0,-87.5244 16.9067,0 0,71.289 42.2363,0 0,16.2354 -59.143,0 z"
           style=""
           id="path4423" />
        <path
           d="m 1285.7426,1860.7206 -6.7749,-18.1275 -33.7525,0 -6.7139,18.1275 -18.1274,0 33.5083,-87.5244 16.4795,0 33.5083,87.5244 -18.1274,0 z m -20.8741,-56.2744 q -0.6714,-1.5869 -1.4648,-3.7842 -0.7324,-2.1973 -1.2818,-4.0894 -0.4882,1.8921 -1.2817,4.0894 -0.7934,2.1973 -1.4648,3.7842 l -8.667,22.7661 22.7661,0 -8.606,-22.7661 z"
           style=""
           id="path4425" />
        <path
           d="m 1361.7313,1796.9999 q -0.7934,-1.9531 -2.1362,-3.6621 -1.3428,-1.709 -3.2349,-2.9297 -1.831,-1.2818 -4.2724,-1.9531 -2.3804,-0.7325 -5.3101,-0.7325 -5.4932,0 -8.6059,2.1973 -3.0518,2.1973 -3.0518,6.1646 0,2.6245 1.9531,4.3945 1.9531,1.77 5.127,3.2348 3.1738,1.4039 7.2021,2.6856 4.0894,1.2817 8.3618,2.8686 4.2725,1.5259 8.3008,3.6622 4.0894,2.0751 7.2632,5.1879 3.1738,3.0518 5.127,7.3243 1.9531,4.2114 1.9531,10.1318 0,6.4087 -2.4414,11.3525 -2.4414,4.9439 -6.7139,8.3619 -4.2114,3.4179 -10.0098,5.1879 -5.7983,1.7701 -12.5122,1.7701 -6.1645,0 -11.5356,-1.648 -5.3711,-1.709 -9.7656,-4.8218 -4.3335,-3.1128 -7.5684,-7.5683 -3.2349,-4.4556 -5.1269,-10.0098 l 15.3808,-5.7373 q 1.4038,3.0518 3.3569,5.6152 2.0142,2.5025 4.4556,4.3335 2.4414,1.7701 5.249,2.8077 2.8687,0.9765 6.1036,0.9765 3.1738,0 5.7373,-0.6714 2.6245,-0.6714 4.4555,-2.0141 1.8921,-1.3428 2.8687,-3.2959 1.0376,-2.0142 1.0376,-4.6387 0,-3.1738 -1.9532,-5.3101 -1.9531,-2.1972 -5.1269,-3.7841 -3.1738,-1.648 -7.2632,-2.9297 -4.0283,-1.3428 -8.3008,-2.8076 -4.2114,-1.4649 -8.3008,-3.418 -4.0283,-1.9531 -7.2021,-4.8218 -3.1738,-2.8686 -5.127,-6.897 -1.9531,-4.0283 -1.9531,-9.7656 0,-4.9438 1.9531,-9.2773 2.0142,-4.3946 5.7984,-7.6905 3.7842,-3.2959 9.2773,-5.188 5.4932,-1.9531 12.5733,-1.9531 5.9204,0 10.6811,1.5259 4.8218,1.5259 8.4839,4.2725 3.6621,2.6855 6.1646,6.4087 2.5024,3.6621 3.7841,8.0566 l -15.1367,5.0049 z"
           style=""
           id="path4427" />
      </g>
      <g
         style="font-style:normal;font-variant:normal;font-weight:normal;font-stretch:normal;font-size:45px;line-height:125%;font-family:Overpass;-inkscape-font-specification:'Overpass, Normal';text-align:start;letter-spacing:0px;word-spacing:0px;writing-mode:lr-tb;text-anchor:start;fill:#222222;fill-opacity:1;stroke:none;stroke-width:1px;stroke-linecap:butt;stroke-linejoin:miter;stroke-opacity:1"
         id="text4383">
        <path
           d="m 1410.5331,1860.7206 0,-31.5088 4.6802,0 0,27.0044 15.4028,0 0,4.5044 -20.083,0 z"
           style=""
           id="path4430" />
        <path
           d="m 1453.6874,1860.7206 -4.4824,0 0,-1.9776 q -0.4395,0.4615 -1.0547,0.9229 -0.6153,0.4394 -1.4063,0.813 -0.769,0.3515 -1.7358,0.5713 -0.9668,0.2197 -2.1094,0.2197 -1.7578,0 -3.2519,-0.4834 -1.4942,-0.4834 -2.5928,-1.4502 -1.0987,-0.9888 -1.7359,-2.417 -0.6152,-1.4502 -0.6152,-3.3618 0,-1.9775 0.7471,-3.4058 0.747,-1.4502 1.9775,-2.373 1.2305,-0.9448 2.8125,-1.3843 1.604,-0.4394 3.2959,-0.4394 1.582,0 3.0322,0.3515 1.4722,0.3296 2.6368,1.0108 l 0,-1.2745 q 0,-1.2963 -0.3077,-2.1972 -0.2856,-0.9009 -0.9008,-1.4502 -0.5933,-0.5713 -1.5162,-0.813 -0.9228,-0.2637 -2.1972,-0.2637 -2.1533,0 -3.7354,0.5713 -1.56,0.5713 -2.8344,1.5161 l -1.3843,-3.8452 q 0.7031,-0.4834 1.604,-0.9009 0.9009,-0.4394 1.9775,-0.769 1.0767,-0.3296 2.3291,-0.5054 1.2525,-0.1977 2.6807,-0.1977 0.9668,0 1.9995,0.1098 1.0327,0.1099 1.9995,0.4395 0.9888,0.3076 1.8457,0.9009 0.8789,0.5932 1.5161,1.56 0.6592,0.9448 1.0327,2.3291 0.3736,1.3843 0.3736,3.2959 l 0,14.8975 z m -9.9317,-3.6035 q 1.7798,0 3.1421,-0.7251 1.3843,-0.7251 2.3072,-1.7359 l 0,-3.5156 q -0.9668,-0.5054 -2.2632,-0.813 -1.2964,-0.3076 -2.6587,-0.3076 -1.0547,0 -1.9776,0.1978 -0.9228,0.1977 -1.6259,0.6372 -0.6812,0.4174 -1.0767,1.0986 -0.3955,0.6592 -0.3955,1.604 0,1.6479 1.1426,2.6147 1.1645,0.9449 3.4057,0.9449 z"
           style=""
           id="path4432" />
        <path
           d="m 1467.1566,1861.2699 q -1.3623,0 -2.6587,-0.2637 -1.2964,-0.2636 -2.4389,-0.747 -1.1206,-0.4834 -2.0435,-1.1646 -0.9228,-0.7031 -1.5381,-1.5601 l 3.3179,-2.8344 q 0.3516,0.3296 0.8569,0.747 0.5054,0.3956 1.1646,0.7471 0.6592,0.3516 1.4721,0.5933 0.813,0.2417 1.7798,0.2417 0.8789,0 1.626,-0.1319 0.7471,-0.1318 1.2744,-0.4174 0.5493,-0.2857 0.835,-0.7471 0.3076,-0.4834 0.3076,-1.1865 0,-0.813 -0.5713,-1.3843 -0.5493,-0.5933 -1.4502,-1.0547 -0.9009,-0.4834 -2.0434,-0.9009 -1.1426,-0.4394 -2.3072,-0.9228 -1.0766,-0.4615 -2.1094,-1.0108 -1.0327,-0.5493 -1.8457,-1.3183 -0.791,-0.7691 -1.2963,-1.8238 -0.4834,-1.0766 -0.4834,-2.5927 0,-1.5381 0.6152,-2.7246 0.6372,-1.1866 1.7139,-1.9776 1.0986,-0.813 2.5488,-1.2305 1.4722,-0.4174 3.1421,-0.4174 1.4721,0 2.7026,0.2856 1.2525,0.2857 2.2412,0.7691 1.0108,0.4834 1.7798,1.1206 0.7691,0.6152 1.3403,1.2963 l -3.3837,2.6807 q -0.3077,-0.3076 -0.7471,-0.6372 -0.4175,-0.3516 -0.9888,-0.6372 -0.5713,-0.2856 -1.2964,-0.4614 -0.7251,-0.1978 -1.6479,-0.1978 -1.4942,0 -2.3731,0.5493 -0.8569,0.5493 -0.8569,1.5821 0,0.6591 0.4614,1.1645 0.4615,0.4834 1.2525,0.9009 0.791,0.4175 1.8017,0.813 1.0327,0.3735 2.1533,0.813 1.1866,0.4614 2.3291,1.0327 1.1426,0.5713 2.0215,1.4062 0.9009,0.835 1.4283,2.0215 0.5493,1.1865 0.5493,2.8565 0,1.6479 -0.6153,2.9223 -0.6152,1.2525 -1.7578,2.1094 -1.1206,0.835 -2.7246,1.2524 -1.582,0.4395 -3.5376,0.4395 z"
           style=""
           id="path4434" />
        <path
           d="m 1505.6747,1860.7206 -4.6802,0 -10.7886,-31.5088 5.0318,0 7.1631,21.9726 q 0.1977,0.6373 0.4614,1.5821 0.2856,0.9228 0.5273,2.0215 0.2417,-1.0987 0.5054,-2.0215 0.2856,-0.9448 0.4834,-1.5821 l 7.0752,-21.9726 4.9878,0 -10.7666,31.5088 z"
           style=""
           id="path4436" />
        <path
           d="m 1527.6473,1861.2699 q -2.395,0 -4.3286,-0.813 -1.9336,-0.835 -3.2959,-2.373 -1.3623,-1.5601 -2.1093,-3.8013 -0.7251,-2.2412 -0.7251,-5.0757 0,-2.8345 0.747,-5.0537 0.7471,-2.2412 2.1094,-3.7793 1.3843,-1.5601 3.2959,-2.373 1.9336,-0.813 4.3066,-0.813 2.0435,0 3.8233,0.6591 1.8017,0.6373 3.1421,1.9776 1.3623,1.3183 2.1313,3.3398 0.791,2.0215 0.791,4.7681 0,0.7471 -0.044,1.582 -0.022,0.835 -0.1318,1.4502 l -15.4908,0 q 0.022,1.4282 0.5054,2.5708 0.5054,1.1206 1.3184,1.9336 0.8129,0.791 1.8457,1.2305 1.0327,0.4175 2.1533,0.4175 1.4282,0 2.6367,-0.5933 1.2305,-0.5933 2.1314,-1.7358 l 3.0541,3.1421 q -1.2524,1.4941 -3.208,2.4169 -1.9555,0.9229 -4.6582,0.9229 z m 0,-19.9512 q -1.0986,0 -2.1093,0.3296 -1.0108,0.3076 -1.8018,1.0108 -0.769,0.6811 -1.2744,1.8017 -0.5054,1.1206 -0.5933,2.7246 l 10.9864,0 q -0.044,-1.604 -0.5054,-2.7246 -0.4614,-1.1206 -1.2085,-1.8017 -0.7471,-0.7032 -1.6699,-1.0108 -0.9009,-0.3296 -1.8238,-0.3296 z"
           style=""
           id="path4438" />
        <path
           d="m 1548.2797,1866.1259 q 2.5268,-0.1539 4.1748,-0.5933 1.6479,-0.4395 2.6147,-1.1206 0.9668,-0.6592 1.3403,-1.5601 0.3736,-0.9009 0.3736,-1.9555 l 0,-2.0215 q -1.9116,2.395 -5.5371,2.395 -1.9776,0 -3.6914,-0.7471 -1.7139,-0.769 -3.0103,-2.2851 -1.2744,-1.5161 -2.0215,-3.7574 -0.7251,-2.2631 -0.7251,-5.2734 0,-2.8345 0.7032,-5.0537 0.7031,-2.2412 1.9555,-3.7793 1.2744,-1.5601 3.0322,-2.373 1.7579,-0.813 3.8672,-0.813 1.0108,0 1.8457,0.1977 0.835,0.1758 1.4942,0.4834 0.6811,0.3076 1.1865,0.7031 0.5273,0.3736 0.9009,0.7691 l 0,-1.626 4.6802,0 0,21.2476 q 0,2.6367 -0.5274,4.4824 -0.5273,1.8457 -1.8017,3.1641 -0.857,0.8789 -1.8897,1.4282 -1.0107,0.5713 -2.1313,0.9228 -1.0987,0.3516 -2.2413,0.5054 -1.1425,0.1758 -2.2412,0.2637 l -2.351,-3.6035 z m 3.8232,-9.2725 q 1.4282,0 2.6587,-0.7031 1.2524,-0.7032 2.0215,-1.9995 l 0,-9.9537 q -0.3516,-0.5712 -0.8789,-1.0327 -0.5054,-0.4834 -1.1206,-0.8349 -0.5933,-0.3516 -1.2964,-0.5274 -0.6812,-0.1977 -1.3843,-0.1977 -2.7466,0 -4.1968,1.9555 -1.4282,1.9336 -1.4282,5.647 0,1.7578 0.3955,3.186 0.3955,1.4063 1.1206,2.3951 0.7251,0.9887 1.7578,1.538 1.0547,0.5274 2.3511,0.5274 z"
           style=""
           id="path4440" />
        <path
           d="m 1585.8749,1860.7206 -4.4824,0 0,-1.9776 q -0.4395,0.4615 -1.0547,0.9229 -0.6153,0.4394 -1.4063,0.813 -0.769,0.3515 -1.7358,0.5713 -0.9668,0.2197 -2.1094,0.2197 -1.7578,0 -3.2519,-0.4834 -1.4942,-0.4834 -2.5928,-1.4502 -1.0987,-0.9888 -1.7359,-2.417 -0.6152,-1.4502 -0.6152,-3.3618 0,-1.9775 0.7471,-3.4058 0.747,-1.4502 1.9775,-2.373 1.2305,-0.9448 2.8125,-1.3843 1.604,-0.4394 3.2959,-0.4394 1.582,0 3.0322,0.3515 1.4722,0.3296 2.6368,1.0108 l 0,-1.2745 q 0,-1.2963 -0.3077,-2.1972 -0.2856,-0.9009 -0.9008,-1.4502 -0.5933,-0.5713 -1.5162,-0.813 -0.9228,-0.2637 -2.1972,-0.2637 -2.1533,0 -3.7354,0.5713 -1.56,0.5713 -2.8344,1.5161 l -1.3843,-3.8452 q 0.7031,-0.4834 1.604,-0.9009 0.9009,-0.4394 1.9775,-0.769 1.0767,-0.3296 2.3291,-0.5054 1.2525,-0.1977 2.6807,-0.1977 0.9668,0 1.9995,0.1098 1.0327,0.1099 1.9995,0.4395 0.9888,0.3076 1.8457,0.9009 0.8789,0.5932 1.5161,1.56 0.6592,0.9448 1.0327,2.3291 0.3736,1.3843 0.3736,3.2959 l 0,14.8975 z m -9.9317,-3.6035 q 1.7798,0 3.1421,-0.7251 1.3843,-0.7251 2.3072,-1.7359 l 0,-3.5156 q -0.9668,-0.5054 -2.2632,-0.813 -1.2964,-0.3076 -2.6587,-0.3076 -1.0547,0 -1.9776,0.1978 -0.9228,0.1977 -1.6259,0.6372 -0.6812,0.4174 -1.0767,1.0986 -0.3955,0.6592 -0.3955,1.604 0,1.6479 1.1426,2.6147 1.1645,0.9449 3.4057,0.9449 z"
           style=""
           id="path4442" />
        <path
           d="m 1599.3441,1861.2699 q -1.3623,0 -2.6587,-0.2637 -1.2964,-0.2636 -2.4389,-0.747 -1.1206,-0.4834 -2.0435,-1.1646 -0.9228,-0.7031 -1.5381,-1.5601 l 3.3179,-2.8344 q 0.3516,0.3296 0.8569,0.747 0.5054,0.3956 1.1646,0.7471 0.6592,0.3516 1.4721,0.5933 0.813,0.2417 1.7798,0.2417 0.8789,0 1.626,-0.1319 0.7471,-0.1318 1.2744,-0.4174 0.5493,-0.2857 0.835,-0.7471 0.3076,-0.4834 0.3076,-1.1865 0,-0.813 -0.5713,-1.3843 -0.5493,-0.5933 -1.4502,-1.0547 -0.9009,-0.4834 -2.0434,-0.9009 -1.1426,-0.4394 -2.3072,-0.9228 -1.0766,-0.4615 -2.1094,-1.0108 -1.0327,-0.5493 -1.8457,-1.3183 -0.791,-0.7691 -1.2963,-1.8238 -0.4834,-1.0766 -0.4834,-2.5927 0,-1.5381 0.6152,-2.7246 0.6372,-1.1866 1.7139,-1.9776 1.0986,-0.813 2.5488,-1.2305 1.4722,-0.4174 3.1421,-0.4174 1.4721,0 2.7026,0.2856 1.2525,0.2857 2.2412,0.7691 1.0108,0.4834 1.7798,1.1206 0.7691,0.6152 1.3403,1.2963 l -3.3837,2.6807 q -0.3077,-0.3076 -0.7471,-0.6372 -0.4175,-0.3516 -0.9888,-0.6372 -0.5713,-0.2856 -1.2964,-0.4614 -0.7251,-0.1978 -1.6479,-0.1978 -1.4942,0 -2.3731,0.5493 -0.8569,0.5493 -0.8569,1.5821 0,0.6591 0.4614,1.1645 0.4615,0.4834 1.2525,0.9009 0.791,0.4175 1.8017,0.813 1.0327,0.3735 2.1533,0.813 1.1866,0.4614 2.3291,1.0327 1.1426,0.5713 2.0215,1.4062 0.9009,0.835 1.4283,2.0215 0.5493,1.1865 0.5493,2.8565 0,1.6479 -0.6153,2.9223 -0.6152,1.2525 -1.7578,2.1094 -1.1206,0.835 -2.7246,1.2524 -1.582,0.4395 -3.5376,0.4395 z"
           style=""
           id="path4444" />
      </g>
    </g>
  </g>
  <g
     inkscape:groupmode="layer"
     id="layer3"
     inkscape:label="Date"
     transform="translate(-1152.4982,-1087.7743)">
    <g
       style="font-style:normal;font-variant:normal;font-weight:300;font-stretch:normal;font-size:15px;line-height:125%;font-family:Overpass;-inkscape-font-specification:'Overpass, Light';text-align:start;letter-spacing:0px;word-spacing:0px;writing-mode:lr-tb;text-anchor:start;fill:#222222;fill-opacity:1;stroke:none;stroke-width:1px;stroke-linecap:butt;stroke-linejoin:miter;stroke-opacity:1"
       id="text4375">
      <path
         d="m 3061.1113,1926.2078 0,-8.595 -1.785,0 0,-0.6 q 0.795,0 1.35,-0.27 0.555,-0.285 0.81,-1.035 l 0.675,0 0,10.5 -1.05,0 z"
         style=""
         id="path4404" />
      <path
         d="m 3068.9931,1926.2078 0,-2.835 -5.1,0 0,-0.555 5.52,-7.11 0.63,0 0,6.765 1.59,0 0,0.9 -1.59,0 0,2.835 -1.05,0 z m 0,-3.735 0,-4.95 -3.735,4.95 3.735,0 z"
         style=""
         id="path4406" />
      <path
         d="m 3083.6535,1926.2078 -5.31,-8.535 0,8.535 -1.05,0 0,-10.5 1.065,0 5.31,8.655 0,-8.655 1.05,0 0,10.5 -1.065,0 z"
         style=""
         id="path4408" />
      <path
         d="m 3090.4047,1925.4428 q 1.05,0 1.62,-0.81 0.57,-0.81 0.57,-2.265 0,-1.44 -0.555,-2.25 -0.555,-0.81 -1.635,-0.81 -1.08,0 -1.635,0.795 -0.555,0.78 -0.555,2.28 0,1.44 0.555,2.25 0.555,0.81 1.635,0.81 z m 0,-7.08 q 0.735,0 1.335,0.27 0.615,0.27 1.035,0.78 0.435,0.51 0.675,1.26 0.24,0.735 0.24,1.695 0,0.945 -0.24,1.695 -0.24,0.75 -0.675,1.275 -0.42,0.51 -1.035,0.78 -0.6,0.27 -1.335,0.27 -0.735,0 -1.35,-0.27 -0.6,-0.27 -1.035,-0.78 -0.42,-0.51 -0.66,-1.245 -0.24,-0.75 -0.24,-1.71 0,-0.945 0.24,-1.68 0.24,-0.75 0.66,-1.26 0.435,-0.525 1.035,-0.795 0.615,-0.285 1.35,-0.285 z"
         style=""
         id="path4410" />
      <path
         d="m 3098.2569,1926.2078 -0.735,0 -2.805,-7.665 1.08,0 2.13,5.985 2.085,-5.985 1.05,0 -2.805,7.665 z"
         style=""
         id="path4412" />
      <path
         d="m 3106.1976,1926.2078 q 0,-0.99 0.285,-1.695 0.285,-0.72 0.735,-1.26 0.45,-0.54 1.02,-0.945 0.57,-0.405 1.14,-0.795 0.495,-0.33 0.945,-0.645 0.45,-0.33 0.795,-0.69 0.36,-0.36 0.57,-0.765 0.21,-0.42 0.21,-0.93 0,-0.855 -0.6,-1.425 -0.585,-0.585 -1.68,-0.585 -1.065,0 -1.605,0.48 -0.54,0.465 -0.735,1.215 l -0.93,-0.42 q 0.12,-0.465 0.405,-0.87 0.285,-0.405 0.72,-0.705 0.435,-0.3 0.99,-0.465 0.57,-0.18 1.245,-0.18 1.56,0 2.415,0.81 0.87,0.795 0.87,2.145 0,0.72 -0.285,1.275 -0.27,0.555 -0.72,1.02 -0.435,0.45 -0.99,0.84 -0.555,0.375 -1.125,0.735 -0.45,0.3 -0.87,0.6 -0.42,0.285 -0.78,0.63 -0.345,0.33 -0.585,0.735 -0.24,0.39 -0.33,0.885 l 5.775,0 0,1.005 -6.885,0 z"
         style=""
         id="path4414" />
      <path
         d="m 3118.7767,1926.3878 q -1.035,0 -1.725,-0.48 -0.69,-0.48 -1.11,-1.245 -0.405,-0.78 -0.585,-1.74 -0.18,-0.975 -0.18,-1.965 0,-0.54 0.06,-1.155 0.06,-0.63 0.21,-1.23 0.165,-0.6 0.42,-1.155 0.27,-0.555 0.675,-0.975 0.405,-0.42 0.945,-0.66 0.555,-0.255 1.29,-0.255 1.035,0 1.725,0.495 0.69,0.48 1.095,1.26 0.42,0.78 0.6,1.755 0.18,0.96 0.18,1.92 0,0.555 -0.075,1.17 -0.06,0.615 -0.225,1.23 -0.15,0.6 -0.42,1.155 -0.255,0.54 -0.66,0.96 -0.405,0.42 -0.96,0.675 -0.54,0.24 -1.26,0.24 z m 0,-0.945 q 0.78,0 1.26,-0.42 0.495,-0.435 0.765,-1.095 0.27,-0.66 0.36,-1.455 0.09,-0.795 0.09,-1.515 0,-0.81 -0.105,-1.605 -0.105,-0.81 -0.39,-1.44 -0.285,-0.645 -0.765,-1.035 -0.48,-0.405 -1.215,-0.405 -0.795,0 -1.29,0.435 -0.48,0.435 -0.75,1.095 -0.27,0.66 -0.375,1.455 -0.09,0.78 -0.09,1.5 0,0.825 0.105,1.635 0.105,0.795 0.39,1.44 0.285,0.63 0.765,1.02 0.495,0.39 1.245,0.39 z"
         style=""
         id="path4416" />
      <path
         d="m 3125.7988,1926.2078 0,-8.595 -1.785,0 0,-0.6 q 0.795,0 1.35,-0.27 0.555,-0.285 0.81,-1.035 l 0.675,0 0,10.5 -1.05,0 z"
         style=""
         id="path4418" />
      <path
         d="m 3130.8836,1926.2078 q 0.015,-1.23 0.15,-2.43 0.15,-1.2 0.51,-2.385 0.375,-1.185 0.99,-2.37 0.615,-1.2 1.575,-2.415 l -5.085,0 0,-0.9 6.285,0 0,0.69 q -1.095,1.26 -1.755,2.595 -0.66,1.32 -1.02,2.61 -0.36,1.275 -0.48,2.46 -0.12,1.185 -0.12,2.145 l -1.05,0 z"
         style=""
         id="path4420" />
    </g>
  </g>
</svg>
