<?xml version="1.0" encoding="UTF-8" standalone="no"?>
<!-- Created with Inkscape (http://www.inkscape.org/) -->

<svg
   xmlns:dc="http://purl.org/dc/elements/1.1/"
   xmlns:cc="http://creativecommons.org/ns#"
   xmlns:rdf="http://www.w3.org/1999/02/22-rdf-syntax-ns#"
   xmlns:svg="http://www.w3.org/2000/svg"
   xmlns="http://www.w3.org/2000/svg"
   xmlns:sodipodi="http://sodipodi.sourceforge.net/DTD/sodipodi-0.dtd"
   xmlns:inkscape="http://www.inkscape.org/namespaces/inkscape"
   width="307.48206"
   height="350.12799"
   viewBox="0 0 307.48206 350.128"
   id="svg4706"
   version="1.1"
   inkscape:version="0.91 r13725"
   sodipodi:docname="LAW.svg"
   inkscape:export-filename="C:\Users\paulb\Dropbox\Projects\Terminal Silhouettes\Silhouettes\png\LAW.png"
   inkscape:export-xdpi="90"
   inkscape:export-ydpi="90">
  <defs
     id="defs4708" />
  <sodipodi:namedview
     id="base"
     pagecolor="#ffffff"
     bordercolor="#666666"
     borderopacity="1.0"
     inkscape:pageopacity="1"
     inkscape:pageshadow="2"
     inkscape:zoom="1"
     inkscape:cx="179.91522"
     inkscape:cy="204.45061"
     inkscape:document-units="px"
     inkscape:current-layer="layer10"
     showgrid="false"
     inkscape:window-width="1920"
     inkscape:window-height="1137"
     inkscape:window-x="1912"
     inkscape:window-y="-8"
     inkscape:window-maximized="1"
     units="px"
     fit-margin-top="25"
     fit-margin-left="25"
     fit-margin-right="25"
     fit-margin-bottom="25"
     showguides="true"
     inkscape:guide-bbox="true"
     inkscape:object-nodes="true" />
  <metadata
     id="metadata4711">
    <rdf:RDF>
      <cc:Work
         rdf:about="">
        <dc:format>image/svg+xml</dc:format>
        <dc:type
           rdf:resource="http://purl.org/dc/dcmitype/StillImage" />
        <dc:title></dc:title>
        <dc:description>Terminal silhouette of LAW (Lawton)</dc:description>
      </cc:Work>
    </rdf:RDF>
  </metadata>
  <g
     inkscape:groupmode="layer"
     id="layer4"
     inkscape:label="Terminal"
     style="display:inline"
     transform="translate(-650.75549,-317.76107)">
    <path
       style="opacity:1;fill:#dddddd;fill-opacity:1;stroke:#222222;stroke-width:1.5;stroke-linejoin:miter;stroke-miterlimit:4;stroke-dasharray:none;stroke-dashoffset:0;stroke-opacity:1"
       d="m 773.18447,371.43047 -1.67625,4.30636 1.4357,0.55883 -2.60722,6.69829 -2.87089,-1.11722 -2.18804,5.62182 2.87089,1.11721 -2.79364,7.17703 -2.87065,-1.11742 -1.62946,4.18687 9.68894,3.77093 4.19013,-10.76539 16.6265,6.4715 -4.4229,11.36363 -11.6026,-4.51597 -4.93494,12.67885 7.53574,2.93327 -2.2813,5.86105 2.7511,1.07062 -1.9555,5.02384 15.7892,6.14566 5.4472,-13.9948 9.3302,3.63131 17.3386,-44.54742 1.9936,-1.94017 1.4325,1.47193 20.2372,-19.69493 -10.2056,-10.48657 -5.0594,4.92385 -14.0549,-14.4418 -12.05,11.72717 14.0548,14.4418 -1.0119,0.98477 -2.1158,2.05914 -5.2365,5.09618 -0.9814,-0.38191 0.4189,-1.07671 -8.8514,-3.44535 -0.4192,1.07696 -1.555,-0.60538 -2.933,7.53601 -13.3971,-5.21445 -3.1193,8.01399 2.8707,1.11742 -1.3034,3.3489 -6.1003,-2.37423 4.4694,-11.48288 -8.25367,-3.21261 z"
       id="rect6523"
       inkscape:connector-curvature="0" />
  </g>
  <g
     inkscape:groupmode="layer"
     id="layer10"
     inkscape:label="Label"
     transform="translate(-650.75549,-317.76107)">
    <g
       style="font-style:normal;font-variant:normal;font-weight:bold;font-stretch:normal;font-size:125px;line-height:125%;font-family:Overpass;-inkscape-font-specification:'Overpass, Bold';text-align:start;letter-spacing:0px;word-spacing:0px;writing-mode:lr-tb;text-anchor:start;fill:#dddddd;fill-opacity:1;stroke:#222222;stroke-width:0.25;stroke-linecap:butt;stroke-linejoin:miter;stroke-miterlimit:4;stroke-dasharray:none;stroke-opacity:1"
       id="text6726"
       transform="translate(5.9999979,0)">
      <path
         d="m 675.88049,568.70697 0,-87.52441 16.90674,0 0,71.28906 42.23633,0 0,16.23535 -59.14307,0 z"
         id="path7051"
         inkscape:connector-curvature="0" />
      <path
         d="m 806.92297,568.70697 -6.7749,-18.12744 -33.75244,0 -6.71387,18.12744 -18.12744,0 33.5083,-87.52441 16.47949,0 33.50831,87.52441 -18.12745,0 z m -20.87402,-56.27441 q -0.67139,-1.58692 -1.46484,-3.78418 -0.73243,-2.19727 -1.28174,-4.08936 -0.48828,1.89209 -1.28174,4.08936 -0.79346,2.19726 -1.46484,3.78418 l -8.667,22.76611 22.76612,0 -8.60596,-22.76611 z"
         id="path7053"
         inkscape:connector-curvature="0" />
      <path
         d="m 921.08264,481.18256 -18.9209,87.52441 -15.74707,0 -13.24463,-51.51367 q -0.54931,-2.0752 -0.79345,-3.66211 -0.24414,-1.64795 -0.42725,-2.92969 -0.1831,1.28174 -0.48828,2.92969 -0.30518,1.58691 -0.79346,3.54004 l -12.87842,51.63574 -15.74707,0 -18.73779,-87.52441 17.39502,0 9.76563,49.25537 q 0.48828,2.2583 0.67138,3.72314 0.24414,1.46485 0.42725,2.80762 0.1831,-1.34277 0.42724,-2.80762 0.24415,-1.52588 0.79346,-3.84521 l 12.02393,-49.1333 14.64844,0 12.20703,49.1333 q 0.61035,2.31933 0.85449,3.84521 0.24414,1.46485 0.42724,2.80762 0.18311,-1.34277 0.36622,-2.80762 0.24414,-1.46484 0.73242,-3.72314 l 9.76562,-49.25537 17.27295,0 z"
         id="path7055"
         inkscape:connector-curvature="0" />
    </g>
    <g
       style="font-style:normal;font-variant:normal;font-weight:normal;font-stretch:normal;font-size:45px;line-height:125%;font-family:Overpass;-inkscape-font-specification:'Overpass, Normal';text-align:start;letter-spacing:0px;word-spacing:0px;writing-mode:lr-tb;text-anchor:start;fill:#222222;fill-opacity:1;stroke:none;stroke-width:1px;stroke-linecap:butt;stroke-linejoin:miter;stroke-opacity:1"
       id="text6730">
      <path
         d="m 732.65295,616.32965 0,-31.50879 4.68018,0 0,27.0044 15.40283,0 0,4.50439 -20.08301,0 z"
         id="path7038"
         inkscape:connector-curvature="0" />
      <path
         d="m 775.80725,616.32965 -4.48242,0 0,-1.97754 q -0.43945,0.46143 -1.05469,0.92285 -0.61523,0.43946 -1.40625,0.81299 -0.76904,0.35156 -1.73584,0.57129 -0.9668,0.21973 -2.10937,0.21973 -1.75782,0 -3.25196,-0.4834 -1.49414,-0.4834 -2.59277,-1.4502 -1.09863,-0.98877 -1.73584,-2.41699 -0.61523,-1.45019 -0.61523,-3.36182 0,-1.97753 0.74707,-3.40576 0.74707,-1.45019 1.97754,-2.37304 1.23046,-0.94483 2.8125,-1.38428 1.604,-0.43945 3.29589,-0.43945 1.58204,0 3.03223,0.35156 1.47217,0.32959 2.63672,1.01074 l 0,-1.27441 q 0,-1.29639 -0.30762,-2.19727 -0.28564,-0.90088 -0.90088,-1.45019 -0.59326,-0.57129 -1.51611,-0.81299 -0.92285,-0.26367 -2.19727,-0.26367 -2.15332,0 -3.73535,0.57128 -1.56006,0.57129 -2.83447,1.51612 l -1.38428,-3.84522 q 0.70313,-0.4834 1.60401,-0.90088 0.90088,-0.43945 1.97754,-0.76904 1.07666,-0.32959 2.3291,-0.50537 1.25244,-0.19775 2.68066,-0.19775 0.9668,0 1.99951,0.10986 1.03272,0.10986 1.99951,0.43945 0.98877,0.30762 1.84571,0.90088 0.8789,0.59326 1.51611,1.56006 0.65918,0.94482 1.03272,2.3291 0.37353,1.38428 0.37353,3.2959 l 0,14.89746 z m -9.93164,-3.60351 q 1.77979,0 3.14209,-0.7251 1.38428,-0.7251 2.30713,-1.73584 l 0,-3.51563 q -0.9668,-0.50537 -2.26318,-0.81299 -1.29639,-0.30761 -2.6587,-0.30761 -1.05468,0 -1.97753,0.19775 -0.92286,0.19776 -1.62598,0.63721 -0.68115,0.41748 -1.07666,1.09863 -0.39551,0.65918 -0.39551,1.604 0,1.64795 1.14258,2.61475 1.16455,0.94483 3.40576,0.94483 z"
         id="path7040"
         inkscape:connector-curvature="0" />
      <path
         d="m 803.77844,616.32965 -4.15283,0 -3.82324,-13.35937 q -0.10987,-0.39551 -0.2417,-0.81299 -0.10986,-0.41748 -0.21973,-0.79102 -0.0879,-0.39551 -0.17578,-0.7251 -0.0659,-0.32959 -0.0879,-0.54931 -0.0439,0.21972 -0.10986,0.57129 -0.0439,0.32959 -0.13184,0.72509 -0.0879,0.39551 -0.19775,0.81299 -0.10987,0.41748 -0.21973,0.81299 l -3.7793,13.31543 -4.15283,0 -6.1084,-23.00537 4.59229,0 3.22998,14.32617 q 0.17578,0.74707 0.26367,1.31836 0.10986,0.54932 0.19775,1.01074 0.0659,-0.46142 0.17579,-1.05468 0.13183,-0.59327 0.30761,-1.27442 l 3.82325,-14.32617 4.32861,0 3.82324,14.32617 q 0.17578,0.68115 0.28565,1.27442 0.13183,0.59326 0.19775,1.05468 0.0659,-0.46142 0.17578,-1.01074 0.10986,-0.57129 0.28565,-1.31836 l 3.22998,-14.32617 4.59228,0 -6.1084,23.00537 z"
         id="path7042"
         inkscape:connector-curvature="0" />
      <path
         d="m 821.53235,616.87897 q -1.36231,0 -2.35108,-0.41748 -0.96679,-0.39551 -1.604,-1.14258 -0.61523,-0.74707 -0.90088,-1.80176 -0.28564,-1.07666 -0.28564,-2.37305 l 0,-13.75488 -3.55957,0 0,-4.06494 3.55957,0 0,-7.229 4.68017,-2.26319 0,9.49219 5.44922,0 0,4.06494 -5.44922,0 0,12.54639 q 0,0.57129 0.0879,1.05469 0.10987,0.48339 0.35157,0.83496 0.26367,0.35156 0.70312,0.54931 0.43945,0.17578 1.12061,0.17578 1.66992,0 3.40576,-1.07666 l -0.57129,4.35059 q -0.9668,0.4834 -2.10938,0.76904 -1.14257,0.28565 -2.52685,0.28565 z"
         id="path7044"
         inkscape:connector-curvature="0" />
      <path
         d="m 841.28577,616.87897 q -2.417,0 -4.37256,-0.81299 -1.9336,-0.81299 -3.2959,-2.35108 -1.36231,-1.56005 -2.10938,-3.77929 -0.72509,-2.24121 -0.72509,-5.07569 0,-2.83447 0.72509,-5.07568 0.74707,-2.24121 2.10938,-3.7793 1.3623,-1.56005 3.2959,-2.37304 1.95556,-0.83496 4.37256,-0.83496 2.39502,0 4.35058,0.83496 1.95557,0.81299 3.31787,2.37304 1.36231,1.53809 2.10938,3.7793 0.74707,2.24121 0.74707,5.07568 0,2.83448 -0.74707,5.07569 -0.74707,2.21924 -2.10938,3.77929 -1.3623,1.53809 -3.31787,2.35108 -1.95556,0.81299 -4.35058,0.81299 z m 0,-4.41651 q 1.34033,0 2.41699,-0.52734 1.09863,-0.52734 1.8457,-1.49414 0.76904,-0.98877 1.16455,-2.39502 0.41748,-1.40625 0.41748,-3.18604 0,-1.77978 -0.41748,-3.18603 -0.39551,-1.42822 -1.16455,-2.41699 -0.74707,-0.98877 -1.8457,-1.51612 -1.07666,-0.52734 -2.41699,-0.52734 -1.34034,0 -2.417,0.52734 -1.07666,0.52735 -1.8457,1.51612 -0.74707,0.98877 -1.16455,2.41699 -0.39551,1.40625 -0.39551,3.18603 0,1.77979 0.39551,3.18604 0.41748,1.40625 1.16455,2.39502 0.76904,0.9668 1.8457,1.49414 1.07666,0.52734 2.417,0.52734 z"
         id="path7046"
         inkscape:connector-curvature="0" />
      <path
         d="m 871.63,616.32965 0,-13.73291 q 0,-1.45019 -0.35156,-2.46094 -0.35156,-1.03271 -0.96679,-1.66992 -0.61524,-0.65918 -1.4502,-0.94482 -0.83496,-0.30762 -1.82373,-0.30762 -1.05469,0 -1.95557,0.28564 -0.90088,0.26368 -1.56006,0.87891 -0.65917,0.61524 -1.05468,1.64795 -0.37354,1.01074 -0.37354,2.48291 l 0,13.8208 -4.68017,0 0,-23.00537 4.68017,0 0,2.21924 q 1.12061,-1.42822 2.5708,-2.0874 1.4502,-0.65918 3.36182,-0.65918 1.80176,0 3.31787,0.52734 1.51611,0.50537 2.61475,1.66992 1.1206,1.16455 1.73584,3.03223 0.61523,1.86767 0.61523,4.57031 l 0,13.73291 -4.68018,0 z"
         id="path7048"
         inkscape:connector-curvature="0" />
    </g>
  </g>
  <g
     inkscape:groupmode="layer"
     id="layer11"
     inkscape:label="Date"
     transform="translate(-650.75549,-317.76107)">
    <g
       style="font-style:normal;font-variant:normal;font-weight:300;font-stretch:normal;font-size:15px;line-height:125%;font-family:Overpass;-inkscape-font-specification:'Overpass, Light';text-align:start;letter-spacing:0px;word-spacing:0px;writing-mode:lr-tb;text-anchor:start;fill:#222222;fill-opacity:1;stroke:none;stroke-width:1px;stroke-linecap:butt;stroke-linejoin:miter;stroke-opacity:1"
       id="text6734">
      <path
         d="m 769.63775,642.70905 0,-8.595 -1.785,0 0,-0.6 q 0.795,0 1.35,-0.27 0.555,-0.285 0.81,-1.035 l 0.675,0 0,10.5 -1.05,0 z"
         id="path7019"
         inkscape:connector-curvature="0" />
      <path
         d="m 777.51954,642.70905 0,-2.835 -5.1,0 0,-0.555 5.52,-7.11 0.63,0 0,6.765 1.59,0 0,0.9 -1.59,0 0,2.835 -1.05,0 z m 0,-3.735 0,-4.95 -3.735,4.95 3.735,0 z"
         id="path7021"
         inkscape:connector-curvature="0" />
      <path
         d="m 789.64493,641.94405 q 0.9,0 1.515,-0.405 0.63,-0.405 1.005,-1.05 0.39,-0.645 0.555,-1.44 0.18,-0.81 0.18,-1.59 0,-0.855 -0.18,-1.665 -0.165,-0.81 -0.555,-1.425 -0.375,-0.63 -1.005,-1.005 -0.615,-0.39 -1.515,-0.39 -0.9,0 -1.53,0.405 -0.615,0.405 -1.005,1.05 -0.375,0.645 -0.555,1.455 -0.165,0.795 -0.165,1.575 0,0.855 0.165,1.665 0.18,0.81 0.555,1.44 0.39,0.615 1.005,1.005 0.63,0.375 1.53,0.375 z m 0,0.945 q -1.215,0 -2.055,-0.48 -0.825,-0.48 -1.335,-1.26 -0.51,-0.78 -0.735,-1.74 -0.225,-0.975 -0.225,-1.95 0,-0.975 0.225,-1.935 0.225,-0.975 0.735,-1.755 0.51,-0.78 1.335,-1.26 0.84,-0.48 2.055,-0.48 1.215,0 2.04,0.48 0.84,0.48 1.35,1.26 0.51,0.78 0.735,1.755 0.225,0.96 0.225,1.935 0,0.975 -0.225,1.95 -0.225,0.96 -0.735,1.74 -0.51,0.78 -1.35,1.26 -0.825,0.48 -2.04,0.48 z"
         id="path7023"
         inkscape:connector-curvature="0" />
      <path
         d="m 798.7347,642.88905 q -1.395,0 -2.22,-1.035 -0.81,-1.05 -0.81,-2.97 0,-1.905 0.825,-2.955 0.84,-1.065 2.325,-1.065 0.855,0 1.5,0.42 0.645,0.405 0.96,1.185 l -0.96,0.375 q -0.18,-0.435 -0.555,-0.735 -0.36,-0.3 -0.99,-0.3 -0.54,0 -0.915,0.225 -0.375,0.21 -0.63,0.615 -0.24,0.39 -0.36,0.96 -0.105,0.57 -0.105,1.275 0,1.455 0.48,2.265 0.48,0.795 1.5,0.795 0.63,0 1.065,-0.315 0.435,-0.315 0.63,-0.855 l 0.945,0.36 q -0.27,0.81 -0.99,1.29 -0.705,0.465 -1.695,0.465 z"
         id="path7025"
         inkscape:connector-curvature="0" />
      <path
         d="m 805.21025,642.88905 q -0.825,0 -1.17,-0.495 -0.345,-0.51 -0.345,-1.26 l 0,-5.145 -1.305,0 0,-0.945 1.305,0 0,-2.64 1.05,-0.525 0,3.165 1.95,0 0,0.945 -1.95,0 0,4.695 q 0,0.255 0.015,0.48 0.03,0.21 0.12,0.375 0.09,0.165 0.255,0.27 0.165,0.09 0.435,0.09 0.39,0 0.66,-0.15 0.285,-0.15 0.495,-0.3 l -0.12,1.095 q -0.3,0.165 -0.63,0.255 -0.33,0.09 -0.765,0.09 z"
         id="path7027"
         inkscape:connector-curvature="0" />
      <path
         d="m 811.99939,642.70905 q 0,-0.99 0.285,-1.695 0.285,-0.72 0.735,-1.26 0.45,-0.54 1.02,-0.945 0.57,-0.405 1.14,-0.795 0.495,-0.33 0.945,-0.645 0.45,-0.33 0.795,-0.69 0.36,-0.36 0.57,-0.765 0.21,-0.42 0.21,-0.93 0,-0.855 -0.6,-1.425 -0.585,-0.585 -1.68,-0.585 -1.065,0 -1.605,0.48 -0.54,0.465 -0.735,1.215 l -0.93,-0.42 q 0.12,-0.465 0.405,-0.87 0.285,-0.405 0.72,-0.705 0.435,-0.3 0.99,-0.465 0.57,-0.18 1.245,-0.18 1.56,0 2.415,0.81 0.87,0.795 0.87,2.145 0,0.72 -0.285,1.275 -0.27,0.555 -0.72,1.02 -0.435,0.45 -0.99,0.84 -0.555,0.375 -1.125,0.735 -0.45,0.3 -0.87,0.6 -0.42,0.285 -0.78,0.63 -0.345,0.33 -0.585,0.735 -0.24,0.39 -0.33,0.885 l 5.775,0 0,1.005 -6.885,0 z"
         id="path7029"
         inkscape:connector-curvature="0" />
      <path
         d="m 824.57853,642.88905 q -1.035,0 -1.725,-0.48 -0.69,-0.48 -1.11,-1.245 -0.405,-0.78 -0.585,-1.74 -0.18,-0.975 -0.18,-1.965 0,-0.54 0.06,-1.155 0.06,-0.63 0.21,-1.23 0.165,-0.6 0.42,-1.155 0.27,-0.555 0.675,-0.975 0.405,-0.42 0.945,-0.66 0.555,-0.255 1.29,-0.255 1.035,0 1.725,0.495 0.69,0.48 1.095,1.26 0.42,0.78 0.6,1.755 0.18,0.96 0.18,1.92 0,0.555 -0.075,1.17 -0.06,0.615 -0.225,1.23 -0.15,0.6 -0.42,1.155 -0.255,0.54 -0.66,0.96 -0.405,0.42 -0.96,0.675 -0.54,0.24 -1.26,0.24 z m 0,-0.945 q 0.78,0 1.26,-0.42 0.495,-0.435 0.765,-1.095 0.27,-0.66 0.36,-1.455 0.09,-0.795 0.09,-1.515 0,-0.81 -0.105,-1.605 -0.105,-0.81 -0.39,-1.44 -0.285,-0.645 -0.765,-1.035 -0.48,-0.405 -1.215,-0.405 -0.795,0 -1.29,0.435 -0.48,0.435 -0.75,1.095 -0.27,0.66 -0.375,1.455 -0.09,0.78 -0.09,1.5 0,0.825 0.105,1.635 0.105,0.795 0.39,1.44 0.285,0.63 0.765,1.02 0.495,0.39 1.245,0.39 z"
         id="path7031"
         inkscape:connector-curvature="0" />
      <path
         d="m 831.60064,642.70905 0,-8.595 -1.785,0 0,-0.6 q 0.795,0 1.35,-0.27 0.555,-0.285 0.81,-1.035 l 0.675,0 0,10.5 -1.05,0 z"
         id="path7033"
         inkscape:connector-curvature="0" />
      <path
         d="m 836.6854,642.70905 q 0.015,-1.23 0.15,-2.43 0.15,-1.2 0.51,-2.385 0.375,-1.185 0.99,-2.37 0.615,-1.2 1.575,-2.415 l -5.085,0 0,-0.9 6.285,0 0,0.69 q -1.095,1.26 -1.755,2.595 -0.66,1.32 -1.02,2.61 -0.36,1.275 -0.48,2.46 -0.12,1.185 -0.12,2.145 l -1.05,0 z"
         id="path7035"
         inkscape:connector-curvature="0" />
    </g>
  </g>
</svg>
