<?xml version="1.0" encoding="UTF-8" standalone="no"?>
<!-- Created with Inkscape (http://www.inkscape.org/) -->

<svg
   xmlns:dc="http://purl.org/dc/elements/1.1/"
   xmlns:cc="http://creativecommons.org/ns#"
   xmlns:rdf="http://www.w3.org/1999/02/22-rdf-syntax-ns#"
   xmlns:svg="http://www.w3.org/2000/svg"
   xmlns="http://www.w3.org/2000/svg"
   xmlns:sodipodi="http://sodipodi.sourceforge.net/DTD/sodipodi-0.dtd"
   xmlns:inkscape="http://www.inkscape.org/namespaces/inkscape"
   width="1619.0602"
   height="981.56335"
   id="svg2"
   version="1.1"
   inkscape:version="0.91 r13725"
   sodipodi:docname="LAX.svg"
   inkscape:export-filename="C:\Users\Paul Bogard\Dropbox\Documents\Websites\Flight Log\Images\Terminals\LAX.png"
   inkscape:export-xdpi="90"
   inkscape:export-ydpi="90">
  <defs
     id="defs4" />
  <sodipodi:namedview
     id="base"
     pagecolor="#ffffff"
     bordercolor="#666666"
     borderopacity="1.0"
     inkscape:pageopacity="1"
     inkscape:pageshadow="2"
     inkscape:zoom="0.50000001"
     inkscape:cx="593.55152"
     inkscape:cy="448.97966"
     inkscape:document-units="px"
     inkscape:current-layer="layer1"
     showgrid="false"
     fit-margin-top="25"
     fit-margin-left="25"
     fit-margin-right="25"
     fit-margin-bottom="25"
     inkscape:window-width="1680"
     inkscape:window-height="987"
     inkscape:window-x="1672"
     inkscape:window-y="-8"
     inkscape:window-maximized="1" />
  <metadata
     id="metadata7">
    <rdf:RDF>
      <cc:Work
         rdf:about="">
        <dc:format>image/svg+xml</dc:format>
        <dc:type
           rdf:resource="http://purl.org/dc/dcmitype/StillImage" />
        <dc:title />
      </cc:Work>
    </rdf:RDF>
  </metadata>
  <g
     inkscape:groupmode="layer"
     id="layer2"
     inkscape:label="Ink"
     transform="translate(-7.8546786,-162.50447)">
    <path
       id="path3787"
       style="fill:#dddddd;fill-opacity:1;stroke:#222222;stroke-width:1.5;stroke-linecap:butt;stroke-linejoin:miter;stroke-miterlimit:4;stroke-dasharray:none;stroke-opacity:1"
       d="m 1577.2025,860.45059 22.2987,0.27194 -0.8158,-34.53575 2.1754,-0.27193 -0.5438,-7.88612 -3.2633,0 0,-19.85125 4.0791,0.27193 -0.272,-6.93434 -4.079,0 0.136,-49.08427 -21.3469,-1.08774 -0.272,42.82976 0.9518,0 -0.2719,21.7548 -14.6845,0 0.5439,19.44336 2.8553,0.13596 -0.068,4.75887 3.7391,0 4.4869,4.89483 0,9.10982 4.0791,0 z M 286.80294,740.73121 315.4241,756.02755 c 3.26322,1.69959 3.39919,5.4387 3.39919,5.4387 l 4.35096,47.04476 47.72459,-5.4387 8.02208,5.71063 10.19757,-1.22371 0.87253,7.62006 14.42152,-2.01907 2.30743,19.3249 11.82569,-1.44218 1.63444,13.74855 -9.80669,0.86529 5.4802,48.64863 10.1912,-1.05761 2.01906,18.07498 c -10.86423,9.2298 -7.97993,32.01583 -7.97993,32.01583 l -5.76861,0.19226 0.0962,15.38298 2.21126,11.53722 3.65345,-0.67298 1.53834,7.30689 2.69199,-0.0962 c 1.82675,11.53723 3.26887,13.84471 3.26887,13.84471 l -13.0755,5.86476 -3.7496,19.13255 2.59589,2.5959 2.8843,-2.8843 3.55729,2.7882 -2.98046,3.8457 9.03749,7.6915 3.17278,-3.7496 1.92285,1.6344 38.93815,-4.2303 -0.19231,-5.5763 10.67193,-14.6139 5.19178,4.0381 2.30742,-2.019 -1.15371,-10.38354 -11.72954,-2.30748 0,-4.03802 -2.21126,-0.19225 -0.19231,-1.7306 -4.99947,-0.67304 c 0.67303,-2.59583 -0.38458,-18.36339 -0.38458,-18.36339 l 3.65345,0 -0.28841,-3.84576 3.07662,0 -0.28847,-4.32643 5.76861,-0.28847 -1.24987,-11.24875 -5.28788,0 -4.03802,-14.71 -5.67246,0.0962 c -0.76914,-9.3259 -3.46119,-12.40252 -3.46119,-12.40252 l -4.42258,-32.78492 1.24986,-0.19231 -5.57635,-46.34121 1.15377,-0.28841 -5.38404,-44.4183 166.71285,-18.84417 7.30695,4.99947 5.57629,42.88002 3.65345,-0.9614 5.57635,52.10976 -6.92232,1.15376 5.5763,40.57254 -6.15318,0.76914 4.03802,29.41994 5.96092,-0.96145 8.07603,75.76119 52.87896,-5.961 -9.80663,-67.10814 -4.99947,0.38457 -1.92285,-12.30636 8.26835,-1.15372 -0.7692,-10.76808 -2.30742,-11.72953 -8.46061,1.73059 -0.96145,-6.53775 7.30689,-1.15371 -4.80715,-36.72684 c 0,0 -8.07609,1.34597 -9.2298,1.53828 l -4.6149,-37.49597 5.96092,-0.96145 -3.84576,-33.26565 -5.76861,0.76914 -0.38457,-3.07662 5.76861,-0.9614 11.53722,-21.92073 71.72308,-9.80663 -1.53829,-11.15265 43.84147,-5.38404 0.76915,4.23027 17.11352,-2.30742 0.57688,4.6149 25.49467,-3.66677 2.63967,23.91266 8.11139,-0.95178 9.47508,78.96079 6.39048,-0.27193 c -9.51773,5.4387 -10.19757,14.82045 -10.19757,14.82045 l 0.13597,23.25045 -5.0308,0 0.54387,10.8774 1.90355,10.8774 5.8466,-0.95178 c 2.99129,25.69786 7.34225,26.24173 7.34225,26.24173 l -12.23708,10.4695 2.44742,12.78094 5.71063,-0.95177 c 3.67112,1.22371 5.57467,5.57467 5.57467,5.57467 2.99128,5.30273 -1.76758,10.4695 -1.76758,10.4695 l -8.56595,9.78966 3.94306,3.67112 3.53515,-3.94306 c 5.57467,2.85532 7.61418,8.83789 7.61418,8.83789 l 0,2.58338 -1.90354,-0.13597 0.13596,4.75886 11.42127,-0.9518 -0.8158,-5.57463 c 2.85532,-10.33353 12.64498,-8.29402 12.64498,-8.29402 l 11.01336,9.10982 3.26322,-3.26322 -2.44741,-2.58338 c 2.85532,-8.15805 12.50901,-6.66241 12.50901,-6.66241 l 0.13597,1.49564 4.07902,-0.13596 -0.8158,-10.60547 -3.53516,0 c -8.42998,0.67984 -8.70192,-9.51772 -8.70192,-9.51772 0,-11.01337 8.56595,-10.19757 8.56595,-10.19757 l 4.215,0.27194 -0.67984,-11.01337 -6.25451,-3.94306 2.31145,-4.21499 -10.33353,-3.80709 c 1.90355,-5.30273 0,-25.15399 0,-25.15399 l 2.58338,0 -0.4079,-10.60546 -1.76758,-13.46078 -4.21499,0.13596 c -0.27193,-23.38641 -9.65369,-29.91285 -9.65369,-29.91285 l 9.38176,-12.1011 -7.34225,-5.98257 -9.24579,11.14933 -0.8158,-6.66241 4.35096,-0.67983 -10.74144,-91.77807 8.56596,-0.95177 3.12725,-9.65369 92.72983,-11.42127 -0.67983,-4.48693 59.55367,-7.88611 0.8158,5.16676 8.43,-0.67984 -0.1359,-2.17548 6.1461,-0.26013 14.4214,120.17944 c -1.8266,8.36451 -0.036,28.82914 -0.036,28.82914 l -3.8751,-0.068 0.2039,11.35329 0.8158,3.39919 -2.8553,0.74782 4.6909,14.54852 4.6909,-1.49564 c 4.079,16.58803 7.7501,22.23069 7.7501,22.23069 l -4.215,5.8466 1.6316,1.29169 -8.226,10.12958 4.5549,3.94306 0.6119,-0.74783 30.0488,24.06625 28.5532,-35.75945 -9.3138,-7.13829 1.8356,-2.1075 -7.3423,-5.57467 c 2.4474,-1.15572 1.4277,-27.94132 1.4277,-27.94132 l 4.4869,-0.4079 0.4079,-13.05288 -2.5834,-10.0616 -5.4387,1.08774 c -0.8158,-10.60546 -6.3905,-27.05753 -6.3905,-27.05753 l -10.0616,-83.07614 c 18.7636,-4.07903 10.3336,-28.14527 10.3336,-28.14527 8.294,-1.63161 4.8948,-13.59675 4.8948,-13.59675 l 64.1767,-6.93435 -0.6799,-5.4387 33.3121,-3.94305 0.6798,4.21499 23.6584,-2.71935 -0.6799,-4.35096 31.6612,-3.68972 2.019,19.61325 2.2113,-0.19225 2.5959,21.15153 9.3259,-1.15371 22.5937,195.74828 16.1522,-1.53834 -1.2499,-11.34491 6.3455,-0.28841 -6.7301,-54.89797 -5.9609,0.28842 -0.9614,-9.2298 6.5377,-0.57683 -7.5953,-67.30049 -6.8262,0.67299 -1.346,-12.88325 7.3069,-0.48067 -1.7306,-13.94086 1.5383,-0.19226 c -0.4807,-7.69152 5.3841,-7.30689 5.3841,-7.30689 l -2.3075,-22.30531 5.1918,-0.57688 -5.3841,-43.93757 -27.3047,2.49968 -2.8843,0.28847 -0.2885,-4.03802 -17.9788,1.92285 0.5768,4.03802 -13.4601,1.53828 -9.9028,-22.11299 -3.9418,0.48072 -0.7004,-4.34979 -796.2572,97.99915 1.08774,9.10983 -6.79837,0.8158 -0.27194,-2.03951 -37.663,4.62289 0.40791,2.17548 -75.93785,8.90587 -1.76758,-18.49158 c -0.13597,-3.12725 -3.3312,-4.96281 -3.3312,-4.96281 l -36.26161,-19.85093 -7.18001,0.81548 -0.61185,-3.53515 16.3161,-1.63161 -1.63161,-13.86869 12.78094,-1.35967 -20.12319,-156.09069 -40.24638,5.16676 -2.44741,-18.21964 -17.13191,2.99128 2.71935,17.94771 -53.29926,7.61418 -1.63161,-5.71063 -29.91285,4.07902 -0.54387,-1.63161 -25.83382,8.42999 -4.89483,-15.22836 5.71063,-1.63161 2.17548,-2.44742 0,-13.59675 18.76352,1.35968 -1.35968,-5.4387 2.44742,0 -1.90355,-8.15805 -21.48286,-2.44742 0.27193,-1.90354 3.26322,-0.81581 0.27194,-10.19756 -9.51773,1.08774 -1.35967,-3.39919 4.89483,-1.22371 -0.54387,-33.71994 -8.56596,1.35968 -1.76757,-4.6229 5.4387,-0.95177 -0.40791,-7.61418 18.89949,1.22371 -0.13597,-4.6229 2.03951,0.13597 -0.8158,-8.15805 -22.57061,-1.22371 -0.67984,-2.99128 3.67113,0 -0.27194,-10.0616 -9.653691,0.40791 0,-4.07903 4.622891,0.13597 -0.8158,-34.53575 -39.022674,5.57467 -26.64963,-2.58338 0.407903,4.48693 -2.311448,-0.13597 0.951773,8.42998 22.978507,2.17548 4.89483,25.42593 -2.039512,0.13596 6.118537,36.43929 -20.259157,-1.35967 0.407902,3.80709 -2.447415,-0.13597 0.815805,8.70192 23.250443,2.85532 4.89483,26.10576 -1.63161,0.13597 2.447415,12.64497 -19.307385,-1.08774 0.271935,4.6229 -2.855318,-0.4079 1.08774,8.29401 23.658345,2.71935 2.039513,11.42127 -1.63161,0 5.166765,27.87334 -12.50901,4.35096 15.908197,46.90879 -9.925627,3.53515 15.636262,46.63686 -9.78966,3.26322 2.17548,6.6624 -5.4387,1.63161 2.583383,6.52644 -2.583383,0.95178 1.63161,5.16676 7.750148,-2.17548 13.052876,40.65428 5.84661,-2.17548 3.12725,16.72401 -1.49564,0.8158 3.26322,20.12319 -19.987226,-1.22371 0.679837,3.94306 -2.039512,0.13597 0.54387,9.78966 24.338181,1.22371 0.54387,3.39918 -1.63161,0 6.52644,37.663 -1.49564,0.27194 4.21499,20.66706 -20.12319,-1.08774 0.54387,4.35096 -2.58338,0 0.8158,8.70192 25.01802,2.31144 0.40791,2.71935 -1.90355,0.27194 7.34225,38.34283 -2.03952,0.40791 5.98257,36.03138 -19.98722,-1.08774 0.27194,3.94306 -2.85532,-0.13597 1.08774,8.56596 23.65834,1.90354 3.94306,25.56189 -1.22371,0 7.47822,38.20688 -1.76758,0 1.22371,5.9826 -19.85126,-0.6799 0.95177,3.6712 -3.26322,0.1359 1.35968,9.2458 22.97851,1.2237 8.02208,42.1499 19.98722,-1.6316 3.39919,20.2592 3.80709,-0.6798 0.54387,2.1754 8.15805,0.6799 -2.58338,-24.0663 7.34224,-1.2237 0.4079,-24.6101 -6.11853,-0.136 0.13596,-18.3556 14.41256,-0.2719 0.13597,-5.0308 4.35096,-0.136 -0.40791,-7.2063 -18.08367,-0.8158 -0.13597,-5.8466 -5.57467,0 0.27194,-38.20684 -6.66241,0.54387 0.95177,-18.89949 14.27659,-0.13596 -0.13597,-4.215 3.80709,0.13597 -0.27193,-8.29402 -17.67578,-0.27193 -0.27193,-6.66241 -5.4387,0.4079 -0.40791,-39.2946 -6.11853,1.08774 0.8158,-13.05288 16.85997,2.44741 0.27194,-6.2545 2.85531,0.27193 -0.27193,-7.88611 -19.71529,-2.17548 0.27194,-12.50901 -6.66241,0.54387 0.8158,-38.61477 -5.03079,0.8158 -0.81581,-12.23707 18.08368,0.4079 -0.13597,-4.89483 2.44742,0.13597 -0.27194,-7.47822 -19.30738,-1.2237 -0.27194,-13.46079 -5.16676,0.27194 0,-36.98316 -9.24579,0 -1.08774,-5.57467 26.51366,-2.17548 -0.13597,-8.29402 25.83383,-1.63161 0.54387,6.39048 41.87799,-5.16677 -0.54387,-4.62289 24.20221,-2.44742 0.54387,4.07903 14.14062,-1.63161 -0.27193,-2.17548 z m 486.69567,-303.54745 -2.58338,-20.53109 3.53515,-0.33992 -0.88379,-7.75015 -3.19523,0.33992 -0.33992,-1.90354 -36.57526,4.69088 -2.71935,-22.23069 -2.71935,0.33992 -0.4079,-2.65137 -3.12726,0.33992 -15.56827,-126.65372 -50.98782,6.52644 15.77223,126.3138 -2.65136,0.40791 0.33992,2.85531 -3.19524,0.61186 2.44741,21.89076 -173.15461,22.50263 1.08774,7.75014 -73.55841,8.70192 -0.33992,-2.58338 -4.41895,0.88379 -1.35967,-9.31377 2.85532,-0.54387 -0.30593,-1.80157 15.67025,-2.48141 -0.33992,-2.17548 6.32249,-0.88379 -0.13596,-1.08774 12.44102,-1.22371 0.27194,2.17548 11.14933,-1.15572 -0.67984,-4.96281 -11.01336,1.2237 -0.27194,-1.08774 -12.03312,1.35968 -0.54387,-5.37072 -17.67578,-15.43231 -6.86636,-53.29926 2.78734,-0.33992 -1.76758,-12.64498 -6.11854,0.95178 -2.17548,-15.84022 15.36433,-4.75886 c 0,0 3.19524,-1.15572 5.4387,-3.3312 l 28.14527,21.61883 3.39919,-4.28298 -20.80303,-15.43231 2.5154,-2.9233 -7.20628,-5.50668 c 0,0 7.1383,-11.35329 -2.03951,-24.06625 l 5.23475,-6.52644 -2.44741,-2.17548 15.09239,-20.32714 -10.4695,-7.5462 -21.68682,29.16503 c 0,0 -11.89715,-0.8158 -21.48286,0.20395 l -0.13597,-4.89483 -13.3928,0.88379 -10.60546,1.35968 0.27193,5.16676 c 0,0 -17.74376,1.76758 -21.41488,5.57467 l -29.36898,-23.31843 -7.81813,9.51773 20.73504,16.52005 -2.24346,2.58338 8.42999,6.39047 c 0,0 -5.16677,10.40152 2.17548,20.80303 l -6.45846,8.49797 2.99128,2.31145 -11.42127,14.95642 4.89483,3.53516 17.33586,-23.11448 c 0,0 2.58338,4.21499 22.43464,3.12725 l 2.31145,19.10344 3.7391,-0.27194 5.71064,44.12146 -8.83789,1.2237 1.69959,15.5003 c 0.13597,-0.13597 3.05927,-0.13597 3.05927,-0.13597 l 1.49564,13.52877 -5.50668,0.27193 2.17548,18.35562 12.03312,-1.08774 1.56363,11.08135 -85.31961,10.94538 0.81581,8.97386 7.61418,-0.95178 1.90354,15.63627 181.85654,-24.06625 0.20395,1.08774 z m 284.44709,-41.89677 -166.69614,20.66706 -3.67112,-34.53574 25.22197,-3.05927 -0.13597,-5.09878 10.80942,-0.88379 15.43231,-20.59908 5.30273,-0.4079 -19.2394,-158.26617 36.98316,-4.75886 19.64731,157.99423 4.69088,-0.20395 19.98725,15.56828 5.2347,-0.27193 0.4079,4.21499 41.7915,-4.92299 z"
       inkscape:connector-curvature="0" />
  </g>
  <g
     inkscape:groupmode="layer"
     id="layer1"
     inkscape:label="Label"
     transform="translate(-34.292179,0.5267831)">
    <g
       style="font-style:normal;font-variant:normal;font-weight:bold;font-stretch:normal;font-size:72px;line-height:125%;font-family:Overpass;-inkscape-font-specification:'Overpass Bold';letter-spacing:0px;word-spacing:0px;fill:#000000;fill-opacity:1;stroke:none"
       id="text2984" />
    <g
       style="font-style:normal;font-variant:normal;font-weight:bold;font-stretch:normal;font-size:60px;line-height:125%;font-family:Overpass;-inkscape-font-specification:'Sans Bold';letter-spacing:0px;word-spacing:0px;fill:#222222;fill-opacity:1;stroke:none"
       id="text2987" />
    <g
       id="text3339"
       style="font-style:normal;font-variant:normal;font-weight:normal;font-stretch:normal;font-size:45px;line-height:125%;font-family:Overpass;-inkscape-font-specification:Sans;letter-spacing:0px;word-spacing:0px;fill:#222222;fill-opacity:1;stroke:none;stroke-width:1px;stroke-linecap:butt;stroke-linejoin:miter;stroke-opacity:1"
       transform="translate(0,15.500016)">
      <path
         inkscape:connector-curvature="0"
         id="path4143"
         d="m 1386.785,931.52777 0,-31.50879 4.6802,0 0,27.0044 15.4028,0 0,4.50439 -20.083,0 z" />
      <path
         inkscape:connector-curvature="0"
         id="path4145"
         d="m 1421.6776,932.07709 q -2.417,0 -4.3725,-0.81299 -1.9336,-0.81299 -3.2959,-2.35108 -1.3623,-1.56005 -2.1094,-3.77929 -0.7251,-2.24121 -0.7251,-5.07569 0,-2.83447 0.7251,-5.07568 0.7471,-2.24121 2.1094,-3.7793 1.3623,-1.56005 3.2959,-2.37304 1.9555,-0.83496 4.3725,-0.83496 2.395,0 4.3506,0.83496 1.9556,0.81299 3.3179,2.37304 1.3623,1.53809 2.1093,3.7793 0.7471,2.24121 0.7471,5.07568 0,2.83448 -0.7471,5.07569 -0.747,2.21924 -2.1093,3.77929 -1.3623,1.53809 -3.3179,2.35108 -1.9556,0.81299 -4.3506,0.81299 z m 0,-4.41651 q 1.3403,0 2.417,-0.52734 1.0986,-0.52734 1.8457,-1.49414 0.7691,-0.98877 1.1646,-2.39502 0.4174,-1.40625 0.4174,-3.18604 0,-1.77978 -0.4174,-3.18603 -0.3955,-1.42822 -1.1646,-2.41699 -0.7471,-0.98877 -1.8457,-1.51612 -1.0767,-0.52734 -2.417,-0.52734 -1.3403,0 -2.417,0.52734 -1.0766,0.52735 -1.8457,1.51612 -0.7471,0.98877 -1.1645,2.41699 -0.3955,1.40625 -0.3955,3.18603 0,1.77979 0.3955,3.18604 0.4174,1.40625 1.1645,2.39502 0.7691,0.9668 1.8457,1.49414 1.0767,0.52734 2.417,0.52734 z" />
      <path
         inkscape:connector-curvature="0"
         id="path4147"
         d="m 1444.9027,932.07709 q -1.3623,0 -2.6587,-0.26367 -1.2964,-0.26368 -2.4389,-0.74707 -1.1207,-0.4834 -2.0435,-1.16456 -0.9229,-0.70312 -1.5381,-1.56005 l 3.3179,-2.83448 q 0.3515,0.32959 0.8569,0.74707 0.5054,0.39551 1.1646,0.74707 0.6591,0.35157 1.4721,0.59327 0.813,0.24169 1.7798,0.24169 0.8789,0 1.626,-0.13183 0.7471,-0.13184 1.2744,-0.41748 0.5493,-0.28565 0.835,-0.74707 0.3076,-0.4834 0.3076,-1.18653 0,-0.81298 -0.5713,-1.38427 -0.5493,-0.59326 -1.4502,-1.05469 -0.9009,-0.4834 -2.0435,-0.90088 -1.1425,-0.43945 -2.3071,-0.92285 -1.0766,-0.46143 -2.1094,-1.01074 -1.0327,-0.54932 -1.8457,-1.31836 -0.791,-0.76905 -1.2963,-1.82373 -0.4834,-1.07666 -0.4834,-2.59278 0,-1.53808 0.6152,-2.72461 0.6372,-1.18652 1.7139,-1.97753 1.0986,-0.81299 2.5488,-1.23047 1.4722,-0.41748 3.1421,-0.41748 1.4721,0 2.7026,0.28564 1.2525,0.28565 2.2412,0.76904 1.0108,0.4834 1.7798,1.12061 0.769,0.61523 1.3403,1.29639 l -3.3838,2.68066 q -0.3076,-0.30762 -0.747,-0.63721 -0.4175,-0.35156 -0.9888,-0.6372 -0.5713,-0.28565 -1.2964,-0.46143 -0.7251,-0.19775 -1.6479,-0.19775 -1.4942,0 -2.3731,0.54931 -0.8569,0.54932 -0.8569,1.58203 0,0.65918 0.4614,1.16455 0.4614,0.4834 1.2525,0.90088 0.791,0.41748 1.8017,0.81299 1.0327,0.37354 2.1533,0.81299 1.1866,0.46143 2.3291,1.03271 1.1426,0.57129 2.0215,1.40625 0.9009,0.83497 1.4282,2.02149 0.5494,1.18652 0.5494,2.85644 0,1.64795 -0.6153,2.92237 -0.6152,1.25244 -1.7578,2.10937 -1.1206,0.83496 -2.7246,1.25244 -1.582,0.43946 -3.5376,0.43946 z" />
      <path
         inkscape:connector-curvature="0"
         id="path4149"
         d="m 1490.7157,931.52777 -2.5049,-7.25098 -12.7441,0 -2.5708,7.25098 -4.856,0 11.3819,-31.50879 4.812,0 11.3379,31.50879 -4.856,0 z m -7.7783,-22.10449 q -0.2637,-0.74707 -0.5933,-1.73584 -0.3076,-0.98877 -0.4834,-1.80176 -0.2197,0.81299 -0.5273,1.80176 -0.2857,0.9668 -0.5493,1.73584 l -3.8892,10.72266 9.8657,0 -3.8232,-10.72266 z" />
      <path
         inkscape:connector-curvature="0"
         id="path4151"
         d="m 1515.0394,931.52777 0,-13.73291 q 0,-1.45019 -0.3515,-2.46094 -0.3516,-1.03271 -0.9668,-1.66992 -0.6153,-0.65918 -1.4502,-0.94482 -0.835,-0.30762 -1.8238,-0.30762 -1.0546,0 -1.9555,0.28564 -0.9009,0.26368 -1.5601,0.87891 -0.6592,0.61524 -1.0547,1.64795 -0.3735,1.01074 -0.3735,2.48291 l 0,13.8208 -4.6802,0 0,-23.00537 4.6802,0 0,2.21924 q 1.1206,-1.42822 2.5708,-2.0874 1.4502,-0.65918 3.3618,-0.65918 1.8018,0 3.3179,0.52734 1.5161,0.50537 2.6147,1.66992 1.1206,1.16455 1.7359,3.03223 0.6152,1.86767 0.6152,4.57031 l 0,13.73291 -4.6802,0 z" />
      <path
         inkscape:connector-curvature="0"
         id="path4153"
         d="m 1531.5629,936.93304 q 2.5268,-0.1538 4.1748,-0.59326 1.6479,-0.43945 2.6147,-1.1206 0.9668,-0.65918 1.3403,-1.56006 0.3736,-0.90088 0.3736,-1.95557 l 0,-2.02148 q -1.9116,2.39502 -5.5371,2.39502 -1.9776,0 -3.6914,-0.74707 -1.7139,-0.76905 -3.0103,-2.28516 -1.2744,-1.51611 -2.0215,-3.75732 -0.7251,-2.26319 -0.7251,-5.27344 0,-2.83447 0.7032,-5.05371 0.7031,-2.24121 1.9555,-3.7793 1.2744,-1.56006 3.0323,-2.37305 1.7578,-0.81298 3.8671,-0.81298 1.0108,0 1.8457,0.19775 0.835,0.17578 1.4942,0.4834 0.6811,0.30762 1.1865,0.70312 0.5273,0.37354 0.9009,0.76905 l 0,-1.62598 4.6802,0 0,21.24756 q 0,2.63672 -0.5274,4.48242 -0.5273,1.8457 -1.8017,3.16406 -0.857,0.87891 -1.8897,1.42823 -1.0107,0.57128 -2.1313,0.92285 -1.0987,0.35156 -2.2412,0.50537 -1.1426,0.17578 -2.2413,0.26367 l -2.351,-3.60352 z m 3.8232,-9.27246 q 1.4282,0 2.6587,-0.70312 1.2524,-0.70313 2.0215,-1.99951 l 0,-9.95362 q -0.3516,-0.57129 -0.8789,-1.03271 -0.5054,-0.4834 -1.1206,-0.83496 -0.5933,-0.35156 -1.2964,-0.52735 -0.6812,-0.19775 -1.3843,-0.19775 -2.7466,0 -4.1968,1.95557 -1.4282,1.93359 -1.4282,5.64697 0,1.75781 0.3955,3.18603 0.3955,1.40625 1.1206,2.39502 0.7251,0.98877 1.7578,1.53809 1.0547,0.52734 2.3511,0.52734 z" />
      <path
         inkscape:connector-curvature="0"
         id="path4155"
         d="m 1560.8524,932.07709 q -2.395,0 -4.3286,-0.81299 -1.9336,-0.83496 -3.2959,-2.37305 -1.3623,-1.56006 -2.1094,-3.80127 -0.7251,-2.24121 -0.7251,-5.07568 0,-2.83447 0.7471,-5.05371 0.7471,-2.24121 2.1094,-3.7793 1.3843,-1.56006 3.2959,-2.37305 1.9336,-0.81298 4.3066,-0.81298 2.0435,0 3.8233,0.65918 1.8017,0.6372 3.142,1.97753 1.3624,1.31836 2.1314,3.33985 0.791,2.02148 0.791,4.76807 0,0.74707 -0.044,1.58203 -0.022,0.83496 -0.1319,1.45019 l -15.4907,0 q 0.022,1.42822 0.5054,2.5708 0.5054,1.12061 1.3183,1.9336 0.813,0.79101 1.8457,1.23046 1.0328,0.41749 2.1534,0.41749 1.4282,0 2.6367,-0.59327 1.2304,-0.59326 2.1313,-1.73584 l 3.0542,3.14209 q -1.2524,1.49414 -3.208,2.417 -1.9555,0.92285 -4.6582,0.92285 z m 0,-19.95117 q -1.0986,0 -2.1094,0.32959 -1.0107,0.30761 -1.8017,1.01074 -0.7691,0.68115 -1.2744,1.80176 -0.5054,1.1206 -0.5933,2.7246 l 10.9863,0 q -0.044,-1.604 -0.5053,-2.7246 -0.4615,-1.12061 -1.2085,-1.80176 -0.7471,-0.70313 -1.67,-1.01074 -0.9008,-0.32959 -1.8237,-0.32959 z" />
      <path
         inkscape:connector-curvature="0"
         id="path4157"
         d="m 1576.3651,931.52777 0,-30.27832 4.6802,-2.21924 0,32.49756 -4.6802,0 z" />
      <path
         inkscape:connector-curvature="0"
         id="path4159"
         d="m 1597.327,932.07709 q -2.395,0 -4.3286,-0.81299 -1.9336,-0.83496 -3.2959,-2.37305 -1.3623,-1.56006 -2.1094,-3.80127 -0.7251,-2.24121 -0.7251,-5.07568 0,-2.83447 0.7471,-5.05371 0.7471,-2.24121 2.1094,-3.7793 1.3843,-1.56006 3.2959,-2.37305 1.9336,-0.81298 4.3066,-0.81298 2.0435,0 3.8233,0.65918 1.8017,0.6372 3.1421,1.97753 1.3623,1.31836 2.1313,3.33985 0.791,2.02148 0.791,4.76807 0,0.74707 -0.044,1.58203 -0.022,0.83496 -0.1319,1.45019 l -15.4907,0 q 0.022,1.42822 0.5054,2.5708 0.5054,1.12061 1.3183,1.9336 0.813,0.79101 1.8458,1.23046 1.0327,0.41749 2.1533,0.41749 1.4282,0 2.6367,-0.59327 1.2305,-0.59326 2.1313,-1.73584 l 3.0542,3.14209 q -1.2524,1.49414 -3.208,2.417 -1.9555,0.92285 -4.6582,0.92285 z m 0,-19.95117 q -1.0986,0 -2.1093,0.32959 -1.0108,0.30761 -1.8018,1.01074 -0.769,0.68115 -1.2744,1.80176 -0.5054,1.1206 -0.5933,2.7246 l 10.9863,0 q -0.044,-1.604 -0.5053,-2.7246 -0.4615,-1.12061 -1.2085,-1.80176 -0.7471,-0.70313 -1.6699,-1.01074 -0.9009,-0.32959 -1.8238,-0.32959 z" />
      <path
         inkscape:connector-curvature="0"
         id="path4161"
         d="m 1619.7172,932.07709 q -1.3623,0 -2.6587,-0.26367 -1.2964,-0.26368 -2.439,-0.74707 -1.1206,-0.4834 -2.0435,-1.16456 -0.9228,-0.70312 -1.538,-1.56005 l 3.3178,-2.83448 q 0.3516,0.32959 0.857,0.74707 0.5053,0.39551 1.1645,0.74707 0.6592,0.35157 1.4722,0.59327 0.813,0.24169 1.7798,0.24169 0.8789,0 1.6259,-0.13183 0.7471,-0.13184 1.2745,-0.41748 0.5493,-0.28565 0.8349,-0.74707 0.3076,-0.4834 0.3076,-1.18653 0,-0.81298 -0.5712,-1.38427 -0.5494,-0.59326 -1.4502,-1.05469 -0.9009,-0.4834 -2.0435,-0.90088 -1.1426,-0.43945 -2.3071,-0.92285 -1.0767,-0.46143 -2.1094,-1.01074 -1.0327,-0.54932 -1.8457,-1.31836 -0.791,-0.76905 -1.2964,-1.82373 -0.4834,-1.07666 -0.4834,-2.59278 0,-1.53808 0.6152,-2.72461 0.6372,-1.18652 1.7139,-1.97753 1.0986,-0.81299 2.5488,-1.23047 1.4722,-0.41748 3.1421,-0.41748 1.4722,0 2.7027,0.28564 1.2524,0.28565 2.2412,0.76904 1.0107,0.4834 1.7798,1.12061 0.769,0.61523 1.3403,1.29639 l -3.3838,2.68066 q -0.3076,-0.30762 -0.7471,-0.63721 -0.4174,-0.35156 -0.9887,-0.6372 -0.5713,-0.28565 -1.2964,-0.46143 -0.7251,-0.19775 -1.648,-0.19775 -1.4941,0 -2.373,0.54931 -0.857,0.54932 -0.857,1.58203 0,0.65918 0.4615,1.16455 0.4614,0.4834 1.2524,0.90088 0.791,0.41748 1.8018,0.81299 1.0327,0.37354 2.1533,0.81299 1.1865,0.46143 2.3291,1.03271 1.1426,0.57129 2.0215,1.40625 0.9009,0.83497 1.4282,2.02149 0.5493,1.18652 0.5493,2.85644 0,1.64795 -0.6152,2.92237 -0.6153,1.25244 -1.7578,2.10937 -1.1206,0.83496 -2.7246,1.25244 -1.5821,0.43946 -3.5376,0.43946 z" />
    </g>
    <g
       id="text3343"
       style="font-style:normal;font-variant:normal;font-weight:bold;font-stretch:normal;font-size:125px;line-height:125%;font-family:Overpass;-inkscape-font-specification:'Overpass, Bold';text-align:start;letter-spacing:0px;word-spacing:0px;writing-mode:lr-tb;text-anchor:start;fill:#dddddd;fill-opacity:1;stroke:#222222;stroke-width:0.25;stroke-linecap:butt;stroke-linejoin:miter;stroke-opacity:1;stroke-miterlimit:4;stroke-dasharray:none"
       transform="translate(0,15.500016)">
      <path
         inkscape:connector-curvature="0"
         id="path4164"
         d="m 1391.7802,884.03009 0,-87.52441 16.9067,0 0,71.28906 42.2363,0 0,16.23535 -59.143,0 z"
         style="stroke:#222222;stroke-opacity:1;stroke-width:0.25;stroke-miterlimit:4;stroke-dasharray:none" />
      <path
         inkscape:connector-curvature="0"
         id="path4166"
         d="m 1522.8226,884.03009 -6.7749,-18.12744 -33.7524,0 -6.7139,18.12744 -18.1274,0 33.5083,-87.52441 16.4795,0 33.5083,87.52441 -18.1275,0 z m -20.874,-56.27441 q -0.6714,-1.58692 -1.4648,-3.78418 -0.7325,-2.19727 -1.2818,-4.08936 -0.4883,1.89209 -1.2817,4.08936 -0.7935,2.19726 -1.4649,3.78418 l -8.6669,22.76611 22.7661,0 -8.606,-22.76611 z"
         style="stroke:#222222;stroke-opacity:1;stroke-width:0.25;stroke-miterlimit:4;stroke-dasharray:none" />
      <path
         inkscape:connector-curvature="0"
         id="path4168"
         d="m 1608.577,884.03009 -18.4936,-29.35791 -18.4937,29.35791 -19.7754,0 28.3814,-45.10498 -26.6113,-42.41943 19.7753,0 16.7237,26.79443 16.7846,-26.79443 19.7144,0 -26.6113,42.41943 28.3813,45.10498 -19.7754,0 z"
         style="stroke:#222222;stroke-opacity:1;stroke-width:0.25;stroke-miterlimit:4;stroke-dasharray:none" />
    </g>
  </g>
</svg>
