<?xml version="1.0" encoding="UTF-8" standalone="no"?>
<!-- Created with Inkscape (http://www.inkscape.org/) -->

<svg
   xmlns:dc="http://purl.org/dc/elements/1.1/"
   xmlns:cc="http://creativecommons.org/ns#"
   xmlns:rdf="http://www.w3.org/1999/02/22-rdf-syntax-ns#"
   xmlns:svg="http://www.w3.org/2000/svg"
   xmlns="http://www.w3.org/2000/svg"
   xmlns:sodipodi="http://sodipodi.sourceforge.net/DTD/sodipodi-0.dtd"
   xmlns:inkscape="http://www.inkscape.org/namespaces/inkscape"
   width="585.4986"
   height="272.05209"
   viewBox="0 0 585.4986 272.0521"
   id="svg2"
   version="1.1"
   inkscape:version="0.92.4 (5da689c313, 2019-01-14)"
   sodipodi:docname="LBB.svg"
   inkscape:export-filename="C:\Users\paulb\Dropbox\Projects\Terminal Silhouettes\Silhouettes\png-portfolio\LBB.png"
   inkscape:export-xdpi="89.982765"
   inkscape:export-ydpi="89.982765">
  <sodipodi:namedview
     id="base"
     pagecolor="#ffffff"
     bordercolor="#666666"
     borderopacity="1.0"
     inkscape:pageopacity="1"
     inkscape:pageshadow="2"
     inkscape:zoom="1"
     inkscape:cx="272.00496"
     inkscape:cy="239.86786"
     inkscape:document-units="px"
     inkscape:current-layer="layer2"
     showgrid="false"
     units="px"
     fit-margin-top="25"
     fit-margin-left="25"
     fit-margin-right="25"
     fit-margin-bottom="25"
     showguides="true"
     inkscape:guide-bbox="true"
     inkscape:window-width="1920"
     inkscape:window-height="1137"
     inkscape:window-x="1912"
     inkscape:window-y="-8"
     inkscape:window-maximized="1"
     inkscape:snap-intersection-paths="true"
     inkscape:object-nodes="true"
     inkscape:snap-smooth-nodes="true">
    <inkscape:grid
       id="grid4985"
       type="xygrid"
       originx="-1778.9971"
       originy="-1458.2756" />
  </sodipodi:namedview>
  <defs
     id="defs4" />
  <metadata
     id="metadata7">
    <rdf:RDF>
      <cc:Work
         rdf:about="">
        <dc:format>image/svg+xml</dc:format>
        <dc:type
           rdf:resource="http://purl.org/dc/dcmitype/StillImage" />
        <dc:title />
        <dc:description>Terminal silhouette of LBB (Lubbock)</dc:description>
        <dc:creator>
          <cc:Agent>
            <dc:title>Paul Bogard</dc:title>
          </cc:Agent>
        </dc:creator>
      </cc:Work>
    </rdf:RDF>
  </metadata>
  <g
     style="display:inline"
     inkscape:label="Terminal"
     id="layer2"
     inkscape:groupmode="layer"
     transform="translate(-1778.9971,-1318.4223)">
    <path
       id="path4198"
       d="m 2031.8801,1344.1723 0,2.7145 -0.4891,0 0,-0.9425 -0.4891,0 -0.4891,0 0,5.252 -12.623,0 0,-0.9427 -0.4891,0 -0.4891,0 0,0.9427 -12.623,0 0,-0.9427 -0.4891,0 -0.4891,0 0,0.9427 -12.6233,0 0,-0.9427 -0.4891,0 -0.4891,0 0,0.9427 -12.623,0 0,-0.9427 -0.4891,0 -0.4891,0 0,0.9427 -12.623,0 0,-4.1871 -0.9782,0 0,0.9425 -1.9034,0.1 -0.1092,-2.0818 -11.5376,0.6046 0.109,2.0819 -1.8594,0.097 -0.1274,-1.2124 -0.9727,0.1023 0.1269,1.2077 -15.1994,2.4074 -0.2104,-0.9893 c -0.3189,0.068 -0.638,0.1357 -0.9569,0.2035 l 0.2099,0.9872 -1.8608,0.4985 -0.5404,-2.0166 -11.1596,2.9901 0.5401,2.0168 -1.8338,0.4915 -0.2693,-0.829 -0.9304,0.3023 0.269,0.8283 -14.3447,5.5064 -0.3543,-0.7962 c -0.2979,0.1327 -0.5957,0.2653 -0.8935,0.3979 l 0.3541,0.7952 -13.6977,6.9795 -0.399,-0.6912 c -0.2824,0.1631 -0.5649,0.3261 -0.8472,0.4891 l 0.3992,0.6915 -12.88,8.364 -0.5122,-0.7049 c -0.2638,0.1917 -0.5274,0.3835 -0.7912,0.5752 l 0.5115,0.7041 -1.4124,1.1439 -1.5261,-1.8845 -9.4678,7.667 -1.4183,-1.4183 -1.4443,1.4443 -1.5944,-1.5944 -1.7422,1.7422 -1.5178,-1.5179 -4.081,4.081 -4.081,4.081 1.5178,1.5178 -1.7421,1.7422 1.5944,1.5944 -1.4443,1.4443 1.4183,1.4184 -7.667,9.4677 1.8845,1.5261 -1.1356,1.4025 -0.7626,-0.5541 c -0.1916,0.2638 -0.3832,0.5277 -0.5749,0.7914 l 0.7621,0.5537 -8.3591,12.8722 -0.6931,-0.4002 c -0.163,0.2823 -0.326,0.5646 -0.489,0.8469 l 0.6909,0.3991 -6.9833,13.7059 -0.8614,-0.3834 c -0.1326,0.2978 -0.2652,0.5957 -0.3978,0.8935 l 0.8606,0.3832 -5.5064,14.3451 -0.8968,-0.2914 c -0.1008,0.31 -0.2016,0.6201 -0.3023,0.9301 l 0.8963,0.2913 -0.4947,1.8464 -2.0173,-0.5404 -2.9901,11.1596 2.0171,0.5406 -0.4912,1.8334 -0.8524,-0.181 c -0.068,0.3189 -0.1358,0.6379 -0.2036,0.9569 l 0.8517,0.181 -2.4035,15.1761 -0.8666,-0.091 c -0.034,0.3243 -0.068,0.6486 -0.1024,0.9728 l 0.8659,0.091 -0.1002,1.9109 -2.0824,-0.1089 -0.6046,11.5375 2.0823,0.1092 -0.099,1.8956 -0.8713,0 c 0,0.326 0,0.6522 0,0.9782 l 4.1301,0 0,12.6308 -0.9424,0 0,0.4891 0,0.4891 0.9424,0 0,12.624 -3.9285,0 0,0.4891 0,0.4891 1.2221,0 0,0.4881 -2.3641,0 0,11.6449 2.3641,0 0,0.4891 -1.2221,0 0,0.4891 0,0.489 14.7948,0 0,-0.9781 0,-3.5269 7.7804,0 8.3856,0 0,-9.0952 22.7108,0 0,-0.4901 3.1378,0 0,-27.2026 0.5477,-10.4514 1.6372,-10.3372 2.7086,-10.1091 3.7507,-9.771 4.7514,-9.3252 5.7,-8.7773 6.5864,-8.1336 7.4006,-7.4006 8.1333,-6.5866 8.7775,-5.7 9.3248,-4.7514 9.7713,-3.751 10.1088,-2.7085 10.3377,-1.6375 10.2216,-0.5356 13.3421,0 0.9782,0 17.0666,0 0,-6.5406 -3.4654,0 0,-16.066 2.8173,0 0,-10.5864 3.6013,0 0,-9.0472 6.2047,0 0,0.9427 0.9782,0 0,-0.9427 12.623,0 0,0.9427 0.9782,0 0,-0.9427 12.623,0 0,0.9427 0.9782,0 0,-0.9427 6.5909,0 3.7704,0 2.2618,0 0,2.8106 0.9781,0 0,-0.9427 12.6233,0 0,0.9427 0.9782,0 0,-0.9427 12.623,0 0,0.9427 0.9782,0 0,-2.8106 1.2836,0 11.8285,0 0,0.9427 0.9782,0 0,-16.8619 -0.4891,0 -0.4891,0 0,0.9425 -0.4891,0 0,-2.7145 -11.6448,0 0,2.7145 -0.9782,0 0,-0.9425 -0.4891,0 -0.4891,0 0,0.9425 -12.623,0 0,-0.9425 -0.4891,0 -0.4891,0 0,0.9425 -12.6233,0 0,-0.9425 -0.4891,0 -0.489,0 0,0.9425 -0.4891,0 0,-2.7145 -11.6449,0 z m -68.4954,39.6043 12.623,0 0,13.7865 -12.623,0 0,-13.7865 z m 13.6012,0 12.623,0 0,13.7865 -12.623,0 0,-13.7865 z m -14.5794,0.026 0,13.7865 -10.1119,0.53 -1.4413,-13.7109 11.5532,-0.6056 z m -24.2143,6.3125 2.1036,9.8975 -9.8358,2.6354 -3.1267,-9.6233 10.8589,-2.9096 z m -11.7895,3.2113 3.1267,9.6233 -9.4943,3.6446 -4.1155,-9.2439 10.4831,-4.024 z m -11.3771,4.4211 4.1158,9.2437 -9.0683,4.6206 -5.0594,-8.7628 10.0119,-5.1015 z m -18.5632,15.7148 3.4494,4.7478 -7.9088,6.4049 -3.9271,-4.3616 8.3865,-6.7911 z m -9.1136,7.4457 3.927,4.3615 -7.1892,7.1895 -4.3616,-3.9276 7.6238,-7.6234 z m -8.2785,8.3503 4.3618,3.9274 -6.3978,7.9012 -4.7491,-3.4503 6.7851,-8.3783 z m -17.3957,16.9204 8.7638,5.0598 -4.6242,9.0766 -9.2451,-4.1163 5.1055,-10.0201 z m -5.5041,10.9137 9.2451,4.1162 -3.6439,9.4945 -9.6252,-3.1274 4.024,-10.4833 z m -4.3268,11.4132 9.6252,3.1274 -2.631,9.8212 -9.8999,-2.1043 2.9057,-10.8443 z m -8.617,23.481 13.7135,1.4415 -0.5316,10.1554 -13.7897,0 0.6078,-11.5969 z m -0.6337,12.5751 13.7896,0 0,12.6308 -13.7896,0 0,-12.6308 z m 0,13.609 13.7896,0 0,12.624 -13.7896,0 0,-12.624 z"
       style="fill:#dddddd;fill-opacity:1;fill-rule:evenodd;stroke:#222222;stroke-width:1.5;stroke-linecap:butt;stroke-linejoin:miter;stroke-miterlimit:4;stroke-dasharray:none;stroke-opacity:1"
       inkscape:connector-curvature="0" />
  </g>
  <g
     inkscape:groupmode="layer"
     id="layer3"
     inkscape:label="Label"
     transform="translate(-1778.9971,-1318.4223)"
     style="display:inline">
    <g
       id="g5017"
       transform="translate(0,16)">
      <g
         style="font-style:normal;font-variant:normal;font-weight:bold;font-stretch:normal;font-size:125px;line-height:125%;font-family:Overpass;-inkscape-font-specification:'Overpass, Bold';text-align:start;letter-spacing:0px;word-spacing:0px;writing-mode:lr-tb;text-anchor:start;fill:#dddddd;fill-opacity:1;stroke:#222222;stroke-width:0.25;stroke-linecap:butt;stroke-linejoin:miter;stroke-miterlimit:4;stroke-dasharray:none;stroke-opacity:1"
         id="text5005">
        <path
           d="m 2108.2305,1549.3494 0,-87.5244 16.9067,0 0,71.289 42.2363,0 0,16.2354 -59.143,0 z"
           id="path5043"
           inkscape:connector-curvature="0" />
        <path
           d="m 2180.4961,1461.825 38.3911,0 q 7.9956,0 13.4277,2.0141 5.4322,2.0142 8.7281,5.3101 3.3569,3.2959 4.7607,7.5073 1.4649,4.2114 1.4649,8.667 0,2.8076 -0.6104,5.4321 -0.5493,2.6245 -1.8311,4.9439 -1.2817,2.2583 -3.2958,4.2114 -2.0142,1.8921 -4.8829,3.2959 3.7232,1.4038 6.2867,3.6621 2.6245,2.1973 4.2114,4.8828 1.6479,2.6856 2.3804,5.6763 0.7324,2.9907 0.7324,5.9204 0,4.6387 -1.5869,9.2773 -1.5259,4.6387 -5.066,8.3618 -3.479,3.7232 -9.1552,6.0425 -5.6153,2.3194 -13.794,2.3194 l -40.1611,0 0,-87.5244 z m 41.0156,71.7773 q 3.418,0 5.6763,-0.9155 2.2583,-0.9766 3.54,-2.4414 1.3428,-1.4649 1.8921,-3.2959 0.5493,-1.8311 0.5493,-3.6011 0,-2.1362 -0.6714,-4.1504 -0.6103,-2.0752 -2.3193,-3.6621 -1.709,-1.5869 -4.6387,-2.5635 -2.9296,-0.9766 -7.5073,-0.9766 l -20.6299,0 0,21.6065 24.1089,0 z m -4.6387,-37.3535 q 6.7139,0 9.9488,-2.5635 3.2959,-2.6245 3.2959,-6.8359 0,-1.648 -0.4273,-3.2959 -0.4272,-1.648 -1.6479,-2.9908 -1.1597,-1.3427 -3.2959,-2.1362 -2.1362,-0.8545 -5.6153,-0.8545 l -21.7285,0 0,18.6768 19.4702,0 z"
           id="path5045"
           inkscape:connector-curvature="0" />
        <path
           d="m 2269.6074,1461.825 38.3911,0 q 7.9956,0 13.4278,2.0141 5.4321,2.0142 8.728,5.3101 3.3569,3.2959 4.7607,7.5073 1.4649,4.2114 1.4649,8.667 0,2.8076 -0.6104,5.4321 -0.5493,2.6245 -1.831,4.9439 -1.2818,2.2583 -3.2959,4.2114 -2.0142,1.8921 -4.8828,3.2959 3.7231,1.4038 6.2866,3.6621 2.6245,2.1973 4.2114,4.8828 1.648,2.6856 2.3804,5.6763 0.7324,2.9907 0.7324,5.9204 0,4.6387 -1.5869,9.2773 -1.5259,4.6387 -5.0659,8.3618 -3.479,3.7232 -9.1553,6.0425 -5.6152,2.3194 -13.7939,2.3194 l -40.1612,0 0,-87.5244 z m 41.0156,71.7773 q 3.418,0 5.6763,-0.9155 2.2583,-0.9766 3.5401,-2.4414 1.3427,-1.4649 1.892,-3.2959 0.5494,-1.8311 0.5494,-3.6011 0,-2.1362 -0.6714,-4.1504 -0.6104,-2.0752 -2.3194,-3.6621 -1.7089,-1.5869 -4.6386,-2.5635 -2.9297,-0.9766 -7.5074,-0.9766 l -20.6298,0 0,21.6065 24.1088,0 z m -4.6386,-37.3535 q 6.7138,0 9.9487,-2.5635 3.2959,-2.6245 3.2959,-6.8359 0,-1.648 -0.4272,-3.2959 -0.4273,-1.648 -1.648,-2.9908 -1.1597,-1.3427 -3.2959,-2.1362 -2.1362,-0.8545 -5.6152,-0.8545 l -21.7285,0 0,18.6768 19.4702,0 z"
           id="path5047"
           inkscape:connector-curvature="0" />
      </g>
      <g
         style="font-style:normal;font-variant:normal;font-weight:normal;font-stretch:normal;font-size:45px;line-height:125%;font-family:Overpass;-inkscape-font-specification:'Overpass, Normal';text-align:start;letter-spacing:0px;word-spacing:0px;writing-mode:lr-tb;text-anchor:start;fill:#222222;fill-opacity:1;stroke:none;stroke-width:1px;stroke-linecap:butt;stroke-linejoin:miter;stroke-opacity:1"
         id="text5009">
        <path
           d="m 2169.603,1446.1506 0,-31.5088 4.6802,0 0,27.0044 15.4028,0 0,4.5044 -20.083,0 z"
           id="path5050"
           inkscape:connector-curvature="0" />
        <path
           d="m 2209.1318,1446.1506 0,-2.1972 q -1.1206,1.4282 -2.5927,2.0874 -1.4502,0.6592 -3.3619,0.6592 -1.8017,0 -3.3178,-0.5274 -1.5161,-0.5054 -2.6367,-1.6699 -1.0987,-1.1865 -1.7139,-3.0542 -0.6152,-1.8677 -0.6152,-4.5703 l 0,-13.7329 4.6801,0 0,13.7329 q 0,1.4502 0.3516,2.4829 0.3516,1.0107 0.9668,1.6699 0.6152,0.6592 1.4502,0.9668 0.8349,0.2856 1.8237,0.2856 1.0547,0 1.9556,-0.2636 0.9009,-0.2857 1.56,-0.9009 0.6812,-0.6372 1.0547,-1.648 0.3955,-1.0107 0.3955,-2.5048 l 0,-13.8208 4.6802,0 0,23.0053 -4.6802,0 z"
           id="path5052"
           inkscape:connector-curvature="0" />
        <path
           d="m 2230.6431,1446.7 q -0.9888,0 -1.8018,-0.1978 -0.791,-0.1758 -1.4502,-0.4834 -0.6592,-0.3296 -1.1865,-0.769 -0.5274,-0.4395 -0.9888,-0.9449 l 0,1.8457 -4.6802,0 0,-30.3222 4.6802,-2.1753 0,11.25 q 0.8789,-0.9888 2.1973,-1.626 1.3403,-0.6592 3.23,-0.6592 2.1093,0 3.8672,0.813 1.7578,0.813 3.0102,2.3731 1.2744,1.538 1.9775,3.7793 0.7032,2.2192 0.7032,5.0537 0,2.9223 -0.6592,5.1855 -0.6592,2.2412 -1.9116,3.7793 -1.2305,1.5161 -3.0103,2.3071 -1.7578,0.7911 -3.977,0.7911 z m -0.5713,-4.4166 q 1.3403,0 2.3511,-0.5273 1.0107,-0.5493 1.6918,-1.5381 0.7032,-0.9888 1.0547,-2.395 0.3516,-1.4282 0.3516,-3.186 0,-3.7134 -1.4063,-5.647 -1.3842,-1.9556 -4.0429,-1.9556 -0.9009,0 -1.6699,0.2417 -0.7691,0.2417 -1.4063,0.6153 -0.6152,0.3735 -1.0767,0.8349 -0.4394,0.4614 -0.7031,0.9009 l 0,10.0415 q 0.7691,1.2524 2.0215,1.9336 1.2744,0.6811 2.8345,0.6811 z"
           id="path5054"
           inkscape:connector-curvature="0" />
        <path
           d="m 2255.9556,1446.7 q -0.9888,0 -1.8018,-0.1978 -0.791,-0.1758 -1.4502,-0.4834 -0.6592,-0.3296 -1.1865,-0.769 -0.5274,-0.4395 -0.9888,-0.9449 l 0,1.8457 -4.6802,0 0,-30.3222 4.6802,-2.1753 0,11.25 q 0.8789,-0.9888 2.1973,-1.626 1.3403,-0.6592 3.23,-0.6592 2.1093,0 3.8672,0.813 1.7578,0.813 3.0102,2.3731 1.2744,1.538 1.9775,3.7793 0.7032,2.2192 0.7032,5.0537 0,2.9223 -0.6592,5.1855 -0.6592,2.2412 -1.9116,3.7793 -1.2305,1.5161 -3.0103,2.3071 -1.7578,0.7911 -3.977,0.7911 z m -0.5713,-4.4166 q 1.3403,0 2.3511,-0.5273 1.0107,-0.5493 1.6918,-1.5381 0.7032,-0.9888 1.0547,-2.395 0.3516,-1.4282 0.3516,-3.186 0,-3.7134 -1.4063,-5.647 -1.3842,-1.9556 -4.0429,-1.9556 -0.9009,0 -1.6699,0.2417 -0.7691,0.2417 -1.4063,0.6153 -0.6152,0.3735 -1.0767,0.8349 -0.4394,0.4614 -0.7031,0.9009 l 0,10.0415 q 0.7691,1.2524 2.0215,1.9336 1.2744,0.6811 2.8345,0.6811 z"
           id="path5056"
           inkscape:connector-curvature="0" />
        <path
           d="m 2280.521,1446.7 q -2.417,0 -4.3726,-0.813 -1.9336,-0.813 -3.2959,-2.3511 -1.3623,-1.5601 -2.1093,-3.7793 -0.7251,-2.2412 -0.7251,-5.0757 0,-2.8345 0.7251,-5.0757 0.747,-2.2412 2.1093,-3.7793 1.3623,-1.56 3.2959,-2.373 1.9556,-0.835 4.3726,-0.835 2.395,0 4.3506,0.835 1.9555,0.813 3.3179,2.373 1.3623,1.5381 2.1093,3.7793 0.7471,2.2412 0.7471,5.0757 0,2.8345 -0.7471,5.0757 -0.747,2.2192 -2.1093,3.7793 -1.3624,1.5381 -3.3179,2.3511 -1.9556,0.813 -4.3506,0.813 z m 0,-4.4166 q 1.3403,0 2.417,-0.5273 1.0986,-0.5273 1.8457,-1.4941 0.769,-0.9888 1.1645,-2.3951 0.4175,-1.4062 0.4175,-3.186 0,-1.7798 -0.4175,-3.186 -0.3955,-1.4282 -1.1645,-2.417 -0.7471,-0.9888 -1.8457,-1.5161 -1.0767,-0.5274 -2.417,-0.5274 -1.3403,0 -2.417,0.5274 -1.0767,0.5273 -1.8457,1.5161 -0.7471,0.9888 -1.1645,2.417 -0.3956,1.4062 -0.3956,3.186 0,1.7798 0.3956,3.186 0.4174,1.4063 1.1645,2.3951 0.769,0.9668 1.8457,1.4941 1.0767,0.5273 2.417,0.5273 z"
           id="path5058"
           inkscape:connector-curvature="0" />
        <path
           d="m 2305.5479,1446.7 q -2.3072,0 -4.1749,-0.813 -1.8457,-0.813 -3.164,-2.3511 -1.2964,-1.5601 -1.9995,-3.7793 -0.7032,-2.2412 -0.7032,-5.0757 0,-2.8345 0.7032,-5.0757 0.7031,-2.2412 1.9995,-3.7793 1.3183,-1.56 3.164,-2.373 1.8677,-0.835 4.1749,-0.835 3.208,0 5.4272,1.4282 2.2412,1.4283 3.252,4.5044 l -4.4385,1.5381 q -0.5054,-1.3183 -1.5381,-2.1313 -1.0327,-0.835 -2.5269,-0.835 -1.3183,0 -2.3291,0.5274 -1.0107,0.5273 -1.7138,1.5161 -0.6812,0.9668 -1.0547,2.373 -0.3516,1.3843 -0.3516,3.1421 0,1.7578 0.3516,3.1641 0.3735,1.3842 1.0327,2.351 0.6811,0.9668 1.6479,1.4942 0.9888,0.5054 2.2413,0.5054 1.582,0 2.7026,-0.8789 1.1426,-0.879 1.626,-2.5049 l 4.4384,1.4062 q -0.9228,3.208 -3.142,4.856 -2.1973,1.626 -5.625,1.626 z"
           id="path5060"
           inkscape:connector-curvature="0" />
        <path
           d="m 2319.9399,1446.1506 0,-30.2783 4.6802,-2.2192 0,16.6113 6.7896,-7.1191 5.7568,0 -6.3061,6.394 8.6352,16.6113 -5.1196,0 -6.7896,-13.2275 -2.9663,2.9663 0,10.2612 -4.6802,0 z"
           id="path5062"
           inkscape:connector-curvature="0" />
      </g>
    </g>
  </g>
  <g
     inkscape:groupmode="layer"
     id="layer4"
     inkscape:label="Date"
     transform="translate(-1778.9971,-1318.4223)"
     style="display:inline">
    <g
       style="font-style:normal;font-variant:normal;font-weight:300;font-stretch:normal;font-size:15px;line-height:125%;font-family:Overpass;-inkscape-font-specification:'Overpass, Light';text-align:start;letter-spacing:0px;word-spacing:0px;writing-mode:lr-tb;text-anchor:start;fill:#222222;fill-opacity:1;stroke:none;stroke-width:1px;stroke-linecap:butt;stroke-linejoin:miter;stroke-opacity:1"
       id="text5013">
      <path
         d="m 2267.6619,1354.1023 0,-8.595 -1.785,0 0,-0.6 q 0.795,0 1.35,-0.27 0.555,-0.285 0.81,-1.035 l 0.675,0 0,10.5 -1.05,0 z"
         id="path5024"
         inkscape:connector-curvature="0" />
      <path
         d="m 2272.6716,1354.1023 0,-8.595 -1.785,0 0,-0.6 q 0.795,0 1.35,-0.27 0.555,-0.285 0.81,-1.035 l 0.675,0 0,10.5 -1.05,0 z"
         id="path5026"
         inkscape:connector-curvature="0" />
      <path
         d="m 2286.1325,1354.1023 -0.96,-2.715 -4.095,0 -0.915,2.715 -1.095,0 3.645,-10.5 0.81,0 3.675,10.5 -1.065,0 z m -1.275,-3.645 -1.44,-4.2 q -0.075,-0.195 -0.18,-0.495 -0.09,-0.3 -0.12,-0.45 -0.045,0.15 -0.135,0.45 -0.075,0.3 -0.15,0.495 l -1.44,4.2 3.465,0 z"
         id="path5028"
         inkscape:connector-curvature="0" />
      <path
         d="m 2293.9526,1354.1023 0,-0.735 q -0.405,0.525 -0.855,0.72 -0.45,0.195 -1.05,0.195 -1.485,0 -2.16,-0.84 -0.66,-0.84 -0.66,-2.73 l 0,-4.275 1.05,0 0,4.68 q 0,1.2 0.495,1.71 0.51,0.51 1.275,0.51 0.405,0 0.75,-0.105 0.345,-0.105 0.6,-0.36 0.27,-0.255 0.405,-0.675 0.15,-0.42 0.15,-1.05 l 0,-4.71 1.05,0 0,7.665 -1.05,0 z"
         id="path5030"
         inkscape:connector-curvature="0" />
      <path
         d="m 2299.3908,1356.4723 q 0.93,-0.045 1.515,-0.24 0.6,-0.18 0.93,-0.465 0.345,-0.27 0.465,-0.63 0.12,-0.345 0.12,-0.735 l 0,-1.17 q -0.33,0.48 -0.825,0.765 -0.48,0.285 -1.275,0.285 -0.615,0 -1.185,-0.255 -0.57,-0.255 -1.005,-0.75 -0.435,-0.51 -0.69,-1.26 -0.255,-0.75 -0.255,-1.755 0,-0.945 0.225,-1.68 0.24,-0.75 0.66,-1.26 0.435,-0.525 1.02,-0.795 0.585,-0.27 1.29,-0.27 0.435,0 0.765,0.105 0.345,0.09 0.585,0.24 0.255,0.135 0.42,0.3 0.18,0.15 0.27,0.255 l 0,-0.72 1.05,0 0,7.545 q 0,0.945 -0.3,1.56 -0.3,0.63 -0.795,1.005 -0.495,0.39 -1.155,0.555 -0.645,0.165 -1.35,0.195 l -0.48,-0.825 z m 1.17,-3.135 q 0.48,0 1.005,-0.33 0.54,-0.345 0.855,-0.945 l 0,-3.69 q -0.165,-0.285 -0.405,-0.495 -0.225,-0.225 -0.48,-0.375 -0.255,-0.15 -0.51,-0.225 -0.255,-0.075 -0.465,-0.075 -1.14,0 -1.71,0.795 -0.57,0.78 -0.57,2.265 0,0.735 0.165,1.305 0.18,0.57 0.48,0.975 0.315,0.39 0.72,0.6 0.42,0.195 0.915,0.195 z"
         id="path5032"
         inkscape:connector-curvature="0" />
      <path
         d="m 2309.3497,1354.1023 q 0,-0.99 0.285,-1.695 0.285,-0.72 0.735,-1.26 0.45,-0.54 1.02,-0.945 0.57,-0.405 1.14,-0.795 0.495,-0.33 0.945,-0.645 0.45,-0.33 0.795,-0.69 0.36,-0.36 0.57,-0.765 0.21,-0.42 0.21,-0.93 0,-0.855 -0.6,-1.425 -0.585,-0.585 -1.68,-0.585 -1.065,0 -1.605,0.48 -0.54,0.465 -0.735,1.215 l -0.93,-0.42 q 0.12,-0.465 0.405,-0.87 0.285,-0.405 0.72,-0.705 0.435,-0.3 0.99,-0.465 0.57,-0.18 1.245,-0.18 1.56,0 2.415,0.81 0.87,0.795 0.87,2.145 0,0.72 -0.285,1.275 -0.27,0.555 -0.72,1.02 -0.435,0.45 -0.99,0.84 -0.555,0.375 -1.125,0.735 -0.45,0.3 -0.87,0.6 -0.42,0.285 -0.78,0.63 -0.345,0.33 -0.585,0.735 -0.24,0.39 -0.33,0.885 l 5.775,0 0,1.005 -6.885,0 z"
         id="path5034"
         inkscape:connector-curvature="0" />
      <path
         d="m 2321.9288,1354.2823 q -1.035,0 -1.725,-0.48 -0.69,-0.48 -1.11,-1.245 -0.405,-0.78 -0.585,-1.74 -0.18,-0.975 -0.18,-1.965 0,-0.54 0.06,-1.155 0.06,-0.63 0.21,-1.23 0.165,-0.6 0.42,-1.155 0.27,-0.555 0.675,-0.975 0.405,-0.42 0.945,-0.66 0.555,-0.255 1.29,-0.255 1.035,0 1.725,0.495 0.69,0.48 1.095,1.26 0.42,0.78 0.6,1.755 0.18,0.96 0.18,1.92 0,0.555 -0.075,1.17 -0.06,0.615 -0.225,1.23 -0.15,0.6 -0.42,1.155 -0.255,0.54 -0.66,0.96 -0.405,0.42 -0.96,0.675 -0.54,0.24 -1.26,0.24 z m 0,-0.945 q 0.78,0 1.26,-0.42 0.495,-0.435 0.765,-1.095 0.27,-0.66 0.36,-1.455 0.09,-0.795 0.09,-1.515 0,-0.81 -0.105,-1.605 -0.105,-0.81 -0.39,-1.44 -0.285,-0.645 -0.765,-1.035 -0.48,-0.405 -1.215,-0.405 -0.795,0 -1.29,0.435 -0.48,0.435 -0.75,1.095 -0.27,0.66 -0.375,1.455 -0.09,0.78 -0.09,1.5 0,0.825 0.105,1.635 0.105,0.795 0.39,1.44 0.285,0.63 0.765,1.02 0.495,0.39 1.245,0.39 z"
         id="path5036"
         inkscape:connector-curvature="0" />
      <path
         d="m 2328.9509,1354.1023 0,-8.595 -1.785,0 0,-0.6 q 0.795,0 1.35,-0.27 0.555,-0.285 0.81,-1.035 l 0.675,0 0,10.5 -1.05,0 z"
         id="path5038"
         inkscape:connector-curvature="0" />
      <path
         d="m 2336.0607,1353.3373 q 0.495,0 0.915,-0.15 0.435,-0.165 0.75,-0.465 0.315,-0.3 0.495,-0.735 0.18,-0.435 0.18,-0.99 0,-0.465 -0.165,-0.885 -0.165,-0.42 -0.48,-0.735 -0.3,-0.33 -0.735,-0.51 -0.435,-0.195 -0.96,-0.195 -0.525,0 -0.96,0.195 -0.435,0.18 -0.75,0.51 -0.3,0.315 -0.465,0.735 -0.165,0.42 -0.165,0.885 0,0.555 0.18,0.99 0.18,0.435 0.495,0.735 0.315,0.3 0.735,0.465 0.435,0.15 0.93,0.15 z m 0,-9.915 q 0.63,0 1.17,0.225 0.555,0.21 0.945,0.585 0.39,0.375 0.615,0.87 0.225,0.495 0.225,1.035 0,0.675 -0.345,1.275 -0.33,0.585 -1.05,0.885 0.84,0.315 1.35,1.095 0.525,0.765 0.525,1.755 0,0.66 -0.255,1.245 -0.255,0.57 -0.72,0.99 -0.465,0.42 -1.095,0.66 -0.63,0.24 -1.365,0.24 -0.75,0 -1.38,-0.24 -0.615,-0.24 -1.08,-0.66 -0.465,-0.42 -0.72,-0.99 -0.255,-0.585 -0.255,-1.245 0,-0.495 0.135,-0.945 0.135,-0.45 0.375,-0.81 0.255,-0.375 0.6,-0.66 0.345,-0.285 0.75,-0.435 -0.675,-0.3 -1.035,-0.885 -0.345,-0.6 -0.345,-1.275 0,-0.54 0.225,-1.035 0.225,-0.495 0.615,-0.87 0.39,-0.375 0.93,-0.585 0.555,-0.225 1.185,-0.225 z m 0,4.56 q 0.87,0 1.38,-0.48 0.51,-0.48 0.51,-1.23 0,-0.885 -0.54,-1.395 -0.54,-0.51 -1.35,-0.51 -0.81,0 -1.35,0.51 -0.54,0.51 -0.54,1.395 0,0.75 0.51,1.23 0.51,0.48 1.38,0.48 z"
         id="path5040"
         inkscape:connector-curvature="0" />
    </g>
  </g>
</svg>
