<?xml version="1.0" encoding="UTF-8" standalone="no"?>
<!-- Created with Inkscape (http://www.inkscape.org/) -->

<svg
   xmlns:dc="http://purl.org/dc/elements/1.1/"
   xmlns:cc="http://creativecommons.org/ns#"
   xmlns:rdf="http://www.w3.org/1999/02/22-rdf-syntax-ns#"
   xmlns:svg="http://www.w3.org/2000/svg"
   xmlns="http://www.w3.org/2000/svg"
   xmlns:sodipodi="http://sodipodi.sourceforge.net/DTD/sodipodi-0.dtd"
   xmlns:inkscape="http://www.inkscape.org/namespaces/inkscape"
   width="2271.0498"
   height="775.48218"
   viewBox="0 0 2271.0498 775.48218"
   id="svg2"
   version="1.1"
   inkscape:version="0.92.4 (5da689c313, 2019-01-14)"
   sodipodi:docname="LGA.svg"
   inkscape:export-filename="C:\Users\Paul Bogard\Dropbox\Documents\Websites\Flight Log\Images\Terminals\LGA.png"
   inkscape:export-xdpi="89.996498"
   inkscape:export-ydpi="89.996498">
  <defs
     id="defs4" />
  <sodipodi:namedview
     id="base"
     pagecolor="#ffffff"
     bordercolor="#666666"
     borderopacity="1.0"
     inkscape:pageopacity="1"
     inkscape:pageshadow="2"
     inkscape:zoom="0.5"
     inkscape:cx="195.67037"
     inkscape:cy="521.6775"
     inkscape:document-units="px"
     inkscape:current-layer="layer1"
     showgrid="false"
     inkscape:window-width="1920"
     inkscape:window-height="1137"
     inkscape:window-x="1912"
     inkscape:window-y="-8"
     inkscape:window-maximized="1"
     inkscape:object-paths="false"
     units="px"
     fit-margin-top="25"
     fit-margin-left="25"
     fit-margin-right="25"
     fit-margin-bottom="25" />
  <metadata
     id="metadata7">
    <rdf:RDF>
      <cc:Work
         rdf:about="">
        <dc:format>image/svg+xml</dc:format>
        <dc:type
           rdf:resource="http://purl.org/dc/dcmitype/StillImage" />
        <dc:title />
      </cc:Work>
    </rdf:RDF>
  </metadata>
  <g
     inkscape:groupmode="layer"
     id="layer2"
     inkscape:label="Terminal"
     transform="translate(1299.0083,-47.391391)">
    <path
       id="path4145"
       style="fill:#dddddd;fill-opacity:1;fill-rule:evenodd;stroke:#222222;stroke-width:1.5;stroke-linecap:butt;stroke-linejoin:miter;stroke-miterlimit:4;stroke-dasharray:none;stroke-opacity:1"
       d="m 493.05789,346.16634 -6.56578,11.94334 -1.64158,-0.90553 c -1.07543,-0.56603 -1.81109,0.45275 -1.81109,0.45275 l -2.32074,4.18876 c -0.62261,0.90563 0.28327,1.75416 0.28327,1.75416 l 1.81109,1.01872 -19.07506,35.26342 -2.15065,-1.07561 c -0.96224,-0.50943 -1.4715,0.50967 -1.4715,0.50967 l -4.69844,7.5845 0.17012,1.01872 2.43396,1.41521 -26.26372,48.33806 -2.09436,-1.18819 c -0.84902,-0.50943 -1.6979,0.28266 -1.6979,0.28266 l -3.05618,5.43385 3.22629,1.81106 -2.43395,4.47203 -3.2263,0.96181 -10.13161,18.56603 c -0.90566,-0.62261 -1.58533,0.39585 -1.58533,0.39585 l -4.13183,7.41506 0.22638,1.01871 3.05682,1.69787 -8.15108,15.11272 0.67916,2.09439 13.64121,7.47192 2.26445,-0.62286 0.45278,2.09436 13.52739,7.41502 2.0381,-0.62286 0.50904,2.03746 13.1722,7.26931 -3.44204,6.4038 200.35889,109.90522 10.72637,-18.81117 21.49839,11.38052 46.47068,-13.92391 -27.67892,-15.62239 0.90617,-1.69787 -13.75441,-7.6414 1.86799,-3.17001 -35.37664,-19.41402 4.07554,-7.8678 7.43443,12.24976 66.83966,36.18147 -1.36081,2.48147 6.4038,3.44205 1.28076,-2.16129 49.46936,28.17672 18.41092,9.36556 -0.56033,1.12067 -8.96532,-4.8829 -17.85059,32.89952 9.52565,5.84347 -4.48266,8.16484 1.84109,1.12067 -1.84109,3.44204 131.11781,72.20285 1.76104,-3.12186 11.84703,6.96414 21.45273,-38.5829 -75.00451,-40.90427 -6.4038,-21.85297 -12.40736,-6.88408 4.16247,-7.92471 -4.56271,-2.48147 8.72518,-15.68931 7.04418,3.60214 18.73112,-34.26033 -7.20428,-3.92233 9.12542,-16.89002 4.32256,2.00119 6.72399,-12.48741 2.56152,1.28076 7.68456,-13.28789 -3.60214,-12.32731 -22.01306,-11.68694 -11.52684,3.44204 -14.3285,26.01544 6.48385,3.76223 -9.04537,16.72993 -6.4038,-3.60214 -17.45036,32.25915 6.4038,3.76223 -10.32612,18.49097 -4.40262,-2.32138 -4.24251,7.68456 -11.2867,-6.56389 -10.80641,-2.56152 -124.93603,-68.4969 -14.94323,-15.67868 18.36715,-34.29472 3.92233,2.32138 1.36081,-0.32019 5.96353,-10.6063 -0.28016,-1.20071 -4.2025,-2.32138 11.24668,-20.85237 -24.33444,-13.20784 -24.37447,45.8272 -4.28254,-2.32138 -1.56092,0.52031 -5.40321,9.84584 0.40024,1.60095 4.08242,2.32138 -0.64038,1.16069 -1.24074,-0.72043 -30.77826,2.88171 1.16069,-2.16128 c 0.40024,-0.8405 -0.40024,-1.32079 -0.40024,-1.32079 l -4.28254,-2.48147 c -1.04062,-0.56033 -1.72166,0.42464 -1.72166,0.42464 l -1.35828,2.26383 -18.05635,-9.90526 -20.82925,9.22611 -27.28243,-15.16964 2.8867,-5.26373 c 0.73583,-1.18864 -0.45274,-1.98118 -0.45274,-1.98118 l -5.49078,-3.05682 c -1.35844,-0.67922 -1.86735,0.50968 -1.86735,0.50968 l -2.88671,5.60396 -12.2829,-6.84909 -1.13194,1.8111 -24.96169,-13.92388 2.94364,-5.77344 -11.09411,-38.03694 -7.6414,-4.13183 -1.69787,-6.73587 3.96171,-7.01853 -1.81105,-1.07504 5.71651,-10.24544 2.54714,1.4721 c 0.84905,0.45285 1.30202,-0.28327 1.30202,-0.28327 l 3.2832,-6.33938 c 0.73583,-1.47168 -0.45278,-2.26387 -0.45278,-2.26387 l -1.98118,-1.01935 23.54649,-43.47015 2.03746,1.01872 c 1.01885,0.67921 1.92489,-0.67916 1.92489,-0.67916 l 0.62222,-1.64158 c 0.50942,0.0566 1.07565,-0.56597 1.07565,-0.56597 l 2.49024,-4.47142 c 0.50943,-1.13203 -0.39588,-1.81106 -0.39588,-1.81106 l -2.37767,-1.24573 9.84898,-17.82933 -27.16924,-14.49049 z m 83.78159,205.42878 -13.60807,25.13492 -9.52566,-5.12304 6.96414,-13.04775 16.16959,-6.96413 z m 12.44239,4.9617 14.20718,7.81087 27.45191,-2.20755 1.01872,0.45278 -5.03736,8.94342 -13.13218,-7.07546 -3.50893,6.16993 -22.13127,-12.11282 1.13193,-1.98117 z m -872.95106,-132.52748 -31.98019,-16.64101 7.13188,-12.39586 -2.71691,-1.52827 c 0,0 8.88652,-17.88626 24.11251,-34.41409 l -2.4905,-2.43389 -4.07534,2.88671 -2.15091,-2.20749 -5.60362,-7.52808 0.45285,-0.33963 -3.84894,-6.28283 -2.66033,1.86789 -5.15077,-7.75452 2.60369,-1.75464 -11.77326,-17.65989 -2.6603,1.75468 -37.01777,-54.90407 7.47147,-5.20739 -1.24525,-1.81127 c -2.37728,1.41505 -4.92439,0.96224 -4.92439,0.96224 -5.66019,-1.07545 -5.4904,-6.84886 -5.4904,-6.84886 0.11322,-3.50934 2.88671,-5.264 2.88671,-5.264 l -8.82149,-12.83859 -7.60452,5.36318 -41.9591,-61.38108 7.4715,-5.03759 -15.42201,-22.91434 12.92767,-8.84524 30.77826,44.94667 -7.52446,5.08301 c 0,0 10.68634,15.60927 10.92648,15.84941 l 7.20428,-5.16307 26.13551,37.7424 -2.92174,2.04121 5.20309,7.04418 2.5215,-1.80107 57.11389,83.32944 -0.04,0.88053 -7.20427,4.7228 8.44501,10.92648 1.08064,0.80048 c 0,0 7.159,-8.37412 16.66816,-15.84563 0,0 12.56567,-11.54682 31.35759,-23.32006 0,0 17.09385,-11.32043 39.73468,-19.58434 l 5.94324,-2.20748 -3.22633,-10.86761 -4.30176,-3.28293 -2.77351,1.07545 -3.2263,-8.99974 4.86778,-1.58486 -3.05653,-8.43372 -4.81118,1.69806 -8.94313,-26.43319 8.49032,-3.05652 -5.83002,-17.03724 -5.66022,2.09428 -6.28283,-17.94287 5.83002,-1.98108 -8.88652,-25.07474 -6.28287,2.20748 -1.64145,-4.81118 0.62264,-0.22641 -24.11252,-69.281011 -5.547,2.037676 -2.2641,-6.452642 2.77352,-1.018838 -3.79236,-10.414791 23.99933,-8.207312 9.05632,25.697367 2.09426,-0.962235 1.47169,4.301761 -2.68149,1.087895 -0.20012,-0.520315 -0.76045,0.360215 0.64038,1.72102 -1.92114,0.8405 14.52862,41.10439 -5.84347,2.20131 15.169,43.26567 8.56508,-3.2019 15.3291,43.98611 -8.80522,3.36199 4.5627,12.24727 7.00416,-2.76164 7.90184,21.98193 1.69806,-0.56603 -4.717,11.36355 4.20249,12.92767 c 0,0 24.96666,-7.9332 49.07914,-9.17845 0,0 26.03699,-2.15088 53.658817,2.26409 l 0.723437,-21.06224 -6.243705,0.08 -0.120071,-8.9253 -2.401425,-0.08 -0.120071,-12.44738 2.321377,0 -0.440261,-15.28907 1.440855,-0.04 -0.395819,-23.29023 4.471581,-0.11321 -0.650946,-22.27294 -4.697956,0.0283 -0.424539,-18.99002 4.499886,0 -0.841043,-36.34183 -3.001782,0 -0.400237,-19.17138 14.608669,-0.16009 0.120071,19.29145 -3.001781,0.08 0.780015,36.21691 3.113111,0.0283 -0.05085,1.45716 0.440261,0 0,2.64156 -0.480285,0.04 0.08005,9.72577 0.64038,0 -0.04002,2.56152 -0.520309,0 -0.04002,1.76104 -2.772397,0.0105 0.762116,27.62184 9.226147,-0.16982 1.301861,55.41348 -9.395976,0.11321 -0.339594,21.50881 1.245251,-4.52817 c 0,0 9.178055,1.49035 17.102757,4.05187 l 0.800475,-2.16128 11.766983,3.92233 -0.480285,1.84109 c 0,0 11.126602,3.60214 21.933015,8.72518 0,0 27.85653,11.84703 48.268642,28.73704 l -0.96057,1.76105 1.200713,0.96057 3.121852,-6.72399 2.961758,0.96057 3.073952,-6.75471 -5.999849,-2.15088 3.226331,-8.71672 5.716832,1.98107 15.791995,-46.01753 -5.773442,-2.26409 7.13188,-20.37676 2.773518,1.01884 4.018737,-11.71664 2.830095,1.13204 4.811207,-14.20714 -5.886629,-2.20748 6.339442,-17.65986 4.075346,1.58486 10.018585,-28.81049 10.471402,3.45273 -7.245103,21.84842 0.396235,0.22641 -1.075454,3.22632 -0.452813,-0.28301 -1.415048,4.30177 0.509422,0.28301 -0.962234,2.7735 -0.566032,-0.22641 -0.962235,3.16972 -1.698064,-0.56602 -1.811283,5.3772 5.999848,2.09428 -23.150281,66.84712 -5.77341,-2.03768 -7.924286,22.81066 1.754641,0.56602 -2.999892,9.16954 -1.641486,-0.67922 -2.660299,7.64128 -9.905365,22.07482 c 0,0 16.867449,14.71658 30.112332,32.03684 l -28.867081,23.09364 c 0,0 -21.848421,-28.30105 -47.8854076,-43.81003 0,0 -8.9431304,-5.99982 -19.6975444,-10.98082 l -12.452445,24.33892 c 0,0 -15.848605,-7.58469 -26.829425,-10.64119 0,0 -23.999297,-9.05635 -58.41338,-6.45266 0,0 -24.90495,0 -57.28138,14.03732 0,0 -12.9003,5.49913 -25.30766,13.90412 l -15.68931,-23.13373 c 0,0 -20.97244,14.88884 -36.18147,31.93895 0,0 -13.60807,13.68813 -22.49335,31.45867 z m -939.69671,234.84944 5.8035,-2.38141 23.2137,10.02595 -10.1983,23.75189 0.3445,0.18638 -3.9143,21.42865 -0.4003,-0.0801 -0.7604,4.24252 7.8446,1.64097 0.1601,-0.48028 c 0,0 6.2437,1.60095 11.767,5.68337 l 1.8011,-2.88171 c 0,0 -5.8035,-4.20249 -12.8076,-5.76342 l 0.1201,-0.64038 -0.6004,-0.20012 3.2419,-20.17197 12.8877,5.60333 16.1295,-35.98135 0.7205,2.08123 3.0018,-1.08064 -0.4403,-1.24074 -1.4809,0.52031 -0.6804,-1.76104 3.0818,-1.12067 0.7605,2.16129 20.172,-8.2449 2.1212,5.48326 7.0042,-2.92174 -2.2013,-4.92292 23.4939,-9.56567 1.4809,3.64216 16.81,-6.48385 1.8811,5.20309 7.3243,-2.92174 -1.9211,-5.04299 16.2896,-6.08361 -6.7239,-17.65047 2.2813,-0.76045 -0.9205,-2.40143 0.4002,-0.20012 -1.641,-4.20249 -5.4832,2.12126 1.0806,3.28194 -33.5799,12.9677 -1.2808,-3.60214 -5.9235,2.24133 2.4415,7.04418 -46.4676,18.41093 -1.3208,-3.32197 -4.8829,2.12125 -2.4815,-6.16365 -21.973,8.52506 -7.6846,-3.48207 -1.721,3.28195 -2.1212,-1.12067 -16.0095,6.4038 -1.1807,3.40202 -6.0945,-2.68114 -5.3772,12.11285 c 0,0 -10.811,-0.50942 -16.2449,6.28283 l -12.3392,-5.09419 -6.4526,14.71657 12.3392,5.20738 c 0,0 -1.3584,10.58462 7.6979,18.2825 0,0 6.5092,6.05642 14.4902,5.60361 l 0.536,-0.0372 1.6192,4.40165 13.5681,-5.40321 -2.0212,-4.98295 0.1654,-0.14796 c 8.4337,-5.37718 7.9243,-17.26362 7.9243,-17.26362 0.057,-9.33937 -6.2829,-14.88637 -6.2829,-14.88637 l 4.8112,-12.39587 z"
       inkscape:connector-curvature="0" />
  </g>
  <g
     inkscape:groupmode="layer"
     id="layer1"
     inkscape:label="Label">
    <g
       id="text4155"
       style="font-style:normal;font-variant:normal;font-weight:bold;font-stretch:normal;font-size:125px;line-height:110.00000238%;font-family:Overpass;-inkscape-font-specification:'Overpass, Bold';text-align:start;letter-spacing:0px;word-spacing:0px;writing-mode:lr-tb;text-anchor:start;fill:#dddddd;fill-opacity:1;stroke:#222222;stroke-width:0.25;stroke-linecap:butt;stroke-linejoin:miter;stroke-opacity:1;stroke-miterlimit:4;stroke-dasharray:none"
       transform="translate(-49.043071,0)">
      <path
         inkscape:connector-curvature="0"
         id="path4172"
         d="m 74.043022,110.97041 0,-87.524411 16.906738,0 0,71.289063 42.23633,0 0,16.235348 -59.143068,0 z"
         style="stroke:#222222;stroke-opacity:1;stroke-width:0.25;stroke-miterlimit:4;stroke-dasharray:none" />
      <path
         inkscape:connector-curvature="0"
         id="path4174"
         d="m 181.70904,112.49629 q -6.7749,0 -12.26807,-1.77002 -5.49316,-1.77002 -9.76562,-4.88281 -4.27246,-3.11279 -7.38526,-7.385254 -3.11279,-4.333496 -5.12695,-9.338379 -2.01416,-5.004883 -2.99072,-10.559082 -0.97657,-5.615234 -0.97657,-11.352539 0,-5.310058 0.97657,-10.742187 1.03759,-5.432129 3.11279,-10.437012 2.13623,-5.065918 5.24902,-9.460449 3.17383,-4.394532 7.44629,-7.629395 4.3335,-3.234863 9.70459,-5.065918 5.43213,-1.89209 12.02393,-1.89209 6.34765,0 11.16943,1.586914 4.88281,1.586915 8.60596,4.211426 3.78418,2.563477 6.53076,5.981446 2.80762,3.356933 5.06592,6.958007 l -14.89258,8.483887 q -1.46484,-2.197266 -3.17383,-4.150391 -1.70898,-2.01416 -3.72314,-3.540039 -1.95313,-1.525879 -4.3335,-2.380371 -2.38037,-0.915527 -5.24902,-0.915527 -4.08936,0 -7.20215,1.281738 -3.11279,1.220703 -5.49316,3.417969 -2.31934,2.13623 -3.90625,5.004883 -1.58692,2.868652 -2.56348,6.103515 -0.97656,3.234864 -1.40381,6.652832 -0.42725,3.356934 -0.42725,6.530762 0,5.554199 1.15967,10.803223 1.15967,5.187988 3.66211,9.277344 2.56348,4.02832 6.53076,6.469726 4.02832,2.441406 9.64356,2.441406 3.17383,0 5.92041,-1.098632 2.80762,-1.159668 4.88281,-3.051758 2.0752,-1.953125 3.23486,-4.577637 1.22071,-2.624512 1.22071,-5.615234 l 0,-0.732422 -14.89258,0 0,-16.052246 32.10449,0 0,12.878418 q 0,8.422851 -2.50244,14.892578 -2.50244,6.408691 -6.89697,10.803218 -4.3335,4.3335 -10.25391,6.5918 -5.92041,2.2583 -12.81738,2.2583 z"
         style="stroke:#222222;stroke-opacity:1;stroke-width:0.25;stroke-miterlimit:4;stroke-dasharray:none" />
      <path
         inkscape:connector-curvature="0"
         id="path4176"
         d="m 291.75542,110.97041 -6.7749,-18.127438 -33.75244,0 -6.71387,18.127438 -18.12744,0 33.5083,-87.524411 16.4795,0 33.5083,87.524411 -18.12745,0 z M 270.8814,54.695999 q -0.67139,-1.586914 -1.46484,-3.78418 -0.73242,-2.197265 -1.28174,-4.089355 -0.48828,1.89209 -1.28174,4.089355 -0.79346,2.197266 -1.46484,3.78418 l -8.667,22.766113 22.76612,0 -8.60596,-22.766113 z"
         style="stroke:#222222;stroke-opacity:1;stroke-width:0.25;stroke-miterlimit:4;stroke-dasharray:none" />
    </g>
    <g
       id="text4159"
       style="font-style:normal;font-variant:normal;font-weight:normal;font-stretch:normal;font-size:45px;line-height:110.00000238%;font-family:Overpass;-inkscape-font-specification:'Overpass, Normal';text-align:start;letter-spacing:0px;word-spacing:0px;writing-mode:lr-tb;text-anchor:start;fill:#222222;fill-opacity:1;stroke:none;stroke-width:1px;stroke-linecap:butt;stroke-linejoin:miter;stroke-opacity:1"
       transform="translate(-49.043071,0)">
      <path
         inkscape:connector-curvature="0"
         id="path4179"
         d="m 93.488823,159.99394 -13.623047,-21.37939 -1.274414,-2.3291 0.131836,2.3291 0,21.37939 -4.680176,0 0,-31.50879 4.724121,0 13.293457,21.02784 1.296387,2.41699 -0.131836,-2.37305 0,-21.07178 4.680176,0 0,31.50879 -4.416504,0 z" />
      <path
         inkscape:connector-curvature="0"
         id="path4181"
         d="m 114.69244,160.54326 q -2.39502,0 -4.32862,-0.81299 -1.93359,-0.83496 -3.2959,-2.37305 -1.3623,-1.56006 -2.10937,-3.80127 -0.7251,-2.24121 -0.7251,-5.07568 0,-2.83447 0.74707,-5.05371 0.74707,-2.24121 2.10938,-3.7793 1.38427,-1.56006 3.2959,-2.37304 1.93359,-0.81299 4.30664,-0.81299 2.04345,0 3.82324,0.65918 1.80176,0.6372 3.14209,1.97754 1.3623,1.31836 2.13135,3.33984 0.79101,2.02148 0.79101,4.76807 0,0.74707 -0.0439,1.58203 -0.022,0.83496 -0.13184,1.45019 l -15.49072,0 q 0.022,1.42823 0.50537,2.5708 0.50537,1.12061 1.31836,1.9336 0.81299,0.79101 1.8457,1.23047 1.03272,0.41748 2.15332,0.41748 1.42822,0 2.63672,-0.59327 1.23047,-0.59326 2.13135,-1.73583 l 3.0542,3.14208 q -1.25244,1.49415 -3.20801,2.417 -1.95557,0.92285 -4.6582,0.92285 z m 0,-19.95117 q -1.09864,0 -2.10938,0.32959 -1.01074,0.30761 -1.80176,1.01074 -0.76904,0.68115 -1.27441,1.80176 -0.50537,1.1206 -0.59326,2.72461 l 10.98633,0 q -0.0439,-1.60401 -0.50538,-2.72461 -0.46142,-1.12061 -1.20849,-1.80176 -0.74707,-0.70313 -1.66992,-1.01074 -0.90088,-0.32959 -1.82373,-0.32959 z" />
      <path
         inkscape:connector-curvature="0"
         id="path4183"
         d="m 151.58453,159.99394 -4.15284,0 -3.82324,-13.35937 q -0.10986,-0.39551 -0.2417,-0.81299 -0.10986,-0.41748 -0.21972,-0.79102 -0.0879,-0.3955 -0.17579,-0.72509 -0.0659,-0.32959 -0.0879,-0.54932 -0.0439,0.21973 -0.10986,0.57129 -0.0439,0.32959 -0.13184,0.7251 -0.0879,0.3955 -0.19775,0.81298 -0.10986,0.41748 -0.21973,0.81299 l -3.77929,13.31543 -4.15283,0 -6.1084,-23.00537 4.59228,0 3.22998,14.32617 q 0.17578,0.74707 0.26367,1.31836 0.10987,0.54932 0.19776,1.01074 0.0659,-0.46142 0.17578,-1.05468 0.13184,-0.59326 0.30762,-1.27442 l 3.82324,-14.32617 4.32861,0 3.82324,14.32617 q 0.17579,0.68116 0.28565,1.27442 0.13184,0.59326 0.19775,1.05468 0.0659,-0.46142 0.17578,-1.01074 0.10987,-0.57129 0.28565,-1.31836 l 3.22998,-14.32617 4.59228,0 -6.10839,23.00537 z" />
      <path
         inkscape:connector-curvature="0"
         id="path4185"
         d="m 182.3023,159.99394 0,-12.32666 -11.05225,-19.18213 5.33936,0 8.06396,14.41407 8.06397,-14.41407 5.33935,0 -11.07421,19.13819 0,12.3706 -4.68018,0 z" />
      <path
         inkscape:connector-curvature="0"
         id="path4187"
         d="m 209.04302,160.54326 q -2.41699,0 -4.37256,-0.81299 -1.93359,-0.81299 -3.29589,-2.35107 -1.36231,-1.56006 -2.10938,-3.7793 -0.7251,-2.24121 -0.7251,-5.07568 0,-2.83448 0.7251,-5.07569 0.74707,-2.24121 2.10938,-3.77929 1.3623,-1.56006 3.29589,-2.37305 1.95557,-0.83496 4.37256,-0.83496 2.39502,0 4.35059,0.83496 1.95556,0.81299 3.31787,2.37305 1.3623,1.53808 2.10937,3.77929 0.74707,2.24121 0.74707,5.07569 0,2.83447 -0.74707,5.07568 -0.74707,2.21924 -2.10937,3.7793 -1.36231,1.53808 -3.31787,2.35107 -1.95557,0.81299 -4.35059,0.81299 z m 0,-4.41651 q 1.34033,0 2.41699,-0.52734 1.09864,-0.52734 1.84571,-1.49414 0.76904,-0.98877 1.16455,-2.39502 0.41748,-1.40625 0.41748,-3.18603 0,-1.77979 -0.41748,-3.18604 -0.39551,-1.42822 -1.16455,-2.41699 -0.74707,-0.98877 -1.84571,-1.51611 -1.07666,-0.52735 -2.41699,-0.52735 -1.34033,0 -2.41699,0.52735 -1.07666,0.52734 -1.8457,1.51611 -0.74707,0.98877 -1.16455,2.41699 -0.39551,1.40625 -0.39551,3.18604 0,1.77978 0.39551,3.18603 0.41748,1.40625 1.16455,2.39502 0.76904,0.9668 1.8457,1.49414 1.07666,0.52734 2.41699,0.52734 z" />
      <path
         inkscape:connector-curvature="0"
         id="path4189"
         d="m 225.17095,159.99394 0,-23.00537 4.68018,0 0,2.79053 q 0.81299,-1.75781 2.10937,-2.52686 1.29639,-0.79101 3.01026,-0.79101 2.28515,0 3.86718,1.38427 l -0.68115,4.32862 q -0.63721,-0.43946 -1.51611,-0.76904 -0.85694,-0.35157 -2.10938,-0.35157 -0.79101,0 -1.62597,0.28565 -0.81299,0.26367 -1.49414,0.96679 -0.68116,0.68116 -1.12061,1.84571 -0.43945,1.14258 -0.43945,2.92236 l 0,12.91992 -4.68018,0 z" />
      <path
         inkscape:connector-curvature="0"
         id="path4191"
         d="m 243.36431,159.99394 0,-30.27832 4.68018,-2.21924 0,16.61133 6.78955,-7.11914 5.75683,0 -6.30615,6.39404 8.63526,16.61133 -5.11963,0 -6.78955,-13.22754 -2.96631,2.96631 0,10.26123 -4.68018,0 z" />
      <path
         inkscape:connector-curvature="0"
         id="path4193"
         d="m 267.00689,149.0955 0,-4.04296 17.77588,0 0,4.04296 -17.77588,0 z" />
      <path
         inkscape:connector-curvature="0"
         id="path4195"
         d="m 291.13287,159.99394 0,-31.50879 4.68017,0 0,27.0044 15.40283,0 0,4.50439 -20.083,0 z" />
      <path
         inkscape:connector-curvature="0"
         id="path4197"
         d="m 334.28716,159.99394 -4.48242,0 0,-1.97754 q -0.43945,0.46143 -1.05469,0.92285 -0.61523,0.43946 -1.40625,0.81299 -0.76904,0.35157 -1.73584,0.57129 -0.96679,0.21973 -2.10937,0.21973 -1.75781,0 -3.25195,-0.4834 -1.49415,-0.4834 -2.59278,-1.4502 -1.09863,-0.98876 -1.73584,-2.41699 -0.61523,-1.45019 -0.61523,-3.36181 0,-1.97754 0.74707,-3.40577 0.74707,-1.45019 1.97754,-2.37304 1.23047,-0.94483 2.8125,-1.38428 1.604,-0.43945 3.2959,-0.43945 1.58203,0 3.03222,0.35156 1.47217,0.32959 2.63672,1.01074 l 0,-1.27441 q 0,-1.29639 -0.30762,-2.19727 -0.28564,-0.90088 -0.90088,-1.45019 -0.59326,-0.57129 -1.51611,-0.81299 -0.92285,-0.26367 -2.19726,-0.26367 -2.15332,0 -3.73536,0.57129 -1.56005,0.57128 -2.83447,1.51611 l -1.38428,-3.84522 q 0.70313,-0.48339 1.60401,-0.90087 0.90088,-0.43946 1.97754,-0.76905 1.07666,-0.32959 2.3291,-0.50537 1.25244,-0.19775 2.68066,-0.19775 0.9668,0 1.99951,0.10986 1.03272,0.10986 1.99952,0.43945 0.98877,0.30762 1.8457,0.90088 0.87891,0.59326 1.51611,1.56006 0.65918,0.94483 1.03272,2.3291 0.37353,1.38428 0.37353,3.2959 l 0,14.89746 z m -9.93164,-3.60351 q 1.77979,0 3.14209,-0.7251 1.38428,-0.7251 2.30713,-1.73584 l 0,-3.51563 q -0.9668,-0.50537 -2.26318,-0.81298 -1.29639,-0.30762 -2.65869,-0.30762 -1.05469,0 -1.97754,0.19775 -0.92285,0.19776 -1.62598,0.63721 -0.68115,0.41748 -1.07666,1.09863 -0.39551,0.65918 -0.39551,1.60401 0,1.64795 1.14258,2.61474 1.16455,0.94483 3.40576,0.94483 z" />
      <path
         inkscape:connector-curvature="0"
         id="path4199"
         d="m 353.93072,160.54326 q -2.43897,0 -4.39453,-0.63721 -1.95557,-0.63721 -3.49366,-1.75781 -1.51611,-1.12061 -2.63671,-2.65869 -1.09864,-1.56006 -1.82374,-3.36182 -0.70312,-1.80176 -1.05468,-3.80127 -0.32959,-2.02148 -0.32959,-4.08691 0,-1.91162 0.35156,-3.86719 0.37353,-1.95557 1.12061,-3.75732 0.74707,-1.82373 1.86767,-3.40577 1.12061,-1.58203 2.63672,-2.74658 1.53809,-1.16455 3.47168,-1.82373 1.93359,-0.68115 4.28467,-0.68115 2.26318,0 3.9331,0.50537 1.6919,0.4834 2.96631,1.31836 1.27442,0.83496 2.19727,1.91162 0.92285,1.07666 1.64795,2.24121 l -4.21875,2.43897 q -0.54932,-0.76905 -1.18653,-1.4502 -0.61523,-0.70312 -1.40625,-1.23047 -0.79101,-0.52734 -1.75781,-0.83496 -0.9668,-0.30762 -2.17529,-0.30762 -1.71387,0 -3.0542,0.50538 -1.31836,0.50537 -2.30713,1.38427 -0.9668,0.85694 -1.64795,2.02149 -0.68115,1.14258 -1.09863,2.43896 -0.39551,1.29639 -0.59326,2.68067 -0.17579,1.3623 -0.17579,2.65869 0,2.26318 0.50538,4.37256 0.50537,2.10937 1.58203,3.75732 1.07666,1.62598 2.74658,2.61475 1.69189,0.96679 4.04297,0.96679 1.47217,0 2.70263,-0.50537 1.23047,-0.52734 2.10938,-1.42822 0.87891,-0.90088 1.3623,-2.10938 0.4834,-1.20849 0.4834,-2.61474 l 0,-0.63721 -5.66894,0 0,-4.4165 10.48095,0 0,4.10888 q 0,2.96631 -0.8789,5.25147 -0.87891,2.26318 -2.43897,3.82324 -1.53808,1.53809 -3.62549,2.3291 -2.0874,0.79102 -4.52636,0.79102 z" />
      <path
         inkscape:connector-curvature="0"
         id="path4201"
         d="m 385.68121,159.99394 0,-2.19726 q -1.12061,1.42822 -2.59278,2.0874 -1.45019,0.65918 -3.36181,0.65918 -1.80176,0 -3.31788,-0.52735 -1.51611,-0.50537 -2.63671,-1.66992 -1.09864,-1.18652 -1.71387,-3.0542 -0.61524,-1.86767 -0.61524,-4.57031 l 0,-13.73291 4.68018,0 0,13.73291 q 0,1.4502 0.35156,2.48291 0.35157,1.01074 0.9668,1.66992 0.61523,0.65918 1.45019,0.9668 0.83497,0.28564 1.82374,0.28564 1.05468,0 1.95556,-0.26367 0.90088,-0.28564 1.56006,-0.90088 0.68115,-0.6372 1.05469,-1.64795 0.39551,-1.01074 0.39551,-2.50488 l 0,-13.8208 4.68017,0 0,23.00537 -4.68017,0 z" />
      <path
         inkscape:connector-curvature="0"
         id="path4203"
         d="m 414.70708,159.99394 -4.48242,0 0,-1.97754 q -0.43945,0.46143 -1.05468,0.92285 -0.61524,0.43946 -1.40625,0.81299 -0.76905,0.35157 -1.73584,0.57129 -0.9668,0.21973 -2.10938,0.21973 -1.75781,0 -3.25195,-0.4834 -1.49414,-0.4834 -2.59278,-1.4502 -1.09863,-0.98876 -1.73584,-2.41699 -0.61523,-1.45019 -0.61523,-3.36181 0,-1.97754 0.74707,-3.40577 0.74707,-1.45019 1.97754,-2.37304 1.23047,-0.94483 2.8125,-1.38428 1.604,-0.43945 3.2959,-0.43945 1.58203,0 3.03222,0.35156 1.47217,0.32959 2.63672,1.01074 l 0,-1.27441 q 0,-1.29639 -0.30761,-2.19727 -0.28565,-0.90088 -0.90088,-1.45019 -0.59327,-0.57129 -1.51612,-0.81299 -0.92285,-0.26367 -2.19726,-0.26367 -2.15332,0 -3.73535,0.57129 -1.56006,0.57128 -2.83448,1.51611 l -1.38427,-3.84522 q 0.70312,-0.48339 1.604,-0.90087 0.90088,-0.43946 1.97754,-0.76905 1.07666,-0.32959 2.3291,-0.50537 1.25244,-0.19775 2.68066,-0.19775 0.9668,0 1.99952,0.10986 1.03271,0.10986 1.99951,0.43945 0.98877,0.30762 1.8457,0.90088 0.87891,0.59326 1.51611,1.56006 0.65918,0.94483 1.03272,2.3291 0.37353,1.38428 0.37353,3.2959 l 0,14.89746 z m -9.93164,-3.60351 q 1.77979,0 3.14209,-0.7251 1.38428,-0.7251 2.30713,-1.73584 l 0,-3.51563 q -0.96679,-0.50537 -2.26318,-0.81298 -1.29639,-0.30762 -2.65869,-0.30762 -1.05469,0 -1.97754,0.19775 -0.92285,0.19776 -1.62598,0.63721 -0.68115,0.41748 -1.07666,1.09863 -0.39551,0.65918 -0.39551,1.60401 0,1.64795 1.14258,2.61474 1.16455,0.94483 3.40576,0.94483 z" />
      <path
         inkscape:connector-curvature="0"
         id="path4205"
         d="m 421.07915,159.99394 0,-23.00537 4.68018,0 0,2.79053 q 0.81299,-1.75781 2.10938,-2.52686 1.29638,-0.79101 3.01025,-0.79101 2.28516,0 3.86719,1.38427 l -0.68116,4.32862 q -0.6372,-0.43946 -1.51611,-0.76904 -0.85693,-0.35157 -2.10937,-0.35157 -0.79102,0 -1.62598,0.28565 -0.81299,0.26367 -1.49414,0.96679 -0.68115,0.68116 -1.12061,1.84571 -0.43945,1.14258 -0.43945,2.92236 l 0,12.91992 -4.68018,0 z" />
      <path
         inkscape:connector-curvature="0"
         id="path4207"
         d="m 447.68804,160.54326 q -2.17529,0 -3.95508,-0.81299 -1.75781,-0.83496 -3.01025,-2.37305 -1.25244,-1.56006 -1.93359,-3.80127 -0.65918,-2.24121 -0.65918,-5.07568 0,-2.83447 0.70312,-5.05371 0.70313,-2.24121 1.95557,-3.7793 1.27441,-1.56006 3.03222,-2.37304 1.75782,-0.81299 3.86719,-0.81299 1.88965,0 3.20801,0.61523 1.34033,0.61524 2.21924,1.53809 l 0,-8.94287 4.68017,-2.1753 0,32.49756 -4.68017,0 0,-1.62597 q -0.92285,1.03271 -2.21924,1.604 -1.27441,0.57129 -3.20801,0.57129 z m 0.65918,-4.41651 q 1.58203,0 2.79053,-0.68115 1.20849,-0.68115 1.97754,-1.93359 l 0,-10.1294 q -0.26367,-0.43945 -0.70313,-0.8789 -0.43945,-0.43946 -1.05468,-0.79102 -0.59327,-0.37353 -1.36231,-0.59326 -0.74707,-0.2417 -1.64795,-0.2417 -2.63672,0 -4.08691,1.95557 -1.4502,1.93359 -1.4502,5.64697 0,1.66992 0.37354,3.07617 0.3955,1.38428 1.09863,2.41699 0.7251,1.01075 1.73584,1.58204 1.03271,0.57128 2.3291,0.57128 z" />
      <path
         inkscape:connector-curvature="0"
         id="path4209"
         d="m 464.62896,159.99394 0,-23.00537 4.68018,0 0,23.00537 -4.68018,0 z m 2.3291,-26.58691 q -0.59326,0 -1.1206,-0.21973 -0.50538,-0.21972 -0.90088,-0.59326 -0.37354,-0.39551 -0.59326,-0.90088 -0.21973,-0.52734 -0.21973,-1.1206 0,-0.59327 0.21973,-1.09864 0.21972,-0.52734 0.59326,-0.90088 0.3955,-0.3955 0.90088,-0.61523 0.52734,-0.21973 1.1206,-0.21973 0.59326,0 1.09863,0.21973 0.52735,0.21973 0.90088,0.61523 0.39551,0.37354 0.61524,0.90088 0.21972,0.50537 0.21972,1.09864 0,0.59326 -0.21972,1.1206 -0.21973,0.50537 -0.61524,0.90088 -0.37353,0.37354 -0.90088,0.59326 -0.50537,0.21973 -1.09863,0.21973 z" />
      <path
         inkscape:connector-curvature="0"
         id="path4211"
         d="m 493.72076,159.99394 -4.48243,0 0,-1.97754 q -0.43945,0.46143 -1.05468,0.92285 -0.61524,0.43946 -1.40625,0.81299 -0.76905,0.35157 -1.73584,0.57129 -0.9668,0.21973 -2.10938,0.21973 -1.75781,0 -3.25195,-0.4834 -1.49414,-0.4834 -2.59277,-1.4502 -1.09864,-0.98876 -1.73584,-2.41699 -0.61524,-1.45019 -0.61524,-3.36181 0,-1.97754 0.74707,-3.40577 0.74707,-1.45019 1.97754,-2.37304 1.23047,-0.94483 2.8125,-1.38428 1.604,-0.43945 3.2959,-0.43945 1.58203,0 3.03223,0.35156 1.47216,0.32959 2.63671,1.01074 l 0,-1.27441 q 0,-1.29639 -0.30761,-2.19727 -0.28565,-0.90088 -0.90088,-1.45019 -0.59326,-0.57129 -1.51611,-0.81299 -0.92286,-0.26367 -2.19727,-0.26367 -2.15332,0 -3.73535,0.57129 -1.56006,0.57128 -2.83447,1.51611 l -1.38428,-3.84522 q 0.70312,-0.48339 1.604,-0.90087 0.90088,-0.43946 1.97754,-0.76905 1.07666,-0.32959 2.3291,-0.50537 1.25244,-0.19775 2.68067,-0.19775 0.96679,0 1.99951,0.10986 1.03271,0.10986 1.99951,0.43945 0.98877,0.30762 1.8457,0.90088 0.87891,0.59326 1.51612,1.56006 0.65918,0.94483 1.03271,2.3291 0.37354,1.38428 0.37354,3.2959 l 0,14.89746 z m -9.93164,-3.60351 q 1.77978,0 3.14209,-0.7251 1.38427,-0.7251 2.30712,-1.73584 l 0,-3.51563 q -0.96679,-0.50537 -2.26318,-0.81298 -1.29639,-0.30762 -2.65869,-0.30762 -1.05469,0 -1.97754,0.19775 -0.92285,0.19776 -1.62598,0.63721 -0.68115,0.41748 -1.07666,1.09863 -0.3955,0.65918 -0.3955,1.60401 0,1.64795 1.14257,2.61474 1.16455,0.94483 3.40577,0.94483 z" />
    </g>
  </g>
</svg>
