<?xml version="1.0" encoding="UTF-8" standalone="no"?>
<!-- Created with Inkscape (http://www.inkscape.org/) -->

<svg
   xmlns:dc="http://purl.org/dc/elements/1.1/"
   xmlns:cc="http://creativecommons.org/ns#"
   xmlns:rdf="http://www.w3.org/1999/02/22-rdf-syntax-ns#"
   xmlns:svg="http://www.w3.org/2000/svg"
   xmlns="http://www.w3.org/2000/svg"
   xmlns:sodipodi="http://sodipodi.sourceforge.net/DTD/sodipodi-0.dtd"
   xmlns:inkscape="http://www.inkscape.org/namespaces/inkscape"
   width="3294.179"
   height="1949.403"
   viewBox="0 0 3294.179 1949.403"
   id="svg2"
   version="1.1"
   inkscape:version="0.92.4 (5da689c313, 2019-01-14)"
   sodipodi:docname="LHR.svg"
   inkscape:export-filename="C:\Users\Paul Bogard\Dropbox\Documents\Projects\Terminal Silhouettes\Silhouettes\png\LHR.png"
   inkscape:export-xdpi="90"
   inkscape:export-ydpi="90">
  <defs
     id="defs4" />
  <sodipodi:namedview
     id="base"
     pagecolor="#ffffff"
     bordercolor="#666666"
     borderopacity="1.0"
     inkscape:pageopacity="1"
     inkscape:pageshadow="2"
     inkscape:zoom="0.25"
     inkscape:cx="80.7947"
     inkscape:cy="1213.6826"
     inkscape:document-units="px"
     inkscape:current-layer="layer1"
     showgrid="false"
     units="px"
     fit-margin-top="25"
     fit-margin-left="25"
     fit-margin-right="25"
     fit-margin-bottom="25"
     inkscape:window-width="1920"
     inkscape:window-height="1137"
     inkscape:window-x="1912"
     inkscape:window-y="-8"
     inkscape:window-maximized="1" />
  <metadata
     id="metadata7">
    <rdf:RDF>
      <cc:Work
         rdf:about="">
        <dc:format>image/svg+xml</dc:format>
        <dc:type
           rdf:resource="http://purl.org/dc/dcmitype/StillImage" />
        <dc:title />
      </cc:Work>
    </rdf:RDF>
  </metadata>
  <g
     inkscape:groupmode="layer"
     id="layer2"
     inkscape:label="Terminals"
     style="display:inline"
     transform="translate(-412.45051,-117.65923)">
    <path
       id="path4136"
       style="fill:#dddddd;fill-rule:evenodd;stroke:#222222;stroke-width:1.5;stroke-linecap:butt;stroke-linejoin:miter;stroke-opacity:1;fill-opacity:1;stroke-miterlimit:4;stroke-dasharray:none"
       d="m 3088.6482,2031.6642 113.5652,-124.1499 -12.5693,-10.3642 4.1898,-4.6308 -1.7641,-21.831 22.0515,-1.3231 3.5282,-3.7488 14.113,12.5694 5.5128,-6.3949 -10.5416,-8.2178 17.4639,-19.491 -9.9794,-9.0438 -0.1559,-11.8504 14.969,-16.5284 10.1354,0 5.4574,-6.0812 -0.7796,-10.9149 20.7384,-23.5451 -1.5593,-1.4033 16.3724,-17.7758 2.0271,1.8712 11.2267,-0.6238 8.732,8.5761 29.4703,-31.6534 6.8609,6.0812 128.0165,-141.7382 20.7384,-46.1546 14.0335,13.5657 -45.219,105.719 -6.0812,-3.7423 -5.4575,-4.8337 -33.9922,36.487 10.4471,8.8879 13.5657,-14.3454 2.8068,2.8067 2.027,-6.8608 3.8982,2.0271 -2.8067,7.4845 1.8712,1.7152 -18.7114,43.036 -18.0875,-16.996 7.4844,-9.1998 -10.759,-8.8878 -36.1752,39.7615 9.9794,9.0438 -7.6405,8.2641 10.7591,9.8235 7.0167,-8.4201 2.8067,1.8711 21.0502,-24.7925 9.8235,9.8235 -13.2915,29.8899 4.741,4.3001 -6.2846,6.2846 24.1907,22.832 -124.4303,140.023 -22.4535,-16.5283 -18.7113,22.1417 -22.4536,-20.5825 14.3453,-15.9046 -6.549,-4.9897 7.7965,-8.1081 -10.2913,-9.3557 -27.4433,33.6803 -10.603,-9.0437 -58.0051,63.9303 13.0979,11.5386 -72.3505,38.0464 -7.4844,7.7963 z m 93.8016,-1888.44046 -27.1303,18.24245 2.6496,3.74358 -3.7417,2.49458 10.9154,15.59282 -7.0168,4.8341 1.5591,2.64963 -14.5023,9.51143 -14.0321,-22.4529 -8.7326,5.92461 3.4299,4.21046 -5.3009,3.74187 2.6513,3.43004 -2.4963,1.87265 -2.3377,-3.27499 -20.582,14.50058 -9.9801,-14.50058 -35.7079,24.01202 -6.8601,-10.13508 -21.5191,14.96918 c 0,0 -5.7678,-6.54884 -14.6557,-9.19961 0,0 -9.0451,-2.96165 -12.6314,-1.09052 l -8.1073,-11.22731 c 0,0 -2.0273,-2.96317 -5.4578,-2.96317 l -13.2533,0.31182 -0.1567,-2.18275 -337.5826,2.0277 0.3118,11.22559 -5.7696,4.05541 1.871,2.64963 -7.6405,5.61451 -3.275,-4.8341 -10.7588,7.79556 10.447,15.90464 24.7924,-18.8661 -6.7051,-9.35638 -3.7419,2.49458 -0.9354,-1.09052 9.8232,-6.70503 57.3822,-0.15677 0,27.7556 26.1948,-0.15678 -0.4669,-27.91065 51.7676,-0.62364 0,4.36551 17.4637,0 c 0,0 7e-4,1.55979 1.4041,3.27499 l 8.7311,12.94148 -5.9247,4.05541 -14.6573,-19.17964 -2.0277,1.40406 -13.0983,-0.31183 -37.8889,25.88296 3.8968,5.61451 -4.5205,3.58509 21.5175,30.87383 -3.7419,2.8064 9.3547,14.19048 3.8986,-2.65135 7.3287,10.60367 -4.0537,2.96144 14.1887,21.51917 4.0537,-2.8064 26.9769,37.88896 29.7816,-21.20562 1.871,2.49458 6.0813,-4.05369 -1.8709,-2.65135 18.3992,-12.62965 -15.2809,-23.38837 5.4577,-3.27499 -6.2382,-8.88779 -5.1442,3.74186 -5.3027,-7.79555 -1.7141,1.55911 -6.55,-8.73274 7.0168,-4.98915 5.7696,8.57597 1.2473,-0.93547 c 0,0 3.6075,6.26228 12.4281,6.04177 l 43.1795,-0.39624 c 1.7134,9.52226 10.7658,15.86738 20.2599,14.20082 9.4942,-1.66651 15.8641,-10.71877 14.2576,-20.25981 l 63.7754,-31.084 18.0874,26.35154 c 0,0 -16.0607,13.87704 -6.705,29.15794 0,0 8.2653,13.56546 21.831,10.4469 l -20.272,13.56684 -2.3377,-3.27499 -16.2165,10.29184 5.4578,8.10737 -1.7159,1.24729 122.403,178.69295 -7.4837,4.99088 4.2087,5.92462 -7.0169,4.52227 -7.4836,0 1.559,76.24823 -19.3347,0.15678 -0.1567,9.04284 -38.5126,0.15677 0.9354,188.04761 4.0107,-0.21018 c 0,0 15.6565,3.08721 33.7388,3.08721 l 1.9846,0.22052 -0.441,11.02575 -30.2106,0.22051 0,13.89245 -4.4103,0 0,20.06686 15.2156,-0.22051 -0.4411,-19.84635 -4.4103,0 0.2205,-9.26163 24.2567,-0.22052 0,2.64618 10.1437,0 0,-2.20515 6.6154,-0.22051 0,2.20515 1.9847,0 0,7.05648 -4.8514,0 0.2205,18.96429 14.7746,0.22051 -0.8821,-19.1848 -4.1898,0 -0.2205,-6.61545 3.9693,0 -0.4411,-18.96429 c 0,0 16.7592,0 33.9593,-3.52824 0,0 16.3182,2.86669 35.2824,3.08721 0,0 10.1437,-0.22052 13.2309,-1.10258 l -0.064,19.84635 0.6478,0 0.026,11.97156 11.739,-0.28426 -0.2068,-11.67352 0.6203,-0.0775 -0.193,-19.7826 7.0565,0 0,7.93854 6.6154,0 -0.2205,-7.71802 14.995,0.22051 c 0,0 13.4514,2.20515 30.2106,1.10258 l 0.2205,20.06686 37.0465,0 17.4207,17.42069 -0.2205,39.25167 11.9078,11.68729 15.2155,-0.44103 -0.2205,-4.18978 -13.2309,0.44103 -9.7026,-8.8206 0,-26.4618 24.9182,0 -0.6616,-12.12833 -22.272,0.22052 0.2205,-2.64618 -20.2874,-19.18481 -27.5643,0 0.2205,-15.21553 c 0,0 12.5693,0.22051 27.1233,-3.08721 l 10.1437,-2.20515 -0.2205,-13.01039 21.6105,0 -0.4411,-10.58472 -21.3899,0.44103 c -0.2205,-1.76412 -0.2205,-81.14952 -0.2205,-81.14952 l 20.5079,0.22052 0,-9.48215 -9.7027,-0.22051 0,-32.19519 26.4618,0 0,-2.8667 -29.99,0 0.441,35.06189 -7.718,-0.22052 -0.6616,-39.47218 5.9539,0.22051 0.2205,2.64618 35.2824,-0.22051 -0.2205,-11.24627 -4.8513,0 -0.2205,-7.27699 5.2923,0 -0.2205,-20.28738 -23.8156,0.44103 -0.2205,4.4103 -10.8052,0.44103 0,14.33347 -6.836,0 0,-16.53862 -9.2616,0.22051 0,-1.5436 -1.9847,0 0,-7.277 -1.9846,0 -0.2205,-34.17982 32.1952,-0.44103 0,4.85133 -9.2617,0 0.2205,4.85133 5.2924,0 0,1.5436 2.2052,2.64618 3.7487,0 -0.441,-5.73339 7.0565,-0.44103 22.9335,19.62584 24.2567,-27.12335 18.5232,0 0,7.277 -2.8667,0 0.2206,13.2309 50.4979,0 -0.2205,-12.78987 -5.9539,-6.39494 14.554,0.22052 -5.2924,6.39493 7.277,6.17442 -3.7488,4.85133 6.6155,5.73339 5.0718,-5.51287 9.2617,8.60008 5.0718,-6.17442 4.1898,4.18979 104.7446,-115.99089 -6.3949,-5.29236 -0.2205,-3.30773 8.8206,-9.26163 -6.9463,-6.06416 -1.5436,1.76412 -2.7564,-2.53592 30.4311,-32.85674 0,14.99502 -11.2463,0 0,1.54361 -1.3231,0 -0.441,79.16488 -15.4361,0 0.2206,6.39494 7.0564,0 0,1.76412 7.9386,0 0.2205,91.29321 -15.6566,0.22051 0,7.71803 9.7027,-0.22052 -0.2205,1.76412 18.9643,0 0,80.04695 -28.8875,0.22051 0,6.39494 6.836,-0.22052 -0.2206,2.64618 20.949,0 0.441,66.1545 37.9286,0 -1.1026,-82.03158 2.4257,0 0,-7.93854 27.3438,0.66155 -0.2205,-6.17442 -6.836,-0.22052 0.2206,-2.20515 -20.5079,-0.22051 0,-4.63082 -2.6462,0 0.2205,-68.80068 24.4772,0.22052 -0.2205,-8.37957 3.7487,0 0,-5.51288 -5.7334,0 0.2205,-1.98463 -22.713,0 0,-84.45725 26.0208,0.88206 0,-7.93854 3.7487,0 -0.441,-5.9539 -5.5129,0 0,-2.20515 -22.9336,-0.44103 -0.2205,-73.4315 2.6462,0 -0.2205,-7.05648 26.0208,0 -0.4411,-5.9539 -25.5797,0 -0.2205,-5.95391 -2.4257,0 -0.441,-69.24171 2.4257,0 -0.2206,-8.15905 26.0208,0 0,-6.39494 -25.8002,0.22052 -0.2206,-6.39494 -2.6461,0 -0.6616,-52.9236 -35.5029,0.22052 0,73.65201 -1.1026,0 0.2205,6.61545 -26.6823,0.22051 0.2205,7.05648 3.9693,0 0.2205,2.64618 22.272,-0.22051 0.2206,5.07184 1.323,0 0.4411,53.58515 -4.6308,-0.44103 0,8.8206 -51.1595,55.34926 8.8206,7.49751 -5.9539,6.17442 -17.4207,-14.7745 c 0,0 -1.9113,-1.93656 -3.3146,-0.37728 0,0 -2.1051,2.02707 0,3.97615 l 16.9176,14.34554 -39.9959,44.90753 -17.1519,-14.96917 c 0,0 -1.8717,-1.55934 -3.5869,0.62364 0,0 -1.988,1.88127 0.3825,3.92103 l 16.4577,14.01132 -3.7419,4.83409 -6.3932,-5.45774 -21.2056,24.01202 -3.1182,-2.68925 -2.0277,2.41705 -1.7142,-1.28691 -1.6763,2.14485 2.6118,2.22066 -0.04,1.44368 -85.0981,-1.44368 32.5897,-36.95349 -10.2918,-9.19962 -2.9615,-3.43176 -35.5529,23.70192 -16.6833,-1.09224 20.1151,-14.03372 -4.5223,-8.26414 -56.7585,27.91237 11.2273,14.96919 -5.1458,3.74186 -61.7478,-0.31182 c 0,0 0.3125,-4.05465 -4.6773,-11.22732 l -39.9183,-57.69224 5.4578,-4.0554 3.4317,5.14592 3.1182,-2.65135 -5.3027,-7.01686 7.3287,-4.67732 2.9632,4.05368 7.7972,-5.1442 -2.3395,-2.96316 3.8986,-2.49458 -2.9632,-4.21047 8.4193,-5.76956 2.3395,3.11822 14.9692,-9.9783 2.3394,3.43004 4.8325,-3.43004 -2.4946,-4.05369 3.4318,-2.33952 -3.8987,-5.76958 -5.6145,3.58682 1.0923,2.02598 -1.871,1.24729 -4.3655,-6.54826 31.9644,-21.20562 5.6127,8.10737 9.825,-6.70503 -1.249,-1.71416 -4.2087,2.96145 -4.3673,-6.39322 32.7448,-22.76472 5.9263,8.57596 9.5114,-6.39321 -6.3931,-7.95233 62.0594,-41.47576 -11.2273,-16.52829 4.0537,-2.96317 -15.4361,-21.05057 -6.2364,4.05368 4.8324,7.17363 -36.1748,24.48061 6.2381,8.26415 -7.9523,5.76957 -10.9155,-15.59283 -6.8618,4.83411 4.9909,7.48373 -20.1151,12.94147 -9.3564,-13.41007 -1.2472,1.09224 -1.4024,-2.18275 -4.6791,3.58681 10.4486,15.43605 -17.9323,12.31783 -5.4578,-7.48373 -5.7695,4.21046 4.9908,7.32867 -21.0505,14.50059 -3.5868,-3.58681 -10.9155,-8.26415 -22.2961,-32.27616 -38.3593,2.02599 -1.4024,1.24728 -2.9631,-4.05368 15.9046,-10.75873 5.9246,0.31183 0.4686,-7.48373 -14.9692,-0.93546 -0.3118,3.8969 -3.43,2.33954 -36.9552,-54.88584 -8.1091,5.61279 -18.2424,-26.66337 -1.871,1.40235 -3.275,-4.36551 -9.5114,-1.09224 -2.6514,-4.20874 83.4219,-56.44667 -9.6682,-14.18876 8.8877,-6.08139 15.2811,21.51744 3.2749,-2.33781 -10.2918,-14.5023 -1.4024,1.09224 -4.679,-6.86181 22.4547,-14.50058 7.7955,11.53913 7.7973,-5.45774 0.9355,0.93546 4.2104,-3.27499 -3.8986,-5.6128 4.3655,-3.27499 -4.5223,-5.61279 19.1796,-13.56685 4.9892,0.15678 6.2381,-5.14593 3.1183,-0.15505 9.6664,12.31783 7.3287,-5.14592 2.3396,0 1.8709,-1.40234 -5.7695,-7.95232 -6.5484,4.20873 2.6514,3.43177 -1.7159,1.55911 -7.9523,-10.60367 -31.4974,-0.15677 -2.3396,-2.96145 -42.568,0 z m -6.2571,25.19901 4.4103,6.7257 -2.977,2.0949 -4.5205,-6.72571 3.0872,-2.09489 z m -206.6226,34.29008 11.7976,0.33077 c 2.9769,0.22052 4.741,2.8667 4.741,2.8667 l 5.7972,9.03939 c -1.7152,2.02706 -2.4946,11.85095 -2.4946,11.85095 -0.4678,9.19973 2.0277,15.43605 2.0277,15.43605 l -62.709,31.04439 c -4.1731,-5.94208 -11.5574,-8.69412 -18.5818,-6.92556 -7.0244,1.76858 -12.2412,7.69296 -13.1275,14.90889 l -45.4261,0.6133 c -3.9693,-0.11025 -5.4026,-2.86669 -5.4026,-2.86669 l 3.5093,-2.46874 -45.688,-69.31062 -3.2733,2.33953 c -1.1694,-1.9491 -0.7804,-3.27499 -0.7804,-3.27499 l 169.6105,-0.60642 0,-2.97695 z m 609.6137,270.13087 2.6462,2.64618 -7.277,8.0488 -2.8667,-2.64618 7.4975,-8.0488 z m -439.3761,57.3339 16.7591,24.47717 12.7899,-8.15906 11.2463,15.87708 1.9846,-1.32309 11.2463,16.0976 10.1437,-7.93854 16.3181,24.25665 c 0,0 12.7898,13.67193 31.3131,3.08721 0,0 8.1591,-2.8667 11.4668,-17.20017 l 28.4464,0.22051 -10.8052,15.65657 -9.9232,0 0.2205,19.40532 -163.4016,0.88206 -1.9846,-67.69811 3.0872,0 15.6566,-11.46678 2.2051,3.08721 13.2309,-9.26163 z m -1066.0022,-299.1665 -1.4041,2.02599 12.3178,10.75872 -0.155,10.91549 -5.1459,0.15678 0,9.35466 5.7695,0.15676 0,-4.8341 16.3715,0.31183 0,32.27615 -18.3991,-0.31182 0,0.93719 -11.6943,-0.15677 -0.3118,5.76957 10.7587,0 -0.155,18.39921 64.8659,0.78042 -0.4687,-27.60055 64.2423,4.21046 14.3455,23.07827 31.3407,0.31182 13.0983,19.48974 -16.5283,10.60367 4.8341,7.48373 7.7955,-5.1442 25.4161,37.88895 1.7158,-1.40234 7.4856,10.29013 -5.6146,3.89863 2.3396,3.89864 -3.8987,2.18275 3.8987,6.54827 8.4191,-5.1442 23.0783,35.08256 9.6664,-6.54827 11.2274,14.50058 -25.4161,17.46376 10.9155,15.43777 3.7419,-2.65134 1.8709,2.49457 3.5868,-2.96144 -1.7158,-2.02771 17.7755,-12.00601 11.5392,16.52829 -9.9801,6.86009 6.8618,11.07054 2.1828,-1.09052 7.0169,10.60367 -5.6146,4.52056 1.8727,3.275 -10.7604,7.32867 11.0722,16.52829 4.0537,-2.96317 2.0277,2.49457 4.5205,-3.43004 -1.4023,-2.3378 16.8401,-10.60368 16.2165,22.92151 -10.6037,7.6405 2.4946,3.58682 1.7159,-1.2473 7.1719,10.60196 -5.301,3.74185 2.3396,3.275 -11.696,7.95232 21.5192,31.80929 -16.3732,11.07054 -22.1411,-34.14709 -29.003,20.27015 4.0538,5.6128 -3.4301,2.8064 4.3655,6.70503 2.9632,-2.49457 16.0614,22.29785 -3.7436,2.65135 4.2105,6.08139 3.7418,-2.96317 7.9524,12.4746 28.3792,-19.64823 -5.4577,-8.10737 25.7279,-16.84012 7.6405,10.9155 -10.602,7.79555 3.43,4.67733 6.2365,-4.20874 1.0922,1.55911 -55.6662,39.13797 18.3992,27.13024 1.2473,-0.77869 1.2473,1.55911 -155.7715,105.25111 -35.0756,-53.52657 9.0411,-5.73339 -29.549,-40.57476 -8.6001,5.73339 -14.995,-21.61047 9.4821,-5.73339 -28.0054,-40.79527 -9.2616,5.73339 -14.7745,-22.49253 7.277,-4.63082 -27.7849,-41.01579 -14.995,10.14369 7.2769,10.58472 -9.3942,6.04522 27.256,40.26293 10.1437,-6.17442 14.5539,22.49253 -9.0411,6.17442 26.6823,40.79528 11.0258,-6.61545 15.2155,21.83098 -10.3642,6.83597 29.7695,41.01579 9.4822,-6.17442 14.3335,20.72841 -10.5848,7.05648 28.4465,41.67733 9.2616,-6.39493 14.3335,21.83098 -8.3796,6.17442 19.8464,29.10798 -0.6616,0.44103 -4.5205,-6.50519 -6.5052,4.74107 9.0411,12.56936 6.2847,-4.85133 -2.4257,-3.41798 0.7718,-0.44103 4.5206,6.39493 -4.0434,3.19919 2.5721,3.35251 4.3655,-3.43004 -0.8562,-1.09223 9.0428,-6.62579 3.8987,5.76784 5.301,-3.81938 1.3247,2.10523 9.9026,-7.25116 -17.3087,-26.50831 4.679,-3.74187 -2.9631,-3.89863 -15.126,10.91549 -33.6803,-52.23621 106.1867,-71.10231 0.7804,1.09224 -4.0537,2.8064 9.9783,14.50059 39.9184,-26.82014 1.5591,2.0277 4.5223,-2.8064 7.0168,9.66821 65.1777,-43.19338 0.9355,1.40406 -6.2382,4.36551 2.3395,3.58681 1.4041,-1.09224 15.9047,24.32557 22.4529,15.59282 -6.0815,3.89863 12.6297,17.46376 1.871,-1.55911 3.275,4.83238 4.6773,-3.43004 -0.8183,-1.16977 5.4973,-3.97616 7.1409,11.12395 -1.1026,0.7718 0.1103,11.02575 -13.6719,0.22052 0,-3.08721 -12.1284,0.11026 0.1103,46.63892 8.9309,0.11026 0,-23.92588 80.5982,-0.22052 -0.1103,22.93356 8.2693,0 0.2206,-23.26433 80.8187,0.11026 -0.1103,22.27201 8.9309,0.11026 0,-22.38227 80.3777,-0.55129 -0.2205,23.48485 9.2616,0.22051 -0.3307,-46.30815 -12.0181,0.11026 0,2.64618 -35.8337,-0.22051 0.1103,-7.82829 -10.8053,-0.11025 0.2205,8.04879 -29.2182,-0.11025 0,-2.42567 -11.7975,0.11026 0.1102,2.53592 -35.6132,-0.11026 -0.1102,-5.07184 -6.6155,0 -0.1102,5.29236 -34.8414,0 -0.1102,-2.20515 -12.3489,0 0,1.87438 -19.0745,0.33077 0,-1.10258 21.5002,-15.43605 -15.4361,-23.26433 32.1952,-21.38995 -3.9693,-5.29236 10.254,-6.83597 3.1975,4.30004 -0.5513,0.33078 0.441,37.70806 37.7081,-0.44103 -0.2205,-56.34158 -15.6566,8.0488 -4.9616,-7.38726 1.1026,-0.7718 0.5513,0.7718 71.6673,-49.06458 -25.1387,-37.3773 -72.1084,49.17485 -75.6366,-109.37544 5.2923,-3.30773 -4.1897,-5.73339 17.6412,-11.24626 -4.1898,-5.73339 54.9082,-35.50292 -0.8821,-1.32309 15.4361,-10.3642 -10.1437,-16.31811 82.6931,-57.11339 -8.6001,-13.2309 -59.098,39.25167 -36.385,-53.80566 -20.9282,14.33865 -3.4318,0.15505 -5.456,-7.01686 -3.5868,-0.46687 -12.4746,-16.99689 2.6513,-1.5591 -6.705,-10.13508 61.5909,-42.72478 -1.5161,-31.6284 -5.6231,-7.27699 -26.2413,1.43334 -0.3308,-4.4103 -13.4514,0.66155 0.1103,4.4103 -36.4952,1.87438 -7.8283,10.14369 -10.5847,22.27201 14.2232,27.34386 -3.3078,1.98464 3.3078,5.73339 2.9769,-2.0949 2.7565,4.30005 -56.8929,39.36192 -1.5436,-1.87437 2.9769,-2.31541 -2.6461,-3.85901 -11.4668,8.04879 -2.8667,-4.07952 -5.1821,3.85901 0.882,13.34116 -70.7818,49.20757 12.4746,18.86781 -4.5223,3.43005 -1.7159,-2.18275 -5.9246,4.52228 19.0228,27.91065 6.5484,-4.36551 -1.0906,-1.71588 3.7419,-2.64963 -0.6237,-1.09223 12.9415,-8.4192 4.2105,6.54827 -16.6834,27.13195 9.6665,13.87694 -7.6405,13.41007 -56.7568,-83.5769 9.3547,-5.76957 -4.9892,-7.95233 78.5878,-51.92439 -37.5789,-17.77558 -49.4298,33.68023 -8.5759,-4.67734 -8.576,5.6128 -7.3287,-10.91549 5.3027,-3.27327 -2.3395,-3.11822 3.5868,-2.33952 -3.8986,-5.30098 -7.6405,4.36551 -26.3516,-38.35927 -1.7158,1.09223 -6.7034,-10.13508 6.0797,-4.05368 -2.8064,-3.89864 3.1182,-2.18275 -3.7418,-5.14592 -7.4838,4.8341 -12.4746,-18.39922 -1.4041,1.09051 -4.9891,-7.48373 5.4578,-4.21045 -2.3396,-3.11822 -5.6127,4.05368 -3.7419,-5.76956 2.8064,-1.55911 -16.0615,-23.23333 -17.6188,0 -21.3623,-32.43293 -7.6405,5.45774 18.556,27.28701 -29.6266,0 -60.1886,-4.67732 0,-25.26104 -56.7567,-0.77869 0.3119,-13.41006 -9.6683,-8.42092 -1.5591,1.87093 z m 414.7663,166.53018 1.5591,1.94845 -5.7695,3.97616 -1.6367,-2.1035 z m -127.7333,32.302 19.8463,8.26931 -9.4821,6.83597 z m 300.3448,283.60813 0.3118,7.17191 -7.7955,4.67733 -3.43,-4.67733 z m -137.2154,19.6465 2.9632,0.46688 8.4191,14.34553 -1.2473,0.93547 4.3656,6.23817 -1.4024,1.09051 -23.5451,-15.90465 z m -1164.6238,21.04993 -48.1816,0 -3.1186,-358.94545 13.7217,0 -0.1559,-2.33891 29.1584,0 -0.156,2.49484 7.0168,-0.15593 0.4678,92.93288 -8.4201,-0.15592 0.1559,168.71372 9.3557,0 z m -418.66571,-321.05503 2.18299,302.18779 9.0438,0 0.46778,67.82853 43.19197,0 -0.31187,-67.6726 1.87114,0 c -0.96762,-123.08327 -1.64311,-246.16569 -3.58634,-369.23668 l -44.75123,0.15593 0.31185,66.73703 z m -500.99554,-122.55913 169.80521,-0.31186 0.10378,5.72546 1.34984,0 1.92951,383.15522 -1.08366,0 0.0551,5.4568 -170.477,0.0457 0,-5.29236 -2.64618,0 -0.82693,-382.37301 1.81925,0.0551 z"
       inkscape:connector-curvature="0" />
  </g>
  <g
     inkscape:groupmode="layer"
     id="layer1"
     inkscape:label="Label">
    <g
       id="g4150"
       transform="translate(-83.095842,458.92491)">
      <g
         style="font-style:normal;font-variant:normal;font-weight:bold;font-stretch:normal;font-size:125px;line-height:110.00000238%;font-family:Overpass;-inkscape-font-specification:'Overpass, Bold';text-align:center;letter-spacing:0px;word-spacing:0px;writing-mode:lr-tb;text-anchor:middle;fill:#dddddd;fill-opacity:1;stroke:#222222;stroke-width:0.25;stroke-linecap:butt;stroke-linejoin:miter;stroke-miterlimit:4;stroke-dasharray:none;stroke-opacity:1"
         id="text4140">
        <path
           d="m 107.91118,1417.7094 0,-87.5245 16.90674,0 0,71.2891 42.23632,0 0,16.2354 -59.14306,0 z"
           style=""
           id="path4157" />
        <path
           d="m 233.70464,1417.7094 0,-36.9874 -36.6211,0 0,36.9874 -16.90674,0 0,-87.5245 16.90674,0 0,34.5459 36.6211,0 0,-34.5459 16.8457,0 0,87.5245 -16.8457,0 z"
           style=""
           id="path4159" />
        <path
           d="m 273.19438,1417.7094 0,-87.5245 40.64942,0 q 8.30078,0 13.85498,2.3194 5.61523,2.2583 9.0332,6.0425 3.41797,3.7841 4.88281,8.728 1.46485,4.9438 1.46485,10.3149 0,3.7232 -1.09864,7.5684 -1.03759,3.7842 -3.17383,7.2021 -2.13623,3.418 -5.31005,6.2256 -3.17383,2.7466 -7.38526,4.2725 l 16.96778,34.8511 -18.98194,0 -16.35742,-32.6539 -17.63916,0 0,32.6539 -16.90674,0 z m 40.89356,-48.6451 q 3.23486,0 5.43213,-0.9155 2.19726,-0.9766 3.54003,-2.5635 1.34278,-1.5869 1.89209,-3.6621 0.61036,-2.0752 0.61036,-4.3335 0,-2.0752 -0.54932,-4.0893 -0.48828,-2.0752 -1.77002,-3.6621 -1.28174,-1.648 -3.54004,-2.6246 -2.19726,-0.9765 -5.61523,-0.9765 l -23.98682,0 0,22.8271 23.98682,0 z"
           style=""
           id="path4161" />
      </g>
      <g
         style="font-style:normal;font-variant:normal;font-weight:normal;font-stretch:normal;font-size:45px;line-height:110.00000238%;font-family:Overpass;-inkscape-font-specification:'Overpass, Normal';text-align:center;letter-spacing:0px;word-spacing:0px;writing-mode:lr-tb;text-anchor:middle;fill:#000000;fill-opacity:1;stroke:none;stroke-width:1px;stroke-linecap:butt;stroke-linejoin:miter;stroke-opacity:1"
         id="text4144">
        <path
           d="m 107.78619,1465.332 0,-31.5088 4.68018,0 0,27.0044 15.40283,0 0,4.5044 -20.08301,0 z"
           style=""
           id="path4164" />
        <path
           d="m 142.67877,1465.8813 q -2.41699,0 -4.37256,-0.8129 -1.93359,-0.813 -3.2959,-2.3511 -1.3623,-1.5601 -2.10937,-3.7793 -0.7251,-2.2412 -0.7251,-5.0757 0,-2.8345 0.7251,-5.0757 0.74707,-2.2412 2.10937,-3.7793 1.36231,-1.56 3.2959,-2.373 1.95557,-0.835 4.37256,-0.835 2.39502,0 4.35059,0.835 1.95556,0.813 3.31787,2.373 1.3623,1.5381 2.10937,3.7793 0.74707,2.2412 0.74707,5.0757 0,2.8345 -0.74707,5.0757 -0.74707,2.2192 -2.10937,3.7793 -1.36231,1.5381 -3.31787,2.3511 -1.95557,0.8129 -4.35059,0.8129 z m 0,-4.4165 q 1.34033,0 2.41699,-0.5273 1.09864,-0.5273 1.84571,-1.4941 0.76904,-0.9888 1.16455,-2.3951 0.41748,-1.4062 0.41748,-3.186 0,-1.7798 -0.41748,-3.186 -0.39551,-1.4283 -1.16455,-2.417 -0.74707,-0.9888 -1.84571,-1.5161 -1.07666,-0.5274 -2.41699,-0.5274 -1.34033,0 -2.41699,0.5274 -1.07666,0.5273 -1.8457,1.5161 -0.74707,0.9887 -1.16455,2.417 -0.39551,1.4062 -0.39551,3.186 0,1.7798 0.39551,3.186 0.41748,1.4063 1.16455,2.3951 0.76904,0.9668 1.8457,1.4941 1.07666,0.5273 2.41699,0.5273 z"
           style=""
           id="path4166" />
        <path
           d="m 173.02301,1465.332 0,-13.7329 q 0,-1.4502 -0.35156,-2.4609 -0.35156,-1.0327 -0.9668,-1.6699 -0.61523,-0.6592 -1.45019,-0.9449 -0.83497,-0.3076 -1.82373,-0.3076 -1.05469,0 -1.95557,0.2857 -0.90088,0.2636 -1.56006,0.8789 -0.65918,0.6152 -1.05469,1.6479 -0.37353,1.0108 -0.37353,2.4829 l 0,13.8208 -4.68018,0 0,-23.0053 4.68018,0 0,2.2192 q 1.1206,-1.4282 2.5708,-2.0874 1.45019,-0.6592 3.36181,-0.6592 1.80176,0 3.31788,0.5274 1.51611,0.5053 2.61474,1.6699 1.12061,1.1645 1.73584,3.0322 0.61524,1.8677 0.61524,4.5703 l 0,13.7329 -4.68018,0 z"
           style=""
           id="path4168" />
        <path
           d="m 192.62262,1465.8813 q -2.17529,0 -3.95508,-0.8129 -1.75781,-0.835 -3.01025,-2.3731 -1.25244,-1.56 -1.9336,-3.8013 -0.65918,-2.2412 -0.65918,-5.0756 0,-2.8345 0.70313,-5.0538 0.70312,-2.2412 1.95557,-3.7792 1.27441,-1.5601 3.03222,-2.3731 1.75781,-0.813 3.86719,-0.813 1.88965,0 3.20801,0.6153 1.34033,0.6152 2.21924,1.538 l 0,-8.9428 4.68017,-2.1753 0,32.4975 -4.68017,0 0,-1.6259 q -0.92286,1.0327 -2.21924,1.604 -1.27442,0.5712 -3.20801,0.5712 z m 0.65918,-4.4165 q 1.58203,0 2.79053,-0.6811 1.20849,-0.6812 1.97754,-1.9336 l 0,-10.1294 q -0.26368,-0.4394 -0.70313,-0.8789 -0.43945,-0.4395 -1.05469,-0.791 -0.59326,-0.3736 -1.3623,-0.5933 -0.74707,-0.2417 -1.64795,-0.2417 -2.63672,0 -4.08691,1.9556 -1.4502,1.9336 -1.4502,5.647 0,1.6699 0.37354,3.0761 0.3955,1.3843 1.09863,2.417 0.7251,1.0108 1.73584,1.5821 1.03271,0.5712 2.3291,0.5712 z"
           style=""
           id="path4170" />
        <path
           d="m 218.87994,1465.8813 q -2.41699,0 -4.37255,-0.8129 -1.9336,-0.813 -3.2959,-2.3511 -1.36231,-1.5601 -2.10938,-3.7793 -0.7251,-2.2412 -0.7251,-5.0757 0,-2.8345 0.7251,-5.0757 0.74707,-2.2412 2.10938,-3.7793 1.3623,-1.56 3.2959,-2.373 1.95556,-0.835 4.37255,-0.835 2.39502,0 4.35059,0.835 1.95557,0.813 3.31787,2.373 1.36231,1.5381 2.10938,3.7793 0.74707,2.2412 0.74707,5.0757 0,2.8345 -0.74707,5.0757 -0.74707,2.2192 -2.10938,3.7793 -1.3623,1.5381 -3.31787,2.3511 -1.95557,0.8129 -4.35059,0.8129 z m 0,-4.4165 q 1.34034,0 2.417,-0.5273 1.09863,-0.5273 1.8457,-1.4941 0.76904,-0.9888 1.16455,-2.3951 0.41748,-1.4062 0.41748,-3.186 0,-1.7798 -0.41748,-3.186 -0.39551,-1.4283 -1.16455,-2.417 -0.74707,-0.9888 -1.8457,-1.5161 -1.07666,-0.5274 -2.417,-0.5274 -1.34033,0 -2.41699,0.5274 -1.07666,0.5273 -1.8457,1.5161 -0.74707,0.9887 -1.16455,2.417 -0.39551,1.4062 -0.39551,3.186 0,1.7798 0.39551,3.186 0.41748,1.4063 1.16455,2.3951 0.76904,0.9668 1.8457,1.4941 1.07666,0.5273 2.41699,0.5273 z"
           style=""
           id="path4172" />
        <path
           d="m 249.22418,1465.332 0,-13.7329 q 0,-1.4502 -0.35156,-2.4609 -0.35156,-1.0327 -0.9668,-1.6699 -0.61523,-0.6592 -1.45019,-0.9449 -0.83496,-0.3076 -1.82373,-0.3076 -1.05469,0 -1.95557,0.2857 -0.90088,0.2636 -1.56006,0.8789 -0.65918,0.6152 -1.05469,1.6479 -0.37353,1.0108 -0.37353,2.4829 l 0,13.8208 -4.68018,0 0,-23.0053 4.68018,0 0,2.2192 q 1.1206,-1.4282 2.5708,-2.0874 1.4502,-0.6592 3.36182,-0.6592 1.80175,0 3.31787,0.5274 1.51611,0.5053 2.61474,1.6699 1.12061,1.1645 1.73584,3.0322 0.61524,1.8677 0.61524,4.5703 l 0,13.7329 -4.68018,0 z"
           style=""
           id="path4174" />
        <path
           d="m 259.26569,1454.4336 0,-4.043 17.77587,0 0,4.043 -17.77587,0 z"
           style=""
           id="path4176" />
        <path
           d="m 302.44196,1465.332 0,-14.0405 -14.37012,0 0,14.0405 -4.68018,0 0,-31.5088 4.68018,0 0,13.0518 14.37012,0 0,-13.0518 4.68017,0 0,31.5088 -4.68017,0 z"
           style=""
           id="path4178" />
        <path
           d="m 323.8653,1465.8813 q -2.39502,0 -4.32862,-0.8129 -1.93359,-0.835 -3.2959,-2.3731 -1.3623,-1.56 -2.10937,-3.8013 -0.7251,-2.2412 -0.7251,-5.0756 0,-2.8345 0.74707,-5.0538 0.74707,-2.2412 2.10938,-3.7792 1.38427,-1.5601 3.29589,-2.3731 1.9336,-0.813 4.30665,-0.813 2.04345,0 3.82324,0.6592 1.80176,0.6372 3.14209,1.9775 1.3623,1.3184 2.13135,3.3399 0.79101,2.0215 0.79101,4.768 0,0.7471 -0.0439,1.5821 -0.022,0.8349 -0.13184,1.4502 l -15.49072,0 q 0.022,1.4282 0.50537,2.5708 0.50537,1.1206 1.31836,1.9336 0.81299,0.791 1.8457,1.2304 1.03272,0.4175 2.15332,0.4175 1.42822,0 2.63672,-0.5932 1.23047,-0.5933 2.13135,-1.7359 l 3.0542,3.1421 q -1.25245,1.4941 -3.20801,2.417 -1.95557,0.9228 -4.6582,0.9228 z m 0,-19.9511 q -1.09864,0 -2.10938,0.3296 -1.01074,0.3076 -1.80176,1.0107 -0.76904,0.6812 -1.27441,1.8018 -0.50537,1.1206 -0.59326,2.7246 l 10.98632,0 q -0.0439,-1.604 -0.50537,-2.7246 -0.46142,-1.1206 -1.20849,-1.8018 -0.74707,-0.7031 -1.66992,-1.0107 -0.90088,-0.3296 -1.82373,-0.3296 z"
           style=""
           id="path4180" />
        <path
           d="m 356.78033,1465.332 -4.48242,0 0,-1.9775 q -0.43945,0.4614 -1.05468,0.9228 -0.61524,0.4395 -1.40625,0.813 -0.76905,0.3516 -1.73584,0.5713 -0.9668,0.2197 -2.10938,0.2197 -1.75781,0 -3.25195,-0.4834 -1.49414,-0.4833 -2.59278,-1.4501 -1.09863,-0.9888 -1.73584,-2.417 -0.61523,-1.4502 -0.61523,-3.3619 0,-1.9775 0.74707,-3.4057 0.74707,-1.4502 1.97754,-2.3731 1.23047,-0.9448 2.8125,-1.3842 1.604,-0.4395 3.2959,-0.4395 1.58203,0 3.03222,0.3516 1.47217,0.3296 2.63672,1.0107 l 0,-1.2744 q 0,-1.2964 -0.30761,-2.1973 -0.28565,-0.9008 -0.90088,-1.4502 -0.59327,-0.5713 -1.51612,-0.813 -0.92285,-0.2636 -2.19726,-0.2636 -2.15332,0 -3.73535,0.5713 -1.56006,0.5713 -2.83448,1.5161 l -1.38427,-3.8452 q 0.70312,-0.4834 1.604,-0.9009 0.90088,-0.4395 1.97754,-0.7691 1.07666,-0.3295 2.3291,-0.5053 1.25244,-0.1978 2.68066,-0.1978 0.9668,0 1.99952,0.1099 1.03271,0.1098 1.99951,0.4394 0.98877,0.3077 1.8457,0.9009 0.87891,0.5933 1.51611,1.5601 0.65918,0.9448 1.03272,2.3291 0.37353,1.3842 0.37353,3.2959 l 0,14.8974 z m -9.93164,-3.6035 q 1.77979,0 3.14209,-0.7251 1.38428,-0.7251 2.30713,-1.7358 l 0,-3.5156 q -0.96679,-0.5054 -2.26318,-0.813 -1.29639,-0.3077 -2.65869,-0.3077 -1.05469,0 -1.97754,0.1978 -0.92285,0.1978 -1.62598,0.6372 -0.68115,0.4175 -1.07666,1.0986 -0.39551,0.6592 -0.39551,1.604 0,1.648 1.14258,2.6148 1.16455,0.9448 3.40576,0.9448 z"
           style=""
           id="path4182" />
        <path
           d="m 369.81012,1465.8813 q -1.36231,0 -2.35107,-0.4174 -0.9668,-0.3955 -1.60401,-1.1426 -0.61523,-0.7471 -0.90088,-1.8018 -0.28564,-1.0766 -0.28564,-2.373 l 0,-13.7549 -3.55957,0 0,-4.0649 3.55957,0 0,-7.229 4.68017,-2.2632 0,9.4922 5.44922,0 0,4.0649 -5.44922,0 0,12.5464 q 0,0.5713 0.0879,1.0547 0.10987,0.4834 0.35157,0.8349 0.26367,0.3516 0.70312,0.5494 0.43946,0.1757 1.12061,0.1757 1.66992,0 3.40576,-1.0766 l -0.57129,4.3506 q -0.9668,0.4834 -2.10937,0.769 -1.14258,0.2856 -2.52686,0.2856 z"
           style=""
           id="path4184" />
        <path
           d="m 394.41949,1465.332 0,-13.7329 q 0,-1.4502 -0.35156,-2.4609 -0.35156,-1.0327 -0.96679,-1.6699 -0.61524,-0.6592 -1.4502,-0.9449 -0.83496,-0.3076 -1.82373,-0.3076 -1.05469,0 -1.95557,0.2857 -0.90088,0.2636 -1.56006,0.8789 -0.65918,0.6152 -1.05468,1.6479 -0.37354,1.0108 -0.37354,2.4829 l 0,13.8208 -4.68017,0 0,-30.3222 4.68017,-2.1753 0,11.7114 q 1.12061,-1.4282 2.5708,-2.0874 1.4502,-0.6592 3.36182,-0.6592 1.80176,0 3.31787,0.5274 1.51611,0.5053 2.61475,1.6699 1.1206,1.1645 1.73584,3.0322 0.61523,1.8677 0.61523,4.5703 l 0,13.7329 -4.68018,0 z"
           style=""
           id="path4186" />
        <path
           d="m 405.60358,1465.332 0,-23.0053 4.68017,0 0,2.7905 q 0.81299,-1.7578 2.10938,-2.5269 1.29638,-0.791 3.01025,-0.791 2.28516,0 3.86719,1.3843 l -0.68115,4.3286 q -0.63721,-0.4394 -1.51612,-0.769 -0.85693,-0.3516 -2.10937,-0.3516 -0.79102,0 -1.62598,0.2856 -0.81299,0.2637 -1.49414,0.9668 -0.68115,0.6812 -1.1206,1.8457 -0.43946,1.1426 -0.43946,2.9224 l 0,12.9199 -4.68017,0 z"
           style=""
           id="path4188" />
        <path
           d="m 433.15729,1465.8813 q -2.41699,0 -4.37256,-0.8129 -1.93359,-0.813 -3.2959,-2.3511 -1.3623,-1.5601 -2.10937,-3.7793 -0.7251,-2.2412 -0.7251,-5.0757 0,-2.8345 0.7251,-5.0757 0.74707,-2.2412 2.10937,-3.7793 1.36231,-1.56 3.2959,-2.373 1.95557,-0.835 4.37256,-0.835 2.39502,0 4.35058,0.835 1.95557,0.813 3.31787,2.373 1.36231,1.5381 2.10938,3.7793 0.74707,2.2412 0.74707,5.0757 0,2.8345 -0.74707,5.0757 -0.74707,2.2192 -2.10938,3.7793 -1.3623,1.5381 -3.31787,2.3511 -1.95556,0.8129 -4.35058,0.8129 z m 0,-4.4165 q 1.34033,0 2.41699,-0.5273 1.09863,-0.5273 1.8457,-1.4941 0.76905,-0.9888 1.16455,-2.3951 0.41748,-1.4062 0.41748,-3.186 0,-1.7798 -0.41748,-3.186 -0.3955,-1.4283 -1.16455,-2.417 -0.74707,-0.9888 -1.8457,-1.5161 -1.07666,-0.5274 -2.41699,-0.5274 -1.34033,0 -2.41699,0.5274 -1.07666,0.5273 -1.84571,1.5161 -0.74707,0.9887 -1.16455,2.417 -0.39551,1.4062 -0.39551,3.186 0,1.7798 0.39551,3.186 0.41748,1.4063 1.16455,2.3951 0.76905,0.9668 1.84571,1.4941 1.07666,0.5273 2.41699,0.5273 z"
           style=""
           id="path4190" />
        <path
           d="m 470.88434,1465.332 -4.15283,0 -3.82325,-13.3593 q -0.10986,-0.3956 -0.2417,-0.813 -0.10986,-0.4175 -0.21972,-0.791 -0.0879,-0.3956 -0.17578,-0.7251 -0.0659,-0.3296 -0.0879,-0.5494 -0.0439,0.2198 -0.10987,0.5713 -0.0439,0.3296 -0.13183,0.7251 -0.0879,0.3955 -0.19776,0.813 -0.10986,0.4175 -0.21972,0.813 l -3.7793,13.3154 -4.15283,0 -6.1084,-23.0053 4.59228,0 3.22999,14.3261 q 0.17578,0.7471 0.26367,1.3184 0.10986,0.5493 0.19775,1.0107 0.0659,-0.4614 0.17578,-1.0547 0.13184,-0.5932 0.30762,-1.2744 l 3.82324,-14.3261 4.32861,0 3.82325,14.3261 q 0.17578,0.6812 0.28564,1.2744 0.13184,0.5933 0.19776,1.0547 0.0659,-0.4614 0.17578,-1.0107 0.10986,-0.5713 0.28564,-1.3184 l 3.22998,-14.3261 4.59229,0 -6.1084,23.0053 z"
           style=""
           id="path4192" />
      </g>
    </g>
  </g>
</svg>
