<?xml version="1.0" encoding="UTF-8" standalone="no"?>
<!-- Created with Inkscape (http://www.inkscape.org/) -->

<svg
   xmlns:dc="http://purl.org/dc/elements/1.1/"
   xmlns:cc="http://creativecommons.org/ns#"
   xmlns:rdf="http://www.w3.org/1999/02/22-rdf-syntax-ns#"
   xmlns:svg="http://www.w3.org/2000/svg"
   xmlns="http://www.w3.org/2000/svg"
   xmlns:sodipodi="http://sodipodi.sourceforge.net/DTD/sodipodi-0.dtd"
   xmlns:inkscape="http://www.inkscape.org/namespaces/inkscape"
   width="998.26691"
   height="889.28693"
   viewBox="0 0 998.26691 889.28695"
   id="svg2"
   version="1.1"
   inkscape:version="0.91 r13725"
   sodipodi:docname="MCI.svg"
   inkscape:export-filename="C:\Users\paulb\OneDrive\Projects\Terminal Silhouettes\Silhouettes\png\MCI.png"
   inkscape:export-xdpi="90"
   inkscape:export-ydpi="90">
  <sodipodi:namedview
     id="base"
     pagecolor="#ffffff"
     bordercolor="#666666"
     borderopacity="1.0"
     inkscape:pageopacity="1"
     inkscape:pageshadow="2"
     inkscape:zoom="1"
     inkscape:cx="489.68038"
     inkscape:cy="459.6094"
     inkscape:document-units="px"
     inkscape:current-layer="layer4"
     showgrid="false"
     units="px"
     fit-margin-top="25"
     fit-margin-left="25"
     fit-margin-right="25"
     fit-margin-bottom="25"
     showguides="true"
     inkscape:guide-bbox="true"
     inkscape:window-width="1920"
     inkscape:window-height="1137"
     inkscape:window-x="1912"
     inkscape:window-y="-8"
     inkscape:window-maximized="1"
     inkscape:snap-smooth-nodes="true"
     inkscape:object-nodes="true"
     inkscape:snap-midpoints="false"
     inkscape:snap-object-midpoints="false"
     inkscape:snap-intersection-paths="true"
     inkscape:object-paths="true"
     inkscape:snap-bbox="false"
     inkscape:bbox-nodes="true"
     inkscape:snap-nodes="true" />
  <title
     id="title4149">MCI</title>
  <defs
     id="defs4" />
  <metadata
     id="metadata7">
    <rdf:RDF>
      <cc:Work
         rdf:about="">
        <dc:format>image/svg+xml</dc:format>
        <dc:type
           rdf:resource="http://purl.org/dc/dcmitype/StillImage" />
        <dc:title>MCI</dc:title>
        <dc:creator>
          <cc:Agent>
            <dc:title>Paul Bogard</dc:title>
          </cc:Agent>
        </dc:creator>
        <dc:description>Terminal Silhouette of MCI (Kansas City)</dc:description>
      </cc:Work>
    </rdf:RDF>
  </metadata>
  <g
     style="display:inline"
     inkscape:groupmode="layer"
     id="layer2"
     inkscape:label="Terminal"
     transform="translate(-2041.113,-1936.5323)">
    <path
       style="opacity:1;fill:#dddddd;fill-opacity:1;stroke:#222222;stroke-width:1.5;stroke-linecap:butt;stroke-linejoin:round;stroke-miterlimit:4;stroke-dasharray:none;stroke-dashoffset:0;stroke-opacity:1"
       d="m 2707.1646,2593.0236 0.3248,0.4764 -0.8792,3.1242 -3.0923,-0.87 -0.7581,2.6936 3.0924,0.87 -3.0714,10.917 -0.5255,0.2372 0.3778,0.4354 -2.7345,17.168 -0.4949,0.2968 0.4266,0.3891 -0.7232,17.3683 -0.4575,0.3527 0.4694,0.3372 1.2981,17.3351 -0.4131,0.4027 0.5045,0.2803 3.3021,17.0679 -0.363,0.4476 0.5331,0.2195 2.3692,7.4608 c -0.7743,1.495 -1.5487,2.9901 -2.3232,4.4851 l -3.411,1.0833 2.0414,6.4297 -4.2784,1.9302 5.8834,13.04 4.2784,-1.9302 1.8922,4.1937 3.4685,5.7844 3.0695,-1.8408 c 1.6334,0.4091 3.2668,0.8181 4.9002,1.2271 l 4.0269,6.7145 -0.1885,0.5453 0.5765,0.024 10.6111,13.7701 -0.1237,0.5631 0.5747,-0.043 12.1383,12.4457 -0.058,0.5738 0.5663,-0.1097 13.5006,10.9518 0.01,0.5771 0.5501,-0.1744 4.9765,3.1565 -1.7199,2.713 2.3628,1.4987 1.7207,-2.7128 7.3406,4.6552 0.076,0.5712 0.5255,-0.2371 15.6626,7.5433 0.1423,0.5587 0.4944,-0.2965 16.4325,5.6746 0.2061,0.5385 -0.6725,3.064 13.9743,3.0677 0.7673,-3.496 3.3674,0.7395 0.2678,0.5119 0.4133,-0.4034 17.2977,1.7324 0.3246,0.4759 0.363,-0.4476 17.3827,-0.2885 0.3778,0.4355 0.3089,-0.4873 17.2305,-2.3036 0.4264,0.3886 0.2503,-0.5197 2.5884,-0.6592 0.8837,3.4689 14.7937,-3.7668 17.269,-6.6122 16.3844,-8.5717 15.279,-10.4158 5.002,-4.3406 0.3577,-5.0495 5.8422,-5.0693 0.5697,0.091 -0.076,-0.5719 11.7182,-12.8413 0.5757,0.024 -0.1421,-0.5582 10.149,-14.1151 0.5747,-0.043 -0.2058,-0.538 1.0112,-1.8206 2.8082,1.5599 1.3586,-2.4464 -2.8082,-1.5599 6.0707,-10.9307 0.567,-0.1095 -0.2678,-0.5119 6.6202,-16.0736 0.5498,-0.1749 -0.3248,-0.4764 4.7086,-16.7349 0.5255,-0.237 -0.3778,-0.4356 2.7345,-17.168 0.4944,-0.2964 -0.4259,-0.389 0.7231,-17.3687 0.4569,-0.3525 -0.4686,-0.3369 -1.2984,-17.3357 0.4131,-0.4026 -0.5043,-0.2799 -3.3024,-17.0683 0.3631,-0.4476 -0.5331,-0.2194 -3.4881,-10.9844 12.106,-5.4615 -4.0732,-9.027 -11.4489,5.165 -5.7527,-12.7505 0.2504,-0.5197 -0.5697,-0.091 -8.9409,-14.9091 0.1885,-0.5453 -0.5765,-0.024 -10.6111,-13.7702 0.1237,-0.5631 0.055,-4.3799 -10.6191,-10.8881 -14.3602,-11.6495 -15.6155,-9.9039 -5.9668,-2.8735 -4.7275,1.6536 -6.9928,-3.3679 -0.1424,-0.5587 -0.4944,0.2965 -16.4325,-5.6745 -0.2061,-0.5386 c -6.605,5.0891 -13.2094,10.179 -19.814,15.2686 l 5.3977,10.3173 13.3747,3.7639 0.5871,-0.2649 0.2987,0.5707 12.8466,5.2907 0.6141,-0.1953 0.2303,0.6016 12.146,6.7464 0.6322,-0.1222 0.1591,0.6243 11.2805,8.111 0.6425,-0.048 0.085,0.6384 10.2631,9.3658 0.6439,0.027 0.011,0.644 9.1063,10.4939 0.6363,0.1012 -0.064,0.6413 7.8263,11.4805 0.6196,0.1742 -0.138,0.6285 6.441,12.3116 0.5958,0.2452 -0.2106,0.6092 4.9681,12.9751 0.563,0.3127 -0.2797,0.5805 3.428,13.4645 0.523,0.376 -0.3453,0.5441 1.8417,13.7717 0.4758,0.4339 -0.4055,0.5001 0.2301,13.8921 0.4222,0.4866 -0.4609,0.4496 -1.3839,13.8249 0.3629,0.5322 -0.5107,0.3931 -2.9792,13.5703 0.2988,0.5713 -0.553,0.3315 -4.5343,13.1326 0.2303,0.6015 -0.5872,0.265 -6.0288,12.5184 0.159,0.6242 -0.6136,0.1951 -7.4417,11.7324 0.086,0.6393 -0.6332,0.1228 -8.7522,10.7894 0.01,0.6439 -0.6425,0.048 -9.9467,9.7007 -0.064,0.6409 -0.644,-0.027 -11.0052,8.4804 -0.1383,0.6293 -0.6363,-0.1012 -11.9154,7.1454 -0.2103,0.6096 -0.6207,-0.1749 -12.6633,5.7134 -0.28,0.5812 -0.5965,-0.2455 -13.2416,4.2047 -0.3448,0.5439 -0.5631,-0.3128 -13.6413,2.6398 -0.4061,0.5003 -0.523,-0.3759 -13.854,1.0374 -0.4619,0.4502 -0.4764,-0.435 -13.8815,-0.5768 -0.5101,0.3929 -0.4221,-0.4866 -13.7215,-2.1858 -0.5525,0.3313 -0.3628,-0.5322 -13.3739,-3.7637 -0.5877,0.2653 -0.2989,-0.5713 -12.8466,-5.2907 -0.6142,0.1953 -0.2302,-0.6015 -12.1461,-6.7465 -0.6322,0.1222 -0.159,-0.6242 -11.281,-8.1107 -0.6421,0.048 -0.085,-0.6384 -10.263,-9.3659 -0.644,-0.026 -0.01,-0.644 -9.1063,-10.4939 -0.6363,-0.1012 0.064,-0.6409 -7.826,-11.48 -0.6204,-0.1743 0.1382,-0.6293 -6.441,-12.3116 -0.5957,-0.2453 0.2105,-0.6091 -4.9678,-12.9746 -0.5631,-0.3128 0.2798,-0.5804 -3.4277,-13.4641 -0.5238,-0.3761 0.345,-0.5447 -1.8411,-13.7707 -0.4761,-0.4344 0.406,-0.5003 -0.2306,-13.8919 -0.4224,-0.4871 0.4619,-0.4502 1.3834,-13.8233 -0.3634,-0.5332 0.5109,-0.3939 2.9795,-13.5697 -0.2989,-0.5713 0.553,-0.3315 4.5344,-13.1326 -5.398,-10.3179 c -7.9462,2.5262 -15.8953,5.0435 -23.8411,7.5709 z"
       id="path4535"
       inkscape:connector-curvature="0" />
    <path
       style="opacity:1;fill:#dddddd;fill-opacity:1;stroke:#222222;stroke-width:1.5;stroke-linecap:butt;stroke-linejoin:round;stroke-miterlimit:4;stroke-dasharray:none;stroke-dashoffset:0;stroke-opacity:1"
       d="m 2278.8705,2450.301 -13.4557,8.8893 -7.3295,6.1762 3.5766,4.245 -7.0822,5.9674 -12.6831,13.498 -11.0302,14.8792 -2.5364,4.4145 -1.026,-0.5896 -1.3944,2.4261 1.0261,0.5896 3.331,1.9139 -5.0136,8.7245 -0.5677,0.101 0.2596,0.5144 -6.8531,15.9774 -0.5525,0.1662 c -2.7348,-0.8126 -5.4696,-1.6253 -8.2043,-2.4381 l -0.7975,2.6821 3.0795,0.9152 -4.4548,14.9911 -3.2176,18.471 -0.734,13.0691 1.8347,2.0534 -0.202,3.5927 1.1147,18.4876 3.2532,18.2338 5.3486,17.733 7.3706,16.9919 9.2939,16.021 11.0901,14.8338 12.738,13.4462 14.2125,11.8765 15.4959,10.1462 13.3516,6.6714 4.5598,-1.5212 0.4991,-0.2888 5.5424,2.0043 -1.0924,3.0203 2.6312,0.952 1.0926,-3.0211 8.1743,2.9565 0.1985,0.5407 0.4611,-0.3446 16.9248,3.9749 0.2592,0.5146 0.4184,-0.396 17.2708,1.982 0.3182,0.4818 0.3704,-0.4432 17.3835,-0.035 0.3719,0.4411 0.316,-0.4822 17.2629,-2.054 0.4199,0.3945 0.2582,-0.5156 16.9075,-4.0435 0.4632,0.3435 0.1963,-0.5424 16.3234,-5.9788 0.5006,0.2874 0.1318,-0.5622 15.5195,-7.8333 0.5298,0.2275 0.066,-0.573 14.5054,-9.5827 0.5525,0.1639 0,-0.5762 13.2943,-11.2014 0.5684,0.099 4.8017,-0.1496 10.2205,-10.8777 0.9205,-1.2414 2.5802,1.9129 c 1.157,-1.5605 2.3139,-3.1211 3.4708,-4.6817 l -2.5804,-1.9134 6.6385,-8.9553 9.2284,-16.059 7.3009,-17.0219 5.276,-17.7542 2.5621,-14.7059 -2.7632,-3.9296 -0.4203,-0.395 0.975,-17.3569 0.462,-0.345 -0.4632,-0.3436 -1.046,-17.353 0.4187,-0.3967 c -7.2293,-4.1547 -14.4588,-8.3083 -21.6884,-12.4624 l -7.4664,8.9348 1.6406,13.7968 0.4695,0.4411 -0.4128,0.4944 0.028,13.8934 0.4153,0.4927 -0.4675,0.4431 -1.5848,13.8033 0.355,0.5375 -0.5158,0.3858 -3.1766,13.5254 0.2902,0.5752 -0.5569,0.3228 -4.7256,13.0658 0.2216,0.6054 -0.5905,0.256 -6.2105,12.4289 0.1504,0.6269 -0.6176,0.1864 -7.6112,11.6239 0.076,0.6392 -0.6334,0.1128 -8.9095,10.6619 0,0.6445 -0.6432,0.038 -10.0865,9.5552 -0.073,0.64 -0.6434,-0.036 -11.1279,8.3197 -0.147,0.6269 -0.635,-0.1107 -12.0187,6.972 -0.2186,0.6058 -0.6171,-0.1837 -12.7466,5.5289 -0.2881,0.5766 -0.5919,-0.2536 -13.3021,4.0121 -0.3526,0.5385 -0.5587,-0.3213 -13.6775,2.4406 -0.4134,0.4948 -0.5179,-0.3843 -13.8682,0.8369 -0.4678,0.4426 -0.4692,-0.4406 -13.873,-0.7797 -0.5157,0.3858 -0.415,-0.4923 -13.6867,-2.3854 -0.5581,0.3241 -0.356,-0.5383 -13.3171,-3.9572 -0.591,0.2563 -0.2907,-0.5749 -12.7687,-5.4776 -0.6163,0.1863 -0.2221,-0.6051 -12.0464,-6.9221 -0.6346,0.1127 -0.1496,-0.6267 -11.1616,-8.2739 -0.6435,0.039 -0.076,-0.6406 -10.1244,-9.5126 -0.6442,-0.037 0,-0.6451 -8.952,-10.6244 -0.6343,-0.1104 0.073,-0.6401 -7.6592,-11.5924 -0.6179,-0.1839 0.1475,-0.6272 -6.2604,-12.4023 -0.5924,-0.2545 0.2196,-0.6063 -4.7794,-13.0455 -0.5579,-0.3211 0.2875,-0.5763 -3.2316,-13.5132 -0.5172,-0.384 0.3526,-0.5385 -1.641,-13.7966 -0.4696,-0.441 0.4134,-0.4947 -0.028,-13.8939 -0.4158,-0.4925 0.4676,-0.443 1.585,-13.8028 -0.355,-0.5376 0.5163,-0.386 3.1763,-13.5259 -0.2907,-0.5749 0.5576,-0.3226 4.7254,-13.0663 -0.2221,-0.6051 0.591,-0.2563 6.2105,-12.4289 -0.1501,-0.6264 0.6166,-0.1859 7.6112,-11.6238 -0.076,-0.6398 0.6346,-0.1128 8.9094,-10.6624 0,-0.6444 0.6432,-0.039 10.0859,-9.5549 0.074,-0.6396 0.6433,0.036 11.1274,-8.3194 0.147,-0.6281 0.6355,0.1104 12.0175,-6.9707 0.2191,-0.606 0.6179,0.1839 12.7463,-5.5294 0.288,-0.5766 0.5929,0.2543 13.3004,-4.0118 0.3538,-0.5398 0.5592,0.3211 13.6773,-2.4399 0.4131,-0.4953 0.5179,0.3843 13.8685,-0.8364 7.4666,-8.9356 c -5.3748,-6.3746 -10.7423,-12.7551 -16.118,-19.1289 l -0.3159,0.4822 -17.2629,2.054 -0.42,-0.3945 -2e-4,0 -3.7316,-2.6014 -14.8815,3.5593 -17.3913,6.37 -16.5351,8.3463 -2.2663,1.4976 -3.0601,-4.6317 z"
       id="path4535-3"
       inkscape:connector-curvature="0" />
    <path
       style="opacity:1;fill:none;fill-opacity:1;stroke:#222222;stroke-width:1.5;stroke-linecap:butt;stroke-linejoin:round;stroke-miterlimit:4;stroke-dasharray:1.5, 3;stroke-dashoffset:0;stroke-opacity:1"
       d="m 2127.2444,1976.5983 -10.9683,8.9714 7.8629,9.6129 -6.844,5.5978 -12.8774,13.3123 -2.2315,2.9201 3.0518,2.3315 -8.6693,11.3451 -0.5763,0.027 0.1903,0.5443 -4.4396,7.4723 -2.7614,-1.6405 -1.4298,2.4056 2.7617,1.6409 3e-4,0 -3.0106,5.0665 -0.5693,0.093 0.2525,0.5187 -7.0848,15.8756 -0.5541,0.1582 0.3108,0.4857 -5.1937,16.5904 -0.5323,0.2218 0.3653,0.4465 -3.233,17.081 -0.5031,0.2821 0.4148,0.4016 -1.2281,17.3401 -0.4667,0.3387 0.4581,0.3506 0.3322,7.2653 -3.2088,0.1465 0.1275,2.7954 3.2092,-0.1468 0.334,7.306 -0.4241,0.39 0.4953,0.2941 2.8047,17.1574 -0.3763,0.4369 0.5262,0.235 4.778,16.7147 -0.3238,0.4781 0.5515,0.1726 6.6847,16.0467 -0.2653,0.513 0.5667,0.1067 8.5037,15.1632 -0.2036,0.5393 0.575,0.041 10.2057,14.073 -0.14,0.5596 0.5765,-0.026 11.7699,12.7928 -0.074,0.5722 0.5696,-0.093 9.6688,8.3215 -10.7217,12.458 4.5343,3.9019 9.2212,6.2317 9.2068,-13.6234 6.2184,4.2021 0.059,0.5732 0.5323,-0.2217 15.4364,7.9962 0.1262,0.5627 0.5032,-0.2822 16.2601,6.1496 0.1903,0.5443 0.4672,-0.3389 16.8642,4.2202 0.2527,0.5192 0.4243,-0.3908 17.2407,2.2339 0.31,0.4855 0.3763,-0.4369 17.3834,0.2176 0.3653,0.4465 0.3225,-0.4781 17.2904,-1.8026 0.4149,0.4017 0.2655,-0.5125 16.9644,-3.7974 0.4584,0.3499 0.2036,-0.5394 12.2786,-4.2956 1.0609,3.0322 2.6407,-0.9241 -1.0604,-3.0325 1.4895,-0.5209 0.4956,0.2945 0.14,-0.5596 15.6323,-7.6069 0.5262,0.235 c 1.0719,-8.2689 2.1428,-16.5379 3.2141,-24.807 l -11.112,-3.4791 -12.1189,6.7963 -0.2279,0.6025 -0.6147,-0.1925 -12.825,5.3431 -0.2961,0.572 -0.5883,-0.2624 -13.3588,3.8181 -0.361,0.5334 -0.5539,-0.3288 -13.7118,2.2413 -0.42,0.488 -0.5113,-0.3908 -13.8797,0.6343 -0.4741,0.4365 -0.4632,-0.4482 -13.8591,-0.981 -0.5217,0.3781 -0.4081,-0.4983 -13.6521,-2.5843 -0.5616,0.3152 -0.3465,-0.542 -13.2604,-4.1512 -0.5947,0.2481 -0.2818,-0.5796 -12.688,-5.6616 -0.6189,0.1764 -0.2129,-0.6081 -11.9446,-7.097 -0.636,0.1041 -0.1406,-0.6289 -11.0403,-8.4357 -0.6429,0.029 -0.067,-0.6401 -9.9859,-9.6608 -0.6425,-0.046 0.01,-0.6435 -8.7969,-10.7541 -0.6329,-0.12 0.083,-0.6387 -7.4888,-11.7024 -0.6155,-0.1927 0.1565,-0.6256 -6.08,-12.4923 -0.5878,-0.2626 0.2278,-0.6024 -4.5888,-13.1149 -0.5539,-0.3289 0.2961,-0.572 -3.0339,-13.558 -0.5128,-0.3913 0.3609,-0.5347 -1.4407,-13.8182 -0.4629,-0.4477 0.4205,-0.4884 0.1739,-13.893 -0.4077,-0.4986 0.4741,-0.4364 1.785,-13.7783 -0.3471,-0.543 0.5217,-0.3781 3.3727,-13.4781 -0.2821,-0.58 0.5623,-0.315 4.9147,-12.9946 -0.2132,-0.6085 0.5952,-0.2484 6.3904,-12.3365 -0.1409,-0.6281 0.6193,-0.1772 7.779,-11.5126 -0.066,-0.6407 0.6353,-0.1043 9.0626,-10.5297 0.01,-0.6451 0.6444,-0.029 10.2234,-9.4077 0.083,-0.6387 0.643,0.045 11.2476,-8.1569 0.1569,-0.6251 0.6329,0.12 12.1181,-6.7953 0.2276,-0.6029 0.6153,0.1922 12.8252,-5.3426 0.2963,-0.5727 0.5879,0.2626 13.3593,-3.8183 0.3605,-0.5332 0.5538,0.3289 13.7119,-2.2413 0.4199,-0.4881 0.5116,0.3913 13.8802,-0.6346 0.4741,-0.4364 0.4624,0.4479 13.8597,0.9807 0.5216,-0.3781 0.4077,0.4987 13.6511,2.5835 0.5623,-0.315 0.3472,0.5422 13.26,4.1515 0.5947,-0.2481 0.2818,0.5796 12.6874,5.6619 0.6192,-0.1772 0.2124,0.6083 11.9446,7.0971 0.6362,-0.1049 0.1414,0.6291 11.039,8.4358 0.6442,-0.03 0.066,0.6412 9.9861,9.6601 0.643,0.045 -0.01,0.6451 8.797,10.7528 0.6336,0.1202 -0.083,0.6392 7.4883,11.7027 0.6153,0.1922 -0.1566,0.6256 6.0801,12.4923 11.1125,3.4788 c 3.8325,-7.405 7.6733,-14.8057 11.5047,-22.2111 l -0.5662,-0.107 -0.7329,-1.3069 2.8019,-1.571 -1.3684,-2.4411 -2.8024,1.5713 -6.4018,-11.4154 0.2038,-0.5389 -0.5753,-0.041 -10.2057,-14.073 0.1401,-0.5596 -0.5771,0.027 -8.4686,-9.2053 2.3636,-2.1752 -1.8943,-2.0588 -2.3638,2.1747 -1.4063,-1.5285 0.074,-0.5729 -0.5703,0.094 -13.1758,-11.3397 0.01,-0.5765 0,-2e-4 -3e-4,0 -0.9128,-4.7181 -12.3669,-8.3571 -16.4462,-8.5187 -17.3245,-6.5523 -14.5023,-3.6288 -4.0978,2.4777 -0.4246,0.3903 -17.2404,-2.2334 -0.3108,-0.4857 -0.3757,0.4366 -17.384,-0.2174 -0.3647,-0.4467 -0.3231,0.4783 -17.2899,1.8024 -0.4154,-0.4014 -0.2655,0.5125 -16.9646,3.7969 -0.4576,-0.3497 -0.2044,0.5391 -16.4086,5.7412 -0.4955,-0.2945 -0.1403,0.5592 -15.6321,7.6073 -0.5261,-0.235 -0.075,0.5721 -8.0218,5.1336 -2.0694,-3.2342 c -0.8833,-1.0803 -1.767,-2.1605 -2.6505,-3.2407 l -3.0048,2.4572 -5.8312,-7.1289 z"
       id="path4535-3-2"
       inkscape:connector-curvature="0" />
  </g>
  <g
     inkscape:groupmode="layer"
     id="layer1"
     inkscape:label="Label"
     transform="translate(-2041.113,-1936.5323)">
    <g
       style="font-style:normal;font-variant:normal;font-weight:bold;font-stretch:normal;font-size:125px;line-height:125%;font-family:Overpass;-inkscape-font-specification:'Overpass, Bold';text-align:center;letter-spacing:0px;word-spacing:0px;writing-mode:lr-tb;text-anchor:middle;fill:#dddddd;fill-opacity:1;stroke:#222222;stroke-width:0.25;stroke-linecap:butt;stroke-linejoin:miter;stroke-miterlimit:4;stroke-dasharray:none;stroke-opacity:1"
       id="text4396">
      <path
         d="m 2611.1069,2266.1582 0,-44.9829 q 0,-0.7324 0,-1.709 0.061,-0.9766 0.061,-1.9531 0.061,-1.0376 0.061,-1.8921 0.061,-0.8545 0.1221,-1.3428 -0.6714,2.0752 -1.3428,3.7232 -0.6104,1.6479 -1.2817,3.1738 l -21.2403,46.5088 -21.3623,-46.5088 q -0.6714,-1.5259 -1.3427,-3.1738 -0.6104,-1.648 -1.2818,-3.7232 0.061,0.4883 0.061,1.3428 0.061,0.8545 0.061,1.8921 0.061,0.9765 0.061,1.9531 0.061,0.9766 0.061,1.709 l 0,44.9829 -16.9068,0 0,-87.5244 17.1509,0 21.4844,48.2788 q 0.6714,1.5869 1.2207,3.0518 0.5493,1.4038 1.0376,2.9296 0.4883,-1.5258 1.0376,-2.9296 0.5493,-1.4649 1.2207,-3.0518 l 21.8506,-48.2788 16.1132,0 0,87.5244 -16.8457,0 z"
         style=""
         id="path4461" />
      <path
         d="m 2684.2271,2267.562 q -6.836,0 -12.2071,-1.831 -5.3711,-1.8311 -9.4604,-5.066 -4.0894,-3.2348 -6.958,-7.5683 -2.8687,-4.3335 -4.6997,-9.3384 -1.7701,-5.0659 -2.6246,-10.498 -0.7934,-5.4322 -0.7934,-10.8643 0,-5.0049 0.8545,-10.2539 0.8545,-5.3101 2.6245,-10.315 1.831,-5.0048 4.6997,-9.4604 2.9297,-4.4556 6.958,-7.8125 4.0894,-3.3569 9.4605,-5.3101 5.371,-1.9531 12.146,-1.9531 6.2866,0 11.4135,1.709 5.127,1.709 9.0332,4.5166 3.9063,2.7466 6.5918,6.2866 2.7466,3.5401 4.2115,7.2022 l -15.1368,6.8969 q -1.5869,-2.4414 -3.2348,-4.3945 -1.648,-1.9531 -3.5401,-3.2349 -1.8921,-1.3427 -4.2114,-2.0141 -2.2583,-0.7324 -5.1269,-0.7324 -3.6622,0 -6.5308,1.2817 -2.8687,1.2207 -5.0049,3.3569 -2.1362,2.1363 -3.6011,5.0049 -1.4648,2.8687 -2.3803,6.1035 -0.9156,3.1739 -1.3428,6.5918 -0.3662,3.357 -0.3662,6.5308 0,5.1269 1.0986,10.2539 1.0986,5.127 3.418,9.2773 2.3193,4.1504 5.9204,6.7749 3.6621,2.5635 8.7891,2.5635 2.6855,0 4.9438,-0.7934 2.2583,-0.8545 4.1504,-2.3194 1.9531,-1.4648 3.6011,-3.54 1.7089,-2.0752 3.1738,-4.5776 l 15.5029,5.8593 q -2.0752,4.8218 -5.0049,8.8501 -2.9296,3.9673 -6.8359,6.836 -3.8452,2.8076 -8.728,4.3945 -4.8828,1.5869 -10.8032,1.5869 z"
         style=""
         id="path4463" />
      <path
         d="m 2733.7876,2266.1582 0,-87.5244 16.8457,0 0,87.5244 -16.8457,0 z"
         style=""
         id="path4465" />
    </g>
    <g
       style="font-style:normal;font-variant:normal;font-weight:normal;font-stretch:normal;font-size:45px;line-height:125%;font-family:Overpass;-inkscape-font-specification:'Overpass, Normal';text-align:center;letter-spacing:0px;word-spacing:0px;writing-mode:lr-tb;text-anchor:middle;fill:#222222;fill-opacity:1;stroke:none;stroke-width:1px;stroke-linecap:butt;stroke-linejoin:miter;stroke-opacity:1"
       id="text4400">
      <path
         d="m 2550.9458,2315.3066 -8.877,-16.4795 -5.581,6.7676 0,9.7119 -4.6802,0 0,-31.5087 4.6802,0 0,15.2709 12.1509,-15.2709 5.4052,0 -8.811,11.0742 11.2061,20.4345 -5.4932,0 z"
         style=""
         id="path4440" />
      <path
         d="m 2579.2686,2315.3066 -4.4825,0 0,-1.9775 q -0.4394,0.4614 -1.0547,0.9229 -0.6152,0.4394 -1.4062,0.8129 -0.769,0.3516 -1.7358,0.5713 -0.9668,0.2198 -2.1094,0.2198 -1.7578,0 -3.252,-0.4834 -1.4941,-0.4834 -2.5927,-1.4502 -1.0987,-0.9888 -1.7359,-2.417 -0.6152,-1.4502 -0.6152,-3.3618 0,-1.9776 0.7471,-3.4058 0.747,-1.4502 1.9775,-2.3731 1.2305,-0.9448 2.8125,-1.3842 1.604,-0.4395 3.2959,-0.4395 1.582,0 3.0322,0.3516 1.4722,0.3296 2.6367,1.0107 l 0,-1.2744 q 0,-1.2964 -0.3076,-2.1973 -0.2856,-0.9008 -0.9009,-1.4502 -0.5932,-0.5712 -1.5161,-0.8129 -0.9228,-0.2637 -2.1972,-0.2637 -2.1534,0 -3.7354,0.5713 -1.5601,0.5713 -2.8345,1.5161 l -1.3842,-3.8452 q 0.7031,-0.4834 1.604,-0.9009 0.9008,-0.4395 1.9775,-0.769 1.0767,-0.3296 2.3291,-0.5054 1.2524,-0.1978 2.6807,-0.1978 0.9668,0 1.9995,0.1099 1.0327,0.1099 1.9995,0.4394 0.9888,0.3077 1.8457,0.9009 0.8789,0.5933 1.5161,1.5601 0.6592,0.9448 1.0327,2.3291 0.3736,1.3843 0.3736,3.2959 l 0,14.8974 z m -9.9317,-3.6035 q 1.7798,0 3.1421,-0.7251 1.3843,-0.7251 2.3071,-1.7358 l 0,-3.5156 q -0.9668,-0.5054 -2.2632,-0.813 -1.2963,-0.3076 -2.6586,-0.3076 -1.0547,0 -1.9776,0.1977 -0.9228,0.1978 -1.626,0.6372 -0.6811,0.4175 -1.0766,1.0987 -0.3955,0.6591 -0.3955,1.604 0,1.6479 1.1426,2.6147 1.1645,0.9448 3.4057,0.9448 z"
         style=""
         id="path4442" />
      <path
         d="m 2599.8569,2315.3066 0,-13.7329 q 0,-1.4502 -0.3515,-2.4609 -0.3516,-1.0327 -0.9668,-1.6699 -0.6153,-0.6592 -1.4502,-0.9449 -0.835,-0.3076 -1.8238,-0.3076 -1.0546,0 -1.9555,0.2857 -0.9009,0.2636 -1.5601,0.8789 -0.6592,0.6152 -1.0547,1.6479 -0.3735,1.0108 -0.3735,2.4829 l 0,13.8208 -4.6802,0 0,-23.0053 4.6802,0 0,2.2192 q 1.1206,-1.4282 2.5708,-2.0874 1.4502,-0.6592 3.3618,-0.6592 1.8018,0 3.3179,0.5274 1.5161,0.5053 2.6147,1.6699 1.1206,1.1645 1.7359,3.0322 0.6152,1.8677 0.6152,4.5703 l 0,13.7329 -4.6802,0 z"
         style=""
         id="path4444" />
      <path
         d="m 2618.1382,2315.856 q -1.3623,0 -2.6587,-0.2637 -1.2964,-0.2637 -2.439,-0.7471 -1.1206,-0.4834 -2.0434,-1.1645 -0.9229,-0.7032 -1.5381,-1.5601 l 3.3179,-2.8345 q 0.3515,0.3296 0.8569,0.7471 0.5054,0.3955 1.1645,0.7471 0.6592,0.3515 1.4722,0.5932 0.813,0.2417 1.7798,0.2417 0.8789,0 1.626,-0.1318 0.747,-0.1318 1.2744,-0.4175 0.5493,-0.2856 0.8349,-0.7471 0.3077,-0.4834 0.3077,-1.1865 0,-0.813 -0.5713,-1.3843 -0.5493,-0.5932 -1.4502,-1.0546 -0.9009,-0.4834 -2.0435,-0.9009 -1.1426,-0.4395 -2.3071,-0.9229 -1.0767,-0.4614 -2.1094,-1.0107 -1.0327,-0.5493 -1.8457,-1.3184 -0.791,-0.769 -1.2964,-1.8237 -0.4834,-1.0767 -0.4834,-2.5928 0,-1.5381 0.6153,-2.7246 0.6372,-1.1865 1.7138,-1.9775 1.0987,-0.813 2.5489,-1.2305 1.4721,-0.4175 3.142,-0.4175 1.4722,0 2.7027,0.2857 1.2524,0.2856 2.2412,0.769 1.0107,0.4834 1.7798,1.1206 0.769,0.6153 1.3403,1.2964 l -3.3838,2.6807 q -0.3076,-0.3076 -0.747,-0.6372 -0.4175,-0.3516 -0.9888,-0.6372 -0.5713,-0.2857 -1.2964,-0.4615 -0.7251,-0.1977 -1.648,-0.1977 -1.4941,0 -2.373,0.5493 -0.8569,0.5493 -0.8569,1.582 0,0.6592 0.4614,1.1646 0.4614,0.4834 1.2524,0.9009 0.7911,0.4174 1.8018,0.8129 1.0327,0.3736 2.1533,0.813 1.1865,0.4615 2.3291,1.0327 1.1426,0.5713 2.0215,1.4063 0.9009,0.835 1.4282,2.0215 0.5493,1.1865 0.5493,2.8564 0,1.648 -0.6152,2.9224 -0.6152,1.2524 -1.7578,2.1094 -1.1206,0.8349 -2.7246,1.2524 -1.582,0.4395 -3.5376,0.4395 z"
         style=""
         id="path4446" />
      <path
         d="m 2650.0205,2315.3066 -4.4824,0 0,-1.9775 q -0.4395,0.4614 -1.0547,0.9229 -0.6152,0.4394 -1.4063,0.8129 -0.769,0.3516 -1.7358,0.5713 -0.9668,0.2198 -2.1094,0.2198 -1.7578,0 -3.2519,-0.4834 -1.4942,-0.4834 -2.5928,-1.4502 -1.0986,-0.9888 -1.7358,-2.417 -0.6153,-1.4502 -0.6153,-3.3618 0,-1.9776 0.7471,-3.4058 0.7471,-1.4502 1.9775,-2.3731 1.2305,-0.9448 2.8125,-1.3842 1.604,-0.4395 3.2959,-0.4395 1.5821,0 3.0323,0.3516 1.4721,0.3296 2.6367,1.0107 l 0,-1.2744 q 0,-1.2964 -0.3076,-2.1973 -0.2857,-0.9008 -0.9009,-1.4502 -0.5933,-0.5712 -1.5161,-0.8129 -0.9229,-0.2637 -2.1973,-0.2637 -2.1533,0 -3.7353,0.5713 -1.5601,0.5713 -2.8345,1.5161 l -1.3843,-3.8452 q 0.7031,-0.4834 1.604,-0.9009 0.9009,-0.4395 1.9776,-0.769 1.0766,-0.3296 2.3291,-0.5054 1.2524,-0.1978 2.6806,-0.1978 0.9668,0 1.9995,0.1099 1.0327,0.1099 1.9995,0.4394 0.9888,0.3077 1.8457,0.9009 0.879,0.5933 1.5162,1.5601 0.6591,0.9448 1.0327,2.3291 0.3735,1.3843 0.3735,3.2959 l 0,14.8974 z m -9.9316,-3.6035 q 1.7798,0 3.1421,-0.7251 1.3842,-0.7251 2.3071,-1.7358 l 0,-3.5156 q -0.9668,-0.5054 -2.2632,-0.813 -1.2964,-0.3076 -2.6587,-0.3076 -1.0547,0 -1.9775,0.1977 -0.9229,0.1978 -1.626,0.6372 -0.6812,0.4175 -1.0767,1.0987 -0.3955,0.6591 -0.3955,1.604 0,1.6479 1.1426,2.6147 1.1646,0.9448 3.4058,0.9448 z"
         style=""
         id="path4448" />
      <path
         d="m 2663.4897,2315.856 q -1.3623,0 -2.6586,-0.2637 -1.2964,-0.2637 -2.439,-0.7471 -1.1206,-0.4834 -2.0435,-1.1645 -0.9228,-0.7032 -1.5381,-1.5601 l 3.3179,-2.8345 q 0.3516,0.3296 0.857,0.7471 0.5053,0.3955 1.1645,0.7471 0.6592,0.3515 1.4722,0.5932 0.813,0.2417 1.7798,0.2417 0.8789,0 1.6259,-0.1318 0.7471,-0.1318 1.2744,-0.4175 0.5494,-0.2856 0.835,-0.7471 0.3076,-0.4834 0.3076,-1.1865 0,-0.813 -0.5713,-1.3843 -0.5493,-0.5932 -1.4502,-1.0546 -0.9008,-0.4834 -2.0434,-0.9009 -1.1426,-0.4395 -2.3071,-0.9229 -1.0767,-0.4614 -2.1094,-1.0107 -1.0327,-0.5493 -1.8457,-1.3184 -0.791,-0.769 -1.2964,-1.8237 -0.4834,-1.0767 -0.4834,-2.5928 0,-1.5381 0.6152,-2.7246 0.6372,-1.1865 1.7139,-1.9775 1.0986,-0.813 2.5488,-1.2305 1.4722,-0.4175 3.1421,-0.4175 1.4722,0 2.7026,0.2857 1.2525,0.2856 2.2413,0.769 1.0107,0.4834 1.7797,1.1206 0.7691,0.6153 1.3404,1.2964 l -3.3838,2.6807 q -0.3076,-0.3076 -0.7471,-0.6372 -0.4175,-0.3516 -0.9888,-0.6372 -0.5712,-0.2857 -1.2963,-0.4615 -0.7251,-0.1977 -1.648,-0.1977 -1.4941,0 -2.373,0.5493 -0.857,0.5493 -0.857,1.582 0,0.6592 0.4615,1.1646 0.4614,0.4834 1.2524,0.9009 0.791,0.4174 1.8018,0.8129 1.0327,0.3736 2.1533,0.813 1.1865,0.4615 2.3291,1.0327 1.1426,0.5713 2.0215,1.4063 0.9008,0.835 1.4282,2.0215 0.5493,1.1865 0.5493,2.8564 0,1.648 -0.6152,2.9224 -0.6153,1.2524 -1.7578,2.1094 -1.1207,0.8349 -2.7247,1.2524 -1.582,0.4395 -3.5376,0.4395 z"
         style=""
         id="path4450" />
      <path
         d="m 2700.7554,2315.856 q -2.439,0 -4.3726,-0.6592 -1.9116,-0.6812 -3.3618,-1.8238 -1.4502,-1.1645 -2.4829,-2.7246 -1.0108,-1.582 -1.648,-3.3838 -0.6372,-1.8237 -0.9448,-3.7792 -0.2856,-1.9776 -0.2856,-3.9332 0,-1.8017 0.2856,-3.7133 0.3076,-1.9117 0.9448,-3.7134 0.6592,-1.8237 1.6919,-3.4277 1.0327,-1.604 2.4829,-2.8125 1.4502,-1.2085 3.3619,-1.9117 1.9116,-0.7031 4.3286,-0.7031 2.2192,0 3.999,0.5493 1.7798,0.5274 3.0981,1.4063 1.3404,0.8789 2.2413,1.9995 0.9008,1.1206 1.3842,2.2851 l -4.2846,1.9996 q -0.5713,-0.9009 -1.2085,-1.5821 -0.6153,-0.7031 -1.3843,-1.1865 -0.7471,-0.4834 -1.6919,-0.7251 -0.9448,-0.2417 -2.1533,-0.2417 -1.5821,0 -2.8125,0.5054 -1.2085,0.5053 -2.1314,1.3843 -0.9009,0.8789 -1.5381,2.0434 -0.6372,1.1646 -1.0327,2.4829 -0.3735,1.2964 -0.5493,2.6807 -0.1758,1.3843 -0.1758,2.6806 0,2.0874 0.4615,4.1968 0.4833,2.1094 1.4941,3.8013 1.0107,1.6919 2.5708,2.7466 1.5601,1.0547 3.7134,1.0547 1.1645,0 2.0874,-0.2857 0.9448,-0.3076 1.7138,-0.8349 0.7911,-0.5494 1.4063,-1.2964 0.6372,-0.7471 1.1865,-1.648 l 4.3726,1.6699 q -0.6592,1.5381 -1.648,2.8125 -0.9668,1.2745 -2.3071,2.1753 -1.3184,0.9009 -3.0322,1.4063 -1.6919,0.5054 -3.7793,0.5054 z"
         style=""
         id="path4452" />
      <path
         d="m 2717.4326,2315.3066 0,-23.0053 4.6802,0 0,23.0053 -4.6802,0 z m 2.3291,-26.5869 q -0.5932,0 -1.1206,-0.2197 -0.5054,-0.2197 -0.9009,-0.5933 -0.3735,-0.3955 -0.5932,-0.9008 -0.2198,-0.5274 -0.2198,-1.1206 0,-0.5933 0.2198,-1.0987 0.2197,-0.5273 0.5932,-0.9009 0.3955,-0.3955 0.9009,-0.6152 0.5274,-0.2197 1.1206,-0.2197 0.5933,0 1.0987,0.2197 0.5273,0.2197 0.9008,0.6152 0.3955,0.3736 0.6153,0.9009 0.2197,0.5054 0.2197,1.0987 0,0.5932 -0.2197,1.1206 -0.2198,0.5053 -0.6153,0.9008 -0.3735,0.3736 -0.9008,0.5933 -0.5054,0.2197 -1.0987,0.2197 z"
         style=""
         id="path4454" />
      <path
         d="m 2735.5601,2315.856 q -1.3623,0 -2.3511,-0.4175 -0.9668,-0.3955 -1.604,-1.1426 -0.6153,-0.7471 -0.9009,-1.8018 -0.2856,-1.0766 -0.2856,-2.373 l 0,-13.7549 -3.5596,0 0,-4.0649 3.5596,0 0,-7.229 4.6801,-2.2632 0,9.4922 5.4493,0 0,4.0649 -5.4493,0 0,12.5464 q 0,0.5713 0.088,1.0547 0.1099,0.4834 0.3516,0.8349 0.2637,0.3516 0.7031,0.5494 0.4395,0.1757 1.1206,0.1757 1.6699,0 3.4058,-1.0766 l -0.5713,4.3506 q -0.9668,0.4834 -2.1094,0.769 -1.1426,0.2857 -2.5268,0.2857 z"
         style=""
         id="path4456" />
      <path
         d="m 2753.5117,2324.0298 -4.768,0 3.5376,-9.1187 -8.5914,-22.6098 4.6363,0 5.6689,15.0512 q 0.2417,0.6372 0.3736,1.0547 0.1318,0.4175 0.2636,0.9668 0.1319,-0.5493 0.2637,-0.9668 0.1318,-0.4175 0.3735,-1.0547 l 5.7129,-15.0512 4.6802,0 -12.1509,31.7285 z"
         style=""
         id="path4458" />
    </g>
  </g>
  <g
     inkscape:groupmode="layer"
     id="layer4"
     inkscape:label="Date"
     transform="translate(-2041.113,-1936.5323)">
    <g
       style="font-style:normal;font-variant:normal;font-weight:300;font-stretch:normal;font-size:15px;line-height:125%;font-family:Overpass;-inkscape-font-specification:'Overpass, Light';text-align:start;letter-spacing:0px;word-spacing:0px;writing-mode:lr-tb;text-anchor:start;fill:#222222;fill-opacity:1;stroke:none;stroke-width:1px;stroke-linecap:butt;stroke-linejoin:miter;stroke-opacity:1"
       id="text4408">
      <path
         d="m 2947.0922,1972.2123 0,-2.835 -5.1,0 0,-0.555 5.52,-7.11 0.63,0 0,6.765 1.59,0 0,0.9 -1.59,0 0,2.835 -1.05,0 z m 0,-3.735 0,-4.95 -3.735,4.95 3.735,0 z"
         style=""
         id="path4423" />
      <path
         d="m 2961.1967,1972.2123 -0.96,-2.715 -4.095,0 -0.915,2.715 -1.095,0 3.645,-10.5 0.81,0 3.675,10.5 -1.065,0 z m -1.275,-3.645 -1.44,-4.2 q -0.075,-0.195 -0.18,-0.495 -0.09,-0.3 -0.12,-0.45 -0.045,0.15 -0.135,0.45 -0.075,0.3 -0.15,0.495 l -1.44,4.2 3.465,0 z"
         style=""
         id="path4425" />
      <path
         d="m 2969.0168,1972.2123 0,-0.735 q -0.405,0.525 -0.855,0.72 -0.45,0.195 -1.05,0.195 -1.485,0 -2.16,-0.84 -0.66,-0.84 -0.66,-2.73 l 0,-4.275 1.05,0 0,4.68 q 0,1.2 0.495,1.71 0.51,0.51 1.275,0.51 0.405,0 0.75,-0.105 0.345,-0.105 0.6,-0.36 0.27,-0.255 0.405,-0.675 0.15,-0.42 0.15,-1.05 l 0,-4.71 1.05,0 0,7.665 -1.05,0 z"
         style=""
         id="path4427" />
      <path
         d="m 2974.455,1974.5823 q 0.93,-0.045 1.515,-0.24 0.6,-0.18 0.93,-0.465 0.345,-0.27 0.465,-0.63 0.12,-0.345 0.12,-0.735 l 0,-1.17 q -0.33,0.48 -0.825,0.765 -0.48,0.285 -1.275,0.285 -0.615,0 -1.185,-0.255 -0.57,-0.255 -1.005,-0.75 -0.435,-0.51 -0.69,-1.26 -0.255,-0.75 -0.255,-1.755 0,-0.945 0.225,-1.68 0.24,-0.75 0.66,-1.26 0.435,-0.525 1.02,-0.795 0.585,-0.27 1.29,-0.27 0.435,0 0.765,0.105 0.345,0.09 0.585,0.24 0.255,0.135 0.42,0.3 0.18,0.15 0.27,0.255 l 0,-0.72 1.05,0 0,7.545 q 0,0.945 -0.3,1.56 -0.3,0.63 -0.795,1.005 -0.495,0.39 -1.155,0.555 -0.645,0.165 -1.35,0.195 l -0.48,-0.825 z m 1.17,-3.135 q 0.48,0 1.005,-0.33 0.54,-0.345 0.855,-0.945 l 0,-3.69 q -0.165,-0.285 -0.405,-0.495 -0.225,-0.225 -0.48,-0.375 -0.255,-0.15 -0.51,-0.225 -0.255,-0.075 -0.465,-0.075 -1.14,0 -1.71,0.795 -0.57,0.78 -0.57,2.265 0,0.735 0.165,1.305 0.18,0.57 0.48,0.975 0.315,0.39 0.72,0.6 0.42,0.195 0.915,0.195 z"
         style=""
         id="path4429" />
      <path
         d="m 2984.4139,1972.2123 q 0,-0.99 0.285,-1.695 0.285,-0.72 0.735,-1.26 0.45,-0.54 1.02,-0.945 0.57,-0.405 1.14,-0.795 0.495,-0.33 0.945,-0.645 0.45,-0.33 0.795,-0.69 0.36,-0.36 0.57,-0.765 0.21,-0.42 0.21,-0.93 0,-0.855 -0.6,-1.425 -0.585,-0.585 -1.68,-0.585 -1.065,0 -1.605,0.48 -0.54,0.465 -0.735,1.215 l -0.93,-0.42 q 0.12,-0.465 0.405,-0.87 0.285,-0.405 0.72,-0.705 0.435,-0.3 0.99,-0.465 0.57,-0.18 1.245,-0.18 1.56,0 2.415,0.81 0.87,0.795 0.87,2.145 0,0.72 -0.285,1.275 -0.27,0.555 -0.72,1.02 -0.435,0.45 -0.99,0.84 -0.555,0.375 -1.125,0.735 -0.45,0.3 -0.87,0.6 -0.42,0.285 -0.78,0.63 -0.345,0.33 -0.585,0.735 -0.24,0.39 -0.33,0.885 l 5.775,0 0,1.005 -6.885,0 z"
         style=""
         id="path4431" />
      <path
         d="m 2996.993,1972.3923 q -1.035,0 -1.725,-0.48 -0.69,-0.48 -1.11,-1.245 -0.405,-0.78 -0.585,-1.74 -0.18,-0.975 -0.18,-1.965 0,-0.54 0.06,-1.155 0.06,-0.63 0.21,-1.23 0.165,-0.6 0.42,-1.155 0.27,-0.555 0.675,-0.975 0.405,-0.42 0.945,-0.66 0.555,-0.255 1.29,-0.255 1.035,0 1.725,0.495 0.69,0.48 1.095,1.26 0.42,0.78 0.6,1.755 0.18,0.96 0.18,1.92 0,0.555 -0.075,1.17 -0.06,0.615 -0.225,1.23 -0.15,0.6 -0.42,1.155 -0.255,0.54 -0.66,0.96 -0.405,0.42 -0.96,0.675 -0.54,0.24 -1.26,0.24 z m 0,-0.945 q 0.78,0 1.26,-0.42 0.495,-0.435 0.765,-1.095 0.27,-0.66 0.36,-1.455 0.09,-0.795 0.09,-1.515 0,-0.81 -0.105,-1.605 -0.105,-0.81 -0.39,-1.44 -0.285,-0.645 -0.765,-1.035 -0.48,-0.405 -1.215,-0.405 -0.795,0 -1.29,0.435 -0.48,0.435 -0.75,1.095 -0.27,0.66 -0.375,1.455 -0.09,0.78 -0.09,1.5 0,0.825 0.105,1.635 0.105,0.795 0.39,1.44 0.285,0.63 0.765,1.02 0.495,0.39 1.245,0.39 z"
         style=""
         id="path4433" />
      <path
         d="m 3004.0151,1972.2123 0,-8.595 -1.785,0 0,-0.6 q 0.795,0 1.35,-0.27 0.555,-0.285 0.81,-1.035 l 0.675,0 0,10.5 -1.05,0 z"
         style=""
         id="path4435" />
      <path
         d="m 3011.0199,1961.5323 q 0.855,0 1.485,0.315 0.63,0.315 1.035,0.87 0.42,0.54 0.63,1.29 0.21,0.735 0.21,1.59 0,1.125 -0.39,2.22 -0.375,1.095 -1.065,2.025 -0.675,0.915 -1.62,1.59 -0.945,0.675 -2.085,0.96 l 0,-0.825 q 0.765,-0.225 1.425,-0.675 0.66,-0.465 1.17,-1.065 0.525,-0.6 0.855,-1.29 0.345,-0.69 0.435,-1.365 -0.39,0.495 -1.035,0.765 -0.63,0.255 -1.455,0.255 -0.645,0 -1.215,-0.255 -0.555,-0.255 -0.975,-0.69 -0.405,-0.45 -0.645,-1.02 -0.24,-0.585 -0.24,-1.215 0,-0.735 0.27,-1.365 0.27,-0.645 0.735,-1.11 0.48,-0.465 1.11,-0.735 0.63,-0.27 1.365,-0.27 z m -0.075,5.82 q 0.525,0 0.96,-0.18 0.45,-0.195 0.765,-0.525 0.315,-0.33 0.495,-0.78 0.18,-0.45 0.18,-0.975 0,-0.51 -0.195,-0.945 -0.18,-0.435 -0.51,-0.765 -0.315,-0.33 -0.75,-0.51 -0.435,-0.195 -0.945,-0.195 -0.54,0 -0.99,0.195 -0.435,0.18 -0.75,0.51 -0.315,0.33 -0.495,0.765 -0.165,0.435 -0.165,0.945 0,0.525 0.165,0.975 0.165,0.45 0.48,0.78 0.315,0.33 0.75,0.525 0.45,0.18 1.005,0.18 z"
         style=""
         id="path4437" />
    </g>
  </g>
</svg>
