<?xml version="1.0" encoding="UTF-8" standalone="no"?>
<!-- Created with Inkscape (http://www.inkscape.org/) -->

<svg
   xmlns:dc="http://purl.org/dc/elements/1.1/"
   xmlns:cc="http://creativecommons.org/ns#"
   xmlns:rdf="http://www.w3.org/1999/02/22-rdf-syntax-ns#"
   xmlns:svg="http://www.w3.org/2000/svg"
   xmlns="http://www.w3.org/2000/svg"
   xmlns:sodipodi="http://sodipodi.sourceforge.net/DTD/sodipodi-0.dtd"
   xmlns:inkscape="http://www.inkscape.org/namespaces/inkscape"
   width="1598.0986"
   height="1215.6146"
   viewBox="0 0 1598.0987 1215.6146"
   id="svg2"
   version="1.1"
   inkscape:version="0.91 r13725"
   sodipodi:docname="MCO.svg"
   inkscape:export-filename="C:\Users\Paul Bogard\Dropbox\Documents\Websites\Flight Log\Images\Terminals\MCO.png"
   inkscape:export-xdpi="90"
   inkscape:export-ydpi="90">
  <defs
     id="defs4" />
  <sodipodi:namedview
     id="base"
     pagecolor="#ffffff"
     bordercolor="#666666"
     borderopacity="1.0"
     inkscape:pageopacity="1"
     inkscape:pageshadow="2"
     inkscape:zoom="0.5"
     inkscape:cx="138.34196"
     inkscape:cy="638.303"
     inkscape:document-units="px"
     inkscape:current-layer="layer4"
     showgrid="false"
     units="px"
     fit-margin-top="25"
     fit-margin-left="25"
     fit-margin-right="25"
     fit-margin-bottom="25"
     inkscape:window-width="1680"
     inkscape:window-height="987"
     inkscape:window-x="1672"
     inkscape:window-y="-8"
     inkscape:window-maximized="1"
     inkscape:object-paths="false" />
  <metadata
     id="metadata7">
    <rdf:RDF>
      <cc:Work
         rdf:about="">
        <dc:format>image/svg+xml</dc:format>
        <dc:type
           rdf:resource="http://purl.org/dc/dcmitype/StillImage" />
        <dc:title />
      </cc:Work>
    </rdf:RDF>
  </metadata>
  <g
     inkscape:groupmode="layer"
     id="layer2"
     inkscape:label="Terminal"
     style="display:inline"
     transform="translate(-2645.0377,-2023.6586)">
    <path
       style="fill:#dddddd;fill-opacity:1;fill-rule:evenodd;stroke:#222222;stroke-width:1.5;stroke-linecap:butt;stroke-linejoin:miter;stroke-miterlimit:4;stroke-dasharray:none;stroke-opacity:1"
       d="m 2756.7005,2049.6977 -22.6439,14.8857 51.6584,78.0238 8.3259,-5.3614 19.7425,28.8253 -6.8121,4.8567 2.1445,2.8384 -15.0749,9.5874 -3.9106,20.4994 9.6504,14.8226 c 0,0 -6.0552,4.2891 -6.2759,4.3837 l 4.4468,7.096 -29.8345,20.5309 -5.6137,-7.8213 -81.5658,55.3503 -0.3568,1.7838 11.6408,19.2231 2.0514,0.6243 83.0466,-55.8401 -5.7334,-8.2426 30.0237,-20.4363 5.9921,8.2628 3.6584,-2.523 4.9198,3.6584 4.2891,-2.6492 3.9738,5.3614 0.6307,-0.5677 2.3338,3.7215 13.435,1.1984 2.0184,-1.3246 17.661,25.8608 18.7963,3.5322 3.2799,-2.2707 4.0999,5.929 -11.1012,7.4429 -0.8831,-1.3246 1.5138,-2.8384 -3.9737,-5.5506 -5.4875,3.9737 7.9474,11.7951 3.2799,-2.0815 6.9383,9.9028 11.249,-7.5542 24.5303,34.2053 c 15.521,22.0328 41.7463,51.7368 41.7463,51.7368 11.2394,12.1314 33.8072,33.8969 33.8072,33.8969 14.183,13.6478 36.9294,32.8261 36.9294,32.8261 21.3192,17.3051 39.4273,29.2579 39.4273,29.2579 19.5351,15.7887 52.6287,33.4505 52.6287,33.4505 20.0703,11.2394 49.9529,24.4415 49.9529,24.4415 16.0563,7.4038 56.7675,21.7422 56.7675,21.7422 l 41.3142,14.318 -1.6548,4.4369 16.5469,6.1553 0,2.6758 -4.0142,0.089 0,4.7277 4.1034,0.089 0.045,5.6201 -4.1033,0.089 -0.045,4.9952 4.3709,0.089 0,2.5866 -16.7695,6.2888 1.293,3.2557 -31.6666,11.3289 c -11.7746,4.1924 -32.5585,12.3099 -32.5585,12.3099 -27.8309,11.061 -46.7416,20.3378 -46.7416,20.3378 -24.4412,11.3286 -50.2205,26.3146 -50.2205,26.3146 -14.4506,8.2957 -29.4363,19.8918 -29.4363,19.8918 l -17.3052,13.8262 c -18.3755,14.3614 -36.5727,29.8823 -36.5727,29.8823 -19.0891,16.1455 -42.103,40.23 -42.103,40.23 -17.0375,17.3051 -30.7747,34.7888 -30.7747,34.7888 -13.737,16.8591 -31.7553,42.8166 -31.7553,42.8166 -7.5821,10.5258 -27.7634,42.481 -27.7634,42.481 l -7.5059,11.1643 -1.5769,-0.9461 -7.1679,11.1923 -2.1923,-1.4058 -6.2888,9.2326 -2.453,-1.6503 -8.6526,13.6478 -3.2558,-1.8287 -0.6691,-3.5681 -33.5397,7.7606 0.9811,3.925 -5.9896,9.5953 -36.8171,-23.2422 6.0212,-10.0506 -99.2934,-63.8472 -16.6833,26.0815 70.5287,44.4561 3.3267,-5.1002 23.9739,15.204 3.1853,-5.0144 42.3687,26.9621 -6.856,11.0021 -4.2817,0.9811 7.8947,34.8332 4.0142,-0.5795 2.1406,1.1595 -2.6763,4.2817 8.4841,5.2061 -13.0235,20.8996 -8.6088,-5.2451 -73.1985,116.2787 21.6032,13.4035 73.1039,-116.3734 -7.7262,-4.8528 13.1127,-20.7837 7.7065,4.8917 2.6758,-4.1925 2.5422,1.3384 0.4908,4.0141 34.4315,-7.5823 -1.1595,-4.4152 6.615,-10.5966 19.9613,12.3193 -5.7901,8.9364 94.951,60.282 14.4309,-23.251 -37.0432,-23.7714 -1.0723,1.703 -46.234,-29.3299 1.0092,-1.6084 -11.1958,-6.9382 -5.897,9.102 -20.1072,-12.2706 6.688,-10.7134 4.4468,-0.5992 -8.2629,-34.5651 -3.5637,0.8515 -2.5861,-1.7976 5.4245,-9.1459 0.6307,0.3785 2.2077,-3.4061 -1.8292,-1.0722 6.749,-10.4705 -1.4241,-0.9131 7.463,-11.0973 -2.4599,-1.5138 15.1557,-23.6107 c 2.8545,-5.6197 19.5986,-29.5615 19.5986,-29.5615 16.6518,-23.8423 28.6361,-38.4757 29.0145,-38.9803 22.3286,-28.8884 57.5244,-62.192 57.5244,-62.192 28.3838,-26.9961 55.8845,-47.6847 55.8845,-47.6847 31.0329,-24.5992 64.9672,-42.1341 64.9672,-42.1341 39.6111,-20.3101 67.4652,-31.5311 67.4652,-31.5311 l 69.0868,-25.7789 2.4974,6.4671 12.5327,-4.5941 10.3921,0.045 0.1784,7.7158 -41.8355,0.3568 0.1784,45.8496 1.3827,0 c -1.6056,0.045 -1.3379,1.6503 -1.3379,1.6503 0,1.3825 1.1314,1.3965 1.1314,1.3965 l 16.2734,-0.063 c 2.0814,-0.063 1.8291,-1.1984 1.8291,-1.1984 -0.063,-1.64 -1.2615,-1.703 -1.2615,-1.703 l 39.8004,-0.3154 0,3.8476 10.0289,-0.1262 -0.063,-3.7845 38.5388,-0.6938 0.063,3.5322 11.2904,-0.2523 0.063,-3.0907 43.4587,-0.5046 0.063,3.5953 10.5335,0.063 0,-3.6584 51.6584,-0.5677 0,3.5953 10.3443,0 0.063,-3.8476 37.9711,-0.6307 0.063,3.2168 11.732,-0.1892 0.063,-3.0276 43.0172,-0.1892 -0.063,3.5952 10.7228,-0.063 -0.063,-3.4061 36.7096,-0.7884 -0.1261,-5.9606 4.4152,-0.063 -0.3784,-6.4336 2.0184,-3.0276 56.5152,32.1682 13.2457,-22.5808 -72.3357,-42.0538 0.089,-2.5866 25.5119,14.5398 2.9438,-4.9061 18.4647,10.2581 29.6147,15.2538 52.1828,29.4363 c 18.9999,10.615 31.4882,17.0377 31.4882,17.0377 24.6196,12.6666 44.9575,24.3518 46.6523,25.2438 22.568,13.1126 47.188,31.2206 47.188,31.2206 23.8168,18.2863 39.8728,33.8072 39.8728,33.8072 15.6994,15.1643 36.1267,37.5538 36.1267,37.5538 11.507,13.0234 27.028,34.6103 27.6525,35.5915 14.629,19.0892 29.6078,45.9117 29.6078,45.9117 6.6228,10.7228 12.8968,23.3979 12.8968,23.3979 l 2.4935,5.112 4.1708,6.2573 -6.2587,3.7584 8.452,13.6242 -13.025,8.0736 c -7.1905,4.4468 -3.4691,10.8804 -3.4691,10.8804 l 10.6282,18.1656 c 3.5952,6.0552 9.9973,2.6807 9.9973,2.6807 l 5.6137,-3.2168 2.05,3.0907 -3.0592,1.703 c -2.0184,1.1353 -1.8292,3.2168 -1.8292,3.2168 l 0.1893,6.9383 -9.7328,6.0546 -4.5148,0.081 0.5307,9.8313 -7.4931,0.2232 -0.4011,-9.9905 -109.4396,3.5529 c -5.528,-0.043 -10.6555,2.8785 -13.4364,7.6563 -2.7811,4.7777 -2.7891,10.6793 -0.021,15.4647 2.7678,4.7853 7.8877,7.7208 13.4158,7.6926 l 110.6409,-3.5923 -0.4908,-10.3916 7.5375,-0.2232 0.6736,10.5064 18.6436,-0.4011 0.5351,-0.8027 58.6499,31.8001 -0.4016,0.6692 10.5261,16.2793 5.1737,-3.4347 c 2.5868,3.6573 5.6639,1.6503 5.6639,1.6503 l 0.4465,0.7584 -10.2586,6.6899 58.061,95.364 c 2.8643,4.7283 8.0421,7.5599 13.5685,7.4197 5.5264,-0.1402 10.554,-3.2308 13.1748,-8.0983 2.6208,-4.8674 2.4329,-10.7659 -0.4923,-15.4568 l -59.0278,-95.2492 -10.3428,6.4761 -3.0774,-5.0845 12.0419,-7.2699 -9.6781,-16.19 -0.6243,-0.089 -1.8735,-67.1685 1.2043,0.044 8.4742,-15.5209 -8.146,-4.402 3.9422,-7.5374 8.1889,4.5433 53.735,-98.5009 c 2.5857,-4.8862 2.3557,-10.7832 -0.6032,-15.4529 -2.9588,-4.6697 -8.1929,-7.3966 -13.7154,-7.1452 -5.5224,0.2514 -10.4868,3.4426 -13.0092,8.3618 l -53.0825,98.4133 8.2682,4.23 -3.9737,7.4428 -8.2308,-4.4926 -2.2175,4.1664 -11.1741,6.6436 -3.7466,-2.4535 c -2.9436,-2.1408 -4.5492,-1.1595 -4.5492,-1.1595 l -8.4294,4.7725 -1.8736,-3.2114 c 4.7723,-2.4084 5.6197,-4.6829 5.6197,-4.6829 1.3826,-3.6572 -0.2676,-6.7347 -0.2676,-6.7347 l -10.8381,-17.5728 c -5.0845,-8.4741 -10.9716,-3.8806 -10.9716,-3.8806 l -6.1503,3.6776 -8.452,-13.5611 -4.916,2.9522 -4.9804,-7.3542 c -2.523,-2.523 -4.7937,-5.8029 -4.7937,-5.8029 -16.0211,-29.0145 -40.1512,-63.4042 -40.1512,-63.4042 -37.1078,-54.0561 -89.1121,-96.7836 -89.1121,-96.7836 -37.5539,-32.3802 -82.7949,-56.4117 -82.7949,-56.4117 l -55.3798,-29.6453 -63.9581,-36.5835 c -6.3075,-3.5953 -12.1734,-7.569 -12.1734,-7.569 -5.6137,-3.8476 -14.3181,-9.0197 -14.3181,-9.0197 l -15.7056,-8.9567 3.1537,-5.7398 -29.1406,-16.9672 c -3.5953,-11.2904 -0.4416,-19.8686 -0.4416,-19.8686 l 29.4561,-17.4718 -4.3586,-7.188 42.9058,-25.8687 103.2956,-61.1921 c 35.1454,-20.8731 64.2252,-44.2441 64.2252,-44.2441 29.4364,-22.8356 54.4125,-50.3098 54.4125,-50.3098 l 28.7233,-35.145 c 13.737,-18.3756 29.4363,-41.2112 29.4363,-41.2112 17.4835,-29.0797 31.7558,-58.4271 31.7558,-58.4271 1.6948,-4.0141 8.385,-13.0236 8.385,-13.0236 3.2113,-4.7276 6.0449,-10.6182 6.0449,-10.6182 l 8.5782,-17.1564 4.9563,2.2633 20.6058,-35.8148 16.6666,9.2361 1.3245,-2.05 5.9922,3.3745 1.4192,-0.7253 65.4718,114.1657 30.8412,-18.3863 -66.7624,-113.2197 1.0407,-0.6623 -0.2523,-1.8607 1.1669,0.032 -0.7253,-62.2866 -17.8818,0.2838 0,0.82 -9.0513,-0.063 -0.032,-3.5322 -9.1459,-5.1721 -2.7674,1.6611 -5.0849,-8.1623 0.8254,-0.4903 -8.5856,-14.0938 -54.4574,31.9564 0,1.9622 -130.8136,1.2492 -0.045,35.3235 130.1005,-0.6244 5.0845,2.9882 -1.4271,2.1411 15.8777,9.3661 8.1174,-2.2746 -23.2816,40.8987 8.6487,4.6326 c -4.0368,6.5598 -9.209,18.0394 -9.209,18.0394 -4.2891,10.7228 -11.4377,24.7387 -11.4377,24.7387 -16.7699,31.9342 -30.5071,55.1266 -30.5071,55.1266 -12.1315,19.4459 -41.568,57.9812 -41.568,57.9812 -29.7933,37.1079 -53.8778,55.3049 -53.8778,55.3049 -33.5398,29.6149 -84.2549,60.5363 -84.2549,60.5363 l -87.2795,50.5196 -45.6264,25.2887 -0.9368,-1.4276 23.5048,-13.6479 -8.5634,-15.1193 3.8357,-2.0962 -5.8428,-9.0094 -46.9199,0.4903 0.1119,7.0728 -43.3326,0.2523 0,-2.9015 -9.7766,0.1893 0.063,2.9014 -39.8634,0.3154 -0.1262,-3.1538 -11.7319,0.1893 0.063,3.406 -42.0548,0.1139 0,-2.6315 -9.857,-0.045 -0.044,2.6763 -52.2719,0.3567 0.044,-2.319 -10.0353,0.1336 -0.044,2.2303 -39.4273,0.2675 -0.044,-2.3194 -11.9084,-0.1336 0,2.765 -42.4095,0.3557 0,-2.3022 -10.3128,0 0,2.4599 -31.7267,0.4731 0.063,-2.8384 -6.3075,0 -0.032,1.0408 c -1.0407,-1.4192 -2.3653,-1.4192 -2.3653,-1.4192 l -14.9488,0.095 c -2.8383,0.063 -2.3653,3.2168 -2.3653,3.2168 l 0.5973,45.9728 63.0656,-0.1784 0.089,7.4483 -31.5331,0.4016 -13.1388,-4.4773 -1.2615,4.3521 -47.3269,-16.4216 c -76.7831,-27.3339 -106.685,-47.634 -106.685,-47.634 -59.8411,-31.5719 -125.7745,-96.1593 -125.7745,-96.1593 -47.8594,-44.4721 -90.3609,-109.9851 -90.3609,-109.9851 l -7.7981,-11.9344 6.2444,-3.9107 0.2523,-1.703 -13.5611,-19.8056 -1.8292,1.1985 -5.109,-8.1998 1.5768,-1.1353 -10.4167,-15.9698 7.225,-4.8169 3.925,0.9368 3.0773,-2.0071 3.9698,-19.981 -2.8546,-4.3709 -3.4341,-0.4908 -3.6678,-5.0218 12.1104,-8.2313 -4.0998,-5.3929 11.3535,-7.6636 2.1445,3.2168 1.4507,0.473 2.7123,2.8069 c 1.6084,1.8292 2.8068,0.5361 2.8068,0.5361 1.3246,-0.7569 0.5677,-2.6491 0.5677,-2.6491 l -1.8292,-3.4376 26.9015,-17.4087 3.7815,5.692 2.5078,0.4371 21.3528,-14.731 0.4263,-2.4678 -3.8161,-5.5506 42.0395,-27.7845 c 1.4823,-0.8515 0.2208,-2.2392 0.2208,-2.2392 l -3.1853,-4.7306 7.1275,-4.8568 -1.7031,-2.5861 2.2707,-1.3876 c 1.1354,-0.7569 -0.032,-1.8607 -0.032,-1.8607 l -4.4468,-6.0552 -5.2352,3.5637 -0.3785,-0.7253 c -0.7884,-1.3246 -2.0499,-0.3154 -2.0499,-0.3154 l -3.1537,2.2076 -4.6045,-6.8121 c -0.7885,-1.2615 -1.9869,-0.3154 -1.9869,-0.3154 l -8.4205,5.3929 -1.293,-1.9553 c -0.9146,-1.4507 -1.9869,-0.3154 -1.9869,-0.3154 l -13.2773,8.7044 c -0.9146,-1.4823 -2.0184,-0.5361 -2.0184,-0.5361 l -1.1038,0.7253 -0.5677,-0.8515 c -1.0407,-1.5769 -2.3337,-0.5677 -2.3337,-0.5677 l -2.8384,2.0184 c -1.9869,1.2615 0.1261,3.4376 0.1261,3.4376 l -8.1997,5.3614 c -1.3877,0.7884 -0.5992,2.1761 -0.5992,2.1761 l 2.6491,3.4691 -58.5183,37.8391 -11.998,-19.0447 -13.0265,8.5802 -2.0815,-3.3115 -6.4336,4.4468 2.7201,4.2448 -25.9574,18.1971 -4.9952,-7.4039 -8.2067,5.6201 -20.1391,-28.8263 8.8305,-5.866 z m 96.8418,193.6136 17.2161,23.8173 1.9178,0.1335 0.7584,-0.5795 5.7576,8.5713 -0.6939,0.6307 -3.8475,-0.7569 0.6938,-4.1629 -4.3522,-0.7569 -0.7569,3.8476 -4.7937,-0.8831 -1.648,-2.2023 0.6266,-0.5076 -12.8852,-18.9445 0.8922,-0.6241 -3.2111,-4.5939 z"
       id="path4197"
       inkscape:connector-curvature="0"
       sodipodi:nodetypes="ccccccccccccccccccccccccccccccccccccccccccccccccccccccccccccccccccccccccccccccccccccccccccccccccccccccccccccccccccccccccccccccccccccccccccccccccccccccccccccccccccccccccccccccccccccccccccccccccccccccccccccccccccccccccccccccccccccscccccccccccccccssccccccccccccccsscccccccccccccccccccccccccccccccccccccccccccccccccccccccccccccccccccccccccccccccccccccccccccccccccccccccccccccccccccccccccccccccccccccccccccccccccccccccccccccccccccccccccccccccccccccccccccccccccccccccccccccccccccccccccc" />
  </g>
  <g
     inkscape:groupmode="layer"
     id="layer4"
     inkscape:label="Label">
    <g
       id="text4204"
       style="font-style:normal;font-variant:normal;font-weight:normal;font-stretch:normal;font-size:45.00000381px;line-height:110.00000238%;font-family:Overpass;-inkscape-font-specification:'Overpass, Normal';text-align:start;letter-spacing:0px;word-spacing:0px;writing-mode:lr-tb;text-anchor:start;fill:#222222;fill-opacity:1;stroke:none;stroke-width:1px;stroke-linecap:butt;stroke-linejoin:miter;stroke-opacity:1"
       transform="translate(65.661251,204.93901)">
      <path
         inkscape:connector-curvature="0"
         id="path4141"
         d="m 687.90949,905.67566 q -2.52686,0 -4.52637,-0.65918 -1.99951,-0.68115 -3.5376,-1.82373 -1.51611,-1.16455 -2.59277,-2.72461 -1.07666,-1.58203 -1.75782,-3.38379 -0.68115,-1.82373 -1.01074,-3.7793 -0.30762,-1.97754 -0.30762,-3.9331 0,-1.9336 0.30762,-3.88916 0.32959,-1.97754 1.01074,-3.7793 0.68116,-1.82373 1.75782,-3.38379 1.07666,-1.58203 2.59277,-2.72461 1.53809,-1.16455 3.5376,-1.82373 1.99951,-0.68115 4.52637,-0.68115 2.52685,0 4.52636,0.68115 1.99952,0.65918 3.51563,1.82373 1.53809,1.14258 2.61475,2.72461 1.07666,1.56006 1.75781,3.38379 0.68115,1.80176 0.98877,3.7793 0.30761,1.95556 0.30761,3.88916 0,1.95556 -0.30761,3.9331 -0.30762,1.95557 -0.98877,3.7793 -0.68115,1.80176 -1.75781,3.38379 -1.07666,1.56006 -2.61475,2.72461 -1.51611,1.14258 -3.51563,1.82373 -1.99951,0.65918 -4.52636,0.65918 z m 0,-4.5044 q 1.64795,0 2.94433,-0.50537 1.29639,-0.52734 2.26319,-1.40625 0.98877,-0.8789 1.66992,-2.04345 0.70312,-1.18653 1.14258,-2.48291 0.43945,-1.31836 0.6372,-2.68067 0.19776,-1.38428 0.19776,-2.68066 0,-1.36231 -0.19776,-2.76856 -0.19775,-1.42822 -0.6372,-2.72461 -0.43946,-1.31836 -1.14258,-2.46094 -0.68115,-1.14257 -1.66992,-1.97753 -0.9668,-0.85694 -2.26319,-1.34034 -1.29638,-0.50537 -2.94433,-0.50537 -1.64795,0 -2.94434,0.52735 -1.29639,0.50537 -2.28516,1.38427 -0.98877,0.87891 -1.69189,2.06543 -0.68115,1.16455 -1.12061,2.48291 -0.43945,1.29639 -0.6372,2.68067 -0.19776,1.3623 -0.19776,2.63672 0,2.06543 0.46143,4.1748 0.46142,2.0874 1.51611,3.80127 1.05469,1.6919 2.74658,2.76856 1.6919,1.05468 4.15284,1.05468 z" />
      <path
         inkscape:connector-curvature="0"
         id="path4143"
         d="m 707.94855,905.12634 0,-23.00537 4.68018,0 0,2.79053 q 0.81299,-1.75782 2.10937,-2.52686 1.29639,-0.79101 3.01026,-0.79101 2.28515,0 3.86718,1.38427 l -0.68115,4.32862 q -0.6372,-0.43946 -1.51611,-0.76905 -0.85693,-0.35156 -2.10938,-0.35156 -0.79101,0 -1.62597,0.28565 -0.81299,0.26367 -1.49414,0.96679 -0.68116,0.68116 -1.12061,1.84571 -0.43945,1.14257 -0.43945,2.92236 l 0,12.91992 -4.68018,0 z" />
      <path
         inkscape:connector-curvature="0"
         id="path4145"
         d="m 726.36164,905.12634 0,-30.27832 4.68018,-2.21924 0,32.49756 -4.68018,0 z" />
      <path
         inkscape:connector-curvature="0"
         id="path4147"
         d="m 755.62922,905.12634 -4.48242,0 0,-1.97754 q -0.43945,0.46143 -1.05469,0.92286 -0.61523,0.43945 -1.40625,0.81298 -0.76904,0.35157 -1.73584,0.57129 -0.9668,0.21973 -2.10937,0.21973 -1.75782,0 -3.25196,-0.4834 -1.49414,-0.4834 -2.59277,-1.45019 -1.09863,-0.98877 -1.73584,-2.417 -0.61524,-1.45019 -0.61524,-3.36181 0,-1.97754 0.74707,-3.40577 0.74707,-1.45019 1.97754,-2.37304 1.23047,-0.94483 2.8125,-1.38428 1.60401,-0.43945 3.2959,-0.43945 1.58203,0 3.03223,0.35156 1.47217,0.32959 2.63672,1.01074 l 0,-1.27441 q 0,-1.29639 -0.30762,-2.19727 -0.28564,-0.90088 -0.90088,-1.45019 -0.59326,-0.57129 -1.51611,-0.81299 -0.92285,-0.26367 -2.19727,-0.26367 -2.15332,0 -3.73535,0.57128 -1.56006,0.57129 -2.83447,1.51612 l -1.38428,-3.84522 q 0.70313,-0.4834 1.604,-0.90088 0.90088,-0.43945 1.97754,-0.76904 1.07666,-0.32959 2.32911,-0.50537 1.25244,-0.19775 2.68066,-0.19775 0.9668,0 1.99951,0.10986 1.03272,0.10986 1.99951,0.43945 0.98877,0.30762 1.84571,0.90088 0.8789,0.59326 1.51611,1.56006 0.65918,0.94482 1.03272,2.3291 0.37353,1.38428 0.37353,3.2959 l 0,14.89746 z m -9.93164,-3.60351 q 1.77978,0 3.14209,-0.7251 1.38428,-0.7251 2.30713,-1.73584 l 0,-3.51563 q -0.9668,-0.50537 -2.26319,-0.81298 -1.29638,-0.30762 -2.65869,-0.30762 -1.05468,0 -1.97754,0.19775 -0.92285,0.19776 -1.62597,0.63721 -0.68116,0.41748 -1.07666,1.09863 -0.39551,0.65918 -0.39551,1.60401 0,1.64795 1.14258,2.61474 1.16455,0.94483 3.40576,0.94483 z" />
      <path
         inkscape:connector-curvature="0"
         id="path4149"
         d="m 776.2176,905.12634 0,-13.73291 q 0,-1.45019 -0.35156,-2.46094 -0.35157,-1.03271 -0.9668,-1.66992 -0.61523,-0.65918 -1.4502,-0.94482 -0.83496,-0.30762 -1.82373,-0.30762 -1.05468,0 -1.95556,0.28564 -0.90088,0.26368 -1.56006,0.87891 -0.65918,0.61524 -1.05469,1.64795 -0.37353,1.01074 -0.37353,2.48291 l 0,13.8208 -4.68018,0 0,-23.00537 4.68018,0 0,2.21924 q 1.1206,-1.42822 2.5708,-2.0874 1.45019,-0.65918 3.36181,-0.65918 1.80176,0 3.31787,0.52734 1.51612,0.50537 2.61475,1.66992 1.12061,1.16455 1.73584,3.03223 0.61524,1.86767 0.61524,4.57031 l 0,13.73291 -4.68018,0 z" />
      <path
         inkscape:connector-curvature="0"
         id="path4151"
         d="m 795.81721,905.67566 q -2.17529,0 -3.95508,-0.81299 -1.75781,-0.83496 -3.01025,-2.37305 -1.25245,-1.56005 -1.9336,-3.80127 -0.65918,-2.24121 -0.65918,-5.07568 0,-2.83447 0.70313,-5.05371 0.70312,-2.24121 1.95556,-3.7793 1.27442,-1.56006 3.03223,-2.37305 1.75781,-0.81298 3.86719,-0.81298 1.88965,0 3.20801,0.61523 1.34033,0.61523 2.21923,1.53809 l 0,-8.94288 4.68018,-2.17529 0,32.49756 -4.68018,0 0,-1.62597 q -0.92285,1.03271 -2.21923,1.604 -1.27442,0.57129 -3.20801,0.57129 z m 0.65918,-4.41651 q 1.58203,0 2.79053,-0.68115 1.20849,-0.68115 1.97753,-1.93359 l 0,-10.1294 q -0.26367,-0.43945 -0.70312,-0.8789 -0.43945,-0.43946 -1.05469,-0.79102 -0.59326,-0.37353 -1.3623,-0.59326 -0.74707,-0.2417 -1.64795,-0.2417 -2.63672,0 -4.08692,1.95557 -1.45019,1.93359 -1.45019,5.64697 0,1.66992 0.37353,3.07617 0.39551,1.38428 1.09864,2.41699 0.72509,1.01075 1.73584,1.58204 1.03271,0.57128 2.3291,0.57128 z" />
      <path
         inkscape:connector-curvature="0"
         id="path4153"
         d="m 822.07454,905.67566 q -2.41699,0 -4.37256,-0.81299 -1.93359,-0.81299 -3.2959,-2.35107 -1.3623,-1.56006 -2.10937,-3.7793 -0.7251,-2.24121 -0.7251,-5.07568 0,-2.83448 0.7251,-5.07569 0.74707,-2.24121 2.10937,-3.7793 1.36231,-1.56005 3.2959,-2.37304 1.95557,-0.83496 4.37256,-0.83496 2.39502,0 4.35059,0.83496 1.95556,0.81299 3.31787,2.37304 1.3623,1.53809 2.10937,3.7793 0.74707,2.24121 0.74707,5.07569 0,2.83447 -0.74707,5.07568 -0.74707,2.21924 -2.10937,3.7793 -1.36231,1.53808 -3.31787,2.35107 -1.95557,0.81299 -4.35059,0.81299 z m 0,-4.41651 q 1.34033,0 2.41699,-0.52734 1.09864,-0.52734 1.84571,-1.49414 0.76904,-0.98877 1.16455,-2.39502 0.41748,-1.40625 0.41748,-3.18603 0,-1.77979 -0.41748,-3.18604 -0.39551,-1.42822 -1.16455,-2.41699 -0.74707,-0.98877 -1.84571,-1.51612 -1.07666,-0.52734 -2.41699,-0.52734 -1.34033,0 -2.41699,0.52734 -1.07666,0.52735 -1.84571,1.51612 -0.74707,0.98877 -1.16455,2.41699 -0.3955,1.40625 -0.3955,3.18604 0,1.77978 0.3955,3.18603 0.41748,1.40625 1.16455,2.39502 0.76905,0.9668 1.84571,1.49414 1.07666,0.52734 2.41699,0.52734 z" />
    </g>
    <g
       id="text4208"
       style="font-style:normal;font-variant:normal;font-weight:bold;font-stretch:normal;font-size:125.00000763px;line-height:125%;font-family:Overpass;-inkscape-font-specification:'Overpass, Bold';text-align:start;letter-spacing:0px;word-spacing:0px;writing-mode:lr-tb;text-anchor:start;fill:#dddddd;fill-opacity:1;stroke:#222222;stroke-width:0.25000002;stroke-linecap:butt;stroke-linejoin:miter;stroke-opacity:1;stroke-miterlimit:4;stroke-dasharray:none"
       transform="translate(65.661251,204.93901)">
      <path
         inkscape:connector-curvature="0"
         id="path4156"
         d="m 687.50055,856.10278 0,-44.98291 q 0,-0.73242 0,-1.70898 0.061,-0.97657 0.061,-1.95313 0.061,-1.0376 0.061,-1.89209 0.061,-0.85449 0.12207,-1.34277 -0.67138,2.07519 -1.34277,3.72314 -0.61035,1.64795 -1.28174,3.17383 l -21.24023,46.50879 -21.36231,-46.50879 q -0.67139,-1.52588 -1.34277,-3.17383 -0.61035,-1.64795 -1.28174,-3.72314 0.061,0.48828 0.061,1.34277 0.061,0.85449 0.061,1.89209 0.061,0.97656 0.061,1.95313 0.061,0.97656 0.061,1.70898 l 0,44.98291 -16.90674,0 0,-87.52442 17.15088,0 21.48438,48.27882 q 0.67138,1.58691 1.2207,3.05175 0.54932,1.40381 1.0376,2.92969 0.48828,-1.52588 1.0376,-2.92969 0.54931,-1.46484 1.2207,-3.05175 l 21.85059,-48.27882 16.11328,0 0,87.52442 -16.84571,0 z"
         style="stroke:#222222;stroke-opacity:1;stroke-width:0.25000002;stroke-miterlimit:4;stroke-dasharray:none" />
      <path
         inkscape:connector-curvature="0"
         id="path4158"
         d="m 760.62068,857.50659 q -6.83594,0 -12.20704,-1.83105 -5.37109,-1.83106 -9.46044,-5.06592 -4.08936,-3.23486 -6.95801,-7.56836 -2.86866,-4.3335 -4.69971,-9.33838 -1.77002,-5.06592 -2.62451,-10.49805 -0.79346,-5.43213 -0.79346,-10.86426 0,-5.00488 0.85449,-10.2539 0.8545,-5.31006 2.62451,-10.31495 1.83106,-5.00488 4.69971,-9.46045 2.92969,-4.45556 6.95801,-7.8125 4.08936,-3.35693 9.46045,-5.31005 5.37109,-1.95313 12.146,-1.95313 6.28662,0 11.41357,1.70898 5.12696,1.70899 9.03321,4.51661 3.90625,2.74658 6.59179,6.28662 2.74658,3.54004 4.21143,7.20215 l -15.13672,6.89697 q -1.58692,-2.44141 -3.23486,-4.39453 -1.64795,-1.95313 -3.54004,-3.23486 -1.89209,-1.34278 -4.21143,-2.01417 -2.2583,-0.73242 -5.12695,-0.73242 -3.66211,0 -6.53077,1.28174 -2.86865,1.2207 -5.00488,3.35693 -2.13623,2.13624 -3.60107,5.00489 -1.46485,2.86865 -2.38037,6.10351 -0.91553,3.17383 -1.34278,6.5918 -0.36621,3.35694 -0.36621,6.53076 0,5.12696 1.09863,10.25391 1.09864,5.12695 3.41797,9.27734 2.31934,4.1504 5.92041,6.77491 3.66211,2.56347 8.78907,2.56347 2.68554,0 4.94384,-0.79345 2.25831,-0.8545 4.1504,-2.31934 1.95312,-1.46484 3.60107,-3.54004 1.70898,-2.07519 3.17383,-4.57764 l 15.50293,5.85938 q -2.0752,4.82178 -5.00488,8.8501 -2.92969,3.96728 -6.83594,6.83594 -3.84522,2.80761 -8.72803,4.39453 -4.88281,1.58691 -10.80322,1.58691 z"
         style="stroke:#222222;stroke-opacity:1;stroke-width:0.25000002;stroke-miterlimit:4;stroke-dasharray:none" />
      <path
         inkscape:connector-curvature="0"
         id="path4160"
         d="m 845.03231,857.62866 q -7.08008,0 -12.69532,-1.83105 -5.61523,-1.89209 -9.94873,-5.06592 -4.27246,-3.23486 -7.32422,-7.56836 -3.05176,-4.39453 -5.00488,-9.39942 -1.89209,-5.06591 -2.80762,-10.49804 -0.85449,-5.49317 -0.85449,-10.9253 0,-5.37109 0.85449,-10.80322 0.91553,-5.49316 2.80762,-10.49805 1.95312,-5.06592 5.00488,-9.39941 3.05176,-4.39453 7.32422,-7.56836 4.3335,-3.23487 9.94873,-5.06592 5.61524,-1.89209 12.69532,-1.89209 7.08007,0 12.63427,1.89209 5.61524,1.83105 9.8877,5.06592 4.27246,3.17383 7.32422,7.56836 3.05176,4.33349 4.94385,9.39941 1.95312,5.00489 2.80761,10.49805 0.91553,5.43213 0.91553,10.80322 0,5.43213 -0.91553,10.9253 -0.85449,5.43213 -2.80761,10.49804 -1.89209,5.00489 -4.94385,9.39942 -3.05176,4.3335 -7.32422,7.56836 -4.27246,3.17383 -9.8877,5.06592 -5.5542,1.83105 -12.63427,1.83105 z m 0,-16.29639 q 5.85937,0 9.82666,-2.74658 4.02832,-2.74658 6.46972,-7.01904 2.50244,-4.27246 3.60108,-9.33838 1.09863,-5.12695 1.09863,-9.8877 0,-3.35693 -0.48828,-6.7749 -0.42725,-3.479 -1.46484,-6.65283 -1.0376,-3.23487 -2.68555,-6.04248 -1.64795,-2.86866 -3.96729,-4.94385 -2.31933,-2.13623 -5.43213,-3.35693 -3.05175,-1.22071 -6.958,-1.22071 -3.96729,0 -7.08008,1.28174 -3.05176,1.28174 -5.43213,3.479 -2.31934,2.13624 -3.96729,5.00489 -1.64795,2.86865 -2.68554,6.10351 -1.0376,3.23487 -1.52588,6.5918 -0.42725,3.35694 -0.42725,6.53076 0,5.00489 1.09863,10.19288 1.09864,5.12695 3.54004,9.33837 2.50244,4.1504 6.53076,6.83594 4.02833,2.62451 9.94874,2.62451 z"
         style="stroke:#222222;stroke-opacity:1;stroke-width:0.25000002;stroke-miterlimit:4;stroke-dasharray:none" />
    </g>
  </g>
</svg>
