<?xml version="1.0" encoding="UTF-8" standalone="no"?>
<!-- Created with Inkscape (http://www.inkscape.org/) -->

<svg
   xmlns:dc="http://purl.org/dc/elements/1.1/"
   xmlns:cc="http://creativecommons.org/ns#"
   xmlns:rdf="http://www.w3.org/1999/02/22-rdf-syntax-ns#"
   xmlns:svg="http://www.w3.org/2000/svg"
   xmlns="http://www.w3.org/2000/svg"
   xmlns:sodipodi="http://sodipodi.sourceforge.net/DTD/sodipodi-0.dtd"
   xmlns:inkscape="http://www.inkscape.org/namespaces/inkscape"
   width="751.01648"
   height="594.51611"
   viewBox="0 0 751.01648 594.51611"
   id="svg2"
   version="1.1"
   inkscape:version="0.91 r13725"
   sodipodi:docname="MDW.svg"
   inkscape:export-filename="C:\Users\Paul Bogard\Dropbox\Documents\Projects\Terminal Silhouettes\PNG\MDW.png"
   inkscape:export-xdpi="90"
   inkscape:export-ydpi="90">
  <defs
     id="defs4" />
  <sodipodi:namedview
     id="base"
     pagecolor="#ffffff"
     bordercolor="#666666"
     borderopacity="1.0"
     inkscape:pageopacity="1"
     inkscape:pageshadow="2"
     inkscape:zoom="0.7"
     inkscape:cx="662.2611"
     inkscape:cy="343.14832"
     inkscape:document-units="px"
     inkscape:current-layer="layer3"
     showgrid="false"
     units="px"
     fit-margin-top="25"
     fit-margin-left="25"
     fit-margin-right="25"
     fit-margin-bottom="25"
     inkscape:window-width="1680"
     inkscape:window-height="987"
     inkscape:window-x="1672"
     inkscape:window-y="-8"
     inkscape:window-maximized="1" />
  <metadata
     id="metadata7">
    <rdf:RDF>
      <cc:Work
         rdf:about="">
        <dc:format>image/svg+xml</dc:format>
        <dc:type
           rdf:resource="http://purl.org/dc/dcmitype/StillImage" />
        <dc:title />
      </cc:Work>
    </rdf:RDF>
  </metadata>
  <g
     inkscape:groupmode="layer"
     id="layer2"
     inkscape:label="Terminal"
     transform="translate(-112.43864,-525.55434)">
    <path
       style="fill:#dddddd;fill-opacity:1;fill-rule:evenodd;stroke:#222222;stroke-width:1.5;stroke-linecap:butt;stroke-linejoin:miter;stroke-miterlimit:4;stroke-dasharray:none;stroke-opacity:1"
       d="m 613.88616,1069.8509 8.27628,8.1074 -2.87137,3.0402 9.2897,8.783 3.04027,-3.2091 7.60066,7.4317 26.01115,-27.1935 -2.19575,-1.8579 65.02787,-66.88583 60.29858,-1.52014 -0.50671,-28.3758 -17.22817,-16.38362 16.21475,-16.72148 -3.71588,-140.18996 2.02684,0 -0.84452,-81.58042 4.22259,0.1689 10.55648,-11.56989 38.59444,-0.33781 -0.5067,-17.56597 -38.76336,0.84452 -2.87136,-2.36465 -0.84452,-53.54244 -2.02684,0 0,-3.04026 -10.64093,0 -0.84451,-36.31426 -2.53355,-0.0845 -1.01343,-38.17221 -19.84617,0.33781 1.52014,65.70349 3.96923,-0.1689 0.1689,23.89985 -37.15878,38.34112 -102.52447,2.618 -171.69048,181.65579 -1.94239,-1.52013 -25.41999,27.44683 7.85402,7.1784 -2.53356,3.12472 9.37415,8.61409 2.78691,-2.87137 7.34731,7.17839 25.75779,-26.94011 -1.85794,-1.85794 162.82304,-173.71732 17.73488,-0.0845 0,-6.75614 38.0033,-0.67562 74.65538,71.69957 0.84452,34.96304 -10.04976,0.1689 1.52013,56.41379 -2.61801,0 0.67562,30.14929 6.08052,0.0844 0.33781,19.00165 -121.52612,129.04232 -1.77349,-1.7735 z"
       id="path3348"
       inkscape:connector-curvature="0"
       sodipodi:nodetypes="cccccccccccccccccc" />
  </g>
  <g
     inkscape:groupmode="layer"
     id="layer3"
     inkscape:label="Label"
     transform="translate(286.21227,7.6293945e-6)">
    <g
       id="g4183"
       transform="translate(-20,0)">
      <g
         style="font-style:normal;font-variant:normal;font-weight:bold;font-stretch:normal;font-size:125px;line-height:110.00000238%;font-family:Overpass;-inkscape-font-specification:'Overpass, Bold';text-align:center;letter-spacing:0px;word-spacing:0px;writing-mode:lr-tb;text-anchor:middle;fill:#dddddd;fill-opacity:1;stroke:#222222;stroke-width:0.25;stroke-linecap:butt;stroke-linejoin:miter;stroke-miterlimit:4;stroke-dasharray:none;stroke-opacity:1"
         id="text4151">
        <path
           d="m -172.31335,511.4838 0,-44.98291 q 0,-0.73243 0,-1.70899 0.061,-0.97656 0.061,-1.95312 0.061,-1.0376 0.061,-1.89209 0.061,-0.8545 0.12207,-1.34278 -0.67138,2.0752 -1.34277,3.72315 -0.61035,1.64795 -1.28174,3.17383 l -21.24023,46.50878 -21.36231,-46.50878 q -0.67138,-1.52588 -1.34277,-3.17383 -0.61035,-1.64795 -1.28174,-3.72315 0.061,0.48828 0.061,1.34278 0.061,0.85449 0.061,1.89209 0.061,0.97656 0.061,1.95312 0.061,0.97656 0.061,1.70899 l 0,44.98291 -16.90674,0 0,-87.52442 17.15088,0 21.48438,48.27881 q 0.67138,1.58691 1.2207,3.05176 0.54932,1.40381 1.0376,2.92969 0.48828,-1.52588 1.0376,-2.92969 0.54931,-1.46485 1.2207,-3.05176 l 21.85059,-48.27881 16.11328,0 0,87.52442 -16.84571,0 z"
           style=""
           id="path3349" />
        <path
           d="m -132.8236,423.95938 29.54101,0 q 7.629399,0 13.732915,1.77002 6.103516,1.70899 10.803223,4.76074 4.760742,3.05176 8.117675,7.26319 3.356934,4.15039 5.493165,9.0332 2.197265,4.82178 3.173828,10.19287 1.037597,5.37109 1.037597,10.74219 0,5.00488 -0.976562,10.2539 -0.915528,5.18799 -2.990723,10.07081 -2.075195,4.82177 -5.432129,9.09423 -3.295898,4.27246 -8.117676,7.50733 -4.760742,3.17383 -11.047363,5.00488 -6.286621,1.83106 -14.34326,1.83106 l -28.9917,0 0,-87.52442 z m 31.00586,71.5332 q 6.53076,0 10.986327,-2.50244 4.455566,-2.56347 7.202148,-6.53076 2.746582,-4.02832 3.967285,-8.97217 1.220703,-4.94384 1.220703,-9.76562 0,-5.12695 -1.281738,-10.0708 -1.281738,-5.00489 -3.967285,-8.91114 -2.624512,-3.90625 -6.835937,-6.28662 -4.150391,-2.4414 -9.887693,-2.4414 l -15.50293,0 0,55.48095 14.09912,0 z"
           style=""
           id="path3351" />
        <path
           d="m 50.648079,423.95938 -18.920899,87.52442 -15.74707,0 -13.2446287,-51.51368 q -0.5493164,-2.07519 -0.7934571,-3.66211 -0.2441406,-1.64795 -0.4272461,-2.92968 -0.1831054,1.28173 -0.4882812,2.92968 -0.30517579,1.58692 -0.79345704,3.54004 l -12.87841786,51.63575 -15.74707,0 -18.737793,-87.52442 17.395019,0 9.765625,49.25537 q 0.488281,2.2583 0.671387,3.72315 0.24414,1.46484 0.427246,2.80761 0.183105,-1.34277 0.427246,-2.80761 0.244141,-1.52588 0.793457,-3.84522 l 12.0239259,-49.1333 14.6484375,0 12.2070316,49.1333 q 0.610351,2.31934 0.854492,3.84522 0.24414,1.46484 0.427246,2.80761 0.183105,-1.34277 0.366211,-2.80761 0.24414,-1.46485 0.732422,-3.72315 l 9.765625,-49.25537 17.272949,0 z"
           style=""
           id="path3353" />
      </g>
      <g
         style="font-style:normal;font-variant:normal;font-weight:normal;font-stretch:normal;font-size:45px;line-height:110.00000238%;font-family:Overpass;-inkscape-font-specification:'Overpass, Normal';text-align:center;letter-spacing:0px;word-spacing:0px;writing-mode:lr-tb;text-anchor:middle;fill:#222222;fill-opacity:1;stroke:none;stroke-width:1px;stroke-linecap:butt;stroke-linejoin:miter;stroke-opacity:1"
         id="text4155">
        <path
           d="m -223.61266,561.05664 q -2.43897,0 -4.37256,-0.65918 -1.91162,-0.68115 -3.36182,-1.82373 -1.45019,-1.16455 -2.48291,-2.72461 -1.01074,-1.58203 -1.64795,-3.38379 -0.6372,-1.82373 -0.94482,-3.77929 -0.28565,-1.97754 -0.28565,-3.93311 0,-1.80176 0.28565,-3.71338 0.30762,-1.91162 0.94482,-3.71338 0.65918,-1.82373 1.6919,-3.42773 1.03271,-1.60401 2.48291,-2.8125 1.45019,-1.2085 3.36181,-1.91162 1.91162,-0.70313 4.32862,-0.70313 2.21924,0 3.99902,0.54932 1.77979,0.52734 3.09814,1.40625 1.34034,0.8789 2.24122,1.99951 0.90087,1.1206 1.38427,2.28516 l -4.28466,1.99951 q -0.57129,-0.90088 -1.2085,-1.58203 -0.61524,-0.70313 -1.38428,-1.18653 -0.74707,-0.4834 -1.69189,-0.72509 -0.94483,-0.2417 -2.15332,-0.2417 -1.58203,0 -2.8125,0.50537 -1.2085,0.50537 -2.13135,1.38427 -0.90088,0.87891 -1.53809,2.04346 -0.6372,1.16455 -1.03271,2.48291 -0.37354,1.29639 -0.54932,2.68067 -0.17578,1.38427 -0.17578,2.68066 0,2.0874 0.46143,4.19678 0.48339,2.10937 1.49414,3.80127 1.01074,1.69189 2.5708,2.74658 1.56006,1.05469 3.71338,1.05469 1.16455,0 2.0874,-0.28565 0.94482,-0.30762 1.71387,-0.83496 0.79101,-0.54932 1.40625,-1.29639 0.6372,-0.74707 1.18652,-1.64795 l 4.37256,1.66993 q -0.65918,1.53808 -1.64795,2.8125 -0.9668,1.27441 -2.30713,2.17529 -1.31836,0.90088 -3.03223,1.40625 -1.69189,0.50537 -3.77929,0.50537 z"
           style=""
           id="path3356" />
        <path
           d="m -192.76305,560.50732 0,-13.73291 q 0,-1.45019 -0.35157,-2.46093 -0.35156,-1.03272 -0.96679,-1.66993 -0.61524,-0.65918 -1.4502,-0.94482 -0.83496,-0.30762 -1.82373,-0.30762 -1.05469,0 -1.95557,0.28565 -0.90087,0.26367 -1.56005,0.8789 -0.65918,0.61524 -1.05469,1.64795 -0.37354,1.01075 -0.37354,2.48291 l 0,13.8208 -4.68017,0 0,-30.32226 4.68017,-2.17529 0,11.71142 q 1.12061,-1.42822 2.5708,-2.0874 1.4502,-0.65918 3.36182,-0.65918 1.80176,0 3.31787,0.52734 1.51611,0.50537 2.61475,1.66992 1.1206,1.16456 1.73584,3.03223 0.61523,1.86768 0.61523,4.57031 l 0,13.73291 -4.68017,0 z"
           style=""
           id="path3358" />
        <path
           d="m -181.53503,560.50732 0,-23.00537 4.68018,0 0,23.00537 -4.68018,0 z m 2.32911,-26.58691 q -0.59327,0 -1.12061,-0.21973 -0.50537,-0.21972 -0.90088,-0.59326 -0.37353,-0.39551 -0.59326,-0.90088 -0.21973,-0.52734 -0.21973,-1.1206 0,-0.59326 0.21973,-1.09864 0.21973,-0.52734 0.59326,-0.90087 0.39551,-0.39551 0.90088,-0.61524 0.52734,-0.21973 1.12061,-0.21973 0.59326,0 1.09863,0.21973 0.52734,0.21973 0.90088,0.61524 0.3955,0.37353 0.61523,0.90087 0.21973,0.50538 0.21973,1.09864 0,0.59326 -0.21973,1.1206 -0.21973,0.50537 -0.61523,0.90088 -0.37354,0.37354 -0.90088,0.59326 -0.50537,0.21973 -1.09863,0.21973 z"
           style=""
           id="path3360" />
        <path
           d="m -161.16637,561.05664 q -2.30713,0 -4.17481,-0.81299 -1.8457,-0.81299 -3.16406,-2.35107 -1.29639,-1.56006 -1.99951,-3.7793 -0.70313,-2.24121 -0.70313,-5.07568 0,-2.83448 0.70313,-5.07569 0.70312,-2.24121 1.99951,-3.77929 1.31836,-1.56006 3.16406,-2.37305 1.86768,-0.83496 4.17481,-0.83496 3.208,0 5.42724,1.42822 2.24121,1.42822 3.25196,4.5044 l -4.43848,1.53808 q -0.50537,-1.31836 -1.53809,-2.13135 -1.03271,-0.83496 -2.52685,-0.83496 -1.31836,0 -2.3291,0.52735 -1.01075,0.52734 -1.71387,1.51611 -0.68115,0.9668 -1.05469,2.37305 -0.35156,1.38428 -0.35156,3.14209 0,1.75781 0.35156,3.16406 0.37354,1.38428 1.03272,2.35107 0.68115,0.9668 1.64794,1.49414 0.98877,0.50538 2.24122,0.50538 1.58203,0 2.70263,-0.87891 1.14258,-0.87891 1.62598,-2.50488 l 4.43848,1.40625 q -0.92286,3.208 -3.14209,4.85595 -2.19727,1.62598 -5.625,1.62598 z"
           style=""
           id="path3362" />
        <path
           d="m -129.15221,560.50732 -4.48243,0 0,-1.97753 q -0.43945,0.46142 -1.05468,0.92285 -0.61524,0.43945 -1.40625,0.81298 -0.76905,0.35157 -1.73584,0.57129 -0.9668,0.21973 -2.10938,0.21973 -1.75781,0 -3.25195,-0.4834 -1.49414,-0.4834 -2.59277,-1.45019 -1.09864,-0.98877 -1.73584,-2.417 -0.61524,-1.45019 -0.61524,-3.36181 0,-1.97754 0.74707,-3.40576 0.74707,-1.4502 1.97754,-2.37305 1.23047,-0.94482 2.8125,-1.38428 1.604,-0.43945 3.2959,-0.43945 1.58203,0 3.03223,0.35156 1.47216,0.32959 2.63671,1.01074 l 0,-1.27441 q 0,-1.29639 -0.30761,-2.19727 -0.28565,-0.90087 -0.90088,-1.45019 -0.59326,-0.57129 -1.51612,-0.81299 -0.92285,-0.26367 -2.19726,-0.26367 -2.15332,0 -3.73535,0.57129 -1.56006,0.57129 -2.83448,1.51611 l -1.38427,-3.84521 q 0.70312,-0.4834 1.604,-0.90088 0.90088,-0.43946 1.97754,-0.76905 1.07666,-0.32959 2.3291,-0.50537 1.25244,-0.19775 2.68067,-0.19775 0.96679,0 1.99951,0.10986 1.03271,0.10987 1.99951,0.43946 0.98877,0.30761 1.8457,0.90087 0.87891,0.59327 1.51612,1.56006 0.65918,0.94483 1.03271,2.3291 0.37354,1.38428 0.37354,3.2959 l 0,14.89746 z m -9.93164,-3.60351 q 1.77978,0 3.14209,-0.7251 1.38427,-0.7251 2.30712,-1.73584 l 0,-3.51562 q -0.96679,-0.50538 -2.26318,-0.81299 -1.29639,-0.30762 -2.65869,-0.30762 -1.05469,0 -1.97754,0.19775 -0.92285,0.19776 -1.62598,0.63721 -0.68115,0.41748 -1.07666,1.09863 -0.3955,0.65918 -0.3955,1.60401 0,1.64795 1.14257,2.61474 1.16455,0.94483 3.40577,0.94483 z"
           style=""
           id="path3364" />
        <path
           d="m -117.44079,565.9126 q 2.52686,-0.15381 4.17481,-0.59326 1.64795,-0.43946 2.61474,-1.12061 0.9668,-0.65918 1.34033,-1.56006 0.37354,-0.90088 0.37354,-1.95556 l 0,-2.02149 q -1.91162,2.39502 -5.53711,2.39502 -1.97754,0 -3.69141,-0.74707 -1.71386,-0.76904 -3.01025,-2.28516 -1.27441,-1.51611 -2.02148,-3.75732 -0.7251,-2.26318 -0.7251,-5.27344 0,-2.83447 0.70312,-5.05371 0.70313,-2.24121 1.95557,-3.7793 1.27441,-1.56005 3.03223,-2.37304 1.75781,-0.81299 3.86718,-0.81299 1.01075,0 1.84571,0.19775 0.83496,0.17578 1.49414,0.4834 0.68115,0.30762 1.18652,0.70313 0.52734,0.37353 0.90088,0.76904 l 0,-1.62598 4.68018,0 0,21.24756 q 0,2.63672 -0.52735,4.48242 -0.52734,1.84571 -1.80176,3.16407 -0.85693,0.8789 -1.88964,1.42822 -1.01075,0.57129 -2.13135,0.92285 -1.09863,0.35156 -2.24121,0.50537 -1.14258,0.17578 -2.24121,0.26367 l -2.35108,-3.60351 z m 3.82324,-9.27246 q 1.42823,0 2.6587,-0.70313 1.25244,-0.70312 2.02148,-1.99951 l 0,-9.95361 q -0.35156,-0.57129 -0.87891,-1.03272 -0.50537,-0.4834 -1.1206,-0.83496 -0.59326,-0.35156 -1.29639,-0.52734 -0.68115,-0.19776 -1.38428,-0.19776 -2.74658,0 -4.19677,1.95557 -1.42823,1.93359 -1.42823,5.64697 0,1.75781 0.39551,3.18604 0.39551,1.40625 1.12061,2.39502 0.72509,0.98877 1.75781,1.53808 1.05469,0.52735 2.35107,0.52735 z"
           style=""
           id="path3366" />
        <path
           d="m -88.107292,561.05664 q -2.416992,0 -4.372559,-0.81299 -1.933594,-0.81299 -3.295898,-2.35107 -1.362305,-1.56006 -2.109375,-3.7793 -0.725098,-2.24121 -0.725098,-5.07568 0,-2.83448 0.725098,-5.07569 0.74707,-2.24121 2.109375,-3.77929 1.362304,-1.56006 3.295898,-2.37305 1.955567,-0.83496 4.372559,-0.83496 2.395019,0 4.350586,0.83496 1.955566,0.81299 3.317871,2.37305 1.362305,1.53808 2.109375,3.77929 0.74707,2.24121 0.74707,5.07569 0,2.83447 -0.74707,5.07568 -0.74707,2.21924 -2.109375,3.7793 -1.362305,1.53808 -3.317871,2.35107 -1.955567,0.81299 -4.350586,0.81299 z m 0,-4.4165 q 1.340332,0 2.416992,-0.52735 1.098633,-0.52734 1.845703,-1.49414 0.769043,-0.98877 1.164551,-2.39502 0.41748,-1.40625 0.41748,-3.18603 0,-1.77979 -0.41748,-3.18604 -0.395508,-1.42822 -1.164551,-2.41699 -0.74707,-0.98877 -1.845703,-1.51611 -1.07666,-0.52735 -2.416992,-0.52735 -1.340332,0 -2.416992,0.52735 -1.076661,0.52734 -1.845703,1.51611 -0.747071,0.98877 -1.164551,2.41699 -0.395508,1.40625 -0.395508,3.18604 0,1.77978 0.395508,3.18603 0.41748,1.40625 1.164551,2.39502 0.769042,0.9668 1.845703,1.49414 1.07666,0.52735 2.416992,0.52735 z"
           style=""
           id="path3368" />
        <path
           d="m -73.121941,549.60889 0,-4.04297 17.775879,0 0,4.04297 -17.775879,0 z"
           style=""
           id="path3370" />
        <path
           d="m -25.595085,560.50732 0,-17.22656 0.131836,-4.72412 -1.845703,4.85596 -7.602539,17.64404 -7.646485,-17.77588 -1.889648,-4.72412 0.131836,4.72412 0,17.22656 -4.680176,0 0,-31.50878 4.724121,0 8.459473,19.66552 0.856933,2.30713 0.900879,-2.30713 8.415528,-19.66552 4.724121,0 0,31.50878 -4.680176,0 z"
           style=""
           id="path3372" />
        <path
           d="m -13.400261,560.50732 0,-23.00537 4.6801759,0 0,23.00537 -4.6801759,0 z m 2.329102,-26.58691 q -0.593262,0 -1.120606,-0.21973 -0.505371,-0.21972 -0.900879,-0.59326 -0.373535,-0.39551 -0.593261,-0.90088 -0.219727,-0.52734 -0.219727,-1.1206 0,-0.59326 0.219727,-1.09864 0.219726,-0.52734 0.593261,-0.90087 0.395508,-0.39551 0.900879,-0.61524 0.527344,-0.21973 1.120606,-0.21973 0.593261,0 1.0986324,0.21973 0.5273438,0.21973 0.900879,0.61524 0.3955078,0.37353 0.6152343,0.90087 0.2197266,0.50538 0.2197266,1.09864 0,0.59326 -0.2197266,1.1206 -0.2197265,0.50537 -0.6152343,0.90088 -0.3735352,0.37354 -0.900879,0.59326 -0.5053714,0.21973 -1.0986324,0.21973 z"
           style=""
           id="path3374" />
        <path
           d="m 6.484993,561.05664 q -2.175293,0 -3.9550781,-0.81299 -1.75781254,-0.83496 -3.01025395,-2.37304 -1.25244145,-1.56006 -1.93359375,-3.80127 -0.6591797,-2.24122 -0.6591797,-5.07569 0,-2.83447 0.703125,-5.05371 0.703125,-2.24121 1.95556642,-3.7793 1.27441406,-1.56005 3.03222658,-2.37304 1.7578125,-0.81299 3.8671875,-0.81299 1.8896484,0 3.2080078,0.61523 1.3403322,0.61524 2.2192382,1.53809 l 0,-8.94287 4.680176,-2.17529 0,32.49755 -4.680176,0 0,-1.62597 q -0.922851,1.03271 -2.2192382,1.604 -1.2744141,0.57129 -3.2080078,0.57129 z m 0.6591797,-4.4165 q 1.5820312,0 2.7905273,-0.68116 1.208496,-0.68115 1.977539,-1.93359 l 0,-10.12939 q -0.263672,-0.43946 -0.703125,-0.87891 -0.439453,-0.43945 -1.054687,-0.79102 -0.5932621,-0.37353 -1.3623051,-0.59326 -0.7470703,-0.2417 -1.6479492,-0.2417 -2.6367188,0 -4.0869141,1.95557 -1.4501953,1.93359 -1.4501953,5.64697 0,1.66992 0.3735351,3.07617 0.3955079,1.38428 1.0986329,2.417 0.7250976,1.01074 1.7358398,1.58203 1.0327148,0.57129 2.3291016,0.57129 z"
           style=""
           id="path3376" />
        <path
           d="m 44.981087,560.50732 -4.152832,0 -3.823242,-13.35937 q -0.109864,-0.39551 -0.2417,-0.81299 -0.109863,-0.41748 -0.219726,-0.79101 -0.08789,-0.39551 -0.175782,-0.7251 -0.06592,-0.32959 -0.08789,-0.54932 -0.04395,0.21973 -0.109863,0.57129 -0.04395,0.32959 -0.131836,0.7251 -0.08789,0.39551 -0.197754,0.81299 -0.109864,0.41748 -0.219727,0.81298 l -3.779297,13.31543 -4.152832,0 -6.108398,-23.00537 4.592285,0 3.22998,14.32617 q 0.175782,0.74708 0.263672,1.31836 0.109864,0.54932 0.197754,1.01075 0.06592,-0.46143 0.175781,-1.05469 0.131836,-0.59326 0.307618,-1.27442 l 3.823242,-14.32617 4.328613,0 3.823242,14.32617 q 0.175782,0.68116 0.285645,1.27442 0.131836,0.59326 0.197754,1.05469 0.06592,-0.46143 0.175781,-1.01075 0.109863,-0.57128 0.285645,-1.31836 l 3.22998,-14.32617 4.592285,0 -6.108398,23.00537 z"
           style=""
           id="path3378" />
        <path
           d="m 73.699348,560.50732 -4.482421,0 0,-1.97753 q -0.439454,0.46142 -1.054688,0.92285 -0.615234,0.43945 -1.40625,0.81298 -0.769043,0.35157 -1.73584,0.57129 -0.966797,0.21973 -2.109375,0.21973 -1.757812,0 -3.251953,-0.4834 -1.494141,-0.4834 -2.592773,-1.45019 -1.098633,-0.98877 -1.73584,-2.417 -0.615235,-1.45019 -0.615235,-3.36181 0,-1.97754 0.747071,-3.40576 0.74707,-1.4502 1.977539,-2.37305 1.230469,-0.94482 2.8125,-1.38428 1.604004,-0.43945 3.295898,-0.43945 1.582032,0 3.032227,0.35156 1.472168,0.32959 2.636719,1.01074 l 0,-1.27441 q 0,-1.29639 -0.307618,-2.19727 -0.285644,-0.90087 -0.900879,-1.45019 -0.593261,-0.57129 -1.516113,-0.81299 -0.922851,-0.26367 -2.197265,-0.26367 -2.153321,0 -3.735352,0.57129 -1.560059,0.57129 -2.834473,1.51611 l -1.384277,-3.84521 q 0.703125,-0.4834 1.604004,-0.90088 0.900879,-0.43946 1.977539,-0.76905 1.07666,-0.32959 2.329102,-0.50537 1.252441,-0.19775 2.680664,-0.19775 0.966796,0 1.999511,0.10986 1.032715,0.10987 1.999512,0.43946 0.98877,0.30761 1.845703,0.90087 0.878906,0.59327 1.516113,1.56006 0.65918,0.94483 1.032715,2.3291 0.373535,1.38428 0.373535,3.2959 l 0,14.89746 z m -9.93164,-3.60351 q 1.779785,0 3.14209,-0.7251 1.384277,-0.7251 2.307129,-1.73584 l 0,-3.51562 q -0.966797,-0.50538 -2.263184,-0.81299 -1.296387,-0.30762 -2.658691,-0.30762 -1.054688,0 -1.977539,0.19775 -0.922852,0.19776 -1.625977,0.63721 -0.681152,0.41748 -1.07666,1.09863 -0.395508,0.65918 -0.395508,1.60401 0,1.64795 1.142578,2.61474 1.164551,0.94483 3.405762,0.94483 z"
           style=""
           id="path3380" />
        <path
           d="m 87.630013,569.23047 -4.768067,0 3.537598,-9.11865 -8.591309,-22.60987 4.636231,0 5.668945,15.05127 q 0.241699,0.63721 0.373535,1.05469 0.131836,0.41748 0.263672,0.9668 0.131836,-0.54932 0.263672,-0.9668 0.131836,-0.41748 0.373535,-1.05469 l 5.712891,-15.05127 4.680175,0 -12.150878,31.72852 z"
           style=""
           id="path3382" />
      </g>
    </g>
  </g>
</svg>
