<?xml version="1.0" encoding="UTF-8" standalone="no"?>
<!-- Created with Inkscape (http://www.inkscape.org/) -->

<svg
   xmlns:dc="http://purl.org/dc/elements/1.1/"
   xmlns:cc="http://creativecommons.org/ns#"
   xmlns:rdf="http://www.w3.org/1999/02/22-rdf-syntax-ns#"
   xmlns:svg="http://www.w3.org/2000/svg"
   xmlns="http://www.w3.org/2000/svg"
   xmlns:sodipodi="http://sodipodi.sourceforge.net/DTD/sodipodi-0.dtd"
   xmlns:inkscape="http://www.inkscape.org/namespaces/inkscape"
   width="982.05853"
   height="1116.4773"
   viewBox="0 0 982.05853 1116.4774"
   id="svg2"
   version="1.1"
   inkscape:version="0.91 r13725"
   sodipodi:docname="MEL.svg"
   inkscape:export-filename="C:\Users\paulb\Dropbox\Projects\Terminal Silhouettes\Silhouettes\png\MEL.png"
   inkscape:export-xdpi="90"
   inkscape:export-ydpi="90">
  <sodipodi:namedview
     id="base"
     pagecolor="#ffffff"
     bordercolor="#666666"
     borderopacity="1.0"
     inkscape:pageopacity="1"
     inkscape:pageshadow="2"
     inkscape:zoom="0.70710678"
     inkscape:cx="351.91096"
     inkscape:cy="480.99131"
     inkscape:document-units="px"
     inkscape:current-layer="layer2"
     showgrid="false"
     units="px"
     inkscape:window-width="1920"
     inkscape:window-height="1137"
     inkscape:window-x="1912"
     inkscape:window-y="-8"
     inkscape:window-maximized="1"
     showguides="true"
     inkscape:guide-bbox="true"
     fit-margin-top="25"
     fit-margin-left="25"
     fit-margin-right="25"
     fit-margin-bottom="25"
     inkscape:snap-intersection-paths="true"
     inkscape:object-nodes="true"
     inkscape:snap-smooth-nodes="true" />
  <defs
     id="defs4" />
  <metadata
     id="metadata7">
    <rdf:RDF>
      <cc:Work
         rdf:about="">
        <dc:format>image/svg+xml</dc:format>
        <dc:type
           rdf:resource="http://purl.org/dc/dcmitype/StillImage" />
        <dc:title></dc:title>
        <dc:creator>
          <cc:Agent>
            <dc:title>Paul Bogard</dc:title>
          </cc:Agent>
        </dc:creator>
        <dc:description>Terminal silhouette of MEL (Melbourne–Tullamarine)</dc:description>
      </cc:Work>
    </rdf:RDF>
  </metadata>
  <g
     inkscape:groupmode="layer"
     id="layer2"
     inkscape:label="Terminal"
     transform="translate(1013.701,49.068791)">
    <path
       id="rect4160"
       d="m -969.12692,230.12589 21.72704,-3.15337 6.95085,47.8922 -15.94334,2.31395 0.82765,5.70267 15.94339,-2.31395 0.27026,1.86218 21.87824,-3.17531 -0.67561,-4.65504 1.92066,-0.27876 0.19427,1.33836 5.23642,-0.75999 -1.53706,-10.59079 -5.23647,0.75999 0.35478,2.44452 -1.92067,0.27877 -5.33411,-36.75234 27.82212,-4.03798 -0.6927,-4.77292 82.78321,-12.0148 0.45396,3.12765 29.74368,-4.31688 2.07661,14.30797 2.44182,-0.3544 2.50776,3.55742 1.19346,-0.17321 1.46096,10.06605 10.06878,-1.46134 2.65952,3.77344 2.38962,-0.34682 0.17935,1.23574 35.53189,-5.15695 -0.77058,-5.30935 5.88934,1.95924 1.8089,-2.42311 14.9272,11.14342 -38.48478,16.54093 10.48914,7.83036 38.48476,-16.54093 30.88817,23.05858 -5.07351,6.79624 18.95317,14.14962 -5.31745,7.123 -1.03596,-0.77419 -1.93428,2.59112 1.03596,0.77414 2.02615,1.51178 1.93433,-2.59108 5.3174,-7.12299 15.66839,11.69755 2.35056,-3.1487 21.12965,15.77288 -0.0708,0.0948 1.3e-4,9.3e-4 -36.15796,48.43444 20.16171,34.12796 6.04994,-8.10416 8.85756,6.61232 -3.50991,4.70282 4.12354,28.41164 17.80463,-2.58408 -2.68604,3.59809 2.14505,14.77962 1.39786,9.63136 -25.18949,3.65589 -1.62424,-11.19115 -39.85026,5.78369 1.62424,11.19115 -18.62642,2.70336 -1.62424,-11.19115 -24.55584,3.56393 1.62423,11.19115 -18.62638,2.70336 -1.62424,-11.19116 -24.55496,3.5638 1.62423,11.19116 -18.62638,2.70335 -1.62424,-11.19115 -24.55497,3.56379 1.62424,11.19116 -18.62638,2.70335 -1.62423,-11.19115 -24.55498,3.5638 1.62423,11.19115 -6.65758,0.96626 -1.17046,-8.06438 -9.05172,1.31372 1.17045,8.06439 1.21824,8.39377 1.62423,11.19115 9.30462,-1.35043 -1.62424,-11.19115 18.62638,-2.70335 1.62423,11.19115 24.55498,-3.5638 -1.62423,-11.19115 18.62639,-2.70335 1.62423,11.19114 24.55586,-3.56393 -1.62423,-11.19115 18.62638,-2.70335 1.62423,11.19115 24.55497,-3.5638 18.6264,-2.70336 24.55494,-3.56379 -1.62424,-11.19115 18.62638,-2.70336 1.62423,11.19116 26.62596,-3.86438 0.21867,1.50666 -2.79732,0.40599 6.04677,41.66294 3.94939,-0.57319 4.65063,32.04334 -3.94938,0.57319 3.53519,24.35785 18.05034,-2.61975 0.59711,4.11412 -18.05034,2.61976 12.44482,85.74613 -8.94819,1.2987 3.02653,20.85311 -28.29557,4.10669 -10.75196,-8.02653 -0.8771,-0.65477 -1.4038,-1.04795 -0.33858,-2.33292 -0.72271,0.1049 -0.17831,-1.22856 -0.47953,-3.30404 -0.0777,-0.53552 -1.24817,-0.93179 -1.38954,1.86141 -0.25162,0.337 0.33705,0.25161 0.57241,3.94399 -0.73533,0.10673 -2.17366,-1.62268 1.64102,-2.19934 -3.45588,-2.57983 a 2.7439823,2.7439823 0 0 0 -3.84044,0.55739 2.7439823,2.7439823 0 0 0 0.55739,3.84049 l 6.10258,4.55568 -1.04791,1.40379 -8.98336,1.3038 -8.6813,11.62906 -8.17688,1.18676 -0.59123,-4.07362 -19.20151,2.78682 0.59123,4.07362 -2.56062,0.37164 -81.03624,11.76125 1.58766,10.93912 1.77341,12.21895 81.03623,-11.76123 -1.7734,-12.21897 37.50925,-5.44393 11.6291,8.6813 10.67001,-1.5486 0.96482,0.72103 0.39411,2.71544 4.66942,-0.6777 4.31864,3.22477 a 2.7439823,2.7439823 0 0 0 3.84049,-0.55739 2.7439823,2.7439823 0 0 0 -0.55739,-3.84049 l -3.03123,-2.26287 -1.95116,-1.4574 -1.45819,1.95222 -0.43022,0.0624 -0.96662,-0.72077 0.6534,-0.0948 8.6813,-11.62905 20.72532,-3.00798 0.0675,0.46529 10.2469,7.64953 0.30162,2.07822 2.07822,-0.30163 13.75945,10.27168 1.21237,-0.17596 34.46432,237.46271 -15.94246,34.59472 -0.41644,-2.86938 -32.81734,4.763 1.42725,9.8339 -57.24902,8.3088 -1.10511,-7.6144 -9.20114,1.3355 0.14238,0.981 -39.68378,5.7595 1.03876,7.1572 -1.80458,0.2619 1.62136,11.1714 1.80458,-0.262 1.03875,7.1572 39.68378,-5.7596 -0.96272,-6.6333 66.45015,-9.6443 1.42724,9.8339 32.81734,-4.763 -1.50327,-10.3577 1.39689,-0.2027 -1.22243,-8.4226 20.09751,-43.60931 -13.88983,-95.70244 3.75331,4.81301 1.2e-4,0 0.26257,1.80909 1.03146,-0.1497 1.46255,-0.21224 0.60304,-0.0876 9.33039,64.28736 47.23423,-6.85534 -18.72687,-129.03013 -13.82465,2.00644 -4.63391,-31.92813 -1.36154,-9.38112 22.07447,-3.20382 -6.49693,-44.76449 -2.69474,0.39111 -1.74389,-12.01556 5.30756,-0.77032 -18.72687,-129.03012 -23.96633,3.47838 -0.59711,-4.11413 13.03352,-1.89163 -4.5038,-31.03165 -4.37329,0.63472 -1.76636,-12.1704 -8.80515,1.27795 -0.19293,-1.32933 16.31419,-2.36778 4.54523,-0.65967 0.63902,-0.0927 -1.35671,-9.34787 -0.63902,0.0928 -9.04757,-62.33874 5.67043,-7.59695 2.23244,1.66652 6.06838,-8.1289 -2.23157,-1.66665 78.79189,-105.54587 2.23245,1.66656 6.06837,-8.1289 -2.23245,-1.66656 5.6697,-7.59591 60.70609,-8.81062 0.23643,1.62906 19.25641,-2.7948 -0.43917,-3.02594 28.15064,-4.08566 0.43917,3.02594 58.65308,-8.51178 -0.68893,-4.74678 7.50002,-1.08852 77.57018,-11.2582 -1.1353,-7.82232 -77.57018,11.2582 -0.54041,-3.72344 77.57019,-11.2582 -1.68903,-11.63755 -77.57018,11.25821 -0.79148,-5.45337 79.98503,-11.60868 4.10238,-0.5954 -0.67796,-4.67121 5.58567,-0.81068 -3.47942,-23.97357 -5.58567,0.81068 -4.10238,0.5954 -0.90656,-6.2463 -11.02645,1.60033 -4.4731,-30.82013 13.08393,-1.89895 -1.3e-4,-9.3e-4 -1.48552,-1.88338 -5.11315,0.7421 -1.54427,-1.87674 -5.53797,0.80376 -9.21595,-63.49889 10.97511,-1.59289 -0.29835,-2.05567 -5.11314,0.74209 -1.54427,-1.87673 -4.61632,0.66999 -4.15764,-28.646525 -9.59883,-66.136968 -1.45716,-10.0399679 -3.37423,0.4897194 1.45716,10.0399725 -19.33742,2.806547 9.59883,66.136964 -10.8041,1.568062 19.04076,131.192886 -82.39351,11.95824 -1.44109,-9.92923 -66.60945,9.6674 1.41876,9.77537 -34.63726,5.0271 -8.54649,-58.88621 2.96742,-0.43068 -1.50327,-10.3577 7.97078,-1.15685 c 0,0 8.5577,-1.24132 7.21213,-10.51246 0,0 -0.43569,-3.00329 -2.7446,-4.7269 l -20.01665,-14.94282 5.06273,-0.73478 -0.39476,-2.71991 -3.75255,-1.49648 -0.35445,0.88866 -1.12685,0.16354 -5.73184,-39.49298 a 4.2333976,4.2333976 0 0 1 -2.6203,-3.31961 4.2333976,4.2333976 0 0 1 1.56861,-3.92663 l -7.12316,-49.079324 a 4.2333976,4.2333976 0 0 1 -2.62029,-3.31961 4.2333976,4.2333976 0 0 1 1.56861,-3.926631 l -6.67315,-45.9786811 -0.43551,-3.0007319 -0.85706,-5.905201 -1.15384,-1.029045 -1.54212,1.72819 0.74848,0.667928 0.10189,0.702066 0.29012,1.998951 0.3109,2.14213 -15.3502,2.2278651 -0.48411,-3.3355671 -11.4925,-10.254242 -10.80503,1.568198 2.17875,15.0118244 -1.74517,0.2532857 -3.32654,0.4827999 0.43552,3.0007324 3.32653,-0.4827999 2.62171,18.0638485 5.8188,-0.844517 2.83751,19.550735 -5.8188,0.844517 3.51311,24.205725 5.8188,-0.844512 2.83764,19.551656 -5.8188,0.844513 3.51312,24.205727 5.81879,-0.84451 2.83751,19.55073 -5.81879,0.84452 3.51311,24.20572 5.8188,-0.84451 2.83764,19.55165 -5.81879,0.84452 3.51311,24.20572 5.8188,-0.84451 2.8375,19.55074 -5.81879,0.84451 6.80677,46.89941 -12.9543,1.88013 -1.48093,-10.20375 -23.53431,3.41567 -10.54689,-7.87345 -13.97823,6.14681 -24.98126,-18.64817 -23.36945,-17.44572 -72.08273,34.83921 -7.2116,-5.38359 2.04743,-2.74258 -5.74898,-4.2909 -2.04738,2.74258 -22.74898,-16.98248 4.91775,-41.60015 -11.25791,-1.33073 -4.149,35.10053 -14.9272,-11.14342 2.83517,-3.79892 -0.16904,-1.16468 1.35275,-0.19633 -1.25403,-8.64041 -1.87656,0.27236 -0.20679,-1.42477 -4.16048,-4.50945 -2.2523,-15.51854 5.31024,-0.77071 -1.25403,-8.64041 -1.35274,0.19633 -0.30149,-2.07729 -4.37068,-2.2725 -2.29161,-15.78941 15.78136,-21.14099 5.21816,-0.29693 -0.15129,-2.6634 -7.81041,0.44434 -13.79023,18.47274 -1.13726,-7.83577 -54.76129,7.94782 -4.81882,0.69938 3.00175,-14.44128 -3.81314,-0.7929 -3.29011,15.82945 -16.15128,2.34413 -35.32938,5.12755 0.60796,4.18878 -29.9948,4.35332 -1.28729,-1.63187 0.35706,-0.28157 -2.8868,-3.66141 -3.18388,2.51055 2.8868,3.6614 1.00985,-0.14657 0.8615,5.9358 33.09905,-4.80386 1.77343,12.21897 -1.67769,0.2435 1.41874,9.77536 1.67769,-0.24349 2.90659,20.02686 -82.78321,12.0148 -27.82212,4.03798 -17.62802,-121.458999 -2.40513,-16.571566 -1.4e-4,-9.31e-4 -21.87824,3.175309 1.4e-4,9.31e-4 -18.43555,2.675663 2.40513,16.571566 18.43555,-2.675658 5.37444,37.030495 -21.72704,3.15336 1.91084,13.16582 21.72704,-3.15337 10.41445,71.75678 -21.727,3.15337 1.9108,13.16582 z m 433.34794,631.89205 -20.24347,-139.47963 8.55765,-1.24201 2.65176,18.27082 -6.39303,0.9279 3.84517,26.49362 6.39303,-0.92785 1.36154,9.38117 14.31875,-2.07819 4.63391,31.92813 -16.7876,2.43651 9.13379,62.93274 -1.01344,0.1471 -4.09666,-5.25393 -0.55138,-3.7991 -1.81002,0.26272 z"
       style="opacity:1;fill:#dddddd;fill-opacity:1;stroke:#222222;stroke-width:1.50000024;stroke-linejoin:miter;stroke-miterlimit:4;stroke-dasharray:none;stroke-dashoffset:0;stroke-opacity:1"
       inkscape:connector-curvature="0" />
  </g>
  <g
     inkscape:groupmode="layer"
     id="layer1"
     inkscape:label="Label"
     transform="translate(0.78391886,0.73095677)">
    <text
       xml:space="preserve"
       style="font-style:normal;font-variant:normal;font-weight:normal;font-stretch:normal;font-size:45.00000381px;line-height:125%;font-family:Overpass;-inkscape-font-specification:'Overpass, Normal';text-align:start;letter-spacing:0px;word-spacing:0px;writing-mode:lr-tb;text-anchor:start;fill:#000000;fill-opacity:1;stroke:none;stroke-width:1px;stroke-linecap:butt;stroke-linejoin:miter;stroke-opacity:1"
       x="615.99994"
       y="508.96252"
       id="text4617"
       sodipodi:linespacing="125%"><tspan
         sodipodi:role="line"
         id="tspan4621"
         x="615.99994"
         y="508.96252"></tspan></text>
    <g
       id="g4655"
       transform="translate(11.31371,26.870061)">
      <g
         style="font-style:normal;font-variant:normal;font-weight:bold;font-stretch:normal;font-size:125.00001526px;line-height:125%;font-family:Overpass;-inkscape-font-specification:'Overpass, Bold';text-align:start;letter-spacing:0px;word-spacing:0px;writing-mode:lr-tb;text-anchor:start;fill:#dddddd;fill-opacity:1;stroke:#222222;stroke-width:0.25000003;stroke-linecap:butt;stroke-linejoin:miter;stroke-miterlimit:4;stroke-dasharray:none;stroke-opacity:1"
         id="text4623">
        <path
           d="m 765.63673,668.30804 0,-44.98291 q 0,-0.73242 0,-1.70899 0.061,-0.97656 0.061,-1.95312 0.061,-1.0376 0.061,-1.89209 0.061,-0.85449 0.12207,-1.34277 -0.67139,2.07519 -1.34277,3.72314 -0.61036,1.64795 -1.28174,3.17383 l -21.24024,46.50879 -21.36231,-46.50879 q -0.67138,-1.52588 -1.34277,-3.17383 -0.61035,-1.64795 -1.28174,-3.72314 0.061,0.48828 0.061,1.34277 0.061,0.85449 0.061,1.89209 0.061,0.97656 0.061,1.95312 0.061,0.97657 0.061,1.70899 l 0,44.98291 -16.90674,0 0,-87.52442 17.15088,0 21.48438,48.27881 q 0.67139,1.58692 1.2207,3.05176 0.54932,1.40381 1.0376,2.92969 0.48828,-1.52588 1.0376,-2.92969 0.54931,-1.46484 1.2207,-3.05176 l 21.85059,-48.27881 16.11328,0 0,87.52442 -16.8457,0 z"
           id="path4663"
           style="" />
        <path
           d="m 805.12648,668.30804 0,-87.52442 59.75343,0 0,16.05225 -42.84669,0 0,18.37158 25.20752,0 0,15.99121 -25.20752,0 0,21.11817 45.4712,0 0,15.99121 -62.37794,0 z"
           id="path4665"
           style="" />
        <path
           d="m 885.6929,668.30804 0,-87.52442 16.90674,0 0,71.28907 42.23634,0 0,16.23535 -59.14308,0 z"
           id="path4667"
           style="" />
      </g>
      <g
         style="font-style:normal;font-variant:normal;font-weight:normal;font-stretch:normal;font-size:45.00000381px;line-height:110.00000238%;font-family:Overpass;-inkscape-font-specification:'Overpass, Normal';text-align:start;letter-spacing:0px;word-spacing:0px;writing-mode:lr-tb;text-anchor:start;fill:#222222;fill-opacity:1;stroke:none;stroke-width:1px;stroke-linecap:butt;stroke-linejoin:miter;stroke-opacity:1"
         id="text4627">
        <path
           d="m 724.64258,717.33154 0,-17.22656 0.13184,-4.72412 -1.84571,4.85595 -7.60254,17.64405 -7.64648,-17.77588 -1.88965,-4.72412 0.13184,4.72412 0,17.22656 -4.68018,0 0,-31.50879 4.72412,0 8.45947,19.66553 0.85694,2.30713 0.90088,-2.30713 8.41553,-19.66553 4.72412,0 0,31.50879 -4.68018,0 z"
           id="path4670"
           style="" />
        <path
           d="m 746.10987,717.88086 q -2.39502,0 -4.32862,-0.81299 -1.93359,-0.83496 -3.29589,-2.37305 -1.36231,-1.56005 -2.10938,-3.80127 -0.7251,-2.24121 -0.7251,-5.07568 0,-2.83447 0.74707,-5.05371 0.74707,-2.24121 2.10938,-3.7793 1.38428,-1.56006 3.2959,-2.37305 1.93359,-0.81298 4.30664,-0.81298 2.04346,0 3.82324,0.65918 1.80176,0.6372 3.14209,1.97754 1.36231,1.31835 2.13135,3.33984 0.79101,2.02148 0.79101,4.76807 0,0.74707 -0.0439,1.58203 -0.022,0.83496 -0.13184,1.45019 l -15.49072,0 q 0.022,1.42823 0.50537,2.5708 0.50537,1.12061 1.31836,1.9336 0.81299,0.79101 1.8457,1.23047 1.03272,0.41748 2.15332,0.41748 1.42823,0 2.63672,-0.59326 1.23047,-0.59327 2.13135,-1.73584 l 3.0542,3.14209 q -1.25244,1.49414 -3.20801,2.41699 -1.95556,0.92285 -4.6582,0.92285 z m 0,-19.95117 q -1.09863,0 -2.10938,0.32959 -1.01074,0.30761 -1.80175,1.01074 -0.76905,0.68115 -1.27442,1.80176 -0.50537,1.1206 -0.59326,2.72461 l 10.98633,0 q -0.0439,-1.60401 -0.50537,-2.72461 -0.46143,-1.12061 -1.2085,-1.80176 -0.74707,-0.70313 -1.66992,-1.01074 -0.90088,-0.32959 -1.82373,-0.32959 z"
           id="path4672"
           style="" />
        <path
           d="m 761.62257,717.33154 0,-30.27832 4.68017,-2.21924 0,32.49756 -4.68017,0 z"
           id="path4674"
           style="" />
        <path
           d="m 783.3755,717.88086 q -0.98877,0 -1.80176,-0.19775 -0.79102,-0.17579 -1.4502,-0.4834 -0.65918,-0.32959 -1.18652,-0.76905 -0.52734,-0.43945 -0.98877,-0.94482 l 0,1.8457 -4.68018,0 0,-30.32227 4.68018,-2.17529 0,11.25 q 0.87891,-0.98877 2.19727,-1.62597 1.34033,-0.65918 3.22998,-0.65918 2.10937,0 3.86718,0.81298 1.75782,0.81299 3.01026,2.37305 1.27441,1.53809 1.97754,3.7793 0.70312,2.21924 0.70312,5.05371 0,2.92236 -0.65918,5.18555 -0.65918,2.24121 -1.91162,3.77929 -1.23047,1.51612 -3.01025,2.30713 -1.75781,0.79102 -3.97705,0.79102 z m -0.57129,-4.4165 q 1.34033,0 2.35107,-0.52735 1.01074,-0.54932 1.6919,-1.53808 0.70312,-0.98877 1.05468,-2.39502 0.35157,-1.42823 0.35157,-3.18604 0,-3.71338 -1.40625,-5.64697 -1.38428,-1.95557 -4.04297,-1.95557 -0.90088,0 -1.66992,0.2417 -0.76905,0.2417 -1.40625,0.61523 -0.61524,0.37354 -1.07666,0.83497 -0.43946,0.46142 -0.70313,0.90087 l 0,10.04151 q 0.76904,1.25244 2.02149,1.93359 1.27441,0.68116 2.83447,0.68116 z"
           id="path4676"
           style="" />
        <path
           d="m 807.94093,717.88086 q -2.417,0 -4.37256,-0.81299 -1.9336,-0.81299 -3.2959,-2.35107 -1.36231,-1.56006 -2.10938,-3.7793 -0.72509,-2.24121 -0.72509,-5.07568 0,-2.83448 0.72509,-5.07569 0.74707,-2.24121 2.10938,-3.7793 1.3623,-1.56005 3.2959,-2.37304 1.95556,-0.83496 4.37256,-0.83496 2.39502,0 4.35058,0.83496 1.95557,0.81299 3.31787,2.37304 1.36231,1.53809 2.10938,3.7793 0.74707,2.24121 0.74707,5.07569 0,2.83447 -0.74707,5.07568 -0.74707,2.21924 -2.10938,3.7793 -1.3623,1.53808 -3.31787,2.35107 -1.95556,0.81299 -4.35058,0.81299 z m 0,-4.4165 q 1.34033,0 2.41699,-0.52735 1.09863,-0.52734 1.8457,-1.49414 0.76905,-0.98877 1.16455,-2.39502 0.41748,-1.40625 0.41748,-3.18603 0,-1.77979 -0.41748,-3.18604 -0.3955,-1.42822 -1.16455,-2.41699 -0.74707,-0.98877 -1.8457,-1.51612 -1.07666,-0.52734 -2.41699,-0.52734 -1.34034,0 -2.417,0.52734 -1.07666,0.52735 -1.8457,1.51612 -0.74707,0.98877 -1.16455,2.41699 -0.39551,1.40625 -0.39551,3.18604 0,1.77978 0.39551,3.18603 0.41748,1.40625 1.16455,2.39502 0.76904,0.9668 1.8457,1.49414 1.07666,0.52735 2.417,0.52735 z"
           id="path4678"
           style="" />
        <path
           d="m 838.06544,717.33154 0,-2.19726 q -1.12061,1.42822 -2.59277,2.0874 -1.4502,0.65918 -3.36182,0.65918 -1.80176,0 -3.31787,-0.52734 -1.51612,-0.50538 -2.63672,-1.66993 -1.09863,-1.18652 -1.71387,-3.0542 -0.61523,-1.86767 -0.61523,-4.57031 l 0,-13.73291 4.68017,0 0,13.73291 q 0,1.4502 0.35157,2.48291 0.35156,1.01074 0.96679,1.66992 0.61524,0.65918 1.4502,0.9668 0.83496,0.28565 1.82373,0.28565 1.05469,0 1.95556,-0.26368 0.90088,-0.28564 1.56006,-0.90088 0.68116,-0.6372 1.05469,-1.64795 0.39551,-1.01074 0.39551,-2.50488 l 0,-13.8208 4.68017,0 0,23.00537 -4.68017,0 z"
           id="path4680"
           style="" />
        <path
           d="m 849.46925,717.33154 0,-23.00537 4.68018,0 0,2.79053 q 0.81299,-1.75782 2.10938,-2.52686 1.29638,-0.79101 3.01025,-0.79101 2.28516,0 3.86719,1.38427 l -0.68116,4.32862 q -0.6372,-0.43946 -1.51611,-0.76905 -0.85693,-0.35156 -2.10937,-0.35156 -0.79102,0 -1.62598,0.28565 -0.81299,0.26367 -1.49414,0.96679 -0.68115,0.68116 -1.12061,1.84571 -0.43945,1.14257 -0.43945,2.92236 l 0,12.91992 -4.68018,0 z"
           id="path4682"
           style="" />
        <path
           d="m 881.87892,717.33154 0,-13.73291 q 0,-1.45019 -0.35156,-2.46094 -0.35156,-1.03271 -0.9668,-1.66992 -0.61523,-0.65918 -1.45019,-0.94482 -0.83496,-0.30762 -1.82373,-0.30762 -1.05469,0 -1.95557,0.28564 -0.90088,0.26368 -1.56006,0.87891 -0.65918,0.61524 -1.05469,1.64795 -0.37353,1.01074 -0.37353,2.48291 l 0,13.8208 -4.68018,0 0,-23.00537 4.68018,0 0,2.21924 q 1.1206,-1.42822 2.5708,-2.0874 1.4502,-0.65918 3.36182,-0.65918 1.80176,0 3.31787,0.52734 1.51611,0.50537 2.61474,1.66992 1.12061,1.16455 1.73584,3.03223 0.61524,1.86767 0.61524,4.57031 l 0,13.73291 -4.68018,0 z"
           id="path4684"
           style="" />
        <path
           d="m 902.37941,717.88086 q -2.39502,0 -4.32861,-0.81299 -1.9336,-0.83496 -3.2959,-2.37305 -1.36231,-1.56005 -2.10938,-3.80127 -0.72509,-2.24121 -0.72509,-5.07568 0,-2.83447 0.74707,-5.05371 0.74707,-2.24121 2.10937,-3.7793 1.38428,-1.56006 3.2959,-2.37305 1.93359,-0.81298 4.30664,-0.81298 2.04346,0 3.82324,0.65918 1.80176,0.6372 3.14209,1.97754 1.36231,1.31835 2.13135,3.33984 0.79102,2.02148 0.79102,4.76807 0,0.74707 -0.0439,1.58203 -0.022,0.83496 -0.13183,1.45019 l -15.49073,0 q 0.022,1.42823 0.50537,2.5708 0.50537,1.12061 1.31836,1.9336 0.81299,0.79101 1.84571,1.23047 1.03271,0.41748 2.15332,0.41748 1.42822,0 2.63672,-0.59326 1.23046,-0.59327 2.13134,-1.73584 l 3.0542,3.14209 q -1.25244,1.49414 -3.20801,2.41699 -1.95556,0.92285 -4.6582,0.92285 z m 0,-19.95117 q -1.09863,0 -2.10937,0.32959 -1.01075,0.30761 -1.80176,1.01074 -0.76905,0.68115 -1.27442,1.80176 -0.50537,1.1206 -0.59326,2.72461 l 10.98633,0 q -0.0439,-1.60401 -0.50537,-2.72461 -0.46143,-1.12061 -1.2085,-1.80176 -0.74707,-0.70313 -1.66992,-1.01074 -0.90088,-0.32959 -1.82373,-0.32959 z"
           id="path4686"
           style="" />
        <path
           d="m 916.5298,706.4331 0,-4.04296 17.77588,0 0,4.04296 -17.77588,0 z"
           id="path4688"
           style="" />
        <path
           d="m 712.82129,739.82715 0,27.0044 -4.68018,0 0,-27.0044 -8.92089,0 0,-4.50439 22.5,0 0,4.50439 -8.89893,0 z"
           id="path4690"
           style="" />
        <path
           d="m 741.12207,766.83155 0,-2.19727 q -1.1206,1.42823 -2.59277,2.0874 -1.4502,0.65918 -3.36182,0.65918 -1.80175,0 -3.31787,-0.52734 -1.51611,-0.50537 -2.63672,-1.66992 -1.09863,-1.18652 -1.71386,-3.0542 -0.61524,-1.86768 -0.61524,-4.57031 l 0,-13.73291 4.68018,0 0,13.73291 q 0,1.45019 0.35156,2.48291 0.35156,1.01074 0.9668,1.66992 0.61523,0.65918 1.45019,0.9668 0.83496,0.28564 1.82373,0.28564 1.05469,0 1.95557,-0.26367 0.90088,-0.28565 1.56006,-0.90088 0.68115,-0.63721 1.05469,-1.64795 0.3955,-1.01074 0.3955,-2.50488 l 0,-13.8208 4.68018,0 0,23.00537 -4.68018,0 z"
           id="path4692"
           style="" />
        <path
           d="m 752.74561,766.83155 0,-30.27832 4.68018,-2.21924 0,32.49756 -4.68018,0 z"
           id="path4694"
           style="" />
        <path
           d="m 764.61084,766.83155 0,-30.27832 4.68018,-2.21924 0,32.49756 -4.68018,0 z"
           id="path4696"
           style="" />
        <path
           d="m 793.87843,766.83155 -4.48242,0 0,-1.97754 q -0.43946,0.46142 -1.05469,0.92285 -0.61524,0.43945 -1.40625,0.81299 -0.76905,0.35156 -1.73584,0.57129 -0.9668,0.21972 -2.10938,0.21972 -1.75781,0 -3.25195,-0.48339 -1.49414,-0.4834 -2.59277,-1.4502 -1.09864,-0.98877 -1.73584,-2.41699 -0.61524,-1.4502 -0.61524,-3.36182 0,-1.97754 0.74707,-3.40576 0.74707,-1.4502 1.97754,-2.37305 1.23047,-0.94482 2.8125,-1.38427 1.604,-0.43946 3.2959,-0.43946 1.58203,0 3.03223,0.35156 1.47216,0.32959 2.63672,1.01075 l 0,-1.27442 q 0,-1.29638 -0.30762,-2.19726 -0.28565,-0.90088 -0.90088,-1.4502 -0.59326,-0.57129 -1.51611,-0.81299 -0.92286,-0.26367 -2.19727,-0.26367 -2.15332,0 -3.73535,0.57129 -1.56006,0.57129 -2.83448,1.51611 l -1.38427,-3.84521 q 0.70312,-0.4834 1.604,-0.90088 0.90088,-0.43945 1.97754,-0.76904 1.07666,-0.32959 2.3291,-0.50537 1.25244,-0.19776 2.68067,-0.19776 0.96679,0 1.99951,0.10986 1.03271,0.10987 1.99951,0.43946 0.98877,0.30762 1.8457,0.90088 0.87891,0.59326 1.51612,1.56006 0.65918,0.94482 1.03271,2.3291 0.37354,1.38427 0.37354,3.2959 l 0,14.89746 z m -9.93164,-3.60352 q 1.77978,0 3.14209,-0.7251 1.38427,-0.72509 2.30713,-1.73584 l 0,-3.51562 q -0.9668,-0.50537 -2.26319,-0.81299 -1.29639,-0.30762 -2.65869,-0.30762 -1.05469,0 -1.97754,0.19776 -0.92285,0.19775 -1.62598,0.6372 -0.68115,0.41749 -1.07666,1.09864 -0.3955,0.65918 -0.3955,1.604 0,1.64795 1.14257,2.61475 1.16455,0.94482 3.40577,0.94482 z"
           id="path4698"
           style="" />
        <path
           d="m 827.23292,766.83155 0,-13.77686 q 0,-2.5708 -1.05469,-3.95508 -1.05468,-1.38427 -3.16406,-1.38427 -0.94482,0 -1.77979,0.35156 -0.83496,0.35156 -1.47216,1.05469 -0.61524,0.70312 -0.98877,1.75781 -0.35157,1.03271 -0.35157,2.41699 l 0,13.53516 -4.68017,0 0,-13.77686 q 0,-2.5708 -1.07666,-3.95508 -1.05469,-1.38427 -3.16406,-1.38427 -0.94483,0 -1.77979,0.35156 -0.81299,0.35156 -1.4502,1.05469 -0.61523,0.70312 -0.98877,1.75781 -0.35156,1.03271 -0.35156,2.41699 l 0,13.53516 -4.68017,0 0,-23.00537 4.68017,0 0,2.13134 q 0.98877,-1.42822 2.50489,-2.04345 1.51611,-0.61524 3.29589,-0.61524 1.88965,0 3.49366,0.76904 1.62597,0.74707 2.61474,2.50489 1.09864,-1.6919 2.8125,-2.48291 1.71387,-0.79102 3.99903,-0.79102 1.75781,0 3.25195,0.50537 1.51611,0.50537 2.61475,1.56006 1.1206,1.05469 1.75781,2.70264 0.63721,1.64795 0.63721,3.91113 l 0,14.85352 -4.68018,0 z"
           id="path4700"
           style="" />
        <path
           d="m 856.105,766.83155 -4.48242,0 0,-1.97754 q -0.43946,0.46142 -1.05469,0.92285 -0.61524,0.43945 -1.40625,0.81299 -0.76905,0.35156 -1.73584,0.57129 -0.9668,0.21972 -2.10938,0.21972 -1.75781,0 -3.25195,-0.48339 -1.49414,-0.4834 -2.59277,-1.4502 -1.09864,-0.98877 -1.73584,-2.41699 -0.61524,-1.4502 -0.61524,-3.36182 0,-1.97754 0.74707,-3.40576 0.74707,-1.4502 1.97754,-2.37305 1.23047,-0.94482 2.8125,-1.38427 1.604,-0.43946 3.2959,-0.43946 1.58203,0 3.03223,0.35156 1.47216,0.32959 2.63672,1.01075 l 0,-1.27442 q 0,-1.29638 -0.30762,-2.19726 -0.28565,-0.90088 -0.90088,-1.4502 -0.59326,-0.57129 -1.51611,-0.81299 -0.92286,-0.26367 -2.19727,-0.26367 -2.15332,0 -3.73535,0.57129 -1.56006,0.57129 -2.83447,1.51611 l -1.38428,-3.84521 q 0.70312,-0.4834 1.604,-0.90088 0.90088,-0.43945 1.97754,-0.76904 1.07666,-0.32959 2.3291,-0.50537 1.25244,-0.19776 2.68067,-0.19776 0.96679,0 1.99951,0.10986 1.03271,0.10987 1.99951,0.43946 0.98877,0.30762 1.8457,0.90088 0.87891,0.59326 1.51612,1.56006 0.65918,0.94482 1.03271,2.3291 0.37354,1.38427 0.37354,3.2959 l 0,14.89746 z m -9.93164,-3.60352 q 1.77978,0 3.14209,-0.7251 1.38427,-0.72509 2.30713,-1.73584 l 0,-3.51562 q -0.9668,-0.50537 -2.26319,-0.81299 -1.29639,-0.30762 -2.65869,-0.30762 -1.05469,0 -1.97754,0.19776 -0.92285,0.19775 -1.62598,0.6372 -0.68115,0.41749 -1.07666,1.09864 -0.3955,0.65918 -0.3955,1.604 0,1.64795 1.14257,2.61475 1.16455,0.94482 3.40577,0.94482 z"
           id="path4702"
           style="" />
        <path
           d="m 862.47707,766.83155 0,-23.00537 4.68017,0 0,2.79052 q 0.81299,-1.75781 2.10938,-2.52685 1.29638,-0.79102 3.01025,-0.79102 2.28516,0 3.86719,1.38428 l -0.68115,4.32861 q -0.63721,-0.43945 -1.51612,-0.76904 -0.85693,-0.35156 -2.10937,-0.35156 -0.79102,0 -1.62598,0.28564 -0.81299,0.26367 -1.49414,0.9668 -0.68115,0.68115 -1.1206,1.8457 -0.43946,1.14258 -0.43946,2.92237 l 0,12.91992 -4.68017,0 z"
           id="path4704"
           style="" />
        <path
           d="m 880.71437,766.83155 0,-23.00537 4.68018,0 0,23.00537 -4.68018,0 z m 2.3291,-26.58692 q -0.59326,0 -1.1206,-0.21972 -0.50537,-0.21973 -0.90088,-0.59327 -0.37354,-0.3955 -0.59326,-0.90088 -0.21973,-0.52734 -0.21973,-1.1206 0,-0.59326 0.21973,-1.09863 0.21972,-0.52735 0.59326,-0.90088 0.39551,-0.39551 0.90088,-0.61524 0.52734,-0.21972 1.1206,-0.21972 0.59326,0 1.09864,0.21972 0.52734,0.21973 0.90087,0.61524 0.39551,0.37353 0.61524,0.90088 0.21973,0.50537 0.21973,1.09863 0,0.59326 -0.21973,1.1206 -0.21973,0.50538 -0.61524,0.90088 -0.37353,0.37354 -0.90087,0.59327 -0.50538,0.21972 -1.09864,0.21972 z"
           id="path4706"
           style="" />
        <path
           d="m 906.40041,766.83155 0,-13.73291 q 0,-1.4502 -0.35157,-2.46094 -0.35156,-1.03272 -0.96679,-1.66992 -0.61524,-0.65918 -1.4502,-0.94483 -0.83496,-0.30761 -1.82373,-0.30761 -1.05469,0 -1.95556,0.28564 -0.90088,0.26367 -1.56006,0.87891 -0.65918,0.61523 -1.05469,1.64795 -0.37354,1.01074 -0.37354,2.48291 l 0,13.8208 -4.68017,0 0,-23.00537 4.68017,0 0,2.21923 q 1.12061,-1.42822 2.5708,-2.0874 1.4502,-0.65918 3.36182,-0.65918 1.80176,0 3.31787,0.52735 1.51612,0.50537 2.61475,1.66992 1.1206,1.16455 1.73584,3.03222 0.61523,1.86768 0.61523,4.57032 l 0,13.73291 -4.68017,0 z"
           id="path4708"
           style="" />
        <path
           d="m 926.9009,767.38086 q -2.39502,0 -4.32862,-0.81298 -1.93359,-0.83496 -3.2959,-2.37305 -1.3623,-1.56006 -2.10937,-3.80127 -0.7251,-2.24121 -0.7251,-5.07568 0,-2.83448 0.74707,-5.05372 0.74707,-2.24121 2.10938,-3.77929 1.38427,-1.56006 3.29589,-2.37305 1.9336,-0.81299 4.30665,-0.81299 2.04345,0 3.82324,0.65918 1.80176,0.63721 3.14209,1.97754 1.3623,1.31836 2.13135,3.33984 0.79101,2.02149 0.79101,4.76807 0,0.74707 -0.0439,1.58203 -0.022,0.83496 -0.13184,1.4502 l -15.49072,0 q 0.022,1.42822 0.50537,2.5708 0.50537,1.1206 1.31836,1.93359 0.81299,0.79102 1.8457,1.23047 1.03271,0.41748 2.15332,0.41748 1.42822,0 2.63672,-0.59326 1.23047,-0.59326 2.13135,-1.73584 l 3.0542,3.14209 q -1.25244,1.49414 -3.20801,2.41699 -1.95557,0.92285 -4.6582,0.92285 z m 0,-19.95117 q -1.09864,0 -2.10938,0.32959 -1.01074,0.30762 -1.80176,1.01074 -0.76904,0.68116 -1.27441,1.80176 -0.50537,1.12061 -0.59326,2.72461 l 10.98633,0 q -0.0439,-1.604 -0.50538,-2.72461 -0.46142,-1.1206 -1.20849,-1.80176 -0.74707,-0.70312 -1.66992,-1.01074 -0.90088,-0.32959 -1.82373,-0.32959 z"
           id="path4710"
           style="" />
      </g>
    </g>
  </g>
  <g
     inkscape:groupmode="layer"
     id="layer3"
     inkscape:label="Date"
     transform="translate(0.78391886,0.73095677)"
     style="display:inline">
    <g
       style="font-style:normal;font-variant:normal;font-weight:300;font-stretch:normal;font-size:15.00000191px;line-height:125%;font-family:Overpass;-inkscape-font-specification:'Overpass, Light';text-align:start;letter-spacing:0px;word-spacing:0px;writing-mode:lr-tb;text-anchor:start;fill:#222222;fill-opacity:1;stroke:none;stroke-width:1px;stroke-linecap:butt;stroke-linejoin:miter;stroke-opacity:1"
       id="text4631">
      <path
         d="m 24.216024,1090.5665 q 0,-0.99 0.285,-1.695 0.285,-0.72 0.735,-1.26 0.45,-0.54 1.02,-0.945 0.57,-0.405 1.14,-0.795 0.495,-0.33 0.945001,-0.645 0.45,-0.33 0.795,-0.69 0.36,-0.36 0.57,-0.765 0.21,-0.42 0.21,-0.93 0,-0.855 -0.6,-1.425 -0.585,-0.585 -1.680001,-0.585 -1.065,0 -1.605,0.48 -0.54,0.465 -0.735,1.215 l -0.93,-0.42 q 0.12,-0.465 0.405,-0.87 0.285,-0.405 0.72,-0.705 0.435,-0.3 0.99,-0.465 0.57,-0.18 1.245,-0.18 1.560001,0 2.415001,0.81 0.87,0.795 0.87,2.145 0,0.72 -0.285,1.275 -0.27,0.555 -0.72,1.02 -0.435,0.45 -0.99,0.84 -0.555,0.375 -1.125001,0.735 -0.45,0.3 -0.87,0.6 -0.42,0.285 -0.78,0.63 -0.345,0.33 -0.585,0.735 -0.24,0.39 -0.33,0.885 l 5.775001,0 0,1.005 -6.885001,0 z"
         id="path4713"
         inkscape:connector-curvature="0" />
      <path
         d="m 34.530166,1090.5665 0,-8.595 -1.785,0 0,-0.6 q 0.795,0 1.35,-0.27 0.555,-0.285 0.81,-1.035 l 0.675,0 0,10.5 -1.05,0 z"
         id="path4715"
         inkscape:connector-curvature="0" />
      <path
         d="m 50.016964,1090.5665 0,-7.77 -3.51,7.95 -3.27,-7.905 0,7.725 -1.050001,0 0,-10.5 0.900001,0 3.51,8.175 3.555,-8.175 0.915001,0 0,10.5 -1.050001,0 z"
         id="path4717"
         inkscape:connector-curvature="0" />
      <path
         d="m 58.412982,1090.5665 0,-0.75 q -0.465001,0.42 -1.050001,0.675 -0.57,0.255 -1.2,0.255 -1.155,0 -1.89,-0.645 -0.72,-0.66 -0.72,-1.95 0,-0.66 0.225,-1.14 0.24,-0.48 0.615,-0.78 0.39,-0.315 0.9,-0.465 0.51,-0.15 1.05,-0.15 0.48,0 0.99,0.12 0.51,0.12 1.080001,0.42 l 0,-0.645 q 0,-0.585 -0.15,-0.945 -0.135,-0.36 -0.375001,-0.57 -0.225,-0.21 -0.54,-0.285 -0.3,-0.075 -0.615,-0.075 -0.285,0 -0.6,0.075 -0.315,0.075 -0.615,0.195 -0.3,0.12 -0.585,0.27 -0.27,0.135 -0.48,0.285 l -0.3,-0.9 q 0.465,-0.3 1.17,-0.57 0.72,-0.27 1.515,-0.27 0.405,0 0.855,0.12 0.450001,0.105 0.825001,0.405 0.375,0.285 0.615,0.81 0.255,0.51 0.255,1.32 l 0,5.19 -0.975,0 z m -2.145001,-0.735 q 0.345,0 0.66,-0.105 0.315,-0.105 0.585,-0.27 0.27,-0.165 0.495,-0.375 0.225001,-0.225 0.405001,-0.435 l 0,-1.485 q -0.375001,-0.255 -0.930001,-0.435 -0.54,-0.195 -1.035,-0.195 -0.39,0 -0.735,0.105 -0.345,0.09 -0.615,0.3 -0.255,0.195 -0.42,0.495 -0.15,0.3 -0.15,0.72 0,0.765 0.45,1.23 0.45,0.45 1.29,0.45 z"
         id="path4719"
         inkscape:connector-curvature="0" />
      <path
         d="m 61.79595,1090.5665 0,-7.665 1.05,0 0,1.08 q 0.42,-0.63 0.975,-0.945 0.555,-0.315 1.08,-0.315 0.57,0 0.96,0.315 l -0.165,1.02 q -0.15,-0.09 -0.39,-0.18 -0.225,-0.105 -0.6,-0.105 -0.255,0 -0.585,0.12 -0.315,0.12 -0.6,0.405 -0.285,0.285 -0.48,0.765 -0.195,0.465 -0.195,1.17 l 0,4.335 -1.05,0 z"
         id="path4721"
         inkscape:connector-curvature="0" />
      <path
         d="m 70.768766,1090.5665 q 0,-0.99 0.285,-1.695 0.285,-0.72 0.735,-1.26 0.45,-0.54 1.02,-0.945 0.57,-0.405 1.14,-0.795 0.495,-0.33 0.945001,-0.645 0.45,-0.33 0.795,-0.69 0.36,-0.36 0.57,-0.765 0.21,-0.42 0.21,-0.93 0,-0.855 -0.6,-1.425 -0.585,-0.585 -1.680001,-0.585 -1.065,0 -1.605,0.48 -0.54,0.465 -0.735,1.215 l -0.93,-0.42 q 0.12,-0.465 0.405,-0.87 0.285,-0.405 0.72,-0.705 0.435,-0.3 0.99,-0.465 0.57,-0.18 1.245,-0.18 1.560001,0 2.415001,0.81 0.87,0.795 0.87,2.145 0,0.72 -0.285,1.275 -0.27,0.555 -0.72,1.02 -0.435,0.45 -0.99,0.84 -0.555,0.375 -1.125001,0.735 -0.45,0.3 -0.87,0.6 -0.42,0.285 -0.78,0.63 -0.345,0.33 -0.585,0.735 -0.24,0.39 -0.33,0.885 l 5.775001,0 0,1.005 -6.885001,0 z"
         id="path4723"
         inkscape:connector-curvature="0" />
      <path
         d="m 83.347907,1090.7465 q -1.035,0 -1.725,-0.48 -0.69,-0.48 -1.11,-1.245 -0.405,-0.78 -0.585,-1.74 -0.18,-0.975 -0.18,-1.965 0,-0.54 0.06,-1.155 0.06,-0.63 0.21,-1.23 0.165,-0.6 0.42,-1.155 0.27,-0.555 0.675,-0.975 0.405,-0.42 0.945,-0.66 0.555,-0.255 1.29,-0.255 1.035,0 1.725,0.495 0.69,0.48 1.095,1.26 0.42,0.78 0.600001,1.755 0.18,0.96 0.18,1.92 0,0.555 -0.075,1.17 -0.06,0.615 -0.225,1.23 -0.150001,0.6 -0.420001,1.155 -0.255,0.54 -0.66,0.96 -0.405,0.42 -0.96,0.675 -0.54,0.24 -1.26,0.24 z m 0,-0.945 q 0.78,0 1.26,-0.42 0.495,-0.435 0.765,-1.095 0.27,-0.66 0.36,-1.455 0.09,-0.795 0.09,-1.515 0,-0.81 -0.105,-1.605 -0.105,-0.81 -0.39,-1.44 -0.285,-0.645 -0.765,-1.035 -0.48,-0.405 -1.215,-0.405 -0.795,0 -1.29,0.435 -0.48,0.435 -0.75,1.095 -0.27,0.66 -0.375,1.455 -0.09,0.78 -0.09,1.5 0,0.825 0.105,1.635 0.105,0.795 0.39,1.44 0.285,0.63 0.765,1.02 0.495,0.39 1.245,0.39 z"
         id="path4725"
         inkscape:connector-curvature="0" />
      <path
         d="m 90.370016,1090.5665 0,-8.595 -1.785,0 0,-0.6 q 0.795,0 1.35,-0.27 0.555,-0.285 0.81,-1.035 l 0.675,0 0,10.5 -1.05,0 z"
         id="path4727"
         inkscape:connector-curvature="0" />
      <path
         d="m 97.479782,1089.8015 q 0.495,0 0.915,-0.15 0.435,-0.165 0.75,-0.465 0.315,-0.3 0.495,-0.735 0.18,-0.435 0.18,-0.99 0,-0.465 -0.165,-0.885 -0.165,-0.42 -0.48,-0.735 -0.3,-0.33 -0.735,-0.51 -0.435,-0.195 -0.96,-0.195 -0.525,0 -0.96,0.195 -0.435,0.18 -0.75,0.51 -0.3,0.315 -0.465,0.735 -0.165,0.42 -0.165,0.885 0,0.555 0.18,0.99 0.18,0.435 0.495,0.735 0.315,0.3 0.735,0.465 0.435,0.15 0.93,0.15 z m 0,-9.915 q 0.63,0 1.17,0.225 0.555,0.21 0.945,0.585 0.39,0.375 0.614998,0.87 0.225,0.495 0.225,1.035 0,0.675 -0.345,1.275 -0.329998,0.585 -1.049998,0.885 0.84,0.315 1.349998,1.095 0.525,0.765 0.525,1.755 0,0.66 -0.255,1.245 -0.255,0.57 -0.719998,0.99 -0.465,0.42 -1.095,0.66 -0.63,0.24 -1.365,0.24 -0.75,0 -1.38,-0.24 -0.615,-0.24 -1.08,-0.66 -0.465,-0.42 -0.72,-0.99 -0.255,-0.585 -0.255,-1.245 0,-0.495 0.135,-0.945 0.135,-0.45 0.375,-0.81 0.255,-0.375 0.6,-0.66 0.345,-0.285 0.75,-0.435 -0.675,-0.3 -1.035,-0.885 -0.345,-0.6 -0.345,-1.275 0,-0.54 0.225,-1.035 0.225,-0.495 0.615,-0.87 0.39,-0.375 0.93,-0.585 0.555,-0.225 1.185,-0.225 z m 0,4.56 q 0.87,0 1.38,-0.48 0.51,-0.48 0.51,-1.23 0,-0.885 -0.54,-1.395 -0.54,-0.51 -1.35,-0.51 -0.81,0 -1.35,0.51 -0.54,0.51 -0.54,1.395 0,0.75 0.51,1.23 0.51,0.48 1.38,0.48 z"
         id="path4729"
         inkscape:connector-curvature="0" />
    </g>
  </g>
</svg>
