<?xml version="1.0" encoding="UTF-8" standalone="no"?>
<!-- Created with Inkscape (http://www.inkscape.org/) -->

<svg
   xmlns:dc="http://purl.org/dc/elements/1.1/"
   xmlns:cc="http://creativecommons.org/ns#"
   xmlns:rdf="http://www.w3.org/1999/02/22-rdf-syntax-ns#"
   xmlns:svg="http://www.w3.org/2000/svg"
   xmlns="http://www.w3.org/2000/svg"
   xmlns:sodipodi="http://sodipodi.sourceforge.net/DTD/sodipodi-0.dtd"
   xmlns:inkscape="http://www.inkscape.org/namespaces/inkscape"
   width="477.44714"
   height="353.73666"
   viewBox="0 0 477.44714 353.73666"
   id="svg2"
   version="1.1"
   inkscape:version="0.92.4 (5da689c313, 2019-01-14)"
   sodipodi:docname="MHT.svg"
   inkscape:export-filename="C:\Users\paulb\Dropbox\Projects\Terminal Silhouettes\Silhouettes\png\MHT.png"
   inkscape:export-xdpi="90"
   inkscape:export-ydpi="90">
  <defs
     id="defs4" />
  <sodipodi:namedview
     id="base"
     pagecolor="#ffffff"
     bordercolor="#666666"
     borderopacity="1.0"
     inkscape:pageopacity="1"
     inkscape:pageshadow="2"
     inkscape:zoom="1"
     inkscape:cx="-164.31717"
     inkscape:cy="104.58918"
     inkscape:document-units="px"
     inkscape:current-layer="layer2"
     showgrid="false"
     units="px"
     fit-margin-top="25"
     fit-margin-left="25"
     fit-margin-right="25"
     fit-margin-bottom="25"
     inkscape:window-width="1920"
     inkscape:window-height="1137"
     inkscape:window-x="1912"
     inkscape:window-y="-8"
     inkscape:window-maximized="1" />
  <metadata
     id="metadata7">
    <rdf:RDF>
      <cc:Work
         rdf:about="">
        <dc:format>image/svg+xml</dc:format>
        <dc:type
           rdf:resource="http://purl.org/dc/dcmitype/StillImage" />
        <dc:title />
      </cc:Work>
    </rdf:RDF>
  </metadata>
  <g
     inkscape:groupmode="layer"
     id="layer2"
     inkscape:label="Terminal"
     transform="translate(-542.58294,-673.32265)">
    <path
       style="fill:#dddddd;fill-opacity:1;fill-rule:evenodd;stroke:#222222;stroke-width:1.5;stroke-linecap:butt;stroke-linejoin:miter;stroke-miterlimit:4;stroke-dasharray:none;stroke-opacity:1"
       d="m 794.42041,966.49078 199.95229,-86.91373 -46.75418,-107.88124 -9.63827,4.14277 -3.38188,-8.45464 -11.75194,5.41097 2.19821,5.24188 -6.93281,3.29731 1.18365,2.62094 -16.5711,7.60918 c 0,0 10.48376,24.09573 3.38186,45.90871 l -4.90218,12.79453 c 0,0 -8.48924,19.25024 -32.6417,30.01125 l -69.34869,30.01124 0.11956,2.51089 -54.16371,23.79378 0.23913,10.16318 -28.93514,15.54367 0.7174,5.85876 -2.1522,1.19567 3.34786,30.25038 5.3805,-2.27176 1.0761,4.06528 7.77184,-2.86962 -0.83697,-4.42397 26.06555,-11.83709 -4.06527,-8.72838 36.58741,-16.61977 z"
       id="path4148"
       inkscape:connector-curvature="0" />
  </g>
  <g
     inkscape:groupmode="layer"
     id="layer3"
     inkscape:label="Label"
     transform="translate(-465.79723,-389.08544)">
    <g
       id="g4159"
       transform="translate(105.71428,97.85714)">
      <g
         style="font-style:normal;font-variant:normal;font-weight:bold;font-stretch:normal;font-size:125px;line-height:110.00000238%;font-family:Overpass;-inkscape-font-specification:'Overpass, Bold';text-align:center;letter-spacing:0px;word-spacing:0px;writing-mode:lr-tb;text-anchor:middle;fill:#dddddd;fill-opacity:1;stroke:#222222;stroke-width:0.25;stroke-linecap:butt;stroke-linejoin:miter;stroke-miterlimit:4;stroke-dasharray:none;stroke-opacity:1"
         id="text4151">
        <path
           d="m 449.47797,403.87772 0,-44.98291 q 0,-0.73243 0,-1.70899 0.061,-0.97656 0.061,-1.95312 0.061,-1.0376 0.061,-1.89209 0.061,-0.8545 0.12207,-1.34278 -0.67139,2.0752 -1.34278,3.72315 -0.61035,1.64795 -1.28173,3.17383 l -21.24024,46.50878 -21.3623,-46.50878 q -0.67139,-1.52588 -1.34278,-3.17383 -0.61035,-1.64795 -1.28174,-3.72315 0.061,0.48828 0.061,1.34278 0.061,0.85449 0.061,1.89209 0.061,0.97656 0.061,1.95312 0.061,0.97656 0.061,1.70899 l 0,44.98291 -16.90674,0 0,-87.52442 17.15088,0 21.48437,48.27881 q 0.67139,1.58691 1.2207,3.05176 0.54932,1.40381 1.0376,2.92969 0.48828,-1.52588 1.0376,-2.92969 0.54932,-1.46485 1.2207,-3.05176 l 21.85059,-48.27881 16.11328,0 0,87.52442 -16.8457,0 z"
           id="path4166"
           style="" />
        <path
           d="m 542.49554,403.87772 0,-36.98731 -36.62109,0 0,36.98731 -16.90674,0 0,-87.52442 16.90674,0 0,34.5459 36.62109,0 0,-34.5459 16.84571,0 0,87.52442 -16.84571,0 z"
           id="path4168"
           style="" />
        <path
           d="m 618.24017,332.64969 0,71.22803 -16.8457,0 0,-71.22803 -25.02441,0 0,-16.29639 66.89453,0 0,16.29639 -25.02442,0 z"
           id="path4170"
           style="" />
      </g>
      <g
         style="font-style:normal;font-variant:normal;font-weight:normal;font-stretch:normal;font-size:30px;line-height:110.00000238%;font-family:Overpass;-inkscape-font-specification:'Overpass, Normal';text-align:center;letter-spacing:0px;word-spacing:0px;writing-mode:lr-tb;text-anchor:middle;fill:#000000;fill-opacity:1;stroke:none;stroke-width:1px;stroke-linecap:butt;stroke-linejoin:miter;stroke-opacity:1"
         id="text4155">
        <path
           d="m 424.4267,442.19373 0,-11.48438 0.0879,-3.14941 -1.23047,3.2373 -5.06836,11.7627 -5.09766,-11.85059 -1.25976,-3.14941 0.0879,3.14941 0,11.48438 -3.12012,0 0,-21.00586 3.14941,0 5.63965,13.11035 0.57129,1.53808 0.60059,-1.53808 5.61035,-13.11035 3.14941,0 0,21.00586 -3.12011,0 z"
           id="path4173"
           style="" />
        <path
           d="m 444.27533,442.19373 -2.98828,0 0,-1.31836 q -0.29297,0.30761 -0.70313,0.61523 -0.41015,0.29297 -0.9375,0.54199 -0.51269,0.23438 -1.15722,0.38086 -0.64453,0.14649 -1.40625,0.14649 -1.17188,0 -2.16797,-0.32227 -0.9961,-0.32226 -1.72852,-0.9668 -0.73242,-0.65918 -1.15722,-1.61132 -0.41016,-0.9668 -0.41016,-2.24122 0,-1.31835 0.49805,-2.2705 0.49804,-0.9668 1.31836,-1.58203 0.82031,-0.62989 1.875,-0.92286 1.06933,-0.29296 2.19726,-0.29296 1.05469,0 2.02149,0.23437 0.98144,0.21973 1.75781,0.67383 l 0,-0.84961 q 0,-0.86426 -0.20508,-1.46484 -0.19043,-0.60059 -0.60059,-0.9668 -0.3955,-0.38086 -1.01074,-0.54199 -0.61523,-0.17578 -1.46484,-0.17578 -1.43555,0 -2.49024,0.38085 -1.04004,0.38086 -1.88964,1.01075 l -0.92286,-2.56348 q 0.46875,-0.32227 1.06934,-0.60059 0.60059,-0.29296 1.31836,-0.51269 0.71777,-0.21973 1.55273,-0.33692 0.83496,-0.13183 1.78711,-0.13183 0.64453,0 1.33301,0.0732 0.68848,0.0732 1.33301,0.29297 0.65918,0.20508 1.23047,0.60059 0.58593,0.3955 1.01074,1.04003 0.43945,0.62989 0.68848,1.55274 0.24902,0.92285 0.24902,2.19726 l 0,9.93165 z m -6.62109,-2.40235 q 1.18652,0 2.09472,-0.4834 0.92285,-0.4834 1.53809,-1.15722 l 0,-2.34375 q -0.64453,-0.33692 -1.50879,-0.542 -0.86426,-0.20507 -1.77246,-0.20507 -0.70313,0 -1.31836,0.13183 -0.61524,0.13184 -1.08399,0.42481 -0.4541,0.27832 -0.71777,0.73242 -0.26367,0.43945 -0.26367,1.06933 0,1.09864 0.76172,1.74317 0.77637,0.62988 2.27051,0.62988 z"
           id="path4175"
           style="" />
        <path
           d="m 458.00092,442.19373 0,-9.15528 q 0,-0.96679 -0.23438,-1.64062 -0.23437,-0.68848 -0.64453,-1.11328 -0.41016,-0.43946 -0.9668,-0.62989 -0.55664,-0.20508 -1.21582,-0.20508 -0.70312,0 -1.30371,0.19043 -0.60058,0.17579 -1.04004,0.58594 -0.43945,0.41016 -0.70312,1.09863 -0.24903,0.67383 -0.24903,1.65528 l 0,9.21387 -3.12011,0 0,-15.33692 3.12011,0 0,1.47949 q 0.74707,-0.95214 1.71387,-1.3916 0.9668,-0.43945 2.24121,-0.43945 1.20117,0 2.21192,0.35156 1.01074,0.33692 1.74316,1.11328 0.74707,0.77637 1.15723,2.02149 0.41015,1.24511 0.41015,3.04687 l 0,9.15528 -3.12011,0 z"
           id="path4177"
           style="" />
        <path
           d="m 471.38959,442.55994 q -1.53809,0 -2.78321,-0.542 -1.23046,-0.54199 -2.10937,-1.56738 -0.86426,-1.04004 -1.33301,-2.51953 -0.46875,-1.49414 -0.46875,-3.38379 0,-1.88965 0.46875,-3.38379 0.46875,-1.49414 1.33301,-2.51953 0.87891,-1.04004 2.10937,-1.58203 1.24512,-0.55664 2.78321,-0.55664 2.13867,0 3.61816,0.95215 1.49414,0.95215 2.16797,3.00293 l -2.95898,1.02539 q -0.33692,-0.87891 -1.02539,-1.4209 -0.68848,-0.55664 -1.68458,-0.55664 -0.8789,0 -1.55273,0.35156 -0.67383,0.35156 -1.14258,1.01074 -0.4541,0.64453 -0.70312,1.58203 -0.23438,0.92286 -0.23438,2.09473 0,1.17188 0.23438,2.10938 0.24902,0.92285 0.68847,1.56738 0.45411,0.64453 1.09864,0.99609 0.65918,0.33692 1.49414,0.33692 1.05468,0 1.80176,-0.58594 0.76171,-0.58594 1.08398,-1.66992 l 2.95898,0.9375 q -0.61523,2.13867 -2.09472,3.2373 -1.46485,1.08399 -3.75,1.08399 z"
           id="path4179"
           style="" />
        <path
           d="m 490.46185,442.19373 0,-9.15528 q 0,-0.96679 -0.23437,-1.64062 -0.23438,-0.68848 -0.64453,-1.11328 -0.41016,-0.43946 -0.9668,-0.62989 -0.55664,-0.20508 -1.21582,-0.20508 -0.70313,0 -1.30371,0.19043 -0.60059,0.17579 -1.04004,0.58594 -0.43945,0.41016 -0.70313,1.09863 -0.24902,0.67383 -0.24902,1.65528 l 0,9.21387 -3.12012,0 0,-20.21485 3.12012,-1.45019 0,7.80761 q 0.74707,-0.95214 1.71387,-1.3916 0.9668,-0.43945 2.24121,-0.43945 1.20117,0 2.21191,0.35156 1.01075,0.33692 1.74317,1.11328 0.74707,0.77637 1.15722,2.02149 0.41016,1.24511 0.41016,3.04687 l 0,9.15528 -3.12012,0 z"
           id="path4181"
           style="" />
        <path
           d="m 504.12885,442.55994 q -1.59668,0 -2.88575,-0.542 -1.28906,-0.55664 -2.19726,-1.58203 -0.90821,-1.04004 -1.40625,-2.53418 -0.4834,-1.49414 -0.4834,-3.38379 0,-1.88964 0.49805,-3.36914 0.49804,-1.49414 1.40625,-2.51953 0.92285,-1.04004 2.19726,-1.58203 1.28906,-0.54199 2.8711,-0.54199 1.3623,0 2.54882,0.43945 1.20118,0.42481 2.09473,1.31836 0.9082,0.87891 1.4209,2.22656 0.52734,1.34766 0.52734,3.17871 0,0.49805 -0.0293,1.05469 -0.0147,0.55664 -0.0879,0.9668 l -10.32714,0 q 0.0146,0.95215 0.33691,1.71387 0.33691,0.74707 0.87891,1.28906 0.54199,0.52734 1.23047,0.82031 0.68847,0.27832 1.43554,0.27832 0.95215,0 1.75781,-0.39551 0.82032,-0.3955 1.4209,-1.15722 l 2.03614,2.09472 q -0.83497,0.9961 -2.13868,1.61133 -1.30371,0.61524 -3.10546,0.61524 z m 0,-13.30078 q -0.73243,0 -1.40625,0.21972 -0.67383,0.20508 -1.20118,0.67383 -0.51269,0.4541 -0.84961,1.20117 -0.33691,0.74707 -0.3955,1.81641 l 7.32421,0 q -0.0293,-1.06934 -0.33691,-1.81641 -0.30762,-0.74707 -0.80566,-1.20117 -0.49805,-0.46875 -1.11328,-0.67383 -0.60059,-0.21972 -1.21582,-0.21972 z"
           id="path4183"
           style="" />
        <path
           d="m 519.0556,442.55994 q -0.9082,0 -1.77246,-0.17578 -0.86426,-0.17579 -1.62597,-0.49805 -0.74707,-0.32227 -1.36231,-0.77637 -0.61523,-0.46875 -1.02539,-1.04004 l 2.21191,-1.88965 q 0.23438,0.21973 0.57129,0.49805 0.33692,0.26367 0.77637,0.49805 0.43945,0.23437 0.98145,0.39551 0.54199,0.16113 1.18652,0.16113 0.58594,0 1.08398,-0.0879 0.49805,-0.0879 0.84961,-0.27832 0.36621,-0.19043 0.55664,-0.49805 0.20508,-0.32227 0.20508,-0.79102 0,-0.54199 -0.38086,-0.92285 -0.36621,-0.3955 -0.96679,-0.70312 -0.60059,-0.32227 -1.36231,-0.60059 -0.76172,-0.29297 -1.53809,-0.61523 -0.71777,-0.30762 -1.40625,-0.67383 -0.68847,-0.36621 -1.23046,-0.87891 -0.52735,-0.51269 -0.86426,-1.21582 -0.32227,-0.71777 -0.32227,-1.72851 0,-1.02539 0.41016,-1.81641 0.4248,-0.79101 1.14258,-1.31836 0.73242,-0.54199 1.69922,-0.82031 0.98144,-0.27832 2.09472,-0.27832 0.98145,0 1.80176,0.19043 0.83496,0.19043 1.49414,0.51269 0.67383,0.32227 1.18652,0.74707 0.5127,0.41016 0.89356,0.86426 l -2.25586,1.78711 q -0.20508,-0.20508 -0.49805,-0.4248 -0.27832,-0.23438 -0.65918,-0.42481 -0.38086,-0.19043 -0.86425,-0.30762 -0.4834,-0.13183 -1.09864,-0.13183 -0.99609,0 -1.58203,0.36621 -0.57129,0.36621 -0.57129,1.05469 0,0.43945 0.30762,0.77636 0.30762,0.32227 0.83496,0.60059 0.52734,0.27832 1.20117,0.54199 0.68848,0.24903 1.43555,0.54199 0.79101,0.30762 1.55273,0.68848 0.76172,0.38086 1.34766,0.9375 0.60059,0.55664 0.95215,1.34766 0.36621,0.79101 0.36621,1.90429 0,1.09864 -0.41016,1.94825 -0.41015,0.83496 -1.17187,1.40625 -0.74707,0.55664 -1.81641,0.83496 -1.05469,0.29297 -2.3584,0.29297 z"
           id="path4185"
           style="" />
        <path
           d="m 533.00092,442.55994 q -0.90821,0 -1.56739,-0.27832 -0.64453,-0.26368 -1.06933,-0.76172 -0.41016,-0.49805 -0.60059,-1.20117 -0.19043,-0.71778 -0.19043,-1.58204 l 0,-9.16992 -2.37305,0 0,-2.70996 2.37305,0 0,-4.81933 3.12012,-1.50879 0,6.32812 3.63281,0 0,2.70996 -3.63281,0 0,8.36426 q 0,0.38086 0.0586,0.70313 0.0732,0.32226 0.23438,0.55664 0.17578,0.23437 0.46875,0.36621 0.29297,0.11718 0.74707,0.11718 1.11328,0 2.27051,-0.71777 l -0.38086,2.90039 q -0.64454,0.32227 -1.40625,0.5127 -0.76172,0.19043 -1.68457,0.19043 z"
           id="path4187"
           style="" />
        <path
           d="m 546.14056,442.55994 q -1.59668,0 -2.88574,-0.542 -1.28906,-0.55664 -2.19726,-1.58203 -0.90821,-1.04004 -1.40625,-2.53418 -0.4834,-1.49414 -0.4834,-3.38379 0,-1.88964 0.49804,-3.36914 0.49805,-1.49414 1.40625,-2.51953 0.92286,-1.04004 2.19727,-1.58203 1.28906,-0.54199 2.87109,-0.54199 1.36231,0 2.54883,0.43945 1.20117,0.42481 2.09473,1.31836 0.9082,0.87891 1.4209,2.22656 0.52734,1.34766 0.52734,3.17871 0,0.49805 -0.0293,1.05469 -0.0146,0.55664 -0.0879,0.9668 l -10.32715,0 q 0.0147,0.95215 0.33692,1.71387 0.33691,0.74707 0.87891,1.28906 0.54199,0.52734 1.23046,0.82031 0.68848,0.27832 1.43555,0.27832 0.95215,0 1.75781,-0.39551 0.82032,-0.3955 1.4209,-1.15722 l 2.03613,2.09472 q -0.83496,0.9961 -2.13867,1.61133 -1.30371,0.61524 -3.10547,0.61524 z m 0,-13.30078 q -0.73242,0 -1.40625,0.21972 -0.67382,0.20508 -1.20117,0.67383 -0.51269,0.4541 -0.84961,1.20117 -0.33691,0.74707 -0.39551,1.81641 l 7.32422,0 q -0.0293,-1.06934 -0.33691,-1.81641 -0.30762,-0.74707 -0.80566,-1.20117 -0.49805,-0.46875 -1.11329,-0.67383 -0.60058,-0.21972 -1.21582,-0.21972 z"
           id="path4189"
           style="" />
        <path
           d="m 556.33588,442.19373 0,-15.33692 3.12011,0 0,1.86035 q 0.542,-1.17187 1.40625,-1.68457 0.86426,-0.52734 2.00684,-0.52734 1.52344,0 2.57812,0.92285 l -0.4541,2.88574 q -0.4248,-0.29297 -1.01074,-0.51269 -0.57129,-0.23438 -1.40625,-0.23438 -0.52734,0 -1.08398,0.19043 -0.542,0.17578 -0.9961,0.64453 -0.4541,0.4541 -0.74707,1.23047 -0.29297,0.76172 -0.29297,1.94824 l 0,8.61329 -3.12011,0 z"
           id="path4191"
           style="" />
        <path
           d="m 567.43939,445.68005 q 0.20508,-0.17578 0.4834,-0.51269 0.29297,-0.32227 0.57129,-0.74707 0.27832,-0.41016 0.4834,-0.89356 0.21972,-0.46875 0.29297,-0.96679 -0.39551,-0.0439 -0.76172,-0.20508 -0.36621,-0.16113 -0.64453,-0.43945 -0.26368,-0.27833 -0.43946,-0.64454 -0.16113,-0.36621 -0.16113,-0.82031 0,-0.51269 0.17578,-0.92285 0.19043,-0.4248 0.4834,-0.71777 0.30762,-0.30762 0.70313,-0.46875 0.41015,-0.16114 0.8496,-0.16114 0.46875,0 0.89356,0.17578 0.43945,0.16114 0.76172,0.49805 0.33691,0.33692 0.52734,0.84961 0.19043,0.5127 0.19043,1.20117 0,0.86426 -0.26367,1.68457 -0.24902,0.82032 -0.68848,1.52344 -0.43945,0.71777 -1.04004,1.30371 -0.58593,0.60059 -1.24511,1.01074 l -1.17188,-0.74707 z"
           id="path4193"
           style="" />
        <path
           d="m 595.46185,442.19373 -9.08203,-14.25293 -0.84961,-1.55274 0.0879,1.55274 0,14.25293 -3.12011,0 0,-21.00586 3.14941,0 8.8623,14.01855 0.86426,1.61133 -0.0879,-1.58203 0,-14.04785 3.12012,0 0,21.00586 -2.94434,0 z"
           id="path4195"
           style="" />
        <path
           d="m 616.52631,442.19373 0,-9.36036 -9.58008,0 0,9.36036 -3.12012,0 0,-21.00586 3.12012,0 0,8.70117 9.58008,0 0,-8.70117 3.12011,0 0,21.00586 -3.12011,0 z"
           id="path4197"
           style="" />
      </g>
    </g>
  </g>
</svg>
