<?xml version="1.0" encoding="UTF-8" standalone="no"?>
<!-- Created with Inkscape (http://www.inkscape.org/) -->

<svg
   xmlns:dc="http://purl.org/dc/elements/1.1/"
   xmlns:cc="http://creativecommons.org/ns#"
   xmlns:rdf="http://www.w3.org/1999/02/22-rdf-syntax-ns#"
   xmlns:svg="http://www.w3.org/2000/svg"
   xmlns="http://www.w3.org/2000/svg"
   xmlns:sodipodi="http://sodipodi.sourceforge.net/DTD/sodipodi-0.dtd"
   xmlns:inkscape="http://www.inkscape.org/namespaces/inkscape"
   sodipodi:docname="MIA.svg"
   inkscape:version="0.91 r13725"
   version="1.1"
   id="svg2"
   viewBox="0 0 1771.5655 1174.1355"
   height="1174.1355"
   width="1771.5654"
   inkscape:export-filename="C:\Users\paulb\OneDrive\Projects\Terminal Silhouettes\Silhouettes\png-flight-historian\MIA.png"
   inkscape:export-xdpi="90"
   inkscape:export-ydpi="90">
  <sodipodi:namedview
     inkscape:snap-smooth-nodes="true"
     inkscape:snap-midpoints="false"
     inkscape:snap-to-guides="true"
     inkscape:snap-object-midpoints="false"
     inkscape:object-nodes="true"
     inkscape:guide-bbox="true"
     showguides="true"
     inkscape:window-maximized="1"
     inkscape:window-y="-8"
     inkscape:window-x="1912"
     inkscape:window-height="1137"
     inkscape:window-width="1920"
     fit-margin-bottom="100"
     fit-margin-right="100"
     fit-margin-left="100"
     fit-margin-top="100"
     units="px"
     showgrid="false"
     inkscape:current-layer="layer5"
     inkscape:document-units="px"
     inkscape:cy="602.28275"
     inkscape:cx="940.34651"
     inkscape:zoom="0.5"
     inkscape:pageshadow="2"
     inkscape:pageopacity="1"
     borderopacity="1.0"
     bordercolor="#666666"
     pagecolor="#ffffff"
     id="base" />
  <title
     id="title4147">MIA</title>
  <defs
     id="defs4" />
  <metadata
     id="metadata7">
    <rdf:RDF>
      <cc:Work
         rdf:about="">
        <dc:format>image/svg+xml</dc:format>
        <dc:type
           rdf:resource="http://purl.org/dc/dcmitype/StillImage" />
        <dc:title>MIA</dc:title>
        <dc:creator>
          <cc:Agent>
            <dc:title>Paul Bogard</dc:title>
          </cc:Agent>
        </dc:creator>
        <dc:description>Terminal Silhouette of MIA (Miami)</dc:description>
        <cc:license
           rdf:resource="https://creativecommons.org/licenses/by-sa/4.0/" />
      </cc:Work>
    </rdf:RDF>
  </metadata>
  <g
     inkscape:groupmode="layer"
     id="layer1"
     inkscape:label="Background"
     transform="translate(0,1.9531253e-6)">
    <rect
       style="opacity:1;fill:#dbdcdf;fill-opacity:1;stroke:none;stroke-width:2;stroke-linecap:butt;stroke-linejoin:miter;stroke-miterlimit:4;stroke-dasharray:none;stroke-dashoffset:0;stroke-opacity:1"
       id="rect4191"
       width="1771.5656"
       height="1174.1356"
       x="-8.2383895e-006"
       y="-5.4039509e-005" />
  </g>
  <g
     inkscape:groupmode="layer"
     id="layer3"
     inkscape:label="Terminal"
     style="display:inline"
     transform="translate(-1315.4224,-956.8144)">
    <path
       style="display:inline;fill:#60646c;fill-opacity:1;fill-rule:evenodd;stroke:none;stroke-width:0.42400005;stroke-linecap:butt;stroke-linejoin:miter;stroke-miterlimit:4;stroke-dasharray:none;stroke-opacity:1"
       d="m 1632.0325,1090.4947 -74.2496,3.3803 3.3581,73.7802 -13.19,0.6003 -2.1222,-46.6269 -47.5964,2.1663 -0.1743,-3.8307 -12.5045,0.5692 0.5691,12.5045 12.5045,-0.5692 -0.1743,-3.8298 40.33,-1.8356 4.7129,103.5479 -40.33,1.8347 -0.1743,-3.829 -12.5045,0.5692 0.1743,3.8298 -75.2389,3.4245 0.2205,4.8448 75.239,-3.4245 0.1743,3.8299 12.5045,-0.5692 -0.1743,-3.8298 47.5963,-2.1663 -0.1929,-4.2389 4.844,-0.2204 -1.3231,-29.0707 7.4201,-6.2495 24.7913,-1.1283 6.8381,4.7692 0.9705,-7.4766 6.6753,-0.3038 -0.1648,-3.622 16.3376,-0.7436 0.2923,6.4228 21.7306,-0.9891 -0.2924,-6.4236 15.8484,-0.7214 0.2923,6.4228 34.4685,-1.5688 -0.2924,-6.4228 56.9922,-2.594 0.2923,6.4237 34.4685,-1.5697 -0.2923,-6.422 81.7486,-3.7216 0.2924,6.4236 34.4676,-1.5687 -0.2923,-6.4228 26.8436,-1.2218 0.2923,6.4228 17.1209,-0.7793 8.5071,16.2672 c -1.4433,0.7548 -1.9998,2.5375 -1.2448,3.9807 0.7547,1.4428 2.5351,2.0001 3.9782,1.2459 l 0.5226,0.9999 c 1.8549,3.5473 5.7638,4.4059 5.7638,4.4059 3.9077,0.8587 5.7644,4.4012 5.7663,4.4049 l 10e-5,9e-4 c 3.9652,7.5829 7.9308,15.1675 11.8959,22.7506 0,0 1.8863,3.607 5.5017,5.4805 l 10.8491,5.6221 c 0,0 2.4426,1.2667 3.7957,-1.3442 l 1.1668,-2.2515 24.3144,12.6001 -1.1669,2.2507 c -0.7493,1.4464 -0.1846,3.2272 1.262,3.9761 1.4458,0.749 3.2249,0.1837 3.9745,-1.2618 l 1.166,-2.2507 43.5019,22.5424 -1.1677,2.2507 c -0.7492,1.4465 -0.1838,3.2264 1.2628,3.9753 1.4457,0.7489 3.2257,0.1836 3.9753,-1.2619 l 1.1651,-2.2507 16.5011,8.5514 -1.1644,2.2498 c -0.7493,1.4464 -0.1847,3.2263 1.2619,3.9753 1.4457,0.749 3.2249,0.1853 3.9745,-1.2603 l 1.166,-2.2515 45.7884,23.7284 -47.8907,92.4137 1.7693,38.8737 -0.5766,-0.075 -11.5258,8.8771 -29.9674,-3.8891 -8.877,-11.524 -67.797,-8.7984 -24.4531,18.8359 c -38.5916,-5.0078 -77.1831,-10.0162 -115.7746,-15.0245 0.05,0.069 -12.8379,-1.6656 -25.7702,-1.077 l -9.1776,-8.3785 -37.0383,1.6857 -8.5825,9.4011 -5.6582,-5.1657 2.5088,-2.7482 -5.0921,-4.6488 -1.3734,1.5044 -9.5646,-8.7319 -1.6753,-36.8073 8.7319,-9.5646 2.8777,-0.1309 3.2755,-3.587 -5.0922,-4.6496 -2e-4,0 -4.6488,5.093 -5.7987,6.3499 -1.0905,-0.9956 -0.173,-3.8009 -3.8001,0.173 -1.597,1.7501 -2.2721,-2.0734 -1.8014,0.082 -3.4106,3.7359 -3.3961,0.1545 -3.7357,-3.4105 -1.8015,0.082 -2.0744,2.2713 -1.7494,-1.5979 -3.8,0.173 0.173,3.8009 -0.9957,1.0906 -6.3514,-5.7969 -3.5878,-3.2755 -2.8778,0.131 -3.2755,3.5878 5.0922,4.648 1.3734,-1.5052 9.5646,8.7327 1.6753,36.8081 -8.7319,9.5638 -2.8778,0.1309 -3.2754,3.5878 5.0923,4.6497 4.6487,-5.093 5.7986,-6.3507 1.0906,0.9956 0.173,3.8009 -1.277,1.3987 0.4114,6.6853 1.2871,1.176 0.1699,3.7313 -1.2771,1.3987 0.4114,6.6862 1.2871,1.175 0.1699,3.7322 -1.277,1.3988 0.4113,6.6861 1.2871,1.1751 0.173,3.8008 -0.9956,1.0906 -6.3516,-5.7977 -3.5878,-3.2754 -2.8778,0.131 -3.2754,3.5878 5.0922,4.6488 1.3734,-1.5044 9.5646,8.7318 1.6753,36.8082 -8.731,9.5637 -2.8778,0.131 -3.2754,3.5878 5.0921,4.6488 4.6489,-5.0922 5.7985,-6.3507 1.0907,0.9956 0.173,3.8009 3.8,-0.173 1.597,-1.7493 2.2721,2.0735 1.8015,-0.082 3.4106,-3.7357 0.1399,3.0739 3.396,-0.1545 -0.1399,-3.074 3.7358,3.4105 1.8015,-0.082 2.0743,-2.2713 1.7494,1.5971 3.8,-0.173 -0.173,-3.8008 0.9957,-1.0907 6.3515,5.7978 3.5878,3.2754 2.8778,-0.131 3.2754,-3.5878 -5.0922,-4.6488 -1.3734,1.5044 -9.5645,-8.731 -1.6753,-36.8073 8.7319,-9.5646 1.5043,1.3734 4.6488,-5.0922 -2.7482,-2.5097 5.1656,-5.6584 9.401,8.5826 37.0383,-1.6858 8.3786,-9.1769 56.0682,-2.5519 c -0.1555,-0.016 12.9323,-0.5882 25.7703,1.0778 19.3357,2.5089 38.6713,5.0183 58.007,7.5275 l 18.836,24.4548 67.7977,8.7976 3.2493,-2.5032 14.0678,1.8253 8.8278,-6.8005 0.6535,-5.0356 15.8536,2.0567 5.8211,7.5575 26.1486,3.3943 8.9184,-6.8694 13.2314,-0.6023 1.736,-1.9024 12.904,11.7805 0.286,6.2828 6.2837,-0.286 6.9237,6.3217 0.286,6.2829 1.31,28.7817 6.2837,-0.286 8.39,7.6604 1.8118,39.8051 -15.7382,10.0676 0.3457,0.5418 -6.8998,4.4131 c -1.8667,1.1939 -2.412,3.6751 -1.2178,5.5417 l 6.011,9.3979 -15.107,9.6631 -5.5555,-8.6837 -1.6928,1.0834 c -1.1939,-1.8667 -3.6751,-2.4119 -5.5416,-1.2178 l -13.0555,8.3502 -0.5502,-0.861 -3.3189,2.1231 8.2672,12.9248 -21.0112,13.4411 -4.2469,-6.6386 -1.6937,1.0834 c -1.194,-1.8665 -3.6752,-2.4127 -5.5417,-1.2186 l -15.8898,10.165 -0.551,-0.8618 -3.3189,2.123 6.9595,10.8797 -21.0119,13.4411 -4.2462,-6.6386 -1.6937,1.0834 c -1.1939,-1.8666 -3.6751,-2.4128 -5.5417,-1.2186 l -15.8905,10.165 -0.5502,-0.861 -3.3189,2.1231 6.9587,10.8796 -21.3022,13.6261 -6.6502,-3.4464 -17.124,10.9537 1.1026,24.2258 -13.5512,8.6682 -3.3781,-1.7502 c -0.1904,-4.184 -0.3805,-8.3677 -0.5713,-12.5517 -0.038,-0.8405 -0.7505,-1.4916 -1.591,-1.4533 -0.8401,0.039 -1.4905,0.751 -1.4524,1.591 l -3.9424,-2.0431 -3.7405,2.3928 0.9013,22.6263 -18.7742,12.0094 -6.2576,-3.2426 -12.2541,7.8383 -14.7253,-7.6308 -4.4079,2.8205 0.5683,12.4855 -1.7758,0.081 c -0.6288,0.029 -1.1155,0.5622 -1.0874,1.191 0.028,0.6294 0.5618,1.1159 1.1911,1.0874 l 1.7758,-0.081 0.5752,12.6386 4.6492,2.4082 14.0277,-8.9727 15.0863,7.8177 1.8162,-1.162 0.098,2.1534 6.1634,3.1947 0.7286,16.0081 4.029,2.0873 3.8219,-2.4446 -0.4587,-10.0788 3.2164,-0.1464 0.4587,10.0788 4.0282,2.0881 3.8219,-2.4446 -0.7364,-16.1795 11.9244,-7.6276 -0.3141,-6.9005 24.3808,-15.5963 20.1631,10.3053 3.7413,-2.3929 -0.2019,-4.4358 c 0.7468,0.3868 1.6662,0.095 2.0535,-0.6518 0.3873,-0.747 0.095,-1.6663 -0.6518,-2.0534 -3.7188,-1.9268 -7.4363,-3.8537 -11.155,-5.7808 l -0.173,-3.8009 9.1053,-5.8251 -0.7043,-15.4733 3.4567,-2.2106 -0.6206,-13.6354 1.697,-1.0852 -0.366,-8.0405 15.5746,-9.9631 4.8596,7.5962 10.6596,-6.8193 2.817,4.4048 13.149,-8.4109 -4.3301,-6.77 9.5092,-6.0824 4.3118,-3.966 -3.5681,-3.8811 4.4008,-2.8144 1.6326,2.5523 5.8728,-3.7558 2.6133,4.0855 11.1699,-7.1453 -1.9087,-2.9835 4.4483,-2.8456 1.0075,1.5752 11.4213,-7.3069 4.3135,-3.966 -3.568,-3.8795 20.3324,-13.007 1.504,2.3515 5.1456,-3.2913 1.8417,2.8795 11.4231,-7.306 4.3126,-3.9661 -3.5698,-3.881 5.2504,-3.3583 c 2.1207,3.3149 6.527,4.2831 9.8422,2.1628 l 14.6693,-9.3835 1.7944,2.8053 3.7018,-2.3677 35.2961,7.7564 59.7753,30.9764 4.3932,13.8445 2.9254,1.5161 0.4308,-0.8318 3.6874,1.9103 -3.6606,7.064 7.4804,3.8764 -13.7631,26.5592 -6.2568,-3.2419 -5.6084,10.822 1.5803,0.819 -13.2628,25.5931 -3.1615,-1.638 -3.9191,7.5635 1.5811,0.819 -4.8106,9.2824 -1.5812,-0.819 -3.5668,6.883 7.838,4.0618 -5.7975,11.1873 -1.6152,-0.8366 -2.7439,5.2942 1.6151,0.8373 -5.6419,10.8866 -9.9494,-5.1561 -8.4072,16.2232 -2.7579,-1.4292 -3.5737,6.8957 2.7579,1.4292 -12.6474,24.4062 -2.7579,-1.4292 -3.5737,6.8958 2.758,1.4291 -9.9095,19.123 -0.7852,-0.4073 -0.7161,1.3824 -1.9729,-1.0227 -3.5736,6.8958 2.7579,1.4291 -9.9096,19.123 -0.785,-0.4073 -0.7161,1.3824 -1.9729,-1.0227 -3.5729,6.8949 2.758,1.4292 -9.7968,18.9046 6.8949,3.5729 1.4292,-2.758 13.5825,7.0392 -1.4291,2.7579 6.8956,3.5728 9.7968,-18.9046 2.7579,1.43 3.5737,-6.8958 -2.7587,-1.4291 7.7238,-14.9045 2.7581,1.43 3.5736,-6.8958 -2.7588,-1.4291 7.724,-14.9046 2.7587,1.4292 3.5729,-6.8949 -2.758,-1.43 15.0741,-29.0878 0.7851,0.4065 0.7153,-1.3815 1.9737,1.0227 3.5729,-6.8949 -8.2068,-4.2532 14.0621,-27.1352 3.0945,1.6038 2.6493,-5.1123 -3.0944,-1.6038 2.7431,-5.295 1.7944,0.9296 5.7975,-11.1873 2.7809,1.4406 3.3815,-6.5262 -2.7801,-1.4406 10.6897,-20.6277 -1.7944,-0.9297 2.8598,-5.5193 -4.6748,-2.4229 5.6206,-10.8457 4.6748,2.4229 14.101,-27.21 5.1234,2.6555 5.8668,-11.3224 -5.1233,-2.6547 2.4114,-4.6526 2.9976,1.5534 3.6606,-7.064 3.9237,2.0332 15.7098,-4.985 0.3424,-0.661 0.6284,13.8059 58.2936,-2.6532 0.1297,2.8504 24.4063,-1.1108 -0.1297,-2.8505 5.104,-0.2322 0.6072,13.3406 -8.3154,0.3785 0.1656,3.6394 13.0079,-0.592 0.2749,6.0411 -6.5088,0.2962 1.1888,26.1192 2.0432,-0.093 0.5091,11.1857 -2.0432,0.093 1.1888,26.12 5.147,-0.2343 0.5091,11.1857 -5.1469,0.2343 1.1888,26.1192 5.1469,-0.2343 0.5092,11.1865 -5.147,0.2343 1.676,36.8238 5.147,-0.2343 0.5091,11.1865 -5.1469,0.2343 1.676,36.8238 6.5089,-0.2962 1.099,24.1471 -4.541,0.2067 0.3016,6.6248 -12.1113,0.5512 1.1576,25.4329 2.7884,-0.1269 0.212,4.6586 4.6585,-0.2121 4.8766,4.4521 0.2356,5.1743 -6.1399,6.7255 1.6863,37.0507 6.4327,-0.2928 33.153,-1.5089 -3.521,-77.3583 -6.5097,0.2963 -0.5771,-12.68 6.5097,-0.2963 -1.1888,-26.1192 -6.5097,0.2962 -0.067,-1.4662 3.9366,-0.1791 -0.124,-2.7254 -3.9367,0.1792 -0.067,-1.4663 6.5097,-0.2962 -1.5804,-34.7227 -6.5097,0.2963 -0.067,-1.4662 3.9366,-0.1792 -0.1241,-2.7254 -3.9366,0.1792 -0.067,-1.4662 6.5097,-0.2963 -1.676,-36.8239 -6.5097,0.2963 -0.067,-1.472 3.9366,-0.1792 -0.1241,-2.7254 -3.9366,0.1792 -0.067,-1.472 6.5097,-0.2962 -1.676,-36.8239 -6.5097,0.2963 -0.067,-1.472 3.9366,-0.1792 -0.124,-2.7254 -3.9367,0.1792 -0.067,-1.4721 6.5097,-0.2963 -1.676,-36.8238 -6.5097,0.2963 -1.5006,-32.9708 0.6035,-0.028 14.3332,5.9056 99.8737,6.0833 c -0.051,0.7525 -0.061,1.508 -0.029,2.262 0.5199,11.4239 10.2025,20.2633 21.6264,19.7434 10.597,-0.4823 19.1142,-8.8982 19.727,-19.4885 l 18.0667,1.1007 0.9322,-15.7195 11.4837,-0.5227 -0.5213,-11.4539 77.7556,-3.5391 0.1163,2.5549 9.6889,-0.441 -0.1163,-2.5548 5.7928,-0.2637 0.6374,14.0038 -1.9593,-0.6135 4.5818,100.6668 -2.8874,3.1628 c 3.4519,52.6359 6.8739,105.2743 10.3313,157.9086 0.2305,3.5077 3.2608,6.1644 6.7685,5.9339 1.9329,-0.127 3.7027,-1.1278 4.8083,-2.7184 l 4.6453,-0.2114 c 16.4856,8.5431 24.142,0.1563 24.142,0.1563 l 6.1305,-6.7151 -0.268,-5.888 2.3545,-0.1071 -0.8429,-18.5192 -2.3545,0.1072 -7.0242,-154.3284 -6.7151,-6.1304 -3.4204,-75.1496 -7.1009,0.3233 0.5639,12.3886 -4.4599,0.2029 -1.1693,-25.6912 1.8106,-0.082 -0.4212,-9.2533 12.0666,-0.5492 -2.4185,-53.1367 -20.5127,0.9337 -0.2894,-6.3583 8.553,-0.3892 -0.5719,-12.565 -8.553,0.3893 -0.6743,-14.8143 -227.3675,10.3486 0.2533,5.565 -144.8043,6.5907 -84.8204,-43.9555 -26.3033,-41.117 -6.4427,-141.5514 3.9054,-7.5364 20.4155,-39.3956 74.5742,-47.7028 234.879,-10.6904 -0.2314,-5.0841 -0.1544,-3.3935 -0.4588,-10.0805 27.3088,-1.2429 -0.4033,-8.8626 -3.1992,-2.9198 2.5642,-2.8096 -6.2511,-5.7078 -2.8778,0.131 -0.3287,-7.2217 57.1842,-2.6027 0.9452,20.7677 11.348,-0.5165 -0.5409,-11.8828 14.0221,-0.6373 -0.1365,-2.9987 3.0652,-3.3575 -4.2291,-3.8602 -5.3736,-4.9064 12.0658,-13.2157 5.3736,4.9065 75.0645,-82.2251 -5.3736,-4.9065 12.3053,-13.4771 39.392,-1.792 -0.3703,-8.1366 25.0495,-1.1401 0.3703,8.1357 92.2736,-4.1998 -0.3702,-8.1349 20.338,-0.9265 -0.151,-3.3182 8.9917,-0.4092 -2.1291,-46.7785 -92.2687,4.1996 0.6042,13.2736 -54.3793,2.4759 -0.6042,-13.2744 -17.144,0.7811 c -4.7006,-2.3176 -9.9098,-3.4091 -15.1454,-3.1725 -5.2146,0.2492 -10.2833,1.808 -14.7365,4.5326 l -38.8266,1.7663 0.4872,10.7047 5.7812,-0.2631 0.38,8.3493 -76.3961,83.6811 -11.1254,12.1873 c 0,0 -3.809,4.1642 -10.3484,8.1307 l -4.7008,0.214 -0.2923,-6.4228 -34.4685,1.5688 0.2923,6.4228 -34.2483,1.5588 -0.2923,-6.422 -6.4219,0.2923 0.2923,6.422 -31.888,1.4514 -0.2923,-6.422 -34.4693,1.5689 0.2923,6.4228 -79.1077,3.5997 -0.2923,-6.422 -34.4677,1.5679 0.2924,6.4228 -23.0204,1.0478 -0.6626,-14.5585 -2.9101,-2.6567 -25.4246,1.1572 -0.1729,-3.8 -3.122,0.1421 0.021,0.471 -8.0802,0.3678 0.1515,3.329 -4.4789,0.2038 0.7893,17.3419 -33.8815,1.5421 -0.2923,-6.422 -34.4694,1.5681 0.2924,6.4236 -44.7924,2.0378 -0.2923,-6.4228 -34.4676,1.5697 0.2922,6.4219 -61.0156,2.778 -0.2924,-6.4236 -34.4668,1.5696 0.2923,6.4219 -14.7025,0.6701 -24.1738,-22.0699 -0.3313,-7.2788 -5.1843,0.2351 -0.1949,-4.2819 -6.378,0.2912 -9.6988,-8.8544 c 0,-0.5846 -0.014,-1.1697 -0.04,-1.7561 -1.1112,-24.4134 -21.8031,-43.3035 -46.2164,-42.1925 -5.5445,0.2769 -10.9882,1.5938 -16.0454,3.8836 l -0.2017,-4.4325 -34.4694,1.5688 0.2924,6.4236 -57.7182,2.6271 -0.2924,-6.4245 -34.4693,1.5697 0.2923,6.4228 -66.7968,3.0411 -0.2923,-6.4236 -34.4685,1.5688 0.2923,6.4228 -16.6995,0.7601 -0.2923,-6.4228 -34.4693,1.5697 0.2923,6.422 -52.0248,2.3678 -0.2923,-6.4219 -2.5433,0.1149 -2.5043,-55.0209 z m -83.5716,88.963 5.9037,-0.2687 0.4754,10.4455 -5.9037,0.2687 -0.4754,-10.4455 z m 440.8655,11.7264 5.406,10.3381 -10.3389,5.4084 -1.143,-2.1838 c 0.5476,-0.2862 0.88,-0.8626 0.8526,-1.4798 -0.04,-0.8779 -0.7841,-1.5589 -1.6619,-1.5189 -0.2319,0.011 -0.4583,0.074 -0.6637,0.182 l -2.7916,-5.34 10.3405,-5.406 z m 160.1289,129.476 4.7665,2.4701 -0.2806,0.5421 c -0.7493,1.4464 -0.1831,3.2254 1.2635,3.9744 1.4458,0.7489 3.2241,0.1853 3.9737,-1.2602 l 0.2815,-0.5413 2.1326,1.105 -11.6247,22.4333 7.6265,3.9527 1.8472,-3.5634 3.3475,1.735 5.3316,-10.2884 -7.545,-3.9109 4.4469,-8.5806 6.1871,3.2061 2.7605,60.6498 -7.6604,8.3892 -6.2829,0.286 1.3101,28.7825 0.2859,6.2829 -6.3217,6.9237 -6.2829,0.286 0.286,6.2821 -11.6272,12.7369 -9.1062,-11.8223 -23.4314,-3.0409 -1.737,-38.165 46.0529,-88.8648 z m 45.5354,218.7624 2.2842,-0.1039 2.056,45.1731 -1.2616,0.8074 -2.1042,-3.289 -1.1298,-1.7654 c 0.6403,-0.41 0.827,-1.2619 0.417,-1.9022 -0.4097,-0.6405 -1.261,-0.8275 -1.9014,-0.4179 l -4.5176,2.8902 -1.502,-33.0006 7.6594,-8.3917 z m 7.2093,-0.3281 5.6918,-0.259 0.2937,6.4534 8.1805,12.7886 -10.0912,6.4573 -0.01,3e-4 0.5444,11.9622 1.4567,2.2765 -4.1435,2.6509 -1.9266,-42.3302 z"
       id="path4263"
       inkscape:connector-curvature="0" />
  </g>
  <g
     inkscape:groupmode="layer"
     id="layer4"
     inkscape:label="Label"
     transform="translate(0,1.9531253e-6)">
    <g
       id="g4157">
      <g
         style="font-style:normal;font-variant:normal;font-weight:normal;font-stretch:normal;font-size:125.00000763px;line-height:125%;font-family:Overpass;-inkscape-font-specification:'Overpass, Normal';text-align:start;letter-spacing:0px;word-spacing:0px;writing-mode:lr-tb;text-anchor:start;fill:none;fill-opacity:1;stroke:#60646c;stroke-width:3.00000024;stroke-linecap:butt;stroke-linejoin:miter;stroke-miterlimit:4;stroke-dasharray:none;stroke-opacity:1"
         id="text4568">
        <path
           d="m 166.00245,1023.8044 0,-47.85158 0.36621,-13.12256 -5.12696,13.48877 -21.11816,49.01127 -21.24024,-49.37748 -5.24902,-13.12256 0.36621,13.12256 0,47.85158 -13.00049,0 0,-87.52444 13.12256,0 23.49854,54.62647 2.38037,6.40869 2.50244,-6.40869 23.37647,-54.62647 13.12256,0 0,87.52444 -13.00049,0 z"
           id="path4164"
           inkscape:connector-curvature="0" />
        <path
           d="m 202.25733,1023.8044 0,-87.52444 13.00049,0 0,87.52444 -13.00049,0 z"
           id="path4166"
           inkscape:connector-curvature="0" />
        <path
           d="m 295.45803,1023.8044 -6.95801,-20.1416 -35.40039,0 -7.14112,20.1416 -13.48877,0 31.61622,-87.52444 13.3667,0 31.49414,87.52444 -13.48877,0 z m -21.60645,-61.40139 q -0.73242,-2.07519 -1.64795,-4.82178 -0.85449,-2.74658 -1.34277,-5.00488 -0.61035,2.2583 -1.46485,5.00488 -0.79345,2.68555 -1.52588,4.82178 l -10.80322,29.78516 27.40479,0 -10.62012,-29.78516 z"
           id="path4168"
           inkscape:connector-curvature="0" />
      </g>
      <g
         style="font-style:normal;font-variant:normal;font-weight:normal;font-stretch:normal;font-size:45.00000381px;line-height:125%;font-family:Overpass;-inkscape-font-specification:'Overpass, Normal';text-align:start;letter-spacing:0px;word-spacing:0px;writing-mode:lr-tb;text-anchor:start;fill:#60646c;fill-opacity:1;stroke:none;stroke-width:1px;stroke-linecap:butt;stroke-linejoin:miter;stroke-opacity:1"
         id="text4572">
        <path
           d="m 171.12451,1073.5862 0,-17.2266 0.13184,-4.7241 -1.8457,4.856 -7.60254,17.644 -7.64649,-17.7759 -1.88965,-4.7241 0.13184,4.7241 0,17.2266 -4.68018,0 0,-31.5088 4.72412,0 8.45948,19.6655 0.85693,2.3071 0.90088,-2.3071 8.41553,-19.6655 4.72412,0 0,31.5088 -4.68018,0 z"
           id="path4171"
           inkscape:connector-curvature="0" />
        <path
           d="m 183.31934,1073.5862 0,-23.0054 4.68018,0 0,23.0054 -4.68018,0 z m 2.3291,-26.5869 q -0.59326,0 -1.1206,-0.2198 -0.50537,-0.2197 -0.90088,-0.5932 -0.37354,-0.3955 -0.59326,-0.9009 -0.21973,-0.5273 -0.21973,-1.1206 0,-0.5933 0.21973,-1.0986 0.21972,-0.5274 0.59326,-0.9009 0.39551,-0.3955 0.90088,-0.6153 0.52734,-0.2197 1.1206,-0.2197 0.59326,0 1.09863,0.2197 0.52735,0.2198 0.90088,0.6153 0.39551,0.3735 0.61524,0.9009 0.21972,0.5053 0.21972,1.0986 0,0.5933 -0.21972,1.1206 -0.21973,0.5054 -0.61524,0.9009 -0.37353,0.3735 -0.90088,0.5932 -0.50537,0.2198 -1.09863,0.2198 z"
           id="path4173"
           inkscape:connector-curvature="0" />
        <path
           d="m 212.41114,1073.5862 -4.48242,0 0,-1.9776 q -0.43946,0.4615 -1.05469,0.9229 -0.61524,0.4394 -1.40625,0.813 -0.76904,0.3515 -1.73584,0.5713 -0.9668,0.2197 -2.10938,0.2197 -1.75781,0 -3.25195,-0.4834 -1.49414,-0.4834 -2.59277,-1.4502 -1.09864,-0.9888 -1.73584,-2.417 -0.61524,-1.4502 -0.61524,-3.3618 0,-1.9775 0.74707,-3.4058 0.74707,-1.4502 1.97754,-2.373 1.23047,-0.9448 2.8125,-1.3843 1.60401,-0.4394 3.2959,-0.4394 1.58203,0 3.03223,0.3515 1.47217,0.3296 2.63672,1.0108 l 0,-1.2745 q 0,-1.2963 -0.30762,-2.1972 -0.28565,-0.9009 -0.90088,-1.4502 -0.59326,-0.5713 -1.51611,-0.813 -0.92286,-0.2637 -2.19727,-0.2637 -2.15332,0 -3.73535,0.5713 -1.56006,0.5713 -2.83447,1.5161 l -1.38428,-3.8452 q 0.70312,-0.4834 1.604,-0.9009 0.90088,-0.4394 1.97754,-0.769 1.07666,-0.3296 2.3291,-0.5054 1.25245,-0.1977 2.68067,-0.1977 0.96679,0 1.99951,0.1098 1.03271,0.1099 1.99951,0.4395 0.98877,0.3076 1.8457,0.9009 0.87891,0.5932 1.51612,1.56 0.65918,0.9448 1.03271,2.3291 0.37354,1.3843 0.37354,3.2959 l 0,14.8975 z m -9.93164,-3.6035 q 1.77978,0 3.14209,-0.7251 1.38427,-0.7251 2.30713,-1.7359 l 0,-3.5156 q -0.9668,-0.5054 -2.26319,-0.813 -1.29638,-0.3076 -2.65869,-0.3076 -1.05469,0 -1.97754,0.1978 -0.92285,0.1977 -1.62598,0.6372 -0.68115,0.4174 -1.07666,1.0986 -0.3955,0.6592 -0.3955,1.604 0,1.6479 1.14257,2.6147 1.16456,0.9449 3.40577,0.9449 z"
           id="path4175"
           inkscape:connector-curvature="0" />
        <path
           d="m 245.76564,1073.5862 0,-13.7769 q 0,-2.5708 -1.05469,-3.9551 -1.05469,-1.3842 -3.16407,-1.3842 -0.94482,0 -1.77978,0.3515 -0.83496,0.3516 -1.47217,1.0547 -0.61523,0.7031 -0.98877,1.7578 -0.35156,1.0327 -0.35156,2.417 l 0,13.5352 -4.68018,0 0,-13.7769 q 0,-2.5708 -1.07666,-3.9551 -1.05468,-1.3842 -3.16406,-1.3842 -0.94482,0 -1.77979,0.3515 -0.81298,0.3516 -1.45019,1.0547 -0.61524,0.7031 -0.98877,1.7578 -0.35156,1.0327 -0.35156,2.417 l 0,13.5352 -4.68018,0 0,-23.0054 4.68018,0 0,2.1314 q 0.98877,-1.4283 2.50488,-2.0435 1.51611,-0.6152 3.2959,-0.6152 1.88965,0 3.49365,0.769 1.62598,0.7471 2.61475,2.5049 1.09863,-1.6919 2.8125,-2.4829 1.71387,-0.791 3.99902,-0.791 1.75781,0 3.25196,0.5053 1.51611,0.5054 2.61474,1.5601 1.12061,1.0547 1.75781,2.7026 0.63721,1.648 0.63721,3.9112 l 0,14.8535 -4.68017,0 z"
           id="path4177"
           inkscape:connector-curvature="0" />
        <path
           d="m 257.05958,1073.5862 0,-23.0054 4.68017,0 0,23.0054 -4.68017,0 z m 2.3291,-26.5869 q -0.59326,0 -1.12061,-0.2198 -0.50537,-0.2197 -0.90087,-0.5932 -0.37354,-0.3955 -0.59327,-0.9009 -0.21972,-0.5273 -0.21972,-1.1206 0,-0.5933 0.21972,-1.0986 0.21973,-0.5274 0.59327,-0.9009 0.3955,-0.3955 0.90087,-0.6153 0.52735,-0.2197 1.12061,-0.2197 0.59326,0 1.09863,0.2197 0.52735,0.2198 0.90088,0.6153 0.39551,0.3735 0.61524,0.9009 0.21972,0.5053 0.21972,1.0986 0,0.5933 -0.21972,1.1206 -0.21973,0.5054 -0.61524,0.9009 -0.37353,0.3735 -0.90088,0.5932 -0.50537,0.2198 -1.09863,0.2198 z"
           id="path4179"
           inkscape:connector-curvature="0" />
      </g>
    </g>
  </g>
  <g
     inkscape:groupmode="layer"
     id="layer5"
     inkscape:label="Date and Link"
     transform="translate(0,1.9531253e-6)">
    <g
       style="font-style:normal;font-variant:normal;font-weight:300;font-stretch:normal;font-size:12.50000095px;line-height:125%;font-family:Overpass;-inkscape-font-specification:'Overpass, Light';text-align:end;letter-spacing:0px;word-spacing:0px;writing-mode:lr-tb;text-anchor:end;fill:#60646c;fill-opacity:1;stroke:none;stroke-width:1px;stroke-linecap:butt;stroke-linejoin:miter;stroke-opacity:1"
       id="text4583">
      <path
         d="m 1687.5635,1135.848 q 0,-0.825 0.2375,-1.4125 0.2375,-0.6 0.6125,-1.05 0.375,-0.45 0.85,-0.7875 0.475,-0.3375 0.95,-0.6625 0.4125,-0.275 0.7875,-0.5375 0.375,-0.275 0.6625,-0.575 0.3,-0.3 0.475,-0.6375 0.175,-0.35 0.175,-0.775 0,-0.7125 -0.5,-1.1875 -0.4875,-0.4875 -1.4,-0.4875 -0.8875,0 -1.3375,0.4 -0.45,0.3875 -0.6125,1.0125 l -0.775,-0.35 q 0.1,-0.3875 0.3375,-0.725 0.2375,-0.3375 0.6,-0.5875 0.3625,-0.25 0.825,-0.3875 0.475,-0.15 1.0375,-0.15 1.3,0 2.0125,0.675 0.725,0.6625 0.725,1.7875 0,0.6 -0.2375,1.0625 -0.225,0.4625 -0.6,0.85 -0.3625,0.375 -0.825,0.7 -0.4625,0.3125 -0.9375,0.6125 -0.375,0.25 -0.725,0.5 -0.35,0.2375 -0.65,0.525 -0.2875,0.275 -0.4875,0.6125 -0.2,0.325 -0.275,0.7375 l 4.8125,0 0,0.8375 -5.7375,0 z"
         id="path4182"
         inkscape:connector-curvature="0" />
      <path
         d="m 1696.2211,1135.848 q 0.013,-1.025 0.125,-2.025 0.125,-1 0.425,-1.9875 0.3125,-0.9875 0.825,-1.975 0.5125,-1 1.3125,-2.0125 l -4.2375,0 0,-0.75 5.2375,0 0,0.575 q -0.9125,1.05 -1.4625,2.1625 -0.55,1.1 -0.85,2.175 -0.3,1.0625 -0.4,2.05 -0.1,0.9875 -0.1,1.7875 l -0.875,0 z"
         id="path4184"
         inkscape:connector-curvature="0" />
      <path
         d="m 1707.7776,1135.2105 q 0.75,0 1.2625,-0.3375 0.525,-0.3375 0.8375,-0.875 0.325,-0.5375 0.4625,-1.2 0.15,-0.675 0.15,-1.325 0,-0.7125 -0.15,-1.3875 -0.1375,-0.675 -0.4625,-1.1875 -0.3125,-0.525 -0.8375,-0.8375 -0.5125,-0.325 -1.2625,-0.325 -0.75,0 -1.275,0.3375 -0.5125,0.3375 -0.8375,0.875 -0.3125,0.5375 -0.4625,1.2125 -0.1375,0.6625 -0.1375,1.3125 0,0.7125 0.1375,1.3875 0.15,0.675 0.4625,1.2 0.325,0.5125 0.8375,0.8375 0.525,0.3125 1.275,0.3125 z m 0,0.7875 q -1.0125,0 -1.7125,-0.4 -0.6875,-0.4 -1.1125,-1.05 -0.425,-0.65 -0.6125,-1.45 -0.1875,-0.8125 -0.1875,-1.625 0,-0.8125 0.1875,-1.6125 0.1875,-0.8125 0.6125,-1.4625 0.425,-0.65 1.1125,-1.05 0.7,-0.4 1.7125,-0.4 1.0125,0 1.7,0.4 0.7,0.4 1.125,1.05 0.425,0.65 0.6125,1.4625 0.1875,0.8 0.1875,1.6125 0,0.8125 -0.1875,1.625 -0.1875,0.8 -0.6125,1.45 -0.425,0.65 -1.125,1.05 -0.6875,0.4 -1.7,0.4 z"
         id="path4186"
         inkscape:connector-curvature="0" />
      <path
         d="m 1715.3524,1135.998 q -1.1625,0 -1.85,-0.8625 -0.675,-0.875 -0.675,-2.475 0,-1.5875 0.6875,-2.4625 0.7,-0.8875 1.9375,-0.8875 0.7125,0 1.25,0.35 0.5375,0.3375 0.8,0.9875 l -0.8,0.3125 q -0.15,-0.3625 -0.4625,-0.6125 -0.3,-0.25 -0.825,-0.25 -0.45,0 -0.7625,0.1875 -0.3125,0.175 -0.525,0.5125 -0.2,0.325 -0.3,0.8 -0.087,0.475 -0.087,1.0625 0,1.2125 0.4,1.8875 0.4,0.6625 1.25,0.6625 0.525,0 0.8875,-0.2625 0.3625,-0.2625 0.525,-0.7125 l 0.7875,0.3 q -0.225,0.675 -0.825,1.075 -0.5875,0.3875 -1.4125,0.3875 z"
         id="path4188"
         inkscape:connector-curvature="0" />
      <path
         d="m 1720.7487,1135.998 q -0.6875,0 -0.975,-0.4125 -0.2875,-0.425 -0.2875,-1.05 l 0,-4.2875 -1.0875,0 0,-0.7875 1.0875,0 0,-2.2 0.875,-0.4375 0,2.6375 1.625,0 0,0.7875 -1.625,0 0,3.9125 q 0,0.2125 0.013,0.4 0.025,0.175 0.1,0.3125 0.075,0.1375 0.2125,0.225 0.1375,0.075 0.3625,0.075 0.325,0 0.55,-0.125 0.2375,-0.125 0.4125,-0.25 l -0.1,0.9125 q -0.25,0.1375 -0.525,0.2125 -0.275,0.075 -0.6375,0.075 z"
         id="path4190"
         inkscape:connector-curvature="0" />
      <path
         d="m 1726.4063,1135.848 q 0,-0.825 0.2375,-1.4125 0.2375,-0.6 0.6125,-1.05 0.375,-0.45 0.85,-0.7875 0.475,-0.3375 0.95,-0.6625 0.4125,-0.275 0.7875,-0.5375 0.375,-0.275 0.6625,-0.575 0.3,-0.3 0.475,-0.6375 0.175,-0.35 0.175,-0.775 0,-0.7125 -0.5,-1.1875 -0.4875,-0.4875 -1.4,-0.4875 -0.8875,0 -1.3375,0.4 -0.45,0.3875 -0.6125,1.0125 l -0.775,-0.35 q 0.1,-0.3875 0.3375,-0.725 0.2375,-0.3375 0.6,-0.5875 0.3625,-0.25 0.825,-0.3875 0.475,-0.15 1.0375,-0.15 1.3,0 2.0125,0.675 0.725,0.6625 0.725,1.7875 0,0.6 -0.2375,1.0625 -0.225,0.4625 -0.6,0.85 -0.3625,0.375 -0.825,0.7 -0.4625,0.3125 -0.9375,0.6125 -0.375,0.25 -0.725,0.5 -0.35,0.2375 -0.65,0.525 -0.2875,0.275 -0.4875,0.6125 -0.2,0.325 -0.275,0.7375 l 4.8125,0 0,0.8375 -5.7375,0 z"
         id="path4192"
         inkscape:connector-curvature="0" />
      <path
         d="m 1736.8889,1135.998 q -0.8625,0 -1.4375,-0.4 -0.575,-0.4 -0.925,-1.0375 -0.3375,-0.65 -0.4875,-1.45 -0.15,-0.8125 -0.15,-1.6375 0,-0.45 0.05,-0.9625 0.05,-0.525 0.175,-1.025 0.1375,-0.5 0.35,-0.9625 0.225,-0.4625 0.5625,-0.8125 0.3375,-0.35 0.7875,-0.55 0.4625,-0.2125 1.075,-0.2125 0.8625,0 1.4375,0.4125 0.575,0.4 0.9125,1.05 0.35,0.65 0.5,1.4625 0.15,0.8 0.15,1.6 0,0.4625 -0.062,0.975 -0.05,0.5125 -0.1875,1.025 -0.125,0.5 -0.35,0.9625 -0.2125,0.45 -0.55,0.8 -0.3375,0.35 -0.8,0.5625 -0.45,0.2 -1.05,0.2 z m 0,-0.7875 q 0.65,0 1.05,-0.35 0.4125,-0.3625 0.6375,-0.9125 0.225,-0.55 0.3,-1.2125 0.075,-0.6625 0.075,-1.2625 0,-0.675 -0.087,-1.3375 -0.088,-0.675 -0.325,-1.2 -0.2375,-0.5375 -0.6375,-0.8625 -0.4,-0.3375 -1.0125,-0.3375 -0.6625,0 -1.075,0.3625 -0.4,0.3625 -0.625,0.9125 -0.225,0.55 -0.3125,1.2125 -0.075,0.65 -0.075,1.25 0,0.6875 0.087,1.3625 0.088,0.6625 0.325,1.2 0.2375,0.525 0.6375,0.85 0.4125,0.325 1.0375,0.325 z"
         id="path4194"
         inkscape:connector-curvature="0" />
      <path
         d="m 1742.7407,1135.848 0,-7.1625 -1.4875,0 0,-0.5 q 0.6625,0 1.125,-0.225 0.4625,-0.2375 0.675,-0.8625 l 0.5625,0 0,8.75 -0.875,0 z"
         id="path4196"
         inkscape:connector-curvature="0" />
      <path
         d="m 1748.578,1126.948 q 0.7125,0 1.2375,0.2625 0.525,0.2625 0.8625,0.725 0.35,0.45 0.525,1.075 0.175,0.6125 0.175,1.325 0,0.9375 -0.325,1.85 -0.3125,0.9125 -0.8875,1.6875 -0.5625,0.7625 -1.35,1.325 -0.7875,0.5625 -1.7375,0.8 l 0,-0.6875 q 0.6375,-0.1875 1.1875,-0.5625 0.55,-0.3875 0.975,-0.8875 0.4375,-0.5 0.7125,-1.075 0.2875,-0.575 0.3625,-1.1375 -0.325,0.4125 -0.8625,0.6375 -0.525,0.2125 -1.2125,0.2125 -0.5375,0 -1.0125,-0.2125 -0.4625,-0.2125 -0.8125,-0.575 -0.3375,-0.375 -0.5375,-0.85 -0.2,-0.4875 -0.2,-1.0125 0,-0.6125 0.225,-1.1375 0.225,-0.5375 0.6125,-0.925 0.4,-0.3875 0.925,-0.6125 0.525,-0.225 1.1375,-0.225 z m -0.062,4.85 q 0.4375,0 0.8,-0.15 0.375,-0.1625 0.6375,-0.4375 0.2625,-0.275 0.4125,-0.65 0.15,-0.375 0.15,-0.8125 0,-0.425 -0.1625,-0.7875 -0.15,-0.3625 -0.425,-0.6375 -0.2625,-0.275 -0.625,-0.425 -0.3625,-0.1625 -0.7875,-0.1625 -0.45,0 -0.825,0.1625 -0.3625,0.15 -0.625,0.425 -0.2625,0.275 -0.4125,0.6375 -0.1375,0.3625 -0.1375,0.7875 0,0.4375 0.1375,0.8125 0.1375,0.375 0.4,0.65 0.2625,0.275 0.625,0.4375 0.375,0.15 0.8375,0.15 z"
         id="path4198"
         inkscape:connector-curvature="0" />
      <path
         d="m 1565.9631,1151.623 q -0.675,0 -1.075,-0.2375 -0.4,-0.2375 -0.675,-0.5625 l 0,2.75 -0.875,0.4375 0,-8.925 0.875,0 0,0.575 q 0.3125,-0.2875 0.7,-0.5 0.4,-0.225 1.05,-0.225 0.6125,0 1.1,0.2375 0.4875,0.2375 0.825,0.675 0.35,0.4375 0.525,1.0625 0.1875,0.6125 0.1875,1.3625 0,0.8 -0.2,1.425 -0.1875,0.625 -0.5375,1.05 -0.35,0.425 -0.8375,0.65 -0.4875,0.225 -1.0625,0.225 z m -0.1,-0.7875 q 0.875,0 1.35,-0.65 0.475,-0.6625 0.475,-1.9125 0,-1.175 -0.4875,-1.8625 -0.475,-0.6875 -1.3375,-0.6875 -0.525,0 -0.9625,0.2625 -0.425,0.25 -0.6875,0.725 l 0,3.1375 q 0.325,0.425 0.725,0.7125 0.4,0.275 0.925,0.275 z"
         id="path4200"
         inkscape:connector-curvature="0" />
      <path
         d="m 1573.0438,1151.623 q -0.3375,0 -0.6,-0.062 -0.2625,-0.062 -0.475,-0.1625 -0.2,-0.1125 -0.375,-0.2375 -0.175,-0.125 -0.325,-0.2625 l 0,0.575 -0.875,0 0,-8.5875 0.875,-0.4375 0,3.2625 q 0.3125,-0.3375 0.7625,-0.55 0.4625,-0.225 0.9375,-0.225 0.6,0 1.0875,0.225 0.4875,0.225 0.825,0.6625 0.35,0.425 0.5375,1.05 0.1875,0.6125 0.1875,1.4 0,1.6375 -0.675,2.5 -0.675,0.85 -1.8875,0.85 z m -0.1375,-0.7875 q 0.9,0 1.3375,-0.6875 0.45,-0.6875 0.45,-1.875 0,-1.2375 -0.45,-1.8875 -0.4375,-0.6625 -1.3375,-0.6625 -0.3,0 -0.5625,0.1 -0.25,0.087 -0.4625,0.2375 -0.2125,0.1375 -0.375,0.3125 -0.15,0.175 -0.2375,0.325 l 0,3.1375 q 0.2625,0.45 0.7125,0.725 0.45,0.275 0.925,0.275 z"
         id="path4202"
         inkscape:connector-curvature="0" />
      <path
         d="m 1579.7006,1150.8355 q 0.875,0 1.35,-0.675 0.475,-0.675 0.475,-1.8875 0,-1.2 -0.4625,-1.875 -0.4625,-0.675 -1.3625,-0.675 -0.9,0 -1.3625,0.6625 -0.4625,0.65 -0.4625,1.9 0,1.2 0.4625,1.875 0.4625,0.675 1.3625,0.675 z m 0,-5.9 q 0.6125,0 1.1125,0.225 0.5125,0.225 0.8625,0.65 0.3625,0.425 0.5625,1.05 0.2,0.6125 0.2,1.4125 0,0.7875 -0.2,1.4125 -0.2,0.625 -0.5625,1.0625 -0.35,0.425 -0.8625,0.65 -0.5,0.225 -1.1125,0.225 -0.6125,0 -1.125,-0.225 -0.5,-0.225 -0.8625,-0.65 -0.35,-0.425 -0.55,-1.0375 -0.2,-0.625 -0.2,-1.425 0,-0.7875 0.2,-1.4 0.2,-0.625 0.55,-1.05 0.3625,-0.4375 0.8625,-0.6625 0.5125,-0.2375 1.125,-0.2375 z"
         id="path4204"
         inkscape:connector-curvature="0" />
      <path
         d="m 1585.6366,1153.448 q 0.775,-0.038 1.2625,-0.2 0.5,-0.15 0.775,-0.3875 0.2875,-0.225 0.3875,-0.525 0.1,-0.2875 0.1,-0.6125 l 0,-0.975 q -0.275,0.4 -0.6875,0.6375 -0.4,0.2375 -1.0625,0.2375 -0.5125,0 -0.9875,-0.2125 -0.475,-0.2125 -0.8375,-0.625 -0.3625,-0.425 -0.575,-1.05 -0.2125,-0.625 -0.2125,-1.4625 0,-0.7875 0.1875,-1.4 0.2,-0.625 0.55,-1.05 0.3625,-0.4375 0.85,-0.6625 0.4875,-0.225 1.075,-0.225 0.3625,0 0.6375,0.087 0.2875,0.075 0.4875,0.2 0.2125,0.1125 0.35,0.25 0.15,0.125 0.225,0.2125 l 0,-0.6 0.875,0 0,6.2875 q 0,0.7875 -0.25,1.3 -0.25,0.525 -0.6625,0.8375 -0.4125,0.325 -0.9625,0.4625 -0.5375,0.1375 -1.125,0.1625 l -0.4,-0.6875 z m 0.975,-2.6125 q 0.4,0 0.8375,-0.275 0.45,-0.2875 0.7125,-0.7875 l 0,-3.075 q -0.1375,-0.2375 -0.3375,-0.4125 -0.1875,-0.1875 -0.4,-0.3125 -0.2125,-0.125 -0.425,-0.1875 -0.2125,-0.062 -0.3875,-0.062 -0.95,0 -1.425,0.6625 -0.475,0.65 -0.475,1.8875 0,0.6125 0.1375,1.0875 0.15,0.475 0.4,0.8125 0.2625,0.325 0.6,0.5 0.35,0.1625 0.7625,0.1625 z"
         id="path4206"
         inkscape:connector-curvature="0" />
      <path
         d="m 1594.9672,1151.473 0,-0.625 q -0.3875,0.35 -0.875,0.5625 -0.475,0.2125 -1,0.2125 -0.9625,0 -1.575,-0.5375 -0.6,-0.55 -0.6,-1.625 0,-0.55 0.1875,-0.95 0.2,-0.4 0.5125,-0.65 0.325,-0.2625 0.75,-0.3875 0.425,-0.125 0.875,-0.125 0.4,0 0.825,0.1 0.425,0.1 0.9,0.35 l 0,-0.5375 q 0,-0.4875 -0.125,-0.7875 -0.1125,-0.3 -0.3125,-0.475 -0.1875,-0.175 -0.45,-0.2375 -0.25,-0.062 -0.5125,-0.062 -0.2375,0 -0.5,0.062 -0.2625,0.062 -0.5125,0.1625 -0.25,0.1 -0.4875,0.225 -0.225,0.1125 -0.4,0.2375 l -0.25,-0.75 q 0.3875,-0.25 0.975,-0.475 0.6,-0.225 1.2625,-0.225 0.3375,0 0.7125,0.1 0.375,0.088 0.6875,0.3375 0.3125,0.2375 0.5125,0.675 0.2125,0.425 0.2125,1.1 l 0,4.325 -0.8125,0 z m -1.7875,-0.6125 q 0.2875,0 0.55,-0.088 0.2625,-0.087 0.4875,-0.225 0.225,-0.1375 0.4125,-0.3125 0.1875,-0.1875 0.3375,-0.3625 l 0,-1.2375 q -0.3125,-0.2125 -0.775,-0.3625 -0.45,-0.1625 -0.8625,-0.1625 -0.325,0 -0.6125,0.088 -0.2875,0.075 -0.5125,0.25 -0.2125,0.1625 -0.35,0.4125 -0.125,0.25 -0.125,0.6 0,0.6375 0.375,1.025 0.375,0.375 1.075,0.375 z"
         id="path4208"
         inkscape:connector-curvature="0" />
      <path
         d="m 1597.7864,1151.473 0,-6.3875 0.875,0 0,0.9 q 0.35,-0.525 0.8125,-0.7875 0.4625,-0.2625 0.9,-0.2625 0.475,0 0.8,0.2625 l -0.1375,0.85 q -0.125,-0.075 -0.325,-0.15 -0.1875,-0.087 -0.5,-0.087 -0.2125,0 -0.4875,0.1 -0.2625,0.1 -0.5,0.3375 -0.2375,0.2375 -0.4,0.6375 -0.1625,0.3875 -0.1625,0.975 l 0,3.6125 -0.875,0 z"
         id="path4210"
         inkscape:connector-curvature="0" />
      <path
         d="m 1604.4541,1151.623 q -0.6125,0 -1.1,-0.2375 -0.4875,-0.2375 -0.8375,-0.675 -0.3375,-0.4375 -0.525,-1.05 -0.175,-0.625 -0.175,-1.3875 0,-1.5875 0.7,-2.4625 0.7125,-0.875 1.9375,-0.875 0.6,0 1,0.1875 0.4125,0.175 0.7,0.4125 l 0,-2.65 0.875,-0.4375 0,9.025 -0.875,0 0,-0.55 q -0.2875,0.2875 -0.7,0.5 -0.4,0.2 -1,0.2 z m 0.1,-0.7875 q 0.475,0 0.9,-0.2625 0.4375,-0.2625 0.7,-0.7375 l 0,-3.1875 q -0.1,-0.1625 -0.25,-0.325 -0.15,-0.1625 -0.35,-0.2875 -0.1875,-0.1375 -0.45,-0.225 -0.25,-0.088 -0.55,-0.088 -0.8875,0 -1.3625,0.6625 -0.4625,0.65 -0.4625,1.8875 0,0.5375 0.125,1.0125 0.125,0.4625 0.3625,0.8125 0.2375,0.3375 0.575,0.5375 0.3375,0.2 0.7625,0.2 z"
         id="path4212"
         inkscape:connector-curvature="0" />
      <path
         d="m 1609.5729,1151.648 q -0.3375,0 -0.5625,-0.2375 -0.225,-0.25 -0.225,-0.55 0,-0.3 0.225,-0.5375 0.225,-0.25 0.5625,-0.25 0.3375,0 0.5625,0.25 0.225,0.2375 0.225,0.5375 0,0.3 -0.225,0.55 -0.225,0.2375 -0.5625,0.2375 z"
         id="path4214"
         inkscape:connector-curvature="0" />
      <path
         d="m 1613.7655,1151.623 q -1.1625,0 -1.85,-0.8625 -0.675,-0.875 -0.675,-2.475 0,-1.5875 0.6875,-2.4625 0.7,-0.8875 1.9375,-0.8875 0.7125,0 1.25,0.35 0.5375,0.3375 0.8,0.9875 l -0.8,0.3125 q -0.15,-0.3625 -0.4625,-0.6125 -0.3,-0.25 -0.825,-0.25 -0.45,0 -0.7625,0.1875 -0.3125,0.175 -0.525,0.5125 -0.2,0.325 -0.3,0.8 -0.088,0.475 -0.088,1.0625 0,1.2125 0.4,1.8875 0.4,0.6625 1.25,0.6625 0.525,0 0.8875,-0.2625 0.3625,-0.2625 0.525,-0.7125 l 0.7875,0.3 q -0.225,0.675 -0.825,1.075 -0.5875,0.3875 -1.4125,0.3875 z"
         id="path4216"
         inkscape:connector-curvature="0" />
      <path
         d="m 1619.9838,1150.8355 q 0.875,0 1.35,-0.675 0.475,-0.675 0.475,-1.8875 0,-1.2 -0.4625,-1.875 -0.4625,-0.675 -1.3625,-0.675 -0.9,0 -1.3625,0.6625 -0.4625,0.65 -0.4625,1.9 0,1.2 0.4625,1.875 0.4625,0.675 1.3625,0.675 z m 0,-5.9 q 0.6125,0 1.1125,0.225 0.5125,0.225 0.8625,0.65 0.3625,0.425 0.5625,1.05 0.2,0.6125 0.2,1.4125 0,0.7875 -0.2,1.4125 -0.2,0.625 -0.5625,1.0625 -0.35,0.425 -0.8625,0.65 -0.5,0.225 -1.1125,0.225 -0.6125,0 -1.125,-0.225 -0.5,-0.225 -0.8625,-0.65 -0.35,-0.425 -0.55,-1.0375 -0.2,-0.625 -0.2,-1.425 0,-0.7875 0.2,-1.4 0.2,-0.625 0.55,-1.05 0.3625,-0.4375 0.8625,-0.6625 0.5125,-0.2375 1.125,-0.2375 z"
         id="path4218"
         inkscape:connector-curvature="0" />
      <path
         d="m 1630.6823,1144.9355 q 0.4625,0 0.8625,0.1625 0.4,0.1625 0.6875,0.4625 0.3,0.2875 0.4625,0.7125 0.175,0.425 0.175,0.95 l 0,4.25 -0.875,0 0,-3.9125 q 0,-0.3 -0.05,-0.625 -0.05,-0.325 -0.2,-0.5875 -0.1375,-0.275 -0.4125,-0.45 -0.275,-0.175 -0.725,-0.175 -0.3625,0 -0.6375,0.15 -0.275,0.15 -0.4625,0.4 -0.1875,0.25 -0.2875,0.5875 -0.088,0.325 -0.088,0.7 l 0,3.9125 -0.875,0 0,-3.9125 q 0,-0.3 -0.05,-0.625 -0.05,-0.325 -0.2,-0.5875 -0.1375,-0.275 -0.4125,-0.45 -0.275,-0.175 -0.725,-0.175 -0.375,0 -0.65,0.1375 -0.275,0.125 -0.4625,0.3625 -0.175,0.2375 -0.275,0.55 -0.087,0.3125 -0.087,0.6875 l 0,4.0125 -0.875,0 0,-6.3875 0.875,0 0,0.625 q 0.6625,-0.775 1.7375,-0.775 0.5125,0 0.975,0.2625 0.475,0.25 0.75,0.7125 0.2625,-0.4 0.725,-0.6875 0.475,-0.2875 1.1,-0.2875 z"
         id="path4220"
         inkscape:connector-curvature="0" />
      <path
         d="m 1633.9416,1153.098 4.9125,-10.525 0.85,0 -4.9125,10.525 -0.85,0 z"
         id="path4222"
         inkscape:connector-curvature="0" />
      <path
         d="m 1642.7457,1151.623 q -0.6875,0 -0.975,-0.4125 -0.2875,-0.425 -0.2875,-1.05 l 0,-4.2875 -1.0875,0 0,-0.7875 1.0875,0 0,-2.2 0.875,-0.4375 0,2.6375 1.625,0 0,0.7875 -1.625,0 0,3.9125 q 0,0.2125 0.013,0.4 0.025,0.175 0.1,0.3125 0.075,0.1375 0.2125,0.225 0.1375,0.075 0.3625,0.075 0.325,0 0.55,-0.125 0.2375,-0.125 0.4125,-0.25 l -0.1,0.9125 q -0.25,0.1375 -0.525,0.2125 -0.275,0.075 -0.6375,0.075 z"
         id="path4224"
         inkscape:connector-curvature="0" />
      <path
         d="m 1646.1254,1148.6355 q 0.1125,0.975 0.5875,1.575 0.475,0.6 1.3,0.6 0.35,0 0.7125,-0.1125 0.3625,-0.1125 0.725,-0.3875 l 0.475,0.5875 q -0.375,0.3125 -0.8875,0.525 -0.5,0.2 -1.0625,0.2 -0.65,0 -1.1625,-0.2625 -0.5125,-0.275 -0.875,-0.7375 -0.35,-0.4625 -0.55,-1.0625 -0.1875,-0.6125 -0.1875,-1.2875 0,-0.8 0.2,-1.4125 0.2125,-0.625 0.575,-1.05 0.3625,-0.425 0.875,-0.65 0.5125,-0.225 1.125,-0.225 0.5125,0 0.9625,0.1875 0.4625,0.175 0.8125,0.55 0.35,0.375 0.55,0.9625 0.2,0.5875 0.2,1.3875 0,0.1 0,0.25 0,0.15 -0.025,0.3625 l -4.35,0 z m 1.85,-2.9125 q -0.775,0 -1.3,0.5125 -0.5125,0.5125 -0.575,1.6125 l 3.5125,0 q 0,-0.65 -0.1625,-1.0625 -0.1625,-0.4125 -0.4125,-0.65 -0.2375,-0.2375 -0.525,-0.325 -0.2875,-0.088 -0.5375,-0.088 z"
         id="path4226"
         inkscape:connector-curvature="0" />
      <path
         d="m 1652.2541,1151.473 0,-6.3875 0.875,0 0,0.9 q 0.35,-0.525 0.8125,-0.7875 0.4625,-0.2625 0.9,-0.2625 0.475,0 0.8,0.2625 l -0.1375,0.85 q -0.125,-0.075 -0.325,-0.15 -0.1875,-0.087 -0.5,-0.087 -0.2125,0 -0.4875,0.1 -0.2625,0.1 -0.5,0.3375 -0.2375,0.2375 -0.4,0.6375 -0.1625,0.3875 -0.1625,0.975 l 0,3.6125 -0.875,0 z"
         id="path4228"
         inkscape:connector-curvature="0" />
      <path
         d="m 1663.1774,1144.9355 q 0.4625,0 0.8625,0.1625 0.4,0.1625 0.6875,0.4625 0.3,0.2875 0.4625,0.7125 0.175,0.425 0.175,0.95 l 0,4.25 -0.875,0 0,-3.9125 q 0,-0.3 -0.05,-0.625 -0.05,-0.325 -0.2,-0.5875 -0.1375,-0.275 -0.4125,-0.45 -0.275,-0.175 -0.725,-0.175 -0.3625,0 -0.6375,0.15 -0.275,0.15 -0.4625,0.4 -0.1875,0.25 -0.2875,0.5875 -0.087,0.325 -0.087,0.7 l 0,3.9125 -0.875,0 0,-3.9125 q 0,-0.3 -0.05,-0.625 -0.05,-0.325 -0.2,-0.5875 -0.1375,-0.275 -0.4125,-0.45 -0.275,-0.175 -0.725,-0.175 -0.375,0 -0.65,0.1375 -0.275,0.125 -0.4625,0.3625 -0.175,0.2375 -0.275,0.55 -0.088,0.3125 -0.088,0.6875 l 0,4.0125 -0.875,0 0,-6.3875 0.875,0 0,0.625 q 0.6625,-0.775 1.7375,-0.775 0.5125,0 0.975,0.2625 0.475,0.25 0.75,0.7125 0.2625,-0.4 0.725,-0.6875 0.475,-0.2875 1.1,-0.2875 z"
         id="path4230"
         inkscape:connector-curvature="0" />
      <path
         d="m 1667.5743,1151.473 0,-6.3875 0.875,0 0,6.3875 -0.875,0 z m 0.4375,-7.7 q -0.25,0 -0.4125,-0.1625 -0.1625,-0.1625 -0.1625,-0.4125 0,-0.25 0.1625,-0.425 0.1625,-0.175 0.4125,-0.175 0.25,0 0.4125,0.175 0.1625,0.175 0.1625,0.425 0,0.25 -0.1625,0.4125 -0.1625,0.1625 -0.4125,0.1625 z"
         id="path4232"
         inkscape:connector-curvature="0" />
      <path
         d="m 1671.5862,1145.7855 q 0.3,-0.4375 0.7125,-0.6375 0.425,-0.2125 0.9375,-0.2125 1.175,0 1.725,0.7125 0.5625,0.7 0.5625,2.2875 l 0,3.5375 -0.875,0 0,-3.9 q 0,-1.0125 -0.425,-1.425 -0.425,-0.425 -1.0625,-0.425 -0.3375,0 -0.625,0.088 -0.2875,0.087 -0.5,0.3 -0.2125,0.2125 -0.3375,0.5625 -0.1125,0.35 -0.1125,0.875 l 0,3.925 -0.875,0 0,-6.3875 0.875,0 0,0.7 z"
         id="path4234"
         inkscape:connector-curvature="0" />
      <path
         d="m 1681.393,1151.473 0,-0.625 q -0.3875,0.35 -0.875,0.5625 -0.475,0.2125 -1,0.2125 -0.9625,0 -1.575,-0.5375 -0.6,-0.55 -0.6,-1.625 0,-0.55 0.1875,-0.95 0.2,-0.4 0.5125,-0.65 0.325,-0.2625 0.75,-0.3875 0.425,-0.125 0.875,-0.125 0.4,0 0.825,0.1 0.425,0.1 0.9,0.35 l 0,-0.5375 q 0,-0.4875 -0.125,-0.7875 -0.1125,-0.3 -0.3125,-0.475 -0.1875,-0.175 -0.45,-0.2375 -0.25,-0.062 -0.5125,-0.062 -0.2375,0 -0.5,0.062 -0.2625,0.062 -0.5125,0.1625 -0.25,0.1 -0.4875,0.225 -0.225,0.1125 -0.4,0.2375 l -0.25,-0.75 q 0.3875,-0.25 0.975,-0.475 0.6,-0.225 1.2625,-0.225 0.3375,0 0.7125,0.1 0.375,0.088 0.6875,0.3375 0.3125,0.2375 0.5125,0.675 0.2125,0.425 0.2125,1.1 l 0,4.325 -0.8125,0 z m -1.7875,-0.6125 q 0.2875,0 0.55,-0.088 0.2625,-0.087 0.4875,-0.225 0.225,-0.1375 0.4125,-0.3125 0.1875,-0.1875 0.3375,-0.3625 l 0,-1.2375 q -0.3125,-0.2125 -0.775,-0.3625 -0.45,-0.1625 -0.8625,-0.1625 -0.325,0 -0.6125,0.088 -0.2875,0.075 -0.5125,0.25 -0.2125,0.1625 -0.35,0.4125 -0.125,0.25 -0.125,0.6 0,0.6375 0.375,1.025 0.375,0.375 1.075,0.375 z"
         id="path4236"
         inkscape:connector-curvature="0" />
      <path
         d="m 1684.2747,1151.473 0,-8.6 0.875,-0.425 0,9.025 -0.875,0 z"
         id="path4238"
         inkscape:connector-curvature="0" />
      <path
         d="m 1687.4592,1148.173 0,-0.85 2.7875,0 0,0.85 -2.7875,0 z"
         id="path4240"
         inkscape:connector-curvature="0" />
      <path
         d="m 1695.676,1146.398 q -0.25,-0.25 -0.625,-0.4625 -0.375,-0.225 -0.9,-0.225 -0.5625,0 -0.8875,0.225 -0.325,0.225 -0.325,0.6125 0,0.25 0.125,0.425 0.125,0.175 0.325,0.325 0.2,0.1375 0.4625,0.25 0.2625,0.1125 0.55,0.225 0.35,0.1375 0.7125,0.3125 0.375,0.1625 0.6625,0.4 0.2875,0.2375 0.475,0.575 0.1875,0.325 0.1875,0.8125 0,0.8 -0.575,1.275 -0.575,0.475 -1.575,0.475 -0.65,0 -1.225,-0.3125 -0.575,-0.325 -0.975,-0.8 l 0.6125,-0.5375 q 0.2875,0.35 0.725,0.6125 0.4375,0.2625 0.9375,0.2625 0.525,0 0.8875,-0.2375 0.3625,-0.2375 0.3625,-0.6875 0,-0.2875 -0.1375,-0.5 -0.1375,-0.225 -0.3625,-0.3875 -0.225,-0.1625 -0.5125,-0.2875 -0.2875,-0.1375 -0.575,-0.25 -0.375,-0.15 -0.725,-0.325 -0.35,-0.175 -0.6125,-0.4 -0.2625,-0.225 -0.425,-0.5125 -0.15,-0.3 -0.15,-0.7 0,-0.3625 0.15,-0.6625 0.1625,-0.3 0.425,-0.5125 0.275,-0.2125 0.65,-0.325 0.3875,-0.125 0.8375,-0.125 0.65,0 1.1625,0.2625 0.525,0.25 0.9125,0.7125 l -0.575,0.4875 z"
         id="path4242"
         inkscape:connector-curvature="0" />
      <path
         d="m 1698.2872,1151.473 0,-6.3875 0.875,0 0,6.3875 -0.875,0 z m 0.4375,-7.7 q -0.25,0 -0.4125,-0.1625 -0.1625,-0.1625 -0.1625,-0.4125 0,-0.25 0.1625,-0.425 0.1625,-0.175 0.4125,-0.175 0.25,0 0.4125,0.175 0.1625,0.175 0.1625,0.425 0,0.25 -0.1625,0.4125 -0.1625,0.1625 -0.4125,0.1625 z"
         id="path4244"
         inkscape:connector-curvature="0" />
      <path
         d="m 1701.4866,1151.473 0,-8.6 0.875,-0.425 0,9.025 -0.875,0 z"
         id="path4246"
         inkscape:connector-curvature="0" />
      <path
         d="m 1707.1961,1144.9355 q 1.175,0 1.725,0.7125 0.5625,0.7 0.5625,2.2875 l 0,3.5375 -0.875,0 0,-3.9 q 0,-1.0125 -0.425,-1.425 -0.425,-0.425 -1.0625,-0.425 -0.3375,0 -0.625,0.088 -0.2875,0.087 -0.5,0.3 -0.2125,0.2125 -0.3375,0.5625 -0.1125,0.35 -0.1125,0.875 l 0,3.925 -0.875,0 0,-8.6125 0.875,-0.4125 0,3.35 q 0.2875,-0.4375 0.7125,-0.65 0.425,-0.2125 0.9375,-0.2125 z"
         id="path4248"
         inkscape:connector-curvature="0" />
      <path
         d="m 1713.978,1150.8355 q 0.875,0 1.35,-0.675 0.475,-0.675 0.475,-1.8875 0,-1.2 -0.4625,-1.875 -0.4625,-0.675 -1.3625,-0.675 -0.9,0 -1.3625,0.6625 -0.4625,0.65 -0.4625,1.9 0,1.2 0.4625,1.875 0.4625,0.675 1.3625,0.675 z m 0,-5.9 q 0.6125,0 1.1125,0.225 0.5125,0.225 0.8625,0.65 0.3625,0.425 0.5625,1.05 0.2,0.6125 0.2,1.4125 0,0.7875 -0.2,1.4125 -0.2,0.625 -0.5625,1.0625 -0.35,0.425 -0.8625,0.65 -0.5,0.225 -1.1125,0.225 -0.6125,0 -1.125,-0.225 -0.5,-0.225 -0.8625,-0.65 -0.35,-0.425 -0.55,-1.0375 -0.2,-0.625 -0.2,-1.425 0,-0.7875 0.2,-1.4 0.2,-0.625 0.55,-1.05 0.3625,-0.4375 0.8625,-0.6625 0.5125,-0.2375 1.125,-0.2375 z"
         id="path4250"
         inkscape:connector-curvature="0" />
      <path
         d="m 1722.3889,1151.473 0,-0.6125 q -0.3375,0.4375 -0.7125,0.6 -0.375,0.1625 -0.875,0.1625 -1.2375,0 -1.8,-0.7 -0.55,-0.7 -0.55,-2.275 l 0,-3.5625 0.875,0 0,3.9 q 0,1 0.4125,1.425 0.425,0.425 1.0625,0.425 0.3375,0 0.625,-0.087 0.2875,-0.088 0.5,-0.3 0.225,-0.2125 0.3375,-0.5625 0.125,-0.35 0.125,-0.875 l 0,-3.925 0.875,0 0,6.3875 -0.875,0 z"
         id="path4252"
         inkscape:connector-curvature="0" />
      <path
         d="m 1726.0083,1148.6355 q 0.1125,0.975 0.5875,1.575 0.475,0.6 1.3,0.6 0.35,0 0.7125,-0.1125 0.3625,-0.1125 0.725,-0.3875 l 0.475,0.5875 q -0.375,0.3125 -0.8875,0.525 -0.5,0.2 -1.0625,0.2 -0.65,0 -1.1625,-0.2625 -0.5125,-0.275 -0.875,-0.7375 -0.35,-0.4625 -0.55,-1.0625 -0.1875,-0.6125 -0.1875,-1.2875 0,-0.8 0.2,-1.4125 0.2125,-0.625 0.575,-1.05 0.3625,-0.425 0.875,-0.65 0.5125,-0.225 1.125,-0.225 0.5125,0 0.9625,0.1875 0.4625,0.175 0.8125,0.55 0.35,0.375 0.55,0.9625 0.2,0.5875 0.2,1.3875 0,0.1 0,0.25 0,0.15 -0.025,0.3625 l -4.35,0 z m 1.85,-2.9125 q -0.775,0 -1.3,0.5125 -0.5125,0.5125 -0.575,1.6125 l 3.5125,0 q 0,-0.65 -0.1625,-1.0625 -0.1625,-0.4125 -0.4125,-0.65 -0.2375,-0.2375 -0.525,-0.325 -0.2875,-0.088 -0.5375,-0.088 z"
         id="path4254"
         inkscape:connector-curvature="0" />
      <path
         d="m 1733.6149,1151.623 q -0.6875,0 -0.975,-0.4125 -0.2875,-0.425 -0.2875,-1.05 l 0,-4.2875 -1.0875,0 0,-0.7875 1.0875,0 0,-2.2 0.875,-0.4375 0,2.6375 1.625,0 0,0.7875 -1.625,0 0,3.9125 q 0,0.2125 0.013,0.4 0.025,0.175 0.1,0.3125 0.075,0.1375 0.2125,0.225 0.1375,0.075 0.3625,0.075 0.325,0 0.55,-0.125 0.2375,-0.125 0.4125,-0.25 l -0.1,0.9125 q -0.25,0.1375 -0.525,0.2125 -0.275,0.075 -0.6375,0.075 z"
         id="path4256"
         inkscape:connector-curvature="0" />
      <path
         d="m 1738.2292,1151.623 q -0.6875,0 -0.975,-0.4125 -0.2875,-0.425 -0.2875,-1.05 l 0,-4.2875 -1.0875,0 0,-0.7875 1.0875,0 0,-2.2 0.875,-0.4375 0,2.6375 1.625,0 0,0.7875 -1.625,0 0,3.9125 q 0,0.2125 0.013,0.4 0.025,0.175 0.1,0.3125 0.075,0.1375 0.2125,0.225 0.1375,0.075 0.3625,0.075 0.325,0 0.55,-0.125 0.2375,-0.125 0.4125,-0.25 l -0.1,0.9125 q -0.25,0.1375 -0.525,0.2125 -0.275,0.075 -0.6375,0.075 z"
         id="path4258"
         inkscape:connector-curvature="0" />
      <path
         d="m 1741.6088,1148.6355 q 0.1125,0.975 0.5875,1.575 0.475,0.6 1.3,0.6 0.35,0 0.7125,-0.1125 0.3625,-0.1125 0.725,-0.3875 l 0.475,0.5875 q -0.375,0.3125 -0.8875,0.525 -0.5,0.2 -1.0625,0.2 -0.65,0 -1.1625,-0.2625 -0.5125,-0.275 -0.875,-0.7375 -0.35,-0.4625 -0.55,-1.0625 -0.1875,-0.6125 -0.1875,-1.2875 0,-0.8 0.2,-1.4125 0.2125,-0.625 0.575,-1.05 0.3625,-0.425 0.875,-0.65 0.5125,-0.225 1.125,-0.225 0.5125,0 0.9625,0.1875 0.4625,0.175 0.8125,0.55 0.35,0.375 0.55,0.9625 0.2,0.5875 0.2,1.3875 0,0.1 0,0.25 0,0.15 -0.025,0.3625 l -4.35,0 z m 1.85,-2.9125 q -0.775,0 -1.3,0.5125 -0.5125,0.5125 -0.575,1.6125 l 3.5125,0 q 0,-0.65 -0.1625,-1.0625 -0.1625,-0.4125 -0.4125,-0.65 -0.2375,-0.2375 -0.525,-0.325 -0.2875,-0.088 -0.5375,-0.088 z"
         id="path4260"
         inkscape:connector-curvature="0" />
      <path
         d="m 1750.803,1146.398 q -0.25,-0.25 -0.625,-0.4625 -0.375,-0.225 -0.9,-0.225 -0.5625,0 -0.8875,0.225 -0.325,0.225 -0.325,0.6125 0,0.25 0.125,0.425 0.125,0.175 0.325,0.325 0.2,0.1375 0.4625,0.25 0.2625,0.1125 0.55,0.225 0.35,0.1375 0.7125,0.3125 0.375,0.1625 0.6625,0.4 0.2875,0.2375 0.475,0.575 0.1875,0.325 0.1875,0.8125 0,0.8 -0.575,1.275 -0.575,0.475 -1.575,0.475 -0.65,0 -1.225,-0.3125 -0.575,-0.325 -0.975,-0.8 l 0.6125,-0.5375 q 0.2875,0.35 0.725,0.6125 0.4375,0.2625 0.9375,0.2625 0.525,0 0.8875,-0.2375 0.3625,-0.2375 0.3625,-0.6875 0,-0.2875 -0.1375,-0.5 -0.1375,-0.225 -0.3625,-0.3875 -0.225,-0.1625 -0.5125,-0.2875 -0.2875,-0.1375 -0.575,-0.25 -0.375,-0.15 -0.725,-0.325 -0.35,-0.175 -0.6125,-0.4 -0.2625,-0.225 -0.425,-0.5125 -0.15,-0.3 -0.15,-0.7 0,-0.3625 0.15,-0.6625 0.1625,-0.3 0.425,-0.5125 0.275,-0.2125 0.65,-0.325 0.3875,-0.125 0.8375,-0.125 0.65,0 1.1625,0.2625 0.525,0.25 0.9125,0.7125 l -0.575,0.4875 z"
         id="path4262"
         inkscape:connector-curvature="0" />
    </g>
  </g>
</svg>
