<?xml version="1.0" encoding="UTF-8" standalone="no"?>
<!-- Created with Inkscape (http://www.inkscape.org/) -->

<svg
   xmlns:dc="http://purl.org/dc/elements/1.1/"
   xmlns:cc="http://creativecommons.org/ns#"
   xmlns:rdf="http://www.w3.org/1999/02/22-rdf-syntax-ns#"
   xmlns:svg="http://www.w3.org/2000/svg"
   xmlns="http://www.w3.org/2000/svg"
   xmlns:sodipodi="http://sodipodi.sourceforge.net/DTD/sodipodi-0.dtd"
   xmlns:inkscape="http://www.inkscape.org/namespaces/inkscape"
   width="572.69806"
   height="719.70386"
   viewBox="0 0 572.69806 719.70386"
   id="svg2"
   version="1.1"
   inkscape:version="0.92.4 (5da689c313, 2019-01-14)"
   sodipodi:docname="MKE.svg"
   inkscape:export-filename="C:\Users\Paul Bogard\Dropbox\Documents\Projects\Terminal Silhouettes\Silhouettes\png\MKE.png"
   inkscape:export-xdpi="89.996498"
   inkscape:export-ydpi="89.996498">
  <defs
     id="defs4" />
  <sodipodi:namedview
     id="base"
     pagecolor="#ffffff"
     bordercolor="#666666"
     borderopacity="1.0"
     inkscape:pageopacity="1"
     inkscape:pageshadow="2"
     inkscape:zoom="0.98994949"
     inkscape:cx="-43.414669"
     inkscape:cy="365.2157"
     inkscape:document-units="px"
     inkscape:current-layer="layer2"
     showgrid="false"
     units="px"
     fit-margin-top="25"
     fit-margin-left="25"
     fit-margin-right="25"
     fit-margin-bottom="25"
     inkscape:window-width="1920"
     inkscape:window-height="1137"
     inkscape:window-x="1912"
     inkscape:window-y="-8"
     inkscape:window-maximized="1" />
  <metadata
     id="metadata7">
    <rdf:RDF>
      <cc:Work
         rdf:about="">
        <dc:format>image/svg+xml</dc:format>
        <dc:type
           rdf:resource="http://purl.org/dc/dcmitype/StillImage" />
        <dc:title />
      </cc:Work>
    </rdf:RDF>
  </metadata>
  <g
     inkscape:groupmode="layer"
     id="layer2"
     inkscape:label="Terminal"
     style="display:inline"
     transform="translate(-341.91767,-482.49935)">
    <path
       style="display:inline;fill:#dddddd;fill-opacity:1;fill-rule:evenodd;stroke:#222222;stroke-width:1.5;stroke-linecap:butt;stroke-linejoin:miter;stroke-miterlimit:4;stroke-dasharray:none;stroke-opacity:1"
       d="m 540.20742,508.4359 -19.22783,28.72752 13.32053,10.42512 -1.85353,2.31669 9.84638,7.64437 -105.29304,136.33726 -58.38046,-45.17551 -11.00474,14.24775 9.61437,7.64527 -2.54872,2.77985 31.04421,24.32527 -0.92722,1.04188 31.39092,24.44173 -8.45512,40.19452 -10.30955,-2.20112 -30.23257,144.56126 -4.17022,-0.92722 -2.77986,18.07039 -3.35947,-0.81076 c 0,0 -1.38993,6.13892 -4.28579,11.699 l 2.80135,0.63068 -4.42286,20.55909 7.6175,1.31064 0.57335,-2.86675 1.88399,0.16393 0.65487,-3.35855 1.88399,0.40942 3.60405,-18.51118 -1.884,-0.32699 4.34134,-16.21773 1.22822,1.22825 1.72005,-1.39219 0.49183,-2.94825 2.2934,0.57335 1.96551,-7.78146 15.48045,3.52165 0.7373,-3.03073 6.8802,1.63854 -1.63853,9.25511 1.55701,0.32791 -2.70371,10.97608 1.22912,0.24544 -1.22912,5.89743 1.22912,0.32699 -2.37582,10.56666 9.99331,18.26482 -2.86675,1.39306 0.7373,1.47369 -4.83317,2.53976 7.20809,13.67797 2.04793,-1.22825 1.884,4.17743 -4.91469,2.94825 0.65487,1.39219 -1.39216,0.98272 9.33754,17.69235 6.79778,-3.604 3.27706,6.3892 -5.81593,2.9483 8.68268,16.7087 8.92723,-4.5044 4.96933,10.8748 a 29.278807,29.278807 0 0 0 -10.16711,22.134 29.278807,29.278807 0 0 0 29.27848,29.2785 29.278807,29.278807 0 0 0 29.27937,-29.2785 29.278807,29.278807 0 0 0 -29.27937,-29.2793 29.278807,29.278807 0 0 0 -4.26071,0.3395 l -0.0242,-0.1442 -18.06948,-36.83511 2.77985,-1.38948 -14.82647,-27.80028 -3.01188,2.08466 -9.96196,-19.69191 3.70707,-18.07039 8.80271,1.85357 0.23203,-2.0847 15.0585,3.47505 14.59534,-67.87926 15.40609,3.01188 8.22399,-5.67616 1.15835,-6.37046 60.92829,12.85738 -0.57873,2.77985 12.27865,2.43315 0.69429,-2.66428 38.22543,8.22398 -0.69519,3.12745 12.16308,2.31669 0.69519,-2.89542 23.51362,4.86452 -0.23113,0.69519 12.39421,2.54872 21.54542,34.28632 -2.85421,24.40682 1.06429,6.79865 3.93192,4.66835 6.06139,2.21185 5.32319,-0.24544 5.24257,-4.25981 2.45734,-5.89748 0.98276,-6.79777 5.56955,-47.26014 0.90123,-0.0824 4.83227,-6.14292 2.45734,-5.65197 0,-3.52163 -0.40941,-6.30685 -3.76798,-6.38837 -0.98276,0.0815 14.16981,-112.29507 0.16394,-2.70281 -0.90124,-5.40562 -3.60404,-4.75074 -5.48713,-2.12946 -6.30685,0.90124 -4.83317,3.4401 -2.70281,6.14291 -11.38457,91.24417 -25.30983,16.70957 -11.30305,-2.04794 -1.80157,8.10843 -30.5515,-6.96173 0.57335,-3.11221 -6.63473,-1.39306 -0.57335,2.86675 -44.22947,-9.50059 0.73639,-2.62129 -6.30685,-1.47458 -0.65487,2.78523 -44.22947,-9.41907 0.65487,-2.53976 -6.22533,-1.39217 -1.47369,5.89745 -19.4939,-4.09587 -0.90123,3.35857 -13.02311,-3.35857 2.2934,-8.60025 14.49769,3.76798 18.18326,-85.59309 -29.48631,-6.30685 -5.16015,25.06346 -8.84662,-1.96552 0.49183,-2.53886 -16.95504,-3.4401 -0.4094,1.39216 -8.60025,-1.96551 -1.884,8.4363 8.92814,2.04794 -0.65577,2.70281 7.94538,1.63763 -0.24547,0.73729 -24.16312,-5.65108 10.23878,-46.52377 8.68177,-10.81123 1.80247,1.1467 18.42872,-23.58977 -1.88399,-1.39217 87.31314,-111.55778 17.2005,13.51493 1.80248,-2.21187 12.20339,9.33754 22.68853,-26.12774 c 0,0 -44.09198,-20.76329 -74.44053,-58.29357 z"
       id="path4150"
       inkscape:connector-curvature="0" />
  </g>
  <g
     inkscape:groupmode="layer"
     id="layer3"
     inkscape:label="Label"
     transform="translate(-341.91767,-482.49935)">
    <g
       id="g4175"
       transform="translate(51.51778,21.213203)">
      <g
         style="font-style:normal;font-variant:normal;font-weight:bold;font-stretch:normal;font-size:125px;line-height:110.00000238%;font-family:Overpass;-inkscape-font-specification:'Overpass, Bold';text-align:center;letter-spacing:0px;word-spacing:0px;writing-mode:lr-tb;text-anchor:middle;fill:#dddddd;fill-opacity:1;stroke:#222222;stroke-width:0.25;stroke-linecap:butt;stroke-linejoin:miter;stroke-miterlimit:4;stroke-dasharray:none;stroke-opacity:1"
         id="text4157">
        <path
           d="m 644.55255,1106.4171 0,-44.9829 q 0,-0.7324 0,-1.709 0.061,-0.9765 0.061,-1.9531 0.061,-1.0376 0.061,-1.8921 0.061,-0.8545 0.12207,-1.3428 -0.67138,2.0752 -1.34277,3.7232 -0.61035,1.6479 -1.28174,3.1738 l -21.24023,46.5088 -21.36231,-46.5088 q -0.67139,-1.5259 -1.34277,-3.1738 -0.61035,-1.648 -1.28174,-3.7232 0.061,0.4883 0.061,1.3428 0.061,0.8545 0.061,1.8921 0.061,0.9766 0.061,1.9531 0.061,0.9766 0.061,1.709 l 0,44.9829 -16.90674,0 0,-87.5244 17.15088,0 21.48438,48.2788 q 0.67138,1.5869 1.2207,3.0518 0.54932,1.4038 1.0376,2.9297 0.48828,-1.5259 1.03759,-2.9297 0.54932,-1.4649 1.22071,-3.0518 l 21.85058,-48.2788 16.11328,0 0,87.5244 -16.8457,0 z"
           id="path4141"
           style="" />
        <path
           d="m 739.70636,1106.4171 -22.52197,-41.8701 -16.23535,20.0195 0,21.8506 -16.90674,0 0,-87.5244 16.90674,0 0,41.748 33.14209,-41.748 19.95849,0 -25.51269,31.3721 30.88379,56.1523 -19.71436,0 z"
           id="path4143"
           style="" />
        <path
           d="m 775.59503,1106.4171 0,-87.5244 59.75342,0 0,16.0522 -42.84668,0 0,18.3716 25.20752,0 0,15.9912 -25.20752,0 0,21.1182 45.47119,0 0,15.9912 -62.37793,0 z"
           id="path4145"
           style="" />
      </g>
      <g
         style="font-style:normal;font-variant:normal;font-weight:normal;font-stretch:normal;font-size:45px;line-height:110.00000238%;font-family:Overpass;-inkscape-font-specification:'Overpass, Normal';text-align:center;letter-spacing:0px;word-spacing:0px;writing-mode:lr-tb;text-anchor:middle;fill:#222222;fill-opacity:1;stroke:none;stroke-width:1px;stroke-linecap:butt;stroke-linejoin:miter;stroke-opacity:1"
         id="text4161">
        <path
           d="m 627.71906,1155.4407 0,-17.2266 0.13183,-4.7241 -1.8457,4.8559 -7.60254,17.6441 -7.64649,-17.7759 -1.88964,-4.7241 0.13183,4.7241 0,17.2266 -4.68017,0 0,-31.5088 4.72412,0 8.45947,19.6655 0.85693,2.3071 0.90088,-2.3071 8.41553,-19.6655 4.72412,0 0,31.5088 -4.68017,0 z"
           id="path4148"
           style="" />
        <path
           d="m 639.91388,1155.4407 0,-23.0054 4.68018,0 0,23.0054 -4.68018,0 z m 2.3291,-26.5869 q -0.59326,0 -1.1206,-0.2198 -0.50538,-0.2197 -0.90088,-0.5932 -0.37354,-0.3955 -0.59327,-0.9009 -0.21972,-0.5274 -0.21972,-1.1206 0,-0.5933 0.21972,-1.0986 0.21973,-0.5274 0.59327,-0.9009 0.3955,-0.3955 0.90088,-0.6153 0.52734,-0.2197 1.1206,-0.2197 0.59326,0 1.09863,0.2197 0.52735,0.2198 0.90088,0.6153 0.39551,0.3735 0.61524,0.9009 0.21972,0.5053 0.21972,1.0986 0,0.5932 -0.21972,1.1206 -0.21973,0.5054 -0.61524,0.9009 -0.37353,0.3735 -0.90088,0.5932 -0.50537,0.2198 -1.09863,0.2198 z"
           id="path4151"
           style="" />
        <path
           d="m 651.60333,1155.4407 0,-30.2783 4.68018,-2.2193 0,32.4976 -4.68018,0 z"
           id="path4153"
           style="" />
        <path
           d="m 684.84796,1155.4407 -4.15283,0 -3.82324,-13.3594 q -0.10987,-0.3955 -0.2417,-0.813 -0.10987,-0.4175 -0.21973,-0.791 -0.0879,-0.3955 -0.17578,-0.7251 -0.0659,-0.3296 -0.0879,-0.5493 -0.0439,0.2197 -0.10986,0.5713 -0.0439,0.3296 -0.13184,0.7251 -0.0879,0.3955 -0.19775,0.813 -0.10987,0.4174 -0.21973,0.8129 l -3.7793,13.3155 -4.15283,0 -6.1084,-23.0054 4.59229,0 3.22998,14.3262 q 0.17578,0.747 0.26367,1.3183 0.10986,0.5494 0.19775,1.0108 0.0659,-0.4614 0.17579,-1.0547 0.13183,-0.5933 0.30761,-1.2744 l 3.82324,-14.3262 4.32862,0 3.82324,14.3262 q 0.17578,0.6811 0.28564,1.2744 0.13184,0.5933 0.19776,1.0547 0.0659,-0.4614 0.17578,-1.0108 0.10986,-0.5713 0.28564,-1.3183 l 3.22998,-14.3262 4.59229,0 -6.1084,23.0054 z"
           id="path4155"
           style="" />
        <path
           d="m 713.56622,1155.4407 -4.48242,0 0,-1.9776 q -0.43945,0.4615 -1.05469,0.9229 -0.61523,0.4394 -1.40625,0.813 -0.76904,0.3515 -1.73584,0.5713 -0.96679,0.2197 -2.10937,0.2197 -1.75781,0 -3.25195,-0.4834 -1.49414,-0.4834 -2.59278,-1.4502 -1.09863,-0.9888 -1.73584,-2.417 -0.61523,-1.4502 -0.61523,-3.3618 0,-1.9776 0.74707,-3.4058 0.74707,-1.4502 1.97754,-2.373 1.23047,-0.9448 2.8125,-1.3843 1.604,-0.4395 3.2959,-0.4395 1.58203,0 3.03222,0.3516 1.47217,0.3296 2.63672,1.0108 l 0,-1.2745 q 0,-1.2963 -0.30762,-2.1972 -0.28564,-0.9009 -0.90087,-1.4502 -0.59327,-0.5713 -1.51612,-0.813 -0.92285,-0.2637 -2.19726,-0.2637 -2.15332,0 -3.73536,0.5713 -1.56005,0.5713 -2.83447,1.5161 l -1.38428,-3.8452 q 0.70313,-0.4834 1.60401,-0.9009 0.90088,-0.4394 1.97754,-0.769 1.07666,-0.3296 2.3291,-0.5054 1.25244,-0.1977 2.68066,-0.1977 0.9668,0 1.99952,0.1098 1.03271,0.1099 1.99951,0.4395 0.98877,0.3076 1.8457,0.9009 0.87891,0.5932 1.51611,1.56 0.65918,0.9448 1.03272,2.3291 0.37353,1.3843 0.37353,3.2959 l 0,14.8975 z m -9.93164,-3.6035 q 1.77979,0 3.14209,-0.7251 1.38428,-0.7251 2.30713,-1.7359 l 0,-3.5156 q -0.9668,-0.5054 -2.26318,-0.813 -1.29639,-0.3076 -2.65869,-0.3076 -1.05469,0 -1.97754,0.1977 -0.92285,0.1978 -1.62598,0.6373 -0.68115,0.4174 -1.07666,1.0986 -0.39551,0.6592 -0.39551,1.604 0,1.6479 1.14258,2.6147 1.16455,0.9449 3.40576,0.9449 z"
           id="path4157"
           style="" />
        <path
           d="m 733.93488,1155.4407 0,-2.1973 q -1.12061,1.4282 -2.59278,2.0874 -1.45019,0.6592 -3.36181,0.6592 -1.80176,0 -3.31788,-0.5274 -1.51611,-0.5053 -2.63671,-1.6699 -1.09864,-1.1865 -1.71387,-3.0542 -0.61524,-1.8677 -0.61524,-4.5703 l 0,-13.7329 4.68018,0 0,13.7329 q 0,1.4502 0.35156,2.4829 0.35157,1.0108 0.9668,1.6699 0.61523,0.6592 1.45019,0.9668 0.83497,0.2857 1.82374,0.2857 1.05468,0 1.95556,-0.2637 0.90088,-0.2856 1.56006,-0.9009 0.68115,-0.6372 1.05469,-1.6479 0.39551,-1.0108 0.39551,-2.5049 l 0,-13.8208 4.68017,0 0,23.0054 -4.68017,0 z"
           id="path4159"
           style="" />
        <path
           d="m 745.33868,1155.4407 0,-30.2783 4.68018,-2.2193 0,16.6113 6.78955,-7.1191 5.75684,0 -6.30616,6.394 8.63526,16.6114 -5.11963,0 -6.78955,-13.2276 -2.96631,2.9663 0,10.2613 -4.68018,0 z"
           id="path4161"
           style="" />
        <path
           d="m 779.44025,1155.99 q -2.39502,0 -4.32862,-0.813 -1.93359,-0.835 -3.2959,-2.373 -1.3623,-1.5601 -2.10937,-3.8013 -0.7251,-2.2412 -0.7251,-5.0757 0,-2.8345 0.74707,-5.0537 0.74707,-2.2412 2.10938,-3.7793 1.38427,-1.5601 3.2959,-2.3731 1.93359,-0.8129 4.30664,-0.8129 2.04345,0 3.82324,0.6591 1.80176,0.6372 3.14209,1.9776 1.3623,1.3183 2.13135,3.3398 0.79101,2.0215 0.79101,4.7681 0,0.7471 -0.0439,1.582 -0.022,0.835 -0.13184,1.4502 l -15.49072,0 q 0.022,1.4282 0.50537,2.5708 0.50537,1.1206 1.31836,1.9336 0.81299,0.791 1.8457,1.2305 1.03272,0.4175 2.15332,0.4175 1.42822,0 2.63672,-0.5933 1.23047,-0.5933 2.13135,-1.7358 l 3.0542,3.142 q -1.25244,1.4942 -3.20801,2.417 -1.95557,0.9229 -4.6582,0.9229 z m 0,-19.9512 q -1.09864,0 -2.10938,0.3296 -1.01074,0.3076 -1.80176,1.0108 -0.76904,0.6811 -1.27441,1.8017 -0.50537,1.1206 -0.59326,2.7246 l 10.98633,0 q -0.0439,-1.604 -0.50537,-2.7246 -0.46143,-1.1206 -1.2085,-1.8017 -0.74707,-0.7032 -1.66992,-1.0108 -0.90088,-0.3296 -1.82373,-0.3296 z"
           id="path4163"
           style="" />
        <path
           d="m 804.04962,1155.99 q -2.39502,0 -4.32861,-0.813 -1.9336,-0.835 -3.2959,-2.373 -1.3623,-1.5601 -2.10938,-3.8013 -0.72509,-2.2412 -0.72509,-5.0757 0,-2.8345 0.74707,-5.0537 0.74707,-2.2412 2.10937,-3.7793 1.38428,-1.5601 3.2959,-2.3731 1.93359,-0.8129 4.30664,-0.8129 2.04346,0 3.82324,0.6591 1.80176,0.6372 3.14209,1.9776 1.36231,1.3183 2.13135,3.3398 0.79102,2.0215 0.79102,4.7681 0,0.7471 -0.0439,1.582 -0.022,0.835 -0.13183,1.4502 l -15.49073,0 q 0.022,1.4282 0.50537,2.5708 0.50538,1.1206 1.31836,1.9336 0.81299,0.791 1.84571,1.2305 1.03271,0.4175 2.15332,0.4175 1.42822,0 2.63672,-0.5933 1.23046,-0.5933 2.13134,-1.7358 l 3.0542,3.142 q -1.25244,1.4942 -3.20801,2.417 -1.95556,0.9229 -4.6582,0.9229 z m 0,-19.9512 q -1.09863,0 -2.10937,0.3296 -1.01075,0.3076 -1.80176,1.0108 -0.76904,0.6811 -1.27442,1.8017 -0.50537,1.1206 -0.59326,2.7246 l 10.98633,0 q -0.0439,-1.604 -0.50537,-2.7246 -0.46143,-1.1206 -1.2085,-1.8017 -0.74707,-0.7032 -1.66992,-1.0108 -0.90088,-0.3296 -1.82373,-0.3296 z"
           id="path4165"
           style="" />
      </g>
    </g>
  </g>
</svg>
