<?xml version="1.0" encoding="UTF-8" standalone="no"?>
<!-- Created with Inkscape (http://www.inkscape.org/) -->

<svg
   xmlns:dc="http://purl.org/dc/elements/1.1/"
   xmlns:cc="http://creativecommons.org/ns#"
   xmlns:rdf="http://www.w3.org/1999/02/22-rdf-syntax-ns#"
   xmlns:svg="http://www.w3.org/2000/svg"
   xmlns="http://www.w3.org/2000/svg"
   xmlns:sodipodi="http://sodipodi.sourceforge.net/DTD/sodipodi-0.dtd"
   xmlns:inkscape="http://www.inkscape.org/namespaces/inkscape"
   width="572.69806"
   height="719.70386"
   viewBox="0 0 572.69806 719.70386"
   id="svg2"
   version="1.1"
   inkscape:version="0.91 r13725"
   sodipodi:docname="MKE.svg"
   inkscape:export-filename="C:\Users\Paul Bogard\Dropbox\Documents\Projects\Terminal Silhouettes\Silhouettes\png\MKE.png"
   inkscape:export-xdpi="89.996498"
   inkscape:export-ydpi="89.996498">
  <defs
     id="defs4" />
  <sodipodi:namedview
     id="base"
     pagecolor="#ffffff"
     bordercolor="#666666"
     borderopacity="1.0"
     inkscape:pageopacity="1"
     inkscape:pageshadow="2"
     inkscape:zoom="0.98994949"
     inkscape:cx="274.27831"
     inkscape:cy="332.89082"
     inkscape:document-units="px"
     inkscape:current-layer="layer3"
     showgrid="false"
     units="px"
     fit-margin-top="25"
     fit-margin-left="25"
     fit-margin-right="25"
     fit-margin-bottom="25"
     inkscape:window-width="1680"
     inkscape:window-height="987"
     inkscape:window-x="1672"
     inkscape:window-y="-8"
     inkscape:window-maximized="1" />
  <metadata
     id="metadata7">
    <rdf:RDF>
      <cc:Work
         rdf:about="">
        <dc:format>image/svg+xml</dc:format>
        <dc:type
           rdf:resource="http://purl.org/dc/dcmitype/StillImage" />
        <dc:title></dc:title>
      </cc:Work>
    </rdf:RDF>
  </metadata>
  <g
     inkscape:groupmode="layer"
     id="layer2"
     inkscape:label="Terminal"
     style="display:inline"
     transform="translate(-341.91767,-482.49935)">
    <path
       style="display:inline;fill:#dddddd;fill-opacity:1;fill-rule:evenodd;stroke:#222222;stroke-width:1;stroke-linecap:butt;stroke-linejoin:miter;stroke-miterlimit:4;stroke-dasharray:none;stroke-opacity:1"
       d="m 540.20742,508.4359 -19.22783,28.72752 13.32053,10.42512 -1.85353,2.31669 9.84638,7.64437 -105.29304,136.33726 -58.38046,-45.17551 -11.00474,14.24775 9.61437,7.64527 -2.54872,2.77985 31.04421,24.32527 -0.92722,1.04188 31.39092,24.44173 -8.45512,40.19452 -10.30955,-2.20112 -30.23257,144.56126 -4.17022,-0.92722 -2.77986,18.07039 -3.35947,-0.81076 c 0,0 -1.38993,6.13892 -4.28579,11.699 l 2.80135,0.63068 -4.42286,20.55909 7.6175,1.31064 0.57335,-2.86675 1.88399,0.16393 0.65487,-3.35855 1.88399,0.40942 3.60405,-18.51118 -1.884,-0.32699 4.34134,-16.21773 1.22822,1.22825 1.72005,-1.39219 0.49183,-2.94825 2.2934,0.57335 1.96551,-7.78146 15.48045,3.52165 0.7373,-3.03073 6.8802,1.63854 -1.63853,9.25511 1.55701,0.32791 -2.70371,10.97608 1.22912,0.24544 -1.22912,5.89743 1.22912,0.32699 -2.37582,10.56666 9.99331,18.26482 -2.86675,1.39306 0.7373,1.47369 -4.83317,2.53976 7.20809,13.67797 2.04793,-1.22825 1.884,4.17743 -4.91469,2.94825 0.65487,1.39219 -1.39216,0.98272 9.33754,17.69235 6.79778,-3.604 3.27706,6.3892 -5.81593,2.9483 8.68268,16.7087 8.92723,-4.5044 4.96933,10.8748 a 29.278807,29.278807 0 0 0 -10.16711,22.134 29.278807,29.278807 0 0 0 29.27848,29.2785 29.278807,29.278807 0 0 0 29.27937,-29.2785 29.278807,29.278807 0 0 0 -29.27937,-29.2793 29.278807,29.278807 0 0 0 -4.26071,0.3395 l -0.0242,-0.1442 -18.06948,-36.83511 2.77985,-1.38948 -14.82647,-27.80028 -3.01188,2.08466 -9.96196,-19.69191 3.70707,-18.07039 8.80271,1.85357 0.23203,-2.0847 15.0585,3.47505 14.59534,-67.87926 15.40609,3.01188 8.22399,-5.67616 1.15835,-6.37046 60.92829,12.85738 -0.57873,2.77985 12.27865,2.43315 0.69429,-2.66428 38.22543,8.22398 -0.69519,3.12745 12.16308,2.31669 0.69519,-2.89542 23.51362,4.86452 -0.23113,0.69519 12.39421,2.54872 21.54542,34.28632 -2.85421,24.40682 1.06429,6.79865 3.93192,4.66835 6.06139,2.21185 5.32319,-0.24544 5.24257,-4.25981 2.45734,-5.89748 0.98276,-6.79777 5.56955,-47.26014 0.90123,-0.0824 4.83227,-6.14292 2.45734,-5.65197 0,-3.52163 -0.40941,-6.30685 -3.76798,-6.38837 -0.98276,0.0815 14.16981,-112.29507 0.16394,-2.70281 -0.90124,-5.40562 -3.60404,-4.75074 -5.48713,-2.12946 -6.30685,0.90124 -4.83317,3.4401 -2.70281,6.14291 -11.38457,91.24417 -25.30983,16.70957 -11.30305,-2.04794 -1.80157,8.10843 -30.5515,-6.96173 0.57335,-3.11221 -6.63473,-1.39306 -0.57335,2.86675 -44.22947,-9.50059 0.73639,-2.62129 -6.30685,-1.47458 -0.65487,2.78523 -44.22947,-9.41907 0.65487,-2.53976 -6.22533,-1.39217 -1.47369,5.89745 -19.4939,-4.09587 -0.90123,3.35857 -13.02311,-3.35857 2.2934,-8.60025 14.49769,3.76798 18.18326,-85.59309 -29.48631,-6.30685 -5.16015,25.06346 -8.84662,-1.96552 0.49183,-2.53886 -16.95504,-3.4401 -0.4094,1.39216 -8.60025,-1.96551 -1.884,8.4363 8.92814,2.04794 -0.65577,2.70281 7.94538,1.63763 -0.24547,0.73729 -24.16312,-5.65108 10.23878,-46.52377 8.68177,-10.81123 1.80247,1.1467 18.42872,-23.58977 -1.88399,-1.39217 87.31314,-111.55778 17.2005,13.51493 1.80248,-2.21187 12.20339,9.33754 22.68853,-26.12774 c 0,0 -44.09198,-20.76329 -74.44053,-58.29357 z"
       id="path4150"
       inkscape:connector-curvature="0" />
  </g>
  <g
     inkscape:groupmode="layer"
     id="layer3"
     inkscape:label="Label"
     transform="translate(-341.91767,-482.49935)">
    <g
       id="g4175"
       transform="translate(51.51778,21.213203)">
      <text
         sodipodi:linespacing="110%"
         id="text4157"
         y="1106.4171"
         x="706.99152"
         style="font-style:normal;font-variant:normal;font-weight:bold;font-stretch:normal;font-size:125px;line-height:110.00000238%;font-family:Overpass;-inkscape-font-specification:'Overpass, Bold';text-align:center;letter-spacing:0px;word-spacing:0px;writing-mode:lr-tb;text-anchor:middle;fill:#dddddd;fill-opacity:1;stroke:#222222;stroke-width:0.25;stroke-linecap:butt;stroke-linejoin:miter;stroke-miterlimit:4;stroke-dasharray:none;stroke-opacity:1"
         xml:space="preserve"><tspan
           y="1106.4171"
           x="706.99152"
           id="tspan4159"
           sodipodi:role="line">MKE</tspan></text>
      <text
         sodipodi:linespacing="110%"
         id="text4161"
         y="1155.4407"
         x="708.117"
         style="font-style:normal;font-variant:normal;font-weight:normal;font-stretch:normal;font-size:45px;line-height:110.00000238%;font-family:Overpass;-inkscape-font-specification:'Overpass, Normal';text-align:center;letter-spacing:0px;word-spacing:0px;writing-mode:lr-tb;text-anchor:middle;fill:#222222;fill-opacity:1;stroke:none;stroke-width:1px;stroke-linecap:butt;stroke-linejoin:miter;stroke-opacity:1"
         xml:space="preserve"><tspan
           y="1155.4407"
           x="708.117"
           id="tspan4163"
           sodipodi:role="line">Milwaukee</tspan></text>
    </g>
  </g>
</svg>
