<?xml version="1.0" encoding="UTF-8" standalone="no"?>
<!-- Created with Inkscape (http://www.inkscape.org/) -->

<svg
   xmlns:dc="http://purl.org/dc/elements/1.1/"
   xmlns:cc="http://creativecommons.org/ns#"
   xmlns:rdf="http://www.w3.org/1999/02/22-rdf-syntax-ns#"
   xmlns:svg="http://www.w3.org/2000/svg"
   xmlns="http://www.w3.org/2000/svg"
   xmlns:sodipodi="http://sodipodi.sourceforge.net/DTD/sodipodi-0.dtd"
   xmlns:inkscape="http://www.inkscape.org/namespaces/inkscape"
   width="2707.146"
   height="1535.7279"
   viewBox="0 0 2707.146 1535.7279"
   id="svg2"
   version="1.1"
   inkscape:version="0.92.4 (5da689c313, 2019-01-14)"
   sodipodi:docname="MSP.svg"
   inkscape:export-filename="C:\Users\paulb\Dropbox\Projects\Terminal Silhouettes\Silhouettes\png\MSP.png"
   inkscape:export-xdpi="90"
   inkscape:export-ydpi="90">
  <defs
     id="defs4" />
  <sodipodi:namedview
     id="base"
     pagecolor="#ffffff"
     bordercolor="#666666"
     borderopacity="1.0"
     inkscape:pageopacity="1"
     inkscape:pageshadow="2"
     inkscape:zoom="0.35"
     inkscape:cx="769.98324"
     inkscape:cy="898.7618"
     inkscape:document-units="px"
     inkscape:current-layer="layer1"
     showgrid="false"
     showguides="true"
     inkscape:guide-bbox="true"
     inkscape:window-width="1920"
     inkscape:window-height="1137"
     inkscape:window-x="1912"
     inkscape:window-y="-8"
     inkscape:window-maximized="1"
     units="px"
     fit-margin-top="25"
     fit-margin-left="25"
     fit-margin-right="25"
     fit-margin-bottom="25" />
  <metadata
     id="metadata7">
    <rdf:RDF>
      <cc:Work
         rdf:about="">
        <dc:format>image/svg+xml</dc:format>
        <dc:type
           rdf:resource="http://purl.org/dc/dcmitype/StillImage" />
        <dc:title />
      </cc:Work>
    </rdf:RDF>
  </metadata>
  <g
     inkscape:groupmode="layer"
     id="layer2"
     inkscape:label="Terminal"
     style="display:inline"
     transform="translate(1778.5433,335.17216)">
    <path
       style="fill:#dddddd;fill-opacity:1;fill-rule:evenodd;stroke:#222222;stroke-width:1.5;stroke-linecap:butt;stroke-linejoin:miter;stroke-opacity:1;stroke-miterlimit:4;stroke-dasharray:none"
       d="m -462.17034,-309.73346 -5.91104,6.82112 -3.33888,-2.89175 -23.36483,26.96614 3.33889,2.89175 -6.00342,6.92683 23.16557,20.0624 12.21094,-14.0918 64.44828,55.81557 -2.06795,2.3863 23.27487,20.15596 2.06677,-2.3863 18.27147,15.8232 -2.06795,2.3863 18.97132,16.43071 2.06795,-2.38752 5.49915,-6.34604 6.55502,5.67535 18.64939,39.49421 -0.95746,1.71075 -5.7422,-3.31943 -25.86774,46.203544 -10.1053,-5.840598 -20.00654,35.736153 10.1053,5.839385 -13.60455,24.299177 5.7422,3.3182161 -1.73625,3.1007329 -42.79301,3.4069132 -7.84176,-2.5126588 2.7897,-8.5622474 -6.07993,-1.947677 0.87478,-2.685189 -12.15017,-3.891708 -0.87484,2.685195 -11.17697,-3.580663 0.87485,-2.683982 -12.00808,-3.84675 -0.87478,2.685196 -40.02882,-12.822102 0.87478,-2.685196 -14.63367,-4.687548 0.97562,-2.993808 -37.76036,-12.09552 -0.97562,2.995028 -46.98603,-15.050447 -0.87484,2.685189 -33.86745,-10.848908 0.87484,-2.685189 -36.32788,-11.636243 -2.39237,7.34358 -2.605,-0.834721 -4.72888,14.518268 2.605,0.833501 -4.73615,14.537709 36.32787,11.636243 2.59897,-7.977819 58.92598,18.87533 -1.7314,5.314496 38.63764,12.376188 0.98172,-3.013248 14.28499,4.574551 0.74968,-2.300034 33.15298,10.6192687 -0.74962,2.3000347 17.09286,5.4760903 0.74968,-2.3012477 34.3668,11.0080816 -0.74962,2.3012415 12.15017,3.8917079 0.74968,-2.301241 6.07993,1.94767 0.96231,-2.952495 3.02784,0.970802 14.21333,51.833945 0.36323,1.323161 0.39005,1.424001 12.2158,7.060479 -1.20773,2.156662 a 1.8287155,1.8287155 0 0 0 -1.81768,-1.637851 1.8287155,1.8287155 0 0 0 -1.82857,1.828608 1.8287155,1.8287155 0 0 0 1.82857,1.828603 1.8287155,1.8287155 0 0 0 0.78856,-0.179822 l -4.15052,7.411618 2.06434,1.19315 -5.41896,9.678843 -16.01036,-9.252376 -13.963,24.939497 171.7807,99.27195 1.37177,-2.45069 4.06542,-1.36811 8.22932,4.75558 10.91208,-19.49134 38.12491,22.03195 7.03982,-12.57424 54.39642,31.4362 -5.89648,10.53179 -2.94037,-1.6998 -5.45057,9.73596 46.4733,26.85675 5.450565,-9.73472 -2.648735,-1.5309 5.89648,-10.53179 62.096029,35.88557 -5.912281,10.56097 -2.940371,-1.6998 -5.450566,9.73596 46.4732959,26.85674 5.450566,-9.73471 -2.64873483,-1.5309 5.91228113,-10.56097 62.0911138,35.88314 -5.911037,10.56098 -3.035115,-1.7533 -5.450628,9.73477 70.128517,40.52817 6.16746,-11.01535 -4.85037,-2.80307 6.00217,-10.7201 -13.09785,-7.5696 25.25536,-45.10998 -38.85755,-8.8539 132.42984,-236.537545 4.69727,2.579483 c 0,0 5.26363,-2.85543 9.84408,-9.347144 l 45.21331,29.478806 -1.53575,2.74351 11.18785,6.14314 1.0644,-1.90029 3.22952,2.10563 0,0.001 6.78464,4.42266 46.01767,30.0037 -1.62937,2.90997 11.18791,6.14435 1.1579,-2.06796 56.39152,36.76649 -1.49693,2.67426 11.18673,6.14435 1.02545,-1.83225 11.18425,7.29134 43.87681,28.6076 -1.1531,2.0595 12.0008,6.59023 -2.15909,3.85528 25.13262,16.38697 -4.39711,7.85388 247.76557,144.56184 1.60623,-2.86989 98.61346,36.7774 3.77385,1.40698 9.86106,3.67792 a 10.679853,10.679853 0 0 0 4.87345,1.17855 10.679853,10.679853 0 0 0 10.6788,-10.68004 10.679853,10.679853 0 0 0 -6.81867,-9.95705 l 1.30732,-3.72893 -16.03213,-5.97909 -3.90144,11.12956 -14.97271,-5.58425 -2.47374,7.05686 -5.34002,-1.99019 0,-7.98023 -16.39307,-6.11402 -2.4738,7.05686 -5.32664,-1.98658 0,-7.98024 -16.99084,-6.33636 -2.47374,7.05687 -5.2003,-1.93918 0,-7.97905 -16.3991,-6.11639 -2.4738,7.05687 -6.16498,-2.29888 0.80673,-6.40311 -2.23685,-1.30495 0.1689,-1.34017 -37.67533,-21.98093 -4.02293,7.18564 -4.97187,-2.90025 1.11784,-8.88177 -15.1464,-8.83809 -4.02293,7.18688 -4.25261,-2.48108 1.11783,-8.88183 -37.0314,-21.60668 -4.02287,7.18564 -5.32913,-3.10921 1.11665,-8.88058 -14.63977,-8.54161 -4.02293,7.18564 -4.5369,-2.64755 1.11783,-8.88058 -37.49069,-21.87518 -4.02287,7.18558 -5.40807,-3.15537 1.11783,-8.88058 -14.49519,-8.45657 -4.02294,7.18446 -8.30589,-4.84671 3.36806,-26.76691 -23.94077,-13.14775 a 11.782602,11.782602 0 0 0 0.0426,-0.95136 11.782602,11.782602 0 0 0 -6.02289,-10.24626 l 1.93675,-3.46037 -3.9415,-2.16513 -5.34973,-2.93794 -76.59725,-42.06518 1.16275,-2.07769 -10.0531,-5.52105 1.79585,-3.20643 -59.17632,-32.49813 1.28549,-2.29517 -10.80035,-5.93051 1.70347,-3.04362 -59.18359,-32.50056 1.03883,-1.85655 -10.45647,-5.742185 1.49209,-2.664536 -76.27651,-41.887796 2.20039,-3.931808 -26.09499,-14.331149 -2.20158,3.931801 -8.25121,-4.532025 -1.49202,2.664536 L 185.7838,24.605892 196.80891,4.9128555 61.545646,-69.368579 l -3.231944,5.771341 -15.265529,-8.383633 2.355917,-4.207612 -11.407824,-6.264639 -1.643935,2.9367 -10.145417,-5.570865 1.643935,-2.936701 -11.411432,-6.267071 -1.643935,2.9367 -20.6006352,-11.313041 1.6438728,-2.93671 -11.7188696,-6.43595 -1.643872,2.9367 -15.298313,-8.40065 1.643873,-2.9367 -11.353143,-6.23548 -10.622871,18.97617 -14.925308,-8.19773 4.987669,-8.90731 -10.506291,-5.77013 2.204065,-3.93666 -11.944875,-6.55989 -2.204065,3.93788 -31.456849,-17.27515 2.20406,-3.93667 -16.76122,-9.20498 -2.204,3.93666 -34.88084,-19.15599 -6.84541,-3.75927 2.20406,-3.93546 -16.87294,-9.26574 10.84159,-19.36497 -3.1153,-1.71075 4.59644,-8.20868 3.1153,1.71075 4.63283,-8.27549 -3.1153,-1.71075 5.97181,-10.66788 -47.89365,-26.30031 -5.97181,10.66666 -3.16756,-1.73991 -4.63408,8.27672 3.16756,1.7399 -4.59519,8.20746 20.32847,11.1636 -13.04566,23.30164 -12.0943,-6.64251 -10.01298,17.88388 -13.03714,-7.16012 -22.43045,40.06527 -29.9685,0 -6.0994,-5.28411 0.73027,-0.84323 1.83952,-2.12264 -18.97257,-16.43071 -1.83952,2.12264 -4.09702,-3.54907 1.83952,-2.12264 -9.65695,-8.36298 -1.83958,2.12264 -13.43808,-11.63746 1.83952,-2.12264 -14.3518,-12.42965 -1.83834,2.12264 -8.53308,-7.38975 1.83958,-2.12263 -9.84775,-8.52823 -1.83834,2.12264 -36.53684,-31.64275 5.91104,-6.82234 -32.69618,-28.31724 z m 144.03573,149.23599 29.0414,0 -15.75393,28.13863 -13.28747,-28.13863 z m 133.01914,0.008 101.06288,55.49966 19.412381,10.660583 5.841798,3.208871 58.68056765,32.224747 -5.55383285,9.919418 164.0397862,90.083976 c 1.30707,1.913667 2.93303,4.292701 2.93303,4.292664 4.81099,6.105664 8.3375,8.042217 8.3375,8.042217 l 56.82282,31.205347 -58.86284,105.138067 -8.85751,-5.11887 -26.69886,47.68832 8.85751,5.11886 -50.117128,89.51533 -27.514108,8.22571 -66.8260896,-38.61941 1.6038725,-2.86503 -9.6618669,-5.58301 -1.60381,2.86503 -93.3196,-53.92985 1.62086,-2.89421 -9.66187,-5.58301 -1.61961,2.89421 -71.041,-41.05552 20.99193,-37.49429 1.95616,1.12997 1.84201,-3.28906 -13.31907,-7.69837 -1.84194,3.29028 7.24877,4.18938 -17.87295,31.92464 -2.96824,-1.71561 0.85413,-1.52606 -139.75638,-80.767207 17.47557,-31.21507 4.99862,2.889315 3.9828,-7.113935 -4.99855,-2.889322 5.94506,-10.619269 7.18203,4.15051 76.78314,-137.144114 -7.18321,-4.15051 10.62897,-18.984678 4.99986,2.88931 25.7511,-45.99578 -4.9998,-2.88931 4.42511,-7.90492 z M -381.11755,3.8715826 -400.24806,38.04158 l 2.49806,9.111429 0,0.0012 1.35479,4.93784 2.14572,7.827161 -2.02665,3.62197 -2.64998,-1.53214 -0.86022,-3.135962 -1.48717,-5.425066 -12.87316,-46.9483548 33.02912,-2.6280876 z M 624.79222,190.22764 l -2.56488,4.58062 -1.45681,2.60257 -0.18588,0.3317 -2.56979,4.59034 c 0,0 -5.38998,11.55368 6.42382,19.03083 l 4.48216,-8.00574 10.79911,6.30109 1.96711,-3.51383 6.64498,3.87713 -0.54676,4.34249 13.67864,7.98024 1.96718,-3.51263 7.12,4.15413 -0.54675,4.3425 14.37488,8.38608 1.96711,-3.51263 6.59758,3.84918 -0.54676,4.3425 14.1732,8.26938 1.96711,-3.51381 6.98029,4.07276 -0.54676,4.34244 13.268,7.74209 1.96711,-3.51381 7.98266,4.65715 -0.54675,4.3425 13.51223,7.88424 1.96711,-3.51381 7.6048,4.43725 -0.54676,4.34125 14.8743,8.68015 1.96711,-3.51388 6.38009,3.72159 -0.54675,4.3425 14.49395,8.45657 1.96711,-3.51388 5.85275,3.41546 4.21248,-7.52343 -1.34141,-0.78246 2.56494,-4.58064 -11.46736,-6.69107 -2.56494,4.58057 -4.36309,-2.54547 0.71322,-5.66077 -19.34681,-11.28751 -2.56369,4.58063 -4.11283,-2.39965 0.71323,-5.66201 -18.4622,-10.77118 -2.56494,4.58064 -4.55264,-2.65602 0.71198,-5.66201 -14.85607,-8.66795 -2.56488,4.58063 -8.06651,-4.70698 0.71198,-5.66201 -14.83778,-8.65701 -2.56494,4.58064 -8.08835,-4.71912 0.71198,-5.66201 -14.89128,-8.68861 -2.56494,4.58064 -8.08717,-4.71911 0.71205,-5.6608 -15.15132,-8.8417 -2.56487,4.58062 -7.23671,-4.22219 0.71204,-5.66078 -19.32491,-11.27659 z m -2029.18592,594.96957 -28.977,30.48602 -1.2684,-1.21383 -19.314,20.32126 1.2685,1.21258 -56.739,59.69513 -1.4046,-1.34384 -19.6371,20.66017 1.4046,1.34384 -24.0125,25.26388 -2.1894,-2.09588 -6.165,6.48697 2.1894,2.0947 -19.1329,20.13046 -2.3559,-2.2539 -29.3221,30.85057 0.9514,0.9113 -37.2999,39.24266 -0.9514,-0.91 -28.7437,30.2431 2.3547,2.2526 -50.1256,52.7379 1.3693,1.311 -30.61,32.2041 17.2278,16.4854 6.555,-6.8965 11.1806,10.6983 19.2411,-20.2434 -5.3388,-5.108 27.4995,-28.9321 5.3388,5.108 0.2199,0.2102 2.4289,-2.5552 4.1857,4.0047 -2.4288,2.5552 10.7505,10.2875 10.3847,-10.9266 3.5212,3.3692 6.6911,-7.0398 1.0121,0.9696 16.2521,-17.0989 -1.0133,-0.9696 8.3423,-8.7761 -3.6973,-3.5382 4.7604,-5.0083 3.6973,3.5382 21.2313,-22.337 3.1882,3.0509 15.3372,-16.1354 -3.1894,-3.0509 21.2592,-22.3673 -3.6973,-3.5382 5.4153,-5.6984 3.6973,3.5381 7.5817,-7.9766 -3.6973,-3.5381 12.9801,-13.6568 3.6973,3.5381 6.2197,-6.5441 -3.6973,-3.53809 12.2996,-12.94122 3.6985,3.53814 6.6207,-6.96567 -3.5212,-3.3693 11.5233,-12.12466 2.3851,2.28301 47.9835,-50.48403 -2.3863,-2.28301 3.7131,-3.90629 -10.3507,-9.90485 -0.02,0.006 -0.7375,-0.7108 -3.7034,3.89659 -2.0898,-1.99872 -3.0995,3.26112 -2.4167,-2.31342 17.4161,-18.32373 5.2124,4.98643 67.5855,-71.10775 -17.4878,-16.73205 0.7302,-0.7679 -6.7943,-6.50159 -0.7303,0.76791 -10.2572,-9.8149 z"
       id="path4158"
       inkscape:connector-curvature="0" />
  </g>
  <g
     inkscape:groupmode="layer"
     id="layer1"
     inkscape:label="Label">
    <g
       id="g4231"
       transform="translate(22.857143,42.857143)">
      <g
         style="font-style:normal;font-variant:normal;font-weight:bold;font-stretch:normal;font-size:125px;line-height:125%;font-family:Overpass;-inkscape-font-specification:'Overpass, Bold';text-align:start;letter-spacing:0px;word-spacing:0px;writing-mode:lr-tb;text-anchor:start;fill:#dddddd;fill-opacity:1;stroke:#222222;stroke-width:0.25;stroke-linecap:butt;stroke-linejoin:miter;stroke-miterlimit:4;stroke-dasharray:none;stroke-opacity:1"
         id="text4217">
        <path
           d="m 400.64111,439.2439 0,-44.98291 q 0,-0.73243 0,-1.70899 0.061,-0.97656 0.061,-1.95312 0.061,-1.0376 0.061,-1.89209 0.061,-0.8545 0.12207,-1.34278 -0.67138,2.0752 -1.34277,3.72315 -0.61035,1.64795 -1.28174,3.17383 l -21.24023,46.50879 -21.36231,-46.50879 q -0.67138,-1.52588 -1.34277,-3.17383 -0.61035,-1.64795 -1.28174,-3.72315 0.061,0.48828 0.061,1.34278 0.061,0.85449 0.061,1.89209 0.061,0.97656 0.061,1.95312 0.061,0.97656 0.061,1.70899 l 0,44.98291 -16.90674,0 0,-87.52442 17.15088,0 21.48438,48.27881 q 0.67138,1.58692 1.2207,3.05176 0.54932,1.40381 1.0376,2.92969 0.48828,-1.52588 1.0376,-2.92969 0.54931,-1.46484 1.2207,-3.05176 l 21.85059,-48.27881 16.11328,0 0,87.52442 -16.84571,0 z"
           style=""
           id="path4239" />
        <path
           d="m 482.12305,375.52319 q -0.79346,-1.95312 -2.13623,-3.66211 -1.34278,-1.70898 -3.23487,-2.92968 -1.83105,-1.28174 -4.27246,-1.95313 -2.38037,-0.73242 -5.31006,-0.73242 -5.49316,0 -8.60595,2.19727 -3.05176,2.19726 -3.05176,6.16455 0,2.62451 1.95312,4.39453 1.95313,1.77002 5.12696,3.23486 3.17382,1.40381 7.20215,2.68555 4.08935,1.28174 8.36181,2.86865 4.27246,1.52588 8.30078,3.66211 4.08936,2.07519 7.26319,5.18799 3.17382,3.05176 5.12695,7.32422 1.95312,4.21142 1.95312,10.13183 0,6.40869 -2.4414,11.35254 -2.44141,4.94385 -6.71387,8.36182 -4.21142,3.41797 -10.00976,5.18799 -5.79834,1.77002 -12.51221,1.77002 -6.16455,0 -11.53565,-1.64795 -5.37109,-1.70899 -9.76562,-4.82178 -4.3335,-3.11279 -7.56836,-7.56836 -3.23486,-4.45557 -5.12695,-10.00977 l 15.38086,-5.7373 q 1.4038,3.05176 3.35693,5.61523 2.01416,2.50244 4.45557,4.3335 2.4414,1.77002 5.24902,2.80762 2.86865,0.97656 6.10351,0.97656 3.17383,0 5.73731,-0.67139 2.62451,-0.67138 4.45557,-2.01416 1.89209,-1.34277 2.86865,-3.2959 1.0376,-2.01416 1.0376,-4.63867 0,-3.17383 -1.95313,-5.31006 -1.95312,-2.19726 -5.12695,-3.78418 -3.17383,-1.64795 -7.26319,-2.92968 -4.02832,-1.34278 -8.30078,-2.80762 -4.21142,-1.46484 -8.30078,-3.41797 -4.02832,-1.95312 -7.20215,-4.82178 -3.17382,-2.86865 -5.12695,-6.89697 -1.95312,-4.02832 -1.95312,-9.76562 0,-4.94385 1.95312,-9.27735 2.01416,-4.39453 5.79834,-7.69043 3.78418,-3.2959 9.27734,-5.18799 5.49317,-1.95312 12.57325,-1.95312 5.92041,0 10.68115,1.52588 4.82178,1.52588 8.48389,4.27246 3.6621,2.68555 6.16455,6.40869 2.50244,3.66211 3.78418,8.05664 l -15.13672,5.00488 z"
           style=""
           id="path4241" />
        <path
           d="m 519.47656,439.2439 0,-87.52442 37.53662,0 q 8.30078,0 13.97705,2.44141 5.67627,2.38037 9.21631,6.34765 3.54004,3.90625 5.06592,8.8501 1.58691,4.94385 1.58691,10.00977 0,3.17383 -0.73242,6.46972 -0.73242,3.23487 -2.2583,6.34766 -1.52588,3.05176 -3.90625,5.73731 -2.38037,2.68554 -5.7373,4.76074 -3.2959,2.01416 -7.6294,3.17383 -4.27246,1.15966 -9.58252,1.15966 l -20.62988,0 0,32.22657 -16.90674,0 z m 38.26905,-48.27881 q 3.23486,0 5.43212,-1.0376 2.19727,-1.0376 3.54004,-2.68555 1.40381,-1.64795 2.01416,-3.72314 0.61036,-2.0752 0.61036,-4.15039 0,-1.89209 -0.54932,-3.90625 -0.48828,-2.0752 -1.83106,-3.78418 -1.28173,-1.70899 -3.54004,-2.80762 -2.2583,-1.09863 -5.67626,-1.09863 l -21.36231,0 0,23.19336 21.36231,0 z"
           style=""
           id="path4243" />
      </g>
      <g
         style="font-style:normal;font-variant:normal;font-weight:normal;font-stretch:normal;font-size:45px;line-height:110.00000238%;font-family:Overpass;-inkscape-font-specification:'Overpass, Normal';text-align:center;letter-spacing:0px;word-spacing:0px;writing-mode:lr-tb;text-anchor:middle;fill:#222222;fill-opacity:1;stroke:none;stroke-width:1px;stroke-linecap:butt;stroke-linejoin:miter;stroke-opacity:1"
         id="text4225">
        <path
           d="m 366.8252,488.26746 0,-17.22657 0.13183,-4.72412 -1.8457,4.85596 -7.60254,17.64404 -7.64649,-17.77588 -1.88964,-4.72412 0.13183,4.72412 0,17.22657 -4.68017,0 0,-31.50879 4.72412,0 8.45947,19.66552 0.85693,2.30713 0.90088,-2.30713 8.41553,-19.66552 4.72412,0 0,31.50879 -4.68017,0 z"
           style=""
           id="path4246" />
        <path
           d="m 379.02002,488.26746 0,-23.00538 4.68018,0 0,23.00538 -4.68018,0 z m 2.3291,-26.58692 q -0.59326,0 -1.1206,-0.21972 -0.50538,-0.21973 -0.90088,-0.59327 -0.37354,-0.3955 -0.59327,-0.90088 -0.21972,-0.52734 -0.21972,-1.1206 0,-0.59326 0.21972,-1.09863 0.21973,-0.52735 0.59327,-0.90088 0.3955,-0.39551 0.90088,-0.61524 0.52734,-0.21972 1.1206,-0.21972 0.59326,0 1.09863,0.21972 0.52735,0.21973 0.90088,0.61524 0.39551,0.37353 0.61524,0.90088 0.21972,0.50537 0.21972,1.09863 0,0.59326 -0.21972,1.1206 -0.21973,0.50538 -0.61524,0.90088 -0.37353,0.37354 -0.90088,0.59327 -0.50537,0.21972 -1.09863,0.21972 z"
           style=""
           id="path4248" />
        <path
           d="m 404.70605,488.26746 0,-13.73291 q 0,-1.4502 -0.35156,-2.46094 -0.35156,-1.03272 -0.96679,-1.66992 -0.61524,-0.65918 -1.4502,-0.94483 -0.83496,-0.30761 -1.82373,-0.30761 -1.05469,0 -1.95557,0.28564 -0.90088,0.26367 -1.56006,0.87891 -0.65918,0.61523 -1.05468,1.64795 -0.37354,1.01074 -0.37354,2.48291 l 0,13.8208 -4.68017,0 0,-23.00538 4.68017,0 0,2.21924 q 1.12061,-1.42822 2.5708,-2.0874 1.4502,-0.65918 3.36182,-0.65918 1.80176,0 3.31787,0.52734 1.51611,0.50538 2.61475,1.66993 1.1206,1.16455 1.73584,3.03222 0.61523,1.86768 0.61523,4.57032 l 0,13.73291 -4.68018,0 z"
           style=""
           id="path4250" />
        <path
           d="m 430.10645,488.26746 0,-13.73291 q 0,-1.4502 -0.35157,-2.46094 -0.35156,-1.03272 -0.96679,-1.66992 -0.61524,-0.65918 -1.4502,-0.94483 -0.83496,-0.30761 -1.82373,-0.30761 -1.05469,0 -1.95557,0.28564 -0.90088,0.26367 -1.56005,0.87891 -0.65918,0.61523 -1.05469,1.64795 -0.37354,1.01074 -0.37354,2.48291 l 0,13.8208 -4.68017,0 0,-23.00538 4.68017,0 0,2.21924 q 1.12061,-1.42822 2.5708,-2.0874 1.4502,-0.65918 3.36182,-0.65918 1.80176,0 3.31787,0.52734 1.51611,0.50538 2.61475,1.66993 1.1206,1.16455 1.73584,3.03222 0.61523,1.86768 0.61523,4.57032 l 0,13.73291 -4.68017,0 z"
           style=""
           id="path4252" />
        <path
           d="m 450.60693,488.81677 q -2.39502,0 -4.32861,-0.81299 -1.93359,-0.83496 -3.2959,-2.37304 -1.3623,-1.56006 -2.10937,-3.80127 -0.7251,-2.24121 -0.7251,-5.07569 0,-2.83447 0.74707,-5.05371 0.74707,-2.24121 2.10937,-3.77929 1.38428,-1.56006 3.2959,-2.37305 1.9336,-0.81299 4.30664,-0.81299 2.04346,0 3.82325,0.65918 1.80175,0.63721 3.14209,1.97754 1.3623,1.31836 2.13134,3.33984 0.79102,2.02149 0.79102,4.76807 0,0.74707 -0.0439,1.58203 -0.022,0.83496 -0.13183,1.4502 l -15.49073,0 q 0.022,1.42822 0.50538,2.5708 0.50537,1.1206 1.31836,1.93359 0.81298,0.79102 1.8457,1.23047 1.03271,0.41748 2.15332,0.41748 1.42822,0 2.63672,-0.59326 1.23047,-0.59326 2.13135,-1.73584 l 3.05419,3.14209 q -1.25244,1.49414 -3.208,2.41699 -1.95557,0.92285 -4.65821,0.92285 z m 0,-19.95117 q -1.09863,0 -2.10937,0.32959 -1.01074,0.30762 -1.80176,1.01074 -0.76904,0.68115 -1.27441,1.80176 -0.50537,1.12061 -0.59327,2.72461 l 10.98633,0 q -0.0439,-1.604 -0.50537,-2.72461 -0.46142,-1.12061 -1.20849,-1.80176 -0.74707,-0.70312 -1.66993,-1.01074 -0.90087,-0.32959 -1.82373,-0.32959 z"
           style=""
           id="path4254" />
        <path
           d="m 483.52197,488.26746 -4.48242,0 0,-1.97754 q -0.43945,0.46142 -1.05469,0.92285 -0.61523,0.43945 -1.40625,0.81299 -0.76904,0.35156 -1.73584,0.57129 -0.96679,0.21972 -2.10937,0.21972 -1.75781,0 -3.25195,-0.4834 -1.49415,-0.48339 -2.59278,-1.45019 -1.09863,-0.98877 -1.73584,-2.41699 -0.61523,-1.4502 -0.61523,-3.36182 0,-1.97754 0.74707,-3.40576 0.74707,-1.4502 1.97754,-2.37305 1.23047,-0.94482 2.8125,-1.38428 1.604,-0.43945 3.2959,-0.43945 1.58203,0 3.03222,0.35156 1.47217,0.32959 2.63672,1.01075 l 0,-1.27442 q 0,-1.29639 -0.30762,-2.19726 -0.28564,-0.90088 -0.90088,-1.4502 -0.59326,-0.57129 -1.51611,-0.81299 -0.92285,-0.26367 -2.19726,-0.26367 -2.15332,0 -3.73536,0.57129 -1.56005,0.57129 -2.83447,1.51611 l -1.38428,-3.84521 q 0.70313,-0.4834 1.60401,-0.90088 0.90088,-0.43945 1.97754,-0.76904 1.07666,-0.32959 2.3291,-0.50537 1.25244,-0.19776 2.68066,-0.19776 0.9668,0 1.99951,0.10986 1.03272,0.10987 1.99952,0.43946 0.98877,0.30761 1.8457,0.90088 0.87891,0.59326 1.51611,1.56006 0.65918,0.94482 1.03272,2.3291 0.37353,1.38427 0.37353,3.2959 l 0,14.89746 z m -9.93164,-3.60352 q 1.77979,0 3.14209,-0.7251 1.38428,-0.72509 2.30713,-1.73584 l 0,-3.51562 q -0.9668,-0.50537 -2.26318,-0.81299 -1.29639,-0.30762 -2.65869,-0.30762 -1.05469,0 -1.97754,0.19776 -0.92285,0.19775 -1.62598,0.6372 -0.68115,0.41748 -1.07666,1.09864 -0.39551,0.65918 -0.39551,1.604 0,1.64795 1.14258,2.61475 1.16455,0.94482 3.40576,0.94482 z"
           style=""
           id="path4256" />
        <path
           d="m 500.08936,488.81677 q -1.01075,0 -1.84571,-0.19775 -0.81299,-0.19776 -1.49414,-0.54932 -0.68115,-0.35156 -1.23047,-0.79101 -0.52734,-0.46143 -0.94482,-0.98877 l 0,8.85498 -4.68018,2.17529 0,-32.05811 4.68018,0 0,1.84571 q 0.90088,-1.01074 2.21924,-1.6919 1.31836,-0.68115 3.2959,-0.68115 2.17529,0 3.9331,0.83496 1.75781,0.81299 2.98828,2.37305 1.23047,1.53808 1.88965,3.7793 0.65918,2.24121 0.65918,5.07568 0,2.83447 -0.70312,5.07568 -0.68116,2.21924 -1.9336,3.7793 -1.23047,1.53809 -2.98828,2.35107 -1.73584,0.81299 -3.84521,0.81299 z m -0.65918,-4.4165 q 2.65869,0 4.04296,-1.95557 1.40625,-1.95556 1.40625,-5.64697 0,-1.66992 -0.37353,-3.07617 -0.35156,-1.40625 -1.05469,-2.41699 -0.70312,-1.01075 -1.71387,-1.58204 -1.01074,-0.57128 -2.30712,-0.57128 -1.64795,0 -2.87842,0.68115 -1.2085,0.65918 -1.97754,1.91162 l 0,9.99756 q 0.39551,0.52734 0.8789,1.01074 0.50538,0.4834 1.09864,0.85693 0.61523,0.35157 1.31836,0.57129 0.72509,0.21973 1.56006,0.21973 z"
           style=""
           id="path4258" />
        <path
           d="m 524.56689,488.81677 q -2.41699,0 -4.37255,-0.81299 -1.9336,-0.81298 -3.2959,-2.35107 -1.36231,-1.56006 -2.10938,-3.7793 -0.7251,-2.24121 -0.7251,-5.07568 0,-2.83447 0.7251,-5.07568 0.74707,-2.24122 2.10938,-3.7793 1.3623,-1.56006 3.2959,-2.37305 1.95556,-0.83496 4.37255,-0.83496 2.39502,0 4.35059,0.83496 1.95557,0.81299 3.31787,2.37305 1.36231,1.53808 2.10938,3.7793 0.74707,2.24121 0.74707,5.07568 0,2.83447 -0.74707,5.07568 -0.74707,2.21924 -2.10938,3.7793 -1.3623,1.53809 -3.31787,2.35107 -1.95557,0.81299 -4.35059,0.81299 z m 0,-4.4165 q 1.34034,0 2.417,-0.52735 1.09863,-0.52734 1.8457,-1.49414 0.76904,-0.98877 1.16455,-2.39502 0.41748,-1.40625 0.41748,-3.18603 0,-1.77979 -0.41748,-3.18604 -0.39551,-1.42822 -1.16455,-2.41699 -0.74707,-0.98877 -1.8457,-1.51611 -1.07666,-0.52734 -2.417,-0.52734 -1.34033,0 -2.41699,0.52734 -1.07666,0.52734 -1.8457,1.51611 -0.74707,0.98877 -1.16455,2.41699 -0.39551,1.40625 -0.39551,3.18604 0,1.77978 0.39551,3.18603 0.41748,1.40625 1.16455,2.39502 0.76904,0.9668 1.8457,1.49414 1.07666,0.52735 2.41699,0.52735 z"
           style=""
           id="path4260" />
        <path
           d="m 540.91455,488.26746 0,-30.27832 4.68018,-2.21924 0,32.49756 -4.68018,0 z"
           style=""
           id="path4262" />
        <path
           d="m 552.604,488.26746 0,-23.00538 4.68018,0 0,23.00538 -4.68018,0 z m 2.32911,-26.58692 q -0.59327,0 -1.12061,-0.21972 -0.50537,-0.21973 -0.90088,-0.59327 -0.37353,-0.3955 -0.59326,-0.90088 -0.21973,-0.52734 -0.21973,-1.1206 0,-0.59326 0.21973,-1.09863 0.21973,-0.52735 0.59326,-0.90088 0.39551,-0.39551 0.90088,-0.61524 0.52734,-0.21972 1.12061,-0.21972 0.59326,0 1.09863,0.21972 0.52734,0.21973 0.90088,0.61524 0.3955,0.37353 0.61523,0.90088 0.21973,0.50537 0.21973,1.09863 0,0.59326 -0.21973,1.1206 -0.21973,0.50538 -0.61523,0.90088 -0.37354,0.37354 -0.90088,0.59327 -0.50537,0.21972 -1.09863,0.21972 z"
           style=""
           id="path4264" />
        <path
           d="m 571.1709,488.81677 q -1.36231,0 -2.65869,-0.26367 -1.29639,-0.26367 -2.43897,-0.74707 -1.1206,-0.4834 -2.04345,-1.16455 -0.92286,-0.70313 -1.53809,-1.56006 l 3.31787,-2.83447 q 0.35156,0.32959 0.85693,0.74707 0.50537,0.39551 1.16455,0.74707 0.65918,0.35156 1.47217,0.59326 0.81299,0.2417 1.77979,0.2417 0.8789,0 1.62597,-0.13184 0.74707,-0.13183 1.27442,-0.41748 0.54931,-0.28564 0.83496,-0.74707 0.30762,-0.4834 0.30762,-1.18652 0,-0.81299 -0.57129,-1.38428 -0.54932,-0.59326 -1.4502,-1.05469 -0.90088,-0.48339 -2.04345,-0.90087 -1.14258,-0.43946 -2.30713,-0.92286 -1.07666,-0.46142 -2.10938,-1.01074 -1.03271,-0.54931 -1.8457,-1.31836 -0.79102,-0.76904 -1.29639,-1.82373 -0.4834,-1.07666 -0.4834,-2.59277 0,-1.53809 0.61524,-2.72461 0.6372,-1.18652 1.71386,-1.97754 1.09864,-0.81299 2.54883,-1.23047 1.47217,-0.41748 3.14209,-0.41748 1.47217,0 2.70264,0.28565 1.25244,0.28564 2.24121,0.76904 1.01074,0.4834 1.77979,1.1206 0.76904,0.61524 1.34033,1.29639 l -3.38379,2.68066 q -0.30762,-0.30761 -0.74707,-0.6372 -0.41748,-0.35156 -0.98877,-0.63721 -0.57129,-0.28564 -1.29639,-0.46142 -0.7251,-0.19776 -1.64795,-0.19776 -1.49414,0 -2.37304,0.54932 -0.85694,0.54931 -0.85694,1.58203 0,0.65918 0.46143,1.16455 0.46142,0.4834 1.25244,0.90088 0.79101,0.41748 1.80176,0.81299 1.03271,0.37353 2.15332,0.81299 1.18652,0.46142 2.3291,1.03271 1.14258,0.57129 2.02148,1.40625 0.90088,0.83496 1.42823,2.02148 0.54931,1.18653 0.54931,2.85645 0,1.64795 -0.61523,2.92236 -0.61524,1.25244 -1.75781,2.10938 -1.12061,0.83496 -2.72461,1.25244 -1.58204,0.43945 -3.5376,0.43945 z"
           style=""
           id="path4266" />
        <path
           d="m 402.09131,513.42175 q -0.28565,-0.68115 -0.79102,-1.25244 -0.50537,-0.59326 -1.23047,-1.01074 -0.72509,-0.43945 -1.66992,-0.68115 -0.92285,-0.2417 -2.06543,-0.2417 -2.26318,0 -3.5376,0.98877 -1.27441,0.98877 -1.27441,2.79053 0,1.1206 0.70313,1.91162 0.70312,0.76904 1.8457,1.3623 1.14258,0.59326 2.59277,1.09863 1.47217,0.4834 2.98828,1.07666 1.53809,0.57129 2.98828,1.34034 1.47217,0.74707 2.61475,1.8457 1.14258,1.07666 1.8457,2.61475 0.70313,1.51611 0.70313,3.64746 0,2.26318 -0.83496,4.02099 -0.81299,1.73584 -2.26319,2.94434 -1.45019,1.18652 -3.42773,1.82373 -1.95557,0.61523 -4.21875,0.61523 -2.10937,0 -3.95508,-0.54931 -1.82373,-0.52735 -3.31787,-1.51612 -1.47217,-1.01074 -2.54883,-2.41699 -1.07666,-1.42822 -1.66992,-3.18603 l 4.4165,-1.60401 q 0.4834,1.05469 1.18653,1.9336 0.7251,0.8789 1.64795,1.51611 0.92285,0.61523 2.02148,0.9668 1.12061,0.35156 2.39502,0.35156 1.27442,0 2.3291,-0.30762 1.05469,-0.30762 1.80176,-0.92285 0.74707,-0.61523 1.16455,-1.51611 0.41748,-0.92285 0.41748,-2.10938 0,-1.40625 -0.70312,-2.35107 -0.70313,-0.9668 -1.84571,-1.66992 -1.14257,-0.70313 -2.61474,-1.23047 -1.4502,-0.52735 -2.98828,-1.07666 -1.51612,-0.54932 -2.98828,-1.23047 -1.4502,-0.68115 -2.59278,-1.66992 -1.14258,-0.98877 -1.8457,-2.37305 -0.70313,-1.38428 -0.70313,-3.38379 0,-1.66992 0.65918,-3.16406 0.68116,-1.49414 1.95557,-2.61475 1.27441,-1.14258 3.14209,-1.80176 1.86768,-0.65918 4.2627,-0.65918 1.99951,0 3.62548,0.4834 1.62598,0.46143 2.83448,1.29639 1.23046,0.83496 2.04345,1.97754 0.81299,1.14258 1.23047,2.48291 l -4.32861,1.45019 z"
           style=""
           id="path4268" />
        <path
           d="m 420.52637,538.31677 q -1.36231,0 -2.35108,-0.41748 -0.96679,-0.3955 -1.604,-1.14258 -0.61524,-0.74707 -0.90088,-1.80175 -0.28564,-1.07666 -0.28564,-2.37305 l 0,-13.75488 -3.55957,0 0,-4.06494 3.55957,0 0,-7.22901 4.68017,-2.26318 0,9.49219 5.44922,0 0,4.06494 -5.44922,0 0,12.54638 q 0,0.57129 0.0879,1.05469 0.10987,0.4834 0.35156,0.83496 0.26368,0.35157 0.70313,0.54932 0.43945,0.17578 1.1206,0.17578 1.66993,0 3.40577,-1.07666 l -0.57129,4.35059 q -0.9668,0.48339 -2.10938,0.76904 -1.14258,0.28564 -2.52685,0.28564 z"
           style=""
           id="path4270" />
        <path
           d="m 432.52344,538.31677 q -0.7251,0 -1.34033,-0.26367 -0.61524,-0.26367 -1.07666,-0.70312 -0.43946,-0.46143 -0.70313,-1.05469 -0.2417,-0.59326 -0.2417,-1.27441 0,-0.68116 0.2417,-1.27442 0.26367,-0.61523 0.70313,-1.05469 0.46142,-0.46142 1.07666,-0.72509 0.61523,-0.26368 1.34033,-0.26368 0.70312,0 1.31836,0.26368 0.6372,0.26367 1.09863,0.72509 0.46143,0.43946 0.7251,1.05469 0.28564,0.59326 0.28564,1.27442 0,0.68115 -0.28564,1.27441 -0.26367,0.59326 -0.7251,1.05469 -0.46143,0.43945 -1.09863,0.70312 -0.61524,0.26367 -1.31836,0.26367 z"
           style=""
           id="path4272" />
        <path
           d="m 451.96924,537.76746 0,-31.50879 12.65625,0 q 2.90039,0 4.87793,0.85693 1.99951,0.83496 3.20801,2.19727 1.23046,1.3623 1.75781,3.09814 0.54931,1.71387 0.54931,3.49365 0,1.09864 -0.26367,2.24122 -0.2417,1.14257 -0.76904,2.21923 -0.52734,1.05469 -1.3623,1.99952 -0.83497,0.94482 -1.99952,1.64794 -1.14257,0.70313 -2.63672,1.12061 -1.49414,0.39551 -3.36181,0.39551 l -7.97608,0 0,12.23877 -4.68017,0 z m 12.91992,-16.74317 q 1.47217,0 2.46094,-0.46142 1.01074,-0.46143 1.62597,-1.18653 0.63721,-0.74707 0.90088,-1.64795 0.28565,-0.92285 0.28565,-1.82373 0,-0.83496 -0.2417,-1.73584 -0.2417,-0.90087 -0.83496,-1.64794 -0.59326,-0.76905 -1.62598,-1.25245 -1.01074,-0.50537 -2.5708,-0.50537 l -8.23975,0 0,10.26123 8.23975,0 z"
           style=""
           id="path4274" />
        <path
           d="m 497.84814,537.76746 -4.48242,0 0,-1.97754 q -0.43945,0.46142 -1.05468,0.92285 -0.61524,0.43945 -1.40625,0.81299 -0.76905,0.35156 -1.73584,0.57129 -0.9668,0.21972 -2.10938,0.21972 -1.75781,0 -3.25195,-0.48339 -1.49414,-0.4834 -2.59278,-1.4502 -1.09863,-0.98877 -1.73584,-2.41699 -0.61523,-1.4502 -0.61523,-3.36182 0,-1.97754 0.74707,-3.40576 0.74707,-1.4502 1.97754,-2.37305 1.23047,-0.94482 2.8125,-1.38427 1.604,-0.43946 3.2959,-0.43946 1.58203,0 3.03222,0.35156 1.47217,0.32959 2.63672,1.01075 l 0,-1.27442 q 0,-1.29638 -0.30761,-2.19726 -0.28565,-0.90088 -0.90088,-1.4502 -0.59327,-0.57129 -1.51612,-0.81299 -0.92285,-0.26367 -2.19726,-0.26367 -2.15332,0 -3.73535,0.57129 -1.56006,0.57129 -2.83448,1.51611 l -1.38427,-3.84521 q 0.70312,-0.4834 1.604,-0.90088 0.90088,-0.43945 1.97754,-0.76904 1.07666,-0.32959 2.3291,-0.50537 1.25244,-0.19776 2.68066,-0.19776 0.9668,0 1.99952,0.10987 1.03271,0.10986 1.99951,0.43945 0.98877,0.30762 1.8457,0.90088 0.87891,0.59326 1.51611,1.56006 0.65918,0.94482 1.03272,2.3291 0.37353,1.38428 0.37353,3.2959 l 0,14.89746 z m -9.93164,-3.60352 q 1.77979,0 3.14209,-0.7251 1.38428,-0.72509 2.30713,-1.73584 l 0,-3.51562 q -0.96679,-0.50537 -2.26318,-0.81299 -1.29639,-0.30762 -2.65869,-0.30762 -1.05469,0 -1.97754,0.19776 -0.92285,0.19775 -1.62598,0.6372 -0.68115,0.41748 -1.07666,1.09864 -0.39551,0.65918 -0.39551,1.604 0,1.64795 1.14258,2.61475 1.16455,0.94482 3.40576,0.94482 z"
           style=""
           id="path4276" />
        <path
           d="m 518.2168,537.76746 0,-2.19727 q -1.12061,1.42822 -2.59278,2.0874 -1.45019,0.65918 -3.36181,0.65918 -1.80176,0 -3.31787,-0.52734 -1.51612,-0.50537 -2.63672,-1.66992 -1.09864,-1.18653 -1.71387,-3.0542 -0.61523,-1.86768 -0.61523,-4.57031 l 0,-13.73291 4.68017,0 0,13.73291 q 0,1.45019 0.35156,2.48291 0.35157,1.01074 0.9668,1.66992 0.61524,0.65918 1.4502,0.9668 0.83496,0.28564 1.82373,0.28564 1.05468,0 1.95556,-0.26367 0.90088,-0.28565 1.56006,-0.90088 0.68115,-0.63721 1.05469,-1.64795 0.39551,-1.01074 0.39551,-2.50488 l 0,-13.8208 4.68017,0 0,23.00537 -4.68017,0 z"
           style=""
           id="path4278" />
        <path
           d="m 529.84033,537.76746 0,-30.27832 4.68018,-2.21924 0,32.49756 -4.68018,0 z"
           style=""
           id="path4280" />
      </g>
    </g>
  </g>
</svg>
