<?xml version="1.0" encoding="UTF-8" standalone="no"?>
<!-- Created with Inkscape (http://www.inkscape.org/) -->

<svg
   xmlns:dc="http://purl.org/dc/elements/1.1/"
   xmlns:cc="http://creativecommons.org/ns#"
   xmlns:rdf="http://www.w3.org/1999/02/22-rdf-syntax-ns#"
   xmlns:svg="http://www.w3.org/2000/svg"
   xmlns="http://www.w3.org/2000/svg"
   xmlns:sodipodi="http://sodipodi.sourceforge.net/DTD/sodipodi-0.dtd"
   xmlns:inkscape="http://www.inkscape.org/namespaces/inkscape"
   width="1377.8336"
   height="1161.4745"
   viewBox="0 0 1377.8336 1161.4745"
   id="svg2"
   version="1.1"
   inkscape:version="0.92.4 (5da689c313, 2019-01-14)"
   sodipodi:docname="MUC.svg"
   inkscape:export-filename="C:\Users\paulb\Dropbox\Projects\Terminal Silhouettes\Silhouettes\png\MUC.png"
   inkscape:export-xdpi="90"
   inkscape:export-ydpi="90">
  <title
     id="title4148">MUC (Munich)</title>
  <defs
     id="defs4" />
  <sodipodi:namedview
     id="base"
     pagecolor="#ffffff"
     bordercolor="#666666"
     borderopacity="1.0"
     inkscape:pageopacity="1"
     inkscape:pageshadow="2"
     inkscape:zoom="1"
     inkscape:cx="507.21223"
     inkscape:cy="667.14662"
     inkscape:document-units="px"
     inkscape:current-layer="layer2"
     showgrid="false"
     units="px"
     fit-margin-top="25"
     fit-margin-left="25"
     fit-margin-right="25"
     fit-margin-bottom="25"
     showguides="false"
     inkscape:guide-bbox="true"
     inkscape:window-width="1920"
     inkscape:window-height="1137"
     inkscape:window-x="1912"
     inkscape:window-y="-8"
     inkscape:window-maximized="1" />
  <metadata
     id="metadata7">
    <rdf:RDF>
      <cc:Work
         rdf:about="">
        <dc:format>image/svg+xml</dc:format>
        <dc:type
           rdf:resource="http://purl.org/dc/dcmitype/StillImage" />
        <dc:title>MUC (Munich)</dc:title>
        <cc:license
           rdf:resource="https://opensource.org/licenses/MIT" />
      </cc:Work>
    </rdf:RDF>
  </metadata>
  <g
     inkscape:groupmode="layer"
     id="layer2"
     inkscape:label="Terminals"
     transform="translate(1044.2087,38.089368)">
    <path
       style="fill:#dddddd;fill-opacity:1;fill-rule:evenodd;stroke:#222222;stroke-width:1.5;stroke-linecap:butt;stroke-linejoin:miter;stroke-miterlimit:4;stroke-dasharray:none;stroke-opacity:1"
       d="m -294.72897,226.13051 17.69234,-2.12708 0.13403,1.16074 6.89271,-0.7559 -1.44855,-12.55581 -6.90121,0.70116 0.1349,1.17018 -17.71968,1.88361 -3.7408,-32.38372 24.6266,-2.58194 -1.07863,-9.35292 -6.93141,0.51431 0.16418,1.42309 -17.7263,1.8081 -1.74299,-15.09434 24.64167,-2.47152 -1.17584,-10.19659 -6.92673,0.59924 0.17839,1.54672 -17.72065,1.84397 -3.72567,-32.2601 17.65643,-2.37904 0.12838,1.10506 6.90213,-0.86159 -1.43816,-12.47182 -6.93711,0.58981 0.14819,1.28341 -17.69707,2.02233 -4.26644,-36.944571 24.6351,-2.642336 -1.06355,-9.219864 -6.92668,0.759674 0.0868,0.748343 -17.69992,1.977035 -2.04212,-17.681944 24.66336,-2.434728 -1.14564,-9.933294 -6.93992,0.695499 0.1293,1.115446 -17.69422,2.011949 -3.95783,-34.2720402 17.67344,-2.17143359 0.083,0.72192359 6.92953,-0.83988471 -1.44386,-12.51901209 1.7e-4,0 -6.95025,0.686063 0.20757,1.6797742 -27.70864,3.2547925 2.58476,22.1946753 -21.21135,2.333749 34.28052,297.581764 -18.18681,2.59798 -9.69171,-84.20275 -12.9248,1.32871 19.05125,165.72258 -138.39424,16.6741 19.56839,170.80059 138.57731,-15.66432 18.91156,164.51088 12.9852,-1.44197 -9.62567,-83.62049 18.24349,-2.3743 34.17012,296.62579 21.20473,-2.65086 2.89902,25.15224 34.71369,-4.15416 -1.19473,-10.36172 -6.7351,0.81443 0.11514,0.99465 -17.73954,2.1261 -4.52122,-39.14054 17.75365,-1.98269 0.0934,0.80685 6.74457,-0.8012 -1.46463,-12.69548 -6.77288,0.57661 0.11045,0.95407 -17.74804,2.02424 -4.53064,-39.22268 17.74326,-2.05158 0.168,1.45801 6.75964,-0.7521 -1.57218,-13.6354 -6.76153,0.76626 0.1793,1.54953 -17.71968,2.24882 -3.72287,-32.24025 24.51991,-2.70841 -1.10409,-9.56807 -6.77574,0.71152 0.0689,0.59642 -17.70837,2.31676 -1.4712,-12.73603 24.45386,-3.30483 -1.17396,-10.17865 -6.79361,0.59357 0.15287,1.32495 -17.72538,2.1573 -3.69639,-32.00155 17.72344,-2.15726 0.14157,1.2202 6.78608,-0.71345 -1.52126,-13.18619 -6.78608,0.74079 0.13969,1.20604 -17.7263,2.12895 -3.77762,-32.70269 24.51431,-2.89902 -1.06264,-9.21038 -6.7823,0.84743 0.0982,0.84835 -17.73292,2.05067 -2.45644,-21.26895 24.52561,-2.83012 -1.16076,-10.05882 -6.80309,0.71533 0.0991,0.86159 -17.72156,2.12899 -3.98992,-34.54665 17.70552,-2.24694 0.1104,0.9531 6.79458,-0.84835 -1.43535,-12.44351 -6.79738,0.84932 0.0962,0.83419 -17.75462,1.81189 -4.23812,-36.69164 17.71026,-2.18277 0.12552,1.08621 6.77666,-1.08809 -1.47594,-12.80116 -6.80782,0.85024 0.12456,1.07297 -17.74326,1.88929 -3.1623,-27.37554 37.89768,-4.47971 -4.10694,-32.73477 -37.60329,4.20416 -0.58415,-5.06198 24.51619,-3.11229 -1.05882,-9.18308 -6.83801,0.7191 0.15476,1.33911 -18.64447,1.9204 c 0,0 2.73305,-11.44542 1.53725,-30.49256 l 13.65806,-1.61181 0.12833,1.10506 6.82763,-0.85309 -1.48445,-12.53319 -6.81815,0.96446 0.0906,0.788 -13.68357,1.63447 c 0,0 -2.0498,-13.40976 -9.73698,-31.68822 l 19.67879,-2.32994 0.12644,1.09558 6.86159,-0.63696 -1.51082,-13.10033 -6.86068,0.67566 0.14911,1.28436 -17.72722,1.94027 -3.69364,-31.97793 24.5577,-2.90941 -1.06162,-9.201 -6.86822,0.67759 0.11988,1.03143 -17.72253,1.95911 -2.59516,-22.47026 24.60771,-2.51398 -1.17962,-10.22489 -6.8814,0.62284 0.18496,1.60144 -17.7537,1.67128 -3.90024,-33.77094 17.74611,-1.71657 0.0802,0.69455 6.87387,-0.74457 -1.50991,-13.09089 -6.8814,0.69928 0.11514,1.00125 -17.74804,1.69676 -5.05063,-43.73066 24.57939,-2.88203 -1.06544,-9.23968 -6.87666,0.83988 0.0981,0.84272 -17.72345,1.88361 z m -637.16334,-202.643576 -16.66936,1.691095 3.13777,27.299105 -18.03017,2.430949 -0.29254,-1.635419 -5.71216,0.895565 0.84554,6.28121 5.67725,-0.845548 -0.15571,-1.293798 18.05942,-2.421513 1.44385,12.566193 -21.96253,2.715 -0.13495,-1.17018 -4.25604,0.475623 1.47121,12.749272 4.79867,4.21358 7.39854,-0.636992 -0.55111,-4.605214 -7.24284,0.893676 -0.3435,-2.048751 21.94271,-2.841456 4.38062,38.113809 -21.97763,2.36206 -0.11702,-1.01352 -4.25605,0.49826 1.38251,11.97922 4.89776,5.05441 7.36363,-0.87291 -0.51054,-4.4127 -7.37495,0.77194 -0.15099,-1.31079 21.90874,-2.91129 6.48788,56.45068 -21.92196,2.53947 -0.14438,-1.25511 -4.26643,0.42655 1.44574,12.5275 4.8534,4.65335 7.3825,-0.84838 -0.48789,-4.2183 -7.3891,0.78421 -0.21611,-1.87418 21.92101,-2.49323 4.25416,37.01252 -21.90874,2.43472 -0.0981,-0.84837 -4.26643,0.44259 1.49764,12.97764 4.86661,4.74772 7.38722,-0.8984 -0.5162,-4.46083 -7.4042,0.73891 -0.20101,-1.74394 21.89742,-2.48097 3.4624,30.12641 -14.74612,1.66467 -0.24159,-1.44951 -5.61685,0.60396 0.60396,6.88518 5.73765,-0.54357 -0.12079,-1.08713 14.90749,-1.50897 0.22177,1.92797 -21.86439,2.59704 -0.0972,-0.84084 -4.25982,0.51903 0.14344,1.24002 -12.00187,1.38062 1.81189,17.93768 -62.57052,7.42874 3.1406,27.78228 73.68343,-8.33469 -0.30198,-2.05347 27.44821,-3.00188 2.57911,22.43437 -21.85023,2.41397 -0.15099,-1.31079 -4.26926,0.45958 1.53066,13.26452 4.75055,3.70213 7.42496,-0.79554 -0.49921,-4.30986 -7.41647,0.85121 -0.1944,-1.6826 21.85117,-2.34979 4.2938,37.35978 -21.82475,2.41117 -0.12363,-1.07298 -4.28813,0.31329 1.48348,12.8559 4.87228,4.73453 7.45233,-0.64175 -0.57282,-4.95626 -7.44289,0.71911 -0.18969,-1.64109 21.82759,-2.33279 3.34727,29.75177 -14.79331,1.71844 -0.12079,-1.02674 -5.55645,0.48317 0.72475,6.70399 5.49606,-0.48317 0,-0.78515 14.88673,-1.69487 0.26518,2.30637 -21.80682,2.34226 -0.10947,-0.94653 -4.28059,0.40108 1.52407,13.20412 4.83075,4.35795 7.43724,-0.87478 -0.51243,-4.42593 -7.45139,0.74079 -0.19534,-1.69578 21.79361,-2.40169 3.45485,30.06221 -14.94335,1.63731 -0.0915,-0.79553 -5.30449,0.57849 0.68418,5.9443 5.30921,-0.56714 -0.0764,-0.66059 14.96317,-1.43821 0.25291,2.20166 -21.7587,2.54041 -0.11796,-1.02108 -4.28247,0.39823 1.44102,12.49163 4.82604,4.29476 7.47215,-0.65774 -0.40863,-3.53415 -7.46176,0.74645 -0.20573,-1.78357 21.76153,-2.46489 6.43692,56.00805 -21.73605,2.42247 -0.1189,-1.02766 -4.28342,0.41896 1.44951,12.56527 4.83831,4.37969 7.45327,-0.95218 -0.46618,-4.02959 -7.46366,0.8484 -0.18779,-1.62128 21.72472,-2.47059 4.25982,37.06064 -21.71528,2.38473 -0.10758,-0.93711 -4.28624,0.41901 1.62314,14.0629 4.7581,3.66905 7.45232,-1.05694 -0.55394,-4.78826 -7.45422,1.02766 -0.1793,-1.55615 21.66904,-2.73005 4.27209,37.17481 -21.67659,2.49417 -0.11136,-0.96634 -4.28435,0.44823 1.43724,12.45299 4.82887,4.26547 7.50045,-0.72756 -0.47656,-4.12395 -7.50706,0.66247 -0.21799,-1.88364 21.70301,-2.22142 4.24189,36.91153 -21.6379,2.61217 -0.12551,-1.08622 -4.29191,0.40016 0.75401,6.52748 -8.06195,0.8701 3.26139,25.97038 -66.19429,7.48914 3.50299,27.78227 73.73532,-8.02042 -3.21704,-27.86625 -2.6329,0.25289 -2.41585,-20.05156 2.73954,-0.21042 4.84113,4.34945 7.51085,-0.72852 -0.50488,-4.36743 -7.50707,0.75781 -0.16514,-1.43255 21.62752,-2.64985 7.5986,66.11973 -21.63035,2.31579 -0.15005,-1.3004 -4.28624,0.48505 1.49103,12.91257 4.90436,4.87413 7.51651,-0.8342 -0.5615,-4.85339 -7.51839,0.80496 -0.18968,-1.64017 21.61147,-2.43754 3.10475,27.01601 -21.61903,2.24882 -0.14533,-1.26455 -4.29473,0.41992 1.5099,13.08149 4.80905,4.03051 7.51367,-0.92957 -0.46429,-4.00973 -7.50518,0.99368 -0.19817,-1.71467 21.57089,-2.614 4.27775,37.22013 -21.55296,2.59231 -0.13117,-1.13149 -4.28909,0.48505 1.45707,12.62094 4.85057,4.37776 7.53537,-0.83705 -0.50204,-4.33717 -7.52783,0.89082 -0.20383,-1.76942 21.51522,-2.87356 3.49354,30.39821 -14.61683,1.92606 -0.15666,-1.35795 -5.51776,0.69833 0.73608,6.40012 5.53003,-0.62474 -0.0868,-0.7493 14.62061,-1.8704 0.30199,2.63294 -21.50107,2.82538 -0.14911,-1.29378 -4.28624,0.52467 1.44007,12.48125 4.89682,4.75057 7.54104,-0.87386 -0.50582,-4.37592 -7.53444,0.93145 -0.19062,-1.65051 21.4888,-2.8896 6.4992,56.55259 -21.53976,2.18277 -0.12645,-1.09564 -4.29002,0.51434 1.48159,12.83889 4.8317,4.16922 7.56275,-0.82003 -0.48601,-4.19754 -7.56085,0.81911 -0.18402,-1.59107 21.48974,-2.55931 4.40704,37.57591 2.67348,-0.285 0.19534,1.0815 -24.2925,2.9311 -0.0972,-0.8437 -4.2853,0.5804 0.94841,8.2186 4.79018,3.787 7.54859,-1.0286 -0.45581,-3.9361 -7.55047,0.9993 -0.16892,-1.4617 24.1434,-3.0425 0.17175,1.0862 2.71783,-0.3624 1.14753,8.8783 -3.08021,0.4228 3.24819,26.9471 -18.11227,2.4771 -0.68418,-4.9534 -10.13241,1.2278 1.28059,11.0977 28.35038,-3.8823 3.11701,26.4932 21.71434,-2.6498 -5.84711,-48.5417 21.39254,-2.4508 -0.5983,-4.8684 -21.37462,2.5753 -0.89839,-7.3504 4.69581,-0.5304 -2.77823,-23.3129 17.27333,-2.1743 0.24159,1.6911 3.44636,-0.4624 -11.29788,-96.89635 25.13334,-32.33089 -1.41177,-12.04997 -7.53537,-6.11041 -1.41271,-12.16042 5.9311,-7.47121 -1.46178,-12.47936 -31.75804,-24.7398 -11.84333,-101.57611 25.05123,-31.98832 -1.37307,-11.71498 -7.34286,-6.28121 -1.56936,-13.51176 5.85372,-6.30575 -1.39761,-11.93391 -31.78636,-26.02422 -11.9443,-102.43769 25.07199,-30.76435 -1.49952,-12.79642 -7.08241,-5.8783 -1.48442,-12.77849 5.64233,-6.30102 -1.56842,-13.38062 -31.57214,-25.24655 -11.89334,-102.01023 24.91345,-31.06727 -1.56086,-13.32209 -6.92103,-6.33028 -1.42781,-12.29252 5.41113,-6.44447 -1.39761,-11.92732 -31.5259,-25.89112 -15.47371,-132.71981 -21.91534,-17.077039 -11.32996,1.481592 -0.80686,-4.928899 z m 1054.75349,94.622996 -12.19342,1.35608 1.07674,9.33972 39.15755,-4.458 2.55645,21.9814 -26.97258,3.25196 -0.57096,-4.95627 -12.19154,1.35515 1.0579,9.184 39.16224,-4.65806 4.45801,38.32992 -27.01886,3.25667 -0.43031,-3.73701 -12.19531,1.31456 1.00596,8.73386 39.16035,-5.07517 4.21643,36.25285 -27.09622,2.96791 -0.52564,-4.55709 -12.16511,1.56653 1.02862,8.9311 39.22359,-4.90626 4.47783,38.50356 -27.09719,3.37275 -0.48786,-4.24095 -12.21043,1.16735 1.15415,10.01823 39.27452,-4.87134 6.06702,52.16537 -27.21798,2.87543 -0.61053,-5.29977 -12.17743,1.44668 1.07206,9.30291 39.35569,-4.69393 6.21043,53.39784 -46.70988,5.41773 0.84555,8.45548 7.39665,-0.96919 0.58604,5.08841 12.1868,-1.34099 -1.11351,-9.67379 27.24248,-3.24062 7.03896,60.52646 -27.33022,3.06514 -0.45205,-3.92484 -12.19816,1.23624 1.0966,9.51337 39.48968,-4.68167 6.30198,54.19147 -27.36138,3.36142 -0.47752,-4.14468 -12.17835,1.39099 1.05602,9.16985 39.5265,-4.91379 5.54418,47.67245 -27.45667,3.0387 -0.50018,-4.34664 -12.18777,1.29948 1.01355,8.798 39.60293,-4.73164 4.50237,38.714 -27.46237,3.40103 -0.47283,-4.10786 -12.18206,1.34099 1.04654,9.07828 12.17076,-1.4325 -0.16703,-1.44478 27.51523,-2.97927 4.3136,37.08711 -27.58597,2.71875 -0.56245,-4.87886 -12.15284,1.57973 1.07012,9.28875 12.1727,-1.40516 -0.0991,-0.86159 27.552,-3.04909 4.29001,36.8908 -27.62751,2.74615 -0.48882,-4.24093 -12.19908,1.16545 1.12013,9.72945 12.1812,-1.32683 -0.16891,-1.4712 27.6105,-2.92168 4.76377,40.95716 34.4636,-3.61436 0.48317,5.67725 51.16224,-4.87794 -1.10883,-9.72945 -9.05001,0.87101 -1.80247,-17.12707 -4.04278,0.31522 1.51464,17.10533 -19.92134,1.8374 -9.58034,-82.60414 11.3658,-1.16643 0.11045,0.95315 18.55388,-1.77888 -0.92199,-8.00531 -3.66528,-2.33187 -0.30294,-2.63666 -2.58946,0.28686 -1.0192,-9.3765 -4.07297,0.44635 1.0003,9.38408 -8.50833,0.89082 0.11137,0.95315 -11.35541,1.223 -8.92261,-76.93346 16.33245,-2.02801 0.36238,3.1406 17.20916,-1.81851 -1.03239,-9.05185 -17.38469,1.69013 0.24158,2.17427 -16.21354,1.7081 -0.0604,-0.89841 -4.38723,0.402 -0.15853,-1.16922 -0.83236,0.10852 -2.38565,-22.49761 38.60828,-4.08805 -0.98895,-8.68102 14.07986,-1.36365 -1.08713,-10.26736 -6.03962,0.60396 0.48317,6.03963 -7.9251,0.70586 -4.92703,-43.23333 6.69171,-0.71625 0.12079,1.08713 8.93865,-0.84554 -1.44951,-12.56242 -10.62974,1.20792 -3.62378,-32.01001 11.3545,-1.44951 -1.81189,-15.21986 -11.11291,1.20793 -3.38219,-31.16447 8.57627,-0.84554 -1.44951,-15.09907 -6.40201,0.60397 0.96634,9.5426 -7.67597,0.7323 -4.65428,-40.83446 7.37776,-0.60491 0.48317,3.98615 7.12676,-0.60396 -2.05347,-15.34065 -6.64359,0.72476 0.48317,3.74457 -7.61747,0.69833 -0.47375,-4.15979 -34.02763,3.68417 -5.32144,-45.88605 11.24027,-1.20887 0.12838,1.10034 18.89176,-2.25825 -0.7682,-6.66718 -3.49733,-1.94684 -0.45862,-3.98898 -3.10002,-0.005 -0.60396,-7.12676 -4.46932,0.48317 0.72475,7.00597 -8.29695,0.93331 0.12645,1.08713 -11.24974,1.10318 -8.60077,-74.16377 11.21766,-1.16451 0.13872,1.19188 18.98046,-2.28279 -0.93425,-8.11103 -3.45013,-1.79018 -0.3775,-3.28688 -2.62723,0.23781 -0.84555,-8.09309 -4.71091,0.48317 1.08713,8.21389 -8.69706,1.08713 0.14061,1.21264 -11.19501,1.324 -6.42654,-55.4145 -49.67969,6.25195 -0.84554,-6.64358 -29.46018,3.28782 -0.62378,-5.41962 z m 98.67902,60.46231 0.38219,3.28687 -11.19974,1.31079 -0.39446,-3.40578 z m 9.96065,85.64943 0.40673,3.49732 -11.2252,1.32872 -0.41809,-3.60396 z m -1149.74644,24.26325 3.2246,28.06066 -27.56145,3.06417 -2.53665,-20.17235 -1.08713,0.18119 -0.84555,-8.21389 2.581,-0.24631 0.1944,1.68261 4.8251,4.37023 7.39004,-0.96256 -0.49638,-4.29286 -7.40986,0.78233 -0.16893,-1.45801 z m 365.88332,134.10043 -6.88517,0.72476 0.37745,3.0302 -85.29458,9.53222 2.41585,17.6357 -19.3268,2.41585 1.93268,22.22582 -4.8317,47.10908 15.21985,42.76054 3.14061,19.3268 19.3268,-2.17426 1.5703,16.66936 102.67363,-11.95845 0.36237,2.17426 15.46144,-1.93268 -1.93268,-16.42778 12.68322,-1.69109 -2.77823,-22.46741 11.2337,-44.69322 -21.50106,-41.915 -2.17427,-24.64167 -12.68321,1.32872 -2.46306,-16.9685 -25.99585,2.90559 z m -137.80159,71.15809 -66.79354,7.68733 1.12771,10.08618 -6.42371,7.85054 1.22586,11.13843 -5.03365,5.51867 -9.51619,1.10887 0.22461,2.28844 9.39916,-1.07771 6.32745,4.73265 1.12299,10.36264 8.03176,5.98774 1.27115,11.37053 66.69728,-7.83735 -1.36646,-12.34727 4.00502,-5.34318 -1.1513,-10.67221 4.50896,-6.50767 10.51461,-1.20605 -0.34257,-2.48378 -10.33436,1.20411 -5.85466,-4.97796 -1.14942,-10.65428 -5.17709,-4.35984 z m 964.30161,137.08345 0.39446,3.39258 -11.33184,1.4467 -0.4105,-3.53888 z"
       id="path4162"
       inkscape:connector-curvature="0"
       sodipodi:nodetypes="ccccccccccccccccccccccccccccccccccccccccccccccccccccccccccccccccccccccccccccccccccccccccccccccccccccccccccccccccccccccccccccccccccccccccccccccccccccccccccccccccccccccccccccccccccccccccccccccccccccccccccccccccccccccccccccccccccccccccccccccccccccccccccccccccccccccccccccccccccccccccccccccccccccccccccccccccccccccccccccccccccccccccccccccccccccccccccccccccccccccccccccccccccccccccccccccccccccccccccccccccccccccccccccccccccccccccccccccccccccccccccccccccccccccccccccccccccccccccccccccccccccccccccccccccccccccccccccccccccccccccccccccccccccccccccccccccccccccccccccccccccccccccccccccccccccccccccccccccccccccccccccccccccccccccccccccccccccccccccccccccccccccccccccccccccccccccccccccccccccccccccccccccccccccccccccccccccccccccccccccccccccccccccccccccccccccccccccccccccccccccccccccccccccccccc" />
  </g>
  <g
     inkscape:groupmode="layer"
     id="layer3"
     inkscape:label="Label"
     transform="translate(-854.36264,-792.04845)">
    <g
       id="g4328">
      <g
         style="font-style:normal;font-variant:normal;font-weight:bold;font-stretch:normal;font-size:125px;line-height:125%;font-family:Overpass;-inkscape-font-specification:'Overpass, Bold';text-align:start;letter-spacing:0px;word-spacing:0px;writing-mode:lr-tb;text-anchor:start;fill:#dddddd;fill-opacity:1;stroke:#222222;stroke-width:0.25;stroke-linecap:butt;stroke-linejoin:miter;stroke-miterlimit:4;stroke-dasharray:none;stroke-opacity:1"
         id="text4290">
        <path
           d="m 2010.7406,1926.6969 0,-44.9829 q 0,-0.7324 0,-1.709 0.061,-0.9766 0.061,-1.9531 0.061,-1.0376 0.061,-1.8921 0.061,-0.8545 0.122,-1.3428 -0.6713,2.0752 -1.3427,3.7232 -0.6104,1.6479 -1.2818,3.1738 l -21.2402,46.5088 -21.3623,-46.5088 q -0.6714,-1.5259 -1.3428,-3.1738 -0.6103,-1.648 -1.2817,-3.7232 0.061,0.4883 0.061,1.3428 0.061,0.8545 0.061,1.8921 0.061,0.9765 0.061,1.9531 0.061,0.9766 0.061,1.709 l 0,44.9829 -16.9067,0 0,-87.5244 17.1509,0 21.4843,48.2788 q 0.6714,1.5869 1.2207,3.0518 0.5494,1.4038 1.0376,2.9296 0.4883,-1.5258 1.0376,-2.9296 0.5493,-1.4649 1.2207,-3.0518 l 21.8506,-48.2788 16.1133,0 0,87.5244 -16.8457,0 z"
           id="path4337"
           inkscape:connector-curvature="0" />
        <path
           d="m 2084.8983,1928.2228 q -4.4556,0 -8.8501,-0.7935 -4.3335,-0.7324 -8.2397,-2.4414 -3.9063,-1.709 -7.2632,-4.3945 -3.2959,-2.7466 -5.7373,-6.6528 -2.4414,-3.9063 -3.8452,-9.0333 -1.3428,-5.1269 -1.3428,-11.7187 l 0,-54.0161 16.9067,0 0,54.0161 q 0,5.4321 1.2207,9.0942 1.2818,3.6011 3.6621,5.7373 2.3804,2.1363 5.7984,3.0518 3.418,0.8545 7.6904,0.8545 4.2114,0 7.5684,-0.8545 3.4179,-0.9155 5.7983,-3.0518 2.4414,-2.1362 3.7232,-5.7373 1.2817,-3.6621 1.2817,-9.0942 l 0,-54.0161 16.8457,0 0,54.0161 q 0,9.7656 -2.9297,16.4795 -2.9297,6.6528 -7.8735,10.8032 -4.8828,4.0894 -11.2305,5.9204 -6.3476,1.8311 -13.1836,1.8311 z"
           id="path4339"
           inkscape:connector-curvature="0" />
        <path
           d="m 2175.6576,1928.1007 q -6.8359,0 -12.207,-1.831 -5.3711,-1.8311 -9.4605,-5.066 -4.0893,-3.2348 -6.958,-7.5683 -2.8686,-4.3335 -4.6997,-9.3384 -1.77,-5.0659 -2.6245,-10.498 -0.7935,-5.4322 -0.7935,-10.8643 0,-5.0049 0.8545,-10.2539 0.8545,-5.3101 2.6245,-10.315 1.8311,-5.0048 4.6997,-9.4604 2.9297,-4.4556 6.958,-7.8125 4.0894,-3.3569 9.4605,-5.3101 5.3711,-1.9531 12.146,-1.9531 6.2866,0 11.4136,1.709 5.1269,1.709 9.0332,4.5166 3.9062,2.7466 6.5918,6.2866 2.7465,3.5401 4.2114,7.2022 l -15.1367,6.8969 q -1.5869,-2.4414 -3.2349,-4.3945 -1.6479,-1.9531 -3.54,-3.2349 -1.8921,-1.3427 -4.2115,-2.0141 -2.2583,-0.7324 -5.1269,-0.7324 -3.6621,0 -6.5308,1.2817 -2.8686,1.2207 -5.0049,3.3569 -2.1362,2.1363 -3.601,5.0049 -1.4649,2.8687 -2.3804,6.1035 -0.9155,3.1739 -1.3428,6.5918 -0.3662,3.357 -0.3662,6.5308 0,5.1269 1.0987,10.2539 1.0986,5.127 3.4179,9.2773 2.3194,4.1504 5.9204,6.7749 3.6621,2.5635 8.7891,2.5635 2.6855,0 4.9438,-0.7934 2.2583,-0.8545 4.1504,-2.3194 1.9532,-1.4648 3.6011,-3.54 1.709,-2.0752 3.1738,-4.5776 l 15.503,5.8593 q -2.0752,4.8218 -5.0049,8.8501 -2.9297,3.9673 -6.836,6.836 -3.8452,2.8076 -8.728,4.3945 -4.8828,1.5869 -10.8032,1.5869 z"
           id="path4341"
           inkscape:connector-curvature="0" />
      </g>
      <g
         style="font-style:normal;font-variant:normal;font-weight:normal;font-stretch:normal;font-size:45px;line-height:125%;font-family:Overpass;-inkscape-font-specification:'Overpass, Normal';text-align:start;letter-spacing:0px;word-spacing:0px;writing-mode:lr-tb;text-anchor:start;fill:#222222;fill-opacity:1;stroke:none;stroke-width:1px;stroke-linecap:butt;stroke-linejoin:miter;stroke-opacity:1"
         id="text4294">
        <path
           d="m 2090.3767,1774.2501 0,-17.2265 0.1318,-4.7242 -1.8457,4.856 -7.6025,17.644 -7.6465,-17.7758 -1.8896,-4.7242 0.1318,4.7242 0,17.2265 -4.6802,0 0,-31.5088 4.7242,0 8.4594,19.6656 0.857,2.3071 0.9008,-2.3071 8.4156,-19.6656 4.7241,0 0,31.5088 -4.6802,0 z"
           id="path4344"
           inkscape:connector-curvature="0" />
        <path
           d="m 2116.5242,1774.2501 0,-2.1972 q -1.1206,1.4282 -2.5928,2.0874 -1.4502,0.6591 -3.3618,0.6591 -1.8018,0 -3.3179,-0.5273 -1.5161,-0.5054 -2.6367,-1.6699 -1.0986,-1.1866 -1.7139,-3.0542 -0.6152,-1.8677 -0.6152,-4.5703 l 0,-13.7329 4.6802,0 0,13.7329 q 0,1.4502 0.3515,2.4829 0.3516,1.0107 0.9668,1.6699 0.6153,0.6592 1.4502,0.9668 0.835,0.2856 1.8237,0.2856 1.0547,0 1.9556,-0.2636 0.9009,-0.2857 1.5601,-0.9009 0.6811,-0.6372 1.0547,-1.648 0.3955,-1.0107 0.3955,-2.5048 l 0,-13.8208 4.6801,0 0,23.0053 -4.6801,0 z"
           id="path4346"
           inkscape:connector-curvature="0" />
        <path
           d="m 2142.1443,1774.2501 0,-13.7329 q 0,-1.4502 -0.3516,-2.4609 -0.3515,-1.0327 -0.9668,-1.6699 -0.6152,-0.6592 -1.4502,-0.9449 -0.8349,-0.3076 -1.8237,-0.3076 -1.0547,0 -1.9556,0.2857 -0.9008,0.2636 -1.56,0.8789 -0.6592,0.6152 -1.0547,1.6479 -0.3735,1.0108 -0.3735,2.4829 l 0,13.8208 -4.6802,0 0,-23.0053 4.6802,0 0,2.2192 q 1.1206,-1.4282 2.5708,-2.0874 1.4502,-0.6592 3.3618,-0.6592 1.8017,0 3.3178,0.5274 1.5162,0.5053 2.6148,1.6699 1.1206,1.1645 1.7358,3.0322 0.6153,1.8677 0.6153,4.5703 l 0,13.7329 -4.6802,0 z"
           id="path4348"
           inkscape:connector-curvature="0" />
        <path
           d="m 2153.3723,1774.2501 0,-23.0053 4.6802,0 0,23.0053 -4.6802,0 z m 2.3291,-26.5869 q -0.5932,0 -1.1206,-0.2197 -0.5054,-0.2197 -0.9009,-0.5933 -0.3735,-0.3955 -0.5932,-0.9009 -0.2198,-0.5273 -0.2198,-1.1206 0,-0.5932 0.2198,-1.0986 0.2197,-0.5273 0.5932,-0.9009 0.3955,-0.3955 0.9009,-0.6152 0.5274,-0.2197 1.1206,-0.2197 0.5933,0 1.0986,0.2197 0.5274,0.2197 0.9009,0.6152 0.3955,0.3736 0.6153,0.9009 0.2197,0.5054 0.2197,1.0986 0,0.5933 -0.2197,1.1206 -0.2198,0.5054 -0.6153,0.9009 -0.3735,0.3736 -0.9009,0.5933 -0.5053,0.2197 -1.0986,0.2197 z"
           id="path4350"
           inkscape:connector-curvature="0" />
        <path
           d="m 2173.741,1774.7994 q -2.3072,0 -4.1748,-0.8129 -1.8457,-0.813 -3.1641,-2.3511 -1.2964,-1.5601 -1.9995,-3.7793 -0.7031,-2.2412 -0.7031,-5.0757 0,-2.8345 0.7031,-5.0757 0.7031,-2.2412 1.9995,-3.7793 1.3184,-1.56 3.1641,-2.373 1.8676,-0.835 4.1748,-0.835 3.208,0 5.4272,1.4282 2.2412,1.4283 3.252,4.5044 l -4.4385,1.5381 q -0.5054,-1.3183 -1.5381,-2.1313 -1.0327,-0.835 -2.5269,-0.835 -1.3183,0 -2.3291,0.5273 -1.0107,0.5274 -1.7138,1.5162 -0.6812,0.9668 -1.0547,2.373 -0.3516,1.3843 -0.3516,3.1421 0,1.7578 0.3516,3.1641 0.3735,1.3842 1.0327,2.351 0.6812,0.9668 1.648,1.4942 0.9887,0.5053 2.2412,0.5053 1.582,0 2.7026,-0.8789 1.1426,-0.8789 1.626,-2.5048 l 4.4385,1.4062 q -0.9229,3.208 -3.1421,4.856 -2.1973,1.6259 -5.625,1.6259 z"
           id="path4352"
           inkscape:connector-curvature="0" />
        <path
           d="m 2202.3494,1774.2501 0,-13.7329 q 0,-1.4502 -0.3516,-2.4609 -0.3516,-1.0327 -0.9668,-1.6699 -0.6152,-0.6592 -1.4502,-0.9449 -0.835,-0.3076 -1.8237,-0.3076 -1.0547,0 -1.9556,0.2857 -0.9009,0.2636 -1.56,0.8789 -0.6592,0.6152 -1.0547,1.6479 -0.3736,1.0108 -0.3736,2.4829 l 0,13.8208 -4.6801,0 0,-30.3222 4.6801,-2.1753 0,11.7114 q 1.1206,-1.4282 2.5708,-2.0874 1.4502,-0.6592 3.3618,-0.6592 1.8018,0 3.3179,0.5274 1.5161,0.5053 2.6148,1.6699 1.1206,1.1645 1.7358,3.0322 0.6152,1.8677 0.6152,4.5703 l 0,13.7329 -4.6801,0 z"
           id="path4354"
           inkscape:connector-curvature="0" />
      </g>
      <g
         style="font-style:normal;font-variant:normal;font-weight:300;font-stretch:normal;font-size:45px;line-height:125%;font-family:Overpass;-inkscape-font-specification:'Overpass, Light';text-align:start;letter-spacing:0px;word-spacing:0px;writing-mode:lr-tb;text-anchor:start;fill:#222222;fill-opacity:1;stroke:none;stroke-width:1px;stroke-linecap:butt;stroke-linejoin:miter;stroke-opacity:1"
         id="text4304">
        <path
           d="m 2056.6333,1822.2896 0,-23.31 -10.53,23.85 -9.81,-23.715 0,23.175 -3.15,0 0,-31.5 2.7,0 10.53,24.525 10.665,-24.525 2.745,0 0,31.5 -3.15,0 z"
           id="path4357"
           inkscape:connector-curvature="0" />
        <path
           d="m 2082.5414,1822.2896 0,-2.205 q -1.215,1.575 -2.565,2.16 -1.35,0.585 -3.15,0.585 -4.455,0 -6.48,-2.52 -1.98,-2.52 -1.98,-8.19 l 0,-12.825 3.15,0 0,14.04 q 0,3.6 1.485,5.13 1.53,1.53 3.825,1.53 1.215,0 2.25,-0.315 1.035,-0.315 1.8,-1.08 0.81,-0.765 1.215,-2.025 0.45,-1.26 0.45,-3.15 l 0,-14.13 3.15,0 0,22.995 -3.15,0 z m -9.405,-27.27 q -0.9,0 -1.53,-0.585 -0.585,-0.63 -0.585,-1.53 0,-0.9 0.585,-1.485 0.63,-0.63 1.53,-0.63 0.9,0 1.485,0.63 0.63,0.585 0.63,1.485 0,0.9 -0.63,1.53 -0.585,0.585 -1.485,0.585 z m 7.47,0 q -0.9,0 -1.53,-0.585 -0.585,-0.63 -0.585,-1.53 0,-0.9 0.585,-1.485 0.63,-0.63 1.53,-0.63 0.9,0 1.485,0.63 0.63,0.585 0.63,1.485 0,0.9 -0.63,1.53 -0.585,0.585 -1.485,0.585 z"
           id="path4359"
           inkscape:connector-curvature="0" />
        <path
           d="m 2096.966,1801.8146 q 1.08,-1.575 2.565,-2.295 1.53,-0.765 3.375,-0.765 4.23,0 6.21,2.565 2.025,2.52 2.025,8.235 l 0,12.735 -3.15,0 0,-14.04 q 0,-3.645 -1.53,-5.13 -1.53,-1.53 -3.825,-1.53 -1.215,0 -2.25,0.315 -1.035,0.315 -1.8,1.08 -0.765,0.765 -1.215,2.025 -0.405,1.26 -0.405,3.15 l 0,14.13 -3.15,0 0,-22.995 3.15,0 0,2.52 z"
           id="path4361"
           inkscape:connector-curvature="0" />
        <path
           d="m 2126.5556,1822.8296 q -4.185,0 -6.66,-3.105 -2.43,-3.15 -2.43,-8.91 0,-5.715 2.475,-8.865 2.52,-3.195 6.975,-3.195 2.565,0 4.5,1.26 1.935,1.215 2.88,3.555 l -2.88,1.125 q -0.54,-1.305 -1.665,-2.205 -1.08,-0.9 -2.97,-0.9 -1.62,0 -2.745,0.675 -1.125,0.63 -1.89,1.845 -0.72,1.17 -1.08,2.88 -0.315,1.71 -0.315,3.825 0,4.365 1.44,6.795 1.44,2.385 4.5,2.385 1.89,0 3.195,-0.945 1.305,-0.945 1.89,-2.565 l 2.835,1.08 q -0.81,2.43 -2.97,3.87 -2.115,1.395 -5.085,1.395 z"
           id="path4363"
           inkscape:connector-curvature="0" />
        <path
           d="m 2149.7517,1798.7546 q 4.23,0 6.21,2.565 2.025,2.52 2.025,8.235 l 0,12.735 -3.15,0 0,-14.04 q 0,-3.645 -1.53,-5.13 -1.53,-1.53 -3.825,-1.53 -1.215,0 -2.25,0.315 -1.035,0.315 -1.8,1.08 -0.765,0.765 -1.215,2.025 -0.405,1.26 -0.405,3.15 l 0,14.13 -3.15,0 0,-31.005 3.15,-1.485 0,12.06 q 1.035,-1.575 2.565,-2.34 1.53,-0.765 3.375,-0.765 z"
           id="path4365"
           inkscape:connector-curvature="0" />
        <path
           d="m 2167.6413,1812.0746 q 0.405,3.51 2.115,5.67 1.71,2.16 4.68,2.16 1.26,0 2.565,-0.405 1.305,-0.405 2.61,-1.395 l 1.71,2.115 q -1.35,1.125 -3.195,1.89 -1.8,0.72 -3.825,0.72 -2.34,0 -4.185,-0.945 -1.845,-0.99 -3.15,-2.655 -1.26,-1.665 -1.98,-3.825 -0.675,-2.205 -0.675,-4.635 0,-2.88 0.72,-5.085 0.765,-2.25 2.07,-3.78 1.305,-1.53 3.15,-2.34 1.845,-0.81 4.05,-0.81 1.845,0 3.465,0.675 1.665,0.63 2.925,1.98 1.26,1.35 1.98,3.465 0.72,2.115 0.72,4.995 0,0.36 0,0.9 0,0.54 -0.09,1.305 l -15.66,0 z m 6.66,-10.485 q -2.79,0 -4.68,1.845 -1.845,1.845 -2.07,5.805 l 12.645,0 q 0,-2.34 -0.585,-3.825 -0.585,-1.485 -1.485,-2.34 -0.855,-0.855 -1.89,-1.17 -1.035,-0.315 -1.935,-0.315 z"
           id="path4367"
           inkscape:connector-curvature="0" />
        <path
           d="m 2192.8547,1801.8146 q 1.08,-1.575 2.565,-2.295 1.53,-0.765 3.375,-0.765 4.23,0 6.21,2.565 2.025,2.52 2.025,8.235 l 0,12.735 -3.15,0 0,-14.04 q 0,-3.645 -1.53,-5.13 -1.53,-1.53 -3.825,-1.53 -1.215,0 -2.25,0.315 -1.035,0.315 -1.8,1.08 -0.765,0.765 -1.215,2.025 -0.405,1.26 -0.405,3.15 l 0,14.13 -3.15,0 0,-22.995 3.15,0 0,2.52 z"
           id="path4369"
           inkscape:connector-curvature="0" />
      </g>
    </g>
  </g>
</svg>
