<?xml version="1.0" encoding="UTF-8" standalone="no"?>
<!-- Created with Inkscape (http://www.inkscape.org/) -->

<svg
   xmlns:dc="http://purl.org/dc/elements/1.1/"
   xmlns:cc="http://creativecommons.org/ns#"
   xmlns:rdf="http://www.w3.org/1999/02/22-rdf-syntax-ns#"
   xmlns:svg="http://www.w3.org/2000/svg"
   xmlns="http://www.w3.org/2000/svg"
   xmlns:sodipodi="http://sodipodi.sourceforge.net/DTD/sodipodi-0.dtd"
   xmlns:inkscape="http://www.inkscape.org/namespaces/inkscape"
   width="1430.9077"
   height="2726.4001"
   viewBox="0 0 1430.9077 2726.4001"
   id="svg2"
   version="1.1"
   inkscape:version="0.91 r13725"
   sodipodi:docname="NRT.svg"
   inkscape:export-filename="C:\Users\paulb\Dropbox\Projects\Terminal Silhouettes\Silhouettes\png-flight-historian\NRT.png"
   inkscape:export-xdpi="89.994751"
   inkscape:export-ydpi="89.994751">
  <sodipodi:namedview
     id="base"
     pagecolor="#ffffff"
     bordercolor="#666666"
     borderopacity="1.0"
     inkscape:pageopacity="1"
     inkscape:pageshadow="2"
     inkscape:zoom="0.70710678"
     inkscape:cx="958.17926"
     inkscape:cy="2199.7906"
     inkscape:document-units="px"
     inkscape:current-layer="layer1"
     showgrid="false"
     fit-margin-top="100"
     fit-margin-left="100"
     fit-margin-right="100"
     fit-margin-bottom="100"
     showguides="true"
     inkscape:guide-bbox="true"
     inkscape:window-width="1920"
     inkscape:window-height="1137"
     inkscape:window-x="1912"
     inkscape:window-y="-8"
     inkscape:window-maximized="1"
     inkscape:object-nodes="true"
     inkscape:snap-center="false"
     inkscape:snap-smooth-nodes="true"
     units="px"
     inkscape:snap-page="true" />
  <title
     id="title4148">NRT</title>
  <defs
     id="defs4" />
  <metadata
     id="metadata7">
    <rdf:RDF>
      <cc:Work
         rdf:about="">
        <dc:format>image/svg+xml</dc:format>
        <dc:type
           rdf:resource="http://purl.org/dc/dcmitype/StillImage" />
        <dc:title>NRT</dc:title>
        <dc:description>Terminal silhouette of NRT (Tokyo–Narita)</dc:description>
        <dc:creator>
          <cc:Agent>
            <dc:title>Paul Bogard</dc:title>
          </cc:Agent>
        </dc:creator>
      </cc:Work>
    </rdf:RDF>
  </metadata>
  <g
     inkscape:groupmode="layer"
     id="layer4"
     inkscape:label="Background"
     transform="translate(49.248334,74.25003)">
    <rect
       style="opacity:1;fill:#dbdcdf;fill-opacity:1;stroke:none;stroke-width:3;stroke-linecap:butt;stroke-linejoin:round;stroke-miterlimit:4;stroke-dasharray:none;stroke-dashoffset:0;stroke-opacity:1"
       id="rect4164"
       width="1430.9077"
       height="2726.4001"
       x="-49.248333"
       y="-74.250031" />
  </g>
  <g
     transform="translate(-943.21533,309.05407)"
     inkscape:label="Terminal"
     id="layer2"
     inkscape:groupmode="layer">
    <path
       inkscape:connector-curvature="0"
       id="rect4160"
       d="m 1047.6897,1710.5384 a 32.610896,32.610896 0 0 0 44.6238,11.6494 32.610896,32.610896 0 0 0 13.3976,-15.1851 l 107.8912,184.1243 -29.4595,17.2623 178.0603,303.873 3.313,-1.9413 19.485,33.2527 -2.1922,3.8539 39.9447,68.1686 7.0028,-0.044 -0.1416,-4.329 3.2574,4.3074 3.2037,-4.3492 -0.084,4.33 7.0001,-0.045 39.065,-68.6773 -24.9791,-42.6288 -18.8899,0.1215 0.032,4.7714 -12.0613,0.077 -0.032,-4.7714 -18.8882,0.1205 -4.9362,8.6786 -142.6786,-243.4915 13.165,-23.1461 -17.1082,-29.1966 23.6061,-41.5067 254.0108,-1.6362 3.9579,-6.9599 1.5595,-0.01 -3.6619,6.4377 47.8472,81.6547 27.001,-1.4696 c 32.8638,-73.361 65.7276,-146.7224 98.5909,-220.0836 l -31.1895,8.2794 3.8441,-8.5797 15.6793,-2.8694 60.0584,-134.0635 6.6462,2.9783 28.5191,-63.6613 c -8.5142,-3.816 -17.0289,-7.629 -25.544,-11.443 -1.8067,4.0331 -3.1565,7.0459 -4.9364,11.0194 l -3.2319,-1.4475 -17.4579,38.9725 3.2319,1.4474 c -30.5275,68.1454 -59.3252,132.4245 -88.6613,197.9142 -48.9032,0.3145 -97.8057,0.6304 -146.709,0.9455 l -6.047,-10.3198 -202.8065,1.3051 -29.3692,-50.1208 65.6966,-115.5019 -47.5904,-81.2166 -7.7335,0.049 -32.6831,-55.7762 -2.2733,1.332 -1.3488,-2.3019 a 39.695105,32.94204 59.631 0 0 -0.5305,-42.6051 39.695105,32.94204 59.631 0 0 -48.4917,-17.5935 39.695105,32.94204 59.631 0 0 -8.3528,50.9027 39.695105,32.94204 59.631 0 0 36.8883,21.253 l 1.3696,2.3373 -2.2733,1.332 14.3465,24.4833 -8.0869,14.2192 8.7813,14.9859 -4.5182,7.947 4.4523,7.5982 -58.3871,102.6526 -8.8078,0.059 -5.6192,9.8733 -7.0089,0.046 -11.1156,19.539 -39.3329,0.2543 0.021,3.3653 -2.1919,0.014 a 32.610896,32.610896 0 0 0 -1.8663,-3.7915 32.610896,32.610896 0 0 0 -44.6221,-11.6504 32.610896,32.610896 0 0 0 -11.6494,44.6239 z m 197.324,106.7887 -18.3654,-31.3417 12.2374,-7.1708 18.3654,31.3418 -12.2374,7.1707 z m -29.2242,-49.8731 -18.3653,-31.3418 12.2374,-7.1708 18.3653,31.3418 -12.2374,7.1708 z m 333.1768,74.2666 -0.8896,-1.5183 27.5175,-0.1786 11.0469,-24.6555 -5.789,-9.4931 -45.5719,0.2927 -0.1295,-19.63 60.4585,-0.3886 12.4621,5.5828 -22.2858,49.7517 -36.8192,0.2369 z m 61.204,-955.19055 14.6168,-8.56501 16.6738,28.45515 10.158,-5.95224 69.1264,117.96935 70.9154,-41.55428 66.488,113.46668 c 4.231,7.2204 0.7434,14.8287 0.7434,14.8287 l -16.5403,36.0761 56.0576,95.6665 -12.4948,27.2493 26.2272,12.0252 c 8.495,-18.5294 17.2489,-37.6273 24.921,-54.3565 1.0779,-2.351 -0.2311,-4.5822 -0.2311,-4.5822 l -0.3219,-0.5493 c 0.6419,-2.1201 -0.4484,-3.9909 -0.4484,-3.9909 l -49.9563,-85.2541 -6.3546,3.7236 6.2299,-13.5907 c 9.9524,-21.7104 -2.1209,-42.3138 -2.1209,-42.3138 l -7.9608,-13.5855 -1.7373,1.018 -16.2582,-27.7456 -7.1938,4.2153 -9.9257,-16.9389 7.1938,-4.2154 -3.8816,-6.6242 1.7374,-1.0181 -44.3595,-75.70281 -8.9313,5.23343 -34.9927,-59.71766 8.9312,-5.23342 -72.8717,-124.36105 25.9219,-33.02315 -14.6506,-25.00228 23.7358,-30.23682 -4.3645,-7.44836 98.6644,-57.81432 86.2481,-55.7317 1.6865,2.87817 42.6554,-0.27474 23.6929,-13.88332 102.724,175.30596 29.3128,-17.17644 -250.8383,-428.07401 -29.3128,17.17644 102.7249,175.3076 -23.693,13.88333 -21.0897,37.07805 1.6865,2.87818 -90.7784,48.00035 -98.6644,57.81432 -17.5596,-29.96668 -79.4614,12.39771 -48.5019,-82.77202 -8.9312,5.23343 -34.9928,-59.71766 8.9313,-5.23342 -74.6956,-127.47347 -17.8641,10.46782 109.6883,187.19112 -5.8373,3.42046 -3.3326,-5.68732 -9.1856,5.38252 3.3326,5.68732 -12.2037,7.15099 11.5372,19.68907 -6.7473,3.95368 -16.9207,-28.87637 -16.5076,9.67297 -7.5845,-12.94354 22.2623,-13.04504 -19.5097,-33.29479 -30.8582,18.08195 19.5097,33.29479 2.5666,-1.50391 7.5845,12.94354 -24.0857,14.11346 16.9207,28.87637 -22.9414,13.44293 166.2872,283.78119 z m -352.7116,-681.80067 90.6651,-53.12696 50.7956,86.68649 18.1877,-10.6574 -120.8394,-206.221274 63.1098,-67.368885 2.6463,2.4765 1.7404,1.633344 6.9829,-7.453446 -1.742,-1.632384 c 52.2713,-55.795235 86.9082,-92.772115 137.1554,-146.408875 l -12.501,-11.71056 c -45.7185,48.80272 -91.4374,97.60578 -137.1554,146.408924 l -1.7447,-1.633012 -6.9812,7.452435 1.743,1.633973 2.6464,2.4765 -61.1116,65.231356 -2.0213,-3.4495098 -108.8527,63.7843578 77.2767,131.878426 z m 448.3595,761.90192 -42.7135,-72.89371 10.7664,-6.30877 -5.1149,-8.72899 2.1013,-1.23131 -10.528,-17.96685 -2.1013,1.2313 -1.0309,-1.75931 30.8631,-18.08484 10.2634,17.51528 12.9402,-7.58255 2.1397,3.65166 6.8197,-3.99615 -2.1397,-3.65166 5.8878,-3.45009 39.6959,67.74399 -16.6878,9.77858 9.428,16.0896 -50.5894,29.64382 z"
       style="opacity:1;fill:#60646c;fill-opacity:1;stroke:none;stroke-width:1.5;stroke-linecap:butt;stroke-linejoin:round;stroke-miterlimit:4;stroke-dasharray:none;stroke-dashoffset:0;stroke-opacity:1" />
  </g>
  <g
     inkscape:label="Text"
     id="layer1"
     inkscape:groupmode="layer"
     transform="translate(74.248414,74.25003)">
    <g
       id="g4194"
       transform="translate(-50,0)">
      <g
         transform="translate(-21.79744,1.3783597)"
         id="text5421"
         style="font-style:normal;font-variant:normal;font-weight:bold;font-stretch:normal;font-size:125px;line-height:125%;font-family:Overpass;-inkscape-font-specification:'Overpass, Bold';text-align:start;letter-spacing:0px;word-spacing:0px;writing-mode:lr-tb;text-anchor:start;fill:none;fill-opacity:1;stroke:#60646c;stroke-width:3;stroke-linecap:butt;stroke-linejoin:round;stroke-miterlimit:4;stroke-dasharray:none;stroke-opacity:1">
        <path
           style="fill:none;stroke:#60646c;stroke-width:3;stroke-linejoin:round;stroke-miterlimit:4;stroke-dasharray:none;stroke-opacity:1"
           inkscape:connector-curvature="0"
           id="path5560"
           d="m 1138.7854,2549.2717 -34.729,-51.0254 q -0.8545,-1.2817 -1.8921,-3.1128 -0.9766,-1.892 -1.709,-3.479 0.1831,1.4038 0.2442,3.2959 0.122,1.8921 0.122,3.2959 l 0,51.0254 -16.7846,0 0,-87.5244 15.8691,0 33.8745,50.4151 q 0.7935,1.2207 1.8311,3.0517 1.0376,1.8311 1.831,3.5401 -0.1831,-1.7701 -0.3051,-3.5401 -0.061,-1.831 -0.061,-3.0517 l 0,-50.4151 16.7236,0 0,87.5244 -15.0146,0 z" />
        <path
           style="fill:none;stroke:#60646c;stroke-width:3;stroke-linejoin:round;stroke-miterlimit:4;stroke-dasharray:none;stroke-opacity:1"
           inkscape:connector-curvature="0"
           id="path5562"
           d="m 1176.322,2549.2717 0,-87.5244 40.6494,0 q 8.3008,0 13.855,2.3194 5.6153,2.2583 9.0332,6.0424 3.418,3.7842 4.8828,8.7281 1.4649,4.9438 1.4649,10.3149 0,3.7231 -1.0987,7.5684 -1.0376,3.7841 -3.1738,7.2021 -2.1362,3.418 -5.31,6.2256 -3.1739,2.7466 -7.3853,4.2725 l 16.9678,34.851 -18.982,0 -16.3574,-32.6538 -17.6391,0 0,32.6538 -16.9068,0 z m 40.8936,-48.645 q 3.2348,0 5.4321,-0.9155 2.1973,-0.9766 3.54,-2.5635 1.3428,-1.5869 1.8921,-3.6621 0.6104,-2.0752 0.6104,-4.3335 0,-2.0752 -0.5493,-4.0894 -0.4883,-2.0752 -1.7701,-3.6621 -1.2817,-1.6479 -3.54,-2.6245 -2.1973,-0.9765 -5.6152,-0.9765 l -23.9868,0 0,22.8271 23.9868,0 z" />
        <path
           style="fill:none;stroke:#60646c;stroke-width:3;stroke-linejoin:round;stroke-miterlimit:4;stroke-dasharray:none;stroke-opacity:1"
           inkscape:connector-curvature="0"
           id="path5564"
           d="m 1301.9324,2478.0437 0,71.228 -16.8457,0 0,-71.228 -25.0244,0 0,-16.2964 66.8945,0 0,16.2964 -25.0244,0 z" />
      </g>
      <g
         style="fill:#60646c;fill-opacity:1"
         id="g5512"
         transform="translate(-77.24107,207.85352)">
        <g
           id="text5425"
           style="font-style:normal;font-variant:normal;font-weight:normal;font-stretch:normal;font-size:45px;line-height:125%;font-family:Overpass;-inkscape-font-specification:'Overpass, Normal';text-align:start;letter-spacing:0px;word-spacing:0px;writing-mode:lr-tb;text-anchor:start;fill:#60646c;fill-opacity:1;stroke:none;stroke-width:1px;stroke-linecap:butt;stroke-linejoin:miter;stroke-opacity:1">
          <path
             style="fill:#60646c;fill-opacity:1"
             inkscape:connector-curvature="0"
             id="path5567"
             d="m 855.74567,2260.2654 0,27.0044 -4.68018,0 0,-27.0044 -8.9209,0 0,-4.5044 22.5,0 0,4.5044 -8.89892,0 z" />
          <path
             style="fill:#60646c;fill-opacity:1"
             inkscape:connector-curvature="0"
             id="path5569"
             d="m 875.63092,2287.8191 q -2.41699,0 -4.37256,-0.813 -1.93359,-0.813 -3.2959,-2.3511 -1.3623,-1.56 -2.10937,-3.7793 -0.7251,-2.2412 -0.7251,-5.0757 0,-2.8344 0.7251,-5.0756 0.74707,-2.2412 2.10937,-3.7793 1.36231,-1.5601 3.2959,-2.3731 1.95557,-0.8349 4.37256,-0.8349 2.39502,0 4.35059,0.8349 1.95556,0.813 3.31787,2.3731 1.3623,1.5381 2.10937,3.7793 0.74707,2.2412 0.74707,5.0756 0,2.8345 -0.74707,5.0757 -0.74707,2.2193 -2.10937,3.7793 -1.36231,1.5381 -3.31787,2.3511 -1.95557,0.813 -4.35059,0.813 z m 0,-4.4165 q 1.34033,0 2.41699,-0.5274 1.09864,-0.5273 1.84571,-1.4941 0.76904,-0.9888 1.16455,-2.395 0.41748,-1.4063 0.41748,-3.1861 0,-1.7797 -0.41748,-3.186 -0.39551,-1.4282 -1.16455,-2.417 -0.74707,-0.9887 -1.84571,-1.5161 -1.07666,-0.5273 -2.41699,-0.5273 -1.34033,0 -2.41699,0.5273 -1.07666,0.5274 -1.8457,1.5161 -0.74708,0.9888 -1.16456,2.417 -0.3955,1.4063 -0.3955,3.186 0,1.7798 0.3955,3.1861 0.41748,1.4062 1.16456,2.395 0.76904,0.9668 1.8457,1.4941 1.07666,0.5274 2.41699,0.5274 z" />
          <path
             style="fill:#60646c;fill-opacity:1"
             inkscape:connector-curvature="0"
             id="path5571"
             d="m 891.75885,2287.2698 0,-30.2783 4.68018,-2.2193 0,16.6113 6.78955,-7.1191 5.75683,0 -6.30615,6.394 8.63525,16.6114 -5.11962,0 -6.78956,-13.2276 -2.9663,2.9663 0,10.2613 -4.68018,0 z" />
          <path
             style="fill:#60646c;fill-opacity:1"
             inkscape:connector-curvature="0"
             id="path5573"
             d="m 924.1026,2295.9929 -4.76807,0 3.5376,-9.1186 -8.59131,-22.6099 4.63623,0 5.66895,15.0513 q 0.2417,0.6372 0.37353,1.0547 0.13184,0.4174 0.26368,0.9668 0.13183,-0.5494 0.26367,-0.9668 0.13183,-0.4175 0.37353,-1.0547 l 5.71289,-15.0513 4.68018,0 -12.15088,31.7285 z" />
          <path
             style="fill:#60646c;fill-opacity:1"
             inkscape:connector-curvature="0"
             id="path5575"
             d="m 950.16217,2287.8191 q -2.41699,0 -4.37256,-0.813 -1.93359,-0.813 -3.2959,-2.3511 -1.3623,-1.56 -2.10937,-3.7793 -0.7251,-2.2412 -0.7251,-5.0757 0,-2.8344 0.7251,-5.0756 0.74707,-2.2412 2.10937,-3.7793 1.36231,-1.5601 3.2959,-2.3731 1.95557,-0.8349 4.37256,-0.8349 2.39502,0 4.35059,0.8349 1.95556,0.813 3.31787,2.3731 1.3623,1.5381 2.10937,3.7793 0.74707,2.2412 0.74707,5.0756 0,2.8345 -0.74707,5.0757 -0.74707,2.2193 -2.10937,3.7793 -1.36231,1.5381 -3.31787,2.3511 -1.95557,0.813 -4.35059,0.813 z m 0,-4.4165 q 1.34033,0 2.41699,-0.5274 1.09864,-0.5273 1.84571,-1.4941 0.76904,-0.9888 1.16455,-2.395 0.41748,-1.4063 0.41748,-3.1861 0,-1.7797 -0.41748,-3.186 -0.39551,-1.4282 -1.16455,-2.417 -0.74707,-0.9887 -1.84571,-1.5161 -1.07666,-0.5273 -2.41699,-0.5273 -1.34033,0 -2.41699,0.5273 -1.07666,0.5274 -1.8457,1.5161 -0.74708,0.9888 -1.16456,2.417 -0.3955,1.4063 -0.3955,3.186 0,1.7798 0.3955,3.1861 0.41748,1.4062 1.16456,2.395 0.76904,0.9668 1.8457,1.4941 1.07666,0.5274 2.41699,0.5274 z" />
          <path
             style="fill:#60646c;fill-opacity:1"
             inkscape:connector-curvature="0"
             id="path5577"
             d="m 965.14752,2276.3713 0,-4.0429 17.77588,0 0,4.0429 -17.77588,0 z" />
          <path
             style="fill:#60646c;fill-opacity:1"
             inkscape:connector-curvature="0"
             id="path5579"
             d="m 1008.7193,2287.2698 -13.62305,-21.3794 -1.27441,-2.3291 0.13183,2.3291 0,21.3794 -4.68017,0 0,-31.5088 4.72412,0 13.29348,21.0278 1.2964,2.417 -0.1319,-2.373 0,-21.0718 4.6802,0 0,31.5088 -4.4165,0 z" />
          <path
             style="fill:#60646c;fill-opacity:1"
             inkscape:connector-curvature="0"
             id="path5581"
             d="m 1038.2286,2287.2698 -4.4824,0 0,-1.9776 q -0.4395,0.4615 -1.0547,0.9229 -0.6153,0.4394 -1.4063,0.813 -0.769,0.3515 -1.7358,0.5713 -0.9668,0.2197 -2.1094,0.2197 -1.7578,0 -3.252,-0.4834 -1.4941,-0.4834 -2.5927,-1.4502 -1.0987,-0.9888 -1.7359,-2.417 -0.6152,-1.4502 -0.6152,-3.3618 0,-1.9775 0.7471,-3.4058 0.747,-1.4502 1.9775,-2.373 1.2305,-0.9448 2.8125,-1.3843 1.604,-0.4394 3.2959,-0.4394 1.582,0 3.0322,0.3515 1.4722,0.3296 2.6368,1.0108 l 0,-1.2745 q 0,-1.2963 -0.3077,-2.1972 -0.2856,-0.9009 -0.9008,-1.4502 -0.5933,-0.5713 -1.5162,-0.813 -0.9228,-0.2637 -2.1972,-0.2637 -2.1533,0 -3.7354,0.5713 -1.56,0.5713 -2.8344,1.5161 l -1.3843,-3.8452 q 0.7031,-0.4834 1.604,-0.9009 0.9009,-0.4394 1.9775,-0.769 1.0767,-0.3296 2.3291,-0.5054 1.2525,-0.1977 2.6807,-0.1977 0.9668,0 1.9995,0.1098 1.0327,0.1099 1.9995,0.4395 0.9888,0.3076 1.8457,0.9009 0.8789,0.5932 1.5161,1.56 0.6592,0.9448 1.0327,2.3291 0.3736,1.3843 0.3736,3.2959 l 0,14.8975 z m -9.9317,-3.6035 q 1.7798,0 3.1421,-0.7251 1.3843,-0.7251 2.3072,-1.7359 l 0,-3.5156 q -0.9668,-0.5054 -2.2632,-0.813 -1.2964,-0.3076 -2.6587,-0.3076 -1.0547,0 -1.9776,0.1977 -0.9228,0.1978 -1.6259,0.6373 -0.6812,0.4174 -1.0767,1.0986 -0.3955,0.6592 -0.3955,1.604 0,1.6479 1.1426,2.6147 1.1645,0.9449 3.4057,0.9449 z" />
          <path
             style="fill:#60646c;fill-opacity:1"
             inkscape:connector-curvature="0"
             id="path5583"
             d="m 1044.6006,2287.2698 0,-23.0054 4.6802,0 0,2.7905 q 0.813,-1.7578 2.1094,-2.5268 1.2964,-0.791 3.0103,-0.791 2.2851,0 3.8671,1.3842 l -0.6811,4.3287 q -0.6372,-0.4395 -1.5161,-0.7691 -0.857,-0.3516 -2.1094,-0.3516 -0.791,0 -1.626,0.2857 -0.813,0.2637 -1.4941,0.9668 -0.6812,0.6811 -1.1206,1.8457 -0.4395,1.1426 -0.4395,2.9224 l 0,12.9199 -4.6802,0 z" />
          <path
             style="fill:#60646c;fill-opacity:1"
             inkscape:connector-curvature="0"
             id="path5585"
             d="m 1062.838,2287.2698 0,-23.0054 4.6801,0 0,23.0054 -4.6801,0 z m 2.3291,-26.5869 q -0.5933,0 -1.1207,-0.2198 -0.5053,-0.2197 -0.9008,-0.5932 -0.3736,-0.3955 -0.5933,-0.9009 -0.2197,-0.5273 -0.2197,-1.1206 0,-0.5933 0.2197,-1.0986 0.2197,-0.5274 0.5933,-0.9009 0.3955,-0.3955 0.9008,-0.6153 0.5274,-0.2197 1.1207,-0.2197 0.5932,0 1.0986,0.2197 0.5273,0.2198 0.9009,0.6153 0.3955,0.3735 0.6152,0.9009 0.2197,0.5053 0.2197,1.0986 0,0.5933 -0.2197,1.1206 -0.2197,0.5054 -0.6152,0.9009 -0.3736,0.3735 -0.9009,0.5932 -0.5054,0.2198 -1.0986,0.2198 z" />
          <path
             style="fill:#60646c;fill-opacity:1"
             inkscape:connector-curvature="0"
             id="path5587"
             d="m 1080.9654,2287.8191 q -1.3623,0 -2.3511,-0.4175 -0.9668,-0.3955 -1.604,-1.1426 -0.6152,-0.747 -0.9009,-1.8017 -0.2856,-1.0767 -0.2856,-2.3731 l 0,-13.7549 -3.5596,0 0,-4.0649 3.5596,0 0,-7.229 4.6802,-2.2632 0,9.4922 5.4492,0 0,4.0649 -5.4492,0 0,12.5464 q 0,0.5713 0.088,1.0547 0.1098,0.4834 0.3515,0.835 0.2637,0.3515 0.7031,0.5493 0.4395,0.1758 1.1207,0.1758 1.6699,0 3.4057,-1.0767 l -0.5713,4.3506 q -0.9668,0.4834 -2.1094,0.769 -1.1425,0.2857 -2.5268,0.2857 z" />
          <path
             style="fill:#60646c;fill-opacity:1"
             inkscape:connector-curvature="0"
             id="path5589"
             d="m 1108.9805,2287.2698 -4.4824,0 0,-1.9776 q -0.4394,0.4615 -1.0547,0.9229 -0.6152,0.4394 -1.4062,0.813 -0.7691,0.3515 -1.7359,0.5713 -0.9668,0.2197 -2.1093,0.2197 -1.7579,0 -3.252,-0.4834 -1.4941,-0.4834 -2.5928,-1.4502 -1.0986,-0.9888 -1.7358,-2.417 -0.6152,-1.4502 -0.6152,-3.3618 0,-1.9775 0.747,-3.4058 0.7471,-1.4502 1.9776,-2.373 1.2304,-0.9448 2.8125,-1.3843 1.604,-0.4394 3.2959,-0.4394 1.582,0 3.0322,0.3515 1.4722,0.3296 2.6367,1.0108 l 0,-1.2745 q 0,-1.2963 -0.3076,-2.1972 -0.2857,-0.9009 -0.9009,-1.4502 -0.5932,-0.5713 -1.5161,-0.813 -0.9229,-0.2637 -2.1973,-0.2637 -2.1533,0 -3.7353,0.5713 -1.5601,0.5713 -2.8345,1.5161 l -1.3843,-3.8452 q 0.7032,-0.4834 1.604,-0.9009 0.9009,-0.4394 1.9776,-0.769 1.0766,-0.3296 2.3291,-0.5054 1.2524,-0.1977 2.6806,-0.1977 0.9668,0 1.9996,0.1098 1.0327,0.1099 1.9995,0.4395 0.9887,0.3076 1.8457,0.9009 0.8789,0.5932 1.5161,1.56 0.6592,0.9448 1.0327,2.3291 0.3735,1.3843 0.3735,3.2959 l 0,14.8975 z m -9.9316,-3.6035 q 1.7798,0 3.1421,-0.7251 1.3843,-0.7251 2.3071,-1.7359 l 0,-3.5156 q -0.9668,-0.5054 -2.2632,-0.813 -1.2964,-0.3076 -2.6587,-0.3076 -1.0547,0 -1.9775,0.1977 -0.9229,0.1978 -1.626,0.6373 -0.6811,0.4174 -1.0766,1.0986 -0.3956,0.6592 -0.3956,1.604 0,1.6479 1.1426,2.6147 1.1646,0.9449 3.4058,0.9449 z" />
        </g>
        <g
           style="fill:#60646c;fill-opacity:1"
           transform="translate(-2.999874,-115.23388)"
           id="g5500">
          <g
             style="fill:#60646c;fill-opacity:1"
             transform="translate(6,54)"
             id="g5506">
            <path
               d="m 860.23822,2371.6595 0,2.9883 11.95313,0 0,16.5235 -3.51563,0 0,-1.0547 -7.20703,0 q 7.38281,6.1523 17.05078,8.6132 l -1.75781,4.2188 q -8.08594,-2.1094 -16.52344,-10.0195 l 0,11.6015 -3.51562,0 0,-10.8984 q -6.15235,6.6797 -15.82032,9.8437 l -1.75781,-3.6914 q 10.54688,-3.3398 16.69922,-9.6679 l -7.55859,0 0,1.582 -3.51563,0 0,-17.0508 11.95313,0 0,-2.9883 -17.40235,0 0,-3.3398 17.40235,0 0,-4.043 3.33984,0 q 1.40625,0.1758 0.17578,1.0547 l 0,2.9883 17.05078,0 0,3.3398 -17.05078,0 z m 0,15.6446 8.4375,0 0,-3.5157 -8.4375,0 0,3.5157 z m 0,-6.3282 8.4375,0 0,-3.5156 -8.4375,0 0,3.5156 z m -11.95312,6.3282 8.4375,0 0,-3.5157 -8.4375,0 0,3.5157 z m 0,-6.3282 8.4375,0 0,-3.5156 -8.4375,0 0,3.5156 z"
               style="font-style:normal;font-variant:normal;font-weight:300;font-stretch:normal;font-size:medium;line-height:125%;font-family:Overpass;-inkscape-font-specification:'Overpass, Light';text-align:start;letter-spacing:0px;word-spacing:0px;writing-mode:lr-tb;text-anchor:start;fill:#60646c;fill-opacity:1;stroke:none;stroke-width:1px;stroke-linecap:butt;stroke-linejoin:miter;stroke-opacity:1"
               id="path5476"
               inkscape:connector-curvature="0" />
            <path
               d="m 928.88081,2394.8627 q -4.04297,4.7461 -10.54688,8.0859 l -2.10937,-4.043 q 6.67969,-3.164 10.54687,-7.7343 l 3.16407,2.9882 q 0.52734,0.8789 -1.05469,0.7032 z m 23.73047,7.5586 q -7.20703,-2.6368 -11.42578,-8.7891 l 3.16406,-2.4609 q 3.6914,4.9218 10.54687,7.3828 l -2.28515,3.8672 z m -15.11719,-38.1446 q 1.75781,0.3516 0.17578,1.4063 l 0,3.5156 17.57813,0 0,3.3398 -38.84766,0 0,-3.3398 17.22656,0 0,-4.9219 3.86719,0 z m 8.08594,24.2578 -7.5586,0 0,13.0078 q 0,2.8125 -2.8125,2.8125 l -4.57031,0 -0.70312,-3.8671 3.86718,0 q 0.70313,0 0.70313,-0.7032 l 0,-11.25 -8.78906,0 0,1.5821 -3.51563,0 0,-14.2383 26.89453,0 0,13.7109 -3.51562,0 0,-1.0547 z m -19.86328,-9.3164 0,5.9766 19.86328,0 0,-5.9766 -19.86328,0 z"
               style="font-style:normal;font-variant:normal;font-weight:300;font-stretch:normal;font-size:medium;line-height:125%;font-family:Overpass;-inkscape-font-specification:'Overpass, Light';text-align:start;letter-spacing:0px;word-spacing:0px;writing-mode:lr-tb;text-anchor:start;fill:#60646c;fill-opacity:1;stroke:none;stroke-width:1px;stroke-linecap:butt;stroke-linejoin:miter;stroke-opacity:1"
               id="path5478"
               inkscape:connector-curvature="0" />
            <path
               d="m 1019.6718,2389.2377 q 2.9883,-4.5704 5.2735,-11.25 l 3.3398,1.9336 q 1.2305,0.7031 -0.3516,1.0546 -2.6367,6.5039 -6.3281,12.1289 3.8672,5.4493 5.8008,5.4493 1.582,0 2.1094,-4.2188 l 3.3398,1.7578 q -1.4062,7.0313 -3.8672,7.0313 -4.9219,0 -9.8437,-7.5586 -4.9219,5.4492 -11.4258,8.6133 l -2.1094,-3.3399 q 8.2617,-4.0429 11.6016,-8.6133 -2.461,-5.9765 -2.461,-15.8203 l 0,-1.582 -14.94142,0 0,6.1523 11.25002,0 -0.3515,11.9532 q -0.1758,3.3398 -2.6367,3.3398 l -4.5704,0 -0.5274,-3.3398 2.9884,0 q 1.4062,0 1.4062,-1.4063 l 0.3516,-7.207 -7.91022,0 0,5.0976 q 0,8.7891 -4.39453,14.4141 l -2.98828,-2.4609 q 3.86718,-4.7461 3.86718,-11.4258 l 0,-18.457 18.45705,0 0,-7.5586 3.3399,0 q 1.4062,0.1757 0.1758,1.0546 l 0,6.504 13.3593,0 0,3.3398 -13.3593,0 0,1.582 q 0,8.2617 1.4062,12.8321 z m 2.8125,-24.7852 q 2.8125,1.4063 4.9219,3.5156 l -2.6367,2.6367 q -1.7578,-1.9335 -4.7461,-3.6914 l 2.4609,-2.4609 z"
               style="font-style:normal;font-variant:normal;font-weight:300;font-stretch:normal;font-size:medium;line-height:125%;font-family:Overpass;-inkscape-font-specification:'Overpass, Light';text-align:start;letter-spacing:0px;word-spacing:0px;writing-mode:lr-tb;text-anchor:start;fill:#60646c;fill-opacity:1;stroke:none;stroke-width:1px;stroke-linecap:butt;stroke-linejoin:miter;stroke-opacity:1"
               id="path5480"
               inkscape:connector-curvature="0" />
            <path
               d="m 1087.6991,2385.3705 -10.5469,0 0,10.7226 10.5469,0 0,-10.7226 z m 0,-3.3399 0,-10.3711 -10.5469,0 0,10.3711 10.5469,0 z m 3.5156,-10.3711 0,10.3711 10.7227,0 0,-10.3711 -10.7227,0 z m 10.7227,24.4336 0,-10.7226 -10.7227,0 0,10.7226 10.7227,0 z m 4.043,5.4492 -4.043,0 0,-2.1093 -24.7852,0 0,2.6367 -4.0429,0 0,-33.75 32.8711,0 0,33.2226 z"
               style="font-style:normal;font-variant:normal;font-weight:300;font-stretch:normal;font-size:medium;line-height:125%;font-family:Overpass;-inkscape-font-specification:'Overpass, Light';text-align:start;letter-spacing:0px;word-spacing:0px;writing-mode:lr-tb;text-anchor:start;fill:#60646c;fill-opacity:1;stroke:none;stroke-width:1px;stroke-linecap:butt;stroke-linejoin:miter;stroke-opacity:1"
               id="path5482"
               inkscape:connector-curvature="0" />
          </g>
        </g>
      </g>
    </g>
    <g
       style="font-style:normal;font-variant:normal;font-weight:300;font-stretch:normal;font-size:12.5px;line-height:125%;font-family:Overpass;-inkscape-font-specification:'Overpass, Light';text-align:end;letter-spacing:0px;word-spacing:0px;writing-mode:lr-tb;text-anchor:end;fill:#60646c;fill-opacity:1;stroke:none;stroke-width:1px;stroke-linecap:butt;stroke-linejoin:miter;stroke-opacity:1"
       id="text4220">
      <path
         d="m 1151.057,-45.075029 q -0.675,0 -1.075,-0.2375 -0.4,-0.2375 -0.675,-0.5625 l 0,2.75 -0.875,0.4375 0,-8.925 0.875,0 0,0.575 q 0.3125,-0.2875 0.7,-0.5 0.4,-0.225 1.05,-0.225 0.6125,0 1.1,0.2375 0.4875,0.2375 0.825,0.675 0.35,0.4375 0.525,1.0625 0.1875,0.6125 0.1875,1.3625 0,0.8 -0.2,1.425 -0.1875,0.625 -0.5375,1.05 -0.35,0.425 -0.8375,0.65 -0.4875,0.225 -1.0625,0.225 z m -0.1,-0.7875 q 0.875,0 1.35,-0.65 0.475,-0.6625 0.475,-1.9125 0,-1.175 -0.4875,-1.8625 -0.475,-0.6875 -1.3375,-0.6875 -0.525,0 -0.9625,0.2625 -0.425,0.25 -0.6875,0.725 l 0,3.1375 q 0.325,0.425 0.725,0.7125 0.4,0.275 0.925,0.275 z"
         style=""
         id="path4231" />
      <path
         d="m 1158.1377,-45.075029 q -0.3375,0 -0.6,-0.0625 -0.2625,-0.0625 -0.475,-0.1625 -0.2,-0.1125 -0.375,-0.2375 -0.175,-0.125 -0.325,-0.2625 l 0,0.575 -0.875,0 0,-8.5875 0.875,-0.4375 0,3.2625 q 0.3125,-0.3375 0.7625,-0.55 0.4625,-0.225 0.9375,-0.225 0.6,0 1.0875,0.225 0.4875,0.225 0.825,0.6625 0.35,0.425 0.5375,1.05 0.1875,0.6125 0.1875,1.4 0,1.6375 -0.675,2.5 -0.675,0.85 -1.8875,0.85 z m -0.1375,-0.7875 q 0.9,0 1.3375,-0.6875 0.45,-0.6875 0.45,-1.875 0,-1.2375 -0.45,-1.8875 -0.4375,-0.6625 -1.3375,-0.6625 -0.3,0 -0.5625,0.1 -0.25,0.0875 -0.4625,0.2375 -0.2125,0.1375 -0.375,0.3125 -0.15,0.175 -0.2375,0.325 l 0,3.1375 q 0.2625,0.45 0.7125,0.725 0.45,0.275 0.925,0.275 z"
         style=""
         id="path4233" />
      <path
         d="m 1164.7945,-45.862529 q 0.875,0 1.35,-0.675 0.475,-0.675 0.475,-1.8875 0,-1.2 -0.4625,-1.875 -0.4625,-0.675 -1.3625,-0.675 -0.9,0 -1.3625,0.6625 -0.4625,0.65 -0.4625,1.9 0,1.2 0.4625,1.875 0.4625,0.675 1.3625,0.675 z m 0,-5.9 q 0.6125,0 1.1125,0.225 0.5125,0.225 0.8625,0.65 0.3625,0.425 0.5625,1.05 0.2,0.6125 0.2,1.4125 0,0.7875 -0.2,1.4125 -0.2,0.625 -0.5625,1.0625 -0.35,0.425 -0.8625,0.65 -0.5,0.225 -1.1125,0.225 -0.6125,0 -1.125,-0.225 -0.5,-0.225 -0.8625,-0.65 -0.35,-0.425 -0.55,-1.0375 -0.2,-0.625 -0.2,-1.425 0,-0.7875 0.2,-1.4 0.2,-0.625 0.55,-1.05 0.3625,-0.4375 0.8625,-0.6625 0.5125,-0.2375 1.125,-0.2375 z"
         style=""
         id="path4235" />
      <path
         d="m 1170.7304,-43.250029 q 0.775,-0.0375 1.2625,-0.2 0.5,-0.15 0.775,-0.3875 0.2875,-0.225 0.3875,-0.525 0.1,-0.2875 0.1,-0.6125 l 0,-0.975 q -0.275,0.4 -0.6875,0.6375 -0.4,0.2375 -1.0625,0.2375 -0.5125,0 -0.9875,-0.2125 -0.475,-0.2125 -0.8375,-0.625 -0.3625,-0.425 -0.575,-1.05 -0.2125,-0.625 -0.2125,-1.4625 0,-0.7875 0.1875,-1.4 0.2,-0.625 0.55,-1.05 0.3625,-0.4375 0.85,-0.6625 0.4875,-0.225 1.075,-0.225 0.3625,0 0.6375,0.0875 0.2875,0.075 0.4875,0.2 0.2125,0.1125 0.35,0.25 0.15,0.125 0.225,0.2125 l 0,-0.6 0.875,0 0,6.2875 q 0,0.7875 -0.25,1.3 -0.25,0.525 -0.6625,0.8375 -0.4125,0.325 -0.9625,0.4625 -0.5375,0.1375 -1.125,0.1625 l -0.4,-0.6875 z m 0.975,-2.6125 q 0.4,0 0.8375,-0.275 0.45,-0.2875 0.7125,-0.7875 l 0,-3.075 q -0.1375,-0.2375 -0.3375,-0.4125 -0.1875,-0.1875 -0.4,-0.3125 -0.2125,-0.125 -0.425,-0.1875 -0.2125,-0.0625 -0.3875,-0.0625 -0.95,0 -1.425,0.6625 -0.475,0.65 -0.475,1.8875 0,0.6125 0.1375,1.0875 0.15,0.475 0.4,0.8125 0.2625,0.325 0.6,0.5 0.35,0.1625 0.7625,0.1625 z"
         style=""
         id="path4237" />
      <path
         d="m 1180.0611,-45.225029 0,-0.625 q -0.3875,0.35 -0.875,0.5625 -0.475,0.2125 -1,0.2125 -0.9625,0 -1.575,-0.5375 -0.6,-0.55 -0.6,-1.625 0,-0.55 0.1875,-0.95 0.2,-0.4 0.5125,-0.65 0.325,-0.2625 0.75,-0.3875 0.425,-0.125 0.875,-0.125 0.4,0 0.825,0.1 0.425,0.1 0.9,0.35 l 0,-0.5375 q 0,-0.4875 -0.125,-0.7875 -0.1125,-0.3 -0.3125,-0.475 -0.1875,-0.175 -0.45,-0.2375 -0.25,-0.0625 -0.5125,-0.0625 -0.2375,0 -0.5,0.0625 -0.2625,0.0625 -0.5125,0.1625 -0.25,0.1 -0.4875,0.225 -0.225,0.1125 -0.4,0.2375 l -0.25,-0.75 q 0.3875,-0.25 0.975,-0.475 0.6,-0.225 1.2625,-0.225 0.3375,0 0.7125,0.1 0.375,0.0875 0.6875,0.3375 0.3125,0.2375 0.5125,0.675 0.2125,0.425 0.2125,1.1 l 0,4.325 -0.8125,0 z m -1.7875,-0.6125 q 0.2875,0 0.55,-0.0875 0.2625,-0.0875 0.4875,-0.225 0.225,-0.1375 0.4125,-0.3125 0.1875,-0.1875 0.3375,-0.3625 l 0,-1.2375 q -0.3125,-0.2125 -0.775,-0.3625 -0.45,-0.1625 -0.8625,-0.1625 -0.325,0 -0.6125,0.0875 -0.2875,0.075 -0.5125,0.25 -0.2125,0.1625 -0.35,0.4125 -0.125,0.25 -0.125,0.6 0,0.6375 0.375,1.025 0.375,0.375 1.075,0.375 z"
         style=""
         id="path4239" />
      <path
         d="m 1182.8802,-45.225029 0,-6.3875 0.875,0 0,0.9 q 0.35,-0.525 0.8125,-0.7875 0.4625,-0.2625 0.9,-0.2625 0.475,0 0.8,0.2625 l -0.1375,0.85 q -0.125,-0.075 -0.325,-0.15 -0.1875,-0.0875 -0.5,-0.0875 -0.2125,0 -0.4875,0.1 -0.2625,0.1 -0.5,0.3375 -0.2375,0.2375 -0.4,0.6375 -0.1625,0.3875 -0.1625,0.975 l 0,3.6125 -0.875,0 z"
         style=""
         id="path4241" />
      <path
         d="m 1189.548,-45.075029 q -0.6125,0 -1.1,-0.2375 -0.4875,-0.2375 -0.8375,-0.675 -0.3375,-0.4375 -0.525,-1.05 -0.175,-0.625 -0.175,-1.3875 0,-1.5875 0.7,-2.4625 0.7125,-0.875 1.9375,-0.875 0.6,0 1,0.1875 0.4125,0.175 0.7,0.4125 l 0,-2.65 0.875,-0.4375 0,9.025 -0.875,0 0,-0.55 q -0.2875,0.2875 -0.7,0.5 -0.4,0.2 -1,0.2 z m 0.1,-0.7875 q 0.475,0 0.9,-0.2625 0.4375,-0.2625 0.7,-0.7375 l 0,-3.1875 q -0.1,-0.1625 -0.25,-0.325 -0.15,-0.1625 -0.35,-0.2875 -0.1875,-0.1375 -0.45,-0.225 -0.25,-0.0875 -0.55,-0.0875 -0.8875,0 -1.3625,0.6625 -0.4625,0.65 -0.4625,1.8875 0,0.5375 0.125,1.0125 0.125,0.4625 0.3625,0.8125 0.2375,0.3375 0.575,0.5375 0.3375,0.2 0.7625,0.2 z"
         style=""
         id="path4243" />
      <path
         d="m 1194.6668,-45.050029 q -0.3375,0 -0.5625,-0.2375 -0.225,-0.25 -0.225,-0.55 0,-0.3 0.225,-0.5375 0.225,-0.25 0.5625,-0.25 0.3375,0 0.5625,0.25 0.225,0.2375 0.225,0.5375 0,0.3 -0.225,0.55 -0.225,0.2375 -0.5625,0.2375 z"
         style=""
         id="path4245" />
      <path
         d="m 1198.8594,-45.075029 q -1.1625,0 -1.85,-0.8625 -0.675,-0.875 -0.675,-2.475 0,-1.5875 0.6875,-2.4625 0.7,-0.8875 1.9375,-0.8875 0.7125,0 1.25,0.35 0.5375,0.3375 0.8,0.9875 l -0.8,0.3125 q -0.15,-0.3625 -0.4625,-0.6125 -0.3,-0.25 -0.825,-0.25 -0.45,0 -0.7625,0.1875 -0.3125,0.175 -0.525,0.5125 -0.2,0.325 -0.3,0.8 -0.087,0.475 -0.087,1.0625 0,1.2125 0.4,1.8875 0.4,0.6625 1.25,0.6625 0.525,0 0.8875,-0.2625 0.3625,-0.2625 0.525,-0.7125 l 0.7875,0.3 q -0.225,0.675 -0.825,1.075 -0.5875,0.3875 -1.4125,0.3875 z"
         style=""
         id="path4247" />
      <path
         d="m 1205.0777,-45.862529 q 0.875,0 1.35,-0.675 0.475,-0.675 0.475,-1.8875 0,-1.2 -0.4625,-1.875 -0.4625,-0.675 -1.3625,-0.675 -0.9,0 -1.3625,0.6625 -0.4625,0.65 -0.4625,1.9 0,1.2 0.4625,1.875 0.4625,0.675 1.3625,0.675 z m 0,-5.9 q 0.6125,0 1.1125,0.225 0.5125,0.225 0.8625,0.65 0.3625,0.425 0.5625,1.05 0.2,0.6125 0.2,1.4125 0,0.7875 -0.2,1.4125 -0.2,0.625 -0.5625,1.0625 -0.35,0.425 -0.8625,0.65 -0.5,0.225 -1.1125,0.225 -0.6125,0 -1.125,-0.225 -0.5,-0.225 -0.8625,-0.65 -0.35,-0.425 -0.55,-1.0375 -0.2,-0.625 -0.2,-1.425 0,-0.7875 0.2,-1.4 0.2,-0.625 0.55,-1.05 0.3625,-0.4375 0.8625,-0.6625 0.5125,-0.2375 1.125,-0.2375 z"
         style=""
         id="path4249" />
      <path
         d="m 1215.7761,-51.762529 q 0.4625,0 0.8625,0.1625 0.4,0.1625 0.6875,0.4625 0.3,0.2875 0.4625,0.7125 0.175,0.425 0.175,0.95 l 0,4.25 -0.875,0 0,-3.9125 q 0,-0.3 -0.05,-0.625 -0.05,-0.325 -0.2,-0.5875 -0.1375,-0.275 -0.4125,-0.45 -0.275,-0.175 -0.725,-0.175 -0.3625,0 -0.6375,0.15 -0.275,0.15 -0.4625,0.4 -0.1875,0.25 -0.2875,0.5875 -0.087,0.325 -0.087,0.7 l 0,3.9125 -0.875,0 0,-3.9125 q 0,-0.3 -0.05,-0.625 -0.05,-0.325 -0.2,-0.5875 -0.1375,-0.275 -0.4125,-0.45 -0.275,-0.175 -0.725,-0.175 -0.375,0 -0.65,0.1375 -0.275,0.125 -0.4625,0.3625 -0.175,0.2375 -0.275,0.55 -0.088,0.3125 -0.088,0.6875 l 0,4.0125 -0.875,0 0,-6.3875 0.875,0 0,0.625 q 0.6625,-0.775 1.7375,-0.775 0.5125,0 0.975,0.2625 0.475,0.25 0.75,0.7125 0.2625,-0.4 0.725,-0.6875 0.475,-0.2875 1.1,-0.2875 z"
         style=""
         id="path4251" />
      <path
         d="m 1219.0355,-43.600029 4.9125,-10.525 0.85,0 -4.9125,10.525 -0.85,0 z"
         style=""
         id="path4253" />
      <path
         d="m 1227.8396,-45.075029 q -0.6875,0 -0.975,-0.4125 -0.2875,-0.425 -0.2875,-1.05 l 0,-4.2875 -1.0875,0 0,-0.7875 1.0875,0 0,-2.2 0.875,-0.4375 0,2.6375 1.625,0 0,0.7875 -1.625,0 0,3.9125 q 0,0.2125 0.013,0.4 0.025,0.175 0.1,0.3125 0.075,0.1375 0.2125,0.225 0.1375,0.075 0.3625,0.075 0.325,0 0.55,-0.125 0.2375,-0.125 0.4125,-0.25 l -0.1,0.9125 q -0.25,0.1375 -0.525,0.2125 -0.275,0.075 -0.6375,0.075 z"
         style=""
         id="path4255" />
      <path
         d="m 1231.2193,-48.062529 q 0.1125,0.975 0.5875,1.575 0.475,0.6 1.3,0.6 0.35,0 0.7125,-0.1125 0.3625,-0.1125 0.725,-0.3875 l 0.475,0.5875 q -0.375,0.3125 -0.8875,0.525 -0.5,0.2 -1.0625,0.2 -0.65,0 -1.1625,-0.2625 -0.5125,-0.275 -0.875,-0.7375 -0.35,-0.4625 -0.55,-1.0625 -0.1875,-0.6125 -0.1875,-1.2875 0,-0.8 0.2,-1.4125 0.2125,-0.625 0.575,-1.05 0.3625,-0.425 0.875,-0.65 0.5125,-0.225 1.125,-0.225 0.5125,0 0.9625,0.1875 0.4625,0.175 0.8125,0.55 0.35,0.375 0.55,0.9625 0.2,0.5875 0.2,1.3875 0,0.1 0,0.25 0,0.15 -0.025,0.3625 l -4.35,0 z m 1.85,-2.9125 q -0.775,0 -1.3,0.5125 -0.5125,0.5125 -0.575,1.6125 l 3.5125,0 q 0,-0.65 -0.1625,-1.0625 -0.1625,-0.4125 -0.4125,-0.65 -0.2375,-0.2375 -0.525,-0.325 -0.2875,-0.0875 -0.5375,-0.0875 z"
         style=""
         id="path4257" />
      <path
         d="m 1237.348,-45.225029 0,-6.3875 0.875,0 0,0.9 q 0.35,-0.525 0.8125,-0.7875 0.4625,-0.2625 0.9,-0.2625 0.475,0 0.8,0.2625 l -0.1375,0.85 q -0.125,-0.075 -0.325,-0.15 -0.1875,-0.0875 -0.5,-0.0875 -0.2125,0 -0.4875,0.1 -0.2625,0.1 -0.5,0.3375 -0.2375,0.2375 -0.4,0.6375 -0.1625,0.3875 -0.1625,0.975 l 0,3.6125 -0.875,0 z"
         style=""
         id="path4259" />
      <path
         d="m 1248.2713,-51.762529 q 0.4625,0 0.8625,0.1625 0.4,0.1625 0.6875,0.4625 0.3,0.2875 0.4625,0.7125 0.175,0.425 0.175,0.95 l 0,4.25 -0.875,0 0,-3.9125 q 0,-0.3 -0.05,-0.625 -0.05,-0.325 -0.2,-0.5875 -0.1375,-0.275 -0.4125,-0.45 -0.275,-0.175 -0.725,-0.175 -0.3625,0 -0.6375,0.15 -0.275,0.15 -0.4625,0.4 -0.1875,0.25 -0.2875,0.5875 -0.088,0.325 -0.088,0.7 l 0,3.9125 -0.875,0 0,-3.9125 q 0,-0.3 -0.05,-0.625 -0.05,-0.325 -0.2,-0.5875 -0.1375,-0.275 -0.4125,-0.45 -0.275,-0.175 -0.725,-0.175 -0.375,0 -0.65,0.1375 -0.275,0.125 -0.4625,0.3625 -0.175,0.2375 -0.275,0.55 -0.088,0.3125 -0.088,0.6875 l 0,4.0125 -0.875,0 0,-6.3875 0.875,0 0,0.625 q 0.6625,-0.775 1.7375,-0.775 0.5125,0 0.975,0.2625 0.475,0.25 0.75,0.7125 0.2625,-0.4 0.725,-0.6875 0.475,-0.2875 1.1,-0.2875 z"
         style=""
         id="path4261" />
      <path
         d="m 1252.6681,-45.225029 0,-6.3875 0.875,0 0,6.3875 -0.875,0 z m 0.4375,-7.7 q -0.25,0 -0.4125,-0.1625 -0.1625,-0.1625 -0.1625,-0.4125 0,-0.25 0.1625,-0.425 0.1625,-0.175 0.4125,-0.175 0.25,0 0.4125,0.175 0.1625,0.175 0.1625,0.425 0,0.25 -0.1625,0.4125 -0.1625,0.1625 -0.4125,0.1625 z"
         style=""
         id="path4263" />
      <path
         d="m 1256.6801,-50.912529 q 0.3,-0.4375 0.7125,-0.6375 0.425,-0.2125 0.9375,-0.2125 1.175,0 1.725,0.7125 0.5625,0.7 0.5625,2.2875 l 0,3.5375 -0.875,0 0,-3.9 q 0,-1.0125 -0.425,-1.425 -0.425,-0.425 -1.0625,-0.425 -0.3375,0 -0.625,0.0875 -0.2875,0.0875 -0.5,0.3 -0.2125,0.2125 -0.3375,0.5625 -0.1125,0.35 -0.1125,0.875 l 0,3.925 -0.875,0 0,-6.3875 0.875,0 0,0.7 z"
         style=""
         id="path4265" />
      <path
         d="m 1266.4869,-45.225029 0,-0.625 q -0.3875,0.35 -0.875,0.5625 -0.475,0.2125 -1,0.2125 -0.9625,0 -1.575,-0.5375 -0.6,-0.55 -0.6,-1.625 0,-0.55 0.1875,-0.95 0.2,-0.4 0.5125,-0.65 0.325,-0.2625 0.75,-0.3875 0.425,-0.125 0.875,-0.125 0.4,0 0.825,0.1 0.425,0.1 0.9,0.35 l 0,-0.5375 q 0,-0.4875 -0.125,-0.7875 -0.1125,-0.3 -0.3125,-0.475 -0.1875,-0.175 -0.45,-0.2375 -0.25,-0.0625 -0.5125,-0.0625 -0.2375,0 -0.5,0.0625 -0.2625,0.0625 -0.5125,0.1625 -0.25,0.1 -0.4875,0.225 -0.225,0.1125 -0.4,0.2375 l -0.25,-0.75 q 0.3875,-0.25 0.975,-0.475 0.6,-0.225 1.2625,-0.225 0.3375,0 0.7125,0.1 0.375,0.0875 0.6875,0.3375 0.3125,0.2375 0.5125,0.675 0.2125,0.425 0.2125,1.1 l 0,4.325 -0.8125,0 z m -1.7875,-0.6125 q 0.2875,0 0.55,-0.0875 0.2625,-0.0875 0.4875,-0.225 0.225,-0.1375 0.4125,-0.3125 0.1875,-0.1875 0.3375,-0.3625 l 0,-1.2375 q -0.3125,-0.2125 -0.775,-0.3625 -0.45,-0.1625 -0.8625,-0.1625 -0.325,0 -0.6125,0.0875 -0.2875,0.075 -0.5125,0.25 -0.2125,0.1625 -0.35,0.4125 -0.125,0.25 -0.125,0.6 0,0.6375 0.375,1.025 0.375,0.375 1.075,0.375 z"
         style=""
         id="path4267" />
      <path
         d="m 1269.3685,-45.225029 0,-8.6 0.875,-0.425 0,9.025 -0.875,0 z"
         style=""
         id="path4269" />
      <path
         d="m 1272.5531,-48.525029 0,-0.85 2.7875,0 0,0.85 -2.7875,0 z"
         style=""
         id="path4271" />
      <path
         d="m 1280.7699,-50.300029 q -0.25,-0.25 -0.625,-0.4625 -0.375,-0.225 -0.9,-0.225 -0.5625,0 -0.8875,0.225 -0.325,0.225 -0.325,0.6125 0,0.25 0.125,0.425 0.125,0.175 0.325,0.325 0.2,0.1375 0.4625,0.25 0.2625,0.1125 0.55,0.225 0.35,0.1375 0.7125,0.3125 0.375,0.1625 0.6625,0.4 0.2875,0.2375 0.475,0.575 0.1875,0.325 0.1875,0.8125 0,0.8 -0.575,1.275 -0.575,0.475 -1.575,0.475 -0.65,0 -1.225,-0.3125 -0.575,-0.325 -0.975,-0.8 l 0.6125,-0.5375 q 0.2875,0.35 0.725,0.6125 0.4375,0.2625 0.9375,0.2625 0.525,0 0.8875,-0.2375 0.3625,-0.2375 0.3625,-0.6875 0,-0.2875 -0.1375,-0.5 -0.1375,-0.225 -0.3625,-0.3875 -0.225,-0.1625 -0.5125,-0.2875 -0.2875,-0.1375 -0.575,-0.25 -0.375,-0.15 -0.725,-0.325 -0.35,-0.175 -0.6125,-0.4 -0.2625,-0.225 -0.425,-0.5125 -0.15,-0.3 -0.15,-0.7 0,-0.3625 0.15,-0.6625 0.1625,-0.3 0.425,-0.5125 0.275,-0.2125 0.65,-0.325 0.3875,-0.125 0.8375,-0.125 0.65,0 1.1625,0.2625 0.525,0.25 0.9125,0.7125 l -0.575,0.4875 z"
         style=""
         id="path4273" />
      <path
         d="m 1283.381,-45.225029 0,-6.3875 0.875,0 0,6.3875 -0.875,0 z m 0.4375,-7.7 q -0.25,0 -0.4125,-0.1625 -0.1625,-0.1625 -0.1625,-0.4125 0,-0.25 0.1625,-0.425 0.1625,-0.175 0.4125,-0.175 0.25,0 0.4125,0.175 0.1625,0.175 0.1625,0.425 0,0.25 -0.1625,0.4125 -0.1625,0.1625 -0.4125,0.1625 z"
         style=""
         id="path4275" />
      <path
         d="m 1286.5804,-45.225029 0,-8.6 0.875,-0.425 0,9.025 -0.875,0 z"
         style=""
         id="path4277" />
      <path
         d="m 1292.29,-51.762529 q 1.175,0 1.725,0.7125 0.5625,0.7 0.5625,2.2875 l 0,3.5375 -0.875,0 0,-3.9 q 0,-1.0125 -0.425,-1.425 -0.425,-0.425 -1.0625,-0.425 -0.3375,0 -0.625,0.0875 -0.2875,0.0875 -0.5,0.3 -0.2125,0.2125 -0.3375,0.5625 -0.1125,0.35 -0.1125,0.875 l 0,3.925 -0.875,0 0,-8.6125 0.875,-0.4125 0,3.35 q 0.2875,-0.4375 0.7125,-0.65 0.425,-0.2125 0.9375,-0.2125 z"
         style=""
         id="path4279" />
      <path
         d="m 1299.0719,-45.862529 q 0.875,0 1.35,-0.675 0.475,-0.675 0.475,-1.8875 0,-1.2 -0.4625,-1.875 -0.4625,-0.675 -1.3625,-0.675 -0.9,0 -1.3625,0.6625 -0.4625,0.65 -0.4625,1.9 0,1.2 0.4625,1.875 0.4625,0.675 1.3625,0.675 z m 0,-5.9 q 0.6125,0 1.1125,0.225 0.5125,0.225 0.8625,0.65 0.3625,0.425 0.5625,1.05 0.2,0.6125 0.2,1.4125 0,0.7875 -0.2,1.4125 -0.2,0.625 -0.5625,1.0625 -0.35,0.425 -0.8625,0.65 -0.5,0.225 -1.1125,0.225 -0.6125,0 -1.125,-0.225 -0.5,-0.225 -0.8625,-0.65 -0.35,-0.425 -0.55,-1.0375 -0.2,-0.625 -0.2,-1.425 0,-0.7875 0.2,-1.4 0.2,-0.625 0.55,-1.05 0.3625,-0.4375 0.8625,-0.6625 0.5125,-0.2375 1.125,-0.2375 z"
         style=""
         id="path4281" />
      <path
         d="m 1307.4828,-45.225029 0,-0.6125 q -0.3375,0.4375 -0.7125,0.6 -0.375,0.1625 -0.875,0.1625 -1.2375,0 -1.8,-0.7 -0.55,-0.7 -0.55,-2.275 l 0,-3.5625 0.875,0 0,3.9 q 0,1 0.4125,1.425 0.425,0.425 1.0625,0.425 0.3375,0 0.625,-0.0875 0.2875,-0.0875 0.5,-0.3 0.225,-0.2125 0.3375,-0.5625 0.125,-0.35 0.125,-0.875 l 0,-3.925 0.875,0 0,6.3875 -0.875,0 z"
         style=""
         id="path4283" />
      <path
         d="m 1311.1021,-48.062529 q 0.1125,0.975 0.5875,1.575 0.475,0.6 1.3,0.6 0.35,0 0.7125,-0.1125 0.3625,-0.1125 0.725,-0.3875 l 0.475,0.5875 q -0.375,0.3125 -0.8875,0.525 -0.5,0.2 -1.0625,0.2 -0.65,0 -1.1625,-0.2625 -0.5125,-0.275 -0.875,-0.7375 -0.35,-0.4625 -0.55,-1.0625 -0.1875,-0.6125 -0.1875,-1.2875 0,-0.8 0.2,-1.4125 0.2125,-0.625 0.575,-1.05 0.3625,-0.425 0.875,-0.65 0.5125,-0.225 1.125,-0.225 0.5125,0 0.9625,0.1875 0.4625,0.175 0.8125,0.55 0.35,0.375 0.55,0.9625 0.2,0.5875 0.2,1.3875 0,0.1 0,0.25 0,0.15 -0.025,0.3625 l -4.35,0 z m 1.85,-2.9125 q -0.775,0 -1.3,0.5125 -0.5125,0.5125 -0.575,1.6125 l 3.5125,0 q 0,-0.65 -0.1625,-1.0625 -0.1625,-0.4125 -0.4125,-0.65 -0.2375,-0.2375 -0.525,-0.325 -0.2875,-0.0875 -0.5375,-0.0875 z"
         style=""
         id="path4285" />
      <path
         d="m 1318.7088,-45.075029 q -0.6875,0 -0.975,-0.4125 -0.2875,-0.425 -0.2875,-1.05 l 0,-4.2875 -1.0875,0 0,-0.7875 1.0875,0 0,-2.2 0.875,-0.4375 0,2.6375 1.625,0 0,0.7875 -1.625,0 0,3.9125 q 0,0.2125 0.013,0.4 0.025,0.175 0.1,0.3125 0.075,0.1375 0.2125,0.225 0.1375,0.075 0.3625,0.075 0.325,0 0.55,-0.125 0.2375,-0.125 0.4125,-0.25 l -0.1,0.9125 q -0.25,0.1375 -0.525,0.2125 -0.275,0.075 -0.6375,0.075 z"
         style=""
         id="path4287" />
      <path
         d="m 1323.323,-45.075029 q -0.6875,0 -0.975,-0.4125 -0.2875,-0.425 -0.2875,-1.05 l 0,-4.2875 -1.0875,0 0,-0.7875 1.0875,0 0,-2.2 0.875,-0.4375 0,2.6375 1.625,0 0,0.7875 -1.625,0 0,3.9125 q 0,0.2125 0.013,0.4 0.025,0.175 0.1,0.3125 0.075,0.1375 0.2125,0.225 0.1375,0.075 0.3625,0.075 0.325,0 0.55,-0.125 0.2375,-0.125 0.4125,-0.25 l -0.1,0.9125 q -0.25,0.1375 -0.525,0.2125 -0.275,0.075 -0.6375,0.075 z"
         style=""
         id="path4289" />
      <path
         d="m 1326.7027,-48.062529 q 0.1125,0.975 0.5875,1.575 0.475,0.6 1.3,0.6 0.35,0 0.7125,-0.1125 0.3625,-0.1125 0.725,-0.3875 l 0.475,0.5875 q -0.375,0.3125 -0.8875,0.525 -0.5,0.2 -1.0625,0.2 -0.65,0 -1.1625,-0.2625 -0.5125,-0.275 -0.875,-0.7375 -0.35,-0.4625 -0.55,-1.0625 -0.1875,-0.6125 -0.1875,-1.2875 0,-0.8 0.2,-1.4125 0.2125,-0.625 0.575,-1.05 0.3625,-0.425 0.875,-0.65 0.5125,-0.225 1.125,-0.225 0.5125,0 0.9625,0.1875 0.4625,0.175 0.8125,0.55 0.35,0.375 0.55,0.9625 0.2,0.5875 0.2,1.3875 0,0.1 0,0.25 0,0.15 -0.025,0.3625 l -4.35,0 z m 1.85,-2.9125 q -0.775,0 -1.3,0.5125 -0.5125,0.5125 -0.575,1.6125 l 3.5125,0 q 0,-0.65 -0.1625,-1.0625 -0.1625,-0.4125 -0.4125,-0.65 -0.2375,-0.2375 -0.525,-0.325 -0.2875,-0.0875 -0.5375,-0.0875 z"
         style=""
         id="path4291" />
      <path
         d="m 1335.8969,-50.300029 q -0.25,-0.25 -0.625,-0.4625 -0.375,-0.225 -0.9,-0.225 -0.5625,0 -0.8875,0.225 -0.325,0.225 -0.325,0.6125 0,0.25 0.125,0.425 0.125,0.175 0.325,0.325 0.2,0.1375 0.4625,0.25 0.2625,0.1125 0.55,0.225 0.35,0.1375 0.7125,0.3125 0.375,0.1625 0.6625,0.4 0.2875,0.2375 0.475,0.575 0.1875,0.325 0.1875,0.8125 0,0.8 -0.575,1.275 -0.575,0.475 -1.575,0.475 -0.65,0 -1.225,-0.3125 -0.575,-0.325 -0.975,-0.8 l 0.6125,-0.5375 q 0.2875,0.35 0.725,0.6125 0.4375,0.2625 0.9375,0.2625 0.525,0 0.8875,-0.2375 0.3625,-0.2375 0.3625,-0.6875 0,-0.2875 -0.1375,-0.5 -0.1375,-0.225 -0.3625,-0.3875 -0.225,-0.1625 -0.5125,-0.2875 -0.2875,-0.1375 -0.575,-0.25 -0.375,-0.15 -0.725,-0.325 -0.35,-0.175 -0.6125,-0.4 -0.2625,-0.225 -0.425,-0.5125 -0.15,-0.3 -0.15,-0.7 0,-0.3625 0.15,-0.6625 0.1625,-0.3 0.425,-0.5125 0.275,-0.2125 0.65,-0.325 0.3875,-0.125 0.8375,-0.125 0.65,0 1.1625,0.2625 0.525,0.25 0.9125,0.7125 l -0.575,0.4875 z"
         style=""
         id="path4293" />
      <path
         d="m 1276.7603,-29.600029 0,-7.1625 -1.4875,0 0,-0.5 q 0.6625,0 1.125,-0.225 0.4625,-0.2375 0.675,-0.8625 l 0.5625,0 0,8.75 -0.875,0 z"
         style=""
         id="path4295" />
      <path
         d="m 1280.9976,-29.600029 q 0.013,-1.025 0.125,-2.025 0.125,-1 0.425,-1.9875 0.3125,-0.9875 0.825,-1.975 0.5125,-1 1.3125,-2.0125 l -4.2375,0 0,-0.75 5.2375,0 0,0.575 q -0.9125,1.05 -1.4625,2.1625 -0.55,1.1 -0.85,2.175 -0.3,1.0625 -0.4,2.05 -0.1,0.9875 -0.1,1.7875 l -0.875,0 z"
         style=""
         id="path4297" />
      <path
         d="m 1289.3666,-29.600029 0,-8.75 5.1125,0 0,0.8375 -4.2375,0 0,2.975 2.8625,0 0,0.825 -2.8625,0 0,4.1125 -0.875,0 z"
         style=""
         id="path4299" />
      <path
         d="m 1295.7213,-32.437529 q 0.1125,0.975 0.5875,1.575 0.475,0.6 1.3,0.6 0.35,0 0.7125,-0.1125 0.3625,-0.1125 0.725,-0.3875 l 0.475,0.5875 q -0.375,0.3125 -0.8875,0.525 -0.5,0.2 -1.0625,0.2 -0.65,0 -1.1625,-0.2625 -0.5125,-0.275 -0.875,-0.7375 -0.35,-0.4625 -0.55,-1.0625 -0.1875,-0.6125 -0.1875,-1.2875 0,-0.8 0.2,-1.4125 0.2125,-0.625 0.575,-1.05 0.3625,-0.425 0.875,-0.65 0.5125,-0.225 1.125,-0.225 0.5125,0 0.9625,0.1875 0.4625,0.175 0.8125,0.55 0.35,0.375 0.55,0.9625 0.2,0.5875 0.2,1.3875 0,0.1 0,0.25 0,0.15 -0.025,0.3625 l -4.35,0 z m 1.85,-2.9125 q -0.775,0 -1.3,0.5125 -0.5125,0.5125 -0.575,1.6125 l 3.5125,0 q 0,-0.65 -0.1625,-1.0625 -0.1625,-0.4125 -0.4125,-0.65 -0.2375,-0.2375 -0.525,-0.325 -0.2875,-0.0875 -0.5375,-0.0875 z"
         style=""
         id="path4301" />
      <path
         d="m 1304.5,-29.450029 q -0.3375,0 -0.6,-0.0625 -0.2625,-0.0625 -0.475,-0.1625 -0.2,-0.1125 -0.375,-0.2375 -0.175,-0.125 -0.325,-0.2625 l 0,0.575 -0.875,0 0,-8.5875 0.875,-0.4375 0,3.2625 q 0.3125,-0.3375 0.7625,-0.55 0.4625,-0.225 0.9375,-0.225 0.6,0 1.0875,0.225 0.4875,0.225 0.825,0.6625 0.35,0.425 0.5375,1.05 0.1875,0.6125 0.1875,1.4 0,1.6375 -0.675,2.5 -0.675,0.85 -1.8875,0.85 z m -0.1375,-0.7875 q 0.9,0 1.3375,-0.6875 0.45,-0.6875 0.45,-1.875 0,-1.2375 -0.45,-1.8875 -0.4375,-0.6625 -1.3375,-0.6625 -0.3,0 -0.5625,0.1 -0.25,0.0875 -0.4625,0.2375 -0.2125,0.1375 -0.375,0.3125 -0.15,0.175 -0.2375,0.325 l 0,3.1375 q 0.2625,0.45 0.7125,0.725 0.45,0.275 0.925,0.275 z"
         style=""
         id="path4303" />
      <path
         d="m 1311.5002,-29.600029 q 0,-0.825 0.2375,-1.4125 0.2375,-0.6 0.6125,-1.05 0.375,-0.45 0.85,-0.7875 0.475,-0.3375 0.95,-0.6625 0.4125,-0.275 0.7875,-0.5375 0.375,-0.275 0.6625,-0.575 0.3,-0.3 0.475,-0.6375 0.175,-0.35 0.175,-0.775 0,-0.7125 -0.5,-1.1875 -0.4875,-0.4875 -1.4,-0.4875 -0.8875,0 -1.3375,0.4 -0.45,0.3875 -0.6125,1.0125 l -0.775,-0.35 q 0.1,-0.3875 0.3375,-0.725 0.2375,-0.3375 0.6,-0.5875 0.3625,-0.25 0.825,-0.3875 0.475,-0.15 1.0375,-0.15 1.3,0 2.0125,0.675 0.725,0.6625 0.725,1.7875 0,0.6 -0.2375,1.0625 -0.225,0.4625 -0.6,0.85 -0.3625,0.375 -0.825,0.7 -0.4625,0.3125 -0.9375,0.6125 -0.375,0.25 -0.725,0.5 -0.35,0.2375 -0.65,0.525 -0.2875,0.275 -0.4875,0.6125 -0.2,0.325 -0.275,0.7375 l 4.8125,0 0,0.8375 -5.7375,0 z"
         style=""
         id="path4305" />
      <path
         d="m 1321.9828,-29.450029 q -0.8625,0 -1.4375,-0.4 -0.575,-0.4 -0.925,-1.0375 -0.3375,-0.65 -0.4875,-1.45 -0.15,-0.8125 -0.15,-1.6375 0,-0.45 0.05,-0.9625 0.05,-0.525 0.175,-1.025 0.1375,-0.5 0.35,-0.9625 0.225,-0.4625 0.5625,-0.8125 0.3375,-0.35 0.7875,-0.55 0.4625,-0.2125 1.075,-0.2125 0.8625,0 1.4375,0.4125 0.575,0.4 0.9125,1.05 0.35,0.65 0.5,1.4625 0.15,0.8 0.15,1.6 0,0.4625 -0.062,0.975 -0.05,0.5125 -0.1875,1.025 -0.125,0.5 -0.35,0.9625 -0.2125,0.45 -0.55,0.8 -0.3375,0.35 -0.8,0.5625 -0.45,0.2 -1.05,0.2 z m 0,-0.7875 q 0.65,0 1.05,-0.35 0.4125,-0.3625 0.6375,-0.9125 0.225,-0.55 0.3,-1.2125 0.075,-0.6625 0.075,-1.2625 0,-0.675 -0.088,-1.3375 -0.087,-0.675 -0.325,-1.2 -0.2375,-0.5375 -0.6375,-0.8625 -0.4,-0.3375 -1.0125,-0.3375 -0.6625,0 -1.075,0.3625 -0.4,0.3625 -0.625,0.9125 -0.225,0.55 -0.3125,1.2125 -0.075,0.65 -0.075,1.25 0,0.6875 0.088,1.3625 0.088,0.6625 0.325,1.2 0.2375,0.525 0.6375,0.85 0.4125,0.325 1.0375,0.325 z"
         style=""
         id="path4307" />
      <path
         d="m 1327.8345,-29.600029 0,-7.1625 -1.4875,0 0,-0.5 q 0.6625,0 1.125,-0.225 0.4625,-0.2375 0.675,-0.8625 l 0.5625,0 0,8.75 -0.875,0 z"
         style=""
         id="path4309" />
      <path
         d="m 1333.6719,-38.500029 q 0.7125,0 1.2375,0.2625 0.525,0.2625 0.8625,0.725 0.35,0.45 0.525,1.075 0.175,0.6125 0.175,1.325 0,0.9375 -0.325,1.85 -0.3125,0.9125 -0.8875,1.6875 -0.5625,0.7625 -1.35,1.325 -0.7875,0.5625 -1.7375,0.8 l 0,-0.6875 q 0.6375,-0.1875 1.1875,-0.5625 0.55,-0.3875 0.975,-0.8875 0.4375,-0.5 0.7125,-1.075 0.2875,-0.575 0.3625,-1.1375 -0.325,0.4125 -0.8625,0.6375 -0.525,0.2125 -1.2125,0.2125 -0.5375,0 -1.0125,-0.2125 -0.4625,-0.2125 -0.8125,-0.575 -0.3375,-0.375 -0.5375,-0.85 -0.2,-0.4875 -0.2,-1.0125 0,-0.6125 0.225,-1.1375 0.225,-0.5375 0.6125,-0.925 0.4,-0.3875 0.925,-0.6125 0.525,-0.225 1.1375,-0.225 z m -0.062,4.85 q 0.4375,0 0.8,-0.15 0.375,-0.1625 0.6375,-0.4375 0.2625,-0.275 0.4125,-0.65 0.15,-0.375 0.15,-0.8125 0,-0.425 -0.1625,-0.7875 -0.15,-0.3625 -0.425,-0.6375 -0.2625,-0.275 -0.625,-0.425 -0.3625,-0.1625 -0.7875,-0.1625 -0.45,0 -0.825,0.1625 -0.3625,0.15 -0.625,0.425 -0.2625,0.275 -0.4125,0.6375 -0.1375,0.3625 -0.1375,0.7875 0,0.4375 0.1375,0.8125 0.1375,0.375 0.4,0.65 0.2625,0.275 0.625,0.4375 0.375,0.15 0.8375,0.15 z"
         style=""
         id="path4311" />
    </g>
  </g>
</svg>
