<?xml version="1.0" encoding="UTF-8" standalone="no"?>
<!-- Created with Inkscape (http://www.inkscape.org/) -->

<svg
   xmlns:dc="http://purl.org/dc/elements/1.1/"
   xmlns:cc="http://creativecommons.org/ns#"
   xmlns:rdf="http://www.w3.org/1999/02/22-rdf-syntax-ns#"
   xmlns:svg="http://www.w3.org/2000/svg"
   xmlns="http://www.w3.org/2000/svg"
   xmlns:sodipodi="http://sodipodi.sourceforge.net/DTD/sodipodi-0.dtd"
   xmlns:inkscape="http://www.inkscape.org/namespaces/inkscape"
   width="467.99316"
   height="238.31213"
   viewBox="0 0 467.99316 238.31213"
   id="svg2"
   version="1.1"
   inkscape:version="0.92.4 (5da689c313, 2019-01-14)"
   sodipodi:docname="OAJ.svg">
  <defs
     id="defs4" />
  <sodipodi:namedview
     id="base"
     pagecolor="#ffffff"
     bordercolor="#666666"
     borderopacity="1.0"
     inkscape:pageopacity="1"
     inkscape:pageshadow="2"
     inkscape:zoom="2"
     inkscape:cx="158.21838"
     inkscape:cy="75.060969"
     inkscape:document-units="px"
     inkscape:current-layer="layer3"
     showgrid="false"
     units="px"
     fit-margin-top="25"
     fit-margin-left="25"
     fit-margin-right="25"
     fit-margin-bottom="25"
     showguides="true"
     inkscape:guide-bbox="true"
     inkscape:window-width="1920"
     inkscape:window-height="1137"
     inkscape:window-x="1912"
     inkscape:window-y="-8"
     inkscape:window-maximized="1" />
  <metadata
     id="metadata7">
    <rdf:RDF>
      <cc:Work
         rdf:about="">
        <dc:format>image/svg+xml</dc:format>
        <dc:type
           rdf:resource="http://purl.org/dc/dcmitype/StillImage" />
        <dc:title />
      </cc:Work>
    </rdf:RDF>
  </metadata>
  <g
     inkscape:groupmode="layer"
     id="layer2"
     inkscape:label="Terminal"
     transform="translate(-841.99451,-614.53169)">
    <path
       style="display:inline;fill:#dddddd;fill-opacity:1;fill-rule:evenodd;stroke:#222222;stroke-width:1.5;stroke-linecap:butt;stroke-linejoin:miter;stroke-miterlimit:4;stroke-dasharray:none;stroke-opacity:1"
       d="m 904.89236,753.20262 -4.73261,4.36746 -5.52867,-5.94011 -2.11394,1.88544 -7.55541,-7.9913 2.06325,-2.06627 -5.83227,-6.2663 4.5373,-4.25747 -5.23774,-5.54011 -1.52648,1.4578 -8.16016,-8.61894 1.63551,-1.35477 -4.3789,-4.63169 18.90416,-17.36306 2.26028,2.46576 10.01043,-9.36573 15.33793,15.88468 1.23215,-1.15616 19.38916,20.52497 -1.01486,0.93655 20.23112,20.95231 -10.83647,10.16874 2.46576,2.67124 -18.28978,17.41638 -8.24383,-8.71974 -1.48298,1.445 -8.32144,-8.7893 1.55975,-1.37631 z"
       id="path4156"
       inkscape:connector-curvature="0"
       sodipodi:nodetypes="cccccccccccccccccccccccc" />
  </g>
  <g
     inkscape:groupmode="layer"
     id="layer3"
     inkscape:label="Label"
     transform="translate(-841.99451,-614.53169)">
    <g
       id="g4176"
       transform="translate(0,99.220224)">
      <g
         style="font-style:normal;font-variant:normal;font-weight:bold;font-stretch:normal;font-size:125px;line-height:125%;font-family:Overpass;-inkscape-font-specification:'Overpass, Bold';text-align:start;letter-spacing:0px;word-spacing:0px;writing-mode:lr-tb;text-anchor:start;fill:#dddddd;fill-opacity:1;stroke:#222222;stroke-width:0.25;stroke-linecap:butt;stroke-linejoin:miter;stroke-miterlimit:4;stroke-dasharray:none;stroke-opacity:1"
         id="text4166">
        <path
           d="m 1060.7531,630.9516 q -7.0801,0 -12.6954,-1.83106 -5.6152,-1.89209 -9.9487,-5.06591 -4.2725,-3.23487 -7.3242,-7.56836 -3.0518,-4.39453 -5.0049,-9.39942 -1.8921,-5.06591 -2.8076,-10.49804 -0.8545,-5.49317 -0.8545,-10.9253 0,-5.37109 0.8545,-10.80322 0.9155,-5.49316 2.8076,-10.49805 1.9531,-5.06591 5.0049,-9.39941 3.0517,-4.39453 7.3242,-7.56836 4.3335,-3.23486 9.9487,-5.06592 5.6153,-1.89209 12.6954,-1.89209 7.08,0 12.6342,1.89209 5.6153,1.83106 9.8877,5.06592 4.2725,3.17383 7.3242,7.56836 3.0518,4.3335 4.9439,9.39941 1.9531,5.00489 2.8076,10.49805 0.9155,5.43213 0.9155,10.80322 0,5.43213 -0.9155,10.9253 -0.8545,5.43213 -2.8076,10.49804 -1.8921,5.00489 -4.9439,9.39942 -3.0517,4.33349 -7.3242,7.56836 -4.2724,3.17382 -9.8877,5.06591 -5.5542,1.83106 -12.6342,1.83106 z m 0,-16.29639 q 5.8593,0 9.8266,-2.74658 4.0283,-2.74658 6.4697,-7.01904 2.5025,-4.27246 3.6011,-9.33838 1.0986,-5.12695 1.0986,-9.8877 0,-3.35693 -0.4882,-6.7749 -0.4273,-3.479 -1.4649,-6.65283 -1.0376,-3.23486 -2.6855,-6.04248 -1.648,-2.86865 -3.9673,-4.94385 -2.3193,-2.13623 -5.4321,-3.35693 -3.0518,-1.22071 -6.958,-1.22071 -3.9673,0 -7.0801,1.28174 -3.0518,1.28174 -5.4322,3.47901 -2.3193,2.13623 -3.9672,5.00488 -1.648,2.86865 -2.6856,6.10351 -1.0376,3.23487 -1.5259,6.5918 -0.4272,3.35694 -0.4272,6.53076 0,5.00489 1.0986,10.19287 1.0987,5.12696 3.5401,9.33838 2.5024,4.15039 6.5307,6.83594 4.0283,2.62451 9.9488,2.62451 z"
           style=""
           id="path4184" />
        <path
           d="m 1171.4098,629.42572 -6.7749,-18.12744 -33.7525,0 -6.7138,18.12744 -18.1275,0 33.5083,-87.52441 16.4795,0 33.5083,87.52441 -18.1274,0 z m -20.874,-56.27441 q -0.6714,-1.58692 -1.4649,-3.78418 -0.7324,-2.19727 -1.2817,-4.08936 -0.4883,1.89209 -1.2818,4.08936 -0.7934,2.19726 -1.4648,3.78418 l -8.667,22.76611 22.7661,0 -8.6059,-22.76611 z"
           style=""
           id="path4186" />
        <path
           d="m 1226.6466,630.9516 q -4.7607,0 -9.1553,-1.34277 -4.3335,-1.28174 -8.1176,-3.72315 -3.7232,-2.50244 -6.836,-6.04248 -3.0517,-3.60107 -5.249,-8.17871 l 14.7705,-6.83594 q 2.4414,4.69971 6.0425,7.26319 3.6621,2.56347 8.5449,2.56347 2.5635,0 4.9439,-0.67138 2.3803,-0.73243 4.2114,-2.62452 1.831,-1.89209 2.9297,-5.18798 1.0986,-3.35694 1.0986,-8.60596 l 0,-55.66406 16.8457,0 0,57.1289 q 0,6.22559 -1.2817,11.04737 -1.2818,4.82177 -3.479,8.36181 -2.1973,3.54004 -5.127,5.98145 -2.9297,2.38037 -6.2866,3.84521 -3.3569,1.40381 -6.897,2.01416 -3.54,0.67139 -6.958,0.67139 z"
           style=""
           id="path4188" />
      </g>
      <g
         style="font-style:normal;font-variant:normal;font-weight:normal;font-stretch:normal;font-size:45px;line-height:110.00000238%;font-family:Overpass;-inkscape-font-specification:'Overpass, Normal';text-align:center;letter-spacing:0px;word-spacing:0px;writing-mode:lr-tb;text-anchor:middle;fill:#000000;fill-opacity:1;stroke:none;stroke-width:1px;stroke-linecap:butt;stroke-linejoin:miter;stroke-opacity:1"
         id="text4170">
        <path
           d="m 1018.4594,679.1236 q -1.6919,0 -3.2081,-0.39551 -1.5161,-0.37354 -2.8125,-1.12061 -1.2744,-0.74707 -2.2851,-1.8457 -1.0108,-1.12061 -1.6919,-2.59277 l 4.0649,-1.97754 q 0.835,1.77978 2.3511,2.61474 1.5161,0.81299 3.5816,0.81299 1.1206,0 2.1533,-0.28564 1.0547,-0.28565 1.8457,-1.07666 0.813,-0.79102 1.2964,-2.19727 0.5053,-1.42822 0.5053,-3.6914 l 0,-20.30274 4.6802,0 0,20.93994 q 0,2.19727 -0.4614,3.88916 -0.4395,1.66992 -1.2085,2.92237 -0.7471,1.23046 -1.7798,2.06543 -1.0327,0.81298 -2.1973,1.31835 -1.1645,0.50538 -2.417,0.70313 -1.2304,0.21973 -2.4169,0.21973 z"
           style=""
           id="path4191" />
        <path
           d="m 1053.7474,678.57428 -4.4824,0 0,-1.97754 q -0.4394,0.46143 -1.0547,0.92285 -0.6152,0.43946 -1.4062,0.81299 -0.7691,0.35156 -1.7359,0.57129 -0.9668,0.21973 -2.1093,0.21973 -1.7579,0 -3.252,-0.4834 -1.4941,-0.4834 -2.5928,-1.4502 -1.0986,-0.98877 -1.7358,-2.41699 -0.6152,-1.4502 -0.6152,-3.36182 0,-1.97754 0.747,-3.40576 0.7471,-1.45019 1.9776,-2.37304 1.2304,-0.94483 2.8125,-1.38428 1.604,-0.43946 3.2959,-0.43946 1.582,0 3.0322,0.35157 1.4722,0.32959 2.6367,1.01074 l 0,-1.27441 q 0,-1.29639 -0.3076,-2.19727 -0.2856,-0.90088 -0.9009,-1.4502 -0.5932,-0.57128 -1.5161,-0.81298 -0.9228,-0.26368 -2.1973,-0.26368 -2.1533,0 -3.7353,0.57129 -1.5601,0.57129 -2.8345,1.51612 l -1.3843,-3.84522 q 0.7032,-0.4834 1.604,-0.90088 0.9009,-0.43945 1.9776,-0.76904 1.0766,-0.32959 2.3291,-0.50537 1.2524,-0.19776 2.6806,-0.19776 0.9668,0 1.9996,0.10987 1.0327,0.10986 1.9995,0.43945 0.9887,0.30762 1.8457,0.90088 0.8789,0.59326 1.5161,1.56006 0.6592,0.94482 1.0327,2.3291 0.3735,1.38428 0.3735,3.2959 l 0,14.89746 z m -9.9316,-3.60352 q 1.7798,0 3.1421,-0.72509 1.3843,-0.7251 2.3071,-1.73584 l 0,-3.51563 q -0.9668,-0.50537 -2.2632,-0.81299 -1.2964,-0.30761 -2.6587,-0.30761 -1.0546,0 -1.9775,0.19775 -0.9229,0.19775 -1.626,0.63721 -0.6811,0.41748 -1.0766,1.09863 -0.3955,0.65918 -0.3955,1.604 0,1.64795 1.1425,2.61475 1.1646,0.94482 3.4058,0.94482 z"
           style=""
           id="path4193" />
        <path
           d="m 1069.0184,679.1236 q -2.3071,0 -4.1748,-0.81299 -1.8457,-0.81299 -3.164,-2.35108 -1.2964,-1.56005 -1.9995,-3.77929 -0.7032,-2.24121 -0.7032,-5.07569 0,-2.83447 0.7032,-5.07568 0.7031,-2.24121 1.9995,-3.7793 1.3183,-1.56006 3.164,-2.37304 1.8677,-0.83497 4.1748,-0.83497 3.208,0 5.4273,1.42823 2.2412,1.42822 3.2519,4.50439 l -4.4384,1.53809 q -0.5054,-1.31836 -1.5381,-2.13135 -1.0327,-0.83496 -2.5269,-0.83496 -1.3183,0 -2.3291,0.52734 -1.0107,0.52735 -1.7139,1.51612 -0.6811,0.96679 -1.0546,2.37304 -0.3516,1.38428 -0.3516,3.14209 0,1.75782 0.3516,3.16407 0.3735,1.38427 1.0327,2.35107 0.6811,0.9668 1.6479,1.49414 0.9888,0.50537 2.2412,0.50537 1.5821,0 2.7027,-0.8789 1.1425,-0.87891 1.6259,-2.50489 l 4.4385,1.40625 q -0.9228,3.20801 -3.1421,4.85596 -2.1972,1.62598 -5.625,1.62598 z"
           style=""
           id="path4195" />
        <path
           d="m 1083.4105,678.57428 0,-30.27832 4.6802,-2.21924 0,16.61133 6.7895,-7.11914 5.7569,0 -6.3062,6.39404 8.6353,16.61133 -5.1196,0 -6.7896,-13.22754 -2.9663,2.96631 0,10.26123 -4.6802,0 z"
           style=""
           id="path4197" />
        <path
           d="m 1115.2928,679.1236 q -1.3623,0 -2.6586,-0.26368 -1.2964,-0.26367 -2.439,-0.74707 -1.1206,-0.48339 -2.0435,-1.16455 -0.9228,-0.70312 -1.5381,-1.56006 l 3.3179,-2.83447 q 0.3516,0.32959 0.857,0.74707 0.5053,0.39551 1.1645,0.74707 0.6592,0.35157 1.4722,0.59326 0.813,0.2417 1.7798,0.2417 0.8789,0 1.6259,-0.13183 0.7471,-0.13184 1.2744,-0.41748 0.5494,-0.28565 0.835,-0.74707 0.3076,-0.4834 0.3076,-1.18653 0,-0.81298 -0.5713,-1.38427 -0.5493,-0.59327 -1.4502,-1.05469 -0.9008,-0.4834 -2.0434,-0.90088 -1.1426,-0.43945 -2.3071,-0.92285 -1.0767,-0.46143 -2.1094,-1.01074 -1.0327,-0.54932 -1.8457,-1.31836 -0.791,-0.76905 -1.2964,-1.82373 -0.4834,-1.07666 -0.4834,-2.59278 0,-1.53808 0.6152,-2.72461 0.6372,-1.18652 1.7139,-1.97754 1.0986,-0.81298 2.5488,-1.23046 1.4722,-0.41749 3.1421,-0.41749 1.4722,0 2.7026,0.28565 1.2525,0.28564 2.2413,0.76904 1.0107,0.4834 1.7797,1.12061 0.7691,0.61523 1.3404,1.29638 l -3.3838,2.68067 q -0.3076,-0.30762 -0.7471,-0.63721 -0.4175,-0.35156 -0.9888,-0.63721 -0.5712,-0.28564 -1.2963,-0.46142 -0.7251,-0.19776 -1.648,-0.19776 -1.4941,0 -2.373,0.54932 -0.857,0.54932 -0.857,1.58203 0,0.65918 0.4615,1.16455 0.4614,0.4834 1.2524,0.90088 0.791,0.41748 1.8018,0.81299 1.0327,0.37354 2.1533,0.81299 1.1865,0.46142 2.3291,1.03271 1.1426,0.57129 2.0215,1.40625 0.9008,0.83496 1.4282,2.02149 0.5493,1.18652 0.5493,2.85644 0,1.64795 -0.6152,2.92237 -0.6153,1.25244 -1.7578,2.10937 -1.1207,0.83496 -2.7247,1.25244 -1.582,0.43946 -3.5376,0.43946 z"
           style=""
           id="path4199" />
        <path
           d="m 1138.9135,679.1236 q -2.417,0 -4.3726,-0.81299 -1.9336,-0.81299 -3.2959,-2.35108 -1.3623,-1.56005 -2.1094,-3.77929 -0.7251,-2.24121 -0.7251,-5.07569 0,-2.83447 0.7251,-5.07568 0.7471,-2.24121 2.1094,-3.7793 1.3623,-1.56006 3.2959,-2.37304 1.9556,-0.83497 4.3726,-0.83497 2.395,0 4.3505,0.83497 1.9556,0.81298 3.3179,2.37304 1.3623,1.53809 2.1094,3.7793 0.7471,2.24121 0.7471,5.07568 0,2.83448 -0.7471,5.07569 -0.7471,2.21924 -2.1094,3.77929 -1.3623,1.53809 -3.3179,2.35108 -1.9555,0.81299 -4.3505,0.81299 z m 0,-4.41651 q 1.3403,0 2.4169,-0.52734 1.0987,-0.52735 1.8457,-1.49414 0.7691,-0.98877 1.1646,-2.39502 0.4175,-1.40625 0.4175,-3.18604 0,-1.77978 -0.4175,-3.18603 -0.3955,-1.42822 -1.1646,-2.41699 -0.747,-0.98877 -1.8457,-1.51612 -1.0766,-0.52734 -2.4169,-0.52734 -1.3404,0 -2.417,0.52734 -1.0767,0.52735 -1.8457,1.51612 -0.7471,0.98877 -1.1646,2.41699 -0.3955,1.40625 -0.3955,3.18603 0,1.77979 0.3955,3.18604 0.4175,1.40625 1.1646,2.39502 0.769,0.96679 1.8457,1.49414 1.0766,0.52734 2.417,0.52734 z"
           style=""
           id="path4201" />
        <path
           d="m 1169.2577,678.57428 0,-13.73291 q 0,-1.4502 -0.3516,-2.46094 -0.3515,-1.03271 -0.9668,-1.66992 -0.6152,-0.65918 -1.4502,-0.94482 -0.8349,-0.30762 -1.8237,-0.30762 -1.0547,0 -1.9556,0.28564 -0.9008,0.26368 -1.56,0.87891 -0.6592,0.61523 -1.0547,1.64795 -0.3735,1.01074 -0.3735,2.48291 l 0,13.8208 -4.6802,0 0,-23.00537 4.6802,0 0,2.21924 q 1.1206,-1.42823 2.5708,-2.08741 1.4502,-0.65918 3.3618,-0.65918 1.8017,0 3.3178,0.52735 1.5162,0.50537 2.6148,1.66992 1.1206,1.16455 1.7358,3.03223 0.6153,1.86767 0.6153,4.57031 l 0,13.73291 -4.6802,0 z"
           style=""
           id="path4203" />
        <path
           d="m 1190.9667,678.57428 -4.3726,0 -8.4155,-23.00537 4.6802,0 5.3173,15.09521 q 0.1978,0.59327 0.3296,1.03272 0.1538,0.43945 0.3077,0.98877 0.1318,-0.54932 0.2636,-0.98877 0.1538,-0.43945 0.3516,-1.03272 l 5.2734,-15.09521 4.6802,0 -8.4155,23.00537 z"
           style=""
           id="path4205" />
        <path
           d="m 1203.9525,678.57428 0,-23.00537 4.6802,0 0,23.00537 -4.6802,0 z m 2.3291,-26.58691 q -0.5932,0 -1.1206,-0.21973 -0.5054,-0.21973 -0.9009,-0.59326 -0.3735,-0.39551 -0.5932,-0.90088 -0.2198,-0.52735 -0.2198,-1.12061 0,-0.59326 0.2198,-1.09863 0.2197,-0.52734 0.5932,-0.90088 0.3955,-0.39551 0.9009,-0.61523 0.5274,-0.21973 1.1206,-0.21973 0.5933,0 1.0986,0.21973 0.5274,0.21972 0.9009,0.61523 0.3955,0.37354 0.6153,0.90088 0.2197,0.50537 0.2197,1.09863 0,0.59326 -0.2197,1.12061 -0.2198,0.50537 -0.6153,0.90088 -0.3735,0.37353 -0.9009,0.59326 -0.5053,0.21973 -1.0986,0.21973 z"
           style=""
           id="path4207" />
        <path
           d="m 1215.642,678.57428 0,-30.27832 4.6801,-2.21924 0,32.49756 -4.6801,0 z"
           style=""
           id="path4209" />
        <path
           d="m 1227.5072,678.57428 0,-30.27832 4.6802,-2.21924 0,32.49756 -4.6802,0 z"
           style=""
           id="path4211" />
        <path
           d="m 1248.4691,679.1236 q -2.395,0 -4.3286,-0.81299 -1.9336,-0.83496 -3.2959,-2.37305 -1.3623,-1.56006 -2.1094,-3.80127 -0.7251,-2.24121 -0.7251,-5.07568 0,-2.83447 0.7471,-5.05371 0.7471,-2.24121 2.1094,-3.7793 1.3843,-1.56006 3.2959,-2.37305 1.9336,-0.81299 4.3066,-0.81299 2.0435,0 3.8233,0.65918 1.8017,0.63721 3.142,1.97754 1.3624,1.31836 2.1314,3.33985 0.791,2.02148 0.791,4.76806 0,0.74707 -0.044,1.58204 -0.022,0.83496 -0.1319,1.45019 l -15.4907,0 q 0.022,1.42822 0.5054,2.5708 0.5053,1.12061 1.3183,1.93359 0.813,0.79102 1.8457,1.23047 1.0328,0.41748 2.1534,0.41748 1.4282,0 2.6367,-0.59326 1.2304,-0.59326 2.1313,-1.73584 l 3.0542,3.14209 q -1.2524,1.49414 -3.208,2.41699 -1.9555,0.92286 -4.6582,0.92286 z m 0,-19.95118 q -1.0986,0 -2.1094,0.32959 -1.0107,0.30762 -1.8017,1.01075 -0.7691,0.68115 -1.2744,1.80175 -0.5054,1.12061 -0.5933,2.72461 l 10.9863,0 q -0.044,-1.604 -0.5053,-2.72461 -0.4615,-1.1206 -1.2085,-1.80175 -0.7471,-0.70313 -1.67,-1.01075 -0.9008,-0.32959 -1.8237,-0.32959 z"
           style=""
           id="path4213" />
        <path
           d="m 1262.224,683.80377 q 0.3076,-0.26367 0.7251,-0.76904 0.4394,-0.4834 0.8569,-1.12061 0.4175,-0.61523 0.7251,-1.34033 0.3296,-0.70312 0.4395,-1.45019 -0.5933,-0.0659 -1.1426,-0.30762 -0.5493,-0.2417 -0.9668,-0.65918 -0.3955,-0.41748 -0.6592,-0.9668 -0.2417,-0.54931 -0.2417,-1.23047 0,-0.76904 0.2637,-1.38427 0.2856,-0.63721 0.7251,-1.07666 0.4614,-0.46143 1.0547,-0.70313 0.6152,-0.2417 1.2744,-0.2417 0.7031,0 1.3403,0.26367 0.6592,0.2417 1.1426,0.74707 0.5054,0.50538 0.791,1.27442 0.2857,0.76904 0.2857,1.80176 0,1.29638 -0.3955,2.52685 -0.3736,1.23047 -1.0328,2.28516 -0.6591,1.07666 -1.56,1.95556 -0.8789,0.90088 -1.8677,1.51612 l -1.7578,-1.12061 z"
           style=""
           id="path4215" />
        <path
           d="m 1013.2518,728.07428 -13.62302,-21.37939 -1.27441,-2.32911 0.13184,2.32911 0,21.37939 -4.68018,0 0,-31.50879 4.72412,0 13.29345,21.02783 1.2964,2.417 -0.1318,-2.37305 0,-21.07178 4.6801,0 0,31.50879 -4.4165,0 z"
           style=""
           id="path4217" />
        <path
           d="m 1034.4994,728.6236 q -2.417,0 -4.3726,-0.81299 -1.9336,-0.81299 -3.2959,-2.35108 -1.3623,-1.56005 -2.1093,-3.77929 -0.7251,-2.24121 -0.7251,-5.07569 0,-2.83447 0.7251,-5.07568 0.747,-2.24121 2.1093,-3.7793 1.3623,-1.56005 3.2959,-2.37304 1.9556,-0.83496 4.3726,-0.83496 2.395,0 4.3506,0.83496 1.9555,0.81299 3.3178,2.37304 1.3624,1.53809 2.1094,3.7793 0.7471,2.24121 0.7471,5.07568 0,2.83448 -0.7471,5.07569 -0.747,2.21924 -2.1094,3.77929 -1.3623,1.53809 -3.3178,2.35108 -1.9556,0.81299 -4.3506,0.81299 z m 0,-4.41651 q 1.3403,0 2.417,-0.52734 1.0986,-0.52734 1.8457,-1.49414 0.769,-0.98877 1.1645,-2.39502 0.4175,-1.40625 0.4175,-3.18604 0,-1.77978 -0.4175,-3.18603 -0.3955,-1.42822 -1.1645,-2.41699 -0.7471,-0.98877 -1.8457,-1.51612 -1.0767,-0.52734 -2.417,-0.52734 -1.3403,0 -2.417,0.52734 -1.0767,0.52735 -1.8457,1.51612 -0.7471,0.98877 -1.1646,2.41699 -0.3955,1.40625 -0.3955,3.18603 0,1.77979 0.3955,3.18604 0.4175,1.40625 1.1646,2.39502 0.769,0.9668 1.8457,1.49414 1.0767,0.52734 2.417,0.52734 z"
           style=""
           id="path4219" />
        <path
           d="m 1050.6273,728.07428 0,-23.00537 4.6802,0 0,2.79053 q 0.813,-1.75782 2.1094,-2.52686 1.2964,-0.79101 3.0102,-0.79101 2.2852,0 3.8672,1.38427 l -0.6811,4.32862 q -0.6372,-0.43946 -1.5162,-0.76905 -0.8569,-0.35156 -2.1093,-0.35156 -0.791,0 -1.626,0.28565 -0.813,0.26367 -1.4941,0.96679 -0.6812,0.68115 -1.1207,1.84571 -0.4394,1.14257 -0.4394,2.92236 l 0,12.91992 -4.6802,0 z"
           style=""
           id="path4221" />
        <path
           d="m 1075.4784,728.6236 q -1.3623,0 -2.3511,-0.41748 -0.9668,-0.39551 -1.604,-1.14258 -0.6152,-0.74707 -0.9009,-1.80176 -0.2856,-1.07666 -0.2856,-2.37305 l 0,-13.75488 -3.5596,0 0,-4.06494 3.5596,0 0,-7.229 4.6802,-2.26319 0,9.49219 5.4492,0 0,4.06494 -5.4492,0 0,12.54639 q 0,0.57129 0.088,1.05469 0.1098,0.48339 0.3515,0.83496 0.2637,0.35156 0.7031,0.54931 0.4395,0.17578 1.1207,0.17578 1.6699,0 3.4057,-1.07666 l -0.5713,4.35059 q -0.9668,0.4834 -2.1094,0.76904 -1.1425,0.28565 -2.5268,0.28565 z"
           style=""
           id="path4223" />
        <path
           d="m 1100.0878,728.07428 0,-13.73291 q 0,-1.45019 -0.3516,-2.46094 -0.3516,-1.03271 -0.9668,-1.66992 -0.6152,-0.65918 -1.4502,-0.94482 -0.8349,-0.30762 -1.8237,-0.30762 -1.0547,0 -1.9556,0.28564 -0.9009,0.26368 -1.56,0.87891 -0.6592,0.61524 -1.0547,1.64795 -0.3736,1.01074 -0.3736,2.48291 l 0,13.8208 -4.6801,0 0,-30.32226 4.6801,-2.1753 0,11.71143 q 1.1206,-1.42822 2.5708,-2.0874 1.4502,-0.65918 3.3619,-0.65918 1.8017,0 3.3178,0.52734 1.5161,0.50537 2.6148,1.66992 1.1206,1.16455 1.7358,3.03223 0.6152,1.86767 0.6152,4.57031 l 0,13.73291 -4.6801,0 z"
           style=""
           id="path4225" />
        <path
           d="m 1134.2772,728.6236 q -2.4389,0 -4.3725,-0.65918 -1.9117,-0.68115 -3.3619,-1.82373 -1.4501,-1.16455 -2.4829,-2.72461 -1.0107,-1.58203 -1.6479,-3.38379 -0.6372,-1.82373 -0.9448,-3.7793 -0.2857,-1.97754 -0.2857,-3.9331 0,-1.80176 0.2857,-3.71338 0.3076,-1.91162 0.9448,-3.71338 0.6592,-1.82373 1.6919,-3.42774 1.0327,-1.604 2.4829,-2.8125 1.4502,-1.20849 3.3618,-1.91162 1.9116,-0.70312 4.3286,-0.70312 2.2193,0 3.999,0.54931 1.7798,0.52735 3.0982,1.40625 1.3403,0.87891 2.2412,1.99952 0.9009,1.1206 1.3843,2.28515 l -4.2847,1.99951 q -0.5713,-0.90087 -1.2085,-1.58203 -0.6152,-0.70312 -1.3843,-1.18652 -0.747,-0.4834 -1.6919,-0.7251 -0.9448,-0.2417 -2.1533,-0.2417 -1.582,0 -2.8125,0.50537 -1.2085,0.50537 -2.1313,1.38428 -0.9009,0.87891 -1.5381,2.04346 -0.6372,1.16455 -1.0327,2.48291 -0.3736,1.29638 -0.5493,2.68066 -0.1758,1.38428 -0.1758,2.68067 0,2.0874 0.4614,4.19677 0.4834,2.10938 1.4941,3.80127 1.0108,1.6919 2.5708,2.74659 1.5601,1.05468 3.7134,1.05468 1.1646,0 2.0874,-0.28564 0.9448,-0.30762 1.7139,-0.83496 0.791,-0.54932 1.4062,-1.29639 0.6372,-0.74707 1.1866,-1.64795 l 4.3725,1.66992 q -0.6592,1.53809 -1.6479,2.8125 -0.9668,1.27442 -2.3072,2.1753 -1.3183,0.90088 -3.0322,1.40625 -1.6919,0.50537 -3.7793,0.50537 z"
           style=""
           id="path4227" />
        <path
           d="m 1168.5326,728.07428 -4.4824,0 0,-1.97754 q -0.4395,0.46143 -1.0547,0.92285 -0.6153,0.43946 -1.4063,0.81299 -0.769,0.35156 -1.7358,0.57129 -0.9668,0.21973 -2.1094,0.21973 -1.7578,0 -3.2519,-0.4834 -1.4942,-0.4834 -2.5928,-1.4502 -1.0986,-0.98877 -1.7358,-2.41699 -0.6153,-1.45019 -0.6153,-3.36182 0,-1.97753 0.7471,-3.40576 0.7471,-1.45019 1.9775,-2.37304 1.2305,-0.94483 2.8125,-1.38428 1.604,-0.43945 3.2959,-0.43945 1.5821,0 3.0323,0.35156 1.4721,0.32959 2.6367,1.01074 l 0,-1.27441 q 0,-1.29639 -0.3076,-2.19727 -0.2857,-0.90088 -0.9009,-1.45019 -0.5933,-0.57129 -1.5161,-0.81299 -0.9229,-0.26367 -2.1973,-0.26367 -2.1533,0 -3.7354,0.57128 -1.56,0.57129 -2.8344,1.51612 l -1.3843,-3.84522 q 0.7031,-0.4834 1.604,-0.90088 0.9009,-0.43945 1.9775,-0.76904 1.0767,-0.32959 2.3291,-0.50537 1.2525,-0.19775 2.6807,-0.19775 0.9668,0 1.9995,0.10986 1.0327,0.10986 1.9995,0.43945 0.9888,0.30762 1.8457,0.90088 0.8789,0.59326 1.5161,1.56006 0.6592,0.94482 1.0328,2.3291 0.3735,1.38428 0.3735,3.2959 l 0,14.89746 z m -9.9316,-3.60351 q 1.7797,0 3.142,-0.7251 1.3843,-0.7251 2.3072,-1.73584 l 0,-3.51563 q -0.9668,-0.50537 -2.2632,-0.81299 -1.2964,-0.30761 -2.6587,-0.30761 -1.0547,0 -1.9775,0.19775 -0.9229,0.19776 -1.626,0.63721 -0.6812,0.41748 -1.0767,1.09863 -0.3955,0.65918 -0.3955,1.604 0,1.64795 1.1426,2.61475 1.1645,0.94483 3.4058,0.94483 z"
           style=""
           id="path4229" />
        <path
           d="m 1174.9047,728.07428 0,-23.00537 4.6801,0 0,2.79053 q 0.813,-1.75782 2.1094,-2.52686 1.2964,-0.79101 3.0103,-0.79101 2.2851,0 3.8672,1.38427 l -0.6812,4.32862 q -0.6372,-0.43946 -1.5161,-0.76905 -0.8569,-0.35156 -2.1094,-0.35156 -0.791,0 -1.626,0.28565 -0.813,0.26367 -1.4941,0.96679 -0.6812,0.68115 -1.1206,1.84571 -0.4395,1.14257 -0.4395,2.92236 l 0,12.91992 -4.6801,0 z"
           style=""
           id="path4231" />
        <path
           d="m 1202.4584,728.6236 q -2.417,0 -4.3726,-0.81299 -1.9336,-0.81299 -3.2959,-2.35108 -1.3623,-1.56005 -2.1094,-3.77929 -0.7251,-2.24121 -0.7251,-5.07569 0,-2.83447 0.7251,-5.07568 0.7471,-2.24121 2.1094,-3.7793 1.3623,-1.56005 3.2959,-2.37304 1.9556,-0.83496 4.3726,-0.83496 2.395,0 4.3506,0.83496 1.9555,0.81299 3.3178,2.37304 1.3623,1.53809 2.1094,3.7793 0.7471,2.24121 0.7471,5.07568 0,2.83448 -0.7471,5.07569 -0.7471,2.21924 -2.1094,3.77929 -1.3623,1.53809 -3.3178,2.35108 -1.9556,0.81299 -4.3506,0.81299 z m 0,-4.41651 q 1.3403,0 2.417,-0.52734 1.0986,-0.52734 1.8457,-1.49414 0.769,-0.98877 1.1645,-2.39502 0.4175,-1.40625 0.4175,-3.18604 0,-1.77978 -0.4175,-3.18603 -0.3955,-1.42822 -1.1645,-2.41699 -0.7471,-0.98877 -1.8457,-1.51612 -1.0767,-0.52734 -2.417,-0.52734 -1.3404,0 -2.417,0.52734 -1.0767,0.52735 -1.8457,1.51612 -0.7471,0.98877 -1.1646,2.41699 -0.3955,1.40625 -0.3955,3.18603 0,1.77979 0.3955,3.18604 0.4175,1.40625 1.1646,2.39502 0.769,0.9668 1.8457,1.49414 1.0766,0.52734 2.417,0.52734 z"
           style=""
           id="path4233" />
        <path
           d="m 1218.806,728.07428 0,-30.27832 4.6802,-2.21924 0,32.49756 -4.6802,0 z"
           style=""
           id="path4235" />
        <path
           d="m 1230.4955,728.07428 0,-23.00537 4.6802,0 0,23.00537 -4.6802,0 z m 2.3291,-26.58691 q -0.5933,0 -1.1206,-0.21973 -0.5054,-0.21973 -0.9009,-0.59326 -0.3735,-0.39551 -0.5933,-0.90088 -0.2197,-0.52734 -0.2197,-1.12061 0,-0.59326 0.2197,-1.09863 0.2198,-0.52734 0.5933,-0.90088 0.3955,-0.39551 0.9009,-0.61523 0.5273,-0.21973 1.1206,-0.21973 0.5932,0 1.0986,0.21973 0.5274,0.21972 0.9009,0.61523 0.3955,0.37354 0.6152,0.90088 0.2198,0.50537 0.2198,1.09863 0,0.59327 -0.2198,1.12061 -0.2197,0.50537 -0.6152,0.90088 -0.3735,0.37353 -0.9009,0.59326 -0.5054,0.21973 -1.0986,0.21973 z"
           style=""
           id="path4237" />
        <path
           d="m 1256.1815,728.07428 0,-13.73291 q 0,-1.45019 -0.3515,-2.46094 -0.3516,-1.03271 -0.9668,-1.66992 -0.6153,-0.65918 -1.4502,-0.94482 -0.835,-0.30762 -1.8238,-0.30762 -1.0547,0 -1.9555,0.28564 -0.9009,0.26368 -1.5601,0.87891 -0.6592,0.61524 -1.0547,1.64795 -0.3735,1.01074 -0.3735,2.48291 l 0,13.8208 -4.6802,0 0,-23.00537 4.6802,0 0,2.21924 q 1.1206,-1.42822 2.5708,-2.0874 1.4502,-0.65918 3.3618,-0.65918 1.8018,0 3.3179,0.52734 1.5161,0.50537 2.6147,1.66992 1.1206,1.16455 1.7359,3.03223 0.6152,1.86767 0.6152,4.57031 l 0,13.73291 -4.6802,0 z"
           style=""
           id="path4239" />
        <path
           d="m 1284.9877,728.07428 -4.4825,0 0,-1.97754 q -0.4394,0.46143 -1.0546,0.92285 -0.6153,0.43946 -1.4063,0.81299 -0.769,0.35156 -1.7358,0.57129 -0.9668,0.21973 -2.1094,0.21973 -1.7578,0 -3.252,-0.4834 -1.4941,-0.4834 -2.5927,-1.4502 -1.0987,-0.98877 -1.7359,-2.41699 -0.6152,-1.45019 -0.6152,-3.36182 0,-1.97753 0.7471,-3.40576 0.747,-1.45019 1.9775,-2.37304 1.2305,-0.94483 2.8125,-1.38428 1.604,-0.43945 3.2959,-0.43945 1.582,0 3.0322,0.35156 1.4722,0.32959 2.6367,1.01074 l 0,-1.27441 q 0,-1.29639 -0.3076,-2.19727 -0.2856,-0.90088 -0.9008,-1.45019 -0.5933,-0.57129 -1.5162,-0.81299 -0.9228,-0.26367 -2.1972,-0.26367 -2.1533,0 -3.7354,0.57128 -1.56,0.57129 -2.8345,1.51612 l -1.3842,-3.84522 q 0.7031,-0.4834 1.604,-0.90088 0.9009,-0.43945 1.9775,-0.76904 1.0767,-0.32959 2.3291,-0.50537 1.2525,-0.19775 2.6807,-0.19775 0.9668,0 1.9995,0.10986 1.0327,0.10986 1.9995,0.43945 0.9888,0.30762 1.8457,0.90088 0.8789,0.59326 1.5161,1.56006 0.6592,0.94482 1.0327,2.3291 0.3736,1.38428 0.3736,3.2959 l 0,14.89746 z m -9.9317,-3.60351 q 1.7798,0 3.1421,-0.7251 1.3843,-0.7251 2.3071,-1.73584 l 0,-3.51563 q -0.9667,-0.50537 -2.2631,-0.81299 -1.2964,-0.30761 -2.6587,-0.30761 -1.0547,0 -1.9776,0.19775 -0.9228,0.19776 -1.6259,0.63721 -0.6812,0.41748 -1.0767,1.09863 -0.3955,0.65918 -0.3955,1.604 0,1.64795 1.1426,2.61475 1.1645,0.94483 3.4057,0.94483 z"
           style=""
           id="path4241" />
      </g>
    </g>
  </g>
</svg>
