<?xml version="1.0" encoding="UTF-8" standalone="no"?>
<!-- Created with Inkscape (http://www.inkscape.org/) -->

<svg
   xmlns:dc="http://purl.org/dc/elements/1.1/"
   xmlns:cc="http://creativecommons.org/ns#"
   xmlns:rdf="http://www.w3.org/1999/02/22-rdf-syntax-ns#"
   xmlns:svg="http://www.w3.org/2000/svg"
   xmlns="http://www.w3.org/2000/svg"
   xmlns:sodipodi="http://sodipodi.sourceforge.net/DTD/sodipodi-0.dtd"
   xmlns:inkscape="http://www.inkscape.org/namespaces/inkscape"
   width="438.20618"
   height="334.09213"
   viewBox="0 0 438.20618 334.09214"
   id="svg2"
   version="1.1"
   inkscape:version="0.91 r13725"
   sodipodi:docname="OKC.svg"
   inkscape:export-filename="C:\Users\paulb\Dropbox\Projects\Terminal Silhouettes\Silhouettes\png\OKC.png"
   inkscape:export-xdpi="90"
   inkscape:export-ydpi="90">
  <defs
     id="defs4" />
  <sodipodi:namedview
     id="base"
     pagecolor="#ffffff"
     bordercolor="#666666"
     borderopacity="1.0"
     inkscape:pageopacity="1"
     inkscape:pageshadow="2"
     inkscape:zoom="0.98994949"
     inkscape:cx="-163.41429"
     inkscape:cy="135.1449"
     inkscape:document-units="px"
     inkscape:current-layer="layer1"
     showgrid="false"
     units="px"
     fit-margin-top="25"
     fit-margin-left="25"
     fit-margin-right="25"
     fit-margin-bottom="25"
     inkscape:window-width="1920"
     inkscape:window-height="1137"
     inkscape:window-x="-8"
     inkscape:window-y="-8"
     inkscape:window-maximized="1" />
  <metadata
     id="metadata7">
    <rdf:RDF>
      <cc:Work
         rdf:about="">
        <dc:format>image/svg+xml</dc:format>
        <dc:type
           rdf:resource="http://purl.org/dc/dcmitype/StillImage" />
        <dc:title />
      </cc:Work>
    </rdf:RDF>
  </metadata>
  <g
     inkscape:groupmode="layer"
     id="layer2"
     inkscape:label="Terminal"
     transform="translate(-903.20705,-214.54968)">
    <path
       style="fill:#dddddd;fill-opacity:1;fill-rule:evenodd;stroke:#222222;stroke-width:1.5;stroke-linecap:butt;stroke-linejoin:miter;stroke-miterlimit:4;stroke-dasharray:none;stroke-opacity:1"
       d="m 929.08004,460.32763 -0.12022,32.65967 152.67898,-0.0401 -0.049,-8.95279 52.025,0.28336 c 0,0 10.8243,5.8939 20.3452,9.63426 l -3.2303,8.1041 c 0,0 9.0109,4.0804 18.9852,6.85733 l -3.0036,11.50443 7.8774,2.32356 2.9469,-11.73113 c 0,0 15.5282,4.13707 27.7127,5.21383 0,0 22.1021,1.87018 34.0032,1.07678 0,0 24.9924,-1.36014 40.7472,-5.72388 l 3.1737,10.82436 7.8207,-2.04019 -3.2303,-11.05106 c 0,0 11.6178,-3.45699 20.742,-7.42404 l -3.5137,-8.3308 c 0,0 5.4406,-1.8135 10.4277,-4.2504 l -27.7072,-58.62307 c 0,0 -68.6822,37.92466 -138.4692,-12.31098 l -10.5838,14.88536 0.7367,0.51005 -4.3637,6.06391 -7.3674,-5.49719 -3.4004,4.42042 -7.8775,-6.57396 -7.254,-6.85733 -13.5445,13.14793 c 0,0 10.6542,12.01448 23.9156,20.57196 l -6.6873,9.3509 0.6233,0.45337 -31.6796,-0.0567 0.057,-8.33079 z"
       id="path3335"
       inkscape:connector-curvature="0"
       sodipodi:nodetypes="cccccccccccccccccccccc" />
  </g>
  <g
     inkscape:groupmode="layer"
     id="layer1"
     inkscape:label="Label"
     transform="translate(-5.6893302e-5,177.73176)">
    <g
       id="g4145"
       transform="translate(5e-5,0)">
      <g
         style="font-style:normal;font-variant:normal;font-weight:bold;font-stretch:normal;font-size:125px;line-height:110.00000238%;font-family:Overpass;-inkscape-font-specification:'Overpass, Bold';text-align:center;letter-spacing:0px;word-spacing:0px;writing-mode:lr-tb;text-anchor:middle;fill:#dddddd;fill-opacity:1;stroke:#222222;stroke-width:0.25;stroke-linecap:butt;stroke-linejoin:miter;stroke-miterlimit:4;stroke-dasharray:none;stroke-opacity:1"
         id="text4137">
        <path
           d="m 131.1514,-62.091625 q -7.08008,0 -12.69531,-1.831055 -5.61524,-1.89209 -9.94874,-5.065918 -4.27246,-3.234863 -7.32421,-7.568359 -3.051762,-4.394531 -5.004887,-9.399414 -1.89209,-5.065918 -2.807617,-10.498047 -0.854492,-5.493162 -0.854492,-10.925292 0,-5.37109 0.854492,-10.80322 0.915527,-5.49317 2.807617,-10.49805 1.953125,-5.06592 5.004887,-9.39941 3.05175,-4.39454 7.32421,-7.56836 4.3335,-3.23487 9.94874,-5.06592 5.61523,-1.89209 12.69531,-1.89209 7.08008,0 12.63428,1.89209 5.61523,1.83105 9.88769,5.06592 4.27246,3.17382 7.32422,7.56836 3.05176,4.33349 4.94385,9.39941 1.95312,5.00488 2.80761,10.49805 0.91553,5.43213 0.91553,10.80322 0,5.43213 -0.91553,10.925292 -0.85449,5.432129 -2.80761,10.498047 -1.89209,5.004883 -4.94385,9.399414 -3.05176,4.333496 -7.32422,7.568359 -4.27246,3.173828 -9.88769,5.065918 -5.5542,1.831055 -12.63428,1.831055 z m 0,-16.296387 q 5.85937,0 9.82666,-2.746582 4.02832,-2.746582 6.46972,-7.019043 2.50245,-4.272461 3.60108,-9.338379 1.09863,-5.126954 1.09863,-9.887694 0,-3.35693 -0.48828,-6.7749 -0.42725,-3.47901 -1.46484,-6.65284 -1.0376,-3.23486 -2.68555,-6.04248 -1.64795,-2.86865 -3.96729,-4.94384 -2.31933,-2.13623 -5.43212,-3.35694 -3.05176,-1.2207 -6.95801,-1.2207 -3.96729,0 -7.08008,1.28174 -3.05176,1.28174 -5.43213,3.479 -2.31934,2.13623 -3.96728,5.00488 -1.64795,2.86866 -2.68555,6.10352 -1.0376,3.23486 -1.52588,6.5918 -0.42725,3.35693 -0.42725,6.53076 0,5.00488 1.09864,10.19287 1.09863,5.126953 3.54004,9.338379 2.50244,4.15039 6.53076,6.835937 4.02832,2.624512 9.94873,2.624512 z"
           id="path4152"
           inkscape:connector-curvature="0" />
        <path
           d="m 244.79886,-63.617504 -22.52197,-41.870116 -16.23536,20.01953 0,21.850586 -16.90673,0 0,-87.524416 16.90673,0 0,41.74805 33.14209,-41.74805 19.9585,0 -25.51269,31.37207 30.88378,56.152346 -19.71435,0 z"
           id="path4154"
           inkscape:connector-curvature="0" />
        <path
           d="m 314.3179,-62.213696 q -6.83594,0 -12.20703,-1.831054 -5.37109,-1.831055 -9.46045,-5.065918 -4.08935,-3.234863 -6.95801,-7.56836 -2.86865,-4.333496 -4.6997,-9.338378 -1.77002,-5.065918 -2.62452,-10.498047 -0.79345,-5.432127 -0.79345,-10.864257 0,-5.00488 0.85449,-10.25391 0.85449,-5.31006 2.62451,-10.31494 1.83106,-5.00488 4.69971,-9.46045 2.92969,-4.45556 6.95801,-7.8125 4.08935,-3.35693 9.46045,-5.31006 5.37109,-1.95312 12.14599,-1.95312 6.28662,0 11.41358,1.70898 5.12695,1.70899 9.0332,4.5166 3.90625,2.74659 6.5918,6.28663 2.74658,3.54003 4.21142,7.20214 l -15.13672,6.89698 q -1.58691,-2.44141 -3.23486,-4.39453 -1.64795,-1.95313 -3.54004,-3.23487 -1.89209,-1.34277 -4.21143,-2.01416 -2.2583,-0.73242 -5.12695,-0.73242 -3.66211,0 -6.53076,1.28174 -2.86865,1.2207 -5.00488,3.35693 -2.13623,2.13623 -3.60108,5.00488 -1.46484,2.86866 -2.38037,6.10352 -0.91553,3.17383 -1.34277,6.5918 -0.36621,3.35693 -0.36621,6.53076 0,5.12695 1.09863,10.253905 1.09863,5.126953 3.41797,9.277344 2.31933,4.15039 5.92041,6.774902 3.66211,2.563477 8.78906,2.563477 2.68555,0 4.94385,-0.793457 2.2583,-0.854492 4.15039,-2.319336 1.95312,-1.464844 3.60107,-3.540039 1.70899,-2.075196 3.17383,-4.577637 l 15.50293,5.859375 q -2.07519,4.821777 -5.00488,8.850098 -2.92969,3.967285 -6.83594,6.835937 -3.84521,2.807617 -8.72803,4.394531 -4.88281,1.586914 -10.80322,1.586914 z"
           id="path4156"
           inkscape:connector-curvature="0" />
      </g>
      <g
         style="font-style:normal;font-variant:normal;font-weight:normal;font-stretch:normal;font-size:45px;line-height:110.00000238%;font-family:Overpass;-inkscape-font-specification:'Overpass, Normal';text-align:center;letter-spacing:0px;word-spacing:0px;writing-mode:lr-tb;text-anchor:middle;fill:#222222;fill-opacity:1;stroke:none;stroke-width:1px;stroke-linecap:butt;stroke-linejoin:miter;stroke-opacity:1"
         id="text4141">
        <path
           d="m 85.1138,-13.919649 q -2.526855,0 -4.526367,-0.65918 -1.999512,-0.681152 -3.537598,-1.82373 -1.516113,-1.164551 -2.592773,-2.72461 -1.07666,-1.582031 -1.757813,-3.383789 -0.681152,-1.82373 -1.010742,-3.779297 -0.307617,-1.977539 -0.307617,-3.933105 0,-1.933594 0.307617,-3.88916 0.32959,-1.977539 1.010742,-3.779297 0.681153,-1.823731 1.757813,-3.383789 1.07666,-1.582031 2.592773,-2.72461 1.538086,-1.16455 3.537598,-1.82373 1.999512,-0.681152 4.526367,-0.681152 2.526856,0 4.526367,0.681152 1.999512,0.65918 3.515625,1.82373 1.538086,1.142579 2.614746,2.72461 1.07666,1.560058 1.757813,3.383789 0.681152,1.801758 0.988769,3.779297 0.307618,1.955566 0.307618,3.88916 0,1.955566 -0.307618,3.933105 -0.307617,1.955567 -0.988769,3.779297 -0.681153,1.801758 -1.757813,3.383789 -1.07666,1.560059 -2.614746,2.72461 -1.516113,1.142578 -3.515625,1.82373 -1.999511,0.65918 -4.526367,0.65918 z m 0,-4.504395 q 1.647949,0 2.944336,-0.505371 1.296387,-0.527343 2.263184,-1.40625 0.988769,-0.878906 1.669921,-2.043457 0.703125,-1.186523 1.142579,-2.48291 0.439453,-1.318359 0.637207,-2.680664 0.197754,-1.384277 0.197754,-2.680664 0,-1.362305 -0.197754,-2.768555 -0.197754,-1.428222 -0.637207,-2.724609 -0.439454,-1.318359 -1.142579,-2.460938 -0.681152,-1.142578 -1.669921,-1.977539 -0.966797,-0.856933 -2.263184,-1.340332 -1.296387,-0.505371 -2.944336,-0.505371 -1.647949,0 -2.944336,0.527344 -1.296387,0.505371 -2.285156,1.384277 -0.98877,0.878907 -1.691895,2.06543 -0.681152,1.164551 -1.120605,2.48291 -0.439453,1.296387 -0.637207,2.680664 -0.197754,1.362305 -0.197754,2.636719 0,2.06543 0.461426,4.174805 0.461425,2.087402 1.516113,3.801269 1.054687,1.691895 2.746582,2.768555 1.691895,1.054687 4.152832,1.054687 z"
           id="path4159"
           inkscape:connector-curvature="0" />
        <path
           d="m 105.15286,-14.468966 0,-30.27832 4.68018,-2.219238 0,16.611328 6.78955,-7.119141 5.75684,0 -6.30616,6.394043 8.63526,16.611328 -5.11963,0 -6.78955,-13.227539 -2.96631,2.966309 0,10.26123 -4.68018,0 z"
           id="path4161"
           inkscape:connector-curvature="0" />
        <path
           d="m 130.15775,-14.468966 0,-30.27832 4.68017,-2.219238 0,32.497558 -4.68017,0 z"
           id="path4163"
           inkscape:connector-curvature="0" />
        <path
           d="m 159.42532,-14.468966 -4.48242,0 0,-1.977539 q -0.43945,0.461426 -1.05469,0.922852 -0.61523,0.439453 -1.40625,0.812988 -0.76904,0.351563 -1.73584,0.571289 -0.96679,0.219727 -2.10937,0.219727 -1.75781,0 -3.25195,-0.483399 -1.49414,-0.483398 -2.59278,-1.450195 -1.09863,-0.988769 -1.73584,-2.416992 -0.61523,-1.450195 -0.61523,-3.361816 0,-1.97754 0.74707,-3.405762 0.74707,-1.450195 1.97754,-2.373047 1.23047,-0.944824 2.8125,-1.384277 1.604,-0.439454 3.2959,-0.439454 1.58203,0 3.03222,0.351563 1.47217,0.32959 2.63672,1.010742 l 0,-1.274414 q 0,-1.296387 -0.30762,-2.197266 -0.28564,-0.900878 -0.90087,-1.450195 -0.59327,-0.571289 -1.51612,-0.812988 -0.92285,-0.263672 -2.19726,-0.263672 -2.15332,0 -3.73535,0.571289 -1.56006,0.571289 -2.83448,1.516113 l -1.38427,-3.845214 q 0.70312,-0.483399 1.604,-0.900879 0.90088,-0.439454 1.97754,-0.769043 1.07666,-0.32959 2.3291,-0.505371 1.25244,-0.197754 2.68066,-0.197754 0.9668,0 1.99952,0.109863 1.03271,0.109863 1.99951,0.439453 0.98877,0.307617 1.8457,0.900879 0.87891,0.593262 1.51611,1.560059 0.65918,0.944824 1.03272,2.329101 0.37353,1.384277 0.37353,3.295899 l 0,14.89746 z m -9.93164,-3.603515 q 1.77979,0 3.14209,-0.725098 1.38428,-0.725097 2.30713,-1.73584 l 0,-3.515625 q -0.9668,-0.505371 -2.26318,-0.812988 -1.29639,-0.307617 -2.65869,-0.307617 -1.05469,0 -1.97754,0.197754 -0.92285,0.197754 -1.62598,0.637207 -0.68115,0.41748 -1.07666,1.098633 -0.39551,0.659179 -0.39551,1.604004 0,1.647949 1.14258,2.614746 1.16455,0.944824 3.40576,0.944824 z"
           id="path4165"
           inkscape:connector-curvature="0" />
        <path
           d="m 180.0137,-14.468966 0,-13.73291 q 0,-1.450195 -0.35156,-2.460937 -0.35156,-1.032715 -0.9668,-1.669922 -0.61523,-0.65918 -1.45019,-0.944824 -0.83496,-0.307617 -1.82373,-0.307617 -1.05469,0 -1.95557,0.285644 -0.90088,0.263672 -1.56006,0.878906 -0.65918,0.615235 -1.05469,1.64795 -0.37353,1.010742 -0.37353,2.48291 l 0,13.8208 -4.68018,0 0,-30.322265 4.68018,-2.175293 0,11.711426 q 1.12061,-1.428223 2.5708,-2.087403 1.4502,-0.659179 3.36182,-0.659179 1.80175,0 3.31787,0.527343 1.51611,0.505371 2.61474,1.669922 1.12061,1.164551 1.73584,3.032227 0.61524,1.867676 0.61524,4.570312 l 0,13.73291 -4.68018,0 z"
           id="path4167"
           inkscape:connector-curvature="0" />
        <path
           d="m 200.55814,-13.919649 q -2.417,0 -4.37256,-0.812988 -1.9336,-0.812989 -3.2959,-2.351075 -1.36231,-1.560058 -2.10938,-3.779296 -0.72509,-2.241211 -0.72509,-5.075684 0,-2.834473 0.72509,-5.075684 0.74707,-2.241211 2.10938,-3.779297 1.3623,-1.560058 3.2959,-2.373046 1.95556,-0.834961 4.37256,-0.834961 2.39502,0 4.35058,0.834961 1.95557,0.812988 3.31787,2.373046 1.36231,1.538086 2.10938,3.779297 0.74707,2.241211 0.74707,5.075684 0,2.834473 -0.74707,5.075684 -0.74707,2.219238 -2.10938,3.779296 -1.3623,1.538086 -3.31787,2.351075 -1.95556,0.812988 -4.35058,0.812988 z m 0,-4.416504 q 1.34033,0 2.41699,-0.527344 1.09863,-0.527344 1.8457,-1.49414 0.76904,-0.98877 1.16455,-2.39502 0.41748,-1.40625 0.41748,-3.186035 0,-1.779785 -0.41748,-3.186035 -0.39551,-1.428223 -1.16455,-2.416992 -0.74707,-0.98877 -1.8457,-1.516114 -1.07666,-0.527343 -2.41699,-0.527343 -1.34034,0 -2.417,0.527343 -1.07666,0.527344 -1.8457,1.516114 -0.74707,0.988769 -1.16455,2.416992 -0.39551,1.40625 -0.39551,3.186035 0,1.779785 0.39551,3.186035 0.41748,1.40625 1.16455,2.39502 0.76904,0.966796 1.8457,1.49414 1.07666,0.527344 2.417,0.527344 z"
           id="path4169"
           inkscape:connector-curvature="0" />
        <path
           d="m 243.66849,-14.468966 0,-13.776855 q 0,-2.570801 -1.05469,-3.955078 -1.05469,-1.384277 -3.16406,-1.384277 -0.94483,0 -1.77979,0.351562 -0.83496,0.351563 -1.47217,1.054688 -0.61523,0.703125 -0.98877,1.757812 -0.35156,1.032715 -0.35156,2.416992 l 0,13.535156 -4.68017,0 0,-13.776855 q 0,-2.570801 -1.07666,-3.955078 -1.05469,-1.384277 -3.16407,-1.384277 -0.94482,0 -1.77978,0.351562 -0.81299,0.351563 -1.4502,1.054688 -0.61523,0.703125 -0.98877,1.757812 -0.35156,1.032715 -0.35156,2.416992 l 0,13.535156 -4.68017,0 0,-23.005371 4.68017,0 0,2.131348 q 0.98877,-1.428223 2.50488,-2.043457 1.51612,-0.615234 3.2959,-0.615234 1.88965,0 3.49366,0.769043 1.62597,0.74707 2.61474,2.504882 1.09863,-1.691894 2.8125,-2.48291 1.71387,-0.791015 3.99902,-0.791015 1.75782,0 3.25196,0.505371 1.51611,0.505371 2.61474,1.560058 1.12061,1.054688 1.75782,2.702637 0.6372,1.647949 0.6372,3.911133 l 0,14.853515 -4.68017,0 z"
           id="path4171"
           inkscape:connector-curvature="0" />
        <path
           d="m 272.54056,-14.468966 -4.48242,0 0,-1.977539 q -0.43946,0.461426 -1.05469,0.922852 -0.61524,0.439453 -1.40625,0.812988 -0.76904,0.351563 -1.73584,0.571289 -0.9668,0.219727 -2.10938,0.219727 -1.75781,0 -3.25195,-0.483399 -1.49414,-0.483398 -2.59277,-1.450195 -1.09864,-0.988769 -1.73584,-2.416992 -0.61524,-1.450195 -0.61524,-3.361816 0,-1.97754 0.74707,-3.405762 0.74707,-1.450195 1.97754,-2.373047 1.23047,-0.944824 2.8125,-1.384277 1.60401,-0.439454 3.2959,-0.439454 1.58203,0 3.03223,0.351563 1.47217,0.32959 2.63672,1.010742 l 0,-1.274414 q 0,-1.296387 -0.30762,-2.197266 -0.28565,-0.900878 -0.90088,-1.450195 -0.59326,-0.571289 -1.51611,-0.812988 -0.92285,-0.263672 -2.19727,-0.263672 -2.15332,0 -3.73535,0.571289 -1.56006,0.571289 -2.83447,1.516113 l -1.38428,-3.845214 q 0.70312,-0.483399 1.604,-0.900879 0.90088,-0.439454 1.97754,-0.769043 1.07666,-0.32959 2.3291,-0.505371 1.25245,-0.197754 2.68067,-0.197754 0.96679,0 1.99951,0.109863 1.03271,0.109863 1.99951,0.439453 0.98877,0.307617 1.8457,0.900879 0.87891,0.593262 1.51612,1.560059 0.65918,0.944824 1.03271,2.329101 0.37354,1.384277 0.37354,3.295899 l 0,14.89746 z m -9.93164,-3.603515 q 1.77978,0 3.14209,-0.725098 1.38427,-0.725097 2.30713,-1.73584 l 0,-3.515625 q -0.9668,-0.505371 -2.26319,-0.812988 -1.29638,-0.307617 -2.65869,-0.307617 -1.05469,0 -1.97754,0.197754 -0.92285,0.197754 -1.62597,0.637207 -0.68116,0.41748 -1.07666,1.098633 -0.39551,0.659179 -0.39551,1.604004 0,1.647949 1.14258,2.614746 1.16455,0.944824 3.40576,0.944824 z"
           id="path4173"
           inkscape:connector-curvature="0" />
        <path
           d="m 301.918,-13.919649 q -2.43897,0 -4.37256,-0.65918 -1.91162,-0.681152 -3.36182,-1.82373 -1.45019,-1.164551 -2.48291,-2.72461 -1.01074,-1.582031 -1.64795,-3.383789 -0.6372,-1.82373 -0.94482,-3.779297 -0.28564,-1.977539 -0.28564,-3.933105 0,-1.801758 0.28564,-3.713379 0.30762,-1.911621 0.94482,-3.713379 0.65918,-1.82373 1.6919,-3.427734 1.03271,-1.604004 2.48291,-2.8125 1.45019,-1.208496 3.36182,-1.911621 1.91162,-0.703125 4.32861,-0.703125 2.21924,0 3.99902,0.549316 1.77979,0.527344 3.09815,1.40625 1.34033,0.878906 2.24121,1.999512 0.90088,1.120605 1.38428,2.285156 l -4.28467,1.999512 q -0.57129,-0.900879 -1.2085,-1.582031 -0.61523,-0.703125 -1.38428,-1.186524 -0.74707,-0.483398 -1.69189,-0.725098 -0.94482,-0.241699 -2.15332,-0.241699 -1.58203,0 -2.8125,0.505371 -1.2085,0.505371 -2.13135,1.384278 -0.90088,0.878906 -1.53808,2.043457 -0.63721,1.16455 -1.03272,2.48291 -0.37353,1.296387 -0.54932,2.680664 -0.17578,1.384277 -0.17578,2.680664 0,2.087402 0.46143,4.196777 0.4834,2.109375 1.49414,3.80127 1.01074,1.691894 2.5708,2.746582 1.56006,1.054687 3.71338,1.054687 1.16455,0 2.0874,-0.285644 0.94483,-0.307617 1.71387,-0.834961 0.79101,-0.549317 1.40625,-1.296387 0.63721,-0.74707 1.18652,-1.647949 l 4.37256,1.669922 q -0.65918,1.538086 -1.64795,2.8125 -0.9668,1.274414 -2.30713,2.175293 -1.31836,0.900879 -3.03222,1.40625 -1.6919,0.505371 -3.7793,0.505371 z"
           id="path4175"
           inkscape:connector-curvature="0" />
        <path
           d="m 318.59525,-14.468966 0,-23.005371 4.68017,0 0,23.005371 -4.68017,0 z m 2.3291,-26.586914 q -0.59326,0 -1.12061,-0.219726 -0.50537,-0.219727 -0.90088,-0.593262 -0.37353,-0.395508 -0.59326,-0.900879 -0.21973,-0.527344 -0.21973,-1.120605 0,-0.593262 0.21973,-1.098633 0.21973,-0.527344 0.59326,-0.900879 0.39551,-0.395508 0.90088,-0.615234 0.52735,-0.219727 1.12061,-0.219727 0.59326,0 1.09863,0.219727 0.52734,0.219726 0.90088,0.615234 0.39551,0.373535 0.61523,0.900879 0.21973,0.505371 0.21973,1.098633 0,0.593261 -0.21973,1.120605 -0.21972,0.505371 -0.61523,0.900879 -0.37354,0.373535 -0.90088,0.593262 -0.50537,0.219726 -1.09863,0.219726 z"
           id="path4177"
           inkscape:connector-curvature="0" />
        <path
           d="m 336.72269,-13.919649 q -1.36231,0 -2.35108,-0.417481 -0.96679,-0.395507 -1.604,-1.142578 -0.61524,-0.74707 -0.90088,-1.801758 -0.28564,-1.07666 -0.28564,-2.373046 l 0,-13.754883 -3.55958,0 0,-4.064942 3.55958,0 0,-7.229004 4.68017,-2.263183 0,9.492187 5.44922,0 0,4.064942 -5.44922,0 0,12.546387 q 0,0.571289 0.0879,1.054687 0.10986,0.483398 0.35156,0.834961 0.26368,0.351562 0.70313,0.549316 0.43945,0.175782 1.1206,0.175782 1.66993,0 3.40577,-1.076661 l -0.57129,4.350586 q -0.9668,0.483399 -2.10938,0.769043 -1.14258,0.285645 -2.52685,0.285645 z"
           id="path4179"
           inkscape:connector-curvature="0" />
        <path
           d="m 354.67435,-5.745821 -4.76807,0 3.5376,-9.118652 -8.59131,-22.609864 4.63623,0 5.66895,15.05127 q 0.24169,0.637207 0.37353,1.054687 0.13184,0.417481 0.26367,0.966797 0.13184,-0.549316 0.26367,-0.966797 0.13184,-0.41748 0.37354,-1.054687 l 5.71289,-15.05127 4.68018,0 -12.15088,31.728516 z"
           id="path4181"
           inkscape:connector-curvature="0" />
      </g>
    </g>
  </g>
</svg>
