<?xml version="1.0" encoding="UTF-8" standalone="no"?>
<!-- Created with Inkscape (http://www.inkscape.org/) -->

<svg
   xmlns:dc="http://purl.org/dc/elements/1.1/"
   xmlns:cc="http://creativecommons.org/ns#"
   xmlns:rdf="http://www.w3.org/1999/02/22-rdf-syntax-ns#"
   xmlns:svg="http://www.w3.org/2000/svg"
   xmlns="http://www.w3.org/2000/svg"
   xmlns:sodipodi="http://sodipodi.sourceforge.net/DTD/sodipodi-0.dtd"
   xmlns:inkscape="http://www.inkscape.org/namespaces/inkscape"
   width="1414.3378"
   height="238.64781"
   viewBox="0 0 1414.3378 238.64781"
   id="svg2"
   version="1.1"
   inkscape:version="0.91 r13725"
   sodipodi:docname="ONT.svg"
   inkscape:export-filename="C:\Users\paulb\Dropbox\Projects\Terminal Silhouettes\Silhouettes\png\ONT.png"
   inkscape:export-xdpi="90"
   inkscape:export-ydpi="90">
  <defs
     id="defs4" />
  <sodipodi:namedview
     id="base"
     pagecolor="#ffffff"
     bordercolor="#666666"
     borderopacity="1.0"
     inkscape:pageopacity="1"
     inkscape:pageshadow="2"
     inkscape:zoom="0.70710678"
     inkscape:cx="760.17629"
     inkscape:cy="-135.86703"
     inkscape:document-units="px"
     inkscape:current-layer="layer3"
     showgrid="false"
     units="px"
     fit-margin-top="25"
     fit-margin-left="25"
     fit-margin-right="25"
     fit-margin-bottom="25"
     inkscape:window-width="1920"
     inkscape:window-height="1137"
     inkscape:window-x="1912"
     inkscape:window-y="-8"
     inkscape:window-maximized="1"
     showguides="false"
     inkscape:guide-bbox="true">
    <sodipodi:guide
       position="-1685.3499,53.162483"
       orientation="-0.00051450818,0.99999987"
       id="guide4148" />
    <sodipodi:guide
       position="3103.7835,-0.3756063"
       orientation="0.00062124639,-0.99999981"
       id="guide4150" />
    <sodipodi:guide
       position="-1380.7889,-48.862926"
       orientation="-0.00084144661,0.99999965"
       id="guide4152" />
    <sodipodi:guide
       position="2745.1793,156.19804"
       orientation="0.00058644249,-0.99999983"
       id="guide4154" />
    <sodipodi:guide
       position="-1473.0404,95.959273"
       orientation="0.99999075,0.0043010415"
       id="guide4156" />
    <sodipodi:guide
       position="-817.54036,77.459273"
       orientation="0.99996817,0.0079785887"
       id="guide4158" />
    <sodipodi:guide
       position="-233.29035,103.20927"
       orientation="-0.00039473699,0.99999992"
       id="guide4162" />
    <sodipodi:guide
       position="1605.2098,97.959273"
       orientation="0.00053120823,-0.99999986"
       id="guide4164" />
    <sodipodi:guide
       position="-1214.7903,-32.540726"
       orientation="-0.00039777252,0.99999992"
       id="guide4166" />
    <sodipodi:guide
       position="2152.4598,87.959273"
       orientation="1,0"
       id="guide4168" />
    <sodipodi:guide
       position="2808.4598,66.459273"
       orientation="1,0"
       id="guide4170" />
  </sodipodi:namedview>
  <metadata
     id="metadata7">
    <rdf:RDF>
      <cc:Work
         rdf:about="">
        <dc:format>image/svg+xml</dc:format>
        <dc:type
           rdf:resource="http://purl.org/dc/dcmitype/StillImage" />
        <dc:title></dc:title>
      </cc:Work>
    </rdf:RDF>
  </metadata>
  <g
     inkscape:groupmode="layer"
     id="layer2"
     inkscape:label="Terminal"
     transform="translate(936.60251,-275.17366)">
    <path
       style="fill:#dddddd;fill-opacity:1;fill-rule:evenodd;stroke:#222222;stroke-width:1.5;stroke-linecap:butt;stroke-linejoin:miter;stroke-miterlimit:4;stroke-dasharray:none;stroke-opacity:1"
       d="m 336.08162,432.62531 -176.99536,0.10382 0,27.17334 -123.195675,0.0632 c -7.583631,0.004 -9.205162,-5.75823 -9.205162,-5.75823 -2.814037,-8.10834 -8.680813,-7.47406 -8.680813,-7.47406 l 0,1.61149 -12.8781388,0.007 0,-1.61307 c -8.2991126,0.003 -9.9497832,7.27592 -9.9497832,7.27592 -2.96791,6.74525 -10.117875,5.97745 -10.117875,5.97745 l -16.99803,0.008 0.03108,15.15784 28.9740326,-0.0179 -0.047972,-1.7116 c 15.9304994,8.06064 27.2824314,-0.0474 27.2824314,-0.0474 l 0.01581,1.74217 119.863095,-0.0743 -0.0675,12.12405 84.9227,-0.0717 0,-3.93227 c 20.50553,10.33574 37.30123,-0.0148 37.30123,-0.0148 l 0,3.91593 69.74588,-0.059 0,-12.08191 115.8834,-0.0717 -0.40472,-15.10619 -115.47868,0.0596 0,-27.186 z m -978.49599,0.57387 -176.76245,0.10329 0.11646,27.10326 -91.78546,0.0474 0.13543,15.25111 91.71538,-0.0569 0.0532,12.3359 69.44288,-0.058 0.0675,-4.36649 c 20.23575,10.18532 37.90831,-0.0153 37.90831,-0.0153 l 0.0675,4.34963 69.47713,-0.0585 -0.098,-12.29691 149.36936,-0.0933 0.0675,-1.73374 c 14.97445,7.55468 27.99279,-0.0675 27.99279,-0.0675 l 0.0675,1.78381 31.0956,-0.019 -0.2029,-15.20053 -19.49323,0.01 c -7.89194,0.004 -9.64571,-6.20299 -9.64571,-6.20299 -3.23772,-7.55468 -8.76882,-7.08779 -8.76882,-7.08779 l 0,1.67841 -12.95088,0.007 0,-1.61253 c -8.63392,0 -9.84807,7.14996 -9.84807,7.14996 -2.6981,6.61035 -9.98297,6.09444 -9.98297,6.09444 l -137.82178,0.0706 -0.21606,-27.11538 z"
       id="path4160"
       inkscape:connector-curvature="0" />
  </g>
  <g
     inkscape:groupmode="layer"
     id="layer3"
     inkscape:label="Label"
     transform="translate(-2152.0403,-288.31146)">
    <g
       id="g4186"
       transform="translate(48,-234)">
      <g
         style="font-style:normal;font-variant:normal;font-weight:bold;font-stretch:normal;font-size:125px;line-height:125%;font-family:Overpass;-inkscape-font-specification:'Overpass, Bold';text-align:start;letter-spacing:0px;word-spacing:0px;writing-mode:lr-tb;text-anchor:start;fill:#dddddd;fill-opacity:1;stroke:#222222;stroke-width:0.25;stroke-linecap:butt;stroke-linejoin:miter;stroke-miterlimit:4;stroke-dasharray:none;stroke-opacity:1"
         id="text4178">
        <path
           d="m 2724.7529,637.9516 q -7.08,0 -12.6953,-1.83106 -5.6152,-1.89209 -9.9487,-5.06591 -4.2725,-3.23487 -7.3242,-7.56836 -3.0518,-4.39453 -5.0049,-9.39942 -1.8921,-5.06591 -2.8076,-10.49804 -0.8545,-5.49317 -0.8545,-10.9253 0,-5.37109 0.8545,-10.80322 0.9155,-5.49316 2.8076,-10.49805 1.9531,-5.06591 5.0049,-9.39941 3.0517,-4.39453 7.3242,-7.56836 4.3335,-3.23486 9.9487,-5.06592 5.6153,-1.89209 12.6953,-1.89209 7.0801,0 12.6343,1.89209 5.6152,1.83106 9.8877,5.06592 4.2725,3.17383 7.3242,7.56836 3.0518,4.3335 4.9439,9.39941 1.9531,5.00489 2.8076,10.49805 0.9155,5.43213 0.9155,10.80322 0,5.43213 -0.9155,10.9253 -0.8545,5.43213 -2.8076,10.49804 -1.8921,5.00489 -4.9439,9.39942 -3.0517,4.33349 -7.3242,7.56836 -4.2725,3.17382 -9.8877,5.06591 -5.5542,1.83106 -12.6343,1.83106 z m 0,-16.29639 q 5.8594,0 9.8267,-2.74658 4.0283,-2.74658 6.4697,-7.01904 2.5025,-4.27246 3.6011,-9.33838 1.0986,-5.12695 1.0986,-9.8877 0,-3.35693 -0.4883,-6.7749 -0.4272,-3.479 -1.4648,-6.65283 -1.0376,-3.23486 -2.6855,-6.04248 -1.648,-2.86865 -3.9673,-4.94385 -2.3194,-2.13623 -5.4322,-3.35693 -3.0517,-1.22071 -6.958,-1.22071 -3.9673,0 -7.08,1.28174 -3.0518,1.28174 -5.4322,3.47901 -2.3193,2.13623 -3.9673,5.00488 -1.6479,2.86865 -2.6855,6.10351 -1.0376,3.23487 -1.5259,6.5918 -0.4272,3.35694 -0.4272,6.53076 0,5.00489 1.0986,10.19287 1.0986,5.12696 3.54,9.33838 2.5025,4.15039 6.5308,6.83594 4.0283,2.62451 9.9487,2.62451 z"
           style=""
           id="path4193" />
        <path
           d="m 2837.4849,636.42572 -34.729,-51.02539 q -0.8545,-1.28174 -1.8921,-3.11279 -0.9766,-1.89209 -1.709,-3.47901 0.1831,1.40381 0.2441,3.2959 0.1221,1.89209 0.1221,3.2959 l 0,51.02539 -16.7847,0 0,-87.52441 15.8692,0 33.8745,50.41504 q 0.7934,1.2207 1.831,3.05175 1.0376,1.83106 1.8311,3.54004 -0.1831,-1.77002 -0.3052,-3.54004 -0.061,-1.83105 -0.061,-3.05175 l 0,-50.41504 16.7236,0 0,87.52441 -15.0146,0 z"
           style=""
           id="path4195" />
        <path
           d="m 2911.2764,565.19769 0,71.22803 -16.8457,0 0,-71.22803 -25.0244,0 0,-16.29638 66.8945,0 0,16.29638 -25.0244,0 z"
           style=""
           id="path4197" />
      </g>
      <g
         style="font-style:normal;font-variant:normal;font-weight:normal;font-stretch:normal;font-size:45px;line-height:125%;font-family:Overpass;-inkscape-font-specification:'Overpass, Normal';text-align:start;letter-spacing:0px;word-spacing:0px;writing-mode:lr-tb;text-anchor:start;fill:#222222;fill-opacity:1;stroke:none;stroke-width:1px;stroke-linecap:butt;stroke-linejoin:miter;stroke-opacity:1"
         id="text4182">
        <path
           d="m 2750.0374,686.1236 q -2.5269,0 -4.5264,-0.65918 -1.9995,-0.68116 -3.5376,-1.82373 -1.5161,-1.16455 -2.5928,-2.72461 -1.0766,-1.58203 -1.7578,-3.38379 -0.6811,-1.82373 -1.0107,-3.7793 -0.3077,-1.97754 -0.3077,-3.9331 0,-1.9336 0.3077,-3.88916 0.3296,-1.97754 1.0107,-3.7793 0.6812,-1.82373 1.7578,-3.38379 1.0767,-1.58203 2.5928,-2.72461 1.5381,-1.16455 3.5376,-1.82373 1.9995,-0.68115 4.5264,-0.68115 2.5268,0 4.5263,0.68115 1.9995,0.65918 3.5156,1.82373 1.5381,1.14258 2.6148,2.72461 1.0767,1.56006 1.7578,3.38379 0.6812,1.80176 0.9888,3.7793 0.3076,1.95556 0.3076,3.88916 0,1.95556 -0.3076,3.9331 -0.3076,1.95557 -0.9888,3.7793 -0.6811,1.80176 -1.7578,3.38379 -1.0767,1.56006 -2.6148,2.72461 -1.5161,1.14257 -3.5156,1.82373 -1.9995,0.65918 -4.5263,0.65918 z m 0,-4.5044 q 1.6479,0 2.9443,-0.50537 1.2964,-0.52734 2.2632,-1.40625 0.9887,-0.87891 1.6699,-2.04346 0.7031,-1.18652 1.1426,-2.48291 0.4394,-1.31836 0.6372,-2.68066 0.1977,-1.38428 0.1977,-2.68066 0,-1.36231 -0.1977,-2.76856 -0.1978,-1.42822 -0.6372,-2.72461 -0.4395,-1.31836 -1.1426,-2.46094 -0.6812,-1.14257 -1.6699,-1.97754 -0.9668,-0.85693 -2.2632,-1.34033 -1.2964,-0.50537 -2.9443,-0.50537 -1.648,0 -2.9444,0.52735 -1.2964,0.50537 -2.2851,1.38427 -0.9888,0.87891 -1.6919,2.06543 -0.6812,1.16455 -1.1206,2.48291 -0.4395,1.29639 -0.6372,2.68067 -0.1978,1.3623 -0.1978,2.63672 0,2.06542 0.4614,4.1748 0.4615,2.0874 1.5161,3.80127 1.0547,1.69189 2.7466,2.76855 1.6919,1.05469 4.1529,1.05469 z"
           style=""
           id="path4200" />
        <path
           d="m 2784.2927,685.57428 0,-13.73291 q 0,-1.4502 -0.3515,-2.46094 -0.3516,-1.03271 -0.9668,-1.66992 -0.6153,-0.65918 -1.4502,-0.94482 -0.835,-0.30762 -1.8238,-0.30762 -1.0546,0 -1.9555,0.28564 -0.9009,0.26368 -1.5601,0.87891 -0.6592,0.61523 -1.0547,1.64795 -0.3735,1.01074 -0.3735,2.48291 l 0,13.8208 -4.6802,0 0,-23.00537 4.6802,0 0,2.21924 q 1.1206,-1.42823 2.5708,-2.08741 1.4502,-0.65918 3.3618,-0.65918 1.8018,0 3.3179,0.52735 1.5161,0.50537 2.6147,1.66992 1.1206,1.16455 1.7359,3.03223 0.6152,1.86767 0.6152,4.57031 l 0,13.73291 -4.6802,0 z"
           style=""
           id="path4202" />
        <path
           d="m 2802.1345,686.1236 q -1.3623,0 -2.3511,-0.41748 -0.9667,-0.39551 -1.604,-1.14258 -0.6152,-0.74707 -0.9008,-1.80176 -0.2857,-1.07666 -0.2857,-2.37305 l 0,-13.75488 -3.5596,0 0,-4.06494 3.5596,0 0,-7.22901 4.6802,-2.26318 0,9.49219 5.4492,0 0,4.06494 -5.4492,0 0,12.54639 q 0,0.57129 0.088,1.05468 0.1098,0.4834 0.3515,0.83497 0.2637,0.35156 0.7032,0.54931 0.4394,0.17578 1.1206,0.17578 1.6699,0 3.4057,-1.07666 l -0.5712,4.35059 q -0.9668,0.4834 -2.1094,0.76904 -1.1426,0.28565 -2.5269,0.28565 z"
           style=""
           id="path4204" />
        <path
           d="m 2830.1497,685.57428 -4.4825,0 0,-1.97754 q -0.4394,0.46143 -1.0547,0.92285 -0.6152,0.43946 -1.4062,0.81299 -0.769,0.35156 -1.7358,0.57129 -0.9668,0.21973 -2.1094,0.21973 -1.7578,0 -3.252,-0.4834 -1.4941,-0.4834 -2.5927,-1.4502 -1.0987,-0.98877 -1.7359,-2.41699 -0.6152,-1.4502 -0.6152,-3.36182 0,-1.97754 0.7471,-3.40576 0.747,-1.45019 1.9775,-2.37304 1.2305,-0.94483 2.8125,-1.38428 1.604,-0.43946 3.2959,-0.43946 1.582,0 3.0322,0.35157 1.4722,0.32959 2.6367,1.01074 l 0,-1.27441 q 0,-1.29639 -0.3076,-2.19727 -0.2856,-0.90088 -0.9009,-1.4502 -0.5932,-0.57128 -1.5161,-0.81298 -0.9228,-0.26368 -2.1972,-0.26368 -2.1534,0 -3.7354,0.57129 -1.56,0.57129 -2.8345,1.51612 l -1.3842,-3.84522 q 0.7031,-0.4834 1.604,-0.90088 0.9008,-0.43945 1.9775,-0.76904 1.0767,-0.32959 2.3291,-0.50537 1.2524,-0.19776 2.6807,-0.19776 0.9668,0 1.9995,0.10987 1.0327,0.10986 1.9995,0.43945 0.9888,0.30762 1.8457,0.90088 0.8789,0.59326 1.5161,1.56006 0.6592,0.94482 1.0327,2.3291 0.3736,1.38428 0.3736,3.2959 l 0,14.89746 z m -9.9317,-3.60352 q 1.7798,0 3.1421,-0.72509 1.3843,-0.7251 2.3071,-1.73584 l 0,-3.51563 q -0.9668,-0.50537 -2.2631,-0.81299 -1.2964,-0.30761 -2.6587,-0.30761 -1.0547,0 -1.9776,0.19775 -0.9228,0.19775 -1.626,0.63721 -0.6811,0.41748 -1.0766,1.09863 -0.3955,0.65918 -0.3955,1.604 0,1.64795 1.1426,2.61475 1.1645,0.94482 3.4057,0.94482 z"
           style=""
           id="path4206" />
        <path
           d="m 2836.5217,685.57428 0,-23.00537 4.6802,0 0,2.79053 q 0.813,-1.75782 2.1094,-2.52686 1.2964,-0.79102 3.0102,-0.79102 2.2852,0 3.8672,1.38428 l -0.6811,4.32862 q -0.6372,-0.43946 -1.5161,-0.76905 -0.857,-0.35156 -2.1094,-0.35156 -0.791,0 -1.626,0.28564 -0.813,0.26368 -1.4941,0.9668 -0.6812,0.68115 -1.1206,1.8457 -0.4395,1.14258 -0.4395,2.92237 l 0,12.91992 -4.6802,0 z"
           style=""
           id="path4208" />
        <path
           d="m 2854.759,685.57428 0,-23.00537 4.6802,0 0,23.00537 -4.6802,0 z m 2.3291,-26.58691 q -0.5932,0 -1.1206,-0.21973 -0.5053,-0.21973 -0.9008,-0.59326 -0.3736,-0.39551 -0.5933,-0.90088 -0.2197,-0.52735 -0.2197,-1.12061 0,-0.59326 0.2197,-1.09863 0.2197,-0.52734 0.5933,-0.90088 0.3955,-0.39551 0.9008,-0.61523 0.5274,-0.21973 1.1206,-0.21973 0.5933,0 1.0987,0.21973 0.5273,0.21972 0.9008,0.61523 0.3956,0.37354 0.6153,0.90088 0.2197,0.50537 0.2197,1.09863 0,0.59326 -0.2197,1.12061 -0.2197,0.50537 -0.6153,0.90088 -0.3735,0.37353 -0.9008,0.59326 -0.5054,0.21973 -1.0987,0.21973 z"
           style=""
           id="path4210" />
        <path
           d="m 2875.5891,686.1236 q -2.417,0 -4.3725,-0.81299 -1.9336,-0.81299 -3.2959,-2.35108 -1.3624,-1.56005 -2.1094,-3.77929 -0.7251,-2.24121 -0.7251,-5.07569 0,-2.83447 0.7251,-5.07568 0.747,-2.24121 2.1094,-3.7793 1.3623,-1.56006 3.2959,-2.37304 1.9555,-0.83497 4.3725,-0.83497 2.395,0 4.3506,0.83497 1.9556,0.81298 3.3179,2.37304 1.3623,1.53809 2.1093,3.7793 0.7471,2.24121 0.7471,5.07568 0,2.83448 -0.7471,5.07569 -0.747,2.21924 -2.1093,3.77929 -1.3623,1.53809 -3.3179,2.35108 -1.9556,0.81299 -4.3506,0.81299 z m 0,-4.41651 q 1.3403,0 2.417,-0.52734 1.0986,-0.52735 1.8457,-1.49414 0.769,-0.98877 1.1646,-2.39502 0.4174,-1.40625 0.4174,-3.18604 0,-1.77978 -0.4174,-3.18603 -0.3956,-1.42822 -1.1646,-2.41699 -0.7471,-0.98877 -1.8457,-1.51612 -1.0767,-0.52734 -2.417,-0.52734 -1.3403,0 -2.417,0.52734 -1.0766,0.52735 -1.8457,1.51612 -0.7471,0.98877 -1.1645,2.41699 -0.3955,1.40625 -0.3955,3.18603 0,1.77979 0.3955,3.18604 0.4174,1.40625 1.1645,2.39502 0.7691,0.96679 1.8457,1.49414 1.0767,0.52734 2.417,0.52734 z"
           style=""
           id="path4212" />
      </g>
    </g>
  </g>
</svg>
