<?xml version="1.0" encoding="UTF-8" standalone="no"?>
<!-- Created with Inkscape (http://www.inkscape.org/) -->

<svg
   xmlns:dc="http://purl.org/dc/elements/1.1/"
   xmlns:cc="http://creativecommons.org/ns#"
   xmlns:rdf="http://www.w3.org/1999/02/22-rdf-syntax-ns#"
   xmlns:svg="http://www.w3.org/2000/svg"
   xmlns="http://www.w3.org/2000/svg"
   xmlns:sodipodi="http://sodipodi.sourceforge.net/DTD/sodipodi-0.dtd"
   xmlns:inkscape="http://www.inkscape.org/namespaces/inkscape"
   width="2199.5461"
   height="1051.7015"
   viewBox="0 0 2199.5461 1051.7015"
   id="svg2"
   version="1.1"
   inkscape:version="0.91 r13725"
   sodipodi:docname="ORD.svg"
   inkscape:export-filename="C:\Users\paulb\Dropbox\Projects\Terminal Silhouettes\Silhouettes\png-flight-historian\ORD.png"
   inkscape:export-xdpi="89.996498"
   inkscape:export-ydpi="89.996498">
  <sodipodi:namedview
     id="base"
     pagecolor="#ffffff"
     bordercolor="#666666"
     borderopacity="1.0"
     inkscape:pageopacity="1"
     inkscape:pageshadow="2"
     inkscape:zoom="0.5"
     inkscape:cx="1098.7267"
     inkscape:cy="293.79187"
     inkscape:document-units="px"
     inkscape:current-layer="layer2"
     showgrid="false"
     units="px"
     fit-margin-top="25"
     fit-margin-left="25"
     fit-margin-right="25"
     fit-margin-bottom="25"
     inkscape:window-width="1920"
     inkscape:window-height="1137"
     inkscape:window-x="1912"
     inkscape:window-y="-8"
     inkscape:window-maximized="1"
     showguides="false"
     inkscape:guide-bbox="true"
     inkscape:object-nodes="true"
     inkscape:snap-object-midpoints="true"
     inkscape:snap-smooth-nodes="true"
     inkscape:snap-intersection-paths="true">
    <inkscape:grid
       id="grid4442"
       type="xygrid"
       originx="-1258.8535"
       originy="-999.14087" />
    <sodipodi:guide
       position="2226.9637,649.35183"
       orientation="0,1"
       id="guide4150" />
    <sodipodi:guide
       position="2234.1686,1004.1451"
       orientation="1,0"
       id="guide4162" />
    <sodipodi:guide
       position="2256.4637,783.06013"
       orientation="0,1"
       id="guide4182" />
    <sodipodi:guide
       position="1969.9637,965.56012"
       orientation="1,0"
       id="guide4190" />
    <sodipodi:guide
       position="2498.3735,1019.9912"
       orientation="1,0"
       id="guide4192" />
    <sodipodi:guide
       position="1594.4637,1185.4351"
       orientation="-0.35836795,-0.93358043"
       id="guide4281"
       inkscape:label=""
       inkscape:color="rgb(0,0,255)" />
    <sodipodi:guide
       position="1620.4644,1187.2408"
       orientation="-0.35836795,-0.93358043"
       id="guide4283"
       inkscape:label=""
       inkscape:color="rgb(0,0,255)" />
    <sodipodi:guide
       position="1598.8331,1162.7138"
       orientation="-0.93358043,0.35836795"
       id="guide4285"
       inkscape:label=""
       inkscape:color="rgb(0,0,255)" />
    <sodipodi:guide
       position="1680.5039,1141.6774"
       orientation="-0.35836795,-0.93358043"
       id="guide4289"
       inkscape:label=""
       inkscape:color="rgb(0,0,255)" />
    <sodipodi:guide
       position="1613.9544,1183.8465"
       orientation="-0.35836795,-0.93358043"
       id="guide4291"
       inkscape:label=""
       inkscape:color="rgb(0,0,255)" />
    <sodipodi:guide
       position="1545.9637,1185.3101"
       orientation="-0.93358043,0.35836795"
       id="guide4293"
       inkscape:label=""
       inkscape:color="rgb(0,0,255)" />
    <sodipodi:guide
       position="1617.4094,1174.5874"
       orientation="-0.93690004,-0.34959737"
       id="guide4324" />
    <sodipodi:guide
       position="1605.1913,1179.2775"
       orientation="-0.4623258,0.88671013"
       id="guide4326" />
    <sodipodi:guide
       position="2525.4637,1059.06"
       orientation="-0.70710678,0.70710678"
       id="guide4410"
       inkscape:label=""
       inkscape:color="rgb(0,0,255)" />
    <sodipodi:guide
       position="2957.4637,1448.3101"
       orientation="0.70710678,0.70710678"
       id="guide4432"
       inkscape:label=""
       inkscape:color="rgb(0,0,255)" />
    <sodipodi:guide
       position="2582.0651,1090.4121"
       orientation="0.70710678,0.70710678"
       id="guide4444"
       inkscape:label=""
       inkscape:color="rgb(0,0,255)" />
  </sodipodi:namedview>
  <title
     id="title4148">Terminal Silhouettes: ORD</title>
  <defs
     id="defs4" />
  <metadata
     id="metadata7">
    <rdf:RDF>
      <cc:Work
         rdf:about="">
        <dc:format>image/svg+xml</dc:format>
        <dc:type
           rdf:resource="http://purl.org/dc/dcmitype/StillImage" />
        <dc:title>Terminal Silhouettes: ORD</dc:title>
        <dc:description>Terminal silhouette of ORD (Chicago–O'Hare)</dc:description>
        <dc:date>2018-09-30</dc:date>
        <dc:creator>
          <cc:Agent>
            <dc:title>Paul Bogard</dc:title>
          </cc:Agent>
        </dc:creator>
      </cc:Work>
    </rdf:RDF>
  </metadata>
  <g
     style="display:inline"
     inkscape:groupmode="layer"
     id="layer2"
     inkscape:label="Terminal"
     transform="translate(1396.8608,308.39091)">
    <path
       style="opacity:1;fill:#dddddd;fill-opacity:1;stroke:#222222;stroke-width:1.5;stroke-linejoin:miter;stroke-miterlimit:4;stroke-dasharray:none;stroke-dashoffset:0;stroke-opacity:1"
       d="m -845.81455,-282.63592 a 7.5752279,7.5752279 0 0 0 -2.39122,0.47161 l -0.005,-0.007 -33.46728,12.37954 c -21.44703,7.93347 -43.89305,32.68878 -43.89305,32.68878 l 3.78897,3.43603 c -1.981,2.30058 -3.93336,4.75311 -5.83365,7.35543 l -34.1849,-5.84328 a 14.905977,14.905977 0 0 0 -12.18063,-17.20367 14.905977,14.905977 0 0 0 -17.20584,12.18063 l -44.66295,261.2942 -20.5798,-3.517288 -1.8597,10.876992 20.5798,3.518382 -36.9258,216.025944 a 14.905977,14.905977 0 0 0 12.1817,17.20474 14.905977,14.905977 0 0 0 17.2037,-12.18063 l 10.6984,-62.58639 20.4161,3.49056 c 7.2239,35.45935 32.59254,53.0258 32.59254,53.0258 l -9.74556,14.07457 77.71219,53.81076 -4.10551,5.92778 1.6309,8.97987 9.7691,6.76404 -6.94373,10.02896 -5.50535,-3.81247 -55.92607,80.76752 -84.70611,31.33275 1.956,5.28721 -19.4784,7.20465 -1.0405,-2.81365 -3.297,1.21915 -0.9144,-2.47252 -131.2085,48.53537 0.9154,2.47247 -3.2959,1.22025 4.5953,12.42231 3.2959,-1.22025 0.9154,2.4768 131.23,-48.4776 -0.9369,-2.53451 3.296,-1.21915 -1.0406,-2.81042 14.2457,-5.27007 91.78564,63.55527 0.0791,15.18887 -2.99756,0.016 0.0182,3.48098 -2.74728,0.0139 0.70687,134.99002 18.62918,-0.0973 -1.30682,-249.6708 29.94683,-43.24919 0.90256,0.62452 1.28541,-1.85545 0.80313,0.55608 1.69288,-2.44465 -1.7057,-1.18066 5.09256,-7.35538 -4.12155,-2.85427 -2.22651,3.2157 -1.38276,-0.9582 3.82424,-5.52243 2.7527,1.90462 1.96342,-2.8361 2.75265,1.90676 14.29167,-20.63859 -5.50535,-3.81247 6.94374,-10.02792 9.768,6.76404 8.97988,-1.63299 4.10441,-5.92881 77.76672,53.8482 10.56473,-15.25731 29.00468,20.08464 a 30.813549,30.813549 0 0 0 9.31031,40.42921 30.813549,30.813549 0 0 0 8.65798,4.13222 l 0.0331,6.38224 -2.23401,0.0129 0.25668,49.01978 c -1.00862,0.004 -2.01763,0.01 -3.02647,0.0149 l 0.0417,8.06981 3.02648,-0.016 c 0.21846,41.48732 0.43502,82.98385 0.65233,124.47446 l -3.02751,0.016 0.0417,8.06871 3.02751,-0.016 c 0.0778,14.87168 0.15528,29.7433 0.23315,44.61493 7.51487,-0.0389 15.03052,-0.078 22.54539,-0.11767 -0.17045,-32.80471 -0.34281,-65.6092 -0.51441,-98.41391 l 1.25447,-0.007 c 0,0 2.35595,-6.35152 2.28959,-19.03238 l 1.63621,-0.009 c -0.0664,-12.68098 -2.48851,-19.0078 -2.48851,-19.0078 l 1.79872,-0.01 c -0.0664,-12.68103 -3.53442,-19.00457 -3.53442,-19.00457 l -1.25546,0.006 -0.41279,-78.76982 -2.23401,0.0117 -0.0332,-6.3801 a 30.813549,30.813549 0 0 0 16.13962,-11.83201 30.813549,30.813549 0 0 0 5.03053,-22.60421 l 31.21191,-22.09942 4.63378,6.5448 23.35603,-16.53637 c 2.57448,3.63676 5.14939,7.2727 7.72436,10.90914 7.27227,-5.14891 14.79152,-10.47182 22.26944,-15.76642 l -4.38563,-6.19399 25.03605,-17.7277 1.5635,2.20834 14.11306,6.49136 6.12451,-4.33652 56.83295,80.27024 c 0.48994,93.68858 0.98284,187.377 1.47256,281.06553 l 18.38858,-0.0963 12.5068,-7.30944 12.56457,-0.0652 -0.0257,-5.00484 6.21545,-0.0321 -0.092,-17.59186 -6.21545,0.0331 -0.0267,-5.0038 -12.56457,0.0642 -5.94376,-3.39004 -0.0866,-16.61226 -2.35273,0.0128 -0.0856,-17.90839 2.34419,-0.0118 -0.0663,-12.48435 -2.33772,0.0129 -0.0952,-19.78098 2.33027,-0.0139 -0.0663,-12.48112 -2.32278,0.0118 -0.0952,-19.78202 2.31527,-0.0118 -0.0652,-12.48326 -2.30996,0.0128 c 0.0481,-6.51365 -0.13732,-13.52183 -0.16043,-19.78312 l 2.36559,-0.0128 -0.0642,-12.48221 -2.36663,0.0118 -0.0278,-5.28716 77.47801,-54.85776 159.72234,57.18908 7.18428,39.53518 -5.11496,14.28411 24.62753,8.81737 5.11501,-14.28417 30.6462,-25.98997 14.83488,5.31174 8.42916,-23.54099 -42.91991,-15.36857 -0.41596,1.16248 -279.10748,-99.93459 -58.07773,-82.0262 6.17477,-4.37178 -1.4351,-15.4691 -1.5635,-2.20725 32.10807,-22.73358 4.38569,6.19404 15.31398,-10.84282 -7.84094,-10.82782 83.12342,-58.85409 22.28554,7.97886 -1.08868,3.03928 5.89996,2.11209 1.08654,-3.03929 27.80584,9.95521 -1.08868,3.03928 5.89996,2.11208 1.08868,-3.03819 46.94405,16.80795 -1.08758,3.03928 5.89887,2.11209 1.08758,-3.03929 34.17635,12.23735 -1.08758,3.03819 5.89887,2.11318 1.08867,-3.03928 18.29983,6.5523 23.14961,-0.12084 0.0171,3.22747 6.26572,-0.0331 -0.0171,-3.22753 36.73758,-0.19246 -0.13579,-25.96965 -12.39132,0.0652 -0.016,-3.22857 -6.26676,0.0332 0.0182,3.22747 -35.80184,0.18825 -0.0171,-3.22753 -6.26566,0.0321 0.0171,3.22857 -0.84589,0.004 -48.16961,-17.24751 1.08867,-3.03929 -5.89892,-2.11312 -1.08862,3.03923 -34.38278,-12.30892 1.08868,-3.03928 -5.89887,-2.11318 -1.08867,3.03929 -45.40947,-16.25833 5.88392,-4.1664 -9.51674,-13.44254 9.81083,-51.92218 17.63785,-27.47222 58.34186,-0.30476 2.56233,-14.989999 122.34847,-0.640567 -0.0214,-4.056286 11.94748,-0.06308 -0.0481,-9.25151 -63.45906,0.332576 -0.0182,-3.423165 -72.64098,-12.417003 c -2.14817,12.566426 -4.29622,25.133619 -6.44433,37.700054 l -56.31745,0.29517 -20.35846,31.71029 -9.13171,48.32785 -4.33329,3.0682 -16.40052,-23.16352 -280.84312,198.84791 12.38492,17.49237 -10.57651,7.48805 -13.01907,-18.38749 c -6.83823,3.24982 -13.57954,5.11238 -20.03334,5.98549 l -0.01,-1.80195 -6.13628,-6.07211 -8.63126,0.0449 -6.07211,6.13628 0.008,1.37531 c -7.78246,-1.23514 -14.56654,-3.51685 -19.81197,-5.75344 l -7.64525,11.04059 -10.65458,-7.37678 6.73945,-9.73384 -193.25807,-133.819 -9.74775,14.07567 c -38.73296,-26.82004 -29.29656,-82.0273 -29.29656,-82.0273 l 4.7214,0.80741 41.88367,-245.029497 -16.45938,-2.813627 -10.65672,-1.821212 -8.23445,-1.407353 12.14531,-71.051861 8.23341,1.40735 7.70619,-45.08008 24.61795,4.20814 a 3.7725586,3.7725586 0 0 0 3.08204,4.35465 3.7725586,3.7725586 0 0 0 4.14077,-2.32383 l 0.0139,-0.0332 a 3.7725586,3.7725586 0 0 0 0,-0.009 c 0.17313,-0.4331 18.20976,-45.35598 57.4842,-59.88398 l 7.67733,-2.83929 0.82558,2.23293 25.78996,-9.54024 -0.005,-0.007 a 7.5752279,7.5752279 0 0 0 4.84337,-5.81976 l 0.005,0.002 0.002,0 a 7.5752279,7.5752279 0 0 0 -6.19191,-8.74353 7.5752279,7.5752279 0 0 0 -1.50896,-0.10052 z m -423.25805,93.80472 a 16.454671,16.454671 0 0 0 -15.714,13.6746 l -26.1589,153.03528 -20.2269,-3.457387 -13.927,81.479702 -17.9373,-3.066005 -7.9585,46.558038 17.9372,3.066002 -3.1312,18.31905 20.2269,3.45738 -26.1921,153.22677 a 16.454671,16.454671 0 0 0 13.4468,18.9917 16.454671,16.454671 0 0 0 18.9917,-13.44785 l 8.0239,-46.94088 -8.396,-1.43516 4.2081,-24.61471 8.396,1.43515 5.0551,-29.57679 -8.396,-1.43516 4.2082,-24.61576 8.396,1.43516 5.0551,-29.5768 -8.396,-1.43515 4.2082,-24.61472 8.3959,1.43516 9.3446,-54.669516 7.8238,1.337859 1.8586,-10.876991 -7.8238,-1.336764 4.6488,-27.190946 -8.3971,-1.4351574 4.2082,-24.6157556 8.3959,1.436197 5.0562,-29.577837 -8.397,-1.435157 4.2081,-24.614704 8.396,1.435146 5.0551,-29.57678 -8.396,-1.435152 4.2082,-24.616842 8.396,1.43515 8.0238,-46.94086 a 16.454671,16.454671 0 0 0 -13.4468,-18.99172 16.454671,16.454671 0 0 0 -3.2778,-0.22779 z M 124.98454,164.91068 a 4.4895689,4.4895689 0 0 0 -3.10236,1.3314 4.4895689,4.4895689 0 0 0 0.0321,6.34911 4.4895689,4.4895689 0 0 0 1.78273,1.08117 l 11.57637,25.63922 -0.95069,0.42987 3.93117,8.70611 -4.04775,1.82763 11.108,24.60081 4.04775,-1.82654 11.37109,25.18257 -4.04879,1.82758 11.108,24.6019 4.04879,-1.82873 11.36999,25.18366 -4.04878,1.82764 11.108,24.60081 4.04878,-1.82764 23.4576,51.95104 c -3.95313,22.13321 -10.84228,86.19654 28.04648,140.24295 l -32.1562,42.77443 0.97314,0.96252 -2.61472,3.47666 7.55008,7.47091 3.27347,-3.30769 9.04832,8.95419 -8.18315,8.26977 5.60801,5.55025 8.18419,-8.27081 9.04832,8.95524 -3.27347,3.30769 7.54899,7.46987 3.4489,-2.64999 0.97314,0.96247 43.57329,-33.47589 c 26.61953,16.67002 77.42205,38.73944 147.35988,25.69803 l 34.05228,-0.17861 0.0225,4.44236 26.99307,-0.14116 -0.0236,-4.44236 37.23595,-0.19459 0.0235,4.44126 26.99203,-0.14116 -0.0236,-4.44131 37.23595,-0.19569 0.0236,4.44235 26.99306,-0.14115 -0.0235,-4.44236 37.23485,-0.19465 0.0236,4.44132 26.99306,-0.14116 -0.0235,-4.44132 24.24896,-0.12724 12.98694,-0.0684 0.0235,4.44236 26.99203,-0.14116 -0.0236,-4.44235 1.60303,-0.009 -0.005,-1.04164 3.39431,-0.0182 a 4.4895689,4.4895689 0 0 0 1.72388,1.16993 4.4895689,4.4895689 0 0 0 5.78766,-2.61254 4.4895689,4.4895689 0 0 0 -1.19878,-4.92572 l -0.001,0 a 4.4895689,4.4895689 0 0 0 -1.41265,-0.8609 4.4895689,4.4895689 0 0 0 -4.93,1.20415 l -3.39327,0.0182 -0.005,-1.04268 -7.16615,0.0385 -0.0588,-11.14326 -61.17905,0.32081 0.0129,2.38481 -255.50659,1.3378 a 8.897525,8.897525 0 0 0 -8.73813,-2.10567 l -29.01962,-28.71694 12.80619,-12.93991 -6.32984,-6.26358 -12.80515,12.941 -19.70399,-19.49867 12.80521,-12.94094 -6.3299,-6.26359 -12.80515,12.93991 -19.70503,-19.49861 12.80625,-12.941 -6.3299,-6.26353 -12.80515,12.941 -19.70503,-19.49971 12.80625,-12.9399 -6.32984,-6.26359 -12.80625,12.93991 -19.70394,-19.49861 12.8062,-12.941 -6.32984,-6.26353 -12.80625,12.94094 -19.70394,-19.49965 12.80516,-12.93996 -6.3288,-6.26353 -12.80625,12.93991 -28.66881,-28.37046 a 8.897525,8.897525 0 0 0 -1.86399,-9.93166 8.897525,8.897525 0 0 0 -3.84351,-2.22975 l -56.38802,-124.88298 2.17515,-0.98168 -24.14202,-53.46964 -10.15517,4.58565 -2.94943,-6.53199 -0.94966,0.42987 -11.57636,-25.63916 a 4.4895689,4.4895689 0 0 0 -0.95716,-4.98458 4.4895689,4.4895689 0 0 0 -3.24675,-1.29822 z m -907.50155,210.55262 10.65458,7.37788 -1.67575,2.42013 -10.65458,-7.37794 1.67575,-2.42007 z m -146.02208,12.5207 1.38276,0.95716 -1.69179,2.44466 -1.38275,-0.9582 1.69178,-2.44362 z"
       id="rect4162"
       inkscape:connector-curvature="0" />
  </g>
  <g
     inkscape:groupmode="layer"
     id="layer1"
     inkscape:label="Label">
    <g
       style="font-style:normal;font-variant:normal;font-weight:bold;font-stretch:normal;font-size:125px;line-height:125%;font-family:Overpass;-inkscape-font-specification:'Overpass, Bold';text-align:start;letter-spacing:0px;word-spacing:0px;writing-mode:lr-tb;text-anchor:start;fill:#dddddd;fill-opacity:1;stroke:#222222;stroke-width:0.25;stroke-linecap:butt;stroke-linejoin:miter;stroke-miterlimit:4;stroke-dasharray:none;stroke-opacity:1"
       id="text4500">
      <path
         d="m 1955.1829,115.64014 q -7.0801,0 -12.6954,-1.83106 -5.6152,-1.89209 -9.9487,-5.06592 -4.2724,-3.23486 -7.3242,-7.56836 -3.0518,-4.394527 -5.0049,-9.399409 -1.8921,-5.065918 -2.8076,-10.498047 -0.8545,-5.493164 -0.8545,-10.925293 0,-5.371094 0.8545,-10.803223 0.9155,-5.493164 2.8076,-10.498047 1.9531,-5.065918 5.0049,-9.399414 3.0518,-4.394531 7.3242,-7.568359 4.3335,-3.234863 9.9487,-5.065918 5.6153,-1.89209 12.6954,-1.89209 7.08,0 12.6342,1.89209 5.6153,1.831055 9.8877,5.065918 4.2725,3.173828 7.3243,7.568359 3.0517,4.333496 4.9438,9.399414 1.9531,5.004883 2.8076,10.498047 0.9155,5.432129 0.9155,10.803223 0,5.432129 -0.9155,10.925293 -0.8545,5.432129 -2.8076,10.498047 -1.8921,5.004882 -4.9438,9.399409 -3.0518,4.3335 -7.3243,7.56836 -4.2724,3.17383 -9.8877,5.06592 -5.5542,1.83106 -12.6342,1.83106 z m 0,-16.29639 q 5.8593,0 9.8266,-2.746582 4.0283,-2.746582 6.4697,-7.019043 2.5025,-4.272461 3.6011,-9.338379 1.0987,-5.126953 1.0987,-9.887695 0,-3.356934 -0.4883,-6.774903 -0.4273,-3.479003 -1.4649,-6.652832 -1.0376,-3.234863 -2.6855,-6.04248 -1.648,-2.868652 -3.9673,-4.943848 -2.3193,-2.13623 -5.4321,-3.356933 -3.0518,-1.220703 -6.958,-1.220703 -3.9673,0 -7.0801,1.281738 -3.0518,1.281738 -5.4321,3.479004 -2.3194,2.13623 -3.9673,5.004883 -1.648,2.868652 -2.6856,6.103515 -1.0376,3.234863 -1.5259,6.591797 -0.4272,3.356934 -0.4272,6.530762 0,5.004883 1.0986,10.192871 1.0987,5.126953 3.5401,9.338379 2.5024,4.15039 6.5307,6.835937 4.0284,2.624512 9.9488,2.624512 z"
         id="path4554"
         style="" />
      <path
         d="m 2013.1663,114.11426 0,-87.524416 40.6494,0 q 8.3008,0 13.855,2.319336 5.6152,2.2583 9.0332,6.04248 3.4179,3.78418 4.8828,8.728027 1.4648,4.943848 1.4648,10.314942 0,3.723144 -1.0986,7.568359 -1.0376,3.78418 -3.1738,7.202149 -2.1363,3.417968 -5.3101,6.225586 -3.1738,2.746582 -7.3853,4.272461 l 16.9678,34.851076 -18.9819,0 -16.3574,-32.653811 -17.6392,0 0,32.653811 -16.9067,0 z m 40.8935,-48.645022 q 3.2349,0 5.4321,-0.915527 2.1973,-0.976563 3.5401,-2.563477 1.3428,-1.586914 1.8921,-3.662109 0.6103,-2.075195 0.6103,-4.333496 0,-2.075195 -0.5493,-4.089356 -0.4883,-2.075195 -1.77,-3.662109 -1.2818,-1.647949 -3.5401,-2.624512 -2.1972,-0.976562 -5.6152,-0.976562 l -23.9868,0 0,22.827148 23.9868,0 z"
         id="path4556"
         style="" />
      <path
         d="m 2102.5217,26.589844 29.541,0 q 7.6294,0 13.733,1.770019 6.1035,1.708985 10.8032,4.760742 4.7607,3.051758 8.1177,7.263184 3.3569,4.150391 5.4931,9.033203 2.1973,4.821778 3.1738,10.192871 1.0376,5.371094 1.0376,10.742188 0,5.004883 -0.9765,10.253906 -0.9155,5.187988 -2.9907,10.070801 -2.0752,4.821777 -5.4322,9.094238 -3.2959,4.272464 -8.1176,7.507324 -4.7608,3.17383 -11.0474,5.00488 -6.2866,1.83106 -14.3433,1.83106 l -28.9917,0 0,-87.524416 z m 31.0059,71.533203 q 6.5307,0 10.9863,-2.502442 4.4556,-2.563476 7.2022,-6.530761 2.7465,-4.028321 3.9672,-8.972168 1.2208,-4.943848 1.2208,-9.765625 0,-5.126953 -1.2818,-10.070801 -1.2817,-5.004883 -3.9673,-8.911133 -2.6245,-3.90625 -6.8359,-6.286621 -4.1504,-2.441406 -9.8877,-2.441406 l -15.5029,0 0,55.480957 14.0991,0 z"
         id="path4558"
         style="" />
    </g>
    <g
       style="font-style:normal;font-variant:normal;font-weight:normal;font-stretch:normal;font-size:45px;line-height:125%;font-family:Overpass;-inkscape-font-specification:'Overpass, Normal';text-align:start;letter-spacing:0px;word-spacing:0px;writing-mode:lr-tb;text-anchor:start;fill:#222222;fill-opacity:1;stroke:none;stroke-width:1px;stroke-linecap:butt;stroke-linejoin:miter;stroke-opacity:1"
       id="text4504">
      <path
         d="m 1864.0505,163.81213 q -2.4389,0 -4.3725,-0.65918 -1.9116,-0.68115 -3.3618,-1.82373 -1.4502,-1.16455 -2.4829,-2.72461 -1.0108,-1.58203 -1.648,-3.38378 -0.6372,-1.82374 -0.9448,-3.7793 -0.2857,-1.97754 -0.2857,-3.93311 0,-1.80175 0.2857,-3.71338 0.3076,-1.91162 0.9448,-3.71337 0.6592,-1.82374 1.6919,-3.42774 1.0327,-1.604 2.4829,-2.8125 1.4502,-1.2085 3.3618,-1.91162 1.9116,-0.70313 4.3286,-0.70313 2.2193,0 3.9991,0.54932 1.7797,0.52734 3.0981,1.40625 1.3403,0.87891 2.2412,1.99951 0.9009,1.12061 1.3843,2.28516 l -4.2847,1.99951 q -0.5713,-0.90088 -1.2085,-1.58203 -0.6152,-0.70313 -1.3842,-1.18652 -0.7471,-0.4834 -1.6919,-0.7251 -0.9449,-0.2417 -2.1534,-0.2417 -1.582,0 -2.8125,0.50537 -1.2085,0.50537 -2.1313,1.38428 -0.9009,0.8789 -1.5381,2.04345 -0.6372,1.16456 -1.0327,2.48291 -0.3735,1.29639 -0.5493,2.68067 -0.1758,1.38428 -0.1758,2.68066 0,2.08741 0.4614,4.19678 0.4834,2.10938 1.4942,3.80127 1.0107,1.69189 2.5708,2.74658 1.56,1.05469 3.7133,1.05469 1.1646,0 2.0874,-0.28565 0.9449,-0.30761 1.7139,-0.83496 0.791,-0.54931 1.4063,-1.29638 0.6372,-0.74707 1.1865,-1.64795 l 4.3725,1.66992 q -0.6591,1.53809 -1.6479,2.8125 -0.9668,1.27441 -2.3071,2.17529 -1.3184,0.90088 -3.0323,1.40625 -1.6919,0.50537 -3.7793,0.50537 z"
         id="path4525"
         style="" />
      <path
         d="m 1894.9001,163.26282 0,-13.73291 q 0,-1.4502 -0.3515,-2.46094 -0.3516,-1.03272 -0.9668,-1.66992 -0.6152,-0.65918 -1.4502,-0.94483 -0.835,-0.30761 -1.8237,-0.30761 -1.0547,0 -1.9556,0.28564 -0.9009,0.26367 -1.5601,0.87891 -0.6591,0.61523 -1.0547,1.64795 -0.3735,1.01074 -0.3735,2.48291 l 0,13.8208 -4.6802,0 0,-30.32227 4.6802,-2.17529 0,11.71142 q 1.1206,-1.42822 2.5708,-2.0874 1.4502,-0.65918 3.3618,-0.65918 1.8018,0 3.3179,0.52735 1.5161,0.50537 2.6147,1.66992 1.1207,1.16455 1.7359,3.03222 0.6152,1.86768 0.6152,4.57032 l 0,13.73291 -4.6802,0 z"
         id="path4527"
         style="" />
      <path
         d="m 1906.1282,163.26282 0,-23.00537 4.6801,0 0,23.00537 -4.6801,0 z m 2.3291,-26.58692 q -0.5933,0 -1.1206,-0.21972 -0.5054,-0.21973 -0.9009,-0.59326 -0.3735,-0.39551 -0.5933,-0.90088 -0.2197,-0.52735 -0.2197,-1.12061 0,-0.59326 0.2197,-1.09863 0.2198,-0.52735 0.5933,-0.90088 0.3955,-0.39551 0.9009,-0.61524 0.5273,-0.21972 1.1206,-0.21972 0.5932,0 1.0986,0.21972 0.5274,0.21973 0.9009,0.61524 0.3955,0.37353 0.6152,0.90088 0.2197,0.50537 0.2197,1.09863 0,0.59326 -0.2197,1.12061 -0.2197,0.50537 -0.6152,0.90088 -0.3735,0.37353 -0.9009,0.59326 -0.5054,0.21972 -1.0986,0.21972 z"
         id="path4529"
         style="" />
      <path
         d="m 1926.4968,163.81213 q -2.3071,0 -4.1748,-0.81298 -1.8457,-0.81299 -3.164,-2.35108 -1.2964,-1.56006 -1.9996,-3.7793 -0.7031,-2.24121 -0.7031,-5.07568 0,-2.83447 0.7031,-5.07568 0.7032,-2.24121 1.9996,-3.7793 1.3183,-1.56006 3.164,-2.37305 1.8677,-0.83496 4.1748,-0.83496 3.208,0 5.4273,1.42823 2.2412,1.42822 3.2519,4.50439 l -4.4385,1.53809 q -0.5053,-1.31836 -1.538,-2.13135 -1.0328,-0.83496 -2.5269,-0.83496 -1.3184,0 -2.3291,0.52734 -1.0107,0.52734 -1.7139,1.51611 -0.6811,0.9668 -1.0546,2.37305 -0.3516,1.38428 -0.3516,3.14209 0,1.75781 0.3516,3.16406 0.3735,1.38428 1.0327,2.35108 0.6811,0.96679 1.6479,1.49414 0.9888,0.50537 2.2412,0.50537 1.5821,0 2.7027,-0.87891 1.1425,-0.8789 1.6259,-2.50488 l 4.4385,1.40625 q -0.9228,3.20801 -3.1421,4.85596 -2.1972,1.62597 -5.625,1.62597 z"
         id="path4531"
         style="" />
      <path
         d="m 1958.511,163.26282 -4.4824,0 0,-1.97754 q -0.4395,0.46142 -1.0547,0.92285 -0.6153,0.43945 -1.4063,0.81299 -0.769,0.35156 -1.7358,0.57129 -0.9668,0.21972 -2.1094,0.21972 -1.7578,0 -3.2519,-0.48339 -1.4942,-0.4834 -2.5928,-1.4502 -1.0986,-0.98877 -1.7359,-2.41699 -0.6152,-1.4502 -0.6152,-3.36182 0,-1.97754 0.7471,-3.40576 0.7471,-1.4502 1.9775,-2.37305 1.2305,-0.94482 2.8125,-1.38427 1.604,-0.43946 3.2959,-0.43946 1.5821,0 3.0322,0.35156 1.4722,0.32959 2.6368,1.01075 l 0,-1.27442 q 0,-1.29638 -0.3077,-2.19726 -0.2856,-0.90088 -0.9008,-1.4502 -0.5933,-0.57129 -1.5161,-0.81299 -0.9229,-0.26367 -2.1973,-0.26367 -2.1533,0 -3.7354,0.57129 -1.56,0.57129 -2.8344,1.51611 l -1.3843,-3.84521 q 0.7031,-0.4834 1.604,-0.90088 0.9009,-0.43945 1.9775,-0.76904 1.0767,-0.32959 2.3291,-0.50537 1.2525,-0.19776 2.6807,-0.19776 0.9668,0 1.9995,0.10987 1.0327,0.10986 1.9995,0.43945 0.9888,0.30762 1.8457,0.90088 0.8789,0.59326 1.5161,1.56006 0.6592,0.94482 1.0328,2.3291 0.3735,1.38428 0.3735,3.2959 l 0,14.89746 z m -9.9317,-3.60352 q 1.7798,0 3.1421,-0.7251 1.3843,-0.72509 2.3072,-1.73584 l 0,-3.51562 q -0.9668,-0.50537 -2.2632,-0.81299 -1.2964,-0.30762 -2.6587,-0.30762 -1.0547,0 -1.9775,0.19776 -0.9229,0.19775 -1.626,0.6372 -0.6812,0.41749 -1.0767,1.09864 -0.3955,0.65918 -0.3955,1.604 0,1.64795 1.1426,2.61475 1.1645,0.94482 3.4057,0.94482 z"
         id="path4533"
         style="" />
      <path
         d="m 1970.2224,168.66809 q 2.5269,-0.15381 4.1748,-0.59326 1.648,-0.43945 2.6148,-1.12061 0.9668,-0.65918 1.3403,-1.56005 0.3735,-0.90088 0.3735,-1.95557 l 0,-2.02149 q -1.9116,2.39502 -5.5371,2.39502 -1.9775,0 -3.6914,-0.74707 -1.7139,-0.76904 -3.0102,-2.28515 -1.2745,-1.51612 -2.0215,-3.75733 -0.7251,-2.26318 -0.7251,-5.27343 0,-2.83448 0.7031,-5.05372 0.7031,-2.24121 1.9556,-3.77929 1.2744,-1.56006 3.0322,-2.37305 1.7578,-0.81299 3.8672,-0.81299 1.0107,0 1.8457,0.19776 0.8349,0.17578 1.4941,0.48339 0.6812,0.30762 1.1866,0.70313 0.5273,0.37354 0.9008,0.76904 l 0,-1.62597 4.6802,0 0,21.24755 q 0,2.63672 -0.5273,4.48243 -0.5274,1.8457 -1.8018,3.16406 -0.8569,0.87891 -1.8896,1.42822 -1.0108,0.57129 -2.1314,0.92285 -1.0986,0.35157 -2.2412,0.50537 -1.1426,0.17579 -2.2412,0.26368 l -2.3511,-3.60352 z m 3.8233,-9.27246 q 1.4282,0 2.6586,-0.70313 1.2525,-0.70312 2.0215,-1.99951 l 0,-9.95361 q -0.3515,-0.57129 -0.8789,-1.03271 -0.5053,-0.4834 -1.1206,-0.83497 -0.5932,-0.35156 -1.2964,-0.52734 -0.6811,-0.19775 -1.3842,-0.19775 -2.7466,0 -4.1968,1.95556 -1.4282,1.9336 -1.4282,5.64698 0,1.75781 0.3955,3.18603 0.3955,1.40625 1.1206,2.39502 0.7251,0.98877 1.7578,1.53809 1.0547,0.52734 2.3511,0.52734 z"
         id="path4535"
         style="" />
      <path
         d="m 1999.5559,163.81213 q -2.417,0 -4.3726,-0.81298 -1.9335,-0.81299 -3.2958,-2.35108 -1.3624,-1.56006 -2.1094,-3.7793 -0.7251,-2.24121 -0.7251,-5.07568 0,-2.83447 0.7251,-5.07568 0.747,-2.24121 2.1094,-3.7793 1.3623,-1.56006 3.2958,-2.37305 1.9556,-0.83496 4.3726,-0.83496 2.395,0 4.3506,0.83496 1.9556,0.81299 3.3179,2.37305 1.3623,1.53809 2.1093,3.7793 0.7471,2.24121 0.7471,5.07568 0,2.83447 -0.7471,5.07568 -0.747,2.21924 -2.1093,3.7793 -1.3623,1.53809 -3.3179,2.35108 -1.9556,0.81298 -4.3506,0.81298 z m 0,-4.4165 q 1.3403,0 2.417,-0.52734 1.0986,-0.52735 1.8457,-1.49414 0.769,-0.98877 1.1646,-2.39502 0.4174,-1.40625 0.4174,-3.18604 0,-1.77978 -0.4174,-3.18603 -0.3956,-1.42823 -1.1646,-2.417 -0.7471,-0.98877 -1.8457,-1.51611 -1.0767,-0.52734 -2.417,-0.52734 -1.3403,0 -2.417,0.52734 -1.0766,0.52734 -1.8457,1.51611 -0.7471,0.98877 -1.1645,2.417 -0.3955,1.40625 -0.3955,3.18603 0,1.77979 0.3955,3.18604 0.4174,1.40625 1.1645,2.39502 0.7691,0.96679 1.8457,1.49414 1.0767,0.52734 2.417,0.52734 z"
         id="path4537"
         style="" />
      <path
         d="m 2014.5413,152.36438 0,-4.04297 17.7758,0 0,4.04297 -17.7758,0 z"
         id="path4539"
         style="" />
      <path
         d="m 2051.2795,163.81213 q -2.5268,0 -4.5263,-0.65918 -1.9995,-0.68115 -3.5376,-1.82373 -1.5161,-1.16455 -2.5928,-2.72461 -1.0767,-1.58203 -1.7578,-3.38378 -0.6812,-1.82374 -1.0108,-3.7793 -0.3076,-1.97754 -0.3076,-3.93311 0,-1.93359 0.3076,-3.88916 0.3296,-1.97754 1.0108,-3.77929 0.6811,-1.82373 1.7578,-3.38379 1.0767,-1.58203 2.5928,-2.72461 1.5381,-1.16455 3.5376,-1.82373 1.9995,-0.68116 4.5263,-0.68116 2.5269,0 4.5264,0.68116 1.9995,0.65918 3.5156,1.82373 1.5381,1.14258 2.6148,2.72461 1.0766,1.56006 1.7578,3.38379 0.6811,1.80175 0.9888,3.77929 0.3076,1.95557 0.3076,3.88916 0,1.95557 -0.3076,3.93311 -0.3077,1.95556 -0.9888,3.7793 -0.6812,1.80175 -1.7578,3.38378 -1.0767,1.56006 -2.6148,2.72461 -1.5161,1.14258 -3.5156,1.82373 -1.9995,0.65918 -4.5264,0.65918 z m 0,-4.50439 q 1.648,0 2.9444,-0.50537 1.2964,-0.52735 2.2632,-1.40625 0.9887,-0.87891 1.6699,-2.04346 0.7031,-1.18652 1.1426,-2.48291 0.4394,-1.31836 0.6372,-2.68066 0.1977,-1.38428 0.1977,-2.68067 0,-1.3623 -0.1977,-2.76855 -0.1978,-1.42822 -0.6372,-2.72461 -0.4395,-1.31836 -1.1426,-2.46094 -0.6812,-1.14258 -1.6699,-1.97754 -0.9668,-0.85693 -2.2632,-1.34033 -1.2964,-0.50537 -2.9444,-0.50537 -1.6479,0 -2.9443,0.52734 -1.2964,0.50537 -2.2852,1.38428 -0.9887,0.87891 -1.6918,2.06543 -0.6812,1.16455 -1.1207,2.48291 -0.4394,1.29639 -0.6372,2.68066 -0.1977,1.36231 -0.1977,2.63672 0,2.06543 0.4614,4.17481 0.4614,2.0874 1.5161,3.80127 1.0547,1.69189 2.7466,2.76855 1.6919,1.05469 4.1528,1.05469 z"
         id="path4541"
         style="" />
      <path
         d="m 2069.7805,142.47668 q 0.3076,-0.26367 0.7251,-0.74707 0.4395,-0.50537 0.8569,-1.1206 0.4175,-0.63721 0.7251,-1.34033 0.3296,-0.7251 0.4395,-1.47217 -0.5933,-0.044 -1.1426,-0.28565 -0.5493,-0.26367 -0.9668,-0.65918 -0.3955,-0.41748 -0.6592,-0.96679 -0.2417,-0.57129 -0.2417,-1.25244 0,-0.76905 0.2637,-1.38428 0.2857,-0.63721 0.7251,-1.07666 0.4614,-0.46143 1.0547,-0.70313 0.6152,-0.2417 1.2744,-0.2417 0.7031,0 1.3403,0.26368 0.6592,0.2417 1.1426,0.74707 0.5054,0.50537 0.791,1.27441 0.2857,0.76904 0.2857,1.80176 0,1.29639 -0.3955,2.52685 -0.3736,1.23047 -1.0327,2.30713 -0.6592,1.05469 -1.5601,1.95557 -0.8789,0.87891 -1.8677,1.49414 l -1.7578,-1.12061 z"
         id="path4543"
         style="" />
      <path
         d="m 2101.0476,163.26282 0,-14.04053 -14.3701,0 0,14.04053 -4.6802,0 0,-31.50879 4.6802,0 0,13.05176 14.3701,0 0,-13.05176 4.6802,0 0,31.50879 -4.6802,0 z"
         id="path4545"
         style="" />
      <path
         d="m 2130.7766,163.26282 -4.4824,0 0,-1.97754 q -0.4395,0.46142 -1.0547,0.92285 -0.6152,0.43945 -1.4062,0.81299 -0.7691,0.35156 -1.7359,0.57129 -0.9668,0.21972 -2.1094,0.21972 -1.7578,0 -3.2519,-0.48339 -1.4942,-0.4834 -2.5928,-1.4502 -1.0986,-0.98877 -1.7358,-2.41699 -0.6153,-1.4502 -0.6153,-3.36182 0,-1.97754 0.7471,-3.40576 0.7471,-1.4502 1.9775,-2.37305 1.2305,-0.94482 2.8125,-1.38427 1.604,-0.43946 3.2959,-0.43946 1.5821,0 3.0323,0.35156 1.4721,0.32959 2.6367,1.01075 l 0,-1.27442 q 0,-1.29638 -0.3076,-2.19726 -0.2857,-0.90088 -0.9009,-1.4502 -0.5933,-0.57129 -1.5161,-0.81299 -0.9229,-0.26367 -2.1973,-0.26367 -2.1533,0 -3.7353,0.57129 -1.5601,0.57129 -2.8345,1.51611 l -1.3843,-3.84521 q 0.7031,-0.4834 1.604,-0.90088 0.9009,-0.43945 1.9776,-0.76904 1.0766,-0.32959 2.3291,-0.50537 1.2524,-0.19776 2.6806,-0.19776 0.9668,0 1.9995,0.10987 1.0327,0.10986 1.9995,0.43945 0.9888,0.30762 1.8457,0.90088 0.879,0.59326 1.5162,1.56006 0.6591,0.94482 1.0327,2.3291 0.3735,1.38428 0.3735,3.2959 l 0,14.89746 z m -9.9316,-3.60352 q 1.7798,0 3.1421,-0.7251 1.3842,-0.72509 2.3071,-1.73584 l 0,-3.51562 q -0.9668,-0.50537 -2.2632,-0.81299 -1.2964,-0.30762 -2.6587,-0.30762 -1.0547,0 -1.9775,0.19776 -0.9229,0.19775 -1.626,0.6372 -0.6812,0.41749 -1.0767,1.09864 -0.3955,0.65918 -0.3955,1.604 0,1.64795 1.1426,2.61475 1.1646,0.94482 3.4058,0.94482 z"
         id="path4547"
         style="" />
      <path
         d="m 2137.1487,163.26282 0,-23.00537 4.6802,0 0,2.79052 q 0.8129,-1.75781 2.1093,-2.52685 1.2964,-0.79102 3.0103,-0.79102 2.2851,0 3.8672,1.38428 l -0.6812,4.32861 q -0.6372,-0.43945 -1.5161,-0.76904 -0.8569,-0.35156 -2.1094,-0.35156 -0.791,0 -1.6259,0.28564 -0.813,0.26367 -1.4942,0.9668 -0.6811,0.68115 -1.1206,1.8457 -0.4394,1.14258 -0.4394,2.92237 l 0,12.91992 -4.6802,0 z"
         id="path4549"
         style="" />
      <path
         d="m 2164.6584,163.81213 q -2.395,0 -4.3286,-0.81298 -1.9336,-0.83497 -3.2959,-2.37305 -1.3623,-1.56006 -2.1093,-3.80127 -0.7251,-2.24121 -0.7251,-5.07568 0,-2.83448 0.747,-5.05372 0.7471,-2.24121 2.1094,-3.77929 1.3843,-1.56006 3.2959,-2.37305 1.9336,-0.81299 4.3066,-0.81299 2.0435,0 3.8233,0.65918 1.8017,0.63721 3.1421,1.97754 1.3623,1.31836 2.1313,3.33985 0.791,2.02148 0.791,4.76806 0,0.74707 -0.044,1.58203 -0.022,0.83496 -0.1318,1.4502 l -15.4908,0 q 0.022,1.42822 0.5054,2.5708 0.5054,1.1206 1.3184,1.93359 0.813,0.79102 1.8457,1.23047 1.0327,0.41748 2.1533,0.41748 1.4282,0 2.6367,-0.59326 1.2305,-0.59326 2.1314,-1.73584 l 3.0542,3.14209 q -1.2525,1.49414 -3.208,2.41699 -1.9556,0.92285 -4.6583,0.92285 z m 0,-19.95117 q -1.0986,0 -2.1093,0.32959 -1.0108,0.30762 -1.8018,1.01074 -0.769,0.68116 -1.2744,1.80176 -0.5054,1.12061 -0.5933,2.72461 l 10.9864,0 q -0.044,-1.604 -0.5054,-2.72461 -0.4614,-1.1206 -1.2085,-1.80176 -0.7471,-0.70312 -1.6699,-1.01074 -0.9009,-0.32959 -1.8238,-0.32959 z"
         id="path4551"
         style="" />
    </g>
  </g>
  <g
     inkscape:groupmode="layer"
     id="layer3"
     inkscape:label="Date"
     style="display:inline">
    <g
       style="font-style:normal;font-variant:normal;font-weight:300;font-stretch:normal;font-size:15px;line-height:125%;font-family:Overpass;-inkscape-font-specification:'Overpass, Light';text-align:start;letter-spacing:0px;word-spacing:0px;writing-mode:lr-tb;text-anchor:start;fill:#222222;fill-opacity:1;stroke:none;stroke-width:1px;stroke-linecap:butt;stroke-linejoin:miter;stroke-opacity:1"
       id="text4510">
      <path
         d="m 2105.2596,1026.5216 q 0,-0.99 0.285,-1.695 0.285,-0.72 0.735,-1.26 0.45,-0.54 1.02,-0.945 0.57,-0.405 1.14,-0.795 0.495,-0.33 0.945,-0.645 0.45,-0.33 0.795,-0.69 0.36,-0.36 0.57,-0.765 0.21,-0.42 0.21,-0.93 0,-0.855 -0.6,-1.425 -0.585,-0.585 -1.68,-0.585 -1.065,0 -1.605,0.48 -0.54,0.465 -0.735,1.215 l -0.93,-0.42 q 0.12,-0.465 0.405,-0.87 0.285,-0.405 0.72,-0.705 0.435,-0.3 0.99,-0.465 0.57,-0.18 1.245,-0.18 1.56,0 2.415,0.81 0.87,0.795 0.87,2.145 0,0.72 -0.285,1.275 -0.27,0.555 -0.72,1.02 -0.435,0.45 -0.99,0.84 -0.555,0.375 -1.125,0.735 -0.45,0.3 -0.87,0.6 -0.42,0.285 -0.78,0.63 -0.345,0.33 -0.585,0.735 -0.24,0.39 -0.33,0.885 l 5.775,0 0,1.005 -6.885,0 z"
         id="path4580"
         inkscape:connector-curvature="0" />
      <path
         d="m 2122.0458,1025.7566 q 0.9,0 1.515,-0.405 0.63,-0.405 1.005,-1.05 0.39,-0.645 0.555,-1.44 0.18,-0.81 0.18,-1.59 0,-0.855 -0.18,-1.665 -0.165,-0.81 -0.555,-1.425 -0.375,-0.63 -1.005,-1.005 -0.615,-0.39 -1.515,-0.39 -0.9,0 -1.53,0.405 -0.615,0.405 -1.005,1.05 -0.375,0.645 -0.555,1.455 -0.165,0.795 -0.165,1.575 0,0.855 0.165,1.665 0.18,0.81 0.555,1.44 0.39,0.615 1.005,1.005 0.63,0.375 1.53,0.375 z m 0,0.945 q -1.215,0 -2.055,-0.48 -0.825,-0.48 -1.335,-1.26 -0.51,-0.78 -0.735,-1.74 -0.225,-0.975 -0.225,-1.95 0,-0.975 0.225,-1.935 0.225,-0.975 0.735,-1.755 0.51,-0.78 1.335,-1.26 0.84,-0.48 2.055,-0.48 1.215,0 2.04,0.48 0.84,0.48 1.35,1.26 0.51,0.78 0.735,1.755 0.225,0.96 0.225,1.935 0,0.975 -0.225,1.95 -0.225,0.96 -0.735,1.74 -0.51,0.78 -1.35,1.26 -0.825,0.48 -2.04,0.48 z"
         id="path4582"
         inkscape:connector-curvature="0" />
      <path
         d="m 2131.1355,1026.7016 q -1.395,0 -2.22,-1.035 -0.81,-1.05 -0.81,-2.97 0,-1.905 0.825,-2.955 0.84,-1.065 2.325,-1.065 0.855,0 1.5,0.42 0.645,0.405 0.96,1.185 l -0.96,0.375 q -0.18,-0.435 -0.555,-0.735 -0.36,-0.3 -0.99,-0.3 -0.54,0 -0.915,0.225 -0.375,0.21 -0.63,0.615 -0.24,0.39 -0.36,0.96 -0.105,0.57 -0.105,1.275 0,1.455 0.48,2.265 0.48,0.795 1.5,0.795 0.63,0 1.065,-0.315 0.435,-0.315 0.63,-0.855 l 0.945,0.36 q -0.27,0.81 -0.99,1.29 -0.705,0.465 -1.695,0.465 z"
         id="path4584"
         inkscape:connector-curvature="0" />
      <path
         d="m 2137.6111,1026.7016 q -0.825,0 -1.17,-0.495 -0.345,-0.51 -0.345,-1.26 l 0,-5.145 -1.305,0 0,-0.945 1.305,0 0,-2.64 1.05,-0.525 0,3.165 1.95,0 0,0.945 -1.95,0 0,4.695 q 0,0.255 0.015,0.48 0.03,0.21 0.12,0.375 0.09,0.165 0.255,0.27 0.165,0.09 0.435,0.09 0.39,0 0.66,-0.15 0.285,-0.15 0.495,-0.3 l -0.12,1.095 q -0.3,0.165 -0.63,0.255 -0.33,0.09 -0.765,0.09 z"
         id="path4586"
         inkscape:connector-curvature="0" />
      <path
         d="m 2144.4002,1026.5216 q 0,-0.99 0.285,-1.695 0.285,-0.72 0.735,-1.26 0.45,-0.54 1.02,-0.945 0.57,-0.405 1.14,-0.795 0.495,-0.33 0.945,-0.645 0.45,-0.33 0.795,-0.69 0.36,-0.36 0.57,-0.765 0.21,-0.42 0.21,-0.93 0,-0.855 -0.6,-1.425 -0.585,-0.585 -1.68,-0.585 -1.065,0 -1.605,0.48 -0.54,0.465 -0.735,1.215 l -0.93,-0.42 q 0.12,-0.465 0.405,-0.87 0.285,-0.405 0.72,-0.705 0.435,-0.3 0.99,-0.465 0.57,-0.18 1.245,-0.18 1.56,0 2.415,0.81 0.87,0.795 0.87,2.145 0,0.72 -0.285,1.275 -0.27,0.555 -0.72,1.02 -0.435,0.45 -0.99,0.84 -0.555,0.375 -1.125,0.735 -0.45,0.3 -0.87,0.6 -0.42,0.285 -0.78,0.63 -0.345,0.33 -0.585,0.735 -0.24,0.39 -0.33,0.885 l 5.775,0 0,1.005 -6.885,0 z"
         id="path4588"
         inkscape:connector-curvature="0" />
      <path
         d="m 2156.9793,1026.7016 q -1.035,0 -1.725,-0.48 -0.69,-0.48 -1.11,-1.245 -0.405,-0.78 -0.585,-1.74 -0.18,-0.975 -0.18,-1.965 0,-0.54 0.06,-1.155 0.06,-0.63 0.21,-1.23 0.165,-0.6 0.42,-1.155 0.27,-0.555 0.675,-0.975 0.405,-0.42 0.945,-0.66 0.555,-0.255 1.29,-0.255 1.035,0 1.725,0.495 0.69,0.48 1.095,1.26 0.42,0.78 0.6,1.755 0.18,0.96 0.18,1.92 0,0.555 -0.075,1.17 -0.06,0.615 -0.225,1.23 -0.15,0.6 -0.42,1.155 -0.255,0.54 -0.66,0.96 -0.405,0.42 -0.96,0.675 -0.54,0.24 -1.26,0.24 z m 0,-0.945 q 0.78,0 1.26,-0.42 0.495,-0.435 0.765,-1.095 0.27,-0.66 0.36,-1.455 0.09,-0.795 0.09,-1.515 0,-0.81 -0.105,-1.605 -0.105,-0.81 -0.39,-1.44 -0.285,-0.645 -0.765,-1.035 -0.48,-0.405 -1.215,-0.405 -0.795,0 -1.29,0.435 -0.48,0.435 -0.75,1.095 -0.27,0.66 -0.375,1.455 -0.09,0.78 -0.09,1.5 0,0.825 0.105,1.635 0.105,0.795 0.39,1.44 0.285,0.63 0.765,1.02 0.495,0.39 1.245,0.39 z"
         id="path4590"
         inkscape:connector-curvature="0" />
      <path
         d="m 2164.0015,1026.5216 0,-8.595 -1.785,0 0,-0.6 q 0.795,0 1.35,-0.27 0.555,-0.285 0.81,-1.035 l 0.675,0 0,10.5 -1.05,0 z"
         id="path4592"
         inkscape:connector-curvature="0" />
      <path
         d="m 2171.1112,1025.7566 q 0.495,0 0.915,-0.15 0.435,-0.165 0.75,-0.465 0.315,-0.3 0.495,-0.735 0.18,-0.435 0.18,-0.99 0,-0.465 -0.165,-0.885 -0.165,-0.42 -0.48,-0.735 -0.3,-0.33 -0.735,-0.51 -0.435,-0.195 -0.96,-0.195 -0.525,0 -0.96,0.195 -0.435,0.18 -0.75,0.51 -0.3,0.315 -0.465,0.735 -0.165,0.42 -0.165,0.885 0,0.555 0.18,0.99 0.18,0.435 0.495,0.735 0.315,0.3 0.735,0.465 0.435,0.15 0.93,0.15 z m 0,-9.915 q 0.63,0 1.17,0.225 0.555,0.21 0.945,0.585 0.39,0.375 0.615,0.87 0.225,0.495 0.225,1.035 0,0.675 -0.345,1.275 -0.33,0.585 -1.05,0.885 0.84,0.315 1.35,1.095 0.525,0.765 0.525,1.755 0,0.66 -0.255,1.245 -0.255,0.57 -0.72,0.99 -0.465,0.42 -1.095,0.66 -0.63,0.24 -1.365,0.24 -0.75,0 -1.38,-0.24 -0.615,-0.24 -1.08,-0.66 -0.465,-0.42 -0.72,-0.99 -0.255,-0.585 -0.255,-1.245 0,-0.495 0.135,-0.945 0.135,-0.45 0.375,-0.81 0.255,-0.375 0.6,-0.66 0.345,-0.285 0.75,-0.435 -0.675,-0.3 -1.035,-0.885 -0.345,-0.6 -0.345,-1.275 0,-0.54 0.225,-1.035 0.225,-0.495 0.615,-0.87 0.39,-0.375 0.93,-0.585 0.555,-0.225 1.185,-0.225 z m 0,4.56 q 0.87,0 1.38,-0.48 0.51,-0.48 0.51,-1.23 0,-0.885 -0.54,-1.395 -0.54,-0.51 -1.35,-0.51 -0.81,0 -1.35,0.51 -0.54,0.51 -0.54,1.395 0,0.75 0.51,1.23 0.51,0.48 1.38,0.48 z"
         id="path4594"
         inkscape:connector-curvature="0" />
    </g>
  </g>
</svg>
