<?xml version="1.0" encoding="UTF-8" standalone="no"?>
<!-- Created with Inkscape (http://www.inkscape.org/) -->

<svg
   xmlns:dc="http://purl.org/dc/elements/1.1/"
   xmlns:cc="http://creativecommons.org/ns#"
   xmlns:rdf="http://www.w3.org/1999/02/22-rdf-syntax-ns#"
   xmlns:svg="http://www.w3.org/2000/svg"
   xmlns="http://www.w3.org/2000/svg"
   xmlns:sodipodi="http://sodipodi.sourceforge.net/DTD/sodipodi-0.dtd"
   xmlns:inkscape="http://www.inkscape.org/namespaces/inkscape"
   sodipodi:docname="PER.svg"
   inkscape:version="0.92.4 (5da689c313, 2019-01-14)"
   version="1.1"
   id="svg2"
   viewBox="0 0 1619.2454 1579.2648"
   height="1579.2648"
   width="1619.2454"
   inkscape:export-filename="C:\Users\paulb\Dropbox\Projects\Terminal Silhouettes\Silhouettes\png\PER.png"
   inkscape:export-xdpi="90"
   inkscape:export-ydpi="90">
  <sodipodi:namedview
     inkscape:object-nodes="true"
     inkscape:snap-smooth-nodes="true"
     inkscape:guide-bbox="true"
     showguides="true"
     inkscape:snap-object-midpoints="false"
     inkscape:window-maximized="1"
     inkscape:window-y="-8"
     inkscape:window-x="1912"
     inkscape:window-height="1137"
     inkscape:window-width="1920"
     fit-margin-bottom="25"
     fit-margin-right="25"
     fit-margin-left="25"
     fit-margin-top="25"
     units="px"
     showgrid="false"
     inkscape:current-layer="layer3"
     inkscape:document-units="px"
     inkscape:cy="716.01195"
     inkscape:cx="230.58786"
     inkscape:zoom="0.5"
     inkscape:pageshadow="2"
     inkscape:pageopacity="1"
     borderopacity="1.0"
     bordercolor="#666666"
     pagecolor="#ffffff"
     id="base" />
  <defs
     id="defs4" />
  <metadata
     id="metadata7">
    <rdf:RDF>
      <cc:Work
         rdf:about="">
        <dc:format>image/svg+xml</dc:format>
        <dc:type
           rdf:resource="http://purl.org/dc/dcmitype/StillImage" />
        <dc:title />
        <dc:description>Terminal silhouette of PER (Perth)</dc:description>
        <dc:creator>
          <cc:Agent>
            <dc:title>Paul Bogard</dc:title>
          </cc:Agent>
        </dc:creator>
      </cc:Work>
    </rdf:RDF>
  </metadata>
  <g
     inkscape:groupmode="layer"
     id="layer2"
     inkscape:label="Terminal"
     transform="translate(-402.01848,381.33019)">
    <g
       id="g6050"
       transform="matrix(0.59369,0,0,0.59369,492.39465,165.9252)"
       style="fill:#dddddd;fill-opacity:1;stroke:#222222;stroke-width:2.52657104;stroke-miterlimit:4;stroke-dasharray:none;stroke-opacity:1">
      <path
         inkscape:connector-curvature="0"
         id="path4135"
         d="m 220.32592,-606.99749 a 67.14286,67.14286 0 0 0 2.17419,-16.88961 67.14286,67.14286 0 0 0 -6.60925,-28.90018 l 4.85617,-2.59456 a 3.0420418,3.0420418 0 0 0 1.24945,-4.11362 3.0420418,3.0420418 0 0 0 -4.11739,-1.25041 l 4.97012,-2.65713 c 0,0 -1.90534,-14.32625 -19.88054,-38.27584 l 3.72253,-4.02015 5.03501,-5.43897 -3.45483,-3.1992 -5.03546,5.44082 -2.39682,-2.21883 -2.852,3.08162 c -4.86572,-5.97089 -10.65415,-12.43741 -17.58812,-19.35606 l 0.15048,-0.16214 0.88986,-0.95974 1.9976,-2.15961 3.49509,-3.77423 -5.14858,-4.76846 -3.49546,3.77619 -16.5019,-15.27738 7.79891,-8.42368 -13.76432,-12.74336 -7.79647,8.42222 -14.60323,-13.5189 -18.11039,-16.76726 -56.006942,-51.85469 -21.647063,-20.04305 -13.232234,-12.24836 -2.889387,3.11878 13.233799,12.2508 -11.496788,12.41754 -9.878615,10.67169 21.645694,20.04065 9.878493,-10.67161 39.031572,36.13899 -5.020473,19.85804 -6.51362,10.20612 -25.807532,6.57974 2.420696,9.49575 -10.053517,-2.47466 -35.3553924,143.70299 -12.8510124,52.23338 -11.9711462,48.6565 -3.156808,12.83221 -5.204006,21.15029 -9.131023,37.11202 -17.05331,69.31394 0,0 -51.884955,88.29997 12.263055,-2.2306 13.861711,8.14514 7.016873,-11.94079 11.113129,-2.02074 22.816922,13.40767 a 3.0420418,3.0420418 0 0 0 1.081901,4.16216 l 14.149922,8.31473 1.540149,-2.62213 29.0906332,17.09348 1.2187929,-2.07572 15.5294319,9.12475 0.249923,-0.42729 26.075334,19.31024 -6.258223,25.43676 -1.74909,7.11033 -6.300328,6.5678 -2.899558,3.02166 -8.675304,9.04284 -3.134346,-3.00584 -24.0378562,25.05704 6.3054019,6.05085 -3.1218321,3.25454 7.2556154,6.96249 8.78806,-9.1579 15.251296,-15.89683 6.797706,-7.08505 4.777609,-4.98129 -5.01336,20.37674 -4.762671,19.35824 -19.994643,11.91784 -56.143509,33.46224 2.893014,4.853203 -8.418812,5.016733 -12.631142,7.528501 -2.98862,1.780889 -17.464688,31.24601 7.935923,4.43456 16.275702,-29.118918 0.895588,-0.533935 10.134692,-6.038811 10e-6,2e-6 10.914946,-6.504543 53.730126,-32.024471 27.702198,-16.51236 10.131146,-41.17824 7.534298,1.85713 12.837537,-52.1784 -6.759599,-5.00593 4.758505,-19.34124 -8.827999,-2.17425 -8.949395,-2.20401 0.66315,-2.69697 9.932015,2.44487 0.754352,-3.06483 -5.885801,-1.45304 0.5748,-2.33654 2.241571,-2.2765 2.644149,-2.68633 -7.974775,-7.84929 9.846458,-40.02145 13.021657,3.20427 -1.407742,5.72198 8.061686,1.98641 1.407741,-5.72198 0.533423,-2.16774 0.366918,-1.49266 -21.084047,-5.18777 2.624314,-10.66826 12.261214,3.01684 20.045322,-81.47467 2.49454,0.61147 2.19742,-8.93094 9.96998,2.45418 5.14069,-20.89452 8.67056,2.13566 2.87808,-11.69806 8.82607,2.17378 a 3.0420418,3.0420418 0 0 0 3.67988,-2.22818 3.0420418,3.0420418 0 0 0 -2.2264,-3.67955 l -8.82606,-2.17377 2.87856,-11.7 -8.67055,-2.13566 5.14066,-20.89442 -47.863693,-11.77578 0.222587,-1.41159 -3.989143,-0.62736 7.639147,-48.61001 4.26251,1.04484 -2.473659,10.05366 60.817061,14.96332 6.39542,-25.99433 7.04723,-28.64384 4.20461,-17.08998 5.22702,14.46443 a 67.14286,67.14286 0 0 0 11.57057,-5.22887 l 2.97092,4.62694 a 3.0420418,3.0420418 0 0 0 4.2037,0.91553 3.0420418,3.0420418 0 0 0 0.91515,-4.20184 l -2.96041,-4.61233 a 67.14286,67.14286 0 0 0 26.19456,-37.86979 z m -149.643243,399.93188 -11.337772,46.08269 -3.875468,-0.94997 11.736242,-47.7024 3.476159,2.57297 z m -8.742079,-19.22537 -1.677953,6.82012 -4.92024,-3.64428 1.113366,-4.52525 5.485989,1.34475 z m -16.390067,42.9752 -1.446334,5.87942 -6.854332,7.14355 -5.864855,6.11381 -5.710105,5.95067 -2.184048,-2.09408 3.124274,-3.25611 11.575339,-12.06645 7.360226,-7.67077 z m 15.205335,-66.02934 -3.512927,3.56877 1.027325,-4.17425 -1.840026,-0.45103 0.633414,-2.57566 3.691881,3.63373 z m 23.646856,-99.95594 -7.314638,29.73052 -3.433453,-0.84162 7.314661,-29.73061 3.433444,0.84162 z m -33.496381,120.29533 -0.542279,2.20386 -4.724508,-3.49972 5.267848,1.29128 z m 37.257627,-164.88322 -7.358921,29.91076 -4.482497,-1.09877 7.358921,-29.91076 4.482497,1.09877 z m -16.022499,41.57125 -12.111452,49.22721 -17.812534,-4.38276 0.317755,-0.53936 11.330662,-30.27526 0.0019,5.8e-4 2.844485,-11.56143 6.489033,1.60091 a 3.0420418,3.0420418 0 0 0 3.67948,-2.22652 3.0420418,3.0420418 0 0 0 -2.225966,-3.6813 l 7.484949,1.84503 z m -13.011987,52.88756 -8.555357,34.77363 -21.232862,-20.90059 4.270689,-7.2703 5.073202,2.98195 a 3.0420418,3.0420418 0 0 0 4.164045,-1.08144 3.0420418,3.0420418 0 0 0 -1.08142,-4.16399 l -5.073105,-2.98192 3.529794,-6.00851 18.904948,4.65156 z m -9.602939,39.03136 -6.862524,27.89281 -15.513262,-11.48806 -0.935777,-0.6928 5.789295,-9.85343 -7.150696,-4.2011 1.95484,-3.32655 -8.376891,-4.9232 8.938747,-15.21519 22.156229,21.80751 z m 25.327305,-136.76484 -7.358921,29.91075 -6.128614,-1.51256 7.358921,-29.91076 6.128614,1.51257 z m 1.938786,-84.3927 -14.372122,-3.53634 2.431829,-9.88301 13.526317,3.32798 -1.51762,9.65933 -0.06808,0.43191 z"
         style="opacity:1;fill:#dddddd;fill-opacity:1;stroke:#222222;stroke-width:2.52657104;stroke-linejoin:miter;stroke-miterlimit:4;stroke-dasharray:none;stroke-dashoffset:0;stroke-opacity:1" />
      <path
         inkscape:connector-curvature="0"
         style="opacity:1;fill:#dddddd;fill-opacity:1;stroke:#222222;stroke-width:2.52657104;stroke-linejoin:miter;stroke-miterlimit:4;stroke-dasharray:none;stroke-dashoffset:0;stroke-opacity:1"
         d="m 1239.7042,1467.7105 1.2463,0.3055 -0.9449,3.8546 12.6262,3.095 0.9449,-3.8547 21.3845,5.2419 20.1363,4.9359 -0.9449,3.8547 29.0672,7.125 0.9449,-3.8547 58.2862,14.2874 -0.9448,3.8547 12.6262,3.095 0.9448,-3.8547 41.8451,10.2572 -0.9448,3.8547 29.0672,7.1251 0.9449,-3.8547 194.7178,47.73 -20.4587,83.4627 -3.8546,-0.9448 -3.5726,14.5744 -2.1511,-0.5273 -5.4292,22.1489 2.1511,0.5273 3.8547,0.9448 -0.3302,1.347 9.0485,2.218 29.7907,-121.533 34.7827,8.5261 19.8575,4.8675 64.273,15.7549 -0.9449,3.8547 77.9483,19.107 0.9449,-3.8547 0.4045,-1.6504 -2.8323,-0.6942 0.5264,-2.1473 2.8323,0.6942 3.061,-12.4878 -2.8322,-0.6942 0.5263,-2.1474 2.8323,0.6943 3.061,-12.4877 -2.8322,-0.6943 0.5259,-2.1455 2.8322,0.6943 3.0615,-12.4897 -2.8322,-0.6942 0.5259,-2.1455 2.8322,0.6943 3.0615,-12.4896 -2.8322,-0.6942 0.5259,-2.1455 2.8322,0.6942 3.0611,-12.4878 -2.8323,-0.6942 0.5264,-2.1474 2.8323,0.6943 3.061,-12.4877 -2.8323,-0.6943 0.526,-2.1454 2.8322,0.6942 3.0615,-12.4896 -2.8322,-0.6943 0.5259,-2.1455 2.8322,0.6943 3.0615,-12.4896 -2.8322,-0.6942 0.5259,-2.1455 2.8322,0.6942 3.0611,-12.4877 -2.8323,-0.6942 0.5264,-2.1474 2.8322,0.6942 3.0611,-12.4877 -2.8323,-0.6943 0.5259,-2.1454 2.8323,0.6942 3.0615,-12.4896 -2.8323,-0.6943 0.5259,-2.1454 2.8323,0.6943 3.0615,-12.4897 -2.8323,-0.6942 0.526,-2.1455 2.8322,0.6943 3.061,-12.4878 -2.8322,-0.6942 0.5264,-2.1474 2.8322,0.6942 3.0611,-12.4877 -2.8323,-0.6942 0.5259,-2.1455 2.8323,0.6942 3.0615,-12.4895 -2.8323,-0.6943 0.5259,-2.1455 2.8323,0.6943 3.0615,-12.4897 -2.8323,-0.6942 0.5259,-2.1455 2.8323,0.6943 3.061,-12.4877 -2.8322,-0.6943 0.5263,-2.1473 2.8323,0.6942 3.0611,-12.4878 -2.8323,-0.6942 0.5264,-2.1474 2.8322,0.6943 0.4046,-1.6503 0.9448,-3.8547 -77.9482,-19.107 -0.9449,3.8547 -6.5237,-1.5991 0.9449,-3.8547 -65.5876,-16.0771 -0.9449,3.8547 -12.0192,-2.9462 -23.7699,96.971 -16.608,-27.394 2.186,-8.9176 -3.7276,-0.9138 54.2176,-221.1843 29.3997,-15.2417 -22.222,90.6561 33.3563,8.1764 17.4856,-71.3335 12.1557,2.9797 14.4938,-59.1284 41.1926,-21.356 9.3114,4.0662 4.0952,-9.3807 20.2272,8.8312 3.6817,-8.4323 68.5622,29.9317 a 365.50757,365.50757 0 0 1 421.653,-208.90856 l 13.2007,-53.85301 a 420.95569,420.95569 0 0 1 14.4287,4.14214 l 7.6863,-27.13193 a 449.35025,449.35025 0 0 1 8.4787,2.5329 l 3.9383,-12.9243 a 462.8801,462.8801 0 0 0 -8.7334,-2.60934 l 9.0535,-31.96282 a 496.13724,496.13724 0 0 1 41.8362,13.77218 l 5.4311,-14.21533 a 511.36743,511.36743 0 0 0 -43.1206,-14.19356 l 7.3219,-25.84972 a 538.26404,538.26404 0 0 0 -18.3924,-5.49579 538.26404,538.26404 0 0 0 -101.6039,-14.59941 l 0.4296,-9.80867 a 3.0420418,3.0420418 0 0 0 -2.9065,-3.17187 3.0420418,3.0420418 0 0 0 -3.1061,2.3918 3.0420418,3.0420418 0 0 0 -0.066,0.51472 l -0.4228,9.64951 a 538.26404,538.26404 0 0 0 -86.0202,4.19201 l -1.3052,-10.14753 a 3.0420418,3.0420418 0 0 0 -3.4038,-2.62812 3.0420418,3.0420418 0 0 0 -2.5651,2.28512 3.0420418,3.0420418 0 0 0 -0.065,1.12012 l 1.2905,10.0353 a 538.26404,538.26404 0 0 0 -67.5301,13.0378 l -3.344,-11.87178 0,-4.5e-4 a 7.0308123,7.0308123 0 0 0 -8.6723,-4.86071 7.0308123,7.0308123 0 0 0 -4.8607,8.67224 l 3.4765,12.34872 a 538.26404,538.26404 0 0 0 -88.9552,34.74682 l -4.4259,-8.68831 a 3.0420418,3.0420418 0 0 0 -4.09,-1.33028 3.0420418,3.0420418 0 0 0 -1.6023,2.1068 3.0420418,3.0420418 0 0 0 0.2715,1.98502 l 4.5317,8.89721 a 538.26404,538.26404 0 0 0 -73.0484,45.58361 l -6.04,-8.06836 a 3.0420418,3.0420418 0 0 0 -4.2562,-0.61095 3.0420418,3.0420418 0 0 0 -1.1398,1.74562 3.0420418,3.0420418 0 0 0 0.5265,2.51207 l 5.9202,7.90826 a 538.26404,538.26404 0 0 0 -7.1567,5.99597 l -28.3322,-35.31731 -9.6092,-11.98194 6.7033,-5.37702 -3.9354,-4.90607 -6.7033,5.37699 -9.7697,7.83691 9.6111,11.98232 -9.8296,7.8846 -4.8997,-6.10771 -4.9057,3.93337 8.8331,11.01343 4.9061,-3.93543 9.8293,-7.88254 3.1815,-2.55235 28.4442,35.45944 a 538.26404,538.26404 0 0 0 -51.8902,48.59827 l -84.7489,-20.77397 a 11.068299,35.425098 13.773 0 0 -5.1557,-18.017 l -5.0915,-1.24805 5.4655,-22.2969 -8.2043,-2.01108 -24.0459,-5.89423 -8.2044,-2.0111 -31.1179,-7.62773 5.5478,-22.63277 -12.1652,-2.98199 -4.0506,16.5245 -12.9353,-3.17077 -1.4973,6.10827 15.7638,3.86409 -2.0106,8.20247 40.4547,9.9164 -3.4549,14.09444 -228.334,-55.97012 9.0926,-12.7125 36.8335,9.02876 2.0106,-8.20247 5.5478,-22.63276 -12.1652,-2.982 -5.5479,22.63277 -30.2244,-7.40873 -9e-4,0.004 -14.3841,20.10672 -6.7646,-1.65815 -3.454,-24.4833 -39.326,-9.63973 5.5479,-22.63277 -12.1653,-2.98199 -5.5478,22.63276 2.6558,0.651 -2.0107,8.20246 43.2812,10.60926 2.1828,15.47637 -10.4863,-2.57046 a 46.142372,35.425098 13.773 0 0 -53.2476,23.42026 46.142372,35.425098 13.773 0 0 -0.7254,5.839 l -80.8676,-19.8226 -4.8088,-1.17876 -1.3871,5.65858 -3.467,14.14378 4.8089,1.17876 1.9762,-8.06202 15.5588,3.81385 0.8668,-3.53602 4.1031,1.00578 -2.0803,8.48704 4.8088,1.17876 2.0804,-8.48704 59.5723,14.60259 a 46.142372,35.425098 13.773 0 0 35.9409,30.57048 l 18.9791,4.65223 -4.2667,17.40659 6.1063,1.4968 1.2216,0.29946 -0.1669,0.68103 -20.7282,-5.08096 -15.0316,-3.68461 -2.9819,12.16516 21.026,5.15398 1.4847,-6.05698 14.7337,3.61158 6.1083,1.49729 3.1615,-12.89748 -6.1083,-1.49728 -1.2216,-0.29945 2.7694,-11.29832 29.5263,7.2376 -4.2667,17.40658 6.1081,1.49726 15.9896,3.91942 -0.167,0.68104 -14.9176,-3.65668 -2.982,12.16516 21.0259,5.15396 2.982,-12.16516 1.6642,-6.7893 -6.1083,-1.49729 -15.9895,-3.91941 2.7695,-11.29832 135.2916,33.16322 -4.4337,18.08762 -40.9156,-10.02939 -12.6793,-3.10801 -2.982,12.16515 21.026,5.15396 1.4847,-6.05698 32.569,7.98344 6.1082,1.49728 5.931,-24.19579 52.9803,12.98675 -4.4337,18.08762 -21.0259,-5.15396 -2.982,12.16516 21.026,5.15396 1.4847,-6.05699 6.1082,1.49728 5.931,-24.19579 47.5967,11.6671 a 11.068299,35.425098 13.773 0 0 12.9163,-13.58507 l 65.0716,15.9506 a 538.26404,538.26404 0 0 0 -74.1473,121.0787 l -18.2438,41.7919 -8.2615,33.7033 -54.1295,28.0606 -57.2972,233.7479 25.8371,42.6169 -1.3141,5.3608 -36.7424,-9.0065 10.0164,-40.8625 -3.9494,-0.9681 62.7925,-256.1663 -11.8465,-2.9039 -0.2107,0.8594 -3.8547,-0.9449 -10.8059,44.0836 3.8547,0.9449 -6.6424,27.0982 -3.8547,-0.9449 -10.8055,44.0817 3.8547,0.9448 -6.6424,27.0982 -3.8547,-0.9449 -10.8059,44.0835 3.8546,0.9449 -6.6424,27.0982 -3.8546,-0.9449 -10.806,44.0836 3.8547,0.9449 -2.125,8.6692 -4.5997,18.7647 -3.8547,-0.9448 -15.3857,62.7668 3.8547,0.9448 -21.3431,87.0707 -115.0984,-28.2133 0.9448,-3.8546 -48.0046,-11.7671 -0.9449,3.8546 -22.9077,-5.6153 0.9448,-3.8545 -48.0065,-11.7676 -0.9449,3.8546 -22.9058,-5.6148 0.9449,-3.8546 -48.0066,-11.7675 -0.9448,3.8546 -22.9059,-5.6148 0.9448,-3.8546 -48.0065,-11.7675 -0.9448,3.8545 -1.197,-0.2934 -1.654,6.7476 -35.257,-8.6424 -2.218,9.0486 z m 591.8065,-627.27432 3.4549,-14.09444 24.0459,5.89423 -3.4549,14.09444 -24.0459,-5.89423 z m -161.4964,723.16142 1.654,-6.7476 20.4536,-83.4418 36.7423,9.0064 -22.1076,90.1894 -36.7423,-9.0064 z m 155.9143,-434.6437 0.6243,-0.3236 -0.1102,0.4496 -0.5141,-0.126 z m 44.2518,-32.7944 1.8963,-7.7359 5.3834,-12.3306 12.8576,5.613 5.4124,-12.3999 14.2488,6.2216 -39.7985,20.6318 z"
         id="path4831" />
    </g>
  </g>
  <g
     inkscape:groupmode="layer"
     id="layer1"
     inkscape:label="Label">
    <g
       id="g6068"
       transform="translate(546,-122)">
      <g
         style="font-style:normal;font-variant:normal;font-weight:bold;font-stretch:normal;font-size:125px;line-height:125%;font-family:Overpass;-inkscape-font-specification:'Overpass, Bold';text-align:start;letter-spacing:0px;word-spacing:0px;writing-mode:lr-tb;text-anchor:start;fill:#dddddd;fill-opacity:1;stroke:#222222;stroke-width:0.25;stroke-linecap:butt;stroke-linejoin:miter;stroke-miterlimit:4;stroke-dasharray:none;stroke-opacity:1"
         id="text6055">
        <path
           d="m 571.25909,399.46738 0,-87.52442 37.53663,0 q 8.30078,0 13.97705,2.44141 5.67627,2.38037 9.2163,6.34766 3.54004,3.90625 5.06592,8.85009 1.58692,4.94385 1.58692,10.00977 0,3.17383 -0.73243,6.46972 -0.73242,3.23487 -2.2583,6.34766 -1.52587,3.05176 -3.90625,5.73731 -2.38037,2.68554 -5.7373,4.76074 -3.2959,2.01416 -7.6294,3.17383 -4.27246,1.15966 -9.58251,1.15966 l -20.62989,0 0,32.22657 -16.90674,0 z m 38.26905,-48.27881 q 3.23486,0 5.43213,-1.0376 2.19726,-1.0376 3.54004,-2.68555 1.4038,-1.64795 2.01416,-3.72314 0.61035,-2.0752 0.61035,-4.15039 0,-1.89209 -0.54932,-3.90625 -0.48828,-2.0752 -1.83105,-3.78418 -1.28174,-1.70899 -3.54004,-2.80762 -2.2583,-1.09863 -5.67627,-1.09863 l -21.36231,0 0,23.19336 21.36231,0 z"
           style=""
           id="path6075" />
        <path
           d="m 654.99933,399.46738 0,-87.52442 59.75342,0 0,16.05225 -42.84668,0 0,18.37158 25.20752,0 0,15.99121 -25.20752,0 0,21.11817 45.47119,0 0,15.99121 -62.37793,0 z"
           style=""
           id="path6077" />
        <path
           d="m 735.56573,399.46738 0,-87.52442 40.64942,0 q 8.30078,0 13.85498,2.31934 5.61523,2.2583 9.0332,6.04248 3.41797,3.78418 4.88282,8.72803 1.46484,4.94384 1.46484,10.31494 0,3.72314 -1.09863,7.56836 -1.0376,3.78418 -3.17383,7.20215 -2.13623,3.41796 -5.31006,6.22558 -3.17383,2.74658 -7.38525,4.27246 l 16.96777,34.85108 -18.98193,0 -16.35743,-32.65381 -17.63916,0 0,32.65381 -16.90674,0 z m 40.89356,-48.64502 q 3.23486,0 5.43213,-0.91553 2.19726,-0.97656 3.54004,-2.56348 1.34277,-1.58691 1.89209,-3.66211 0.61035,-2.07519 0.61035,-4.33349 0,-2.0752 -0.54932,-4.08936 -0.48828,-2.07519 -1.77002,-3.66211 -1.28174,-1.64795 -3.54004,-2.62451 -2.19726,-0.97656 -5.61523,-0.97656 l -23.98682,0 0,22.82715 23.98682,0 z"
           style=""
           id="path6079" />
      </g>
      <g
         style="font-style:normal;font-variant:normal;font-weight:normal;font-stretch:normal;font-size:45px;line-height:125%;font-family:Overpass;-inkscape-font-specification:'Overpass, Normal';text-align:start;letter-spacing:0px;word-spacing:0px;writing-mode:lr-tb;text-anchor:start;fill:#222222;fill-opacity:1;stroke:none;stroke-width:1px;stroke-linecap:butt;stroke-linejoin:miter;stroke-opacity:1"
         id="text6059">
        <path
           d="m 634.85162,447.09006 0,-31.50879 12.65625,0 q 2.90039,0 4.87793,0.85693 1.99951,0.83496 3.20801,2.19727 1.23047,1.3623 1.75781,3.09814 0.54932,1.71387 0.54932,3.49365 0,1.09864 -0.26367,2.24122 -0.2417,1.14257 -0.76904,2.21923 -0.52735,1.05469 -1.36231,1.99952 -0.83496,0.94482 -1.99951,1.64794 -1.14258,0.70313 -2.63672,1.12061 -1.49414,0.39551 -3.36182,0.39551 l -7.97607,0 0,12.23877 -4.68018,0 z m 12.91993,-16.74317 q 1.47216,0 2.46093,-0.46142 1.01075,-0.46143 1.62598,-1.18653 0.63721,-0.74707 0.90088,-1.64795 0.28564,-0.92285 0.28564,-1.82373 0,-0.83496 -0.2417,-1.73584 -0.2417,-0.90087 -0.83496,-1.64794 -0.59326,-0.76905 -1.62597,-1.25245 -1.01075,-0.50537 -2.5708,-0.50537 l -8.23975,0 0,10.26123 8.23975,0 z"
           style=""
           id="path6082" />
        <path
           d="m 672.42487,447.63937 q -2.39502,0 -4.32862,-0.81298 -1.93359,-0.83497 -3.2959,-2.37305 -1.3623,-1.56006 -2.10937,-3.80127 -0.7251,-2.24121 -0.7251,-5.07568 0,-2.83448 0.74707,-5.05372 0.74707,-2.24121 2.10938,-3.77929 1.38427,-1.56006 3.2959,-2.37305 1.93359,-0.81299 4.30664,-0.81299 2.04345,0 3.82324,0.65918 1.80176,0.63721 3.14209,1.97754 1.3623,1.31836 2.13135,3.33985 0.79101,2.02148 0.79101,4.76806 0,0.74707 -0.0439,1.58203 -0.022,0.83496 -0.13184,1.4502 l -15.49072,0 q 0.022,1.42822 0.50537,2.5708 0.50537,1.1206 1.31836,1.93359 0.81299,0.79102 1.8457,1.23047 1.03272,0.41748 2.15332,0.41748 1.42822,0 2.63672,-0.59326 1.23047,-0.59326 2.13135,-1.73584 l 3.0542,3.14209 q -1.25244,1.49414 -3.20801,2.41699 -1.95557,0.92285 -4.6582,0.92285 z m 0,-19.95117 q -1.09864,0 -2.10938,0.32959 -1.01074,0.30762 -1.80176,1.01074 -0.76904,0.68116 -1.27441,1.80176 -0.50537,1.12061 -0.59326,2.72461 l 10.98633,0 q -0.0439,-1.604 -0.50538,-2.72461 -0.46142,-1.1206 -1.20849,-1.80176 -0.74707,-0.70312 -1.66992,-1.01074 -0.90088,-0.32959 -1.82373,-0.32959 z"
           style=""
           id="path6084" />
        <path
           d="m 687.71783,447.09006 0,-23.00537 4.68018,0 0,2.79052 q 0.81299,-1.75781 2.10938,-2.52685 1.29638,-0.79102 3.01025,-0.79102 2.28516,0 3.86719,1.38428 l -0.68116,4.32861 q -0.6372,-0.43945 -1.51611,-0.76904 -0.85693,-0.35156 -2.10937,-0.35156 -0.79102,0 -1.62598,0.28564 -0.81299,0.26367 -1.49414,0.9668 -0.68115,0.68115 -1.12061,1.8457 -0.43945,1.14258 -0.43945,2.92237 l 0,12.91992 -4.68018,0 z"
           style=""
           id="path6086" />
        <path
           d="m 712.56891,447.63937 q -1.36231,0 -2.35108,-0.41748 -0.96679,-0.3955 -1.604,-1.14257 -0.61523,-0.74708 -0.90088,-1.80176 -0.28564,-1.07666 -0.28564,-2.37305 l 0,-13.75488 -3.55957,0 0,-4.06494 3.55957,0 0,-7.22901 4.68017,-2.26318 0,9.49219 5.44922,0 0,4.06494 -5.44922,0 0,12.54638 q 0,0.57129 0.0879,1.05469 0.10987,0.4834 0.35157,0.83496 0.26367,0.35157 0.70312,0.54932 0.43945,0.17578 1.12061,0.17578 1.66992,0 3.40576,-1.07666 l -0.57129,4.35059 q -0.9668,0.48339 -2.10938,0.76904 -1.14257,0.28564 -2.52685,0.28564 z"
           style=""
           id="path6088" />
        <path
           d="m 737.17828,447.09006 0,-13.73291 q 0,-1.4502 -0.35156,-2.46094 -0.35156,-1.03272 -0.9668,-1.66992 -0.61523,-0.65918 -1.45019,-0.94483 -0.83496,-0.30761 -1.82373,-0.30761 -1.05469,0 -1.95557,0.28564 -0.90088,0.26367 -1.56006,0.87891 -0.65918,0.61523 -1.05468,1.64795 -0.37354,1.01074 -0.37354,2.48291 l 0,13.8208 -4.68017,0 0,-30.32227 4.68017,-2.17529 0,11.71142 q 1.12061,-1.42822 2.5708,-2.0874 1.4502,-0.65918 3.36182,-0.65918 1.80176,0 3.31787,0.52735 1.51611,0.50537 2.61475,1.66992 1.1206,1.16455 1.73584,3.03222 0.61523,1.86768 0.61523,4.57032 l 0,13.73291 -4.68018,0 z"
           style=""
           id="path6090" />
      </g>
    </g>
  </g>
  <g
     inkscape:groupmode="layer"
     id="layer3"
     inkscape:label="Date">
    <g
       style="font-style:normal;font-variant:normal;font-weight:300;font-stretch:normal;font-size:15px;line-height:125%;font-family:Overpass;-inkscape-font-specification:'Overpass, Light';text-align:start;letter-spacing:0px;word-spacing:0px;writing-mode:lr-tb;text-anchor:start;fill:#222222;fill-opacity:1;stroke:none;stroke-width:1px;stroke-linecap:butt;stroke-linejoin:miter;stroke-opacity:1"
       id="text6064">
      <path
         d="m 1518.8959,1554.0847 0,-8.595 -1.785,0 0,-0.6 q 0.795,0 1.35,-0.27 0.555,-0.285 0.81,-1.035 l 0.675,0 0,10.5 -1.05,0 z"
         style=""
         id="path6093" />
      <path
         d="m 1526.0056,1553.3197 q 0.495,0 0.915,-0.15 0.435,-0.165 0.75,-0.465 0.315,-0.3 0.495,-0.735 0.18,-0.435 0.18,-0.99 0,-0.465 -0.165,-0.885 -0.165,-0.42 -0.48,-0.735 -0.3,-0.33 -0.735,-0.51 -0.435,-0.195 -0.96,-0.195 -0.525,0 -0.96,0.195 -0.435,0.18 -0.75,0.51 -0.3,0.315 -0.465,0.735 -0.165,0.42 -0.165,0.885 0,0.555 0.18,0.99 0.18,0.435 0.495,0.735 0.315,0.3 0.735,0.465 0.435,0.15 0.93,0.15 z m 0,-9.915 q 0.63,0 1.17,0.225 0.555,0.21 0.945,0.585 0.39,0.375 0.615,0.87 0.225,0.495 0.225,1.035 0,0.675 -0.345,1.275 -0.33,0.585 -1.05,0.885 0.84,0.315 1.35,1.095 0.525,0.765 0.525,1.755 0,0.66 -0.255,1.245 -0.255,0.57 -0.72,0.99 -0.465,0.42 -1.095,0.66 -0.63,0.24 -1.365,0.24 -0.75,0 -1.38,-0.24 -0.615,-0.24 -1.08,-0.66 -0.465,-0.42 -0.72,-0.99 -0.255,-0.585 -0.255,-1.245 0,-0.495 0.135,-0.945 0.135,-0.45 0.375,-0.81 0.255,-0.375 0.6,-0.66 0.345,-0.285 0.75,-0.435 -0.675,-0.3 -1.035,-0.885 -0.345,-0.6 -0.345,-1.275 0,-0.54 0.225,-1.035 0.225,-0.495 0.615,-0.87 0.39,-0.375 0.93,-0.585 0.555,-0.225 1.185,-0.225 z m 0,4.56 q 0.87,0 1.38,-0.48 0.51,-0.48 0.51,-1.23 0,-0.885 -0.54,-1.395 -0.54,-0.51 -1.35,-0.51 -0.81,0 -1.35,0.51 -0.54,0.51 -0.54,1.395 0,0.75 0.51,1.23 0.51,0.48 1.38,0.48 z"
         style=""
         id="path6095" />
      <path
         d="m 1543.3475,1554.0847 0,-7.77 -3.51,7.95 -3.27,-7.905 0,7.725 -1.05,0 0,-10.5 0.9,0 3.51,8.175 3.555,-8.175 0.915,0 0,10.5 -1.05,0 z"
         style=""
         id="path6097" />
      <path
         d="m 1551.7435,1554.0847 0,-0.75 q -0.465,0.42 -1.05,0.675 -0.57,0.255 -1.2,0.255 -1.155,0 -1.89,-0.645 -0.72,-0.66 -0.72,-1.95 0,-0.66 0.225,-1.14 0.24,-0.48 0.615,-0.78 0.39,-0.315 0.9,-0.465 0.51,-0.15 1.05,-0.15 0.48,0 0.99,0.12 0.51,0.12 1.08,0.42 l 0,-0.645 q 0,-0.585 -0.15,-0.945 -0.135,-0.36 -0.375,-0.57 -0.225,-0.21 -0.54,-0.285 -0.3,-0.075 -0.615,-0.075 -0.285,0 -0.6,0.075 -0.315,0.075 -0.615,0.195 -0.3,0.12 -0.585,0.27 -0.27,0.135 -0.48,0.285 l -0.3,-0.9 q 0.465,-0.3 1.17,-0.57 0.72,-0.27 1.515,-0.27 0.405,0 0.855,0.12 0.45,0.105 0.825,0.405 0.375,0.285 0.615,0.81 0.255,0.51 0.255,1.32 l 0,5.19 -0.975,0 z m -2.145,-0.735 q 0.345,0 0.66,-0.105 0.315,-0.105 0.585,-0.27 0.27,-0.165 0.495,-0.375 0.225,-0.225 0.405,-0.435 l 0,-1.485 q -0.375,-0.255 -0.93,-0.435 -0.54,-0.195 -1.035,-0.195 -0.39,0 -0.735,0.105 -0.345,0.09 -0.615,0.3 -0.255,0.195 -0.42,0.495 -0.15,0.3 -0.15,0.72 0,0.765 0.45,1.23 0.45,0.45 1.29,0.45 z"
         style=""
         id="path6099" />
      <path
         d="m 1555.1265,1554.0847 0,-7.665 1.05,0 0,1.08 q 0.42,-0.63 0.975,-0.945 0.555,-0.315 1.08,-0.315 0.57,0 0.96,0.315 l -0.165,1.02 q -0.15,-0.09 -0.39,-0.18 -0.225,-0.105 -0.6,-0.105 -0.255,0 -0.585,0.12 -0.315,0.12 -0.6,0.405 -0.285,0.285 -0.48,0.765 -0.195,0.465 -0.195,1.17 l 0,4.335 -1.05,0 z"
         style=""
         id="path6101" />
      <path
         d="m 1564.0993,1554.0847 q 0,-0.99 0.285,-1.695 0.285,-0.72 0.735,-1.26 0.45,-0.54 1.02,-0.945 0.57,-0.405 1.14,-0.795 0.495,-0.33 0.945,-0.645 0.45,-0.33 0.795,-0.69 0.36,-0.36 0.57,-0.765 0.21,-0.42 0.21,-0.93 0,-0.855 -0.6,-1.425 -0.585,-0.585 -1.68,-0.585 -1.065,0 -1.605,0.48 -0.54,0.465 -0.735,1.215 l -0.93,-0.42 q 0.12,-0.465 0.405,-0.87 0.285,-0.405 0.72,-0.705 0.435,-0.3 0.99,-0.465 0.57,-0.18 1.245,-0.18 1.56,0 2.415,0.81 0.87,0.795 0.87,2.145 0,0.72 -0.285,1.275 -0.27,0.555 -0.72,1.02 -0.435,0.45 -0.99,0.84 -0.555,0.375 -1.125,0.735 -0.45,0.3 -0.87,0.6 -0.42,0.285 -0.78,0.63 -0.345,0.33 -0.585,0.735 -0.24,0.39 -0.33,0.885 l 5.775,0 0,1.005 -6.885,0 z"
         style=""
         id="path6103" />
      <path
         d="m 1576.6784,1554.2647 q -1.035,0 -1.725,-0.48 -0.69,-0.48 -1.11,-1.245 -0.405,-0.78 -0.585,-1.74 -0.18,-0.975 -0.18,-1.965 0,-0.54 0.06,-1.155 0.06,-0.63 0.21,-1.23 0.165,-0.6 0.42,-1.155 0.27,-0.555 0.675,-0.975 0.405,-0.42 0.945,-0.66 0.555,-0.255 1.29,-0.255 1.035,0 1.725,0.495 0.69,0.48 1.095,1.26 0.42,0.78 0.6,1.755 0.18,0.96 0.18,1.92 0,0.555 -0.075,1.17 -0.06,0.615 -0.225,1.23 -0.15,0.6 -0.42,1.155 -0.255,0.54 -0.66,0.96 -0.405,0.42 -0.96,0.675 -0.54,0.24 -1.26,0.24 z m 0,-0.945 q 0.78,0 1.26,-0.42 0.495,-0.435 0.765,-1.095 0.27,-0.66 0.36,-1.455 0.09,-0.795 0.09,-1.515 0,-0.81 -0.105,-1.605 -0.105,-0.81 -0.39,-1.44 -0.285,-0.645 -0.765,-1.035 -0.48,-0.405 -1.215,-0.405 -0.795,0 -1.29,0.435 -0.48,0.435 -0.75,1.095 -0.27,0.66 -0.375,1.455 -0.09,0.78 -0.09,1.5 0,0.825 0.105,1.635 0.105,0.795 0.39,1.44 0.285,0.63 0.765,1.02 0.495,0.39 1.245,0.39 z"
         style=""
         id="path6105" />
      <path
         d="m 1583.7006,1554.0847 0,-8.595 -1.785,0 0,-0.6 q 0.795,0 1.35,-0.27 0.555,-0.285 0.81,-1.035 l 0.675,0 0,10.5 -1.05,0 z"
         style=""
         id="path6107" />
      <path
         d="m 1590.8103,1553.3197 q 0.495,0 0.915,-0.15 0.435,-0.165 0.75,-0.465 0.315,-0.3 0.495,-0.735 0.18,-0.435 0.18,-0.99 0,-0.465 -0.165,-0.885 -0.165,-0.42 -0.48,-0.735 -0.3,-0.33 -0.735,-0.51 -0.435,-0.195 -0.96,-0.195 -0.525,0 -0.96,0.195 -0.435,0.18 -0.75,0.51 -0.3,0.315 -0.465,0.735 -0.165,0.42 -0.165,0.885 0,0.555 0.18,0.99 0.18,0.435 0.495,0.735 0.315,0.3 0.735,0.465 0.435,0.15 0.93,0.15 z m 0,-9.915 q 0.63,0 1.17,0.225 0.555,0.21 0.945,0.585 0.39,0.375 0.615,0.87 0.225,0.495 0.225,1.035 0,0.675 -0.345,1.275 -0.33,0.585 -1.05,0.885 0.84,0.315 1.35,1.095 0.525,0.765 0.525,1.755 0,0.66 -0.255,1.245 -0.255,0.57 -0.72,0.99 -0.465,0.42 -1.095,0.66 -0.63,0.24 -1.365,0.24 -0.75,0 -1.38,-0.24 -0.615,-0.24 -1.08,-0.66 -0.465,-0.42 -0.72,-0.99 -0.255,-0.585 -0.255,-1.245 0,-0.495 0.135,-0.945 0.135,-0.45 0.375,-0.81 0.255,-0.375 0.6,-0.66 0.345,-0.285 0.75,-0.435 -0.675,-0.3 -1.035,-0.885 -0.345,-0.6 -0.345,-1.275 0,-0.54 0.225,-1.035 0.225,-0.495 0.615,-0.87 0.39,-0.375 0.93,-0.585 0.555,-0.225 1.185,-0.225 z m 0,4.56 q 0.87,0 1.38,-0.48 0.51,-0.48 0.51,-1.23 0,-0.885 -0.54,-1.395 -0.54,-0.51 -1.35,-0.51 -0.81,0 -1.35,0.51 -0.54,0.51 -0.54,1.395 0,0.75 0.51,1.23 0.51,0.48 1.38,0.48 z"
         style=""
         id="path6109" />
    </g>
  </g>
</svg>
