<?xml version="1.0" encoding="UTF-8" standalone="no"?>
<!-- Created with Inkscape (http://www.inkscape.org/) -->

<svg
   xmlns:dc="http://purl.org/dc/elements/1.1/"
   xmlns:cc="http://creativecommons.org/ns#"
   xmlns:rdf="http://www.w3.org/1999/02/22-rdf-syntax-ns#"
   xmlns:svg="http://www.w3.org/2000/svg"
   xmlns="http://www.w3.org/2000/svg"
   xmlns:sodipodi="http://sodipodi.sourceforge.net/DTD/sodipodi-0.dtd"
   xmlns:inkscape="http://www.inkscape.org/namespaces/inkscape"
   width="624.03558"
   height="325.47467"
   viewBox="0 0 624.03558 325.47469"
   id="svg5265"
   version="1.1"
   inkscape:version="0.92.4 (5da689c313, 2019-01-14)"
   sodipodi:docname="PHF.svg"
   inkscape:export-filename="C:\Users\paulb\Dropbox\Projects\Terminal Silhouettes\Silhouettes\png\PHF.png"
   inkscape:export-xdpi="90"
   inkscape:export-ydpi="90">
  <sodipodi:namedview
     id="base"
     pagecolor="#ffffff"
     bordercolor="#666666"
     borderopacity="1.0"
     inkscape:pageopacity="1"
     inkscape:pageshadow="2"
     inkscape:zoom="1"
     inkscape:cx="-12.42792"
     inkscape:cy="193.89126"
     inkscape:document-units="px"
     inkscape:current-layer="layer12"
     showgrid="false"
     inkscape:window-width="1920"
     inkscape:window-height="1137"
     inkscape:window-x="1912"
     inkscape:window-y="-8"
     inkscape:window-maximized="1"
     units="px"
     fit-margin-top="25"
     fit-margin-left="25"
     fit-margin-right="25"
     fit-margin-bottom="25"
     showguides="true"
     inkscape:guide-bbox="true"
     inkscape:object-nodes="true" />
  <defs
     id="defs5267" />
  <metadata
     id="metadata5270">
    <rdf:RDF>
      <cc:Work
         rdf:about="">
        <dc:format>image/svg+xml</dc:format>
        <dc:type
           rdf:resource="http://purl.org/dc/dcmitype/StillImage" />
        <dc:title />
        <dc:description>Terminal silhouette of PHF (Newport News/Williamsburg)</dc:description>
      </cc:Work>
    </rdf:RDF>
  </metadata>
  <g
     style="display:inline"
     inkscape:label="Terminal"
     id="layer5"
     inkscape:groupmode="layer"
     transform="translate(-455.21265,-351.422)">
    <path
       id="rect6575"
       d="m 911.06685,377.01184 a 87.826798,87.826798 0 0 1 -103.63764,65.15313 l -2.27455,10.60975 a 98.699012,98.699012 0 0 1 -0.57911,-0.0993 98.699012,98.699012 0 0 1 -0.62468,-0.17062 l -3.18992,14.02216 a 113.06053,113.06053 0 0 0 0.72399,0.18667 113.06053,113.06053 0 0 0 59.72897,-3.20682 l -5.21994,23.71006 -2.96365,-0.65247 -2.50668,11.38589 9.98232,2.19768 -7.79488,35.406 1.6134,0.3552 -0.24562,1.11569 10.0915,2.22171 c 0,0 3.34934,2.64535 7.66523,1.68756 l 4.41157,0.97124 2.53674,0.55848 2.97772,0.65556 0.24563,-1.11568 1.5861,0.34919 8.20689,-37.27742 1.40399,0.3091 1.78558,-8.11048 20.80099,4.57948 -1.53547,6.097 a 37.875884,37.875884 0 0 0 1.0958,0.29937 37.875884,37.875884 0 0 0 32.64563,-8.1691 l 4.09097,4.81194 a 44.199967,44.199967 0 0 0 13.10332,-19.1462 l 0.66063,0.14544 5.92687,1.30484 39.92885,8.79062 2.6097,-11.85374 -1.0137,-0.22319 1.4937,-6.78496 1.0138,0.22319 2.6612,-12.08789 -45.85575,-10.09547 -2.47241,11.23023 -51.15868,-11.26295 3.39952,-15.44134 -16.53315,-3.63989 a 113.06053,113.06053 0 0 0 13.54009,-16.40377 l -8.5356,-5.77525 a 102.83867,102.83867 0 0 0 14.81842,-33.31821 l -14.60769,-3.54241 z"
       style="opacity:1;fill:#dddddd;fill-opacity:1;stroke:#222222;stroke-width:1.5;stroke-linejoin:miter;stroke-miterlimit:4;stroke-dasharray:none;stroke-dashoffset:0;stroke-opacity:1"
       inkscape:connector-curvature="0" />
  </g>
  <g
     inkscape:groupmode="layer"
     id="layer12"
     inkscape:label="Label"
     transform="translate(-455.21265,-351.422)">
    <g
       id="g7132"
       transform="translate(5e-5,-12.936757)">
      <g
         transform="translate(-329.54292,8.056965)"
         id="text6726"
         style="font-style:normal;font-variant:normal;font-weight:bold;font-stretch:normal;font-size:125px;line-height:125%;font-family:Overpass;-inkscape-font-specification:'Overpass, Bold';text-align:start;letter-spacing:0px;word-spacing:0px;writing-mode:lr-tb;text-anchor:start;fill:#dddddd;fill-opacity:1;stroke:#222222;stroke-width:0.25;stroke-linecap:butt;stroke-linejoin:miter;stroke-miterlimit:4;stroke-dasharray:none;stroke-opacity:1">
        <path
           inkscape:connector-curvature="0"
           id="path7077"
           d="m 809.88049,582.091 0,-87.52441 37.53662,0 q 8.30079,0 13.97706,2.44141 5.67626,2.38037 9.2163,6.34765 3.54004,3.90625 5.06592,8.8501 1.58692,4.94385 1.58692,10.00977 0,3.17382 -0.73243,6.46972 -0.73242,3.23486 -2.2583,6.34766 -1.52588,3.05176 -3.90625,5.7373 -2.38037,2.68555 -5.7373,4.76074 -3.2959,2.01416 -7.6294,3.17383 -4.27246,1.15967 -9.58252,1.15967 l -20.62988,0 0,32.22656 -16.90674,0 z m 38.26905,-48.27881 q 3.23486,0 5.43213,-1.03759 2.19726,-1.0376 3.54003,-2.68555 1.40381,-1.64795 2.01416,-3.72314 0.61036,-2.0752 0.61036,-4.15039 0,-1.89209 -0.54932,-3.90625 -0.48828,-2.0752 -1.83106,-3.78418 -1.28173,-1.70899 -3.54003,-2.80762 -2.25831,-1.09863 -5.67627,-1.09863 l -21.36231,0 0,23.19335 21.36231,0 z" />
        <path
           inkscape:connector-curvature="0"
           id="path7079"
           d="m 947.14856,582.091 0,-36.9873 -36.62109,0 0,36.9873 -16.90674,0 0,-87.52441 16.90674,0 0,34.5459 36.62109,0 0,-34.5459 16.8457,0 0,87.52441 -16.8457,0 z" />
        <path
           inkscape:connector-curvature="0"
           id="path7081"
           d="m 986.63831,582.091 0,-87.52441 58.65479,0 0,16.05225 -41.7481,0 0,18.37158 26.4893,0 0,15.99121 -26.4893,0 0,37.10937 -16.90669,0 z" />
      </g>
      <g
         transform="translate(8.83012,8.056935)"
         id="text6730"
         style="font-style:normal;font-variant:normal;font-weight:normal;font-stretch:normal;font-size:45px;line-height:125%;font-family:Overpass;-inkscape-font-specification:'Overpass, Normal';text-align:start;letter-spacing:0px;word-spacing:0px;writing-mode:lr-tb;text-anchor:start;fill:#222222;fill-opacity:1;stroke:none;stroke-width:1px;stroke-linecap:butt;stroke-linejoin:miter;stroke-opacity:1">
        <path
           inkscape:connector-curvature="0"
           id="path7084"
           d="m 490.82825,629.71368 -13.62305,-21.37939 -1.27441,-2.3291 0.13183,2.3291 0,21.37939 -4.68017,0 0,-31.50878 4.72412,0 13.29345,21.02783 1.29639,2.41699 -0.13183,-2.37305 0,-21.07177 4.68017,0 0,31.50878 -4.4165,0 z" />
        <path
           inkscape:connector-curvature="0"
           id="path7086"
           d="m 512.03186,630.263 q -2.39502,0 -4.32861,-0.81299 -1.9336,-0.83496 -3.2959,-2.37304 -1.36231,-1.56006 -2.10938,-3.80127 -0.72509,-2.24122 -0.72509,-5.07569 0,-2.83447 0.74707,-5.05371 0.74707,-2.24121 2.10937,-3.7793 1.38428,-1.56005 3.2959,-2.37304 1.93359,-0.81299 4.30664,-0.81299 2.04346,0 3.82324,0.65918 1.80176,0.63721 3.14209,1.97754 1.36231,1.31836 2.13135,3.33984 0.79102,2.02149 0.79102,4.76807 0,0.74707 -0.0439,1.58203 -0.022,0.83496 -0.13184,1.45019 l -15.49072,0 q 0.022,1.42823 0.50537,2.57081 0.50537,1.1206 1.31836,1.93359 0.81299,0.79101 1.84571,1.23047 1.03271,0.41748 2.15332,0.41748 1.42822,0 2.63671,-0.59326 1.23047,-0.59326 2.13135,-1.73584 l 3.0542,3.14209 q -1.25244,1.49414 -3.20801,2.41699 -1.95556,0.92285 -4.6582,0.92285 z m 0,-19.95117 q -1.09863,0 -2.10937,0.32959 -1.01075,0.30762 -1.80176,1.01074 -0.76905,0.68115 -1.27442,1.80176 -0.50537,1.1206 -0.59326,2.72461 l 10.98633,0 q -0.0439,-1.60401 -0.50537,-2.72461 -0.46143,-1.12061 -1.2085,-1.80176 -0.74707,-0.70312 -1.66992,-1.01074 -0.90088,-0.32959 -1.82373,-0.32959 z" />
        <path
           inkscape:connector-curvature="0"
           id="path7088"
           d="m 548.92395,629.71368 -4.15283,0 -3.82324,-13.35937 q -0.10987,-0.39551 -0.2417,-0.81299 -0.10987,-0.41748 -0.21973,-0.79101 -0.0879,-0.39551 -0.17578,-0.7251 -0.0659,-0.32959 -0.0879,-0.54932 -0.0439,0.21973 -0.10986,0.57129 -0.0439,0.32959 -0.13184,0.7251 -0.0879,0.39551 -0.19775,0.81299 -0.10987,0.41748 -0.21973,0.81298 l -3.7793,13.31543 -4.15283,0 -6.1084,-23.00537 4.59229,0 3.22998,14.32617 q 0.17578,0.74708 0.26367,1.31836 0.10986,0.54932 0.19775,1.01075 0.0659,-0.46143 0.17578,-1.05469 0.13184,-0.59326 0.30762,-1.27442 l 3.82324,-14.32617 4.32862,0 3.82324,14.32617 q 0.17578,0.68116 0.28564,1.27442 0.13184,0.59326 0.19776,1.05469 0.0659,-0.46143 0.17578,-1.01075 0.10986,-0.57128 0.28564,-1.31836 l 3.22998,-14.32617 4.59229,0 -6.1084,23.00537 z" />
        <path
           inkscape:connector-curvature="0"
           id="path7090"
           d="m 570.21545,630.263 q -1.01074,0 -1.8457,-0.19775 -0.81299,-0.19776 -1.49414,-0.54932 -0.68115,-0.35156 -1.23047,-0.79102 -0.52734,-0.46142 -0.94482,-0.98876 l 0,8.85498 -4.68018,2.17529 0,-32.05811 4.68018,0 0,1.84571 q 0.90088,-1.01075 2.21924,-1.6919 1.31836,-0.68115 3.29589,-0.68115 2.1753,0 3.93311,0.83496 1.75781,0.81299 2.98828,2.37305 1.23047,1.53808 1.88965,3.77929 0.65918,2.24121 0.65918,5.07569 0,2.83447 -0.70313,5.07568 -0.68115,2.21924 -1.93359,3.7793 -1.23047,1.53808 -2.98828,2.35107 -1.73584,0.81299 -3.84522,0.81299 z m -0.65918,-4.4165 q 2.6587,0 4.04297,-1.95557 1.40625,-1.95557 1.40625,-5.64697 0,-1.66992 -0.37353,-3.07617 -0.35156,-1.40625 -1.05469,-2.417 -0.70312,-1.01074 -1.71387,-1.58203 -1.01074,-0.57129 -2.30713,-0.57129 -1.64794,0 -2.87841,0.68116 -1.2085,0.65918 -1.97754,1.91162 l 0,9.99756 q 0.39551,0.52734 0.8789,1.01074 0.50537,0.4834 1.09864,0.85693 0.61523,0.35156 1.31836,0.57129 0.72509,0.21973 1.56005,0.21973 z" />
        <path
           inkscape:connector-curvature="0"
           id="path7092"
           d="m 594.69299,630.263 q -2.41699,0 -4.37256,-0.81299 -1.93359,-0.81299 -3.29589,-2.35107 -1.36231,-1.56006 -2.10938,-3.7793 -0.7251,-2.24121 -0.7251,-5.07568 0,-2.83448 0.7251,-5.07569 0.74707,-2.24121 2.10938,-3.77929 1.3623,-1.56006 3.29589,-2.37305 1.95557,-0.83496 4.37256,-0.83496 2.39502,0 4.35059,0.83496 1.95557,0.81299 3.31787,2.37305 1.3623,1.53808 2.10938,3.77929 0.74707,2.24121 0.74707,5.07569 0,2.83447 -0.74707,5.07568 -0.74708,2.21924 -2.10938,3.7793 -1.3623,1.53808 -3.31787,2.35107 -1.95557,0.81299 -4.35059,0.81299 z m 0,-4.4165 q 1.34034,0 2.417,-0.52735 1.09863,-0.52734 1.8457,-1.49414 0.76904,-0.98877 1.16455,-2.39502 0.41748,-1.40625 0.41748,-3.18603 0,-1.77979 -0.41748,-3.18604 -0.39551,-1.42822 -1.16455,-2.41699 -0.74707,-0.98877 -1.8457,-1.51611 -1.07666,-0.52735 -2.417,-0.52735 -1.34033,0 -2.41699,0.52735 -1.07666,0.52734 -1.8457,1.51611 -0.74707,0.98877 -1.16455,2.41699 -0.39551,1.40625 -0.39551,3.18604 0,1.77978 0.39551,3.18603 0.41748,1.40625 1.16455,2.39502 0.76904,0.9668 1.8457,1.49414 1.07666,0.52735 2.41699,0.52735 z" />
        <path
           inkscape:connector-curvature="0"
           id="path7094"
           d="m 610.82092,629.71368 0,-23.00537 4.68018,0 0,2.79053 q 0.81299,-1.75781 2.10937,-2.52686 1.29639,-0.79101 3.01026,-0.79101 2.28515,0 3.86719,1.38428 l -0.68116,4.32861 q -0.6372,-0.43945 -1.51611,-0.76904 -0.85693,-0.35157 -2.10938,-0.35157 -0.79101,0 -1.62597,0.28565 -0.81299,0.26367 -1.49414,0.9668 -0.68116,0.68115 -1.12061,1.8457 -0.43945,1.14258 -0.43945,2.92236 l 0,12.91992 -4.68018,0 z" />
        <path
           inkscape:connector-curvature="0"
           id="path7096"
           d="m 635.672,630.263 q -1.36231,0 -2.35108,-0.41748 -0.96679,-0.39551 -1.604,-1.14258 -0.61524,-0.74707 -0.90088,-1.80176 -0.28564,-1.07666 -0.28564,-2.37304 l 0,-13.75489 -3.55957,0 0,-4.06494 3.55957,0 0,-7.229 4.68017,-2.26318 0,9.49218 5.44922,0 0,4.06494 -5.44922,0 0,12.54639 q 0,0.57129 0.0879,1.05469 0.10987,0.4834 0.35156,0.83496 0.26368,0.35156 0.70313,0.54932 0.43945,0.17578 1.1206,0.17578 1.66993,0 3.40577,-1.07666 l -0.57129,4.35058 q -0.9668,0.4834 -2.10938,0.76905 -1.14258,0.28564 -2.52685,0.28564 z" />
        <path
           inkscape:connector-curvature="0"
           id="path7098"
           d="m 676.54114,629.71368 -13.62305,-21.37939 -1.27441,-2.3291 0.13183,2.3291 0,21.37939 -4.68017,0 0,-31.50878 4.72412,0 13.29346,21.02783 1.29638,2.41699 -0.13183,-2.37305 0,-21.07177 4.68017,0 0,31.50878 -4.4165,0 z" />
        <path
           inkscape:connector-curvature="0"
           id="path7100"
           d="m 697.74475,630.263 q -2.39502,0 -4.32861,-0.81299 -1.9336,-0.83496 -3.2959,-2.37304 -1.36231,-1.56006 -2.10938,-3.80127 -0.72509,-2.24122 -0.72509,-5.07569 0,-2.83447 0.74707,-5.05371 0.74707,-2.24121 2.10937,-3.7793 1.38428,-1.56005 3.2959,-2.37304 1.93359,-0.81299 4.30664,-0.81299 2.04346,0 3.82324,0.65918 1.80176,0.63721 3.14209,1.97754 1.36231,1.31836 2.13135,3.33984 0.79102,2.02149 0.79102,4.76807 0,0.74707 -0.0439,1.58203 -0.022,0.83496 -0.13183,1.45019 l -15.49073,0 q 0.022,1.42823 0.50537,2.57081 0.50537,1.1206 1.31836,1.93359 0.81299,0.79101 1.84571,1.23047 1.03271,0.41748 2.15332,0.41748 1.42822,0 2.63672,-0.59326 1.23046,-0.59326 2.13134,-1.73584 l 3.0542,3.14209 q -1.25244,1.49414 -3.20801,2.41699 -1.95556,0.92285 -4.6582,0.92285 z m 0,-19.95117 q -1.09863,0 -2.10937,0.32959 -1.01075,0.30762 -1.80176,1.01074 -0.76904,0.68115 -1.27442,1.80176 -0.50537,1.1206 -0.59326,2.72461 l 10.98633,0 q -0.0439,-1.60401 -0.50537,-2.72461 -0.46143,-1.12061 -1.2085,-1.80176 -0.74707,-0.70312 -1.66992,-1.01074 -0.90088,-0.32959 -1.82373,-0.32959 z" />
        <path
           inkscape:connector-curvature="0"
           id="path7102"
           d="m 734.63684,629.71368 -4.15283,0 -3.82324,-13.35937 q -0.10987,-0.39551 -0.2417,-0.81299 -0.10987,-0.41748 -0.21973,-0.79101 -0.0879,-0.39551 -0.17578,-0.7251 -0.0659,-0.32959 -0.0879,-0.54932 -0.0439,0.21973 -0.10986,0.57129 -0.0439,0.32959 -0.13184,0.7251 -0.0879,0.39551 -0.19775,0.81299 -0.10987,0.41748 -0.21973,0.81298 l -3.7793,13.31543 -4.15283,0 -6.1084,-23.00537 4.59229,0 3.22998,14.32617 q 0.17578,0.74708 0.26367,1.31836 0.10986,0.54932 0.19775,1.01075 0.0659,-0.46143 0.17578,-1.05469 0.13184,-0.59326 0.30762,-1.27442 l 3.82324,-14.32617 4.32862,0 3.82324,14.32617 q 0.17578,0.68116 0.28564,1.27442 0.13184,0.59326 0.19776,1.05469 0.0659,-0.46143 0.17578,-1.01075 0.10986,-0.57128 0.28564,-1.31836 l 3.22998,-14.32617 4.59229,0 -6.1084,23.00537 z" />
        <path
           inkscape:connector-curvature="0"
           id="path7104"
           d="m 752.8302,630.263 q -1.3623,0 -2.65869,-0.26367 -1.29639,-0.26367 -2.43897,-0.74707 -1.1206,-0.4834 -2.04345,-1.16455 -0.92285,-0.70313 -1.53809,-1.56006 l 3.31787,-2.83447 q 0.35156,0.32959 0.85694,0.74707 0.50537,0.3955 1.16455,0.74707 0.65918,0.35156 1.47216,0.59326 0.81299,0.2417 1.77979,0.2417 0.87891,0 1.62598,-0.13184 0.74707,-0.13183 1.27441,-0.41748 0.54932,-0.28564 0.83496,-0.74707 0.30762,-0.4834 0.30762,-1.18652 0,-0.81299 -0.57129,-1.38428 -0.54932,-0.59326 -1.4502,-1.05469 -0.90087,-0.4834 -2.04345,-0.90088 -1.14258,-0.43945 -2.30713,-0.92285 -1.07666,-0.46142 -2.10938,-1.01074 -1.03271,-0.54932 -1.8457,-1.31836 -0.79102,-0.76904 -1.29639,-1.82373 -0.4834,-1.07666 -0.4834,-2.59277 0,-1.53809 0.61524,-2.72461 0.63721,-1.18653 1.71387,-1.97754 1.09863,-0.81299 2.54882,-1.23047 1.47217,-0.41748 3.14209,-0.41748 1.47217,0 2.70264,0.28564 1.25244,0.28565 2.24121,0.76905 1.01074,0.4834 1.77979,1.1206 0.76904,0.61524 1.34033,1.29639 l -3.38379,2.68066 q -0.30762,-0.30761 -0.74707,-0.6372 -0.41748,-0.35157 -0.98877,-0.63721 -0.57129,-0.28565 -1.29639,-0.46143 -0.72509,-0.19775 -1.64795,-0.19775 -1.49414,0 -2.37304,0.54932 -0.85694,0.54931 -0.85694,1.58203 0,0.65918 0.46143,1.16455 0.46143,0.4834 1.25244,0.90088 0.79102,0.41748 1.80176,0.81298 1.03271,0.37354 2.15332,0.81299 1.18652,0.46143 2.3291,1.03272 1.14258,0.57129 2.02149,1.40625 0.90087,0.83496 1.42822,2.02148 0.54931,1.18653 0.54931,2.85645 0,1.64795 -0.61523,2.92236 -0.61523,1.25244 -1.75781,2.10938 -1.12061,0.83496 -2.72461,1.25244 -1.58203,0.43945 -3.5376,0.43945 z" />
        <path
           inkscape:connector-curvature="0"
           id="path7106"
           d="m 763.02551,635.55841 17.68799,-37.88086 4.72412,0 -17.68799,37.88086 -4.72412,0 z" />
        <path
           inkscape:connector-curvature="0"
           id="path7108"
           d="m 822.26379,598.2049 -6.81152,31.50878 -4.21875,0 -5.44922,-20.43457 q -0.32959,-1.25244 -0.52734,-2.02148 -0.17578,-0.79102 -0.2417,-1.38428 -0.0659,0.59326 -0.2417,1.38428 -0.17578,0.76904 -0.50537,2.02148 l -5.31738,20.43457 -4.24073,0 -6.7456,-31.50878 4.81201,0 3.91113,19.40185 q 0.28565,1.36231 0.43946,2.19727 0.17578,0.83496 0.24169,1.45019 0.0659,-0.61523 0.26368,-1.42822 0.21972,-0.83496 0.54931,-2.21924 l 4.94385,-19.40185 3.93311,0 5.07568,19.35791 q 0.37353,1.3623 0.54932,2.17529 0.19775,0.81299 0.26367,1.42822 0.0659,-0.61523 0.19775,-1.45019 0.15381,-0.83497 0.41748,-2.15332 l 3.97705,-19.35791 4.72412,0 z" />
        <path
           inkscape:connector-curvature="0"
           id="path7110"
           d="m 827.69104,629.71368 0,-23.00537 4.68018,0 0,23.00537 -4.68018,0 z m 2.3291,-26.58691 q -0.59326,0 -1.1206,-0.21973 -0.50537,-0.21972 -0.90088,-0.59326 -0.37354,-0.39551 -0.59326,-0.90088 -0.21973,-0.52734 -0.21973,-1.1206 0,-0.59326 0.21973,-1.09864 0.21972,-0.52734 0.59326,-0.90087 0.39551,-0.39551 0.90088,-0.61524 0.52734,-0.21973 1.1206,-0.21973 0.59326,0 1.09863,0.21973 0.52735,0.21973 0.90088,0.61524 0.39551,0.37353 0.61524,0.90087 0.21972,0.50538 0.21972,1.09864 0,0.59326 -0.21972,1.1206 -0.21973,0.50537 -0.61524,0.90088 -0.37353,0.37354 -0.90088,0.59326 -0.50537,0.21973 -1.09863,0.21973 z" />
        <path
           inkscape:connector-curvature="0"
           id="path7112"
           d="m 839.38049,629.71368 0,-30.27832 4.68018,-2.21923 0,32.49755 -4.68018,0 z" />
        <path
           inkscape:connector-curvature="0"
           id="path7114"
           d="m 851.24573,629.71368 0,-30.27832 4.68017,-2.21923 0,32.49755 -4.68017,0 z" />
        <path
           inkscape:connector-curvature="0"
           id="path7116"
           d="m 862.93518,629.71368 0,-23.00537 4.68018,0 0,23.00537 -4.68018,0 z m 2.3291,-26.58691 q -0.59326,0 -1.1206,-0.21973 -0.50537,-0.21972 -0.90088,-0.59326 -0.37354,-0.39551 -0.59326,-0.90088 -0.21973,-0.52734 -0.21973,-1.1206 0,-0.59326 0.21973,-1.09864 0.21972,-0.52734 0.59326,-0.90087 0.39551,-0.39551 0.90088,-0.61524 0.52734,-0.21973 1.1206,-0.21973 0.59326,0 1.09864,0.21973 0.52734,0.21973 0.90087,0.61524 0.39551,0.37353 0.61524,0.90087 0.21972,0.50538 0.21972,1.09864 0,0.59326 -0.21972,1.1206 -0.21973,0.50537 -0.61524,0.90088 -0.37353,0.37354 -0.90087,0.59326 -0.50538,0.21973 -1.09864,0.21973 z" />
        <path
           inkscape:connector-curvature="0"
           id="path7118"
           d="m 892.02698,629.71368 -4.48242,0 0,-1.97753 q -0.43946,0.46142 -1.05469,0.92285 -0.61524,0.43945 -1.40625,0.81298 -0.76904,0.35157 -1.73584,0.57129 -0.9668,0.21973 -2.10938,0.21973 -1.75781,0 -3.25195,-0.4834 -1.49414,-0.4834 -2.59277,-1.45019 -1.09864,-0.98877 -1.73584,-2.417 -0.61524,-1.45019 -0.61524,-3.36181 0,-1.97754 0.74707,-3.40576 0.74707,-1.4502 1.97754,-2.37305 1.23047,-0.94482 2.8125,-1.38428 1.60401,-0.43945 3.2959,-0.43945 1.58203,0 3.03223,0.35156 1.47216,0.32959 2.63672,1.01074 l 0,-1.27441 q 0,-1.29639 -0.30762,-2.19727 -0.28565,-0.90087 -0.90088,-1.45019 -0.59326,-0.57129 -1.51611,-0.81299 -0.92286,-0.26367 -2.19727,-0.26367 -2.15332,0 -3.73535,0.57129 -1.56006,0.57129 -2.83447,1.51611 l -1.38428,-3.84521 q 0.70312,-0.4834 1.604,-0.90088 0.90088,-0.43946 1.97754,-0.76905 1.07666,-0.32959 2.3291,-0.50537 1.25245,-0.19775 2.68067,-0.19775 0.96679,0 1.99951,0.10986 1.03271,0.10987 1.99951,0.43946 0.98877,0.30761 1.8457,0.90087 0.87891,0.59327 1.51612,1.56006 0.65918,0.94483 1.03271,2.3291 0.37354,1.38428 0.37354,3.2959 l 0,14.89746 z m -9.93164,-3.60351 q 1.77978,0 3.14209,-0.7251 1.38427,-0.7251 2.30713,-1.73584 l 0,-3.51562 q -0.9668,-0.50538 -2.26319,-0.81299 -1.29638,-0.30762 -2.65869,-0.30762 -1.05469,0 -1.97754,0.19775 -0.92285,0.19776 -1.62597,0.63721 -0.68116,0.41748 -1.07667,1.09863 -0.3955,0.65918 -0.3955,1.60401 0,1.64795 1.14258,2.61474 1.16455,0.94483 3.40576,0.94483 z" />
        <path
           inkscape:connector-curvature="0"
           id="path7120"
           d="m 925.38147,629.71368 0,-13.77685 q 0,-2.5708 -1.05469,-3.95508 -1.05469,-1.38428 -3.16406,-1.38428 -0.94482,0 -1.77979,0.35157 -0.83496,0.35156 -1.47216,1.05468 -0.61524,0.70313 -0.98877,1.75782 -0.35157,1.03271 -0.35157,2.41699 l 0,13.53515 -4.68017,0 0,-13.77685 q 0,-2.5708 -1.07666,-3.95508 -1.05469,-1.38428 -3.16406,-1.38428 -0.94483,0 -1.77979,0.35157 -0.81299,0.35156 -1.45019,1.05468 -0.61524,0.70313 -0.98877,1.75782 -0.35157,1.03271 -0.35157,2.41699 l 0,13.53515 -4.68017,0 0,-23.00537 4.68017,0 0,2.13135 q 0.98877,-1.42822 2.50489,-2.04346 1.51611,-0.61523 3.29589,-0.61523 1.88965,0 3.49366,0.76904 1.62597,0.74707 2.61474,2.50489 1.09864,-1.6919 2.8125,-2.48292 1.71387,-0.79101 3.99903,-0.79101 1.75781,0 3.25195,0.50537 1.51611,0.50537 2.61475,1.56006 1.1206,1.05469 1.75781,2.70264 0.63721,1.64794 0.63721,3.91113 l 0,14.85351 -4.68018,0 z" />
        <path
           inkscape:connector-curvature="0"
           id="path7122"
           d="m 943.72864,630.263 q -1.36231,0 -2.65869,-0.26367 -1.29639,-0.26367 -2.43897,-0.74707 -1.1206,-0.4834 -2.04346,-1.16455 -0.92285,-0.70313 -1.53808,-1.56006 l 3.31787,-2.83447 q 0.35156,0.32959 0.85693,0.74707 0.50537,0.3955 1.16455,0.74707 0.65918,0.35156 1.47217,0.59326 0.81299,0.2417 1.77979,0.2417 0.8789,0 1.62597,-0.13184 0.74707,-0.13183 1.27442,-0.41748 0.54931,-0.28564 0.83496,-0.74707 0.30762,-0.4834 0.30762,-1.18652 0,-0.81299 -0.57129,-1.38428 -0.54932,-0.59326 -1.4502,-1.05469 -0.90088,-0.4834 -2.04346,-0.90088 -1.14257,-0.43945 -2.30712,-0.92285 -1.07666,-0.46142 -2.10938,-1.01074 -1.03271,-0.54932 -1.8457,-1.31836 -0.79102,-0.76904 -1.29639,-1.82373 -0.4834,-1.07666 -0.4834,-2.59277 0,-1.53809 0.61524,-2.72461 0.6372,-1.18653 1.71386,-1.97754 1.09864,-0.81299 2.54883,-1.23047 1.47217,-0.41748 3.14209,-0.41748 1.47217,0 2.70264,0.28564 1.25244,0.28565 2.24121,0.76905 1.01074,0.4834 1.77978,1.1206 0.76905,0.61524 1.34034,1.29639 l -3.38379,2.68066 q -0.30762,-0.30761 -0.74707,-0.6372 -0.41748,-0.35157 -0.98877,-0.63721 -0.57129,-0.28565 -1.29639,-0.46143 -0.7251,-0.19775 -1.64795,-0.19775 -1.49414,0 -2.37305,0.54932 -0.85693,0.54931 -0.85693,1.58203 0,0.65918 0.46143,1.16455 0.46142,0.4834 1.25244,0.90088 0.79101,0.41748 1.80176,0.81298 1.03271,0.37354 2.15332,0.81299 1.18652,0.46143 2.3291,1.03272 1.14258,0.57129 2.02148,1.40625 0.90088,0.83496 1.42823,2.02148 0.54931,1.18653 0.54931,2.85645 0,1.64795 -0.61523,2.92236 -0.61524,1.25244 -1.75782,2.10938 -1.1206,0.83496 -2.7246,1.25244 -1.58204,0.43945 -3.5376,0.43945 z" />
        <path
           inkscape:connector-curvature="0"
           id="path7124"
           d="m 968.09631,630.263 q -0.98877,0 -1.80175,-0.19775 -0.79102,-0.17578 -1.4502,-0.4834 -0.65918,-0.32959 -1.18652,-0.76904 -0.52735,-0.43946 -0.98877,-0.94483 l 0,1.8457 -4.68018,0 0,-30.32226 4.68018,-2.17529 0,11.25 q 0.8789,-0.98877 2.19726,-1.62598 1.34034,-0.65918 3.22998,-0.65918 2.10938,0 3.86719,0.81299 1.75781,0.81299 3.01025,2.37304 1.27442,1.53809 1.97754,3.7793 0.70313,2.21924 0.70313,5.05371 0,2.92237 -0.65918,5.18555 -0.65918,2.24121 -1.91162,3.7793 -1.23047,1.51611 -3.01026,2.30712 -1.75781,0.79102 -3.97705,0.79102 z m -0.57129,-4.4165 q 1.34034,0 2.35108,-0.52735 1.01074,-0.54931 1.69189,-1.53808 0.70313,-0.98877 1.05469,-2.39502 0.35156,-1.42823 0.35156,-3.18604 0,-3.71338 -1.40625,-5.64697 -1.38427,-1.95557 -4.04297,-1.95557 -0.90087,0 -1.66992,0.2417 -0.76904,0.2417 -1.40625,0.61524 -0.61523,0.37353 -1.07666,0.83496 -0.43945,0.46142 -0.70312,0.90088 l 0,10.0415 q 0.76904,1.25244 2.02148,1.93359 1.27442,0.68116 2.83447,0.68116 z" />
        <path
           inkscape:connector-curvature="0"
           id="path7126"
           d="m 997.29797,629.71368 0,-2.19726 q -1.1206,1.42822 -2.59277,2.0874 -1.4502,0.65918 -3.36182,0.65918 -1.80175,0 -3.31787,-0.52734 -1.51611,-0.50537 -2.63672,-1.66993 -1.09863,-1.18652 -1.71386,-3.05419 -0.61524,-1.86768 -0.61524,-4.57032 l 0,-13.73291 4.68018,0 0,13.73291 q 0,1.4502 0.35156,2.48291 0.35156,1.01075 0.9668,1.66993 0.61523,0.65917 1.45019,0.96679 0.83496,0.28565 1.82373,0.28565 1.05469,0 1.95557,-0.26368 0.90088,-0.28564 1.56006,-0.90087 0.68115,-0.63721 1.05469,-1.64795 0.3955,-1.01075 0.3955,-2.50489 l 0,-13.8208 4.68013,0 0,23.00537 -4.68013,0 z" />
        <path
           inkscape:connector-curvature="0"
           id="path7128"
           d="m 1008.7018,629.71368 0,-23.00537 4.6802,0 0,2.79053 q 0.8129,-1.75781 2.1093,-2.52686 1.2964,-0.79101 3.0103,-0.79101 2.2851,0 3.8672,1.38428 l -0.6812,4.32861 q -0.6372,-0.43945 -1.5161,-0.76904 -0.8569,-0.35157 -2.1094,-0.35157 -0.791,0 -1.6259,0.28565 -0.813,0.26367 -1.4942,0.9668 -0.6811,0.68115 -1.1206,1.8457 -0.4394,1.14258 -0.4394,2.92236 l 0,12.91992 -4.6802,0 z" />
        <path
           inkscape:connector-curvature="0"
           id="path7130"
           d="m 1032.2345,635.11896 q 2.5269,-0.15381 4.1748,-0.59326 1.648,-0.43946 2.6147,-1.12061 0.9668,-0.65918 1.3404,-1.56006 0.3735,-0.90088 0.3735,-1.95556 l 0,-2.02149 q -1.9116,2.39502 -5.5371,2.39502 -1.9775,0 -3.6914,-0.74707 -1.7139,-0.76904 -3.0103,-2.28516 -1.2744,-1.51611 -2.0214,-3.75732 -0.7251,-2.26318 -0.7251,-5.27344 0,-2.83447 0.7031,-5.05371 0.7031,-2.24121 1.9556,-3.7793 1.2744,-1.56005 3.0322,-2.37304 1.7578,-0.81299 3.8672,-0.81299 1.0107,0 1.8457,0.19775 0.8349,0.17578 1.4941,0.4834 0.6812,0.30762 1.1865,0.70313 0.5274,0.37353 0.9009,0.76904 l 0,-1.62598 4.6802,0 0,21.24756 q 0,2.63672 -0.5274,4.48242 -0.5273,1.84571 -1.8017,3.16407 -0.8569,0.8789 -1.8897,1.42822 -1.0107,0.57129 -2.1313,0.92285 -1.0986,0.35156 -2.2412,0.50537 -1.1426,0.17578 -2.2412,0.26367 l -2.3511,-3.60351 z m 3.8232,-9.27246 q 1.4283,0 2.6587,-0.70313 1.2525,-0.70312 2.0215,-1.99951 l 0,-9.95361 q -0.3515,-0.57129 -0.8789,-1.03272 -0.5054,-0.4834 -1.1206,-0.83496 -0.5933,-0.35156 -1.2964,-0.52734 -0.6811,-0.19776 -1.3843,-0.19776 -2.7465,0 -4.1967,1.95557 -1.4283,1.93359 -1.4283,5.64697 0,1.75781 0.3955,3.18604 0.3956,1.40625 1.1207,2.39502 0.7251,0.98877 1.7578,1.53808 1.0547,0.52735 2.351,0.52735 z" />
      </g>
    </g>
  </g>
  <g
     inkscape:groupmode="layer"
     id="layer13"
     inkscape:label="Date"
     transform="translate(-455.21265,-351.422)">
    <g
       style="font-style:normal;font-variant:normal;font-weight:300;font-stretch:normal;font-size:15px;line-height:125%;font-family:Overpass;-inkscape-font-specification:'Overpass, Light';text-align:start;letter-spacing:0px;word-spacing:0px;writing-mode:lr-tb;text-anchor:start;fill:#222222;fill-opacity:1;stroke:none;stroke-width:1px;stroke-linecap:butt;stroke-linejoin:miter;stroke-opacity:1"
       id="text6734"
       transform="translate(-13.53062,254.46469)">
      <path
         d="m 973.94542,397.25201 0,-8.595 -1.785,0 0,-0.6 q 0.795,0 1.35,-0.27 0.555,-0.285 0.81,-1.035 l 0.675,0 0,10.5 -1.05,0 z"
         id="path7058"
         inkscape:connector-curvature="0" />
      <path
         d="m 981.82722,397.25201 0,-2.835 -5.1,0 0,-0.555 5.52,-7.11 0.63,0 0,6.765 1.59,0 0,0.9 -1.59,0 0,2.835 -1.05,0 z m 0,-3.735 0,-4.95 -3.735,4.95 3.735,0 z"
         id="path7060"
         inkscape:connector-curvature="0" />
      <path
         d="m 993.95261,396.48701 q 0.9,0 1.515,-0.405 0.63,-0.405 1.005,-1.05 0.39,-0.645 0.555,-1.44 0.18,-0.81 0.18,-1.59 0,-0.855 -0.18,-1.665 -0.165,-0.81 -0.555,-1.425 -0.375,-0.63 -1.005,-1.005 -0.615,-0.39 -1.515,-0.39 -0.9,0 -1.53,0.405 -0.615,0.405 -1.005,1.05 -0.375,0.645 -0.555,1.455 -0.165,0.795 -0.165,1.575 0,0.855 0.165,1.665 0.18,0.81 0.555,1.44 0.39,0.615 1.005,1.005 0.63,0.375 1.53,0.375 z m 0,0.945 q -1.215,0 -2.055,-0.48 -0.825,-0.48 -1.335,-1.26 -0.51,-0.78 -0.735,-1.74 -0.225,-0.975 -0.225,-1.95 0,-0.975 0.225,-1.935 0.225,-0.975 0.735,-1.755 0.51,-0.78 1.335,-1.26 0.84,-0.48 2.055,-0.48 1.215,0 2.04,0.48 0.84,0.48 1.35,1.26 0.51,0.78 0.735,1.755 0.225,0.96 0.225,1.935 0,0.975 -0.225,1.95 -0.225,0.96 -0.735,1.74 -0.51,0.78 -1.35,1.26 -0.825,0.48 -2.04,0.48 z"
         id="path7062"
         inkscape:connector-curvature="0" />
      <path
         d="m 1003.0424,397.43201 q -1.395,0 -2.22,-1.035 -0.81,-1.05 -0.81,-2.97 0,-1.905 0.825,-2.955 0.84,-1.065 2.325,-1.065 0.855,0 1.5,0.42 0.645,0.405 0.96,1.185 l -0.96,0.375 q -0.18,-0.435 -0.555,-0.735 -0.36,-0.3 -0.99,-0.3 -0.54,0 -0.915,0.225 -0.375,0.21 -0.63,0.615 -0.24,0.39 -0.36,0.96 -0.105,0.57 -0.105,1.275 0,1.455 0.48,2.265 0.48,0.795 1.5,0.795 0.63,0 1.065,-0.315 0.435,-0.315 0.63,-0.855 l 0.945,0.36 q -0.27,0.81 -0.99,1.29 -0.705,0.465 -1.695,0.465 z"
         id="path7064"
         inkscape:connector-curvature="0" />
      <path
         d="m 1009.5179,397.43201 q -0.825,0 -1.17,-0.495 -0.345,-0.51 -0.345,-1.26 l 0,-5.145 -1.305,0 0,-0.945 1.305,0 0,-2.64 1.05,-0.525 0,3.165 1.95,0 0,0.945 -1.95,0 0,4.695 q 0,0.255 0.015,0.48 0.03,0.21 0.12,0.375 0.09,0.165 0.255,0.27 0.165,0.09 0.435,0.09 0.39,0 0.66,-0.15 0.285,-0.15 0.495,-0.3 l -0.12,1.095 q -0.3,0.165 -0.63,0.255 -0.33,0.09 -0.765,0.09 z"
         id="path7066"
         inkscape:connector-curvature="0" />
      <path
         d="m 1016.3071,397.25201 q 0,-0.99 0.285,-1.695 0.285,-0.72 0.735,-1.26 0.45,-0.54 1.02,-0.945 0.57,-0.405 1.14,-0.795 0.495,-0.33 0.945,-0.645 0.45,-0.33 0.795,-0.69 0.36,-0.36 0.57,-0.765 0.21,-0.42 0.21,-0.93 0,-0.855 -0.6,-1.425 -0.585,-0.585 -1.68,-0.585 -1.065,0 -1.605,0.48 -0.54,0.465 -0.735,1.215 l -0.93,-0.42 q 0.12,-0.465 0.405,-0.87 0.285,-0.405 0.72,-0.705 0.435,-0.3 0.99,-0.465 0.57,-0.18 1.245,-0.18 1.56,0 2.415,0.81 0.87,0.795 0.87,2.145 0,0.72 -0.285,1.275 -0.27,0.555 -0.72,1.02 -0.435,0.45 -0.99,0.84 -0.555,0.375 -1.125,0.735 -0.45,0.3 -0.87,0.6 -0.42,0.285 -0.78,0.63 -0.345,0.33 -0.585,0.735 -0.24,0.39 -0.33,0.885 l 5.775,0 0,1.005 -6.885,0 z"
         id="path7068"
         inkscape:connector-curvature="0" />
      <path
         d="m 1028.8862,397.43201 q -1.035,0 -1.725,-0.48 -0.69,-0.48 -1.11,-1.245 -0.405,-0.78 -0.585,-1.74 -0.18,-0.975 -0.18,-1.965 0,-0.54 0.06,-1.155 0.06,-0.63 0.21,-1.23 0.165,-0.6 0.42,-1.155 0.27,-0.555 0.675,-0.975 0.405,-0.42 0.945,-0.66 0.555,-0.255 1.29,-0.255 1.035,0 1.725,0.495 0.69,0.48 1.095,1.26 0.42,0.78 0.6,1.755 0.18,0.96 0.18,1.92 0,0.555 -0.075,1.17 -0.06,0.615 -0.225,1.23 -0.15,0.6 -0.42,1.155 -0.255,0.54 -0.66,0.96 -0.405,0.42 -0.96,0.675 -0.54,0.24 -1.26,0.24 z m 0,-0.945 q 0.78,0 1.26,-0.42 0.495,-0.435 0.765,-1.095 0.27,-0.66 0.36,-1.455 0.09,-0.795 0.09,-1.515 0,-0.81 -0.105,-1.605 -0.105,-0.81 -0.39,-1.44 -0.285,-0.645 -0.765,-1.035 -0.48,-0.405 -1.215,-0.405 -0.795,0 -1.29,0.435 -0.48,0.435 -0.75,1.095 -0.27,0.66 -0.375,1.455 -0.09,0.78 -0.09,1.5 0,0.825 0.105,1.635 0.105,0.795 0.39,1.44 0.285,0.63 0.765,1.02 0.495,0.39 1.245,0.39 z"
         id="path7070"
         inkscape:connector-curvature="0" />
      <path
         d="m 1035.9083,397.25201 0,-8.595 -1.785,0 0,-0.6 q 0.795,0 1.35,-0.27 0.555,-0.285 0.81,-1.035 l 0.675,0 0,10.5 -1.05,0 z"
         id="path7072"
         inkscape:connector-curvature="0" />
      <path
         d="m 1040.9931,397.25201 q 0.015,-1.23 0.15,-2.43 0.15,-1.2 0.51,-2.385 0.375,-1.185 0.99,-2.37 0.615,-1.2 1.575,-2.415 l -5.085,0 0,-0.9 6.285,0 0,0.69 q -1.095,1.26 -1.755,2.595 -0.66,1.32 -1.02,2.61 -0.36,1.275 -0.48,2.46 -0.12,1.185 -0.12,2.145 l -1.05,0 z"
         id="path7074"
         inkscape:connector-curvature="0" />
    </g>
  </g>
</svg>
