<?xml version="1.0" encoding="UTF-8" standalone="no"?>
<!-- Created with Inkscape (http://www.inkscape.org/) -->

<svg
   xmlns:dc="http://purl.org/dc/elements/1.1/"
   xmlns:cc="http://creativecommons.org/ns#"
   xmlns:rdf="http://www.w3.org/1999/02/22-rdf-syntax-ns#"
   xmlns:svg="http://www.w3.org/2000/svg"
   xmlns="http://www.w3.org/2000/svg"
   xmlns:sodipodi="http://sodipodi.sourceforge.net/DTD/sodipodi-0.dtd"
   xmlns:inkscape="http://www.inkscape.org/namespaces/inkscape"
   width="1499.7223"
   height="1173.7528"
   viewBox="0 0 1499.7223 1173.7528"
   id="svg2"
   version="1.1"
   inkscape:version="0.92.4 (5da689c313, 2019-01-14)"
   sodipodi:docname="PHL.svg"
   inkscape:export-filename="C:\Users\paulb\Dropbox\Projects\Terminal Silhouettes\Silhouettes\png\PHL.png"
   inkscape:export-xdpi="90"
   inkscape:export-ydpi="90">
  <sodipodi:namedview
     id="base"
     pagecolor="#ffffff"
     bordercolor="#666666"
     borderopacity="1.0"
     inkscape:pageopacity="1"
     inkscape:pageshadow="2"
     inkscape:zoom="0.7071068"
     inkscape:cx="539.4604"
     inkscape:cy="615.94125"
     inkscape:document-units="px"
     inkscape:current-layer="layer1"
     showgrid="false"
     units="px"
     fit-margin-top="25"
     fit-margin-left="25"
     fit-margin-right="25"
     fit-margin-bottom="25"
     showguides="true"
     inkscape:guide-bbox="true"
     inkscape:window-width="1920"
     inkscape:window-height="1137"
     inkscape:window-x="1912"
     inkscape:window-y="-8"
     inkscape:window-maximized="1"
     inkscape:snap-object-midpoints="false"
     inkscape:object-nodes="true"
     inkscape:snap-smooth-nodes="false">
    <inkscape:grid
       type="xygrid"
       id="grid4180"
       originx="-1205.1993"
       originy="-912.05799" />
  </sodipodi:namedview>
  <defs
     id="defs4" />
  <metadata
     id="metadata7">
    <rdf:RDF>
      <cc:Work
         rdf:about="">
        <dc:format>image/svg+xml</dc:format>
        <dc:type
           rdf:resource="http://purl.org/dc/dcmitype/StillImage" />
        <dc:title />
        <dc:creator>
          <cc:Agent>
            <dc:title>Paul Bogard</dc:title>
          </cc:Agent>
        </dc:creator>
        <dc:description>Terminal silhouette of PHL (Philadelphia)</dc:description>
      </cc:Work>
    </rdf:RDF>
  </metadata>
  <g
     inkscape:groupmode="layer"
     id="layer2"
     inkscape:label="Terminal"
     style="display:inline"
     transform="translate(-1205.1993,-962.93916)">
    <path
       style="display:inline;opacity:1;fill:#dddddd;fill-opacity:1;stroke:#222222;stroke-width:1.5;stroke-linejoin:miter;stroke-miterlimit:4;stroke-dasharray:none;stroke-dashoffset:0;stroke-opacity:1"
       d="m 1397.1541,1771.5471 22.9676,47.1961 -47.5771,24.7808 -2.2629,6.855 -39.9563,20.8104 -4.1934,-9.0962 -4.4851,13.617 -3.9006,2.0298 -11.42,34.687 3.7907,-1.697 -49.3779,149.9818 -19.5167,19.9471 -9.9859,30.273 0,0 31.8704,-8.1834 1.162,-3.5356 14.9371,-3.8357 7.9323,-2.0365 4.7364,-1.2162 49.8944,-151.2818 -2.8102,-4.6264 14.07,-42.6625 112.9919,-29.0135 0.2484,0.9657 16.6964,-4.2875 0.213,0.8245 48.2036,-12.3772 -0.2137,-0.824 16.6982,-4.2878 -0.2475,-0.9656 126.7126,-32.537 2.1202,2.088 1.5772,6.1424 -22.6475,5.8097 -5.8182,20.3851 1.7771,7.9734 -4.917,17.2269 36.6091,10.4508 0.6895,-2.4236 10.4333,9.0096 -18.9727,66.4712 -7.0729,-2.0183 -1.5154,5.3128 -4.7536,16.6526 -4.631,16.2207 3.1051,5.5854 0.047,0.013 a 25.809148,25.809148 0 0 0 15.4285,12.2631 25.809148,25.809148 0 0 0 19.5639,-2.276 l 0.061,0.017 5.5808,-3.1058 8.7078,-30.5044 -6.3949,-4.3881 38.0905,-133.4535 2.2601,-7.9175 5.0002,-17.5212 -9.8455,-2.8118 -2.3153,-9.037 33.3266,-8.5576 -4.1371,-16.1122 13.2207,-3.395 0.817,3.1812 9.6881,-2.4879 -0.8166,-3.1802 1.53,-0.3928 1.9293,4.1369 2.8615,-1.3358 1.7021,6.6275 26.7505,-6.8693 -2.6732,-10.4109 27.3299,-7.018 1.448,5.6392 6.2919,-1.6156 1.7638,6.8705 22.5578,-5.7921 1.1881,4.6271 8.3145,-2.135 -0.5759,-2.2419 69.4577,-17.8347 1.8074,7.0796 3.7551,-0.5823 3.7621,24.3099 9.8059,-1.5194 1.3876,8.9732 -9.8051,1.5178 21.819,141.026 -78.7918,20.2317 7.3518,28.6311 85.6869,-22.0025 -2.7308,-10.6353 14.1092,-3.623 2.731,10.6342 10.0198,-2.5726 -7.351,-28.6287 -4.313,1.1075 -4.1532,-26.8365 -9.807,1.5151 -1.3886,-8.9704 9.807,-1.5192 -10.3301,-66.7675 -9.8077,1.5156 -2.517,-16.2733 9.8062,-1.5175 -7.8526,-50.757 54.9497,-14.1097 0.6298,2.4536 43.5596,-11.185 -0.6303,-2.4547 48.6578,-12.4941 7.7966,21.412 8.5319,-3.1065 7.7999,21.426 -8.5296,3.1068 40.1626,110.3064 8.5317,-3.1053 3.2646,8.9664 -23.8395,6.1217 2.1536,8.3862 -8.7947,2.2583 4.6206,17.9951 8.7936,-2.2579 4.909,-1.2605 0.3668,-0.094 1.276,4.9693 7.9545,-2.0428 -1.276,-4.9692 21.6907,-5.5699 51.176,-13.1405 5.3645,-1.3775 -2.4154,-9.4057 -5.3666,1.3776 -4.3579,-16.973 5.3662,-1.3779 -2.4153,-9.4058 -43.5245,11.176 -1.2682,-4.938 -8.2437,2.1167 -60.7678,-166.8979 42.2592,-10.8511 -2.1166,-8.2429 8.3879,-2.1539 2.1158,8.2416 76.7844,-19.7163 -2.2652,-8.8233 3.5713,-0.9175 3.374,-0.8661 -0.3148,-1.2259 20.2321,-5.1949 1.7411,1.7821 4.0684,4.1673 92.401,94.6259 4.3043,-4.2034 9.5152,9.743 -4.3061,4.2037 2.14,2.1904 4.3043,-4.2033 1.0325,1.0573 -4.3055,4.2032 27.5895,28.2546 -4.9445,4.8295 6.4657,6.6216 -4.9145,4.7979 22.0097,22.5393 9.8585,-9.6281 0.6266,0.6409 15.2569,-14.8986 -0.6256,-0.6395 18.1437,-17.7178 -22.0074,-22.5389 -7.3704,7.1973 -3.5467,-3.6313 -10.7743,10.5191 -139.6656,-143.0288 -11.6789,-3.3485 -25.9629,-26.5877 -5.1992,-5.3262 1.8831,-1.8401 1.9559,2.0026 22.2866,-21.7608 -1.7032,-1.7435 5.9368,-5.7961 8.7385,8.9476 c 0,0 35.3893,-34.5579 51.4931,-81.3292 l -11.8266,-4.0726 2.7017,-7.8453 2.3069,0.7939 10.1393,-29.4513 -2.6465,-0.9101 0.8584,-2.4908 5.1642,1.7783 9.1495,3.1504 -5.1557,14.9712 24.9542,8.5923 5.1553,-14.9731 3.7931,1.3075 -3.6431,10.5809 162.3019,55.8813 0.6581,-1.9106 12.5073,14.2586 -3.1613,9.1832 a 32.93707,32.93707 0 0 0 41.8655,-20.4206 32.93707,32.93707 0 0 0 -0.4156,-22.5831 32.93707,32.93707 0 0 0 -20.0039,-19.2822 l -3.1616,9.1826 -18.636,3.5367 0.658,-1.9095 -162.3024,-55.882 -3.6417,10.58 -12.3277,-4.2454 1.7185,-4.989 -1.048,-0.3618 11.9594,-34.7361 -17.1683,-5.911 -11.9606,34.7359 -1.0477,-0.36 -1.7175,4.9893 -11.4671,-3.9476 0.8574,-2.4881 2.647,0.9119 10.1406,-29.4523 -7.1877,-2.4747 2.2686,-6.5878 -8.7842,-3.0245 -2.0774,-0.7149 -15.5855,-71.1448 12.9166,-2.83 -10.0831,-46.0313 5.4695,-2.1147 -13.6804,-35.3682 -0.4664,-2.128 a 285.91104,285.91104 0 0 1 135.176,-23.3238 l -5.4554,28.1111 16.7891,3.2583 -0.9655,4.9741 42.9046,8.3266 0.965,-4.9748 14.9235,2.8966 5.1524,-26.5494 a 285.91104,285.91104 0 0 1 102.5935,63.3271 l 11.3942,-11.8213 a 302.34532,302.34532 0 0 0 -10.9586,-9.5819 l 2.1677,-2.4769 a 305.30121,305.30121 0 0 0 -17.5433,-13.8399 l -1.5332,2.035 a 302.34532,302.34532 0 0 0 -11.2551,-7.9078 l 1.5499,-2.2654 a 305.30121,305.30121 0 0 0 -36.0908,-21.0127 l -1.0844,2.1736 a 302.34532,302.34532 0 0 0 -12.5049,-5.7312 l 1.1851,-2.6735 a 305.30121,305.30121 0 0 0 -21.5439,-8.5884 l -0.9842,2.7707 a 302.34532,302.34532 0 0 0 -2.232,-0.6892 l 2.0656,-10.6441 -9.3271,-1.8096 0.6035,-3.1092 -9.949,-1.9305 6.3559,-32.7488 -14.6783,-2.8491 2.7297,-14.0626 1.7584,0.3406 3.8683,-19.9321 -1.7589,-0.3413 6.3718,-32.8296 1.7582,0.3418 3.8679,-19.9328 -1.7578,-0.3411 8.2768,-42.6485 4.8355,0.9382 3.8679,-19.93277 -4.8356,-0.93817 1.0529,-5.42285 -15.8285,-3.07191 -1.0529,5.42285 -4.8336,-0.93851 -3.8686,19.93326 4.8344,0.938 -8.2768,42.6484 -1.7589,-0.3412 -3.8684,19.9321 1.7589,0.3412 -6.3717,32.8297 -1.7583,-0.3418 -3.8685,19.9332 1.7589,0.3413 -2.7291,14.0634 -9.7041,-1.8835 -3.2831,16.9186 -19.6013,10.1276 -0.4668,2.4036 -2.4686,12.7205 a 302.34532,302.34532 0 0 0 -2.53,-0.1752 l 0.1944,-2.9391 a 305.30121,305.30121 0 0 0 -21.4388,-0.3627 l 0.011,2.6267 a 302.34532,302.34532 0 0 0 -13.7534,0.2283 l -0.1293,-2.6086 a 305.30121,305.30121 0 0 0 -56.7384,8.017 l 0.6948,2.8651 a 302.34532,302.34532 0 0 0 -13.327,3.4084 l -0.6978,-2.3958 a 305.30121,305.30121 0 0 0 -21.2281,6.6064 l 1.1874,3.1882 a 302.34532,302.34532 0 0 0 -12.1642,4.7717 l -11.7744,-53.7487 -30.2801,6.6334 4.0834,18.638 -42.4478,9.2995 -9.3807,35.1064 -0.3269,0.8976 -4.5947,12.5961 -8.1031,22.216 5.7517,2.0976 -0.7591,2.0815 -9.1237,-3.3269 -2.2791,6.2479 4.857,1.7718 -0.8033,2.2018 4.2675,1.5577 -9.9411,27.2518 23.2479,8.4792 19.388,-35.12 -3.4335,-47.5175 10.3818,-4.0167 -0.6459,-1.6703 23.8016,-9.2068 24.5025,63.3453 8.7763,-3.3955 24.4379,111.5538 -9.6498,-3.3236 -2.2692,6.5871 -9.0433,-3.1142 -10.143,29.4519 5.0331,1.732 -0.8578,2.4904 -10.1364,-3.4909 -6.5806,-2.2658 -16.0436,-5.5239 2.201,-18.3145 0.9957,0.119 6.3084,-52.4634 -8.1748,-0.9835 -6.3079,52.4641 0.994,0.1192 -2.0414,16.9841 -10.7026,-3.6862 2.3398,-19.4576 0.9952,0.1183 1.6252,-13.5145 -8.1742,-0.9828 -1.6257,13.5138 0.9949,0.1207 -2.1793,18.1296 -57.8754,-19.927 12.2008,-33.4514 -15.0035,-5.472 -7.9226,21.7225 -2.8152,-1.0261 -2.8974,7.9428 -1.6182,-0.5912 -4.5655,12.5138 4.4344,1.6185 -23.5848,64.6611 -5.9817,6.2768 -3.4494,3.6211 -52.439,55.0292 21.7473,20.7251 10.4417,-10.9573 2.673,2.5483 24.6299,-25.8464 23.8082,24.3804 -16.1912,10.4018 -0.5196,-0.8079 -10.1714,6.534 4.4061,6.8582 10.1708,-6.5347 -0.5183,-0.8089 17.2659,-11.0936 7.964,8.1578 -15.1028,9.7051 -0.542,-0.8447 -73.2169,47.0394 0.5406,0.8458 -14.7456,9.475 -15.4179,-36.759 10.953,-5.0224 -10.9937,-23.9832 -1.8517,-0.6867 -78.8286,36.1418 -10.1223,4.6411 -21.746,9.9697 -10.9304,2.8068 -9.2539,2.3762 -27.0953,6.9574 -5.9353,-23.1148 -8.5911,2.206 4.5687,17.7931 -13.0889,3.3606 1.3668,5.3229 -9.8179,2.5207 0.074,0.2884 -32.5141,8.3489 7.2403,28.1972 39.9095,-10.2479 -0.1859,-0.7244 15.5077,-3.982 8.2158,31.9957 -17.9952,4.6206 -0.2493,-0.971 -200.207,51.4082 0.2499,0.9718 -17.103,4.392 -4.9146,-19.1408 46.3468,-11.9007 -3.337,-12.9965 14.3866,-3.6938 -6.0258,-23.4678 -14.3862,3.694 -7.3656,-28.6855 -89.981,23.1048 13.0945,50.9954 -64.1352,16.4682 1.4271,-19.4235 c 5.1394,-8.5784 6.3718,-16.7858 6.3718,-16.7858 0,0 -18.3486,-2.613 -32.5429,8.2165 -5.1699,3.9444 -9.7876,9.6739 -12.7681,17.9605 l -85.3825,21.9237 -0.5308,-2.0655 -7.0231,1.8034 4.9694,19.3498 c -40.5597,10.8929 -77.3167,28.8847 -77.3167,28.8847 z m -165.9176,339.3848 0,0 -9e-4,0.01 0,0 0,0 z m 1044.6768,-918.1205 39.1721,-8.5817 0.926,4.2262 -9.1011,3.5213 4.7013,12.158 -23.8015,9.2056 -0.6458,-1.6704 -3.8987,1.5079 -0.9419,-2.4362 -3.1907,1.2336 a 3.5365088,3.5365088 0 0 0 -2.0645,-2.0008 3.5365088,3.5365088 0 0 0 -4.5343,2.111 l -5.0819,13.9341 -0.3749,-0.1372 8.8359,-33.0714 z m -676.1174,522.4574 65.157,-16.7306 2.7803,10.8288 33.9224,-8.7105 12.6343,49.203 -32.8459,8.434 0.722,2.8119 -5.8829,1.5103 3.9376,15.3363 5.8855,-1.5113 1.7066,6.6458 -3.9626,1.0176 -0.4032,-0.3783 -10.3029,0.2338 -73.3481,-68.6907 z m -1.2375,15.5008 63.3842,53.4463 -41.3869,0.9304 -5.1618,-4.9211 -20.5059,0.4622 3.6704,-49.9178 z m 119.2674,-7.4307 17.1035,-4.3914 0.2491,0.9703 200.2056,-51.4076 -0.2491,-0.9694 17.9952,-4.6205 8.3873,32.6646 -13.5993,3.4919 1.9347,7.5362 -2.8628,0.7351 -0.9104,-3.5467 -10.1222,2.5995 0.9106,3.5455 -4.5394,1.1655 -1.8935,-7.3744 -71.1463,18.2685 0.9653,3.7596 -17.6418,4.5301 1.6334,6.3629 -25.0837,6.4408 a 10.345615,10.345615 0 0 0 -0.1911,-4.1536 10.345615,10.345615 0 0 0 -9.7035,-7.7606 l -0.2491,-0.8173 -1.4218,0.3652 -1.3421,-1.9684 -1.0836,0.2782 -0.2291,2.3706 -1.4201,0.3648 0.1724,0.8343 a 10.345615,10.345615 0 0 0 -4.764,11.4799 10.345615,10.345615 0 0 0 1.8237,3.7343 l -38.8494,9.9756 -4.8588,-18.9223 -33.0498,8.4861 -6.1689,-24.0244 0,0 z m 510.1044,-338.7632 4.0413,1.392 -5.6201,15.4108 -4.0166,-1.4639 5.5954,-15.3389 z m -304.0747,228.6955 15.5067,-3.9817 0.3145,1.2241 1.2874,5.0121 -15.5071,3.9816 -1.6009,-6.235 0,0 z m -240.3875,196.5087 25.6815,-2.0977 -2.8879,-2.6905 5.7426,-1.4748 3.8837,15.1451 -1.8598,-0.5305 -14.8982,-4.2514 -9.1236,2.3383 -6.5383,-6.4389 z m 564.3999,-418.341 77.1603,26.5669 6.3134,2.1737 10.1337,3.4899 -0.8573,2.4909 -5.0329,-1.7332 -10.1405,29.4512 1.5375,0.5299 -5.0918,10.5898 -1.151,-0.7306 c 0,0 -13.5953,29.6308 -34.5649,54.5892 l 1.1524,0.7294 -7.3964,9.1297 -1.1344,-1.1625 -22.2855,21.7611 3.7189,3.8085 -1.8837,1.8394 -64.9658,-66.53 14.4052,-15.1155 -5.2718,-5.0233 26.032,-23.8775 4.7049,-12.8994 2.6681,-7.3121 2.7811,-7.6269 2.6025,0.949 2.4061,-6.5965 -2.603,-0.9497 6.7629,-18.5414 z m -295.9089,231.2449 3.2325,-0.8297 1.9688,7.6661 87.196,-22.3897 39.9906,-18.3348 -5.995,-13.0784 5.0209,-2.3028 -0.7274,-1.5809 13.608,-6.2394 29.4896,70.3055 -10.8661,4.5566 -2.2283,-5.31 c -66.1754,24.7806 -129.0687,41.0753 -129.0687,41.0753 l 1.279,4.981 -16.7691,4.3058 -16.1314,-62.8228 0,0 z m 266.1327,-196.6904 10.5562,3.8486 -4.1971,11.505 -10.565,9.6915 -3.658,-3.4867 0,0 7.8625,-21.5574 z m -95.5308,178.31 15.6673,-10.067 0.542,0.8436 73.2167,-47.0413 -0.5433,-0.8438 16.1818,-10.3938 24.0741,24.6545 -1.8845,1.8411 -3.7189,-3.8086 -22.2842,21.7612 6.6828,6.8455 -4.9848,4.8677 7.9936,8.1851 4.9846,-4.8666 4.6462,4.7591 -4.9847,4.8667 6.4897,6.6469 4.9861,-4.8688 5.3101,5.439 22.2849,-21.7616 -1.9552,-2.0031 1.8843,-1.84 5.2003,5.3275 27.2168,27.8719 -22.2557,5.7147 -3.678,-14.3253 -0.7872,-3.0658 -3.3741,0.8661 0.7873,3.0666 -36.4018,9.3472 3.6778,14.3223 -33.5451,8.6134 -18.7984,4.827 -1.7456,-6.7977 -21.1144,5.4213 -5.2689,-20.5196 -11.411,4.7845 4.8232,18.7821 -9.399,2.4134 -2.4266,-9.4498 -7.7692,3.2592 -18.3202,-43.6751 z"
       id="rect4447"
       inkscape:connector-curvature="0" />
  </g>
  <g
     inkscape:groupmode="layer"
     id="layer1"
     inkscape:label="Label"
     transform="translate(-1205.1993,-962.93916)">
    <g
       style="font-style:normal;font-variant:normal;font-weight:bold;font-stretch:normal;font-size:125px;line-height:125%;font-family:Overpass;-inkscape-font-specification:'Overpass, Bold';text-align:start;letter-spacing:0px;word-spacing:0px;writing-mode:lr-tb;text-anchor:start;fill:#dddddd;fill-opacity:1;stroke:#222222;stroke-width:0.25;stroke-linecap:butt;stroke-linejoin:miter;stroke-miterlimit:4;stroke-dasharray:none;stroke-opacity:1"
       id="text4305">
      <path
         d="m 1230.3243,1075.5886 0,-87.52439 37.5367,0 q 8.3007,0 13.977,2.44141 5.6763,2.38037 9.2163,6.34765 3.5401,3.90623 5.0659,8.85013 1.587,4.9438 1.587,10.0097 0,3.1739 -0.7325,6.4698 -0.7324,3.2348 -2.2583,6.3476 -1.5258,3.0518 -3.9062,5.7373 -2.3804,2.6856 -5.7373,4.7608 -3.2959,2.0141 -7.6294,3.1738 -4.2725,1.1597 -9.5825,1.1597 l -20.6299,0 0,32.2265 -16.9068,0 z m 38.2691,-48.2788 q 3.2348,0 5.4321,-1.0376 2.1973,-1.0376 3.5401,-2.6855 1.4038,-1.648 2.0141,-3.7232 0.6104,-2.0752 0.6104,-4.1504 0,-1.8921 -0.5494,-3.9062 -0.4882,-2.0752 -1.831,-3.7842 -1.2817,-1.709 -3.54,-2.8076 -2.2583,-1.0986 -5.6763,-1.0986 l -21.3623,0 0,23.1933 21.3623,0 z"
         id="path4370"
         inkscape:connector-curvature="0" />
      <path
         d="m 1367.5924,1075.5886 0,-36.9873 -36.6211,0 0,36.9873 -16.9067,0 0,-87.52439 16.9067,0 0,34.54589 36.6211,0 0,-34.54589 16.8457,0 0,87.52439 -16.8457,0 z"
         id="path4372"
         inkscape:connector-curvature="0" />
      <path
         d="m 1407.0822,1075.5886 0,-87.52439 16.9067,0 0,71.28909 42.2363,0 0,16.2353 -59.143,0 z"
         id="path4374"
         inkscape:connector-curvature="0" />
    </g>
    <g
       style="font-style:normal;font-variant:normal;font-weight:normal;font-stretch:normal;font-size:45px;line-height:125%;font-family:Overpass;-inkscape-font-specification:'Overpass, Normal';text-align:start;letter-spacing:0px;word-spacing:0px;writing-mode:lr-tb;text-anchor:start;fill:#222222;fill-opacity:1;stroke:none;stroke-width:1px;stroke-linecap:butt;stroke-linejoin:miter;stroke-opacity:1"
       id="text4309">
      <path
         d="m 1230.1993,1123.2112 0,-31.5088 12.6563,0 q 2.9004,0 4.8779,0.8569 1.9995,0.835 3.208,2.1973 1.2305,1.3623 1.7578,3.0981 0.5494,1.7139 0.5494,3.4937 0,1.0986 -0.2637,2.2412 -0.2417,1.1426 -0.7691,2.2192 -0.5273,1.0547 -1.3623,1.9995 -0.8349,0.9449 -1.9995,1.648 -1.1426,0.7031 -2.6367,1.1206 -1.4941,0.3955 -3.3618,0.3955 l -7.9761,0 0,12.2388 -4.6802,0 z m 12.92,-16.7432 q 1.4721,0 2.4609,-0.4614 1.0107,-0.4614 1.626,-1.1865 0.6372,-0.7471 0.9009,-1.648 0.2856,-0.9228 0.2856,-1.8237 0,-0.835 -0.2417,-1.7359 -0.2417,-0.9008 -0.835,-1.6479 -0.5932,-0.769 -1.6259,-1.2524 -1.0108,-0.5054 -2.5708,-0.5054 l -8.2398,0 0,10.2612 8.2398,0 z"
         id="path4345"
         inkscape:connector-curvature="0" />
      <path
         d="m 1272.6725,1123.2112 0,-13.7329 q 0,-1.4502 -0.3516,-2.461 -0.3515,-1.0327 -0.9668,-1.6699 -0.6152,-0.6592 -1.4502,-0.9448 -0.8349,-0.3076 -1.8237,-0.3076 -1.0547,0 -1.9556,0.2856 -0.9008,0.2637 -1.56,0.8789 -0.6592,0.6153 -1.0547,1.648 -0.3735,1.0107 -0.3735,2.4829 l 0,13.8208 -4.6802,0 0,-30.3223 4.6802,-2.1753 0,11.7114 q 1.1206,-1.4282 2.5708,-2.0874 1.4501,-0.6591 3.3618,-0.6591 1.8017,0 3.3178,0.5273 1.5162,0.5054 2.6148,1.6699 1.1206,1.1646 1.7358,3.0323 0.6153,1.8676 0.6153,4.5703 l 0,13.7329 -4.6802,0 z"
         id="path4347"
         inkscape:connector-curvature="0" />
      <path
         d="m 1283.9005,1123.2112 0,-23.0054 4.6802,0 0,23.0054 -4.6802,0 z m 2.3291,-26.5869 q -0.5932,0 -1.1206,-0.2198 -0.5054,-0.2197 -0.9009,-0.5932 -0.3735,-0.3955 -0.5932,-0.9009 -0.2198,-0.5273 -0.2198,-1.1206 0,-0.5933 0.2198,-1.0986 0.2197,-0.5274 0.5932,-0.9009 0.3955,-0.3955 0.9009,-0.6153 0.5274,-0.2197 1.1206,-0.2197 0.5933,0 1.0986,0.2197 0.5274,0.2198 0.9009,0.6153 0.3955,0.3735 0.6153,0.9009 0.2197,0.5053 0.2197,1.0986 0,0.5933 -0.2197,1.1206 -0.2198,0.5054 -0.6153,0.9009 -0.3735,0.3735 -0.9009,0.5932 -0.5053,0.2198 -1.0986,0.2198 z"
         id="path4349"
         inkscape:connector-curvature="0" />
      <path
         d="m 1295.59,1123.2112 0,-30.2783 4.6801,-2.2193 0,32.4976 -4.6801,0 z"
         id="path4351"
         inkscape:connector-curvature="0" />
      <path
         d="m 1324.8575,1123.2112 -4.4824,0 0,-1.9776 q -0.4394,0.4615 -1.0547,0.9229 -0.6152,0.4394 -1.4062,0.813 -0.7691,0.3515 -1.7359,0.5713 -0.9668,0.2197 -2.1093,0.2197 -1.7578,0 -3.252,-0.4834 -1.4941,-0.4834 -2.5928,-1.4502 -1.0986,-0.9888 -1.7358,-2.417 -0.6152,-1.4502 -0.6152,-3.3618 0,-1.9775 0.747,-3.4058 0.7471,-1.4502 1.9776,-2.373 1.2304,-0.9448 2.8125,-1.3843 1.604,-0.4394 3.2959,-0.4394 1.582,0 3.0322,0.3515 1.4722,0.3296 2.6367,1.0108 l 0,-1.2745 q 0,-1.2963 -0.3076,-2.1972 -0.2856,-0.9009 -0.9009,-1.4502 -0.5932,-0.5713 -1.5161,-0.813 -0.9228,-0.2637 -2.1973,-0.2637 -2.1533,0 -3.7353,0.5713 -1.5601,0.5713 -2.8345,1.5161 l -1.3843,-3.8452 q 0.7032,-0.4834 1.604,-0.9009 0.9009,-0.4394 1.9776,-0.769 1.0766,-0.3296 2.3291,-0.5054 1.2524,-0.1977 2.6807,-0.1977 0.9668,0 1.9995,0.1098 1.0327,0.1099 1.9995,0.4395 0.9887,0.3076 1.8457,0.9009 0.8789,0.5932 1.5161,1.56 0.6592,0.9448 1.0327,2.3291 0.3735,1.3843 0.3735,3.2959 l 0,14.8975 z m -9.9316,-3.6035 q 1.7798,0 3.1421,-0.7251 1.3843,-0.7251 2.3071,-1.7359 l 0,-3.5156 q -0.9668,-0.5054 -2.2632,-0.813 -1.2963,-0.3076 -2.6587,-0.3076 -1.0546,0 -1.9775,0.1978 -0.9228,0.1977 -1.626,0.6372 -0.6811,0.4174 -1.0766,1.0986 -0.3955,0.6592 -0.3955,1.604 0,1.6479 1.1425,2.6147 1.1646,0.9449 3.4058,0.9449 z"
         id="path4353"
         inkscape:connector-curvature="0" />
      <path
         d="m 1339.6451,1123.7605 q -2.1753,0 -3.955,-0.813 -1.7578,-0.835 -3.0103,-2.373 -1.2524,-1.5601 -1.9336,-3.8013 -0.6592,-2.2412 -0.6592,-5.0757 0,-2.8345 0.7032,-5.0537 0.7031,-2.2412 1.9555,-3.7793 1.2744,-1.5601 3.0323,-2.373 1.7578,-0.813 3.8671,-0.813 1.8897,0 3.208,0.6152 1.3404,0.6152 2.2193,1.5381 l 0,-8.9429 4.6802,-2.1753 0,32.4976 -4.6802,0 0,-1.626 q -0.9229,1.0327 -2.2193,1.604 -1.2744,0.5713 -3.208,0.5713 z m 0.6592,-4.4165 q 1.5821,0 2.7905,-0.6812 1.2085,-0.6811 1.9776,-1.9336 l 0,-10.1293 q -0.2637,-0.4395 -0.7031,-0.879 -0.4395,-0.4394 -1.0547,-0.791 -0.5933,-0.3735 -1.3623,-0.5932 -0.7471,-0.2417 -1.648,-0.2417 -2.6367,0 -4.0869,1.9555 -1.4502,1.9336 -1.4502,5.647 0,1.6699 0.3735,3.0762 0.3956,1.3843 1.0987,2.417 0.7251,1.0107 1.7358,1.582 1.0327,0.5713 2.3291,0.5713 z"
         id="path4355"
         inkscape:connector-curvature="0" />
      <path
         d="m 1365.8585,1123.7605 q -2.395,0 -4.3286,-0.813 -1.9336,-0.835 -3.2959,-2.373 -1.3623,-1.5601 -2.1094,-3.8013 -0.7251,-2.2412 -0.7251,-5.0757 0,-2.8345 0.7471,-5.0537 0.7471,-2.2412 2.1094,-3.7793 1.3843,-1.5601 3.2959,-2.373 1.9336,-0.813 4.3066,-0.813 2.0435,0 3.8233,0.6591 1.8017,0.6373 3.1421,1.9776 1.3623,1.3183 2.1313,3.3398 0.791,2.0215 0.791,4.7681 0,0.7471 -0.044,1.582 -0.022,0.835 -0.1319,1.4502 l -15.4907,0 q 0.022,1.4282 0.5054,2.5708 0.5054,1.1206 1.3183,1.9336 0.813,0.791 1.8457,1.2305 1.0328,0.4175 2.1534,0.4175 1.4282,0 2.6367,-0.5933 1.2305,-0.5933 2.1313,-1.7358 l 3.0542,3.1421 q -1.2524,1.4941 -3.208,2.4169 -1.9555,0.9229 -4.6582,0.9229 z m 0,-19.9512 q -1.0986,0 -2.1094,0.3296 -1.0107,0.3076 -1.8017,1.0108 -0.7691,0.6811 -1.2744,1.8017 -0.5054,1.1206 -0.5933,2.7246 l 10.9863,0 q -0.044,-1.604 -0.5053,-2.7246 -0.4615,-1.1206 -1.2085,-1.8017 -0.7471,-0.7032 -1.6699,-1.0108 -0.9009,-0.3296 -1.8238,-0.3296 z"
         id="path4357"
         inkscape:connector-curvature="0" />
      <path
         d="m 1381.3712,1123.2112 0,-30.2783 4.6802,-2.2193 0,32.4976 -4.6802,0 z"
         id="path4359"
         inkscape:connector-curvature="0" />
      <path
         d="m 1403.212,1123.7605 q -1.0107,0 -1.8457,-0.1978 -0.813,-0.1977 -1.4941,-0.5493 -0.6812,-0.3515 -1.2305,-0.791 -0.5273,-0.4614 -0.9448,-0.9888 l 0,8.855 -4.6802,2.1753 0,-32.0581 4.6802,0 0,1.8457 q 0.9009,-1.0107 2.2192,-1.6919 1.3184,-0.6811 3.2959,-0.6811 2.1753,0 3.9331,0.8349 1.7579,0.813 2.9883,2.3731 1.2305,1.5381 1.8897,3.7793 0.6592,2.2412 0.6592,5.0757 0,2.8344 -0.7032,5.0756 -0.6811,2.2193 -1.9336,3.7793 -1.2304,1.5381 -2.9882,2.3511 -1.7359,0.813 -3.8453,0.813 z m -0.6591,-4.4165 q 2.6586,0 4.0429,-1.9556 1.4063,-1.9555 1.4063,-5.6469 0,-1.67 -0.3736,-3.0762 -0.3515,-1.4063 -1.0546,-2.417 -0.7032,-1.0108 -1.7139,-1.582 -1.0108,-0.5713 -2.3071,-0.5713 -1.648,0 -2.8785,0.6811 -1.2085,0.6592 -1.9775,1.9116 l 0,9.9976 q 0.3955,0.5273 0.8789,1.0107 0.5054,0.4834 1.0986,0.857 0.6153,0.3515 1.3184,0.5713 0.7251,0.2197 1.5601,0.2197 z"
         id="path4361"
         inkscape:connector-curvature="0" />
      <path
         d="m 1432.5455,1123.2112 0,-13.7329 q 0,-1.4502 -0.3515,-2.461 -0.3516,-1.0327 -0.9668,-1.6699 -0.6153,-0.6592 -1.4502,-0.9448 -0.835,-0.3076 -1.8238,-0.3076 -1.0546,0 -1.9555,0.2856 -0.9009,0.2637 -1.5601,0.8789 -0.6592,0.6153 -1.0547,1.648 -0.3735,1.0107 -0.3735,2.4829 l 0,13.8208 -4.6802,0 0,-30.3223 4.6802,-2.1753 0,11.7114 q 1.1206,-1.4282 2.5708,-2.0874 1.4502,-0.6591 3.3618,-0.6591 1.8018,0 3.3179,0.5273 1.5161,0.5054 2.6147,1.6699 1.1206,1.1646 1.7359,3.0323 0.6152,1.8676 0.6152,4.5703 l 0,13.7329 -4.6802,0 z"
         id="path4363"
         inkscape:connector-curvature="0" />
      <path
         d="m 1443.7736,1123.2112 0,-23.0054 4.6801,0 0,23.0054 -4.6801,0 z m 2.3291,-26.5869 q -0.5933,0 -1.1206,-0.2198 -0.5054,-0.2197 -0.9009,-0.5932 -0.3736,-0.3955 -0.5933,-0.9009 -0.2197,-0.5273 -0.2197,-1.1206 0,-0.5933 0.2197,-1.0986 0.2197,-0.5274 0.5933,-0.9009 0.3955,-0.3955 0.9009,-0.6153 0.5273,-0.2197 1.1206,-0.2197 0.5932,0 1.0986,0.2197 0.5273,0.2198 0.9009,0.6153 0.3955,0.3735 0.6152,0.9009 0.2197,0.5053 0.2197,1.0986 0,0.5933 -0.2197,1.1206 -0.2197,0.5054 -0.6152,0.9009 -0.3736,0.3735 -0.9009,0.5932 -0.5054,0.2198 -1.0986,0.2198 z"
         id="path4365"
         inkscape:connector-curvature="0" />
      <path
         d="m 1472.8654,1123.2112 -4.4825,0 0,-1.9776 q -0.4394,0.4615 -1.0547,0.9229 -0.6152,0.4394 -1.4062,0.813 -0.769,0.3515 -1.7358,0.5713 -0.9668,0.2197 -2.1094,0.2197 -1.7578,0 -3.252,-0.4834 -1.4941,-0.4834 -2.5927,-1.4502 -1.0987,-0.9888 -1.7359,-2.417 -0.6152,-1.4502 -0.6152,-3.3618 0,-1.9775 0.7471,-3.4058 0.747,-1.4502 1.9775,-2.373 1.2305,-0.9448 2.8125,-1.3843 1.604,-0.4394 3.2959,-0.4394 1.582,0 3.0322,0.3515 1.4722,0.3296 2.6367,1.0108 l 0,-1.2745 q 0,-1.2963 -0.3076,-2.1972 -0.2856,-0.9009 -0.9009,-1.4502 -0.5932,-0.5713 -1.5161,-0.813 -0.9228,-0.2637 -2.1972,-0.2637 -2.1534,0 -3.7354,0.5713 -1.5601,0.5713 -2.8345,1.5161 l -1.3842,-3.8452 q 0.7031,-0.4834 1.604,-0.9009 0.9008,-0.4394 1.9775,-0.769 1.0767,-0.3296 2.3291,-0.5054 1.2524,-0.1977 2.6807,-0.1977 0.9668,0 1.9995,0.1098 1.0327,0.1099 1.9995,0.4395 0.9888,0.3076 1.8457,0.9009 0.8789,0.5932 1.5161,1.56 0.6592,0.9448 1.0327,2.3291 0.3736,1.3843 0.3736,3.2959 l 0,14.8975 z m -9.9317,-3.6035 q 1.7798,0 3.1421,-0.7251 1.3843,-0.7251 2.3071,-1.7359 l 0,-3.5156 q -0.9668,-0.5054 -2.2631,-0.813 -1.2964,-0.3076 -2.6587,-0.3076 -1.0547,0 -1.9776,0.1978 -0.9228,0.1977 -1.626,0.6372 -0.6811,0.4174 -1.0766,1.0986 -0.3955,0.6592 -0.3955,1.604 0,1.6479 1.1426,2.6147 1.1645,0.9449 3.4057,0.9449 z"
         id="path4367"
         inkscape:connector-curvature="0" />
    </g>
  </g>
  <g
     inkscape:groupmode="layer"
     id="layer3"
     inkscape:label="Date"
     transform="translate(-1205.1993,-962.93916)">
    <g
       style="font-style:normal;font-variant:normal;font-weight:300;font-stretch:normal;font-size:15px;line-height:125%;font-family:Overpass;-inkscape-font-specification:'Overpass, Light';text-align:start;letter-spacing:0px;word-spacing:0px;writing-mode:lr-tb;text-anchor:start;fill:#222222;fill-opacity:1;stroke:none;stroke-width:1px;stroke-linecap:butt;stroke-linejoin:miter;stroke-opacity:1"
       id="text4313">
      <path
         d="m 2609.1059,2109.592 q 0.255,0.255 0.54,0.48 0.285,0.21 0.615,0.375 0.345,0.165 0.75,0.255 0.42,0.09 0.945,0.09 0.585,0 1.08,-0.21 0.51,-0.21 0.87,-0.555 0.375,-0.345 0.585,-0.81 0.21,-0.465 0.21,-0.975 0,-0.51 -0.18,-0.975 -0.165,-0.465 -0.48,-0.795 -0.3,-0.345 -0.735,-0.54 -0.435,-0.21 -0.96,-0.21 -0.48,0 -0.885,0.105 -0.39,0.09 -0.72,0.24 -0.315,0.135 -0.555,0.315 -0.24,0.18 -0.39,0.345 l -0.885,-0.27 0.855,-5.445 5.34,0 0,0.945 -4.5,0 -0.6,3.66 q 0.48,-0.435 1.11,-0.66 0.645,-0.225 1.305,-0.225 0.69,0 1.305,0.255 0.63,0.24 1.08,0.69 0.465,0.435 0.735,1.065 0.27,0.615 0.27,1.365 0,0.66 -0.255,1.305 -0.255,0.645 -0.75,1.155 -0.48,0.495 -1.2,0.81 -0.705,0.315 -1.605,0.315 -0.63,0 -1.185,-0.12 -0.555,-0.12 -1.005,-0.3 -0.45,-0.195 -0.795,-0.435 -0.33,-0.24 -0.525,-0.48 l 0.615,-0.765 z"
         id="path4328"
         inkscape:connector-curvature="0" />
      <path
         d="m 2628.2665,2111.512 -5.31,-8.535 0,8.535 -1.05,0 0,-10.5 1.065,0 5.31,8.655 0,-8.655 1.05,0 0,10.5 -1.065,0 z"
         id="path4330"
         inkscape:connector-curvature="0" />
      <path
         d="m 2635.0177,2110.747 q 1.05,0 1.62,-0.81 0.57,-0.81 0.57,-2.265 0,-1.44 -0.555,-2.25 -0.555,-0.81 -1.635,-0.81 -1.08,0 -1.635,0.795 -0.555,0.78 -0.555,2.28 0,1.44 0.555,2.25 0.555,0.81 1.635,0.81 z m 0,-7.08 q 0.735,0 1.335,0.27 0.615,0.27 1.035,0.78 0.435,0.51 0.675,1.26 0.24,0.735 0.24,1.695 0,0.945 -0.24,1.695 -0.24,0.75 -0.675,1.275 -0.42,0.51 -1.035,0.78 -0.6,0.27 -1.335,0.27 -0.735,0 -1.35,-0.27 -0.6,-0.27 -1.035,-0.78 -0.42,-0.51 -0.66,-1.245 -0.24,-0.75 -0.24,-1.71 0,-0.945 0.24,-1.68 0.24,-0.75 0.66,-1.26 0.435,-0.525 1.035,-0.795 0.615,-0.285 1.35,-0.285 z"
         id="path4332"
         inkscape:connector-curvature="0" />
      <path
         d="m 2642.87,2111.512 -0.735,0 -2.805,-7.665 1.08,0 2.13,5.985 2.085,-5.985 1.05,0 -2.805,7.665 z"
         id="path4334"
         inkscape:connector-curvature="0" />
      <path
         d="m 2650.8106,2111.512 q 0,-0.99 0.285,-1.695 0.285,-0.72 0.735,-1.26 0.45,-0.54 1.02,-0.945 0.57,-0.405 1.14,-0.795 0.495,-0.33 0.945,-0.645 0.45,-0.33 0.795,-0.69 0.36,-0.36 0.57,-0.765 0.21,-0.42 0.21,-0.93 0,-0.855 -0.6,-1.425 -0.585,-0.585 -1.68,-0.585 -1.065,0 -1.605,0.48 -0.54,0.465 -0.735,1.215 l -0.93,-0.42 q 0.12,-0.465 0.405,-0.87 0.285,-0.405 0.72,-0.705 0.435,-0.3 0.99,-0.465 0.57,-0.18 1.245,-0.18 1.56,0 2.415,0.81 0.87,0.795 0.87,2.145 0,0.72 -0.285,1.275 -0.27,0.555 -0.72,1.02 -0.435,0.45 -0.99,0.84 -0.555,0.375 -1.125,0.735 -0.45,0.3 -0.87,0.6 -0.42,0.285 -0.78,0.63 -0.345,0.33 -0.585,0.735 -0.24,0.39 -0.33,0.885 l 5.775,0 0,1.005 -6.885,0 z"
         id="path4336"
         inkscape:connector-curvature="0" />
      <path
         d="m 2663.3897,2111.692 q -1.035,0 -1.725,-0.48 -0.69,-0.48 -1.11,-1.245 -0.405,-0.78 -0.585,-1.74 -0.18,-0.975 -0.18,-1.965 0,-0.54 0.06,-1.155 0.06,-0.63 0.21,-1.23 0.165,-0.6 0.42,-1.155 0.27,-0.555 0.675,-0.975 0.405,-0.42 0.945,-0.66 0.555,-0.255 1.29,-0.255 1.035,0 1.725,0.495 0.69,0.48 1.095,1.26 0.42,0.78 0.6,1.755 0.18,0.96 0.18,1.92 0,0.555 -0.075,1.17 -0.06,0.615 -0.225,1.23 -0.15,0.6 -0.42,1.155 -0.255,0.54 -0.66,0.96 -0.405,0.42 -0.96,0.675 -0.54,0.24 -1.26,0.24 z m 0,-0.945 q 0.78,0 1.26,-0.42 0.495,-0.435 0.765,-1.095 0.27,-0.66 0.36,-1.455 0.09,-0.795 0.09,-1.515 0,-0.81 -0.105,-1.605 -0.105,-0.81 -0.39,-1.44 -0.285,-0.645 -0.765,-1.035 -0.48,-0.405 -1.215,-0.405 -0.795,0 -1.29,0.435 -0.48,0.435 -0.75,1.095 -0.27,0.66 -0.375,1.455 -0.09,0.78 -0.09,1.5 0,0.825 0.105,1.635 0.105,0.795 0.39,1.44 0.285,0.63 0.765,1.02 0.495,0.39 1.245,0.39 z"
         id="path4338"
         inkscape:connector-curvature="0" />
      <path
         d="m 2670.4119,2111.512 0,-8.595 -1.785,0 0,-0.6 q 0.795,0 1.35,-0.27 0.555,-0.285 0.81,-1.035 l 0.675,0 0,10.5 -1.05,0 z"
         id="path4340"
         inkscape:connector-curvature="0" />
      <path
         d="m 2675.4966,2111.512 q 0.015,-1.23 0.15,-2.43 0.15,-1.2 0.51,-2.385 0.375,-1.185 0.99,-2.37 0.615,-1.2 1.575,-2.415 l -5.085,0 0,-0.9 6.285,0 0,0.69 q -1.095,1.26 -1.755,2.595 -0.66,1.32 -1.02,2.61 -0.36,1.275 -0.48,2.46 -0.12,1.185 -0.12,2.145 l -1.05,0 z"
         id="path4342"
         inkscape:connector-curvature="0" />
    </g>
  </g>
</svg>
