<?xml version="1.0" encoding="UTF-8" standalone="no"?>
<!-- Created with Inkscape (http://www.inkscape.org/) -->

<svg
   xmlns:dc="http://purl.org/dc/elements/1.1/"
   xmlns:cc="http://creativecommons.org/ns#"
   xmlns:rdf="http://www.w3.org/1999/02/22-rdf-syntax-ns#"
   xmlns:svg="http://www.w3.org/2000/svg"
   xmlns="http://www.w3.org/2000/svg"
   xmlns:sodipodi="http://sodipodi.sourceforge.net/DTD/sodipodi-0.dtd"
   xmlns:inkscape="http://www.inkscape.org/namespaces/inkscape"
   width="2038.4329"
   height="572.93683"
   viewBox="0 0 2038.4329 572.93684"
   id="svg2"
   version="1.1"
   inkscape:version="0.92.4 (5da689c313, 2019-01-14)"
   sodipodi:docname="PHX.svg"
   inkscape:export-filename="C:\Users\paulb\Dropbox\Projects\Terminal Silhouettes\Silhouettes\png\PHX.png"
   inkscape:export-xdpi="90"
   inkscape:export-ydpi="90">
  <defs
     id="defs4" />
  <sodipodi:namedview
     id="base"
     pagecolor="#ffffff"
     bordercolor="#666666"
     borderopacity="1.0"
     inkscape:pageopacity="1"
     inkscape:pageshadow="2"
     inkscape:zoom="0.5"
     inkscape:cx="517.40412"
     inkscape:cy="249.91854"
     inkscape:document-units="px"
     inkscape:current-layer="layer2"
     showgrid="false"
     units="px"
     fit-margin-top="25"
     fit-margin-left="25"
     fit-margin-right="25"
     fit-margin-bottom="25"
     inkscape:window-width="1920"
     inkscape:window-height="1137"
     inkscape:window-x="1912"
     inkscape:window-y="-8"
     inkscape:window-maximized="1" />
  <metadata
     id="metadata7">
    <rdf:RDF>
      <cc:Work
         rdf:about="">
        <dc:format>image/svg+xml</dc:format>
        <dc:type
           rdf:resource="http://purl.org/dc/dcmitype/StillImage" />
        <dc:title />
      </cc:Work>
    </rdf:RDF>
  </metadata>
  <g
     inkscape:groupmode="layer"
     id="layer2"
     inkscape:label="Terminal"
     transform="translate(-409.22668,-174.53329)">
    <path
       id="path4139"
       style="fill:#dddddd;fill-opacity:1;fill-rule:evenodd;stroke:#222222;stroke-width:1.5;stroke-linecap:butt;stroke-linejoin:miter;stroke-miterlimit:4;stroke-dasharray:none;stroke-opacity:1"
       d="m 1677.0007,199.90149 0.9252,167.28068 12.398,-0.18504 -0.185,9.62234 -10.3626,0.18504 -0.185,7.58685 9.8074,0 0,8.69711 -1.8505,0.18505 0.1851,10.54756 215.2073,1.11027 0,164.8751 4.4671,0.006 0.1316,10.85983 0.7849,0 0.1302,5.23475 -3.7949,0 0.1316,10.59816 3.9249,0 -0.3918,23.94453 2.0934,0 -0.1316,5.49642 -3.14,0 0,8.37328 3.2716,0 0.3918,38.07735 6.2814,-0.26166 0,3.92497 21.7196,0.13011 -0.1301,-3.92497 10.9914,-0.13011 -0.3932,-10.20639 3.6633,0 -0.1301,-7.8514 -3.6634,-0.13011 -0.2616,-37.81424 2.2234,0.39178 -0.2616,-34.67426 -5.8882,-0.13011 0,3.79343 -3.0084,-0.26167 -0.1316,-4.97164 2.8783,0.13011 0,-10.72827 6.6732,0 0.2617,2.35499 173.111,-0.13156 -0.1315,-2.22343 8.3747,0 0,2.74676 4.055,0.13156 -0.13,-2.61665 8.113,0.13011 0.5233,93.81781 33.2344,0.13011 0,-84.65809 -13.8697,0.13156 0,-9.42139 221.6536,0.13155 0.1316,9.81317 -9.5515,0 0.7849,83.87309 33.3659,0 -0.9165,-79.68645 4.7114,-0.13011 -0.7864,-25.38441 -13.0833,0.1301 -1.4399,-155.05325 19.4962,-0.13011 -0.3931,-35.85247 3.403,0.13156 0,-9.15973 -5.2347,-0.1301 0,-1.43989 -5.6265,-0.13155 -1.0467,-155.7067 -32.5809,0 -0.3918,74.58181 -3.7949,0.13156 -0.1315,6.54163 3.7948,-0.13011 0.5234,48.80562 -3.14,0.13156 0.1315,5.75663 3.14,-0.13156 0,21.45944 -3.6633,0.26166 -0.2616,6.80475 4.055,0 -0.5233,19.75789 9.6831,-0.39322 0,8.63639 -216.1586,-0.39322 c -0.1778,-0.63642 -0.1778,-8.03803 -0.1778,-8.03803 l 5.7364,0.18504 0,-8.51207 -6.6617,0 0.3701,-9.62234 7.4018,0.37009 1.2953,-167.09563 -33.3081,0.37009 -1.2953,165.98536 11.1027,0.37009 0,9.99243 -7.2167,0 0,9.4373 5.3663,0 0,6.84666 -215.2074,-0.18504 0.3701,-8.32703 5.3663,0 0.1851,-8.32702 -5.7364,0.18504 0.3701,-9.99243 6.4766,-0.37009 1.2953,-166.17041 -34.2334,0 -0.37,111.95223 -3.7009,0.18504 0,8.14198 4.8111,-0.18504 -0.7402,46.26125 11.1027,0 -0.37,9.62234 -6.2916,0.18504 0,8.32703 4.9962,-0.18505 -0.3701,9.06721 -218.9082,-0.74018 0,-8.32703 7.7719,0 0,-7.77189 -6.1065,-0.18504 0.1851,-9.62234 12.7681,-0.18505 -0.7402,-166.72554 -39.5996,-0.18505 z m 708.1672,204.10464 1.8504,156.17798 -128.4212,-0.18505 -6.8467,-11.28774 -56.2537,0 0.1851,-140.6342 6.6616,0 0,7.4018 38.4894,0.55513 0.185,-11.84288 144.1501,-0.18504 z m -1336.3017,-15.62596 0.025,6.79991 1.7993,-0.0164 -0.033,56.77097 -68.85786,0.1144 -0.13156,3.27154 -8.24318,-0.13011 0,5.88819 4.05653,0.13011 0,5.62653 4.18665,0 -0.13011,29.83272 -4.18809,0 0.13155,7.06641 -4.05653,0 0,4.97163 6.80474,0.13156 -0.39322,42.52421 -92.1163,-0.78437 -50.63727,-73.40481 30.71602,-0.0737 -0.18504,-12.21297 -1.66541,-0.18504 0,-11.01018 4.81117,-0.0925 0,-3.79343 3.79343,0 -0.18505,-47.18647 -3.7009,0 0,-3.97847 -47.46404,0.0925 -0.0925,3.7009 -3.60838,0.0925 -0.18505,28.03431 3.7009,0 0,3.42334 7.67937,0 0.0925,1.75792 -7.86441,0.0925 -0.18504,18.04188 13.97089,0.0925 0,-12.76811 1.24906,0.0463 -0.13879,23.45446 -217.94398,0.17203 -0.13155,-4.70997 24.59943,0 -0.26167,-43.1791 -16.61936,0.15324 -0.133,-12.66979 21.06188,-0.0853 0.25444,11.34268 -2.97229,-0.006 0.0448,2.37667 52.79565,0.19661 -0.39178,-21.58955 1.17678,0 0,-9.68306 -2.87832,0 0.13156,-5.10319 -3.14143,0 -0.39178,-2.87832 -191.82078,1.4e-4 0,4.70998 -9.68306,0.13155 0,1.70155 -56.91869,0.13011 0.26167,55.3487 57.44201,0.39177 -0.26166,-42.3941 32.31926,0 0.26167,5.49497 65.29197,0.52333 0.26167,13.08471 -28.37406,-0.0361 -0.16914,9.23345 -5.62652,0.13155 -15.02768,31.6268 17.40146,10.07483 42.13243,0 0,12.43127 -1.56999,10.20494 -0.9151,10.86128 -8.6364,-0.91656 -3.13999,29.83273 4.84154,0.52332 -0.52333,4.25315 3.13998,0.39177 -4.03196,38.95485 -18.78207,-2.12802 -2.22054,22.48297 13.1382,1.29531 -4.25604,36.73143 3.88595,0.55514 -1.66541,14.8036 -6.47657,-0.74018 -3.23829,28.95954 -6.10649,-0.64766 -0.55513,5.45883 -5.92144,-0.74018 -1.29532,9.99243 6.10649,0.92523 -2.22054,21.0026 45.2435,5.08874 4.25604,-44.4108 -4.53361,-0.46261 -0.92522,7.86441 -6.93919,-0.92522 5.82892,-55.69855 8.32702,1.01775 0.27757,-5.18126 -8.04946,-0.92523 0.46262,-5.27378 -1.11027,0 8.69711,-80.21701 16.00639,2.12802 2.8682,-30.4399 -11.56531,-1.11027 0.18504,-1.11027 3.60838,0.37009 0.27757,-2.77568 -5.27378,-0.55513 -0.46262,3.7009 -1.11027,-0.0925 1.48036,-15.17369 4.71865,0.55513 1.01775,-9.52982 -4.5336,-0.37009 0.0925,-10.45504 121.66709,-0.0925 -0.27757,7.12423 87.9889,0.55514 49.86962,72.35259 -13.50828,0 0,13.32324 2.59063,0.0925 0.0925,-8.60459 8.32703,0.13879 0,12.07418 -4.9037,-0.0925 0,-2.0355 -5.3663,0 0,4.9037 10.45504,0.18504 0.0463,2.45185 123.93389,0.27757 -0.27757,-20.86383 -8.51207,-0.18504 0.18505,-40.52486 60.87979,0.37009 -0.7402,59.95458 -2.4056,0 0,3.88595 -7.7719,0 -0.185,9.43729 -5.1813,0.18505 0.3701,137.30339 41.08,0.18504 0,-137.67348 -11.6578,-0.18504 0,-9.06721 0.6476,-0.0925 0.093,-3.97847 -3.6084,0 0.5725,-60.16998 76.0217,-0.26167 0.7849,-58.48867 -76.4469,-0.14729 -0.2943,-56.80386 2.5843,-0.0164 0.098,-6.82046 -4.0317,-0.004 0.1012,-10.59908 15.1486,0.13033 0.1012,-174.94239 -40.4612,-5.1e-4 -0.4222,175.20305 14.756,-0.13136 0.232,10.33636 z m -207.89885,61.51712 0.8327,0.0463 0,3.42333 1.94297,0.0463 0,6.29153 6.43032,0.0463 -0.0463,-4.57986 -2.0355,0 0,-1.66541 13.04567,0.0925 0,11.1027 -20.26242,-0.18505 z"
       inkscape:connector-curvature="0" />
  </g>
  <g
     inkscape:groupmode="layer"
     id="layer1"
     inkscape:label="Label"
     transform="translate(-9.063793e-5,-8.4975392e-5)">
    <g
       id="g4154"
       transform="translate(99.999999,169.63926)">
      <g
         style="font-style:normal;font-variant:normal;font-weight:bold;font-stretch:normal;font-size:125px;line-height:110.00000238%;font-family:Overpass;-inkscape-font-specification:'Overpass, Bold';text-align:center;letter-spacing:0px;word-spacing:0px;writing-mode:lr-tb;text-anchor:middle;fill:#dddddd;fill-opacity:1;stroke:#222222;stroke-width:0.25;stroke-linecap:butt;stroke-linejoin:miter;stroke-miterlimit:4;stroke-dasharray:none;stroke-opacity:1"
         id="text4146">
        <path
           d="m 790.29596,330.12567 0,-87.52441 37.53662,0 q 8.30078,0 13.97705,2.4414 5.67627,2.38037 9.21631,6.34766 3.54004,3.90625 5.06592,8.8501 1.58691,4.94385 1.58691,10.00976 0,3.17383 -0.73242,6.46973 -0.73242,3.23486 -2.2583,6.34766 -1.52588,3.05175 -3.90625,5.7373 -2.38037,2.68555 -5.73731,4.76074 -3.29589,2.01416 -7.62939,3.17383 -4.27246,1.15967 -9.58252,1.15967 l -20.62988,0 0,32.22656 -16.90674,0 z M 828.565,281.84686 q 3.23487,0 5.43213,-1.03759 2.19727,-1.0376 3.54004,-2.68555 1.40381,-1.64795 2.01416,-3.72315 0.61035,-2.07519 0.61035,-4.15039 0,-1.89209 -0.54931,-3.90625 -0.48829,-2.07519 -1.83106,-3.78418 -1.28174,-1.70898 -3.54004,-2.80761 -2.2583,-1.09864 -5.67627,-1.09864 l -21.3623,0 0,23.19336 21.3623,0 z"
           style=""
           id="path4141" />
        <path
           d="m 927.56403,330.12567 0,-36.9873 -36.6211,0 0,36.9873 -16.90674,0 0,-87.52441 16.90674,0 0,34.5459 36.6211,0 0,-34.5459 16.8457,0 0,87.52441 -16.8457,0 z"
           style=""
           id="path4143" />
        <path
           d="m 1018.8116,330.12567 -18.4937,-29.35791 -18.49362,29.35791 -19.77539,0 28.38135,-45.10498 -26.61133,-42.41943 19.77539,0 16.7236,26.79443 16.7847,-26.79443 19.7144,0 -26.6114,42.41943 28.3814,45.10498 -19.7754,0 z"
           style=""
           id="path4145" />
      </g>
      <g
         style="font-style:normal;font-variant:normal;font-weight:normal;font-stretch:normal;font-size:45px;line-height:110.00000238%;font-family:Overpass;-inkscape-font-specification:'Overpass, Normal';text-align:center;letter-spacing:0px;word-spacing:0px;writing-mode:lr-tb;text-anchor:middle;fill:#222222;fill-opacity:1;stroke:none;stroke-width:1px;stroke-linecap:butt;stroke-linejoin:miter;stroke-opacity:1"
         id="text4150">
        <path
           d="m 834.65875,377.74835 0,-31.50879 12.65625,0 q 2.90039,0 4.87793,0.85694 1.99951,0.83496 3.20801,2.19726 1.23047,1.36231 1.75781,3.09815 0.54932,1.71386 0.54932,3.49365 0,1.09863 -0.26367,2.24121 -0.2417,1.14258 -0.76905,2.21924 -0.52734,1.05469 -1.3623,1.99951 -0.83496,0.94482 -1.99951,1.64795 -1.14258,0.70312 -2.63672,1.1206 -1.49414,0.39551 -3.36182,0.39551 l -7.97607,0 0,12.23877 -4.68018,0 z m 12.91992,-16.74316 q 1.47217,0 2.46094,-0.46143 1.01074,-0.46142 1.62598,-1.18652 0.63721,-0.74707 0.90088,-1.64795 0.28564,-0.92285 0.28564,-1.82373 0,-0.83496 -0.2417,-1.73584 -0.2417,-0.90088 -0.83496,-1.64795 -0.59326,-0.76904 -1.62597,-1.25244 -1.01075,-0.50537 -2.57081,-0.50537 l -8.23974,0 0,10.26123 8.23974,0 z"
           style=""
           id="path4148" />
        <path
           d="m 877.1319,377.74835 0,-13.73291 q 0,-1.45019 -0.35157,-2.46094 -0.35156,-1.03271 -0.96679,-1.66992 -0.61524,-0.65918 -1.4502,-0.94482 -0.83496,-0.30762 -1.82373,-0.30762 -1.05469,0 -1.95556,0.28565 -0.90088,0.26367 -1.56006,0.8789 -0.65918,0.61524 -1.05469,1.64795 -0.37354,1.01074 -0.37354,2.48291 l 0,13.8208 -4.68017,0 0,-30.32226 4.68017,-2.1753 0,11.71143 q 1.12061,-1.42822 2.5708,-2.0874 1.4502,-0.65918 3.36182,-0.65918 1.80176,0 3.31787,0.52734 1.51612,0.50537 2.61475,1.66992 1.1206,1.16455 1.73584,3.03223 0.61523,1.86768 0.61523,4.57031 l 0,13.73291 -4.68017,0 z"
           style=""
           id="path4150" />
        <path
           d="m 897.67633,378.29767 q -2.41699,0 -4.37256,-0.81299 -1.93359,-0.81299 -3.2959,-2.35107 -1.3623,-1.56006 -2.10937,-3.7793 -0.7251,-2.24121 -0.7251,-5.07568 0,-2.83448 0.7251,-5.07569 0.74707,-2.24121 2.10937,-3.77929 1.36231,-1.56006 3.2959,-2.37305 1.95557,-0.83496 4.37256,-0.83496 2.39502,0 4.35059,0.83496 1.95556,0.81299 3.31787,2.37305 1.3623,1.53808 2.10937,3.77929 0.74707,2.24121 0.74707,5.07569 0,2.83447 -0.74707,5.07568 -0.74707,2.21924 -2.10937,3.7793 -1.36231,1.53808 -3.31787,2.35107 -1.95557,0.81299 -4.35059,0.81299 z m 0,-4.41651 q 1.34033,0 2.41699,-0.52734 1.09864,-0.52734 1.84571,-1.49414 0.76904,-0.98877 1.16455,-2.39502 0.41748,-1.40625 0.41748,-3.18603 0,-1.77979 -0.41748,-3.18604 -0.39551,-1.42822 -1.16455,-2.41699 -0.74707,-0.98877 -1.84571,-1.51612 -1.07666,-0.52734 -2.41699,-0.52734 -1.34033,0 -2.41699,0.52734 -1.07666,0.52735 -1.8457,1.51612 -0.74708,0.98877 -1.16456,2.41699 -0.3955,1.40625 -0.3955,3.18604 0,1.77978 0.3955,3.18603 0.41748,1.40625 1.16456,2.39502 0.76904,0.9668 1.8457,1.49414 1.07666,0.52734 2.41699,0.52734 z"
           style=""
           id="path4152" />
        <path
           d="m 923.12067,378.29767 q -2.39502,0 -4.32862,-0.81299 -1.93359,-0.83496 -3.2959,-2.37305 -1.3623,-1.56006 -2.10937,-3.80127 -0.7251,-2.24121 -0.7251,-5.07568 0,-2.83447 0.74707,-5.05371 0.74707,-2.24121 2.10938,-3.7793 1.38427,-1.56006 3.2959,-2.37304 1.93359,-0.81299 4.30664,-0.81299 2.04345,0 3.82324,0.65918 1.80176,0.6372 3.14209,1.97754 1.3623,1.31836 2.13135,3.33984 0.79101,2.02148 0.79101,4.76807 0,0.74707 -0.0439,1.58203 -0.022,0.83496 -0.13184,1.45019 l -15.49072,0 q 0.022,1.42823 0.50537,2.5708 0.50537,1.12061 1.31836,1.9336 0.81299,0.79101 1.8457,1.23047 1.03272,0.41748 2.15332,0.41748 1.42822,0 2.63672,-0.59327 1.23047,-0.59326 2.13135,-1.73584 l 3.0542,3.14209 q -1.25244,1.49415 -3.20801,2.417 -1.95557,0.92285 -4.6582,0.92285 z m 0,-19.95117 q -1.09864,0 -2.10938,0.32959 -1.01074,0.30761 -1.80176,1.01074 -0.76904,0.68115 -1.27441,1.80176 -0.50537,1.1206 -0.59326,2.72461 l 10.98633,0 q -0.0439,-1.60401 -0.50538,-2.72461 -0.46142,-1.12061 -1.20849,-1.80176 -0.74707,-0.70313 -1.66992,-1.01074 -0.90088,-0.32959 -1.82373,-0.32959 z"
           style=""
           id="path4154" />
        <path
           d="m 952.62994,377.74835 0,-13.73291 q 0,-1.45019 -0.35156,-2.46094 -0.35156,-1.03271 -0.9668,-1.66992 -0.61523,-0.65918 -1.45019,-0.94482 -0.83496,-0.30762 -1.82373,-0.30762 -1.05469,0 -1.95557,0.28565 -0.90088,0.26367 -1.56006,0.8789 -0.65918,0.61524 -1.05468,1.64795 -0.37354,1.01074 -0.37354,2.48291 l 0,13.8208 -4.68017,0 0,-23.00537 4.68017,0 0,2.21924 q 1.12061,-1.42822 2.5708,-2.0874 1.4502,-0.65918 3.36182,-0.65918 1.80176,0 3.31787,0.52734 1.51611,0.50537 2.61475,1.66992 1.1206,1.16455 1.73584,3.03223 0.61523,1.86768 0.61523,4.57031 l 0,13.73291 -4.68018,0 z"
           style=""
           id="path4156" />
        <path
           d="m 963.85797,377.74835 0,-23.00537 4.68018,0 0,23.00537 -4.68018,0 z m 2.3291,-26.58691 q -0.59326,0 -1.1206,-0.21973 -0.50537,-0.21973 -0.90088,-0.59326 -0.37354,-0.39551 -0.59326,-0.90088 -0.21973,-0.52734 -0.21973,-1.1206 0,-0.59327 0.21973,-1.09864 0.21972,-0.52734 0.59326,-0.90088 0.39551,-0.3955 0.90088,-0.61523 0.52734,-0.21973 1.1206,-0.21973 0.59326,0 1.09864,0.21973 0.52734,0.21973 0.90087,0.61523 0.39551,0.37354 0.61524,0.90088 0.21973,0.50537 0.21973,1.09864 0,0.59326 -0.21973,1.1206 -0.21973,0.50537 -0.61524,0.90088 -0.37353,0.37353 -0.90087,0.59326 -0.50538,0.21973 -1.09864,0.21973 z"
           style=""
           id="path4158" />
        <path
           d="m 988.86285,377.74835 -3.82324,-5.93262 q -0.37353,-0.57128 -0.65918,-1.09863 -0.26367,-0.54931 -0.50537,-0.98877 -0.21973,0.43946 -0.52734,0.98877 -0.28565,0.52735 -0.65918,1.09863 l -3.82324,5.93262 -5.33936,0 7.64648,-11.9751 -7.03125,-11.03027 5.36133,0 3.18604,5.00977 q 0.37353,0.61523 0.65918,1.1206 0.30761,0.50537 0.52734,0.94483 0.2417,-0.43946 0.50537,-0.9668 0.28565,-0.52734 0.65918,-1.09863 l 3.18604,-5.00977 5.36133,0 -7.05323,11.03027 7.69043,11.9751 -5.36133,0 z"
           style=""
           id="path4160" />
      </g>
    </g>
  </g>
</svg>
