<?xml version="1.0" encoding="UTF-8" standalone="no"?>
<!-- Created with Inkscape (http://www.inkscape.org/) -->

<svg
   xmlns:dc="http://purl.org/dc/elements/1.1/"
   xmlns:cc="http://creativecommons.org/ns#"
   xmlns:rdf="http://www.w3.org/1999/02/22-rdf-syntax-ns#"
   xmlns:svg="http://www.w3.org/2000/svg"
   xmlns="http://www.w3.org/2000/svg"
   xmlns:sodipodi="http://sodipodi.sourceforge.net/DTD/sodipodi-0.dtd"
   xmlns:inkscape="http://www.inkscape.org/namespaces/inkscape"
   width="469.01453"
   height="297.48923"
   viewBox="0 0 469.01453 297.48923"
   id="svg2"
   version="1.1"
   inkscape:version="0.92.4 (5da689c313, 2019-01-14)"
   sodipodi:docname="PIA.svg"
   inkscape:export-filename="C:\Users\paulb\Dropbox\Projects\Terminal Silhouettes\Silhouettes\png\PIA.png"
   inkscape:export-xdpi="90"
   inkscape:export-ydpi="90">
  <sodipodi:namedview
     id="base"
     pagecolor="#ffffff"
     bordercolor="#666666"
     borderopacity="1.0"
     inkscape:pageopacity="1"
     inkscape:pageshadow="2"
     inkscape:zoom="0.98994949"
     inkscape:cx="-32.355279"
     inkscape:cy="192.56536"
     inkscape:document-units="px"
     inkscape:current-layer="layer3"
     showgrid="false"
     units="px"
     fit-margin-top="25"
     fit-margin-left="25"
     fit-margin-right="25"
     fit-margin-bottom="25"
     showguides="true"
     inkscape:guide-bbox="true"
     inkscape:object-nodes="true"
     inkscape:window-width="1920"
     inkscape:window-height="1137"
     inkscape:window-x="1912"
     inkscape:window-y="-8"
     inkscape:window-maximized="1" />
  <defs
     id="defs4" />
  <metadata
     id="metadata7">
    <rdf:RDF>
      <cc:Work
         rdf:about="">
        <dc:format>image/svg+xml</dc:format>
        <dc:type
           rdf:resource="http://purl.org/dc/dcmitype/StillImage" />
        <dc:title />
        <dc:description>Terminal silhouette of PIA (Peoria)</dc:description>
      </cc:Work>
    </rdf:RDF>
  </metadata>
  <g
     inkscape:label="Terminal"
     id="layer2"
     inkscape:groupmode="layer"
     transform="translate(-571.3274,-272.94583)">
    <path
       id="rect4154"
       d="m 649.7517,365.61072 -9.90815,16.96781 1.42281,0.83142 -12.20982,20.90904 45.54439,26.59596 -8.90284,15.24585 -5.85635,-3.41953 -5.19522,8.89655 -25.18396,-14.70649 0.86299,-1.47762 -20.90009,-12.20485 -12.04517,12.93041 c 1.47464,1.41273 2.95826,2.79666 4.44649,4.16317 l -1.11352,1.22605 1.12596,1.02286 -0.29769,0.32825 1.73592,1.57644 1.41434,-1.55713 c 3.30922,2.9589 6.64364,5.80693 9.99016,8.54549 l -1.24381,1.55984 1.18991,0.94854 -0.27658,0.34642 1.83366,1.46235 1.50466,-1.88713 c 4.17924,3.33351 8.36857,6.50127 12.54209,9.5052 l -0.9546,1.39182 1.25487,0.86039 -0.25067,0.36564 1.93421,1.32628 1.16765,-1.70247 c 5.07025,3.55939 10.10285,6.87601 15.05196,9.96942 l -1.28705,2.20426 17.84333,10.42001 1.27959,-2.19083 c 4.99882,2.73135 9.82871,5.21731 14.42481,7.46599 l -0.70711,1.43496 1.36462,0.67315 -0.19645,0.39759 2.10388,1.03725 0.91894,-1.86382 c 5.01312,2.38615 9.71838,4.48488 14.0198,6.30641 l -0.66795,1.49674 1.38934,0.61985 -0.18063,0.40557 2.14132,0.95561 0.89036,-1.99453 c 5.99811,2.45849 11.06743,4.33666 14.93448,5.68369 l -0.39118,1.29839 1.45694,0.43944 -0.12809,0.4246 2.24532,0.67779 0.48116,-1.59484 c 3.06112,1.00848 4.74812,1.48371 4.74812,1.48372 l 8.0152,2.1338 2.07022,-6.93865 -7.7098,-2.58432 1.52352,-4.73739 28.37383,16.56865 13.30591,2.91333 -3.08276,14.07976 6.76454,1.48109 -0.27795,1.26949 3.37125,0.73813 0.27795,-1.26948 21.73787,4.75949 -0.27798,1.26949 3.37125,0.73813 0.27797,-1.26948 18.16982,3.97827 1.84061,-8.40658 -2.39916,-0.52529 4.79305,-21.89111 -8.14367,-1.78305 -0.46016,2.10176 -17.33754,-3.79604 1.30379,-5.95476 -12.60963,-2.76087 -1.3038,5.95476 -7.44307,-1.62966 -2.12812,9.71964 -5.48164,-1.20021 -0.21347,0.97499 -12.50476,-2.73792 -28.79999,-16.81803 0.13017,-0.40658 -1.8524,0.21618 -0.17388,-2.96473 -18.42316,-10.75823 -0.86261,1.47821 -26.50811,-15.47968 3.18085,-5.44693 2.01437,-3.44962 0.53958,-0.92415 -6.26652,-3.65939 9.7699,-16.7306 19.2338,11.2318 -0.83142,1.42281 26.60202,15.53436 11.63423,-19.92352 2.29854,1.34232 2.30157,-3.94076 1.97019,1.15049 4.66686,-7.99152 -1.97067,-1.15059 2.94078,-5.0358 -45.97331,-26.84645 3.19624,-5.47367 -18.61003,-10.86739 -3.19623,5.47366 -46.20119,-26.97914 z"
       style="opacity:1;fill:#dddddd;fill-opacity:1;stroke:#222222;stroke-width:1.5;stroke-linejoin:miter;stroke-miterlimit:4;stroke-dasharray:none;stroke-dashoffset:0;stroke-opacity:1"
       inkscape:connector-curvature="0" />
  </g>
  <g
     inkscape:groupmode="layer"
     id="layer3"
     inkscape:label="Label"
     transform="translate(-571.3274,-272.94583)">
    <g
       style="font-style:normal;font-variant:normal;font-weight:bold;font-stretch:normal;font-size:125px;line-height:125%;font-family:Overpass;-inkscape-font-specification:'Overpass, Bold';text-align:start;letter-spacing:0px;word-spacing:0px;writing-mode:lr-tb;text-anchor:start;fill:#dddddd;fill-opacity:1;stroke:#222222;stroke-width:0.25;stroke-linecap:butt;stroke-linejoin:miter;stroke-miterlimit:4;stroke-dasharray:none;stroke-opacity:1"
       id="text4329">
      <path
         d="m 813.8009,385.59525 0,-87.52442 37.53662,0 q 8.30079,0 13.97706,2.44141 5.67626,2.38037 9.2163,6.34765 3.54004,3.90625 5.06592,8.8501 1.58692,4.94385 1.58692,10.00977 0,3.17383 -0.73243,6.46972 -0.73242,3.23487 -2.2583,6.34766 -1.52588,3.05176 -3.90625,5.7373 -2.38037,2.68555 -5.7373,4.76075 -3.2959,2.01416 -7.6294,3.17382 -4.27246,1.15967 -9.58252,1.15967 l -20.62988,0 0,32.22657 -16.90674,0 z m 38.26905,-48.27881 q 3.23486,0 5.43213,-1.0376 2.19726,-1.0376 3.54003,-2.68555 1.40381,-1.64795 2.01416,-3.72314 0.61036,-2.0752 0.61036,-4.15039 0,-1.89209 -0.54932,-3.90625 -0.48828,-2.0752 -1.83106,-3.78418 -1.28173,-1.70899 -3.54003,-2.80762 -2.2583,-1.09863 -5.67627,-1.09863 l -21.36231,0 0,23.19336 21.36231,0 z"
         style=""
         id="path4383" />
      <path
         d="m 898.21252,385.59525 0,-87.52442 16.84571,0 0,87.52442 -16.84571,0 z"
         style=""
         id="path4385" />
      <path
         d="m 997.08948,385.59525 -6.7749,-18.12745 -33.75245,0 -6.71386,18.12745 -18.12744,0 33.5083,-87.52442 16.47949,0 33.50828,87.52442 -18.12742,0 z m -20.87403,-56.27442 q -0.67138,-1.58691 -1.46484,-3.78418 -0.73242,-2.19726 -1.28174,-4.08935 -0.48828,1.89209 -1.28174,4.08935 -0.79345,2.19727 -1.46484,3.78418 l -8.66699,22.76611 22.76611,0 -8.60596,-22.76611 z"
         style=""
         id="path4387" />
    </g>
    <g
       style="font-style:normal;font-variant:normal;font-weight:normal;font-stretch:normal;font-size:45px;line-height:125%;font-family:Overpass;-inkscape-font-specification:'Overpass, Normal';text-align:start;letter-spacing:0px;word-spacing:0px;writing-mode:lr-tb;text-anchor:start;fill:#222222;fill-opacity:1;stroke:none;stroke-width:1px;stroke-linecap:butt;stroke-linejoin:miter;stroke-opacity:1"
       id="text4333">
      <path
         d="m 889.65833,432.97623 0,-31.50879 12.65625,0 q 2.90039,0 4.87792,0.85693 1.99952,0.83496 3.20801,2.19727 1.23047,1.3623 1.75782,3.09814 0.54931,1.71387 0.54931,3.49365 0,1.09864 -0.26367,2.24121 -0.2417,1.14258 -0.76904,2.21924 -0.52735,1.05469 -1.36231,1.99951 -0.83496,0.94483 -1.99951,1.64795 -1.14258,0.70313 -2.63672,1.12061 -1.49414,0.39551 -3.36181,0.39551 l -7.97608,0 0,12.23877 -4.68017,0 z m 12.91992,-16.74317 q 1.47217,0 2.46093,-0.46142 1.01075,-0.46143 1.62598,-1.18653 0.63721,-0.74707 0.90088,-1.64795 0.28564,-0.92285 0.28564,-1.82373 0,-0.83496 -0.24169,-1.73584 -0.2417,-0.90087 -0.83497,-1.64795 -0.59326,-0.76904 -1.62597,-1.25244 -1.01074,-0.50537 -2.5708,-0.50537 l -8.23975,0 0,10.26123 8.23975,0 z"
         style=""
         id="path4370" />
      <path
         d="m 927.23157,433.52554 q -2.39502,0 -4.32862,-0.81299 -1.93359,-0.83496 -3.29589,-2.37304 -1.36231,-1.56006 -2.10938,-3.80127 -0.7251,-2.24121 -0.7251,-5.07569 0,-2.83447 0.74707,-5.05371 0.74707,-2.24121 2.10938,-3.77929 1.38428,-1.56006 3.2959,-2.37305 1.93359,-0.81299 4.30664,-0.81299 2.04345,0 3.82324,0.65918 1.80176,0.63721 3.14209,1.97754 1.3623,1.31836 2.13135,3.33984 0.79101,2.02149 0.79101,4.76807 0,0.74707 -0.0439,1.58203 -0.022,0.83496 -0.13184,1.4502 l -15.49072,0 q 0.022,1.42822 0.50537,2.5708 0.50537,1.1206 1.31836,1.93359 0.81299,0.79102 1.8457,1.23047 1.03272,0.41748 2.15332,0.41748 1.42823,0 2.63672,-0.59326 1.23047,-0.59326 2.13135,-1.73584 l 3.0542,3.14209 q -1.25244,1.49414 -3.20801,2.41699 -1.95557,0.92285 -4.6582,0.92285 z m 0,-19.95117 q -1.09864,0 -2.10938,0.32959 -1.01074,0.30762 -1.80176,1.01074 -0.76904,0.68116 -1.27441,1.80176 -0.50537,1.12061 -0.59326,2.72461 l 10.98633,0 q -0.0439,-1.604 -0.50537,-2.72461 -0.46143,-1.1206 -1.2085,-1.80176 -0.74707,-0.70312 -1.66992,-1.01074 -0.90088,-0.32959 -1.82373,-0.32959 z"
         style=""
         id="path4372" />
      <path
         d="m 951.88489,433.52554 q -2.41699,0 -4.37256,-0.81299 -1.93359,-0.81298 -3.2959,-2.35107 -1.3623,-1.56006 -2.10937,-3.7793 -0.7251,-2.24121 -0.7251,-5.07568 0,-2.83447 0.7251,-5.07568 0.74707,-2.24121 2.10937,-3.7793 1.36231,-1.56006 3.2959,-2.37305 1.95557,-0.83496 4.37256,-0.83496 2.39502,0 4.35058,0.83496 1.95557,0.81299 3.31787,2.37305 1.36231,1.53809 2.10938,3.7793 0.74707,2.24121 0.74707,5.07568 0,2.83447 -0.74707,5.07568 -0.74707,2.21924 -2.10938,3.7793 -1.3623,1.53809 -3.31787,2.35107 -1.95556,0.81299 -4.35058,0.81299 z m 0,-4.4165 q 1.34033,0 2.41699,-0.52734 1.09863,-0.52735 1.8457,-1.49415 0.76905,-0.98876 1.16455,-2.39501 0.41748,-1.40625 0.41748,-3.18604 0,-1.77978 -0.41748,-3.18603 -0.3955,-1.42823 -1.16455,-2.417 -0.74707,-0.98877 -1.8457,-1.51611 -1.07666,-0.52734 -2.41699,-0.52734 -1.34033,0 -2.41699,0.52734 -1.07666,0.52734 -1.84571,1.51611 -0.74707,0.98877 -1.16455,2.417 -0.39551,1.40625 -0.39551,3.18603 0,1.77979 0.39551,3.18604 0.41748,1.40625 1.16455,2.39501 0.76905,0.9668 1.84571,1.49415 1.07666,0.52734 2.41699,0.52734 z"
         style=""
         id="path4374" />
      <path
         d="m 968.01282,432.97623 0,-23.00537 4.68017,0 0,2.79052 q 0.81299,-1.75781 2.10938,-2.52685 1.29638,-0.79102 3.01025,-0.79102 2.28516,0 3.86719,1.38428 l -0.68115,4.32861 q -0.63721,-0.43945 -1.51612,-0.76904 -0.85693,-0.35156 -2.10937,-0.35156 -0.79102,0 -1.62598,0.28564 -0.81299,0.26367 -1.49414,0.9668 -0.68115,0.68115 -1.1206,1.8457 -0.43946,1.14258 -0.43946,2.92236 l 0,12.91993 -4.68017,0 z"
         style=""
         id="path4376" />
      <path
         d="m 986.25012,432.97623 0,-23.00537 4.68018,0 0,23.00537 -4.68018,0 z m 2.3291,-26.58692 q -0.59326,0 -1.1206,-0.21972 -0.50537,-0.21973 -0.90088,-0.59327 -0.37354,-0.3955 -0.59326,-0.90087 -0.21973,-0.52735 -0.21973,-1.12061 0,-0.59326 0.21973,-1.09863 0.21972,-0.52735 0.59326,-0.90088 0.39551,-0.39551 0.90088,-0.61524 0.52734,-0.21972 1.1206,-0.21972 0.59327,0 1.09864,0.21972 0.52734,0.21973 0.90088,0.61524 0.3955,0.37353 0.61523,0.90088 0.21973,0.50537 0.21973,1.09863 0,0.59326 -0.21973,1.12061 -0.21973,0.50537 -0.61523,0.90087 -0.37354,0.37354 -0.90088,0.59327 -0.50537,0.21972 -1.09864,0.21972 z"
         style=""
         id="path4378" />
      <path
         d="m 1015.3419,432.97623 -4.4824,0 0,-1.97754 q -0.4395,0.46142 -1.0547,0.92285 -0.6152,0.43945 -1.4062,0.81299 -0.7691,0.35156 -1.7359,0.57129 -0.9668,0.21972 -2.1094,0.21972 -1.7578,0 -3.2519,-0.4834 -1.49415,-0.48339 -2.59278,-1.45019 -1.09863,-0.98877 -1.73584,-2.41699 -0.61524,-1.4502 -0.61524,-3.36182 0,-1.97754 0.74707,-3.40576 0.74707,-1.4502 1.97754,-2.37305 1.23045,-0.94482 2.81255,-1.38428 1.604,-0.43945 3.2959,-0.43945 1.582,0 3.0322,0.35156 1.4721,0.32959 2.6367,1.01075 l 0,-1.27442 q 0,-1.29638 -0.3076,-2.19726 -0.2857,-0.90088 -0.9009,-1.4502 -0.5933,-0.57129 -1.5161,-0.81299 -0.9229,-0.26367 -2.1973,-0.26367 -2.1533,0 -3.7353,0.57129 -1.5601,0.57129 -2.8345,1.51611 l -1.38428,-3.84521 q 0.70313,-0.4834 1.604,-0.90088 0.90088,-0.43945 1.97758,-0.76904 1.0766,-0.32959 2.3291,-0.50537 1.2524,-0.19776 2.6806,-0.19776 0.9668,0 1.9995,0.10987 1.0328,0.10986 1.9996,0.43945 0.9887,0.30762 1.8457,0.90088 0.8789,0.59326 1.5161,1.56006 0.6591,0.94482 1.0327,2.3291 0.3735,1.38427 0.3735,3.2959 l 0,14.89746 z m -9.9316,-3.60352 q 1.7798,0 3.1421,-0.7251 1.3842,-0.72509 2.3071,-1.73584 l 0,-3.51562 q -0.9668,-0.50537 -2.2632,-0.81299 -1.2964,-0.30762 -2.6587,-0.30762 -1.0547,0 -1.9775,0.19776 -0.9229,0.19775 -1.626,0.6372 -0.6811,0.41748 -1.0767,1.09864 -0.3955,0.65918 -0.3955,1.604 0,1.64795 1.1426,2.61475 1.1646,0.94482 3.4058,0.94482 z"
         style=""
         id="path4380" />
    </g>
  </g>
  <g
     inkscape:groupmode="layer"
     id="layer4"
     inkscape:label="Date"
     transform="translate(-571.3274,-272.94583)">
    <g
       style="font-style:normal;font-variant:normal;font-weight:300;font-stretch:normal;font-size:15px;line-height:125%;font-family:Overpass;-inkscape-font-specification:'Overpass, Light';text-align:start;letter-spacing:0px;word-spacing:0px;writing-mode:lr-tb;text-anchor:start;fill:#222222;fill-opacity:1;stroke:none;stroke-width:1px;stroke-linecap:butt;stroke-linejoin:miter;stroke-opacity:1"
       id="text4338">
      <path
         d="m 950.00871,545.25507 q 0.015,-1.23 0.15,-2.43 0.15,-1.2 0.51,-2.385 0.375,-1.185 0.99,-2.37 0.615,-1.2 1.575,-2.415 l -5.085,0 0,-0.9 6.285,0 0,0.69 q -1.095,1.26 -1.755,2.595 -0.66,1.32 -1.02,2.61 -0.36,1.275 -0.48,2.46 -0.12,1.185 -0.12,2.145 l -1.05,0 z"
         style=""
         id="path4353" />
      <path
         d="m 963.87644,544.49007 q 0.9,0 1.515,-0.405 0.63,-0.405 1.005,-1.05 0.39,-0.645 0.555,-1.44 0.18,-0.81 0.18,-1.59 0,-0.855 -0.18,-1.665 -0.165,-0.81 -0.555,-1.425 -0.375,-0.63 -1.005,-1.005 -0.615,-0.39 -1.515,-0.39 -0.9,0 -1.53,0.405 -0.615,0.405 -1.005,1.05 -0.375,0.645 -0.555,1.455 -0.165,0.795 -0.165,1.575 0,0.855 0.165,1.665 0.18,0.81 0.555,1.44 0.39,0.615 1.005,1.005 0.63,0.375 1.53,0.375 z m 0,0.945 q -1.215,0 -2.055,-0.48 -0.825,-0.48 -1.335,-1.26 -0.51,-0.78 -0.735,-1.74 -0.225,-0.975 -0.225,-1.95 0,-0.975 0.225,-1.935 0.225,-0.975 0.735,-1.755 0.51,-0.78 1.335,-1.26 0.84,-0.48 2.055,-0.48 1.215,0 2.04,0.48 0.84,0.48 1.35,1.26 0.51,0.78 0.735,1.755 0.225,0.96 0.225,1.935 0,0.975 -0.225,1.95 -0.225,0.96 -0.735,1.74 -0.51,0.78 -1.35,1.26 -0.825,0.48 -2.04,0.48 z"
         style=""
         id="path4355" />
      <path
         d="m 972.96621,545.43507 q -1.395,0 -2.22,-1.035 -0.81,-1.05 -0.81,-2.97 0,-1.905 0.825,-2.955 0.84,-1.065 2.325,-1.065 0.855,0 1.5,0.42 0.645,0.405 0.96,1.185 l -0.96,0.375 q -0.18,-0.435 -0.555,-0.735 -0.36,-0.3 -0.99,-0.3 -0.54,0 -0.915,0.225 -0.375,0.21 -0.63,0.615 -0.24,0.39 -0.36,0.96 -0.105,0.57 -0.105,1.275 0,1.455 0.48,2.265 0.48,0.795 1.5,0.795 0.63,0 1.065,-0.315 0.435,-0.315 0.63,-0.855 l 0.945,0.36 q -0.27,0.81 -0.99,1.29 -0.705,0.465 -1.695,0.465 z"
         style=""
         id="path4357" />
      <path
         d="m 979.44175,545.43507 q -0.825,0 -1.17,-0.495 -0.345,-0.51 -0.345,-1.26 l 0,-5.145 -1.305,0 0,-0.945 1.305,0 0,-2.64 1.05,-0.525 0,3.165 1.95,0 0,0.945 -1.95,0 0,4.695 q 0,0.255 0.015,0.48 0.03,0.21 0.12,0.375 0.09,0.165 0.255,0.27 0.165,0.09 0.435,0.09 0.39,0 0.66,-0.15 0.285,-0.15 0.495,-0.3 l -0.12,1.095 q -0.3,0.165 -0.63,0.255 -0.33,0.09 -0.765,0.09 z"
         style=""
         id="path4359" />
      <path
         d="m 986.23089,545.25507 q 0,-0.99 0.285,-1.695 0.285,-0.72 0.735,-1.26 0.45,-0.54 1.02,-0.945 0.57,-0.405 1.14,-0.795 0.495,-0.33 0.945,-0.645 0.45,-0.33 0.795,-0.69 0.36,-0.36 0.57,-0.765 0.21,-0.42 0.21,-0.93 0,-0.855 -0.6,-1.425 -0.585,-0.585 -1.68,-0.585 -1.065,0 -1.605,0.48 -0.54,0.465 -0.735,1.215 l -0.93,-0.42 q 0.12,-0.465 0.405,-0.87 0.285,-0.405 0.72,-0.705 0.435,-0.3 0.99,-0.465 0.57,-0.18 1.245,-0.18 1.56,0 2.415,0.81 0.87,0.795 0.87,2.145 0,0.72 -0.285,1.275 -0.27,0.555 -0.72,1.02 -0.435,0.45 -0.99,0.84 -0.555,0.375 -1.125,0.735 -0.45,0.3 -0.87,0.6 -0.42,0.285 -0.78,0.63 -0.345,0.33 -0.585,0.735 -0.24,0.39 -0.33,0.885 l 5.775,0 0,1.005 -6.885,0 z"
         style=""
         id="path4361" />
      <path
         d="m 998.81003,545.43507 q -1.035,0 -1.725,-0.48 -0.69,-0.48 -1.11,-1.245 -0.405,-0.78 -0.585,-1.74 -0.18,-0.975 -0.18,-1.965 0,-0.54 0.06,-1.155 0.06,-0.63 0.21,-1.23 0.165,-0.6 0.42,-1.155 0.27,-0.555 0.675,-0.975 0.405,-0.42 0.945,-0.66 0.555,-0.255 1.29,-0.255 1.035,0 1.72497,0.495 0.69,0.48 1.095,1.26 0.42,0.78 0.6,1.755 0.18,0.96 0.18,1.92 0,0.555 -0.075,1.17 -0.06,0.615 -0.225,1.23 -0.15,0.6 -0.42,1.155 -0.255,0.54 -0.66,0.96 -0.405,0.42 -0.96,0.675 -0.53997,0.24 -1.25997,0.24 z m 0,-0.945 q 0.78,0 1.25997,-0.42 0.495,-0.435 0.765,-1.095 0.27,-0.66 0.36,-1.455 0.09,-0.795 0.09,-1.515 0,-0.81 -0.105,-1.605 -0.105,-0.81 -0.39,-1.44 -0.285,-0.645 -0.765,-1.035 -0.47997,-0.405 -1.21497,-0.405 -0.795,0 -1.29,0.435 -0.48,0.435 -0.75,1.095 -0.27,0.66 -0.375,1.455 -0.09,0.78 -0.09,1.5 0,0.825 0.105,1.635 0.105,0.795 0.39,1.44 0.285,0.63 0.765,1.02 0.495,0.39 1.245,0.39 z"
         style=""
         id="path4363" />
      <path
         d="m 1005.8321,545.25507 0,-8.595 -1.785,0 0,-0.6 q 0.795,0 1.35,-0.27 0.555,-0.285 0.81,-1.035 l 0.675,0 0,10.5 -1.05,0 z"
         style=""
         id="path4365" />
      <path
         d="m 1010.9169,545.25507 q 0.015,-1.23 0.15,-2.43 0.15,-1.2 0.51,-2.385 0.375,-1.185 0.99,-2.37 0.615,-1.2 1.575,-2.415 l -5.085,0 0,-0.9 6.285,0 0,0.69 q -1.095,1.26 -1.755,2.595 -0.66,1.32 -1.02,2.61 -0.36,1.275 -0.48,2.46 -0.12,1.185 -0.12,2.145 l -1.05,0 z"
         style=""
         id="path4367" />
    </g>
  </g>
</svg>
