<?xml version="1.0" encoding="UTF-8" standalone="no"?>
<!-- Created with Inkscape (http://www.inkscape.org/) -->

<svg
   xmlns:dc="http://purl.org/dc/elements/1.1/"
   xmlns:cc="http://creativecommons.org/ns#"
   xmlns:rdf="http://www.w3.org/1999/02/22-rdf-syntax-ns#"
   xmlns:svg="http://www.w3.org/2000/svg"
   xmlns="http://www.w3.org/2000/svg"
   xmlns:sodipodi="http://sodipodi.sourceforge.net/DTD/sodipodi-0.dtd"
   xmlns:inkscape="http://www.inkscape.org/namespaces/inkscape"
   width="544.22333"
   height="452.66864"
   viewBox="0 0 544.22333 452.66865"
   id="svg2"
   version="1.1"
   inkscape:version="0.92.4 (5da689c313, 2019-01-14)"
   sodipodi:docname="PVD.svg"
   inkscape:export-filename="C:\Users\paulb\Dropbox\Projects\Terminal Silhouettes\Silhouettes\png-flight-historian\PVD.png"
   inkscape:export-xdpi="90"
   inkscape:export-ydpi="90">
  <title
     id="title4238">PVD</title>
  <defs
     id="defs4" />
  <sodipodi:namedview
     id="base"
     pagecolor="#ffffff"
     bordercolor="#666666"
     borderopacity="1.0"
     inkscape:pageopacity="1"
     inkscape:pageshadow="2"
     inkscape:zoom="1.4142136"
     inkscape:cx="270.74849"
     inkscape:cy="173.08922"
     inkscape:document-units="px"
     inkscape:current-layer="layer2"
     showgrid="false"
     inkscape:window-width="1920"
     inkscape:window-height="1137"
     inkscape:window-x="1912"
     inkscape:window-y="-8"
     inkscape:window-maximized="1"
     showguides="false"
     inkscape:guide-bbox="true"
     inkscape:object-nodes="true"
     inkscape:snap-object-midpoints="false"
     inkscape:snap-midpoints="false"
     units="px"
     fit-margin-top="25"
     fit-margin-left="25"
     fit-margin-right="25"
     fit-margin-bottom="25">
    <sodipodi:guide
       position="-1131.2565,-171.4898"
       orientation="1,0"
       id="guide4150"
       inkscape:locked="false" />
    <sodipodi:guide
       position="1921.6007,-284.34694"
       orientation="1,0"
       id="guide4152"
       inkscape:locked="false" />
    <sodipodi:guide
       position="1541.6007,-94.346933"
       orientation="0,1"
       id="guide4154"
       inkscape:locked="false" />
    <sodipodi:guide
       position="1431.6007,65.653068"
       orientation="0,1"
       id="guide4156"
       inkscape:locked="false" />
    <sodipodi:guide
       position="-392.68509,178.51022"
       orientation="1,0"
       id="guide4160"
       inkscape:locked="false" />
    <sodipodi:guide
       position="597.31492,248.51022"
       orientation="1,0"
       id="guide4162"
       inkscape:locked="false" />
    <sodipodi:guide
       position="727.67207,439.58165"
       orientation="0,1"
       id="guide4164"
       inkscape:locked="false" />
    <sodipodi:guide
       position="30.172059,47.795927"
       orientation="0,1"
       id="guide4169"
       inkscape:locked="false" />
    <sodipodi:guide
       position="102.31472,279.93871"
       orientation="1,0"
       id="guide4177"
       inkscape:locked="false" />
    <sodipodi:guide
       position="-1025.5422,-210.06123"
       orientation="1,0"
       id="guide4181"
       inkscape:locked="false" />
    <sodipodi:guide
       position="-582.95915,77.460998"
       orientation="0,1"
       id="guide4183"
       inkscape:locked="false" />
    <sodipodi:guide
       position="1813.6279,146.15137"
       orientation="1,0"
       id="guide4185"
       inkscape:locked="false" />
    <sodipodi:guide
       position="-470.32715,-124.56953"
       orientation="0,1"
       id="guide4199"
       inkscape:locked="false" />
    <sodipodi:guide
       position="552.31492,526.36737"
       orientation="0,1"
       id="guide4337"
       inkscape:locked="false" />
    <sodipodi:guide
       position="3.7434895,614.9388"
       orientation="1,0"
       id="guide4339"
       inkscape:locked="false" />
    <sodipodi:guide
       position="203.74348,624.9388"
       orientation="1,0"
       id="guide4341"
       inkscape:locked="false" />
    <sodipodi:guide
       position="-88.39937,602.08165"
       orientation="1,0"
       id="guide4348"
       inkscape:locked="false" />
    <sodipodi:guide
       position="295.88635,539.9388"
       orientation="1,0"
       id="guide4361"
       inkscape:locked="false" />
    <sodipodi:guide
       position="399.45778,581.36737"
       orientation="1,0"
       id="guide4363"
       inkscape:locked="false" />
    <sodipodi:guide
       position="-200.61639,620.418"
       orientation="1,0"
       id="guide4388"
       inkscape:locked="false" />
    <sodipodi:guide
       position="-225.8702,638.09567"
       orientation="1,0"
       id="guide4390"
       inkscape:locked="false" />
    <sodipodi:guide
       position="541.24349,559.22451"
       orientation="0,1"
       id="guide4395"
       inkscape:locked="false" />
    <sodipodi:guide
       position="-317.79408,693.14899"
       orientation="1,0"
       id="guide4403"
       inkscape:locked="false" />
    <sodipodi:guide
       position="-373.35247,685.57284"
       orientation="1,0"
       id="guide4405"
       inkscape:locked="false" />
    <sodipodi:guide
       position="-255.16463,934.57542"
       orientation="0,1"
       id="guide4407"
       inkscape:locked="false" />
    <sodipodi:guide
       position="-255.16463,903.76582"
       orientation="0,1"
       id="guide4409"
       inkscape:locked="false" />
    <sodipodi:guide
       position="-427.39564,823.45862"
       orientation="1,0"
       id="guide4411"
       inkscape:locked="false" />
    <sodipodi:guide
       position="-310.7208,888.51022"
       orientation="1,0"
       id="guide4413"
       inkscape:locked="false" />
    <sodipodi:guide
       position="556.95777,603.86737"
       orientation="1,0"
       id="guide4421"
       inkscape:locked="false" />
    <sodipodi:guide
       position="822.31492,576.01023"
       orientation="1,0"
       id="guide4423"
       inkscape:locked="false" />
  </sodipodi:namedview>
  <metadata
     id="metadata7">
    <rdf:RDF>
      <cc:Work
         rdf:about="">
        <dc:format>image/svg+xml</dc:format>
        <dc:type
           rdf:resource="http://purl.org/dc/dcmitype/StillImage" />
        <dc:title>PVD</dc:title>
        <dc:description>Terminal silhouette of PVD (Providence)</dc:description>
        <dc:date>23 Dec 2018</dc:date>
        <dc:creator>
          <cc:Agent>
            <dc:title>Paul Bogard</dc:title>
          </cc:Agent>
        </dc:creator>
      </cc:Work>
    </rdf:RDF>
  </metadata>
  <g
     inkscape:groupmode="layer"
     id="layer2"
     inkscape:label="Terminal"
     transform="translate(545.88634,-312.48947)">
    <path
       style="opacity:1;fill:#dddddd;fill-opacity:1;stroke:#222222;stroke-width:1.5;stroke-linecap:butt;stroke-linejoin:round;stroke-miterlimit:4;stroke-dasharray:none;stroke-dashoffset:0;stroke-opacity:1"
       d="m -47.698564,338.23944 -8.575983,13.68932 -3.831711,-2.40048 -4.343659,6.93349 3.831711,2.40048 -18.843846,30.0792 -3.831711,-2.40048 -4.343657,6.93349 3.831709,2.40048 -19.806669,31.61651 -3.83171,-2.40048 -4.34395,6.93349 3.832,2.40048 -30.69605,48.99786 -1.49698,-0.93769 c -3.2285,7.93999 -6.45699,15.87984 -9.68549,23.81984 l -1.66412,2.65616 -49.67257,-31.11859 17.87138,-28.52671 -15.16905,-9.50286 -21.07631,33.64325 4.16571,2.6097 -12.62335,20.15002 -1.7208,-1.07825 -8.22651,13.13149 5.79593,3.63097 -7.31862,11.68244 -5.79593,-3.63097 -3.4606,5.52388 -1.8111,-1.13464 -8.96404,14.3088 1.8111,1.13464 -3.46061,5.52417 5.79593,3.63097 -7.31862,11.68243 -5.79622,-3.63096 -8.22621,13.13149 0.90672,0.56805 -0.57302,0.91461 -4.39333,-2.7523 -2.006,3.20171 -1.08175,-0.67763 -8.83693,14.10601 -41.55944,-26.03594 0.56192,-0.89679 -3.90651,-2.44694 -9.26705,14.7924 3.90651,2.44723 4.29222,-6.85196 108.52424,67.98722 -1.66588,2.65909 c -5.73607,6.36953 -11.47201,12.73936 -17.20807,19.10888 l 1.49727,0.9377 -30.80973,49.17932 -3.83171,-2.4005 -4.34365,6.9335 3.83171,2.40048 -8.39657,13.40324 20.28559,12.70839 8.39657,-13.40325 3.83171,2.40076 4.34395,-6.93378 -3.832,-2.40048 22.71851,-36.26377 3.83171,2.40049 4.34366,-6.93378 -3.83171,-2.40049 18.8605,-30.1058 3.83171,2.40048 4.34366,-6.93348 -3.83171,-2.40048 19.3143,-30.83017 3.83171,2.40047 3.82967,-6.11268 5.6358,3.53045 -0.41085,0.80357 6.29999,3.21894 21.3653,-41.81277 -6.29969,-3.21895 -0.60078,1.17555 -2.33181,-1.46075 3.82937,-6.11268 -3.83171,-2.40048 19.3143,-30.83047 3.83171,2.40048 4.34366,-6.93349 -3.83171,-2.40048 18.84793,-30.08563 3.83172,2.40048 4.34365,-6.93349 -3.83171,-2.40048 22.614779,-36.09867 3.831712,2.40048 4.343657,-6.93349 -3.83171,-2.40048 19.806669,-31.61651 3.831711,2.40077 4.343657,-6.93378 -3.831711,-2.40048 18.843848,-30.07921 3.831709,2.40048 4.343659,-6.93348 -3.831711,-2.40048 8.575985,-13.68932 -20.285598,-12.70838 z"
       id="rect4158"
       inkscape:connector-curvature="0" />
  </g>
  <g
     inkscape:groupmode="layer"
     id="layer1"
     inkscape:label="Label"
     transform="translate(173.95698,8.1424116)">
    <g
       id="g4185"
       transform="translate(-82,-47)">
      <g
         style="font-style:normal;font-variant:normal;font-weight:bold;font-stretch:normal;font-size:125px;line-height:125%;font-family:Overpass;-inkscape-font-specification:'Overpass, Bold';text-align:start;letter-spacing:0px;word-spacing:0px;writing-mode:lr-tb;text-anchor:start;fill:#dddddd;fill-opacity:1;stroke:#222222;stroke-width:0.25;stroke-linecap:butt;stroke-linejoin:miter;stroke-miterlimit:4;stroke-dasharray:none;stroke-opacity:1"
         id="text4173">
        <path
           d="m -66.831978,151.507 0,-87.52441 37.536621,0 q 8.300781,0 13.977051,2.441406 5.6762696,2.380371 9.2163086,6.347656 3.5400391,3.90625 5.065918,8.850098 1.58691406,4.943848 1.58691406,10.009766 0,3.173828 -0.73242188,6.469726 -0.73242187,3.234868 -2.25830078,6.347658 -1.5258789,3.05176 -3.90625,5.7373 -2.3803711,2.68555 -5.737305,4.76075 -3.295898,2.01416 -7.629394,3.17382 -4.272461,1.15967 -9.58252,1.15967 l -20.629883,0 0,32.22656 -16.906738,0 z m 38.269043,-48.2788 q 3.234863,0 5.432129,-1.0376 2.197266,-1.0376 3.540039,-2.685549 1.403809,-1.64795 2.01416,-3.723145 0.610352,-2.075195 0.610352,-4.15039 0,-1.89209 -0.549317,-3.90625 -0.488281,-2.075196 -1.831054,-3.78418 -1.281739,-1.708985 -3.540039,-2.807617 -2.258301,-1.098633 -5.67627,-1.098633 l -21.362305,0 0,23.193364 21.362305,0 z"
           id="path4192"
           style="" />
        <path
           d="m 57.923882,151.507 -16.235352,0 -31.005859,-87.52441 18.249511,0 19.226075,57.25098 q 0.488281,1.4038 0.915527,3.05175 0.488281,1.58692 0.854492,2.99073 0.305176,-1.34278 0.732422,-2.92969 0.427246,-1.58691 0.915527,-3.11279 l 19.226074,-57.25098 18.005372,0 -30.883789,87.52441 z"
           id="path4194"
           style="" />
        <path
           d="m 105.04302,63.98259 29.54102,0 q 7.62939,0 13.73291,1.770019 6.10351,1.708985 10.80322,4.760742 4.76074,3.051758 8.11768,7.263184 3.35693,4.150391 5.49316,9.033203 2.19727,4.821778 3.17383,10.192871 1.0376,5.371091 1.0376,10.742191 0,5.00488 -0.97657,10.2539 -0.91552,5.18799 -2.99072,10.0708 -2.07519,4.82178 -5.43213,9.09424 -3.2959,4.27246 -8.11767,7.50733 -4.76075,3.17382 -11.04737,5.00488 -6.28662,1.83105 -14.34326,1.83105 l -28.9917,0 0,-87.52441 z m 31.00586,71.5332 q 6.53076,0 10.98633,-2.50244 4.45557,-2.56348 7.20215,-6.53076 2.74658,-4.02832 3.96728,-8.97217 1.22071,-4.94385 1.22071,-9.76562 0,-5.12696 -1.28174,-10.070804 -1.28174,-5.004883 -3.96729,-8.911133 -2.62451,-3.90625 -6.83593,-6.286621 -4.1504,-2.441406 -9.8877,-2.441406 l -15.50293,0 0,55.480954 14.09912,0 z"
           id="path4196"
           style="" />
      </g>
      <g
         style="font-style:normal;font-variant:normal;font-weight:normal;font-stretch:normal;font-size:45px;line-height:125%;font-family:Overpass;-inkscape-font-specification:'Overpass, Normal';text-align:start;letter-spacing:0px;word-spacing:0px;writing-mode:lr-tb;text-anchor:start;fill:#222222;fill-opacity:1;stroke:none;stroke-width:1px;stroke-linecap:butt;stroke-linejoin:miter;stroke-opacity:1"
         id="text4177">
        <path
           d="m -66.956978,199.12965 0,-31.50879 12.65625,0 q 2.900391,0 4.87793,0.85694 1.999512,0.83496 3.208008,2.19726 1.230468,1.36231 1.757812,3.09815 0.549317,1.71387 0.549317,3.49365 0,1.09863 -0.263672,2.24121 -0.2417,1.14258 -0.769043,2.21924 -0.527344,1.05469 -1.362305,1.99951 -0.834961,0.94483 -1.999512,1.64795 -1.142578,0.70313 -2.636718,1.12061 -1.494141,0.3955 -3.361817,0.3955 l -7.976074,0 0,12.23877 -4.680176,0 z m 12.919922,-16.74316 q 1.472168,0 2.460938,-0.46143 1.010742,-0.46142 1.625976,-1.18652 0.637207,-0.74707 0.900879,-1.64795 0.285645,-0.92285 0.285645,-1.82373 0,-0.83496 -0.2417,-1.73584 -0.241699,-0.90088 -0.834961,-1.64795 -0.593261,-0.76904 -1.625976,-1.25244 -1.010742,-0.50537 -2.570801,-0.50537 l -8.239746,0 0,10.26123 8.239746,0 z"
           id="path4199"
           style="" />
        <path
           d="m -38.700142,199.12965 0,-23.00537 4.680176,0 0,2.79053 q 0.812988,-1.75781 2.109375,-2.52686 1.296387,-0.79101 3.010254,-0.79101 2.285156,0 3.867187,1.38428 l -0.681152,4.32861 q -0.637207,-0.43945 -1.516113,-0.76904 -0.856934,-0.35157 -2.109375,-0.35157 -0.791016,0 -1.625977,0.28565 -0.812988,0.26367 -1.494141,0.9668 -0.681152,0.68115 -1.120605,1.8457 -0.439453,1.14258 -0.439453,2.92236 l 0,12.91992 -4.680176,0 z"
           id="path4201"
           style="" />
        <path
           d="m -11.146431,199.67897 q -2.416992,0 -4.372559,-0.81299 -1.933593,-0.81299 -3.295898,-2.35107 -1.362305,-1.56006 -2.109375,-3.7793 -0.725098,-2.24121 -0.725098,-5.07568 0,-2.83448 0.725098,-5.07569 0.74707,-2.24121 2.109375,-3.77929 1.362305,-1.56006 3.295898,-2.37305 1.955567,-0.83496 4.372559,-0.83496 2.3950196,0 4.350586,0.83496 1.9555664,0.81299 3.3178711,2.37305 1.3623046,1.53808 2.109375,3.77929 0.74707027,2.24121 0.74707027,5.07569 0,2.83447 -0.74707027,5.07568 -0.7470704,2.21924 -2.109375,3.7793 -1.3623047,1.53808 -3.3178711,2.35107 -1.9555664,0.81299 -4.350586,0.81299 z m 0,-4.4165 q 1.3403321,0 2.4169922,-0.52735 1.0986328,-0.52734 1.8457031,-1.49414 0.769043,-0.98877 1.1645508,-2.39502 0.4174805,-1.40625 0.4174805,-3.18603 0,-1.77979 -0.4174805,-3.18604 -0.3955078,-1.42822 -1.1645508,-2.41699 -0.7470703,-0.98877 -1.8457031,-1.51611 -1.0766601,-0.52735 -2.4169922,-0.52735 -1.340332,0 -2.416992,0.52735 -1.07666,0.52734 -1.845703,1.51611 -0.747071,0.98877 -1.164551,2.41699 -0.395508,1.40625 -0.395508,3.18604 0,1.77978 0.395508,3.18603 0.41748,1.40625 1.164551,2.39502 0.769043,0.9668 1.845703,1.49414 1.07666,0.52735 2.416992,0.52735 z"
           id="path4203"
           style="" />
        <path
           d="m 15.506401,199.12965 -4.372559,0 -8.4155269,-23.00537 4.6801758,0 5.3173831,15.09522 q 0.197754,0.59326 0.32959,1.03271 0.153808,0.43946 0.307617,0.98877 0.131836,-0.54931 0.263672,-0.98877 0.153808,-0.43945 0.351562,-1.03271 l 5.273438,-15.09522 4.680175,0 -8.415527,23.00537 z"
           id="path4205"
           style="" />
        <path
           d="m 28.492241,199.12965 0,-23.00537 4.680176,0 0,23.00537 -4.680176,0 z m 2.329101,-26.58691 q -0.593261,0 -1.120605,-0.21973 -0.505371,-0.21972 -0.900879,-0.59326 -0.373535,-0.39551 -0.593262,-0.90088 -0.219726,-0.52734 -0.219726,-1.1206 0,-0.59326 0.219726,-1.09864 0.219727,-0.52734 0.593262,-0.90087 0.395508,-0.39551 0.900879,-0.61524 0.527344,-0.21973 1.120605,-0.21973 0.593262,0 1.098633,0.21973 0.527344,0.21973 0.900879,0.61524 0.395508,0.37353 0.615235,0.90087 0.219726,0.50538 0.219726,1.09864 0,0.59326 -0.219726,1.1206 -0.219727,0.50537 -0.615235,0.90088 -0.373535,0.37354 -0.900879,0.59326 -0.505371,0.21973 -1.098633,0.21973 z"
           id="path4207"
           style="" />
        <path
           d="m 48.377495,199.67897 q -2.175293,0 -3.955078,-0.81299 -1.757813,-0.83496 -3.010254,-2.37304 -1.252442,-1.56006 -1.933594,-3.80127 -0.65918,-2.24122 -0.65918,-5.07569 0,-2.83447 0.703125,-5.05371 0.703125,-2.24121 1.955567,-3.7793 1.274414,-1.56005 3.032226,-2.37304 1.757813,-0.81299 3.867188,-0.81299 1.889648,0 3.208008,0.61523 1.340332,0.61524 2.219238,1.53809 l 0,-8.94287 4.680176,-2.17529 0,32.49755 -4.680176,0 0,-1.62597 q -0.922852,1.03271 -2.219238,1.604 -1.274414,0.57129 -3.208008,0.57129 z m 0.659179,-4.4165 q 1.582032,0 2.790528,-0.68116 1.208496,-0.68115 1.977539,-1.93359 l 0,-10.12939 q -0.263672,-0.43946 -0.703125,-0.87891 -0.439453,-0.43945 -1.054688,-0.79102 -0.593261,-0.37353 -1.362304,-0.59326 -0.747071,-0.2417 -1.64795,-0.2417 -2.636718,0 -4.086914,1.95557 -1.450195,1.93359 -1.450195,5.64697 0,1.66992 0.373535,3.07617 0.395508,1.38428 1.098633,2.417 0.725098,1.01074 1.73584,1.58203 1.032715,0.57129 2.329101,0.57129 z"
           id="path4209"
           style="" />
        <path
           d="m 74.590874,199.67897 q -2.39502,0 -4.328614,-0.81299 -1.933593,-0.83496 -3.295898,-2.37304 -1.362305,-1.56006 -2.109375,-3.80127 -0.725098,-2.24122 -0.725098,-5.07569 0,-2.83447 0.747071,-5.05371 0.74707,-2.24121 2.109375,-3.7793 1.384277,-1.56005 3.295898,-2.37304 1.933594,-0.81299 4.306641,-0.81299 2.043457,0 3.823242,0.65918 1.801758,0.63721 3.14209,1.97754 1.362304,1.31836 2.131347,3.33984 0.791016,2.02149 0.791016,4.76807 0,0.74707 -0.04394,1.58203 -0.02197,0.83496 -0.131836,1.45019 l -15.490723,0 q 0.02197,1.42823 0.505371,2.57081 0.505371,1.1206 1.31836,1.93359 0.812988,0.79101 1.845703,1.23047 1.032715,0.41748 2.15332,0.41748 1.428223,0 2.636719,-0.59326 1.230469,-0.59327 2.131347,-1.73584 l 3.0542,3.14209 q -1.252442,1.49414 -3.208008,2.41699 -1.955567,0.92285 -4.658203,0.92285 z m 0,-19.95117 q -1.098633,0 -2.109375,0.32959 -1.010742,0.30762 -1.801758,1.01074 -0.769043,0.68115 -1.274414,1.80176 -0.505371,1.1206 -0.593262,2.72461 l 10.986328,0 q -0.04395,-1.60401 -0.505371,-2.72461 -0.461426,-1.12061 -1.208496,-1.80176 -0.74707,-0.70312 -1.669922,-1.01074 -0.900879,-0.32959 -1.82373,-0.32959 z"
           id="path4211"
           style="" />
        <path
           d="m 104.10015,199.12965 0,-13.73291 q 0,-1.45019 -0.35156,-2.46093 -0.35156,-1.03272 -0.9668,-1.66993 -0.61523,-0.65918 -1.45019,-0.94482 -0.83496,-0.30762 -1.823734,-0.30762 -1.054688,0 -1.955567,0.28565 -0.900878,0.26367 -1.560058,0.8789 -0.65918,0.61524 -1.054688,1.64795 -0.373535,1.01075 -0.373535,2.48291 l 0,13.8208 -4.680176,0 0,-23.00537 4.680176,0 0,2.21924 q 1.120606,-1.42822 2.570801,-2.0874 1.450195,-0.65918 3.361821,-0.65918 1.80175,0 3.31787,0.52734 1.51611,0.50537 2.61474,1.66992 1.12061,1.16456 1.73584,3.03223 0.61524,1.86768 0.61524,4.57031 l 0,13.73291 -4.68018,0 z"
           id="path4213"
           style="" />
        <path
           d="m 124.18316,199.67897 q -2.30713,0 -4.17481,-0.81299 -1.8457,-0.81299 -3.16406,-2.35107 -1.29639,-1.56006 -1.99951,-3.7793 -0.70313,-2.24121 -0.70313,-5.07568 0,-2.83448 0.70313,-5.07569 0.70312,-2.24121 1.99951,-3.77929 1.31836,-1.56006 3.16406,-2.37305 1.86768,-0.83496 4.17481,-0.83496 3.20801,0 5.42724,1.42822 2.24122,1.42822 3.25196,4.5044 l -4.43848,1.53808 q -0.50537,-1.31836 -1.53808,-2.13135 -1.03272,-0.83496 -2.52686,-0.83496 -1.31836,0 -2.3291,0.52735 -1.01074,0.52734 -1.71387,1.51611 -0.68115,0.9668 -1.05469,2.37305 -0.35156,1.38427 -0.35156,3.14209 0,1.75781 0.35156,3.16406 0.37354,1.38428 1.03272,2.35107 0.68115,0.9668 1.64795,1.49414 0.98877,0.50538 2.24121,0.50538 1.58203,0 2.70264,-0.87891 1.14257,-0.87891 1.62597,-2.50488 l 4.43848,1.40625 q -0.92285,3.208 -3.14209,4.85595 -2.19727,1.62598 -5.625,1.62598 z"
           id="path4215"
           style="" />
        <path
           d="m 147.89165,199.67897 q -2.39501,0 -4.32861,-0.81299 -1.93359,-0.83496 -3.2959,-2.37304 -1.3623,-1.56006 -2.10937,-3.80127 -0.7251,-2.24122 -0.7251,-5.07569 0,-2.83447 0.74707,-5.05371 0.74707,-2.24121 2.10938,-3.7793 1.38427,-1.56005 3.29589,-2.37304 1.9336,-0.81299 4.30664,-0.81299 2.04346,0 3.82325,0.65918 1.80175,0.63721 3.14209,1.97754 1.3623,1.31836 2.13134,3.33984 0.79102,2.02149 0.79102,4.76807 0,0.74707 -0.0439,1.58203 -0.022,0.83496 -0.13183,1.45019 l -15.49072,0 q 0.022,1.42823 0.50537,2.57081 0.50537,1.1206 1.31836,1.93359 0.81299,0.79101 1.8457,1.23047 1.03271,0.41748 2.15332,0.41748 1.42822,0 2.63672,-0.59326 1.23047,-0.59327 2.13135,-1.73584 l 3.0542,3.14209 q -1.25245,1.49414 -3.20801,2.41699 -1.95557,0.92285 -4.65821,0.92285 z m 0,-19.95117 q -1.09863,0 -2.10937,0.32959 -1.01074,0.30762 -1.80176,1.01074 -0.76904,0.68115 -1.27441,1.80176 -0.50537,1.1206 -0.59326,2.72461 l 10.98632,0 q -0.0439,-1.60401 -0.50537,-2.72461 -0.46142,-1.12061 -1.20849,-1.80176 -0.74707,-0.70312 -1.66992,-1.01074 -0.90088,-0.32959 -1.82374,-0.32959 z"
           id="path4217"
           style="" />
      </g>
    </g>
  </g>
  <g
     inkscape:groupmode="layer"
     id="layer3"
     inkscape:label="Date"
     transform="translate(173.95698,8.1424116)">
    <g
       style="font-style:normal;font-variant:normal;font-weight:300;font-stretch:normal;font-size:15px;line-height:125%;font-family:Overpass;-inkscape-font-specification:'Overpass, Light';text-align:start;letter-spacing:0px;word-spacing:0px;writing-mode:lr-tb;text-anchor:start;fill:#222222;fill-opacity:1;stroke:none;stroke-width:1px;stroke-linecap:butt;stroke-linejoin:miter;stroke-opacity:1"
       id="text4181">
      <path
         d="m -148.95697,419.34625 q 0,-0.99 0.285,-1.695 0.285,-0.72 0.735,-1.26 0.45,-0.54 1.02,-0.945 0.57,-0.405 1.14,-0.795 0.495,-0.33 0.945,-0.645 0.45,-0.33 0.795,-0.69 0.36,-0.36 0.57,-0.765 0.21,-0.42 0.21,-0.93 0,-0.855 -0.6,-1.425 -0.585,-0.585 -1.68,-0.585 -1.065,0 -1.605,0.48 -0.54,0.465 -0.735,1.215 l -0.93,-0.42 q 0.12,-0.465 0.405,-0.87 0.285,-0.405 0.72,-0.705 0.435,-0.3 0.99,-0.465 0.57,-0.18 1.245,-0.18 1.56,0 2.415,0.81 0.87,0.795 0.87,2.145 0,0.72 -0.285,1.275 -0.27,0.555 -0.72,1.02 -0.435,0.45 -0.99,0.84 -0.555,0.375 -1.125,0.735 -0.45,0.3 -0.87,0.6 -0.42,0.285 -0.78,0.63 -0.345,0.33 -0.585,0.735 -0.24,0.39 -0.33,0.885 l 5.775,0 0,1.005 -6.885,0 z"
         id="path4220"
         style="" />
      <path
         d="m -136.79783,419.52625 q -0.765,0 -1.335,-0.18 -0.57,-0.195 -0.99,-0.525 -0.405,-0.345 -0.69,-0.78 -0.27,-0.45 -0.465,-0.975 l 0.975,-0.405 q 0.39,0.975 0.975,1.44 0.6,0.45 1.53,0.45 0.495,0 0.945,-0.12 0.45,-0.135 0.78,-0.39 0.345,-0.255 0.54,-0.63 0.195,-0.39 0.195,-0.915 0,-0.975 -0.6,-1.545 -0.6,-0.585 -1.74,-0.585 l -0.705,0 0,-0.96 0.555,0 q 0.945,0 1.5,-0.51 0.57,-0.525 0.57,-1.395 0,-0.435 -0.165,-0.78 -0.15,-0.345 -0.42,-0.585 -0.27,-0.24 -0.63,-0.36 -0.345,-0.135 -0.72,-0.135 -0.495,0 -0.885,0.15 -0.375,0.15 -0.66,0.39 -0.285,0.24 -0.48,0.525 -0.18,0.285 -0.3,0.555 l -0.975,-0.375 q 0.165,-0.42 0.435,-0.81 0.285,-0.405 0.69,-0.72 0.405,-0.315 0.93,-0.495 0.54,-0.195 1.2,-0.195 0.645,0 1.2,0.195 0.57,0.195 0.99,0.54 0.42,0.345 0.645,0.855 0.24,0.495 0.24,1.095 0,0.705 -0.36,1.335 -0.345,0.615 -0.975,0.96 0.825,0.33 1.29,1.065 0.48,0.72 0.48,1.755 0,0.66 -0.285,1.23 -0.285,0.555 -0.78,0.96 -0.495,0.405 -1.14,0.645 -0.645,0.225 -1.365,0.225 z"
         id="path4222"
         style="" />
      <path
         d="m -127.14814,408.84625 2.79,0 q 1.335,0 2.235,0.465 0.915,0.45 1.47,1.2 0.57,0.735 0.81,1.68 0.24,0.93 0.24,1.905 0,0.9 -0.225,1.845 -0.21,0.93 -0.765,1.695 -0.555,0.75 -1.485,1.23 -0.93,0.48 -2.34,0.48 l -2.73,0 0,-10.5 z m 2.805,9.555 q 1.05,0 1.755,-0.375 0.705,-0.39 1.125,-1.005 0.42,-0.63 0.585,-1.395 0.18,-0.765 0.18,-1.53 0,-0.81 -0.195,-1.59 -0.195,-0.78 -0.615,-1.38 -0.42,-0.6 -1.08,-0.96 -0.66,-0.375 -1.59,-0.375 l -1.92,0 0,8.61 1.755,0 z"
         id="path4224"
         style="" />
      <path
         d="m -116.76861,415.94125 q 0.135,1.17 0.705,1.89 0.57,0.72 1.56,0.72 0.42,0 0.855,-0.135 0.435,-0.135 0.87,-0.465 l 0.57,0.705 q -0.45,0.375 -1.065,0.63 -0.6,0.24 -1.275,0.24 -0.78,0 -1.395,-0.315 -0.615,-0.33 -1.05,-0.885 -0.42,-0.555 -0.66,-1.275 -0.225,-0.735 -0.225,-1.545 0,-0.96 0.24,-1.695 0.255,-0.75 0.69,-1.26 0.435,-0.51 1.05,-0.78 0.615,-0.27 1.35,-0.27 0.615,0 1.155,0.225 0.555,0.21 0.975,0.66 0.42,0.45 0.66,1.155 0.24,0.705 0.24,1.665 0,0.12 0,0.3 0,0.18 -0.03,0.435 l -5.22,0 z m 2.22,-3.495 q -0.93,0 -1.56,0.615 -0.615,0.615 -0.69,1.935 l 4.215,0 q 0,-0.78 -0.195,-1.275 -0.195,-0.495 -0.495,-0.78 -0.285,-0.285 -0.63,-0.39 -0.345,-0.105 -0.645,-0.105 z"
         id="path4226"
         style="" />
      <path
         d="m -106.90916,419.52625 q -1.395,0 -2.22,-1.035 -0.81,-1.05 -0.81,-2.97 0,-1.905 0.825,-2.955 0.84,-1.065 2.325,-1.065 0.855,0 1.5,0.42 0.645,0.405 0.96,1.185 l -0.96,0.375 q -0.18,-0.435 -0.555,-0.735 -0.36,-0.3 -0.99,-0.3 -0.54,0 -0.915,0.225 -0.375,0.21 -0.63,0.615 -0.24,0.39 -0.36,0.96 -0.105,0.57 -0.105,1.275 0,1.455 0.48,2.265 0.48,0.795 1.5,0.795 0.63,0 1.065,-0.315 0.435,-0.315 0.63,-0.855 l 0.945,0.36 q -0.27,0.81 -0.99,1.29 -0.705,0.465 -1.695,0.465 z"
         id="path4228"
         style="" />
      <path
         d="m -99.035098,419.34625 q 0,-0.99 0.285,-1.695 0.285,-0.72 0.735,-1.26 0.45,-0.54 1.02,-0.945 0.57,-0.405 1.14,-0.795 0.495,-0.33 0.945,-0.645 0.45,-0.33 0.795,-0.69 0.36,-0.36 0.57,-0.765 0.21,-0.42 0.21,-0.93 0,-0.855 -0.6,-1.425 -0.585,-0.585 -1.68,-0.585 -1.065,0 -1.605,0.48 -0.54,0.465 -0.735,1.215 l -0.93,-0.42 q 0.12,-0.465 0.405,-0.87 0.285,-0.405 0.72,-0.705 0.435,-0.3 0.99,-0.465 0.57,-0.18 1.245,-0.18 1.56,0 2.415,0.81 0.87,0.795 0.87,2.145 0,0.72 -0.285,1.275 -0.27,0.555 -0.72,1.02 -0.435,0.45 -0.99,0.84 -0.555,0.375 -1.125,0.735 -0.45,0.3 -0.87,0.6 -0.42,0.285 -0.78,0.63 -0.345,0.33 -0.585,0.735 -0.24,0.39 -0.33,0.885 l 5.775,0 0,1.005 -6.885,0 z"
         id="path4230"
         style="" />
      <path
         d="m -86.455957,419.52625 q -1.035,0 -1.725,-0.48 -0.69,-0.48 -1.11,-1.245 -0.405,-0.78 -0.585,-1.74 -0.18,-0.975 -0.18,-1.965 0,-0.54 0.06,-1.155 0.06,-0.63 0.21,-1.23 0.165,-0.6 0.42,-1.155 0.27,-0.555 0.675,-0.975 0.405,-0.42 0.945,-0.66 0.555,-0.255 1.29,-0.255 1.035,0 1.725,0.495 0.69,0.48 1.095,1.26 0.42,0.78 0.6,1.755 0.18,0.96 0.18,1.92 0,0.555 -0.075,1.17 -0.06,0.615 -0.225,1.23 -0.15,0.6 -0.42,1.155 -0.255,0.54 -0.66,0.96 -0.405,0.42 -0.96,0.675 -0.54,0.24 -1.26,0.24 z m 0,-0.945 q 0.78,0 1.26,-0.42 0.495,-0.435 0.765,-1.095 0.27,-0.66 0.36,-1.455 0.09,-0.795 0.09,-1.515 0,-0.81 -0.105,-1.605 -0.105,-0.81 -0.39,-1.44 -0.285,-0.645 -0.765,-1.035 -0.48,-0.405 -1.215,-0.405 -0.795,0 -1.29,0.435 -0.48,0.435 -0.75,1.095 -0.27,0.66 -0.375,1.455 -0.09,0.78 -0.09,1.5 0,0.825 0.105,1.635 0.105,0.795 0.39,1.44 0.285,0.63 0.765,1.02 0.495,0.39 1.245,0.39 z"
         id="path4232"
         style="" />
      <path
         d="m -79.433848,419.34625 0,-8.595 -1.785,0 0,-0.6 q 0.795,0 1.35,-0.27 0.555,-0.285 0.81,-1.035 l 0.675,0 0,10.5 -1.05,0 z"
         id="path4234"
         style="" />
      <path
         d="m -72.324082,418.58125 q 0.495,0 0.915,-0.15 0.435,-0.165 0.75,-0.465 0.315,-0.3 0.495,-0.735 0.18,-0.435 0.18,-0.99 0,-0.465 -0.165,-0.885 -0.165,-0.42 -0.48,-0.735 -0.3,-0.33 -0.735,-0.51 -0.435,-0.195 -0.96,-0.195 -0.525,0 -0.96,0.195 -0.435,0.18 -0.75,0.51 -0.3,0.315 -0.465,0.735 -0.165,0.42 -0.165,0.885 0,0.555 0.18,0.99 0.18,0.435 0.495,0.735 0.315,0.3 0.735,0.465 0.435,0.15 0.93,0.15 z m 0,-9.915 q 0.63,0 1.17,0.225 0.555,0.21 0.945,0.585 0.39,0.375 0.615,0.87 0.225,0.495 0.225,1.035 0,0.675 -0.345,1.275 -0.33,0.585 -1.05,0.885 0.84,0.315 1.35,1.095 0.525,0.765 0.525,1.755 0,0.66 -0.255,1.245 -0.255,0.57 -0.72,0.99 -0.465,0.42 -1.095,0.66 -0.63,0.24 -1.365,0.24 -0.75,0 -1.38,-0.24 -0.615,-0.24 -1.08,-0.66 -0.465,-0.42 -0.72,-0.99 -0.255,-0.585 -0.255,-1.245 0,-0.495 0.135,-0.945 0.135,-0.45 0.375,-0.81 0.255,-0.375 0.6,-0.66 0.345,-0.285 0.75,-0.435 -0.675,-0.3 -1.035,-0.885 -0.345,-0.6 -0.345,-1.275 0,-0.54 0.225,-1.035 0.225,-0.495 0.615,-0.87 0.39,-0.375 0.93,-0.585 0.555,-0.225 1.185,-0.225 z m 0,4.56 q 0.87,0 1.38,-0.48 0.51,-0.48 0.51,-1.23 0,-0.885 -0.54,-1.395 -0.54,-0.51 -1.35,-0.51 -0.81,0 -1.35,0.51 -0.54,0.51 -0.54,1.395 0,0.75 0.51,1.23 0.51,0.48 1.38,0.48 z"
         id="path4236"
         style="" />
    </g>
  </g>
</svg>
