<?xml version="1.0" encoding="UTF-8" standalone="no"?>
<!-- Created with Inkscape (http://www.inkscape.org/) -->

<svg
   xmlns:dc="http://purl.org/dc/elements/1.1/"
   xmlns:cc="http://creativecommons.org/ns#"
   xmlns:rdf="http://www.w3.org/1999/02/22-rdf-syntax-ns#"
   xmlns:svg="http://www.w3.org/2000/svg"
   xmlns="http://www.w3.org/2000/svg"
   xmlns:sodipodi="http://sodipodi.sourceforge.net/DTD/sodipodi-0.dtd"
   xmlns:inkscape="http://www.inkscape.org/namespaces/inkscape"
   width="393.55853"
   height="345.74875"
   viewBox="0 0 393.55853 345.74875"
   id="svg2"
   version="1.1"
   inkscape:version="0.91 r13725"
   sodipodi:docname="PWM.svg">
  <defs
     id="defs4" />
  <sodipodi:namedview
     id="base"
     pagecolor="#ffffff"
     bordercolor="#666666"
     borderopacity="1.0"
     inkscape:pageopacity="1"
     inkscape:pageshadow="2"
     inkscape:zoom="1"
     inkscape:cx="188.20602"
     inkscape:cy="50.177111"
     inkscape:document-units="px"
     inkscape:current-layer="layer3"
     showgrid="false"
     fit-margin-top="25"
     fit-margin-left="25"
     fit-margin-right="25"
     fit-margin-bottom="25"
     units="px"
     showguides="true"
     inkscape:guide-bbox="true"
     inkscape:window-width="1920"
     inkscape:window-height="1137"
     inkscape:window-x="1912"
     inkscape:window-y="-8"
     inkscape:window-maximized="1" />
  <metadata
     id="metadata7">
    <rdf:RDF>
      <cc:Work
         rdf:about="">
        <dc:format>image/svg+xml</dc:format>
        <dc:type
           rdf:resource="http://purl.org/dc/dcmitype/StillImage" />
        <dc:title></dc:title>
        <dc:description>Terminal silhouette for PWM (Portland, Maine)</dc:description>
      </cc:Work>
    </rdf:RDF>
  </metadata>
  <g
     inkscape:groupmode="layer"
     id="layer2"
     inkscape:label="Terminal"
     style="display:inline"
     transform="translate(-737.07219,-294.02631)">
    <path
       style="fill:#dddddd;fill-opacity:1;fill-rule:evenodd;stroke:#222222;stroke-width:1.5;stroke-linecap:butt;stroke-linejoin:miter;stroke-miterlimit:4;stroke-dasharray:none;stroke-opacity:1"
       d="m 871.46885,552.30732 229.44435,20.55042 -1.0593,9.5337 1.3771,0.21186 -0.3178,3.60162 3.2839,0.42372 -0.6356,6.56766 1.2711,0.42372 -0.7415,8.58033 -1.3771,-0.10593 0,0.84744 -6.5676,-0.63558 -0.9534,11.6523 -13.7709,-1.27116 0.4237,-4.76685 -38.7703,-3.91941 0.5826,-6.77952 -2.3835,-0.21186 -0.1059,2.48935 -11.6523,-1.11226 0.2648,-2.2775 -3.9723,-0.37075 c 0,0 -1.9068,-0.10593 -1.6949,-2.22453 l -9.7456,-0.68855 c 0,0 0.106,2.17157 -2.5953,1.95971 l -0.9414,12.40043 -99.30196,-9.79614 -0.61391,5.09243 -4.79384,-0.74904 0.64547,-4.81319 -66.70978,-6.58092 -0.45029,5.252 -10.33673,-1.19846 0.43283,-5.07499 -18.47358,-1.82242 -3.54143,2.93071 -6.0271,-7.32873 3.64856,-2.87712 -8.96691,-11.01958 -3.55233,3.11029 -6.61506,-8.04366 3.71417,-2.99709 -4.43061,-5.44484 -3.70826,3.06166 -6.36847,-7.74382 3.66953,-3.19175 -5.66013,-6.95583 -4.06743,2.78124 -1.8644,-2.26704 3.8266,-3.10134 -8.16631,-10.03572 16.93093,-14.19981 1.48302,1.80081 29.23668,-23.94018 17.79624,20.44449 33.57981,-22.03344 30.93156,38.66445 z"
       id="path4154"
       inkscape:connector-curvature="0"
       sodipodi:nodetypes="cccccccccccccccccccccccccccccccccccccccccccccccccccccccccc" />
  </g>
  <g
     inkscape:groupmode="layer"
     id="layer3"
     inkscape:label="Label"
     transform="translate(-737.07219,-294.02631)">
    <g
       id="g4165"
       transform="translate(53.670733,97)">
      <g
         style="font-style:normal;font-variant:normal;font-weight:bold;font-stretch:normal;font-size:125px;line-height:125%;font-family:Overpass;-inkscape-font-specification:'Overpass, Bold';text-align:start;letter-spacing:0px;word-spacing:0px;writing-mode:lr-tb;text-anchor:start;fill:#dddddd;fill-opacity:1;stroke:#222222;stroke-width:0.25;stroke-linecap:butt;stroke-linejoin:miter;stroke-miterlimit:4;stroke-dasharray:none;stroke-opacity:1"
         id="text4157">
        <path
           d="m 743.18732,309.67572 0,-87.52441 37.53662,0 q 8.30078,0 13.97705,2.4414 5.67627,2.38037 9.21631,6.34766 3.54004,3.90625 5.06592,8.8501 1.58691,4.94384 1.58691,10.00976 0,3.17383 -0.73242,6.46973 -0.73242,3.23486 -2.2583,6.34765 -1.52588,3.05176 -3.90625,5.73731 -2.38037,2.68555 -5.73731,4.76074 -3.2959,2.01416 -7.62939,3.17383 -4.27246,1.15967 -9.58252,1.15967 l -20.62988,0 0,32.22656 -16.90674,0 z m 38.26904,-48.27881 q 3.23486,0 5.43213,-1.0376 2.19726,-1.03759 3.54004,-2.68554 1.40381,-1.64795 2.01416,-3.72315 0.61035,-2.07519 0.61035,-4.15039 0,-1.89209 -0.54932,-3.90625 -0.48828,-2.07519 -1.83105,-3.78418 -1.28174,-1.70898 -3.54004,-2.80761 -2.2583,-1.09864 -5.67627,-1.09864 l -21.3623,0 0,23.19336 21.3623,0 z"
           style=""
           id="path4172" />
        <path
           d="m 919.09064,222.15131 -18.9209,87.52441 -15.74707,0 -13.24463,-51.51367 q -0.54932,-2.0752 -0.79346,-3.66211 -0.24414,-1.64795 -0.42724,-2.92969 -0.18311,1.28174 -0.48828,2.92969 -0.30518,1.58691 -0.79346,3.54004 l -12.87842,51.63574 -15.74707,0 -18.73779,-87.52441 17.39502,0 9.76562,49.25537 q 0.48828,2.2583 0.67139,3.72314 0.24414,1.46485 0.42724,2.80762 0.18311,-1.34277 0.42725,-2.80762 0.24414,-1.52588 0.79346,-3.84521 l 12.02392,-49.1333 14.64844,0 12.20703,49.1333 q 0.61035,2.31933 0.85449,3.84521 0.24414,1.46485 0.42725,2.80762 0.18311,-1.34277 0.36621,-2.80762 0.24414,-1.46484 0.73242,-3.72314 l 9.76563,-49.25537 17.27295,0 z"
           style=""
           id="path4174" />
        <path
           d="m 1000.3284,309.67572 0,-44.98291 q 0,-0.73242 0,-1.70898 0.061,-0.97657 0.061,-1.95313 0.061,-1.0376 0.061,-1.89209 0.061,-0.85449 0.1221,-1.34277 -0.67142,2.07519 -1.3428,3.72314 -0.61035,1.64795 -1.28174,3.17383 l -21.24024,46.50879 -21.3623,-46.50879 q -0.67139,-1.52588 -1.34277,-3.17383 -0.61035,-1.64795 -1.28174,-3.72314 0.061,0.48828 0.061,1.34277 0.061,0.85449 0.061,1.89209 0.061,0.97656 0.061,1.95313 0.061,0.97656 0.061,1.70898 l 0,44.98291 -16.90674,0 0,-87.52441 17.15088,0 21.48437,48.2788 q 0.67139,1.58692 1.22071,3.05176 0.54931,1.40381 1.0376,2.92969 0.48828,-1.52588 1.03759,-2.92969 0.54932,-1.46484 1.22071,-3.05176 l 21.85063,-48.2788 16.1132,0 0,87.52441 -16.8457,0 z"
           style=""
           id="path4176" />
      </g>
      <g
         style="font-style:normal;font-variant:normal;font-weight:normal;font-stretch:normal;font-size:45px;line-height:125%;font-family:Overpass;-inkscape-font-specification:'Overpass, Normal';text-align:start;letter-spacing:0px;word-spacing:0px;writing-mode:lr-tb;text-anchor:start;fill:#222222;fill-opacity:1;stroke:none;stroke-width:1px;stroke-linecap:butt;stroke-linejoin:miter;stroke-opacity:1"
         id="text4161">
        <path
           d="m 724.04303,358.82428 0,-31.50879 12.65625,0 q 2.90039,0 4.87793,0.85693 1.99951,0.83497 3.20801,2.19727 1.23047,1.3623 1.75781,3.09814 0.54932,1.71387 0.54932,3.49366 0,1.09863 -0.26368,2.24121 -0.24169,1.14258 -0.76904,2.21924 -0.52734,1.05468 -1.3623,1.99951 -0.83496,0.94482 -1.99952,1.64795 -1.14257,0.70312 -2.63671,1.1206 -1.49414,0.39551 -3.36182,0.39551 l -7.97607,0 0,12.23877 -4.68018,0 z m 12.91992,-16.74316 q 1.47217,0 2.46094,-0.46143 1.01074,-0.46143 1.62598,-1.18652 0.6372,-0.74707 0.90087,-1.64795 0.28565,-0.92285 0.28565,-1.82373 0,-0.83496 -0.2417,-1.73584 -0.2417,-0.90088 -0.83496,-1.64795 -0.59326,-0.76905 -1.62598,-1.25244 -1.01074,-0.50537 -2.5708,-0.50537 l -8.23974,0 0,10.26123 8.23974,0 z"
           style=""
           id="path4179" />
        <path
           d="m 761.66022,359.3736 q -2.41699,0 -4.37256,-0.81299 -1.9336,-0.81299 -3.2959,-2.35108 -1.3623,-1.56005 -2.10937,-3.77929 -0.7251,-2.24121 -0.7251,-5.07569 0,-2.83447 0.7251,-5.07568 0.74707,-2.24121 2.10937,-3.7793 1.3623,-1.56006 3.2959,-2.37304 1.95557,-0.83497 4.37256,-0.83497 2.39502,0 4.35058,0.83497 1.95557,0.81298 3.31787,2.37304 1.36231,1.53809 2.10938,3.7793 0.74707,2.24121 0.74707,5.07568 0,2.83448 -0.74707,5.07569 -0.74707,2.21924 -2.10938,3.77929 -1.3623,1.53809 -3.31787,2.35108 -1.95556,0.81299 -4.35058,0.81299 z m 0,-4.41651 q 1.34033,0 2.41699,-0.52734 1.09863,-0.52735 1.8457,-1.49414 0.76905,-0.98877 1.16455,-2.39502 0.41748,-1.40625 0.41748,-3.18604 0,-1.77978 -0.41748,-3.18603 -0.3955,-1.42822 -1.16455,-2.41699 -0.74707,-0.98877 -1.8457,-1.51612 -1.07666,-0.52734 -2.41699,-0.52734 -1.34033,0 -2.41699,0.52734 -1.07667,0.52735 -1.84571,1.51612 -0.74707,0.98877 -1.16455,2.41699 -0.39551,1.40625 -0.39551,3.18603 0,1.77979 0.39551,3.18604 0.41748,1.40625 1.16455,2.39502 0.76904,0.96679 1.84571,1.49414 1.07666,0.52734 2.41699,0.52734 z"
           style=""
           id="path4181" />
        <path
           d="m 777.78815,358.82428 0,-23.00537 4.68017,0 0,2.79053 q 0.81299,-1.75782 2.10938,-2.52686 1.29638,-0.79102 3.01025,-0.79102 2.28516,0 3.86719,1.38428 l -0.68115,4.32862 q -0.63721,-0.43946 -1.51612,-0.76905 -0.85693,-0.35156 -2.10937,-0.35156 -0.79102,0 -1.62598,0.28564 -0.81299,0.26368 -1.49414,0.9668 -0.68115,0.68115 -1.1206,1.8457 -0.43946,1.14258 -0.43946,2.92237 l 0,12.91992 -4.68017,0 z"
           style=""
           id="path4183" />
        <path
           d="m 802.63922,359.3736 q -1.3623,0 -2.35107,-0.41748 -0.9668,-0.39551 -1.60401,-1.14258 -0.61523,-0.74707 -0.90088,-1.80176 -0.28564,-1.07666 -0.28564,-2.37305 l 0,-13.75488 -3.55957,0 0,-4.06494 3.55957,0 0,-7.22901 4.68018,-2.26318 0,9.49219 5.44921,0 0,4.06494 -5.44921,0 0,12.54639 q 0,0.57129 0.0879,1.05468 0.10986,0.4834 0.35156,0.83497 0.26367,0.35156 0.70312,0.54931 0.43946,0.17578 1.12061,0.17578 1.66992,0 3.40576,-1.07666 l -0.57129,4.35059 q -0.9668,0.4834 -2.10937,0.76904 -1.14258,0.28565 -2.52686,0.28565 z"
           style=""
           id="path4185" />
        <path
           d="m 813.25201,358.82428 0,-30.27832 4.68018,-2.21924 0,32.49756 -4.68018,0 z"
           style=""
           id="path4187" />
        <path
           d="m 842.51959,358.82428 -4.48242,0 0,-1.97754 q -0.43945,0.46143 -1.05469,0.92285 -0.61523,0.43946 -1.40625,0.81299 -0.76904,0.35156 -1.73584,0.57129 -0.96679,0.21973 -2.10937,0.21973 -1.75781,0 -3.25196,-0.4834 -1.49414,-0.4834 -2.59277,-1.4502 -1.09863,-0.98877 -1.73584,-2.41699 -0.61523,-1.4502 -0.61523,-3.36182 0,-1.97754 0.74707,-3.40576 0.74707,-1.45019 1.97754,-2.37304 1.23047,-0.94483 2.8125,-1.38428 1.604,-0.43946 3.2959,-0.43946 1.58203,0 3.03222,0.35157 1.47217,0.32959 2.63672,1.01074 l 0,-1.27441 q 0,-1.29639 -0.30762,-2.19727 -0.28564,-0.90088 -0.90088,-1.4502 -0.59326,-0.57128 -1.51611,-0.81298 -0.92285,-0.26368 -2.19726,-0.26368 -2.15332,0 -3.73536,0.57129 -1.56005,0.57129 -2.83447,1.51612 l -1.38428,-3.84522 q 0.70313,-0.4834 1.60401,-0.90088 0.90088,-0.43945 1.97754,-0.76904 1.07666,-0.32959 2.3291,-0.50537 1.25244,-0.19776 2.68066,-0.19776 0.9668,0 1.99951,0.10987 1.03272,0.10986 1.99952,0.43945 0.98877,0.30762 1.8457,0.90088 0.87891,0.59326 1.51611,1.56006 0.65918,0.94482 1.03272,2.3291 0.37353,1.38428 0.37353,3.2959 l 0,14.89746 z m -9.93164,-3.60352 q 1.77979,0 3.14209,-0.72509 1.38428,-0.7251 2.30713,-1.73584 l 0,-3.51563 q -0.9668,-0.50537 -2.26318,-0.81299 -1.29639,-0.30761 -2.65869,-0.30761 -1.05469,0 -1.97754,0.19775 -0.92286,0.19775 -1.62598,0.63721 -0.68115,0.41748 -1.07666,1.09863 -0.39551,0.65918 -0.39551,1.604 0,1.64795 1.14258,2.61475 1.16455,0.94482 3.40576,0.94482 z"
           style=""
           id="path4189" />
        <path
           d="m 863.10797,358.82428 0,-13.73291 q 0,-1.4502 -0.35156,-2.46094 -0.35156,-1.03271 -0.9668,-1.66992 -0.61523,-0.65918 -1.45019,-0.94482 -0.83496,-0.30762 -1.82373,-0.30762 -1.05469,0 -1.95557,0.28564 -0.90088,0.26368 -1.56006,0.87891 -0.65918,0.61523 -1.05469,1.64795 -0.37353,1.01074 -0.37353,2.48291 l 0,13.8208 -4.68018,0 0,-23.00537 4.68018,0 0,2.21924 q 1.1206,-1.42823 2.5708,-2.08741 1.45019,-0.65918 3.36182,-0.65918 1.80175,0 3.31787,0.52735 1.51611,0.50537 2.61474,1.66992 1.12061,1.16455 1.73584,3.03223 0.61524,1.86767 0.61524,4.57031 l 0,13.73291 -4.68018,0 z"
           style=""
           id="path4191" />
        <path
           d="m 882.70758,359.3736 q -2.17529,0 -3.95508,-0.81299 -1.75781,-0.83496 -3.01025,-2.37305 -1.25244,-1.56006 -1.9336,-3.80127 -0.65917,-2.24121 -0.65917,-5.07568 0,-2.83447 0.70312,-5.05371 0.70313,-2.24121 1.95557,-3.7793 1.27441,-1.56006 3.03222,-2.37305 1.75782,-0.81299 3.86719,-0.81299 1.88965,0 3.20801,0.61524 1.34033,0.61523 2.21924,1.53809 l 0,-8.94288 4.68017,-2.17529 0,32.49756 -4.68017,0 0,-1.62598 q -0.92285,1.03272 -2.21924,1.60401 -1.27442,0.57129 -3.20801,0.57129 z m 0.65918,-4.41651 q 1.58203,0 2.79053,-0.68115 1.20849,-0.68115 1.97754,-1.93359 l 0,-10.1294 q -0.26368,-0.43945 -0.70313,-0.8789 -0.43945,-0.43946 -1.05469,-0.79102 -0.59326,-0.37354 -1.3623,-0.59326 -0.74707,-0.2417 -1.64795,-0.2417 -2.63672,0 -4.08691,1.95557 -1.4502,1.93359 -1.4502,5.64697 0,1.66992 0.37354,3.07617 0.3955,1.38428 1.09863,2.41699 0.7251,1.01074 1.73584,1.58203 1.03271,0.57129 2.3291,0.57129 z"
           style=""
           id="path4193" />
        <path
           d="m 898.06647,364.05377 q 0.30761,-0.26367 0.72509,-0.76904 0.43946,-0.4834 0.85694,-1.12061 0.41748,-0.61523 0.7251,-1.34033 0.32959,-0.70312 0.43945,-1.45019 -0.59326,-0.0659 -1.14258,-0.30762 -0.54932,-0.2417 -0.9668,-0.65918 -0.3955,-0.41748 -0.65918,-0.9668 -0.24169,-0.54931 -0.24169,-1.23047 0,-0.76904 0.26367,-1.38427 0.28564,-0.63721 0.72509,-1.07666 0.46143,-0.46143 1.05469,-0.70313 0.61524,-0.2417 1.27442,-0.2417 0.70312,0 1.34033,0.26367 0.65918,0.2417 1.14258,0.74707 0.50537,0.50538 0.79101,1.27442 0.28565,0.76904 0.28565,1.80176 0,1.29638 -0.39551,2.52685 -0.37354,1.23047 -1.03272,2.28516 -0.65918,1.07666 -1.56005,1.95556 -0.87891,0.90088 -1.86768,1.51612 l -1.75781,-1.12061 z"
           style=""
           id="path4195" />
        <path
           d="m 944.05524,358.82428 0,-17.22656 0.13183,-4.72412 -1.8457,4.85595 -7.60254,17.64405 -7.64648,-17.77588 -1.88965,-4.72412 0.13183,4.72412 0,17.22656 -4.68017,0 0,-31.50879 4.72412,0 8.45947,19.66553 0.85694,2.30713 0.90087,-2.30713 8.41553,-19.66553 4.72412,0 0,31.50879 -4.68017,0 z"
           style=""
           id="path4197" />
        <path
           d="m 973.82819,358.82428 -4.48243,0 0,-1.97754 q -0.43945,0.46143 -1.05468,0.92285 -0.61524,0.43946 -1.40625,0.81299 -0.76905,0.35156 -1.73584,0.57129 -0.9668,0.21973 -2.10938,0.21973 -1.75781,0 -3.25195,-0.4834 -1.49414,-0.4834 -2.59277,-1.4502 -1.09864,-0.98877 -1.73584,-2.41699 -0.61524,-1.4502 -0.61524,-3.36182 0,-1.97754 0.74707,-3.40576 0.74707,-1.45019 1.97754,-2.37304 1.23047,-0.94483 2.8125,-1.38428 1.604,-0.43946 3.2959,-0.43946 1.58203,0 3.03223,0.35157 1.47216,0.32959 2.63671,1.01074 l 0,-1.27441 q 0,-1.29639 -0.30761,-2.19727 -0.28565,-0.90088 -0.90088,-1.4502 -0.59326,-0.57128 -1.51612,-0.81298 -0.92285,-0.26368 -2.19726,-0.26368 -2.15332,0 -3.73535,0.57129 -1.56006,0.57129 -2.83448,1.51612 l -1.38427,-3.84522 q 0.70312,-0.4834 1.604,-0.90088 0.90088,-0.43945 1.97754,-0.76904 1.07666,-0.32959 2.3291,-0.50537 1.25244,-0.19776 2.68067,-0.19776 0.96679,0 1.99951,0.10987 1.03271,0.10986 1.99951,0.43945 0.98877,0.30762 1.8457,0.90088 0.87891,0.59326 1.51612,1.56006 0.65918,0.94482 1.03271,2.3291 0.37354,1.38428 0.37354,3.2959 l 0,14.89746 z m -9.93164,-3.60352 q 1.77978,0 3.14209,-0.72509 1.38427,-0.7251 2.30712,-1.73584 l 0,-3.51563 q -0.96679,-0.50537 -2.26318,-0.81299 -1.29639,-0.30761 -2.65869,-0.30761 -1.05469,0 -1.97754,0.19775 -0.92285,0.19775 -1.62598,0.63721 -0.68115,0.41748 -1.07666,1.09863 -0.3955,0.65918 -0.3955,1.604 0,1.64795 1.14257,2.61475 1.16455,0.94482 3.40577,0.94482 z"
           style=""
           id="path4199" />
        <path
           d="m 980.2442,358.82428 0,-23.00537 4.68018,0 0,23.00537 -4.68018,0 z m 2.3291,-26.58691 q -0.59326,0 -1.1206,-0.21973 -0.50537,-0.21973 -0.90088,-0.59326 -0.37354,-0.39551 -0.59326,-0.90088 -0.21973,-0.52735 -0.21973,-1.12061 0,-0.59326 0.21973,-1.09863 0.21972,-0.52734 0.59326,-0.90088 0.39551,-0.39551 0.90088,-0.61523 0.52734,-0.21973 1.1206,-0.21973 0.59326,0 1.09864,0.21973 0.52734,0.21972 0.90087,0.61523 0.39551,0.37354 0.61524,0.90088 0.21973,0.50537 0.21973,1.09863 0,0.59326 -0.21973,1.12061 -0.21973,0.50537 -0.61524,0.90088 -0.37353,0.37353 -0.90087,0.59326 -0.50538,0.21973 -1.09864,0.21973 z"
           style=""
           id="path4201" />
        <path
           d="m 1005.9302,358.82428 0,-13.73291 q 0,-1.4502 -0.3515,-2.46094 -0.3516,-1.03271 -0.9668,-1.66992 -0.6153,-0.65918 -1.4502,-0.94482 -0.835,-0.30762 -1.8237,-0.30762 -1.0547,0 -1.95561,0.28564 -0.90088,0.26368 -1.56006,0.87891 -0.65918,0.61523 -1.05469,1.64795 -0.37354,1.01074 -0.37354,2.48291 l 0,13.8208 -4.68017,0 0,-23.00537 4.68017,0 0,2.21924 q 1.12061,-1.42823 2.5708,-2.08741 1.4502,-0.65918 3.3618,-0.65918 1.8018,0 3.3179,0.52735 1.5161,0.50537 2.6147,1.66992 1.1206,1.16455 1.7359,3.03223 0.6152,1.86767 0.6152,4.57031 l 0,13.73291 -4.6802,0 z"
           style=""
           id="path4203" />
        <path
           d="m 1026.4307,359.3736 q -2.395,0 -4.3286,-0.81299 -1.9336,-0.83496 -3.2959,-2.37305 -1.3623,-1.56006 -2.1094,-3.80127 -0.7251,-2.24121 -0.7251,-5.07568 0,-2.83447 0.7471,-5.05371 0.7471,-2.24121 2.1094,-3.7793 1.3843,-1.56006 3.2959,-2.37305 1.9336,-0.81299 4.3066,-0.81299 2.0435,0 3.8233,0.65918 1.8017,0.63721 3.1421,1.97754 1.3623,1.31836 2.1313,3.33985 0.791,2.02148 0.791,4.76806 0,0.74707 -0.044,1.58204 -0.022,0.83496 -0.1319,1.45019 l -15.4907,0 q 0.022,1.42822 0.5054,2.5708 0.5054,1.12061 1.3183,1.93359 0.813,0.79102 1.8458,1.23047 1.0327,0.41748 2.1533,0.41748 1.4282,0 2.6367,-0.59326 1.2305,-0.59326 2.1313,-1.73584 l 3.0542,3.14209 q -1.2524,1.49414 -3.208,2.41699 -1.9555,0.92286 -4.6582,0.92286 z m 0,-19.95118 q -1.0986,0 -2.1093,0.32959 -1.0108,0.30762 -1.8018,1.01075 -0.7691,0.68115 -1.2744,1.80175 -0.5054,1.12061 -0.5933,2.72461 l 10.9863,0 q -0.044,-1.604 -0.5053,-2.72461 -0.4615,-1.1206 -1.2085,-1.80175 -0.7471,-0.70313 -1.6699,-1.01075 -0.9009,-0.32959 -1.8238,-0.32959 z"
           style=""
           id="path4205" />
      </g>
    </g>
  </g>
</svg>
