<?xml version="1.0" encoding="UTF-8" standalone="no"?>
<!-- Created with Inkscape (http://www.inkscape.org/) -->

<svg
   xmlns:dc="http://purl.org/dc/elements/1.1/"
   xmlns:cc="http://creativecommons.org/ns#"
   xmlns:rdf="http://www.w3.org/1999/02/22-rdf-syntax-ns#"
   xmlns:svg="http://www.w3.org/2000/svg"
   xmlns="http://www.w3.org/2000/svg"
   xmlns:sodipodi="http://sodipodi.sourceforge.net/DTD/sodipodi-0.dtd"
   xmlns:inkscape="http://www.inkscape.org/namespaces/inkscape"
   width="418.83905"
   height="225.99527"
   viewBox="0 0 418.83905 225.99527"
   id="svg2"
   version="1.1"
   inkscape:version="0.92.4 (5da689c313, 2019-01-14)"
   sodipodi:docname="RAP.svg"
   inkscape:export-filename="C:\Users\paulb\Dropbox\Projects\Terminal Silhouettes\Silhouettes\png\RAP.png"
   inkscape:export-xdpi="90"
   inkscape:export-ydpi="90">
  <defs
     id="defs4" />
  <sodipodi:namedview
     id="base"
     pagecolor="#ffffff"
     bordercolor="#666666"
     borderopacity="1.0"
     inkscape:pageopacity="1"
     inkscape:pageshadow="2"
     inkscape:zoom="1"
     inkscape:cx="-42.63597"
     inkscape:cy="167.66392"
     inkscape:document-units="px"
     inkscape:current-layer="layer3"
     showgrid="false"
     units="px"
     fit-margin-top="25"
     fit-margin-left="25"
     fit-margin-right="25"
     fit-margin-bottom="25"
     showguides="true"
     inkscape:guide-bbox="true"
     inkscape:window-width="1920"
     inkscape:window-height="1137"
     inkscape:window-x="1912"
     inkscape:window-y="-8"
     inkscape:window-maximized="1">
    <inkscape:grid
       type="xygrid"
       id="grid4225"
       originx="-522.10547"
       originy="-662.96549" />
  </sodipodi:namedview>
  <metadata
     id="metadata7">
    <rdf:RDF>
      <cc:Work
         rdf:about="">
        <dc:format>image/svg+xml</dc:format>
        <dc:type
           rdf:resource="http://purl.org/dc/dcmitype/StillImage" />
        <dc:title />
      </cc:Work>
    </rdf:RDF>
  </metadata>
  <g
     inkscape:groupmode="layer"
     id="layer2"
     inkscape:label="Terminal"
     style="display:inline"
     transform="translate(-522.10547,-473.53925)">
    <path
       style="fill:#dddddd;fill-opacity:1;fill-rule:evenodd;stroke:#222222;stroke-width:1.5;stroke-linecap:butt;stroke-linejoin:miter;stroke-miterlimit:4;stroke-dasharray:none;stroke-opacity:1"
       d="m 899.83091,499.35054 -6.86411,2.56593 -2.66405,5.84551 -1.10901,-0.50564 -2.18072,4.78395 1.10899,0.50565 -24.35807,53.44416 6.8933,3.14172 -18.11722,39.75002 -29.83826,-13.59926 -7.47721,16.40565 3.13403,1.42853 -19.18325,0.93181 0.66054,13.6013 5.53045,-0.26844 0.36048,7.42206 17.56859,-0.85355 0.56728,11.67319 9.54763,-0.46387 -0.22464,-4.63028 5.35447,-0.26032 0.40062,8.24561 7.45734,-0.36251 1.12847,23.23245 9.18228,-0.44603 -0.72582,-14.93941 6.27818,-0.30493 0.18165,3.73698 7.18445,-0.34872 0.18328,3.77185 7.34258,-0.35642 0.17963,3.69643 7.53803,-0.36615 0.38481,7.9212 25.49506,-1.23835 -0.20354,-4.18789 -2.3713,0.11516 -1.699,-34.97336 -38.6633,-17.62171 42.4749,-93.19418 1.1228,0.51132 2.1803,-4.78395 -1.1228,-0.51132 2.66447,-5.84552 -2.56633,-6.86411 -12.73598,-5.80456 z"
       id="path4223"
       inkscape:connector-curvature="0" />
  </g>
  <g
     inkscape:groupmode="layer"
     id="layer3"
     inkscape:label="Label"
     transform="translate(-522.10547,-473.53925)">
    <g
       id="g4267"
       transform="translate(-529,93)">
      <g
         style="font-style:normal;font-variant:normal;font-weight:bold;font-stretch:normal;font-size:125px;line-height:125%;font-family:Overpass;-inkscape-font-specification:'Overpass, Bold';text-align:start;letter-spacing:0px;word-spacing:0px;writing-mode:lr-tb;text-anchor:start;fill:#dddddd;fill-opacity:1;stroke:#222222;stroke-width:0.25;stroke-linecap:butt;stroke-linejoin:miter;stroke-miterlimit:4;stroke-dasharray:none;stroke-opacity:1"
         id="text4259">
        <path
           d="m 1076.2305,493.18866 0,-87.52441 40.6494,0 q 8.3008,0 13.855,2.31933 5.6152,2.2583 9.0332,6.04248 3.4179,3.78418 4.8828,8.72803 1.4648,4.94385 1.4648,10.31494 0,3.72315 -1.0986,7.56836 -1.0376,3.78418 -3.1738,7.20215 -2.1363,3.41797 -5.3101,6.22558 -3.1738,2.74659 -7.3853,4.27247 l 16.9678,34.85107 -18.9819,0 -16.3574,-32.65381 -17.6392,0 0,32.65381 -16.9067,0 z m 40.8935,-48.64502 q 3.2349,0 5.4322,-0.91553 2.1972,-0.97656 3.54,-2.56347 1.3428,-1.58692 1.8921,-3.66211 0.6103,-2.0752 0.6103,-4.3335 0,-2.07519 -0.5493,-4.08935 -0.4883,-2.0752 -1.77,-3.66211 -1.2817,-1.64795 -3.54,-2.62452 -2.1973,-0.97656 -5.6153,-0.97656 l -23.9868,0 0,22.82715 23.9868,0 z"
           style=""
           id="path4274" />
        <path
           d="m 1224.3628,493.18866 -6.7749,-18.12744 -33.7525,0 -6.7138,18.12744 -18.1275,0 33.5083,-87.52441 16.4795,0 33.5083,87.52441 -18.1274,0 z m -20.874,-56.27441 q -0.6714,-1.58692 -1.4649,-3.78418 -0.7324,-2.19727 -1.2817,-4.08936 -0.4883,1.89209 -1.2818,4.08936 -0.7934,2.19726 -1.4648,3.78418 l -8.667,22.76611 22.7661,0 -8.6059,-22.76611 z"
           style=""
           id="path4276" />
        <path
           d="m 1258.3594,493.18866 0,-87.52441 37.5366,0 q 8.3008,0 13.977,2.4414 5.6763,2.38037 9.2164,6.34766 3.54,3.90625 5.0659,8.8501 1.5869,4.94384 1.5869,10.00976 0,3.17383 -0.7324,6.46973 -0.7325,3.23486 -2.2583,6.34765 -1.5259,3.05176 -3.9063,5.73731 -2.3804,2.68555 -5.7373,4.76074 -3.2959,2.01416 -7.6294,3.17383 -4.2724,1.15967 -9.5825,1.15967 l -20.6299,0 0,32.22656 -16.9067,0 z m 38.269,-48.27881 q 3.2349,0 5.4321,-1.0376 2.1973,-1.03759 3.5401,-2.68554 1.4038,-1.64795 2.0141,-3.72315 0.6104,-2.07519 0.6104,-4.15039 0,-1.89209 -0.5493,-3.90625 -0.4883,-2.07519 -1.8311,-3.78418 -1.2817,-1.70898 -3.54,-2.80762 -2.2583,-1.09863 -5.6763,-1.09863 l -21.3623,0 0,23.19336 21.3623,0 z"
           style=""
           id="path4278" />
      </g>
      <g
         style="font-style:normal;font-variant:normal;font-weight:normal;font-stretch:normal;font-size:45px;line-height:125%;font-family:Overpass;-inkscape-font-specification:'Overpass, Normal';text-align:start;letter-spacing:0px;word-spacing:0px;writing-mode:lr-tb;text-anchor:start;fill:#222222;fill-opacity:1;stroke:none;stroke-width:1px;stroke-linecap:butt;stroke-linejoin:miter;stroke-opacity:1"
         id="text4263">
        <path
           d="m 1076.1055,540.81134 0,-31.50879 13.2715,0 q 2.9003,0 4.8559,0.79102 1.9556,0.79101 3.1421,2.10937 1.1865,1.29639 1.6699,2.96631 0.5054,1.66992 0.5054,3.44971 0,1.3623 -0.3955,2.74658 -0.3955,1.38428 -1.2305,2.61475 -0.813,1.20849 -2.1094,2.15332 -1.2963,0.92285 -3.0981,1.40625 l 6.4819,13.27148 -5.3613,0 -6.1963,-12.87598 -6.8555,0 0,12.87598 -4.6801,0 z m 13.3813,-17.38037 q 1.4722,0 2.461,-0.39551 0.9887,-0.41748 1.604,-1.09863 0.6152,-0.68115 0.8789,-1.53809 0.2636,-0.85693 0.2636,-1.77978 0,-0.81299 -0.2417,-1.66992 -0.2197,-0.85694 -0.813,-1.56006 -0.5932,-0.70313 -1.604,-1.14258 -1.0107,-0.43945 -2.5488,-0.43945 l -8.7012,0 0,9.62402 8.7012,0 z"
           style=""
           id="path4281" />
        <path
           d="m 1123.4785,540.81134 -4.4824,0 0,-1.97754 q -0.4395,0.46143 -1.0547,0.92285 -0.6152,0.43946 -1.4062,0.81299 -0.7691,0.35156 -1.7359,0.57129 -0.9668,0.21973 -2.1094,0.21973 -1.7578,0 -3.2519,-0.4834 -1.4942,-0.4834 -2.5928,-1.4502 -1.0986,-0.98877 -1.7358,-2.41699 -0.6153,-1.45019 -0.6153,-3.36182 0,-1.97753 0.7471,-3.40576 0.7471,-1.45019 1.9776,-2.37304 1.2304,-0.94483 2.8125,-1.38428 1.604,-0.43945 3.2958,-0.43945 1.5821,0 3.0323,0.35156 1.4721,0.32959 2.6367,1.01074 l 0,-1.27441 q 0,-1.29639 -0.3076,-2.19727 -0.2857,-0.90088 -0.9009,-1.45019 -0.5933,-0.57129 -1.5161,-0.81299 -0.9229,-0.26368 -2.1973,-0.26368 -2.1533,0 -3.7353,0.57129 -1.5601,0.57129 -2.8345,1.51612 l -1.3843,-3.84522 q 0.7031,-0.4834 1.604,-0.90088 0.9009,-0.43945 1.9776,-0.76904 1.0766,-0.32959 2.3291,-0.50537 1.2524,-0.19775 2.6806,-0.19775 0.9668,0 1.9995,0.10986 1.0328,0.10986 1.9995,0.43945 0.9888,0.30762 1.8458,0.90088 0.8789,0.59326 1.5161,1.56006 0.6591,0.94482 1.0327,2.3291 0.3735,1.38428 0.3735,3.2959 l 0,14.89746 z m -9.9316,-3.60352 q 1.7798,0 3.1421,-0.72509 1.3842,-0.7251 2.3071,-1.73584 l 0,-3.51563 q -0.9668,-0.50537 -2.2632,-0.81299 -1.2964,-0.30761 -2.6587,-0.30761 -1.0547,0 -1.9775,0.19775 -0.9229,0.19775 -1.626,0.63721 -0.6811,0.41748 -1.0767,1.09863 -0.3955,0.65918 -0.3955,1.604 0,1.64795 1.1426,2.61475 1.1646,0.94482 3.4058,0.94482 z"
           style=""
           id="path4283" />
        <path
           d="m 1140.0459,541.36066 q -1.0107,0 -1.8457,-0.19776 -0.813,-0.19775 -1.4941,-0.54931 -0.6812,-0.35157 -1.2305,-0.79102 -0.5274,-0.46142 -0.9448,-0.98877 l 0,8.85498 -4.6802,2.17529 0,-32.0581 4.6802,0 0,1.8457 q 0.9008,-1.01074 2.2192,-1.69189 1.3184,-0.68115 3.2959,-0.68115 2.1753,0 3.9331,0.83496 1.7578,0.81298 2.9883,2.37304 1.2305,1.53809 1.8896,3.7793 0.6592,2.24121 0.6592,5.07568 0,2.83448 -0.7031,5.07569 -0.6812,2.21924 -1.9336,3.77929 -1.2305,1.53809 -2.9883,2.35108 -1.7358,0.81299 -3.8452,0.81299 z m -0.6592,-4.41651 q 2.6587,0 4.043,-1.95556 1.4062,-1.95557 1.4062,-5.64698 0,-1.66992 -0.3735,-3.07617 -0.3516,-1.40625 -1.0547,-2.41699 -0.7031,-1.01074 -1.7139,-1.58203 -1.0107,-0.57129 -2.3071,-0.57129 -1.6479,0 -2.8784,0.68115 -1.2085,0.65918 -1.9775,1.91162 l 0,9.99756 q 0.3955,0.52735 0.8789,1.01074 0.5053,0.4834 1.0986,0.85694 0.6152,0.35156 1.3184,0.57129 0.7251,0.21972 1.56,0.21972 z"
           style=""
           id="path4285" />
        <path
           d="m 1155.207,540.81134 0,-23.00537 4.6802,0 0,23.00537 -4.6802,0 z m 2.3291,-26.58691 q -0.5932,0 -1.1206,-0.21973 -0.5053,-0.21973 -0.9009,-0.59326 -0.3735,-0.39551 -0.5932,-0.90088 -0.2197,-0.52734 -0.2197,-1.12061 0,-0.59326 0.2197,-1.09863 0.2197,-0.52734 0.5932,-0.90088 0.3956,-0.39551 0.9009,-0.61523 0.5274,-0.21973 1.1206,-0.21973 0.5933,0 1.0987,0.21973 0.5273,0.21972 0.9008,0.61523 0.3956,0.37354 0.6153,0.90088 0.2197,0.50537 0.2197,1.09863 0,0.59327 -0.2197,1.12061 -0.2197,0.50537 -0.6153,0.90088 -0.3735,0.37353 -0.9008,0.59326 -0.5054,0.21973 -1.0987,0.21973 z"
           style=""
           id="path4287" />
        <path
           d="m 1175.0923,541.36066 q -2.1753,0 -3.9551,-0.81299 -1.7578,-0.83496 -3.0102,-2.37305 -1.2525,-1.56006 -1.9336,-3.80127 -0.6592,-2.24121 -0.6592,-5.07568 0,-2.83447 0.7031,-5.05371 0.7031,-2.24121 1.9556,-3.7793 1.2744,-1.56006 3.0322,-2.37305 1.7578,-0.81298 3.8672,-0.81298 1.8896,0 3.208,0.61523 1.3403,0.61523 2.2192,1.53809 l 0,-8.94288 4.6802,-2.17529 0,32.49756 -4.6802,0 0,-1.62598 q -0.9228,1.03272 -2.2192,1.60401 -1.2744,0.57129 -3.208,0.57129 z m 0.6592,-4.41651 q 1.582,0 2.7905,-0.68115 1.2085,-0.68115 1.9775,-1.93359 l 0,-10.1294 q -0.2636,-0.43945 -0.7031,-0.8789 -0.4394,-0.43946 -1.0547,-0.79102 -0.5932,-0.37353 -1.3623,-0.59326 -0.7471,-0.2417 -1.6479,-0.2417 -2.6368,0 -4.0869,1.95557 -1.4502,1.93359 -1.4502,5.64697 0,1.66992 0.3735,3.07617 0.3955,1.38428 1.0986,2.41699 0.7251,1.01074 1.7359,1.58203 1.0327,0.57129 2.3291,0.57129 z"
           style=""
           id="path4289" />
        <path
           d="m 1214.9946,541.36066 q -2.4389,0 -4.3725,-0.65918 -1.9117,-0.68116 -3.3618,-1.82373 -1.4502,-1.16455 -2.483,-2.72461 -1.0107,-1.58203 -1.6479,-3.38379 -0.6372,-1.82373 -0.9448,-3.7793 -0.2857,-1.97754 -0.2857,-3.9331 0,-1.80176 0.2857,-3.71338 0.3076,-1.91162 0.9448,-3.71338 0.6592,-1.82373 1.6919,-3.42774 1.0327,-1.604 2.4829,-2.8125 1.4502,-1.20849 3.3618,-1.91162 1.9116,-0.70312 4.3286,-0.70312 2.2193,0 3.9991,0.54931 1.7797,0.52735 3.0981,1.40625 1.3403,0.87891 2.2412,1.99952 0.9009,1.1206 1.3843,2.28515 l -4.2847,1.99951 q -0.5713,-0.90088 -1.2085,-1.58203 -0.6152,-0.70312 -1.3843,-1.18652 -0.747,-0.4834 -1.6919,-0.7251 -0.9448,-0.2417 -2.1533,-0.2417 -1.582,0 -2.8125,0.50537 -1.2085,0.50537 -2.1313,1.38428 -0.9009,0.87891 -1.5381,2.04346 -0.6372,1.16455 -1.0327,2.48291 -0.3736,1.29638 -0.5493,2.68066 -0.1758,1.38428 -0.1758,2.68067 0,2.0874 0.4614,4.19677 0.4834,2.10938 1.4941,3.80127 1.0108,1.6919 2.5709,2.74658 1.56,1.05469 3.7133,1.05469 1.1646,0 2.0874,-0.28564 0.9449,-0.30762 1.7139,-0.83496 0.791,-0.54932 1.4062,-1.29639 0.6373,-0.74707 1.1866,-1.64795 l 4.3725,1.66992 q -0.6591,1.53809 -1.6479,2.8125 -0.9668,1.27442 -2.3071,2.1753 -1.3184,0.90087 -3.0323,1.40625 -1.6919,0.50537 -3.7793,0.50537 z"
           style=""
           id="path4291" />
        <path
           d="m 1231.6719,540.81134 0,-23.00537 4.6802,0 0,23.00537 -4.6802,0 z m 2.3291,-26.58691 q -0.5933,0 -1.1206,-0.21973 -0.5054,-0.21973 -0.9009,-0.59326 -0.3735,-0.39551 -0.5933,-0.90088 -0.2197,-0.52734 -0.2197,-1.12061 0,-0.59326 0.2197,-1.09863 0.2198,-0.52734 0.5933,-0.90088 0.3955,-0.39551 0.9009,-0.61523 0.5273,-0.21973 1.1206,-0.21973 0.5932,0 1.0986,0.21973 0.5274,0.21972 0.9009,0.61523 0.3955,0.37354 0.6152,0.90088 0.2197,0.50537 0.2197,1.09863 0,0.59327 -0.2197,1.12061 -0.2197,0.50537 -0.6152,0.90088 -0.3735,0.37353 -0.9009,0.59326 -0.5054,0.21973 -1.0986,0.21973 z"
           style=""
           id="path4293" />
        <path
           d="m 1249.7993,541.36066 q -1.3623,0 -2.3511,-0.41748 -0.9668,-0.39551 -1.604,-1.14258 -0.6152,-0.74707 -0.9008,-1.80176 -0.2857,-1.07666 -0.2857,-2.37305 l 0,-13.75488 -3.5596,0 0,-4.06494 3.5596,0 0,-7.229 4.6802,-2.26319 0,9.49219 5.4492,0 0,4.06494 -5.4492,0 0,12.54639 q 0,0.57129 0.088,1.05468 0.1098,0.4834 0.3515,0.83497 0.2637,0.35156 0.7032,0.54931 0.4394,0.17578 1.1206,0.17578 1.6699,0 3.4057,-1.07666 l -0.5713,4.35059 q -0.9667,0.4834 -2.1093,0.76904 -1.1426,0.28565 -2.5269,0.28565 z"
           style=""
           id="path4295" />
        <path
           d="m 1267.751,549.53448 -4.7681,0 3.5376,-9.11865 -8.5913,-22.60986 4.6362,0 5.669,15.05127 q 0.2417,0.63721 0.3735,1.05469 0.1318,0.41748 0.2637,0.96679 0.1318,-0.54931 0.2637,-0.96679 0.1318,-0.41748 0.3735,-1.05469 l 5.7129,-15.05127 4.6802,0 -12.1509,31.72851 z"
           style=""
           id="path4297" />
      </g>
    </g>
  </g>
</svg>
