<?xml version="1.0" encoding="UTF-8" standalone="no"?>
<!-- Created with Inkscape (http://www.inkscape.org/) -->

<svg
   xmlns:dc="http://purl.org/dc/elements/1.1/"
   xmlns:cc="http://creativecommons.org/ns#"
   xmlns:rdf="http://www.w3.org/1999/02/22-rdf-syntax-ns#"
   xmlns:svg="http://www.w3.org/2000/svg"
   xmlns="http://www.w3.org/2000/svg"
   xmlns:sodipodi="http://sodipodi.sourceforge.net/DTD/sodipodi-0.dtd"
   xmlns:inkscape="http://www.inkscape.org/namespaces/inkscape"
   width="918.57227"
   height="803.72247"
   viewBox="0 0 918.57227 803.72247"
   id="svg2"
   version="1.1"
   inkscape:version="0.92.4 (5da689c313, 2019-01-14)"
   sodipodi:docname="RDU.svg"
   inkscape:export-filename="C:\Users\paulb\Dropbox\Projects\Terminal Silhouettes\Silhouettes\png\RDU.png"
   inkscape:export-xdpi="89.996498"
   inkscape:export-ydpi="89.996498">
  <defs
     id="defs4" />
  <sodipodi:namedview
     id="base"
     pagecolor="#ffffff"
     bordercolor="#666666"
     borderopacity="1.0"
     inkscape:pageopacity="1"
     inkscape:pageshadow="2"
     inkscape:zoom="1"
     inkscape:cx="451.77178"
     inkscape:cy="465.70058"
     inkscape:document-units="px"
     inkscape:current-layer="layer3"
     showgrid="false"
     inkscape:window-width="1920"
     inkscape:window-height="1137"
     inkscape:window-x="1912"
     inkscape:window-y="-8"
     inkscape:window-maximized="1"
     showguides="true"
     inkscape:guide-bbox="true"
     units="px"
     fit-margin-top="25"
     fit-margin-left="25"
     fit-margin-right="25"
     fit-margin-bottom="25" />
  <metadata
     id="metadata7">
    <rdf:RDF>
      <cc:Work
         rdf:about="">
        <dc:format>image/svg+xml</dc:format>
        <dc:type
           rdf:resource="http://purl.org/dc/dcmitype/StillImage" />
        <dc:title />
        <dc:description>Terminal silhouette of RDU (Raleigh-Durham)</dc:description>
      </cc:Work>
    </rdf:RDF>
  </metadata>
  <g
     inkscape:groupmode="layer"
     id="layer2"
     inkscape:label="Terminal"
     transform="translate(822.23891,-80.261246)"
     style="display:inline">
    <path
       style="fill:#dddddd;fill-opacity:1;fill-rule:evenodd;stroke:#222222;stroke-width:1.5;stroke-linecap:butt;stroke-linejoin:miter;stroke-miterlimit:4;stroke-dasharray:none;stroke-opacity:1"
       d="m -384.07404,106.30215 -164.6272,163.80275 -1.72127,-1.72196 -5.69952,5.52141 1.93069,1.66282 -39.32753,39.13063 -2.41074,-2.32169 -12.28959,12.4677 2.3356,2.1575 -190.29731,189.34416 23.47712,23.83333 160.74428,-160.74427 45.59616,46.66482 -6.59007,6.76818 14.07069,14.07069 2.31543,-1.95921 5.52141,5.3433 34.64378,-34.2834 13.80214,14.86941 7.1244,-6.23385 -3.38409,-3.5622 5.52141,-5.87763 -10.88767,-11.24598 56.21876,-55.63364 -6.50311,-5.78926 -3.02787,3.02787 -3.74031,-3.74031 14.42691,-14.42691 -36.51255,-37.04688 -10.15227,9.61794 -19.50305,-19.50305 152.37311,-152.3731 -23.42774,-21.81917 z m 313.86808,322.15787 -43.91035,43.23549 -5.16519,-4.63086 -3.38409,3.38409 -1.7811,-1.95921 8.19306,-7.83684 -3.38409,-29.21004 -31.70358,3.5622 4.98708,43.28073 -0.53433,4.45275 -1.7811,3.38409 -42.39018,41.67774 1.7811,1.42488 -2.84976,2.67165 0.71244,3.20598 -37.93743,8.19306 -24.57918,24.57918 -8.19306,-8.19306 -123.25212,120.93669 15.91509,16.18225 -9.0871,8.90205 2.07751,1.98842 -25.99017,27.62165 -25.16427,25.32988 -5.92981,-6.28671 -13.71447,13.4473 6.37509,6.19627 -4.6615,4.69209 -3.75562,-3.67002 -4.3637,4.27464 3.81476,3.72848 -4.74912,4.78044 -3.87739,-3.79528 -67.03892,65.67112 2.47893,2.44901 -1.78945,1.70038 3.74031,3.74031 1.72266,-1.8117 2.19576,2.16792 117.55261,-117.28543 27.16178,-29.2991 1.87015,1.60299 3.5622,-3.74031 0.71244,0.53433 4.89803,-4.98708 2.22637,1.95921 -5.07613,4.71992 3.47314,3.74031 13.71447,-13.09109 2.04827,1.95921 3.47314,-3.47314 -1.87015,-1.95921 8.01495,-7.56968 4.71991,4.63086 26.18217,-25.82595 -2.04826,-1.87015 2.7607,-2.49354 -2.84976,-3.02787 53.61111,-53.70017 0.71244,0.89055 39.18559,-39.7554 42.12786,-16.93922 0.18855,2.14077 6.17126,6.23385 1.76368,-1.63708 0.31447,0.31519 4.2823,-4.40823 c 1.07051,-1.32239 0,-2.39265 0,-2.39265 -1.5113,-1.38538 -2.77114,0.31447 -2.77114,0.31447 l -2.51858,2.51929 -0.62966,-1.00814 69.142873,-68.26065 -2.393335,-2.51859 41.134362,-41.64087 -5.39342,-5.49847 3.490564,-3.42722 c 1.637258,-1.63726 -0.06334,-3.46339 -0.06334,-3.46339 -1.385375,-1.44835 -3.715268,-0.0626 -3.715268,-0.0626 l -3.360437,3.2338 -4.832623,-4.92652 z m -124.61366,110.94788 0.50369,2.77047 13.22399,-2.51858 6.80088,6.29715 -0.8815,1.00742 0.25185,0.75558 -5.28973,1.88964 -2.26673,-6.29715 -20.27672,8.56389 2.14081,6.17122 -23.299,9.44539 -0.50373,-0.37777 8.56389,-8.56389 -10.07572,-9.57134 -7.80834,7.55646 -1.00743,-0.62966 -4.15637,4.02974 9.4461,10.3276 -1.13335,0.25189 -8.81645,-8.94241 -6.42311,6.0453 -1.88893,-1.63708 19.89892,-19.5211 32.99698,-7.05277 z"
       id="path4148"
       inkscape:connector-curvature="0" />
  </g>
  <g
     inkscape:groupmode="layer"
     id="layer3"
     inkscape:label="Label"
     transform="translate(-817.33249,-844.39907)">
    <g
       id="g4183"
       transform="translate(-158,713.03848)">
      <g
         style="font-style:normal;font-variant:normal;font-weight:bold;font-stretch:normal;font-size:125px;line-height:125%;font-family:Overpass;-inkscape-font-specification:'Overpass, Bold';text-align:start;letter-spacing:0px;word-spacing:0px;writing-mode:lr-tb;text-anchor:start;fill:#dddddd;fill-opacity:1;stroke:#222222;stroke-width:0.25;stroke-linecap:butt;stroke-linejoin:miter;stroke-miterlimit:4;stroke-dasharray:none;stroke-opacity:1"
         id="text4173">
        <path
           d="m 1618.2305,851.92572 0,-87.52441 40.6494,0 q 8.3008,0 13.855,2.31933 5.6152,2.2583 9.0332,6.04248 3.4179,3.78418 4.8828,8.72803 1.4648,4.94385 1.4648,10.31494 0,3.72315 -1.0986,7.56836 -1.0376,3.78418 -3.1738,7.20215 -2.1363,3.41797 -5.3101,6.22559 -3.1738,2.74658 -7.3853,4.27246 l 16.9678,34.85107 -18.9819,0 -16.3574,-32.65381 -17.6392,0 0,32.65381 -16.9067,0 z m 40.8935,-48.64502 q 3.2349,0 5.4322,-0.91553 2.1972,-0.97656 3.54,-2.56347 1.3428,-1.58692 1.8921,-3.66211 0.6103,-2.0752 0.6103,-4.3335 0,-2.07519 -0.5493,-4.08935 -0.4883,-2.0752 -1.77,-3.66211 -1.2817,-1.64795 -3.54,-2.62452 -2.1973,-0.97656 -5.6153,-0.97656 l -23.9868,0 0,22.82715 23.9868,0 z"
           style=""
           id="path4190" />
        <path
           d="m 1707.5859,764.40131 29.5411,0 q 7.6293,0 13.7329,1.77002 6.1035,1.70898 10.8032,4.76074 4.7607,3.05176 8.1177,7.26318 3.3569,4.15039 5.4931,9.0332 2.1973,4.82178 3.1739,10.19288 1.0376,5.37109 1.0376,10.74218 0,5.00489 -0.9766,10.25391 -0.9155,5.18799 -2.9907,10.0708 -2.0752,4.82178 -5.4322,9.09424 -3.2959,4.27246 -8.1176,7.50732 -4.7608,3.17383 -11.0474,5.00489 -6.2866,1.83105 -14.3433,1.83105 l -28.9917,0 0,-87.52441 z m 31.0059,71.5332 q 6.5308,0 10.9863,-2.50244 4.4556,-2.56348 7.2022,-6.53076 2.7466,-4.02832 3.9673,-8.97217 1.2207,-4.94385 1.2207,-9.76563 0,-5.12695 -1.2818,-10.0708 -1.2817,-5.00488 -3.9673,-8.91113 -2.6245,-3.90625 -6.8359,-6.28662 -4.1504,-2.44141 -9.8877,-2.44141 l -15.5029,0 0,55.48096 14.0991,0 z"
           style=""
           id="path4192" />
        <path
           d="m 1833.5625,853.4516 q -4.4556,0 -8.8501,-0.79346 -4.3335,-0.73242 -8.2397,-2.4414 -3.9063,-1.70899 -7.2632,-4.39454 -3.2959,-2.74658 -5.7373,-6.65283 -2.4414,-3.90625 -3.8452,-9.0332 -1.3428,-5.12695 -1.3428,-11.71875 l 0,-54.01611 16.9067,0 0,54.01611 q 0,5.43213 1.2207,9.09424 1.2818,3.60107 3.6621,5.7373 2.3804,2.13623 5.7984,3.05176 3.4179,0.85449 7.6904,0.85449 4.2114,0 7.5684,-0.85449 3.4179,-0.91553 5.7983,-3.05176 2.4414,-2.13623 3.7231,-5.7373 1.2818,-3.66211 1.2818,-9.09424 l 0,-54.01611 16.8457,0 0,54.01611 q 0,9.76562 -2.9297,16.47949 -2.9297,6.65283 -7.8735,10.80322 -4.8828,4.08936 -11.2305,5.92041 -6.3477,1.83106 -13.1836,1.83106 z"
           style=""
           id="path4194" />
      </g>
      <g
         style="font-style:normal;font-variant:normal;font-weight:normal;font-stretch:normal;font-size:45px;line-height:125%;font-family:Overpass;-inkscape-font-specification:'Overpass, Normal';text-align:start;letter-spacing:0px;word-spacing:0px;writing-mode:lr-tb;text-anchor:start;fill:#222222;fill-opacity:1;stroke:none;stroke-width:1px;stroke-linecap:butt;stroke-linejoin:miter;stroke-opacity:1"
         id="text4177">
        <path
           d="m 1538.6338,901.07428 0,-31.50879 13.2715,0 q 2.9004,0 4.8559,0.79102 1.9556,0.79101 3.1421,2.10937 1.1865,1.29639 1.6699,2.96631 0.5054,1.66992 0.5054,3.44971 0,1.3623 -0.3955,2.74658 -0.3955,1.38428 -1.2305,2.61475 -0.813,1.20849 -2.1093,2.15332 -1.2964,0.92285 -3.0982,1.40625 l 6.482,13.27148 -5.3614,0 -6.1963,-12.87598 -6.8554,0 0,12.87598 -4.6802,0 z m 13.3813,-17.38037 q 1.4722,0 2.461,-0.39551 0.9887,-0.41748 1.604,-1.09863 0.6152,-0.68115 0.8789,-1.53809 0.2637,-0.85693 0.2637,-1.77978 0,-0.81299 -0.2417,-1.66992 -0.2198,-0.85694 -0.813,-1.56006 -0.5933,-0.70313 -1.604,-1.14258 -1.0108,-0.43945 -2.5489,-0.43945 l -8.7011,0 0,9.62402 8.7011,0 z"
           style=""
           id="path4197" />
        <path
           d="m 1586.0068,901.07428 -4.4824,0 0,-1.97754 q -0.4394,0.46143 -1.0547,0.92285 -0.6152,0.43946 -1.4062,0.81299 -0.7691,0.35156 -1.7359,0.57129 -0.9668,0.21973 -2.1093,0.21973 -1.7579,0 -3.252,-0.4834 -1.4941,-0.4834 -2.5928,-1.4502 -1.0986,-0.98877 -1.7358,-2.41699 -0.6152,-1.4502 -0.6152,-3.36182 0,-1.97754 0.747,-3.40576 0.7471,-1.45019 1.9776,-2.37304 1.2304,-0.94483 2.8125,-1.38428 1.604,-0.43946 3.2959,-0.43946 1.582,0 3.0322,0.35157 1.4722,0.32959 2.6367,1.01074 l 0,-1.27441 q 0,-1.29639 -0.3076,-2.19727 -0.2856,-0.90088 -0.9009,-1.4502 -0.5932,-0.57128 -1.5161,-0.81298 -0.9228,-0.26368 -2.1973,-0.26368 -2.1533,0 -3.7353,0.57129 -1.5601,0.57129 -2.8345,1.51612 l -1.3843,-3.84522 q 0.7032,-0.4834 1.604,-0.90088 0.9009,-0.43945 1.9776,-0.76904 1.0766,-0.32959 2.3291,-0.50537 1.2524,-0.19776 2.6806,-0.19776 0.9668,0 1.9996,0.10987 1.0327,0.10986 1.9995,0.43945 0.9887,0.30762 1.8457,0.90088 0.8789,0.59326 1.5161,1.56006 0.6592,0.94482 1.0327,2.3291 0.3735,1.38428 0.3735,3.2959 l 0,14.89746 z m -9.9316,-3.60352 q 1.7798,0 3.1421,-0.72509 1.3843,-0.7251 2.3071,-1.73584 l 0,-3.51563 q -0.9668,-0.50537 -2.2632,-0.81299 -1.2964,-0.30761 -2.6587,-0.30761 -1.0546,0 -1.9775,0.19775 -0.9229,0.19775 -1.626,0.63721 -0.6811,0.41748 -1.0766,1.09863 -0.3955,0.65918 -0.3955,1.604 0,1.64795 1.1425,2.61475 1.1646,0.94482 3.4058,0.94482 z"
           style=""
           id="path4199" />
        <path
           d="m 1592.5986,901.07428 0,-30.27832 4.6802,-2.21924 0,32.49756 -4.6802,0 z"
           style=""
           id="path4201" />
        <path
           d="m 1613.5605,901.6236 q -2.395,0 -4.3286,-0.81299 -1.9336,-0.83496 -3.2959,-2.37305 -1.3623,-1.56006 -2.1093,-3.80127 -0.7251,-2.24121 -0.7251,-5.07568 0,-2.83447 0.747,-5.05371 0.7471,-2.24121 2.1094,-3.7793 1.3843,-1.56006 3.2959,-2.37305 1.9336,-0.81299 4.3066,-0.81299 2.0435,0 3.8233,0.65918 1.8017,0.63721 3.1421,1.97754 1.3623,1.31836 2.1313,3.33985 0.791,2.02148 0.791,4.76806 0,0.74707 -0.044,1.58204 -0.022,0.83496 -0.1318,1.45019 l -15.4908,0 q 0.022,1.42822 0.5054,2.5708 0.5054,1.12061 1.3184,1.93359 0.813,0.79102 1.8457,1.23047 1.0327,0.41748 2.1533,0.41748 1.4282,0 2.6367,-0.59326 1.2305,-0.59326 2.1314,-1.73584 l 3.0542,3.14209 q -1.2525,1.49414 -3.208,2.41699 -1.9556,0.92286 -4.6583,0.92286 z m 0,-19.95118 q -1.0986,0 -2.1093,0.32959 -1.0108,0.30762 -1.8018,1.01075 -0.769,0.68115 -1.2744,1.80175 -0.5054,1.12061 -0.5933,2.72461 l 10.9864,0 q -0.044,-1.604 -0.5054,-2.72461 -0.4614,-1.1206 -1.2085,-1.80175 -0.7471,-0.70313 -1.6699,-1.01075 -0.9009,-0.32959 -1.8238,-0.32959 z"
           style=""
           id="path4203" />
        <path
           d="m 1628.8975,901.07428 0,-23.00537 4.6801,0 0,23.00537 -4.6801,0 z m 2.3291,-26.58691 q -0.5933,0 -1.1206,-0.21973 -0.5054,-0.21973 -0.9009,-0.59326 -0.3736,-0.39551 -0.5933,-0.90088 -0.2197,-0.52735 -0.2197,-1.12061 0,-0.59326 0.2197,-1.09863 0.2197,-0.52734 0.5933,-0.90088 0.3955,-0.39551 0.9009,-0.61523 0.5273,-0.21973 1.1206,-0.21973 0.5932,0 1.0986,0.21973 0.5273,0.21972 0.9009,0.61523 0.3955,0.37354 0.6152,0.90088 0.2197,0.50537 0.2197,1.09863 0,0.59326 -0.2197,1.12061 -0.2197,0.50537 -0.6152,0.90088 -0.3736,0.37353 -0.9009,0.59326 -0.5054,0.21973 -1.0986,0.21973 z"
           style=""
           id="path4205" />
        <path
           d="m 1645.7065,906.47955 q 2.5269,-0.15381 4.1748,-0.59326 1.648,-0.43945 2.6148,-1.1206 0.9668,-0.65918 1.3403,-1.56006 0.3736,-0.90088 0.3736,-1.95557 l 0,-2.02148 q -1.9117,2.39502 -5.5371,2.39502 -1.9776,0 -3.6915,-0.74707 -1.7138,-0.76905 -3.0102,-2.28516 -1.2744,-1.51611 -2.0215,-3.75732 -0.7251,-2.26319 -0.7251,-5.27344 0,-2.83447 0.7031,-5.05371 0.7032,-2.24121 1.9556,-3.7793 1.2744,-1.56006 3.0322,-2.37305 1.7578,-0.81299 3.8672,-0.81299 1.0108,0 1.8457,0.19776 0.835,0.17578 1.4942,0.4834 0.6811,0.30761 1.1865,0.70312 0.5273,0.37354 0.9009,0.76905 l 0,-1.62598 4.6801,0 0,21.24756 q 0,2.63672 -0.5273,4.48242 -0.5274,1.8457 -1.8018,3.16406 -0.8569,0.87891 -1.8896,1.42822 -1.0108,0.57129 -2.1314,0.92286 -1.0986,0.35156 -2.2412,0.50537 -1.1425,0.17578 -2.2412,0.26367 l -2.3511,-3.60352 z m 3.8233,-9.27246 q 1.4282,0 2.6587,-0.70312 1.2524,-0.70313 2.0215,-1.99951 l 0,-9.95362 q -0.3516,-0.57129 -0.8789,-1.03271 -0.5054,-0.4834 -1.1207,-0.83496 -0.5932,-0.35157 -1.2963,-0.52735 -0.6812,-0.19775 -1.3843,-0.19775 -2.7466,0 -4.1968,1.95557 -1.4282,1.93359 -1.4282,5.64697 0,1.75781 0.3955,3.18603 0.3955,1.40625 1.1206,2.39502 0.7251,0.98877 1.7578,1.53809 1.0547,0.52734 2.3511,0.52734 z"
           style=""
           id="path4207" />
        <path
           d="m 1679.896,901.07428 0,-13.73291 q 0,-1.4502 -0.3516,-2.46094 -0.3515,-1.03271 -0.9668,-1.66992 -0.6152,-0.65918 -1.4502,-0.94482 -0.8349,-0.30762 -1.8237,-0.30762 -1.0547,0 -1.9556,0.28564 -0.9008,0.26368 -1.56,0.87891 -0.6592,0.61523 -1.0547,1.64795 -0.3735,1.01074 -0.3735,2.48291 l 0,13.8208 -4.6802,0 0,-30.32227 4.6802,-2.17529 0,11.71143 q 1.1206,-1.42823 2.5708,-2.08741 1.4502,-0.65918 3.3618,-0.65918 1.8017,0 3.3179,0.52735 1.5161,0.50537 2.6147,1.66992 1.1206,1.16455 1.7358,3.03223 0.6153,1.86767 0.6153,4.57031 l 0,13.73291 -4.6802,0 z"
           style=""
           id="path4209" />
        <path
           d="m 1689.9375,890.17584 0,-4.04297 17.7759,0 0,4.04297 -17.7759,0 z"
           style=""
           id="path4211" />
        <path
           d="m 1714.0635,869.56549 8.833,0 q 2.7466,0 4.9219,0.63721 2.1753,0.61523 3.8452,1.71386 1.6699,1.09864 2.8564,2.61475 1.1865,1.49414 1.9336,3.25195 0.7691,1.73584 1.1206,3.66944 0.3516,1.93359 0.3516,3.86719 0,1.80175 -0.3296,3.6914 -0.3076,1.86768 -1.0547,3.62549 -0.7251,1.73584 -1.8896,3.27393 -1.1646,1.53808 -2.8565,2.70263 -1.6919,1.14258 -3.9551,1.80176 -2.2412,0.65918 -5.1196,0.65918 l -8.6572,0 0,-31.50879 z m 9.4043,27.09229 q 1.8017,0 3.208,-0.46143 1.4282,-0.4834 2.4829,-1.29639 1.0767,-0.81298 1.8017,-1.91162 0.7471,-1.09863 1.2085,-2.35107 0.4834,-1.27442 0.6812,-2.61475 0.2197,-1.3623 0.2197,-2.70263 0,-2.13135 -0.5273,-4.15284 -0.5054,-2.04345 -1.604,-3.62549 -1.0987,-1.604 -2.8345,-2.5708 -1.7139,-0.98877 -4.1309,-0.98877 l -5.2294,0 0,22.67579 4.7241,0 z"
           style=""
           id="path4213" />
        <path
           d="m 1758.2505,901.07428 0,-2.19727 q -1.1206,1.42823 -2.5928,2.08741 -1.4502,0.65918 -3.3618,0.65918 -1.8018,0 -3.3179,-0.52735 -1.5161,-0.50537 -2.6367,-1.66992 -1.0986,-1.18652 -1.7139,-3.0542 -0.6152,-1.86767 -0.6152,-4.57031 l 0,-13.73291 4.6802,0 0,13.73291 q 0,1.45019 0.3515,2.48291 0.3516,1.01074 0.9668,1.66992 0.6153,0.65918 1.4502,0.9668 0.835,0.28564 1.8238,0.28564 1.0547,0 1.9555,-0.26367 0.9009,-0.28564 1.5601,-0.90088 0.6811,-0.63721 1.0547,-1.64795 0.3955,-1.01074 0.3955,-2.50488 l 0,-13.8208 4.6802,0 0,23.00537 -4.6802,0 z"
           style=""
           id="path4215" />
        <path
           d="m 1769.6543,901.07428 0,-23.00537 4.6802,0 0,2.79053 q 0.813,-1.75782 2.1093,-2.52686 1.2964,-0.79102 3.0103,-0.79102 2.2852,0 3.8672,1.38428 l -0.6812,4.32862 q -0.6372,-0.43946 -1.5161,-0.76905 -0.8569,-0.35156 -2.1094,-0.35156 -0.791,0 -1.6259,0.28564 -0.813,0.26368 -1.4942,0.9668 -0.6811,0.68115 -1.1206,1.8457 -0.4394,1.14258 -0.4394,2.92237 l 0,12.91992 -4.6802,0 z"
           style=""
           id="path4217" />
        <path
           d="m 1802.064,901.07428 0,-13.73291 q 0,-1.4502 -0.3516,-2.46094 -0.3516,-1.03271 -0.9668,-1.66992 -0.6152,-0.65918 -1.4502,-0.94482 -0.835,-0.30762 -1.8237,-0.30762 -1.0547,0 -1.9556,0.28564 -0.9009,0.26368 -1.56,0.87891 -0.6592,0.61523 -1.0547,1.64795 -0.3736,1.01074 -0.3736,2.48291 l 0,13.8208 -4.6801,0 0,-30.32227 4.6801,-2.17529 0,11.71143 q 1.1206,-1.42823 2.5708,-2.08741 1.4502,-0.65918 3.3618,-0.65918 1.8018,0 3.3179,0.52735 1.5161,0.50537 2.6148,1.66992 1.1206,1.16455 1.7358,3.03223 0.6152,1.86767 0.6152,4.57031 l 0,13.73291 -4.6801,0 z"
           style=""
           id="path4219" />
        <path
           d="m 1830.8701,901.07428 -4.4824,0 0,-1.97754 q -0.4395,0.46143 -1.0547,0.92285 -0.6152,0.43946 -1.4062,0.81299 -0.7691,0.35156 -1.7359,0.57129 -0.9668,0.21973 -2.1094,0.21973 -1.7578,0 -3.2519,-0.4834 -1.4942,-0.4834 -2.5928,-1.4502 -1.0986,-0.98877 -1.7358,-2.41699 -0.6153,-1.4502 -0.6153,-3.36182 0,-1.97754 0.7471,-3.40576 0.7471,-1.45019 1.9776,-2.37304 1.2304,-0.94483 2.8125,-1.38428 1.604,-0.43946 3.2959,-0.43946 1.582,0 3.0322,0.35157 1.4721,0.32959 2.6367,1.01074 l 0,-1.27441 q 0,-1.29639 -0.3076,-2.19727 -0.2857,-0.90088 -0.9009,-1.4502 -0.5933,-0.57128 -1.5161,-0.81298 -0.9229,-0.26368 -2.1973,-0.26368 -2.1533,0 -3.7353,0.57129 -1.5601,0.57129 -2.8345,1.51612 l -1.3843,-3.84522 q 0.7031,-0.4834 1.604,-0.90088 0.9009,-0.43945 1.9776,-0.76904 1.0766,-0.32959 2.3291,-0.50537 1.2524,-0.19776 2.6806,-0.19776 0.9668,0 1.9995,0.10987 1.0328,0.10986 1.9996,0.43945 0.9887,0.30762 1.8457,0.90088 0.8789,0.59326 1.5161,1.56006 0.6591,0.94482 1.0327,2.3291 0.3735,1.38428 0.3735,3.2959 l 0,14.89746 z m -9.9316,-3.60352 q 1.7798,0 3.1421,-0.72509 1.3842,-0.7251 2.3071,-1.73584 l 0,-3.51563 q -0.9668,-0.50537 -2.2632,-0.81299 -1.2964,-0.30761 -2.6587,-0.30761 -1.0547,0 -1.9775,0.19775 -0.9229,0.19775 -1.626,0.63721 -0.6811,0.41748 -1.0767,1.09863 -0.3955,0.65918 -0.3955,1.604 0,1.64795 1.1426,2.61475 1.1646,0.94482 3.4058,0.94482 z"
           style=""
           id="path4221" />
        <path
           d="m 1864.2246,901.07428 0,-13.77686 q 0,-2.5708 -1.0547,-3.95507 -1.0547,-1.38428 -3.164,-1.38428 -0.9449,0 -1.7798,0.35156 -0.835,0.35156 -1.4722,1.05469 -0.6152,0.70312 -0.9888,1.75781 -0.3515,1.03272 -0.3515,2.41699 l 0,13.53516 -4.6802,0 0,-13.77686 q 0,-2.5708 -1.0767,-3.95507 -1.0546,-1.38428 -3.164,-1.38428 -0.9448,0 -1.7798,0.35156 -0.813,0.35156 -1.4502,1.05469 -0.6152,0.70312 -0.9888,1.75781 -0.3515,1.03272 -0.3515,2.41699 l 0,13.53516 -4.6802,0 0,-23.00537 4.6802,0 0,2.13135 q 0.9887,-1.42823 2.5048,-2.04346 1.5162,-0.61524 3.2959,-0.61524 1.8897,0 3.4937,0.76905 1.626,0.74707 2.6147,2.50488 1.0987,-1.69189 2.8125,-2.48291 1.7139,-0.79102 3.9991,-0.79102 1.7578,0 3.2519,0.50538 1.5161,0.50537 2.6148,1.56005 1.1206,1.05469 1.7578,2.70264 0.6372,1.64795 0.6372,3.91113 l 0,14.85352 -4.6802,0 z"
           style=""
           id="path4223" />
      </g>
    </g>
  </g>
</svg>
