<?xml version="1.0" encoding="UTF-8" standalone="no"?>
<!-- Created with Inkscape (http://www.inkscape.org/) -->

<svg
   xmlns:dc="http://purl.org/dc/elements/1.1/"
   xmlns:cc="http://creativecommons.org/ns#"
   xmlns:rdf="http://www.w3.org/1999/02/22-rdf-syntax-ns#"
   xmlns:svg="http://www.w3.org/2000/svg"
   xmlns="http://www.w3.org/2000/svg"
   xmlns:sodipodi="http://sodipodi.sourceforge.net/DTD/sodipodi-0.dtd"
   xmlns:inkscape="http://www.inkscape.org/namespaces/inkscape"
   width="1056.4928"
   height="503.18329"
   viewBox="0 0 1056.4928 503.18329"
   id="svg2"
   version="1.1"
   inkscape:version="0.91 r13725"
   sodipodi:docname="SAN.svg"
   inkscape:export-filename="C:\Users\paulb\Dropbox\Projects\Terminal Silhouettes\Silhouettes\png-portfolio\SAN.png"
   inkscape:export-xdpi="90"
   inkscape:export-ydpi="90">
  <defs
     id="defs4" />
  <sodipodi:namedview
     id="base"
     pagecolor="#ffffff"
     bordercolor="#666666"
     borderopacity="1.0"
     inkscape:pageopacity="1"
     inkscape:pageshadow="2"
     inkscape:zoom="1"
     inkscape:cx="523.71896"
     inkscape:cy="315.95736"
     inkscape:document-units="px"
     inkscape:current-layer="layer3"
     showgrid="false"
     units="px"
     fit-margin-top="25"
     fit-margin-left="25"
     fit-margin-right="25"
     fit-margin-bottom="25"
     inkscape:window-width="1920"
     inkscape:window-height="1137"
     inkscape:window-x="1912"
     inkscape:window-y="-8"
     inkscape:window-maximized="1"
     showguides="true"
     inkscape:guide-bbox="true" />
  <metadata
     id="metadata7">
    <rdf:RDF>
      <cc:Work
         rdf:about="">
        <dc:format>image/svg+xml</dc:format>
        <dc:type
           rdf:resource="http://purl.org/dc/dcmitype/StillImage" />
        <dc:title></dc:title>
      </cc:Work>
    </rdf:RDF>
  </metadata>
  <g
     inkscape:groupmode="layer"
     id="layer2"
     inkscape:label="Terminal"
     transform="translate(-676.48161,-244)">
    <path
       style="fill:#dddddd;fill-opacity:1;stroke:#222222;stroke-width:1.5;stroke-linejoin:miter;stroke-miterlimit:4;stroke-dasharray:none;stroke-dashoffset:0;stroke-opacity:1"
       d="m 931.56032,357.56897 a 30.094342,30.094342 0 0 0 -30.09414,30.09414 30.094342,30.094342 0 0 0 5.47051,17.24003 l -0.92798,125.91264 c -58.84728,4.60847 -67.65228,65.67147 -67.65228,65.67147 l -135.91086,-1.00099 -0.20845,28.28792 10.45745,0.0772 0.0466,-6.29902 21.15615,0.1566 -0.0466,6.29796 14.7164,0.10899 -0.0466,6.40801 -9.92098,-0.073 -0.1439,19.54886 35.42602,0.26135 -0.0688,9.27764 138.22181,1.01898 a 23.938493,23.938493 0 0 0 14.50267,4.9298 23.938493,23.938493 0 0 0 14.22543,-4.71818 l 195.38693,1.44011 0.043,-5.89481 21.4778,0.15872 -0.08,10.77911 59.6443,0.44018 53.3782,-13.60854 -2.5744,-10.09769 16.1829,-4.12563 c 74.1421,16.25227 124.0493,-38.23217 124.0493,-38.23217 l 8.3602,-2.13106 0.836,3.27807 70.7282,-18.03045 85.9462,24.23423 44.6518,45.94167 5.3351,-5.18481 7.9952,8.22587 -1.7956,1.7459 44.4116,45.69407 2.3226,-2.25698 7.2979,2.15858 15.3745,15.81897 7.1794,-6.97834 -13.4318,-13.81911 -5.0663,4.92346 -1.9428,-1.9988 -7.2979,-2.15858 18.3088,-17.79555 -45.7798,-47.10031 28.1419,-27.35253 -40.2574,-41.41819 0.8137,-0.79042 6.4673,6.65349 4.2599,-4.14044 -6.4672,-6.65349 2.2972,-2.23265 a 26.95256,26.95256 0 0 0 9.0364,1.59565 26.95256,26.95256 0 0 0 26.9526,-26.95256 26.95256,26.95256 0 0 0 -26.9526,-26.95256 26.95256,26.95256 0 0 0 -26.9526,26.95256 26.95256,26.95256 0 0 0 1.3978,8.45972 l -22.4915,21.8598 1.785,1.8369 -9.2913,9.03004 -17.2443,-17.74264 -32.9225,-9.28293 -23.1137,5.89164 -1.6168,-7.82695 -15.092,-4.25578 -1.911,2.04218 -21.8154,-6.15088 -2.3173,-9.08612 2.2359,-0.57032 -8.2471,-32.34795 a 26.815766,26.815766 0 0 0 8.083,-19.18274 26.815766,26.815766 0 0 0 -26.816,-26.81607 26.815766,26.815766 0 0 0 -26.8161,26.81607 26.815766,26.815766 0 0 0 18.6759,25.5389 l 8.3645,32.81246 2.0655,-0.52589 1.6792,6.58577 -8.0999,2.06546 -1.2381,-4.85997 -21.3857,5.45252 1.238,4.85891 -38.4978,9.81517 3.5098,13.77044 3.3818,-0.86237 0.6729,2.64319 -15.4317,3.93411 4.8833,19.15312 10.0173,-2.55431 c 0,0 -36.4616,43.87439 -99.7315,38.84376 l 0,-2.80508 -16.93,-1.06448 -4.7129,-1.94166 -5.7964,-22.73276 -4.6092,-3.79337 -2.2781,-8.93587 -24.9517,6.36145 -10.3273,-7.44285 -17.5796,4.48116 -1.9555,-7.59946 1.7586,-1.27081 -0.8962,-3.51403 -2.1565,-0.2931 -3.0833,-12.09331 -1.0549,-9.18347 2.7997,-1.93531 -0.6719,-5.84825 -3.3035,-2.43898 -3.3637,-29.25292 9.3517,-1.07506 -7.5381,-65.56883 21.2048,-15.54386 -2.2463,-19.54462 3.041,-2.22948 -6.0155,-8.20681 -26.2446,19.23777 -7.1413,-9.74322 -12.3917,-5.16576 -13.6615,10.01409 -7.3741,-3.07385 -2.877,2.10884 -2.5458,-1.0613 -3.5321,8.47135 19.5711,8.1592 6.5255,56.75995 18.6251,7.76557 0.5788,5.03562 -9.8681,7.23334 4.4992,39.13264 11.2383,4.68538 1.0592,29.97879 -39.94,-0.29415 -0.1894,25.68069 -4.3351,-0.0317 -17.2411,13.30698 0.08,-10.87012 -103.3513,-0.76079 c 0,0 -87.43196,-3.08709 -86.80538,-88.15875 l 0.85285,-115.82871 a 30.094342,30.094342 0 0 0 14.48362,-25.69656 30.094342,30.094342 0 0 0 -30.09413,-30.09414 z"
       id="path4148"
       inkscape:connector-curvature="0" />
  </g>
  <g
     inkscape:groupmode="layer"
     id="layer3"
     inkscape:label="Label"
     transform="translate(-676.48161,-244)">
    <g
       id="g4270"
       transform="translate(15.547933,0)">
      <g
         style="font-style:normal;font-variant:normal;font-weight:bold;font-stretch:normal;font-size:125px;line-height:125%;font-family:Overpass;-inkscape-font-specification:'Overpass, Bold';text-align:start;letter-spacing:0px;word-spacing:0px;writing-mode:lr-tb;text-anchor:start;fill:#dddddd;fill-opacity:1;stroke:#222222;stroke-width:0.25;stroke-linecap:butt;stroke-linejoin:miter;stroke-miterlimit:4;stroke-dasharray:none;stroke-opacity:1"
         id="text4262">
        <path
           d="m 1492.4114,294.39355 q -0.7935,-1.95312 -2.1363,-3.6621 -1.3427,-1.70899 -3.2348,-2.92969 -1.8311,-1.28174 -4.2725,-1.95313 -2.3803,-0.73242 -5.31,-0.73242 -5.4932,0 -8.606,2.19727 -3.0518,2.19726 -3.0518,6.16455 0,2.62451 1.9532,4.39453 1.9531,1.77002 5.1269,3.23486 3.1739,1.40381 7.2022,2.68555 4.0893,1.28174 8.3618,2.86865 4.2725,1.52588 8.3008,3.66211 4.0893,2.0752 7.2632,5.18799 3.1738,3.05176 5.1269,7.32422 1.9531,4.21142 1.9531,10.13183 0,6.40869 -2.4414,11.35254 -2.4414,4.94385 -6.7138,8.36182 -4.2115,3.41797 -10.0098,5.18799 -5.7983,1.77002 -12.5122,1.77002 -6.1646,0 -11.5357,-1.64795 -5.371,-1.70899 -9.7656,-4.82178 -4.3335,-3.11279 -7.5683,-7.56836 -3.2349,-4.45557 -5.127,-10.00976 l 15.3809,-5.73731 q 1.4038,3.05176 3.3569,5.61523 2.0142,2.50245 4.4556,4.3335 2.4414,1.77002 5.249,2.80762 2.8686,0.97656 6.1035,0.97656 3.1738,0 5.7373,-0.67139 2.6245,-0.67138 4.4556,-2.01416 1.8921,-1.34277 2.8686,-3.29589 1.0376,-2.01416 1.0376,-4.63868 0,-3.17382 -1.9531,-5.31006 -1.9531,-2.19726 -5.127,-3.78417 -3.1738,-1.64795 -7.2631,-2.92969 -4.0284,-1.34278 -8.3008,-2.80762 -4.2114,-1.46484 -8.3008,-3.41797 -4.0283,-1.95312 -7.2021,-4.82178 -3.1739,-2.86865 -5.127,-6.89697 -1.9531,-4.02832 -1.9531,-9.76562 0,-4.94385 1.9531,-9.27735 2.0142,-4.39453 5.7983,-7.69043 3.7842,-3.2959 9.2774,-5.18799 5.4931,-1.95312 12.5732,-1.95312 5.9204,0 10.6812,1.52588 4.8218,1.52588 8.4839,4.27246 3.6621,2.68555 6.1645,6.40869 2.5025,3.66211 3.7842,8.05664 l -15.1367,5.00488 z"
           style=""
           id="path4277" />
        <path
           d="m 1588.5417,358.11426 -6.7749,-18.12744 -33.7524,0 -6.7139,18.12744 -18.1274,0 33.5083,-87.52442 16.4795,0 33.5083,87.52442 -18.1275,0 z m -20.874,-56.27442 q -0.6714,-1.58691 -1.4648,-3.78418 -0.7324,-2.19726 -1.2818,-4.08935 -0.4882,1.89209 -1.2817,4.08935 -0.7935,2.19727 -1.4648,3.78418 l -8.667,22.76612 22.7661,0 -8.606,-22.76612 z"
           style=""
           id="path4279" />
        <path
           d="m 1677.2869,358.11426 -34.729,-51.02539 q -0.8545,-1.28174 -1.8921,-3.1128 -0.9766,-1.89209 -1.709,-3.479 0.1831,1.40381 0.2441,3.2959 0.1221,1.89209 0.1221,3.2959 l 0,51.02539 -16.7847,0 0,-87.52442 15.8692,0 33.8745,50.41504 q 0.7934,1.22071 1.831,3.05176 1.0376,1.83106 1.8311,3.54004 -0.1831,-1.77002 -0.3052,-3.54004 -0.061,-1.83105 -0.061,-3.05176 l 0,-50.41504 16.7236,0 0,87.52442 -15.0146,0 z"
           style=""
           id="path4281" />
      </g>
      <g
         style="font-style:normal;font-variant:normal;font-weight:normal;font-stretch:normal;font-size:45px;line-height:125%;font-family:Overpass;-inkscape-font-specification:'Overpass, Normal';text-align:start;letter-spacing:0px;word-spacing:0px;writing-mode:lr-tb;text-anchor:start;fill:#222222;fill-opacity:1;stroke:none;stroke-width:1px;stroke-linecap:butt;stroke-linejoin:miter;stroke-opacity:1"
         id="text4266">
        <path
           d="m 1246.5759,276.91016 q -0.2856,-0.68116 -0.791,-1.25245 -0.5054,-0.59326 -1.2305,-1.01074 -0.7251,-0.43945 -1.6699,-0.68115 -0.9228,-0.2417 -2.0654,-0.2417 -2.2632,0 -3.5376,0.98877 -1.2744,0.98877 -1.2744,2.79053 0,1.1206 0.7031,1.91162 0.7031,0.76904 1.8457,1.3623 1.1426,0.59327 2.5928,1.09864 1.4721,0.48339 2.9883,1.07666 1.538,0.57129 2.9882,1.34033 1.4722,0.74707 2.6148,1.8457 1.1426,1.07666 1.8457,2.61475 0.7031,1.51611 0.7031,3.64746 0,2.26318 -0.8349,4.02099 -0.813,1.73584 -2.2632,2.94434 -1.4502,1.18652 -3.4278,1.82373 -1.9555,0.61524 -4.2187,0.61524 -2.1094,0 -3.9551,-0.54932 -1.8237,-0.52734 -3.3179,-1.51611 -1.4721,-1.01075 -2.5488,-2.417 -1.0766,-1.42822 -1.6699,-3.18603 l 4.4165,-1.60401 q 0.4834,1.05469 1.1865,1.9336 0.7251,0.8789 1.648,1.51611 0.9228,0.61524 2.0215,0.9668 1.1206,0.35156 2.395,0.35156 1.2744,0 2.3291,-0.30762 1.0547,-0.30761 1.8017,-0.92285 0.7471,-0.61523 1.1646,-1.51611 0.4175,-0.92285 0.4175,-2.10938 0,-1.40625 -0.7032,-2.35107 -0.7031,-0.9668 -1.8457,-1.66992 -1.1425,-0.70313 -2.6147,-1.23047 -1.4502,-0.52734 -2.9883,-1.07666 -1.5161,-0.54932 -2.9883,-1.23047 -1.4502,-0.68115 -2.5927,-1.66992 -1.1426,-0.98877 -1.8458,-2.37305 -0.7031,-1.38428 -0.7031,-3.38379 0,-1.66992 0.6592,-3.16406 0.6812,-1.49414 1.9556,-2.61475 1.2744,-1.14257 3.1421,-1.80175 1.8676,-0.65918 4.2627,-0.65918 1.9995,0 3.6254,0.48339 1.626,0.46143 2.8345,1.29639 1.2305,0.83496 2.0435,1.97754 0.813,1.14258 1.2304,2.48291 l -4.3286,1.4502 z"
           style=""
           id="path4284" />
        <path
           d="m 1275.9753,301.25586 -4.4824,0 0,-1.97754 q -0.4394,0.46143 -1.0547,0.92285 -0.6152,0.43945 -1.4062,0.81299 -0.7691,0.35156 -1.7359,0.57129 -0.9668,0.21973 -2.1093,0.21973 -1.7578,0 -3.252,-0.4834 -1.4941,-0.4834 -2.5928,-1.4502 -1.0986,-0.98877 -1.7358,-2.41699 -0.6152,-1.4502 -0.6152,-3.36182 0,-1.97754 0.747,-3.40576 0.7471,-1.45019 1.9776,-2.37305 1.2304,-0.94482 2.8125,-1.38427 1.604,-0.43946 3.2959,-0.43946 1.582,0 3.0322,0.35157 1.4722,0.32959 2.6367,1.01074 l 0,-1.27442 q 0,-1.29638 -0.3076,-2.19726 -0.2856,-0.90088 -0.9009,-1.4502 -0.5932,-0.57129 -1.5161,-0.81298 -0.9228,-0.26368 -2.1973,-0.26368 -2.1533,0 -3.7353,0.57129 -1.5601,0.57129 -2.8345,1.51612 l -1.3843,-3.84522 q 0.7032,-0.4834 1.604,-0.90088 0.9009,-0.43945 1.9776,-0.76904 1.0766,-0.32959 2.3291,-0.50537 1.2524,-0.19776 2.6807,-0.19776 0.9667,0 1.9995,0.10987 1.0327,0.10986 1.9995,0.43945 0.9887,0.30762 1.8457,0.90088 0.8789,0.59326 1.5161,1.56006 0.6592,0.94482 1.0327,2.3291 0.3735,1.38428 0.3735,3.2959 l 0,14.89746 z m -9.9316,-3.60352 q 1.7798,0 3.1421,-0.72509 1.3843,-0.7251 2.3071,-1.73584 l 0,-3.51563 q -0.9668,-0.50537 -2.2632,-0.81299 -1.2964,-0.30761 -2.6587,-0.30761 -1.0546,0 -1.9775,0.19775 -0.9228,0.19775 -1.626,0.63721 -0.6811,0.41748 -1.0766,1.09863 -0.3955,0.65918 -0.3955,1.604 0,1.64795 1.1425,2.61475 1.1646,0.94482 3.4058,0.94482 z"
           style=""
           id="path4286" />
        <path
           d="m 1296.5637,301.25586 0,-13.73291 q 0,-1.4502 -0.3515,-2.46094 -0.3516,-1.03271 -0.9668,-1.66992 -0.6153,-0.65918 -1.4502,-0.94482 -0.835,-0.30762 -1.8238,-0.30762 -1.0547,0 -1.9555,0.28564 -0.9009,0.26367 -1.5601,0.87891 -0.6592,0.61523 -1.0547,1.64795 -0.3735,1.01074 -0.3735,2.48291 l 0,13.8208 -4.6802,0 0,-23.00537 4.6802,0 0,2.21924 q 1.1206,-1.42823 2.5708,-2.08741 1.4502,-0.65918 3.3618,-0.65918 1.8018,0 3.3179,0.52735 1.5161,0.50537 2.6147,1.66992 1.1206,1.16455 1.7359,3.03223 0.6152,1.86767 0.6152,4.57031 l 0,13.73291 -4.6802,0 z"
           style=""
           id="path4288" />
        <path
           d="m 1318.7781,269.74707 8.833,0 q 2.7466,0 4.9219,0.63721 2.1753,0.61523 3.8452,1.71386 1.6699,1.09864 2.8564,2.61475 1.1865,1.49414 1.9336,3.25195 0.7691,1.73584 1.1206,3.66944 0.3516,1.93359 0.3516,3.86718 0,1.80176 -0.3296,3.69141 -0.3076,1.86768 -1.0547,3.62549 -0.7251,1.73584 -1.8896,3.27393 -1.1646,1.53808 -2.8565,2.70263 -1.6919,1.14258 -3.9551,1.80176 -2.2412,0.65918 -5.1196,0.65918 l -8.6572,0 0,-31.50879 z m 9.4043,27.09229 q 1.8017,0 3.208,-0.46143 1.4282,-0.4834 2.4829,-1.29639 1.0767,-0.81299 1.8017,-1.91162 0.7471,-1.09863 1.2085,-2.35107 0.4834,-1.27442 0.6812,-2.61475 0.2197,-1.3623 0.2197,-2.70264 0,-2.13134 -0.5273,-4.15283 -0.5054,-2.04345 -1.604,-3.62549 -1.0987,-1.604 -2.8345,-2.5708 -1.7139,-0.98877 -4.1309,-0.98877 l -5.2294,0 0,22.67579 4.7241,0 z"
           style=""
           id="path4290" />
        <path
           d="m 1349.0125,301.25586 0,-23.00537 4.6801,0 0,23.00537 -4.6801,0 z m 2.3291,-26.58691 q -0.5933,0 -1.1207,-0.21973 -0.5053,-0.21973 -0.9008,-0.59326 -0.3736,-0.39551 -0.5933,-0.90088 -0.2197,-0.52735 -0.2197,-1.12061 0,-0.59326 0.2197,-1.09863 0.2197,-0.52734 0.5933,-0.90088 0.3955,-0.39551 0.9008,-0.61523 0.5274,-0.21973 1.1207,-0.21973 0.5932,0 1.0986,0.21973 0.5273,0.21972 0.9009,0.61523 0.3955,0.37354 0.6152,0.90088 0.2197,0.50537 0.2197,1.09863 0,0.59326 -0.2197,1.12061 -0.2197,0.50537 -0.6152,0.90088 -0.3736,0.37353 -0.9009,0.59326 -0.5054,0.21973 -1.0986,0.21973 z"
           style=""
           id="path4292" />
        <path
           d="m 1369.7986,301.80518 q -2.395,0 -4.3286,-0.81299 -1.9336,-0.83496 -3.2959,-2.37305 -1.3623,-1.56006 -2.1094,-3.80127 -0.7251,-2.24121 -0.7251,-5.07568 0,-2.83448 0.7471,-5.05371 0.747,-2.24121 2.1093,-3.7793 1.3843,-1.56006 3.2959,-2.37305 1.9336,-0.81299 4.3067,-0.81299 2.0434,0 3.8232,0.65918 1.8018,0.63721 3.1421,1.97754 1.3623,1.31836 2.1314,3.33985 0.791,2.02148 0.791,4.76806 0,0.74707 -0.044,1.58203 -0.022,0.83497 -0.1318,1.4502 l -15.4907,0 q 0.022,1.42822 0.5053,2.5708 0.5054,1.12061 1.3184,1.93359 0.813,0.79102 1.8457,1.23047 1.0327,0.41748 2.1533,0.41748 1.4283,0 2.6367,-0.59326 1.2305,-0.59326 2.1314,-1.73584 l 3.0542,3.14209 q -1.2524,1.49414 -3.208,2.41699 -1.9556,0.92286 -4.6582,0.92286 z m 0,-19.95118 q -1.0986,0 -2.1094,0.32959 -1.0107,0.30762 -1.8017,1.01075 -0.7691,0.68115 -1.2745,1.80175 -0.5053,1.12061 -0.5932,2.72461 l 10.9863,0 q -0.044,-1.604 -0.5054,-2.72461 -0.4614,-1.1206 -1.2085,-1.80175 -0.747,-0.70313 -1.6699,-1.01075 -0.9009,-0.32959 -1.8237,-0.32959 z"
           style=""
           id="path4294" />
        <path
           d="m 1390.4309,306.66113 q 2.5269,-0.15381 4.1748,-0.59326 1.648,-0.43945 2.6148,-1.1206 0.9668,-0.65918 1.3403,-1.56006 0.3735,-0.90088 0.3735,-1.95557 l 0,-2.02148 q -1.9116,2.39502 -5.5371,2.39502 -1.9775,0 -3.6914,-0.74707 -1.7139,-0.76905 -3.0102,-2.28516 -1.2745,-1.51611 -2.0215,-3.75733 -0.7251,-2.26318 -0.7251,-5.27343 0,-2.83448 0.7031,-5.05371 0.7031,-2.24121 1.9556,-3.7793 1.2744,-1.56006 3.0322,-2.37305 1.7578,-0.81299 3.8672,-0.81299 1.0107,0 1.8457,0.19776 0.8349,0.17578 1.4941,0.4834 0.6812,0.30761 1.1865,0.70312 0.5274,0.37354 0.9009,0.76904 l 0,-1.62597 4.6802,0 0,21.24756 q 0,2.63672 -0.5273,4.48242 -0.5274,1.8457 -1.8018,3.16406 -0.8569,0.87891 -1.8896,1.42822 -1.0108,0.57129 -2.1314,0.92286 -1.0986,0.35156 -2.2412,0.50537 -1.1426,0.17578 -2.2412,0.26367 l -2.3511,-3.60352 z m 3.8233,-9.27246 q 1.4282,0 2.6586,-0.70312 1.2525,-0.70313 2.0215,-1.99951 l 0,-9.95362 q -0.3515,-0.57129 -0.8789,-1.03271 -0.5054,-0.4834 -1.1206,-0.83496 -0.5932,-0.35157 -1.2964,-0.52735 -0.6811,-0.19775 -1.3842,-0.19775 -2.7466,0 -4.1968,1.95556 -1.4282,1.9336 -1.4282,5.64698 0,1.75781 0.3955,3.18603 0.3955,1.40625 1.1206,2.39502 0.7251,0.98877 1.7578,1.53809 1.0547,0.52734 2.3511,0.52734 z"
           style=""
           id="path4296" />
        <path
           d="m 1419.7644,301.80518 q -2.417,0 -4.3726,-0.81299 -1.9335,-0.81299 -3.2959,-2.35108 -1.3623,-1.56006 -2.1093,-3.77929 -0.7251,-2.24121 -0.7251,-5.07569 0,-2.83447 0.7251,-5.07568 0.747,-2.24121 2.1093,-3.7793 1.3624,-1.56006 3.2959,-2.37304 1.9556,-0.83497 4.3726,-0.83497 2.395,0 4.3506,0.83497 1.9556,0.81298 3.3179,2.37304 1.3623,1.53809 2.1093,3.7793 0.7471,2.24121 0.7471,5.07568 0,2.83448 -0.7471,5.07569 -0.747,2.21923 -2.1093,3.77929 -1.3623,1.53809 -3.3179,2.35108 -1.9556,0.81299 -4.3506,0.81299 z m 0,-4.41651 q 1.3403,0 2.417,-0.52734 1.0986,-0.52735 1.8457,-1.49414 0.769,-0.98877 1.1646,-2.39502 0.4174,-1.40625 0.4174,-3.18604 0,-1.77978 -0.4174,-3.18603 -0.3956,-1.42823 -1.1646,-2.41699 -0.7471,-0.98877 -1.8457,-1.51612 -1.0767,-0.52734 -2.417,-0.52734 -1.3403,0 -2.417,0.52734 -1.0766,0.52735 -1.8457,1.51612 -0.7471,0.98876 -1.1645,2.41699 -0.3955,1.40625 -0.3955,3.18603 0,1.77979 0.3955,3.18604 0.4174,1.40625 1.1645,2.39502 0.7691,0.96679 1.8457,1.49414 1.0767,0.52734 2.417,0.52734 z"
           style=""
           id="path4298" />
      </g>
    </g>
  </g>
</svg>
