<?xml version="1.0" encoding="UTF-8" standalone="no"?>
<!-- Created with Inkscape (http://www.inkscape.org/) -->

<svg
   xmlns:dc="http://purl.org/dc/elements/1.1/"
   xmlns:cc="http://creativecommons.org/ns#"
   xmlns:rdf="http://www.w3.org/1999/02/22-rdf-syntax-ns#"
   xmlns:svg="http://www.w3.org/2000/svg"
   xmlns="http://www.w3.org/2000/svg"
   xmlns:sodipodi="http://sodipodi.sourceforge.net/DTD/sodipodi-0.dtd"
   xmlns:inkscape="http://www.inkscape.org/namespaces/inkscape"
   width="640.08417"
   height="531.93842"
   viewBox="0 0 640.08417 531.93842"
   id="svg2"
   version="1.1"
   inkscape:version="0.92.4 (5da689c313, 2019-01-14)"
   sodipodi:docname="SAT.svg">
  <defs
     id="defs4" />
  <sodipodi:namedview
     id="base"
     pagecolor="#ffffff"
     bordercolor="#666666"
     borderopacity="1.0"
     inkscape:pageopacity="1"
     inkscape:pageshadow="2"
     inkscape:zoom="1.4"
     inkscape:cx="265.17818"
     inkscape:cy="254.60786"
     inkscape:document-units="px"
     inkscape:current-layer="layer1"
     showgrid="false"
     units="px"
     fit-margin-top="25"
     fit-margin-left="25"
     fit-margin-right="25"
     fit-margin-bottom="25"
     inkscape:window-width="1920"
     inkscape:window-height="1137"
     inkscape:window-x="1912"
     inkscape:window-y="-8"
     inkscape:window-maximized="1" />
  <metadata
     id="metadata7">
    <rdf:RDF>
      <cc:Work
         rdf:about="">
        <dc:format>image/svg+xml</dc:format>
        <dc:type
           rdf:resource="http://purl.org/dc/dcmitype/StillImage" />
        <dc:title />
      </cc:Work>
    </rdf:RDF>
  </metadata>
  <g
     inkscape:groupmode="layer"
     id="layer2"
     inkscape:label="Terminal"
     transform="translate(-604.08962,-412.7026)">
    <path
       style="fill:#dddddd;fill-opacity:1;fill-rule:evenodd;stroke:#222222;stroke-width:1.5;stroke-linecap:butt;stroke-linejoin:miter;stroke-miterlimit:4;stroke-dasharray:none;stroke-opacity:1"
       d="m 1009.8678,438.76438 -26.00516,27.34425 -4.39815,-4.39815 -13.57674,14.1498 4.01586,4.58892 -64.44015,66.92614 -2.48598,-1.72066 -11.22165,11.75847 13.79192,12.30418 41.91554,77.07042 1.487,-1.89295 4.05653,3.92122 7.43648,13.52054 -5.54353,5.81417 57.59963,109.92641 c 8.9239,16.22529 -4.3271,26.90726 -4.3271,26.90726 l -101.00223,103.03043 10.14059,10.54657 250.40694,-258.12888 -5.7365,-5.25886 6.788,-7.21834 5.7365,5.35423 43.597,-44.93611 -16.8265,-15.6797 -85.6656,88.53313 6.1196,6.11955 -22.9462,23.13688 -5.928,-5.9273 -13.3852,13.76751 -8.9638,-0.0234 2.845,-2.65414 -38.4343,-37.47819 12.0461,-12.62065 -0.3823,-11.85534 -40.1557,-38.62579 -1.5299,1.7214 -34.6099,-33.46307 3.25055,-3.63358 -5.54501,-5.16272 4.78044,-4.39815 -24.66677,-22.94537 43.97929,-45.8922 4.01587,4.20664 13.57603,-14.53283 -4.2067,-3.63284 26.1967,-27.72654 z m 57.2566,283.60605 9.194,0.13532 -8.8556,8.92402 -4.9355,-4.73291 z"
       id="path4143"
       inkscape:connector-curvature="0"
       sodipodi:nodetypes="cccccccccccccccccccccccccccccccccccccccccccccccccccc" />
  </g>
  <g
     inkscape:groupmode="layer"
     id="layer1"
     inkscape:label="Label"
     transform="translate(-604.08962,-412.7026)">
    <g
       id="g4157"
       transform="translate(-51.428571,217.14286)">
      <g
         style="font-style:normal;font-variant:normal;font-weight:bold;font-stretch:normal;font-size:125px;line-height:125%;font-family:Overpass;-inkscape-font-specification:'Overpass, Bold';text-align:start;letter-spacing:0px;word-spacing:0px;writing-mode:lr-tb;text-anchor:start;fill:#dddddd;fill-opacity:1;stroke:#222222;stroke-width:0.25;stroke-linecap:butt;stroke-linejoin:miter;stroke-miterlimit:4;stroke-dasharray:none;stroke-opacity:1"
         id="text4149">
        <path
           d="m 735.3656,492.24072 q -0.79346,-1.95312 -2.13623,-3.66211 -1.34277,-1.70898 -3.23486,-2.92968 -1.83106,-1.28174 -4.27246,-1.95313 -2.38038,-0.73242 -5.31006,-0.73242 -5.49317,0 -8.60596,2.19726 -3.05176,2.19727 -3.05176,6.16456 0,2.62451 1.95313,4.39453 1.95312,1.77002 5.12695,3.23486 3.17383,1.40381 7.20215,2.68555 4.08935,1.28173 8.36182,2.86865 4.27246,1.52588 8.30078,3.66211 4.08935,2.07519 7.26318,5.18799 3.17383,3.05175 5.12695,7.32422 1.95313,4.21142 1.95313,10.13183 0,6.40869 -2.44141,11.35254 -2.4414,4.94385 -6.71387,8.36182 -4.21142,3.41797 -10.00976,5.18799 -5.79834,1.77001 -12.51221,1.77001 -6.16455,0 -11.53564,-1.64794 -5.3711,-1.70899 -9.76563,-4.82178 -4.33349,-3.11279 -7.56836,-7.56836 -3.23486,-4.45557 -5.12695,-10.00977 l 15.38086,-5.7373 q 1.40381,3.05176 3.35693,5.61523 2.01416,2.50244 4.45557,4.3335 2.44141,1.77002 5.24902,2.80762 2.86866,0.97656 6.10352,0.97656 3.17383,0 5.7373,-0.67139 2.62452,-0.67138 4.45557,-2.01416 1.89209,-1.34277 2.86865,-3.2959 1.0376,-2.01416 1.0376,-4.63867 0,-3.17383 -1.95313,-5.31006 -1.95312,-2.19726 -5.12695,-3.78418 -3.17383,-1.64795 -7.26318,-2.92968 -4.02832,-1.34278 -8.30078,-2.80762 -4.21143,-1.46485 -8.30078,-3.41797 -4.02832,-1.95313 -7.20215,-4.82178 -3.17383,-2.86865 -5.12696,-6.89697 -1.95312,-4.02832 -1.95312,-9.76563 0,-4.94384 1.95312,-9.27734 2.01416,-4.39453 5.79834,-7.69043 3.78418,-3.2959 9.27735,-5.18799 5.49316,-1.95312 12.57324,-1.95312 5.92041,0 10.68115,1.52588 4.82178,1.52588 8.48389,4.27246 3.66211,2.68554 6.16455,6.40869 2.50244,3.66211 3.78418,8.05664 l -15.13672,5.00488 z"
           style=""
           id="path4164" />
        <path
           d="m 831.49597,555.96143 -6.7749,-18.12745 -33.75244,0 -6.71387,18.12745 -18.12744,0 33.5083,-87.52442 16.47949,0 33.5083,87.52442 -18.12744,0 z m -20.87402,-56.27442 q -0.67139,-1.58691 -1.46485,-3.78418 -0.73242,-2.19726 -1.28173,-4.08935 -0.48829,1.89209 -1.28174,4.08935 -0.79346,2.19727 -1.46485,3.78418 l -8.66699,22.76611 22.76612,0 -8.60596,-22.76611 z"
           style=""
           id="path4166" />
        <path
           d="m 891.73767,484.7334 0,71.22803 -16.8457,0 0,-71.22803 -25.02442,0 0,-16.29639 66.89453,0 0,16.29639 -25.02441,0 z"
           style=""
           id="path4168" />
      </g>
      <g
         style="font-style:normal;font-variant:normal;font-weight:normal;font-stretch:normal;font-size:45px;line-height:125%;font-family:Overpass;-inkscape-font-specification:'Overpass, Normal';text-align:start;letter-spacing:0px;word-spacing:0px;writing-mode:lr-tb;text-anchor:start;fill:#222222;fill-opacity:1;stroke:none;stroke-width:1px;stroke-linecap:butt;stroke-linejoin:miter;stroke-opacity:1"
         id="text4153">
        <path
           d="m 697.04163,580.76428 q -0.28565,-0.68115 -0.79102,-1.25244 -0.50537,-0.59326 -1.23047,-1.01074 -0.7251,-0.43945 -1.66992,-0.68115 -0.92285,-0.2417 -2.06543,-0.2417 -2.26318,0 -3.5376,0.98877 -1.27441,0.98877 -1.27441,2.79052 0,1.12061 0.70312,1.91163 0.70313,0.76904 1.84571,1.3623 1.14257,0.59326 2.59277,1.09863 1.47217,0.4834 2.98828,1.07666 1.53809,0.57129 2.98828,1.34033 1.47217,0.74708 2.61475,1.84571 1.14258,1.07666 1.8457,2.61474 0.70313,1.51612 0.70313,3.64746 0,2.26319 -0.83496,4.021 -0.81299,1.73584 -2.26319,2.94434 -1.45019,1.18652 -3.42773,1.82373 -1.95557,0.61523 -4.21875,0.61523 -2.10938,0 -3.95508,-0.54931 -1.82373,-0.52735 -3.31787,-1.51612 -1.47217,-1.01074 -2.54883,-2.41699 -1.07666,-1.42822 -1.66992,-3.18604 l 4.4165,-1.604 q 0.4834,1.05469 1.18653,1.93359 0.72509,0.87891 1.64795,1.51612 0.92285,0.61523 2.02148,0.96679 1.1206,0.35157 2.39502,0.35157 1.27441,0 2.3291,-0.30762 1.05469,-0.30762 1.80176,-0.92285 0.74707,-0.61524 1.16455,-1.51611 0.41748,-0.92286 0.41748,-2.10938 0,-1.40625 -0.70313,-2.35107 -0.70312,-0.9668 -1.8457,-1.66993 -1.14258,-0.70312 -2.61474,-1.23046 -1.4502,-0.52735 -2.98829,-1.07666 -1.51611,-0.54932 -2.98828,-1.23047 -1.45019,-0.68116 -2.59277,-1.66993 -1.14258,-0.98876 -1.8457,-2.37304 -0.70313,-1.38428 -0.70313,-3.38379 0,-1.66992 0.65918,-3.16406 0.68115,-1.49414 1.95557,-2.61475 1.27441,-1.14258 3.14209,-1.80176 1.86767,-0.65918 4.26269,-0.65918 1.99951,0 3.62549,0.4834 1.62598,0.46143 2.83447,1.29639 1.23047,0.83496 2.04346,1.97754 0.81299,1.14257 1.23047,2.48291 l -4.32861,1.45019 z"
           style=""
           id="path4171" />
        <path
           d="m 726.44104,605.10999 -4.48242,0 0,-1.97754 q -0.43945,0.46142 -1.05469,0.92285 -0.61523,0.43945 -1.40625,0.81299 -0.76904,0.35156 -1.73584,0.57129 -0.9668,0.21972 -2.10937,0.21972 -1.75782,0 -3.25196,-0.4834 -1.49414,-0.4834 -2.59277,-1.45019 -1.09863,-0.98877 -1.73584,-2.41699 -0.61523,-1.4502 -0.61523,-3.36182 0,-1.97754 0.74707,-3.40576 0.74707,-1.4502 1.97753,-2.37305 1.23047,-0.94482 2.8125,-1.38428 1.60401,-0.43945 3.2959,-0.43945 1.58203,0 3.03223,0.35156 1.47217,0.32959 2.63672,1.01075 l 0,-1.27442 q 0,-1.29639 -0.30762,-2.19726 -0.28564,-0.90088 -0.90088,-1.4502 -0.59326,-0.57129 -1.51611,-0.81299 -0.92285,-0.26367 -2.19727,-0.26367 -2.15332,0 -3.73535,0.57129 -1.56006,0.57129 -2.83447,1.51611 l -1.38428,-3.84521 q 0.70313,-0.4834 1.60401,-0.90088 0.90087,-0.43945 1.97753,-0.76904 1.07666,-0.32959 2.32911,-0.50538 1.25244,-0.19775 2.68066,-0.19775 0.9668,0 1.99951,0.10986 1.03272,0.10987 1.99951,0.43946 0.98877,0.30761 1.84571,0.90088 0.8789,0.59326 1.51611,1.56005 0.65918,0.94483 1.03271,2.32911 0.37354,1.38427 0.37354,3.29589 l 0,14.89747 z m -9.93164,-3.60352 q 1.77978,0 3.14209,-0.7251 1.38428,-0.7251 2.30713,-1.73584 l 0,-3.51562 q -0.9668,-0.50537 -2.26319,-0.81299 -1.29638,-0.30762 -2.65869,-0.30762 -1.05468,0 -1.97754,0.19776 -0.92285,0.19775 -1.62597,0.6372 -0.68115,0.41748 -1.07666,1.09864 -0.39551,0.65918 -0.39551,1.604 0,1.64795 1.14258,2.61475 1.16455,0.94482 3.40576,0.94482 z"
           style=""
           id="path4173" />
        <path
           d="m 747.02942,605.10999 0,-13.73291 q 0,-1.4502 -0.35156,-2.46094 -0.35157,-1.03272 -0.9668,-1.66992 -0.61523,-0.65918 -1.4502,-0.94483 -0.83496,-0.30762 -1.82373,-0.30762 -1.05468,0 -1.95556,0.28565 -0.90088,0.26367 -1.56006,0.87891 -0.65918,0.61523 -1.05469,1.64794 -0.37353,1.01075 -0.37353,2.48291 l 0,13.82081 -4.68018,0 0,-23.00538 4.68018,0 0,2.21924 q 1.1206,-1.42822 2.5708,-2.0874 1.45019,-0.65918 3.36181,-0.65918 1.80176,0 3.31787,0.52734 1.51612,0.50538 2.61475,1.66993 1.12061,1.16455 1.73584,3.03222 0.61523,1.86768 0.61523,4.57032 l 0,13.73291 -4.68017,0 z"
           style=""
           id="path4175" />
        <path
           d="m 789.76624,605.10999 -2.50489,-7.25098 -12.74414,0 -2.5708,7.25098 -4.85596,0 11.38184,-31.50879 4.81201,0 11.33789,31.50879 -4.85595,0 z m -7.77832,-22.1045 q -0.26368,-0.74707 -0.59327,-1.73584 -0.30761,-0.98877 -0.4834,-1.80175 -0.21972,0.81298 -0.52734,1.80175 -0.28564,0.9668 -0.54932,1.73584 l -3.88916,10.72266 9.86573,0 -3.82324,-10.72266 z"
           style=""
           id="path4177" />
        <path
           d="m 814.08997,605.10999 0,-13.73291 q 0,-1.4502 -0.35157,-2.46094 -0.35156,-1.03272 -0.96679,-1.66992 -0.61524,-0.65918 -1.4502,-0.94483 -0.83496,-0.30762 -1.82373,-0.30762 -1.05469,0 -1.95557,0.28565 -0.90087,0.26367 -1.56005,0.87891 -0.65918,0.61523 -1.05469,1.64794 -0.37354,1.01075 -0.37354,2.48291 l 0,13.82081 -4.68017,0 0,-23.00538 4.68017,0 0,2.21924 q 1.12061,-1.42822 2.5708,-2.0874 1.4502,-0.65918 3.36182,-0.65918 1.80176,0 3.31787,0.52734 1.51611,0.50538 2.61475,1.66993 1.1206,1.16455 1.73584,3.03222 0.61523,1.86768 0.61523,4.57032 l 0,13.73291 -4.68017,0 z"
           style=""
           id="path4179" />
        <path
           d="m 831.93176,605.6593 q -1.3623,0 -2.35107,-0.41748 -0.9668,-0.39551 -1.60401,-1.14258 -0.61523,-0.74707 -0.90087,-1.80175 -0.28565,-1.07666 -0.28565,-2.37305 l 0,-13.75488 -3.55957,0 0,-4.06495 3.55957,0 0,-7.229 4.68018,-2.26318 0,9.49218 5.44922,0 0,4.06495 -5.44922,0 0,12.54638 q 0,0.57129 0.0879,1.05469 0.10986,0.4834 0.35156,0.83496 0.26367,0.35156 0.70313,0.54932 0.43945,0.17578 1.1206,0.17578 1.66992,0 3.40576,-1.07666 l -0.57129,4.35058 q -0.96679,0.4834 -2.10937,0.76905 -1.14258,0.28564 -2.52686,0.28564 z"
           style=""
           id="path4181" />
        <path
           d="m 851.68518,605.6593 q -2.41699,0 -4.37256,-0.81299 -1.93359,-0.81298 -3.2959,-2.35107 -1.3623,-1.56006 -2.10937,-3.7793 -0.7251,-2.24121 -0.7251,-5.07568 0,-2.83447 0.7251,-5.07568 0.74707,-2.24122 2.10937,-3.7793 1.36231,-1.56006 3.2959,-2.37305 1.95557,-0.83496 4.37256,-0.83496 2.39502,0 4.35059,0.83496 1.95556,0.81299 3.31787,2.37305 1.3623,1.53808 2.10937,3.7793 0.74707,2.24121 0.74707,5.07568 0,2.83447 -0.74707,5.07568 -0.74707,2.21924 -2.10937,3.7793 -1.36231,1.53809 -3.31787,2.35107 -1.95557,0.81299 -4.35059,0.81299 z m 0,-4.4165 q 1.34033,0 2.41699,-0.52735 1.09864,-0.52734 1.84571,-1.49414 0.76904,-0.98877 1.16455,-2.39502 0.41748,-1.40625 0.41748,-3.18603 0,-1.77979 -0.41748,-3.18604 -0.39551,-1.42822 -1.16455,-2.41699 -0.74707,-0.98877 -1.84571,-1.51611 -1.07666,-0.52735 -2.41699,-0.52735 -1.34033,0 -2.41699,0.52735 -1.07666,0.52734 -1.8457,1.51611 -0.74707,0.98877 -1.16456,2.41699 -0.3955,1.40625 -0.3955,3.18604 0,1.77978 0.3955,3.18603 0.41749,1.40625 1.16456,2.39502 0.76904,0.9668 1.8457,1.49414 1.07666,0.52735 2.41699,0.52735 z"
           style=""
           id="path4183" />
        <path
           d="m 882.02942,605.10999 0,-13.73291 q 0,-1.4502 -0.35156,-2.46094 -0.35157,-1.03272 -0.9668,-1.66992 -0.61523,-0.65918 -1.4502,-0.94483 -0.83496,-0.30762 -1.82373,-0.30762 -1.05468,0 -1.95556,0.28565 -0.90088,0.26367 -1.56006,0.87891 -0.65918,0.61523 -1.05469,1.64794 -0.37353,1.01075 -0.37353,2.48291 l 0,13.82081 -4.68018,0 0,-23.00538 4.68018,0 0,2.21924 q 1.1206,-1.42822 2.5708,-2.0874 1.45019,-0.65918 3.36181,-0.65918 1.80176,0 3.31787,0.52734 1.51612,0.50538 2.61475,1.66993 1.12061,1.16455 1.73584,3.03222 0.61523,1.86768 0.61523,4.57032 l 0,13.73291 -4.68017,0 z"
           style=""
           id="path4185" />
        <path
           d="m 893.25745,605.10999 0,-23.00538 4.68017,0 0,23.00538 -4.68017,0 z m 2.3291,-26.58692 q -0.59326,0 -1.12061,-0.21973 -0.50537,-0.21972 -0.90088,-0.59326 -0.37353,-0.3955 -0.59326,-0.90088 -0.21972,-0.52734 -0.21972,-1.1206 0,-0.59326 0.21972,-1.09863 0.21973,-0.52735 0.59326,-0.90088 0.39551,-0.39551 0.90088,-0.61524 0.52735,-0.21972 1.12061,-0.21972 0.59326,0 1.09863,0.21972 0.52734,0.21973 0.90088,0.61524 0.39551,0.37353 0.61523,0.90088 0.21973,0.50537 0.21973,1.09863 0,0.59326 -0.21973,1.1206 -0.21972,0.50538 -0.61523,0.90088 -0.37354,0.37354 -0.90088,0.59326 -0.50537,0.21973 -1.09863,0.21973 z"
           style=""
           id="path4187" />
        <path
           d="m 914.08752,605.6593 q -2.41699,0 -4.37255,-0.81299 -1.9336,-0.81298 -3.2959,-2.35107 -1.36231,-1.56006 -2.10938,-3.7793 -0.7251,-2.24121 -0.7251,-5.07568 0,-2.83447 0.7251,-5.07568 0.74707,-2.24122 2.10938,-3.7793 1.3623,-1.56006 3.2959,-2.37305 1.95556,-0.83496 4.37255,-0.83496 2.39502,0 4.35059,0.83496 1.95557,0.81299 3.31787,2.37305 1.36231,1.53808 2.10938,3.7793 0.74707,2.24121 0.74707,5.07568 0,2.83447 -0.74707,5.07568 -0.74707,2.21924 -2.10938,3.7793 -1.3623,1.53809 -3.31787,2.35107 -1.95557,0.81299 -4.35059,0.81299 z m 0,-4.4165 q 1.34034,0 2.417,-0.52735 1.09863,-0.52734 1.8457,-1.49414 0.76904,-0.98877 1.16455,-2.39502 0.41748,-1.40625 0.41748,-3.18603 0,-1.77979 -0.41748,-3.18604 -0.39551,-1.42822 -1.16455,-2.41699 -0.74707,-0.98877 -1.8457,-1.51611 -1.07666,-0.52735 -2.417,-0.52735 -1.34033,0 -2.41699,0.52735 -1.07666,0.52734 -1.8457,1.51611 -0.74707,0.98877 -1.16455,2.41699 -0.39551,1.40625 -0.39551,3.18604 0,1.77978 0.39551,3.18603 0.41748,1.40625 1.16455,2.39502 0.76904,0.9668 1.8457,1.49414 1.07666,0.52735 2.41699,0.52735 z"
           style=""
           id="path4189" />
      </g>
    </g>
  </g>
</svg>
