<?xml version="1.0" encoding="UTF-8" standalone="no"?>
<!-- Created with Inkscape (http://www.inkscape.org/) -->

<svg
   xmlns:dc="http://purl.org/dc/elements/1.1/"
   xmlns:cc="http://creativecommons.org/ns#"
   xmlns:rdf="http://www.w3.org/1999/02/22-rdf-syntax-ns#"
   xmlns:svg="http://www.w3.org/2000/svg"
   xmlns="http://www.w3.org/2000/svg"
   xmlns:sodipodi="http://sodipodi.sourceforge.net/DTD/sodipodi-0.dtd"
   xmlns:inkscape="http://www.inkscape.org/namespaces/inkscape"
   width="712.85797"
   height="199.22491"
   viewBox="0 0 712.85797 199.22492"
   id="svg2"
   version="1.1"
   inkscape:version="0.92.4 (5da689c313, 2019-01-14)"
   sodipodi:docname="SAV.svg"
   inkscape:export-filename="C:\Users\Paul Bogard\Dropbox\Documents\Websites\Flight Log\Images\Terminals\SAV.png"
   inkscape:export-xdpi="90"
   inkscape:export-ydpi="90">
  <defs
     id="defs4" />
  <sodipodi:namedview
     id="base"
     pagecolor="#ffffff"
     bordercolor="#666666"
     borderopacity="1.0"
     inkscape:pageopacity="1"
     inkscape:pageshadow="2"
     inkscape:zoom="1"
     inkscape:cx="63.38338"
     inkscape:cy="206.00236"
     inkscape:document-units="px"
     inkscape:current-layer="layer3"
     showgrid="false"
     units="px"
     fit-margin-top="25"
     fit-margin-left="25"
     fit-margin-right="25"
     fit-margin-bottom="25"
     inkscape:window-width="1920"
     inkscape:window-height="1137"
     inkscape:window-x="1912"
     inkscape:window-y="-8"
     inkscape:window-maximized="1" />
  <metadata
     id="metadata7">
    <rdf:RDF>
      <cc:Work
         rdf:about="">
        <dc:format>image/svg+xml</dc:format>
        <dc:type
           rdf:resource="http://purl.org/dc/dcmitype/StillImage" />
        <dc:title />
      </cc:Work>
    </rdf:RDF>
  </metadata>
  <g
     inkscape:groupmode="layer"
     id="layer2"
     inkscape:label="Terminal"
     transform="translate(-1293.8952,-842.99608)">
    <path
       id="path4148-9"
       style="opacity:1;fill:#dddddd;fill-opacity:1;stroke:#222222;stroke-width:1.5;stroke-miterlimit:4;stroke-dasharray:none;stroke-opacity:1"
       d="m 1603.3801,930.70483 -174.3225,-1.56168 0,3.22097 -12.6886,0 0,-3.8066 -9.1749,0 0.098,-18.44734 -22.6444,-0.29282 0.098,-27.81742 -36.8306,-0.23115 c 0.012,-4.65441 -2.4668,-8.95961 -6.4985,-11.28535 -4.0317,-2.32575 -8.9996,-2.31648 -13.0226,0.0243 -4.023,2.34077 -6.486,6.65519 -6.4563,11.30952 l -1.1581,0.0363 -1.127,121.65564 1.1104,-0.061 c -0.012,4.6544 2.4668,8.9596 6.4985,11.2854 4.0317,2.3257 8.9996,2.3165 13.0226,-0.024 4.023,-2.3408 6.486,-6.6552 6.4564,-11.3095 l 37.0292,0.3138 -0.098,-28.40305 c 0.5856,0 23.1324,0.39042 23.1324,0.39042 l -0.098,-19.32579 9.8581,0.19521 0,-2.34252 12.3958,0.19521 0,3.22097 174.3225,1.65928 0,3.02576 3.1234,0 -0.049,3.17216 3.0746,0.0488 0,3.22097 31.2336,0.0976 0.098,-9.51649 6.3931,0.0976 0.098,2.48893 2.9281,-0.0488 0,-2.34252 24.6941,0.39042 -0.049,2.19612 3.0258,0.0488 0,-2.14731 8.882,0.0488 0.3416,-28.35426 -9.0772,-0.1464 0.098,-2.29372 -2.9282,-0.0488 -0.049,2.39132 -15.4704,-0.19521 0.049,-2.39132 -3.0257,-0.0488 -0.049,2.44013 -15.568,-0.24401 0.049,-9.22368 -31.2824,-0.29281 -0.049,2.92815 -3.0746,0 -0.098,2.92815 -3.1722,0 z"
       inkscape:connector-curvature="0"
       sodipodi:nodetypes="ccccccccccssccccssccccccccccccccccccccccccccccccccccccccccccc" />
  </g>
  <g
     inkscape:groupmode="layer"
     id="layer3"
     inkscape:label="Label"
     transform="translate(0.59227598,0.58618976)">
    <g
       id="g4199"
       transform="translate(501,283.7562)">
      <g
         style="font-style:normal;font-variant:normal;font-weight:bold;font-stretch:normal;font-size:125px;line-height:110.00000238%;font-family:Overpass;-inkscape-font-specification:'Overpass, Bold';text-align:center;letter-spacing:0px;word-spacing:0px;writing-mode:lr-tb;text-anchor:middle;fill:#dddddd;fill-opacity:1;stroke:#222222;stroke-width:0.25;stroke-linecap:butt;stroke-linejoin:miter;stroke-miterlimit:4;stroke-dasharray:none;stroke-opacity:1"
         id="text4191">
        <path
           d="m -3.9227982,-228.74243 q -0.793457,-1.95313 -2.1362304,-3.66211 -1.3427735,-1.70899 -3.2348633,-2.92969 -1.8310551,-1.28174 -4.2724611,-1.95312 -2.380371,-0.73243 -5.310058,-0.73243 -5.493165,0 -8.605957,2.19727 -3.051758,2.19727 -3.051758,6.16455 0,2.62451 1.953125,4.39453 1.953125,1.77002 5.126953,3.23487 3.173828,1.4038 7.202148,2.68554 4.089356,1.28174 8.3618167,2.86865 4.2724609,1.52588 8.30078124,3.66211 4.08935546,2.0752 7.26318356,5.18799 3.1738285,3.05176 5.1269535,7.32422 1.953125,4.21143 1.953125,10.13184 0,6.40869 -2.441407,11.35254 -2.4414058,4.94384 -6.7138668,8.36181 -4.2114258,3.41797 -10.0097656,5.18799 -5.7983396,1.77002 -12.5122066,1.77002 -6.164551,0 -11.535645,-1.64795 -5.371094,-1.70898 -9.765625,-4.82178 -4.333496,-3.11279 -7.568359,-7.56836 -3.234864,-4.45556 -5.126953,-10.00976 l 15.380859,-5.73731 q 1.403808,3.05176 3.356933,5.61524 2.014161,2.50244 4.455567,4.33349 2.441406,1.77002 5.249023,2.80762 2.868653,0.97656 6.103516,0.97656 3.173828,0 5.737305,-0.67138 2.6245114,-0.67139 4.4555661,-2.01416 1.8920898,-1.34278 2.8686523,-3.2959 1.0375977,-2.01416 1.0375977,-4.63867 0,-3.17383 -1.953125,-5.31006 -1.953125,-2.19727 -5.1269532,-3.78418 -3.1738279,-1.64795 -7.2631839,-2.92969 -4.02832,-1.34277 -8.300781,-2.80762 -4.211426,-1.46484 -8.300781,-3.41796 -4.02832,-1.95313 -7.202149,-4.82178 -3.173828,-2.86865 -5.126953,-6.89697 -1.953125,-4.02832 -1.953125,-9.76563 0,-4.94385 1.953125,-9.27734 2.01416,-4.39453 5.79834,-7.69043 3.78418,-3.2959 9.277344,-5.18799 5.493164,-1.95313 12.573242,-1.95313 5.92041,0 10.6811524,1.52588 4.8217773,1.52588 8.4838867,4.27246 3.6621094,2.68555 6.1645508,6.40869 2.5024414,3.66211 3.7841801,8.05665 l -15.1367192,5.00488 z"
           style=""
           id="path4206" />
        <path
           d="m 92.207573,-165.02173 -6.774902,-18.12744 -33.752442,0 -6.713867,18.12744 -18.127441,0 33.5083,-87.52441 16.479493,0 33.508296,87.52441 -18.127437,0 z m -20.874024,-56.27441 q -0.671386,-1.58692 -1.464843,-3.78418 -0.732422,-2.19727 -1.281739,-4.08936 -0.488281,1.89209 -1.281738,4.08936 -0.793457,2.19726 -1.464844,3.78418 l -8.666992,22.76611 22.766114,0 -8.605958,-22.76611 z"
           style=""
           id="path4208" />
        <path
           d="m 155.25689,-165.02173 -16.23535,0 -31.00586,-87.52441 18.24951,0 19.22607,57.25097 q 0.48829,1.40381 0.91553,3.05176 0.48828,1.58692 0.85449,2.99072 0.30518,-1.34277 0.73243,-2.92968 0.42724,-1.58692 0.91552,-3.1128 l 19.22608,-57.25097 18.00537,0 -30.88379,87.52441 z"
           style=""
           id="path4210" />
      </g>
      <g
         style="font-style:normal;font-variant:normal;font-weight:normal;font-stretch:normal;font-size:45px;line-height:110.00000238%;font-family:Overpass;-inkscape-font-specification:'Overpass, Normal';text-align:center;letter-spacing:0px;word-spacing:0px;writing-mode:lr-tb;text-anchor:middle;fill:#222222;fill-opacity:1;stroke:none;stroke-width:1px;stroke-linecap:butt;stroke-linejoin:miter;stroke-opacity:1"
         id="text4195">
        <path
           d="m -12.58979,-140.21889 q -0.285645,-0.68116 -0.791016,-1.25245 -0.505371,-0.59326 -1.230469,-1.01074 -0.725097,-0.43945 -1.669922,-0.68115 -0.922851,-0.2417 -2.065429,-0.2417 -2.263184,0 -3.537598,0.98877 -1.274414,0.98877 -1.274414,2.79053 0,1.1206 0.703125,1.91162 0.703125,0.76904 1.845703,1.3623 1.142578,0.59326 2.592774,1.09864 1.472168,0.48339 2.988281,1.07666 1.538086,0.57128 2.988281,1.34033 1.472168,0.74707 2.6147462,1.8457 1.1425781,1.07666 1.8457031,2.61475 0.703125,1.51611 0.703125,3.64746 0,2.26318 -0.834961,4.02099 -0.8129882,1.73584 -2.2631836,2.94434 -1.4501957,1.18652 -3.4277347,1.82373 -1.955566,0.61523 -4.21875,0.61523 -2.109375,0 -3.955078,-0.54931 -1.82373,-0.52735 -3.317871,-1.51612 -1.472168,-1.01074 -2.548828,-2.41699 -1.07666,-1.42822 -1.669922,-3.18603 l 4.416504,-1.60401 q 0.483398,1.05469 1.186523,1.9336 0.725098,0.8789 1.64795,1.51611 0.922851,0.61524 2.021484,0.9668 1.120606,0.35156 2.39502,0.35156 1.274414,0 2.329101,-0.30762 1.054688,-0.30761 1.801758,-0.92285 0.74707,-0.61523 1.164551,-1.51611 0.41748,-0.92285 0.41748,-2.10938 0,-1.40625 -0.703125,-2.35107 -0.703125,-0.9668 -1.845703,-1.66992 -1.142578,-0.70313 -2.614746,-1.23047 -1.450195,-0.52735 -2.988281,-1.07666 -1.516114,-0.54932 -2.988281,-1.23047 -1.450196,-0.68115 -2.592774,-1.66992 -1.142578,-0.98877 -1.845703,-2.37305 -0.703125,-1.38428 -0.703125,-3.38379 0,-1.66992 0.65918,-3.16406 0.681152,-1.49414 1.955566,-2.61475 1.274414,-1.14258 3.14209,-1.80175 1.867676,-0.65918 4.262695,-0.65918 1.999512,0 3.625488,0.48339 1.625977,0.46143 2.834473,1.29639 1.230469,0.83496 2.0434572,1.97754 0.8129883,1.14258 1.2304687,2.48291 l -4.3286129,1.4502 z"
           style=""
           id="path4213" />
        <path
           d="m 16.809624,-115.87319 -4.482422,0 0,-1.97754 q -0.439453,0.46142 -1.054688,0.92285 -0.615234,0.43945 -1.4062497,0.81299 -0.7690429,0.35156 -1.7358398,0.57129 -0.9667969,0.21972 -2.109375,0.21972 -1.7578125,0 -3.2519531,-0.48339 -1.4941407,-0.4834 -2.59277346,-1.4502 -1.09863282,-0.98877 -1.73583984,-2.41699 -0.6152344,-1.4502 -0.6152344,-3.36182 0,-1.97754 0.7470703,-3.40576 0.74707034,-1.45019 1.97753909,-2.37305 1.23046871,-0.94482 2.81250001,-1.38427 1.6040039,-0.43946 3.2958984,-0.43946 1.5820313,0 3.0322266,0.35157 1.4721679,0.32959 2.6367189,1.01074 l 0,-1.27442 q 0,-1.29638 -0.307617,-2.19726 -0.285645,-0.90088 -0.900879,-1.4502 -0.593262,-0.57129 -1.5161135,-0.81299 -0.9228516,-0.26367 -2.1972657,-0.26367 -2.1533203,0 -3.7353515,0.57129 -1.5600586,0.57129 -2.83447268,1.51612 l -1.38427734,-3.84522 q 0.703125,-0.4834 1.60400392,-0.90088 0.9008789,-0.43945 1.977539,-0.76904 1.0766602,-0.32959 2.3291016,-0.50537 1.2524414,-0.19776 2.6806641,-0.19776 0.9667968,0 1.9995121,0.10987 1.032714,0.10986 1.999511,0.43945 0.98877,0.30762 1.845703,0.90088 0.878907,0.59326 1.516114,1.56006 0.659179,0.94482 1.032715,2.3291 0.373535,1.38428 0.373535,3.2959 l 0,14.89746 z m -9.9316409,-3.60352 q 1.7797851,0 3.1420899,-0.7251 1.384277,-0.72509 2.307129,-1.73583 l 0,-3.51563 q -0.966797,-0.50537 -2.263184,-0.81299 -1.2963865,-0.30762 -2.6586912,-0.30762 -1.0546875,0 -1.977539,0.19776 -0.9228516,0.19775 -1.6259766,0.63721 -0.6811523,0.41748 -1.0766601,1.09863 -0.3955079,0.65918 -0.3955079,1.604 0,1.64795 1.1425782,2.61475 1.1645508,0.94482 3.4057617,0.94482 z"
           style=""
           id="path4215" />
        <path
           d="m 33.706596,-115.87319 -4.372558,0 -8.415528,-23.00537 4.680176,0 5.317383,15.09521 q 0.197754,0.59326 0.32959,1.03272 0.153808,0.43945 0.307617,0.98877 0.131836,-0.54932 0.263672,-0.98877 0.153809,-0.43946 0.351562,-1.03272 l 5.273438,-15.09521 4.680176,0 -8.415528,23.00537 z"
           style=""
           id="path4217" />
        <path
           d="m 64.270561,-115.87319 -4.482422,0 0,-1.97754 q -0.439453,0.46142 -1.054687,0.92285 -0.615235,0.43945 -1.40625,0.81299 -0.769043,0.35156 -1.73584,0.57129 -0.966797,0.21972 -2.109375,0.21972 -1.757813,0 -3.251953,-0.48339 -1.494141,-0.4834 -2.592774,-1.4502 -1.098632,-0.98877 -1.735839,-2.41699 -0.615235,-1.4502 -0.615235,-3.36182 0,-1.97754 0.747071,-3.40576 0.74707,-1.45019 1.977539,-2.37305 1.230468,-0.94482 2.8125,-1.38427 1.604003,-0.43946 3.295898,-0.43946 1.582031,0 3.032227,0.35157 1.472168,0.32959 2.636718,1.01074 l 0,-1.27442 q 0,-1.29638 -0.307617,-2.19726 -0.285644,-0.90088 -0.900879,-1.4502 -0.593261,-0.57129 -1.516113,-0.81299 -0.922852,-0.26367 -2.197266,-0.26367 -2.15332,0 -3.735351,0.57129 -1.560059,0.57129 -2.834473,1.51612 l -1.384277,-3.84522 q 0.703125,-0.4834 1.604004,-0.90088 0.900879,-0.43945 1.977539,-0.76904 1.07666,-0.32959 2.329101,-0.50537 1.252442,-0.19776 2.680664,-0.19776 0.966797,0 1.999512,0.10987 1.032715,0.10986 1.999512,0.43945 0.988769,0.30762 1.845703,0.90088 0.878906,0.59326 1.516113,1.56006 0.65918,0.94482 1.032715,2.3291 0.373535,1.38428 0.373535,3.2959 l 0,14.89746 z m -9.93164,-3.60352 q 1.779785,0 3.142089,-0.7251 1.384278,-0.72509 2.307129,-1.73583 l 0,-3.51563 q -0.966797,-0.50537 -2.263183,-0.81299 -1.296387,-0.30762 -2.658692,-0.30762 -1.054687,0 -1.977539,0.19776 -0.922851,0.19775 -1.625976,0.63721 -0.681153,0.41748 -1.07666,1.09863 -0.395508,0.65918 -0.395508,1.604 0,1.64795 1.142578,2.61475 1.164551,0.94482 3.405762,0.94482 z"
           style=""
           id="path4219" />
        <path
           d="m 84.85894,-115.87319 0,-13.73291 q 0,-1.4502 -0.351562,-2.46094 -0.351563,-1.03271 -0.966797,-1.66992 -0.615235,-0.65918 -1.450196,-0.94483 -0.834961,-0.30761 -1.82373,-0.30761 -1.054688,0 -1.955566,0.28564 -0.900879,0.26367 -1.560059,0.87891 -0.65918,0.61523 -1.054688,1.64795 -0.373535,1.01074 -0.373535,2.48291 l 0,13.8208 -4.680175,0 0,-23.00537 4.680175,0 0,2.21924 q 1.120606,-1.42823 2.570801,-2.08741 1.450195,-0.65918 3.361816,-0.65918 1.801758,0 3.317872,0.52735 1.516113,0.50537 2.614746,1.66992 1.120605,1.16455 1.73584,3.03223 0.615234,1.86767 0.615234,4.57031 l 0,13.73291 -4.680176,0 z"
           style=""
           id="path4221" />
        <path
           d="m 110.25933,-115.87319 0,-13.73291 q 0,-1.4502 -0.35156,-2.46094 -0.35156,-1.03271 -0.9668,-1.66992 -0.61523,-0.65918 -1.45019,-0.94483 -0.83496,-0.30761 -1.82373,-0.30761 -1.05469,0 -1.95557,0.28564 -0.90088,0.26367 -1.56006,0.87891 -0.65918,0.61523 -1.05469,1.64795 -0.37353,1.01074 -0.37353,2.48291 l 0,13.8208 -4.680178,0 0,-23.00537 4.680178,0 0,2.21924 q 1.1206,-1.42823 2.5708,-2.08741 1.45019,-0.65918 3.36182,-0.65918 1.80175,0 3.31787,0.52735 1.51611,0.50537 2.61474,1.66992 1.12061,1.16455 1.73584,3.03223 0.61524,1.86767 0.61524,4.57031 l 0,13.73291 -4.68018,0 z"
           style=""
           id="path4223" />
        <path
           d="m 139.06548,-115.87319 -4.48242,0 0,-1.97754 q -0.43945,0.46142 -1.05469,0.92285 -0.61523,0.43945 -1.40625,0.81299 -0.76904,0.35156 -1.73584,0.57129 -0.96679,0.21972 -2.10937,0.21972 -1.75781,0 -3.25195,-0.48339 -1.49414,-0.4834 -2.59278,-1.4502 -1.09863,-0.98877 -1.73584,-2.41699 -0.61523,-1.4502 -0.61523,-3.36182 0,-1.97754 0.74707,-3.40576 0.74707,-1.45019 1.97754,-2.37305 1.23047,-0.94482 2.8125,-1.38427 1.604,-0.43946 3.2959,-0.43946 1.58203,0 3.03222,0.35157 1.47217,0.32959 2.63672,1.01074 l 0,-1.27442 q 0,-1.29638 -0.30762,-2.19726 -0.28564,-0.90088 -0.90087,-1.4502 -0.59327,-0.57129 -1.51612,-0.81299 -0.92285,-0.26367 -2.19726,-0.26367 -2.15332,0 -3.73536,0.57129 -1.56005,0.57129 -2.83447,1.51612 l -1.38428,-3.84522 q 0.70313,-0.4834 1.60401,-0.90088 0.90088,-0.43945 1.97754,-0.76904 1.07666,-0.32959 2.3291,-0.50537 1.25244,-0.19776 2.68066,-0.19776 0.9668,0 1.99951,0.10987 1.03272,0.10986 1.99952,0.43945 0.98877,0.30762 1.8457,0.90088 0.87891,0.59326 1.51611,1.56006 0.65918,0.94482 1.03272,2.3291 0.37353,1.38428 0.37353,3.2959 l 0,14.89746 z m -9.93164,-3.60352 q 1.77979,0 3.14209,-0.7251 1.38428,-0.72509 2.30713,-1.73583 l 0,-3.51563 q -0.9668,-0.50537 -2.26318,-0.81299 -1.29639,-0.30762 -2.65869,-0.30762 -1.05469,0 -1.97754,0.19776 -0.92285,0.19775 -1.62598,0.63721 -0.68115,0.41748 -1.07666,1.09863 -0.39551,0.65918 -0.39551,1.604 0,1.64795 1.14258,2.61475 1.16455,0.94482 3.40576,0.94482 z"
           style=""
           id="path4225" />
        <path
           d="m 159.65386,-115.87319 0,-13.73291 q 0,-1.4502 -0.35156,-2.46094 -0.35156,-1.03271 -0.9668,-1.66992 -0.61523,-0.65918 -1.45019,-0.94483 -0.83496,-0.30761 -1.82373,-0.30761 -1.05469,0 -1.95557,0.28564 -0.90088,0.26367 -1.56006,0.87891 -0.65918,0.61523 -1.05469,1.64795 -0.37353,1.01074 -0.37353,2.48291 l 0,13.8208 -4.68018,0 0,-30.32227 4.68018,-2.17529 0,11.71143 q 1.1206,-1.42823 2.5708,-2.08741 1.4502,-0.65918 3.36182,-0.65918 1.80175,0 3.31787,0.52735 1.51611,0.50537 2.61474,1.66992 1.12061,1.16455 1.73584,3.03223 0.61524,1.86767 0.61524,4.57031 l 0,13.73291 -4.68018,0 z"
           style=""
           id="path4227" />
      </g>
    </g>
  </g>
</svg>
