<?xml version="1.0" encoding="UTF-8" standalone="no"?>
<!-- Created with Inkscape (http://www.inkscape.org/) -->

<svg
   xmlns:dc="http://purl.org/dc/elements/1.1/"
   xmlns:cc="http://creativecommons.org/ns#"
   xmlns:rdf="http://www.w3.org/1999/02/22-rdf-syntax-ns#"
   xmlns:svg="http://www.w3.org/2000/svg"
   xmlns="http://www.w3.org/2000/svg"
   xmlns:sodipodi="http://sodipodi.sourceforge.net/DTD/sodipodi-0.dtd"
   xmlns:inkscape="http://www.inkscape.org/namespaces/inkscape"
   width="703.03137"
   height="1346.0839"
   id="svg2"
   version="1.1"
   inkscape:version="0.92.4 (5da689c313, 2019-01-14)"
   sodipodi:docname="SEA.svg"
   inkscape:export-filename="C:\Users\Paul Bogard\Dropbox\Documents\Websites\Flight Log\Images\Terminals\SEA.png"
   inkscape:export-xdpi="90"
   inkscape:export-ydpi="90">
  <defs
     id="defs4" />
  <sodipodi:namedview
     id="base"
     pagecolor="#ffffff"
     bordercolor="#666666"
     borderopacity="1.0"
     inkscape:pageopacity="1"
     inkscape:pageshadow="2"
     inkscape:zoom="0.5"
     inkscape:cx="-539.59377"
     inkscape:cy="575.96866"
     inkscape:document-units="px"
     inkscape:current-layer="layer1"
     showgrid="false"
     fit-margin-top="25"
     fit-margin-left="25"
     fit-margin-right="25"
     fit-margin-bottom="25"
     inkscape:window-width="1920"
     inkscape:window-height="1137"
     inkscape:window-x="1912"
     inkscape:window-y="-8"
     inkscape:window-maximized="1"
     showborder="true"
     inkscape:showpageshadow="true" />
  <metadata
     id="metadata7">
    <rdf:RDF>
      <cc:Work
         rdf:about="">
        <dc:format>image/svg+xml</dc:format>
        <dc:type
           rdf:resource="http://purl.org/dc/dcmitype/StillImage" />
        <dc:title />
      </cc:Work>
    </rdf:RDF>
  </metadata>
  <g
     inkscape:groupmode="layer"
     id="layer2"
     inkscape:label="Terminal"
     style="display:inline"
     transform="translate(-78.777726,-8.5785091)">
    <path
       id="path3827"
       style="display:inline;fill:#dddddd;fill-opacity:1;stroke:#222222;stroke-width:1.5;stroke-linecap:butt;stroke-linejoin:miter;stroke-miterlimit:4;stroke-dasharray:none;stroke-opacity:1"
       d="m 202.34121,1271.2801 105.37065,-23.9479 -3.72522,-18.094 42.30791,-8.5148 3.72522,16.4975 21.55309,-4.7896 13.30438,54.814 -168.1673,41.5097 z M 252.5861,34.628936 209.47992,83.056861 334.54105,190.55621 l 42.574,-48.42792 z M 199.53589,747.52349 184.3689,729.96171 c 0,0 -8.5148,-8.24871 -11.17567,-28.47136 -2.66088,-20.22265 9.57915,-41.77574 9.57915,-41.77574 l 15.96525,-18.89221 -3.19305,-2.92696 5.58784,-6.12001 -6.3861,-4.2574 3.72522,-3.72523 -21.55309,-21.02091 -59.86968,60.93404 c 0,0 -1.86262,2.92696 -6.91828,-1.86262 -5.05566,-4.78957 1.06435,-9.31306 1.06435,-10.11132 0,-0.79826 4.52349,-0.53218 4.52349,-0.53218 l 57.4749,-58.80533 -35.65571,-37.25225 0,-52.15315 -4.25742,0 -0.53217,9.57915 c 0,0 -2.66088,3.19305 -4.2574,3.72522 -1.59653,0.53218 -7.98263,-3.19305 -7.98263,-3.19305 l -0.53217,-43.10617 2.66087,0 0,-34.59138 -18.09395,0 2.1287,-108.03152 c 0,0 -0.53217,-6.3861 3.19305,-7.98263 3.72523,-1.59652 7.45045,1.59653 7.45045,1.59653 0,0 3.19305,4.2574 3.19305,6.3861 0,2.1287 -1.06435,4.78957 -1.06435,4.78957 l -6.3861,0 0,31.9305 69.71493,-0.53217 0,53.74967 -3.19305,0 -0.53218,26.60875 -7.45045,0.53218 -1.59652,94.19497 15.96525,15.43308 25.5444,-27.14093 53.74969,50.55663 11.17567,9.04697 2.1287,-3.72522 -6.91827,-6.3861 -0.53218,-4.78958 15.43308,-13.83655 12.7722,12.7722 129.31852,-126.65765 -1.59652,-3.19305 5.32175,-5.32175 4.2574,3.72523 3.19305,-4.78958 -3.19305,-3.19305 15.43307,-15.43307 3.72523,4.2574 7.98262,-8.5148 -3.72522,-3.19305 39.11486,-38.84878 -2.1287,-2.1287 25.81049,-25.81049 41.50965,40.97748 -7.71654,7.18436 -6.3861,-5.32175 -1.86261,2.1287 2.66087,2.1287 -14.63481,15.43308 -11.17568,-9.04698 -8.78088,10.11133 -5.85393,-5.05567 -18.62612,19.95657 -5.85393,0 -2.39479,-3.19305 -17.56177,16.49742 7.45045,6.65219 -57.4749,55.08011 17.29569,20.48874 -11.70785,11.97394 -8.5148,-0.79827 5.58783,5.85393 -4.78957,4.78957 18.89221,21.55309 -93.39671,92.33236 c 0,0 -15.96525,21.02092 -16.23134,44.17053 -0.26609,23.14961 16.23134,44.96879 16.23134,44.96879 l 131.9794,133.57592 -6.12001,6.91828 c 0,0 39.11486,43.63835 34.0592,69.98101 l 139.42985,138.89766 2.66087,-3.4592 7.98263,7.9826 -2.1287,2.927 30.86615,28.4714 -10.11133,10.1113 8.24871,18.8922 5.32175,0 0,38.3166 3.19305,0.5322 0,30.6 -3.72522,-0.266 -0.26609,18.8922 22.61744,0.2661 0.26609,11.7078 -6.3861,-0.2661 0.26608,39.381 -18.62612,0.5321 0.26609,31.6645 -35.92182,-0.2661 1.59653,-161.7812 2.1287,0 -0.26609,-8.5148 -2.66087,-3.4592 -0.79827,1.3305 -4.78957,-4.2574 -130.38288,-134.9064 -15.69916,15.167 -196.90475,-201.1621 -0.79826,-3.72522 -5.32175,-4.78958 -4.78958,5.32175 6.65219,6.91828 -15.43307,15.96525 -7.98263,-8.24872 -3.19305,3.99132 -6.12001,-5.58784 -21.5531,21.55309 -16.76351,-17.0296 -24.21397,23.4157 -3.45913,-3.19305 -16.49743,13.83655 -0.26609,7.45045 7.98263,0.53217 0.79826,75.30276 -4.52349,0 0.26609,19.95651 -2.39479,0 0.79827,51.88708 -37.51833,0 0,-6.12 -1.59652,0.5321 -0.79827,-6.6521 3.99132,0.266 -0.26609,-7.1843 -3.45914,0 -0.26609,-6.9183 3.45914,0 0,-25.81048 -1.86261,0.26609 0.26609,-14.9009 8.5148,0.26609 -0.26609,-4.25735 -5.05568,-0.79826 0.26609,-6.91828 0.79826,0.26609 -0.53217,-88.07496 81.42277,-81.68886 -31.66441,-32.46268 0.79826,-2.39479 2.92697,0.53218 z"
       inkscape:connector-curvature="0" />
  </g>
  <g
     inkscape:groupmode="layer"
     id="layer1"
     inkscape:label="Label"
     transform="translate(0.22227373,0.29649093)">
    <g
       style="font-style:normal;font-variant:normal;font-weight:bold;font-stretch:normal;font-size:75px;line-height:125%;font-family:Overpass;-inkscape-font-specification:'Overpass Bold';letter-spacing:0px;word-spacing:0px;fill:#000000;fill-opacity:1;stroke:none;stroke-width:1px;stroke-linecap:butt;stroke-linejoin:miter;stroke-opacity:1"
       id="text4135" />
    <g
       id="text3339"
       style="font-style:normal;font-variant:normal;font-weight:bold;font-stretch:normal;font-size:125px;line-height:125%;font-family:Overpass;-inkscape-font-specification:'Overpass, Bold';text-align:start;letter-spacing:0px;word-spacing:0px;writing-mode:lr-tb;text-anchor:start;fill:#dddddd;fill-opacity:1;stroke:#222222;stroke-width:0.25;stroke-linecap:butt;stroke-linejoin:miter;stroke-opacity:1;stroke-miterlimit:4;stroke-dasharray:none"
       transform="translate(0,8)">
      <path
         inkscape:connector-curvature="0"
         id="path4142"
         d="m 482.98489,610.55487 q -0.79345,-1.95312 -2.13623,-3.66211 -1.34277,-1.70898 -3.23486,-2.92969 -1.83105,-1.28173 -4.27246,-1.95312 -2.38037,-0.73242 -5.31006,-0.73242 -5.49316,0 -8.60596,2.19726 -3.05175,2.19727 -3.05175,6.16455 0,2.62451 1.95312,4.39453 1.95313,1.77002 5.12695,3.23487 3.17383,1.40381 7.20215,2.68554 4.08936,1.28174 8.36182,2.86866 4.27246,1.52588 8.30078,3.66211 4.08936,2.07519 7.26318,5.18798 3.17383,3.05176 5.12696,7.32422 1.95312,4.21143 1.95312,10.13184 0,6.40869 -2.4414,11.35254 -2.44141,4.94385 -6.71387,8.36181 -4.21143,3.41797 -10.00977,5.18799 -5.79834,1.77002 -12.5122,1.77002 -6.16456,0 -11.53565,-1.64795 -5.37109,-1.70898 -9.76562,-4.82177 -4.3335,-3.1128 -7.56836,-7.56836 -3.23487,-4.45557 -5.12696,-10.00977 l 15.38086,-5.7373 q 1.40381,3.05175 3.35694,5.61523 2.01416,2.50244 4.45556,4.3335 2.44141,1.77002 5.24903,2.80761 2.86865,0.97657 6.10351,0.97657 3.17383,0 5.73731,-0.67139 2.62451,-0.67139 4.45556,-2.01416 1.89209,-1.34277 2.86866,-3.2959 1.03759,-2.01416 1.03759,-4.63867 0,-3.17383 -1.95312,-5.31006 -1.95313,-2.19726 -5.12696,-3.78418 -3.17382,-1.64795 -7.26318,-2.92969 -4.02832,-1.34277 -8.30078,-2.80761 -4.21143,-1.46485 -8.30078,-3.41797 -4.02832,-1.95313 -7.20215,-4.82178 -3.17383,-2.86865 -5.12695,-6.89697 -1.95313,-4.02832 -1.95313,-9.76563 0,-4.94385 1.95313,-9.27734 2.01416,-4.39453 5.79834,-7.69043 3.78418,-3.2959 9.27734,-5.18799 5.49316,-1.95312 12.57324,-1.95312 5.92041,0 10.68116,1.52587 4.82177,1.52588 8.48388,4.27247 3.66211,2.68554 6.16455,6.40869 2.50244,3.66211 3.78418,8.05664 l -15.13672,5.00488 z"
         style="stroke:#222222;stroke-opacity:1;stroke-width:0.25;stroke-miterlimit:4;stroke-dasharray:none" />
      <path
         inkscape:connector-curvature="0"
         id="path4144"
         d="m 520.33841,674.27557 0,-87.52441 59.75342,0 0,16.05225 -42.84668,0 0,18.37158 25.20752,0 0,15.99121 -25.20752,0 0,21.11816 45.47119,0 0,15.99121 -62.37793,0 z"
         style="stroke:#222222;stroke-opacity:1;stroke-width:0.25;stroke-miterlimit:4;stroke-dasharray:none" />
      <path
         inkscape:connector-curvature="0"
         id="path4146"
         d="m 659.68167,674.27557 -6.7749,-18.12744 -33.75244,0 -6.71387,18.12744 -18.12744,0 33.5083,-87.52441 16.47949,0 33.5083,87.52441 -18.12744,0 z m -20.87402,-56.27441 q -0.67139,-1.58691 -1.46485,-3.78418 -0.73242,-2.19727 -1.28173,-4.08936 -0.48829,1.89209 -1.28174,4.08936 -0.79346,2.19727 -1.46485,3.78418 l -8.66699,22.76611 22.76611,0 -8.60595,-22.76611 z"
         style="stroke:#222222;stroke-opacity:1;stroke-width:0.25;stroke-miterlimit:4;stroke-dasharray:none" />
    </g>
    <g
       id="text3343"
       style="font-style:normal;font-variant:normal;font-weight:normal;font-stretch:normal;font-size:45px;line-height:125%;font-family:Overpass;-inkscape-font-specification:Sans;letter-spacing:0px;word-spacing:0px;fill:#222222;fill-opacity:1;stroke:none;stroke-width:1px;stroke-linecap:butt;stroke-linejoin:miter;stroke-opacity:1"
       transform="translate(0,8)">
      <path
         inkscape:connector-curvature="0"
         id="path4149"
         d="m 374.54251,698.95343 q -0.28564,-0.68115 -0.79101,-1.25244 -0.50538,-0.59326 -1.23047,-1.01074 -0.7251,-0.43946 -1.66993,-0.68116 -0.92285,-0.24169 -2.06542,-0.24169 -2.26319,0 -3.5376,0.98876 -1.27442,0.98877 -1.27442,2.79053 0,1.12061 0.70313,1.91162 0.70312,0.76905 1.8457,1.36231 1.14258,0.59326 2.59277,1.09863 1.47217,0.4834 2.98829,1.07666 1.53808,0.57129 2.98828,1.34033 1.47217,0.74707 2.61474,1.84571 1.14258,1.07666 1.84571,2.61474 0.70312,1.51612 0.70312,3.64746 0,2.26319 -0.83496,4.021 -0.81299,1.73584 -2.26318,2.94433 -1.4502,1.18653 -3.42774,1.82374 -1.95556,0.61523 -4.21875,0.61523 -2.10937,0 -3.95508,-0.54932 -1.82373,-0.52734 -3.31787,-1.51611 -1.47216,-1.01074 -2.54882,-2.41699 -1.07666,-1.42822 -1.66993,-3.18604 l 4.41651,-1.604 q 0.4834,1.05469 1.18652,1.93359 0.7251,0.87891 1.64795,1.51612 0.92285,0.61523 2.02148,0.96679 1.12061,0.35157 2.39502,0.35157 1.27442,0 2.32911,-0.30762 1.05468,-0.30762 1.80175,-0.92285 0.74707,-0.61524 1.16455,-1.51612 0.41748,-0.92285 0.41748,-2.10937 0,-1.40625 -0.70312,-2.35108 -0.70313,-0.96679 -1.8457,-1.66992 -1.14258,-0.70312 -2.61475,-1.23047 -1.45019,-0.52734 -2.98828,-1.07666 -1.51611,-0.54931 -2.98828,-1.23047 -1.4502,-0.68115 -2.59278,-1.66992 -1.14257,-0.98877 -1.8457,-2.37304 -0.70312,-1.38428 -0.70312,-3.38379 0,-1.66993 0.65918,-3.16407 0.68115,-1.49414 1.95556,-2.61474 1.27442,-1.14258 3.14209,-1.80176 1.86768,-0.65918 4.2627,-0.65918 1.99951,0 3.62549,0.4834 1.62597,0.46142 2.83447,1.29639 1.23047,0.83496 2.04346,1.97753 0.81298,1.14258 1.23046,2.48291 l -4.32861,1.4502 z" />
      <path
         inkscape:connector-curvature="0"
         id="path4151"
         d="m 395.63626,723.84845 q -2.39502,0 -4.32861,-0.81299 -1.9336,-0.83496 -3.2959,-2.37305 -1.36231,-1.56005 -2.10938,-3.80126 -0.72509,-2.24122 -0.72509,-5.07569 0,-2.83447 0.74707,-5.05371 0.74707,-2.24121 2.10937,-3.7793 1.38428,-1.56005 3.2959,-2.37304 1.93359,-0.81299 4.30664,-0.81299 2.04346,0 3.82324,0.65918 1.80176,0.63721 3.14209,1.97754 1.36231,1.31836 2.13135,3.33984 0.79102,2.02149 0.79102,4.76807 0,0.74707 -0.0439,1.58203 -0.022,0.83496 -0.13183,1.45019 l -15.49073,0 q 0.022,1.42823 0.50537,2.5708 0.50537,1.12061 1.31836,1.9336 0.81299,0.79101 1.84571,1.23047 1.03271,0.41748 2.15332,0.41748 1.42822,0 2.63672,-0.59326 1.23046,-0.59327 2.13134,-1.73584 l 3.0542,3.14209 q -1.25244,1.49414 -3.20801,2.41699 -1.95556,0.92285 -4.6582,0.92285 z m 0,-19.95117 q -1.09863,0 -2.10937,0.32959 -1.01075,0.30761 -1.80176,1.01074 -0.76904,0.68115 -1.27442,1.80176 -0.50537,1.1206 -0.59326,2.72461 l 10.98633,0 q -0.0439,-1.60401 -0.50537,-2.72461 -0.46143,-1.12061 -1.2085,-1.80176 -0.74707,-0.70313 -1.66992,-1.01074 -0.90088,-0.32959 -1.82373,-0.32959 z" />
      <path
         inkscape:connector-curvature="0"
         id="path4153"
         d="m 428.5513,723.29913 -4.48242,0 0,-1.97754 q -0.43945,0.46143 -1.05469,0.92286 -0.61523,0.43945 -1.40625,0.81298 -0.76904,0.35157 -1.73584,0.57129 -0.9668,0.21973 -2.10937,0.21973 -1.75782,0 -3.25196,-0.4834 -1.49414,-0.4834 -2.59277,-1.45019 -1.09863,-0.98877 -1.73584,-2.417 -0.61523,-1.45019 -0.61523,-3.36181 0,-1.97754 0.74707,-3.40576 0.74707,-1.4502 1.97753,-2.37305 1.23047,-0.94483 2.8125,-1.38428 1.60401,-0.43945 3.2959,-0.43945 1.58203,0 3.03223,0.35156 1.47217,0.32959 2.63672,1.01074 l 0,-1.27441 q 0,-1.29639 -0.30762,-2.19727 -0.28564,-0.90088 -0.90088,-1.45019 -0.59326,-0.57129 -1.51611,-0.81299 -0.92285,-0.26367 -2.19727,-0.26367 -2.15332,0 -3.73535,0.57129 -1.56006,0.57129 -2.83447,1.51611 l -1.38428,-3.84521 q 0.70313,-0.4834 1.60401,-0.90088 0.90087,-0.43946 1.97753,-0.76905 1.07666,-0.32959 2.32911,-0.50537 1.25244,-0.19775 2.68066,-0.19775 0.9668,0 1.99951,0.10986 1.03272,0.10987 1.99951,0.43945 0.98877,0.30762 1.84571,0.90088 0.8789,0.59327 1.51611,1.56006 0.65918,0.94483 1.03271,2.3291 0.37354,1.38428 0.37354,3.2959 l 0,14.89746 z m -9.93164,-3.60351 q 1.77978,0 3.14209,-0.7251 1.38428,-0.7251 2.30713,-1.73584 l 0,-3.51562 q -0.9668,-0.50538 -2.26319,-0.81299 -1.29638,-0.30762 -2.65869,-0.30762 -1.05468,0 -1.97754,0.19775 -0.92285,0.19776 -1.62597,0.63721 -0.68115,0.41748 -1.07666,1.09863 -0.39551,0.65918 -0.39551,1.60401 0,1.64795 1.14258,2.61474 1.16455,0.94483 3.40576,0.94483 z" />
      <path
         inkscape:connector-curvature="0"
         id="path4155"
         d="m 441.58109,723.84845 q -1.36231,0 -2.35108,-0.41748 -0.9668,-0.39551 -1.604,-1.14258 -0.61524,-0.74707 -0.90088,-1.80176 -0.28565,-1.07666 -0.28565,-2.37304 l 0,-13.75489 -3.55957,0 0,-4.06494 3.55957,0 0,-7.229 4.68018,-2.26319 0,9.49219 5.44922,0 0,4.06494 -5.44922,0 0,12.54639 q 0,0.57129 0.0879,1.05469 0.10986,0.4834 0.35156,0.83496 0.26367,0.35156 0.70313,0.54932 0.43945,0.17578 1.1206,0.17578 1.66992,0 3.40576,-1.07666 l -0.57128,4.35058 q -0.9668,0.4834 -2.10938,0.76905 -1.14258,0.28564 -2.52685,0.28564 z" />
      <path
         inkscape:connector-curvature="0"
         id="path4157"
         d="m 458.63187,723.84845 q -1.36231,0 -2.35108,-0.41748 -0.96679,-0.39551 -1.604,-1.14258 -0.61524,-0.74707 -0.90088,-1.80176 -0.28565,-1.07666 -0.28565,-2.37304 l 0,-13.75489 -3.55957,0 0,-4.06494 3.55957,0 0,-7.229 4.68018,-2.26319 0,9.49219 5.44922,0 0,4.06494 -5.44922,0 0,12.54639 q 0,0.57129 0.0879,1.05469 0.10986,0.4834 0.35156,0.83496 0.26368,0.35156 0.70313,0.54932 0.43945,0.17578 1.1206,0.17578 1.66993,0 3.40577,-1.07666 l -0.57129,4.35058 q -0.9668,0.4834 -2.10938,0.76905 -1.14258,0.28564 -2.52685,0.28564 z" />
      <path
         inkscape:connector-curvature="0"
         id="path4159"
         d="m 469.24466,723.29913 0,-30.27832 4.68018,-2.21924 0,32.49756 -4.68018,0 z" />
      <path
         inkscape:connector-curvature="0"
         id="path4161"
         d="m 490.20657,723.84845 q -2.39502,0 -4.32861,-0.81299 -1.93359,-0.83496 -3.2959,-2.37305 -1.3623,-1.56005 -2.10937,-3.80126 -0.7251,-2.24122 -0.7251,-5.07569 0,-2.83447 0.74707,-5.05371 0.74707,-2.24121 2.10937,-3.7793 1.38428,-1.56005 3.2959,-2.37304 1.9336,-0.81299 4.30664,-0.81299 2.04346,0 3.82325,0.65918 1.80175,0.63721 3.14209,1.97754 1.3623,1.31836 2.13134,3.33984 0.79102,2.02149 0.79102,4.76807 0,0.74707 -0.0439,1.58203 -0.022,0.83496 -0.13183,1.45019 l -15.49073,0 q 0.022,1.42823 0.50538,2.5708 0.50537,1.12061 1.31836,1.9336 0.81298,0.79101 1.8457,1.23047 1.03271,0.41748 2.15332,0.41748 1.42822,0 2.63672,-0.59326 1.23047,-0.59327 2.13135,-1.73584 l 3.05419,3.14209 q -1.25244,1.49414 -3.208,2.41699 -1.95557,0.92285 -4.65821,0.92285 z m 0,-19.95117 q -1.09863,0 -2.10937,0.32959 -1.01074,0.30761 -1.80176,1.01074 -0.76904,0.68115 -1.27441,1.80176 -0.50537,1.1206 -0.59327,2.72461 l 10.98633,0 q -0.0439,-1.60401 -0.50537,-2.72461 -0.46142,-1.12061 -1.20849,-1.80176 -0.74707,-0.70313 -1.66993,-1.01074 -0.90087,-0.32959 -1.82373,-0.32959 z" />
      <path
         inkscape:connector-curvature="0"
         id="path4163"
         d="m 499.23734,729.14386 17.68798,-37.88086 4.72412,0 -17.68798,37.88086 -4.72412,0 z" />
      <path
         inkscape:connector-curvature="0"
         id="path4165"
         d="m 537.77737,696.29474 0,27.00439 -4.68017,0 0,-27.00439 -8.9209,0 0,-4.5044 22.5,0 0,4.5044 -8.89893,0 z" />
      <path
         inkscape:connector-curvature="0"
         id="path4167"
         d="m 566.80325,723.29913 -4.48242,0 0,-1.97754 q -0.43945,0.46143 -1.05469,0.92286 -0.61523,0.43945 -1.40625,0.81298 -0.76904,0.35157 -1.73584,0.57129 -0.96679,0.21973 -2.10937,0.21973 -1.75781,0 -3.25195,-0.4834 -1.49414,-0.4834 -2.59278,-1.45019 -1.09863,-0.98877 -1.73584,-2.417 -0.61523,-1.45019 -0.61523,-3.36181 0,-1.97754 0.74707,-3.40576 0.74707,-1.4502 1.97754,-2.37305 1.23047,-0.94483 2.8125,-1.38428 1.604,-0.43945 3.2959,-0.43945 1.58203,0 3.03222,0.35156 1.47217,0.32959 2.63672,1.01074 l 0,-1.27441 q 0,-1.29639 -0.30762,-2.19727 -0.28564,-0.90088 -0.90087,-1.45019 -0.59327,-0.57129 -1.51612,-0.81299 -0.92285,-0.26367 -2.19726,-0.26367 -2.15332,0 -3.73536,0.57129 -1.56005,0.57129 -2.83447,1.51611 l -1.38428,-3.84521 q 0.70313,-0.4834 1.60401,-0.90088 0.90088,-0.43946 1.97754,-0.76905 1.07666,-0.32959 2.3291,-0.50537 1.25244,-0.19775 2.68066,-0.19775 0.9668,0 1.99952,0.10986 1.03271,0.10987 1.99951,0.43945 0.98877,0.30762 1.8457,0.90088 0.87891,0.59327 1.51611,1.56006 0.65918,0.94483 1.03272,2.3291 0.37353,1.38428 0.37353,3.2959 l 0,14.89746 z m -9.93164,-3.60351 q 1.77979,0 3.14209,-0.7251 1.38428,-0.7251 2.30713,-1.73584 l 0,-3.51562 q -0.9668,-0.50538 -2.26318,-0.81299 -1.29639,-0.30762 -2.65869,-0.30762 -1.05469,0 -1.97754,0.19775 -0.92285,0.19776 -1.62598,0.63721 -0.68115,0.41748 -1.07666,1.09863 -0.39551,0.65918 -0.39551,1.60401 0,1.64795 1.14258,2.61474 1.16455,0.94483 3.40576,0.94483 z" />
      <path
         inkscape:connector-curvature="0"
         id="path4169"
         d="m 582.07425,723.84845 q -2.30713,0 -4.17481,-0.81299 -1.8457,-0.81299 -3.16406,-2.35107 -1.29638,-1.56006 -1.99951,-3.7793 -0.70312,-2.24121 -0.70312,-5.07568 0,-2.83448 0.70312,-5.07569 0.70313,-2.24121 1.99951,-3.77929 1.31836,-1.56006 3.16406,-2.37305 1.86768,-0.83496 4.17481,-0.83496 3.20801,0 5.42725,1.42822 2.24121,1.42822 3.25195,4.5044 l -4.43848,1.53808 q -0.50537,-1.31836 -1.53808,-2.13135 -1.03272,-0.83496 -2.52686,-0.83496 -1.31836,0 -2.3291,0.52735 -1.01074,0.52734 -1.71387,1.51611 -0.68115,0.9668 -1.05469,2.37305 -0.35156,1.38427 -0.35156,3.14209 0,1.75781 0.35156,3.16406 0.37354,1.38428 1.03272,2.35107 0.68115,0.9668 1.64795,1.49414 0.98877,0.50538 2.24121,0.50538 1.58203,0 2.70264,-0.87891 1.14257,-0.87891 1.62597,-2.50488 l 4.43848,1.40625 q -0.92285,3.208 -3.14209,4.85595 -2.19727,1.62598 -5.625,1.62598 z" />
      <path
         inkscape:connector-curvature="0"
         id="path4171"
         d="m 605.82669,723.84845 q -2.41699,0 -4.37256,-0.81299 -1.93359,-0.81299 -3.2959,-2.35107 -1.3623,-1.56006 -2.10937,-3.7793 -0.7251,-2.24121 -0.7251,-5.07568 0,-2.83448 0.7251,-5.07569 0.74707,-2.24121 2.10937,-3.77929 1.36231,-1.56006 3.2959,-2.37305 1.95557,-0.83496 4.37256,-0.83496 2.39502,0 4.35059,0.83496 1.95556,0.81299 3.31787,2.37305 1.3623,1.53808 2.10937,3.77929 0.74707,2.24121 0.74707,5.07569 0,2.83447 -0.74707,5.07568 -0.74707,2.21924 -2.10937,3.7793 -1.36231,1.53808 -3.31787,2.35107 -1.95557,0.81299 -4.35059,0.81299 z m 0,-4.4165 q 1.34033,0 2.41699,-0.52735 1.09864,-0.52734 1.84571,-1.49414 0.76904,-0.98877 1.16455,-2.39502 0.41748,-1.40625 0.41748,-3.18603 0,-1.77979 -0.41748,-3.18604 -0.39551,-1.42822 -1.16455,-2.41699 -0.74707,-0.98877 -1.84571,-1.51611 -1.07666,-0.52735 -2.41699,-0.52735 -1.34033,0 -2.41699,0.52735 -1.07666,0.52734 -1.8457,1.51611 -0.74707,0.98877 -1.16456,2.41699 -0.3955,1.40625 -0.3955,3.18604 0,1.77978 0.3955,3.18603 0.41749,1.40625 1.16456,2.39502 0.76904,0.9668 1.8457,1.49414 1.07666,0.52735 2.41699,0.52735 z" />
      <path
         inkscape:connector-curvature="0"
         id="path4173"
         d="m 648.93704,723.29913 0,-13.77685 q 0,-2.5708 -1.05469,-3.95508 -1.05468,-1.38428 -3.16406,-1.38428 -0.94482,0 -1.77978,0.35156 -0.83496,0.35157 -1.47217,1.05469 -0.61524,0.70313 -0.98877,1.75781 -0.35156,1.03272 -0.35156,2.417 l 0,13.53515 -4.68018,0 0,-13.77685 q 0,-2.5708 -1.07666,-3.95508 -1.05469,-1.38428 -3.16406,-1.38428 -0.94483,0 -1.77979,0.35156 -0.81298,0.35157 -1.45019,1.05469 -0.61524,0.70313 -0.98877,1.75781 -0.35156,1.03272 -0.35156,2.417 l 0,13.53515 -4.68018,0 0,-23.00537 4.68018,0 0,2.13135 q 0.98877,-1.42822 2.50488,-2.04346 1.51611,-0.61523 3.2959,-0.61523 1.88965,0 3.49365,0.76904 1.62598,0.74707 2.61475,2.50488 1.09863,-1.69189 2.8125,-2.48291 1.71386,-0.79101 3.99902,-0.79101 1.75781,0 3.25195,0.50537 1.51612,0.50537 2.61475,1.56006 1.1206,1.05469 1.75781,2.70263 0.63721,1.64795 0.63721,3.91114 l 0,14.85351 -4.68018,0 z" />
      <path
         inkscape:connector-curvature="0"
         id="path4175"
         d="m 677.80911,723.29913 -4.48242,0 0,-1.97754 q -0.43945,0.46143 -1.05469,0.92286 -0.61523,0.43945 -1.40625,0.81298 -0.76904,0.35157 -1.73584,0.57129 -0.96679,0.21973 -2.10937,0.21973 -1.75781,0 -3.25195,-0.4834 -1.49415,-0.4834 -2.59278,-1.45019 -1.09863,-0.98877 -1.73584,-2.417 -0.61523,-1.45019 -0.61523,-3.36181 0,-1.97754 0.74707,-3.40576 0.74707,-1.4502 1.97754,-2.37305 1.23047,-0.94483 2.8125,-1.38428 1.604,-0.43945 3.2959,-0.43945 1.58203,0 3.03222,0.35156 1.47217,0.32959 2.63672,1.01074 l 0,-1.27441 q 0,-1.29639 -0.30762,-2.19727 -0.28564,-0.90088 -0.90088,-1.45019 -0.59326,-0.57129 -1.51611,-0.81299 -0.92285,-0.26367 -2.19726,-0.26367 -2.15332,0 -3.73536,0.57129 -1.56005,0.57129 -2.83447,1.51611 l -1.38428,-3.84521 q 0.70313,-0.4834 1.60401,-0.90088 0.90088,-0.43946 1.97754,-0.76905 1.07666,-0.32959 2.3291,-0.50537 1.25244,-0.19775 2.68066,-0.19775 0.9668,0 1.99951,0.10986 1.03272,0.10987 1.99952,0.43945 0.98877,0.30762 1.8457,0.90088 0.87891,0.59327 1.51611,1.56006 0.65918,0.94483 1.03272,2.3291 0.37353,1.38428 0.37353,3.2959 l 0,14.89746 z m -9.93164,-3.60351 q 1.77979,0 3.14209,-0.7251 1.38428,-0.7251 2.30713,-1.73584 l 0,-3.51562 q -0.9668,-0.50538 -2.26318,-0.81299 -1.29639,-0.30762 -2.65869,-0.30762 -1.05469,0 -1.97754,0.19775 -0.92285,0.19776 -1.62598,0.63721 -0.68115,0.41748 -1.07666,1.09863 -0.39551,0.65918 -0.39551,1.60401 0,1.64795 1.14258,2.61474 1.16455,0.94483 3.40576,0.94483 z" />
    </g>
  </g>
</svg>
