<?xml version="1.0" encoding="UTF-8" standalone="no"?>
<!-- Created with Inkscape (http://www.inkscape.org/) -->

<svg
   xmlns:dc="http://purl.org/dc/elements/1.1/"
   xmlns:cc="http://creativecommons.org/ns#"
   xmlns:rdf="http://www.w3.org/1999/02/22-rdf-syntax-ns#"
   xmlns:svg="http://www.w3.org/2000/svg"
   xmlns="http://www.w3.org/2000/svg"
   xmlns:sodipodi="http://sodipodi.sourceforge.net/DTD/sodipodi-0.dtd"
   xmlns:inkscape="http://www.inkscape.org/namespaces/inkscape"
   width="1186.1781"
   height="1154.5016"
   viewBox="0 0 1186.1781 1154.5016"
   id="svg2"
   version="1.1"
   inkscape:version="0.91 r13725"
   sodipodi:docname="SFO.svg"
   inkscape:export-filename="C:\Users\Paul Bogard\Dropbox\Projects\Terminal Silhouettes\Silhouettes\png\SFO.png"
   inkscape:export-xdpi="90"
   inkscape:export-ydpi="90">
  <defs
     id="defs4" />
  <sodipodi:namedview
     id="base"
     pagecolor="#ffffff"
     bordercolor="#666666"
     borderopacity="1.0"
     inkscape:pageopacity="1"
     inkscape:pageshadow="2"
     inkscape:zoom="0.70710678"
     inkscape:cx="761.87516"
     inkscape:cy="574.63742"
     inkscape:document-units="px"
     inkscape:current-layer="layer1"
     showgrid="false"
     inkscape:window-width="1920"
     inkscape:window-height="1137"
     inkscape:window-x="1912"
     inkscape:window-y="-8"
     inkscape:window-maximized="1"
     units="px"
     fit-margin-top="25"
     fit-margin-left="25"
     fit-margin-right="25"
     fit-margin-bottom="25" />
  <metadata
     id="metadata7">
    <rdf:RDF>
      <cc:Work
         rdf:about="">
        <dc:format>image/svg+xml</dc:format>
        <dc:type
           rdf:resource="http://purl.org/dc/dcmitype/StillImage" />
        <dc:title></dc:title>
      </cc:Work>
    </rdf:RDF>
  </metadata>
  <g
     inkscape:groupmode="layer"
     id="layer2"
     inkscape:label="Terminals"
     transform="translate(617.68358,9.4337295)">
    <path
       style="opacity:1;fill:#dddddd;fill-opacity:1;fill-rule:evenodd;stroke:#222222;stroke-width:1.5;stroke-linecap:butt;stroke-linejoin:miter;stroke-miterlimit:4;stroke-dasharray:none;stroke-opacity:1"
       d="m -293.77527,39.000691 -12.20781,3.663127 -8.95269,18.718036 3.25624,11.190582 205.09362,108.651834 6.918242,23.19495 28.078744,13.83536 4.272339,-1.42411 19.53294,62.46427 -7.121689,2.84823 10.173359,34.1832 7.325134,-2.23901 6.103341,18.10882 -6.103341,2.03445 5.899897,15.87094 c 0,0 -77.204456,28.86329 -107.705426,102.52601 l 9.78333,4.89167 -98.98428,-0.28775 -2.30196,4.60392 4.60392,0.57549 -8.05686,15.25049 -0.28775,3.74068 -6.04264,-2.87745 4.89166,-9.49558 -10.50269,-5.46716 -4.89166,8.9201 -56.39802,-29.34999 3.45294,-7.19363 -14.675,-7.62524 -3.02132,6.90588 -41.29141,-21.437 3.59681,-6.90588 -14.67499,-8.05686 -3.59681,7.04975 -55.67866,-29.49386 3.45294,-6.61814 -14.24338,-7.62524 -3.45294,6.76201 -27.76739,-14.675 3.74068,-6.47426 -14.38725,-7.91299 -3.74068,6.76201 -55.53479,-29.78161 3.88456,-6.33039 -15.10661,-8.20073 -6.04265,5.89877 -11.36592,-5.17941 -1.72647,2.87745 c 0,0 -11.07819,8.77623 -14.24338,27.19191 l -1.87034,4.02843 10.50269,5.03553 -0.86324,10.35882 14.24338,7.04976 4.46005,-8.34461 55.9664,30.06935 -4.1723,8.05686 13.81176,7.3375 4.31617,-8.20073 42.44239,22.15636 -4.46005,8.48848 13.52402,7.04975 4.60392,-8.3446 55.82253,29.78161 -4.31618,8.20073 13.95564,7.3375 4.1723,-8.20074 69.49042,36.39975 -6.76201,12.37303 1.15098,-0.57549 0.57549,1.43873 c 0,0 -13.66789,6.61813 -24.17058,20.86151 l 8.77622,28.48675 1.87034,-0.57549 0.71937,2.44584 6.47426,-1.72647 77.54728,247.31682 -3.02133,1.29486 10.93431,34.67325 c 0,0 11.36593,1.15098 20.4299,1.29485 l -0.28775,0.86324 -1.0071,0 7.76911,4.31617 -6.33039,11.07819 6.90588,3.45294 -30.64484,56.68576 -6.61814,-3.30907 -6.47426,12.94853 6.90588,3.74068 -15.39436,28.63063 -7.19362,-3.45294 -6.76201,13.0924 7.19363,3.74068 -29.78161,57.54901 -7.48137,-3.8846 -6.33039,12.8047 6.90588,3.5968 -22.44411,43.3056 -7.62524,-3.8845 -6.61814,13.2362 8.20073,3.8846 c 0,0 9.92721,17.5524 33.95391,17.9841 l 7.62525,4.0284 6.47426,-13.0924 -6.90588,-3.453 22.58798,-43.1617 6.33039,3.5968 6.76201,-13.2363 -6.04265,-3.4529 30.21323,-57.40513 6.33039,3.59682 6.61813,-12.80466 -6.47426,-3.30906 30.3571,-57.40513 6.47426,3.45294 6.61814,-12.94853 -6.61814,-3.45294 30.3571,-57.549 6.18652,3.45294 6.47426,-12.66078 -6.76201,-3.45294 8.48848,-18.55953 -1.15098,-1.00711 c 0,0 4.60392,-2.73358 8.63235,-6.47426 l -0.28775,-1.5826 4.46005,-1.29485 0.71936,1.5826 43.161754,-14.09951 -11.653672,-38.7017 18.559552,-4.89167 5.035538,2.87745 1.72647,6.90588 3.740685,-1.29485 -1.15098,3.45294 12.08529,5.89877 0.431617,-1.43872 4.747793,2.30196 -0.719363,1.5826 11.078183,5.46715 1.582597,-3.02132 6.186518,3.30907 -6.33039,12.37303 10.214947,5.03554 0.431618,-1.43873 c 0,0 40.572045,25.17769 105.602415,18.99117 l 1.438725,9.35172 11.078182,4.46003 17.840191,-3.02133 4.46005,15.96985 3.16519,0.28775 29.92548,96.53844 -11.65367,17.12083 2.5897,8.34461 -36.83136,30.78871 -2.73357,-2.44583 -10.502696,9.06397 -13.092397,-0.43162 -10.93431,12.66073 4.60392,13.5241 -3.596813,7.4813 17.696318,8.6324 19.998278,-10.215 3.16519,-16.6892 -9.35171,-1.8703 0.14387,-1.5826 48.34116,-45.31985 3.02133,-4.1723 0.57549,1.58259 3.74068,-1.0071 -0.57549,-1.29486 1.5826,-3.30906 18.8473,-6.76201 5.03553,1.87034 0,3.02132 3.88456,-0.71936 1.15098,-3.30907 28.63063,11.36593 7.19362,5.03554 0.71937,7.91299 1.43872,2.15808 -6.76201,7.3375 4.89167,5.32328 8.05686,-3.74068 9.20784,4.02843 2.73358,6.04264 2.73357,2.30196 2.58971,-0.28774 0,9.06393 2.44583,-0.1438 4.46005,-3.7407 -0.14387,-2.1581 12.22916,-0.86324 14.38725,-36.25587 -11.36593,-14.96274 -3.45294,2.73357 -2.73358,-2.87745 -8.92009,4.02843 -9.06397,-3.88455 -3.45294,-8.77623 -7.04975,1.5826 0.14387,9.20784 -8.20073,5.7549 -8.77622,-1.43872 -24.88995,-9.78333 -1.58259,-8.77623 -19.99828,-8.05686 -30.06935,-96.82619 2.44583,-1.43872 -3.02132,-9.78332 5.32328,-3.30906 0.57549,1.29485 37.40685,-19.13504 -8.34461,-15.53823 -23.59509,11.65367 -1.72647,-3.1652 c 0,0 59.80395,-27.40073 89.7135,-92.71346 l 31.63959,16.17554 2.23789,-3.96773 95.38297,50.00468 -1.87034,3.88456 10.64656,6.04265 13.95563,-1.29486 1.00711,-3.16519 6.04265,-8.63235 2.30196,-7.3375 0.86323,-0.43162 0.71936,-2.87745 -6.04264,-10.79043 -11.22206,-5.61103 -1.15098,2.87745 -96.2507,-50.93087 1.72647,-3.45294 -23.88283,-12.94852 -1.00711,-9.9272 10.21495,-19.13505 c 0,0 9.9272,-0.86323 6.04264,-11.79754 l 13.81176,-28.63063 5.7549,-3.88456 5.32328,2.87745 4.60392,-9.20784 26.1848,-16.40146 -1.29485,-46.75856 30.78871,-9.20784 19.13504,-21.00539 5.61103,-1.87034 1.29485,5.17941 5.89878,-1.5826 -1.43873,-5.32328 30.93259,-9.20784 16.68921,8.63235 -2.73358,5.61103 4.46005,2.5897 3.02132,-6.04264 20.86151,11.36592 -2.30196,5.17941 4.60392,2.44584 2.44584,-5.32329 18.84729,10.07108 -2.5897,5.32328 11.5098,6.18652 17.55244,-33.37842 -3.16519,-10.50269 -10.50269,-20.14215 5.03553,-3.02133 -2.5897,-4.74779 -5.17941,3.02132 -1.29485,-2.30196 -11.07819,-37.26297 -1.29485,-12.22917 6.04265,-1.15098 -0.86324,-4.46004 -5.32328,0.57549 -0.86324,-6.76201 -4.02843,-15.96985 -34.09778,-17.98406 -9.63946,18.41568 6.04265,3.16519 -11.22206,19.99828 -5.46715,-2.73358 -3.30907,6.04265 6.18652,2.73358 -17.2647,31.79582 -31.79582,9.9272 -1.5826,-5.89877 -6.04265,1.5826 1.72647,5.89877 -7.76911,2.87745 -24.88994,-5.89877 -43.73724,13.66788 -7.3375,-28.63062 -2.30196,0.57549 -7.62524,-8.34461 -9.49559,8.05686 -1.00711,-0.28774 -5.89877,5.32328 c 0,0 -1.87034,2.73358 0.43162,4.60392 l 4.02843,2.44583 0.86323,-1.29485 0.43162,2.44583 -1.00711,0.71936 -89.05707,-46.32694 -9.06397,17.2647 -13.0924,-6.18652 15.82598,-29.63773 -6.47427,-3.45294 19.56666,-36.68749 6.90588,0.43162 2.30196,-4.46005 -5.7549,-3.30907 12.08529,-21.00538 8.63235,0.86323 3.1652,2.30196 8.05686,-14.53112 -4.60392,-2.44583 15.10661,-28.91838 5.32328,0.43162 2.44584,-3.88456 -4.60392,-2.73357 12.37303,-26.1848 -5.7549,0 2.73358,-5.03554 -27.33578,-14.67499 -3.45294,6.18652 -4.31617,-5.7549 -6.33039,12.37303 -5.32328,-2.87745 -2.58971,3.88456 3.88456,6.90588 -35.82425,66.46909 -5.61103,-2.73357 -3.1652,5.46715 4.02843,5.89877 -7.48137,14.96274 4.46005,6.04265 -6.04264,10.93431 c 0,0 -76.971791,-50.06763 -169.337936,-25.03382 l 1.294853,4.31618 -2.158088,0.71936 -12.832752,-41.99953 26.24661491,-46.59446 -5.69645211,-19.73638 -6.9182438,-3.45856 -6.103341,2.03444 -20.143274,-64.29527 -1.220669,-1.01722 38.6578666,-73.654853 -1.831002,-5.493006 -9.1561356,-4.476909 -5.696452,1.62756 -12.004362,22.381163 -5.494131,-2.644779 -1.424113,0.203447 -26.858073,50.663347 -2.237892,-0.81378 -23.601833,7.32514 L -293.77527,39.000691 Z M 48.220901,388.68392 c 14.890407,0.0119 31.619112,2.2627 47.031696,9.43489 l 60.633263,31.33386 4.07002,-7.52745 42.32099,22.78805 -4.27346,7.73202 45.37379,23.19495 24.8225,79.75819 -22.78805,42.321 6.71367,3.86657 -24.21216,47.40711 -11.19059,-5.69645 -20.34671,38.86131 c 0,0 -26.044,56.15694 -81.59032,71.82385 l -9.56303,2.64478 c 0,0 -51.069924,17.09117 -106.6162657,-10.3768 l -14.0388093,-7.93434 -28.078741,8.5458 -28.077618,-13.83649 -44.153126,12.81814 c 0,0 -82.81065,-79.14851 -64.9056,-209.77397 l -6.71368,-20.54904 23.80528,-6.7148 -11.59747,-36.4211 -43.3326,12.90244 -3.45294,-11.36593 5.32328,-11.79754 80.5686,0.43162 3.59682,1.58259 -2.01422,4.02843 c 0,0 2.73358,7.62525 16.54534,13.95564 l -10.64657,18.2718 3.02133,12.94853 8.92009,4.46005 21.580877,-41.72303 3.021322,1.43873 c 0,0 25.92652,-62.51072 86.7629858,-80.21229 l 8.9526907,-2.44134 c 0,0 19.7100705,-6.19965 44.5274155,-6.17978 z m 285.331759,136.4552 0.57549,25.46544 -2.44583,0.86323 -2.44583,-6.04264 2.15809,-0.71937 -5.7549,-17.12082 7.91298,-2.44584 z m 0.57549,28.05514 0.43162,15.39436 -25.75318,16.54534 -5.89877,-3.30907 -4.89166,9.63946 -3.1652,2.30196 -13.95563,26.76028 -2.30196,-1.87034 3.16519,-5.89877 -2.30196,-1.29486 19.56666,-36.68748 6.90588,3.59681 5.17941,1.00711 0.71937,-4.31618 5.89877,-2.87745 -0.14387,-3.59681 14.38725,-0.71936 0.43161,-11.94142 -0.28774,-1.87034 2.01421,-0.86324 z m -184.58841,240.55482 1.87034,3.1652 -5.61103,2.73357 -1.29485,-3.59681 5.03554,-2.30196 z"
       id="path4148"
       inkscape:connector-curvature="0" />
  </g>
  <g
     inkscape:groupmode="layer"
     id="layer1"
     inkscape:label="Labels"
     transform="translate(0.61152641,23.124806)">
    <g
       id="g4165"
       transform="translate(907.52155,-46.567051)">
      <g
         style="font-style:normal;font-variant:normal;font-weight:bold;font-stretch:normal;font-size:125px;line-height:110.00000238%;font-family:Overpass;-inkscape-font-specification:'Overpass, Bold';text-align:center;letter-spacing:0px;word-spacing:0px;writing-mode:lr-tb;text-anchor:middle;fill:#dddddd;fill-opacity:1;stroke:#222222;stroke-width:0.25;stroke-linecap:butt;stroke-linejoin:miter;stroke-miterlimit:4;stroke-dasharray:none;stroke-opacity:1"
         id="text4157">
        <path
           d="m 67.312103,73.8358 q -0.793457,-1.953125 -2.13623,-3.662109 -1.342774,-1.708985 -3.234863,-2.929688 -1.831055,-1.281738 -4.272461,-1.953125 -2.380372,-0.732422 -5.310059,-0.732422 -5.493164,0 -8.605957,2.197266 -3.051758,2.197266 -3.051758,6.164551 0,2.624512 1.953125,4.394531 1.953125,1.77002 5.126953,3.234863 3.173828,1.403809 7.202149,2.685547 4.089355,1.281739 8.361816,2.868653 4.272461,1.525878 8.300781,3.662109 4.089356,2.075195 7.263184,5.187988 3.173828,3.051758 5.126953,7.324216 1.953125,4.21143 1.953125,10.13184 0,6.40869 -2.441406,11.35254 -2.441406,4.94385 -6.713867,8.36181 -4.211426,3.41797 -10.009766,5.18799 -5.79834,1.77002 -12.512207,1.77002 -6.164551,0 -11.535645,-1.64795 -5.371093,-1.70898 -9.765625,-4.82177 -4.333496,-3.1128 -7.568359,-7.56836 -3.234863,-4.45557 -5.126953,-10.00977 l 15.380859,-5.7373 q 1.403809,3.05175 3.356934,5.61523 2.01416,2.50244 4.455566,4.3335 2.441407,1.77002 5.249024,2.80761 2.868652,0.97657 6.103515,0.97657 3.173829,0 5.737305,-0.67139 2.624512,-0.67139 4.455566,-2.01416 1.89209,-1.34277 2.868653,-3.2959 1.037597,-2.01416 1.037597,-4.63867 0,-3.17383 -1.953125,-5.31006 -1.953125,-2.19727 -5.126953,-3.78418 -3.173828,-1.64795 -7.263183,-2.92969 -4.028321,-1.34277 -8.300781,-2.807614 -4.211426,-1.464844 -8.300782,-3.417969 -4.02832,-1.953125 -7.202148,-4.821777 -3.173828,-2.868652 -5.126953,-6.896973 -1.953125,-4.02832 -1.953125,-9.765625 0,-4.943847 1.953125,-9.277344 2.01416,-4.394531 5.79834,-7.690429 3.784179,-3.295899 9.277343,-5.187989 5.493164,-1.953125 12.573242,-1.953125 5.920411,0 10.681153,1.525879 4.821777,1.525879 8.483887,4.272461 3.662109,2.685547 6.16455,6.408692 2.502442,3.662109 3.78418,8.05664 L 67.312103,73.8358 Z"
           style=""
           id="path4172" />
        <path
           d="m 104.66562,137.5565 0,-87.524411 58.65478,0 0,16.052246 -41.74804,0 0,18.371582 26.48925,0 0,15.991213 -26.48925,0 0,37.10937 -16.90674,0 z"
           style=""
           id="path4174" />
        <path
           d="m 214.40683,139.08238 q -7.08008,0 -12.69531,-1.83105 -5.61524,-1.89209 -9.94873,-5.06592 -4.27246,-3.23486 -7.32422,-7.56836 -3.05176,-4.39453 -5.00488,-9.39941 -1.89209,-5.06592 -2.80762,-10.49805 -0.85449,-5.493165 -0.85449,-10.925294 0,-5.371093 0.85449,-10.803222 0.91553,-5.493164 2.80762,-10.498047 1.95312,-5.065918 5.00488,-9.399414 3.05176,-4.394532 7.32422,-7.56836 4.33349,-3.234863 9.94873,-5.065918 5.61523,-1.89209 12.69531,-1.89209 7.08008,0 12.63428,1.89209 5.61523,1.831055 9.88769,5.065918 4.27246,3.173828 7.32422,7.56836 3.05176,4.333496 4.94385,9.399414 1.95312,5.004883 2.80762,10.498047 0.91552,5.432129 0.91552,10.803222 0,5.432129 -0.91552,10.925294 -0.8545,5.43213 -2.80762,10.49805 -1.89209,5.00488 -4.94385,9.39941 -3.05176,4.3335 -7.32422,7.56836 -4.27246,3.17383 -9.88769,5.06592 -5.5542,1.83105 -12.63428,1.83105 z m 0,-16.29638 q 5.85937,0 9.82666,-2.74659 4.02832,-2.74658 6.46973,-7.01904 2.50244,-4.27246 3.60107,-9.33838 1.09863,-5.126952 1.09863,-9.887694 0,-3.356933 -0.48828,-6.774902 -0.42724,-3.479004 -1.46484,-6.652832 -1.0376,-3.234863 -2.68555,-6.042481 -1.64795,-2.868652 -3.96728,-4.943847 -2.31934,-2.136231 -5.43213,-3.356934 -3.05176,-1.220703 -6.95801,-1.220703 -3.96729,0 -7.08008,1.281738 -3.05176,1.281739 -5.43213,3.479004 -2.31933,2.136231 -3.96728,5.004883 -1.64795,2.868652 -2.68555,6.103516 -1.0376,3.234863 -1.52588,6.591797 -0.42724,3.356933 -0.42724,6.530761 0,5.004883 1.09863,10.192874 1.09863,5.12695 3.54004,9.33838 2.50244,4.15039 6.53076,6.83593 4.02832,2.62452 9.94873,2.62452 z"
           style=""
           id="path4176" />
      </g>
      <g
         style="font-style:normal;font-variant:normal;font-weight:normal;font-stretch:normal;font-size:45px;line-height:110.00000238%;font-family:Overpass;-inkscape-font-specification:'Overpass, Normal';text-align:center;letter-spacing:0px;word-spacing:0px;writing-mode:lr-tb;text-anchor:middle;fill:#222222;fill-opacity:1;stroke:none;stroke-width:1px;stroke-linecap:butt;stroke-linejoin:miter;stroke-opacity:1"
         id="text4161">
        <path
           d="m -7.3968887,162.11765 q -0.2856446,-0.68116 -0.7910157,-1.25245 -0.5053711,-0.59326 -1.2304687,-1.01074 -0.7250979,-0.43945 -1.6699219,-0.68115 -0.922852,-0.2417 -2.06543,-0.2417 -2.263183,0 -3.537597,0.98877 -1.274414,0.98877 -1.274414,2.79053 0,1.1206 0.703125,1.91162 0.703125,0.76904 1.845703,1.3623 1.142578,0.59326 2.592773,1.09864 1.472168,0.48339 2.9882814,1.07666 1.538086,0.57128 2.9882813,1.34033 1.4721679,0.74707 2.6147461,1.8457 1.1425781,1.07666 1.8457031,2.61475 0.703125,1.51611 0.703125,3.64746 0,2.26318 -0.8349609,4.02099 -0.8129883,1.73584 -2.2631836,2.94434 -1.4501954,1.18652 -3.4277344,1.82373 -1.955566,0.61523 -4.21875,0.61523 -2.109375,0 -3.955078,-0.54931 -1.823731,-0.52735 -3.317871,-1.51611 -1.472168,-1.01075 -2.548828,-2.417 -1.076661,-1.42822 -1.669922,-3.18603 l 4.416504,-1.60401 q 0.483398,1.05469 1.186523,1.9336 0.725098,0.8789 1.647949,1.51611 0.922852,0.61524 2.021485,0.9668 1.120605,0.35156 2.395019,0.35156 1.274414,0 2.3291018,-0.30762 1.0546875,-0.30761 1.8017578,-0.92285 0.7470703,-0.61523 1.1645508,-1.51611 0.4174805,-0.92285 0.4174805,-2.10938 0,-1.40625 -0.703125,-2.35107 -0.703125,-0.9668 -1.8457032,-1.66992 -1.1425777,-0.70313 -2.6147457,-1.23047 -1.450196,-0.52735 -2.988282,-1.07666 -1.516113,-0.54932 -2.988281,-1.23047 -1.450195,-0.68115 -2.592773,-1.66992 -1.142578,-0.98877 -1.845703,-2.37305 -0.703125,-1.38428 -0.703125,-3.38379 0,-1.66992 0.659179,-3.16406 0.681153,-1.49414 1.955567,-2.61475 1.274414,-1.14258 3.14209,-1.80175 1.867675,-0.65918 4.262695,-0.65918 1.999512,0 3.6254881,0.48339 1.6259766,0.46143 2.8344727,1.29639 1.2304687,0.83496 2.043457,1.97754 0.8129883,1.14258 1.2304687,2.48291 l -4.3286132,1.4502 z"
           style=""
           id="path4179" />
        <path
           d="m 22.002525,186.46335 -4.482422,0 0,-1.97754 q -0.439453,0.46143 -1.054687,0.92285 -0.615234,0.43945 -1.40625,0.81299 -0.769043,0.35156 -1.73584,0.57129 -0.966797,0.21972 -2.109375,0.21972 -1.7578124,0 -3.251953,-0.48339 -1.4941406,-0.4834 -2.5927735,-1.4502 -1.0986328,-0.98877 -1.7358398,-2.41699 -0.6152344,-1.4502 -0.6152344,-3.36182 0,-1.97754 0.7470703,-3.40576 0.7470704,-1.45019 1.9775391,-2.37305 1.2304688,-0.94482 2.8125,-1.38427 1.6040043,-0.43946 3.2958983,-0.43946 1.582031,0 3.032227,0.35157 1.472168,0.32959 2.636718,1.01074 l 0,-1.27442 q 0,-1.29638 -0.307617,-2.19726 -0.285644,-0.90088 -0.900879,-1.4502 -0.593261,-0.57129 -1.516113,-0.81299 -0.922851,-0.26367 -2.197266,-0.26367 -2.15332,0 -3.7353511,0.57129 -1.5600586,0.57129 -2.8344727,1.51612 l -1.3842773,-3.84522 q 0.703125,-0.4834 1.6040039,-0.90088 0.9008789,-0.43945 1.9775391,-0.76904 1.0766601,-0.32959 2.3291011,-0.50537 1.252442,-0.19776 2.680664,-0.19776 0.966797,0 1.999512,0.10987 1.032715,0.10986 1.999512,0.43945 0.988769,0.30762 1.845703,0.90088 0.878906,0.59326 1.516113,1.56006 0.65918,0.94482 1.032715,2.3291 0.373535,1.38428 0.373535,3.2959 l 0,14.89746 z m -9.93164,-3.60352 q 1.779785,0 3.14209,-0.72509 1.384277,-0.7251 2.307128,-1.73584 l 0,-3.51563 q -0.966796,-0.50537 -2.263183,-0.81299 -1.296387,-0.30762 -2.658692,-0.30762 -1.054687,0 -1.977539,0.19776 -0.9228512,0.19775 -1.6259762,0.63721 -0.6811523,0.41748 -1.0766601,1.09863 -0.3955078,0.65918 -0.3955078,1.604 0,1.64795 1.1425781,2.61475 1.1645508,0.94482 3.405762,0.94482 z"
           style=""
           id="path4181" />
        <path
           d="m 42.590904,186.46335 0,-13.73291 q 0,-1.4502 -0.351562,-2.46094 -0.351563,-1.03271 -0.966797,-1.66992 -0.615235,-0.65918 -1.450195,-0.94483 -0.834961,-0.30761 -1.823731,-0.30761 -1.054687,0 -1.955566,0.28564 -0.900879,0.26367 -1.560059,0.87891 -0.65918,0.61523 -1.054687,1.64795 -0.373536,1.01074 -0.373536,2.48291 l 0,13.8208 -4.680175,0 0,-23.00537 4.680175,0 0,2.21924 q 1.120606,-1.42823 2.570801,-2.08741 1.450196,-0.65918 3.361817,-0.65918 1.801757,0 3.317871,0.52735 1.516113,0.50537 2.614746,1.66992 1.120605,1.16455 1.73584,3.03223 0.615234,1.86767 0.615234,4.57031 l 0,13.73291 -4.680176,0 z"
           style=""
           id="path4183" />
        <path
           d="m 64.80526,186.46335 0,-31.50879 19.533691,0 0,4.4165 -14.853516,0 0,8.63526 9.602051,0 0,4.4165 -9.602051,0 0,14.04053 -4.680175,0 z"
           style=""
           id="path4185" />
        <path
           d="m 86.118736,186.46335 0,-23.00537 4.680176,0 0,2.79052 q 0.812988,-1.75781 2.109375,-2.52685 1.296387,-0.79102 3.010254,-0.79102 2.285156,0 3.867187,1.38428 l -0.681152,4.32861 q -0.637207,-0.43945 -1.516113,-0.76904 -0.856934,-0.35156 -2.109375,-0.35156 -0.791016,0 -1.625977,0.28564 -0.812988,0.26368 -1.49414,0.9668 -0.681153,0.68115 -1.120606,1.8457 -0.439453,1.14258 -0.439453,2.92237 l 0,12.91992 -4.680176,0 z"
           style=""
           id="path4187" />
        <path
           d="m 121.93417,186.46335 -4.48243,0 0,-1.97754 q -0.43945,0.46143 -1.05468,0.92285 -0.61524,0.43945 -1.40625,0.81299 -0.76905,0.35156 -1.73584,0.57129 -0.9668,0.21972 -2.10938,0.21972 -1.75781,0 -3.25195,-0.48339 -1.49414,-0.4834 -2.59277,-1.4502 -1.09864,-0.98877 -1.73584,-2.41699 -0.61524,-1.4502 -0.61524,-3.36182 0,-1.97754 0.74707,-3.40576 0.74707,-1.45019 1.97754,-2.37305 1.23047,-0.94482 2.8125,-1.38427 1.604,-0.43946 3.2959,-0.43946 1.58203,0 3.03223,0.35157 1.47216,0.32959 2.63671,1.01074 l 0,-1.27442 q 0,-1.29638 -0.30761,-2.19726 -0.28565,-0.90088 -0.90088,-1.4502 -0.59326,-0.57129 -1.51612,-0.81299 -0.92285,-0.26367 -2.19726,-0.26367 -2.15332,0 -3.73535,0.57129 -1.56006,0.57129 -2.83448,1.51612 l -1.38427,-3.84522 q 0.70312,-0.4834 1.604,-0.90088 0.90088,-0.43945 1.97754,-0.76904 1.07666,-0.32959 2.3291,-0.50537 1.25244,-0.19776 2.68067,-0.19776 0.96679,0 1.99951,0.10987 1.03271,0.10986 1.99951,0.43945 0.98877,0.30762 1.8457,0.90088 0.87891,0.59326 1.51612,1.56006 0.65918,0.94482 1.03271,2.3291 0.37354,1.38428 0.37354,3.2959 l 0,14.89746 z m -9.93164,-3.60352 q 1.77978,0 3.14209,-0.72509 1.38427,-0.7251 2.30712,-1.73584 l 0,-3.51563 q -0.96679,-0.50537 -2.26318,-0.81299 -1.29639,-0.30762 -2.65869,-0.30762 -1.05469,0 -1.97754,0.19776 -0.92285,0.19775 -1.62598,0.63721 -0.68115,0.41748 -1.07666,1.09863 -0.3955,0.65918 -0.3955,1.604 0,1.64795 1.14257,2.61475 1.16455,0.94482 3.40577,0.94482 z"
           style=""
           id="path4189" />
        <path
           d="m 142.52254,186.46335 0,-13.73291 q 0,-1.4502 -0.35156,-2.46094 -0.35156,-1.03271 -0.96679,-1.66992 -0.61524,-0.65918 -1.4502,-0.94483 -0.83496,-0.30761 -1.82373,-0.30761 -1.05469,0 -1.95557,0.28564 -0.90088,0.26367 -1.56006,0.87891 -0.65917,0.61523 -1.05468,1.64795 -0.37354,1.01074 -0.37354,2.48291 l 0,13.8208 -4.68017,0 0,-23.00537 4.68017,0 0,2.21924 q 1.12061,-1.42823 2.5708,-2.08741 1.4502,-0.65918 3.36182,-0.65918 1.80176,0 3.31787,0.52735 1.51611,0.50537 2.61475,1.66992 1.1206,1.16455 1.73584,3.03223 0.61523,1.86767 0.61523,4.57031 l 0,13.73291 -4.68018,0 z"
           style=""
           id="path4191" />
        <path
           d="m 162.60555,187.01266 q -2.30713,0 -4.1748,-0.81298 -1.84571,-0.81299 -3.16406,-2.35108 -1.29639,-1.56006 -1.99952,-3.77929 -0.70312,-2.24122 -0.70312,-5.07569 0,-2.83447 0.70312,-5.07568 0.70313,-2.24121 1.99952,-3.7793 1.31835,-1.56006 3.16406,-2.37305 1.86767,-0.83496 4.1748,-0.83496 3.20801,0 5.42725,1.42823 2.24121,1.42822 3.25195,4.50439 l -4.43847,1.53809 q -0.50538,-1.31836 -1.53809,-2.13135 -1.03272,-0.83496 -2.52686,-0.83496 -1.31836,0 -2.3291,0.52734 -1.01074,0.52735 -1.71386,1.51612 -0.68116,0.96679 -1.05469,2.37304 -0.35156,1.38428 -0.35156,3.14209 0,1.75781 0.35156,3.16406 0.37353,1.38428 1.03271,2.35108 0.68115,0.9668 1.64795,1.49414 0.98877,0.50537 2.24121,0.50537 1.58203,0 2.70264,-0.87891 1.14258,-0.8789 1.62598,-2.50488 l 4.43847,1.40625 q -0.92285,3.20801 -3.14209,4.85596 -2.19726,1.62597 -5.625,1.62597 z"
           style=""
           id="path4193" />
        <path
           d="m 177.04159,186.46335 0,-23.00537 4.68017,0 0,23.00537 -4.68017,0 z m 2.3291,-26.58692 q -0.59326,0 -1.12061,-0.21972 -0.50537,-0.21973 -0.90087,-0.59326 -0.37354,-0.39551 -0.59327,-0.90088 -0.21972,-0.52735 -0.21972,-1.12061 0,-0.59326 0.21972,-1.09863 0.21973,-0.52734 0.59327,-0.90088 0.3955,-0.39551 0.90087,-0.61523 0.52735,-0.21973 1.12061,-0.21973 0.59326,0 1.09863,0.21973 0.52735,0.21972 0.90088,0.61523 0.39551,0.37354 0.61524,0.90088 0.21972,0.50537 0.21972,1.09863 0,0.59326 -0.21972,1.12061 -0.21973,0.50537 -0.61524,0.90088 -0.37353,0.37353 -0.90088,0.59326 -0.50537,0.21972 -1.09863,0.21972 z"
           style=""
           id="path4195" />
        <path
           d="m 195.60848,187.01266 q -1.3623,0 -2.65869,-0.26367 -1.29639,-0.26367 -2.43896,-0.74707 -1.12061,-0.4834 -2.04346,-1.16455 -0.92285,-0.70312 -1.53809,-1.56006 l 3.31787,-2.83447 q 0.35157,0.32959 0.85694,0.74707 0.50537,0.39551 1.16455,0.74707 0.65918,0.35156 1.47217,0.59326 0.81298,0.2417 1.77978,0.2417 0.87891,0 1.62598,-0.13183 0.74707,-0.13184 1.27441,-0.41748 0.54932,-0.28565 0.83496,-0.74707 0.30762,-0.4834 0.30762,-1.18653 0,-0.81299 -0.57129,-1.38428 -0.54931,-0.59326 -1.45019,-1.05468 -0.90088,-0.4834 -2.04346,-0.90088 -1.14258,-0.43945 -2.30713,-0.92285 -1.07666,-0.46143 -2.10937,-1.01075 -1.03272,-0.54931 -1.84571,-1.31835 -0.79101,-0.76905 -1.29638,-1.82374 -0.4834,-1.07666 -0.4834,-2.59277 0,-1.53808 0.61523,-2.72461 0.63721,-1.18652 1.71387,-1.97754 1.09863,-0.81299 2.54883,-1.23047 1.47216,-0.41748 3.14209,-0.41748 1.47216,0 2.70263,0.28565 1.25244,0.28564 2.24121,0.76904 1.01075,0.4834 1.77979,1.12061 0.76904,0.61523 1.34033,1.29638 l -3.38379,2.68067 q -0.30761,-0.30762 -0.74707,-0.63721 -0.41748,-0.35156 -0.98877,-0.63721 -0.57129,-0.28564 -1.29638,-0.46142 -0.7251,-0.19776 -1.64795,-0.19776 -1.49414,0 -2.37305,0.54932 -0.85693,0.54932 -0.85693,1.58203 0,0.65918 0.46142,1.16455 0.46143,0.4834 1.25244,0.90088 0.79102,0.41748 1.80176,0.81299 1.03272,0.37353 2.15332,0.81299 1.18652,0.46142 2.3291,1.03271 1.14258,0.57129 2.02149,1.40625 0.90088,0.83496 1.42822,2.02149 0.54932,1.18652 0.54932,2.85644 0,1.64795 -0.61524,2.92237 -0.61523,1.25244 -1.75781,2.10937 -1.12061,0.83496 -2.72461,1.25244 -1.58203,0.43945 -3.5376,0.43945 z"
           style=""
           id="path4197" />
        <path
           d="m 218.76766,187.01266 q -2.30713,0 -4.1748,-0.81298 -1.84571,-0.81299 -3.16407,-2.35108 -1.29638,-1.56006 -1.99951,-3.77929 -0.70312,-2.24122 -0.70312,-5.07569 0,-2.83447 0.70312,-5.07568 0.70313,-2.24121 1.99951,-3.7793 1.31836,-1.56006 3.16407,-2.37305 1.86767,-0.83496 4.1748,-0.83496 3.20801,0 5.42725,1.42823 2.24121,1.42822 3.25195,4.50439 l -4.43848,1.53809 q -0.50537,-1.31836 -1.53808,-2.13135 -1.03272,-0.83496 -2.52686,-0.83496 -1.31836,0 -2.3291,0.52734 -1.01074,0.52735 -1.71387,1.51612 -0.68115,0.96679 -1.05468,2.37304 -0.35157,1.38428 -0.35157,3.14209 0,1.75781 0.35157,3.16406 0.37353,1.38428 1.03271,2.35108 0.68115,0.9668 1.64795,1.49414 0.98877,0.50537 2.24121,0.50537 1.58203,0 2.70264,-0.87891 1.14258,-0.8789 1.62598,-2.50488 l 4.43847,1.40625 q -0.92285,3.20801 -3.14209,4.85596 -2.19726,1.62597 -5.625,1.62597 z"
           style=""
           id="path4199" />
        <path
           d="m 242.5201,187.01266 q -2.41699,0 -4.37256,-0.81298 -1.93359,-0.81299 -3.29589,-2.35108 -1.36231,-1.56006 -2.10938,-3.77929 -0.7251,-2.24122 -0.7251,-5.07569 0,-2.83447 0.7251,-5.07568 0.74707,-2.24121 2.10938,-3.7793 1.3623,-1.56006 3.29589,-2.37305 1.95557,-0.83496 4.37256,-0.83496 2.39502,0 4.35059,0.83496 1.95557,0.81299 3.31787,2.37305 1.36231,1.53809 2.10938,3.7793 0.74707,2.24121 0.74707,5.07568 0,2.83447 -0.74707,5.07569 -0.74707,2.21923 -2.10938,3.77929 -1.3623,1.53809 -3.31787,2.35108 -1.95557,0.81298 -4.35059,0.81298 z m 0,-4.4165 q 1.34034,0 2.417,-0.52734 1.09863,-0.52735 1.8457,-1.49414 0.76904,-0.98877 1.16455,-2.39502 0.41748,-1.40625 0.41748,-3.18604 0,-1.77978 -0.41748,-3.18603 -0.39551,-1.42823 -1.16455,-2.417 -0.74707,-0.98877 -1.8457,-1.51611 -1.07666,-0.52734 -2.417,-0.52734 -1.34033,0 -2.41699,0.52734 -1.07666,0.52734 -1.8457,1.51611 -0.74707,0.98877 -1.16455,2.417 -0.39551,1.40625 -0.39551,3.18603 0,1.77979 0.39551,3.18604 0.41748,1.40625 1.16455,2.39502 0.76904,0.96679 1.8457,1.49414 1.07666,0.52734 2.41699,0.52734 z"
           style=""
           id="path4201" />
      </g>
    </g>
  </g>
</svg>
