<?xml version="1.0" encoding="UTF-8" standalone="no"?>
<!-- Created with Inkscape (http://www.inkscape.org/) -->

<svg
   xmlns:dc="http://purl.org/dc/elements/1.1/"
   xmlns:cc="http://creativecommons.org/ns#"
   xmlns:rdf="http://www.w3.org/1999/02/22-rdf-syntax-ns#"
   xmlns:svg="http://www.w3.org/2000/svg"
   xmlns="http://www.w3.org/2000/svg"
   xmlns:sodipodi="http://sodipodi.sourceforge.net/DTD/sodipodi-0.dtd"
   xmlns:inkscape="http://www.inkscape.org/namespaces/inkscape"
   width="664.31384"
   height="733.43787"
   viewBox="0 0 664.31385 733.43788"
   id="svg2"
   version="1.1"
   inkscape:version="0.91 r13725"
   sodipodi:docname="SJC.svg"
   inkscape:export-filename="C:\Users\paulb\Dropbox\Projects\Terminal Silhouettes\Silhouettes\png\SJC.png"
   inkscape:export-xdpi="90"
   inkscape:export-ydpi="90">
  <sodipodi:namedview
     id="base"
     pagecolor="#ffffff"
     bordercolor="#666666"
     borderopacity="1.0"
     inkscape:pageopacity="1"
     inkscape:pageshadow="2"
     inkscape:zoom="1"
     inkscape:cx="149.18988"
     inkscape:cy="270.35592"
     inkscape:document-units="px"
     inkscape:current-layer="layer4"
     showgrid="false"
     showguides="true"
     inkscape:guide-bbox="true"
     inkscape:window-width="1920"
     inkscape:window-height="1137"
     inkscape:window-x="1912"
     inkscape:window-y="-8"
     inkscape:window-maximized="1"
     inkscape:snap-object-midpoints="true"
     inkscape:object-nodes="true"
     units="px"
     fit-margin-top="25"
     fit-margin-left="25"
     fit-margin-right="25"
     fit-margin-bottom="25" />
  <defs
     id="defs4" />
  <metadata
     id="metadata7">
    <rdf:RDF>
      <cc:Work
         rdf:about="">
        <dc:format>image/svg+xml</dc:format>
        <dc:type
           rdf:resource="http://purl.org/dc/dcmitype/StillImage" />
        <dc:title></dc:title>
        <dc:creator>
          <cc:Agent>
            <dc:title>Paul Bogard</dc:title>
          </cc:Agent>
        </dc:creator>
        <dc:description>Terminal silhouette of SJC (San José, California)</dc:description>
      </cc:Work>
    </rdf:RDF>
  </metadata>
  <g
     style="display:inline"
     inkscape:label="Terminal"
     id="layer2"
     inkscape:groupmode="layer"
     transform="translate(-83.593487,0.57716721)">
    <path
       id="rect4156"
       d="m 177.48843,162.76431 11.16308,0.7715 0.13167,-1.90421 12.58484,0.8708 2.8235,-2.45825 14.39686,16.53604 7.61579,0.52667 12.09793,13.89551 9.35272,10.7424 1.28277,1.47337 5.58683,6.41695 11.008,12.64363 -4.20588,3.66179 76.31098,87.64971 11.2565,12.92905 331.08827,380.28329 22.85525,-19.89861 2.34099,2.68886 16.67068,-14.5141 -35.35822,-40.61194 c 1.07238,-0.41282 1.74887,-0.57577 1.74887,-0.57577 l -19.86374,-22.81523 c 0,0 -0.0311,0.88564 -0.32354,2.21291 l -55.1767,-63.37517 -16.30727,14.1977 -235.71245,-270.73597 -12.73825,11.09038 -47.34256,-54.37699 13.68913,-11.91824 c 0,0 -19.6204,-30.21399 -46.84603,-53.80667 l -3.61269,3.14533 -9.35272,-10.7424 -11.88512,10.34761 -6.51245,-7.4801 0.12559,-1.82302 0.81787,0.0565 8.87342,-7.72552 -7.72551,-8.87341 4.30206,-3.74552 7.52899,-6.55501 0.98726,-0.85955 -37.54759,-43.12664 -0.12774,1.84679 -7.32266,-8.4107 1.07776,-15.591942 15.26802,-13.292886 12.43268,0.859797 7.66312,-6.671789 -6.67179,-7.663133 0.312,-4.511501 -4.51152,-0.312008 -6.67134,-7.662601 -7.66312,6.671793 -0.86029,12.433131 -15.26698,13.291982 -15.59239,-1.078307 -7.32266,-8.410703 1.84679,0.127694 -37.5476,-43.126638 -0.98726,0.85955 -11.83105,10.300538 -7.72551,-8.873409 -5.31064,4.62363 -4.33078,-4.974269 -2.82298,2.45779 4.33078,4.97427 -0.7398,0.644093 -1.28655,18.61061 14.39687,16.536037 -2.8235,2.458243 -0.87028,12.584372 -1.90375,-0.131174 -0.77246,11.163021 57.5055,66.049999 z"
       style="opacity:1;fill:#dddddd;fill-opacity:1;stroke:#222222;stroke-width:1.5;stroke-linejoin:miter;stroke-miterlimit:4;stroke-dasharray:none;stroke-dashoffset:0;stroke-opacity:1"
       inkscape:connector-curvature="0" />
  </g>
  <g
     inkscape:groupmode="layer"
     id="layer3"
     inkscape:label="Label"
     transform="translate(-83.593487,0.57716721)">
    <g
       id="g4288"
       transform="translate(108.59344,55.735449)">
      <g
         style="font-style:normal;font-variant:normal;font-weight:bold;font-stretch:normal;font-size:125px;line-height:125%;font-family:Overpass;-inkscape-font-specification:'Overpass, Bold';text-align:start;letter-spacing:0px;word-spacing:0px;writing-mode:lr-tb;text-anchor:start;fill:#dddddd;fill-opacity:1;stroke:#222222;stroke-width:0.25;stroke-linecap:butt;stroke-linejoin:miter;stroke-miterlimit:4;stroke-dasharray:none;stroke-opacity:1"
         id="text4266">
        <path
           d="m 47.12212,532.46643 q -0.793457,-1.95312 -2.13623,-3.66211 -1.342774,-1.70898 -3.234863,-2.92969 -1.831055,-1.28173 -4.272461,-1.95312 -2.380371,-0.73242 -5.310059,-0.73242 -5.493164,0 -8.605957,2.19726 -3.051758,2.19727 -3.051758,6.16455 0,2.62452 1.953125,4.39453 1.953125,1.77002 5.126953,3.23487 3.173829,1.40381 7.202149,2.68554 4.089355,1.28174 8.361816,2.86866 4.272461,1.52588 8.300781,3.66211 4.089356,2.07519 7.263184,5.18798 3.173828,3.05176 5.126953,7.32422 1.953125,4.21143 1.953125,10.13184 0,6.40869 -2.441406,11.35254 -2.441406,4.94385 -6.713867,8.36181 -4.211426,3.41797 -10.009766,5.18799 -5.79834,1.77002 -12.512207,1.77002 -6.164551,0 -11.535644,-1.64795 -5.371094,-1.70898 -9.765625,-4.82177 -4.3334965,-3.1128 -7.5683598,-7.56836 -3.2348633,-4.45557 -5.12695313,-10.00977 l 15.38085893,-5.7373 q 1.403809,3.05175 3.356934,5.61523 2.01416,2.50244 4.455566,4.3335 2.441407,1.77002 5.249024,2.80761 2.868652,0.97657 6.103516,0.97657 3.173828,0 5.737304,-0.67139 2.624512,-0.67139 4.455567,-2.01416 1.892089,-1.34277 2.868652,-3.2959 1.037598,-2.01416 1.037598,-4.63867 0,-3.17383 -1.953125,-5.31006 -1.953125,-2.19726 -5.126954,-3.78418 -3.173828,-1.64795 -7.263183,-2.92969 -4.02832,-1.34277 -8.300781,-2.80761 -4.211426,-1.46485 -8.300782,-3.41797 -4.02832,-1.95313 -7.202148,-4.82178 -3.1738282,-2.86865 -5.1269532,-6.89697 -1.953125,-4.02832 -1.953125,-9.76563 0,-4.94384 1.953125,-9.27734 2.0141602,-4.39453 5.7983402,-7.69043 3.784179,-3.2959 9.277343,-5.18799 5.493164,-1.95312 12.573243,-1.95312 5.92041,0 10.681152,1.52587 4.821777,1.52588 8.483887,4.27247 3.662109,2.68554 6.16455,6.40869 2.502442,3.66211 3.78418,8.05664 l -15.136719,5.00488 z"
           style=""
           id="path4295" />
        <path
           d="m 105.71587,597.71301 q -4.76074,0 -9.155273,-1.34277 -4.333496,-1.28174 -8.117676,-3.72315 -3.723144,-2.50244 -6.835937,-6.04248 -3.051758,-3.60107 -5.249024,-8.17871 l 14.770508,-6.83593 q 2.441406,4.6997 6.042481,7.26318 3.662111,2.56348 8.544921,2.56348 2.56348,0 4.94385,-0.67139 2.38037,-0.73242 4.21142,-2.62451 1.83106,-1.89209 2.92969,-5.18799 1.09863,-3.35693 1.09863,-8.60596 l 0,-55.66406 16.84571,0 0,57.12891 q 0,6.22558 -1.28174,11.04736 -1.28174,4.82178 -3.479,8.36182 -2.19727,3.54003 -5.12696,5.98144 -2.92969,2.38037 -6.28662,3.84522 -3.35693,1.4038 -6.89697,2.01416 -3.54004,0.67138 -6.95801,0.67138 z"
           style=""
           id="path4297" />
        <path
           d="m 191.34819,597.59094 q -6.83593,0 -12.20703,-1.83105 -5.37109,-1.83106 -9.46045,-5.06592 -4.08935,-3.23486 -6.958,-7.56836 -2.86866,-4.3335 -4.69971,-9.33838 -1.77002,-5.06592 -2.62451,-10.49805 -0.79346,-5.43212 -0.79346,-10.86425 0,-5.00489 0.85449,-10.25391 0.85449,-5.31006 2.62451,-10.31494 1.83106,-5.00488 4.69971,-9.46045 2.92969,-4.45557 6.95801,-7.8125 4.08935,-3.35693 9.46045,-5.31006 5.37109,-1.95312 12.14599,-1.95312 6.28663,0 11.41358,1.70898 5.12695,1.70899 9.0332,4.5166 3.90625,2.74658 6.5918,6.28662 2.74658,3.54004 4.21142,7.20215 l -15.13671,6.89697 q -1.58692,-2.4414 -3.23487,-4.39453 -1.64795,-1.95312 -3.54004,-3.23486 -1.89209,-1.34277 -4.21142,-2.01416 -2.2583,-0.73242 -5.12696,-0.73242 -3.6621,0 -6.53076,1.28174 -2.86865,1.2207 -5.00488,3.35693 -2.13623,2.13623 -3.60107,5.00488 -1.46485,2.86865 -2.38038,6.10352 -0.91552,3.17383 -1.34277,6.5918 -0.36621,3.35693 -0.36621,6.53076 0,5.12695 1.09863,10.2539 1.09864,5.12696 3.41797,9.27735 2.31934,4.15039 5.92041,6.7749 3.66211,2.56348 8.78906,2.56348 2.68555,0 4.94385,-0.79346 2.2583,-0.85449 4.15039,-2.31934 1.95313,-1.46484 3.60108,-3.54004 1.70898,-2.07519 3.17383,-4.57763 l 15.50292,5.85937 q -2.07519,4.82178 -5.00488,8.8501 -2.92969,3.96728 -6.83594,6.83594 -3.84521,2.80761 -8.72802,4.39453 -4.88282,1.58691 -10.80323,1.58691 z"
           style=""
           id="path4299" />
      </g>
      <g
         style="font-style:normal;font-variant:normal;font-weight:normal;font-stretch:normal;font-size:45px;line-height:110.00000238%;font-family:Overpass;-inkscape-font-specification:'Overpass, Normal';text-align:start;letter-spacing:0px;word-spacing:0px;writing-mode:lr-tb;text-anchor:start;fill:#222222;fill-opacity:1;stroke:none;stroke-width:1px;stroke-linecap:butt;stroke-linejoin:miter;stroke-opacity:1"
         id="text4270">
        <path
           d="m 16.523488,621.42944 q -0.285645,-0.68115 -0.791016,-1.25244 -0.505371,-0.59326 -1.230469,-1.01074 -0.725097,-0.43945 -1.669922,-0.68115 -0.922851,-0.2417 -2.065429,-0.2417 -2.263184,0 -3.537598,0.98877 -1.2744141,0.98877 -1.2744141,2.79053 0,1.1206 0.703125,1.91162 0.703125,0.76904 1.8457031,1.3623 1.1425782,0.59326 2.592773,1.09863 1.472168,0.4834 2.988282,1.07666 1.538086,0.57129 2.988281,1.34034 1.472168,0.74707 2.614746,1.8457 1.142578,1.07666 1.845703,2.61475 0.703125,1.51611 0.703125,3.64746 0,2.26318 -0.834961,4.02099 -0.812988,1.73584 -2.263183,2.94434 -1.450196,1.18652 -3.427735,1.82373 -1.955566,0.61523 -4.21875,0.61523 -2.1093747,0 -3.9550778,-0.54931 Q 5.7129407,645.2478 4.2188001,644.25903 2.7466321,643.24829 1.6699719,641.84204 0.59331179,640.41382 5.0067902e-5,638.65601 L 4.416554,637.052 q 0.4833984,1.05469 1.1865234,1.9336 0.7250977,0.8789 1.6479492,1.51611 0.9228516,0.61523 2.0214844,0.9668 1.120605,0.35156 2.39502,0.35156 1.274414,0 2.329101,-0.30762 1.054688,-0.30762 1.801758,-0.92285 0.74707,-0.61523 1.164551,-1.51611 0.41748,-0.92286 0.41748,-2.10938 0,-1.40625 -0.703125,-2.35107 -0.703125,-0.9668 -1.845703,-1.66992 -1.142578,-0.70313 -2.614746,-1.23047 -1.450195,-0.52735 -2.9882813,-1.07666 -1.5161133,-0.54932 -2.9882813,-1.23047 -1.4501953,-0.68115 -2.5927734,-1.66992 -1.1425781,-0.98877 -1.8457031,-2.37305 -0.703125,-1.38428 -0.703125,-3.38379 0,-1.66992 0.6591797,-3.16406 0.6811523,-1.49414 1.9555664,-2.61475 1.274414,-1.14258 3.1420898,-1.80176 1.8676758,-0.65918 4.2626952,-0.65918 1.999512,0 3.625488,0.4834 1.625977,0.46143 2.834473,1.29639 1.230469,0.83496 2.043457,1.97754 0.812988,1.14258 1.230469,2.48291 l -4.328613,1.45019 z"
           style=""
           id="path4302" />
        <path
           d="m 45.922902,645.77515 -4.482422,0 0,-1.97754 q -0.439453,0.46142 -1.054688,0.92285 -0.615234,0.43945 -1.40625,0.81299 -0.769043,0.35156 -1.73584,0.57129 -0.966796,0.21972 -2.109375,0.21972 -1.757812,0 -3.251953,-0.4834 -1.49414,-0.48339 -2.592773,-1.45019 -1.098633,-0.98877 -1.73584,-2.41699 -0.615234,-1.4502 -0.615234,-3.36182 0,-1.97754 0.74707,-3.40576 0.74707,-1.4502 1.977539,-2.37305 1.230469,-0.94482 2.8125,-1.38428 1.604004,-0.43945 3.295898,-0.43945 1.582032,0 3.032227,0.35156 1.472168,0.32959 2.636719,1.01075 l 0,-1.27442 q 0,-1.29638 -0.307617,-2.19726 -0.285645,-0.90088 -0.900879,-1.4502 -0.593262,-0.57129 -1.516114,-0.81299 -0.922851,-0.26367 -2.197265,-0.26367 -2.153321,0 -3.735352,0.57129 -1.560058,0.57129 -2.834472,1.51611 l -1.384278,-3.84521 q 0.703125,-0.4834 1.604004,-0.90088 0.900879,-0.43945 1.977539,-0.76904 1.07666,-0.32959 2.329102,-0.50537 1.252441,-0.19776 2.680664,-0.19776 0.966797,0 1.999512,0.10986 1.032714,0.10987 1.999511,0.43946 0.98877,0.30762 1.845703,0.90088 0.878907,0.59326 1.516114,1.56006 0.659179,0.94482 1.032714,2.3291 0.373536,1.38427 0.373536,3.2959 l 0,14.89746 z m -9.931641,-3.60352 q 1.779785,0 3.14209,-0.7251 1.384277,-0.72509 2.307129,-1.73584 l 0,-3.51562 q -0.966797,-0.50537 -2.263184,-0.81299 -1.296387,-0.30762 -2.658691,-0.30762 -1.054688,0 -1.977539,0.19776 -0.922852,0.19775 -1.625977,0.6372 -0.681152,0.41748 -1.07666,1.09864 -0.395508,0.65918 -0.395508,1.604 0,1.64795 1.142578,2.61475 1.164551,0.94482 3.405762,0.94482 z"
           style=""
           id="path4304" />
        <path
           d="m 66.511281,645.77515 0,-13.73291 q 0,-1.4502 -0.351563,-2.46094 -0.351562,-1.03272 -0.966797,-1.66992 -0.615234,-0.65918 -1.450195,-0.94483 -0.834961,-0.30761 -1.823731,-0.30761 -1.054687,0 -1.955566,0.28564 -0.900879,0.26367 -1.560059,0.87891 -0.659179,0.61523 -1.054687,1.64795 -0.373535,1.01074 -0.373535,2.48291 l 0,13.8208 -4.680176,0 0,-23.00537 4.680176,0 0,2.21923 q 1.120605,-1.42822 2.570801,-2.0874 1.450195,-0.65918 3.361816,-0.65918 1.801758,0 3.317871,0.52735 1.516113,0.50537 2.614746,1.66992 1.120606,1.16455 1.73584,3.03222 0.615234,1.86768 0.615234,4.57032 l 0,13.73291 -4.680175,0 z"
           style=""
           id="path4306" />
        <path
           d="m 95.800831,646.32446 q -1.691894,0 -3.208007,-0.3955 -1.516114,-0.37354 -2.8125,-1.12061 -1.274415,-0.74707 -2.285157,-1.8457 -1.010742,-1.12061 -1.691894,-2.59278 l 4.064941,-1.97754 q 0.834961,1.77979 2.351074,2.61475 1.516114,0.81299 3.581543,0.81299 1.120606,0 2.153321,-0.28565 1.054687,-0.28564 1.845703,-1.07666 0.812985,-0.79101 1.296385,-2.19726 0.50537,-1.42822 0.50537,-3.69141 l 0,-20.30273 4.68018,0 0,20.93994 q 0,2.19726 -0.46143,3.88916 -0.43945,1.66992 -1.20849,2.92236 -0.74707,1.23047 -1.77979,2.06543 -1.03271,0.81299 -2.19726,1.31836 -1.164555,0.50537 -2.416996,0.70313 -1.230469,0.21972 -2.416993,0.21972 z"
           style=""
           id="path4308" />
        <path
           d="m 122.8272,646.32446 q -2.41699,0 -4.37256,-0.81299 -1.93359,-0.81298 -3.2959,-2.35107 -1.3623,-1.56006 -2.10937,-3.7793 -0.7251,-2.24121 -0.7251,-5.07568 0,-2.83447 0.7251,-5.07568 0.74707,-2.24121 2.10937,-3.7793 1.36231,-1.56006 3.2959,-2.37305 1.95557,-0.83496 4.37256,-0.83496 2.39502,0 4.35058,0.83496 1.95557,0.81299 3.31788,2.37305 1.3623,1.53809 2.10937,3.7793 0.74707,2.24121 0.74707,5.07568 0,2.83447 -0.74707,5.07568 -0.74707,2.21924 -2.10937,3.7793 -1.36231,1.53809 -3.31788,2.35107 -1.95556,0.81299 -4.35058,0.81299 z m 0,-4.4165 q 1.34033,0 2.41699,-0.52734 1.09863,-0.52735 1.8457,-1.49415 0.76905,-0.98876 1.16455,-2.39501 0.41749,-1.40625 0.41749,-3.18604 0,-1.77979 -0.41749,-3.18604 -0.3955,-1.42822 -1.16455,-2.41699 -0.74707,-0.98877 -1.8457,-1.51611 -1.07666,-0.52734 -2.41699,-0.52734 -1.34033,0 -2.41699,0.52734 -1.07666,0.52734 -1.84571,1.51611 -0.74707,0.98877 -1.16455,2.41699 -0.39551,1.40625 -0.39551,3.18604 0,1.77979 0.39551,3.18604 0.41748,1.40625 1.16455,2.39501 0.76905,0.9668 1.84571,1.49415 1.07666,0.52734 2.41699,0.52734 z"
           style=""
           id="path4310" />
        <path
           d="m 146.0523,646.32446 q -1.36231,0 -2.6587,-0.26367 -1.29638,-0.26367 -2.43896,-0.74707 -1.12061,-0.4834 -2.04346,-1.16455 -0.92285,-0.70313 -1.53808,-1.56006 l 3.31787,-2.83447 q 0.35156,0.32959 0.85693,0.74707 0.50537,0.39551 1.16455,0.74707 0.65918,0.35156 1.47217,0.59326 0.81299,0.2417 1.77979,0.2417 0.8789,0 1.62597,-0.13184 0.74707,-0.13183 1.27442,-0.41748 0.54931,-0.28564 0.83496,-0.74707 0.30761,-0.48339 0.30761,-1.18652 0,-0.81299 -0.57128,-1.38428 -0.54932,-0.59326 -1.4502,-1.05468 -0.90088,-0.4834 -2.04346,-0.90088 -1.14258,-0.43946 -2.30713,-0.92286 -1.07666,-0.46142 -2.10937,-1.01074 -1.03272,-0.54931 -1.8457,-1.31836 -0.79102,-0.76904 -1.29639,-1.82373 -0.4834,-1.07666 -0.4834,-2.59277 0,-1.53809 0.61524,-2.72461 0.6372,-1.18652 1.71386,-1.97754 1.09864,-0.81299 2.54883,-1.23047 1.47217,-0.41748 3.14209,-0.41748 1.47217,0 2.70264,0.28565 1.25244,0.28564 2.24121,0.76904 1.01074,0.4834 1.77978,1.1206 0.76905,0.61524 1.34034,1.29639 l -3.38379,2.68067 q -0.30762,-0.30762 -0.74707,-0.63721 -0.41748,-0.35156 -0.98877,-0.63721 -0.57129,-0.28564 -1.29639,-0.46142 -0.7251,-0.19776 -1.64795,-0.19776 -1.49414,0 -2.37305,0.54932 -0.85693,0.54931 -0.85693,1.58203 0,0.65918 0.46143,1.16455 0.46142,0.4834 1.25244,0.90088 0.79101,0.41748 1.80175,0.81299 1.03272,0.37353 2.15333,0.81299 1.18652,0.46142 2.3291,1.03271 1.14257,0.57129 2.02148,1.40625 0.90088,0.83496 1.42822,2.02148 0.54932,1.18653 0.54932,2.85645 0,1.64795 -0.61523,2.92236 -0.61524,1.25244 -1.75782,2.10938 -1.1206,0.83496 -2.72461,1.25244 -1.58203,0.43945 -3.53759,0.43945 z"
           style=""
           id="path4312" />
        <path
           d="m 169.62896,646.32446 q -2.39502,0 -4.32862,-0.81299 -1.93359,-0.83496 -3.2959,-2.37304 -1.3623,-1.56006 -2.10937,-3.80127 -0.7251,-2.24121 -0.7251,-5.07569 0,-2.83447 0.74707,-5.05371 0.74707,-2.24121 2.10938,-3.77929 1.38427,-1.56006 3.2959,-2.37305 1.93359,-0.81299 4.30664,-0.81299 2.04345,0 3.82324,0.65918 1.80176,0.63721 3.14209,1.97754 1.3623,1.31836 2.13135,3.33984 0.79101,2.02149 0.79101,4.76807 0,0.74707 -0.0439,1.58203 -0.022,0.83496 -0.13184,1.4502 l -15.49072,0 q 0.022,1.42822 0.50537,2.5708 0.50537,1.1206 1.31836,1.93359 0.81299,0.79102 1.8457,1.23047 1.03272,0.41748 2.15332,0.41748 1.42822,0 2.63672,-0.59326 1.23047,-0.59326 2.13135,-1.73584 l 3.0542,3.14209 q -1.25244,1.49414 -3.20801,2.41699 -1.95557,0.92285 -4.6582,0.92285 z m 0,-19.95117 q -1.09864,0 -2.10938,0.32959 -1.01074,0.30762 -1.80176,1.01074 -0.76904,0.68116 -1.27441,1.80176 -0.50537,1.12061 -0.59326,2.72461 l 10.98633,0 q -0.0439,-1.604 -0.50538,-2.72461 -0.46142,-1.1206 -1.20849,-1.80176 -0.74707,-0.70312 -1.66992,-1.01074 -0.90088,-0.32959 -1.82373,-0.32959 z m -0.85694,-6.52588 -4.76806,0 6.37207,-7.00928 6.39404,0 -7.99805,7.00928 z"
           style=""
           id="path4314" />
        <path
           d="m 183.38384,651.00464 q 0.30762,-0.26367 0.7251,-0.76904 0.43945,-0.4834 0.85693,-1.12061 0.41748,-0.61523 0.7251,-1.34033 0.32959,-0.70313 0.43945,-1.4502 -0.59326,-0.0659 -1.14258,-0.30761 -0.54931,-0.2417 -0.96679,-0.65918 -0.39551,-0.41748 -0.65918,-0.9668 -0.2417,-0.54932 -0.2417,-1.23047 0,-0.76904 0.26367,-1.38428 0.28564,-0.6372 0.7251,-1.07666 0.46142,-0.46142 1.05468,-0.70312 0.61524,-0.2417 1.27442,-0.2417 0.70312,0 1.34033,0.26367 0.65918,0.2417 1.14258,0.74707 0.50537,0.50537 0.79101,1.27441 0.28565,0.76905 0.28565,1.80176 0,1.29639 -0.39551,2.52686 -0.37353,1.23047 -1.03271,2.28515 -0.65918,1.07666 -1.56006,1.95557 -0.87891,0.90088 -1.86768,1.51611 l -1.75781,-1.1206 z"
           style=""
           id="path4316" />
        <path
           d="m 217.94683,646.32446 q -2.43897,0 -4.37256,-0.65918 -1.91162,-0.68115 -3.36182,-1.82373 -1.45019,-1.16455 -2.48291,-2.72461 -1.01074,-1.58203 -1.64795,-3.38379 -0.6372,-1.82373 -0.94482,-3.77929 -0.28565,-1.97754 -0.28565,-3.93311 0,-1.80176 0.28565,-3.71338 0.30762,-1.91162 0.94482,-3.71338 0.65918,-1.82373 1.6919,-3.42773 1.03271,-1.604 2.48291,-2.8125 1.45019,-1.2085 3.36181,-1.91162 1.91163,-0.70313 4.32862,-0.70313 2.21924,0 3.99902,0.54932 1.77979,0.52734 3.09815,1.40625 1.34033,0.87891 2.24121,1.99951 0.90088,1.12061 1.38427,2.28516 l -4.28466,1.99951 q -0.57129,-0.90088 -1.2085,-1.58203 -0.61523,-0.70313 -1.38428,-1.18652 -0.74707,-0.4834 -1.69189,-0.7251 -0.94483,-0.2417 -2.15332,-0.2417 -1.58203,0 -2.8125,0.50537 -1.2085,0.50537 -2.13135,1.38428 -0.90088,0.8789 -1.53809,2.04345 -0.6372,1.16455 -1.03271,2.48291 -0.37354,1.29639 -0.54932,2.68067 -0.17578,1.38428 -0.17578,2.68066 0,2.0874 0.46143,4.19678 0.4834,2.10937 1.49414,3.80127 1.01074,1.69189 2.5708,2.74658 1.56006,1.05469 3.71338,1.05469 1.16455,0 2.0874,-0.28565 0.94482,-0.30761 1.71387,-0.83496 0.79101,-0.54931 1.40625,-1.29638 0.6372,-0.74707 1.18652,-1.64795 l 4.37256,1.66992 q -0.65918,1.53808 -1.64795,2.8125 -0.9668,1.27441 -2.30713,2.17529 -1.31836,0.90088 -3.03223,1.40625 -1.69189,0.50537 -3.77929,0.50537 z"
           style=""
           id="path4318" />
        <path
           d="m 252.2022,645.77515 -4.48242,0 0,-1.97754 q -0.43946,0.46142 -1.05469,0.92285 -0.61524,0.43945 -1.40625,0.81299 -0.76904,0.35156 -1.73584,0.57129 -0.9668,0.21972 -2.10938,0.21972 -1.75781,0 -3.25195,-0.4834 -1.49414,-0.48339 -2.59277,-1.45019 -1.09864,-0.98877 -1.73584,-2.41699 -0.61524,-1.4502 -0.61524,-3.36182 0,-1.97754 0.74707,-3.40576 0.74707,-1.4502 1.97754,-2.37305 1.23047,-0.94482 2.8125,-1.38428 1.60401,-0.43945 3.2959,-0.43945 1.58203,0 3.03223,0.35156 1.47217,0.32959 2.63672,1.01075 l 0,-1.27442 q 0,-1.29638 -0.30762,-2.19726 -0.28565,-0.90088 -0.90088,-1.4502 -0.59326,-0.57129 -1.51611,-0.81299 -0.92285,-0.26367 -2.19727,-0.26367 -2.15332,0 -3.73535,0.57129 -1.56006,0.57129 -2.83447,1.51611 l -1.38428,-3.84521 q 0.70313,-0.4834 1.604,-0.90088 0.90088,-0.43945 1.97754,-0.76904 1.07666,-0.32959 2.3291,-0.50537 1.25245,-0.19776 2.68067,-0.19776 0.9668,0 1.99951,0.10986 1.03272,0.10987 1.99951,0.43946 0.98877,0.30762 1.84571,0.90088 0.8789,0.59326 1.51611,1.56006 0.65918,0.94482 1.03271,2.3291 0.37354,1.38427 0.37354,3.2959 l 0,14.89746 z m -9.93164,-3.60352 q 1.77978,0 3.14209,-0.7251 1.38428,-0.72509 2.30713,-1.73584 l 0,-3.51562 q -0.9668,-0.50537 -2.26319,-0.81299 -1.29638,-0.30762 -2.65869,-0.30762 -1.05469,0 -1.97754,0.19776 -0.92285,0.19775 -1.62597,0.6372 -0.68116,0.41748 -1.07666,1.09864 -0.39551,0.65918 -0.39551,1.604 0,1.64795 1.14258,2.61475 1.16455,0.94482 3.40576,0.94482 z"
           style=""
           id="path4320" />
        <path
           d="m 258.794,645.77515 0,-30.27832 4.68017,-2.21924 0,32.49756 -4.68017,0 z"
           style=""
           id="path4322" />
        <path
           d="m 270.48345,645.77515 0,-23.00537 4.68017,0 0,23.00537 -4.68017,0 z m 2.3291,-26.58692 q -0.59326,0 -1.12061,-0.21972 -0.50537,-0.21973 -0.90087,-0.59327 -0.37354,-0.3955 -0.59327,-0.90087 -0.21972,-0.52735 -0.21972,-1.12061 0,-0.59326 0.21972,-1.09863 0.21973,-0.52735 0.59327,-0.90088 0.3955,-0.39551 0.90087,-0.61524 0.52735,-0.21972 1.12061,-0.21972 0.59326,0 1.09863,0.21972 0.52735,0.21973 0.90088,0.61524 0.39551,0.37353 0.61524,0.90088 0.21972,0.50537 0.21972,1.09863 0,0.59326 -0.21972,1.12061 -0.21973,0.50537 -0.61524,0.90087 -0.37353,0.37354 -0.90088,0.59327 -0.50537,0.21972 -1.09863,0.21972 z"
           style=""
           id="path4324" />
        <path
           d="m 288.23735,626.83472 0,18.94043 -4.68017,0 0,-18.94043 -3.40576,0 0,-4.06494 3.40576,0 0,-3.66944 q 0,-1.58203 0.46142,-2.61474 0.46143,-1.05469 1.18653,-1.64795 0.74707,-0.61524 1.69189,-0.85694 0.94483,-0.2417 1.9336,-0.2417 1.3623,0 2.46093,0.28565 1.09864,0.28564 2.13135,0.79101 l 0,3.86719 q -1.05469,-0.43945 -1.82373,-0.61523 -0.76904,-0.19776 -1.47217,-0.19776 -0.57129,0 -0.94482,0.15381 -0.35156,0.15381 -0.57129,0.43945 -0.21973,0.28565 -0.30762,0.65918 -0.0659,0.37354 -0.0659,0.81299 l 0,2.83448 5.18555,0 0,4.06494 -5.18555,0 z"
           style=""
           id="path4326" />
        <path
           d="m 306.43071,646.32446 q -2.41699,0 -4.37255,-0.81299 -1.9336,-0.81298 -3.2959,-2.35107 -1.36231,-1.56006 -2.10938,-3.7793 -0.7251,-2.24121 -0.7251,-5.07568 0,-2.83447 0.7251,-5.07568 0.74707,-2.24121 2.10938,-3.7793 1.3623,-1.56006 3.2959,-2.37305 1.95556,-0.83496 4.37255,-0.83496 2.39502,0 4.35059,0.83496 1.95557,0.81299 3.31787,2.37305 1.36231,1.53809 2.10938,3.7793 0.74707,2.24121 0.74707,5.07568 0,2.83447 -0.74707,5.07568 -0.74707,2.21924 -2.10938,3.7793 -1.3623,1.53809 -3.31787,2.35107 -1.95557,0.81299 -4.35059,0.81299 z m 0,-4.4165 q 1.34034,0 2.417,-0.52734 1.09863,-0.52735 1.8457,-1.49415 0.76904,-0.98876 1.16455,-2.39501 0.41748,-1.40625 0.41748,-3.18604 0,-1.77979 -0.41748,-3.18604 -0.39551,-1.42822 -1.16455,-2.41699 -0.74707,-0.98877 -1.8457,-1.51611 -1.07666,-0.52734 -2.417,-0.52734 -1.34033,0 -2.41699,0.52734 -1.07666,0.52734 -1.8457,1.51611 -0.74707,0.98877 -1.16455,2.41699 -0.39551,1.40625 -0.39551,3.18604 0,1.77979 0.39551,3.18604 0.41748,1.40625 1.16455,2.39501 0.76904,0.9668 1.8457,1.49415 1.07666,0.52734 2.41699,0.52734 z"
           style=""
           id="path4328" />
        <path
           d="m 322.55864,645.77515 0,-23.00537 4.68018,0 0,2.79052 q 0.81299,-1.75781 2.10937,-2.52685 1.29639,-0.79102 3.01026,-0.79102 2.28515,0 3.86719,1.38428 l -0.68116,4.32861 q -0.6372,-0.43945 -1.51611,-0.76904 -0.85693,-0.35156 -2.10937,-0.35156 -0.79102,0 -1.62598,0.28564 -0.81299,0.26367 -1.49414,0.9668 -0.68115,0.68115 -1.12061,1.8457 -0.43945,1.14258 -0.43945,2.92236 l 0,12.91993 -4.68018,0 z"
           style=""
           id="path4330" />
        <path
           d="m 354.96831,645.77515 0,-13.73291 q 0,-1.4502 -0.35156,-2.46094 -0.35156,-1.03272 -0.9668,-1.66992 -0.61523,-0.65918 -1.45019,-0.94483 -0.83496,-0.30761 -1.82373,-0.30761 -1.05469,0 -1.95557,0.28564 -0.90088,0.26367 -1.56006,0.87891 -0.65918,0.61523 -1.05469,1.64795 -0.37353,1.01074 -0.37353,2.48291 l 0,13.8208 -4.68018,0 0,-23.00537 4.68018,0 0,2.21923 q 1.1206,-1.42822 2.5708,-2.0874 1.4502,-0.65918 3.36182,-0.65918 1.80175,0 3.31787,0.52735 1.51611,0.50537 2.61474,1.66992 1.12061,1.16455 1.73584,3.03222 0.61524,1.86768 0.61524,4.57032 l 0,13.73291 -4.68018,0 z"
           style=""
           id="path4332" />
        <path
           d="m 366.19634,645.77515 0,-23.00537 4.68017,0 0,23.00537 -4.68017,0 z m 2.3291,-26.58692 q -0.59326,0 -1.1206,-0.21972 -0.50538,-0.21973 -0.90088,-0.59327 -0.37354,-0.3955 -0.59327,-0.90087 -0.21972,-0.52735 -0.21972,-1.12061 0,-0.59326 0.21972,-1.09863 0.21973,-0.52735 0.59327,-0.90088 0.3955,-0.39551 0.90088,-0.61524 0.52734,-0.21972 1.1206,-0.21972 0.59326,0 1.09863,0.21972 0.52735,0.21973 0.90088,0.61524 0.39551,0.37353 0.61524,0.90088 0.21972,0.50537 0.21972,1.09863 0,0.59326 -0.21972,1.12061 -0.21973,0.50537 -0.61524,0.90087 -0.37353,0.37354 -0.90088,0.59327 -0.50537,0.21972 -1.09863,0.21972 z"
           style=""
           id="path4334" />
        <path
           d="m 395.28814,645.77515 -4.48243,0 0,-1.97754 q -0.43945,0.46142 -1.05468,0.92285 -0.61524,0.43945 -1.40625,0.81299 -0.76905,0.35156 -1.73584,0.57129 -0.9668,0.21972 -2.10938,0.21972 -1.75781,0 -3.25195,-0.4834 -1.49414,-0.48339 -2.59277,-1.45019 -1.09864,-0.98877 -1.73584,-2.41699 -0.61524,-1.4502 -0.61524,-3.36182 0,-1.97754 0.74707,-3.40576 0.74707,-1.4502 1.97754,-2.37305 1.23047,-0.94482 2.8125,-1.38428 1.604,-0.43945 3.2959,-0.43945 1.58203,0 3.03223,0.35156 1.47216,0.32959 2.63671,1.01075 l 0,-1.27442 q 0,-1.29638 -0.30761,-2.19726 -0.28565,-0.90088 -0.90088,-1.4502 -0.59326,-0.57129 -1.51612,-0.81299 -0.92285,-0.26367 -2.19726,-0.26367 -2.15332,0 -3.73535,0.57129 -1.56006,0.57129 -2.83448,1.51611 l -1.38427,-3.84521 q 0.70312,-0.4834 1.604,-0.90088 0.90088,-0.43945 1.97754,-0.76904 1.07666,-0.32959 2.3291,-0.50537 1.25244,-0.19776 2.68067,-0.19776 0.96679,0 1.99951,0.10986 1.03271,0.10987 1.99951,0.43946 0.98877,0.30762 1.8457,0.90088 0.87891,0.59326 1.51612,1.56006 0.65918,0.94482 1.03271,2.3291 0.37354,1.38427 0.37354,3.2959 l 0,14.89746 z m -9.93164,-3.60352 q 1.77978,0 3.14209,-0.7251 1.38427,-0.72509 2.30712,-1.73584 l 0,-3.51562 q -0.96679,-0.50537 -2.26318,-0.81299 -1.29639,-0.30762 -2.65869,-0.30762 -1.05469,0 -1.97754,0.19776 -0.92285,0.19775 -1.62598,0.6372 -0.68115,0.41748 -1.07666,1.09864 -0.3955,0.65918 -0.3955,1.604 0,1.64795 1.14257,2.61475 1.16455,0.94482 3.40577,0.94482 z"
           style=""
           id="path4336" />
      </g>
    </g>
  </g>
  <g
     inkscape:groupmode="layer"
     id="layer4"
     inkscape:label="Date"
     transform="translate(-83.593487,0.57716721)">
    <g
       style="font-style:normal;font-variant:normal;font-weight:300;font-stretch:normal;font-size:15px;line-height:125%;font-family:Overpass;-inkscape-font-specification:'Overpass, Light';text-align:start;letter-spacing:0px;word-spacing:0px;writing-mode:lr-tb;text-anchor:start;fill:#222222;fill-opacity:1;stroke:none;stroke-width:1px;stroke-linecap:butt;stroke-linejoin:miter;stroke-opacity:1"
       id="text4262">
      <path
         d="m 648.4464,35.102833 0,-8.595 -1.785,0 0,-0.6 q 0.795,0 1.35,-0.27 0.555,-0.285 0.81,-1.035 l 0.675,0 0,10.5 -1.05,0 z"
         style=""
         id="path4339" />
      <path
         d="m 655.45117,35.282833 q -0.855,0 -1.515,-0.315 -0.645,-0.315 -1.095,-0.855 -0.435,-0.555 -0.66,-1.29 -0.21,-0.75 -0.21,-1.605 0,-1.125 0.405,-2.205 0.42,-1.095 1.14,-2.01 0.72,-0.93 1.695,-1.605 0.99,-0.69 2.13,-0.975 l 0,0.825 q -0.75,0.225 -1.44,0.675 -0.675,0.45 -1.23,1.035 -0.54,0.585 -0.915,1.26 -0.375,0.66 -0.495,1.335 0.39,-0.465 1.005,-0.705 0.63,-0.255 1.44,-0.255 0.645,0 1.215,0.285 0.57,0.27 0.99,0.72 0.42,0.45 0.66,1.035 0.24,0.57 0.24,1.17 0,0.735 -0.27,1.38 -0.27,0.63 -0.735,1.095 -0.45,0.465 -1.065,0.735 -0.6,0.27 -1.29,0.27 z m -0.045,-5.76 q -0.525,0 -0.975,0.18 -0.435,0.18 -0.75,0.51 -0.315,0.315 -0.495,0.765 -0.18,0.45 -0.18,0.975 0,0.51 0.18,0.945 0.195,0.435 0.51,0.765 0.33,0.315 0.765,0.495 0.435,0.18 0.945,0.18 0.54,0 0.975,-0.18 0.45,-0.18 0.765,-0.495 0.315,-0.33 0.48,-0.765 0.18,-0.435 0.18,-0.945 0,-0.525 -0.165,-0.975 -0.165,-0.45 -0.48,-0.765 -0.315,-0.33 -0.765,-0.51 -0.435,-0.18 -0.99,-0.18 z"
         style=""
         id="path4341" />
      <path
         d="m 671.25226,35.102833 -5.31,-8.535 0,8.535 -1.05,0 0,-10.5 1.065,0 5.31,8.655 0,-8.655 1.05,0 0,10.5 -1.065,0 z"
         style=""
         id="path4343" />
      <path
         d="m 678.00343,34.337833 q 1.05,0 1.62,-0.81 0.57,-0.81 0.57,-2.265 0,-1.44 -0.555,-2.25 -0.555,-0.81 -1.635,-0.81 -1.08,0 -1.635,0.795 -0.555,0.78 -0.555,2.28 0,1.44 0.555,2.25 0.555,0.81 1.635,0.81 z m 0,-7.08 q 0.735,0 1.335,0.27 0.615,0.27 1.035,0.78 0.435,0.51 0.675,1.26 0.24,0.735 0.24,1.695 0,0.945 -0.24,1.695 -0.24,0.75 -0.675,1.275 -0.42,0.51 -1.035,0.78 -0.6,0.27 -1.335,0.27 -0.735,0 -1.35,-0.27 -0.6,-0.27 -1.035,-0.78 -0.42,-0.51 -0.66,-1.245 -0.24,-0.75 -0.24,-1.71 0,-0.945 0.24,-1.68 0.24,-0.75 0.66,-1.26 0.435,-0.525 1.035,-0.795 0.615,-0.285 1.35,-0.285 z"
         style=""
         id="path4345" />
      <path
         d="m 685.8557,35.102833 -0.735,0 -2.805,-7.665 1.08,0 2.13,5.985 2.085,-5.985 1.05,0 -2.805,7.665 z"
         style=""
         id="path4347" />
      <path
         d="m 693.79632,35.102833 q 0,-0.99 0.285,-1.695 0.285,-0.72 0.735,-1.26 0.45,-0.54 1.02,-0.945 0.57,-0.405 1.14,-0.795 0.495,-0.33 0.945,-0.645 0.45,-0.33 0.795,-0.69 0.36,-0.36 0.57,-0.765 0.21,-0.42 0.21,-0.93 0,-0.855 -0.6,-1.425 -0.585,-0.585 -1.68,-0.585 -1.065,0 -1.605,0.48 -0.54,0.465 -0.735,1.215 l -0.93,-0.42 q 0.12,-0.465 0.405,-0.87 0.285,-0.405 0.72,-0.705 0.435,-0.3 0.99,-0.465 0.57,-0.18 1.245,-0.18 1.56,0 2.415,0.81 0.87,0.795 0.87,2.145 0,0.72 -0.285,1.275 -0.27,0.555 -0.72,1.02 -0.435,0.45 -0.99,0.84 -0.555,0.375 -1.125,0.735 -0.45,0.3 -0.87,0.6 -0.42,0.285 -0.78,0.63 -0.345,0.33 -0.585,0.735 -0.24,0.39 -0.33,0.885 l 5.775,0 0,1.005 -6.885,0 z"
         style=""
         id="path4349" />
      <path
         d="m 706.37546,35.282833 q -1.035,0 -1.725,-0.48 -0.69,-0.48 -1.11,-1.245 -0.405,-0.78 -0.585,-1.74 -0.18,-0.975 -0.18,-1.965 0,-0.54 0.06,-1.155 0.06,-0.63 0.21,-1.23 0.165,-0.6 0.42,-1.155 0.27,-0.555 0.675,-0.975 0.405,-0.42 0.945,-0.66 0.555,-0.255 1.29,-0.255 1.035,0 1.725,0.495 0.69,0.48 1.095,1.26 0.42,0.78 0.6,1.755 0.18,0.96 0.18,1.92 0,0.555 -0.075,1.17 -0.06,0.615 -0.225,1.23 -0.15,0.6 -0.42,1.155 -0.255,0.54 -0.66,0.96 -0.405,0.42 -0.96,0.675 -0.54,0.24 -1.26,0.24 z m 0,-0.945 q 0.78,0 1.26,-0.42 0.495,-0.435 0.765,-1.095 0.27,-0.66 0.36,-1.455 0.09,-0.795 0.09,-1.515 0,-0.81 -0.105,-1.605 -0.105,-0.81 -0.39,-1.44 -0.285,-0.645 -0.765,-1.035 -0.48,-0.405 -1.215,-0.405 -0.795,0 -1.29,0.435 -0.48,0.435 -0.75,1.095 -0.27,0.66 -0.375,1.455 -0.09,0.78 -0.09,1.5 0,0.825 0.105,1.635 0.105,0.795 0.39,1.44 0.285,0.63 0.765,1.02 0.495,0.39 1.245,0.39 z"
         style=""
         id="path4351" />
      <path
         d="m 713.39757,35.102833 0,-8.595 -1.785,0 0,-0.6 q 0.795,0 1.35,-0.27 0.555,-0.285 0.81,-1.035 l 0.675,0 0,10.5 -1.05,0 z"
         style=""
         id="path4353" />
      <path
         d="m 718.48234,35.102833 q 0.015,-1.23 0.15,-2.43 0.15,-1.2 0.51,-2.385 0.375,-1.185 0.99,-2.37 0.615,-1.2 1.575,-2.415 l -5.085,0 0,-0.9 6.285,0 0,0.69 q -1.095,1.26 -1.755,2.595 -0.66,1.32 -1.02,2.61 -0.36,1.275 -0.48,2.46 -0.12,1.185 -0.12,2.145 l -1.05,0 z"
         style=""
         id="path4355" />
    </g>
  </g>
</svg>
