<?xml version="1.0" encoding="UTF-8" standalone="no"?>
<!-- Created with Inkscape (http://www.inkscape.org/) -->

<svg
   xmlns:dc="http://purl.org/dc/elements/1.1/"
   xmlns:cc="http://creativecommons.org/ns#"
   xmlns:rdf="http://www.w3.org/1999/02/22-rdf-syntax-ns#"
   xmlns:svg="http://www.w3.org/2000/svg"
   xmlns="http://www.w3.org/2000/svg"
   xmlns:sodipodi="http://sodipodi.sourceforge.net/DTD/sodipodi-0.dtd"
   xmlns:inkscape="http://www.inkscape.org/namespaces/inkscape"
   width="964.74701"
   height="646.01099"
   viewBox="0 0 964.74701 646.01101"
   id="svg2"
   version="1.1"
   inkscape:version="0.91 r13725"
   sodipodi:docname="SJU.svg"
   inkscape:export-filename="C:\Users\paulb\Dropbox\Projects\Terminal Silhouettes\Silhouettes\png\SJU.png"
   inkscape:export-xdpi="90"
   inkscape:export-ydpi="90">
  <sodipodi:namedview
     id="base"
     pagecolor="#ffffff"
     bordercolor="#666666"
     borderopacity="1.0"
     inkscape:pageopacity="1"
     inkscape:pageshadow="2"
     inkscape:zoom="1"
     inkscape:cx="489.50944"
     inkscape:cy="319.197"
     inkscape:document-units="px"
     inkscape:current-layer="layer1"
     showgrid="false"
     units="px"
     fit-margin-top="25"
     fit-margin-left="25"
     fit-margin-right="25"
     fit-margin-bottom="25"
     inkscape:window-width="1920"
     inkscape:window-height="1137"
     inkscape:window-x="1912"
     inkscape:window-y="-8"
     inkscape:window-maximized="1"
     showguides="true"
     inkscape:guide-bbox="true"
     inkscape:snap-smooth-nodes="true"
     inkscape:object-nodes="true" />
  <defs
     id="defs4" />
  <metadata
     id="metadata7">
    <rdf:RDF>
      <cc:Work
         rdf:about="">
        <dc:format>image/svg+xml</dc:format>
        <dc:type
           rdf:resource="http://purl.org/dc/dcmitype/StillImage" />
        <dc:title></dc:title>
        <dc:description>Terminal silhouette of SJU (San Juan)</dc:description>
        <dc:creator>
          <cc:Agent>
            <dc:title>Paul Bogard</dc:title>
          </cc:Agent>
        </dc:creator>
      </cc:Work>
    </rdf:RDF>
  </metadata>
  <g
     inkscape:groupmode="layer"
     id="layer2"
     inkscape:label="Terminal"
     style="display:inline"
     transform="translate(-1629.0681,-1198.2465)">
    <path
       id="path4148"
       d="m 1983.9071,1389.8193 1.5432,3.6558 -3.7269,1.5731 5.625,13.326 -72.4923,30.5996 4.0482,9.5904 -22.8136,9.6297 1.5115,3.5808 -4.523,1.9092 -0.8751,-2.073 -96.3002,40.6492 3.1902,7.5579 96.3003,-40.6492 21.6724,-9.1481 6.4351,15.2452 7.7266,-3.2615 8.5911,20.353 3.2036,-1.3523 1.6705,3.9575 164.7098,-69.5253 c 15.2557,-6.4396 27.143,9.0224 27.143,9.0224 l 43.8082,56.9816 3.6055,-2.772 14.3101,18.6125 -3.6062,2.7723 11.4454,14.8869 13.4065,-10.3069 -6.3231,-8.2245 26.4749,-11.1752 5.0114,11.8724 3.2528,-1.373 1.6705,3.9575 5.4889,13.0035 -6.663,2.8125 -0.5063,-1.1996 -17.8851,7.5495 -0.7664,-1.8157 -15.4532,6.5229 c 7.9226,18.7692 9.0126,33.1031 9.1299,38.1673 l 0,2.0087 c 0,0 -10e-5,0 -10e-5,0 l 10e-5,131.2599 3.3254,10e-5 a 31.675186,31.675186 0 0 1 -18.6572,28.8333 l 0,11.6186 a 39.632142,39.632142 0 0 0 -32.8242,-17.5277 39.632142,39.632142 0 0 0 -36.5245,24.4566 l -17.5612,0 0,-2.25 -12.3754,0 -2e-4,3.2726 -186.5552,2e-4 -2e-4,26.3877 11.0465,0 -2e-4,3.477 54.8658,10e-5 c 0.1554,4.7528 4.8442,3.4549 4.8442,3.4549 l 12.7286,-3.3272 1e-4,6.6537 a 14.030357,14.030357 0 0 0 14.0305,14.0306 l 7.8104,0 0,-1.8809 12.2947,10e-5 0,-18.9312 58.5022,-2e-4 0,-3.4773 10.5345,0 0,11.1481 9.7597,0 a 14.030357,14.030357 0 0 0 13.92,12.4179 l 12.6652,0 6.4273,12.1502 45.8516,0 12.6247,-23.8661 20.2097,-10e-5 -1e-4,-31.6921 10.3784,0 -2e-4,2.4548 36.8202,0 0,-2.4552 10.2278,0 10e-5,-29.2516 -10e-5,-16.3644 57.8893,1e-4 2e-4,2.966 3.2725,10e-5 0,-2.9661 -1e-4,-2.5573 0,-1.858 150.1445,0 43.8404,-10e-5 0,4.1943 15.766,0 0,-4.1942 9.8361,-2e-4 0,-26.0359 0,-2.4587 -24.0833,-10e-5 0,-3.1824 -10.4628,0 -10e-5,3.1821 -34.8965,-10e-5 -1e-4,2.459 -9.6047,0 2e-4,-5.6411 -7.3772,-10e-5 10e-5,3.1823 -25.5292,-2e-4 1e-4,-3.182 -7.3772,0 0,3.1824 -28.4569,10e-5 0,2.4587 -25.5694,10e-5 0,-3.7097 -6.5962,-10e-5 -5.624,-2.25 -34.0096,-1e-4 -31.5133,-18.0815 -1e-4,-113.5135 34.8482,-14.7097 -1.0125,-2.3987 38.6447,-16.3122 4.0499,9.5944 49.0388,-20.6997 3.4876,8.2622 60.2325,-25.4246 -16.1998,-38.3783 -50.105,21.1497 -10.1275,4.2749 -42.909,18.1122 -6.1299,2.5875 -76.105,-180.2974 22.6581,-9.5641 1.9687,4.664 2.3069,5.4653 6.2188,-2.625 -2.3069,-5.4653 22.709,-9.5857 -4.0569,-9.6111 6.5959,-2.7842 0.9944,2.3557 3.9574,-1.6705 3.0626,7.2554 2.307,5.4653 6.2188,-2.625 -2.307,-5.4653 33.4509,-14.1198 -5.0625,-11.9935 13.3994,-32.974 -18.6665,-7.5854 -10.2807,25.2992 -3.4645,1.4624 -2.3061,-5.4634 -5.3305,2.25 2.3062,5.4635 -22.787,9.6185 -1.8,-4.2642 -10.7939,4.5562 -1.6874,-3.9976 -6.4433,-2.6186 -6.5296,2.7562 -2.6436,-6.2629 -6.9294,2.9249 8.0436,19.0558 -21.8545,9.225 4.7812,11.327 -11.8597,5.0061 -11.9249,-28.2508 -5.5969,2.3624 -2.1374,-5.0637 -103.852,43.8367 -1.5431,-3.6557 -3.5807,1.5114 1.5431,3.6558 -92.2484,38.9388 -1.5432,-3.6558 -3.5807,1.5115 1.5431,3.6558 -86.5951,36.5525 -1.5431,-3.6558 -3.5807,1.5114 z"
       style="opacity:1;fill:#dddddd;fill-opacity:1;stroke:#222222;stroke-width:1.5;stroke-linejoin:miter;stroke-miterlimit:4;stroke-dasharray:none;stroke-dashoffset:0;stroke-opacity:1"
       inkscape:connector-curvature="0" />
  </g>
  <g
     inkscape:groupmode="layer"
     id="layer1"
     inkscape:label="Label"
     transform="translate(-1629.0681,-1198.2465)">
    <g
       id="g4375"
       transform="translate(-90,94.954327)">
      <g
         id="text4322"
         style="font-style:normal;font-variant:normal;font-weight:bold;font-stretch:normal;font-size:125px;line-height:125%;font-family:Overpass;-inkscape-font-specification:'Overpass, Bold';text-align:start;letter-spacing:0px;word-spacing:0px;writing-mode:lr-tb;text-anchor:start;fill:#dddddd;fill-opacity:1;stroke:#222222;stroke-width:0.25;stroke-linecap:butt;stroke-linejoin:miter;stroke-miterlimit:4;stroke-dasharray:none;stroke-opacity:1">
        <path
           id="path4369"
           d="m 1791.2227,1153.6858 q -0.7935,-1.9531 -2.1363,-3.6621 -1.3427,-1.709 -3.2348,-2.9297 -1.8311,-1.2817 -4.2725,-1.9531 -2.3804,-0.7325 -5.3101,-0.7325 -5.4931,0 -8.6059,2.1973 -3.0518,2.1973 -3.0518,6.1646 0,2.6245 1.9532,4.3945 1.9531,1.77 5.1269,3.2349 3.1738,1.4038 7.2022,2.6855 4.0893,1.2817 8.3618,2.8687 4.2724,1.5258 8.3008,3.6621 4.0893,2.0752 7.2631,5.188 3.1739,3.0517 5.127,7.3242 1.9531,4.2114 1.9531,10.1318 0,6.4087 -2.4414,11.3525 -2.4414,4.9439 -6.7139,8.3619 -4.2114,3.4179 -10.0097,5.188 -5.7984,1.77 -12.5122,1.77 -6.1646,0 -11.5357,-1.648 -5.3711,-1.709 -9.7656,-4.8218 -4.3335,-3.1127 -7.5684,-7.5683 -3.2348,-4.4556 -5.1269,-10.0098 l 15.3808,-5.7373 q 1.4039,3.0518 3.357,5.6153 2.0141,2.5024 4.4555,4.3334 2.4415,1.7701 5.2491,2.8077 2.8686,0.9765 6.1035,0.9765 3.1738,0 5.7373,-0.6714 2.6245,-0.6713 4.4556,-2.0141 1.892,-1.3428 2.8686,-3.2959 1.0376,-2.0142 1.0376,-4.6387 0,-3.1738 -1.9531,-5.31 -1.9531,-2.1973 -5.127,-3.7842 -3.1738,-1.648 -7.2632,-2.9297 -4.0283,-1.3428 -8.3007,-2.8076 -4.2115,-1.4649 -8.3008,-3.418 -4.0283,-1.9531 -7.2022,-4.8218 -3.1738,-2.8686 -5.1269,-6.897 -1.9531,-4.0283 -1.9531,-9.7656 0,-4.9438 1.9531,-9.2773 2.0141,-4.3946 5.7983,-7.6905 3.7842,-3.2958 9.2774,-5.1879 5.4931,-1.9532 12.5732,-1.9532 5.9204,0 10.6812,1.5259 4.8217,1.5259 8.4838,4.2725 3.6622,2.6855 6.1646,6.4087 2.5024,3.6621 3.7842,8.0566 l -15.1367,5.0049 z"
           inkscape:connector-curvature="0" />
        <path
           id="path4371"
           d="m 1849.8164,1218.9324 q -4.7607,0 -9.1553,-1.3428 -4.3335,-1.2817 -8.1176,-3.7231 -3.7232,-2.5025 -6.836,-6.0425 -3.0517,-3.6011 -5.249,-8.1787 l 14.7705,-6.836 q 2.4414,4.6997 6.0425,7.2632 3.6621,2.5635 8.5449,2.5635 2.5635,0 4.9439,-0.6714 2.3803,-0.7324 4.2114,-2.6245 1.831,-1.8921 2.9297,-5.188 1.0986,-3.3569 1.0986,-8.606 l 0,-55.664 16.8457,0 0,57.1289 q 0,6.2256 -1.2817,11.0473 -1.2818,4.8218 -3.479,8.3619 -2.1973,3.54 -5.127,5.9814 -2.9297,2.3804 -6.2866,3.8452 -3.3569,1.4038 -6.897,2.0142 -3.54,0.6714 -6.958,0.6714 z"
           inkscape:connector-curvature="0" />
        <path
           id="path4373"
           d="m 1936.4863,1218.9324 q -4.4555,0 -8.8501,-0.7935 -4.3335,-0.7324 -8.2397,-2.4414 -3.9063,-1.709 -7.2632,-4.3945 -3.2959,-2.7466 -5.7373,-6.6529 -2.4414,-3.9062 -3.8452,-9.0332 -1.3428,-5.1269 -1.3428,-11.7187 l 0,-54.0161 16.9067,0 0,54.0161 q 0,5.4321 1.2207,9.0942 1.2818,3.6011 3.6622,5.7373 2.3803,2.1363 5.7983,3.0518 3.418,0.8545 7.6904,0.8545 4.2115,0 7.5684,-0.8545 3.418,-0.9155 5.7983,-3.0518 2.4414,-2.1362 3.7232,-5.7373 1.2817,-3.6621 1.2817,-9.0942 l 0,-54.0161 16.8457,0 0,54.0161 q 0,9.7656 -2.9297,16.4795 -2.9297,6.6528 -7.8735,10.8032 -4.8828,4.0894 -11.2305,5.9204 -6.3476,1.8311 -13.1836,1.8311 z"
           inkscape:connector-curvature="0" />
      </g>
      <g
         id="text4326"
         style="font-style:normal;font-variant:normal;font-weight:normal;font-stretch:normal;font-size:45px;line-height:125%;font-family:Overpass;-inkscape-font-specification:'Overpass, Normal';text-align:start;letter-spacing:0px;word-spacing:0px;writing-mode:lr-tb;text-anchor:start;fill:#222222;fill-opacity:1;stroke:none;stroke-width:1px;stroke-linecap:butt;stroke-linejoin:miter;stroke-opacity:1">
        <path
           id="path4354"
           d="m 1760.624,1241.7478 q -0.2856,-0.6811 -0.791,-1.2524 -0.5054,-0.5933 -1.2305,-1.0108 -0.7251,-0.4394 -1.6699,-0.6811 -0.9228,-0.2417 -2.0654,-0.2417 -2.2632,0 -3.5376,0.9887 -1.2744,0.9888 -1.2744,2.7906 0,1.1206 0.7031,1.9116 0.7031,0.769 1.8457,1.3623 1.1426,0.5933 2.5928,1.0986 1.4721,0.4834 2.9883,1.0767 1.538,0.5713 2.9882,1.3403 1.4722,0.7471 2.6148,1.8457 1.1426,1.0767 1.8457,2.6148 0.7031,1.5161 0.7031,3.6474 0,2.2632 -0.8349,4.021 -0.813,1.7359 -2.2632,2.9444 -1.4502,1.1865 -3.4278,1.8237 -1.9555,0.6152 -4.2187,0.6152 -2.1094,0 -3.9551,-0.5493 -1.8237,-0.5273 -3.3179,-1.5161 -1.4721,-1.0107 -2.5488,-2.417 -1.0767,-1.4282 -1.6699,-3.186 l 4.4165,-1.604 q 0.4834,1.0546 1.1865,1.9336 0.7251,0.8789 1.648,1.5161 0.9228,0.6152 2.0214,0.9668 1.1207,0.3515 2.3951,0.3515 1.2744,0 2.3291,-0.3076 1.0547,-0.3076 1.8017,-0.9228 0.7471,-0.6153 1.1646,-1.5162 0.4175,-0.9228 0.4175,-2.1093 0,-1.4063 -0.7032,-2.3511 -0.7031,-0.9668 -1.8457,-1.6699 -1.1425,-0.7032 -2.6147,-1.2305 -1.4502,-0.5273 -2.9883,-1.0767 -1.5161,-0.5493 -2.9883,-1.2304 -1.4502,-0.6812 -2.5928,-1.6699 -1.1425,-0.9888 -1.8457,-2.3731 -0.7031,-1.3843 -0.7031,-3.3838 0,-1.6699 0.6592,-3.164 0.6812,-1.4942 1.9556,-2.6148 1.2744,-1.1426 3.1421,-1.8017 1.8676,-0.6592 4.2627,-0.6592 1.9995,0 3.6254,0.4834 1.626,0.4614 2.8345,1.2964 1.2305,0.8349 2.0435,1.9775 0.813,1.1426 1.2304,2.4829 l -4.3286,1.4502 z"
           inkscape:connector-curvature="0" />
        <path
           id="path4356"
           d="m 1790.0234,1266.0935 -4.4824,0 0,-1.9775 q -0.4394,0.4614 -1.0547,0.9228 -0.6152,0.4395 -1.4062,0.813 -0.7691,0.3516 -1.7359,0.5713 -0.9668,0.2197 -2.1093,0.2197 -1.7578,0 -3.252,-0.4834 -1.4941,-0.4834 -2.5928,-1.4502 -1.0986,-0.9887 -1.7358,-2.417 -0.6152,-1.4502 -0.6152,-3.3618 0,-1.9775 0.747,-3.4057 0.7471,-1.4502 1.9776,-2.3731 1.2304,-0.9448 2.8125,-1.3843 1.604,-0.4394 3.2959,-0.4394 1.582,0 3.0322,0.3515 1.4722,0.3296 2.6367,1.0108 l 0,-1.2744 q 0,-1.2964 -0.3076,-2.1973 -0.2856,-0.9009 -0.9009,-1.4502 -0.5932,-0.5713 -1.5161,-0.813 -0.9228,-0.2636 -2.1973,-0.2636 -2.1533,0 -3.7353,0.5712 -1.5601,0.5713 -2.8345,1.5162 l -1.3843,-3.8453 q 0.7032,-0.4834 1.604,-0.9008 0.9009,-0.4395 1.9776,-0.7691 1.0766,-0.3296 2.3291,-0.5054 1.2524,-0.1977 2.6806,-0.1977 0.9668,0 1.9996,0.1099 1.0327,0.1098 1.9995,0.4394 0.9887,0.3076 1.8457,0.9009 0.8789,0.5932 1.5161,1.56 0.6592,0.9449 1.0327,2.3291 0.3735,1.3843 0.3735,3.2959 l 0,14.8975 z m -9.9316,-3.6035 q 1.7798,0 3.1421,-0.7251 1.3843,-0.7251 2.3071,-1.7358 l 0,-3.5157 q -0.9668,-0.5053 -2.2632,-0.813 -1.2964,-0.3076 -2.6587,-0.3076 -1.0546,0 -1.9775,0.1978 -0.9228,0.1977 -1.626,0.6372 -0.6811,0.4175 -1.0766,1.0986 -0.3955,0.6592 -0.3955,1.604 0,1.648 1.1425,2.6148 1.1646,0.9448 3.4058,0.9448 z"
           inkscape:connector-curvature="0" />
        <path
           id="path4358"
           d="m 1810.6118,1266.0935 0,-13.7329 q 0,-1.4502 -0.3515,-2.4609 -0.3516,-1.0328 -0.9668,-1.67 -0.6153,-0.6591 -1.4502,-0.9448 -0.835,-0.3076 -1.8238,-0.3076 -1.0547,0 -1.9555,0.2856 -0.9009,0.2637 -1.5601,0.8789 -0.6592,0.6153 -1.0547,1.648 -0.3735,1.0107 -0.3735,2.4829 l 0,13.8208 -4.6802,0 0,-23.0054 4.6802,0 0,2.2193 q 1.1206,-1.4282 2.5708,-2.0874 1.4502,-0.6592 3.3618,-0.6592 1.8018,0 3.3179,0.5273 1.5161,0.5054 2.6147,1.67 1.1206,1.1645 1.7359,3.0322 0.6152,1.8677 0.6152,4.5703 l 0,13.7329 -4.6802,0 z"
           inkscape:connector-curvature="0" />
        <path
           id="path4360"
           d="m 1839.9014,1266.6428 q -1.6919,0 -3.208,-0.3955 -1.5162,-0.3735 -2.8125,-1.1206 -1.2745,-0.7471 -2.2852,-1.8457 -1.0107,-1.1206 -1.6919,-2.5928 l 4.065,-1.9775 q 0.8349,1.7798 2.351,2.6147 1.5161,0.813 3.5816,0.813 1.1206,0 2.1533,-0.2856 1.0547,-0.2857 1.8457,-1.0767 0.813,-0.791 1.2964,-2.1972 0.5053,-1.4283 0.5053,-3.6914 l 0,-20.3028 4.6802,0 0,20.94 q 0,2.1972 -0.4614,3.8891 -0.4395,1.6699 -1.2085,2.9224 -0.7471,1.2305 -1.7798,2.0654 -1.0327,0.813 -2.1972,1.3184 -1.1646,0.5053 -2.417,0.7031 -1.2305,0.2197 -2.417,0.2197 z"
           inkscape:connector-curvature="0" />
        <path
           id="path4362"
           d="m 1871.564,1266.0935 0,-2.1973 q -1.1206,1.4283 -2.5928,2.0874 -1.4502,0.6592 -3.3618,0.6592 -1.8018,0 -3.3179,-0.5273 -1.5161,-0.5054 -2.6367,-1.6699 -1.0986,-1.1866 -1.7139,-3.0542 -0.6152,-1.8677 -0.6152,-4.5704 l 0,-13.7329 4.6802,0 0,13.7329 q 0,1.4502 0.3515,2.483 0.3516,1.0107 0.9668,1.6699 0.6153,0.6592 1.4502,0.9668 0.835,0.2856 1.8237,0.2856 1.0547,0 1.9556,-0.2637 0.9009,-0.2856 1.5601,-0.9008 0.6811,-0.6372 1.0547,-1.648 0.3955,-1.0107 0.3955,-2.5049 l 0,-13.8208 4.6801,0 0,23.0054 -4.6801,0 z"
           inkscape:connector-curvature="0" />
        <path
           id="path4364"
           d="m 1900.5898,1266.0935 -4.4824,0 0,-1.9775 q -0.4394,0.4614 -1.0547,0.9228 -0.6152,0.4395 -1.4062,0.813 -0.7691,0.3516 -1.7359,0.5713 -0.9668,0.2197 -2.1093,0.2197 -1.7578,0 -3.252,-0.4834 -1.4941,-0.4834 -2.5928,-1.4502 -1.0986,-0.9887 -1.7358,-2.417 -0.6152,-1.4502 -0.6152,-3.3618 0,-1.9775 0.747,-3.4057 0.7471,-1.4502 1.9776,-2.3731 1.2304,-0.9448 2.8125,-1.3843 1.604,-0.4394 3.2959,-0.4394 1.582,0 3.0322,0.3515 1.4722,0.3296 2.6367,1.0108 l 0,-1.2744 q 0,-1.2964 -0.3076,-2.1973 -0.2856,-0.9009 -0.9009,-1.4502 -0.5932,-0.5713 -1.5161,-0.813 -0.9228,-0.2636 -2.1973,-0.2636 -2.1533,0 -3.7353,0.5712 -1.5601,0.5713 -2.8345,1.5162 l -1.3843,-3.8453 q 0.7032,-0.4834 1.604,-0.9008 0.9009,-0.4395 1.9776,-0.7691 1.0766,-0.3296 2.3291,-0.5054 1.2524,-0.1977 2.6807,-0.1977 0.9668,0 1.9995,0.1099 1.0327,0.1098 1.9995,0.4394 0.9887,0.3076 1.8457,0.9009 0.8789,0.5932 1.5161,1.56 0.6592,0.9449 1.0327,2.3291 0.3735,1.3843 0.3735,3.2959 l 0,14.8975 z m -9.9316,-3.6035 q 1.7798,0 3.1421,-0.7251 1.3843,-0.7251 2.3071,-1.7358 l 0,-3.5157 q -0.9668,-0.5053 -2.2632,-0.813 -1.2963,-0.3076 -2.6587,-0.3076 -1.0546,0 -1.9775,0.1978 -0.9228,0.1977 -1.626,0.6372 -0.6811,0.4175 -1.0766,1.0986 -0.3955,0.6592 -0.3955,1.604 0,1.648 1.1425,2.6148 1.1646,0.9448 3.4058,0.9448 z"
           inkscape:connector-curvature="0" />
        <path
           id="path4366"
           d="m 1921.1782,1266.0935 0,-13.7329 q 0,-1.4502 -0.3515,-2.4609 -0.3516,-1.0328 -0.9668,-1.67 -0.6153,-0.6591 -1.4502,-0.9448 -0.835,-0.3076 -1.8238,-0.3076 -1.0546,0 -1.9555,0.2856 -0.9009,0.2637 -1.5601,0.8789 -0.6592,0.6153 -1.0547,1.648 -0.3735,1.0107 -0.3735,2.4829 l 0,13.8208 -4.6802,0 0,-23.0054 4.6802,0 0,2.2193 q 1.1206,-1.4282 2.5708,-2.0874 1.4502,-0.6592 3.3618,-0.6592 1.8018,0 3.3179,0.5273 1.5161,0.5054 2.6147,1.67 1.1206,1.1645 1.7359,3.0322 0.6152,1.8677 0.6152,4.5703 l 0,13.7329 -4.6802,0 z"
           inkscape:connector-curvature="0" />
      </g>
    </g>
  </g>
  <g
     inkscape:groupmode="layer"
     id="layer3"
     inkscape:label="Date"
     transform="translate(-1629.0681,-1198.2465)">
    <g
       style="font-style:normal;font-variant:normal;font-weight:300;font-stretch:normal;font-size:15px;line-height:125%;font-family:Overpass;-inkscape-font-specification:'Overpass, Light';text-align:start;letter-spacing:0px;word-spacing:0px;writing-mode:lr-tb;text-anchor:start;fill:#222222;fill-opacity:1;stroke:none;stroke-width:1px;stroke-linecap:butt;stroke-linejoin:miter;stroke-opacity:1"
       id="text4330"
       transform="translate(758.6801,490.3275)">
      <path
         d="m 1733.065,1328.75 q 0,-0.99 0.285,-1.695 0.285,-0.72 0.735,-1.26 0.45,-0.54 1.02,-0.945 0.57,-0.405 1.14,-0.795 0.495,-0.33 0.945,-0.645 0.45,-0.33 0.795,-0.69 0.36,-0.36 0.57,-0.765 0.21,-0.42 0.21,-0.93 0,-0.855 -0.6,-1.425 -0.585,-0.585 -1.68,-0.585 -1.065,0 -1.605,0.48 -0.54,0.465 -0.735,1.215 l -0.93,-0.42 q 0.12,-0.465 0.405,-0.87 0.285,-0.405 0.72,-0.705 0.435,-0.3 0.99,-0.465 0.57,-0.18 1.245,-0.18 1.56,0 2.415,0.81 0.87,0.795 0.87,2.145 0,0.72 -0.285,1.275 -0.27,0.555 -0.72,1.02 -0.435,0.45 -0.99,0.84 -0.555,0.375 -1.125,0.735 -0.45,0.3 -0.87,0.6 -0.42,0.285 -0.78,0.63 -0.345,0.33 -0.585,0.735 -0.24,0.39 -0.33,0.885 l 5.775,0 0,1.005 -6.885,0 z"
         id="path4335"
         inkscape:connector-curvature="0" />
      <path
         d="m 1745.3741,1318.07 q 0.855,0 1.485,0.315 0.63,0.315 1.035,0.87 0.42,0.54 0.63,1.29 0.21,0.735 0.21,1.59 0,1.125 -0.39,2.22 -0.375,1.095 -1.065,2.025 -0.675,0.915 -1.62,1.59 -0.945,0.675 -2.085,0.96 l 0,-0.825 q 0.765,-0.225 1.425,-0.675 0.66,-0.465 1.17,-1.065 0.525,-0.6 0.855,-1.29 0.345,-0.69 0.435,-1.365 -0.39,0.495 -1.035,0.765 -0.63,0.255 -1.455,0.255 -0.645,0 -1.215,-0.255 -0.555,-0.255 -0.975,-0.69 -0.405,-0.45 -0.645,-1.02 -0.24,-0.585 -0.24,-1.215 0,-0.735 0.27,-1.365 0.27,-0.645 0.735,-1.11 0.48,-0.465 1.11,-0.735 0.63,-0.27 1.365,-0.27 z m -0.075,5.82 q 0.525,0 0.96,-0.18 0.45,-0.195 0.765,-0.525 0.315,-0.33 0.495,-0.78 0.18,-0.45 0.18,-0.975 0,-0.51 -0.195,-0.945 -0.18,-0.435 -0.51,-0.765 -0.315,-0.33 -0.75,-0.51 -0.435,-0.195 -0.945,-0.195 -0.54,0 -0.99,0.195 -0.435,0.18 -0.75,0.51 -0.315,0.33 -0.495,0.765 -0.165,0.435 -0.165,0.945 0,0.525 0.165,0.975 0.165,0.45 0.48,0.78 0.315,0.33 0.75,0.525 0.45,0.18 1.005,0.18 z"
         id="path4337"
         inkscape:connector-curvature="0" />
      <path
         d="m 1758.6695,1327.985 q 0.9,0 1.515,-0.405 0.63,-0.405 1.005,-1.05 0.39,-0.645 0.555,-1.44 0.18,-0.81 0.18,-1.59 0,-0.855 -0.18,-1.665 -0.165,-0.81 -0.555,-1.425 -0.375,-0.63 -1.005,-1.005 -0.615,-0.39 -1.515,-0.39 -0.9,0 -1.53,0.405 -0.615,0.405 -1.005,1.05 -0.375,0.645 -0.555,1.455 -0.165,0.795 -0.165,1.575 0,0.855 0.165,1.665 0.18,0.81 0.555,1.44 0.39,0.615 1.005,1.005 0.63,0.375 1.53,0.375 z m 0,0.945 q -1.215,0 -2.055,-0.48 -0.825,-0.48 -1.335,-1.26 -0.51,-0.78 -0.735,-1.74 -0.225,-0.975 -0.225,-1.95 0,-0.975 0.225,-1.935 0.225,-0.975 0.735,-1.755 0.51,-0.78 1.335,-1.26 0.84,-0.48 2.055,-0.48 1.215,0 2.04,0.48 0.84,0.48 1.35,1.26 0.51,0.78 0.735,1.755 0.225,0.96 0.225,1.935 0,0.975 -0.225,1.95 -0.225,0.96 -0.735,1.74 -0.51,0.78 -1.35,1.26 -0.825,0.48 -2.04,0.48 z"
         id="path4339"
         inkscape:connector-curvature="0" />
      <path
         d="m 1767.7593,1328.93 q -1.395,0 -2.22,-1.035 -0.81,-1.05 -0.81,-2.97 0,-1.905 0.825,-2.955 0.84,-1.065 2.325,-1.065 0.855,0 1.5,0.42 0.645,0.405 0.96,1.185 l -0.96,0.375 q -0.18,-0.435 -0.555,-0.735 -0.36,-0.3 -0.99,-0.3 -0.54,0 -0.915,0.225 -0.375,0.21 -0.63,0.615 -0.24,0.39 -0.36,0.96 -0.105,0.57 -0.105,1.275 0,1.455 0.48,2.265 0.48,0.795 1.5,0.795 0.63,0 1.065,-0.315 0.435,-0.315 0.63,-0.855 l 0.945,0.36 q -0.27,0.81 -0.99,1.29 -0.705,0.465 -1.695,0.465 z"
         id="path4341"
         inkscape:connector-curvature="0" />
      <path
         d="m 1774.2348,1328.93 q -0.825,0 -1.17,-0.495 -0.345,-0.51 -0.345,-1.26 l 0,-5.145 -1.305,0 0,-0.945 1.305,0 0,-2.64 1.05,-0.525 0,3.165 1.95,0 0,0.945 -1.95,0 0,4.695 q 0,0.255 0.015,0.48 0.03,0.21 0.12,0.375 0.09,0.165 0.255,0.27 0.165,0.09 0.435,0.09 0.39,0 0.66,-0.15 0.285,-0.15 0.495,-0.3 l -0.12,1.095 q -0.3,0.165 -0.63,0.255 -0.33,0.09 -0.765,0.09 z"
         id="path4343"
         inkscape:connector-curvature="0" />
      <path
         d="m 1781.024,1328.75 q 0,-0.99 0.285,-1.695 0.285,-0.72 0.735,-1.26 0.45,-0.54 1.02,-0.945 0.57,-0.405 1.14,-0.795 0.495,-0.33 0.945,-0.645 0.45,-0.33 0.795,-0.69 0.36,-0.36 0.57,-0.765 0.21,-0.42 0.21,-0.93 0,-0.855 -0.6,-1.425 -0.585,-0.585 -1.68,-0.585 -1.065,0 -1.605,0.48 -0.54,0.465 -0.735,1.215 l -0.93,-0.42 q 0.12,-0.465 0.405,-0.87 0.285,-0.405 0.72,-0.705 0.435,-0.3 0.99,-0.465 0.57,-0.18 1.245,-0.18 1.56,0 2.415,0.81 0.87,0.795 0.87,2.145 0,0.72 -0.285,1.275 -0.27,0.555 -0.72,1.02 -0.435,0.45 -0.99,0.84 -0.555,0.375 -1.125,0.735 -0.45,0.3 -0.87,0.6 -0.42,0.285 -0.78,0.63 -0.345,0.33 -0.585,0.735 -0.24,0.39 -0.33,0.885 l 5.775,0 0,1.005 -6.885,0 z"
         id="path4345"
         inkscape:connector-curvature="0" />
      <path
         d="m 1793.6031,1328.93 q -1.035,0 -1.725,-0.48 -0.69,-0.48 -1.11,-1.245 -0.405,-0.78 -0.585,-1.74 -0.18,-0.975 -0.18,-1.965 0,-0.54 0.06,-1.155 0.06,-0.63 0.21,-1.23 0.165,-0.6 0.42,-1.155 0.27,-0.555 0.675,-0.975 0.405,-0.42 0.945,-0.66 0.555,-0.255 1.29,-0.255 1.035,0 1.725,0.495 0.69,0.48 1.095,1.26 0.42,0.78 0.6,1.755 0.18,0.96 0.18,1.92 0,0.555 -0.075,1.17 -0.06,0.615 -0.225,1.23 -0.15,0.6 -0.42,1.155 -0.255,0.54 -0.66,0.96 -0.405,0.42 -0.96,0.675 -0.54,0.24 -1.26,0.24 z m 0,-0.945 q 0.78,0 1.26,-0.42 0.495,-0.435 0.765,-1.095 0.27,-0.66 0.36,-1.455 0.09,-0.795 0.09,-1.515 0,-0.81 -0.105,-1.605 -0.105,-0.81 -0.39,-1.44 -0.285,-0.645 -0.765,-1.035 -0.48,-0.405 -1.215,-0.405 -0.795,0 -1.29,0.435 -0.48,0.435 -0.75,1.095 -0.27,0.66 -0.375,1.455 -0.09,0.78 -0.09,1.5 0,0.825 0.105,1.635 0.105,0.795 0.39,1.44 0.285,0.63 0.765,1.02 0.495,0.39 1.245,0.39 z"
         id="path4347"
         inkscape:connector-curvature="0" />
      <path
         d="m 1800.6252,1328.75 0,-8.595 -1.785,0 0,-0.6 q 0.795,0 1.35,-0.27 0.555,-0.285 0.81,-1.035 l 0.675,0 0,10.5 -1.05,0 z"
         id="path4349"
         inkscape:connector-curvature="0" />
      <path
         d="m 1805.71,1328.75 q 0.015,-1.23 0.15,-2.43 0.15,-1.2 0.51,-2.385 0.375,-1.185 0.99,-2.37 0.615,-1.2 1.575,-2.415 l -5.085,0 0,-0.9 6.285,0 0,0.69 q -1.095,1.26 -1.755,2.595 -0.66,1.32 -1.02,2.61 -0.36,1.275 -0.48,2.46 -0.12,1.185 -0.12,2.145 l -1.05,0 z"
         id="path4351"
         inkscape:connector-curvature="0" />
    </g>
  </g>
</svg>
