<?xml version="1.0" encoding="UTF-8" standalone="no"?>
<!-- Created with Inkscape (http://www.inkscape.org/) -->

<svg
   xmlns:dc="http://purl.org/dc/elements/1.1/"
   xmlns:cc="http://creativecommons.org/ns#"
   xmlns:rdf="http://www.w3.org/1999/02/22-rdf-syntax-ns#"
   xmlns:svg="http://www.w3.org/2000/svg"
   xmlns="http://www.w3.org/2000/svg"
   xmlns:sodipodi="http://sodipodi.sourceforge.net/DTD/sodipodi-0.dtd"
   xmlns:inkscape="http://www.inkscape.org/namespaces/inkscape"
   width="878.11572"
   height="584.35828"
   id="svg2"
   version="1.1"
   inkscape:version="0.92.4 (5da689c313, 2019-01-14)"
   sodipodi:docname="SLC.svg"
   inkscape:export-filename="C:\Users\Paul Bogard\Dropbox\Documents\Websites\Flight Log\Images\Terminals\SLC.png"
   inkscape:export-xdpi="90"
   inkscape:export-ydpi="90">
  <defs
     id="defs4" />
  <sodipodi:namedview
     id="base"
     pagecolor="#ffffff"
     bordercolor="#666666"
     borderopacity="1.0"
     inkscape:pageopacity="1"
     inkscape:pageshadow="2"
     inkscape:zoom="0.70710678"
     inkscape:cx="-106.39466"
     inkscape:cy="88.832731"
     inkscape:document-units="px"
     inkscape:current-layer="layer1"
     showgrid="false"
     fit-margin-top="25"
     fit-margin-left="25"
     fit-margin-right="25"
     fit-margin-bottom="25"
     inkscape:window-width="1920"
     inkscape:window-height="1137"
     inkscape:window-x="1912"
     inkscape:window-y="-8"
     inkscape:window-maximized="1" />
  <metadata
     id="metadata7">
    <rdf:RDF>
      <cc:Work
         rdf:about="">
        <dc:format>image/svg+xml</dc:format>
        <dc:type
           rdf:resource="http://purl.org/dc/dcmitype/StillImage" />
        <dc:title />
      </cc:Work>
    </rdf:RDF>
  </metadata>
  <g
     inkscape:groupmode="layer"
     id="layer2"
     inkscape:label="Terminal"
     transform="translate(-351.30783,-180.06108)">
    <path
       style="fill:#dddddd;fill-opacity:1;stroke:#222222;stroke-width:1.5;stroke-linecap:butt;stroke-linejoin:miter;stroke-miterlimit:4;stroke-dasharray:none;stroke-opacity:1"
       d="m 1010.4979,724.5706 -1.1911,7.14636 44.0692,6.84859 5.6576,-31.86085 12.5061,1.78659 5.6575,-45.55805 -6.8486,-68.78371 13.3995,-0.29777 c 0,0 3.2754,14.88825 24.7145,20.54579 l -1.1911,5.65753 10.4218,3.57318 1.7866,-5.062 76.8233,23.8212 7.1464,-19.95026 -81.8854,-24.11896 0.8933,-3.27542 -7.1463,-2.08435 -2.9777,10.12401 -11.6128,-3.27542 c 0,0 -6.2531,-0.29776 -6.8486,-8.03965 l -0.2978,-34.24298 -26.2033,-31.56309 90.8183,-103.91998 2.8288,2.38212 7.4441,-8.18854 -3.2754,-2.97765 17.5681,-19.65249 0,-4.91312 -4.4664,0 -2.2333,-46.30246 5.5087,-0.14888 -1.9355,-21.73685 -3.5732,0.14888 0.8933,13.39943 -2.8288,0 -2.6798,-32.60527 c 0,0 11.1661,-12.35725 -1.7866,-25.60779 -0.5956,-0.89329 -0.7444,-11.76172 -0.7444,-11.76172 l 13.3994,-0.44664 -2.2333,-30.6698 -4.9131,0.44665 0,-7.14636 -14.2927,-13.39943 -11.464,-0.29776 -16.6748,19.20584 0,7.89077 9.3796,8.93295 -6.9975,0.14889 0.2978,4.01982 1.3399,-0.14888 0.2978,7.44413 -1.1911,0.14888 0,2.82877 4.4665,-0.14889 0,5.35977 3.5732,6.8486 c 0,0 -3.7221,11.9106 3.1265,19.95025 l 0.2978,19.05696 -2.0844,0.14889 0.4467,8.78406 1.7866,0 0.2977,4.46648 3.2755,0 -0.4467,-7.59301 1.7866,0.14888 4.4665,61.78624 8.0396,0 -6.253,6.40195 -2.9777,-2.08436 -5.5086,6.55083 2.8287,2.23324 -13.3994,14.59049 -2.531,-2.67989 -5.9553,6.69971 2.9777,2.23324 -57.022,64.76389 -2.531,-2.82877 -5.9553,6.8486 2.8287,2.67988 -4.9131,5.21089 4.0198,3.87094 -13.9949,15.93043 -41.5382,-51.95999 c 0,0 -13.1017,-19.80137 -39.90061,-23.37455 l -47.04687,-10.71954 0.59553,-3.57318 -6.84859,-1.63771 -0.8933,3.27541 -35.58292,-8.63518 5.80642,-25.31003 5.80642,1.33995 0.44665,-1.93548 2.82876,0.74442 1.19106,-5.65754 -2.97765,-0.59553 18.46143,-75.78119 4.16871,1.04218 1.48883,-6.40195 -4.31759,-1.19106 9.52848,-40.79381 2.38212,0.59553 1.19106,-6.55083 2.23323,0.59553 1.48883,-6.84859 -2.38212,-0.59553 3.72206,-14.4416 2.531,0.59553 1.78659,-7.89078 -2.67988,-0.59553 2.67988,-11.0173 -30.96756,-7.59301 -4.61535,17.71702 -4.16871,-0.8933 -1.93548,7.89078 4.46648,1.19106 -5.21089,20.69466 2.531,0.74442 -14.4416,62.67953 -4.16871,-1.19106 -1.63771,8.18854 4.01983,1.04217 -14.4416,60.89295 8.78407,2.23323 -5.9553,24.11897 -54.93765,-12.65501 -0.14888,1.48882 -6.25306,-1.33994 0.29776,-3.72206 -7.74189,-0.14889 0,2.53101 -119.106,0.74441 -0.59553,-2.23324 -5.9553,2.08436 -5.65753,-17.27037 5.062,-1.93548 -2.08435,-5.21088 2.67988,-0.8933 -2.38212,-6.55083 -2.23324,1.04218 -15.93042,-48.68458 2.08435,-0.59553 -2.23324,-6.55083 -2.23323,1.04218 -13.69719,-41.53822 2.08435,-0.89329 -2.531,-6.10419 -1.78659,0.74442 -20.09914,-59.99965 -9.23071,3.12653 -0.74442,-2.23324 -6.10418,2.23324 0.59553,2.23324 -7.74189,2.67988 7.74189,23.07679 -2.23324,0.74441 2.08436,6.55083 2.67988,-1.04217 14.29272,43.17592 -5.80641,1.78659 21.29019,62.67953 -4.01982,1.33995 2.23323,6.55083 3.72207,-1.48883 17.41925,51.21558 -51.21558,16.97261 3.27541,8.78406 -3.27541,1.33995 2.97765,8.33742 3.27541,-1.19106 5.80642,19.05696 -10.57066,3.57318 1.19106,3.27541 -24.11896,7.89077 -1.04218,-3.12653 -6.69971,2.23324 1.04218,3.12653 -23.07679,8.03966 -1.04218,-3.27542 -7.29524,2.67989 1.04218,2.82876 -20.99244,7.29525 -15.63266,-8.18854 0.74441,-1.93547 -5.80641,-3.12654 -1.04218,2.23324 -17.71702,-9.3796 0.74441,-1.78659 -5.50865,-2.82876 -0.89329,1.78659 -16.37708,-8.33742 0.8933,-1.78659 -5.80642,-2.82877 -0.8933,1.63771 -20.99243,-10.71954 1.19106,-2.08436 -5.9553,-2.82877 -1.04218,2.08436 -22.77902,-11.76172 0.74441,-1.93547 -4.91312,-2.531 -0.89329,1.78659 -21.73685,-10.86843 -4.01983,8.33742 14.44161,7.44413 -1.04218,2.08435 4.76424,2.97765 1.33994,-2.531 12.50613,6.40195 -0.89329,1.78659 5.73197,3.20097 1.11662,-2.15879 23.8212,12.2828 -0.96773,1.78659 5.13644,2.75433 0.74441,-2.00992 44.59031,22.85347 -6.17862,10.04957 -24.19341,8.56074 11.31507,31.63753 26.87329,-9.90068 7.59301,4.98756 -25.53335,48.98234 -35.65736,12.95278 2.45657,7.29524 24.86337,-9.00739 1.11662,3.64762 7.74189,-2.75432 -1.19106,-3.34986 8.56075,-3.27541 3.05209,2.00991 3.72206,-6.47639 -3.79651,-2.38212 13.10166,-25.45891 3.12654,1.63771 3.72206,-7.36968 -3.05209,-1.78659 9.82624,-18.90808 2.30768,1.41438 4.24315,-7.07192 -3.20097,-1.71214 8.56074,-15.70711 20.47135,-6.99748 0.44665,1.48883 7.96521,-2.60544 -0.59553,-1.63771 21.51352,-6.8486 9.30516,28.06435 44.81363,-15.33489 1.93547,7.14636 79.65214,-26.50109 -7.44413,-23.8212 22.1835,-7.29524 -10.2729,-30.22315 -15.93042,5.21089 2.67988,7.89077 -6.10418,2.45656 -10.71954,-29.25541 65.21053,0 0.0744,7.29524 9.0074,0.0745 0,24.49117 -8.85851,0.14888 0.0744,7.07192 11.09174,-0.0744 0.0745,15.55822 -2.60545,0.0744 0.29777,17.79146 35.28515,0 c 154.68659,36.78848 17.47483,3.89924 155.06112,36.9973 l 2.82877,-10.49622 4.61536,1.19106 -0.52109,2.75433 7.14636,1.71215 7.96521,-32.23306 20.47135,14.59048 5.06204,-6.92303 6.6998,4.46647 6.3275,-9.60292 -14.36725,-10.19845 -3.64765,4.91312 -40.49604,-27.39438 -11.16619,16.22819 -4.91312,-1.04218 -0.81885,4.24316 -19.05696,-4.46648 6.84859,-27.98991 48.01461,10.42178 -0.29777,1.48882 c 0,0 17.56814,3.87095 29.25553,17.34481 l 1.6377,-1.56326 62.2329,75.2601 -3.3499,2.90321 -18.9081,-22.92791 -13.1016,11.16619 -5.2109,-6.62527 -9.6029,8.63519 -28.36224,-33.72189 -3.79651,3.7965 -2.38212,-2.67988 -6.10418,5.80642 -1.33994,-1.56327 -3.57318,2.97765 1.48882,1.71215 -16.45151,13.62275 48.53576,59.99964 5.8064,12.95278 6.8486,81.58761 9.9752,0.14888 -9.9752,47.79129 z"
       id="path2997"
       inkscape:connector-curvature="0"
       sodipodi:nodetypes="cccccccccccccccccccccccccccccccccccccccccccccccccccccccccccccccccccccccccccccccccccccccccccccccccccccccccccccccccccccccccccccccccccccccccccccccccccccccccccccccccccccccccccccccccccccccccccccccccccccccccccccccccccccccccccccccccccccccccccccccccccccccccccccccccccccccccccccccccccccccccccccccccccccccccccccccc" />
  </g>
  <g
     inkscape:groupmode="layer"
     id="layer1"
     inkscape:label="Label"
     transform="translate(3.098428,-0.84233508)">
    <g
       style="font-style:normal;font-variant:normal;font-weight:normal;font-stretch:normal;font-size:45px;line-height:125%;font-family:Overpass;-inkscape-font-specification:Sans;letter-spacing:0px;word-spacing:0px;fill:#222222;fill-opacity:1;stroke:none;stroke-width:1px;stroke-linecap:butt;stroke-linejoin:miter;stroke-opacity:1"
       id="text3335" />
    <g
       id="text4147"
       style="font-style:normal;font-variant:normal;font-weight:bold;font-stretch:normal;font-size:125px;line-height:125%;font-family:Overpass;-inkscape-font-specification:'Overpass, Bold';text-align:start;letter-spacing:0px;word-spacing:0px;writing-mode:lr-tb;text-anchor:start;fill:#dddddd;fill-opacity:1;stroke:#222222;stroke-width:0.25;stroke-linecap:butt;stroke-linejoin:miter;stroke-opacity:1;stroke-miterlimit:4;stroke-dasharray:none">
      <path
         inkscape:connector-curvature="0"
         id="path4142"
         d="m 362.97336,487.75677 q -0.79346,-1.95312 -2.13623,-3.6621 -1.34278,-1.70899 -3.23487,-2.92969 -1.83105,-1.28174 -4.27246,-1.95313 -2.38037,-0.73242 -5.31006,-0.73242 -5.49316,0 -8.60595,2.19727 -3.05176,2.19726 -3.05176,6.16455 0,2.62451 1.95313,4.39453 1.95312,1.77002 5.12695,3.23486 3.17383,1.40381 7.20215,2.68555 4.08935,1.28174 8.36181,2.86865 4.27246,1.52588 8.30078,3.66211 4.08936,2.0752 7.26319,5.18799 3.17383,3.05176 5.12695,7.32422 1.95313,4.21142 1.95313,10.13183 0,6.4087 -2.44141,11.35254 -2.44141,4.94385 -6.71387,8.36182 -4.21142,3.41797 -10.00976,5.18799 -5.79834,1.77002 -12.51221,1.77002 -6.16455,0 -11.53564,-1.64795 -5.3711,-1.70899 -9.76563,-4.82178 -4.3335,-3.11279 -7.56836,-7.56836 -3.23486,-4.45557 -5.12695,-10.00976 l 15.38086,-5.73731 q 1.40381,3.05176 3.35693,5.61524 2.01416,2.50244 4.45557,4.33349 2.4414,1.77002 5.24902,2.80762 2.86865,0.97656 6.10352,0.97656 3.17382,0 5.7373,-0.67139 2.62451,-0.67138 4.45557,-2.01416 1.89209,-1.34277 2.86865,-3.29589 1.0376,-2.01416 1.0376,-4.63868 0,-3.17382 -1.95313,-5.31005 -1.95312,-2.19727 -5.12695,-3.78418 -3.17383,-1.64795 -7.26318,-2.92969 -4.02832,-1.34278 -8.30079,-2.80762 -4.21142,-1.46484 -8.30078,-3.41797 -4.02832,-1.95312 -7.20215,-4.82178 -3.17382,-2.86865 -5.12695,-6.89697 -1.95312,-4.02832 -1.95312,-9.76562 0,-4.94385 1.95312,-9.27735 2.01416,-4.39453 5.79834,-7.69043 3.78418,-3.29589 9.27735,-5.18798 5.49316,-1.95313 12.57324,-1.95313 5.92041,0 10.68115,1.52588 4.82178,1.52588 8.48389,4.27246 3.66211,2.68555 6.16455,6.40869 2.50244,3.66211 3.78418,8.05664 l -15.13672,5.00488 z"
         style="stroke:#222222;stroke-opacity:1;stroke-width:0.25;stroke-miterlimit:4;stroke-dasharray:none" />
      <path
         inkscape:connector-curvature="0"
         id="path4144"
         d="m 400.32687,551.47748 0,-87.52442 16.90674,0 0,71.28907 42.23633,0 0,16.23535 -59.14307,0 z"
         style="stroke:#222222;stroke-opacity:1;stroke-width:0.25;stroke-miterlimit:4;stroke-dasharray:none" />
      <path
         inkscape:connector-curvature="0"
         id="path4146"
         d="m 506.22287,552.88129 q -6.83594,0 -12.20703,-1.83106 -5.3711,-1.83105 -9.46045,-5.06592 -4.08936,-3.23486 -6.95801,-7.56836 -2.86865,-4.33349 -4.69971,-9.33837 -1.77001,-5.06592 -2.62451,-10.49805 -0.79345,-5.43213 -0.79345,-10.86426 0,-5.00488 0.85449,-10.25391 0.85449,-5.31005 2.62451,-10.31494 1.83105,-5.00488 4.69971,-9.46045 2.92968,-4.45556 6.958,-7.8125 4.08936,-3.35693 9.46045,-5.31005 5.3711,-1.95313 12.146,-1.95313 6.28662,0 11.41357,1.70898 5.12696,1.70899 9.03321,4.51661 3.90625,2.74658 6.59179,6.28662 2.74659,3.54004 4.21143,7.20215 l -15.13672,6.89697 q -1.58691,-2.44141 -3.23486,-4.39453 -1.64795,-1.95313 -3.54004,-3.23487 -1.89209,-1.34277 -4.21143,-2.01416 -2.2583,-0.73242 -5.12695,-0.73242 -3.66211,0 -6.53076,1.28174 -2.86865,1.2207 -5.00488,3.35693 -2.13624,2.13623 -3.60108,5.00489 -1.46484,2.86865 -2.38037,6.10351 -0.91553,3.17383 -1.34277,6.5918 -0.36621,3.35693 -0.36621,6.53076 0,5.12695 1.09863,10.25391 1.09863,5.12695 3.41797,9.27734 2.31933,4.15039 5.92041,6.7749 3.66211,2.56348 8.78906,2.56348 2.68555,0 4.94385,-0.79346 2.2583,-0.85449 4.15039,-2.31933 1.95312,-1.46485 3.60107,-3.54004 1.70899,-2.0752 3.17383,-4.57764 l 15.50293,5.85938 q -2.0752,4.82177 -5.00488,8.85009 -2.92969,3.96729 -6.83594,6.83594 -3.84521,2.80762 -8.72803,4.39453 -4.88281,1.58692 -10.80322,1.58692 z"
         style="stroke:#222222;stroke-opacity:1;stroke-width:0.25;stroke-miterlimit:4;stroke-dasharray:none" />
    </g>
    <g
       id="text4139"
       style="font-style:normal;font-variant:normal;font-weight:normal;font-stretch:normal;font-size:45px;line-height:125%;font-family:Overpass;-inkscape-font-specification:Sans;letter-spacing:0px;word-spacing:0px;fill:#222222;fill-opacity:1;stroke:none;stroke-width:1px;stroke-linecap:butt;stroke-linejoin:miter;stroke-opacity:1">
      <path
         inkscape:connector-curvature="0"
         id="path4149"
         d="m 38.425011,527.13177 q -0.285645,-0.68115 -0.791016,-1.25244 -0.505371,-0.59326 -1.230469,-1.01074 -0.725097,-0.43945 -1.669922,-0.68115 -0.922851,-0.2417 -2.065429,-0.2417 -2.263184,0 -3.537598,0.98877 -1.274414,0.98877 -1.274414,2.79053 0,1.1206 0.703125,1.91162 0.703125,0.76904 1.845703,1.3623 1.142578,0.59326 2.592774,1.09864 1.472168,0.48339 2.988281,1.07666 1.538086,0.57128 2.988281,1.34033 1.472168,0.74707 2.614746,1.8457 1.142578,1.07666 1.845703,2.61475 0.703125,1.51611 0.703125,3.64746 0,2.26318 -0.834961,4.02099 -0.812988,1.73584 -2.263183,2.94434 -1.450196,1.18652 -3.427735,1.82373 -1.955566,0.61523 -4.21875,0.61523 -2.109375,0 -3.955078,-0.54931 -1.82373,-0.52735 -3.317871,-1.51612 -1.472168,-1.01074 -2.548828,-2.41699 -1.07666,-1.42822 -1.669922,-3.18603 l 4.416504,-1.60401 q 0.483399,1.05469 1.186524,1.9336 0.725097,0.8789 1.647949,1.51611 0.922851,0.61523 2.021484,0.9668 1.120606,0.35156 2.39502,0.35156 1.274414,0 2.329101,-0.30762 1.054688,-0.30761 1.801758,-0.92285 0.74707,-0.61523 1.164551,-1.51611 0.41748,-0.92285 0.41748,-2.10938 0,-1.40625 -0.703125,-2.35107 -0.703125,-0.9668 -1.845703,-1.66992 -1.142578,-0.70313 -2.614746,-1.23047 -1.450195,-0.52735 -2.988281,-1.07666 -1.516113,-0.54932 -2.988281,-1.23047 -1.450196,-0.68115 -2.592774,-1.66992 -1.142578,-0.98877 -1.845703,-2.37305 -0.703125,-1.38428 -0.703125,-3.38379 0,-1.66992 0.65918,-3.16406 0.681152,-1.49414 1.955566,-2.61475 1.274414,-1.14258 3.14209,-1.80176 1.867676,-0.65917 4.262695,-0.65917 1.999512,0 3.625489,0.48339 1.625976,0.46143 2.834472,1.29639 1.230469,0.83496 2.043457,1.97754 0.812988,1.14258 1.230469,2.48291 l -4.328613,1.45019 z" />
      <path
         inkscape:connector-curvature="0"
         id="path4151"
         d="m 67.824425,551.47748 -4.482422,0 0,-1.97754 q -0.439453,0.46142 -1.054688,0.92285 -0.615234,0.43945 -1.40625,0.81299 -0.769043,0.35156 -1.735839,0.57129 -0.966797,0.21972 -2.109375,0.21972 -1.757813,0 -3.251954,-0.48339 -1.49414,-0.4834 -2.592773,-1.4502 -1.098633,-0.98877 -1.73584,-2.41699 -0.615234,-1.4502 -0.615234,-3.36182 0,-1.97754 0.74707,-3.40576 0.74707,-1.45019 1.977539,-2.37305 1.230469,-0.94482 2.8125,-1.38427 1.604004,-0.43946 3.295899,-0.43946 1.582031,0 3.032226,0.35157 1.472168,0.32959 2.636719,1.01074 l 0,-1.27442 q 0,-1.29638 -0.307617,-2.19726 -0.285645,-0.90088 -0.900879,-1.4502 -0.593262,-0.57129 -1.516114,-0.81299 -0.922851,-0.26367 -2.197265,-0.26367 -2.15332,0 -3.735352,0.57129 -1.560058,0.57129 -2.834472,1.51611 l -1.384278,-3.84521 q 0.703125,-0.4834 1.604004,-0.90088 0.900879,-0.43945 1.977539,-0.76904 1.07666,-0.32959 2.329102,-0.50537 1.252441,-0.19776 2.680664,-0.19776 0.966797,0 1.999512,0.10987 1.032714,0.10986 1.999511,0.43945 0.98877,0.30762 1.845703,0.90088 0.878907,0.59326 1.516114,1.56006 0.659179,0.94482 1.032715,2.3291 0.373535,1.38428 0.373535,3.2959 l 0,14.89746 z m -9.931641,-3.60352 q 1.779785,0 3.14209,-0.7251 1.384277,-0.72509 2.307129,-1.73584 l 0,-3.51562 q -0.966797,-0.50537 -2.263184,-0.81299 -1.296386,-0.30762 -2.658691,-0.30762 -1.054688,0 -1.977539,0.19776 -0.922852,0.19775 -1.625977,0.63721 -0.681152,0.41748 -1.07666,1.09863 -0.395508,0.65918 -0.395508,1.604 0,1.64795 1.142578,2.61475 1.164551,0.94482 3.405762,0.94482 z" />
      <path
         inkscape:connector-curvature="0"
         id="path4153"
         d="m 74.416222,551.47748 0,-30.27832 4.680175,-2.21924 0,32.49756 -4.680175,0 z" />
      <path
         inkscape:connector-curvature="0"
         id="path4155"
         d="m 92.719444,552.02679 q -1.362304,0 -2.351074,-0.41748 -0.966797,-0.3955 -1.604004,-1.14257 -0.615234,-0.74707 -0.900879,-1.80176 -0.285644,-1.07666 -0.285644,-2.37305 l 0,-13.75488 -3.559571,0 0,-4.06494 3.559571,0 0,-7.22901 4.680175,-2.26318 0,9.49219 5.449219,0 0,4.06494 -5.449219,0 0,12.54639 q 0,0.57128 0.08789,1.05468 0.109863,0.4834 0.351563,0.83496 0.263671,0.35157 0.703125,0.54932 0.439453,0.17578 1.120605,0.17578 1.669922,0 3.405762,-1.07666 l -0.571289,4.35059 q -0.966797,0.4834 -2.109375,0.76904 -1.142578,0.28564 -2.526856,0.28564 z" />
      <path
         inkscape:connector-curvature="0"
         id="path4157"
         d="m 114.14278,551.47748 0,-31.50879 4.68018,0 0,27.00439 15.40283,0 0,4.5044 -20.08301,0 z" />
      <path
         inkscape:connector-curvature="0"
         id="path4159"
         d="m 157.29708,551.47748 -4.48242,0 0,-1.97754 q -0.43945,0.46142 -1.05469,0.92285 -0.61523,0.43945 -1.40625,0.81299 -0.76904,0.35156 -1.73584,0.57129 -0.9668,0.21972 -2.10937,0.21972 -1.75782,0 -3.25196,-0.48339 -1.49414,-0.4834 -2.59277,-1.4502 -1.09863,-0.98877 -1.73584,-2.41699 -0.61523,-1.4502 -0.61523,-3.36182 0,-1.97754 0.74707,-3.40576 0.74707,-1.45019 1.97754,-2.37305 1.23046,-0.94482 2.8125,-1.38427 1.604,-0.43946 3.29589,-0.43946 1.58204,0 3.03223,0.35157 1.47217,0.32959 2.63672,1.01074 l 0,-1.27442 q 0,-1.29638 -0.30762,-2.19726 -0.28564,-0.90088 -0.90088,-1.4502 -0.59326,-0.57129 -1.51611,-0.81299 -0.92285,-0.26367 -2.19727,-0.26367 -2.15332,0 -3.73535,0.57129 -1.56006,0.57129 -2.83447,1.51611 l -1.38428,-3.84521 q 0.70313,-0.4834 1.60401,-0.90088 0.90088,-0.43945 1.97754,-0.76904 1.07666,-0.32959 2.3291,-0.50537 1.25244,-0.19776 2.68066,-0.19776 0.9668,0 1.99951,0.10987 1.03272,0.10986 1.99951,0.43945 0.98877,0.30762 1.84571,0.90088 0.8789,0.59326 1.51611,1.56006 0.65918,0.94482 1.03272,2.3291 0.37353,1.38428 0.37353,3.2959 l 0,14.89746 z m -9.93164,-3.60352 q 1.77979,0 3.14209,-0.7251 1.38428,-0.72509 2.30713,-1.73584 l 0,-3.51562 q -0.9668,-0.50537 -2.26318,-0.81299 -1.29639,-0.30762 -2.6587,-0.30762 -1.05468,0 -1.97753,0.19776 -0.92286,0.19775 -1.62598,0.63721 -0.68115,0.41748 -1.07666,1.09863 -0.39551,0.65918 -0.39551,1.604 0,1.64795 1.14258,2.61475 1.16455,0.94482 3.40576,0.94482 z" />
      <path
         inkscape:connector-curvature="0"
         id="path4161"
         d="m 163.66915,551.47748 0,-30.27832 4.68018,-2.21924 0,16.61133 6.78955,-7.11914 5.75683,0 -6.30615,6.39404 8.63526,16.61133 -5.11963,0 -6.78955,-13.22754 -2.96631,2.96631 0,10.26123 -4.68018,0 z" />
      <path
         inkscape:connector-curvature="0"
         id="path4163"
         d="m 197.77071,552.02679 q -2.39502,0 -4.32861,-0.81298 -1.93359,-0.83496 -3.2959,-2.37305 -1.3623,-1.56006 -2.10937,-3.80127 -0.7251,-2.24121 -0.7251,-5.07568 0,-2.83448 0.74707,-5.05371 0.74707,-2.24122 2.10937,-3.7793 1.38428,-1.56006 3.2959,-2.37305 1.9336,-0.81299 4.30664,-0.81299 2.04346,0 3.82325,0.65918 1.80175,0.63721 3.14209,1.97754 1.3623,1.31836 2.13134,3.33985 0.79102,2.02148 0.79102,4.76806 0,0.74707 -0.0439,1.58203 -0.022,0.83496 -0.13183,1.4502 l -15.49072,0 q 0.022,1.42822 0.50537,2.5708 0.50537,1.1206 1.31836,1.93359 0.81298,0.79102 1.8457,1.23047 1.03271,0.41748 2.15332,0.41748 1.42822,0 2.63672,-0.59326 1.23047,-0.59326 2.13135,-1.73584 l 3.05419,3.14209 q -1.25244,1.49414 -3.208,2.41699 -1.95557,0.92285 -4.65821,0.92285 z m 0,-19.95117 q -1.09863,0 -2.10937,0.32959 -1.01074,0.30762 -1.80176,1.01074 -0.76904,0.68116 -1.27441,1.80176 -0.50537,1.12061 -0.59326,2.72461 l 10.98632,0 q -0.0439,-1.604 -0.50537,-2.72461 -0.46142,-1.1206 -1.20849,-1.80176 -0.74707,-0.70312 -1.66993,-1.01074 -0.90087,-0.32959 -1.82373,-0.32959 z" />
      <path
         inkscape:connector-curvature="0"
         id="path4165"
         d="m 236.06905,552.02679 q -2.43896,0 -4.37255,-0.65918 -1.91163,-0.68115 -3.36182,-1.82373 -1.4502,-1.16455 -2.48291,-2.72461 -1.01074,-1.58203 -1.64795,-3.38378 -0.63721,-1.82373 -0.94482,-3.7793 -0.28565,-1.97754 -0.28565,-3.93311 0,-1.80175 0.28565,-3.71338 0.30761,-1.91162 0.94482,-3.71337 0.65918,-1.82373 1.69189,-3.42774 1.03272,-1.604 2.48291,-2.8125 1.4502,-1.20849 3.36182,-1.91162 1.91162,-0.70312 4.32861,-0.70312 2.21924,0 3.99903,0.54931 1.77978,0.52735 3.09814,1.40625 1.34033,0.87891 2.24121,1.99951 0.90088,1.12061 1.38428,2.28516 l -4.28467,1.99951 q -0.57129,-0.90088 -1.20849,-1.58203 -0.61524,-0.70312 -1.38428,-1.18652 -0.74707,-0.4834 -1.6919,-0.7251 -0.94482,-0.2417 -2.15332,-0.2417 -1.58203,0 -2.8125,0.50537 -1.20849,0.50537 -2.13134,1.38428 -0.90088,0.8789 -1.53809,2.04346 -0.63721,1.16455 -1.03271,2.48291 -0.37354,1.29638 -0.54932,2.68066 -0.17578,1.38428 -0.17578,2.68066 0,2.08741 0.46142,4.19678 0.4834,2.10938 1.49414,3.80127 1.01075,1.69189 2.5708,2.74658 1.56006,1.05469 3.71338,1.05469 1.16455,0 2.08741,-0.28564 0.94482,-0.30762 1.71386,-0.83497 0.79102,-0.54931 1.40625,-1.29638 0.63721,-0.74707 1.18653,-1.64795 l 4.37256,1.66992 q -0.65918,1.53809 -1.64795,2.8125 -0.9668,1.27441 -2.30713,2.17529 -1.31836,0.90088 -3.03223,1.40625 -1.69189,0.50537 -3.7793,0.50537 z" />
      <path
         inkscape:connector-curvature="0"
         id="path4167"
         d="m 252.7463,551.47748 0,-23.00537 4.68018,0 0,23.00537 -4.68018,0 z m 2.3291,-26.58692 q -0.59326,0 -1.1206,-0.21972 -0.50538,-0.21973 -0.90088,-0.59326 -0.37354,-0.39551 -0.59326,-0.90088 -0.21973,-0.52735 -0.21973,-1.12061 0,-0.59326 0.21973,-1.09863 0.21972,-0.52735 0.59326,-0.90088 0.3955,-0.39551 0.90088,-0.61523 0.52734,-0.21973 1.1206,-0.21973 0.59326,0 1.09863,0.21973 0.52735,0.21972 0.90088,0.61523 0.39551,0.37353 0.61524,0.90088 0.21972,0.50537 0.21972,1.09863 0,0.59326 -0.21972,1.12061 -0.21973,0.50537 -0.61524,0.90088 -0.37353,0.37353 -0.90088,0.59326 -0.50537,0.21972 -1.09863,0.21972 z" />
      <path
         inkscape:connector-curvature="0"
         id="path4169"
         d="m 270.87374,552.02679 q -1.3623,0 -2.35107,-0.41748 -0.9668,-0.3955 -1.60401,-1.14257 -0.61523,-0.74707 -0.90088,-1.80176 -0.28564,-1.07666 -0.28564,-2.37305 l 0,-13.75488 -3.55957,0 0,-4.06494 3.55957,0 0,-7.22901 4.68018,-2.26318 0,9.49219 5.44921,0 0,4.06494 -5.44921,0 0,12.54639 q 0,0.57128 0.0879,1.05468 0.10986,0.4834 0.35156,0.83496 0.26367,0.35157 0.70312,0.54932 0.43946,0.17578 1.12061,0.17578 1.66992,0 3.40576,-1.07666 l -0.57129,4.35059 q -0.9668,0.4834 -2.10937,0.76904 -1.14258,0.28564 -2.52686,0.28564 z" />
      <path
         inkscape:connector-curvature="0"
         id="path4171"
         d="m 288.8254,560.20062 -4.76807,0 3.5376,-9.11865 -8.59131,-22.60986 4.63623,0 5.66895,15.05127 q 0.2417,0.6372 0.37353,1.05468 0.13184,0.41748 0.26368,0.9668 0.13183,-0.54932 0.26367,-0.9668 0.13183,-0.41748 0.37353,-1.05468 l 5.71289,-15.05127 4.68018,0 -12.15088,31.72851 z" />
    </g>
  </g>
</svg>
