<?xml version="1.0" encoding="UTF-8" standalone="no"?>
<!-- Created with Inkscape (http://www.inkscape.org/) -->

<svg
   xmlns:dc="http://purl.org/dc/elements/1.1/"
   xmlns:cc="http://creativecommons.org/ns#"
   xmlns:rdf="http://www.w3.org/1999/02/22-rdf-syntax-ns#"
   xmlns:svg="http://www.w3.org/2000/svg"
   xmlns="http://www.w3.org/2000/svg"
   xmlns:sodipodi="http://sodipodi.sourceforge.net/DTD/sodipodi-0.dtd"
   xmlns:inkscape="http://www.inkscape.org/namespaces/inkscape"
   width="460.40659"
   height="214.82222"
   viewBox="0 0 460.40659 214.82222"
   id="svg5824"
   version="1.1"
   inkscape:version="0.91 r13725"
   sodipodi:docname="SPS.svg"
   inkscape:export-filename="C:\Users\paulb\Dropbox\Projects\Terminal Silhouettes\Silhouettes\png\SPS.png"
   inkscape:export-xdpi="90"
   inkscape:export-ydpi="90">
  <sodipodi:namedview
     id="base"
     pagecolor="#ffffff"
     bordercolor="#666666"
     borderopacity="1.0"
     inkscape:pageopacity="1"
     inkscape:pageshadow="2"
     inkscape:zoom="1"
     inkscape:cx="105.19577"
     inkscape:cy="244.75045"
     inkscape:document-units="px"
     inkscape:current-layer="layer15"
     showgrid="false"
     inkscape:window-width="1920"
     inkscape:window-height="1137"
     inkscape:window-x="1912"
     inkscape:window-y="-8"
     inkscape:window-maximized="1"
     units="px"
     fit-margin-top="25"
     fit-margin-left="25"
     fit-margin-right="25"
     fit-margin-bottom="25"
     showguides="true"
     inkscape:guide-bbox="true"
     inkscape:object-nodes="true" />
  <defs
     id="defs5826" />
  <metadata
     id="metadata5829">
    <rdf:RDF>
      <cc:Work
         rdf:about="">
        <dc:format>image/svg+xml</dc:format>
        <dc:type
           rdf:resource="http://purl.org/dc/dcmitype/StillImage" />
        <dc:title></dc:title>
        <dc:description>Terminal silhouette of SPS (Wichita Falls)</dc:description>
      </cc:Work>
    </rdf:RDF>
  </metadata>
  <g
     transform="translate(1074.9868,-373.70336)"
     id="layer1"
     inkscape:groupmode="layer"
     inkscape:label="Terminal">
    <path
       id="rect6685"
       d="m -939.54221,450.90484 -9.53371,-12.88527 5.56707,-4.63716 -8.94913,-10.74374 2.02935,-1.69037 -9.84421,-11.81831 -18.56277,15.46208 -5.52804,-5.90978 -27.99335,23.31737 4.8132,6.50523 -5.664,4.71791 4.5354,6.13002 -15.0113,12.50387 7.4575,8.95301 -32.6702,27.21307 17.8603,19.09293 91.49389,-76.21086 z"
       style="opacity:1;fill:#dddddd;fill-opacity:1;stroke:#222222;stroke-width:1.5;stroke-linejoin:miter;stroke-miterlimit:4;stroke-dasharray:none;stroke-dashoffset:0;stroke-opacity:1"
       inkscape:connector-curvature="0" />
  </g>
  <g
     inkscape:groupmode="layer"
     id="layer14"
     inkscape:label="Label"
     transform="translate(-666.66487,-462.9483)">
    <g
       id="g7163"
       transform="translate(64.00005,156.23449)">
      <g
         style="font-style:normal;font-variant:normal;font-weight:bold;font-stretch:normal;font-size:125px;line-height:125%;font-family:Overpass;-inkscape-font-specification:'Overpass, Bold';text-align:start;letter-spacing:0px;word-spacing:0px;writing-mode:lr-tb;text-anchor:start;fill:#dddddd;fill-opacity:1;stroke:#222222;stroke-width:0.25;stroke-linecap:butt;stroke-linejoin:miter;stroke-miterlimit:4;stroke-dasharray:none;stroke-opacity:1"
         id="text6726">
        <path
           d="m 846.87262,357.10736 q -0.79346,-1.95312 -2.13623,-3.66211 -1.34277,-1.70898 -3.23486,-2.92969 -1.83106,-1.28173 -4.27247,-1.95312 -2.38037,-0.73242 -5.31005,-0.73242 -5.49317,0 -8.60596,2.19726 -3.05176,2.19727 -3.05176,6.16455 0,2.62452 1.95313,4.39453 1.95312,1.77002 5.12695,3.23487 3.17383,1.40381 7.20215,2.68554 4.08935,1.28174 8.36181,2.86866 4.27247,1.52588 8.30079,3.66211 4.08935,2.07519 7.26318,5.18798 3.17383,3.05176 5.12695,7.32422 1.95313,4.21143 1.95313,10.13184 0,6.40869 -2.44141,11.35254 -2.44141,4.94385 -6.71387,8.36182 -4.21142,3.41796 -10.00976,5.18798 -5.79834,1.77002 -12.51221,1.77002 -6.16455,0 -11.53564,-1.64795 -5.3711,-1.70898 -9.76563,-4.82177 -4.33349,-3.1128 -7.56836,-7.56836 -3.23486,-4.45557 -5.12695,-10.00977 l 15.38086,-5.7373 q 1.40381,3.05175 3.35693,5.61523 2.01416,2.50244 4.45557,4.3335 2.4414,1.77002 5.24902,2.80761 2.86865,0.97657 6.10352,0.97657 3.17383,0 5.7373,-0.67139 2.62451,-0.67139 4.45557,-2.01416 1.89209,-1.34277 2.86865,-3.2959 1.0376,-2.01416 1.0376,-4.63867 0,-3.17383 -1.95313,-5.31006 -1.95312,-2.19726 -5.12695,-3.78418 -3.17383,-1.64795 -7.26318,-2.92969 -4.02832,-1.34277 -8.30078,-2.80761 -4.21143,-1.46485 -8.30079,-3.41797 -4.02832,-1.95313 -7.20214,-4.82178 -3.17383,-2.86865 -5.12696,-6.89697 -1.95312,-4.02832 -1.95312,-9.76563 0,-4.94384 1.95312,-9.27734 2.01416,-4.39453 5.79834,-7.69043 3.78418,-3.2959 9.27735,-5.18799 5.49316,-1.95312 12.57324,-1.95312 5.92041,0 10.68115,1.52588 4.82178,1.52587 8.48389,4.27246 3.66211,2.68554 6.16455,6.40869 2.50244,3.66211 3.78418,8.05664 l -15.13672,5.00488 z"
           id="path7189"
           inkscape:connector-curvature="0" />
        <path
           d="m 884.22614,420.82806 0,-87.52441 37.53662,0 q 8.30078,0 13.97705,2.44141 5.67627,2.38037 9.21631,6.34765 3.54003,3.90625 5.06591,8.8501 1.58692,4.94385 1.58692,10.00977 0,3.17382 -0.73242,6.46972 -0.73243,3.23487 -2.2583,6.34766 -1.52588,3.05176 -3.90625,5.7373 -2.38038,2.68555 -5.73731,4.76075 -3.2959,2.01416 -7.62939,3.17382 -4.27247,1.15967 -9.58252,1.15967 l -20.62989,0 0,32.22656 -16.90673,0 z m 38.26904,-48.2788 q 3.23486,0 5.43213,-1.0376 2.19726,-1.0376 3.54004,-2.68555 1.4038,-1.64795 2.01416,-3.72314 0.61035,-2.0752 0.61035,-4.15039 0,-1.89209 -0.54932,-3.90625 -0.48828,-2.0752 -1.83105,-3.78418 -1.28174,-1.70899 -3.54004,-2.80762 -2.2583,-1.09863 -5.67627,-1.09863 l -21.36231,0 0,23.19336 21.36231,0 z"
           id="path7191"
           inkscape:connector-curvature="0" />
        <path
           d="m 1009.9586,357.10736 q -0.7935,-1.95312 -2.1363,-3.66211 -1.3427,-1.70898 -3.2348,-2.92969 -1.8311,-1.28173 -4.2725,-1.95312 -2.38037,-0.73242 -5.31006,-0.73242 -5.49316,0 -8.60595,2.19726 -3.05176,2.19727 -3.05176,6.16455 0,2.62452 1.95312,4.39453 1.95313,1.77002 5.12696,3.23487 3.17383,1.40381 7.20215,2.68554 4.08934,1.28174 8.36184,2.86866 4.2724,1.52588 8.3008,3.66211 4.0893,2.07519 7.2631,5.18798 3.1739,3.05176 5.127,7.32422 1.9531,4.21143 1.9531,10.13184 0,6.40869 -2.4414,11.35254 -2.4414,4.94385 -6.7139,8.36182 -4.2114,3.41796 -10.0097,5.18798 -5.7984,1.77002 -12.51223,1.77002 -6.16455,0 -11.53565,-1.64795 -5.37109,-1.70898 -9.76562,-4.82177 -4.3335,-3.1128 -7.56836,-7.56836 -3.23486,-4.45557 -5.12695,-10.00977 l 15.38086,-5.7373 q 1.4038,3.05175 3.35693,5.61523 2.01416,2.50244 4.45557,4.3335 2.4414,1.77002 5.24902,2.80761 2.86865,0.97657 6.10352,0.97657 3.17381,0 5.73731,-0.67139 2.6245,-0.67139 4.4556,-2.01416 1.892,-1.34277 2.8686,-3.2959 1.0376,-2.01416 1.0376,-4.63867 0,-3.17383 -1.9531,-5.31006 -1.9531,-2.19726 -5.127,-3.78418 -3.1738,-1.64795 -7.26316,-2.92969 -4.02832,-1.34277 -8.30078,-2.80761 -4.21142,-1.46485 -8.30078,-3.41797 -4.02832,-1.95313 -7.20215,-4.82178 -3.17382,-2.86865 -5.12695,-6.89697 -1.95312,-4.02832 -1.95312,-9.76563 0,-4.94384 1.95312,-9.27734 2.01416,-4.39453 5.79834,-7.69043 3.78418,-3.2959 9.27734,-5.18799 5.49317,-1.95312 12.57325,-1.95312 5.92039,0 10.68119,1.52588 4.8217,1.52587 8.4838,4.27246 3.6622,2.68554 6.1646,6.40869 2.5024,3.66211 3.7842,8.05664 l -15.1367,5.00488 z"
           id="path7193"
           inkscape:connector-curvature="0" />
      </g>
      <g
         style="font-style:normal;font-variant:normal;font-weight:normal;font-stretch:normal;font-size:45px;line-height:125%;font-family:Overpass;-inkscape-font-specification:'Overpass, Normal';text-align:start;letter-spacing:0px;word-spacing:0px;writing-mode:lr-tb;text-anchor:start;fill:#222222;fill-opacity:1;stroke:none;stroke-width:1px;stroke-linecap:butt;stroke-linejoin:miter;stroke-opacity:1"
         id="text6730">
        <path
           d="m 824.73883,438.46783 -6.81152,31.50879 -4.21875,0 -5.44922,-20.43457 q -0.32959,-1.25244 -0.52735,-2.02148 -0.17578,-0.79102 -0.24169,-1.38428 -0.0659,0.59326 -0.2417,1.38428 -0.17579,0.76904 -0.50537,2.02148 l -5.31739,20.43457 -4.24072,0 -6.74561,-31.50879 4.81202,0 3.91113,19.40186 q 0.28564,1.3623 0.43945,2.19727 0.17578,0.83496 0.2417,1.45019 0.0659,-0.61523 0.26367,-1.42822 0.21973,-0.83496 0.54932,-2.21924 l 4.94385,-19.40186 3.9331,0 5.07569,19.35791 q 0.37353,1.36231 0.54931,2.1753 0.19776,0.81299 0.26367,1.42822 0.0659,-0.61523 0.19776,-1.4502 0.15381,-0.83496 0.41748,-2.15332 l 3.97705,-19.35791 4.72412,0 z"
           id="path7196"
           inkscape:connector-curvature="0" />
        <path
           d="m 830.16608,469.97662 0,-23.00537 4.68017,0 0,23.00537 -4.68017,0 z m 2.3291,-26.58691 q -0.59326,0 -1.12061,-0.21973 -0.50537,-0.21972 -0.90088,-0.59326 -0.37353,-0.39551 -0.59326,-0.90088 -0.21972,-0.52734 -0.21972,-1.1206 0,-0.59326 0.21972,-1.09864 0.21973,-0.52734 0.59326,-0.90087 0.39551,-0.39551 0.90088,-0.61524 0.52735,-0.21973 1.12061,-0.21973 0.59326,0 1.09863,0.21973 0.52734,0.21973 0.90088,0.61524 0.39551,0.37353 0.61523,0.90087 0.21973,0.50538 0.21973,1.09864 0,0.59326 -0.21973,1.1206 -0.21972,0.50537 -0.61523,0.90088 -0.37354,0.37354 -0.90088,0.59326 -0.50537,0.21973 -1.09863,0.21973 z"
           id="path7198"
           inkscape:connector-curvature="0" />
        <path
           d="m 850.53473,470.52594 q -2.30713,0 -4.17481,-0.81299 -1.8457,-0.81299 -3.16406,-2.35107 -1.29638,-1.56006 -1.99951,-3.7793 -0.70312,-2.24121 -0.70312,-5.07568 0,-2.83448 0.70312,-5.07569 0.70313,-2.24121 1.99951,-3.77929 1.31836,-1.56006 3.16406,-2.37305 1.86768,-0.83496 4.17481,-0.83496 3.20801,0 5.42725,1.42822 2.24121,1.42822 3.25195,4.5044 l -4.43848,1.53808 q -0.50537,-1.31836 -1.53808,-2.13135 -1.03272,-0.83496 -2.52686,-0.83496 -1.31836,0 -2.3291,0.52735 -1.01074,0.52734 -1.71387,1.51611 -0.68115,0.9668 -1.05469,2.37305 -0.35156,1.38427 -0.35156,3.14209 0,1.75781 0.35156,3.16406 0.37354,1.38428 1.03272,2.35107 0.68115,0.9668 1.64795,1.49414 0.98877,0.50538 2.24121,0.50538 1.58203,0 2.70264,-0.87891 1.14257,-0.87891 1.62597,-2.50488 l 4.43848,1.40625 q -0.92285,3.208 -3.14209,4.85595 -2.19727,1.62598 -5.625,1.62598 z"
           id="path7200"
           inkscape:connector-curvature="0" />
        <path
           d="m 879.14313,469.97662 0,-13.73291 q 0,-1.45019 -0.35157,-2.46093 -0.35156,-1.03272 -0.96679,-1.66993 -0.61524,-0.65918 -1.4502,-0.94482 -0.83496,-0.30762 -1.82373,-0.30762 -1.05469,0 -1.95556,0.28565 -0.90088,0.26367 -1.56006,0.8789 -0.65918,0.61524 -1.05469,1.64795 -0.37354,1.01074 -0.37354,2.48291 l 0,13.8208 -4.68017,0 0,-30.32226 4.68017,-2.1753 0,11.71143 q 1.12061,-1.42822 2.57081,-2.0874 1.45019,-0.65918 3.36181,-0.65918 1.80176,0 3.31787,0.52734 1.51612,0.50537 2.61475,1.66992 1.1206,1.16456 1.73584,3.03223 0.61523,1.86768 0.61523,4.57031 l 0,13.73291 -4.68017,0 z"
           id="path7202"
           inkscape:connector-curvature="0" />
        <path
           d="m 890.37115,469.97662 0,-23.00537 4.68018,0 0,23.00537 -4.68018,0 z m 2.32911,-26.58691 q -0.59327,0 -1.12061,-0.21973 -0.50537,-0.21972 -0.90088,-0.59326 -0.37353,-0.39551 -0.59326,-0.90088 -0.21973,-0.52734 -0.21973,-1.1206 0,-0.59326 0.21973,-1.09864 0.21973,-0.52734 0.59326,-0.90087 0.39551,-0.39551 0.90088,-0.61524 0.52734,-0.21973 1.12061,-0.21973 0.59326,0 1.09863,0.21973 0.52734,0.21973 0.90088,0.61524 0.39551,0.37353 0.61523,0.90087 0.21973,0.50538 0.21973,1.09864 0,0.59326 -0.21973,1.1206 -0.21972,0.50537 -0.61523,0.90088 -0.37354,0.37354 -0.90088,0.59326 -0.50537,0.21973 -1.09863,0.21973 z"
           id="path7204"
           inkscape:connector-curvature="0" />
        <path
           d="m 908.4986,470.52594 q -1.36231,0 -2.35108,-0.41748 -0.96679,-0.39551 -1.604,-1.14258 -0.61524,-0.74707 -0.90088,-1.80176 -0.28565,-1.07666 -0.28565,-2.37304 l 0,-13.75489 -3.55957,0 0,-4.06494 3.55957,0 0,-7.229 4.68018,-2.26319 0,9.49219 5.44922,0 0,4.06494 -5.44922,0 0,12.54639 q 0,0.57129 0.0879,1.05469 0.10986,0.4834 0.35156,0.83496 0.26368,0.35156 0.70313,0.54932 0.43945,0.17578 1.1206,0.17578 1.66993,0 3.40577,-1.07666 l -0.57129,4.35058 q -0.9668,0.4834 -2.10938,0.76905 -1.14258,0.28564 -2.52685,0.28564 z"
           id="path7206"
           inkscape:connector-curvature="0" />
        <path
           d="m 936.51373,469.97662 -4.48242,0 0,-1.97754 q -0.43945,0.46143 -1.05469,0.92286 -0.61523,0.43945 -1.40625,0.81298 -0.76904,0.35157 -1.73584,0.57129 -0.96679,0.21973 -2.10937,0.21973 -1.75781,0 -3.25195,-0.4834 -1.49415,-0.4834 -2.59278,-1.45019 -1.09863,-0.98877 -1.73584,-2.417 -0.61523,-1.45019 -0.61523,-3.36181 0,-1.97754 0.74707,-3.40576 0.74707,-1.4502 1.97754,-2.37305 1.23047,-0.94483 2.8125,-1.38428 1.604,-0.43945 3.2959,-0.43945 1.58203,0 3.03222,0.35156 1.47217,0.32959 2.63672,1.01074 l 0,-1.27441 q 0,-1.29639 -0.30762,-2.19727 -0.28564,-0.90088 -0.90088,-1.45019 -0.59326,-0.57129 -1.51611,-0.81299 -0.92285,-0.26367 -2.19726,-0.26367 -2.15332,0 -3.73536,0.57129 -1.56005,0.57129 -2.83447,1.51611 l -1.38428,-3.84521 q 0.70313,-0.4834 1.60401,-0.90088 0.90088,-0.43946 1.97754,-0.76905 1.07666,-0.32959 2.3291,-0.50537 1.25244,-0.19775 2.68066,-0.19775 0.9668,0 1.99951,0.10986 1.03272,0.10987 1.99952,0.43946 0.98877,0.30761 1.8457,0.90087 0.87891,0.59327 1.51611,1.56006 0.65918,0.94483 1.03272,2.3291 0.37353,1.38428 0.37353,3.2959 l 0,14.89746 z m -9.93164,-3.60351 q 1.77979,0 3.14209,-0.7251 1.38428,-0.7251 2.30713,-1.73584 l 0,-3.51562 q -0.9668,-0.50538 -2.26318,-0.81299 -1.29639,-0.30762 -2.65869,-0.30762 -1.05469,0 -1.97754,0.19775 -0.92285,0.19776 -1.62598,0.63721 -0.68115,0.41748 -1.07666,1.09863 -0.39551,0.65918 -0.39551,1.60401 0,1.64795 1.14258,2.61474 1.16455,0.94483 3.40576,0.94483 z"
           id="path7208"
           inkscape:connector-curvature="0" />
        <path
           d="m 953.91608,469.97662 0,-31.50879 19.53369,0 0,4.41651 -14.85352,0 0,8.63525 9.60205,0 0,4.41651 -9.60205,0 0,14.04052 -4.68017,0 z"
           id="path7210"
           inkscape:connector-curvature="0" />
        <path
           d="m 992.23639,469.97662 -4.48242,0 0,-1.97754 q -0.43946,0.46143 -1.05469,0.92286 -0.61523,0.43945 -1.40625,0.81298 -0.76904,0.35157 -1.73584,0.57129 -0.9668,0.21973 -2.10938,0.21973 -1.75781,0 -3.25195,-0.4834 -1.49414,-0.4834 -2.59277,-1.45019 -1.09863,-0.98877 -1.73584,-2.417 -0.61524,-1.45019 -0.61524,-3.36181 0,-1.97754 0.74707,-3.40576 0.74707,-1.4502 1.97754,-2.37305 1.23047,-0.94483 2.8125,-1.38428 1.60401,-0.43945 3.2959,-0.43945 1.58203,0 3.03223,0.35156 1.47217,0.32959 2.63672,1.01074 l 0,-1.27441 q 0,-1.29639 -0.30762,-2.19727 -0.28564,-0.90088 -0.90088,-1.45019 -0.59326,-0.57129 -1.51611,-0.81299 -0.92285,-0.26367 -2.19727,-0.26367 -2.15332,0 -3.73535,0.57129 -1.56006,0.57129 -2.83447,1.51611 l -1.38428,-3.84521 q 0.70313,-0.4834 1.604,-0.90088 0.90088,-0.43946 1.97754,-0.76905 1.07666,-0.32959 2.32911,-0.50537 1.25244,-0.19775 2.68066,-0.19775 0.9668,0 1.99951,0.10986 1.03272,0.10987 1.99951,0.43946 0.98877,0.30761 1.84571,0.90087 0.8789,0.59327 1.51611,1.56006 0.65918,0.94483 1.03271,2.3291 0.37354,1.38428 0.37354,3.2959 l 0,14.89746 z m -9.93164,-3.60351 q 1.77978,0 3.14209,-0.7251 1.38428,-0.7251 2.30713,-1.73584 l 0,-3.51562 q -0.9668,-0.50538 -2.26319,-0.81299 -1.29638,-0.30762 -2.65869,-0.30762 -1.05469,0 -1.97754,0.19775 -0.92285,0.19776 -1.62597,0.63721 -0.68116,0.41748 -1.07666,1.09863 -0.39551,0.65918 -0.39551,1.60401 0,1.64795 1.14258,2.61474 1.16455,0.94483 3.40576,0.94483 z"
           id="path7212"
           inkscape:connector-curvature="0" />
        <path
           d="m 998.82819,469.97662 0,-30.27832 4.68021,-2.21924 0,32.49756 -4.68021,0 z"
           id="path7214"
           inkscape:connector-curvature="0" />
        <path
           d="m 1010.6934,469.97662 0,-30.27832 4.6802,-2.21924 0,32.49756 -4.6802,0 z"
           id="path7216"
           inkscape:connector-curvature="0" />
        <path
           d="m 1029.4361,470.52594 q -1.3623,0 -2.6587,-0.26367 -1.2964,-0.26367 -2.439,-0.74707 -1.1206,-0.4834 -2.0434,-1.16455 -0.9229,-0.70313 -1.5381,-1.56006 l 3.3179,-2.83447 q 0.3515,0.32959 0.8569,0.74707 0.5054,0.3955 1.1646,0.74707 0.6591,0.35156 1.4721,0.59326 0.813,0.2417 1.7798,0.2417 0.8789,0 1.626,-0.13184 0.7471,-0.13183 1.2744,-0.41748 0.5493,-0.28564 0.835,-0.74707 0.3076,-0.4834 0.3076,-1.18652 0,-0.81299 -0.5713,-1.38428 -0.5493,-0.59326 -1.4502,-1.05469 -0.9009,-0.4834 -2.0435,-0.90088 -1.1425,-0.43945 -2.3071,-0.92285 -1.0767,-0.46142 -2.1094,-1.01074 -1.0327,-0.54932 -1.8457,-1.31836 -0.791,-0.76904 -1.2964,-1.82373 -0.4834,-1.07666 -0.4834,-2.59277 0,-1.53809 0.6153,-2.72461 0.6372,-1.18653 1.7138,-1.97754 1.0987,-0.81299 2.5489,-1.23047 1.4721,-0.41748 3.1421,-0.41748 1.4721,0 2.7026,0.28564 1.2524,0.28565 2.2412,0.76905 1.0108,0.48339 1.7798,1.1206 0.769,0.61524 1.3403,1.29639 l -3.3838,2.68066 q -0.3076,-0.30761 -0.747,-0.6372 -0.4175,-0.35157 -0.9888,-0.63721 -0.5713,-0.28565 -1.2964,-0.46143 -0.7251,-0.19775 -1.6479,-0.19775 -1.4942,0 -2.3731,0.54932 -0.8569,0.54931 -0.8569,1.58203 0,0.65918 0.4614,1.16455 0.4614,0.4834 1.2524,0.90088 0.7911,0.41748 1.8018,0.81298 1.0327,0.37354 2.1533,0.81299 1.1865,0.46143 2.3291,1.03272 1.1426,0.57129 2.0215,1.40625 0.9009,0.83496 1.4282,2.02148 0.5494,1.18653 0.5494,2.85645 0,1.64795 -0.6153,2.92236 -0.6152,1.25244 -1.7578,2.10938 -1.1206,0.83496 -2.7246,1.25244 -1.582,0.43945 -3.5376,0.43945 z"
           id="path7218"
           inkscape:connector-curvature="0" />
      </g>
    </g>
  </g>
  <g
     inkscape:groupmode="layer"
     id="layer15"
     inkscape:label="Date"
     transform="translate(-666.66487,-462.9483)">
    <g
       style="font-style:normal;font-variant:normal;font-weight:300;font-stretch:normal;font-size:15px;line-height:125%;font-family:Overpass;-inkscape-font-specification:'Overpass, Light';text-align:start;letter-spacing:0px;word-spacing:0px;writing-mode:lr-tb;text-anchor:start;fill:#222222;fill-opacity:1;stroke:none;stroke-width:1px;stroke-linecap:butt;stroke-linejoin:miter;stroke-opacity:1"
       id="text6734">
      <path
         d="m 945.15618,652.59052 0,-8.595 -1.785,0 0,-0.6 q 0.795,0 1.35,-0.27 0.555,-0.285 0.81,-1.035 l 0.675,0 0,10.5 -1.05,0 z"
         id="path7170"
         inkscape:connector-curvature="0" />
      <path
         d="m 953.03798,652.59052 0,-2.835 -5.1,0 0,-0.555 5.52,-7.11 0.63,0 0,6.765 1.59,0 0,0.9 -1.59,0 0,2.835 -1.05,0 z m 0,-3.735 0,-4.95 -3.735,4.95 3.735,0 z"
         id="path7172"
         inkscape:connector-curvature="0" />
      <path
         d="m 965.16337,651.82552 q 0.9,0 1.515,-0.405 0.63,-0.405 1.005,-1.05 0.39,-0.645 0.555,-1.44 0.18,-0.81 0.18,-1.59 0,-0.855 -0.18,-1.665 -0.165,-0.81 -0.555,-1.425 -0.375,-0.63 -1.005,-1.005 -0.615,-0.39 -1.515,-0.39 -0.9,0 -1.53,0.405 -0.615,0.405 -1.005,1.05 -0.375,0.645 -0.555,1.455 -0.165,0.795 -0.165,1.575 0,0.855 0.165,1.665 0.18,0.81 0.555,1.44 0.39,0.615 1.005,1.005 0.63,0.375 1.53,0.375 z m 0,0.945 q -1.215,0 -2.055,-0.48 -0.825,-0.48 -1.335,-1.26 -0.51,-0.78 -0.735,-1.74 -0.225,-0.975 -0.225,-1.95 0,-0.975 0.225,-1.935 0.225,-0.975 0.735,-1.755 0.51,-0.78 1.335,-1.26 0.84,-0.48 2.055,-0.48 1.215,0 2.04,0.48 0.84,0.48 1.35,1.26 0.51,0.78 0.735,1.755 0.225,0.96 0.225,1.935 0,0.975 -0.225,1.95 -0.225,0.96 -0.735,1.74 -0.51,0.78 -1.35,1.26 -0.825,0.48 -2.04,0.48 z"
         id="path7174"
         inkscape:connector-curvature="0" />
      <path
         d="m 974.25313,652.77052 q -1.395,0 -2.22,-1.035 -0.81,-1.05 -0.81,-2.97 0,-1.905 0.825,-2.955 0.84,-1.065 2.325,-1.065 0.855,0 1.5,0.42 0.645,0.405 0.96,1.185 l -0.96,0.375 q -0.18,-0.435 -0.555,-0.735 -0.36,-0.3 -0.99,-0.3 -0.54,0 -0.915,0.225 -0.375,0.21 -0.63,0.615 -0.24,0.39 -0.36,0.96 -0.105,0.57 -0.105,1.275 0,1.455 0.48,2.265 0.48,0.795 1.5,0.795 0.63,0 1.065,-0.315 0.435,-0.315 0.63,-0.855 l 0.945,0.36 q -0.27,0.81 -0.99,1.29 -0.705,0.465 -1.695,0.465 z"
         id="path7176"
         inkscape:connector-curvature="0" />
      <path
         d="m 980.72868,652.77052 q -0.825,0 -1.17,-0.495 -0.345,-0.51 -0.345,-1.26 l 0,-5.145 -1.305,0 0,-0.945 1.305,0 0,-2.64 1.05,-0.525 0,3.165 1.95,0 0,0.945 -1.95,0 0,4.695 q 0,0.255 0.015,0.48 0.03,0.21 0.12,0.375 0.09,0.165 0.255,0.27 0.165,0.09 0.435,0.09 0.39,0 0.66,-0.15 0.285,-0.15 0.495,-0.3 l -0.12,1.095 q -0.3,0.165 -0.63,0.255 -0.33,0.09 -0.765,0.09 z"
         id="path7178"
         inkscape:connector-curvature="0" />
      <path
         d="m 987.51782,652.59052 q 0,-0.99 0.285,-1.695 0.285,-0.72 0.735,-1.26 0.45,-0.54 1.02,-0.945 0.57,-0.405 1.14,-0.795 0.495,-0.33 0.945,-0.645 0.45,-0.33 0.795,-0.69 0.36,-0.36 0.57,-0.765 0.21,-0.42 0.21,-0.93 0,-0.855 -0.6,-1.425 -0.585,-0.585 -1.68,-0.585 -1.065,0 -1.605,0.48 -0.54,0.465 -0.735,1.215 l -0.93,-0.42 q 0.12,-0.465 0.405,-0.87 0.285,-0.405 0.72,-0.705 0.435,-0.3 0.99,-0.465 0.57,-0.18 1.245,-0.18 1.56,0 2.415,0.81 0.87,0.795 0.87,2.145 0,0.72 -0.285,1.275 -0.27,0.555 -0.72,1.02 -0.435,0.45 -0.99,0.84 -0.555,0.375 -1.125,0.735 -0.45,0.3 -0.87,0.6 -0.42,0.285 -0.78,0.63 -0.345,0.33 -0.585,0.735 -0.24,0.39 -0.33,0.885 l 5.775,0 0,1.005 -6.885,0 z"
         id="path7180"
         inkscape:connector-curvature="0" />
      <path
         d="m 1000.097,652.77052 q -1.03504,0 -1.72504,-0.48 -0.69,-0.48 -1.11,-1.245 -0.405,-0.78 -0.585,-1.74 -0.18,-0.975 -0.18,-1.965 0,-0.54 0.06,-1.155 0.06,-0.63 0.21,-1.23 0.165,-0.6 0.42,-1.155 0.27,-0.555 0.675,-0.975 0.405,-0.42 0.945,-0.66 0.555,-0.255 1.29004,-0.255 1.035,0 1.725,0.495 0.69,0.48 1.095,1.26 0.42,0.78 0.6,1.755 0.18,0.96 0.18,1.92 0,0.555 -0.075,1.17 -0.06,0.615 -0.225,1.23 -0.15,0.6 -0.42,1.155 -0.255,0.54 -0.66,0.96 -0.405,0.42 -0.96,0.675 -0.54,0.24 -1.26,0.24 z m 0,-0.945 q 0.78,0 1.26,-0.42 0.495,-0.435 0.765,-1.095 0.27,-0.66 0.36,-1.455 0.09,-0.795 0.09,-1.515 0,-0.81 -0.105,-1.605 -0.105,-0.81 -0.39,-1.44 -0.285,-0.645 -0.765,-1.035 -0.48,-0.405 -1.215,-0.405 -0.79504,0 -1.29004,0.435 -0.48,0.435 -0.75,1.095 -0.27,0.66 -0.375,1.455 -0.09,0.78 -0.09,1.5 0,0.825 0.105,1.635 0.105,0.795 0.39,1.44 0.285,0.63 0.765,1.02 0.495,0.39 1.24504,0.39 z"
         id="path7182"
         inkscape:connector-curvature="0" />
      <path
         d="m 1007.1191,652.59052 0,-8.595 -1.785,0 0,-0.6 q 0.795,0 1.35,-0.27 0.555,-0.285 0.81,-1.035 l 0.675,0 0,10.5 -1.05,0 z"
         id="path7184"
         inkscape:connector-curvature="0" />
      <path
         d="m 1012.2038,652.59052 q 0.015,-1.23 0.15,-2.43 0.15,-1.2 0.51,-2.385 0.375,-1.185 0.99,-2.37 0.615,-1.2 1.575,-2.415 l -5.085,0 0,-0.9 6.285,0 0,0.69 q -1.095,1.26 -1.755,2.595 -0.66,1.32 -1.02,2.61 -0.36,1.275 -0.48,2.46 -0.12,1.185 -0.12,2.145 l -1.05,0 z"
         id="path7186"
         inkscape:connector-curvature="0" />
    </g>
  </g>
</svg>
