<?xml version="1.0" encoding="UTF-8" standalone="no"?>
<!-- Created with Inkscape (http://www.inkscape.org/) -->

<svg
   xmlns:dc="http://purl.org/dc/elements/1.1/"
   xmlns:cc="http://creativecommons.org/ns#"
   xmlns:rdf="http://www.w3.org/1999/02/22-rdf-syntax-ns#"
   xmlns:svg="http://www.w3.org/2000/svg"
   xmlns="http://www.w3.org/2000/svg"
   xmlns:sodipodi="http://sodipodi.sourceforge.net/DTD/sodipodi-0.dtd"
   xmlns:inkscape="http://www.inkscape.org/namespaces/inkscape"
   width="1402.7878"
   height="1060.2781"
   viewBox="0 0 1402.7879 1060.2781"
   id="svg2"
   version="1.1"
   inkscape:version="0.91 r13725"
   sodipodi:docname="STL.svg"
   inkscape:export-filename="C:\Users\Paul Bogard\Dropbox\Documents\Websites\Flight Log\Images\Terminals\STL.png"
   inkscape:export-xdpi="89.996498"
   inkscape:export-ydpi="89.996498">
  <defs
     id="defs4" />
  <sodipodi:namedview
     id="base"
     pagecolor="#ffffff"
     bordercolor="#666666"
     borderopacity="1.0"
     inkscape:pageopacity="1"
     inkscape:pageshadow="2"
     inkscape:zoom="0.5"
     inkscape:cx="571.52164"
     inkscape:cy="498.98206"
     inkscape:document-units="px"
     inkscape:current-layer="layer3"
     showgrid="false"
     units="px"
     fit-margin-top="25"
     fit-margin-left="25"
     fit-margin-right="25"
     fit-margin-bottom="25"
     inkscape:window-width="1680"
     inkscape:window-height="987"
     inkscape:window-x="1672"
     inkscape:window-y="-8"
     inkscape:window-maximized="1" />
  <metadata
     id="metadata7">
    <rdf:RDF>
      <cc:Work
         rdf:about="">
        <dc:format>image/svg+xml</dc:format>
        <dc:type
           rdf:resource="http://purl.org/dc/dcmitype/StillImage" />
        <dc:title></dc:title>
      </cc:Work>
    </rdf:RDF>
  </metadata>
  <g
     inkscape:groupmode="layer"
     id="layer2"
     inkscape:label="Terminal"
     transform="translate(-3956.6739,-2677.7174)">
    <path
       style="fill:#dddddd;fill-opacity:1;fill-rule:evenodd;stroke:#222222;stroke-width:1.5;stroke-linecap:butt;stroke-linejoin:miter;stroke-miterlimit:4;stroke-dasharray:none;stroke-opacity:1"
       d="m 3995.124,2703.743 -12.421,20.1365 32.303,20.2636 -3.1794,5.2566 5.0447,3.1371 3.2218,-5.1719 34.6771,21.9593 3.0523,3.9849 29.9291,131.4168 7.7154,-1.7381 4.2816,20.094 -4.1968,1.0174 0.2543,-0.4239 -9.6654,-5.8502 -3.6458,0.7631 0.085,0.4239 -2.2892,0.5087 -0.106,-0.4027 -11.7215,2.6495 1.3353,6.0622 12.0183,-2.8827 56.0853,34.9738 -9.4111,15.0493 1.95,1.3142 -10.5557,17.1266 179.6057,112.3689 c 0,0 1.7385,3.5971 -0.2699,6.4748 l -1.5589,2.578 14.6883,9.3224 5.4558,-9.5625 2.3981,-0.4196 7.4939,33.6931 -0.8952,0.1927 0.975,4.6208 1.6533,-0.2968 14.8374,64.7334 12.7177,-3.1371 -14.9221,-64.0126 1.6109,-0.2544 26.2863,115.1834 112.8883,70.6653 3.7305,7.0372 4.1121,-2.2468 12.8449,8.0546 3.7305,7.1219 4.0697,-2.2892 2.6284,1.5685 3.7729,7.122 4.1121,-2.2892 48.6666,30.4802 0.4239,-0.5511 51.9732,32.727 3.7729,7.0795 4.0697,-2.3316 54.5591,33.9564 3.561,6.9524 4.1121,-2.2468 2.6707,1.5685 3.6882,7.1644 4.1544,-2.3316 2.586,1.6533 3.5609,7.0371 4.1969,-2.162 70.3292,43.4523 3.7305,7.0372 4.1969,-2.2044 2.4587,1.6533 3.773,7.1643 4.112,-2.374 130.4417,80.5034 4.9868,-2.7519 0.2547,0.4044 41.8165,-22.6167 5.0361,3.3573 77.2183,-42.2962 -2.728,-4.7062 0.4796,-0.2997 -0.7194,-1.0492 2.6677,-1.3788 66.337,43.705 -20.6832,31.295 1.7384,1.1989 -4.8559,7.2541 92.3858,61.0313 25.42,-39.1489 97.1821,64.0889 3.5169,-5.3749 0.424,0.2543 0.2967,-0.4239 0.8479,0.6783 7.0371,-8.6905 2.1196,-0.085 -0.1271,-2.1197 -1.3142,0 c 0,0 -62.2322,-50.1503 -131.6711,-96.2733 l 4.1969,-6.6133 -27.0465,-17.72 -4.324,6.6132 c 0,0 -63.2496,-40.8664 -132.6037,-77.6207 l -6.2741,11.4248 1.0386,0.7631 -3.7094,5.723 9.4324,6.3588 -8.3937,4.5784 -4.4513,-8.0334 -16.9358,9.2416 -3.4337,-5.9349 -5.4263,2.925 3.3066,6.147 -83.2376,45.148 0.2755,0.4875 -3.5822,2.0348 -6.9523,-4.3028 -3.1795,5.2779 -31.4363,-19.3078 9.2025,-15.0179 -3.4173,-2.2183 0.9294,-1.4387 -6.8345,-4.3168 -0.9893,1.5291 -28.9571,-18.0757 0.7495,-1.1691 -6.5645,-4.2565 -10.2219,16.6665 -0.5395,-0.3596 3.1775,-5.2756 c -0.12,-0.06 -210.9723,-130.8491 -210.9723,-130.8491 l -3.1794,5.3415 -47.6068,-29.7596 0.8054,-1.4413 -5.511,-3.4338 -1.1446,1.9077 -31.9215,-20.0517 3.2642,-5.0871 -108.652,-67.7856 4.9599,-8.0122 -23.8669,-14.9645 -5.1295,7.9274 -22.5104,-14.0743 -12.2939,-53.6689 -6.3165,1.4837 -11.8699,-52.3124 c 0,0 5.0024,-0.975 4.2817,-5.0023 0,0 -0.085,-1.5685 -1.9925,-3.0522 l -10.3013,-45.8687 7.2915,-1.6533 c 0,0 1.0708,-0.1711 1.9401,-1.6099 l 3.5971,-5.8452 c 0,0 0.8093,-1.1091 0.3596,-3.1775 l -1.488,-6.3244 0.5935,-0.1696 -0.2968,-1.187 60.0027,-14.0594 0.5762,2.4863 2.8827,-0.6783 -0.5511,-2.4588 68.1072,-15.8882 4.9159,0.8392 293.5253,182.9737 12.2902,-19.844 -293.1057,-183.0336 1.5589,-10.0722 -41.127,-6.7146 -2.9976,17.3862 -111.391,25.8393 -0.2699,-0.9592 -0.3895,0.1199 -1.1091,-5.0361 c 0,0 -0.1673,-1.3168 -1.9054,-2.4614 l -18.2986,-11.5374 c 0,0 -2.608,-1.6484 -4.4065,1.0194 l -0.7495,1.1989 -20.6833,-12.9797 -1.1899,1.9792 -0.4693,-0.3302 1.0598,-1.9186 c 0,0 -8.4834,-6.6848 -14.1488,-12.2603 0,0 -8.2435,-2.9677 -16.8766,-7.1644 l -1.3916,1.1055 -6.0198,-3.8153 0.5935,-1.9077 c 0,0 -5.8925,-4.4936 -11.022,-9.3687 l -1.8653,-23.7822 37.8141,-60.3669 4.0734,2.632 5.5756,-1.3192 1.7987,-3.0873 31.0849,-7.0147 -7.1348,-4.6068 -10.2166,2.3316 -20.6581,-13.1324 2.5181,-4.0767 -8.3633,-5.1258 -2.4882,4.0766 -17.1763,-10.8213 -2.2183,-10.0421 -7.2839,-4.5562 7.0743,31.3251 -1.9786,3.0575 1.0794,5.2458 4.3164,2.6979 -37.826,60.3619 6.5708,4.1969 -8.86,14.2015 -0.9751,-0.2968 -6.1045,-24.0365 2.7555,-0.5511 9.6655,-15.3461 -23.7398,-15.007 -2.1196,0.5511 -0.5087,-1.95 -3.4762,-2.4164 -2.2892,0.4663 -2.2044,3.561 0.5935,2.2892 -2.4164,0.3815 -6.3165,10.3438 12.2515,8.1393 -4.3241,6.2317 1.7381,7.3339 6.8676,4.3665 7.3339,-1.5685 3.349,-5.2143 5.2567,22.3832 -8.1818,-5.0871 c 0,0 -1.3989,-1.0598 -3.4761,-3.0099 0,0 -8.5209,-2.7555 -16.9994,-7.2915 l -1.3566,1.187 -5.8078,-3.5609 0.6359,-1.8229 c 0,0 -5.6806,-4.6208 -14.3286,-12.2091 0,0 -8.6057,-3.1794 -16.6179,-7.2915 l -3.6882,3.349 -0.2967,-0.2543 3.9425,-6.5285 -29.2084,-18.5255 -20.8571,4.6632 0.9326,4.4936 -2.8827,0.6359 -3.6034,-16.3635 7.1644,-1.6957 -26.9193,-118.6142 0.8055,-0.1696 0.4239,1.8653 5.5958,-1.3142 -1.3989,-5.9773 -6.4013,1.4413 -1.8653,-8.3089 15.6429,-11.1069 -13.5656,-19.2038 -15.6429,11.1069 -71.8976,-45.4872 z m 250.2853,255.3724 0.4663,0.2544 1.8229,23.6974 c -1.0598,-0.3391 -2.586,-1.0174 -2.586,-1.0174 l -9.9622,-6.4013 10.259,-16.5331 z"
       id="path4148"
       inkscape:connector-curvature="0" />
  </g>
  <g
     inkscape:groupmode="layer"
     id="layer3"
     inkscape:label="Label">
    <g
       id="g4164"
       transform="translate(302.68671,228.41044)">
      <g
         style="font-style:normal;font-variant:normal;font-weight:bold;font-stretch:normal;font-size:125px;line-height:110.00000238%;font-family:Overpass;-inkscape-font-specification:'Overpass, Bold';text-align:center;letter-spacing:0px;word-spacing:0px;writing-mode:lr-tb;text-anchor:middle;fill:#dddddd;fill-opacity:1;stroke:#222222;stroke-width:0.25;stroke-linecap:butt;stroke-linejoin:miter;stroke-miterlimit:4;stroke-dasharray:none;stroke-opacity:1"
         id="text4154">
        <path
           d="m 640.35455,25.983101 q -0.79345,-1.953125 -2.13623,-3.662109 -1.34277,-1.708985 -3.23486,-2.929688 -1.83106,-1.281738 -4.27246,-1.953125 -2.38037,-0.732422 -5.31006,-0.732422 -5.49316,0 -8.60596,2.197266 -3.05175,2.197265 -3.05175,6.164551 0,2.624511 1.95312,4.394531 1.95313,1.770019 5.12695,3.234863 3.17383,1.403809 7.20215,2.685547 4.08936,1.281738 8.36182,2.868652 4.27246,1.525879 8.30078,3.66211 4.08935,2.075195 7.26318,5.187988 3.17383,3.051758 5.12696,7.324219 1.95312,4.211425 1.95312,10.131836 0,6.408691 -2.44141,11.352539 -2.4414,4.943847 -6.71386,8.361816 -4.21143,3.417969 -10.00977,5.187988 -5.79834,1.77002 -12.51221,1.77002 -6.16455,0 -11.53564,-1.647949 -5.37109,-1.708985 -9.76562,-4.821778 -4.3335,-3.112793 -7.56836,-7.568359 -3.23487,-4.455566 -5.12696,-10.009766 l 15.38086,-5.737304 q 1.40381,3.051757 3.35694,5.615234 2.01416,2.502441 4.45556,4.333496 2.44141,1.77002 5.24903,2.807617 2.86865,0.976563 6.10351,0.976563 3.17383,0 5.73731,-0.671387 2.62451,-0.671387 4.45556,-2.01416 1.89209,-1.342773 2.86865,-3.295898 1.0376,-2.014161 1.0376,-4.638672 0,-3.173828 -1.95312,-5.310059 -1.95313,-2.197266 -5.12696,-3.78418 -3.17382,-1.647949 -7.26318,-2.929687 -4.02832,-1.342774 -8.30078,-2.807617 -4.21143,-1.464844 -8.30078,-3.417969 -4.02832,-1.953125 -7.20215,-4.821777 -3.17383,-2.868653 -5.12695,-6.896973 -1.95313,-4.02832 -1.95313,-9.765625 0,-4.943848 1.95313,-9.277344 2.01416,-4.394531 5.79834,-7.6904295 3.78418,-3.2958985 9.27734,-5.1879883 5.49316,-1.953125 12.57324,-1.953125 5.92041,0 10.68115,1.5258789 4.82178,1.5258789 8.48389,4.2724609 3.66211,2.6855469 6.16455,6.408691 2.50244,3.66211 3.78418,8.056641 l -15.13672,5.004883 z"
           style=""
           id="path4174" />
        <path
           d="m 713.96295,18.475777 0,71.228027 -16.8457,0 0,-71.228027 -25.02442,0 0,-16.296387 66.89454,0 0,16.296387 -25.02442,0 z"
           style=""
           id="path4176" />
        <path
           d="m 755.83307,89.703804 0,-87.524414 16.90674,0 0,71.289062 42.23633,0 0,16.235352 -59.14307,0 z"
           style=""
           id="path4178" />
      </g>
      <g
         style="font-style:normal;font-variant:normal;font-weight:normal;font-stretch:normal;font-size:45px;line-height:110.00000238%;font-family:Overpass;-inkscape-font-specification:'Overpass, Normal';text-align:center;letter-spacing:0px;word-spacing:0px;writing-mode:lr-tb;text-anchor:middle;fill:#222222;fill-opacity:1;stroke:none;stroke-width:1px;stroke-linecap:butt;stroke-linejoin:miter;stroke-opacity:1"
         id="text4160">
        <path
           d="m 635.65607,114.50664 q -0.28565,-0.68115 -0.79102,-1.25244 -0.50537,-0.59327 -1.23047,-1.01075 -0.7251,-0.43945 -1.66992,-0.68115 -0.92285,-0.2417 -2.06543,-0.2417 -2.26318,0 -3.5376,0.98877 -1.27441,0.98877 -1.27441,2.79053 0,1.1206 0.70312,1.91162 0.70313,0.76904 1.84571,1.36231 1.14258,0.59326 2.59277,1.09863 1.47217,0.4834 2.98828,1.07666 1.53809,0.57129 2.98828,1.34033 1.47217,0.74707 2.61475,1.8457 1.14258,1.07666 1.8457,2.61475 0.70313,1.51611 0.70313,3.64746 0,2.26318 -0.83496,4.021 -0.81299,1.73584 -2.26319,2.94433 -1.45019,1.18653 -3.42773,1.82373 -1.95557,0.61524 -4.21875,0.61524 -2.10938,0 -3.95508,-0.54932 -1.82373,-0.52734 -3.31787,-1.51611 -1.47217,-1.01074 -2.54883,-2.41699 -1.07666,-1.42823 -1.66992,-3.18604 l 4.4165,-1.604 q 0.4834,1.05468 1.18653,1.93359 0.72509,0.87891 1.64795,1.51611 0.92285,0.61524 2.02148,0.9668 1.12061,0.35156 2.39502,0.35156 1.27441,0 2.3291,-0.30761 1.05469,-0.30762 1.80176,-0.92286 0.74707,-0.61523 1.16455,-1.51611 0.41748,-0.92285 0.41748,-2.10937 0,-1.40625 -0.70312,-2.35108 -0.70313,-0.9668 -1.84571,-1.66992 -1.14258,-0.70313 -2.61474,-1.23047 -1.4502,-0.52734 -2.98828,-1.07666 -1.51612,-0.54932 -2.98829,-1.23047 -1.45019,-0.68115 -2.59277,-1.66992 -1.14258,-0.98877 -1.8457,-2.37305 -0.70313,-1.38427 -0.70313,-3.38379 0,-1.66992 0.65918,-3.16406 0.68115,-1.49414 1.95557,-2.61474 1.27441,-1.14258 3.14209,-1.80176 1.86767,-0.65918 4.26269,-0.65918 1.99952,0 3.62549,0.4834 1.62598,0.46142 2.83447,1.29638 1.23047,0.83496 2.04346,1.97754 0.81299,1.14258 1.23047,2.48291 l -4.32861,1.4502 z"
           style=""
           id="path4181" />
        <path
           d="m 654.09113,139.40166 q -1.36231,0 -2.35108,-0.41748 -0.9668,-0.39551 -1.604,-1.14258 -0.61524,-0.74707 -0.90088,-1.80176 -0.28565,-1.07666 -0.28565,-2.37305 l 0,-13.75488 -3.55957,0 0,-4.06494 3.55957,0 0,-7.229 4.68018,-2.26319 0,9.49219 5.44922,0 0,4.06494 -5.44922,0 0,12.54639 q 0,0.57129 0.0879,1.05469 0.10986,0.48339 0.35156,0.83496 0.26367,0.35156 0.70313,0.54931 0.43945,0.17578 1.1206,0.17578 1.66993,0 3.40577,-1.07666 l -0.57129,4.35059 q -0.9668,0.4834 -2.10938,0.76904 -1.14258,0.28565 -2.52685,0.28565 z"
           style=""
           id="path4183" />
        <path
           d="m 666.0882,139.40166 q -0.7251,0 -1.34034,-0.26367 -0.61523,-0.26368 -1.07666,-0.70313 -0.43945,-0.46143 -0.70312,-1.05469 -0.2417,-0.59326 -0.2417,-1.27441 0,-0.68115 0.2417,-1.27442 0.26367,-0.61523 0.70312,-1.05468 0.46143,-0.46143 1.07666,-0.7251 0.61524,-0.26367 1.34034,-0.26367 0.70312,0 1.31836,0.26367 0.6372,0.26367 1.09863,0.7251 0.46142,0.43945 0.7251,1.05468 0.28564,0.59327 0.28564,1.27442 0,0.68115 -0.28564,1.27441 -0.26368,0.59326 -0.7251,1.05469 -0.46143,0.43945 -1.09863,0.70313 -0.61524,0.26367 -1.31836,0.26367 z"
           style=""
           id="path4185" />
        <path
           d="m 685.534,138.85234 0,-31.50879 4.68017,0 0,27.0044 15.40283,0 0,4.50439 -20.083,0 z"
           style=""
           id="path4187" />
        <path
           d="m 720.42657,139.40166 q -2.41699,0 -4.37255,-0.81299 -1.9336,-0.81299 -3.2959,-2.35108 -1.36231,-1.56005 -2.10938,-3.77929 -0.72509,-2.24121 -0.72509,-5.07569 0,-2.83447 0.72509,-5.07568 0.74707,-2.24121 2.10938,-3.7793 1.3623,-1.56005 3.2959,-2.37304 1.95556,-0.83496 4.37255,-0.83496 2.39502,0 4.35059,0.83496 1.95557,0.81299 3.31787,2.37304 1.36231,1.53809 2.10938,3.7793 0.74707,2.24121 0.74707,5.07568 0,2.83448 -0.74707,5.07569 -0.74707,2.21924 -2.10938,3.77929 -1.3623,1.53809 -3.31787,2.35108 -1.95557,0.81299 -4.35059,0.81299 z m 0,-4.41651 q 1.34034,0 2.417,-0.52734 1.09863,-0.52734 1.8457,-1.49414 0.76904,-0.98877 1.16455,-2.39502 0.41748,-1.40625 0.41748,-3.18604 0,-1.77978 -0.41748,-3.18603 -0.39551,-1.42822 -1.16455,-2.41699 -0.74707,-0.98877 -1.8457,-1.51612 -1.07666,-0.52734 -2.417,-0.52734 -1.34033,0 -2.41699,0.52734 -1.07666,0.52735 -1.8457,1.51612 -0.74707,0.98877 -1.16455,2.41699 -0.39551,1.40625 -0.39551,3.18603 0,1.77979 0.39551,3.18604 0.41748,1.40625 1.16455,2.39502 0.76904,0.9668 1.8457,1.49414 1.07666,0.52734 2.41699,0.52734 z"
           style=""
           id="path4189" />
        <path
           d="m 750.55109,138.85234 0,-2.19726 q -1.12061,1.42822 -2.59278,2.0874 -1.45019,0.65918 -3.36181,0.65918 -1.80176,0 -3.31787,-0.52735 -1.51612,-0.50537 -2.63672,-1.66992 -1.09864,-1.18652 -1.71387,-3.0542 -0.61523,-1.86767 -0.61523,-4.57031 l 0,-13.73291 4.68017,0 0,13.73291 q 0,1.4502 0.35156,2.48291 0.35157,1.01074 0.9668,1.66992 0.61523,0.65918 1.4502,0.9668 0.83496,0.28564 1.82373,0.28564 1.05468,0 1.95556,-0.26367 0.90088,-0.28564 1.56006,-0.90088 0.68115,-0.6372 1.05469,-1.64795 0.39551,-1.01074 0.39551,-2.50488 l 0,-13.8208 4.68017,0 0,23.00537 -4.68017,0 z"
           style=""
           id="path4191" />
        <path
           d="m 761.99884,138.85234 0,-23.00537 4.68018,0 0,23.00537 -4.68018,0 z m 2.3291,-26.58691 q -0.59326,0 -1.1206,-0.21973 -0.50537,-0.21973 -0.90088,-0.59326 -0.37354,-0.39551 -0.59326,-0.90088 -0.21973,-0.52734 -0.21973,-1.12061 0,-0.59326 0.21973,-1.09863 0.21972,-0.52734 0.59326,-0.90088 0.39551,-0.39551 0.90088,-0.61523 0.52734,-0.21973 1.1206,-0.21973 0.59326,0 1.09863,0.21973 0.52735,0.21972 0.90088,0.61523 0.39551,0.37354 0.61524,0.90088 0.21972,0.50537 0.21972,1.09863 0,0.59327 -0.21972,1.12061 -0.21973,0.50537 -0.61524,0.90088 -0.37353,0.37353 -0.90088,0.59326 -0.50537,0.21973 -1.09863,0.21973 z"
           style=""
           id="path4193" />
        <path
           d="m 780.56573,139.40166 q -1.3623,0 -2.65869,-0.26367 -1.29638,-0.26368 -2.43896,-0.74708 -1.12061,-0.48339 -2.04346,-1.16455 -0.92285,-0.70312 -1.53808,-1.56005 l 3.31787,-2.83448 q 0.35156,0.32959 0.85693,0.74707 0.50537,0.39551 1.16455,0.74707 0.65918,0.35157 1.47217,0.59327 0.81299,0.24169 1.77978,0.24169 0.87891,0 1.62598,-0.13183 0.74707,-0.13184 1.27441,-0.41748 0.54932,-0.28565 0.83497,-0.74707 0.30761,-0.4834 0.30761,-1.18653 0,-0.81298 -0.57129,-1.38427 -0.54931,-0.59326 -1.45019,-1.05469 -0.90088,-0.4834 -2.04346,-0.90088 -1.14258,-0.43945 -2.30713,-0.92285 -1.07666,-0.46143 -2.10937,-1.01074 -1.03272,-0.54932 -1.84571,-1.31836 -0.79101,-0.76905 -1.29638,-1.82373 -0.4834,-1.07666 -0.4834,-2.59278 0,-1.53808 0.61523,-2.72461 0.63721,-1.18652 1.71387,-1.97753 1.09863,-0.81299 2.54883,-1.23047 1.47217,-0.41748 3.14209,-0.41748 1.47217,0 2.70264,0.28564 1.25244,0.28564 2.24121,0.76904 1.01074,0.4834 1.77978,1.12061 0.76904,0.61523 1.34033,1.29639 l -3.38379,2.68066 q -0.30761,-0.30762 -0.74707,-0.63721 -0.41748,-0.35156 -0.98877,-0.6372 -0.57128,-0.28565 -1.29638,-0.46143 -0.7251,-0.19775 -1.64795,-0.19775 -1.49414,0 -2.37305,0.54931 -0.85693,0.54932 -0.85693,1.58203 0,0.65918 0.46142,1.16455 0.46143,0.4834 1.25245,0.90088 0.79101,0.41748 1.80175,0.81299 1.03272,0.37354 2.15332,0.81299 1.18653,0.46143 2.32911,1.03271 1.14257,0.57129 2.02148,1.40625 0.90088,0.83497 1.42822,2.02149 0.54932,1.18652 0.54932,2.85644 0,1.64795 -0.61524,2.92237 -0.61523,1.25244 -1.75781,2.10937 -1.1206,0.83496 -2.72461,1.25244 -1.58203,0.43946 -3.5376,0.43946 z"
           style=""
           id="path4195" />
      </g>
    </g>
  </g>
</svg>
