<?xml version="1.0" encoding="UTF-8" standalone="no"?>
<!-- Created with Inkscape (http://www.inkscape.org/) -->

<svg
   xmlns:dc="http://purl.org/dc/elements/1.1/"
   xmlns:cc="http://creativecommons.org/ns#"
   xmlns:rdf="http://www.w3.org/1999/02/22-rdf-syntax-ns#"
   xmlns:svg="http://www.w3.org/2000/svg"
   xmlns="http://www.w3.org/2000/svg"
   xmlns:sodipodi="http://sodipodi.sourceforge.net/DTD/sodipodi-0.dtd"
   xmlns:inkscape="http://www.inkscape.org/namespaces/inkscape"
   width="1746.5302"
   height="1048.5729"
   viewBox="0 0 1746.5302 1048.5729"
   id="svg2"
   version="1.1"
   inkscape:version="0.92.4 (5da689c313, 2019-01-14)"
   sodipodi:docname="SYD.svg"
   inkscape:export-filename="C:\Users\paulb\Dropbox\Projects\Terminal Silhouettes\Silhouettes\png\SYD.png"
   inkscape:export-xdpi="90"
   inkscape:export-ydpi="90">
  <sodipodi:namedview
     id="base"
     pagecolor="#ffffff"
     bordercolor="#666666"
     borderopacity="1.0"
     inkscape:pageopacity="1"
     inkscape:pageshadow="2"
     inkscape:zoom="2.8284271"
     inkscape:cx="1130.3637"
     inkscape:cy="705.66721"
     inkscape:document-units="px"
     inkscape:current-layer="layer2"
     showgrid="false"
     showguides="true"
     inkscape:guide-bbox="true"
     inkscape:window-width="1920"
     inkscape:window-height="1137"
     inkscape:window-x="1912"
     inkscape:window-y="-8"
     inkscape:window-maximized="1"
     inkscape:snap-intersection-paths="true"
     inkscape:object-nodes="true"
     inkscape:snap-smooth-nodes="true"
     fit-margin-top="25"
     fit-margin-left="25"
     fit-margin-right="25"
     fit-margin-bottom="25"
     inkscape:snap-object-midpoints="false"
     units="px">
    <inkscape:grid
       type="xygrid"
       id="grid4304"
       originx="-1445.23"
       originy="-1450.6153" />
  </sodipodi:namedview>
  <defs
     id="defs4" />
  <metadata
     id="metadata7">
    <rdf:RDF>
      <cc:Work
         rdf:about="">
        <dc:format>image/svg+xml</dc:format>
        <dc:type
           rdf:resource="http://purl.org/dc/dcmitype/StillImage" />
        <dc:title />
        <dc:description>Terminal silhouette of SYD (Sydney)</dc:description>
      </cc:Work>
    </rdf:RDF>
  </metadata>
  <g
     transform="translate(-510.55855,623.00943)"
     inkscape:groupmode="layer"
     id="layer2"
     inkscape:label="Terminal"
     style="display:inline">
    <path
       style="opacity:1;fill:#dddddd;fill-opacity:1;stroke:#222222;stroke-width:1.5;stroke-linejoin:miter;stroke-miterlimit:4;stroke-dasharray:none;stroke-dashoffset:0;stroke-opacity:1"
       d="M 1366.9805 292.72266 L 1363.8418 310.80273 L 1355.998 309.44141 L 1353.6426 323.00391 L 1322.1855 331.79688 C 1319.6934 326.37612 1315.9198 321.6423 1311.1914 318.00391 L 1299.5078 315.97656 L 1298.6387 320.98438 L 1288.2812 319.18555 L 1289.1504 314.17969 L 1277.4219 312.14453 C 1277.4219 312.14453 1276.4527 317.72181 1278.7734 322.97266 C 1278.7734 322.97266 1281.6852 328.95468 1280.6113 335.14258 L 1279.8301 339.64648 C 1278.4994 341.22198 1277.6089 343.12152 1277.25 345.15234 C 1276.4965 349.49977 1278.2557 353.90172 1281.7988 356.53125 L 1279.2188 371.39648 L 1267.4902 369.36133 C 1267.4902 369.36133 1266.521 374.94052 1268.8418 380.19141 C 1268.8418 380.19141 1271.7556 386.17335 1270.6816 392.36133 L 1275.4375 393.18555 L 1270 424.51562 L 1266.8125 423.96289 L 1266.207 427.44922 L 1257.666 425.9668 C 1257.666 425.9668 1256.6969 431.54396 1259.0176 436.79492 C 1259.0176 436.79492 1261.9313 442.77887 1260.8574 448.9668 L 1265.6133 449.79102 L 1261.4258 473.91016 L 1258.2402 473.35547 L 1257.6348 476.84375 L 1249.0938 475.36133 C 1249.0938 475.36133 1248.1246 480.93856 1250.4453 486.18945 C 1250.4453 486.18945 1253.3571 492.17134 1252.2832 498.35938 L 1257.0391 499.18555 L 1256.4727 502.45117 C 1252.1363 503.72864 1248.9007 507.35496 1248.125 511.80859 C 1247.0028 518.27414 1251.3352 524.4268 1257.8008 525.54883 C 1264.2663 526.67109 1270.417 522.33863 1271.5391 515.87305 L 1272.0605 512.86719 L 1280.6992 514.36719 C 1280.6992 514.36719 1281.533 509.55686 1279.0996 504.95508 C 1279.0996 504.95508 1276.0605 499.70749 1276.9863 494.37305 L 1275.3203 494.08398 L 1279.5078 469.95703 L 1288.1465 471.45703 C 1288.1465 471.45703 1288.9803 466.64861 1286.5469 462.04688 C 1286.5469 462.04688 1283.5077 456.79738 1284.4336 451.46289 L 1282.7676 451.17383 L 1286.8594 427.59961 L 1295.498 429.09961 C 1295.498 429.09961 1296.3318 424.29117 1293.8984 419.68945 C 1293.8984 419.68945 1290.8594 414.44193 1291.7852 409.10742 L 1290.1191 408.81641 L 1294.8984 381.27734 L 1300 382.16406 C 1313.0303 377.98683 1322.6668 366.92342 1325.0176 353.44336 C 1325.6858 349.50976 1325.7109 345.49403 1325.0898 341.55273 L 1335.6738 338.59375 L 1350.4902 341.16602 L 1356.418 342.19336 L 1354.4824 353.34961 L 1356.3984 353.68164 L 1389.3438 359.40039 L 1398.8438 361.04883 C 1408.6541 372.80649 1427.2168 376.0293 1427.2168 376.0293 L 1455.2812 380.90039 L 1454.1328 387.52344 L 1462.0625 388.89844 L 1461.6699 391.16602 L 1455.8301 390.15234 L 1455.209 393.72461 L 1467.9336 395.93359 L 1467.041 401.07617 L 1470.3848 405.60547 L 1480.3203 407.33008 L 1474.6621 439.92578 L 1460.7188 437.50586 L 1459.7949 442.82227 L 1459.1152 446.74414 L 1458.7871 448.63867 L 1462.7969 449.33398 L 1463.125 447.44141 L 1473.0586 449.16406 L 1468.666 474.47656 C 1468.666 474.47656 1465.3686 473.90342 1464.4355 475.80469 C 1464.4355 475.80469 1463.9534 477.30946 1461.916 477.52734 C 1461.916 477.52734 1459.8156 477.92437 1459.5215 479.61914 L 1456.5625 496.66797 L 1454.6387 496.33398 L 1448.625 495.29102 L 1445.0527 494.66992 L 1444.4023 498.41797 L 1444.2051 499.55078 L 1447.7793 500.17188 L 1447.9746 499.03906 L 1453.9883 500.08203 L 1452.9453 506.0957 L 1457.7383 506.92773 L 1456.9219 511.63281 L 1454.5684 511.22461 L 1453.2832 518.63281 L 1460.7773 519.93359 L 1456.3457 545.4707 L 1448.3281 544.07812 C 1447.2688 543.89397 1446.2616 544.60462 1446.0781 545.66406 C 1445.8946 546.72311 1446.603 547.7306 1447.6621 547.91406 L 1451.8457 548.63867 L 1449.6973 561.01562 L 1447.7812 560.68359 L 1447.7168 561.05078 L 1445.9727 560.74805 L 1445.1699 565.37109 L 1446.9141 565.67383 L 1446.1465 570.0957 L 1448.0645 570.42773 L 1451.8984 571.09375 L 1450.7617 577.64062 L 1447.6797 577.10547 C 1444.334 579.19109 1443.2969 585.16992 1443.2969 585.16992 L 1442.1738 584.97461 L 1439.6211 599.67188 L 1424.5645 597.05859 L 1423.9746 600.44727 L 1423.7676 601.65039 L 1427.5625 602.30859 L 1427.7695 601.10742 L 1439.0332 603.06055 L 1438.9746 603.40039 L 1430.2988 601.89453 L 1429.7109 605.28516 L 1438.3867 606.79102 L 1431.4551 646.72461 L 1436.709 647.63672 L 1435.3711 655.33984 L 1440.1172 656.16406 L 1441.4531 648.46094 L 1456.0586 650.99414 L 1455.4707 654.38477 L 1459.9082 655.1543 L 1458.9883 660.45508 L 1463.3027 661.20312 L 1464.8105 652.51367 L 1465.0996 650.84961 L 1469.7734 623.91797 L 1470.4199 624.03125 L 1467.4961 640.88477 L 1469.4043 643.59766 L 1471.9316 644.03711 L 1475.2578 624.87109 L 1476.1211 625.01953 L 1477.4375 617.43945 L 1471.0898 616.33789 L 1471.1953 615.72266 L 1474.9688 616.37695 L 1477.543 616.82422 L 1480.0234 617.25391 L 1480.6934 613.39453 L 1478.2129 612.96484 L 1479.4102 606.07031 L 1493.4082 608.49805 L 1493.7793 607.39844 L 1494.5195 605.20117 L 1494.6914 604.69141 L 1491.6211 604.1582 L 1491.4492 604.66797 L 1479.998 602.67969 L 1480.8594 597.71875 L 1484.1875 598.29688 L 1483.416 602.73438 L 1486.8066 603.32227 L 1488.1875 595.37109 L 1486.2148 595.0293 L 1486.4922 593.42773 L 1481.7461 592.60547 L 1481.875 591.86523 L 1482.1426 590.32422 L 1478.8145 589.74609 C 1477.7363 586.44824 1475.6562 582.3418 1475.6562 582.3418 C 1474.2033 579.74077 1474.8594 575.60156 1474.8594 575.60156 L 1480.7754 576.62891 L 1482.0039 569.54102 L 1485.0859 570.07617 L 1488.4141 570.6543 L 1491.0879 555.24609 L 1487.7598 554.66992 L 1489.7695 543.08203 L 1481.8828 541.71289 L 1484.9336 524.12695 L 1492.8223 525.49609 L 1494.1094 518.08789 L 1497.4375 518.66602 L 1498.9395 510.01172 L 1495.6094 509.43555 L 1498.1562 494.76758 L 1492.3633 493.76172 L 1494.7598 479.95703 L 1500.5508 480.96289 L 1503.1406 466.04883 L 1506.4688 466.62695 L 1508.2559 456.33398 L 1504.9258 455.75586 L 1507.0117 443.74023 L 1504.1777 443.24805 L 1505.7188 434.37305 L 1508.5527 434.86523 L 1510.7344 422.29297 L 1514.0625 422.87109 L 1515.6953 413.4707 L 1512.3652 412.89258 L 1513.3184 407.40234 L 1525.5488 409.52344 L 1526.7734 402.46484 L 1527.168 400.19922 L 1528.7109 391.31055 L 1528.8926 390.26367 L 1529.3613 387.5625 L 1534.3867 388.43555 L 1540.752 383.95312 L 1544.8184 384.6582 L 1546.5547 383.4375 L 1548.7793 370.61719 L 1589.5762 377.69922 L 1589.9824 375.35742 L 1631.3965 382.54492 L 1634.3262 365.6582 L 1664.6484 370.92188 L 1663.75 376.09766 L 1662.2598 384.67969 L 1663.7656 384.94141 L 1650.0918 463.73047 L 1692.4629 471.08398 L 1706.1387 392.29688 L 1707.627 383.71289 L 1716.748 385.29492 L 1720.6621 362.74023 L 1711.543 361.15625 L 1713.4043 350.43359 C 1713.6167 349.20855 1712.7953 348.0429 1711.5703 347.83008 L 1705.7773 346.82617 C 1706.2915 343.86472 1704.3072 341.04689 1701.3457 340.5332 L 1670.8418 335.23828 L 1669.9102 340.59961 L 1639.5898 335.33789 L 1639.0977 338.17383 L 1381.7402 293.50781 L 1381.4414 295.23242 L 1366.9805 292.72266 z "
       transform="translate(510.55855,-623.00943)"
       id="rect4158" />
    <path
       id="rect4641"
       d="m 1838.7562,-312.97742 17.684,-3.69359 -6.0878,-29.14567 4.5642,0.79212 -3.137,-15.01853 1.8825,-10.84608 1.2408,-7.14934 1.7327,-9.98342 0.8128,-4.68339 7.8722,-45.35751 -19.721,-3.42261 0.1499,-0.86365 2.8473,-16.40542 2.7437,-6.09415 -3.1768,-1.43023 1.5913,-3.53378 0.679,0.47227 0.257,-1.48039 19.228,3.33717 0.8547,-4.92449 54.9234,9.53233 -3.1223,17.98979 113.6884,19.73139 3.1222,-17.9898 28.8416,5.00563 -0.3842,2.21349 9.1216,1.58307 2.9521,-17.00971 -9.1215,-1.58313 2.3102,-13.3112 36.7306,6.37479 1.7542,-10.10718 -17.9954,-3.12328 6.2463,-35.99001 -98.6042,-17.1134 0.5134,-2.95789 -142.7291,-24.7716 -0.5134,2.95785 -51.2734,-8.89885 -1.9206,11.06634 -16.6715,-0.13216 a 29.522981,29.522981 0 0 0 -8.4882,-20.93872 l 3.3117,-1.98911 a 4.7536969,4.7536969 0 0 0 1.4843,-0.89126 l 0.1447,-0.0869 -0.023,-0.0258 a 4.7536969,4.7536969 0 0 0 1.415,-2.63066 4.7536969,4.7536969 0 0 0 -3.8715,-5.49632 4.7536969,4.7536969 0 0 0 -5.4961,3.8705 4.7536969,4.7536969 0 0 0 -0.021,0.15242 l -1.3029,3.45529 a 29.522981,29.522981 0 0 0 -11.5852,-4.74055 29.522981,29.522981 0 0 0 -5.2382,-0.4054 l 0.9187,-3.89016 a 4.7536969,4.7536969 0 0 0 0.2823,-0.97616 4.7536969,4.7536969 0 0 0 0.051,-0.43691 l 0.055,-0.2349 -0.043,10e-5 a 4.7536969,4.7536969 0 0 0 -3.9344,-4.82272 4.7536969,4.7536969 0 0 0 -5.4971,3.87029 4.7536969,4.7536969 0 0 0 0.071,1.93592 l -0.01,0 0.014,0.0287 a 4.7536969,4.7536969 0 0 0 0.7698,1.64678 l 1.6271,3.4796 a 29.522981,29.522981 0 0 0 -13.3908,6.54995 l -11.129,-10.81525 -4.6067,-5.79184 a 7.2556429,7.2556429 0 0 0 0.1431,-0.63803 7.2556429,7.2556429 0 0 0 -5.9078,-8.38902 7.2556429,7.2556429 0 0 0 -8.39,5.90757 7.2556429,7.2556429 0 0 0 5.9085,8.39021 7.2556429,7.2556429 0 0 0 3.3196,-0.20067 l 5.9246,4.44456 11.1232,10.8094 a 29.522981,29.522981 0 0 0 -6.202,13.57846 29.522981,29.522981 0 0 0 -0.4024,6.14301 l -3.9267,-0.79842 a 4.7536969,4.7536969 0 0 0 -0.8353,-0.22836 4.7536969,4.7536969 0 0 0 -0.5741,-0.0584 l -0.2477,-0.0499 10e-5,0.0391 a 4.7536969,4.7536969 0 0 0 -4.6754,3.93932 4.7536969,4.7536969 0 0 0 3.8713,5.49727 4.7536969,4.7536969 0 0 0 2.0788,-0.1076 l 10e-5,0.005 0.02,-0.0102 a 4.7536969,4.7536969 0 0 0 1.6309,-0.82558 l 3.4149,-1.72877 a 29.522981,29.522981 0 0 0 18.8427,21.04778 l -1.9712,2.99558 a 4.7536969,4.7536969 0 0 0 -0.7869,1.196 l -0.1362,0.20715 0.037,0.0142 a 4.7536969,4.7536969 0 0 0 -0.2695,0.9479 4.7536969,4.7536969 0 0 0 3.8703,5.49721 4.7536969,4.7536969 0 0 0 5.4973,-3.87139 4.7536969,4.7536969 0 0 0 0.038,-0.28301 l 0,3.2e-4 -3e-4,-0.009 a 4.7536969,4.7536969 0 0 0 -0.1611,-1.84363 l -0.3029,-3.45998 a 29.522981,29.522981 0 0 0 22.5366,-6.22149 l 13.7992,17.17938 4.6943,-3.77105 25.5485,25.16142 0.3997,6.72708 9.9673,-0.59045 -4.1607,6.06615 -10.4685,-3.39004 c 0,0 -19.4635,-6.30291 -22.6171,11.8676 l -2.6526,15.28348 8.0111,1.39036 -2.8024,16.14714 -18.4883,-3.20877 -3.166,18.2414 18.4884,3.20868 -0.4707,2.71199 32.0463,5.56193 -2.3958,13.80398 5.0532,0.87697 -2.9735,17.13282 1.4795,0.2567 -0.5563,3.20489 12.3967,59.34885 z"
       style="opacity:1;fill:#dddddd;fill-opacity:1;stroke:#222222;stroke-width:1.5;stroke-linejoin:miter;stroke-miterlimit:4;stroke-dasharray:none;stroke-dashoffset:0;stroke-opacity:1"
       inkscape:connector-curvature="0" />
    <path
       id="rect4161"
       d="m 729.07046,374.54743 c 1.71209,-0.32934 1.80062,-0.93022 1.80062,-0.93022 0.4048,-1.13332 -0.48607,-3.09837 -0.48618,-3.09835 l 3.36522,-45.56352 1.12546,-0.31752 11.15804,-3.14882 18.77189,13.84873 4.58796,3.38558 10.05939,7.4216 5.24622,3.86919 2.94824,-3.99596 -5.24545,-3.87027 4.10764,-5.56773 -14.64909,-10.80577 -1.2809,1.73596 -12.6963,-9.3651 11.66581,-3.29195 4.75139,-4.15336 -0.6419,-0.73332 30.759,-26.89135 -3.87944,-4.43854 -30.75992,26.8915 -1.51145,-1.729 -1.47369,1.2883 -7.64084,-27.07442 -2.97284,-10.5347 3.97247,-1.1213 6.04775,21.43056 6.12543,-1.72875 -6.04775,-21.43057 -1.05357,-3.7317 -6.12443,1.7285 -3.97348,1.12159 -18.60134,-65.91746 3.97251,-1.12104 6.04758,21.42967 6.12543,-1.72876 -6.04759,-21.42963 -1.05355,-3.73173 -6.12441,1.72831 -3.97351,1.12152 -8.02253,-28.4285 7.49333,-19.07367 42.53976,-28.96349 16.96772,-43.19053 44.72934,-12.879905 129.43616,-11.335442 1.31571,4.661194 -35.98874,10.074032 c 1.82226,6.508417 3.34642,6.199064 3.34642,6.199064 1.20332,-0.0045 2.74817,-1.508787 2.74817,-1.508787 l 31.56594,-8.837505 6.71838,23.807388 10.35462,-2.922213 6.72688,23.838184 -10.35365,2.9218 1.43364,5.08024 -27.78807,25.99988 c 4.61766,4.9353 5.82772,3.95769 5.8277,3.95765 1.06577,-0.55863 1.7431,-2.6073 1.7431,-2.6073 l 22.10065,-20.67713 3.75037,13.2885 10.35372,-2.92201 9.2363,32.72951 -6.0742,1.71396 2.4507,8.68421 -1.7031,0.48039 2.7378,9.70144 -25.51772,25.97091 c 4.82106,4.73683 5.99056,3.70854 5.99056,3.70854 1.04132,-0.60298 1.63039,-2.67735 1.63039,-2.67735 l 19.82257,-20.17475 18.1001,64.13963 8.1206,-2.29177 2.9649,11.74196 2.1691,8.59655 4.4515,17.62987 1.4214,-0.35839 a 2.3741994,4.6652392 75.831323 0 0 -0.8936,1.93974 2.3741994,4.6652392 75.831323 0 0 5.1047,1.16069 2.3741994,4.6652392 75.831323 0 0 3.9422,-3.44492 2.3741994,4.6652392 75.831323 0 0 -1.7042,-1.28465 l 1.3118,-0.32952 -4.4507,-17.63101 -2.0811,-8.24132 -3.1179,-12.35241 0.4694,-0.13207 7.4058,-2.08994 -4.1917,-14.85353 32.8254,17.32389 c 3.1545,-5.97744 1.8358,-6.80128 1.8358,-6.80128 -0.8765,-0.82464 -3.0343,-0.79426 -3.0343,-0.79426 l -33.9357,-17.91053 -7.6505,-27.11091 28.8127,-30.55159 c -4.917,-4.6371 -6.0635,-3.58624 -6.0635,-3.58624 -1.0288,0.62422 -1.5766,2.71142 -1.5766,2.71142 l -23.1226,24.51813 -8.5378,-30.2538 -7.5756,2.1378 -1.1295,-4.00145 7.5766,-2.13798 -13.8784,-49.17782 33.7731,-0.6308 c -0.1264,-6.757543 -1.6805,-6.840783 -1.6805,-6.840783 -1.1657,-0.298519 -3.04,0.770543 -3.04,0.770543 l -30.7815,0.5747 -0.3213,-1.13852 18.3044,-5.165485 -3.9395,-13.961464 -14.1321,3.988074 -4.2198,-14.953323 1.3711,0.426589 25.0717,-39.196895 -1.1822,-1.332945 36.7562,-7.785979 -1.2097,-5.711115 6.0575,-1.28318 -0.7698,-3.634555 43.1972,-9.15033 10.9538,-2.32031085 17.9992,-16.71872615 c -3.4497,-3.714106 -4.9944,-4.095401 -5.5513,-4.053783 -0.1857,0.01377 -0.2614,0.07376 -0.2614,0.07376 -1.0677,0.5547 -1.7532,2.60149 -1.7532,2.60149 l -11.1705,10.3739503 -1.5536,-1.6716096 -1.2484,0.2644316 -2.9467,-13.9106523 -1.4297,-6.749488 -51.5757,10.925079 -7.5705,8.65598 -5.5919,1.1845682 24.0392,-21.3577162 -4.9242,-5.542443 -0.6725,0.597348 -2.8515,-3.208431 -8.8901,7.898054 2.8516,3.209396 -15.5237,13.792212 0.3142,1.48312 -2.4779,0.52493 0.4668,2.2034537 2.4779,-0.5249297 0.4104,1.9375057 -49.0002,10.3795277 -41.30856,-16.2285804 c 0,0 -3.29351,-10.826048 -13.2906,-24.365511 l 2.23315,0.153934 2.71425,-39.480927 -7.05222,-0.485059 -0.08,1.176961 -12.3923,-0.852151 -0.22493,3.289445 12.39113,0.851484 -2.04294,29.70818 c -1.71357,-2.037373 -3.56563,-4.108024 -5.58715,-6.18825 l -13.96425,-23.698622 -13.90573,-5.463041 -14.43839,-66.709341 21.04898,-29.92764 -5.67796,-3.99325 -0.67579,0.96005 -3.57841,-2.51747 -6.72522,9.56477 3.57811,2.5166 -9.96568,14.17041 -2.67392,-12.35252 -0.87684,0.18876 -11.17756,-51.64682 21.19322,-36.15202 -11.47644,-6.72981 -9.25879,1.5637 9.99235,5.85836 -20.35015,34.71159 11.77645,54.40869 -6.67401,1.44538 2.53141,11.69827 -6.63794,0.36872 -1.23442,20.80338 -20.95345,-8.2322 5.88673,-14.98472 2.32848,-5.92698 -16.30083,-6.40409 -2.32929,5.92778 -50.95746,-20.01912 c 0,0 2.221,-5.65338 1.00735,-11.60332 l -4.18496,-20.51283 0.91384,-0.18661 -0.75323,-3.69151 14.98784,-3.05813 11.28436,-2.30028 12.55903,-2.56246 -5.19075,-25.44829 -12.55928,2.56145 -4.48561,-21.98798 12.55947,-2.56058 -5.18995,-25.44846 -12.55924,2.56151 -32.61426,6.65246 14.04802,68.86777 0.81923,4.01676 0.75309,3.69049 0.91498,-0.18585 4.18321,20.51416 c 0,0 0.94172,4.61386 -0.78022,8.99678 l -2.88744,7.35043 3.58796,1.40979 -79.52742,202.429868 2.50051,0.982443 c -8.07953,15.476835 -24.9266,26.954316 -24.9266,26.954316 l -52.11814,35.484365 2.80792,4.12415 -4.49415,-0.155637 1.6978,3.383606 -2.11907,1.443969 -2.92155,-4.291442 -9.28966,4.583642 -8.70835,5.32487 -3.08258,2.25014 -2.78673,0.68724 -5.79189,2.05169 -4.43786,14.59765 2.11932,-1.44285 10.1383,14.89046 25.95449,-17.67108 3.56314,5.23339 -34.45508,23.45822 15.73153,23.10579 32.07668,-8.99915 10.73981,6.81462 9.66394,-6.57949 4.62969,6.79945 8.99572,-6.12531 1.76032,2.58611 8.70426,-5.92749 1.2134,4.30014 -3.25028,0.91698 -9.87302,2.78661 -13.24385,3.73702 1.49524,5.29861 13.24383,-3.73739 1.22259,4.33378 9.87306,-2.78619 2.14075,7.58486 3.25032,-0.91693 9.34304,33.10747 -16.39886,29.29272 -6.97452,0.29259 -37.34265,55.94934 c 3.98621,2.66047 6.28633,1.55221 6.28633,1.55221 l 33.79435,-50.63557 0.16699,0.111 -30.34742,54.20935 -6.25987,1.76615 1.73206,6.13653 -44.27691,15.61753 0.4875,1.38209 a 4.6652392,2.3741994 70.571 0 0 -2.01295,-0.71188 4.6652392,2.3741994 70.571 0 0 -0.68872,5.18959 4.6652392,2.3741994 70.571 0 0 3.79183,3.60961 4.6652392,2.3741994 70.571 0 0 1.12402,-1.8135 l 0.44891,1.27455 26.67596,-9.40975 c -1.04062,3.71323 -1.37735,6.91398 -1.338,9.58966 l -53.04638,42.62057 -1.01121,-1.2584 -0.868,-1.08104 -1.3809,1.1094 -35.20715,0.44408 0.0612,4.84089 -5.59945,0.0706 0.0651,5.10213 11.84979,-0.14942 -0.0642,-5.10233 28.97435,-0.36598 6.82265,8.49091 3.52127,4.38191 3.69593,-2.96849 -3.52241,-4.38264 49.56013,-39.82008 c 2.28424,2.31162 5.69227,2.93104 5.69227,2.93104 8.54517,0.68221 14.62339,-6.43653 16.77734,-9.4145 l 8.46861,-2.38983 -22.32285,40.42738 c 5.91674,3.26692 6.76599,1.96289 6.76599,1.96289 0.84105,-0.86076 0.85098,-3.01861 0.85098,-3.01861 l 23.03919,-41.72337 50.95188,-14.37897 -3.54002,47.92268 c 2.52769,0.1867 4.13948,0.0872 5.16677,-0.11046 z m 117.56801,-472.209327 -0.20909,-0.08214 0.16247,-11.339333 -9.3861,-3.68739 2.00557,-5.10505 6.58578,2.58757 1.48818,-3.78803 1.15217,0.45307 5.43455,-13.83268 14.44877,5.67691 -0.47763,8.02578 -12.40934,-1.30154 -8.79741,22.393511 z"
       style="display:inline;opacity:1;fill:#dddddd;fill-opacity:1;stroke:#222222;stroke-width:1.5;stroke-linejoin:miter;stroke-miterlimit:4;stroke-dasharray:none;stroke-dashoffset:0;stroke-opacity:1"
       inkscape:connector-curvature="0" />
  </g>
  <g
     inkscape:groupmode="layer"
     id="layer1"
     inkscape:label="Label"
     transform="translate(-1445.23,-1274.1593)">
    <g
       id="g4881"
       transform="translate(-36,-63.440584)">
      <g
         style="font-style:normal;font-variant:normal;font-weight:bold;font-stretch:normal;font-size:125px;line-height:125%;font-family:Overpass;-inkscape-font-specification:'Overpass, Bold';text-align:start;letter-spacing:0px;word-spacing:0px;writing-mode:lr-tb;text-anchor:start;fill:#dddddd;fill-opacity:1;stroke:#222222;stroke-width:0.25;stroke-linecap:butt;stroke-linejoin:miter;stroke-miterlimit:4;stroke-dasharray:none;stroke-opacity:1"
         id="text4868">
        <path
           d="m 2160.4009,1387.9934 q -0.7935,-1.9531 -2.1363,-3.6621 -1.3427,-1.709 -3.2348,-2.9297 -1.8311,-1.2817 -4.2725,-1.9531 -2.3803,-0.7324 -5.31,-0.7324 -5.4932,0 -8.606,2.1972 -3.0517,2.1973 -3.0517,6.1646 0,2.6245 1.9531,4.3945 1.9531,1.77 5.1269,3.2349 3.1739,1.4038 7.2022,2.6855 4.0893,1.2818 8.3618,2.8687 4.2725,1.5259 8.3008,3.6621 4.0893,2.0752 7.2632,5.188 3.1738,3.0517 5.1269,7.3242 1.9531,4.2114 1.9531,10.1318 0,6.4087 -2.4414,11.3526 -2.4414,4.9438 -6.7138,8.3618 -4.2115,3.418 -10.0098,5.188 -5.7983,1.77 -12.5122,1.77 -6.1646,0 -11.5357,-1.648 -5.371,-1.7089 -9.7656,-4.8217 -4.3335,-3.1128 -7.5683,-7.5684 -3.2349,-4.4556 -5.127,-10.0098 l 15.3809,-5.7373 q 1.4038,3.0518 3.3569,5.6153 2.0142,2.5024 4.4556,4.3335 2.4414,1.77 5.249,2.8076 2.8686,0.9765 6.1035,0.9765 3.1738,0 5.7373,-0.6713 2.6245,-0.6714 4.4556,-2.0142 1.8921,-1.3428 2.8686,-3.2959 1.0376,-2.0142 1.0376,-4.6387 0,-3.1738 -1.9531,-5.31 -1.9531,-2.1973 -5.1269,-3.7842 -3.1739,-1.648 -7.2632,-2.9297 -4.0284,-1.3428 -8.3008,-2.8076 -4.2114,-1.4649 -8.3008,-3.418 -4.0283,-1.9531 -7.2021,-4.8218 -3.1739,-2.8686 -5.127,-6.8969 -1.9531,-4.0284 -1.9531,-9.7657 0,-4.9438 1.9531,-9.2773 2.0142,-4.3945 5.7983,-7.6904 3.7842,-3.2959 9.2774,-5.188 5.4932,-1.9531 12.5732,-1.9531 5.9204,0 10.6812,1.5258 4.8218,1.5259 8.4839,4.2725 3.6621,2.6855 6.1645,6.4087 2.5025,3.6621 3.7842,8.0566 l -15.1367,5.0049 z"
           style=""
           id="path5484" />
        <path
           d="m 2222.6567,1451.7141 0,-34.1186 -32.4096,-53.4058 19.165,0 21.6065,35.7666 21.6064,-35.7666 19.165,0 -32.4096,53.4058 0,34.1186 -16.7237,0 z"
           style=""
           id="path5486" />
        <path
           d="m 2286.8657,1364.1897 29.541,0 q 7.6294,0 13.7329,1.77 6.1036,1.709 10.8033,4.7608 4.7607,3.0517 8.1176,7.2631 3.357,4.1504 5.4932,9.0332 2.1973,4.8218 3.1738,10.1929 1.0376,5.3711 1.0376,10.7422 0,5.0049 -0.9765,10.2539 -0.9156,5.188 -2.9907,10.0708 -2.0752,4.8218 -5.4322,9.0942 -3.2959,4.2725 -8.1177,7.5074 -4.7607,3.1738 -11.0473,5.0049 -6.2866,1.831 -14.3433,1.831 l -28.9917,0 0,-87.5244 z m 31.0059,71.5332 q 6.5307,0 10.9863,-2.5024 4.4556,-2.5635 7.2022,-6.5308 2.7465,-4.0283 3.9672,-8.9722 1.2207,-4.9438 1.2207,-9.7656 0,-5.1269 -1.2817,-10.0708 -1.2817,-5.0049 -3.9673,-8.9111 -2.6245,-3.9063 -6.8359,-6.2867 -4.1504,-2.4414 -9.8877,-2.4414 l -15.5029,0 0,55.481 14.0991,0 z"
           style=""
           id="path5488" />
      </g>
      <g
         style="font-style:normal;font-variant:normal;font-weight:normal;font-stretch:normal;font-size:45px;line-height:125%;font-family:Overpass;-inkscape-font-specification:'Overpass, Normal';text-align:start;letter-spacing:0px;word-spacing:0px;writing-mode:lr-tb;text-anchor:start;fill:#222222;fill-opacity:1;stroke:none;stroke-width:1px;stroke-linecap:butt;stroke-linejoin:miter;stroke-opacity:1"
         id="text4872">
        <path
           d="m 2178.8127,1476.517 q -0.2856,-0.6812 -0.791,-1.2525 -0.5053,-0.5932 -1.2304,-1.0107 -0.7251,-0.4395 -1.67,-0.6812 -0.9228,-0.2417 -2.0654,-0.2417 -2.2632,0 -3.5376,0.9888 -1.2744,0.9888 -1.2744,2.7905 0,1.1206 0.7031,1.9117 0.7031,0.769 1.8457,1.3623 1.1426,0.5932 2.5928,1.0986 1.4722,0.4834 2.9883,1.0766 1.5381,0.5713 2.9883,1.3404 1.4721,0.7471 2.6147,1.8457 1.1426,1.0766 1.8457,2.6147 0.7031,1.5161 0.7031,3.6475 0,2.2632 -0.8349,4.021 -0.813,1.7358 -2.2632,2.9443 -1.4502,1.1865 -3.4277,1.8238 -1.9556,0.6152 -4.2188,0.6152 -2.1094,0 -3.9551,-0.5493 -1.8237,-0.5274 -3.3178,-1.5161 -1.4722,-1.0108 -2.5489,-2.417 -1.0766,-1.4283 -1.6699,-3.1861 l 4.4165,-1.604 q 0.4834,1.0547 1.1865,1.9336 0.7251,0.8789 1.648,1.5161 0.9228,0.6153 2.0215,0.9668 1.1206,0.3516 2.395,0.3516 1.2744,0 2.3291,-0.3076 1.0547,-0.3076 1.8017,-0.9229 0.7471,-0.6152 1.1646,-1.5161 0.4175,-0.9228 0.4175,-2.1094 0,-1.4062 -0.7031,-2.351 -0.7032,-0.9668 -1.8458,-1.67 -1.1425,-0.7031 -2.6147,-1.2304 -1.4502,-0.5274 -2.9883,-1.0767 -1.5161,-0.5493 -2.9883,-1.2305 -1.4502,-0.6811 -2.5927,-1.6699 -1.1426,-0.9887 -1.8457,-2.373 -0.7032,-1.3843 -0.7032,-3.3838 0,-1.6699 0.6592,-3.1641 0.6812,-1.4941 1.9556,-2.6147 1.2744,-1.1426 3.1421,-1.8018 1.8677,-0.6592 4.2627,-0.6592 1.9995,0 3.6255,0.4834 1.6259,0.4615 2.8344,1.2964 1.2305,0.835 2.0435,1.9776 0.813,1.1425 1.2305,2.4829 l -4.3287,1.4502 z"
           style=""
           id="path5491" />
        <path
           d="m 2198.1487,1509.5858 -4.7681,0 3.5376,-9.1186 -8.5913,-22.6099 4.6362,0 5.669,15.0513 q 0.2417,0.6372 0.3735,1.0547 0.1319,0.4174 0.2637,0.9668 0.1318,-0.5494 0.2637,-0.9668 0.1318,-0.4175 0.3735,-1.0547 l 5.7129,-15.0513 4.6802,0 -12.1509,31.7285 z"
           style=""
           id="path5493" />
        <path
           d="m 2223.2634,1501.412 q -2.1753,0 -3.9551,-0.813 -1.7578,-0.835 -3.0102,-2.373 -1.2524,-1.5601 -1.9336,-3.8013 -0.6592,-2.2412 -0.6592,-5.0757 0,-2.8345 0.7031,-5.0537 0.7032,-2.2412 1.9556,-3.7793 1.2744,-1.5601 3.0322,-2.3731 1.7579,-0.8129 3.8672,-0.8129 1.8897,0 3.208,0.6152 1.3404,0.6152 2.2193,1.5381 l 0,-8.9429 4.6801,-2.1753 0,32.4976 -4.6801,0 0,-1.626 q -0.9229,1.0327 -2.2193,1.604 -1.2744,0.5713 -3.208,0.5713 z m 0.6592,-4.4165 q 1.582,0 2.7905,-0.6812 1.2085,-0.6811 1.9776,-1.9336 l 0,-10.1294 q -0.2637,-0.4394 -0.7032,-0.8789 -0.4394,-0.4394 -1.0546,-0.791 -0.5933,-0.3735 -1.3623,-0.5932 -0.7471,-0.2417 -1.648,-0.2417 -2.6367,0 -4.0869,1.9555 -1.4502,1.9336 -1.4502,5.647 0,1.6699 0.3735,3.0762 0.3955,1.3842 1.0987,2.417 0.7251,1.0107 1.7358,1.582 1.0327,0.5713 2.3291,0.5713 z"
           style=""
           id="path5495" />
        <path
           d="m 2254.3767,1500.8627 0,-13.7329 q 0,-1.4502 -0.3516,-2.461 -0.3515,-1.0327 -0.9668,-1.6699 -0.6152,-0.6592 -1.4501,-0.9448 -0.835,-0.3076 -1.8238,-0.3076 -1.0547,0 -1.9555,0.2856 -0.9009,0.2637 -1.5601,0.8789 -0.6592,0.6152 -1.0547,1.648 -0.3735,1.0107 -0.3735,2.4829 l 0,13.8208 -4.6802,0 0,-23.0054 4.6802,0 0,2.2192 q 1.1206,-1.4282 2.5708,-2.0874 1.4502,-0.6591 3.3618,-0.6591 1.8018,0 3.3179,0.5273 1.5161,0.5054 2.6147,1.6699 1.1206,1.1646 1.7359,3.0322 0.6152,1.8677 0.6152,4.5704 l 0,13.7329 -4.6802,0 z"
           style=""
           id="path5497" />
        <path
           d="m 2274.8772,1501.412 q -2.395,0 -4.3286,-0.813 -1.9336,-0.835 -3.2959,-2.373 -1.3623,-1.5601 -2.1094,-3.8013 -0.7251,-2.2412 -0.7251,-5.0757 0,-2.8345 0.7471,-5.0537 0.7471,-2.2412 2.1094,-3.7793 1.3842,-1.5601 3.2959,-2.3731 1.9336,-0.8129 4.3066,-0.8129 2.0435,0 3.8232,0.6591 1.8018,0.6372 3.1421,1.9776 1.3623,1.3183 2.1314,3.3398 0.791,2.0215 0.791,4.7681 0,0.7471 -0.044,1.582 -0.022,0.835 -0.1318,1.4502 l -15.4907,0 q 0.022,1.4282 0.5054,2.5708 0.5053,1.1206 1.3183,1.9336 0.813,0.791 1.8457,1.2305 1.0327,0.4175 2.1533,0.4175 1.4283,0 2.6368,-0.5933 1.2304,-0.5933 2.1313,-1.7358 l 3.0542,3.142 q -1.2524,1.4942 -3.208,2.417 -1.9556,0.9229 -4.6582,0.9229 z m 0,-19.9512 q -1.0986,0 -2.1094,0.3296 -1.0107,0.3076 -1.8017,1.0107 -0.7691,0.6812 -1.2744,1.8018 -0.5054,1.1206 -0.5933,2.7246 l 10.9863,0 q -0.044,-1.604 -0.5054,-2.7246 -0.4614,-1.1206 -1.2085,-1.8018 -0.747,-0.7031 -1.6699,-1.0107 -0.9009,-0.3296 -1.8237,-0.3296 z"
           style=""
           id="path5499" />
        <path
           d="m 2297.7288,1509.5858 -4.7681,0 3.5376,-9.1186 -8.5913,-22.6099 4.6362,0 5.669,15.0513 q 0.2417,0.6372 0.3735,1.0547 0.1318,0.4174 0.2637,0.9668 0.1318,-0.5494 0.2636,-0.9668 0.1319,-0.4175 0.3736,-1.0547 l 5.7129,-15.0513 4.6801,0 -12.1508,31.7285 z"
           style=""
           id="path5501" />
      </g>
    </g>
  </g>
  <g
     inkscape:groupmode="layer"
     id="layer3"
     inkscape:label="Date"
     transform="translate(-1445.23,-1274.1593)">
    <g
       style="font-style:normal;font-variant:normal;font-weight:300;font-stretch:normal;font-size:15px;line-height:125%;font-family:Overpass;-inkscape-font-specification:'Overpass, Light';text-align:start;letter-spacing:0px;word-spacing:0px;writing-mode:lr-tb;text-anchor:start;fill:#222222;fill-opacity:1;stroke:none;stroke-width:1px;stroke-linecap:butt;stroke-linejoin:miter;stroke-opacity:1"
       id="text4877">
      <path
         d="m 3091.0884,2297.552 0,-8.595 -1.785,0 0,-0.6 q 0.795,0 1.35,-0.27 0.555,-0.285 0.81,-1.035 l 0.675,0 0,10.5 -1.05,0 z"
         style=""
         id="path5504" />
      <path
         d="m 3098.3631,2297.732 q -1.035,0 -1.725,-0.48 -0.69,-0.48 -1.11,-1.245 -0.405,-0.78 -0.585,-1.74 -0.18,-0.975 -0.18,-1.965 0,-0.54 0.06,-1.155 0.06,-0.63 0.21,-1.23 0.165,-0.6 0.42,-1.155 0.27,-0.555 0.675,-0.975 0.405,-0.42 0.945,-0.66 0.555,-0.255 1.29,-0.255 1.035,0 1.725,0.495 0.69,0.48 1.095,1.26 0.42,0.78 0.6,1.755 0.18,0.96 0.18,1.92 0,0.555 -0.075,1.17 -0.06,0.615 -0.225,1.23 -0.15,0.6 -0.42,1.155 -0.255,0.54 -0.66,0.96 -0.405,0.42 -0.96,0.675 -0.54,0.24 -1.26,0.24 z m 0,-0.945 q 0.78,0 1.26,-0.42 0.495,-0.435 0.765,-1.095 0.27,-0.66 0.36,-1.455 0.09,-0.795 0.09,-1.515 0,-0.81 -0.105,-1.605 -0.105,-0.81 -0.39,-1.44 -0.285,-0.645 -0.765,-1.035 -0.48,-0.405 -1.215,-0.405 -0.795,0 -1.29,0.435 -0.48,0.435 -0.75,1.095 -0.27,0.66 -0.375,1.455 -0.09,0.78 -0.09,1.5 0,0.825 0.105,1.635 0.105,0.795 0.39,1.44 0.285,0.63 0.765,1.02 0.495,0.39 1.245,0.39 z"
         style=""
         id="path5506" />
      <path
         d="m 3115.8623,2297.552 0,-7.77 -3.51,7.95 -3.27,-7.905 0,7.725 -1.05,0 0,-10.5 0.9,0 3.51,8.175 3.555,-8.175 0.915,0 0,10.5 -1.05,0 z"
         style=""
         id="path5508" />
      <path
         d="m 3124.2583,2297.552 0,-0.75 q -0.465,0.42 -1.05,0.675 -0.57,0.255 -1.2,0.255 -1.155,0 -1.89,-0.645 -0.72,-0.66 -0.72,-1.95 0,-0.66 0.225,-1.14 0.24,-0.48 0.615,-0.78 0.39,-0.315 0.9,-0.465 0.51,-0.15 1.05,-0.15 0.48,0 0.99,0.12 0.51,0.12 1.08,0.42 l 0,-0.645 q 0,-0.585 -0.15,-0.945 -0.135,-0.36 -0.375,-0.57 -0.225,-0.21 -0.54,-0.285 -0.3,-0.075 -0.615,-0.075 -0.285,0 -0.6,0.075 -0.315,0.075 -0.615,0.195 -0.3,0.12 -0.585,0.27 -0.27,0.135 -0.48,0.285 l -0.3,-0.9 q 0.465,-0.3 1.17,-0.57 0.72,-0.27 1.515,-0.27 0.405,0 0.855,0.12 0.45,0.105 0.825,0.405 0.375,0.285 0.615,0.81 0.255,0.51 0.255,1.32 l 0,5.19 -0.975,0 z m -2.145,-0.735 q 0.345,0 0.66,-0.105 0.315,-0.105 0.585,-0.27 0.27,-0.165 0.495,-0.375 0.225,-0.225 0.405,-0.435 l 0,-1.485 q -0.375,-0.255 -0.93,-0.435 -0.54,-0.195 -1.035,-0.195 -0.39,0 -0.735,0.105 -0.345,0.09 -0.615,0.3 -0.255,0.195 -0.42,0.495 -0.15,0.3 -0.15,0.72 0,0.765 0.45,1.23 0.45,0.45 1.29,0.45 z"
         style=""
         id="path5510" />
      <path
         d="m 3127.6413,2297.552 0,-7.665 1.05,0 0,1.08 q 0.42,-0.63 0.975,-0.945 0.555,-0.315 1.08,-0.315 0.57,0 0.96,0.315 l -0.165,1.02 q -0.15,-0.09 -0.39,-0.18 -0.225,-0.105 -0.6,-0.105 -0.255,0 -0.585,0.12 -0.315,0.12 -0.6,0.405 -0.285,0.285 -0.48,0.765 -0.195,0.465 -0.195,1.17 l 0,4.335 -1.05,0 z"
         style=""
         id="path5512" />
      <path
         d="m 3136.6141,2297.552 q 0,-0.99 0.285,-1.695 0.285,-0.72 0.735,-1.26 0.45,-0.54 1.02,-0.945 0.57,-0.405 1.14,-0.795 0.495,-0.33 0.945,-0.645 0.45,-0.33 0.795,-0.69 0.36,-0.36 0.57,-0.765 0.21,-0.42 0.21,-0.93 0,-0.855 -0.6,-1.425 -0.585,-0.585 -1.68,-0.585 -1.065,0 -1.605,0.48 -0.54,0.465 -0.735,1.215 l -0.93,-0.42 q 0.12,-0.465 0.405,-0.87 0.285,-0.405 0.72,-0.705 0.435,-0.3 0.99,-0.465 0.57,-0.18 1.245,-0.18 1.56,0 2.415,0.81 0.87,0.795 0.87,2.145 0,0.72 -0.285,1.275 -0.27,0.555 -0.72,1.02 -0.435,0.45 -0.99,0.84 -0.555,0.375 -1.125,0.735 -0.45,0.3 -0.87,0.6 -0.42,0.285 -0.78,0.63 -0.345,0.33 -0.585,0.735 -0.24,0.39 -0.33,0.885 l 5.775,0 0,1.005 -6.885,0 z"
         style=""
         id="path5514" />
      <path
         d="m 3149.1932,2297.732 q -1.035,0 -1.725,-0.48 -0.69,-0.48 -1.11,-1.245 -0.405,-0.78 -0.585,-1.74 -0.18,-0.975 -0.18,-1.965 0,-0.54 0.06,-1.155 0.06,-0.63 0.21,-1.23 0.165,-0.6 0.42,-1.155 0.27,-0.555 0.675,-0.975 0.405,-0.42 0.945,-0.66 0.555,-0.255 1.29,-0.255 1.035,0 1.725,0.495 0.69,0.48 1.095,1.26 0.42,0.78 0.6,1.755 0.18,0.96 0.18,1.92 0,0.555 -0.075,1.17 -0.06,0.615 -0.225,1.23 -0.15,0.6 -0.42,1.155 -0.255,0.54 -0.66,0.96 -0.405,0.42 -0.96,0.675 -0.54,0.24 -1.26,0.24 z m 0,-0.945 q 0.78,0 1.26,-0.42 0.495,-0.435 0.765,-1.095 0.27,-0.66 0.36,-1.455 0.09,-0.795 0.09,-1.515 0,-0.81 -0.105,-1.605 -0.105,-0.81 -0.39,-1.44 -0.285,-0.645 -0.765,-1.035 -0.48,-0.405 -1.215,-0.405 -0.795,0 -1.29,0.435 -0.48,0.435 -0.75,1.095 -0.27,0.66 -0.375,1.455 -0.09,0.78 -0.09,1.5 0,0.825 0.105,1.635 0.105,0.795 0.39,1.44 0.285,0.63 0.765,1.02 0.495,0.39 1.245,0.39 z"
         style=""
         id="path5516" />
      <path
         d="m 3156.2153,2297.552 0,-8.595 -1.785,0 0,-0.6 q 0.795,0 1.35,-0.27 0.555,-0.285 0.81,-1.035 l 0.675,0 0,10.5 -1.05,0 z"
         style=""
         id="path5518" />
      <path
         d="m 3163.3251,2296.787 q 0.495,0 0.915,-0.15 0.435,-0.165 0.75,-0.465 0.315,-0.3 0.495,-0.735 0.18,-0.435 0.18,-0.99 0,-0.465 -0.165,-0.885 -0.165,-0.42 -0.48,-0.735 -0.3,-0.33 -0.735,-0.51 -0.435,-0.195 -0.96,-0.195 -0.525,0 -0.96,0.195 -0.435,0.18 -0.75,0.51 -0.3,0.315 -0.465,0.735 -0.165,0.42 -0.165,0.885 0,0.555 0.18,0.99 0.18,0.435 0.495,0.735 0.315,0.3 0.735,0.465 0.435,0.15 0.93,0.15 z m 0,-9.915 q 0.63,0 1.17,0.225 0.555,0.21 0.945,0.585 0.39,0.375 0.615,0.87 0.225,0.495 0.225,1.035 0,0.675 -0.345,1.275 -0.33,0.585 -1.05,0.885 0.84,0.315 1.35,1.095 0.525,0.765 0.525,1.755 0,0.66 -0.255,1.245 -0.255,0.57 -0.72,0.99 -0.465,0.42 -1.095,0.66 -0.63,0.24 -1.365,0.24 -0.75,0 -1.38,-0.24 -0.615,-0.24 -1.08,-0.66 -0.465,-0.42 -0.72,-0.99 -0.255,-0.585 -0.255,-1.245 0,-0.495 0.135,-0.945 0.135,-0.45 0.375,-0.81 0.255,-0.375 0.6,-0.66 0.345,-0.285 0.75,-0.435 -0.675,-0.3 -1.035,-0.885 -0.345,-0.6 -0.345,-1.275 0,-0.54 0.225,-1.035 0.225,-0.495 0.615,-0.87 0.39,-0.375 0.93,-0.585 0.555,-0.225 1.185,-0.225 z m 0,4.56 q 0.87,0 1.38,-0.48 0.51,-0.48 0.51,-1.23 0,-0.885 -0.54,-1.395 -0.54,-0.51 -1.35,-0.51 -0.81,0 -1.35,0.51 -0.54,0.51 -0.54,1.395 0,0.75 0.51,1.23 0.51,0.48 1.38,0.48 z"
         style=""
         id="path5520" />
    </g>
  </g>
</svg>
