<?xml version="1.0" encoding="UTF-8" standalone="no"?>
<!-- Created with Inkscape (http://www.inkscape.org/) -->

<svg
   xmlns:dc="http://purl.org/dc/elements/1.1/"
   xmlns:cc="http://creativecommons.org/ns#"
   xmlns:rdf="http://www.w3.org/1999/02/22-rdf-syntax-ns#"
   xmlns:svg="http://www.w3.org/2000/svg"
   xmlns="http://www.w3.org/2000/svg"
   xmlns:sodipodi="http://sodipodi.sourceforge.net/DTD/sodipodi-0.dtd"
   xmlns:inkscape="http://www.inkscape.org/namespaces/inkscape"
   width="446.06351"
   height="297.43625"
   viewBox="0 0 446.06351 297.43625"
   id="svg2"
   version="1.1"
   inkscape:version="0.91 r13725"
   sodipodi:docname="TOL.svg"
   inkscape:export-filename="C:\Users\paulb\Dropbox\Projects\Terminal Silhouettes\Silhouettes\png\TOL.png"
   inkscape:export-xdpi="90"
   inkscape:export-ydpi="90">
  <sodipodi:namedview
     id="base"
     pagecolor="#ffffff"
     bordercolor="#666666"
     borderopacity="1.0"
     inkscape:pageopacity="1"
     inkscape:pageshadow="2"
     inkscape:zoom="0.98994949"
     inkscape:cx="148.45988"
     inkscape:cy="127.76755"
     inkscape:document-units="px"
     inkscape:current-layer="layer4"
     showgrid="false"
     units="px"
     fit-margin-top="25"
     fit-margin-left="25"
     fit-margin-right="25"
     fit-margin-bottom="25"
     showguides="true"
     inkscape:guide-bbox="true"
     inkscape:window-width="1920"
     inkscape:window-height="1137"
     inkscape:window-x="1912"
     inkscape:window-y="-8"
     inkscape:window-maximized="1"
     inkscape:object-nodes="true"
     inkscape:snap-object-midpoints="false" />
  <defs
     id="defs4" />
  <metadata
     id="metadata7">
    <rdf:RDF>
      <cc:Work
         rdf:about="">
        <dc:format>image/svg+xml</dc:format>
        <dc:type
           rdf:resource="http://purl.org/dc/dcmitype/StillImage" />
        <dc:title></dc:title>
        <dc:description>Terminal silhouette of TOL (Toledo)</dc:description>
      </cc:Work>
    </rdf:RDF>
  </metadata>
  <g
     inkscape:label="Terminal"
     id="layer2"
     inkscape:groupmode="layer"
     transform="translate(-445.16047,-299.18698)">
    <path
       style="display:inline;opacity:1;fill:#dddddd;fill-opacity:1;stroke:#222222;stroke-width:1.5;stroke-linejoin:miter;stroke-miterlimit:4;stroke-dasharray:none;stroke-dashoffset:0;stroke-opacity:1"
       d="m 801.12305,429.93555 0,0.002 -7.45899,7.5293 c 0.28458,-0.28728 0.25344,-0.77502 -0.0684,-1.09375 l -2.57226,-2.54883 c -0.24131,-0.23906 -0.57523,-0.31202 -0.84766,-0.21289 -0.0908,0.0331 -0.17493,0.0845 -0.24609,0.15625 -3.85652,3.893 -7.70188,7.6239 -11.52344,11.19922 l -2.25586,-2.45118 -8.45898,7.78321 2.21289,2.40429 c -5.3803,4.76302 -10.69495,9.22102 -15.90625,13.38477 l -1.91016,-2.5332 -12.30469,9.27734 1.99414,2.64453 c -5.43464,4.01082 -10.71836,7.69813 -15.80078,11.07422 l -1.82031,-2.8789 -10.64063,6.73046 1.85938,2.93946 c -5.20543,3.21116 -10.13917,6.07785 -14.73438,8.61523 l -1.72656,-3.33203 -11.21484,5.8125 1.76758,3.41016 c -15.67016,7.86862 -25.33008,11.03125 -25.33008,11.03125 -0.37284,0.15655 -0.53081,0.61756 -0.35547,1.03515 l 1.40039,3.33789 c 0.17535,0.41759 0.6174,0.62922 0.99024,0.47266 0,0 1.74594,-0.58624 4.90039,-1.83399 l 12.0664,28.73633 -34.35937,14.42578 -0.8418,-2.0039 c -0.13151,-0.31319 -0.48954,-0.45964 -0.80273,-0.32813 l -3.4375,1.44336 c -0.31319,0.13151 -0.45963,0.48955 -0.32813,0.80274 l 2.32227,5.5332 c 0.13151,0.31319 0.48954,0.45964 0.80273,0.32812 l 3.4375,-1.44335 c 0.31319,-0.1315 0.45964,-0.48955 0.32813,-0.80274 l -0.082,-0.19726 27.66211,-11.61524 c 0.007,0.0256 0.0128,0.0511 0.0234,0.0762 l 0.23047,0.55274 c 0.0136,0.0323 0.0307,0.0612 0.0488,0.0898 l -5.0293,2.11328 c -0.31319,0.13151 -0.45962,0.48955 -0.32812,0.80274 l 0.82617,1.96484 c 0.1315,0.31319 0.48954,0.45963 0.80273,0.32813 l 6.33789,-2.66211 c 0.31319,-0.1315 0.45963,-0.48955 0.32813,-0.80274 l -0.82422,-1.96484 c -0.1315,-0.31319 -0.48954,-0.45963 -0.80274,-0.32813 l -0.11718,0.0488 c -0.008,-0.033 -0.0158,-0.0673 -0.0293,-0.0996 l -0.23242,-0.55078 c -0.0105,-0.0251 -0.0258,-0.0473 -0.0391,-0.0703 l 33.86523,-14.21875 5.99414,14.27539 -2.09375,0.88086 1.1582,2.75976 31.12305,-13.06836 0.16016,0.38086 7.32812,-3.07812 -1.59765,-3.80664 30.06445,-12.62305 0.21094,0.50195 -5.29102,2.22071 c -0.31319,0.13151 -0.45963,0.48954 -0.32812,0.80273 l 0.74023,1.76367 c 0.1315,0.31319 0.48955,0.45964 0.80274,0.32813 l 6.20507,-2.60547 c 0.31319,-0.1315 0.45964,-0.48954 0.32813,-0.80273 l -0.74024,-1.76368 c -0.12344,-0.29399 -0.44594,-0.43755 -0.74414,-0.3457 l -0.21289,-0.50781 0.85547,-0.35938 c 0.31319,-0.1315 0.45963,-0.48954 0.32813,-0.80273 l -0.12305,-0.29102 10.19336,-4.27929 c 0.52199,-0.21918 0.76604,-0.81591 0.54687,-1.33789 l -5.03906,-12.00196 44.16211,-18.54297 0.23438,0.55469 0.20507,0.49024 c 0.35068,0.83518 1.30546,1.22568 2.14063,0.875 l 19.92187,-8.36524 c 0.83518,-0.35068 1.22568,-1.30545 0.875,-2.14062 l -0.20507,-0.49024 5.13867,-2.1582 -2.63672,-6.28125 0.39464,-0.168 c 0.83518,-0.35068 1.22568,-1.30545 0.875,-2.14062 l -5.76758,-13.73438 c -0.35067,-0.83518 -1.30544,-1.22568 -2.14062,-0.875 l -0.30078,0.12695 -2.08399,-4.96484 c -0.35067,-0.83518 -1.30544,-1.22568 -2.14062,-0.875 l -5.36133,2.25 c -0.83516,0.35068 -1.2257,1.30545 -0.875,2.14062 l 2.08594,4.96485 -19.79688,8.3125 3.55078,8.45508 4.48828,10.6914 -16.46679,6.91406 -2.55664,-6.09179 -2.38086,0.99805 -0.63868,-1.52149 0.18946,-0.0801 -3.43555,-8.18554 -10.56445,4.43554 -2.83789,-6.75781 10.56445,-4.43555 0.16016,0.38086 8.66015,-3.63672 -11.02929,-26.26953 c 0,0 -1.36617,-3.12126 2.24218,-6.25976 l -6.3164,-5.96875 z"
       id="rect4152"
       inkscape:connector-curvature="0" />
  </g>
  <g
     inkscape:groupmode="layer"
     id="layer3"
     inkscape:label="Label"
     transform="translate(-445.16047,-299.18698)">
    <g
       id="g4346"
       transform="translate(-180.81731,245.46707)">
      <g
         style="font-style:normal;font-variant:normal;font-weight:bold;font-stretch:normal;font-size:125px;line-height:125%;font-family:Overpass;-inkscape-font-specification:'Overpass, Bold';text-align:start;letter-spacing:0px;word-spacing:0px;writing-mode:lr-tb;text-anchor:start;fill:#dddddd;fill-opacity:1;stroke:#222222;stroke-width:0.25;stroke-linecap:butt;stroke-linejoin:miter;stroke-miterlimit:4;stroke-dasharray:none;stroke-opacity:1"
         id="text4333">
        <path
           d="m 692.9729,96.60614 0,71.22803 -16.8457,0 0,-71.22803 -25.02442,0 0,-16.296387 66.89453,0 0,16.296387 -25.02441,0 z"
           style=""
           id="path4353" />
        <path
           d="m 767.43579,169.36005 q -7.08008,0 -12.69531,-1.83106 -5.61524,-1.89209 -9.94873,-5.06592 -4.27246,-3.23486 -7.32422,-7.56836 -3.05176,-4.39453 -5.00488,-9.39941 -1.89209,-5.06592 -2.80762,-10.49805 -0.85449,-5.49316 -0.85449,-10.92529 0,-5.37109 0.85449,-10.80322 0.91553,-5.49317 2.80762,-10.49805 1.95312,-5.065917 5.00488,-9.399413 3.05176,-4.394531 7.32422,-7.56836 4.33349,-3.234863 9.94873,-5.065917 5.61523,-1.89209 12.69531,-1.89209 7.08008,0 12.63428,1.89209 5.61523,1.831054 9.88769,5.065917 4.27246,3.173829 7.32422,7.56836 3.05176,4.333496 4.94385,9.399413 1.95313,5.00488 2.80762,10.49805 0.91552,5.43213 0.91552,10.80322 0,5.43213 -0.91552,10.92529 -0.85449,5.43213 -2.80762,10.49805 -1.89209,5.00488 -4.94385,9.39941 -3.05176,4.3335 -7.32422,7.56836 -4.27246,3.17383 -9.88769,5.06592 -5.5542,1.83106 -12.63428,1.83106 z m 0,-16.29639 q 5.85938,0 9.82666,-2.74658 4.02832,-2.74658 6.46973,-7.01905 2.50244,-4.27246 3.60107,-9.33837 1.09863,-5.12696 1.09863,-9.8877 0,-3.35693 -0.48828,-6.7749 -0.42724,-3.47901 -1.46484,-6.65283 -1.0376,-3.23487 -2.68555,-6.04248 -1.64795,-2.86866 -3.96728,-4.943852 -2.31934,-2.136231 -5.43213,-3.356934 -3.05176,-1.220703 -6.95801,-1.220703 -3.96728,0 -7.08008,1.281739 -3.05175,1.281738 -5.43213,3.479003 -2.31933,2.136227 -3.96728,5.004887 -1.64795,2.86865 -2.68555,6.10351 -1.0376,3.23487 -1.52588,6.5918 -0.42724,3.35693 -0.42724,6.53076 0,5.00488 1.09863,10.19287 1.09863,5.12695 3.54004,9.33838 2.50244,4.15039 6.53076,6.83594 4.02832,2.62451 9.94873,2.62451 z"
           style=""
           id="path4355" />
        <path
           d="m 825.41919,167.83417 0,-87.524417 16.90674,0 0,71.289067 42.23633,0 0,16.23535 -59.14307,0 z"
           style=""
           id="path4357" />
      </g>
      <g
         style="font-style:normal;font-variant:normal;font-weight:normal;font-stretch:normal;font-size:45px;line-height:125%;font-family:Overpass;-inkscape-font-specification:'Overpass, Normal';text-align:start;letter-spacing:0px;word-spacing:0px;writing-mode:lr-tb;text-anchor:start;fill:#222222;fill-opacity:1;stroke:none;stroke-width:1px;stroke-linecap:butt;stroke-linejoin:miter;stroke-opacity:1"
         id="text4337">
        <path
           d="m 715.79028,189.9783 0,27.0044 -4.68017,0 0,-27.0044 -8.9209,0 0,-4.50439 22.5,0 0,4.50439 -8.89893,0 z"
           style=""
           id="path4360" />
        <path
           d="m 735.67554,217.53201 q -2.417,0 -4.37256,-0.81299 -1.9336,-0.81298 -3.2959,-2.35107 -1.3623,-1.56006 -2.10937,-3.7793 -0.7251,-2.24121 -0.7251,-5.07568 0,-2.83447 0.7251,-5.07568 0.74707,-2.24121 2.10937,-3.7793 1.3623,-1.56006 3.2959,-2.37305 1.95556,-0.83496 4.37256,-0.83496 2.39502,0 4.35058,0.83496 1.95557,0.81299 3.31787,2.37305 1.36231,1.53809 2.10938,3.7793 0.74707,2.24121 0.74707,5.07568 0,2.83447 -0.74707,5.07568 -0.74707,2.21924 -2.10938,3.7793 -1.3623,1.53809 -3.31787,2.35107 -1.95556,0.81299 -4.35058,0.81299 z m 0,-4.4165 q 1.34033,0 2.41699,-0.52734 1.09863,-0.52735 1.8457,-1.49415 0.76905,-0.98876 1.16455,-2.39501 0.41748,-1.40625 0.41748,-3.18604 0,-1.77979 -0.41748,-3.18604 -0.3955,-1.42822 -1.16455,-2.41699 -0.74707,-0.98877 -1.8457,-1.51611 -1.07666,-0.52734 -2.41699,-0.52734 -1.34033,0 -2.417,0.52734 -1.07666,0.52734 -1.8457,1.51611 -0.74707,0.98877 -1.16455,2.41699 -0.39551,1.40625 -0.39551,3.18604 0,1.77979 0.39551,3.18604 0.41748,1.40625 1.16455,2.39501 0.76904,0.9668 1.8457,1.49415 1.07667,0.52734 2.417,0.52734 z"
           style=""
           id="path4362" />
        <path
           d="m 752.02319,216.9827 0,-30.27832 4.68018,-2.21924 0,32.49756 -4.68018,0 z"
           style=""
           id="path4364" />
        <path
           d="m 772.98511,217.53201 q -2.39502,0 -4.32862,-0.81299 -1.93359,-0.83496 -3.29589,-2.37304 -1.36231,-1.56006 -2.10938,-3.80127 -0.7251,-2.24121 -0.7251,-5.07569 0,-2.83447 0.74707,-5.05371 0.74707,-2.24121 2.10938,-3.77929 1.38428,-1.56006 3.2959,-2.37305 1.93359,-0.81299 4.30664,-0.81299 2.04345,0 3.82324,0.65918 1.80176,0.63721 3.14209,1.97754 1.3623,1.31836 2.13135,3.33984 0.79101,2.02149 0.79101,4.76807 0,0.74707 -0.0439,1.58203 -0.022,0.83496 -0.13184,1.4502 l -15.49072,0 q 0.022,1.42822 0.50537,2.5708 0.50537,1.1206 1.31836,1.93359 0.81299,0.79102 1.8457,1.23047 1.03272,0.41748 2.15332,0.41748 1.42823,0 2.63672,-0.59326 1.23047,-0.59326 2.13135,-1.73584 l 3.0542,3.14209 q -1.25244,1.49414 -3.20801,2.41699 -1.95557,0.92285 -4.6582,0.92285 z m 0,-19.95117 q -1.09864,0 -2.10938,0.32959 -1.01074,0.30762 -1.80176,1.01074 -0.76904,0.68116 -1.27441,1.80176 -0.50537,1.12061 -0.59326,2.72461 l 10.98633,0 q -0.0439,-1.604 -0.50537,-2.72461 -0.46143,-1.1206 -1.2085,-1.80176 -0.74707,-0.70312 -1.66992,-1.01074 -0.90088,-0.32959 -1.82373,-0.32959 z"
           style=""
           id="path4366" />
        <path
           d="m 796.6936,217.53201 q -2.17529,0 -3.95507,-0.81299 -1.75782,-0.83496 -3.01026,-2.37304 -1.25244,-1.56006 -1.93359,-3.80127 -0.65918,-2.24121 -0.65918,-5.07569 0,-2.83447 0.70312,-5.05371 0.70313,-2.24121 1.95557,-3.77929 1.27441,-1.56006 3.03223,-2.37305 1.75781,-0.81299 3.86718,-0.81299 1.88965,0 3.20801,0.61524 1.34033,0.61523 2.21924,1.53808 l 0,-8.94287 4.68018,-2.17529 0,32.49756 -4.68018,0 0,-1.62598 q -0.92285,1.03271 -2.21924,1.604 -1.27441,0.57129 -3.20801,0.57129 z m 0.65918,-4.4165 q 1.58203,0 2.79053,-0.68115 1.2085,-0.68116 1.97754,-1.9336 l 0,-10.12939 q -0.26367,-0.43945 -0.70313,-0.87891 -0.43945,-0.43945 -1.05468,-0.79101 -0.59326,-0.37354 -1.36231,-0.59327 -0.74707,-0.24169 -1.64795,-0.24169 -2.63672,0 -4.08691,1.95556 -1.4502,1.9336 -1.4502,5.64697 0,1.66993 0.37354,3.07618 0.39551,1.38427 1.09863,2.41699 0.7251,1.01074 1.73584,1.58203 1.03272,0.57129 2.3291,0.57129 z"
           style=""
           id="path4368" />
        <path
           d="m 822.95093,217.53201 q -2.41699,0 -4.37256,-0.81299 -1.93359,-0.81298 -3.2959,-2.35107 -1.3623,-1.56006 -2.10937,-3.7793 -0.7251,-2.24121 -0.7251,-5.07568 0,-2.83447 0.7251,-5.07568 0.74707,-2.24121 2.10937,-3.7793 1.36231,-1.56006 3.2959,-2.37305 1.95557,-0.83496 4.37256,-0.83496 2.39502,0 4.35058,0.83496 1.95557,0.81299 3.31787,2.37305 1.36231,1.53809 2.10938,3.7793 0.74707,2.24121 0.74707,5.07568 0,2.83447 -0.74707,5.07568 -0.74707,2.21924 -2.10938,3.7793 -1.3623,1.53809 -3.31787,2.35107 -1.95556,0.81299 -4.35058,0.81299 z m 0,-4.4165 q 1.34033,0 2.41699,-0.52734 1.09863,-0.52735 1.8457,-1.49415 0.76905,-0.98876 1.16455,-2.39501 0.41748,-1.40625 0.41748,-3.18604 0,-1.77979 -0.41748,-3.18604 -0.3955,-1.42822 -1.16455,-2.41699 -0.74707,-0.98877 -1.8457,-1.51611 -1.07666,-0.52734 -2.41699,-0.52734 -1.34033,0 -2.41699,0.52734 -1.07666,0.52734 -1.84571,1.51611 -0.74707,0.98877 -1.16455,2.41699 -0.39551,1.40625 -0.39551,3.18604 0,1.77979 0.39551,3.18604 0.41748,1.40625 1.16455,2.39501 0.76905,0.9668 1.84571,1.49415 1.07666,0.52734 2.41699,0.52734 z"
           style=""
           id="path4370" />
      </g>
    </g>
  </g>
  <g
     inkscape:groupmode="layer"
     id="layer4"
     inkscape:label="Date"
     transform="translate(-445.16047,-299.18698)">
    <g
       style="font-style:normal;font-variant:normal;font-weight:300;font-stretch:normal;font-size:15px;line-height:125%;font-family:Overpass;-inkscape-font-specification:'Overpass, Light';text-align:start;letter-spacing:0px;word-spacing:0px;writing-mode:lr-tb;text-anchor:start;fill:#222222;fill-opacity:1;stroke:none;stroke-width:1px;stroke-linecap:butt;stroke-linejoin:miter;stroke-opacity:1"
       id="text4342">
      <path
         d="m 475.26048,571.44324 0,-2.835 -5.1,0 0,-0.555 5.52,-7.11 0.63,0 0,6.765 1.59,0 0,0.9 -1.59,0 0,2.835 -1.05,0 z m 0,-3.735 0,-4.95 -3.735,4.95 3.735,0 z"
         style=""
         id="path4373" />
      <path
         d="m 487.38587,570.67824 q 0.9,0 1.515,-0.405 0.63,-0.405 1.005,-1.05 0.39,-0.645 0.555,-1.44 0.18,-0.81 0.18,-1.59 0,-0.855 -0.18,-1.665 -0.165,-0.81 -0.555,-1.425 -0.375,-0.63 -1.005,-1.005 -0.615,-0.39 -1.515,-0.39 -0.9,0 -1.53,0.405 -0.615,0.405 -1.005,1.05 -0.375,0.645 -0.555,1.455 -0.165,0.795 -0.165,1.575 0,0.855 0.165,1.665 0.18,0.81 0.555,1.44 0.39,0.615 1.005,1.005 0.63,0.375 1.53,0.375 z m 0,0.945 q -1.215,0 -2.055,-0.48 -0.825,-0.48 -1.335,-1.26 -0.51,-0.78 -0.735,-1.74 -0.225,-0.975 -0.225,-1.95 0,-0.975 0.225,-1.935 0.225,-0.975 0.735,-1.755 0.51,-0.78 1.335,-1.26 0.84,-0.48 2.055,-0.48 1.215,0 2.04,0.48 0.84,0.48 1.35,1.26 0.51,0.78 0.735,1.755 0.225,0.96 0.225,1.935 0,0.975 -0.225,1.95 -0.225,0.96 -0.735,1.74 -0.51,0.78 -1.35,1.26 -0.825,0.48 -2.04,0.48 z"
         style=""
         id="path4375" />
      <path
         d="m 496.47564,571.62324 q -1.395,0 -2.22,-1.035 -0.81,-1.05 -0.81,-2.97 0,-1.905 0.825,-2.955 0.84,-1.065 2.325,-1.065 0.855,0 1.5,0.42 0.645,0.405 0.96,1.185 l -0.96,0.375 q -0.18,-0.435 -0.555,-0.735 -0.36,-0.3 -0.99,-0.3 -0.54,0 -0.915,0.225 -0.375,0.21 -0.63,0.615 -0.24,0.39 -0.36,0.96 -0.105,0.57 -0.105,1.275 0,1.455 0.48,2.265 0.48,0.795 1.5,0.795 0.63,0 1.065,-0.315 0.435,-0.315 0.63,-0.855 l 0.945,0.36 q -0.27,0.81 -0.99,1.29 -0.705,0.465 -1.695,0.465 z"
         style=""
         id="path4377" />
      <path
         d="m 502.95118,571.62324 q -0.825,0 -1.17,-0.495 -0.345,-0.51 -0.345,-1.26 l 0,-5.145 -1.305,0 0,-0.945 1.305,0 0,-2.64 1.05,-0.525 0,3.165 1.95,0 0,0.945 -1.95,0 0,4.695 q 0,0.255 0.015,0.48 0.03,0.21 0.12,0.375 0.09,0.165 0.255,0.27 0.165,0.09 0.435,0.09 0.39,0 0.66,-0.15 0.285,-0.15 0.495,-0.3 l -0.12,1.095 q -0.3,0.165 -0.63,0.255 -0.33,0.09 -0.765,0.09 z"
         style=""
         id="path4379" />
      <path
         d="m 509.74032,571.44324 q 0,-0.99 0.285,-1.695 0.285,-0.72 0.735,-1.26 0.45,-0.54 1.02,-0.945 0.57,-0.405 1.14,-0.795 0.495,-0.33 0.945,-0.645 0.45,-0.33 0.795,-0.69 0.36,-0.36 0.57,-0.765 0.21,-0.42 0.21,-0.93 0,-0.855 -0.6,-1.425 -0.585,-0.585 -1.68,-0.585 -1.065,0 -1.605,0.48 -0.54,0.465 -0.735,1.215 l -0.93,-0.42 q 0.12,-0.465 0.405,-0.87 0.285,-0.405 0.72,-0.705 0.435,-0.3 0.99,-0.465 0.57,-0.18 1.245,-0.18 1.56,0 2.415,0.81 0.87,0.795 0.87,2.145 0,0.72 -0.285,1.275 -0.27,0.555 -0.72,1.02 -0.435,0.45 -0.99,0.84 -0.555,0.375 -1.125,0.735 -0.45,0.3 -0.87,0.6 -0.42,0.285 -0.78,0.63 -0.345,0.33 -0.585,0.735 -0.24,0.39 -0.33,0.885 l 5.775,0 0,1.005 -6.885,0 z"
         style=""
         id="path4381" />
      <path
         d="m 522.31946,571.62324 q -1.035,0 -1.725,-0.48 -0.69,-0.48 -1.11,-1.245 -0.405,-0.78 -0.585,-1.74 -0.18,-0.975 -0.18,-1.965 0,-0.54 0.06,-1.155 0.06,-0.63 0.21,-1.23 0.165,-0.6 0.42,-1.155 0.27,-0.555 0.675,-0.975 0.405,-0.42 0.945,-0.66 0.555,-0.255 1.29,-0.255 1.035,0 1.725,0.495 0.69,0.48 1.095,1.26 0.42,0.78 0.6,1.755 0.18,0.96 0.18,1.92 0,0.555 -0.075,1.17 -0.06,0.615 -0.225,1.23 -0.15,0.6 -0.42,1.155 -0.255,0.54 -0.66,0.96 -0.405,0.42 -0.96,0.675 -0.54,0.24 -1.26,0.24 z m 0,-0.945 q 0.78,0 1.26,-0.42 0.495,-0.435 0.765,-1.095 0.27,-0.66 0.36,-1.455 0.09,-0.795 0.09,-1.515 0,-0.81 -0.105,-1.605 -0.105,-0.81 -0.39,-1.44 -0.285,-0.645 -0.765,-1.035 -0.48,-0.405 -1.215,-0.405 -0.795,0 -1.29,0.435 -0.48,0.435 -0.75,1.095 -0.27,0.66 -0.375,1.455 -0.09,0.78 -0.09,1.5 0,0.825 0.105,1.635 0.105,0.795 0.39,1.44 0.285,0.63 0.765,1.02 0.495,0.39 1.245,0.39 z"
         style=""
         id="path4383" />
      <path
         d="m 529.34157,571.44324 0,-8.595 -1.785,0 0,-0.6 q 0.795,0 1.35,-0.27 0.555,-0.285 0.81,-1.035 l 0.675,0 0,10.5 -1.05,0 z"
         style=""
         id="path4385" />
      <path
         d="m 534.42634,571.44324 q 0.015,-1.23 0.15,-2.43 0.15,-1.2 0.51,-2.385 0.375,-1.185 0.99,-2.37 0.615,-1.2 1.575,-2.415 l -5.085,0 0,-0.9 6.285,0 0,0.69 q -1.095,1.26 -1.755,2.595 -0.66,1.32 -1.02,2.61 -0.36,1.275 -0.48,2.46 -0.12,1.185 -0.12,2.145 l -1.05,0 z"
         style=""
         id="path4387" />
    </g>
  </g>
</svg>
