<?xml version="1.0" encoding="UTF-8" standalone="no"?>
<!-- Created with Inkscape (http://www.inkscape.org/) -->

<svg
   xmlns:dc="http://purl.org/dc/elements/1.1/"
   xmlns:cc="http://creativecommons.org/ns#"
   xmlns:rdf="http://www.w3.org/1999/02/22-rdf-syntax-ns#"
   xmlns:svg="http://www.w3.org/2000/svg"
   xmlns="http://www.w3.org/2000/svg"
   xmlns:sodipodi="http://sodipodi.sourceforge.net/DTD/sodipodi-0.dtd"
   xmlns:inkscape="http://www.inkscape.org/namespaces/inkscape"
   width="739.32495"
   height="1044.1517"
   viewBox="0 0 739.32495 1044.1517"
   id="svg2"
   version="1.1"
   inkscape:version="0.91 r13725"
   sodipodi:docname="TPA.svg"
   inkscape:export-filename="C:\Users\paulb\Dropbox\Projects\Terminal Silhouettes\Silhouettes\png-portfolio\TPA.png"
   inkscape:export-xdpi="90"
   inkscape:export-ydpi="90">
  <defs
     id="defs4" />
  <sodipodi:namedview
     id="base"
     pagecolor="#ffffff"
     bordercolor="#666666"
     borderopacity="1.0"
     inkscape:pageopacity="1"
     inkscape:pageshadow="2"
     inkscape:zoom="0.7"
     inkscape:cx="414.45814"
     inkscape:cy="563.45845"
     inkscape:document-units="px"
     inkscape:current-layer="layer2"
     showgrid="false"
     units="px"
     fit-margin-top="25"
     fit-margin-left="25"
     fit-margin-right="25"
     fit-margin-bottom="25"
     inkscape:window-width="1920"
     inkscape:window-height="1137"
     inkscape:window-x="-8"
     inkscape:window-y="-8"
     inkscape:window-maximized="1"
     showguides="true"
     inkscape:guide-bbox="true"
     inkscape:object-nodes="true"
     inkscape:snap-intersection-paths="true"
     inkscape:object-paths="true" />
  <metadata
     id="metadata7">
    <rdf:RDF>
      <cc:Work
         rdf:about="">
        <dc:format>image/svg+xml</dc:format>
        <dc:type
           rdf:resource="http://purl.org/dc/dcmitype/StillImage" />
        <dc:title></dc:title>
      </cc:Work>
    </rdf:RDF>
  </metadata>
  <g
     inkscape:groupmode="layer"
     id="layer2"
     inkscape:label="Terminal"
     transform="translate(833.36726,-603.57414)">
    <path
       style="fill:#dddddd;fill-opacity:1;fill-rule:evenodd;stroke:#222222;stroke-width:1.5;stroke-linecap:butt;stroke-linejoin:miter;stroke-miterlimit:4;stroke-dasharray:none;stroke-opacity:1"
       d="m -231.17872,629.31604 -2.58573,84.89701 3.69586,0.001 -0.50706,16.6398 21.84288,0.69679 0.42157,-13.81516 c 2.11452,1.36959 4.35572,3.26651 6.53697,5.90689 l 6.21252,8.05231 c 0.61112,21.09221 -5.97712,26.86796 -5.97712,26.86796 l -15.02256,21.21517 4.58004,3.04128 -7.88012,11.5304 2.23324,1.48259 -135.8821,191.8911 0.55509,-18.22777 -15.23919,-10.11933 0.14872,-4.88333 -46.55956,-1.48614 1.01532,-33.32406 a 46.707092,46.707092 0 0 0 39.22748,-46.08412 46.707092,46.707092 0 0 0 -46.70713,-46.70712 46.707092,46.707092 0 0 0 -46.70713,46.70712 46.707092,46.707092 0 0 0 36.17214,45.45525 l -0.12066,3.96995 -14.68411,-0.46844 -0.89588,29.40796 -32.21272,-1.02814 -0.13585,4.44187 -16.62458,9.59347 -1.00125,32.87793 -88.31188,-2.8188 -1.3444,44.10162 -59.81496,-1.5283 -47.32896,-2.4405 0,-2.088 -16.86348,-0.527 0.19909,-6.5182 -28.97237,-0.9252 0.11707,-3.8235 8.20453,0.2623 0.1112,-3.669 42.53575,1.3584 0.60076,-19.73602 -63.85751,-28.64693 0.1136,-3.7252 -4.5508,-2.0424 -1.78588,1.29173 -15.34459,-6.8836 -0.17917,-3.8832 -27.1174,-12.1652 c 0,0 4.5862,32.04493 4.60116,79.85802 l -6.19851,-0.198 -1.02234,33.5443 6.46901,0.2061 c -0.0449,0.9954 -0.0969,2.0039 -0.14639,3.0074 l -8.90952,-0.4462 -1.49898,25.6968 8.67649,0.4568 c -1.67175,19.4748 -4.26751,40.02 -8.16005,61.0399 l 28.80141,-4.6597 0.56561,-2.5752 37.32215,-6.0382 1.96975,-64.662 5.5626,0.178 0.16512,-5.4256 -8.25959,-0.2645 0.13819,-4.5123 29.02625,0.9264 0.25177,-8.2632 51.38088,-1.2014 72.80686,1.8597 -1.3116,43.0497 82.93898,2.6479 -171.85982,242.6993 -2.80003,-1.8597 9.12149,-13.8877 1.78355,1.6126 c 0,0 5.67469,-11.0281 0,-26.0178 0,0 -6.70173,-19.8643 -30.40227,-20.0863 l -2.4932,-1.6559 -41.50054,63.1876 35.12872,23.3243 -1.22612,1.8679 -19.92934,-13.2331 -13.20269,20.1037 -40.11983,-26.6396 -19.7607,30.0884 49.65938,32.974 -3.69824,5.6294 2.87851,1.9112 -4.64917,7.0792 46.02906,30.5626 4.64916,-7.0792 3.1385,2.0846 3.69825,-5.6294 111.16421,73.8128 10.50923,-16.0016 -13.91471,-9.2396 5.4092,-8.2352 -14.12433,-9.3778 -5.40803,8.235 -31.06274,-20.625 4.77446,-7.27 -27.81885,-18.4726 17.67971,-26.9194 -36.2635,-24.0796 21.94828,-33.4178 -8.72216,-5.791 166.31244,-234.8648 -0.15574,5.1153 16.00858,10.6297 -0.15809,5.188 111.47221,3.5576 0.16628,-5.4408 15.82591,-9.1332 0.24007,-7.8965 81.12262,128.8721 c 0,0 35.58202,58.2024 46.7739,139.2196 l 1.3631,26.3468 -1.51413,0.1511 0.40981,14.574 -8.4352,0.8713 3.81651,40.4958 3.89385,-0.3562 c 0,0 2.98452,26.2579 31.13887,25.122 l -3.50856,110.2308 0.23888,0.013 a 20.703881,20.703881 0 0 0 -0.0621,1.2566 20.703881,20.703881 0 0 0 20.70343,20.7034 20.703881,20.703881 0 0 0 20.70461,-20.7034 l 7.0522,-229.246 -0.005,0 a 20.703881,20.703881 0 0 0 0.0995,-1.9873 20.703881,20.703881 0 0 0 -20.70343,-20.7045 20.703881,20.703881 0 0 0 -20.64838,19.5968 l -0.0259,0 -2.1337,67.0346 -1.45916,-15.4852 -11.22241,1.1594 -1.83504,-13.9288 -1.66644,0.1512 -2.27071,-19.8356 c -8.47952,-81.1608 -50.50377,-151.9576 -50.50377,-151.9576 l -83.98942,-133.4275 82.03488,2.6187 3.04598,-99.99 -82.61693,-2.636 141.16125,-199.34743 2.68179,1.78121 8.53594,-11.09359 6.01815,3.99571 17.14221,-24.20845 -1.32916,43.63188 -7.21385,-0.2307 -0.69792,22.9027 7.21377,0.2307 -0.16278,5.35648 50.45226,1.61024 3.98044,-130.64738 c 0,0 0.11067,-12.43662 -6.9023,-20.06754 l -49.53415,-53.89912 c 0,0 -12.94406,-11.98509 -29.40917,-12.51059 l -25.54109,-0.81506 z"
       id="path4156"
       inkscape:connector-curvature="0" />
  </g>
  <g
     inkscape:groupmode="layer"
     id="layer3"
     inkscape:label="Label"
     transform="translate(-377.34694,-437.28337)"
     style="display:inline">
    <g
       id="g4311">
      <g
         style="font-style:normal;font-variant:normal;font-weight:bold;font-stretch:normal;font-size:125px;line-height:125%;font-family:Overpass;-inkscape-font-specification:'Overpass, Bold';text-align:start;letter-spacing:0px;word-spacing:0px;writing-mode:lr-tb;text-anchor:start;fill:#dddddd;fill-opacity:1;stroke:#222222;stroke-width:0.25;stroke-linecap:butt;stroke-linejoin:miter;stroke-miterlimit:4;stroke-dasharray:none;stroke-opacity:1"
         id="text4293">
        <path
           d="m 445.1347,479.44666 0,71.22802 -16.8457,0 0,-71.22802 -25.02441,0 0,-16.29639 66.89453,0 0,16.29639 -25.02442,0 z"
           id="path4318"
           inkscape:connector-curvature="0" />
        <path
           d="m 487.00482,550.67468 0,-87.52441 37.53662,0 q 8.30078,0 13.97705,2.4414 5.67627,2.38038 9.21631,6.34766 3.54004,3.90625 5.06592,8.8501 1.58691,4.94385 1.58691,10.00976 0,3.17383 -0.73242,6.46973 -0.73242,3.23486 -2.2583,6.34766 -1.52588,3.05175 -3.90625,5.7373 -2.38037,2.68555 -5.7373,4.76074 -3.2959,2.01416 -7.6294,3.17383 -4.27246,1.15967 -9.58252,1.15967 l -20.62988,0 0,32.22656 -16.90674,0 z m 38.26904,-48.27881 q 3.23487,0 5.43213,-1.03759 2.19727,-1.0376 3.54004,-2.68555 1.40381,-1.64795 2.01416,-3.72315 0.61035,-2.07519 0.61035,-4.15039 0,-1.89209 -0.54931,-3.90625 -0.48828,-2.07519 -1.83106,-3.78418 -1.28173,-1.70898 -3.54004,-2.80761 -2.2583,-1.09864 -5.67627,-1.09864 l -21.3623,0 0,23.19336 21.3623,0 z"
           id="path4320"
           inkscape:connector-curvature="0" />
        <path
           d="m 618.29144,550.67468 -6.7749,-18.12744 -33.75244,0 -6.71387,18.12744 -18.12744,0 33.5083,-87.52441 16.47949,0 33.5083,87.52441 -18.12744,0 z m -20.87402,-56.27441 q -0.67139,-1.58692 -1.46484,-3.78418 -0.73243,-2.19727 -1.28174,-4.08936 -0.48828,1.89209 -1.28174,4.08936 -0.79346,2.19726 -1.46484,3.78418 l -8.667,22.76611 22.76612,0 -8.60596,-22.76611 z"
           id="path4322"
           inkscape:connector-curvature="0" />
      </g>
      <g
         style="font-style:normal;font-variant:normal;font-weight:normal;font-stretch:normal;font-size:45px;line-height:125%;font-family:Overpass;-inkscape-font-specification:'Overpass, Normal';text-align:start;letter-spacing:0px;word-spacing:0px;writing-mode:lr-tb;text-anchor:start;fill:#222222;fill-opacity:1;stroke:none;stroke-width:1px;stroke-linecap:butt;stroke-linejoin:miter;stroke-opacity:1"
         id="text4297">
        <path
           d="m 468.3598,570.3042 0,27.00439 -4.68017,0 0,-27.00439 -8.9209,0 0,-4.5044 22.5,0 0,4.5044 -8.89893,0 z"
           id="path4325"
           inkscape:connector-curvature="0" />
        <path
           d="m 497.38568,597.30859 -4.48242,0 0,-1.97754 q -0.43945,0.46143 -1.05469,0.92286 -0.61523,0.43945 -1.40625,0.81298 -0.76904,0.35157 -1.73584,0.57129 -0.96679,0.21973 -2.10937,0.21973 -1.75782,0 -3.25196,-0.4834 -1.49414,-0.4834 -2.59277,-1.45019 -1.09863,-0.98877 -1.73584,-2.417 -0.61523,-1.45019 -0.61523,-3.36181 0,-1.97754 0.74707,-3.40576 0.74707,-1.4502 1.97754,-2.37305 1.23046,-0.94483 2.8125,-1.38428 1.604,-0.43945 3.29589,-0.43945 1.58204,0 3.03223,0.35156 1.47217,0.32959 2.63672,1.01074 l 0,-1.27441 q 0,-1.29639 -0.30762,-2.19727 -0.28564,-0.90088 -0.90088,-1.45019 -0.59326,-0.57129 -1.51611,-0.81299 -0.92285,-0.26367 -2.19727,-0.26367 -2.15332,0 -3.73535,0.57129 -1.56006,0.57129 -2.83447,1.51611 l -1.38428,-3.84521 q 0.70313,-0.4834 1.60401,-0.90088 0.90088,-0.43946 1.97754,-0.76905 1.07666,-0.32959 2.3291,-0.50537 1.25244,-0.19775 2.68066,-0.19775 0.9668,0 1.99951,0.10986 1.03272,0.10987 1.99951,0.43946 0.98877,0.30761 1.84571,0.90087 0.8789,0.59327 1.51611,1.56006 0.65918,0.94483 1.03272,2.3291 0.37353,1.38428 0.37353,3.2959 l 0,14.89746 z m -9.93164,-3.60351 q 1.77979,0 3.14209,-0.7251 1.38428,-0.7251 2.30713,-1.73584 l 0,-3.51562 q -0.9668,-0.50538 -2.26318,-0.81299 -1.29639,-0.30762 -2.6587,-0.30762 -1.05468,0 -1.97753,0.19775 -0.92286,0.19776 -1.62598,0.63721 -0.68115,0.41748 -1.07666,1.09863 -0.39551,0.65918 -0.39551,1.60401 0,1.64795 1.14258,2.61474 1.16455,0.94483 3.40576,0.94483 z"
           id="path4327"
           inkscape:connector-curvature="0" />
        <path
           d="m 530.74017,597.30859 0,-13.77685 q 0,-2.5708 -1.05468,-3.95508 -1.05469,-1.38428 -3.16407,-1.38428 -0.94482,0 -1.77978,0.35157 -0.83496,0.35156 -1.47217,1.05468 -0.61523,0.70313 -0.98877,1.75782 -0.35156,1.03271 -0.35156,2.41699 l 0,13.53515 -4.68018,0 0,-13.77685 q 0,-2.5708 -1.07666,-3.95508 -1.05469,-1.38428 -3.16406,-1.38428 -0.94482,0 -1.77979,0.35157 -0.81298,0.35156 -1.45019,1.05468 -0.61524,0.70313 -0.98877,1.75782 -0.35156,1.03271 -0.35156,2.41699 l 0,13.53515 -4.68018,0 0,-23.00537 4.68018,0 0,2.13135 q 0.98877,-1.42822 2.50488,-2.04346 1.51611,-0.61523 3.2959,-0.61523 1.88965,0 3.49365,0.76904 1.62598,0.74707 2.61475,2.50488 1.09863,-1.69189 2.8125,-2.48291 1.71386,-0.79101 3.99902,-0.79101 1.75781,0 3.25195,0.50537 1.51612,0.50537 2.61475,1.56006 1.12061,1.05469 1.75781,2.70264 0.63721,1.64794 0.63721,3.91113 l 0,14.85351 -4.68018,0 z"
           id="path4329"
           inkscape:connector-curvature="0" />
        <path
           d="m 552.18549,597.85791 q -1.01075,0 -1.84571,-0.19775 -0.81299,-0.19776 -1.49414,-0.54932 -0.68115,-0.35156 -1.23047,-0.79102 -0.52734,-0.46142 -0.94482,-0.98877 l 0,8.85499 -4.68018,2.17529 0,-32.05811 4.68018,0 0,1.84571 q 0.90088,-1.01075 2.21924,-1.6919 1.31836,-0.68115 3.2959,-0.68115 2.17529,0 3.9331,0.83496 1.75781,0.81299 2.98828,2.37305 1.23047,1.53808 1.88965,3.77929 0.65918,2.24121 0.65918,5.07569 0,2.83447 -0.70312,5.07568 -0.68116,2.21924 -1.9336,3.7793 -1.23047,1.53808 -2.98828,2.35107 -1.73584,0.81299 -3.84521,0.81299 z m -0.65918,-4.4165 q 2.65869,0 4.04296,-1.95557 1.40625,-1.95557 1.40625,-5.64697 0,-1.66992 -0.37353,-3.07617 -0.35156,-1.40625 -1.05469,-2.417 -0.70312,-1.01074 -1.71386,-1.58203 -1.01075,-0.57129 -2.30713,-0.57129 -1.64795,0 -2.87842,0.68116 -1.2085,0.65917 -1.97754,1.91162 l 0,9.99755 q 0.39551,0.52735 0.87891,1.01075 0.50537,0.4834 1.09863,0.85693 0.61523,0.35156 1.31836,0.57129 0.7251,0.21973 1.56006,0.21973 z"
           id="path4331"
           inkscape:connector-curvature="0" />
        <path
           d="m 584.92474,597.30859 -4.48242,0 0,-1.97754 q -0.43945,0.46143 -1.05469,0.92286 -0.61523,0.43945 -1.40625,0.81298 -0.76904,0.35157 -1.73584,0.57129 -0.96679,0.21973 -2.10937,0.21973 -1.75781,0 -3.25195,-0.4834 -1.49414,-0.4834 -2.59278,-1.45019 -1.09863,-0.98877 -1.73584,-2.417 -0.61523,-1.45019 -0.61523,-3.36181 0,-1.97754 0.74707,-3.40576 0.74707,-1.4502 1.97754,-2.37305 1.23047,-0.94483 2.8125,-1.38428 1.604,-0.43945 3.2959,-0.43945 1.58203,0 3.03222,0.35156 1.47217,0.32959 2.63672,1.01074 l 0,-1.27441 q 0,-1.29639 -0.30762,-2.19727 -0.28564,-0.90088 -0.90087,-1.45019 -0.59327,-0.57129 -1.51612,-0.81299 -0.92285,-0.26367 -2.19726,-0.26367 -2.15332,0 -3.73535,0.57129 -1.56006,0.57129 -2.83448,1.51611 l -1.38427,-3.84521 q 0.70312,-0.4834 1.604,-0.90088 0.90088,-0.43946 1.97754,-0.76905 1.07666,-0.32959 2.3291,-0.50537 1.25244,-0.19775 2.68066,-0.19775 0.9668,0 1.99952,0.10986 1.03271,0.10987 1.99951,0.43946 0.98877,0.30761 1.8457,0.90087 0.87891,0.59327 1.51611,1.56006 0.65918,0.94483 1.03272,2.3291 0.37353,1.38428 0.37353,3.2959 l 0,14.89746 z m -9.93164,-3.60351 q 1.77979,0 3.14209,-0.7251 1.38428,-0.7251 2.30713,-1.73584 l 0,-3.51562 q -0.9668,-0.50538 -2.26318,-0.81299 -1.29639,-0.30762 -2.65869,-0.30762 -1.05469,0 -1.97754,0.19775 -0.92285,0.19776 -1.62598,0.63721 -0.68115,0.41748 -1.07666,1.09863 -0.39551,0.65918 -0.39551,1.60401 0,1.64795 1.14258,2.61474 1.16455,0.94483 3.40576,0.94483 z"
           id="path4333"
           inkscape:connector-curvature="0" />
      </g>
    </g>
  </g>
</svg>
