<?xml version="1.0" encoding="UTF-8" standalone="no"?>
<!-- Created with Inkscape (http://www.inkscape.org/) -->

<svg
   xmlns:dc="http://purl.org/dc/elements/1.1/"
   xmlns:cc="http://creativecommons.org/ns#"
   xmlns:rdf="http://www.w3.org/1999/02/22-rdf-syntax-ns#"
   xmlns:svg="http://www.w3.org/2000/svg"
   xmlns="http://www.w3.org/2000/svg"
   xmlns:sodipodi="http://sodipodi.sourceforge.net/DTD/sodipodi-0.dtd"
   xmlns:inkscape="http://www.inkscape.org/namespaces/inkscape"
   width="700.31018"
   height="566.35077"
   viewBox="0 0 700.31018 566.35077"
   id="svg2"
   version="1.1"
   inkscape:version="0.92.4 (5da689c313, 2019-01-14)"
   sodipodi:docname="TXL.svg"
   inkscape:export-filename="C:\Users\paulb\Dropbox\Projects\Terminal Silhouettes\Silhouettes\png\TXL.png"
   inkscape:export-xdpi="90"
   inkscape:export-ydpi="90">
  <defs
     id="defs4" />
  <sodipodi:namedview
     id="base"
     pagecolor="#ffffff"
     bordercolor="#666666"
     borderopacity="1.0"
     inkscape:pageopacity="1"
     inkscape:pageshadow="2"
     inkscape:zoom="1"
     inkscape:cx="80.02171"
     inkscape:cy="319.08391"
     inkscape:document-units="px"
     inkscape:current-layer="layer3"
     showgrid="false"
     units="px"
     fit-margin-top="25"
     fit-margin-left="25"
     fit-margin-right="25"
     fit-margin-bottom="25"
     inkscape:window-width="1920"
     inkscape:window-height="1137"
     inkscape:window-x="1912"
     inkscape:window-y="-8"
     inkscape:window-maximized="1" />
  <metadata
     id="metadata7">
    <rdf:RDF>
      <cc:Work
         rdf:about="">
        <dc:format>image/svg+xml</dc:format>
        <dc:type
           rdf:resource="http://purl.org/dc/dcmitype/StillImage" />
        <dc:title />
      </cc:Work>
    </rdf:RDF>
  </metadata>
  <g
     inkscape:groupmode="layer"
     id="layer2"
     inkscape:label="Terminal"
     transform="translate(-497.78875,-393.46341)">
    <path
       style="fill:#dddddd;fill-opacity:1;fill-rule:evenodd;stroke:#222222;stroke-width:1.5;stroke-linecap:butt;stroke-linejoin:miter;stroke-miterlimit:4;stroke-dasharray:none;stroke-opacity:1"
       d="m 1171.9446,419.42085 -87.5633,14.91615 -0.8287,-5.24827 -40.6051,6.6294 0.8287,4.55771 -108.69456,17.6784 0.96679,6.07695 -4.00526,0.55245 4.69582,30.79909 4.55771,-0.69056 5.38639,35.90925 151.37131,-24.58403 3.1766,20.44065 20.3025,-3.3147 -8.2867,22.92668 -14.9162,-5.80073 -22.3742,56.3499 23.0648,8.56298 39.6383,-107.72775 4.6958,-0.82868 28.5893,-77.20489 z m -485.32735,83.9724 -119.60542,19.05953 -43.36733,113.52847 77.06678,94.19273 109.10887,-17.95463 3.3147,-9.66787 3.3147,-0.27623 7.7343,7.7343 -2.76225,9.11543 22.65045,26.79382 -1.65735,2.2098 9.66788,12.1539 -41.43375,109.10888 53.31142,64.63665 19.33575,-1.93358 -48.89182,-60.7695 3.03847,-8.28675 -3.86715,-1.65735 7.45808,-19.8882 4.14337,1.65735 4.69583,-13.2588 -3.3147,-3.03847 12.1539,-31.48965 5.5245,2.48602 4.14337,-10.49655 -6.07695,-2.2098 2.76225,-8.8392 c 0,0 2.76225,1.65735 4.69583,-0.82867 0,0 1.93357,-3.03848 -1.38113,-5.24828 0,0 -1.38112,-1.1049 -3.59092,0.27623 l -15.74483,-19.05953 5.24828,-4.69582 -7.7343,-9.11543 4.14337,-11.32522 -13.53502,-16.02105 29.00362,-76.2381 54.1401,-7.59619 4.97205,-13.81125 -4.4196,-6.35317 21.82178,-3.17659 5.5245,-4.4196 0.82867,1.1049 83.14373,-67.3989 11.049,-1.65735 -0.55245,-4.14338 -6.07695,0.82868 -2.2098,-12.1539 -13.53503,1.93357 2.76225,13.81125 -76.51432,62.70308 2.48602,-8.01053 -4.69582,-5.80072 -17.95463,2.76225 -3.3147,8.01052 8.56298,10.22033 -12.29201,1.93357 -11.60145,-14.3637 2.41696,-4.38507 -3.10753,-1.89904 1.65735,-0.34529 -1.1049,-4.97205 -1.24301,0.41434 -1.51924,-8.01052 -15.33048,2.76225 0.27622,1.79546 -40.8813,6.6294 -62.84119,-77.06678 z m -22.67742,34.98023 0.0971,1.46529 6.54308,7.81307 9.66895,-1.5624 0.9765,-0.68409 40.43136,49.61152 -2.63709,2.44179 -3.71069,11.62087 15.5042,18.20064 -3.3147,10.08221 -16.71161,-19.47386 -3.59092,10.08221 -12.98258,-4.97205 -9.25354,24.3078 13.12069,4.97205 -4.14337,9.52976 25.55081,-3.59092 -3.72904,9.52976 -23.61724,2.90036 -5.24827,13.81125 0.41434,1.1049 -62.9793,10.22033 -0.27623,-1.51924 -6.6294,-8.01053 -9.9441,1.51924 -0.96679,1.65735 -40.46696,-49.99672 1.38113,-0.82868 3.86715,-10.22032 -6.90563,-7.87242 -1.52679,-0.10358 23.04752,-60.54938 0.78228,0.7812 10.74257,-1.3671 3.90599,-9.57077 -1.26999,-0.9765 63.87056,-10.35304 z m 109.27396,42.50089 2.2098,10.08221 -7.04374,1.1049 -3.03847,6.90562 -1.24301,0.13812 -1.79547,4.97205 -1.24301,0 -5.5245,13.94936 -3.59092,-4.69583 -1.65735,0.41434 4.1833,-10.9152 -2.14831,-3.12479 4.8825,-10.15667 -4.4919,-4.88357 20.50108,-3.79054 z"
       id="path3348"
       inkscape:connector-curvature="0" />
  </g>
  <g
     inkscape:groupmode="layer"
     id="layer3"
     inkscape:label="Label"
     transform="translate(-497.78875,-393.46341)">
    <g
       id="g4139"
       transform="translate(34.36399,152.49402)">
      <g
         style="font-style:normal;font-variant:normal;font-weight:bold;font-stretch:normal;font-size:125px;line-height:125%;font-family:Overpass;-inkscape-font-specification:'Overpass, Bold';text-align:start;letter-spacing:0px;word-spacing:0px;writing-mode:lr-tb;text-anchor:start;fill:#dddddd;fill-opacity:1;stroke:#222222;stroke-width:0.25;stroke-linecap:butt;stroke-linejoin:miter;stroke-miterlimit:4;stroke-dasharray:none;stroke-opacity:1"
         id="text4160">
        <path
           d="m 948.48541,654.46063 0,71.22803 -16.8457,0 0,-71.22803 -25.02441,0 0,-16.29638 66.89453,0 0,16.29638 -25.02442,0 z"
           style=""
           id="path4146" />
        <path
           d="m 1042.1133,725.68866 -18.4936,-29.35791 -18.4937,29.35791 -19.77535,0 28.38135,-45.10498 -26.61133,-42.41943 19.77543,0 16.7236,26.79443 16.7847,-26.79443 19.7143,0 -26.6113,42.41943 28.3813,45.10498 -19.7754,0 z"
           style=""
           id="path4148" />
        <path
           d="m 1079.4669,725.68866 0,-87.52441 16.9067,0 0,71.28906 42.2363,0 0,16.23535 -59.143,0 z"
           style=""
           id="path4150" />
      </g>
      <g
         style="font-style:normal;font-variant:normal;font-weight:normal;font-stretch:normal;font-size:45px;line-height:125%;font-family:Overpass;-inkscape-font-specification:'Overpass, Normal';text-align:start;letter-spacing:0px;word-spacing:0px;writing-mode:lr-tb;text-anchor:start;fill:#222222;fill-opacity:1;stroke:none;stroke-width:1px;stroke-linecap:butt;stroke-linejoin:miter;stroke-opacity:1"
         id="text4164">
        <path
           d="m 895.51959,741.80255 11.93115,0 q 2.8125,0 4.72413,0.7251 1.91162,0.70312 3.07617,1.88965 1.16455,1.16455 1.64795,2.68066 0.50537,1.51611 0.50537,3.12012 0,1.97754 -1.07666,3.73535 -1.07666,1.73584 -3.25196,2.79053 1.47217,0.52734 2.50489,1.34033 1.03271,0.79102 1.69189,1.75781 0.65918,0.9668 0.94483,2.06543 0.30761,1.07666 0.30761,2.17529 0,1.60401 -0.54931,3.25196 -0.52735,1.64795 -1.75782,2.98828 -1.23046,1.31836 -3.22998,2.15332 -1.97754,0.83496 -4.85595,0.83496 l -12.61231,0 0,-31.50879 z m 12.96387,27.18018 q 1.56006,0 2.5708,-0.41748 1.03272,-0.41748 1.62598,-1.07666 0.59326,-0.68116 0.83496,-1.51612 0.2417,-0.83496 0.2417,-1.66992 0,-0.98877 -0.28565,-1.91162 -0.28564,-0.94482 -1.03271,-1.64795 -0.74707,-0.7251 -2.04346,-1.16455 -1.27441,-0.43945 -3.25195,-0.43945 l -6.94336,0 0,9.84375 8.28369,0 z m -1.80176,-14.17237 q 1.47217,0 2.59278,-0.30761 1.1206,-0.32959 1.86767,-0.90088 0.74707,-0.59326 1.12061,-1.38428 0.37353,-0.79102 0.37353,-1.75781 0,-0.76905 -0.19775,-1.53809 -0.19776,-0.76904 -0.76905,-1.38428 -0.54931,-0.6372 -1.53808,-1.01074 -0.9668,-0.39551 -2.54883,-0.39551 l -7.38281,0 0,8.6792 6.48193,0 z"
           style=""
           id="path4153" />
        <path
           d="m 934.14752,773.86066 q -2.39502,0 -4.32861,-0.81299 -1.9336,-0.83496 -3.2959,-2.37305 -1.3623,-1.56006 -2.10937,-3.80127 -0.7251,-2.24121 -0.7251,-5.07568 0,-2.83447 0.74707,-5.05371 0.74707,-2.24121 2.10937,-3.7793 1.38428,-1.56006 3.2959,-2.37305 1.9336,-0.81298 4.30664,-0.81298 2.04346,0 3.82324,0.65918 1.80176,0.6372 3.14209,1.97753 1.36231,1.31836 2.13135,3.33985 0.79102,2.02148 0.79102,4.76806 0,0.74707 -0.0439,1.58204 -0.022,0.83496 -0.13183,1.45019 l -15.49073,0 q 0.022,1.42822 0.50537,2.5708 0.50538,1.12061 1.31836,1.9336 0.81299,0.79101 1.84571,1.23046 1.03271,0.41748 2.15332,0.41748 1.42822,0 2.63672,-0.59326 1.23046,-0.59326 2.13134,-1.73584 l 3.0542,3.14209 q -1.25244,1.49414 -3.208,2.417 -1.95557,0.92285 -4.65821,0.92285 z m 0,-19.95118 q -1.09863,0 -2.10937,0.32959 -1.01075,0.30762 -1.80176,1.01075 -0.76904,0.68115 -1.27441,1.80175 -0.50538,1.12061 -0.59327,2.72461 l 10.98633,0 q -0.0439,-1.604 -0.50537,-2.72461 -0.46143,-1.1206 -1.2085,-1.80175 -0.74707,-0.70313 -1.66992,-1.01075 -0.90088,-0.32959 -1.82373,-0.32959 z"
           style=""
           id="path4155" />
        <path
           d="m 949.44049,773.31134 0,-23.00537 4.68018,0 0,2.79053 q 0.81298,-1.75782 2.10937,-2.52686 1.29639,-0.79101 3.01026,-0.79101 2.28515,0 3.86718,1.38427 l -0.68115,4.32862 q -0.63721,-0.43946 -1.51611,-0.76905 -0.85694,-0.35156 -2.10938,-0.35156 -0.79101,0 -1.62597,0.28565 -0.81299,0.26367 -1.49414,0.96679 -0.68116,0.68115 -1.12061,1.84571 -0.43945,1.14257 -0.43945,2.92236 l 0,12.91992 -4.68018,0 z"
           style=""
           id="path4157" />
        <path
           d="m 967.85358,773.31134 0,-30.27832 4.68017,-2.21924 0,32.49756 -4.68017,0 z"
           style=""
           id="path4159" />
        <path
           d="m 979.54303,773.31134 0,-23.00537 4.68018,0 0,23.00537 -4.68018,0 z m 2.3291,-26.58691 q -0.59326,0 -1.1206,-0.21973 -0.50538,-0.21973 -0.90088,-0.59326 -0.37354,-0.39551 -0.59326,-0.90088 -0.21973,-0.52734 -0.21973,-1.12061 0,-0.59326 0.21973,-1.09863 0.21972,-0.52734 0.59326,-0.90088 0.3955,-0.39551 0.90088,-0.61523 0.52734,-0.21973 1.1206,-0.21973 0.59326,0 1.09863,0.21973 0.52735,0.21972 0.90088,0.61523 0.39551,0.37354 0.61524,0.90088 0.21972,0.50537 0.21972,1.09863 0,0.59327 -0.21972,1.12061 -0.21973,0.50537 -0.61524,0.90088 -0.37353,0.37353 -0.90088,0.59326 -0.50537,0.21973 -1.09863,0.21973 z"
           style=""
           id="path4161" />
        <path
           d="m 1005.2291,773.31134 0,-13.73291 q 0,-1.4502 -0.3516,-2.46094 -0.3516,-1.03271 -0.9668,-1.66992 -0.6152,-0.65918 -1.4502,-0.94482 -0.835,-0.30762 -1.8237,-0.30762 -1.05471,0 -1.95559,0.28564 -0.90088,0.26368 -1.56006,0.87891 -0.65917,0.61523 -1.05468,1.64795 -0.37354,1.01074 -0.37354,2.48291 l 0,13.8208 -4.68017,0 0,-23.00537 4.68017,0 0,2.21924 q 1.12061,-1.42823 2.5708,-2.0874 1.4502,-0.65918 3.36177,-0.65918 1.8018,0 3.3179,0.52734 1.5161,0.50537 2.6148,1.66992 1.1206,1.16455 1.7358,3.03223 0.6152,1.86767 0.6152,4.57031 l 0,13.73291 -4.6801,0 z"
           style=""
           id="path4163" />
        <path
           d="m 1015.2706,762.4129 0,-4.04297 17.7758,0 0,4.04297 -17.7758,0 z"
           style=""
           id="path4165" />
        <path
           d="m 1048.7789,746.30695 0,27.00439 -4.6802,0 0,-27.00439 -8.9209,0 0,-4.5044 22.5,0 0,4.5044 -8.8989,0 z"
           style=""
           id="path4167" />
        <path
           d="m 1068.6202,773.86066 q -2.395,0 -4.3286,-0.81299 -1.9336,-0.83496 -3.2959,-2.37305 -1.3623,-1.56006 -2.1094,-3.80127 -0.7251,-2.24121 -0.7251,-5.07568 0,-2.83447 0.7471,-5.05371 0.747,-2.24121 2.1093,-3.7793 1.3843,-1.56006 3.2959,-2.37305 1.9336,-0.81298 4.3067,-0.81298 2.0434,0 3.8232,0.65918 1.8018,0.6372 3.1421,1.97753 1.3623,1.31836 2.1314,3.33985 0.791,2.02148 0.791,4.76806 0,0.74707 -0.044,1.58204 -0.022,0.83496 -0.1318,1.45019 l -15.4907,0 q 0.022,1.42822 0.5053,2.5708 0.5054,1.12061 1.3184,1.9336 0.813,0.79101 1.8457,1.23046 1.0327,0.41748 2.1533,0.41748 1.4282,0 2.6367,-0.59326 1.2305,-0.59326 2.1314,-1.73584 l 3.0542,3.14209 q -1.2525,1.49414 -3.208,2.417 -1.9556,0.92285 -4.6582,0.92285 z m 0,-19.95118 q -1.0987,0 -2.1094,0.32959 -1.0107,0.30762 -1.8018,1.01075 -0.769,0.68115 -1.2744,1.80175 -0.5053,1.12061 -0.5932,2.72461 l 10.9863,0 q -0.044,-1.604 -0.5054,-2.72461 -0.4614,-1.1206 -1.2085,-1.80175 -0.747,-0.70313 -1.6699,-1.01075 -0.9009,-0.32959 -1.8237,-0.32959 z"
           style=""
           id="path4169" />
        <path
           d="m 1089.2525,778.71661 q 2.5269,-0.1538 4.1748,-0.59326 1.648,-0.43945 2.6148,-1.1206 0.9668,-0.65918 1.3403,-1.56006 0.3735,-0.90088 0.3735,-1.95557 l 0,-2.02148 q -1.9116,2.39502 -5.5371,2.39502 -1.9775,0 -3.6914,-0.74707 -1.7139,-0.76905 -3.0102,-2.28516 -1.2745,-1.51611 -2.0215,-3.75732 -0.7251,-2.26319 -0.7251,-5.27344 0,-2.83447 0.7031,-5.05371 0.7031,-2.24121 1.9556,-3.7793 1.2744,-1.56006 3.0322,-2.37305 1.7578,-0.81298 3.8672,-0.81298 1.0107,0 1.8457,0.19775 0.8349,0.17578 1.4941,0.4834 0.6812,0.30762 1.1865,0.70312 0.5274,0.37354 0.9009,0.76905 l 0,-1.62598 4.6802,0 0,21.24756 q 0,2.63672 -0.5273,4.48242 -0.5274,1.8457 -1.8018,3.16406 -0.8569,0.87891 -1.8897,1.42822 -1.0107,0.57129 -2.1313,0.92286 -1.0986,0.35156 -2.2412,0.50537 -1.1426,0.17578 -2.2412,0.26367 l -2.3511,-3.60352 z m 3.8232,-9.27246 q 1.4283,0 2.6587,-0.70312 1.2525,-0.70313 2.0215,-1.99951 l 0,-9.95362 q -0.3515,-0.57129 -0.8789,-1.03271 -0.5054,-0.4834 -1.1206,-0.83496 -0.5933,-0.35157 -1.2964,-0.52735 -0.6811,-0.19775 -1.3843,-0.19775 -2.7465,0 -4.1967,1.95557 -1.4283,1.93359 -1.4283,5.64697 0,1.75781 0.3956,3.18603 0.3955,1.40625 1.1206,2.39502 0.7251,0.98877 1.7578,1.53809 1.0547,0.52734 2.351,0.52734 z"
           style=""
           id="path4171" />
        <path
           d="m 1118.5421,773.86066 q -2.3951,0 -4.3287,-0.81299 -1.9336,-0.83496 -3.2959,-2.37305 -1.3623,-1.56006 -2.1093,-3.80127 -0.7251,-2.24121 -0.7251,-5.07568 0,-2.83447 0.747,-5.05371 0.7471,-2.24121 2.1094,-3.7793 1.3843,-1.56006 3.2959,-2.37305 1.9336,-0.81298 4.3067,-0.81298 2.0434,0 3.8232,0.65918 1.8018,0.6372 3.1421,1.97753 1.3623,1.31836 2.1313,3.33985 0.791,2.02148 0.791,4.76806 0,0.74707 -0.044,1.58204 -0.022,0.83496 -0.1318,1.45019 l -15.4908,0 q 0.022,1.42822 0.5054,2.5708 0.5054,1.12061 1.3184,1.9336 0.813,0.79101 1.8457,1.23046 1.0327,0.41748 2.1533,0.41748 1.4282,0 2.6367,-0.59326 1.2305,-0.59326 2.1314,-1.73584 l 3.0542,3.14209 q -1.2525,1.49414 -3.208,2.417 -1.9556,0.92285 -4.6582,0.92285 z m 0,-19.95118 q -1.0987,0 -2.1094,0.32959 -1.0108,0.30762 -1.8018,1.01075 -0.769,0.68115 -1.2744,1.80175 -0.5054,1.12061 -0.5933,2.72461 l 10.9864,0 q -0.044,-1.604 -0.5054,-2.72461 -0.4614,-1.1206 -1.2085,-1.80175 -0.7471,-0.70313 -1.6699,-1.01075 -0.9009,-0.32959 -1.8237,-0.32959 z"
           style=""
           id="path4173" />
        <path
           d="m 1134.0547,773.31134 0,-30.27832 4.6802,-2.21924 0,32.49756 -4.6802,0 z"
           style=""
           id="path4175" />
      </g>
    </g>
  </g>
</svg>
