<?xml version="1.0" encoding="UTF-8" standalone="no"?>
<!-- Created with Inkscape (http://www.inkscape.org/) -->

<svg
   xmlns:dc="http://purl.org/dc/elements/1.1/"
   xmlns:cc="http://creativecommons.org/ns#"
   xmlns:rdf="http://www.w3.org/1999/02/22-rdf-syntax-ns#"
   xmlns:svg="http://www.w3.org/2000/svg"
   xmlns="http://www.w3.org/2000/svg"
   xmlns:sodipodi="http://sodipodi.sourceforge.net/DTD/sodipodi-0.dtd"
   xmlns:inkscape="http://www.inkscape.org/namespaces/inkscape"
   width="463.3439"
   height="287.81207"
   viewBox="0 0 463.3439 287.81207"
   id="svg2"
   version="1.1"
   inkscape:version="0.91 r13725"
   sodipodi:docname="VPS.svg"
   inkscape:export-filename="C:\Users\paulb\Dropbox\Projects\Terminal Silhouettes\Silhouettes\png\VPS.png"
   inkscape:export-xdpi="90"
   inkscape:export-ydpi="90">
  <defs
     id="defs4" />
  <sodipodi:namedview
     id="base"
     pagecolor="#ffffff"
     bordercolor="#666666"
     borderopacity="1.0"
     inkscape:pageopacity="1"
     inkscape:pageshadow="2"
     inkscape:zoom="1"
     inkscape:cx="204.6339"
     inkscape:cy="118.73804"
     inkscape:document-units="px"
     inkscape:current-layer="layer3"
     showgrid="false"
     units="px"
     fit-margin-top="25"
     fit-margin-left="25"
     fit-margin-right="25"
     fit-margin-bottom="25"
     inkscape:window-width="1920"
     inkscape:window-height="1137"
     inkscape:window-x="1912"
     inkscape:window-y="-8"
     inkscape:window-maximized="1"
     showguides="true"
     inkscape:guide-bbox="true" />
  <metadata
     id="metadata7">
    <rdf:RDF>
      <cc:Work
         rdf:about="">
        <dc:format>image/svg+xml</dc:format>
        <dc:type
           rdf:resource="http://purl.org/dc/dcmitype/StillImage" />
        <dc:title></dc:title>
      </cc:Work>
    </rdf:RDF>
  </metadata>
  <g
     inkscape:groupmode="layer"
     id="layer2"
     inkscape:label="Terminal"
     transform="translate(-340.78864,-464.38293)">
    <path
       style="fill:#dddddd;fill-opacity:1;stroke:#222222;stroke-width:1.5;stroke-linejoin:miter;stroke-miterlimit:4;stroke-dasharray:none;stroke-dashoffset:0;stroke-opacity:1"
       d="m 723.59779,510.40616 a 3.8095044,3.8095044 0 0 0 -3.64379,2.70147 l -16.23587,-0.60881 -0.10549,1.44522 -20.50343,-0.71805 a 3.8095044,3.8095044 0 0 0 -3.66205,-2.7646 3.8095044,3.8095044 0 0 0 -3.5765,2.51128 l -12.37324,-0.43316 -0.32974,11.13193 -4.8772,-0.0573 -0.21513,5.15503 4.91209,0.10466 -1.25502,37.05327 40.30792,1.49048 0.27908,-5.91668 8.06001,0.25956 -0.27119,9.69792 -2.52374,-0.10756 -0.10756,3.06071 0.40408,0.0204 -0.55898,14.95969 1.50294,0.11296 -0.0619,1.7679 -1.51126,0 -0.54403,14.55352 1.54115,0.16238 -0.071,2.03411 -1.54821,-0.10507 -0.53989,14.44846 1.58352,0.10257 -0.0395,1.13168 6.77011,0.26703 -1.50378,49.831 -3.27541,-0.21512 -0.16113,4.9939 -8.10818,-0.32227 -0.85925,27.00983 17.29031,0.96638 1.82605,-46.7163 12.99451,0.42941 3.76048,-97.24625 34.97057,1.12628 0.79654,-27.49074 5.79292,0.32186 0.4294,-12.13528 -5.87057,-0.32144 0.22426,-7.73524 -13.35666,-0.46762 a 3.8095044,3.8095044 0 0 0 -3.65707,-2.74924 3.8095044,3.8095044 0 0 0 -3.57068,2.49632 l -9.85366,-0.34511 0.10756,-1.34887 -15.06974,-0.56521 a 3.8095044,3.8095044 0 0 0 -3.71271,-2.97723 z"
       id="path4148"
       inkscape:connector-curvature="0" />
  </g>
  <g
     inkscape:groupmode="layer"
     id="layer3"
     inkscape:label="Label"
     transform="translate(-340.78864,-464.38293)">
    <g
       id="g4254"
       transform="translate(207,-13)">
      <g
         style="font-style:normal;font-variant:normal;font-weight:bold;font-stretch:normal;font-size:125px;line-height:125%;font-family:Overpass;-inkscape-font-specification:'Overpass, Bold';text-align:start;letter-spacing:0px;word-spacing:0px;writing-mode:lr-tb;text-anchor:start;fill:#dddddd;fill-opacity:1;stroke:#222222;stroke-width:0.25;stroke-linecap:butt;stroke-linejoin:miter;stroke-miterlimit:4;stroke-dasharray:none;stroke-opacity:1"
         id="text4196">
        <path
           d="m 206.15485,591.49719 -16.23536,0 -31.00585,-87.52441 18.24951,0 19.22607,57.25097 q 0.48828,1.40381 0.91553,3.05176 0.48828,1.58692 0.85449,2.99073 0.30518,-1.34278 0.73242,-2.92969 0.42725,-1.58692 0.91553,-3.1128 l 19.22607,-57.25097 18.00538,0 -30.88379,87.52441 z"
           style=""
           id="path4263" />
        <path
           d="m 253.27399,591.49719 0,-87.52441 37.53662,0 q 8.30078,0 13.97705,2.4414 5.67627,2.38038 9.21631,6.34766 3.54004,3.90625 5.06592,8.8501 1.58691,4.94385 1.58691,10.00976 0,3.17383 -0.73242,6.46973 -0.73242,3.23486 -2.2583,6.34766 -1.52588,3.05175 -3.90625,5.7373 -2.38037,2.68555 -5.73731,4.76074 -3.2959,2.01416 -7.62939,3.17383 -4.27246,1.15967 -9.58252,1.15967 l -20.62988,0 0,32.22656 -16.90674,0 z m 38.26904,-48.27881 q 3.23486,0 5.43213,-1.03759 2.19726,-1.0376 3.54004,-2.68555 1.40381,-1.64795 2.01416,-3.72315 0.61035,-2.07519 0.61035,-4.15039 0,-1.89209 -0.54932,-3.90625 -0.48828,-2.07519 -1.83105,-3.78418 -1.28174,-1.70898 -3.54004,-2.80761 -2.2583,-1.09864 -5.67627,-1.09864 l -21.3623,0 0,23.19336 21.3623,0 z"
           style=""
           id="path4265" />
        <path
           d="m 379.00641,527.77649 q -0.79346,-1.95313 -2.13623,-3.66211 -1.34278,-1.70898 -3.23487,-2.92969 -1.83105,-1.28174 -4.27246,-1.95312 -2.38037,-0.73242 -5.31005,-0.73242 -5.49317,0 -8.60596,2.19726 -3.05176,2.19727 -3.05176,6.16455 0,2.62451 1.95313,4.39453 1.95312,1.77002 5.12695,3.23487 3.17383,1.40381 7.20215,2.68554 4.08935,1.28174 8.36181,2.86866 4.27246,1.52587 8.30078,3.66211 4.08936,2.07519 7.26319,5.18798 3.17383,3.05176 5.12695,7.32422 1.95313,4.21143 1.95313,10.13184 0,6.40869 -2.44141,11.35254 -2.44141,4.94384 -6.71387,8.36181 -4.21142,3.41797 -10.00976,5.18799 -5.79834,1.77002 -12.51221,1.77002 -6.16455,0 -11.53564,-1.64795 -5.3711,-1.70898 -9.76563,-4.82178 -4.3335,-3.11279 -7.56836,-7.56835 -3.23486,-4.45557 -5.12695,-10.00977 l 15.38086,-5.7373 q 1.40381,3.05175 3.35693,5.61523 2.01416,2.50244 4.45557,4.3335 2.4414,1.77002 5.24902,2.80761 2.86865,0.97657 6.10352,0.97657 3.17382,0 5.7373,-0.67139 2.62451,-0.67139 4.45557,-2.01416 1.89209,-1.34278 2.86865,-3.2959 1.0376,-2.01416 1.0376,-4.63867 0,-3.17383 -1.95313,-5.31006 -1.95312,-2.19727 -5.12695,-3.78418 -3.17383,-1.64795 -7.26318,-2.92969 -4.02832,-1.34277 -8.30079,-2.80761 -4.21142,-1.46485 -8.30078,-3.41797 -4.02832,-1.95313 -7.20214,-4.82178 -3.17383,-2.86865 -5.12696,-6.89697 -1.95312,-4.02832 -1.95312,-9.76563 0,-4.94385 1.95312,-9.27734 2.01416,-4.39453 5.79834,-7.69043 3.78418,-3.2959 9.27735,-5.18799 5.49316,-1.95313 12.57324,-1.95313 5.92041,0 10.68115,1.52588 4.82178,1.52588 8.48389,4.27246 3.66211,2.68555 6.16455,6.4087 2.50244,3.66211 3.78418,8.05664 l -15.13672,5.00488 z"
           style=""
           id="path4267" />
      </g>
      <g
         style="font-style:normal;font-variant:normal;font-weight:normal;font-stretch:normal;font-size:45px;line-height:110.00000238%;font-family:Overpass;-inkscape-font-specification:'Overpass, Normal';text-align:center;letter-spacing:0px;word-spacing:0px;writing-mode:lr-tb;text-anchor:middle;fill:#222222;fill-opacity:1;stroke:none;stroke-width:1px;stroke-linecap:butt;stroke-linejoin:miter;stroke-opacity:1"
         id="text4200">
        <path
           d="m 205.37115,609.1369 8.83301,0 q 2.74658,0 4.92188,0.63721 2.17529,0.61523 3.84521,1.71387 1.66992,1.09863 2.85645,2.61474 1.18652,1.49414 1.93359,3.25196 0.76904,1.73584 1.12061,3.66943 0.35156,1.93359 0.35156,3.86719 0,1.80175 -0.32959,3.6914 -0.30762,1.86768 -1.05469,3.62549 -0.7251,1.73584 -1.88965,3.27393 -1.16455,1.53808 -2.85644,2.70263 -1.6919,1.14258 -3.95508,1.80176 -2.24121,0.65918 -5.11963,0.65918 l -8.65723,0 0,-31.50879 z m 9.4043,27.09229 q 1.80176,0 3.20801,-0.46143 1.42822,-0.4834 2.48291,-1.29639 1.07666,-0.81298 1.80176,-1.91162 0.74707,-1.09863 1.20849,-2.35107 0.4834,-1.27441 0.68116,-2.61475 0.21972,-1.3623 0.21972,-2.70263 0,-2.13135 -0.52734,-4.15284 -0.50537,-2.04345 -1.60401,-3.62548 -1.09863,-1.60401 -2.83447,-2.5708 -1.71387,-0.98877 -4.13086,-0.98877 l -5.22949,0 0,22.67578 4.72412,0 z"
           style=""
           id="path4270" />
        <path
           d="m 244.87799,641.19501 q -2.39502,0 -4.32861,-0.81299 -1.9336,-0.83496 -3.2959,-2.37305 -1.36231,-1.56006 -2.10938,-3.80127 -0.72509,-2.24121 -0.72509,-5.07568 0,-2.83447 0.74707,-5.05371 0.74707,-2.24121 2.10937,-3.7793 1.38428,-1.56006 3.2959,-2.37305 1.93359,-0.81298 4.30664,-0.81298 2.04346,0 3.82324,0.65918 1.80176,0.6372 3.14209,1.97753 1.36231,1.31836 2.13135,3.33985 0.79102,2.02148 0.79102,4.76806 0,0.74708 -0.0439,1.58204 -0.022,0.83496 -0.13184,1.45019 l -15.49072,0 q 0.022,1.42822 0.50537,2.5708 0.50537,1.12061 1.31836,1.9336 0.81299,0.79101 1.84571,1.23046 1.03271,0.41749 2.15332,0.41749 1.42822,0 2.63671,-0.59327 1.23047,-0.59326 2.13135,-1.73584 l 3.0542,3.14209 q -1.25244,1.49414 -3.20801,2.417 -1.95556,0.92285 -4.6582,0.92285 z m 0,-19.95117 q -1.09863,0 -2.10937,0.32959 -1.01075,0.30761 -1.80176,1.01074 -0.76905,0.68115 -1.27442,1.80176 -0.50537,1.1206 -0.59326,2.7246 l 10.98633,0 q -0.0439,-1.604 -0.50537,-2.7246 -0.46143,-1.12061 -1.2085,-1.80176 -0.74707,-0.70313 -1.66992,-1.01074 -0.90088,-0.32959 -1.82373,-0.32959 z"
           style=""
           id="path4272" />
        <path
           d="m 267.26813,641.19501 q -1.36231,0 -2.65869,-0.26367 -1.29639,-0.26368 -2.43897,-0.74707 -1.1206,-0.4834 -2.04346,-1.16456 -0.92285,-0.70312 -1.53808,-1.56005 l 3.31787,-2.83448 q 0.35156,0.32959 0.85693,0.74707 0.50537,0.39551 1.16455,0.74707 0.65918,0.35157 1.47217,0.59327 0.81299,0.24169 1.77979,0.24169 0.8789,0 1.62597,-0.13183 0.74707,-0.13184 1.27442,-0.41748 0.54931,-0.28565 0.83496,-0.74707 0.30762,-0.4834 0.30762,-1.18653 0,-0.81298 -0.57129,-1.38427 -0.54932,-0.59326 -1.4502,-1.05469 -0.90088,-0.4834 -2.04346,-0.90088 -1.14257,-0.43945 -2.30712,-0.92285 -1.07666,-0.46143 -2.10938,-1.01074 -1.03271,-0.54932 -1.8457,-1.31836 -0.79102,-0.76905 -1.29639,-1.82373 -0.4834,-1.07666 -0.4834,-2.59278 0,-1.53808 0.61524,-2.72461 0.6372,-1.18652 1.71386,-1.97753 1.09864,-0.81299 2.54883,-1.23047 1.47217,-0.41748 3.14209,-0.41748 1.47217,0 2.70264,0.28564 1.25244,0.28565 2.24121,0.76904 1.01074,0.4834 1.77978,1.12061 0.76905,0.61523 1.34034,1.29639 l -3.38379,2.68066 q -0.30762,-0.30762 -0.74707,-0.63721 -0.41748,-0.35156 -0.98877,-0.6372 -0.57129,-0.28565 -1.29639,-0.46143 -0.7251,-0.19775 -1.64795,-0.19775 -1.49414,0 -2.37305,0.54931 -0.85693,0.54932 -0.85693,1.58203 0,0.65918 0.46143,1.16455 0.46142,0.4834 1.25244,0.90088 0.79101,0.41748 1.80176,0.81299 1.03271,0.37354 2.15332,0.81299 1.18652,0.46143 2.3291,1.03271 1.14258,0.57129 2.02148,1.40625 0.90088,0.83497 1.42822,2.02149 0.54932,1.18652 0.54932,2.85644 0,1.64795 -0.61523,2.92237 -0.61524,1.25244 -1.75782,2.10937 -1.1206,0.83496 -2.7246,1.25244 -1.58204,0.43946 -3.5376,0.43946 z"
           style=""
           id="path4274" />
        <path
           d="m 288.1861,641.19501 q -1.36231,0 -2.35108,-0.41748 -0.96679,-0.39551 -1.604,-1.14258 -0.61524,-0.74707 -0.90088,-1.80176 -0.28565,-1.07666 -0.28565,-2.37305 l 0,-13.75488 -3.55957,0 0,-4.06494 3.55957,0 0,-7.229 4.68018,-2.26319 0,9.49219 5.44922,0 0,4.06494 -5.44922,0 0,12.54639 q 0,0.57129 0.0879,1.05469 0.10986,0.48339 0.35156,0.83496 0.26368,0.35156 0.70313,0.54931 0.43945,0.17578 1.1206,0.17578 1.66993,0 3.40577,-1.07666 l -0.57129,4.35059 q -0.9668,0.4834 -2.10938,0.76904 -1.14258,0.28565 -2.52685,0.28565 z"
           style=""
           id="path4276" />
        <path
           d="m 298.62311,640.64569 0,-23.00537 4.68017,0 0,23.00537 -4.68017,0 z m 2.3291,-26.58691 q -0.59326,0 -1.12061,-0.21973 -0.50537,-0.21973 -0.90087,-0.59326 -0.37354,-0.39551 -0.59327,-0.90088 -0.21972,-0.52734 -0.21972,-1.12061 0,-0.59326 0.21972,-1.09863 0.21973,-0.52734 0.59327,-0.90088 0.3955,-0.39551 0.90087,-0.61523 0.52735,-0.21973 1.12061,-0.21973 0.59326,0 1.09863,0.21973 0.52735,0.21972 0.90088,0.61523 0.39551,0.37354 0.61524,0.90088 0.21972,0.50537 0.21972,1.09863 0,0.59327 -0.21972,1.12061 -0.21973,0.50537 -0.61524,0.90088 -0.37353,0.37353 -0.90088,0.59326 -0.50537,0.21973 -1.09863,0.21973 z"
           style=""
           id="path4278" />
        <path
           d="m 324.30914,640.64569 0,-13.73291 q 0,-1.45019 -0.35156,-2.46094 -0.35156,-1.03271 -0.9668,-1.66992 -0.61523,-0.65918 -1.45019,-0.94482 -0.83496,-0.30762 -1.82373,-0.30762 -1.05469,0 -1.95557,0.28564 -0.90088,0.26368 -1.56006,0.87891 -0.65918,0.61524 -1.05468,1.64795 -0.37354,1.01074 -0.37354,2.48291 l 0,13.8208 -4.68018,0 0,-23.00537 4.68018,0 0,2.21924 q 1.12061,-1.42822 2.5708,-2.0874 1.4502,-0.65918 3.36182,-0.65918 1.80176,0 3.31787,0.52734 1.51611,0.50537 2.61474,1.66992 1.12061,1.16455 1.73584,3.03223 0.61524,1.86767 0.61524,4.57031 l 0,13.73291 -4.68018,0 z"
           style=""
           id="path4280" />
        <path
           d="m 331.42828,646.49042 17.68799,-37.88086 4.72412,0 -17.68799,37.88086 -4.72412,0 z"
           style=""
           id="path4282" />
        <path
           d="m 164.50201,690.14569 0,-31.50879 19.5337,0 0,4.41651 -14.85352,0 0,8.63525 9.60205,0 0,4.4165 -9.60205,0 0,14.04053 -4.68018,0 z"
           style=""
           id="path4284" />
        <path
           d="m 194.73639,690.69501 q -2.41699,0 -4.37256,-0.81299 -1.93359,-0.81299 -3.2959,-2.35107 -1.3623,-1.56006 -2.10937,-3.7793 -0.7251,-2.24121 -0.7251,-5.07568 0,-2.83448 0.7251,-5.07569 0.74707,-2.24121 2.10937,-3.7793 1.36231,-1.56005 3.2959,-2.37304 1.95557,-0.83496 4.37256,-0.83496 2.39502,0 4.35059,0.83496 1.95556,0.81299 3.31787,2.37304 1.3623,1.53809 2.10937,3.7793 0.74707,2.24121 0.74707,5.07569 0,2.83447 -0.74707,5.07568 -0.74707,2.21924 -2.10937,3.7793 -1.36231,1.53808 -3.31787,2.35107 -1.95557,0.81299 -4.35059,0.81299 z m 0,-4.41651 q 1.34033,0 2.41699,-0.52734 1.09863,-0.52734 1.8457,-1.49414 0.76905,-0.98877 1.16456,-2.39502 0.41748,-1.40625 0.41748,-3.18603 0,-1.77979 -0.41748,-3.18604 -0.39551,-1.42822 -1.16456,-2.41699 -0.74707,-0.98877 -1.8457,-1.51612 -1.07666,-0.52734 -2.41699,-0.52734 -1.34033,0 -2.41699,0.52734 -1.07666,0.52735 -1.84571,1.51612 -0.74707,0.98877 -1.16455,2.41699 -0.3955,1.40625 -0.3955,3.18604 0,1.77978 0.3955,3.18603 0.41748,1.40625 1.16455,2.39502 0.76905,0.9668 1.84571,1.49414 1.07666,0.52734 2.41699,0.52734 z"
           style=""
           id="path4286" />
        <path
           d="m 210.86432,690.14569 0,-23.00537 4.68017,0 0,2.79053 q 0.81299,-1.75781 2.10938,-2.52686 1.29639,-0.79101 3.01025,-0.79101 2.28516,0 3.86719,1.38427 l -0.68115,4.32862 q -0.63721,-0.43946 -1.51611,-0.76905 -0.85694,-0.35156 -2.10938,-0.35156 -0.79102,0 -1.62598,0.28565 -0.81298,0.26367 -1.49414,0.96679 -0.68115,0.68116 -1.1206,1.84571 -0.43946,1.14257 -0.43946,2.92236 l 0,12.91992 -4.68017,0 z"
           style=""
           id="path4288" />
        <path
           d="m 235.71539,690.69501 q -1.3623,0 -2.35107,-0.41748 -0.9668,-0.39551 -1.60401,-1.14258 -0.61523,-0.74707 -0.90087,-1.80176 -0.28565,-1.07666 -0.28565,-2.37304 l 0,-13.75489 -3.55957,0 0,-4.06494 3.55957,0 0,-7.229 4.68018,-2.26319 0,9.49219 5.44922,0 0,4.06494 -5.44922,0 0,12.54639 q 0,0.57129 0.0879,1.05469 0.10986,0.48339 0.35156,0.83496 0.26367,0.35156 0.70313,0.54931 0.43945,0.17579 1.1206,0.17579 1.66992,0 3.40576,-1.07667 l -0.57129,4.35059 q -0.96679,0.4834 -2.10937,0.76904 -1.14258,0.28565 -2.52686,0.28565 z"
           style=""
           id="path4290" />
        <path
           d="m 289.41656,658.6369 -6.81152,31.50879 -4.21875,0 -5.44922,-20.43457 q -0.32959,-1.25244 -0.52734,-2.02148 -0.17578,-0.79102 -0.2417,-1.38428 -0.0659,0.59326 -0.2417,1.38428 -0.17578,0.76904 -0.50537,2.02148 l -5.31738,20.43457 -4.24073,0 -6.7456,-31.50879 4.81201,0 3.91113,19.40186 q 0.28565,1.3623 0.43946,2.19726 0.17578,0.83496 0.2417,1.4502 0.0659,-0.61524 0.26367,-1.42822 0.21972,-0.83496 0.54931,-2.21924 l 4.94385,-19.40186 3.93311,0 5.07568,19.35791 q 0.37354,1.36231 0.54932,2.1753 0.19775,0.81298 0.26367,1.42822 0.0659,-0.61524 0.19775,-1.4502 0.15381,-0.83496 0.41748,-2.15332 l 3.97705,-19.35791 4.72412,0 z"
           style=""
           id="path4292" />
        <path
           d="m 312.42194,690.14569 -4.48243,0 0,-1.97754 q -0.43945,0.46143 -1.05468,0.92285 -0.61524,0.43946 -1.40625,0.81299 -0.76905,0.35157 -1.73584,0.57129 -0.9668,0.21973 -2.10938,0.21973 -1.75781,0 -3.25195,-0.4834 -1.49414,-0.4834 -2.59277,-1.4502 -1.09864,-0.98876 -1.73584,-2.41699 -0.61524,-1.45019 -0.61524,-3.36181 0,-1.97754 0.74707,-3.40577 0.74707,-1.45019 1.97754,-2.37304 1.23047,-0.94483 2.8125,-1.38428 1.604,-0.43945 3.2959,-0.43945 1.58203,0 3.03223,0.35156 1.47216,0.32959 2.63671,1.01074 l 0,-1.27441 q 0,-1.29639 -0.30761,-2.19727 -0.28565,-0.90088 -0.90088,-1.45019 -0.59326,-0.57129 -1.51612,-0.81299 -0.92285,-0.26367 -2.19726,-0.26367 -2.15332,0 -3.73535,0.57129 -1.56006,0.57128 -2.83448,1.51611 l -1.38427,-3.84522 q 0.70312,-0.48339 1.604,-0.90087 0.90088,-0.43946 1.97754,-0.76905 1.07666,-0.32959 2.3291,-0.50537 1.25244,-0.19775 2.68067,-0.19775 0.96679,0 1.99951,0.10986 1.03271,0.10986 1.99951,0.43945 0.98877,0.30762 1.8457,0.90088 0.87891,0.59326 1.51612,1.56006 0.65918,0.94483 1.03271,2.3291 0.37354,1.38428 0.37354,3.2959 l 0,14.89746 z m -9.93164,-3.60351 q 1.77978,0 3.14209,-0.7251 1.38427,-0.7251 2.30712,-1.73584 l 0,-3.51563 q -0.96679,-0.50537 -2.26318,-0.81298 -1.29639,-0.30762 -2.65869,-0.30762 -1.05469,0 -1.97754,0.19775 -0.92285,0.19776 -1.62598,0.63721 -0.68115,0.41748 -1.07666,1.09863 -0.3955,0.65918 -0.3955,1.60401 0,1.64795 1.14257,2.61474 1.16455,0.94483 3.40577,0.94483 z"
           style=""
           id="path4294" />
        <path
           d="m 319.01373,690.14569 0,-30.27832 4.68018,-2.21924 0,32.49756 -4.68018,0 z"
           style=""
           id="path4296" />
        <path
           d="m 337.31696,690.69501 q -1.36231,0 -2.35108,-0.41748 -0.9668,-0.39551 -1.604,-1.14258 -0.61524,-0.74707 -0.90088,-1.80176 -0.28565,-1.07666 -0.28565,-2.37304 l 0,-13.75489 -3.55957,0 0,-4.06494 3.55957,0 0,-7.229 4.68018,-2.26319 0,9.49219 5.44922,0 0,4.06494 -5.44922,0 0,12.54639 q 0,0.57129 0.0879,1.05469 0.10986,0.48339 0.35156,0.83496 0.26367,0.35156 0.70313,0.54931 0.43945,0.17579 1.1206,0.17579 1.66993,0 3.40577,-1.07667 l -0.57129,4.35059 q -0.9668,0.4834 -2.10938,0.76904 -1.14258,0.28565 -2.52685,0.28565 z"
           style=""
           id="path4298" />
        <path
           d="m 357.07037,690.69501 q -2.41699,0 -4.37256,-0.81299 -1.93359,-0.81299 -3.29589,-2.35107 -1.36231,-1.56006 -2.10938,-3.7793 -0.7251,-2.24121 -0.7251,-5.07568 0,-2.83448 0.7251,-5.07569 0.74707,-2.24121 2.10938,-3.7793 1.3623,-1.56005 3.29589,-2.37304 1.95557,-0.83496 4.37256,-0.83496 2.39502,0 4.35059,0.83496 1.95557,0.81299 3.31787,2.37304 1.36231,1.53809 2.10938,3.7793 0.74707,2.24121 0.74707,5.07569 0,2.83447 -0.74707,5.07568 -0.74707,2.21924 -2.10938,3.7793 -1.3623,1.53808 -3.31787,2.35107 -1.95557,0.81299 -4.35059,0.81299 z m 0,-4.41651 q 1.34034,0 2.417,-0.52734 1.09863,-0.52734 1.8457,-1.49414 0.76904,-0.98877 1.16455,-2.39502 0.41748,-1.40625 0.41748,-3.18603 0,-1.77979 -0.41748,-3.18604 -0.39551,-1.42822 -1.16455,-2.41699 -0.74707,-0.98877 -1.8457,-1.51612 -1.07666,-0.52734 -2.417,-0.52734 -1.34033,0 -2.41699,0.52734 -1.07666,0.52735 -1.8457,1.51612 -0.74707,0.98877 -1.16455,2.41699 -0.39551,1.40625 -0.39551,3.18604 0,1.77978 0.39551,3.18603 0.41748,1.40625 1.16455,2.39502 0.76904,0.9668 1.8457,1.49414 1.07666,0.52734 2.41699,0.52734 z"
           style=""
           id="path4300" />
        <path
           d="m 387.41461,690.14569 0,-13.73291 q 0,-1.45019 -0.35156,-2.46094 -0.35156,-1.03271 -0.9668,-1.66992 -0.61523,-0.65918 -1.45019,-0.94482 -0.83496,-0.30762 -1.82373,-0.30762 -1.05469,0 -1.95557,0.28565 -0.90088,0.26367 -1.56006,0.8789 -0.65918,0.61524 -1.05469,1.64795 -0.37353,1.01074 -0.37353,2.48291 l 0,13.8208 -4.68018,0 0,-23.00537 4.68018,0 0,2.21924 q 1.1206,-1.42822 2.5708,-2.0874 1.4502,-0.65918 3.36182,-0.65918 1.80175,0 3.31787,0.52734 1.51611,0.50537 2.61474,1.66992 1.12061,1.16455 1.73584,3.03223 0.61524,1.86768 0.61524,4.57031 l 0,13.73291 -4.68018,0 z"
           style=""
           id="path4302" />
        <path
           d="m 218.24713,708.1369 11.93115,0 q 2.8125,0 4.72412,0.7251 1.91163,0.70313 3.07618,1.88965 1.16455,1.16455 1.64795,2.68066 0.50537,1.51612 0.50537,3.12012 0,1.97754 -1.07666,3.73535 -1.07666,1.73584 -3.25196,2.79053 1.47217,0.52734 2.50489,1.34033 1.03271,0.79102 1.69189,1.75781 0.65918,0.9668 0.94483,2.06543 0.30761,1.07666 0.30761,2.1753 0,1.604 -0.54931,3.25195 -0.52735,1.64795 -1.75782,2.98828 -1.23047,1.31836 -3.22998,2.15332 -1.97754,0.83496 -4.85595,0.83496 l -12.61231,0 0,-31.50879 z m 12.96387,27.18018 q 1.56006,0 2.5708,-0.41748 1.03271,-0.41748 1.62598,-1.07666 0.59326,-0.68115 0.83496,-1.51611 0.2417,-0.83497 0.2417,-1.66993 0,-0.98877 -0.28565,-1.91162 -0.28564,-0.94482 -1.03271,-1.64795 -0.74707,-0.72509 -2.04346,-1.16455 -1.27441,-0.43945 -3.25195,-0.43945 l -6.94336,0 0,9.84375 8.28369,0 z m -1.80176,-14.17236 q 1.47217,0 2.59277,-0.30762 1.12061,-0.32959 1.86768,-0.90088 0.74707,-0.59326 1.12061,-1.38428 0.37353,-0.79101 0.37353,-1.75781 0,-0.76904 -0.19775,-1.53809 -0.19776,-0.76904 -0.76905,-1.38427 -0.54931,-0.63721 -1.53808,-1.01074 -0.9668,-0.39551 -2.54883,-0.39551 l -7.38281,0 0,8.6792 6.48193,0 z"
           style=""
           id="path4304" />
        <path
           d="m 256.87506,740.19501 q -2.39502,0 -4.32861,-0.81299 -1.9336,-0.83496 -3.2959,-2.37305 -1.36231,-1.56005 -2.10938,-3.80127 -0.72509,-2.24121 -0.72509,-5.07568 0,-2.83447 0.74707,-5.05371 0.74707,-2.24121 2.10937,-3.7793 1.38428,-1.56006 3.2959,-2.37304 1.93359,-0.81299 4.30664,-0.81299 2.04346,0 3.82324,0.65918 1.80176,0.6372 3.14209,1.97754 1.36231,1.31836 2.13135,3.33984 0.79102,2.02149 0.79102,4.76807 0,0.74707 -0.0439,1.58203 -0.022,0.83496 -0.13183,1.45019 l -15.49073,0 q 0.022,1.42823 0.50537,2.5708 0.50537,1.12061 1.31836,1.9336 0.81299,0.79101 1.84571,1.23047 1.03271,0.41748 2.15332,0.41748 1.42822,0 2.63672,-0.59326 1.23046,-0.59327 2.13134,-1.73584 l 3.0542,3.14209 q -1.25244,1.49414 -3.20801,2.41699 -1.95556,0.92285 -4.6582,0.92285 z m 0,-19.95117 q -1.09863,0 -2.10937,0.32959 -1.01075,0.30761 -1.80176,1.01074 -0.76904,0.68115 -1.27442,1.80176 -0.50537,1.1206 -0.59326,2.72461 l 10.98633,0 q -0.0439,-1.60401 -0.50537,-2.72461 -0.46143,-1.12061 -1.2085,-1.80176 -0.74707,-0.70313 -1.66992,-1.01074 -0.90088,-0.32959 -1.82373,-0.32959 z"
           style=""
           id="path4306" />
        <path
           d="m 289.7901,739.64569 -4.48242,0 0,-1.97754 q -0.43945,0.46143 -1.05469,0.92286 -0.61523,0.43945 -1.40625,0.81298 -0.76904,0.35157 -1.73584,0.57129 -0.9668,0.21973 -2.10937,0.21973 -1.75782,0 -3.25196,-0.4834 -1.49414,-0.4834 -2.59277,-1.45019 -1.09863,-0.98877 -1.73584,-2.417 -0.61523,-1.45019 -0.61523,-3.36181 0,-1.97754 0.74707,-3.40576 0.74707,-1.4502 1.97753,-2.37305 1.23047,-0.94483 2.8125,-1.38428 1.60401,-0.43945 3.2959,-0.43945 1.58203,0 3.03223,0.35156 1.47217,0.32959 2.63672,1.01074 l 0,-1.27441 q 0,-1.29639 -0.30762,-2.19727 -0.28564,-0.90088 -0.90088,-1.45019 -0.59326,-0.57129 -1.51611,-0.81299 -0.92285,-0.26367 -2.19727,-0.26367 -2.15332,0 -3.73535,0.57129 -1.56006,0.57129 -2.83447,1.51611 l -1.38428,-3.84521 q 0.70313,-0.4834 1.60401,-0.90088 0.90087,-0.43946 1.97753,-0.76905 1.07666,-0.32959 2.32911,-0.50537 1.25244,-0.19775 2.68066,-0.19775 0.9668,0 1.99951,0.10986 1.03272,0.10986 1.99951,0.43945 0.98877,0.30762 1.84571,0.90088 0.8789,0.59327 1.51611,1.56006 0.65918,0.94483 1.03271,2.3291 0.37354,1.38428 0.37354,3.2959 l 0,14.89746 z m -9.93164,-3.60351 q 1.77978,0 3.14209,-0.7251 1.38428,-0.7251 2.30713,-1.73584 l 0,-3.51563 q -0.9668,-0.50537 -2.26319,-0.81298 -1.29638,-0.30762 -2.65869,-0.30762 -1.05468,0 -1.97754,0.19775 -0.92285,0.19776 -1.62597,0.63721 -0.68115,0.41748 -1.07666,1.09863 -0.39551,0.65918 -0.39551,1.60401 0,1.64795 1.14258,2.61474 1.16455,0.94483 3.40576,0.94483 z"
           style=""
           id="path4308" />
        <path
           d="m 305.0611,740.19501 q -2.30713,0 -4.17481,-0.81299 -1.8457,-0.81299 -3.16406,-2.35107 -1.29639,-1.56006 -1.99951,-3.7793 -0.70313,-2.24121 -0.70313,-5.07568 0,-2.83448 0.70313,-5.07569 0.70312,-2.24121 1.99951,-3.77929 1.31836,-1.56006 3.16406,-2.37305 1.86768,-0.83496 4.17481,-0.83496 3.208,0 5.42724,1.42822 2.24121,1.42822 3.25196,4.5044 l -4.43848,1.53808 q -0.50537,-1.31836 -1.53809,-2.13135 -1.03271,-0.83496 -2.52685,-0.83496 -1.31836,0 -2.3291,0.52735 -1.01075,0.52734 -1.71387,1.51611 -0.68115,0.9668 -1.05469,2.37305 -0.35156,1.38427 -0.35156,3.14209 0,1.75781 0.35156,3.16406 0.37354,1.38428 1.03272,2.35107 0.68115,0.9668 1.64795,1.49414 0.98876,0.50537 2.24121,0.50537 1.58203,0 2.70263,-0.8789 1.14258,-0.87891 1.62598,-2.50488 l 4.43848,1.40625 q -0.92286,3.208 -3.14209,4.85595 -2.19727,1.62598 -5.625,1.62598 z"
           style=""
           id="path4310" />
        <path
           d="m 333.66949,739.64569 0,-13.73291 q 0,-1.45019 -0.35156,-2.46093 -0.35156,-1.03272 -0.96679,-1.66993 -0.61524,-0.65918 -1.4502,-0.94482 -0.83496,-0.30762 -1.82373,-0.30762 -1.05469,0 -1.95557,0.28565 -0.90088,0.26367 -1.56006,0.8789 -0.65918,0.61524 -1.05468,1.64795 -0.37354,1.01074 -0.37354,2.48291 l 0,13.8208 -4.68017,0 0,-30.32226 4.68017,-2.1753 0,11.71143 q 1.12061,-1.42822 2.5708,-2.0874 1.4502,-0.65918 3.36182,-0.65918 1.80176,0 3.31787,0.52734 1.51611,0.50537 2.61475,1.66992 1.1206,1.16455 1.73584,3.03223 0.61523,1.86768 0.61523,4.57031 l 0,13.73291 -4.68018,0 z"
           style=""
           id="path4312" />
      </g>
    </g>
  </g>
</svg>
