<?xml version="1.0" encoding="UTF-8" standalone="no"?>
<!-- Created with Inkscape (http://www.inkscape.org/) -->

<svg
   xmlns:dc="http://purl.org/dc/elements/1.1/"
   xmlns:cc="http://creativecommons.org/ns#"
   xmlns:rdf="http://www.w3.org/1999/02/22-rdf-syntax-ns#"
   xmlns:svg="http://www.w3.org/2000/svg"
   xmlns="http://www.w3.org/2000/svg"
   xmlns:sodipodi="http://sodipodi.sourceforge.net/DTD/sodipodi-0.dtd"
   xmlns:inkscape="http://www.inkscape.org/namespaces/inkscape"
   width="986.40564"
   height="1019.9014"
   viewBox="0 0 986.40565 1019.9014"
   id="svg2"
   version="1.1"
   inkscape:version="0.91 r13725"
   sodipodi:docname="YVR.svg"
   inkscape:export-filename="C:\Users\paulb\Dropbox\Projects\Terminal Silhouettes\Silhouettes\png\YVR.png"
   inkscape:export-xdpi="90"
   inkscape:export-ydpi="90">
  <sodipodi:namedview
     id="base"
     pagecolor="#ffffff"
     bordercolor="#666666"
     borderopacity="1.0"
     inkscape:pageopacity="1"
     inkscape:pageshadow="2"
     inkscape:zoom="0.35355339"
     inkscape:cx="-18.933792"
     inkscape:cy="593.6588"
     inkscape:document-units="px"
     inkscape:current-layer="layer5"
     showgrid="false"
     units="px"
     showguides="true"
     inkscape:guide-bbox="true"
     inkscape:window-width="1920"
     inkscape:window-height="1137"
     inkscape:window-x="1912"
     inkscape:window-y="-8"
     inkscape:window-maximized="1"
     inkscape:snap-object-midpoints="false"
     inkscape:object-nodes="false"
     inkscape:snap-smooth-nodes="false"
     fit-margin-top="25"
     fit-margin-left="25"
     fit-margin-right="25"
     fit-margin-bottom="25" />
  <title
     id="title4147">YVR</title>
  <defs
     id="defs4" />
  <metadata
     id="metadata7">
    <rdf:RDF>
      <cc:Work
         rdf:about="">
        <dc:format>image/svg+xml</dc:format>
        <dc:type
           rdf:resource="http://purl.org/dc/dcmitype/StillImage" />
        <dc:title>YVR</dc:title>
        <dc:creator>
          <cc:Agent>
            <dc:title>Paul Bogard</dc:title>
          </cc:Agent>
        </dc:creator>
        <dc:description>Terminal silhouette for YVR (Vancouver)</dc:description>
        <dc:subject>
          <rdf:Bag>
            <rdf:li>YVR</rdf:li>
          </rdf:Bag>
        </dc:subject>
        <dc:date>2017-11-18</dc:date>
      </cc:Work>
    </rdf:RDF>
  </metadata>
  <g
     style="display:inline"
     inkscape:label="Terminal"
     id="layer2"
     inkscape:groupmode="layer"
     transform="translate(1897.4147,-616.99527)">
    <path
       style="opacity:1;fill:#dddddd;fill-opacity:1;stroke:#222222;stroke-width:1.5;stroke-linejoin:miter;stroke-miterlimit:4;stroke-dasharray:none;stroke-dashoffset:0;stroke-opacity:1"
       d="m -1528.7401,643.49039 -3.4722,20.09046 -29.1949,-5.04622 -8.7068,50.37166 -9.4204,-1.62855 -3.534,20.44508 4.6216,0.79917 3.0136,-17.43597 4.7989,0.82937 -0.3071,1.77629 74.81,12.93132 5.158,4.29844 -18.9822,22.77707 3.6027,3.00204 18.9822,-22.77707 51.8088,43.17781 -18.981,22.77643 3.6027,3.00268 18.981,-22.77707 17.8028,14.83609 c -2.1153,18.50114 7.4262,35.77094 22.9582,44.24552 l -6.1145,13.22875 4.2573,1.96774 6.0869,-13.169 c 2.9952,1.24384 6.17,2.17827 9.4918,2.75663 5.6994,0.96211 11.5314,0.80802 17.1719,-0.45419 l 62.0914,51.7458 -6.6208,38.30247 -34.755,24.51032 -9.0293,-1.56044 -11.8648,68.64218 -0.4954,-0.085 -6.818,8.1806 -4.1834,1.5386 7.9789,-46.15864 -4.621,-0.79917 -8.4401,48.82731 -41.0604,15.102 c -1.9643,-5.3403 -4.0407,-10.9851 -6.0015,-16.3175 l -2.8665,1.0549 1.1551,3.1395 -8.771,3.2256 -0.1208,-0.3277 -4.1256,1.5168 1.6189,4.4019 4.1256,-1.5174 -0.1208,-0.3283 8.7704,-3.2256 3.4691,9.432 -71.8639,26.4305 c -2.1676,-5.8936 -4.3349,-11.7871 -6.5026,-17.6807 l -2.8665,1.0542 1.1551,3.1402 -17.0872,6.2842 -0.1207,-0.3277 -4.1257,1.5168 1.6189,4.4019 4.1256,-1.5174 -0.1207,-0.3283 17.0871,-6.2848 3.9708,10.7959 -3.6085,1.3272 -0.4208,-1.1441 -47.4357,17.4462 -4.7038,27.2143 -5.0611,5.6584 -7.4238,-6.6401 1.3799,-1.543 c 0,0 -14.916,-19.7705 -36.2229,-32.3948 l -1.3799,1.5437 c -4.4847,-4.0114 -8.4964,-7.5975 -12.4759,-11.1569 l -1.6645,1.8617 -27.4648,-24.5623 1.6651,-1.8611 -30.1025,-26.9213 2.7026,-12.9314 -19.4467,-4.0646 -10.9109,12.1996 -88.1943,-15.2446 3.8205,-22.1 -3.1106,-0.53771 -3.8198,22.10001 -35.5221,-6.1403 2.1791,-12.60562 -17.2477,-2.98084 -1.6414,9.49435 -20.3687,-3.52047 -0.5377,3.11061 10.7683,1.8611 -0.354,2.04611 c -8.3814,15.32626 -5.6308,32.57656 -5.6308,32.57656 l -0.354,2.0468 -10.7676,-1.8611 -0.5377,3.1099 7.657,1.3234 -9.5926,55.495 5.5666,0.9623 -1.5553,8.9985 -1.7333,-0.2994 -0.5377,3.11 4.8432,0.837 4.513,-26.1099 5.8274,-33.7111 8.6894,-9.716 131.4832,22.7276 -15.5556,10.97 -3.2269,-0.6746 -4.5682,5.1073 -5.1311,-4.5888 -18.8653,21.0952 -4.4475,-0.7683 -13.3457,77.2075 3.8192,0.6604 -0.1098,0.6366 9.4918,1.6408 0.1098,-0.6367 3.8199,0.6605 7.3698,-42.6363 3.3355,0.5763 4.4616,-25.8106 27.1873,-30.4001 -1.7294,-0.3617 11.8148,-8.3315 12.0499,-3.9606 37.8489,33.8492 12.0281,-13.4484 27.7044,24.7769 -12.028,13.4491 38.5966,34.518 -12.6434,14.1371 10.0917,9.0254 -24.1242,139.5623 14.1224,2.4412 -4.2021,24.308 -13.568,5.5351 -7.7238,-18.9335 4.8233,-1.9671 -1.1923,-2.9217 c -2.5819,1.0528 -5.1635,2.1059 -7.745,3.1594 2.9716,7.2852 5.9442,14.5702 8.9161,21.8552 l -24.4981,9.9935 -4.9576,-12.152 6.7089,-2.7367 -1.1917,-2.9224 c -3.2106,1.3096 -6.4213,2.6194 -9.6319,3.929 2.05,5.0248 4.0995,10.0496 6.1493,15.0745 l -29.2996,11.9529 2.0185,4.9466 -11.1184,4.5355 -6.7795,-16.6188 -14.8046,6.0401 6.7801,16.6181 -9.4275,3.8462 -14.8046,6.0394 -1.9279,0.787 -14.3819,-22.8445 -3.9233,2.4701 -9.5657,-15.1939 -16.1453,10.165 24.8726,39.507 c 7.631,-3.1117 16.0025,-6.5293 23.273,-9.4937 l 6.7795,16.6182 14.8046,-6.0395 -6.7794,-16.6181 9.4275,-3.8462 14.8046,-6.04 11.1171,-4.5349 0.2705,0.663 -0.512,0.2088 6.7249,16.4852 0.512,-0.2088 1.3484,-0.55 0.3733,0.9149 -9.3042,19.2405 2.8408,1.3748 c 3.3054,-6.8354 6.6112,-13.6712 9.9164,-20.5068 l -0.9039,-2.2157 c 17.7946,-7.2604 35.5895,-14.5193 53.3846,-21.7787 l -1.0568,6.1133 5.564,3.868 c -0.7965,1.3262 -1.5931,2.6524 -2.3898,3.9785 1.3584,0.7575 2.7292,1.4926 4.1115,2.2054 l -7.2581,13.374 2.774,1.5052 7.2652,-13.3862 c 8.2707,4.4085 16.9547,7.994 25.9262,10.7054 l -6.2167,21.735 3.0348,0.8686 6.1974,-21.6689 c 0.472,0.1491 0.945,0.2958 1.4185,0.44 l 1.0195,-3.8751 c 3.8476,1.0567 7.7385,1.9475 11.6625,2.6699 4.0206,0.6686 8.0685,1.1603 12.1322,1.4738 l -0.3277,3.9258 c 2.0869,0.1195 4.1762,0.193 6.2662,0.221 l 12.7797,13.1896 0.1298,2.3313 3.1517,-0.176 -0.1959,-3.5063 c -3.7713,-3.8927 -7.5428,-7.7845 -11.3143,-11.6767 8.7494,0.091 17.4884,-0.6215 26.108,-2.1264 l 5.5331,8.266 1.4095,6.5315 2.5896,-0.5583 0.4953,-0.1072 -1.536,-7.1207 c -1.6863,-2.5183 -3.3718,-5.0373 -5.0585,-7.5555 0.094,-0.015 0.1895,-0.029 0.284,-0.044 l -2.1739,-10.6096 c 8.2004,-1.6851 16.223,-4.1437 23.9597,-7.3422 l 1.5451,1.288 -1.7821,2.1393 9.062,7.5516 -2.6943,3.2334 18.3334,15.2787 2.6943,-3.2333 15.5608,12.9679 c -4.336,5.2031 -8.6717,10.4061 -13.0078,15.6089 1.3666,1.1391 2.7332,2.2781 4.0999,3.4171 l 2.0204,-2.4245 -1.6754,-1.396 10.988,-13.1844 7.7765,6.4807 -0.5223,0.6277 c 7.1199,5.9332 14.2393,11.867 21.3586,17.8008 l -0.9058,1.087 c 0.098,1.0849 0.1972,2.1696 0.2955,3.2545 l 5.6084,4.6743 -1.935,2.323 12.7591,10.6334 -2.339,2.8067 7.0139,5.8447 2.3391,-2.8054 4.0434,3.3688 -0.918,1.1018 11.0946,9.2457 -2.3847,2.8614 7.0609,5.8833 3.3021,-3.9625 20.914,17.4289 -6.2816,36.3412 -4.7462,-0.8197 -1.5502,8.9669 4.7462,0.8197 -4.682,27.0871 -4.7462,-0.8204 -3.0213,17.479 13.196,2.2806 1.5103,-8.7395 -4.7455,-0.8203 4.7918,-27.7231 4.7462,0.8203 1.4005,-8.1028 -4.7462,-0.8204 8.2018,-47.4467 -61.3365,-51.1169 1.9356,-2.323 -5.4381,-4.531 3.0682,-3.6823 -7.4649,-6.2212 6.8745,-8.2488 -19.0555,-15.8806 2.1598,-2.5922 1.1525,0.9605 4.4475,-5.3373 c -20.7932,-17.3269 -41.5849,-34.6556 -62.3772,-51.9835 l 1.6253,-1.9504 -9.6813,-8.0688 -2.3975,0.2178 -9.2734,-7.7277 -0.5358,0.643 0,0 c -0.02,-0.017 -11.4122,-9.5212 -9.531,-20.4046 l 5.9033,1.0202 0.6006,-3.4781 -1.2726,-0.2197 0.2473,-1.4326 1.2733,0.2197 1.202,-6.9555 -1.2727,-0.2203 0.2474,-1.432 1.2733,0.2197 1.2026,-6.9561 -1.2733,-0.2204 0.2473,-1.4319 1.2733,0.2203 1.2026,-6.9568 -1.2733,-0.2197 0.2474,-1.4319 1.2732,0.2197 1.2026,-6.9562 -1.2732,-0.2203 0.248,-1.4326 1.2726,0.2203 1.2026,-6.9555 -1.2733,-0.2203 0.248,-1.4326 1.2726,0.2203 1.2026,-6.9561 -1.2732,-0.2197 0.248,-1.4326 1.2726,0.2197 1.2026,-6.9562 -1.2733,-0.2203 0.248,-1.432 1.2726,0.2204 1.2027,-6.9568 -1.2733,-0.2197 0.2479,-1.432 1.2727,0.2204 1.2026,-6.9568 -1.2727,-0.2197 0.2474,-1.4326 1.2733,0.2197 1.2019,-6.9555 -1.2726,-0.2204 0.2473,-1.4326 1.2733,0.2204 1.202,-6.9561 -1.2727,-0.2198 0.2474,-1.4326 1.2733,0.2197 1.2019,-6.9555 -1.2726,-0.2197 0.2473,-1.4326 1.2733,0.2197 1.202,-6.9561 -1.2727,-0.2203 0.2474,-1.432 1.2733,0.2203 1.2026,-6.9567 -1.2733,-0.2198 0.2473,-1.4319 1.2733,0.2197 1.2026,-6.9562 -1.2733,-0.2203 0.2474,-1.4326 1.2732,0.2204 0.6013,-3.4781 -5.9032,-1.0202 0.4388,-2.5376 c 0,0 3.273,-8.1524 12.0377,-11.491 l -2.2928,-3.6682 c 3.9801,-2.5072 6.2623,-4.6652 6.2623,-4.6652 3.6939,-3.6828 3.0972,-7.4309 3.0972,-7.4309 -0.7604,-2.9053 -3.1002,-3.9893 -4.3788,-4.3736 l 131.9881,-48.5447 a 7.48293,7.48293 0 0 0 6.9896,4.8169 7.48293,7.48293 0 0 0 7.4418,-6.712 l 148.9597,25.7489 8.2416,-5.812 5.8113,8.241 8.241,-5.812 5.812,8.241 63.3871,10.9571 9.2438,-53.4777 8.2192,1.421 1.2501,-7.2343 5.0932,0.8801 1.3503,-7.8137 -2.0866,-0.3604 c -0.8832,-0.9848 -1.8239,-1.5846 -2.7656,-1.91 l 1.45,-8.3913 -70.0317,-12.1058 4.7012,-27.1988 32.4963,5.1136 -0.2133,1.2322 10.1721,1.6003 0.1947,-1.2341 31.2281,4.9139 1.3459,4.2123 14.1191,-4.5117 9.788,0.1754 12.4327,9.4603 2.2761,-2.9918 -11.473,-8.7292 7.7213,0.1388 0.033,-1.8798 c 12.0632,0.216 24.12634,0.4325 36.18956,0.6489 l 0.0347,-1.9523 c 10.40482,4.4873 20.80982,8.9745 31.21463,13.4619 l 1.4885,-3.4517 -25.57867,-11.0311 0.1741,-9.7359 -2.19966,-0.039 1.08248,-1.7635 -1.29127,-0.7927 4.07617,-6.6388 36.83583,-6.209 -0.62508,-3.7068 c -12.84038,2.1655 -25.68101,4.3282 -38.52026,6.4929 l -6.4e-4,7e-4 -0.0687,0.012 c -1.72651,2.7943 -3.19127,5.2981 -4.90103,8.0823 l -1.39663,-0.8577 0.01,-0.546 -5.79465,-0.1041 0.0681,-3.7922 -7.01396,-0.1259 -0.0681,3.7922 -5.23192,-0.094 0.033,-1.8791 -8.6425,-0.1548 -0.033,1.8791 -9.3234,-0.1671 0.068,-3.7922 -7.014,-0.1252 -0.068,3.7922 c -5.0279,-0.091 -10.0556,-0.18 -15.0834,-0.2705 l -0.051,2.8151 1.4018,0.025 -0.093,5.1901 -18.6064,5.9456 -27.1931,-4.2792 0.1946,-1.2354 -10.005,-1.5739 -0.2133,1.2322 -92.2312,-14.5136 -0.3148,1.9973 -11.8405,-16.7891 2.2395,-1.5797 -2.2003,-3.12024 -2.2401,1.57974 -18.4684,-26.18771 -1.7654,1.24437 -22.3087,-31.63221 6.1608,-35.64092 6.8078,-2.50416 9.4044,25.56903 1.9529,-0.71887 0.9136,-0.33598 -0.9225,-2.50802 -0.1183,-0.32057 -0.9225,-2.50801 -7.4405,-20.2318 0.6983,-0.25697 -0.8679,-2.36154 24.0221,-8.83522 0.8679,2.36154 0.3193,-0.11757 9.4037,25.56904 1.953,-0.71887 0.9135,-0.33535 -0.9225,-2.50865 -0.1182,-0.31993 -0.9225,-2.50866 -7.4405,-20.23179 28.553,-10.50038 6.9787,18.97457 1.0542,2.86584 1.9529,-0.71823 0.9129,-0.33598 8.295,-3.05086 -1.0542,-2.86649 -8.295,3.0515 -0.9084,-2.47139 -6.0696,-16.50318 0.3424,-0.12591 -0.8692,-2.36219 47.9164,-17.62356 0.8685,2.36219 0.9463,-0.3482 7.7939,21.19029 c 0.9554,-0.35149 1.9109,-0.70326 2.8665,-1.05422 -2.598,-7.06352 -5.1961,-14.12673 -7.7939,-21.19028 l 38.3487,-14.10437 7.7932,21.19093 c 0.9554,-0.3515 1.9109,-0.70326 2.8665,-1.05422 -2.598,-7.06369 -5.1959,-14.1272 -7.7938,-21.19093 l 1.4101,-0.51843 -0.8686,-2.36154 30.8652,-11.35224 6.1004,16.58669 1.7301,-0.63664 0.7304,1.98572 43.89734,-16.14534 c 1.2346,3.35686 2.46904,6.71371 3.70356,10.0706 1.84877,-0.68045 3.69806,-1.35881 5.54668,-2.03969 l -1.05422,-2.86648 -2.68018,0.98611 -2.64999,-7.20476 0.41821,-0.15354 1.484,-8.58661 11.14023,1.92534 0.52036,-3.0091 -11.14023,-1.92598 5.3912,-31.18766 -1.39148,-3.78258 11.62077,-4.27339 c -0.34607,-0.94119 -0.73222,-1.9892 -1.05486,-2.86713 -3.9606,1.45673 -7.63783,2.80999 -11.62013,4.27468 l -3.76138,-10.22736 -1.10304,-0.9193 7.88124,-9.4571 c -0.78239,-0.65132 -1.56424,-1.30361 -2.34613,-1.95553 -2.59944,3.11913 -5.2852,6.34192 -7.88187,9.45774 l -20.37828,-16.98435 4.5618,-5.47408 c 1.3073,1.08978 2.6151,2.17985 3.9227,3.26929 0.6516,-0.78211 1.3035,-1.56377 1.9549,-2.34613 -2.0895,-1.74136 -4.1787,-3.48282 -6.2682,-5.22417 -2.1427,2.57109 -4.3635,5.23576 -6.5173,7.8202 l -7.1804,-5.98352 0,-6.4e-4 -10.9276,4.01899 -3.1716,-8.62323 c -0.9554,0.35141 -1.9111,0.70269 -2.8665,1.05421 1.0572,2.87441 2.1145,5.74882 3.1717,8.62323 l -27.7218,10.19652 6.8308,18.57114 -40.3106,14.82581 c -3.2666,-8.88176 -6.5336,-17.76333 -9.8002,-26.64509 l -2.8658,1.05485 9.7995,26.64445 -79.7034,29.31435 -0.3199,-0.86984 -10.0398,-27.29714 -2.8665,1.05485 10.3597,28.16635 -10.4252,3.83397 -82.2853,-14.22322 3.685,-21.31813 0.697,-4.03248 0.1124,-0.64949 -5.2865,-9.08513 -2.6397,1.53603 4.727,8.12407 -4.3049,24.90477 -39.241,-6.78333 -9.2072,-7.67309 c 1.0139,-19.27725 -10.4204,-36.60142 -27.657,-43.64486 l 7.7098,-21.40678 -4.4122,-1.58935 -7.7271,21.45304 c -1.5757,-0.45736 -3.1901,-0.83445 -4.8406,-1.12103 -4.7265,-0.80393 -9.5517,-0.84067 -14.29,-0.10921 l -38.4348,-32.03051 25.2311,-30.27606 -3.6027,-3.00204 -25.2312,30.27542 -26.9238,-22.43723 1.3503,-1.62019 -10.2832,-8.56991 13.954,-16.74344 -3.6027,-3.00204 -13.954,16.74345 -2.1206,-1.76795 c 0,0 -15.5857,-12.9884 -35.5774,-16.44407 l -20.6037,-3.56159 -0.4767,2.75535 -10.7503,-1.85853 3.4729,-20.09046 -4.6203,-0.79853 z m 307.8056,342.64214 15.4348,21.88727 -2.7354,1.9299 3.3174,4.7044 2.7361,-1.9298 8.5025,12.057 -3.2738,-0.566 -6.7769,-9.6087 -3.0721,2.1656 4.6107,6.5373 -17.0306,-2.9436 -4.7919,27.7231 -7.409,-1.281 10.4882,-60.67547 z m 238.46761,44.74727 1.56044,0.9578 -1.57715,-0.028 0.0167,-0.9296 z m 1.41397,8.4208 1.78015,0.032 -0.0128,0.7304 -1.7673,-0.7626 z m -56.11938,4.3692 6.9163,0.1239 -0.01,0.4395 -6.7673,-0.1215 -0.1413,-0.4419 z m -674.3702,17.037 0.1497,0.4535 -14.2226,10.0302 -0.6116,-0.1272 14.6845,-10.3565 z"
       id="rect4162"
       inkscape:connector-curvature="0" />
  </g>
  <g
     inkscape:groupmode="layer"
     id="layer4"
     inkscape:label="Label"
     transform="translate(1897.4147,-616.99527)">
    <g
       id="g6689"
       transform="translate(-1.7295327e-5,42.852482)">
      <g
         style="font-style:normal;font-variant:normal;font-weight:bold;font-stretch:normal;font-size:125px;line-height:125%;font-family:Overpass;-inkscape-font-specification:'Overpass, Bold';text-align:start;letter-spacing:0px;word-spacing:0px;writing-mode:lr-tb;text-anchor:start;fill:#dddddd;fill-opacity:1;stroke:#222222;stroke-width:0.25;stroke-linecap:butt;stroke-linejoin:miter;stroke-miterlimit:4;stroke-dasharray:none;stroke-opacity:1"
         id="text6671">
        <path
           d="m -1158.363,1568.9192 0,-34.1187 -32.4097,-53.4057 19.165,0 21.6065,35.7666 21.6064,-35.7666 19.1651,0 -32.4097,53.4057 0,34.1187 -16.7236,0 z"
           style=""
           id="path6715" />
        <path
           d="m -1053.1384,1568.9192 -16.2354,0 -31.0058,-87.5244 18.2495,0 19.226,57.251 q 0.4883,1.4038 0.9156,3.0517 0.4883,1.5869 0.8545,2.9907 0.3051,-1.3427 0.7324,-2.9297 0.4272,-1.5869 0.9155,-3.1127 l 19.2261,-57.251 18.0054,0 -30.8838,87.5244 z"
           style=""
           id="path6717" />
        <path
           d="m -1006.0193,1568.9192 0,-87.5244 40.64943,0 q 8.30078,0 13.85498,2.3193 5.61523,2.2583 9.0332,6.0425 3.41797,3.7842 4.88281,8.728 1.46485,4.9439 1.46485,10.315 0,3.7231 -1.09864,7.5683 -1.03759,3.7842 -3.17382,7.2022 -2.13623,3.4179 -5.31006,6.2256 -3.17383,2.7465 -7.38526,4.2724 l 16.96778,34.8511 -18.98194,0 -16.35742,-32.6538 -17.63916,0 0,32.6538 -16.90675,0 z m 40.89357,-48.645 q 3.23486,0 5.43213,-0.9156 2.19726,-0.9765 3.54004,-2.5634 1.34277,-1.5869 1.89209,-3.6621 0.61035,-2.0752 0.61035,-4.3335 0,-2.0752 -0.54932,-4.0894 -0.48828,-2.0752 -1.77002,-3.6621 -1.28174,-1.648 -3.54004,-2.6245 -2.19726,-0.9766 -5.61523,-0.9766 l -23.98682,0 0,22.8272 23.98682,0 z"
           style=""
           id="path6719" />
      </g>
      <g
         style="font-style:normal;font-variant:normal;font-weight:normal;font-stretch:normal;font-size:45px;line-height:125%;font-family:Overpass;-inkscape-font-specification:'Overpass, Normal';text-align:start;letter-spacing:0px;word-spacing:0px;writing-mode:lr-tb;text-anchor:start;fill:#222222;fill-opacity:1;stroke:none;stroke-width:1px;stroke-linecap:butt;stroke-linejoin:miter;stroke-opacity:1"
         id="text6675">
        <path
           d="m -1154.7058,1465.7205 -4.6802,0 -10.7886,-31.5088 5.0318,0 7.1631,21.9726 q 0.1977,0.6372 0.4614,1.5821 0.2856,0.9228 0.5273,2.0214 0.2417,-1.0986 0.5054,-2.0214 0.2856,-0.9449 0.4834,-1.5821 l 7.0752,-21.9726 4.9878,0 -10.7666,31.5088 z"
           style=""
           id="path6722" />
        <path
           d="m -1124.4275,1465.7205 -4.4824,0 0,-1.9776 q -0.4395,0.4614 -1.0547,0.9229 -0.6152,0.4394 -1.4062,0.813 -0.7691,0.3515 -1.7359,0.5712 -0.9668,0.2198 -2.1094,0.2198 -1.7578,0 -3.2519,-0.4834 -1.4942,-0.4834 -2.5928,-1.4502 -1.0986,-0.9888 -1.7358,-2.417 -0.6153,-1.4502 -0.6153,-3.3618 0,-1.9776 0.7471,-3.4058 0.7471,-1.4502 1.9775,-2.373 1.2305,-0.9449 2.8125,-1.3843 1.604,-0.4395 3.2959,-0.4395 1.5821,0 3.0323,0.3516 1.4721,0.3296 2.6367,1.0107 l 0,-1.2744 q 0,-1.2964 -0.3076,-2.1972 -0.2857,-0.9009 -0.9009,-1.4502 -0.5933,-0.5713 -1.5161,-0.813 -0.9229,-0.2637 -2.1973,-0.2637 -2.1533,0 -3.7353,0.5713 -1.5601,0.5713 -2.8345,1.5161 l -1.3843,-3.8452 q 0.7031,-0.4834 1.604,-0.9009 0.9009,-0.4394 1.9776,-0.769 1.0766,-0.3296 2.3291,-0.5054 1.2524,-0.1978 2.6806,-0.1978 0.9668,0 1.9995,0.1099 1.0327,0.1099 1.9995,0.4395 0.9888,0.3076 1.8457,0.9008 0.879,0.5933 1.5162,1.5601 0.6591,0.9448 1.0327,2.3291 0.3735,1.3843 0.3735,3.2959 l 0,14.8975 z m -9.9316,-3.6036 q 1.7798,0 3.1421,-0.7251 1.3842,-0.7251 2.3071,-1.7358 l 0,-3.5156 q -0.9668,-0.5054 -2.2632,-0.813 -1.2964,-0.3076 -2.6587,-0.3076 -1.0547,0 -1.9775,0.1977 -0.9229,0.1978 -1.626,0.6372 -0.6812,0.4175 -1.0767,1.0987 -0.3955,0.6591 -0.3955,1.604 0,1.6479 1.1426,2.6147 1.1646,0.9448 3.4058,0.9448 z"
           style=""
           id="path6724" />
        <path
           d="m -1103.8391,1465.7205 0,-13.733 q 0,-1.4501 -0.3516,-2.4609 -0.3515,-1.0327 -0.9668,-1.6699 -0.6152,-0.6592 -1.4502,-0.9448 -0.8349,-0.3077 -1.8237,-0.3077 -1.0547,0 -1.9556,0.2857 -0.9008,0.2637 -1.56,0.8789 -0.6592,0.6152 -1.0547,1.6479 -0.3735,1.0108 -0.3735,2.483 l 0,13.8208 -4.6802,0 0,-23.0054 4.6802,0 0,2.2192 q 1.1206,-1.4282 2.5708,-2.0874 1.4502,-0.6592 3.3618,-0.6592 1.8017,0 3.3178,0.5274 1.5162,0.5054 2.6148,1.6699 1.1206,1.1646 1.7358,3.0322 0.6153,1.8677 0.6153,4.5703 l 0,13.733 -4.6802,0 z"
           style=""
           id="path6726" />
        <path
           d="m -1083.7561,1466.2698 q -2.3071,0 -4.1748,-0.813 -1.8457,-0.813 -3.1641,-2.3511 -1.2964,-1.56 -1.9995,-3.7793 -0.7031,-2.2412 -0.7031,-5.0757 0,-2.8344 0.7031,-5.0757 0.7031,-2.2412 1.9995,-3.7792 1.3184,-1.5601 3.1641,-2.3731 1.8677,-0.835 4.1748,-0.835 3.208,0 5.4272,1.4283 2.2413,1.4282 3.252,4.5044 l -4.4385,1.538 q -0.5054,-1.3183 -1.5381,-2.1313 -1.0327,-0.835 -2.5268,-0.835 -1.3184,0 -2.3291,0.5274 -1.0108,0.5273 -1.7139,1.5161 -0.6811,0.9668 -1.0547,2.373 -0.3515,1.3843 -0.3515,3.1421 0,1.7578 0.3515,3.1641 0.3736,1.3843 1.0327,2.3511 0.6812,0.9668 1.648,1.4941 0.9888,0.5054 2.2412,0.5054 1.582,0 2.7026,-0.8789 1.1426,-0.8789 1.626,-2.5049 l 4.4385,1.4062 q -0.9229,3.208 -3.1421,4.856 -2.1973,1.626 -5.625,1.626 z"
           style=""
           id="path6728" />
        <path
           d="m -1060.0037,1466.2698 q -2.417,0 -4.3725,-0.813 -1.9336,-0.813 -3.2959,-2.3511 -1.3623,-1.56 -2.1094,-3.7793 -0.7251,-2.2412 -0.7251,-5.0757 0,-2.8344 0.7251,-5.0757 0.7471,-2.2412 2.1094,-3.7792 1.3623,-1.5601 3.2959,-2.3731 1.9555,-0.835 4.3725,-0.835 2.3951,0 4.3506,0.835 1.9556,0.813 3.3179,2.3731 1.3623,1.538 2.1094,3.7792 0.747,2.2413 0.747,5.0757 0,2.8345 -0.747,5.0757 -0.7471,2.2193 -2.1094,3.7793 -1.3623,1.5381 -3.3179,2.3511 -1.9555,0.813 -4.3506,0.813 z m 0,-4.4165 q 1.3404,0 2.417,-0.5274 1.0987,-0.5273 1.8457,-1.4941 0.7691,-0.9888 1.1646,-2.395 0.4175,-1.4063 0.4175,-3.1861 0,-1.7798 -0.4175,-3.186 -0.3955,-1.4282 -1.1646,-2.417 -0.747,-0.9888 -1.8457,-1.5161 -1.0766,-0.5274 -2.417,-0.5274 -1.3403,0 -2.417,0.5274 -1.0766,0.5273 -1.8457,1.5161 -0.747,0.9888 -1.1645,2.417 -0.3955,1.4062 -0.3955,3.186 0,1.7798 0.3955,3.1861 0.4175,1.4062 1.1645,2.395 0.7691,0.9668 1.8457,1.4941 1.0767,0.5274 2.417,0.5274 z"
           style=""
           id="path6730" />
        <path
           d="m -1029.8792,1465.7205 0,-2.1973 q -1.1206,1.4282 -2.5927,2.0874 -1.4502,0.6592 -3.3618,0.6592 -1.8018,0 -3.3179,-0.5274 -1.5161,-0.5053 -2.6367,-1.6699 -1.0987,-1.1865 -1.7139,-3.0542 -0.6152,-1.8677 -0.6152,-4.5703 l 0,-13.7329 4.6801,0 0,13.7329 q 0,1.4502 0.3516,2.4829 0.3516,1.0108 0.9668,1.6699 0.6152,0.6592 1.4502,0.9668 0.835,0.2857 1.8237,0.2857 1.0547,0 1.9556,-0.2637 0.9009,-0.2856 1.5601,-0.9009 0.6811,-0.6372 1.0546,-1.6479 0.3955,-1.0108 0.3955,-2.5049 l 0,-13.8208 4.6802,0 0,23.0054 -4.6802,0 z"
           style=""
           id="path6732" />
        <path
           d="m -1007.9504,1465.7205 -4.3726,0 -8.4155,-23.0054 4.6802,0 5.3173,15.0952 q 0.1978,0.5933 0.3296,1.0327 0.1538,0.4395 0.3076,0.9888 0.1319,-0.5493 0.2637,-0.9888 0.1538,-0.4394 0.3516,-1.0327 l 5.2734,-15.0952 4.68019,0 -8.41549,23.0054 z"
           style=""
           id="path6734" />
        <path
           d="m -985.69214,1466.2698 q -2.39502,0 -4.32861,-0.813 -1.9336,-0.835 -3.2959,-2.3731 -1.36231,-1.56 -2.10938,-3.8012 -0.72509,-2.2412 -0.72509,-5.0757 0,-2.8345 0.74707,-5.0537 0.74707,-2.2412 2.10937,-3.7793 1.38428,-1.5601 3.2959,-2.3731 1.93359,-0.813 4.30664,-0.813 2.04346,0 3.82324,0.6592 1.80176,0.6372 3.14209,1.9776 1.36231,1.3183 2.13135,3.3398 0.79102,2.0215 0.79102,4.7681 0,0.747 -0.0439,1.582 -0.022,0.835 -0.13183,1.4502 l -15.49073,0 q 0.022,1.4282 0.50537,2.5708 0.50537,1.1206 1.31836,1.9336 0.81299,0.791 1.84571,1.2305 1.03271,0.4174 2.15332,0.4174 1.42822,0 2.63672,-0.5932 1.23046,-0.5933 2.13134,-1.7359 l 3.0542,3.1421 q -1.25244,1.4942 -3.20801,2.417 -1.95556,0.9229 -4.6582,0.9229 z m 0,-19.9512 q -1.09863,0 -2.10937,0.3296 -1.01075,0.3076 -1.80176,1.0107 -0.76904,0.6812 -1.27442,1.8018 -0.50537,1.1206 -0.59326,2.7246 l 10.98633,0 q -0.0439,-1.604 -0.50537,-2.7246 -0.46143,-1.1206 -1.2085,-1.8018 -0.74707,-0.7031 -1.66992,-1.0107 -0.90088,-0.3296 -1.82373,-0.3296 z"
           style=""
           id="path6736" />
        <path
           d="m -970.39917,1465.7205 0,-23.0054 4.68018,0 0,2.7905 q 0.81298,-1.7578 2.10937,-2.5268 1.29639,-0.7911 3.01025,-0.7911 2.28516,0 3.86719,1.3843 l -0.68115,4.3286 q -0.63721,-0.4394 -1.51611,-0.769 -0.85694,-0.3516 -2.10938,-0.3516 -0.79101,0 -1.62597,0.2857 -0.81299,0.2636 -1.49415,0.9668 -0.68115,0.6811 -1.1206,1.8457 -0.43945,1.1426 -0.43945,2.9223 l 0,12.92 -4.68018,0 z"
           style=""
           id="path6738" />
      </g>
    </g>
  </g>
  <g
     inkscape:groupmode="layer"
     id="layer5"
     inkscape:label="Date"
     transform="translate(1897.4147,-616.99527)">
    <g
       style="font-style:normal;font-variant:normal;font-weight:300;font-stretch:normal;font-size:15px;line-height:125%;font-family:Overpass;-inkscape-font-specification:'Overpass, Light';text-align:start;letter-spacing:0px;word-spacing:0px;writing-mode:lr-tb;text-anchor:start;fill:#222222;fill-opacity:1;stroke:none;stroke-width:1px;stroke-linecap:butt;stroke-linejoin:miter;stroke-opacity:1"
       id="text6667">
      <path
         d="m -1870.6296,1611.7167 0,-8.595 -1.785,0 0,-0.6 q 0.795,0 1.35,-0.27 0.555,-0.285 0.81,-1.035 l 0.675,0 0,10.5 -1.05,0 z"
         style=""
         id="path6696" />
      <path
         d="m -1863.5199,1610.9517 q 0.495,0 0.915,-0.15 0.435,-0.165 0.75,-0.465 0.315,-0.3 0.495,-0.735 0.18,-0.435 0.18,-0.99 0,-0.465 -0.165,-0.885 -0.165,-0.42 -0.48,-0.735 -0.3,-0.33 -0.735,-0.51 -0.435,-0.195 -0.96,-0.195 -0.525,0 -0.96,0.195 -0.435,0.18 -0.75,0.51 -0.3,0.315 -0.465,0.735 -0.165,0.42 -0.165,0.885 0,0.555 0.18,0.99 0.18,0.435 0.495,0.735 0.315,0.3 0.735,0.465 0.435,0.15 0.93,0.15 z m 0,-9.915 q 0.63,0 1.17,0.225 0.555,0.21 0.945,0.585 0.39,0.375 0.615,0.87 0.225,0.495 0.225,1.035 0,0.675 -0.345,1.275 -0.33,0.585 -1.05,0.885 0.84,0.315 1.35,1.095 0.525,0.765 0.525,1.755 0,0.66 -0.255,1.245 -0.255,0.57 -0.72,0.99 -0.465,0.42 -1.095,0.66 -0.63,0.24 -1.365,0.24 -0.75,0 -1.38,-0.24 -0.615,-0.24 -1.08,-0.66 -0.465,-0.42 -0.72,-0.99 -0.255,-0.585 -0.255,-1.245 0,-0.495 0.135,-0.945 0.135,-0.45 0.375,-0.81 0.255,-0.375 0.6,-0.66 0.345,-0.285 0.75,-0.435 -0.675,-0.3 -1.035,-0.885 -0.345,-0.6 -0.345,-1.275 0,-0.54 0.225,-1.035 0.225,-0.495 0.615,-0.87 0.39,-0.375 0.93,-0.585 0.555,-0.225 1.185,-0.225 z m 0,4.56 q 0.87,0 1.38,-0.48 0.51,-0.48 0.51,-1.23 0,-0.885 -0.54,-1.395 -0.54,-0.51 -1.35,-0.51 -0.81,0 -1.35,0.51 -0.54,0.51 -0.54,1.395 0,0.75 0.51,1.23 0.51,0.48 1.38,0.48 z"
         style=""
         id="path6698" />
      <path
         d="m -1847.648,1611.7167 -5.31,-8.535 0,8.535 -1.05,0 0,-10.5 1.065,0 5.31,8.655 0,-8.655 1.05,0 0,10.5 -1.065,0 z"
         style=""
         id="path6700" />
      <path
         d="m -1840.8968,1610.9517 q 1.05,0 1.62,-0.81 0.57,-0.81 0.57,-2.265 0,-1.44 -0.555,-2.25 -0.555,-0.81 -1.635,-0.81 -1.08,0 -1.635,0.795 -0.555,0.78 -0.555,2.28 0,1.44 0.555,2.25 0.555,0.81 1.635,0.81 z m 0,-7.08 q 0.735,0 1.335,0.27 0.615,0.27 1.035,0.78 0.435,0.51 0.675,1.26 0.24,0.735 0.24,1.695 0,0.945 -0.24,1.695 -0.24,0.75 -0.675,1.275 -0.42,0.51 -1.035,0.78 -0.6,0.27 -1.335,0.27 -0.735,0 -1.35,-0.27 -0.6,-0.27 -1.035,-0.78 -0.42,-0.51 -0.66,-1.245 -0.24,-0.75 -0.24,-1.71 0,-0.945 0.24,-1.68 0.24,-0.75 0.66,-1.26 0.435,-0.525 1.035,-0.795 0.615,-0.285 1.35,-0.285 z"
         style=""
         id="path6702" />
      <path
         d="m -1833.0446,1611.7167 -0.735,0 -2.805,-7.665 1.08,0 2.13,5.985 2.085,-5.985 1.05,0 -2.805,7.665 z"
         style=""
         id="path6704" />
      <path
         d="m -1825.1039,1611.7167 q 0,-0.99 0.285,-1.695 0.285,-0.72 0.735,-1.26 0.45,-0.54 1.02,-0.945 0.57,-0.405 1.14,-0.795 0.495,-0.33 0.945,-0.645 0.45,-0.33 0.795,-0.69 0.36,-0.36 0.57,-0.765 0.21,-0.42 0.21,-0.93 0,-0.855 -0.6,-1.425 -0.585,-0.585 -1.68,-0.585 -1.065,0 -1.605,0.48 -0.54,0.465 -0.735,1.215 l -0.93,-0.42 q 0.12,-0.465 0.405,-0.87 0.285,-0.405 0.72,-0.705 0.435,-0.3 0.99,-0.465 0.57,-0.18 1.245,-0.18 1.56,0 2.415,0.81 0.87,0.795 0.87,2.145 0,0.72 -0.285,1.275 -0.27,0.555 -0.72,1.02 -0.435,0.45 -0.99,0.84 -0.555,0.375 -1.125,0.735 -0.45,0.3 -0.87,0.6 -0.42,0.285 -0.78,0.63 -0.345,0.33 -0.585,0.735 -0.24,0.39 -0.33,0.885 l 5.775,0 0,1.005 -6.885,0 z"
         style=""
         id="path6706" />
      <path
         d="m -1812.5248,1611.8967 q -1.035,0 -1.725,-0.48 -0.69,-0.48 -1.11,-1.245 -0.405,-0.78 -0.585,-1.74 -0.18,-0.975 -0.18,-1.965 0,-0.54 0.06,-1.155 0.06,-0.63 0.21,-1.23 0.165,-0.6 0.42,-1.155 0.27,-0.555 0.675,-0.975 0.405,-0.42 0.945,-0.66 0.555,-0.255 1.29,-0.255 1.035,0 1.725,0.495 0.69,0.48 1.095,1.26 0.42,0.78 0.6,1.755 0.18,0.96 0.18,1.92 0,0.555 -0.075,1.17 -0.06,0.615 -0.225,1.23 -0.15,0.6 -0.42,1.155 -0.255,0.54 -0.66,0.96 -0.405,0.42 -0.96,0.675 -0.54,0.24 -1.26,0.24 z m 0,-0.945 q 0.78,0 1.26,-0.42 0.495,-0.435 0.765,-1.095 0.27,-0.66 0.36,-1.455 0.09,-0.795 0.09,-1.515 0,-0.81 -0.105,-1.605 -0.105,-0.81 -0.39,-1.44 -0.285,-0.645 -0.765,-1.035 -0.48,-0.405 -1.215,-0.405 -0.795,0 -1.29,0.435 -0.48,0.435 -0.75,1.095 -0.27,0.66 -0.375,1.455 -0.09,0.78 -0.09,1.5 0,0.825 0.105,1.635 0.105,0.795 0.39,1.44 0.285,0.63 0.765,1.02 0.495,0.39 1.245,0.39 z"
         style=""
         id="path6708" />
      <path
         d="m -1805.5027,1611.7167 0,-8.595 -1.785,0 0,-0.6 q 0.795,0 1.35,-0.27 0.555,-0.285 0.81,-1.035 l 0.675,0 0,10.5 -1.05,0 z"
         style=""
         id="path6710" />
      <path
         d="m -1800.4179,1611.7167 q 0.015,-1.23 0.15,-2.43 0.15,-1.2 0.51,-2.385 0.375,-1.185 0.99,-2.37 0.615,-1.2 1.575,-2.415 l -5.085,0 0,-0.9 6.285,0 0,0.69 q -1.095,1.26 -1.755,2.595 -0.66,1.32 -1.02,2.61 -0.36,1.275 -0.48,2.46 -0.12,1.185 -0.12,2.145 l -1.05,0 z"
         style=""
         id="path6712" />
    </g>
  </g>
</svg>
