<?xml version="1.0" encoding="UTF-8" standalone="no"?>
<!-- Created with Inkscape (http://www.inkscape.org/) -->

<svg
   xmlns:dc="http://purl.org/dc/elements/1.1/"
   xmlns:cc="http://creativecommons.org/ns#"
   xmlns:rdf="http://www.w3.org/1999/02/22-rdf-syntax-ns#"
   xmlns:svg="http://www.w3.org/2000/svg"
   xmlns="http://www.w3.org/2000/svg"
   xmlns:sodipodi="http://sodipodi.sourceforge.net/DTD/sodipodi-0.dtd"
   xmlns:inkscape="http://www.inkscape.org/namespaces/inkscape"
   width="1499.0989"
   height="1401.0532"
   viewBox="0 0 1499.0989 1401.0532"
   id="svg2"
   version="1.1"
   inkscape:version="0.91 r13725"
   sodipodi:docname="YYZ.svg"
   inkscape:export-filename="C:\Users\Paul Bogard\Dropbox\Documents\Websites\Flight Log\Images\Terminals\YYZ.png"
   inkscape:export-xdpi="89.996452"
   inkscape:export-ydpi="89.996452">
  <defs
     id="defs4" />
  <sodipodi:namedview
     id="base"
     pagecolor="#ffffff"
     bordercolor="#666666"
     borderopacity="1.0"
     inkscape:pageopacity="1"
     inkscape:pageshadow="2"
     inkscape:zoom="0.5"
     inkscape:cx="-730.04277"
     inkscape:cy="676.88229"
     inkscape:document-units="px"
     inkscape:current-layer="layer3"
     showgrid="false"
     fit-margin-top="25"
     fit-margin-left="25"
     fit-margin-right="25"
     fit-margin-bottom="25"
     inkscape:window-width="1680"
     inkscape:window-height="987"
     inkscape:window-x="1672"
     inkscape:window-y="-8"
     inkscape:window-maximized="1"
     units="px" />
  <metadata
     id="metadata7">
    <rdf:RDF>
      <cc:Work
         rdf:about="">
        <dc:format>image/svg+xml</dc:format>
        <dc:type
           rdf:resource="http://purl.org/dc/dcmitype/StillImage" />
        <dc:title />
      </cc:Work>
    </rdf:RDF>
  </metadata>
  <g
     inkscape:groupmode="layer"
     id="layer2"
     inkscape:label="Terminal"
     style="display:inline"
     transform="translate(-971.13372,-477.38292)">
    <path
       id="path4153"
       style="fill:#dddddd;fill-opacity:1;fill-rule:evenodd;stroke:#000000;stroke-width:1.5;stroke-linecap:butt;stroke-linejoin:miter;stroke-miterlimit:4;stroke-dasharray:none;stroke-opacity:1"
       d="m 1062.0025,865.81758 -35.5408,25.21476 -12.2471,-1.44085 -17.29016,-23.77391 2.16126,-13.20773 36.0211,-26.89574 2.6415,4.56267 5.043,-3.36197 -1.4409,-1.92112 108.0633,-76.12455 6.3569,-36.6498 -1.1886,-2.03766 -2.0377,1.18863 c 0,0 -13.924,-25.30094 -24.2821,-56.37526 l 2.2075,-1.01883 -1.6981,-4.92434 7.6412,-15.11265 2.3773,0.16981 5.6036,-11.03733 0,-3.3961 15.8263,-3.60419 c 0,0 0,-6.48379 5.7634,-7.92464 0,0 -0.9606,-3.6021 -1.681,-9.12534 l 7.6845,-2.16126 -1.4409,-4.08239 -3.8422,0.96056 -3.1218,-36.50136 13.688,-16.08941 0.2401,-24.73448 -3.1218,-4.32252 9.3655,-8.64507 5.0429,5.52323 0,5.04295 c 0,0 -2.6415,5.04296 -1.2007,17.29013 l 3.1219,53.31119 -12.4874,1.44085 0.7205,6.00351 1.2007,3.36197 10.8063,-2.40141 1.4408,5.28309 13.688,-3.84224 -1.4408,-4.32253 10.326,-1.92113 c 0,0 4.5627,25.4549 12.0071,41.30417 l 5.2831,-2.4014 c 0,0 12.7274,34.34009 30.2577,58.11401 l -3.6022,3.12182 7.4444,9.36549 3.6021,-3.12183 c 0,0 21.8528,29.057 44.6662,45.86684 l -4.0824,6.96408 c 0,0 12.2472,11.52674 24.014,17.29011 l 4.0824,-6.48379 c 0,0 25.9352,17.7704 55.4725,27.37602 l -1.4409,5.76337 15.369,4.56267 1.4409,-5.76337 c 0,0 32.6591,10.32605 75.164,9.60562 l 0.4803,3.36197 c 0,0 17.0499,-0.72042 30.2576,-2.16127 l 1.4409,12.24717 2.4014,-0.48028 1.681,11.04647 2.4014,-0.24015 0.7204,5.76337 -2.8817,0.72043 8.1648,55.95275 -9.6056,0.72042 c 0,0 -25.695,3.12182 -54.2718,1.68098 l 0.2402,-3.60211 c 0,0 -15.3691,-0.48028 -25.4549,-2.16126 l 0.2401,-2.40141 -9.6056,-0.96056 0,3.60211 -27.1359,15.36899 -7.6845,-1.68099 -1.2007,6.00352 1.681,0.48028 -3.6021,13.44787 -1.681,-0.48028 -50.1894,166.41735 9.6057,44.1859 2.6415,-0.2401 14.6485,52.1105 -2.4013,0.4802 2.1612,6.724 c 0,0 -78.8037,13.7051 -113.1043,-67.4617 l 44.9044,-43.9635 5.2831,1.9211 1.9211,-6.2437 -1.5112,-0.7495 53.1415,-177.67489 1.9211,0.24015 1.9211,-6.4838 -19.2112,-33.61967 -2.1613,4.80281 c 0,0 -74.9239,-30.01757 -121.271,-86.21045 l 3.6021,-1.92113 -1.681,-2.64154 -31.6985,-4.56268 -1.4409,-1.44084 -133.278,96.29636 z m 557.1947,200.86042 31.5613,32.2474 -10.6348,10.6349 100.4553,106.1309 -1.698,1.8678 14.2636,14.7731 c 0,0 9.8487,40.4135 1.698,83.2044 l -103.581,98.1473 -10.5279,-11.5467 -72.6766,68.6012 c 0,0 19.0182,31.5837 44.8286,47.885 l 73.6953,-68.2616 -7.4714,-7.8111 102.9018,-97.468 c 0,0 137.8817,-15.6221 216.6712,97.8077 l -6.7922,304.2905 c 0,0 -21.735,-5.4337 -37.3571,-24.4519 l -14.2636,13.2448 -1.3584,-1.0188 -17.3201,16.3012 -21.0559,-23.7727 -10.8675,8.4903 21.3954,24.1123 -16.6408,13.2448 c 0,0 5.0941,6.7922 9.1694,10.1883 l -25.8103,9.5091 5.4337,13.2448 31.5838,-12.226 c 0,0 22.4142,19.0182 48.5642,27.848 l -7.811,25.8104 13.2447,4.7545 7.8111,-27.1688 c 0,0 34.702,9.329 67.9529,1.1878 l 5.7424,25.981 12.5656,-3.0565 -6.113,-25.8103 c 0,0 32.263,-9.8487 49.5831,-23.7727 l 31.9233,13.2448 4.7546,-12.9052 -25.4708,-9.8487 11.2072,-10.5279 -15.3674,-14.6882 20.9072,-21.7987 -9.8274,-10.0821 -21.1832,22.1171 -16.3013,-15.9617 -1.3584,1.698 -15.2825,-14.6032 c 0,0 -19.0181,18.6786 -36.3382,21.0558 l 7.4714,-303.6113 c 0,0 44.9983,-55.0168 110.3732,-75.3934 l 2.8867,9.6788 31.0743,-2.8866 -0.849,-8.3205 4.0753,-0.5094 61.9789,66.9032 -3.0565,2.8867 121.7502,128.7121 3.5659,-3.2262 47.9255,50.4206 23.0534,-21.8529 -2.6415,-3.8422 -20.4119,19.2113 -44.9063,-46.3471 0.9605,-0.8406 -186.7894,-197.5993 -25.9751,3.926 -5.3393,-20.5961 4.4149,-1.0188 -7.4805,-12.2449 c 0,0 41.064,-19.9317 77.3252,-58.114 l -2.6415,-3.1218 -4.0824,3.1218 -5.043,-4.0824 1.681,-2.1612 -52.8308,-51.3902 -1.2008,1.2008 -2.8817,-2.8817 c 0,0 -47.7879,57.3935 -134.2385,57.8738 0,0 -74.4436,1.4409 -122.9519,-44.6661 l -23.2863,-22.944 -2.8867,2.7169 -1.0188,-0.6792 -53.6584,49.9226 -26.11,-27.7934 16.8751,-38.84 32.1952,-30.3621 -26.6393,-28.4409 -33.9716,32.6069 18.3788,19.159 -16.3132,35.9167 -74.6184,-78.223 -5.4338,4.5848 1.1886,1.698 -6.2827,5.0942 -84.0535,-88.2986 z"
       inkscape:connector-curvature="0" />
  </g>
  <g
     inkscape:groupmode="layer"
     id="layer3"
     inkscape:label="Label"
     transform="translate(0.43267465,-23.441894)">
    <g
       id="text4163"
       style="font-style:normal;font-variant:normal;font-weight:bold;font-stretch:normal;font-size:125px;line-height:125%;font-family:Overpass;-inkscape-font-specification:'Overpass, Bold';text-align:start;letter-spacing:0px;word-spacing:0px;writing-mode:lr-tb;text-anchor:start;fill:#dddddd;fill-opacity:1;stroke:#222222;stroke-width:0.25;stroke-linecap:butt;stroke-linejoin:miter;stroke-opacity:1;stroke-miterlimit:4;stroke-dasharray:none"
       transform="translate(-4.9834956e-5,0)">
      <path
         inkscape:connector-curvature="0"
         id="path4141"
         d="m 56.977043,1351.4482 0,-34.1186 -32.409668,-53.4058 19.165039,0 21.606446,35.7666 21.606445,-35.7666 19.165035,0 -32.409664,53.4058 0,34.1186 -16.723633,0 z"
         style="stroke:#222222;stroke-opacity:1;stroke-width:0.25;stroke-miterlimit:4;stroke-dasharray:none" />
      <path
         inkscape:connector-curvature="0"
         id="path4143"
         d="m 146.08837,1351.4482 0,-34.1186 -32.40967,-53.4058 19.16504,0 21.60645,35.7666 21.60644,-35.7666 19.16504,0 -32.40967,53.4058 0,34.1186 -16.72363,0 z"
         style="stroke:#222222;stroke-opacity:1;stroke-width:0.25;stroke-miterlimit:4;stroke-dasharray:none" />
      <path
         inkscape:connector-curvature="0"
         id="path4145"
         d="m 205.96386,1351.4482 0,-12.8784 45.71533,-58.5937 -42.96875,0 0,-16.0523 65.36865,0 0,12.8784 -46.14257,58.6548 46.14257,0 0,15.9912 -68.11523,0 z"
         style="stroke:#222222;stroke-opacity:1;stroke-width:0.25;stroke-miterlimit:4;stroke-dasharray:none" />
    </g>
    <g
       id="text4167"
       style="font-style:normal;font-variant:normal;font-weight:normal;font-stretch:normal;font-size:45px;line-height:125%;font-family:Overpass;-inkscape-font-specification:Sans;text-align:start;letter-spacing:0px;word-spacing:0px;writing-mode:lr-tb;text-anchor:start;fill:#222222;fill-opacity:1;stroke:none;stroke-width:1px;stroke-linecap:butt;stroke-linejoin:miter;stroke-opacity:1"
       transform="translate(-4.9834956e-5,0)">
      <path
         inkscape:connector-curvature="0"
         id="path4148"
         d="m 38.168449,1371.9414 0,27.0044 -4.680175,0 0,-27.0044 -8.920899,0 0,-4.5044 22.5,0 0,4.5044 -8.898926,0 z" />
      <path
         inkscape:connector-curvature="0"
         id="path4150"
         d="m 58.053703,1399.4951 q -2.416992,0 -4.372558,-0.813 -1.933594,-0.813 -3.295899,-2.351 -1.362304,-1.5601 -2.109375,-3.7793 -0.725097,-2.2413 -0.725097,-5.0757 0,-2.8345 0.725097,-5.0757 0.747071,-2.2412 2.109375,-3.7793 1.362305,-1.5601 3.295899,-2.3731 1.955566,-0.8349 4.372558,-0.8349 2.39502,0 4.350586,0.8349 1.955567,0.813 3.317871,2.3731 1.362305,1.5381 2.109375,3.7793 0.747071,2.2412 0.747071,5.0757 0,2.8344 -0.747071,5.0757 -0.74707,2.2192 -2.109375,3.7793 -1.362304,1.538 -3.317871,2.351 -1.955566,0.813 -4.350586,0.813 z m 0,-4.4165 q 1.340332,0 2.416992,-0.5273 1.098633,-0.5274 1.845704,-1.4942 0.769043,-0.9887 1.16455,-2.395 0.417481,-1.4062 0.417481,-3.186 0,-1.7798 -0.417481,-3.1861 -0.395507,-1.4282 -1.16455,-2.417 -0.747071,-0.9887 -1.845704,-1.5161 -1.07666,-0.5273 -2.416992,-0.5273 -1.340332,0 -2.416992,0.5273 -1.07666,0.5274 -1.845703,1.5161 -0.74707,0.9888 -1.164551,2.417 -0.395508,1.4063 -0.395508,3.1861 0,1.7798 0.395508,3.186 0.417481,1.4063 1.164551,2.395 0.769043,0.9668 1.845703,1.4942 1.07666,0.5273 2.416992,0.5273 z" />
      <path
         inkscape:connector-curvature="0"
         id="path4152"
         d="m 74.181633,1398.9458 0,-23.0054 4.680176,0 0,2.7906 q 0.812988,-1.7579 2.109375,-2.5269 1.296386,-0.791 3.010254,-0.791 2.285156,0 3.867187,1.3843 l -0.681152,4.3286 q -0.637207,-0.4395 -1.516113,-0.7691 -0.856934,-0.3515 -2.109375,-0.3515 -0.791016,0 -1.625977,0.2856 -0.812988,0.2637 -1.494141,0.9668 -0.681152,0.6812 -1.120605,1.8457 -0.439453,1.1426 -0.439453,2.9224 l 0,12.9199 -4.680176,0 z" />
      <path
         inkscape:connector-curvature="0"
         id="path4154"
         d="m 101.73534,1399.4951 q -2.416988,0 -4.372555,-0.813 -1.933593,-0.813 -3.295898,-2.351 -1.362305,-1.5601 -2.109375,-3.7793 -0.725098,-2.2413 -0.725098,-5.0757 0,-2.8345 0.725098,-5.0757 0.74707,-2.2412 2.109375,-3.7793 1.362305,-1.5601 3.295898,-2.3731 1.955567,-0.8349 4.372555,-0.8349 2.39502,0 4.35059,0.8349 1.95557,0.813 3.31787,2.3731 1.36231,1.5381 2.10938,3.7793 0.74707,2.2412 0.74707,5.0757 0,2.8344 -0.74707,5.0757 -0.74707,2.2192 -2.10938,3.7793 -1.3623,1.538 -3.31787,2.351 -1.95557,0.813 -4.35059,0.813 z m 0,-4.4165 q 1.34034,0 2.417,-0.5273 1.09863,-0.5274 1.8457,-1.4942 0.76904,-0.9887 1.16455,-2.395 0.41748,-1.4062 0.41748,-3.186 0,-1.7798 -0.41748,-3.1861 -0.39551,-1.4282 -1.16455,-2.417 -0.74707,-0.9887 -1.8457,-1.5161 -1.07666,-0.5273 -2.417,-0.5273 -1.34033,0 -2.416988,0.5273 -1.07666,0.5274 -1.845703,1.5161 -0.747071,0.9888 -1.164551,2.417 -0.395508,1.4063 -0.395508,3.1861 0,1.7798 0.395508,3.186 0.41748,1.4063 1.164551,2.395 0.769043,0.9668 1.845703,1.4942 1.076658,0.5273 2.416988,0.5273 z" />
      <path
         inkscape:connector-curvature="0"
         id="path4156"
         d="m 132.07958,1398.9458 0,-13.7329 q 0,-1.4502 -0.35156,-2.4609 -0.35156,-1.0328 -0.9668,-1.67 -0.61523,-0.6591 -1.45019,-0.9448 -0.83496,-0.3076 -1.82373,-0.3076 -1.05469,0 -1.95557,0.2856 -0.90088,0.2637 -1.56006,0.8789 -0.65918,0.6153 -1.05469,1.648 -0.37353,1.0107 -0.37353,2.4829 l 0,13.8208 -4.68018,0 0,-23.0054 4.68018,0 0,2.2193 q 1.1206,-1.4283 2.5708,-2.0874 1.4502,-0.6592 3.36182,-0.6592 1.80175,0 3.31787,0.5273 1.51611,0.5054 2.61474,1.67 1.12061,1.1645 1.73584,3.0322 0.61524,1.8677 0.61524,4.5703 l 0,13.7329 -4.68018,0 z" />
      <path
         inkscape:connector-curvature="0"
         id="path4158"
         d="m 149.92138,1399.4951 q -1.36231,0 -2.35108,-0.4175 -0.96679,-0.3955 -1.604,-1.1425 -0.61523,-0.7471 -0.90088,-1.8018 -0.28564,-1.0767 -0.28564,-2.373 l 0,-13.7549 -3.55957,0 0,-4.065 3.55957,0 0,-7.229 4.68017,-2.2632 0,9.4922 5.44922,0 0,4.065 -5.44922,0 0,12.5464 q 0,0.5712 0.0879,1.0546 0.10987,0.4834 0.35157,0.835 0.26367,0.3516 0.70312,0.5493 0.43945,0.1758 1.12061,0.1758 1.66992,0 3.40576,-1.0767 l -0.57129,4.3506 q -0.9668,0.4834 -2.10938,0.7691 -1.14257,0.2856 -2.52685,0.2856 z" />
      <path
         inkscape:connector-curvature="0"
         id="path4160"
         d="m 169.6748,1399.4951 q -2.417,0 -4.37256,-0.813 -1.9336,-0.813 -3.2959,-2.351 -1.3623,-1.5601 -2.10937,-3.7793 -0.7251,-2.2413 -0.7251,-5.0757 0,-2.8345 0.7251,-5.0757 0.74707,-2.2412 2.10937,-3.7793 1.3623,-1.5601 3.2959,-2.3731 1.95556,-0.8349 4.37256,-0.8349 2.39502,0 4.35058,0.8349 1.95557,0.813 3.31787,2.3731 1.36231,1.5381 2.10938,3.7793 0.74707,2.2412 0.74707,5.0757 0,2.8344 -0.74707,5.0757 -0.74707,2.2192 -2.10938,3.7793 -1.3623,1.538 -3.31787,2.351 -1.95556,0.813 -4.35058,0.813 z m 0,-4.4165 q 1.34033,0 2.41699,-0.5273 1.09863,-0.5274 1.8457,-1.4942 0.76905,-0.9887 1.16455,-2.395 0.41748,-1.4062 0.41748,-3.186 0,-1.7798 -0.41748,-3.1861 -0.3955,-1.4282 -1.16455,-2.417 -0.74707,-0.9887 -1.8457,-1.5161 -1.07666,-0.5273 -2.41699,-0.5273 -1.34033,0 -2.417,0.5273 -1.07666,0.5274 -1.8457,1.5161 -0.74707,0.9888 -1.16455,2.417 -0.39551,1.4063 -0.39551,3.1861 0,1.7798 0.39551,3.186 0.41748,1.4063 1.16455,2.395 0.76904,0.9668 1.8457,1.4942 1.07667,0.5273 2.417,0.5273 z" />
      <path
         inkscape:connector-curvature="0"
         id="path4162"
         d="m 184.66015,1388.0474 0,-4.043 17.77588,0 0,4.043 -17.77588,0 z" />
      <path
         inkscape:connector-curvature="0"
         id="path4164"
         d="m 208.78613,1398.9458 0,-31.5088 12.65625,0 q 2.90039,0 4.87792,0.8569 1.99952,0.835 3.20801,2.1973 1.23047,1.3623 1.75782,3.0982 0.54931,1.7138 0.54931,3.4936 0,1.0986 -0.26367,2.2412 -0.2417,1.1426 -0.76904,2.2193 -0.52735,1.0546 -1.36231,1.9995 -0.83496,0.9448 -1.99951,1.6479 -1.14258,0.7031 -2.63672,1.1206 -1.49414,0.3955 -3.36181,0.3955 l -7.97608,0 0,12.2388 -4.68017,0 z m 12.91992,-16.7432 q 1.47217,0 2.46093,-0.4614 1.01075,-0.4614 1.62598,-1.1865 0.63721,-0.7471 0.90088,-1.648 0.28564,-0.9228 0.28564,-1.8237 0,-0.835 -0.24169,-1.7358 -0.2417,-0.9009 -0.83497,-1.648 -0.59326,-0.769 -1.62597,-1.2524 -1.01074,-0.5054 -2.5708,-0.5054 l -8.23975,0 0,10.2612 8.23975,0 z" />
      <path
         inkscape:connector-curvature="0"
         id="path4166"
         d="m 246.35937,1399.4951 q -2.39502,0 -4.32862,-0.813 -1.93359,-0.8349 -3.29589,-2.373 -1.36231,-1.5601 -2.10938,-3.8013 -0.7251,-2.2412 -0.7251,-5.0757 0,-2.8344 0.74707,-5.0537 0.74707,-2.2412 2.10938,-3.7793 1.38428,-1.56 3.2959,-2.373 1.93359,-0.813 4.30664,-0.813 2.04345,0 3.82324,0.6592 1.80176,0.6372 3.14209,1.9775 1.3623,1.3184 2.13135,3.3398 0.79101,2.0215 0.79101,4.7681 0,0.7471 -0.0439,1.582 -0.022,0.835 -0.13184,1.4502 l -15.49072,0 q 0.022,1.4283 0.50537,2.5708 0.50537,1.1206 1.31836,1.9336 0.81299,0.7911 1.8457,1.2305 1.03272,0.4175 2.15332,0.4175 1.42823,0 2.63672,-0.5933 1.23047,-0.5932 2.13135,-1.7358 l 3.0542,3.1421 q -1.25244,1.4941 -3.20801,2.417 -1.95557,0.9228 -4.6582,0.9228 z m 0,-19.9512 q -1.09864,0 -2.10938,0.3296 -1.01074,0.3077 -1.80176,1.0108 -0.76904,0.6811 -1.27441,1.8017 -0.50537,1.1206 -0.59326,2.7246 l 10.98633,0 q -0.0439,-1.604 -0.50537,-2.7246 -0.46143,-1.1206 -1.2085,-1.8017 -0.74707,-0.7031 -1.66992,-1.0108 -0.90088,-0.3296 -1.82373,-0.3296 z" />
      <path
         inkscape:connector-curvature="0"
         id="path4168"
         d="m 279.27441,1398.9458 -4.48243,0 0,-1.9775 q -0.43945,0.4614 -1.05468,0.9228 -0.61524,0.4395 -1.40625,0.813 -0.76905,0.3516 -1.73584,0.5713 -0.9668,0.2197 -2.10938,0.2197 -1.75781,0 -3.25195,-0.4834 -1.49414,-0.4834 -2.59277,-1.4502 -1.09864,-0.9887 -1.73584,-2.417 -0.61524,-1.4502 -0.61524,-3.3618 0,-1.9775 0.74707,-3.4057 0.74707,-1.4502 1.97754,-2.3731 1.23047,-0.9448 2.8125,-1.3843 1.604,-0.4394 3.2959,-0.4394 1.58203,0 3.03223,0.3515 1.47216,0.3296 2.63671,1.0108 l 0,-1.2744 q 0,-1.2964 -0.30761,-2.1973 -0.28565,-0.9009 -0.90088,-1.4502 -0.59326,-0.5713 -1.51611,-0.813 -0.92286,-0.2637 -2.19727,-0.2637 -2.15332,0 -3.73535,0.5713 -1.56006,0.5713 -2.83447,1.5161 l -1.38428,-3.8452 q 0.70312,-0.4834 1.604,-0.9008 0.90088,-0.4395 1.97754,-0.7691 1.07666,-0.3296 2.3291,-0.5054 1.25244,-0.1977 2.68067,-0.1977 0.96679,0 1.99951,0.1098 1.03271,0.1099 1.99951,0.4395 0.98877,0.3076 1.8457,0.9009 0.87891,0.5932 1.51612,1.56 0.65918,0.9449 1.03271,2.3291 0.37354,1.3843 0.37354,3.2959 l 0,14.8975 z m -9.93164,-3.6035 q 1.77978,0 3.14209,-0.7251 1.38427,-0.7251 2.30712,-1.7359 l 0,-3.5156 q -0.96679,-0.5053 -2.26318,-0.813 -1.29639,-0.3076 -2.65869,-0.3076 -1.05469,0 -1.97754,0.1978 -0.92285,0.1977 -1.62598,0.6372 -0.68115,0.4175 -1.07666,1.0986 -0.3955,0.6592 -0.3955,1.604 0,1.648 1.14257,2.6148 1.16455,0.9448 3.40577,0.9448 z" />
      <path
         inkscape:connector-curvature="0"
         id="path4170"
         d="m 285.64648,1398.9458 0,-23.0054 4.68017,0 0,2.7906 q 0.81299,-1.7579 2.10938,-2.5269 1.29638,-0.791 3.01025,-0.791 2.28516,0 3.86719,1.3843 l -0.68115,4.3286 q -0.63721,-0.4395 -1.51612,-0.7691 -0.85693,-0.3515 -2.10937,-0.3515 -0.79102,0 -1.62598,0.2856 -0.81299,0.2637 -1.49414,0.9668 -0.68115,0.6812 -1.1206,1.8457 -0.43946,1.1426 -0.43946,2.9224 l 0,12.9199 -4.68017,0 z" />
      <path
         inkscape:connector-curvature="0"
         id="path4172"
         d="m 310.937,1399.4951 q -1.3623,0 -2.65869,-0.2637 -1.29638,-0.2636 -2.43896,-0.747 -1.12061,-0.4834 -2.04346,-1.1646 -0.92285,-0.7031 -1.53809,-1.56 l 3.31788,-2.8345 q 0.35156,0.3296 0.85693,0.7471 0.50537,0.3955 1.16455,0.747 0.65918,0.3516 1.47217,0.5933 0.81299,0.2417 1.77978,0.2417 0.87891,0 1.62598,-0.1318 0.74707,-0.1319 1.27441,-0.4175 0.54932,-0.2857 0.83497,-0.7471 0.30761,-0.4834 0.30761,-1.1865 0,-0.813 -0.57129,-1.3843 -0.54931,-0.5933 -1.45019,-1.0547 -0.90088,-0.4834 -2.04346,-0.9009 -1.14258,-0.4394 -2.30713,-0.9228 -1.07666,-0.4614 -2.10937,-1.0108 -1.03272,-0.5493 -1.84571,-1.3183 -0.79101,-0.7691 -1.29638,-1.8237 -0.4834,-1.0767 -0.4834,-2.5928 0,-1.5381 0.61523,-2.7246 0.63721,-1.1865 1.71387,-1.9776 1.09863,-0.813 2.54883,-1.2304 1.47217,-0.4175 3.14209,-0.4175 1.47217,0 2.70263,0.2856 1.25245,0.2857 2.24122,0.7691 1.01074,0.4834 1.77978,1.1206 0.76904,0.6152 1.34033,1.2964 l -3.38379,2.6806 q -0.30761,-0.3076 -0.74707,-0.6372 -0.41748,-0.3515 -0.98877,-0.6372 -0.57128,-0.2856 -1.29638,-0.4614 -0.7251,-0.1978 -1.64795,-0.1978 -1.49414,0 -2.37305,0.5494 -0.85693,0.5493 -0.85693,1.582 0,0.6592 0.46142,1.1645 0.46143,0.4834 1.25244,0.9009 0.79102,0.4175 1.80176,0.813 1.03272,0.3735 2.15332,0.813 1.18653,0.4614 2.3291,1.0327 1.14258,0.5713 2.02149,1.4063 0.90088,0.8349 1.42822,2.0214 0.54932,1.1866 0.54932,2.8565 0,1.6479 -0.61524,2.9223 -0.61523,1.2525 -1.75781,2.1094 -1.1206,0.835 -2.72461,1.2525 -1.58203,0.4394 -3.5376,0.4394 z" />
      <path
         inkscape:connector-curvature="0"
         id="path4174"
         d="m 334.55761,1399.4951 q -2.41699,0 -4.37256,-0.813 -1.93359,-0.813 -3.2959,-2.351 -1.3623,-1.5601 -2.10937,-3.7793 -0.7251,-2.2413 -0.7251,-5.0757 0,-2.8345 0.7251,-5.0757 0.74707,-2.2412 2.10937,-3.7793 1.36231,-1.5601 3.2959,-2.3731 1.95557,-0.8349 4.37256,-0.8349 2.39502,0 4.35059,0.8349 1.95556,0.813 3.31787,2.3731 1.3623,1.5381 2.10937,3.7793 0.74707,2.2412 0.74707,5.0757 0,2.8344 -0.74707,5.0757 -0.74707,2.2192 -2.10937,3.7793 -1.36231,1.538 -3.31787,2.351 -1.95557,0.813 -4.35059,0.813 z m 0,-4.4165 q 1.34033,0 2.41699,-0.5273 1.09863,-0.5274 1.8457,-1.4942 0.76905,-0.9887 1.16456,-2.395 0.41748,-1.4062 0.41748,-3.186 0,-1.7798 -0.41748,-3.1861 -0.39551,-1.4282 -1.16456,-2.417 -0.74707,-0.9887 -1.8457,-1.5161 -1.07666,-0.5273 -2.41699,-0.5273 -1.34033,0 -2.41699,0.5273 -1.07666,0.5274 -1.84571,1.5161 -0.74707,0.9888 -1.16455,2.417 -0.3955,1.4063 -0.3955,3.1861 0,1.7798 0.3955,3.186 0.41748,1.4063 1.16455,2.395 0.76905,0.9668 1.84571,1.4942 1.07666,0.5273 2.41699,0.5273 z" />
      <path
         inkscape:connector-curvature="0"
         id="path4176"
         d="m 364.90185,1398.9458 0,-13.7329 q 0,-1.4502 -0.35156,-2.4609 -0.35157,-1.0328 -0.9668,-1.67 -0.61524,-0.6591 -1.4502,-0.9448 -0.83496,-0.3076 -1.82373,-0.3076 -1.05468,0 -1.95556,0.2856 -0.90088,0.2637 -1.56006,0.8789 -0.65918,0.6153 -1.05469,1.648 -0.37353,1.0107 -0.37353,2.4829 l 0,13.8208 -4.68018,0 0,-23.0054 4.68018,0 0,2.2193 q 1.1206,-1.4283 2.5708,-2.0874 1.45019,-0.6592 3.36181,-0.6592 1.80176,0 3.31787,0.5273 1.51612,0.5054 2.61475,1.67 1.1206,1.1645 1.73584,3.0322 0.61523,1.8677 0.61523,4.5703 l 0,13.7329 -4.68017,0 z" />
    </g>
  </g>
</svg>
