<?xml version="1.0" encoding="UTF-8" standalone="no"?>
<!-- Created with Inkscape (http://www.inkscape.org/) -->

<svg
   xmlns:dc="http://purl.org/dc/elements/1.1/"
   xmlns:cc="http://creativecommons.org/ns#"
   xmlns:rdf="http://www.w3.org/1999/02/22-rdf-syntax-ns#"
   xmlns:svg="http://www.w3.org/2000/svg"
   xmlns="http://www.w3.org/2000/svg"
   xmlns:sodipodi="http://sodipodi.sourceforge.net/DTD/sodipodi-0.dtd"
   xmlns:inkscape="http://www.inkscape.org/namespaces/inkscape"
   width="1125.4004"
   height="1439.618"
   viewBox="0 0 1125.4004 1439.618"
   id="svg2"
   version="1.1"
   inkscape:version="0.91 r13725"
   sodipodi:docname="BOS Diff.svg"
   inkscape:export-filename="C:\Users\paulb\OneDrive\Projects\Terminal Silhouettes\Silhouettes\Misc\Diff\BOS Diff.png"
   inkscape:export-xdpi="90"
   inkscape:export-ydpi="90">
  <sodipodi:namedview
     id="base"
     pagecolor="#ffffff"
     bordercolor="#666666"
     borderopacity="1.0"
     inkscape:pageopacity="1"
     inkscape:pageshadow="2"
     inkscape:zoom="0.70710678"
     inkscape:cx="655.03307"
     inkscape:cy="662.69426"
     inkscape:document-units="px"
     inkscape:current-layer="layer1"
     showgrid="false"
     units="px"
     fit-margin-top="100"
     fit-margin-left="100"
     fit-margin-right="100"
     fit-margin-bottom="100"
     inkscape:window-width="1920"
     inkscape:window-height="1137"
     inkscape:window-x="1912"
     inkscape:window-y="-8"
     inkscape:window-maximized="1"
     showguides="true"
     inkscape:guide-bbox="true"
     inkscape:object-nodes="true"
     inkscape:snap-smooth-nodes="true"
     inkscape:snap-midpoints="false"
     inkscape:snap-object-midpoints="true"
     inkscape:snap-intersection-paths="true"
     inkscape:snap-page="true" />
  <defs
     id="defs4" />
  <metadata
     id="metadata7">
    <rdf:RDF>
      <cc:Work
         rdf:about="">
        <dc:format>image/svg+xml</dc:format>
        <dc:type
           rdf:resource="http://purl.org/dc/dcmitype/StillImage" />
        <dc:title />
      </cc:Work>
    </rdf:RDF>
  </metadata>
  <g
     inkscape:groupmode="layer"
     id="layer6"
     inkscape:label="Background"
     transform="translate(71.721268,106.65716)"
     style="display:inline"
     sodipodi:insensitive="true">
    <rect
       style="opacity:1;fill:#dbdcdf;fill-opacity:1;stroke:none;stroke-width:1.25;stroke-linecap:butt;stroke-linejoin:miter;stroke-miterlimit:4;stroke-dasharray:none;stroke-dashoffset:0;stroke-opacity:1"
       id="rect6996"
       width="1125.4004"
       height="1439.618"
       x="-71.721268"
       y="-106.65716" />
  </g>
  <g
     inkscape:groupmode="layer"
     id="layer2"
     inkscape:label="Unchanged"
     transform="translate(-115.87255,-211.20284)"
     style="display:inline" />
  <g
     inkscape:groupmode="layer"
     id="layer9"
     inkscape:label="Deleted"
     style="display:inline"
     transform="translate(-49.999942,4.1e-4)" />
  <g
     inkscape:groupmode="layer"
     id="layer8"
     inkscape:label="Added"
     style="display:inline"
     transform="translate(-49.999942,4.1e-4)">
    <path
       style="display:inline;fill:#60646c;fill-opacity:1;fill-rule:evenodd;stroke:none;stroke-width:1.5;stroke-linecap:butt;stroke-linejoin:miter;stroke-miterlimit:4;stroke-dasharray:none;stroke-opacity:1"
       d="m 574.77148,132.17969 -9.51367,2.08593 -10.15625,15.5 -7.60547,-4.35546 -3.17578,4.83789 -23.58398,-15.26953 4.08203,18.5957 8.4668,5.59375 -9.37305,14.06055 3.92969,2.7207 1.66406,-2.26758 11.03516,7.4082 -36.51954,59.24024 11.80664,7.25 -1.32031,2.15234 -2.32031,-1.42578 -1.7832,2.90625 9.74609,5.9707 1.77734,-2.89648 -2.32226,-1.42578 1.32031,-2.15235 29.47266,18.09571 -1.32032,2.15234 -2.32031,-1.42383 -1.76367,2.87305 9.74414,5.97266 1.75977,-2.86719 -2.32227,-1.42383 1.32227,-2.15234 29.4707,18.09375 -1.32227,2.15234 -2.32031,-1.42578 -1.74609,2.84375 9.74609,5.9707 1.74024,-2.83398 -2.32227,-1.42578 1.32227,-2.15235 29.47265,18.09571 -1.32226,2.15234 -2.32032,-1.42578 -1.72656,2.8125 9.74805,5.97265 1.7207,-2.80468 -2.32226,-1.42578 1.32031,-2.15235 29.47266,18.09571 -1.32032,2.15234 -2.32031,-1.42578 -1.70898,2.7832 9.74609,5.9707 1.70312,-2.77343 -2.32226,-1.42578 1.32031,-2.15039 39.59766,24.30859 0.002,9.375 2.00391,1.17383 -2.00391,3.6289 0.004,16.83399 c 0.028,3.33867 0.14397,6.67358 0.35156,10.00586 1.11265,12.28209 3.44286,24.42503 6.95703,36.24609 l -9.48437,2.76953 c 0.28323,1.29373 0.5936,2.58972 0.96875,3.85156 l -3.8086,1.04493 c 21.05506,66.70974 75.50325,117.68101 143.67774,134.18164 l 0.0898,1.0625 -16.41016,-3.82422 c 3.5909,1.24861 7.50994,2.50446 11.62891,3.64453 l 5.44141,1.51172 7.10546,83.15234 c 0,0 -23.58315,9.67612 -39.0039,21.16602 0,0 -22.07314,16.02405 -35.67969,33.41015 l -10.60937,14.14454 -14.75391,-10.47657 -15.42773,24.41407 15.25195,7.59374 c -0.26221,0.51689 -0.51187,1.03955 -0.76953,1.5586 l -3.48242,-2.13281 -40.80664,66.625 -2.24415,-1.375 -3.88476,6.50781 7.28906,4.46484 -0.85351,1.39453 1.39453,0.85157 -2.37696,3.88086 1.43946,1.03125 -7.05664,13.25585 -1.76368,5.01954 0.0918,0.38281 -0.24805,0.0586 -0.61132,1.74219 0.74023,3.08008 1.22266,-0.29492 3.99023,16.60156 23.55469,98.00976 -0.01,0.002 4.45703,18.54101 0.006,-0.002 9.85547,41.00585 -0.006,0 4.45508,18.541 0.006,0 9.85547,41.0059 -0.006,0 4.45703,18.5391 0.002,0 9.85547,41.0059 -0.002,0 3.37695,14.0566 17.16211,71.4023 -14.70312,40.4317 1.44726,0.6191 -0.28711,0.8809 0.0625,0.023 -0.6582,1.8106 -1.89844,5.8379 5.98828,2.3515 -9.19336,24.3731 -15.60937,2.9941 -0.67773,-0.4863 -1.66211,0.3183 -12.05664,-8.4726 3.67382,-3.1367 -52.6289,-61.6407 -0.19922,-0.8281 -8.71485,-10.207 5.23633,-4.2637 -0.28125,-1.1719 3.14844,-2.6875 -14.82031,-61.666 0.84179,-0.2011 -4.46874,-18.5391 -0.82618,0.1992 -9.85547,-41.0059 0.79688,-0.1914 -4.46875,-18.5371 -0.78125,0.1875 -9.85547,-41.0058 0.75195,-0.1817 -6.55664,-27.1992 -0.72851,0.1895 0.0137,0.055 -2.72266,0.6543 -19.69531,5.1484 12.39844,51.4023 -13.9082,3.4785 -0.0586,-0.1171 -1.03711,0.25 -0.43164,-1.7969 -15.48242,3.7793 -0.37695,2.5703 -6.26758,0.8691 -1.36914,0.3282 -0.16602,40.1972 4.24024,-1.0195 0.21093,0.8828 0.67579,-0.1836 1.60351,5.8809 -45.00586,11.2246 -2.24609,-9.1934 -41.42383,10.6582 0.0977,0.4063 -2.19141,0.5273 1.93359,7.3281 -0.39843,0.1055 0.0293,0.125 -6.04492,1.4531 -23.73437,6.2286 5.00976,22.6269 30.30274,-7.2832 0.9375,3.9023 0.74023,-0.2168 1.06641,3.5899 1.49023,-0.3574 0.084,0.3554 45.89843,-11.5293 -1.77539,-7.3867 11.73047,-2.8183 -0.38281,0.623 31.36523,-7.9199 1.39063,6.5215 10.15625,-2.1387 0.64062,2.2441 24.48047,-5.0234 -0.42773,-2.2461 6.73633,-1.1758 14.85937,60.293 -16.92578,4.0293 5.52344,22.5391 4.83398,-1.1621 0.14649,0.049 8.84765,-2.5274 1.88867,7.3321 -9.67578,-0.9063 2.19336,12.0938 c 0,0 4.38303,24.9462 26.30469,41.123 l 13.98437,9.9922 48.76368,34.2695 31.28906,-1.3281 1.36133,-2.8711 1.72851,0.1094 28.88086,-79.4102 -0.37305,-0.373 21.27149,-57.084 16.97851,-46.6816 -9.42382,2.0175 -10.80469,2.5977 -0.70899,1.9512 -3.01562,-1.0977 -2.42188,-0.7012 -2.24414,6.1739 -0.15039,0.035 -0.10742,0.5664 -13.30469,3.3262 -0.15429,-0.6309 -0.72852,0.1758 -11.9414,-49.6875 0.84374,-0.2031 c 0.21237,-0.4826 0.50732,-1.2225 0.90821,-2.4746 1.27688,-5.3994 3.21522,-18.975 -5.40039,-31.082 -1.25364,-1.6266 -2.70097,-3.2461 -4.39063,-4.8418 l -3.32422,0.9062 -0.13867,-0.5762 -0.46875,0.1133 -4.86914,-20.2578 3.73242,-0.8965 -2.02734,-8.4297 -3.63672,1.0196 -0.0449,-0.1778 -0.0586,0.014 -0.94336,-3.9258 -0.61719,-2.4101 0.0352,-0.01 -0.33398,-1.3926 40.52148,-9.7383 -5.44921,-21.3652 0.0469,-0.012 -0.18359,-0.7597 45.41406,-10.91604 0.19531,0.8125 11.89649,-2.8457 -0.19922,-0.82422 19.5332,-4.69532 1.83594,7.64063 20.22851,-4.86133 c 0,0 0.10574,-0.57816 0.18164,-0.97851 l 0.37696,-7.05469 c 0,0 0.25261,-2.06797 0.1289,-5.19336 -0.1728,-2.1865 -0.49036,-4.53481 -1.04882,-6.98438 l 0.002,0 c -0.71233,-3.12419 -1.81767,-6.39695 -3.43359,-9.65234 -0.34081,-0.59028 -0.69727,-1.17756 -1.08985,-1.75391 l -4.6582,-6.30859 -2.85156,0.68555 -16.90821,4.34765 1.77149,7.3711 -1.47461,0.35351 0.084,0.35547 -57.30078,13.75781 -0.0879,-0.33984 -1.42383,0.3418 -1.05078,-4.37305 -9.95508,2.33594 1.0625,4.42773 -2.82422,0.67774 -2.35742,-9.81055 -26.38867,-6.07422 -0.0625,0.41602 -2.41797,-0.30078 -26.60742,6.5 c 3.5e-4,-0.009 -0.13318,-0.59369 -0.14844,-0.66993 l -0.52344,0.125 -24.87109,-103.48047 -17.46875,4.19727 -3.99219,-16.60156 4.57227,-1.09766 -1.10156,-4.58789 -1.95704,0.46875 -0.60937,-2.53906 9.36719,-15.29688 1.39453,0.85157 0.85156,-1.39258 4.14063,2.53515 1.82226,-2.97461 -3.67969,-2.10351 1.35938,-2.11719 -0.90625,-0.45312 1.76172,-2.93555 -1.08008,-0.66211 0.0684,-0.11328 -6.19336,-4 1.55469,-2.68359 -0.11328,-0.0684 -1.78125,2.90625 -1.39063,-0.85547 -0.85351,1.39453 -0.94922,-0.58008 9.3164,-15.20898 2.1875,1.33984 5.76172,-9.94531 -1.94726,-1.19336 21.58203,-35.24219 c -1.36848,3.03803 -2.64494,6.11548 -3.86133,9.2168 l 7.17187,-12.37696 9.40625,4.49024 c 0,0 -2.35009,5.55997 -4.06054,10.26367 l 7.14258,2.74023 c 0.15872,-0.40283 0.30907,-0.80925 0.4707,-1.21093 l 8.39453,3.40625 c 1.877,-4.79071 10.3652,-25.16303 25.89648,-44.0625 l -5.77343,-5.13086 c 0,0 0.56151,-0.63335 1.47656,-1.63672 l -0.92188,-0.77734 c 4.49111,-5.38565 9.29431,-10.50499 14.38282,-15.33008 l 7.18945,7.66406 c 14.41811,-13.45956 31.07495,-24.2979 49.2207,-32.0293 l 15.26367,-1.30468 0.2129,2.48828 22.42773,-1.80664 -0.22266,-2.59961 6.90625,-0.58789 -1.20703,-14.13672 5.03907,-0.42969 0.98437,0.61719 -1.83789,2.92968 8.81055,5.53126 -1.16993,1.86718 1.45508,0.91406 3.16016,-5.03906 1.2832,0.85547 -3.07617,5.04102 40.47656,25.40429 -0.74804,1.19336 9.6582,6.04297 0.74023,-1.17773 28.27735,17.75 1.17383,-1.86719 1.90624,1.19727 0.8086,-1.41602 23.08983,14.53906 -23.30467,38.0586 -0.98438,-0.72266 -5.69727,-3.57422 -3.24218,4.9375 -0.48828,-0.32226 -0.0606,0.0957 -1.80469,-1.13281 -6.89844,10.49804 18.03907,11.32227 77.60544,-123.63867 -18.5254,-11.5293 -10.5859,15.50195 3.5293,2.45899 -2.8867,4.16797 c 0,0 -1.1763,1.49649 0.748,2.77929 l 4.4903,3.20703 -3.6348,5.88086 -9.5137,-5.77343 -17.7461,27.36718 -13.3633,-7.58984 0.6075,-1.21875 -1.9629,-1.23242 0.1523,-0.24219 -23.1699,-14.19922 2.13281,-3.64062 -2.14453,-1.34571 6.97461,-11.11523 -21.39649,-13.50977 -9.29882,15.28711 -19.56446,-12.1875 2.45899,-4.06054 -12.40039,-7.48438 -0.0664,-2.17773 -0.76953,-0.48242 -0.11524,-1.375 18.24805,-7.70508 -1.22461,-14.34961 1.1543,-0.0977 -3.62305,-42.4082 c -0.0834,-0.65959 -0.15651,-1.29837 -0.24219,-1.96094 l -1.49609,0 -0.57031,-11.41406 -0.30664,-3.58594 -25.31446,-6.59375 2.25977,-2 -4.65039,-1.08398 3.22851,-2.89454 1.47266,1.64063 11.32617,-10.1582 1.21289,1.35547 16.8125,-14.87696 -1.3125,-1.46484 21.40625,-19.19727 1.34375,1.49414 16.71094,-14.98828 -1.3418,-1.49414 4.18946,-3.75976 -2.63477,-2.69922 3.84766,-3.10157 0.95508,0.89844 7.99218,-7.16601 2.34961,2.61914 0.46288,-0.41407 18.707,20.84571 -0.4707,0.41992 2.4649,2.74805 2.2676,-2.03321 1.8105,2.01953 0.9824,-1.01562 4.918,5.23828 -1.1582,1.06641 4.5898,5.11719 15.5957,-13.98438 -96.53121,-107.6543 -15.1582,14.48242 4.64844,5.1836 0.88867,-0.85156 6.62891,7.16211 -5.09766,4.92773 37.4043,41.70898 -0.97852,0.87891 1.81055,1.98242 -8.55274,7.58985 -2.13867,-2.35157 -61.72265,56.6211 -3.21289,-3.30078 -2.18946,1.96289 1.3418,1.49414 -5.83203,5.22656 -3.6875,-4.10938 6.39648,-7.82812 -4.63281,-3.78516 -0.73047,0.66407 -13.30469,-10.88672 -17.6875,-0.90625 1.05664,20.41015 -5.44336,5.14063 c 0,0 -0.75766,-0.0859 -1.41601,-0.16211 l -2.56641,3.14062 c -0.0407,-0.006 -0.0804,-0.0119 -0.12109,-0.0176 l 0.53516,-3.42188 c -4.55765,-0.68675 -13.19633,-2.33851 -24.24805,-6.1914 l -1.20899,3.6289 c 0,0 -40.06576,-12.24748 -72.57031,-48.83398 l -1.50976,1.21093 c 0,0 -11.64041,-12.6985 -21.64844,-31.92578 -6.33714,-11.72585 -11.25672,-24.17974 -14.62891,-37.10351 l 3.83789,-0.98633 c -0.26764,-1.14358 -0.51886,-2.29046 -0.76172,-3.43945 l -2.93164,0.28125 c 0,0 -0.5637,-1.23377 -1.20703,-3.74414 l -0.64258,0.13281 c -1.43275,-6.43541 -2.48277,-12.94981 -3.14257,-19.50977 -0.18559,-2.97955 -0.28944,-5.96201 -0.31446,-8.94726 l 0.01,-28.26953 7.16992,4.40234 1.97656,-3.2207 -0.30468,-0.13086 1.39062,-2.26563 -1.0918,-4.5664 27.42383,-44.66797 -2.8457,-11.89453 -9.97852,-6.12696 1.00391,-1.60156 -0.82617,-0.50781 0.88281,-1.43946 0.83984,0.51563 1.66016,-2.64844 -0.86133,-0.52929 0.60547,-0.98829 0.87109,0.53516 1.66016,-2.64844 -0.89844,-0.55078 2.85938,-4.6582 5.24414,3.2207 3.07812,-5.01367 -4.93164,-2.88477 1.72071,-2.70312 -0.41993,-0.25781 -0.42578,-0.26172 11.24805,-18.32032 -1.12305,-4.69921 -12.8125,-7.32227 -5.89648,1.51172 -3.02539,4.83789 -1.0586,-0.60352 -9.82617,14.81641 -46.86523,-28.42383 2.05859,-3.11719 -1.0625,-0.65234 13.39063,-21.8125 -15.29493,-9.3418 -4.56835,6.5879 4.67773,2.87304 -1.49414,2.4336 -4.8125,-2.95508 -0.30274,0.43554 6.6504,4.38282 -1.51172,2.41992 -31.14258,-18.5957 -2.57031,-9.22266 0.15429,-0.24609 -0.95703,-4 6.28906,-10.2461 -2.58007,-1.4375 -3.52735,5.87891 -5.23828,-2.35156 -11.75781,5.88086 -0.96289,-0.53516 -3.5293,5.8789 -19.5625,-11.54492 -2.88476,4.81055 -2.09961,-1.20508 -0.25196,0.41016 -13.76562,-8.45117 -10.7168,-6.14844 0.18555,-0.31836 -6.70313,-4.11328 -0.26953,0.36914 -3.52929,-2.35156 0.16601,-0.25 -2.12305,-1.30274 12.85352,-20.93359 -3.35938,-1.99414 z m 188.91797,159.72656 -5.89648,10.13086 -0.12305,0.0254 6.52735,4.00781 3.16992,-5.16406 -1.91407,-8.00195 -1.76367,-0.99805 z m -63.03711,3.4707 17.97266,11.03321 -0.46875,0.75976 0.45508,1.90625 9.99414,6.44141 8.97851,-14.75196 2.13868,1.06836 -26.29688,41.26563 4.49024,3.20898 -5.13282,7.48243 -5.13086,-3.63477 -4.91796,6.8418 -18.59961,-11.75977 1.72851,-2.6543 -10.33594,-6.2832 25.125,-40.92383 z m -357.07617,441.42578 -0.002,0.004 -4.52149,1.42188 1.77539,5.86914 4.38477,-1.35938 1.51172,5.59375 -1.81445,2.87109 -0.0723,-0.0547 0.2168,0.68945 -1.71485,-1.05469 -1.35546,2.20703 -1.46485,0.46094 -0.55664,0.7793 0.42773,1.35742 -0.0781,0.12695 0.81836,0.47852 -1.16211,1.41797 1.30859,0.80469 0.20118,0.63671 2.82617,1.97852 -3.32617,4.98828 5.73632,3.63867 0.4961,-0.81445 3.95508,2.42969 -2.07813,0.65234 1.73242,5.50977 -1.21289,0.38086 11.02539,35.67578 -1.35351,2.16601 0.20312,0.64844 -0.68359,1.11328 1.98437,1.36328 -12.69922,18.89844 26.91211,16.78125 -1.81445,2.87305 6.45703,3.8457 0.83594,-1.35937 0.63867,0.39257 0.83594,-1.36718 13.00195,8.46484 -1.51172,2.72266 6.50586,3.92968 0.97657,-1.58984 0.71874,0.44141 0.56836,-0.9668 8.61719,5.44141 -0.52148,0.84375 4.28515,2.63085 -0.004,0.11915 0.47265,0.0352 -0.15039,28.57422 25.85157,-14.21094 3.6289,2.41797 -0.71679,0.92188 5.13476,3.15039 -1.15039,1.875 0.66406,0.70508 7.85352,4.00195 0.91797,-1.49414 0.10351,0.0625 0.34571,-0.60547 8.61718,4.99023 -1.66211,2.72071 8.19532,4.82812 1.07812,-1.75781 0.26563,0.16211 0.58984,-0.96484 16.93359,9.97851 -2.26757,3.62695 7.86132,4.6875 2.26758,-3.02343 9.37305,5.74414 18.03711,-28.19922 0.14844,-0.24024 0.004,0.002 3.2793,-5.125 9.5293,5.42773 5.81054,-9.46484 -5.81054,-3.56836 3.15625,-5.13867 10.75195,-7.1211 -3.96094,-1.64453 1.33984,-0.88672 -4.33789,-1.94336 1.0586,-1.66406 -0.0801,-0.0332 -2.71289,1.79687 0.76172,-1.23828 -8.8457,-3.67383 0.59765,-0.97265 -24.03906,-9.63672 -103.10742,-63.79883 -19.48438,-16.95898 -0.76172,1.24218 -10.03125,-8.58398 -0.11132,0.11133 -5.84766,-5.20703 -0.88477,-0.75782 -1.39453,1.62891 -16.0332,-13.71484 0.63281,-1.03321 -1.4082,-0.86523 0.66015,-1.07617 -6.03906,-4.6543 -1.08203,1.76562 -0.25781,-0.1582 -4.75391,-15.12305 z m -156.32812,84.68946 -3.42188,60.7207 -2.06445,-0.12695 -0.0273,0.40234 -11.82813,-0.80664 -8.66016,122.49606 3.19532,0.2168 -1.61914,23.6953 -3.25,-0.2226 -9.52735,134.7519 25.23633,2.2286 0.0156,0 0.93359,-13.6914 3.27539,0.2227 0.66211,-9.6993 -3.27539,-0.2246 1.83594,-26.8984 3.27539,0.2226 0.66211,-9.6992 -0.68946,-0.047 -1.57031,-0.037 0.004,-0.07 -1.01954,-0.07 0.93555,-13.6914 0.92188,0.062 0.0137,-0.2344 5.63281,0.2813 0.75781,-11.1035 0.72852,0.049 0.043,-0.6641 2.54883,0.17 0.61718,-9.0313 -3.27539,-0.2246 1.44336,-21.1406 55.98633,-27.4219 -7.53711,-5.1934 -44.19531,-29.70308 0.28125,-4.13477 1,0.0684 0.0801,-1.3125 2.28125,0.20117 0.57617,-8.43359 -3.27539,-0.22461 0.99804,-14.61328 0.56836,0.0391 0.0274,-0.48828 2.71484,0.16016 0.62695,-9.1875 -3.27539,-0.22461 0.28321,-4.13477 -6.54688,-0.44726 1.74805,-25.60742 0.95508,0.0644 0.0723,-1.03125 2.32227,0.125 0.58984,-8.63672 -3.27734,-0.22266 1.75,-25.60937 -6.69141,-0.45703 0.87696,-12.83594 0.51953,0.0332 0.62695,-9.19726 -0.99219,-0.0723 0.0254,-0.49805 -2.56054,-0.17578 1.99023,-29.16601 0.51953,0.0351 0.64453,-9.43359 -2.22265,-0.10156 z"
       id="path3349"
       inkscape:connector-curvature="0" />
    <path
       inkscape:connector-curvature="0"
       style="display:inline;fill:#ff7a7a;fill-opacity:0.49803922;fill-rule:evenodd;stroke:none;stroke-width:1.5;stroke-linecap:butt;stroke-linejoin:miter;stroke-miterlimit:4;stroke-dasharray:none;stroke-opacity:1"
       d="m 578.13086,134.17383 -12.85352,20.93359 2.12305,1.30274 13.67773,-20.48828 -2.94726,-1.74805 z m -6.35156,23.44922 -0.7461,1.01953 6.70313,4.11328 0.5625,-0.96484 -6.51953,-4.16797 z m 16.48828,11.59961 13.76562,8.45117 0.25196,-0.41016 -14.01758,-8.04101 z m 66.16015,2.66601 -6.28906,10.2461 0.95703,4 8.00977,-12.75586 -2.67774,-1.49024 z m 25.01954,32.72071 -1.62891,2.35156 4.8125,2.95508 1.49414,-2.4336 -4.67773,-2.87304 z m 19.86328,2.7539 -13.39063,21.8125 1.0625,0.65234 14.11524,-21.37304 -1.78711,-1.0918 z m -195.28907,32.9668 -3.11914,5.06054 9.50196,5.82227 1.7832,-2.90625 2.32031,1.42578 1.32031,-2.15234 -11.80664,-7.25 z m 260.38672,7.79883 1.12305,4.69921 -11.24805,18.32032 0.42578,0.26172 0.41993,0.25781 11.28125,-17.70703 -1.05664,-5.29102 -0.94532,-0.54101 z m -243.48242,2.58007 -1.32031,2.15235 2.32226,1.42578 -1.77734,2.89648 24.84375,15.22266 1.76367,-2.87305 2.32031,1.42383 1.32032,-2.15234 -29.47266,-18.09571 z m 34.57227,21.22657 -1.32227,2.15234 2.32227,1.42383 -1.75977,2.86719 24.8418,15.2207 1.74609,-2.84375 2.32031,1.42578 1.32227,-2.15234 -29.4707,-18.09375 z m 202.84179,5.32031 -3.07812,5.01367 -5.24414,-3.2207 -2.85938,4.6582 0.89844,0.55078 0.51367,-0.81836 5.59375,2.87305 5.44336,-8.31445 -1.26758,-0.74219 z m -12.81445,9.11523 -0.60547,0.98829 0.86133,0.52929 0.61523,-0.98242 -0.87109,-0.53516 z m -2.24414,3.65039 -0.88281,1.43946 0.82617,0.50781 0.89648,-1.43164 -0.83984,-0.51563 z m 22.17187,2.88282 1.91407,8.00195 -3.16992,5.16406 -6.52735,-4.00781 -4.11133,0.88086 -0.7539,-2.87305 -0.60547,-0.37304 2.8457,11.89453 -27.42383,44.66797 1.0918,4.5664 28.00781,-45.62695 -0.89258,-4.24414 9.67579,-1.20703 4.08203,-6.50196 -2.41992,-9.37304 -1.7129,-0.96875 z m -175.38671,0.2539 -1.32227,2.15235 2.32227,1.42578 -1.74024,2.83398 24.84375,15.22266 1.72656,-2.8125 2.32032,1.42578 1.32226,-2.15234 -29.47265,-18.09571 z m 110.58593,2.21875 -25.125,40.92383 10.33594,6.2832 7.46289,-11.45703 -7.48242,-4.49023 16.89063,-27.79492 15.87695,10.23437 -0.45508,-1.90625 0.46875,-0.75976 -17.97266,-11.03321 z m -76.01562,19.00586 -1.32031,2.15235 2.32226,1.42578 -1.7207,2.80468 24.8418,15.22266 1.70898,-2.7832 2.32031,1.42578 1.32032,-2.15234 -29.47266,-18.09571 z m 34.57031,21.22657 -1.32031,2.15039 2.32226,1.42578 -1.70312,2.77343 10.23437,6.27149 1.06836,-2.13867 25.44336,14.96679 -0.64257,5.77344 4.19726,2.46094 -0.002,-9.375 -39.59766,-24.30859 z m 59.27344,26.43164 -0.01,28.26953 c 0.025,2.98525 0.12887,5.96771 0.31446,8.94726 0.6598,6.55996 1.70982,13.07436 3.14257,19.50977 l 0.64258,-0.13281 c -0.91752,-3.58034 -2.00068,-9.83999 -1.875,-19.51758 l 0.10547,-23.30469 c 0,0 -0.32074,-5.5597 1.60352,-9.4082 l 3.10156,1.71093 2.56641,-4.70312 -0.44532,-0.18945 -1.97656,3.2207 -7.16992,-4.40234 z m -19.67383,12.05468 -5.90625,10.69727 3.84766,41.9043 -1.92383,-0.21289 c 0,0 0.3181,6.64982 1.81055,13.46679 l 9.48437,-2.76953 c -3.51417,-11.82106 -5.84438,-23.964 -6.95703,-36.24609 -0.20759,-3.33228 -0.32356,-6.66719 -0.35156,-10.00586 l -0.004,-16.83399 z m 239.24415,45.16992 -1.625,1.55274 4.7032,5.13281 1.5703,-1.50195 -4.6485,-5.1836 z m -210.34376,2.73633 -0.99805,0.0957 c 0.24286,1.14899 0.49408,2.29587 0.76172,3.43945 l -3.83789,0.98633 c 3.37219,12.92377 8.29177,25.37766 14.62891,37.10351 -5.1657,-9.92425 -9.8967,-21.58423 -12.36719,-34.14257 l 2.87109,-0.45313 -1.05859,-7.0293 z m 217.41216,13.68555 -1.3184,1.27344 37.7442,41.31445 0.9785,-0.87891 -37.4043,-41.70898 z m -251.32427,9.16016 -1.3125,0.35937 c 0,0 13.46,44.99302 41.04102,75.35352 0,0 23.51943,26.9392 67.77734,49.8164 l 0.78906,-1.80273 c 0,0 7.89165,3.80908 19.0625,7.69336 l 16.41016,3.82422 -0.0898,-1.0625 C 769.29817,562.52867 714.84998,511.5574 693.79492,444.84766 Z m 303.42577,44.96289 -7.9921,7.16601 2.5722,2.41602 7.7696,-6.96289 -2.3497,-2.61914 z m -10.1601,12.06836 -4.1895,3.75976 1.3418,1.49414 -16.7109,14.98828 -1.3438,-1.49414 -21.4062,19.19727 1.3125,1.46484 42.6367,-37.72851 -1.6406,-1.68164 z m 62.67961,10.55859 -15.5957,13.98438 -4.5898,-5.11719 -1.5137,1.39258 6.5195,7.37695 17,-15.60742 -1.8203,-2.0293 z m -31.4707,0.84375 -3.3769,3.00195 4.5957,5.23828 5.3242,-5.50586 -1.8105,-2.01953 -2.2676,2.03321 -2.4649,-2.74805 z m -118.21286,17.64844 -0.93164,0.84765 4.63281,3.78516 -6.39648,7.82812 3.6875,4.10938 5.83203,-5.22656 -1.3418,-1.49414 2.18946,-1.96289 -7.67188,-7.88672 z m -40.60937,14.80859 -0.53516,3.42188 c 0.0407,0.006 0.0804,0.0116 0.12109,0.0176 l 2.56641,-3.14062 c -0.58341,-0.0676 -1.10079,-0.14038 -2.15234,-0.29883 z m 68.59179,9.07227 -11.32617,10.1582 -1.47266,-1.64063 -3.22851,2.89454 4.65039,1.08398 12.58984,-11.14062 -1.21289,-1.35547 z m 11.67773,21.08984 0.3067,3.58594 -0.1778,-3.55274 -0.1289,-0.0332 z m 2.6153,16.96094 3.623,42.4082 -1.1543,0.0977 1.2246,14.34962 -18.24805,7.7051 0.11524,1.375 0.76953,0.4824 -0.041,-1.3496 17.63868,-6.2012 -0.5449,-12.3242 1.209,-0.1524 c -0.021,-0.55 -1.5538,-22.36048 -4.5918,-46.39058 z m -36.66021,77.16992 -5.03907,0.4297 1.20703,14.1367 -6.90625,0.5879 0.22266,2.5996 8.3418,-0.6719 -0.21289,-11.5449 10.36914,6.7363 0.25976,-0.414 -1.45508,-0.9141 1.16993,-1.8672 -8.81055,-5.5312 1.83789,-2.9297 -0.98437,-0.6172 z m 168.15622,9.9043 -77.60541,123.6387 -18.0391,-11.3223 -0.8945,1.3633 18.7891,13.2305 79.32221,-125.9317 -1.5723,-0.9785 z m -158.54685,2.8125 -0.77148,1.2656 40.50002,25.3321 0.7481,-1.1934 -40.47664,-25.4043 z m 73.64844,0.6641 -6.9746,11.1152 2.1446,1.3457 6.6328,-11.3242 -1.8028,-1.1367 z m -116.41407,3.6914 -15.26367,1.3047 c -18.14575,7.7314 -34.80259,18.5697 -49.2207,32.0293 l -7.18945,-7.6641 c -5.08851,4.8251 -9.89171,9.9444 -14.38282,15.3301 l 0.92188,0.7773 c 2.59981,-2.8507 8.33622,-8.9668 14.3457,-14.1855 l 5.98828,6.414 c 0,0 18.81415,-17.7447 45.32618,-29.9316 l 19.6875,-1.5859 -0.2129,-2.4883 z m 132.62108,26.6093 -0.1523,0.2422 1.9629,1.2325 0.1406,-0.2793 -1.9512,-1.1954 z m -39.72851,0.4981 -0.7402,1.1777 30.3399,18.9766 1.7578,-3.0742 -1.9063,-1.1973 -1.1738,1.8672 -28.2774,-17.75 z m -620.04491,21.4219 -6.50195,1.9648 0.1914,0.6309 4.52149,-1.4219 0.002,0 4.75391,15.123 0.25781,0.1582 1.08203,-1.7656 -0.22461,-0.1719 -4.08203,-14.5136 z m 384.49024,11.6015 -1.46094,2.3125 3.84765,2.1387 -12.61523,19.668 5.13086,2.9941 -26.95313,45.1563 2.24415,1.375 40.80664,-66.625 3.48242,2.1328 c 0.25766,-0.5191 0.50732,-1.0417 0.76953,-1.5586 l -15.25195,-7.5938 z m -386.75782,2.6094 -2.57617,3.6074 1.46485,-0.4609 1.35546,-2.207 1.71485,1.0546 -0.2168,-0.6894 -1.74219,-1.3047 z m -3.13281,4.3867 -0.64648,0.9043 0.99609,0.5801 0.0781,-0.127 -0.42773,-1.3574 z m 15.74609,0.7422 -0.66015,1.0762 1.4082,0.8652 -0.63281,1.0332 16.0332,13.7149 1.39453,-1.6289 0.88477,0.7578 -3.82813,-3.4102 -1.36132,1.3613 -10.2793,-11.4902 -2.95899,-2.2793 z m -15.74023,2.6387 -0.19922,0.2441 1.70899,1.1973 -0.20118,-0.6367 -1.30859,-0.8047 z m 401.14844,5.5703 -21.58203,35.2422 1.94726,1.1933 15.77344,-27.2187 c 1.21639,-3.1013 2.49285,-6.1788 3.86133,-9.2168 z m -393.90625,5.6621 -0.4961,0.8145 0.46289,0.2929 2.42969,7.8653 1.21289,-0.3809 -1.73242,-5.5098 2.07813,-0.6523 -3.95508,-2.4297 z m 33.98242,5.9453 -1.09766,1.0977 10.03125,8.584 0.76172,-1.2422 -9.69531,-8.4395 z m 376.19336,1.5156 c -0.16163,0.4017 -0.31198,0.8081 -0.4707,1.211 l 8.46289,3.2461 c 0,0 0.13469,-0.3677 0.40234,-1.0508 l -8.39453,-3.4063 z m 233.55857,1.4629 -0.2675,0.4082 5.6972,3.5743 -5.4297,-3.9825 z m -5.7734,3.8477 -0.09,0.1387 1.8047,1.1328 0.061,-0.096 -1.7754,-1.1758 z m -271.63869,26.6074 -9.3164,15.209 0.94922,0.5801 0.85351,-1.3946 1.39063,0.8555 1.78125,-2.9062 0.11328,0.068 6.41601,-11.0723 -2.1875,-1.3398 z m -354.2539,7.4356 -0.91407,1.4628 0.4336,0.2989 0.68359,-1.1133 -0.20312,-0.6484 z m -169.8086,5.9355 -0.64453,9.4336 -0.51953,-0.035 -1.99023,29.166 2.56054,0.1758 1.47071,-28.793 1.17578,0.1055 0.42773,-9.9414 -2.48047,-0.1113 z m 504.44727,4.418 -2.08789,3.498 8.55273,4.4903 -1.06836,2.5644 0.0566,0.039 2.37696,-3.8809 -1.39453,-0.8515 0.85351,-1.3946 -7.28906,-4.4648 z m 20.02539,1.3066 -0.0684,0.1133 1.08008,0.6621 0.0527,-0.088 -1.06445,-0.6875 z m 2.47656,8.3848 -1.82226,2.9746 -4.14063,-2.5352 -0.85156,1.3926 -1.39453,-0.8516 -9.36719,15.2969 0.60937,2.5391 1.95704,-0.4688 1.10156,4.5879 -4.57227,1.0977 3.99219,16.6015 17.46875,-4.1972 24.87109,103.4804 0.52344,-0.125 c -0.8219,-4.1067 -23.74023,-102.7402 -23.74023,-102.7402 l 2.11719,-0.7558 0.60546,-4.6875 -6.95507,-25.0957 -2.87305,-1.0586 3.02344,-5.1387 -0.55274,-0.3164 z m -24.42969,20.207 -0.15625,0.4414 0.24805,-0.059 -0.0918,-0.3828 z m -0.76757,2.1836 -0.24805,0.707 0.85547,5.1309 1.92383,-0.6406 26.96679,112.2011 0.01,0 -23.55469,-98.0097 -3.99023,-16.6016 -1.22266,0.2949 -0.74023,-3.08 z m -310.74805,1.7285 -0.83594,1.3594 0.64844,0.3867 0.82617,-1.3535 -0.63867,-0.3926 z m -190.63086,1.0821 -0.62695,9.1972 -0.51953,-0.033 -0.87696,12.836 6.69141,0.457 -1.75,25.6094 3.27734,0.2226 -0.58984,8.6367 1.63281,0.088 0.64258,-9.4062 -3.74219,-0.3223 1.2832,-25.0156 -5.55859,-0.6406 0.64063,-12.5078 1.06836,-0.1075 0.32226,-8.873 -1.89453,-0.1406 z m 211.07813,11.4707 -0.97657,1.5898 0.75196,0.4531 0.94335,-1.6015 -0.71874,-0.4414 z m 136.59765,1.248 -0.59765,0.9727 8.8457,3.6738 -0.76172,1.2383 2.71289,-1.7969 -10.19922,-4.0879 z m -127.21484,4.5117 -1.44336,2.3321 5.72461,0.4179 0.004,-0.1191 -4.28515,-2.6309 z m 140.77343,3.2168 -1.33984,0.8867 3.96094,1.6446 -10.75195,7.1211 -3.15625,5.1386 5.81054,3.5684 -5.81054,9.4648 2.41406,1.375 14.8164,-23.7343 -2.87304,-1.209 2.7207,-1.6641 -5.79102,-2.5918 z m -381.14843,0.01 -0.0234,0.3242 11.82813,0.8067 0.0273,-0.4024 -11.83203,-0.7285 z m 273.74219,17.2656 -0.3418,0.4395 4.32617,4.5859 1.15039,-1.875 -5.13476,-3.1504 z m 13.41992,8.2383 -0.91797,1.4942 0.1582,0.08 0.86328,-1.5118 -0.10351,-0.062 z m 69.88672,2.0098 -0.14844,0.2402 0.15234,-0.2383 -0.004,0 z m -53.20899,8.2285 -1.07812,1.7578 0.27148,0.1602 1.07227,-1.7559 -0.26563,-0.1621 z m -281.66992,1.5723 -1.74805,25.6074 6.54688,0.4472 -0.28321,4.1348 3.27539,0.2246 -0.62695,9.1875 0.91992,0.055 0.53321,-10.4766 -3.52735,-0.3203 0.21485,-3.5293 -6.09375,-0.3203 1.74414,-24.9453 -0.95508,-0.064 z m 701.60742,36.7812 -2.82226,0.7266 2.85156,-0.6856 -0.0293,-0.041 z m -697.75391,3.1094 -0.99804,14.6132 3.27539,0.2247 -0.57617,8.4335 1.35351,0.1192 0.42578,-10.0488 -3.63476,-0.3204 0.72265,-12.9824 -0.56836,-0.039 z m 678.02344,1.9648 -1.43554,0.3691 1.73242,7.3555 1.47461,-0.3535 -1.77149,-7.3711 z m 25.50782,3.0293 c 1.61592,3.2554 2.72126,6.5282 3.43359,9.6523 l -0.002,0 c 0.55846,2.4496 0.87602,4.7979 1.04882,6.9844 -0.17221,-4.3508 -1.08902,-10.7626 -4.48046,-16.6367 z m -125.0625,3.3867 -0.39063,2.6074 26.38867,6.0743 2.35742,9.8105 2.82422,-0.6777 -1.0625,-4.4278 -0.9375,0.2188 -1.36133,-7.4082 -27.81835,-6.1973 z m 41.42578,10.7344 -1.35352,0.3164 1.05078,4.3731 1.42383,-0.3418 -1.12109,-4.3477 z m -621.55469,5.1992 -0.28125,4.1348 44.19531,29.70295 -43.15625,-29.73615 0.24219,-4.0332 -1,-0.068 z m 686.91992,7.7637 -19.5332,4.6953 0.19922,0.8242 19.1289,-4.5742 1.81446,7.4082 20.56054,-5.1406 0.0762,-1.4121 c -0.0759,0.4003 -0.18164,0.9785 -0.18164,0.9785 l -20.22851,4.8613 -1.83594,-7.6406 z m -156.0293,3.3906 -0.006,0 9.85547,41.00585 0.006,0 -9.85547,-41.00575 z m 124.60352,4.1621 -45.41406,10.91595 0.18359,0.7597 45.42578,-10.86315 -0.19531,-0.8125 z m -688.54102,5.98425 -1.67382,23.6896 3.25,0.2226 1.61914,-23.6954 -3.19532,-0.2168 z m 473.96485,14.2072 -2.70899,0.709 2.72266,-0.6543 -0.0137,-0.055 z m -389.4668,3.5234 -55.98633,27.4219 -1.44336,21.1406 3.27539,0.2246 -0.61718,9.0313 2.26172,0.1504 0.32031,-10.4766 -4.38281,-0.2149 0.85546,-19.6699 55.91016,-27.4746 -0.19336,-0.1328 z m 564.21484,9.3379 -40.52148,9.7383 0.33398,1.3926 40.48243,-9.9727 -0.29493,-1.1583 z m -39.60546,13.5488 0.94336,3.9258 0.0586,-0.014 -1.00195,-3.9121 z m -127.85743,0.5996 -0.75195,0.1817 9.85547,41.0058 0.78125,-0.1875 -9.88477,-41 z m 132.68164,2.4317 -0.14062,0.039 2.02734,8.4297 -3.73242,0.8965 4.86914,20.2578 0.46875,-0.1133 -4.85156,-19.9843 3.47656,-0.9063 -2.11719,-8.6191 z m -35.68359,5.7519 -0.006,0 9.85547,41.0058 0.006,0 -9.85547,-41.0059 z m -129.10547,23.7305 -0.61914,0.1504 0.43164,1.7969 1.03711,-0.25 -0.84961,-1.6973 z m -422.73633,2.8633 -0.75781,11.1035 0.78125,0.039 0.70508,-11.0939 -0.72852,-0.049 z m 598.8711,1.6758 c 8.61561,12.107 6.67727,25.6826 5.40039,31.082 1.83067,-5.7179 4.2303,-18.5863 -5.40039,-31.082 z m -198.88086,2.83 -1.36914,0.1895 0,0.1386 1.36914,-0.3281 z m -407.31641,6.4883 -0.93555,13.6913 1.01954,0.07 0.83789,-13.6992 -0.92188,-0.062 z m 476.52344,13.7655 -0.79688,0.1914 9.85547,41.0061 0.82618,-0.1993 -9.88477,-40.9982 z m -474.87305,0.1036 0.68946,0.047 -0.66211,9.6992 -3.27539,-0.2226 -1.83594,26.8985 3.27539,0.2246 -0.66211,9.6992 -3.27539,-0.2226 -0.93359,13.6914 1.36718,0.1211 0.96289,-13.3613 4.27539,0.2129 0.42774,-10.2637 -4.16992,-0.3203 1.71093,-26.297 4.70313,0.3203 0.42773,-10.1562 -3.02539,-0.07 z m 571.82422,8.0898 9.85547,41.0059 0.002,0 -9.85547,-41.0059 -0.002,0 z m 37.21484,2.2793 -0.84374,0.2031 11.9414,49.6875 0.72852,-0.1758 -12.08985,-49.1093 c 0,0 0.14887,-0.3446 0.26367,-0.6055 z m -200.66796,8.7793 -4.24024,1.0195 -0.004,1.0684 4.45507,-1.205 -0.21093,-0.8829 z m -86.18555,19.2696 -2.19141,0.5644 0.0977,0.3692 2.19141,-0.5273 -0.0977,-0.4063 z m 341.46875,7.3301 -0.45313,0.098 -16.97851,46.6815 17.43164,-46.7793 z m -342.02734,1.0371 -6.01563,1.5781 6.04492,-1.4531 -0.0293,-0.125 z m 332.15039,1.0781 -11.28907,2.4199 -1.05859,1.6641 -2.18164,-0.6328 3.01562,1.0977 0.70899,-1.9512 10.80469,-2.5977 z m -18.0918,2.4199 -1.25391,6.5391 0.15039,-0.035 2.24414,-6.1739 -1.14062,-0.33 z m -248.32422,5.1915 -11.73047,2.8183 1.77539,7.3867 0.31446,-0.078 -1.70899,-6.7344 10.9668,-2.7696 0.38281,-0.623 z m 101.86523,3.959 -0.84179,0.2011 14.82031,61.666 -3.14844,2.6875 0.28125,1.1719 3.95703,-3.2207 -15.06836,-62.5058 z m -162.0371,10.5019 -30.30274,7.2832 1.19141,5.3809 30.04883,-8.7618 -0.9375,-3.9023 z m 4.23437,6.918 -1.49023,0.3574 0.10937,0.3652 1.46485,-0.3672 -0.084,-0.3554 z m 138.1875,55.205 -4.83398,1.1621 0.0703,0.289 4.91016,-1.4023 -0.14649,-0.049 z m 132.60742,2.4961 -14.7539,40.4102 0.0508,0.022 14.70312,-40.4318 z m -98.40234,5.0762 0.19922,0.828 52.6289,61.6407 -3.67382,3.1367 12.05664,8.4726 1.66211,-0.3182 -12.1504,-8.7071 2.99415,-2.1387 -53.7168,-62.914 z m 121.50781,10.3534 -28.88086,79.4102 0.69141,0.043 28.87305,-78.7696 -0.6836,-0.6836 z m -36.64844,26.502 -0.5957,1.834 0.6582,-1.8106 -0.0625,-0.023 z m -75.375,22.7285 48.00196,34.3027 0.76172,-0.033 -48.76368,-34.2695 z"
       id="path3349-7" />
    <path
       inkscape:connector-curvature="0"
       style="display:inline;fill:#00b329;fill-opacity:0.49803922;fill-rule:evenodd;stroke:none;stroke-width:1.5;stroke-linecap:butt;stroke-linejoin:miter;stroke-miterlimit:4;stroke-dasharray:none;stroke-opacity:1"
       d="m 539.39253,99.99959 -12.09766,19.90039 -4.13281,-1.43164 c -3.16251,9.3015 -7.08798,18.32038 -11.72656,26.96875 l -19.99414,-10.87305 -3.45703,6.35547 17.35351,14.94141 c -11.80164,18.47587 -26.87694,34.59889 -44.46289,47.58984 l -13.5625,-18.26367 -5.80859,4.31641 9.43359,20.78515 c -0.34134,0.21826 -0.67455,0.44614 -1.01758,0.66211 l 10.79492,17.04688 c 18.95883,-12.03293 35.7464,-27.18583 49.65039,-44.81836 l 20.52149,12.59961 -9.54883,15.55468 -15.70508,-9.64257 -12.125,19.75 -3.40234,-2.08985 -5.32617,8.67578 -24.77735,0.56055 -32.23633,14.57227 -6.12304,-17.22266 c -21.69854,7.71406 -44.72614,10.98803 -67.71485,9.625 l -0.91015,15.26758 c -3.66738,-0.21928 -7.32827,-0.54534 -10.97656,-0.98047 l -1.19532,10.06445 c 30.15214,3.63105 60.73469,0.25203 89.36719,-9.87304 l -0.43164,-1.21094 31.52344,-14.25 35.44531,-0.80274 11.91602,-19.4082 7.8496,4.81836 -12.84765,20.92578 0.35351,0.2168 36.51954,-59.24024 -11.03516,-7.4082 -1.66406,2.26758 -3.92969,-2.7207 9.37305,-14.06055 -8.4668,-5.59375 -4.08203,-18.5957 23.58398,15.26953 3.17578,-4.83789 7.60547,4.35546 10.15625,-15.5 9.51367,-2.08593 3.35938,1.99414 1.96289,-3.19727 -5.16602,-3.17187 -9.37695,2.24414 -11.24805,18.32031 -20.0039,-12.28125 c 1.62856,-4.01934 3.12276,-8.09235 4.48047,-12.21094 l 7.44922,-21.50976 -6.83594,-2.36719 z m 28.00781,56.41016 -0.16601,0.25 3.52929,2.35156 0.26953,-0.36914 -3.63281,-2.23242 z m 10.33594,6.3457 -0.18555,0.31836 10.7168,6.14844 -10.53125,-6.4668 z m 72.74609,3.10937 -3.71289,6.04688 -3.50976,-2.1543 -9.37891,2.24219 -6.47852,10.55078 -20.59765,-12.64648 -4.51953,7.35937 2.09961,1.20508 2.88476,-4.81055 19.5625,11.54492 3.5293,-5.8789 0.96289,0.53516 11.75781,-5.88086 5.23828,2.35156 3.52735,-5.87891 2.58007,1.4375 1.60547,-2.61523 -5.55078,-3.40821 z m -1.38672,20.26954 -0.15429,0.24609 2.57031,9.22266 31.14258,18.5957 1.51172,-2.41992 -6.6504,-4.38282 0.30274,-0.43554 -27.82813,-17.08399 -0.89453,-3.74218 z m 35.46875,8.98242 -5.63281,9.17578 0.51563,0.31641 4.56835,-6.5879 15.29493,9.3418 1.42383,-2.31836 -2.58204,-1.58594 -2.58398,-1.58593 -11.00391,-6.75586 z m 2.41797,34.71093 -2.05859,3.11719 46.86523,28.42383 9.82617,-14.81641 1.0586,0.60352 3.02539,-4.83789 5.89648,-1.51172 12.8125,7.32227 -1.11914,-4.67774 -10.33008,-6.34179 -9.37695,2.24218 -11.24805,18.32032 -45.35156,-27.84376 z m -176.57812,21.38477 -0.79297,1.29102 9.74023,5.98047 0.79883,-1.30079 -9.74609,-5.9707 z m 244.72461,20.45508 -1.72071,2.70312 4.93164,2.88477 1.61328,-2.62695 -4.82421,-2.96094 z m -210.13477,0.73828 -0.8125,1.32227 9.74024,5.98046 0.8164,-1.33007 -9.74414,-5.97266 z m 203.0625,11.85156 -1.66016,2.64844 12.19141,7.48437 -0.60547,0.98829 -12.20117,-7.49024 -1.66016,2.64844 12.22266,7.50391 -1.42969,2.33007 2.75586,1.69141 0.12305,-0.0254 5.89648,-10.13086 1.76367,0.99805 -0.33007,-1.37696 -3.47071,-2.13086 -1.43164,2.33008 -12.16406,-7.46875 z m -4.83203,7.71094 -1.00391,1.60156 9.97852,6.12696 -0.62305,-2.59961 -8.35156,-5.12891 z m -163.64453,1.63086 -0.83008,1.35351 9.74023,5.97852 0.83594,-1.36133 -9.74609,-5.9707 z m 158.0039,7.16601 -8.97851,14.75196 -9.99414,-6.44141 2.1875,9.14649 1.90234,1.16796 -20.38281,33.19725 -16.45508,-10.0039 -1.72851,2.6543 18.59961,11.7598 4.91796,-6.8418 5.13086,3.6348 5.13282,-7.4825 -4.49024,-3.209 26.29688,-41.26559 -2.13868,-1.06836 z m -123.41406,14.02735 -0.84961,1.38476 1.64258,1.00782 -265.29297,433.13282 6.03906,4.6543 265.7129,-433.82228 1.64062,1.00781 0.85546,-1.39258 -9.74805,-5.97265 z m 34.58985,21.1953 -0.8672,1.4141 9.74023,5.9804 0.87306,-1.4238 -9.74609,-5.9707 z m 79.95312,24.8379 -1.39062,2.2656 0.30467,0.1309 1.19336,-1.9453 -0.10742,-0.4512 z m -29.90625,8.4668 0,4.8027 2.00391,-3.6289 -2.00391,-1.1738 z m 253.7969,31.8106 -17.0918,15.33 2.539,2.8321 15.1582,-14.4825 96.53131,107.6543 1.5,-1.3457 -98.63671,-109.9882 z m -226.71877,16.8476 -3.31447,0.6836 c 0.64333,2.5104 1.20704,3.7441 1.20704,3.7441 l 2.93164,-0.2812 c -0.2914,-1.3787 -0.56896,-2.7606 -0.82421,-4.1465 z m 217.70307,5.6465 -0.8886,0.8516 3.0019,3.3476 -4.2461,3.8047 3.6641,4.0859 5.0977,-4.9277 -6.629,-7.1621 z m -246.95307,16.3535 -3.98243,1.1621 c 0.36814,1.2506 0.75125,2.4945 1.14257,3.7344 l 3.8086,-1.0449 c -0.37515,-1.2619 -0.68552,-2.5579 -0.96875,-3.8516 z m 41.62694,23.6758 c 10.00803,19.2273 21.64845,31.9258 21.64845,31.9258 l 1.50976,-1.211 c 32.50455,36.5865 72.57031,48.834 72.57031,48.834 l 1.20899,-3.6289 c 11.05172,3.8529 19.6904,5.5047 24.24805,6.1914 l 0.30078,-1.9219 c -9.67784,-1.4997 -19.19845,-3.8799 -28.44336,-7.1113 l -0.86914,2.4727 c -22.71453,-8.0793 -43.36176,-21.0828 -60.46094,-38.0782 l 4.12109,-4.1699 c -8.58334,-8.4209 -16.17444,-17.7963 -22.62304,-27.9453 l -7.35938,4.6387 c -2.07035,-3.2653 -4.01714,-6.6018 -5.85156,-9.9961 z m 243.28323,14.6484 -7.627,6.8399 -1.4707,-1.6407 -5.2383,4.6993 -1.3398,-1.4961 -14.8906,13.3535 1.3379,1.4961 -28.72271,25.7597 -1.3398,-1.4941 -14.52542,13.0234 3.21289,3.3008 61.72264,-56.6211 2.1387,2.3516 8.5527,-7.5899 -1.8105,-1.9824 z m 18.48831,13.7403 -0.46291,0.414 18.69921,20.8516 0.4707,-0.4199 -18.707,-20.8457 z m -11.75981,4.0625 -3.8477,3.1015 2.6348,2.6992 1.0488,-0.9414 -1.4687,-1.6406 2.5879,-2.3203 -0.9551,-0.8984 z m 37.52151,18.9218 -0.9824,1.0157 4.7422,5.289 1.1582,-1.0664 -4.918,-5.2383 z m -158.31644,3.3496 -0.73047,6.2403 1.16992,13.7148 -6.31835,7.7324 c 0.65835,0.076 1.41601,0.1622 1.41601,0.1622 l 5.44336,-5.1407 -1.05664,-20.4101 17.6875,0.9062 13.30469,10.8867 0.73047,-0.664 -13.87306,-11.3399 -17.77342,-2.0879 z m 78.58593,22.9395 -16.81251,14.877 0.125,0.1386 16.71491,-14.9863 -0.027,-0.029 z m -29.40234,26.0176 -2.25977,2 25.31451,6.5937 -0.2813,-3.289 -22.77344,-5.3047 z m -117.02149,3.9472 4.09961,47.9766 -55.51367,4.7461 -0.14062,-1.6289 -4.70117,0.4023 0.92382,10.8086 4.70313,-0.4004 -0.14063,-1.6289 55.51563,-4.7461 4.10156,47.9961 35.87305,-15.1425 0.082,0.9785 c -33.68585,14.5435 -62.72269,38.0712 -83.93164,68.0117 l -16.3418,-11.5274 -17.49023,28.5547 3.17383,1.5801 15.42773,-24.4141 14.75391,10.4766 10.60937,-14.1445 c 13.60655,-17.3861 35.67969,-33.4102 35.67969,-33.4102 15.42075,-11.4899 39.0039,-21.166 39.0039,-21.166 l -7.10546,-83.1523 -5.44141,-1.5118 c -4.11897,-1.14 -8.03801,-2.3959 -11.62891,-3.6445 l -21.51172,-5.0137 z m 140.38283,8.2325 0.5703,11.414 1.4961,0 c 0.086,0.6626 0.1588,1.3014 0.2422,1.961 l -0.5137,-6 -1.1562,0.098 -0.6387,-7.4727 z m -11.36131,79.7929 0.066,2.1778 12.40041,7.4843 -2.459,4.0606 19.5644,12.1875 9.2988,-15.2871 21.3965,13.5097 0.7969,-1.2695 -22.9551,-14.4101 -7.7734,12.3867 -19.7813,-12.4141 0.8125,-1.293 -11.3671,-7.1328 z m 121.40632,4.5938 -9.6407,15.3613 4.8262,3.0313 -25.6523,40.8652 -12.6543,-7.9434 -0.6075,1.2188 13.3633,7.5898 17.7461,-27.3672 9.5137,5.7735 3.6348,-5.8809 -4.4903,-3.207 c -1.9243,-1.2828 -0.748,-2.7793 -0.748,-2.7793 l 2.8867,-4.168 -3.5293,-2.459 10.5859,-15.5019 18.5254,11.5293 0.5176,-0.8242 -24.2773,-15.2383 z m -132.99424,12.9785 -3.16016,5.0391 1.36719,0.8574 3.07619,-5.041 -1.28322,-0.8555 z m -21.91797,10.9336 -22.42773,1.8066 1.3789,16.1602 22.41992,-1.918 -1.37109,-16.0488 z m 88.9434,8.0879 -2.1328,3.6406 23.16991,14.1992 1.0215,-1.623 -5.9629,-3.7403 1.0703,-1.7011 -17.16601,-10.7754 z m -29.0899,13.4726 -0.3183,0.5079 9.6484,6.0585 0.3281,-0.5234 -9.6582,-6.043 z m -167.62889,19.5352 c -0.91505,1.0034 -1.47656,1.6367 -1.47656,1.6367 l 5.77343,5.1309 c -15.53128,18.8994 -24.01948,39.2718 -25.89648,44.0625 l 1.18359,0.4804 c 6.67636,-16.4962 15.90754,-31.8393 27.35743,-45.4628 l -6.94141,-5.8477 z m 210.19339,0.9941 -0.8086,1.4161 12.71291,7.9785 -17.83991,28.4199 9.96301,6.2539 -4.99421,7.9531 -0.2324,-0.1465 0.9843,0.7227 23.30481,-38.0586 -23.08991,-14.5391 z m -658.52152,8.3536 -1.99414,0.6269 2.04688,6.5156 3.56445,-1.1191 2.16797,6.8965 0.0723,0.055 1.81445,-2.8711 -1.51172,-5.5938 -4.38477,1.3594 -1.77539,-5.8691 z m 1.4668,15.2226 -0.73047,0.2285 0.17383,0.5508 0.55664,-0.7793 z m -0.20703,2.2637 -0.93945,1.5312 0.5957,0.3653 1.16211,-1.418 -0.81836,-0.4785 z m 1.16602,3.3379 0.3164,1.0039 -0.26367,0.4297 0.49414,0.3047 0.41602,1.3281 -2.29883,3.7539 6.4668,3.959 0.10546,-0.1739 -5.73632,-3.6386 3.32617,-4.9883 -2.82617,-1.9785 z m 402.94921,0.9687 -7.17187,12.377 c -1.65403,4.2171 -3.18241,8.484 -4.54492,12.8086 l 19.4375,5.96479 c 1.40199,-4.61489 2.99945,-9.16889 4.76758,-13.65619 l -7.14258,-2.7403 c 1.71045,-4.7037 4.06054,-10.2636 4.06054,-10.2636 l -9.40625,-4.4903 z m -370.29101,10.7696 5.84766,5.207 0.11132,-0.1113 -5.95898,-5.0957 z m 255.38672,4.9785 -5.66406,9.2519 1.39453,0.8535 -38.75391,63.27149 -1.39258,-0.8535 -3.875,6.3281 0.27735,0.7149 -33.79102,22.375 0.0801,0.033 -1.0586,1.664 4.33789,1.9434 32.23047,-21.3438 0.5918,1.5313 1.52539,-0.5879 23.4336,60.7598 -1.57032,0.6035 2.50391,10.4238 1.22461,-0.2949 6.84375,28.4844 -1.22071,0.2929 1.10157,4.5899 1.22265,-0.293 1.52539,6.3438 7.39454,16.0293 7.32617,30.49405 0.72851,-0.1895 6.55664,27.1994 5.11524,-1.2285 c 1.0773,-0.259 1.73543,-1.3349 1.47656,-2.4121 l -3.51953,-14.6504 c -0.2589,-1.0772 -1.33446,-1.7348 -2.41016,-1.4785 l -1.11132,0.2676 -14.97657,-62.32235 1.21875,-0.293 -1.10156,-4.5918 -1.22266,0.293 -6.84375,-28.4825 1.21875,-0.2929 -2.84179,-11.8242 -1.56641,0.6035 -23.43359,-60.7559 c 0.49715,-0.1962 1.0173,-0.3969 1.52343,-0.5918 l -0.74023,-1.918 1.07813,-1.7597 -1.39454,-0.8516 38.75196,-63.2715 1.39453,0.8516 0.85351,-1.3926 59.95313,36.7188 3.88476,-6.5079 -59.8789,-36.67569 0.85351,-1.3907 -9.2539,-5.6679 z m -234.59571,0.8808 -4.03906,6.5782 19.48438,16.95889 103.10742,63.7989 24.03906,9.6367 4.20508,-6.8477 -146.79688,-90.12499 z m 595.15432,1.1504 -3.1348,4.9903 0.4883,0.3222 3.2422,-4.9375 -0.5957,-0.375 z m -640.47463,0.016 -3.05664,0.9609 4.08594,13.00399 1.03125,-0.3262 7.61133,24.2031 1.35351,-2.166 -11.02539,-35.67579 z m 633.84183,2.9121 -6.6758,10.63869 1.4101,0.8848 6.8985,-10.49809 -1.6328,-1.0254 z m -261.96683,18.88869 -5.76172,9.9453 1.98242,1.2148 6,-9.7988 -2.2207,-1.3613 z m -362.68359,17.8027 -11.25586,18.3321 -5.91992,-3.6348 -1.7168,2.7969 32.2832,19.8203 -1.71679,2.7969 8.28515,5.0859 0.88086,-1.4356 -6.45703,-3.8457 1.81445,-2.873 -26.91211,-16.7813 12.69922,-18.8984 -1.98437,-1.3633 z m 350.50586,3.2149 -1.55469,2.6836 6.19336,4 1.71484,-2.795 -6.35351,-3.8886 z m -523.37891,0.4492 -0.66211,9.7012 -3.50195,51.3007 2.06445,0.127 3.42188,-60.7207 2.22265,0.1016 0.0176,-0.2657 -3.5625,-0.2441 z m 529.0293,7.0098 -1.76172,2.9355 0.90625,0.4531 -1.35938,2.1172 3.67969,2.1035 2.13672,-3.4902 -4.13867,-2.5332 0.85156,-1.3945 -0.31445,-0.1914 z m -15.58399,8.5097 -8.63281,14.0938 1.25195,5.2129 1.76368,-5.0196 7.05664,-13.2558 -1.43946,-1.0313 z m -7.53711,19.7481 -0.97265,0.2343 0.36133,1.5079 0.61132,-1.7422 z m -309.88476,2.4961 -0.83594,1.3671 11.52149,7.0723 -1.7168,2.7988 8.28515,5.086 0.74219,-1.2071 -6.50586,-3.9296 1.51172,-2.7227 -13.00195,-8.4648 z m -193.07227,1.4863 -0.0254,0.498 0.99219,0.072 0.0352,-0.5019 -1.00196,-0.068 z m 213.33203,11.5156 -0.56836,0.9668 8.66407,5.3184 0.52148,-0.8438 -8.61719,-5.4414 z m 12.37696,9.0352 -0.80078,29.6641 26.19336,-14.1934 3.69336,2.2676 0.71679,-0.9219 -3.6289,-2.418 -25.85157,14.211 0.15039,-28.5743 -0.47265,-0.035 z m -245.3711,0.75 -8.36328,122.51575 0.39453,0.027 8.66016,-122.49625 -0.69141,-0.047 z m 278.44141,22.0137 -0.56641,0.9218 8.28516,5.086 0.79883,-1.3008 -7.85352,-4.002 -0.66406,-0.705 z m 82.60547,0.1 -3.2793,5.125 3.94922,2.4257 2.64258,-4.3046 5.48633,3.3691 0.73047,-1.1875 -9.5293,-5.4277 z m -72.7207,2.5703 -0.34571,0.6054 8.28907,5.0899 -1.7168,2.7949 8.28515,5.0879 0.63868,-1.0391 -8.19532,-4.8281 1.66211,-2.7207 -8.61718,-4.9902 z m 69.28906,2.7929 -18.03711,28.1993 -9.37305,-5.7442 -2.26758,3.0235 -7.86132,-4.6875 2.26757,-3.627 -16.93359,-9.9785 -0.58984,0.9648 16.52148,10.1446 -1.7168,2.7988 8.28516,5.0859 1.71875,-2.7968 9.89844,6.0781 18.08789,-29.461 z m -333.70313,8.5938 -0.0723,1.0312 2.32226,0.1582 0.0723,-1.0644 -2.32227,-0.125 z m 701.01367,37.6914 -0.40429,0.098 4.6582,6.3086 c 0.39258,0.5763 0.74904,1.1636 1.08985,1.7539 -1.37335,-2.7667 -3.11024,-5.5209 -5.34376,-8.1602 z m -3.25585,0.7832 -16.97266,4.0781 0.0644,0.2696 16.90821,-4.3477 z m -694.33594,1.9336 -0.0274,0.4883 2.70704,0.1836 0.0351,-0.5117 -2.71484,-0.1602 z m 677.72461,10.1387 -57.30469,13.7734 0.0879,0.3398 57.30078,-13.7578 -0.084,-0.3554 z m -102.54102,0.7695 -26.9375,6.4746 c 0.0153,0.076 0.14879,0.6605 0.14844,0.6699 l 26.60742,-6.5 2.41797,0.3008 0.0625,-0.416 -2.29883,-0.5293 z m -51.01172,6.4707 -5.85742,1.4082 c -1.07748,0.259 -1.73738,1.3347 -1.47851,2.4121 l 3.52148,14.6485 c 0.25884,1.0772 1.33441,1.7368 2.41016,1.4804 l 5.86132,-1.4082 -4.45703,-18.541 z m 93.72071,2.2793 -9.94336,2.3906 0.041,0.168 9.95508,-2.3359 -0.0527,-0.2227 z m 89.52343,2.4219 c 0.12371,3.1254 -0.1289,5.1933 -0.1289,5.1933 l -0.37696,7.0547 c 0.31159,-1.6435 0.99281,-6.0869 0.50586,-12.248 z m -708.59179,1.4394 -0.0801,1.3125 2.27539,0.1543 0.0859,-1.2656 -2.28125,-0.2012 z m 666.50586,14.5274 -11.89649,2.8457 0.86914,3.61725 11.89258,-2.85945 -0.86523,-3.6035 z m -36.94727,10.94735 -19.89062,4.7793 -0.48438,-2.0176 -0.0469,0.012 5.44921,21.3652 19.64063,-4.7207 -4.66797,-19.418 z m -586.72461,9.6074 7.53711,5.1934 0.10938,-0.055 -7.64649,-5.1387 z m 394.29492,2.379 -20.38672,4.9003 12.45118,51.8086 -13.32813,3.2032 0.0586,0.1171 13.9082,-3.4785 -12.39844,-51.4023 19.69531,-5.1484 z m -473.26757,8.75 -9.23438,135.2792 8.42188,0.5743 -1.08399,15.8672 37.64453,19.1015 -5.41797,29.502 -1.75586,9.5625 3.51368,0.6445 1.75585,-9.5625 -0.51367,-0.094 5.83008,-31.7422 -28.15625,-14.2871 3.01953,-5.9493 -9.28906,-4.7148 0.53906,-7.9121 10.77344,0.7344 -25.23633,-2.2286 9.52735,-134.7519 -0.33789,-0.023 z m 575.79882,7.1953 -5.86132,1.4081 c -1.07736,0.259 -1.73548,1.335 -1.47657,2.4121 l 3.51953,14.6484 c 0.25893,1.0774 1.33441,1.7367 2.41016,1.4806 l 5.86328,-1.4082 -4.45508,-18.541 z m 34.73828,7.3379 -0.0352,0.01 0.61719,2.4101 -0.58204,-2.418 z m 5.25586,5.4472 -3.67187,0.8828 0.0449,0.1777 3.63672,-1.0195 -0.01,-0.041 z m 6.9043,28.7285 -3.26172,0.7832 0.13867,0.5762 3.32422,-0.9062 c 1.68966,1.5957 3.13699,3.2151 4.39063,4.8417 -1.28696,-1.8084 -2.79568,-3.5854 -4.5918,-5.2949 z m -172.2168,0.6758 -16.45117,3.955 0.48633,2.0254 -6.10742,1.4688 6.26758,-0.8692 0.37695,-2.5702 15.48242,-3.7794 -0.0547,-0.2304 z m -421.29101,2.3281 -0.043,0.664 2.54687,0.1739 0.0449,-0.6679 -2.54883,-0.17 z m 397.84961,5.4493 -0.52539,0.1268 -0.53125,40.2853 0.89062,-0.2149 0.16602,-40.1972 z m 71.5957,0.1113 c -0.13287,0 -0.26787,0.023 -0.40234,0.055 l -5.08594,1.2225 4.46875,18.5371 5.07031,-1.2187 c 1.07735,-0.2588 1.73741,-1.3349 1.47852,-2.4121 l -3.52149,-14.6504 c -0.22653,-0.9426 -1.07773,-1.5643 -2.00781,-1.5332 z m -476.60742,5.8769 -0.0137,0.2344 5.62304,0.3848 0.0234,-0.3379 -5.63281,-0.2813 z m 568.08203,3.5918 -5.86328,1.4082 c -1.07736,0.2588 -1.73551,1.3348 -1.47656,2.4121 l 3.51953,14.6485 c 0.25899,1.0773 1.33641,1.7365 2.41211,1.4804 l 5.86523,-1.4101 -4.45703,-18.5391 z m -568.93359,10.3418 -0.004,0.07 1.57031,0.037 -1.5664,-0.1075 z m 611.51367,8.002 c -0.40089,1.252 -0.69584,1.992 -0.90821,2.4746 l 0.24024,-0.057 c 0,0 0.30777,-0.8949 0.66797,-2.4181 z m -200.68945,11.953 -0.67579,0.1837 1.36133,5.6602 -39.84765,9.5761 -1.80274,-7.5019 -2.42969,0.5859 -0.41796,-1.7383 -43.58008,10.4727 0.32031,1.332 41.42383,-10.6582 2.24609,9.1934 45.00586,-11.2246 -1.60351,-5.8809 z m -89.16602,19.5039 -0.23828,0.057 1.77344,7.3769 0.39843,-0.1054 -1.93359,-7.3281 z m 170.10937,0.2774 c -0.13286,0 -0.26787,0.023 -0.40234,0.055 l -5.04101,1.2109 4.46874,18.5391 5.02735,-1.209 c 1.07735,-0.2588 1.73539,-1.3348 1.47656,-2.4121 l -3.52148,-14.6485 c -0.22655,-0.9427 -1.07774,-1.5659 -2.00782,-1.5351 z m 173.09766,5.9472 -9.52148,2.2871 9.42382,-2.0174 0.0977,-0.2697 z m -201.97851,0.7833 -6.73633,1.1757 0.42773,2.2462 -24.48047,5.0234 -0.64062,-2.2441 -10.15625,2.1387 -1.39063,-6.5215 -31.36523,7.9199 -1.10547,1.8047 c 0,0 4.86828,2.9773 11.79883,9.1406 l -2.09961,2.6758 c 12.91823,11.4975 33.21627,34.3773 41.79883,70.0879 l 27.40625,-6.5859 -5.52344,-22.5391 16.92578,-4.0293 -14.85937,-60.293 z m -145.70899,2.0038 -41.77148,10.0391 -2.78516,25.0254 25.83203,-6.209 -5.00976,-22.6269 23.73437,-6.2286 z m 266.06836,0.7326 -5.86523,1.4101 c -1.07743,0.2589 -1.73684,1.3345 -1.48047,2.4102 l 2.91015,12.1133 7.8125,-1.877 -3.37695,-14.0566 z m 55.20313,1.3593 -0.0566,0.1582 2.42188,0.7012 -2.36523,-0.8594 z m -2.45118,6.3671 -13.5664,3.2618 0.15429,0.6309 13.30469,-3.3262 0.10742,-0.5664 z m -257.02539,8.8575 -45.89843,11.5293 0.33203,1.3809 43.58007,-10.4727 -0.41796,-1.7382 2.43164,-0.584 -0.0274,-0.1153 z m -48.53906,7.9414 -0.74023,0.2167 0.86523,3.5997 0.94141,-0.2266 -1.06641,-3.5898 z m 317.35547,18.9063 -21.27149,57.084 0.37305,0.373 20.89844,-57.457 z m -145.88477,32.6328 -5.23633,4.2637 8.71485,10.207 -3.47852,-14.4707 z m -21.73242,4.4199 -8.84765,2.5274 0.97265,0.3203 0.80664,3.3574 -2.45312,-0.8086 3.04492,12.668 c 0,0 6.47778,26.9544 26.30469,41.123 l 14.86718,10.4473 -13.98437,-9.9922 c -21.92166,-16.1768 -26.30469,-41.123 -26.30469,-41.123 l -2.19336,-12.0938 9.67578,0.9063 -1.88867,-7.3321 z m 108.91016,45.4063 -0.34571,0.9531 1.50586,0.5469 0.28711,-0.8809 -1.44726,-0.6191 z m 0.56445,3.334 -2.15234,5.9199 5.37695,1.9551 -9.21484,24.2441 -15.40039,2.9512 0.67773,0.4863 15.60937,-2.9941 9.19336,-24.3731 -5.98828,-2.3515 1.89844,-5.8379 z m 6.63477,50.9648 -1.36133,2.8711 -31.28906,1.3281 1.56054,1.0977 29.24024,-1.3223 1.73047,1.2168 1.84765,-5.082 -1.72851,-0.1094 z"
       id="path4395-0" />
  </g>
  <g
     inkscape:groupmode="layer"
     id="layer1"
     inkscape:label="Text"
     style="display:inline"
     transform="translate(71.721268,106.65716)">
    <g
       id="g4196">
      <rect
         y="1167.7168"
         x="938.6792"
         height="15"
         width="15"
         id="rect7105-1"
         style="display:inline;opacity:1;fill:#60646c;fill-opacity:1;stroke:none;stroke-width:2;stroke-linecap:butt;stroke-linejoin:miter;stroke-miterlimit:4;stroke-dasharray:none;stroke-dashoffset:0;stroke-opacity:1" />
      <rect
         y="1217.7168"
         x="938.6792"
         height="15"
         width="15"
         id="rect7105-8"
         style="display:inline;opacity:1;fill:#ff7a7a;fill-opacity:0.49803922;stroke:none;stroke-width:2;stroke-linecap:butt;stroke-linejoin:miter;stroke-miterlimit:4;stroke-dasharray:none;stroke-dashoffset:0;stroke-opacity:1" />
      <g
         transform="translate(112.10759,-47.0066)"
         id="text7097"
         style="font-style:normal;font-variant:normal;font-weight:normal;font-stretch:normal;font-size:20px;line-height:125%;font-family:Overpass;-inkscape-font-specification:'Overpass, Normal';text-align:end;letter-spacing:0px;word-spacing:0px;writing-mode:lr-tb;text-anchor:end;display:inline;fill:#60646c;fill-opacity:1;stroke:none;stroke-width:1px;stroke-linecap:butt;stroke-linejoin:miter;stroke-opacity:1">
        <path
           style="fill:#60646c;fill-opacity:1"
           id="path7131"
           d="m 719.68793,1229.9675 q -1.08399,0 -2.05078,-0.2832 -0.95704,-0.2832 -1.66993,-0.9277 -0.71289,-0.6543 -1.13281,-1.709 -0.41015,-1.0644 -0.41015,-2.6269 l 0,-8.7012 2.08007,0 0,8.7012 q 0,1.0546 0.24414,1.7382 0.24414,0.6836 0.66407,1.084 0.42968,0.4004 1.01562,0.5664 0.58594,0.1563 1.25977,0.1563 0.67383,0 1.25,-0.1563 0.58593,-0.166 1.01562,-0.5664 0.43946,-0.4004 0.6836,-1.084 0.24414,-0.6836 0.24414,-1.7382 l 0,-8.7012 2.08007,0 0,8.7012 q 0,1.5429 -0.40039,2.6074 -0.40039,1.0547 -1.11328,1.709 -0.70312,0.6543 -1.66992,0.9472 -0.9668,0.2832 -2.08984,0.2832 z"
           inkscape:connector-curvature="0" />
        <path
           style="fill:#60646c;fill-opacity:1"
           id="path7133"
           d="m 734.49261,1229.7234 0,-6.1035 q 0,-0.6446 -0.15625,-1.0938 -0.15625,-0.459 -0.42968,-0.7422 -0.27344,-0.2929 -0.64453,-0.4199 -0.3711,-0.1367 -0.81055,-0.1367 -0.46875,0 -0.86914,0.1269 -0.40039,0.1172 -0.69336,0.3907 -0.29297,0.2734 -0.46875,0.7324 -0.16602,0.4492 -0.16602,1.1035 l 0,6.1426 -2.08007,0 0,-10.2246 2.08007,0 0,0.9863 q 0.49805,-0.6348 1.14258,-0.9277 0.64453,-0.293 1.49414,-0.293 0.80078,0 1.47461,0.2344 0.67383,0.2246 1.16211,0.7422 0.49805,0.5175 0.77149,1.3476 0.27343,0.8301 0.27343,2.0313 l 0,6.1035 -2.08008,0 z"
           inkscape:connector-curvature="0" />
        <path
           style="fill:#60646c;fill-opacity:1"
           id="path7135"
           d="m 743.4184,1229.9675 q -1.02539,0 -1.85547,-0.3613 -0.82032,-0.3613 -1.40625,-1.0449 -0.57617,-0.6934 -0.88867,-1.6797 -0.3125,-0.9961 -0.3125,-2.2559 0,-1.2597 0.3125,-2.2558 0.3125,-0.9961 0.88867,-1.6797 0.58593,-0.6934 1.40625,-1.0547 0.83008,-0.3711 1.85547,-0.3711 1.42578,0 2.41211,0.6348 0.99609,0.6347 1.44531,2.0019 l -1.97266,0.6836 q -0.22461,-0.5859 -0.68359,-0.9472 -0.45899,-0.3711 -1.12305,-0.3711 -0.58594,0 -1.03516,0.2343 -0.44921,0.2344 -0.76171,0.6739 -0.30274,0.4296 -0.46875,1.0546 -0.15625,0.6153 -0.15625,1.3965 0,0.7813 0.15625,1.4063 0.16601,0.6152 0.45898,1.0449 0.30273,0.4297 0.73242,0.6641 0.43946,0.2246 0.9961,0.2246 0.70312,0 1.20117,-0.3906 0.50781,-0.3907 0.72265,-1.1133 l 1.97266,0.625 q -0.41016,1.4258 -1.39648,2.1582 -0.97657,0.7226 -2.5,0.7226 z"
           inkscape:connector-curvature="0" />
        <path
           style="fill:#60646c;fill-opacity:1"
           id="path7137"
           d="m 756.13324,1229.7234 0,-6.1035 q 0,-0.6446 -0.15625,-1.0938 -0.15625,-0.459 -0.42969,-0.7422 -0.27344,-0.2929 -0.64453,-0.4199 -0.37109,-0.1367 -0.81055,-0.1367 -0.46875,0 -0.86914,0.1269 -0.40039,0.1172 -0.69336,0.3907 -0.29296,0.2734 -0.46875,0.7324 -0.16601,0.4492 -0.16601,1.1035 l 0,6.1426 -2.08008,0 0,-13.4766 2.08008,-0.9668 0,5.2051 q 0.49805,-0.6348 1.14258,-0.9277 0.64453,-0.293 1.49414,-0.293 0.80078,0 1.47461,0.2344 0.67382,0.2246 1.16211,0.7422 0.49804,0.5175 0.77148,1.3476 0.27344,0.8301 0.27344,2.0313 l 0,6.1035 -2.08008,0 z"
           inkscape:connector-curvature="0" />
        <path
           style="fill:#60646c;fill-opacity:1"
           id="path7139"
           d="m 768.93597,1229.7234 -1.99218,0 0,-0.8789 q -0.19532,0.2051 -0.46875,0.4101 -0.27344,0.1954 -0.625,0.3614 -0.3418,0.1562 -0.77149,0.2539 -0.42969,0.098 -0.9375,0.098 -0.78125,0 -1.44531,-0.2148 -0.66406,-0.2149 -1.15234,-0.6445 -0.48829,-0.4395 -0.77149,-1.0743 -0.27344,-0.6445 -0.27344,-1.4941 0,-0.8789 0.33204,-1.5137 0.33203,-0.6445 0.8789,-1.0547 0.54688,-0.4199 1.25,-0.6152 0.71289,-0.1953 1.46485,-0.1953 0.70312,0 1.34765,0.1562 0.6543,0.1465 1.17188,0.4493 l 0,-0.5664 q 0,-0.5762 -0.13672,-0.9766 -0.12696,-0.4004 -0.40039,-0.6445 -0.26367,-0.2539 -0.67383,-0.3614 -0.41016,-0.1172 -0.97656,-0.1172 -0.95703,0 -1.66016,0.2539 -0.69336,0.254 -1.25977,0.6739 l -0.61523,-1.709 q 0.3125,-0.2149 0.71289,-0.4004 0.40039,-0.1953 0.87891,-0.3418 0.47851,-0.1465 1.03515,-0.2246 0.55664,-0.088 1.19141,-0.088 0.42969,0 0.88867,0.049 0.45899,0.049 0.88867,0.1953 0.43946,0.1368 0.82032,0.4004 0.39062,0.2637 0.67382,0.6934 0.29297,0.4199 0.45899,1.0352 0.16601,0.6152 0.16601,1.4648 l 0,6.6211 z m -4.41406,-1.6016 q 0.79102,0 1.39649,-0.3222 0.61523,-0.3223 1.02539,-0.7715 l 0,-1.5625 q -0.42969,-0.2246 -1.00586,-0.3614 -0.57617,-0.1367 -1.18164,-0.1367 -0.46875,0 -0.87891,0.088 -0.41016,0.088 -0.72266,0.2832 -0.30273,0.1856 -0.47851,0.4883 -0.17578,0.293 -0.17578,0.7129 0,0.7324 0.50781,1.1621 0.51758,0.4199 1.51367,0.4199 z"
           inkscape:connector-curvature="0" />
        <path
           style="fill:#60646c;fill-opacity:1"
           id="path7141"
           d="m 778.08636,1229.7234 0,-6.1035 q 0,-0.6446 -0.15625,-1.0938 -0.15625,-0.459 -0.42968,-0.7422 -0.27344,-0.2929 -0.64453,-0.4199 -0.3711,-0.1367 -0.81055,-0.1367 -0.46875,0 -0.86914,0.1269 -0.40039,0.1172 -0.69336,0.3907 -0.29297,0.2734 -0.46875,0.7324 -0.16602,0.4492 -0.16602,1.1035 l 0,6.1426 -2.08007,0 0,-10.2246 2.08007,0 0,0.9863 q 0.49805,-0.6348 1.14258,-0.9277 0.64453,-0.293 1.49414,-0.293 0.80078,0 1.47461,0.2344 0.67383,0.2246 1.16211,0.7422 0.49805,0.5175 0.77149,1.3476 0.27343,0.8301 0.27343,2.0313 l 0,6.1035 -2.08008,0 z"
           inkscape:connector-curvature="0" />
        <path
           style="fill:#60646c;fill-opacity:1"
           id="path7143"
           d="m 785.43011,1232.1257 q 1.12305,-0.068 1.85547,-0.2636 0.73243,-0.1954 1.16211,-0.4981 0.42969,-0.293 0.59571,-0.6933 0.16601,-0.4004 0.16601,-0.8692 l 0,-0.8984 q -0.84961,1.0644 -2.46094,1.0644 -0.8789,0 -1.64062,-0.332 -0.76172,-0.3418 -1.33789,-1.0156 -0.56641,-0.6739 -0.89844,-1.6699 -0.32226,-1.0059 -0.32226,-2.3438 0,-1.2598 0.3125,-2.2461 0.3125,-0.9961 0.86914,-1.6797 0.5664,-0.6933 1.34765,-1.0547 0.78125,-0.3613 1.71875,-0.3613 0.44922,0 0.82031,0.088 0.3711,0.078 0.66407,0.2148 0.30273,0.1368 0.52734,0.3125 0.23438,0.1661 0.40039,0.3418 l 0,-0.7226 2.08008,0 0,9.4433 q 0,1.1719 -0.23438,1.9922 -0.23437,0.8203 -0.80078,1.4063 -0.38086,0.3906 -0.83984,0.6347 -0.44922,0.2539 -0.94727,0.4102 -0.48828,0.1562 -0.99609,0.2246 -0.50781,0.078 -0.99609,0.1172 l -1.04493,-1.6016 z m 1.69922,-4.1211 q 0.63477,0 1.18164,-0.3125 0.55664,-0.3125 0.89844,-0.8886 l 0,-4.4239 q -0.15625,-0.2539 -0.39062,-0.4589 -0.22461,-0.2149 -0.49805,-0.3711 -0.26367,-0.1563 -0.57617,-0.2344 -0.30274,-0.088 -0.61524,-0.088 -1.2207,0 -1.86523,0.8691 -0.63477,0.8594 -0.63477,2.5098 0,0.7813 0.17578,1.416 0.17579,0.625 0.49805,1.0645 0.32227,0.4394 0.78125,0.6836 0.46875,0.2343 1.04492,0.2343 z"
           inkscape:connector-curvature="0" />
        <path
           style="fill:#60646c;fill-opacity:1"
           id="path7145"
           d="m 798.44769,1229.9675 q -1.06445,0 -1.92383,-0.3613 -0.85937,-0.3711 -1.46484,-1.0547 -0.60547,-0.6933 -0.9375,-1.6894 -0.32226,-0.9961 -0.32226,-2.2559 0,-1.2598 0.33203,-2.2461 0.33203,-0.9961 0.9375,-1.6797 0.61523,-0.6933 1.46484,-1.0547 0.85938,-0.3613 1.91406,-0.3613 0.90821,0 1.69922,0.293 0.80078,0.2832 1.39649,0.8789 0.60546,0.5859 0.94726,1.4844 0.35156,0.8984 0.35156,2.1191 0,0.332 -0.0195,0.7031 -0.01,0.3711 -0.0586,0.6446 l -6.88477,0 q 0.01,0.6347 0.22461,1.1425 0.22461,0.4981 0.58594,0.8594 0.36133,0.3516 0.82031,0.5469 0.45899,0.1855 0.95703,0.1855 0.63477,0 1.17188,-0.2636 0.54687,-0.2637 0.94726,-0.7715 l 1.35743,1.3965 q -0.55664,0.664 -1.42578,1.0742 -0.86915,0.4101 -2.07032,0.4101 z m 0,-8.8672 q -0.48828,0 -0.9375,0.1465 -0.44922,0.1367 -0.80078,0.4492 -0.3418,0.3028 -0.5664,0.8008 -0.22461,0.4981 -0.26368,1.211 l 4.88282,0 q -0.0195,-0.7129 -0.22461,-1.211 -0.20508,-0.498 -0.53711,-0.8008 -0.33203,-0.3125 -0.74219,-0.4492 -0.40039,-0.1465 -0.81055,-0.1465 z"
           inkscape:connector-curvature="0" />
        <path
           style="fill:#60646c;fill-opacity:1"
           id="path7147"
           d="m 808.9848,1229.9675 q -0.96679,0 -1.75781,-0.3613 -0.78125,-0.3711 -1.33789,-1.0547 -0.55664,-0.6933 -0.85938,-1.6894 -0.29296,-0.9961 -0.29296,-2.2559 0,-1.2598 0.3125,-2.2461 0.3125,-0.9961 0.86914,-1.6797 0.5664,-0.6933 1.34765,-1.0547 0.78125,-0.3613 1.71875,-0.3613 0.83985,0 1.42578,0.2734 0.59571,0.2735 0.98633,0.6836 l 0,-3.9746 2.08008,-0.9668 0,14.4434 -2.08008,0 0,-0.7227 q -0.41015,0.459 -0.98633,0.7129 -0.5664,0.2539 -1.42578,0.2539 z m 0.29297,-1.9629 q 0.70313,0 1.24024,-0.3027 0.5371,-0.3027 0.8789,-0.8594 l 0,-4.5019 q -0.11719,-0.1953 -0.3125,-0.3906 -0.19531,-0.1954 -0.46875,-0.3516 -0.26367,-0.166 -0.60547,-0.2637 -0.33203,-0.1074 -0.73242,-0.1074 -1.17187,0 -1.81641,0.8691 -0.64453,0.8594 -0.64453,2.5098 0,0.7422 0.16602,1.3672 0.17578,0.6152 0.48828,1.0742 0.32227,0.4492 0.77148,0.7031 0.45899,0.2539 1.03516,0.2539 z"
           inkscape:connector-curvature="0" />
        <path
           style="fill:#60646c;fill-opacity:1"
           id="path7149"
           d="m 767.31488,1254.7234 -1.11328,-3.2227 -5.66406,0 -1.14258,3.2227 -2.1582,0 5.05859,-14.0039 2.13867,0 5.03906,14.0039 -2.1582,0 z m -3.45703,-9.8242 q -0.11719,-0.3321 -0.26367,-0.7715 -0.13672,-0.4395 -0.21485,-0.8008 -0.0976,0.3613 -0.23437,0.8008 -0.12695,0.4297 -0.24414,0.7715 l -1.72852,4.7656 4.38477,0 -1.69922,-4.7656 z"
           inkscape:connector-curvature="0" />
        <path
           style="fill:#60646c;fill-opacity:1"
           id="path7151"
           d="m 775.5473,1254.9675 q -0.96679,0 -1.75781,-0.3613 -0.78125,-0.3711 -1.33789,-1.0547 -0.55664,-0.6933 -0.85938,-1.6894 -0.29296,-0.9961 -0.29296,-2.2559 0,-1.2598 0.3125,-2.2461 0.3125,-0.9961 0.86914,-1.6797 0.5664,-0.6933 1.34765,-1.0547 0.78125,-0.3613 1.71875,-0.3613 0.83985,0 1.42578,0.2734 0.59571,0.2735 0.98633,0.6836 l 0,-3.9746 2.08008,-0.9668 0,14.4434 -2.08008,0 0,-0.7227 q -0.41015,0.459 -0.98633,0.7129 -0.5664,0.2539 -1.42578,0.2539 z m 0.29297,-1.9629 q 0.70313,0 1.24024,-0.3027 0.5371,-0.3027 0.8789,-0.8594 l 0,-4.5019 q -0.11719,-0.1953 -0.3125,-0.3906 -0.19531,-0.1954 -0.46875,-0.3516 -0.26367,-0.166 -0.60547,-0.2637 -0.33203,-0.1074 -0.73242,-0.1074 -1.17187,0 -1.81641,0.8691 -0.64453,0.8594 -0.64453,2.5098 0,0.7422 0.16602,1.3672 0.17578,0.6152 0.48828,1.0742 0.32227,0.4492 0.77148,0.7031 0.45899,0.2539 1.03516,0.2539 z"
           inkscape:connector-curvature="0" />
        <path
           style="fill:#60646c;fill-opacity:1"
           id="path7153"
           d="m 786.7973,1254.9675 q -0.96679,0 -1.75781,-0.3613 -0.78125,-0.3711 -1.33789,-1.0547 -0.55664,-0.6933 -0.85938,-1.6894 -0.29296,-0.9961 -0.29296,-2.2559 0,-1.2598 0.3125,-2.2461 0.3125,-0.9961 0.86914,-1.6797 0.5664,-0.6933 1.34765,-1.0547 0.78125,-0.3613 1.71875,-0.3613 0.83985,0 1.42578,0.2734 0.59571,0.2735 0.98633,0.6836 l 0,-3.9746 2.08008,-0.9668 0,14.4434 -2.08008,0 0,-0.7227 q -0.41015,0.459 -0.98633,0.7129 -0.5664,0.2539 -1.42578,0.2539 z m 0.29297,-1.9629 q 0.70313,0 1.24024,-0.3027 0.5371,-0.3027 0.8789,-0.8594 l 0,-4.5019 q -0.11719,-0.1953 -0.3125,-0.3906 -0.19531,-0.1954 -0.46875,-0.3516 -0.26367,-0.166 -0.60547,-0.2637 -0.33203,-0.1074 -0.73242,-0.1074 -1.17187,0 -1.81641,0.8691 -0.64453,0.8594 -0.64453,2.5098 0,0.7422 0.16602,1.3672 0.17578,0.6152 0.48828,1.0742 0.32227,0.4492 0.77148,0.7031 0.45899,0.2539 1.03516,0.2539 z"
           inkscape:connector-curvature="0" />
        <path
           style="fill:#60646c;fill-opacity:1"
           id="path7155"
           d="m 798.44769,1254.9675 q -1.06445,0 -1.92383,-0.3613 -0.85937,-0.3711 -1.46484,-1.0547 -0.60547,-0.6933 -0.9375,-1.6894 -0.32226,-0.9961 -0.32226,-2.2559 0,-1.2598 0.33203,-2.2461 0.33203,-0.9961 0.9375,-1.6797 0.61523,-0.6933 1.46484,-1.0547 0.85938,-0.3613 1.91406,-0.3613 0.90821,0 1.69922,0.293 0.80078,0.2832 1.39649,0.8789 0.60546,0.5859 0.94726,1.4844 0.35156,0.8984 0.35156,2.1191 0,0.332 -0.0195,0.7031 -0.01,0.3711 -0.0586,0.6446 l -6.88477,0 q 0.01,0.6347 0.22461,1.1425 0.22461,0.4981 0.58594,0.8594 0.36133,0.3516 0.82031,0.5469 0.45899,0.1855 0.95703,0.1855 0.63477,0 1.17188,-0.2636 0.54687,-0.2637 0.94726,-0.7715 l 1.35743,1.3965 q -0.55664,0.664 -1.42578,1.0742 -0.86915,0.4101 -2.07032,0.4101 z m 0,-8.8672 q -0.48828,0 -0.9375,0.1465 -0.44922,0.1367 -0.80078,0.4492 -0.3418,0.3028 -0.5664,0.8008 -0.22461,0.4981 -0.26368,1.211 l 4.88282,0 q -0.0195,-0.7129 -0.22461,-1.211 -0.20508,-0.498 -0.53711,-0.8008 -0.33203,-0.3125 -0.74219,-0.4492 -0.40039,-0.1465 -0.81055,-0.1465 z"
           inkscape:connector-curvature="0" />
        <path
           style="fill:#60646c;fill-opacity:1"
           id="path7157"
           d="m 808.9848,1254.9675 q -0.96679,0 -1.75781,-0.3613 -0.78125,-0.3711 -1.33789,-1.0547 -0.55664,-0.6933 -0.85938,-1.6894 -0.29296,-0.9961 -0.29296,-2.2559 0,-1.2598 0.3125,-2.2461 0.3125,-0.9961 0.86914,-1.6797 0.5664,-0.6933 1.34765,-1.0547 0.78125,-0.3613 1.71875,-0.3613 0.83985,0 1.42578,0.2734 0.59571,0.2735 0.98633,0.6836 l 0,-3.9746 2.08008,-0.9668 0,14.4434 -2.08008,0 0,-0.7227 q -0.41015,0.459 -0.98633,0.7129 -0.5664,0.2539 -1.42578,0.2539 z m 0.29297,-1.9629 q 0.70313,0 1.24024,-0.3027 0.5371,-0.3027 0.8789,-0.8594 l 0,-4.5019 q -0.11719,-0.1953 -0.3125,-0.3906 -0.19531,-0.1954 -0.46875,-0.3516 -0.26367,-0.166 -0.60547,-0.2637 -0.33203,-0.1074 -0.73242,-0.1074 -1.17187,0 -1.81641,0.8691 -0.64453,0.8594 -0.64453,2.5098 0,0.7422 0.16602,1.3672 0.17578,0.6152 0.48828,1.0742 0.32227,0.4492 0.77148,0.7031 0.45899,0.2539 1.03516,0.2539 z"
           inkscape:connector-curvature="0" />
        <path
           style="fill:#60646c;fill-opacity:1"
           id="path7159"
           d="m 746.16254,1265.7195 3.92578,0 q 1.2207,0 2.1875,0.2832 0.96679,0.2734 1.70898,0.7617 0.74219,0.4883 1.26953,1.1621 0.52735,0.6641 0.85938,1.4453 0.3418,0.7715 0.49805,1.6309 0.15625,0.8594 0.15625,1.7187 0,0.8008 -0.14649,1.6407 -0.13672,0.83 -0.46875,1.6113 -0.32226,0.7715 -0.83984,1.4551 -0.51758,0.6836 -1.26953,1.2011 -0.75196,0.5079 -1.75782,0.8008 -0.99609,0.293 -2.27539,0.293 l -3.84765,0 0,-14.0039 z m 4.17968,12.041 q 0.80079,0 1.42579,-0.2051 0.63476,-0.2148 1.10351,-0.5762 0.47852,-0.3613 0.80078,-0.8496 0.33203,-0.4882 0.53711,-1.0449 0.21485,-0.5664 0.30274,-1.1621 0.0976,-0.6055 0.0976,-1.2012 0,-0.9472 -0.23437,-1.8457 -0.22461,-0.9082 -0.71289,-1.6113 -0.48828,-0.7129 -1.25977,-1.1426 -0.76172,-0.4394 -1.83594,-0.4394 l -2.32422,0 0,10.0781 2.09961,0 z"
           inkscape:connector-curvature="0" />
        <path
           style="fill:#60646c;fill-opacity:1"
           id="path7161"
           d="m 763.72113,1279.9675 q -1.06445,0 -1.92383,-0.3613 -0.85937,-0.3711 -1.46484,-1.0547 -0.60547,-0.6933 -0.9375,-1.6894 -0.32227,-0.9961 -0.32227,-2.2559 0,-1.2598 0.33203,-2.2461 0.33204,-0.9961 0.9375,-1.6797 0.61524,-0.6933 1.46485,-1.0547 0.85937,-0.3613 1.91406,-0.3613 0.9082,0 1.69922,0.293 0.80078,0.2832 1.39648,0.8789 0.60547,0.5859 0.94727,1.4844 0.35156,0.8984 0.35156,2.1191 0,0.332 -0.0195,0.7031 -0.01,0.3711 -0.0586,0.6446 l -6.88477,0 q 0.01,0.6347 0.22461,1.1425 0.22461,0.4981 0.58594,0.8594 0.36133,0.3516 0.82031,0.5469 0.45898,0.1855 0.95703,0.1855 0.63477,0 1.17188,-0.2636 0.54687,-0.2637 0.94726,-0.7715 l 1.35742,1.3965 q -0.55664,0.664 -1.42578,1.0742 -0.86914,0.4101 -2.07031,0.4101 z m 0,-8.8672 q -0.48828,0 -0.9375,0.1465 -0.44922,0.1367 -0.80078,0.4492 -0.3418,0.3028 -0.56641,0.8008 -0.22461,0.4981 -0.26367,1.211 l 4.88281,0 q -0.0195,-0.7129 -0.22461,-1.211 -0.20507,-0.498 -0.53711,-0.8008 -0.33203,-0.3125 -0.74218,-0.4492 -0.40039,-0.1465 -0.81055,-0.1465 z"
           inkscape:connector-curvature="0" />
        <path
           style="fill:#60646c;fill-opacity:1"
           id="path7163"
           d="m 770.61566,1279.7234 0,-13.457 2.08008,-0.9864 0,14.4434 -2.08008,0 z"
           inkscape:connector-curvature="0" />
        <path
           style="fill:#60646c;fill-opacity:1"
           id="path7165"
           d="m 779.93207,1279.9675 q -1.06446,0 -1.92383,-0.3613 -0.85938,-0.3711 -1.46484,-1.0547 -0.60547,-0.6933 -0.9375,-1.6894 -0.32227,-0.9961 -0.32227,-2.2559 0,-1.2598 0.33203,-2.2461 0.33203,-0.9961 0.9375,-1.6797 0.61524,-0.6933 1.46485,-1.0547 0.85937,-0.3613 1.91406,-0.3613 0.9082,0 1.69922,0.293 0.80078,0.2832 1.39648,0.8789 0.60547,0.5859 0.94727,1.4844 0.35156,0.8984 0.35156,2.1191 0,0.332 -0.0195,0.7031 -0.01,0.3711 -0.0586,0.6446 l -6.88476,0 q 0.01,0.6347 0.22461,1.1425 0.22461,0.4981 0.58594,0.8594 0.36132,0.3516 0.82031,0.5469 0.45898,0.1855 0.95703,0.1855 0.63476,0 1.17187,-0.2636 0.54688,-0.2637 0.94727,-0.7715 l 1.35742,1.3965 q -0.55664,0.664 -1.42578,1.0742 -0.86914,0.4101 -2.07031,0.4101 z m 0,-8.8672 q -0.48828,0 -0.9375,0.1465 -0.44922,0.1367 -0.80078,0.4492 -0.3418,0.3028 -0.56641,0.8008 -0.22461,0.4981 -0.26367,1.211 l 4.88281,0 q -0.0195,-0.7129 -0.22461,-1.211 -0.20508,-0.498 -0.53711,-0.8008 -0.33203,-0.3125 -0.74219,-0.4492 -0.40039,-0.1465 -0.81054,-0.1465 z"
           inkscape:connector-curvature="0" />
        <path
           style="fill:#60646c;fill-opacity:1"
           id="path7167"
           d="m 789.68793,1279.9675 q -0.60547,0 -1.04492,-0.1855 -0.42969,-0.1758 -0.7129,-0.5078 -0.27343,-0.3321 -0.40039,-0.8008 -0.12695,-0.4785 -0.12695,-1.0547 l 0,-6.1133 -1.58203,0 0,-1.8066 1.58203,0 0,-3.2129 2.08008,-1.0059 0,4.2188 2.42187,0 0,1.8066 -2.42187,0 0,5.5762 q 0,0.2539 0.0391,0.4687 0.0488,0.2149 0.15625,0.3711 0.11719,0.1563 0.3125,0.2442 0.19531,0.078 0.49805,0.078 0.74219,0 1.51367,-0.4785 l -0.25391,1.9336 q -0.42968,0.2148 -0.9375,0.3418 -0.50781,0.1269 -1.12304,0.1269 z"
           inkscape:connector-curvature="0" />
        <path
           style="fill:#60646c;fill-opacity:1"
           id="path7169"
           d="m 798.44769,1279.9675 q -1.06445,0 -1.92383,-0.3613 -0.85937,-0.3711 -1.46484,-1.0547 -0.60547,-0.6933 -0.9375,-1.6894 -0.32226,-0.9961 -0.32226,-2.2559 0,-1.2598 0.33203,-2.2461 0.33203,-0.9961 0.9375,-1.6797 0.61523,-0.6933 1.46484,-1.0547 0.85938,-0.3613 1.91406,-0.3613 0.90821,0 1.69922,0.293 0.80078,0.2832 1.39649,0.8789 0.60546,0.5859 0.94726,1.4844 0.35156,0.8984 0.35156,2.1191 0,0.332 -0.0195,0.7031 -0.01,0.3711 -0.0586,0.6446 l -6.88477,0 q 0.01,0.6347 0.22461,1.1425 0.22461,0.4981 0.58594,0.8594 0.36133,0.3516 0.82031,0.5469 0.45899,0.1855 0.95703,0.1855 0.63477,0 1.17188,-0.2636 0.54687,-0.2637 0.94726,-0.7715 l 1.35743,1.3965 q -0.55664,0.664 -1.42578,1.0742 -0.86915,0.4101 -2.07032,0.4101 z m 0,-8.8672 q -0.48828,0 -0.9375,0.1465 -0.44922,0.1367 -0.80078,0.4492 -0.3418,0.3028 -0.5664,0.8008 -0.22461,0.4981 -0.26368,1.211 l 4.88282,0 q -0.0195,-0.7129 -0.22461,-1.211 -0.20508,-0.498 -0.53711,-0.8008 -0.33203,-0.3125 -0.74219,-0.4492 -0.40039,-0.1465 -0.81055,-0.1465 z"
           inkscape:connector-curvature="0" />
        <path
           style="fill:#60646c;fill-opacity:1"
           id="path7171"
           d="m 808.9848,1279.9675 q -0.96679,0 -1.75781,-0.3613 -0.78125,-0.3711 -1.33789,-1.0547 -0.55664,-0.6933 -0.85938,-1.6894 -0.29296,-0.9961 -0.29296,-2.2559 0,-1.2598 0.3125,-2.2461 0.3125,-0.9961 0.86914,-1.6797 0.5664,-0.6933 1.34765,-1.0547 0.78125,-0.3613 1.71875,-0.3613 0.83985,0 1.42578,0.2734 0.59571,0.2735 0.98633,0.6836 l 0,-3.9746 2.08008,-0.9668 0,14.4434 -2.08008,0 0,-0.7227 q -0.41015,0.459 -0.98633,0.7129 -0.5664,0.2539 -1.42578,0.2539 z m 0.29297,-1.9629 q 0.70313,0 1.24024,-0.3027 0.5371,-0.3027 0.8789,-0.8594 l 0,-4.5019 q -0.11719,-0.1953 -0.3125,-0.3906 -0.19531,-0.1954 -0.46875,-0.3516 -0.26367,-0.166 -0.60547,-0.2637 -0.33203,-0.1074 -0.73242,-0.1074 -1.17187,0 -1.81641,0.8691 -0.64453,0.8594 -0.64453,2.5098 0,0.7422 0.16602,1.3672 0.17578,0.6152 0.48828,1.0742 0.32227,0.4492 0.77148,0.7031 0.45899,0.2539 1.03516,0.2539 z"
           inkscape:connector-curvature="0" />
      </g>
      <rect
         y="1192.7168"
         x="938.6792"
         height="15"
         width="15"
         id="rect7105"
         style="display:inline;opacity:1;fill:#00b329;fill-opacity:0.49803922;stroke:none;stroke-width:2;stroke-linecap:butt;stroke-linejoin:miter;stroke-miterlimit:4;stroke-dasharray:none;stroke-dashoffset:0;stroke-opacity:1" />
    </g>
  </g>
</svg>
