<?xml version="1.0" encoding="UTF-8" standalone="no"?>
<!-- Created with Inkscape (http://www.inkscape.org/) -->

<svg
   xmlns:dc="http://purl.org/dc/elements/1.1/"
   xmlns:cc="http://creativecommons.org/ns#"
   xmlns:rdf="http://www.w3.org/1999/02/22-rdf-syntax-ns#"
   xmlns:svg="http://www.w3.org/2000/svg"
   xmlns="http://www.w3.org/2000/svg"
   xmlns:sodipodi="http://sodipodi.sourceforge.net/DTD/sodipodi-0.dtd"
   xmlns:inkscape="http://www.inkscape.org/namespaces/inkscape"
   width="2197.925"
   height="1053.8258"
   viewBox="0 0 2197.9251 1053.8258"
   id="svg4596"
   version="1.1"
   inkscape:version="0.92.4 (5da689c313, 2019-01-14)"
   sodipodi:docname="ORD Diff.svg"
   inkscape:export-filename="C:\Users\paulb\Dropbox\Projects\Terminal Silhouettes\Silhouettes\Misc\ORD Diff.png"
   inkscape:export-xdpi="89.996498"
   inkscape:export-ydpi="89.996498">
  <defs
     id="defs4598" />
  <sodipodi:namedview
     id="base"
     pagecolor="#606060"
     bordercolor="#666666"
     borderopacity="1.0"
     inkscape:pageopacity="1"
     inkscape:pageshadow="2"
     inkscape:zoom="0.49497475"
     inkscape:cx="816.92468"
     inkscape:cy="594.04106"
     inkscape:document-units="px"
     inkscape:current-layer="layer7"
     showgrid="false"
     units="px"
     fit-margin-top="25"
     fit-margin-left="25"
     fit-margin-right="25"
     fit-margin-bottom="25"
     inkscape:window-width="1920"
     inkscape:window-height="1137"
     inkscape:window-x="1912"
     inkscape:window-y="-8"
     inkscape:window-maximized="1" />
  <metadata
     id="metadata4601">
    <rdf:RDF>
      <cc:Work
         rdf:about="">
        <dc:format>image/svg+xml</dc:format>
        <dc:type
           rdf:resource="http://purl.org/dc/dcmitype/StillImage" />
        <dc:title />
      </cc:Work>
    </rdf:RDF>
  </metadata>
  <g
     inkscape:groupmode="layer"
     id="layer4"
     inkscape:label="New"
     transform="translate(1053.1889,131.69552)"
     style="display:none">
    <path
       style="display:inline;opacity:1;fill:#aaccff;fill-opacity:1;stroke:none;stroke-width:1.5;stroke-linejoin:miter;stroke-miterlimit:4;stroke-dasharray:none;stroke-dashoffset:0;stroke-opacity:1"
       d="m -503.00828,-104.8766 a 7.5752279,7.5752279 0 0 0 -2.39122,0.47161 l -0.005,-0.007 -33.46728,12.379537 c -21.44703,7.93347 -43.89305,32.68878 -43.89305,32.68878 l 3.78897,3.43603 c -1.981,2.30058 -3.93336,4.75311 -5.83365,7.35543 l -34.1849,-5.84328 a 14.905977,14.905977 0 0 0 -12.18063,-17.20367 14.905977,14.905977 0 0 0 -17.20584,12.18063 l -44.66295,261.294193 -20.5798,-3.51729 -1.8597,10.877 20.5798,3.51838 -36.9258,216.02594 a 14.905977,14.905977 0 0 0 12.1817,17.20474 14.905977,14.905977 0 0 0 17.2037,-12.18063 l 10.6984,-62.58639 20.4161,3.49056 c 7.2239,35.45935 32.59254,53.0258 32.59254,53.0258 l -9.74556,14.07457 77.71219,53.81076 -4.10551,5.92778 1.6309,8.97987 9.7691,6.76404 -6.94373,10.02896 -5.50535,-3.81247 -55.92607,80.76752 -84.70611,31.33275 1.956,5.28721 -19.4784,7.20465 -1.0405,-2.81365 -3.297,1.21915 -0.9144,-2.47252 -131.2085,48.53537 0.9154,2.47247 -3.2959,1.22025 4.5953,12.42231 3.2959,-1.22025 0.9154,2.4768 131.23,-48.4776 -0.9369,-2.53451 3.296,-1.21915 -1.0406,-2.81042 14.2457,-5.27007 91.78564,63.55527 0.0791,15.18887 -2.99756,0.016 0.0182,3.48098 -2.74728,0.0139 0.70687,134.99002 18.62918,-0.0973 -1.30682,-249.6708 29.94683,-43.24919 0.90256,0.62452 1.28541,-1.85545 0.80313,0.55608 1.69288,-2.44465 -1.7057,-1.18066 5.09256,-7.35538 -4.12155,-2.85427 -2.22651,3.2157 -1.38276,-0.9582 3.82424,-5.52243 2.7527,1.90462 1.96342,-2.8361 2.75265,1.90676 14.29167,-20.63859 -5.50535,-3.81247 6.94374,-10.02792 9.768,6.76404 8.97988,-1.63299 4.10441,-5.92881 77.76672,53.8482 10.56473,-15.25731 29.00468,20.08464 a 30.813549,30.813549 0 0 0 9.31031,40.42921 30.813549,30.813549 0 0 0 8.65798,4.13222 l 0.0331,6.38224 -2.23401,0.0129 0.25668,49.01978 c -1.00862,0.004 -2.01763,0.01 -3.02647,0.0149 l 0.0417,8.06981 3.02648,-0.016 c 0.21846,41.48732 0.43502,82.98385 0.65233,124.47446 l -3.02751,0.016 0.0417,8.06871 3.02751,-0.016 c 0.0778,14.87168 0.15528,29.7433 0.23315,44.61493 7.51487,-0.0389 15.03052,-0.078 22.54539,-0.11767 -0.17045,-32.80471 -0.34281,-65.6092 -0.51441,-98.41391 l 1.25447,-0.007 c 0,0 2.35595,-6.35152 2.28959,-19.03238 l 1.63621,-0.009 c -0.0664,-12.68098 -2.48851,-19.0078 -2.48851,-19.0078 l 1.79872,-0.01 c -0.0664,-12.68103 -3.53442,-19.00457 -3.53442,-19.00457 l -1.25546,0.006 -0.41279,-78.76982 -2.23401,0.0117 -0.0332,-6.3801 a 30.813549,30.813549 0 0 0 16.13962,-11.83201 30.813549,30.813549 0 0 0 5.03053,-22.60421 l 31.21191,-22.09942 4.63378,6.5448 23.35603,-16.53637 c 2.57448,3.63676 5.14939,7.2727 7.72436,10.90914 7.27227,-5.14891 14.79152,-10.47182 22.26944,-15.76642 l -4.38563,-6.19399 25.03605,-17.7277 1.5635,2.20834 14.11306,6.49136 6.12451,-4.33652 56.83295,80.27024 c 0.48994,93.68858 0.98284,187.377 1.47256,281.06558 l 18.38858,-0.096 12.5068,-7.30949 12.56457,-0.0652 -0.0257,-5.00484 6.21545,-0.0321 -0.092,-17.59186 -6.21545,0.0331 -0.0267,-5.0038 -12.56457,0.0642 -5.94376,-3.39004 -0.0866,-16.61226 -2.35273,0.0128 -0.0856,-17.90839 2.34419,-0.0118 -0.0663,-12.48435 -2.33772,0.0129 -0.0952,-19.78098 2.33027,-0.0139 -0.0663,-12.48112 -2.32278,0.0118 -0.0952,-19.78202 2.31527,-0.0118 -0.0652,-12.48326 -2.30996,0.0128 c 0.0481,-6.51365 -0.13732,-13.52183 -0.16043,-19.78312 l 2.36559,-0.0128 -0.0642,-12.48221 -2.36663,0.0118 -0.0278,-5.28716 77.478007,-54.85776 159.72238,57.18908 7.1842,39.53518 -5.1149,14.28411 24.627503,8.81737 5.115,-14.28417 30.6462,-25.98997 14.8349,5.31174 8.4292,-23.54099 -42.92,-15.36857 -0.4159,1.16248 -279.10749,-99.93459 -58.07773,-82.0262 6.17477,-4.37178 -1.4351,-15.4691 -1.5635,-2.20725 32.10807,-22.73358 4.38569,6.19404 15.31398,-10.84282 -7.84094,-10.82782 83.123417,-58.85409 22.28554,7.97886 -1.08868,3.03928 5.89996,2.11209 1.08654,-3.03929 27.80587,9.95521 -1.0887,3.03928 5.8999,2.11208 1.0887,-3.03819 46.9441,16.80795 -1.0876,3.03928 5.8989,2.11209 1.0875,-3.03929 34.1764,12.23735 -1.0876,3.03819 5.8989,2.11318 1.0887,-3.03928 18.2998,6.5523 23.149603,-0.12084 0.017,3.22747 6.2657,-0.0331 -0.017,-3.22753 36.7376,-0.19246 -0.1358,-25.96965 -12.3913,0.0652 -0.016,-3.22857 -6.2668,0.0332 0.018,3.22747 -35.8018,0.18825 -0.017,-3.22753 -6.2657,0.0321 0.017,3.22857 -0.8459,0.004 -48.169603,-17.24751 1.0887,-3.03929 -5.8989,-2.11312 -1.0886,3.03923 -34.3828,-12.30892 1.0887,-3.03928 -5.8989,-2.11318 -1.0886999,3.03929 -45.4094501,-16.25833 5.88392,-4.1664 -9.51674,-13.44254 9.81083,-51.92218 17.63784,-27.47222 58.3419,-0.30476 2.5623,-14.99 122.348503,-0.64056 -0.021,-4.05629 11.9474,-0.0631 -0.048,-9.25151 -63.459,0.33258 -0.018,-3.42317 -72.641003,-12.417 c -2.1482,12.56642 -4.2962,25.13362 -6.4443,37.70005 l -56.3175,0.29517 -20.35843,31.71029 -9.13171,48.32785 -4.33329,3.0682 -16.40052,-23.16352 -280.843117,198.84791 12.38492,17.49237 -10.57651,7.48805 -13.01907,-18.38749 c -6.83823,3.24982 -13.57954,5.11238 -20.03334,5.98549 l -0.01,-1.80195 -6.13628,-6.07211 -8.63126,0.0449 -6.07211,6.13628 0.008,1.37531 c -7.78246,-1.23514 -14.56654,-3.51685 -19.81197,-5.75344 l -7.64525,11.04059 -10.65458,-7.37678 6.73945,-9.73384 -193.25807,-133.819 -9.74775,14.07567 c -38.73296,-26.82004 -29.29656,-82.0273 -29.29656,-82.0273 l 4.7214,0.80741 41.88367,-245.029485 -16.45938,-2.81363 -10.65672,-1.82121 -8.23445,-1.40736 12.14531,-71.05186 8.23341,1.40735 7.70619,-45.080078 24.61795,4.20814 a 3.7725586,3.7725586 0 0 0 3.08204,4.35465 3.7725586,3.7725586 0 0 0 4.14077,-2.32383 l 0.0139,-0.0332 a 3.7725586,3.7725586 0 0 0 0,-0.009 c 0.17313,-0.4331 18.20976,-45.35598 57.4842,-59.88398 l 7.67733,-2.83929 0.82558,2.23293 25.78996,-9.54024 -0.005,-0.007 a 7.5752279,7.5752279 0 0 0 4.84337,-5.81976 l 0.005,0.002 0.002,0 a 7.5752279,7.5752279 0 0 0 -6.19191,-8.743527 7.5752279,7.5752279 0 0 0 -1.50896,-0.10052 z m -423.25805,93.804717 a 16.454671,16.454671 0 0 0 -15.714,13.674598 l -26.1589,153.035275 -20.2269,-3.45738 -13.92697,81.4797 -17.9373,-3.06601 -7.9585,46.55804 17.9372,3.066 -3.1312,18.31905 20.22687,3.45738 -26.19207,153.22677 a 16.454671,16.454671 0 0 0 13.4468,18.9917 16.454671,16.454671 0 0 0 18.99167,-13.44785 l 8.0239,-46.94088 -8.396,-1.43516 4.2081,-24.61471 8.396,1.43515 5.0551,-29.57679 -8.396,-1.43516 4.2082,-24.61576 8.396,1.43516 5.0551,-29.5768 -8.396,-1.43515 4.2082,-24.61472 8.3959,1.43516 9.3446,-54.66951 7.8238,1.33786 1.8586,-10.877 -7.8238,-1.33676 4.6488,-27.19095 -8.3971,-1.43515 4.2082,-24.61576 8.3959,1.4362 5.0562,-29.57784 -8.397,-1.43516 4.2081,-24.6147 8.396,1.43515 5.0551,-29.576775 -8.396,-1.43516 4.2082,-24.61684 8.396,1.43515 8.0238,-46.94086 a 16.454671,16.454671 0 0 0 -13.4468,-18.991718 16.454671,16.454671 0 0 0 -3.2778,-0.22779 z M 467.79082,342.66999 a 4.4895689,4.4895689 0 0 0 -3.1024,1.3314 4.4895689,4.4895689 0 0 0 0.032,6.34911 4.4895689,4.4895689 0 0 0 1.7828,1.08117 l 11.5763,25.63922 -0.9507,0.42987 3.9312,8.70611 -4.0477,1.82763 11.108,24.60081 4.0477,-1.82654 11.3711,25.18257 -4.0488,1.82758 11.108,24.6019 4.0488,-1.82873 11.37,25.18366 -4.0488,1.82764 11.108,24.60081 4.0488,-1.82764 23.4576,51.95104 c -3.9531,22.13321 -10.8423,86.19654 28.04652,140.24295 l -32.15622,42.77443 0.9731,0.96252 -2.6147,3.47666 7.5501,7.47091 3.2734,-3.30769 9.0484,8.95419 -8.1832,8.26977 5.608,5.55025 8.18422,-8.27081 9.0483,8.95524 -3.2734,3.30769 7.5489,7.46987 3.4489,-2.64999 0.9732,0.96247 43.5733,-33.47589 c 26.6195,16.67002 77.422,38.73944 147.3599,25.69803 l 34.0522,-0.17861 0.022,4.44236 26.9931,-0.14116 -0.024,-4.44236 37.236,-0.19459 0.024,4.44126 26.992,-0.14116 -0.024,-4.44131 37.2359,-0.19569 0.024,4.44235 26.9931,-0.14115 -0.024,-4.44236 37.23476,-0.19465 0.024,4.44132 26.9931,-0.14116 -0.024,-4.44132 24.249,-0.12724 12.9869,-0.0684 0.024,4.44236 26.992,-0.14116 -0.024,-4.44235 1.6031,-0.009 -0.01,-1.04164 3.3943,-0.0182 a 4.4895689,4.4895689 0 0 0 1.7239,1.16993 4.4895689,4.4895689 0 0 0 5.7876,-2.61254 4.4895689,4.4895689 0 0 0 -1.1988,-4.92572 l 0,0 a 4.4895689,4.4895689 0 0 0 -1.4126,-0.8609 4.4895689,4.4895689 0 0 0 -4.93,1.20415 l -3.3933,0.0182 -0.01,-1.04268 -7.1661,0.0385 -0.059,-11.14326 -61.1791,0.32081 0.013,2.38481 -255.50656,1.3378 a 8.897525,8.897525 0 0 0 -8.7381,-2.10567 l -29.0196,-28.71694 12.8062,-12.93991 -6.3299,-6.26358 -12.8051,12.941 -19.704,-19.49867 12.8052,-12.94094 -6.3299,-6.26359 -12.8052,12.93991 -19.705,-19.49861 12.8063,-12.941 -6.3299,-6.26353 -12.8052,12.941 -19.705,-19.49971 12.8062,-12.9399 -6.3298,-6.26359 -12.8063,12.93991 -19.7039,-19.49861 12.8062,-12.941 -6.3298,-6.26353 -12.8063,12.94094 -19.7039,-19.49965 12.8051,-12.93996 -6.3288,-6.26353 -12.8062,12.93991 -28.6688,-28.37046 a 8.897525,8.897525 0 0 0 -1.86402,-9.93166 8.897525,8.897525 0 0 0 -3.8435,-2.22975 l -56.388,-124.88298 2.1751,-0.98168 -24.142,-53.46964 -10.1552,4.58565 -2.9494,-6.53199 -0.9497,0.42987 -11.5763,-25.63916 a 4.4895689,4.4895689 0 0 0 -0.9572,-4.98458 4.4895689,4.4895689 0 0 0 -3.2467,-1.29822 z m -907.50156,210.55262 10.65458,7.37788 -1.67575,2.42013 -10.65458,-7.37794 1.67575,-2.42007 z m -146.02208,12.5207 1.38276,0.95716 -1.69179,2.44466 -1.38275,-0.9582 1.69178,-2.44362 z"
       id="rect4162"
       inkscape:connector-curvature="0" />
  </g>
  <g
     inkscape:label="Old"
     inkscape:groupmode="layer"
     id="layer1"
     transform="translate(1053.1889,131.69552)"
     style="display:none">
    <path
       id="path4911"
       style="fill:#dddddd;fill-opacity:1;stroke:none;stroke-width:1.5;stroke-miterlimit:4;stroke-dasharray:none;stroke-opacity:1"
       d="m 474.81742,387.13208 5.7879,-2.85735 -4.2494,-8.35218 1.6118,-0.87919 -10.8852,-24.88674 c -2.3804,-0.36087 -4.0175,-2.58307 -3.6566,-4.96344 0.3609,-2.38038 2.5831,-4.01749 4.9635,-3.65656 2.3803,0.36087 4.0174,2.58307 3.6565,4.96345 -0.07,0.46208 -0.214,0.9099 -0.4262,1.32626 l 11.6232,25.31213 1.0989,-0.65935 3.7365,7.98587 7.0335,-3.66327 23.8844,52.67754 -1.0257,0.5129 54.9487,122.9386 c 0,0 10.1106,1.0258 7.2533,13.1877 l 29.2327,29.5991 15.8984,-16.0451 4.9089,5.4217 -15.459,15.7519 20.9538,20.6608 15.5322,-15.459 4.6157,4.6891 -11.5351,11.8836 21.2576,21.1533 11.3679,-11.5499 4.9187,4.9616 -11.1364,11.8689 1.0258,1.0257 5.6414,-5.9344 18.6093,17.9499 -5.6414,5.7146 0.9525,0.9525 11.2827,-11.2828 5.4217,5.275 -11.5026,11.6492 20.8072,21.0271 11.5759,-11.9422 4.8355,4.7622 -15.3124,16.2648 20.8073,20.8073 15.6054,-16.1916 4.9088,4.8355 -15.2392,16.1183 27.3279,27.7675 c 0,0 7.9859,-4.0296 12.3817,3.883 0.2931,-0.2198 254.59588,-0.9525 254.59588,-0.9525 l 0,-1.9049 c 0.2198,-0.1465 60.2239,0.1466 60.2239,0.1466 l 0,7.9859 8.2056,0.073 0.073,1.5386 2.891,0.073 c 1.6584,-1.8577 4.5459,-2.0516 6.4494,-0.4331 1.9036,1.6185 2.1022,4.4365 0.4438,6.2942 -1.6584,1.8577 -4.546,2.0515 -6.4495,0.433 -0.2358,-0.2004 -0.4499,-0.424 -0.6389,-0.6672 l -3.3552,0.088 0.073,1.3188 -4.1761,0.1465 0.1465,6.1543 -25.0566,0 0,-4.5424 -38.684,0.073 0,4.6157 -23.7378,0.073 0,-4.8355 -40.14918,0.2198 -0.073,4.6157 -23.9576,0.073 -0.1466,-4.4692 -39.8562,0.3663 -0.073,4.2493 -23.8111,-0.1464 0.073,-4.396 -40.0759,0.2199 0,4.3958 -24.1774,0.073 0,-3.9563 -36.4128,-0.073 c 0,0 -79.33,22.5741 -149.1648,-25.9165 l -45.6468,36.833 -39.6364,-40.5155 36.3395,-46.2302 c 0,0 -44.9115,-60.8832 -29.306,-139.2035 l -24.4705,-54.729 -3.8098,2.1979 -9.9641,-21.9795 4.1762,-2.1979 -12.6749,-28.0605 -4.1761,2.3445 -9.8175,-22.3458 4.1761,-1.9049 -12.7481,-28.20705 -4.1028,1.97815 z m -903.21096,176.05587 -12.3085,-8.6454 2.198,-3.2236 12.7481,8.4988 z m -198.5481,-591.175359 26.4487,3.66325 c 0,0 -0.2198,3.07713 2.491,3.95631 0,0 2.5642,1.17224 3.883,-1.75836 0,0 13.7581,-46.53848 63.2849,-60.62976 l 0.3108,1.34696 27.9753,-10.56846 c 0,0 6.7348,-3.83366 2.2795,-11.293751 0,0 -3.4192,-5.18062 -9.8432,-2.79753 l -36.886,13.884051 c 0,0 -24.2453,9.63595 -40.5124,30.04759 l 4.8698,4.04088 c 0,0 -2.0723,2.07224 -4.7662,6.63119 l -34.7102,-4.9734 c 0,0 2.355,-13.9694 -11.8584,-16.46041 0,0 -14.9461,-3.22366 -17.7302,10.55016 l -44.8382,262.361959 -18.2026,-3.2231 -1.865,11.70819 18.0285,3.10838 -35.1246,211.88731 c 0,0 -4.3517,17.614 11.501,20.308 0,0 15.4383,2.4867 17.8213,-14.4022 l 9.2215,-52.53141 1.347,0.20723 1.0361,-7.66732 18.1322,2.79753 c 0,0 3.4543,32.14347 35.8375,53.68337 l -10.2571,14.1402 78.8331,54.8022 -5.0553,7.2532 1.3921,7.6196 9.8907,7.2532 -6.9601,10.1839 -5.1286,-3.7366 -56.6338,81.1776 -85.8666,32.3832 1.6851,5.1285 -19.1955,7.5463 -1.0989,-3.1504 -3.0039,1.099 -1.099,-2.7108 -132.7562,49.6004 1.099,2.7841 -3.2969,1.2455 4.4692,11.8689 2.8573,-1.392 0.8792,2.8573 132.8294,-49.6004 -1.2455,-2.7108 3.3702,-1.0257 -1.1722,-3.0772 14.0668,-4.9087 92.8268,64.3999 0,14.4332 -3.7365,0.073 0.073,3.1504 -2.9305,0.1465 -0.073,137.4452 c 0.3663,0.073 20.0013,0 20.0013,0 l 0.8059,-253.4969 29.9654,-42.6402 2.0514,1.4653 1.1723,-1.7584 0.8792,0.7326 2.0514,-3.0771 -3.3702,-2.1979 4.689,-6.5939 -4.689,-3.0771 -1.6118,2.3444 -1.6119,-0.8791 3.9564,-5.7147 4.8355,3.5167 16.5579,-23.1517 -5.2752,-3.6632 7.18,-9.9641 9.3779,6.7404 9.5245,-1.7584 4.8355,-7.0334 77.8074,55.0953 11.1363,-15.9718 28.5733,20.2211 c 0,0 -15.9717,27.9873 15.6787,43.2264 l 0,10.1106 -1.099,-0.073 0.2199,235.7668 20.8072,0 0.2931,-100.8127 1.5386,-0.073 c 0,0 6.374,-18.7559 -0.073,-36.7058 l -1.5386,-0.1465 -0.2198,-97.9553 -1.0257,-0.073 0,-10.5502 c 0,0 24.3775,-8.0861 18.886,-34.5072 l 1.7015,-0.66 0.8059,1.6851 29.5991,-21.1736 5.7147,7.6196 24.1774,-17.2173 7.473,9.9641 22.1261,-16.0451 -4.2494,-5.8612 24.6903,-16.9975 16.4113,8.0592 5.7147,-3.6633 58.9783,84.9142 0.2931,278.99315 18.6585,-0.023 13.0551,-7.66725 12.4335,0 -0.2072,-5.5951 6.424,0.1035 -0.3108,-16.7851 -5.906,0.1033 -0.1036,-5.4914 -12.4335,0 -6.4239,-4.3517 0,-15.1274 -3.1084,0 0,-18.5467 2.1759,0 0,-11.8117 -2.1759,-0.1037 0,-18.443 2.3831,0 0,-12.4334 -2.4813,-0.098 0.293,-24.5438 1.6852,0.073 0,-10.2571 2.491,0 0.073,-1.8316 -4.4692,0.073 c -0.293,-0.4396 0,-18.243 0,-18.243 l 2.4178,0 -0.1465,-7.6928 6.7404,-0.073 -0.1466,-10.9164 -6.5206,0.073 0,-8.2789 3.297,0 62.568301,-43.8125 0.5128,-1.9781 167.43486,62.3341 6.8385,39.7871 -5.5951,14.5057 24.866999,9.5324 5.1806,-14.7129 32.327,-25.696 13.4697,5.1807 8.9106,-23.4164 -322.18256,-119.5687 -58.8049,-83.9259 6.0077,-4.3959 -2.198,-18.6093 31.504,-21.3933 3.9563,6.1542 15.9718,-11.1363 -6.887,-10.1106 84.987401,-58.75851 21.1004,7.54632 -1.6118,3.44344 6.9601,2.71082 1.3921,-3.80981 27.62086,10.62344 -1.1723,3.3702 6.1543,2.7108 1.2455,-3.8098 45.351,16.851 -1.392,3.2236 6.0077,2.2712 1.3921,-3.2969 33.7751,12.5283 -1.1722,3.3702 6.5938,2.7108 1.0258,-3.5899 16.8509,6.0809 24.177399,0 0,3.6633 9.3047,0.2198 -0.073,-3.9563 33.9217,0 -0.073,-25.9358 -11.9422,0 -0.073,-3.9563 -6.4473,0 -0.073,4.0295 -35.9731,0 0,-4.3958 -6.6671,0.073 0.073,4.3959 -1.3188,-0.073 -46.596499,-17.8766 1.2455,-3.297 -6.4474,-2.4177 -1.392,3.7365 -33.6287,-12.67482 1.5386,-3.51674 -6.8136,-2.41773 -1.3187996,3.7365 -45.7905604,-17.43705 -3.2969,2.7108 -9.671,-3.66324 7.2532,-5.27508 -24.617,-36.04638 -7.6196,5.56814 -3.6632,-4.83549 -264.340101,185.21389 3.6632,4.8355 -10.6967,7.3265 11.1363,15.0926 -9.2314,6.8869 -11.2828,-15.6787 c 0,0 -10.1106,3.9563 -22.5656,3.6632 0,0 -0.8792,-4.2493 -4.8355,-4.2493 0,0 -3.5167,-0.4396 -4.8355,3.2237 0,0 -13.4808,1.3187 -25.2032,-3.6633 l -7.6196,11.1363 -13.1877,-9.0849 6.4474,-8.4987 -10.2571,-7.0335 3.5167,-4.8355 -173.4915,-120.00805 -3.3702,4.8355 -10.1106,-7.03342 -10.2571,14.65297 c 0,0 -39.5939,-23.05143 -33.9988,-71.74925 l 2.2018,-11.77283 3.9563,0.73266 41.1749,-243.532873 -33.9949,-6.00772 c 0,-0.73265 12.162,-71.213576 12.162,-71.213576 l 8.6453,1.31876 z m -293.4996,81.397416 7.6196,-46.0104156 c 0,0 3.3701,-16.1183 -13.3343,-19.0489004 0,0 -14.21341,-3.22367 -18.46278,10.84322044 L -971.8733,154.80877 l -19.63502,-3.80979 -13.04118,81.03109 -14.3599,-2.34448 -7.7661,47.76879 14.0669,2.34448 -2.7841,17.58359 19.19542,3.3702 -25.20312,151.6585 c 0,0 -2.6376,17.1441 12.7481,19.9281 0,0 16.55786,2.198 19.34193,-12.6016 l 8.35221,-46.74305 -8.7918,-1.61178 4.24937,-25.49624 8.7918,1.61182 4.98202,-28.71987 -9.08486,-1.61184 4.3959,-25.64274 9.08486,1.90489 4.83549,-28.86641 -8.64527,-1.61184 3.80978,-25.49621 9.37792,1.4653 8.49874,-54.2161 9.23139,1.97815 1.61183,-11.28281 -8.7918,-1.61183 3.95631,-26.81499 -7.98589,-1.4653 3.88305,-25.49622 9.15812,1.4653 4.17611,-28.93967 -8.47817,-1.33267 3.93727,-25.28141 8.91066,1.45057 4.97339,-28.597013 -8.59982,-1.76141 4.14453,-25.07419 z"
       inkscape:connector-curvature="0" />
  </g>
  <g
     inkscape:groupmode="layer"
     id="layer5"
     inkscape:label="Removed"
     style="display:inline">
    <path
       inkscape:connector-curvature="0"
       style="fill:#ff8080;fill-opacity:1;stroke:none;stroke-width:1.5;stroke-miterlimit:4;stroke-dasharray:none;stroke-opacity:1"
       d="m 546.82078,24.99971 c -0.99049,-9.9e-4 -2.08847,0.18012 -3.29297,0.62695 l -36.88672,13.88281 c 0,0 -24.24462,9.63719 -40.51172,30.04883 l 4.86915,4.04101 c 0,0 -2.07173,2.07191 -4.76563,6.63086 l -31.4082,-4.5 a 14.905977,14.905977 0 0 1 -0.17969,1.57032 l 34.18555,5.84179 c 1.90029,-2.60232 3.85103,-5.05489 5.83203,-7.35547 l -3.78906,-3.43554 c -10e-6,0 22.4475,-24.75599 43.89453,-32.68946 l 33.46679,-12.3789 0.004,0.008 a 7.5752279,7.5752279 0 0 1 2.39258,-0.47265 7.5752279,7.5752279 0 0 1 1.29687,0.0742 c -1.09732,-0.91108 -2.81052,-1.8903 -5.10742,-1.89258 z m -19.94922,23.79492 -3.77734,1.39648 0.0215,0.0957 3.7793,-1.42773 -0.0234,-0.0644 z M 416.1118,58.46846 c -4.60215,-0.0276 -12.26367,1.40745 -14.17774,10.87695 l -44.83789,262.36327 -18.20312,-3.22265 -1.86524,11.70703 1.21875,0.21093 1.76953,-10.35156 20.58008,3.51758 44.66211,-261.29296 a 14.905977,14.905977 0 0 1 17.20508,-12.18164 14.905977,14.905977 0 0 1 3.35547,1.00976 c -1.59327,-1.04002 -3.60232,-1.86134 -6.1543,-2.30859 0,0 -1.46085,-0.3156 -3.55273,-0.32812 z m 37.41015,50.89843 c 0.19475,0.46145 0.4786,0.92607 0.9336,1.31055 a 3.7725586,3.7725586 0 0 1 0.0176,-1.14844 l -0.95117,-0.16211 z m -329.46484,10.36133 c -4.48408,-0.008 -12.11567,1.48917 -15.03711,11.16015 l -27.253911,155.61523 -19.63476,-3.81054 -13.04099,81.03125 -14.3614,-2.34375 -0.1796,1.10351 16.7968,2.8711 13.92777,-81.48047 20.22656,3.45898 26.158201,-153.03515 a 16.454671,16.454671 0 0 1 15.71485,-13.67578 16.454671,16.454671 0 0 1 3.27734,0.22852 16.454671,16.454671 0 0 1 0.11133,0.0234 c -0.99961,-0.33473 -2.0821,-0.61809 -3.2793,-0.82813 0,0 -1.38756,-0.31478 -3.42578,-0.31836 z m -0.49219,89.67578 -0.0957,0.56055 5.23047,0.89453 0.0684,-0.38867 -5.20313,-1.06641 z m 278.34961,9.79883 -0.14453,0.84179 8.23437,1.40821 10.65821,1.82031 12.07617,2.06445 0.11328,-0.66797 -30.9375,-5.46679 z m -287.58398,44.22851 -0.125,0.72461 5.10351,0.87304 0.11524,-0.79687 -5.09375,-0.80078 z m -9.2793,54.29101 -0.10742,0.62696 5.16406,0.88281 0.084,-0.56445 -5.14062,-0.94532 z m 249.92187,26.08399 -35.04101,211.38281 c 0,0 -3.28015,13.3016 6.26758,18.55274 a 14.905977,14.905977 0 0 1 -4.39063,-13.26758 l 36.92578,-216.02539 -3.76172,-0.64258 z m -246.10742,2.1582 -0.17383,1.01172 6.20118,1.05859 0.13476,-0.9414 -6.16211,-1.12891 z m -81.894561,63.14258 -0.01,0.043 10.1582,1.69336 -10.1504,-1.73633 z m 14.0567,2.40234 -2.7813,17.56836 2.1426,0.37696 2.998,-17.54102 -2.3593,-0.4043 z m 16.29685,21.64063 -25.08595,150.95703 c 0,0 -2.0294,13.21343 7.8887,18.32227 a 16.454671,16.454671 0 0 1 -5.836,-15.51368 l 26.19145,-153.22656 -3.1582,-0.53906 z m 27.66015,1.95898 -0.10156,0.5918 6.17578,1.05664 0.084,-0.5 -6.15821,-1.14844 z M 1521.1469,473.1872 c -2.0249,0.1041 -3.7662,1.61834 -4.082,3.70117 -0.067,0.44498 -0.044,0.87798 0.02,1.30078 a 4.4895689,4.4895689 0 0 1 1.2422,-2.49219 4.4895689,4.4895689 0 0 1 3.0937,-1.33203 l 0.01,0 a 4.4895689,4.4895689 0 0 1 3.2363,1.29883 4.4895689,4.4895689 0 0 1 1.0606,1.66992 c -0.095,-2.03317 -1.6098,-3.7848 -3.6992,-4.10156 -0.2976,-0.0451 -0.5916,-0.0598 -0.8809,-0.0449 z m -545.10739,1.02343 -264.33982,185.2129 3.66211,4.83593 -10.69532,7.32617 11.13477,15.0918 -9.23047,6.88867 -11.2832,-15.67968 c 0,0 -9.35173,3.64602 -21.14063,3.66797 l 0.875,0.86523 0.01,1.80078 c 6.4538,-0.87311 13.19497,-2.73455 20.0332,-5.98437 l 13.01953,18.38671 10.57617,-7.48828 -12.38476,-17.49218 272.93552,-193.24805 -3.1719,-4.1836 z m 549.65429,6.25782 a 4.4895689,4.4895689 0 0 1 -0.068,0.17968 l 11.5762,25.63868 0.9492,-0.42969 2.9492,6.53125 0.5977,-0.26953 -3.7168,-7.94531 -1.0996,0.66015 -11.1875,-24.36523 z m -1449.984351,8.90429 -0.0879,0.51954 6.20703,1.0625 0.084,-0.48047 -6.20313,-1.10157 z m 303.601571,16.51758 c 1.10762,6.04943 5.86916,25.22698 23.55273,42.125 -7.60003,-8.77449 -16.68029,-22.59533 -20.55469,-41.61328 l -2.99804,-0.51172 z m 1151.65038,1.19922 -0.9668,0.52735 0.7968,1.5664 0.9278,-0.41797 -0.7578,-1.67578 z m 17.789,1.40625 -6.3086,3.28711 6.4727,-2.92383 -0.1641,-0.36328 z m -530.496,7.48438 -0.9786,0.69336 45.4102,16.25781 0.01,-0.0293 -44.4413,-16.92187 z m 515.6484,0.1582 -5.4453,2.68945 10.916,23.51563 1.2226,-0.58985 -9.9453,-22.02343 4.0489,-1.82813 -0.7969,-1.76367 z m -469.1387,13.3125 -0.25,0.70703 5.1602,1.84766 -1.0899,3.03906 10.9317,3.91406 -9.4786,-3.57226 1.5391,-3.51758 -6.8125,-2.41797 z m -85.28319,1.27734 -83.125,58.85352 7.4082,10.23047 0.035,-0.0254 -6.8867,-10.11133 84.3418,-58.3125 -1.7734,-0.63477 z m -549.70505,5.61133 -10.25781,14.65235 c 0,0 -4.99675,-2.92104 -11.1836,-8.84766 3.2556,3.68438 7.04927,7.12639 11.47852,10.19336 l 9.74805,-14.07617 192.86914,133.54882 1.05859,-1.39648 -10.25781,-7.0332 3.51758,-4.83594 -173.49219,-120.00781 -3.3711,4.83593 -10.10937,-7.0332 z m 577.88674,4.47852 -1.086,3.03906 -2.1953,-0.78516 3.9668,1.54493 1.1484,-3.14258 -1.8339,-0.65625 z m 538.1445,1.68554 -1.1348,0.51172 11.3789,25.17969 1.127,-0.50781 -11.3711,-25.1836 z m -1479.357411,1.04297 -0.0918,0.53711 6.24023,1.06641 0.082,-0.46094 -6.23047,-1.14258 z m 1038.609311,0.77735 -0.1152,0.30859 5.0117,1.79492 -1.0898,3.04102 1.4179,0.50781 1.2227,-3.23437 -6.4473,-2.41797 z m -63.6894,8.5625 -1.0899,3.03906 -3.9844,-1.42774 -0.1054,0.30274 6.1543,2.71094 1.2441,-3.8086 44.5274,16.54297 0.1972,-0.55078 -46.9433,-16.80859 z m -627.38476,5.85937 -9.41406,12.97852 1.22656,0.85351 9.10547,-13.14843 c 0,0 -0.42039,-0.30503 -0.91797,-0.6836 z m 750.78516,4.77344 -0.6387,0.008 0.016,3.15039 0.623,-0.004 0,-3.1543 z m 41.4316,0.36719 0.012,2.57031 1.0977,-0.006 -0.047,-2.56445 -1.0625,0 z m 12.4121,3.95507 0.127,24.51954 -36.7364,0.19336 0.016,3.22851 -5.8222,0.0293 0,1.70312 9.3046,0.21875 -0.072,-3.95508 33.9219,0 -0.072,-25.9375 -0.666,0 z m 334.6914,2.0625 -1.2578,0.57422 9.8184,22.34571 1.4257,-0.80079 -9.9863,-22.11914 z m -459.0937,1.90235 -1.086,3.03906 -5.2304,-1.87109 -0.3477,0.80273 6.0078,2.27149 1.3926,-3.29688 33.0898,12.27344 0.3516,-0.98047 -34.1777,-12.23828 z m 40.0781,14.34961 -1.0899,3.03906 -5.1914,-1.85938 -0.457,1.31446 6.5938,2.71094 1.0254,-3.58985 16.8515,6.08008 23.7227,0 -0.01,-1.26367 -23.1504,0.12109 -18.2988,-6.55273 z m 433.9961,6.13086 -1.1856,0.53515 11.3731,25.1836 1.1836,-0.53516 -11.3711,-25.18359 z m -683.78709,12.77148 -0.3027,0.21484 3.6308,5.64844 0.5508,-0.38476 -3.8789,-5.47852 z m 691.42969,14.94922 -1.3887,0.73047 9.9648,21.97851 1.3301,-0.76757 -9.9062,-21.94141 z m -1093.06836,7.30078 -4.50976,6.4707 1.39062,7.6211 0.58203,0.42773 -1.55859,-8.58593 4.10547,-5.92774 -0.01,-0.006 z m 369.68747,0.3711 -0.1582,0.11132 0.2051,0.28907 -0.047,-0.40039 z m 738.21679,14.39257 -1.4609,0.66016 23.4804,52.51562 c -7.322,36.74764 -1.3199,69.65567 7.1133,94.23829 -12.9997,-40.69838 -8.5654,-79.28395 -5.6758,-95.4629 l -23.457,-51.95117 z m -1101.9648,5.97071 0.83203,0.60937 -6.86719,10.04883 0.45508,0.31445 6.94336,-10.02929 -1.36328,-0.94336 z m -11.25586,7.05664 -56.63477,81.17773 -2.55078,0.96094 3.42969,-1.26758 55.91601,-80.75391 -0.16015,-0.11718 z m 24.80859,2.32617 4.20508,3.02344 0.125,-0.0234 -4.33008,-3 z m -11.48242,6.85156 -0.0156,0.0234 4.40821,3.05273 0.0117,-0.0176 -4.4043,-3.05859 z m 335.9766,1.39844 -0.17,0.12109 57.0137,82.08789 c 0,-0.64648 -0.01,-1.29297 -0.01,-1.93945 l -56.834,-80.26953 z m -188.99809,11.18555 -1.44921,2.11914 c 4.92226,1.95456 10.97287,3.84173 17.79101,4.92382 l -0.008,-1.375 1.9043,-1.92382 c -4.96962,-0.20241 -11.83007,-1.02066 -18.23829,-3.74414 z m 142.38869,2.01953 -0.2266,0.16015 3.2129,4.53907 0.2754,-0.19922 -3.2617,-4.5 z m -162.48634,0.51953 -1.67188,2.41406 10.6543,7.37695 1.68945,-2.43945 -10.67187,-7.35156 z m 1010.98823,5.80664 0.8711,1.92969 a 8.897525,8.897525 0 0 1 3.7246,2.12304 c -1.1507,-2.28795 -3.0838,-3.46211 -4.5957,-4.05273 z m -1015.74995,1.0664 -0.73633,1.06446 10.6543,7.3789 0.6875,-0.99414 -10.60547,-7.44922 z m -133.67383,0.57032 -1.8789,2.71289 1.27929,0.92969 1.93945,-2.7129 -1.33984,-0.92968 z m 275.08589,3.24804 -0.019,0.0137 0.5313,0.70898 c -0.1706,-0.24092 -0.3412,-0.48173 -0.5117,-0.72266 z m -281.25386,1.12696 -1.61133,2.3457 -0.68554,-0.375 -0.0762,0.10938 1.38281,0.95703 1.75586,-2.53516 -0.76563,-0.50195 z m -5.24023,6.2207 -1.69141,2.44336 1.38281,0.95703 1.69141,-2.44336 -1.38281,-0.95703 z m 258.50586,2.64258 -1.07032,0.75781 4.37891,5.83985 0.9043,-0.64454 -4.21289,-5.95312 z m -252.91211,1.03906 -0.0879,0.12891 1.70508,1.18164 -1.69336,2.44336 -0.80274,-0.55469 -1.28515,1.85547 -0.90235,-0.625 -3.57422,5.16211 3.50391,-4.98633 2.05078,1.46484 1.17188,-1.75781 0.88085,0.73242 2.05079,-3.07812 -3.01758,-1.9668 z m 1205.44133,10.2461 -15.5605,15.70312 0.6055,0.59961 12.8066,-12.93945 4.6055,4.55859 2.4531,-2.5 -4.9102,-5.42187 z m -1041.05461,0.71484 c -0.25334,0.52245 -0.5333,1.15909 -0.89063,2.05273 a 30.813549,30.813549 0 0 1 0.98828,-1.98437 l -0.0977,-0.0684 z m 1066.99211,25.66016 -15.3125,15.24218 0.4532,0.44922 12.8066,-12.9414 4.3613,4.3164 2.3067,-2.37695 -4.6153,-4.68945 z m -1050.7675,18.3164 0,7.04688 1.875,-0.0117 -0.0332,-6.38282 a 30.813549,30.813549 0 0 1 -1.84179,-0.65234 z m 1045.7187,0.1211 -3.4805,3.51757 19.7032,19.49805 12.8066,-12.93945 4.7227,4.67383 1.9218,-2.04883 -4.9199,-4.96094 -11.3672,11.54883 -19.3867,-19.28906 z m -1046.81831,8.08593 0.0449,47.86524 c 0.31761,-0.002 0.63557,-0.003 0.95312,-0.004 l -0.25195,-47.8125 -0.74609,-0.0488 z m -315.73828,3.55274 -2.23047,0.84179 1.58398,4.82032 2.41016,-0.89063 -1.76367,-4.77148 z m 1394.20309,8.45117 -9.0938,9.18945 19.7051,19.5 12.8067,-12.9414 4.6367,4.58789 2.1269,-2.1543 -5.4218,-5.27539 -11.2813,11.2832 -0.9531,-0.95312 5.6406,-5.71485 -18.166,-17.52148 z m -1395.15817,5.05273 -2.72266,1.00782 92.66211,64.28515 0,13.46289 1.92578,-0.0117 -0.0781,-15.1875 -91.78711,-63.55664 z m 647.97068,3.36133 -3.2461,2.29883 162.50389,60.49805 6.4219,37.36132 1.2285,-3.43359 -7.1856,-39.53516 -159.72259,-57.18945 z m -687.06443,17.16602 -107.69922,39.78515 -0.91602,-2.47656 -3.29492,1.2207 -4.5957,-12.42382 3.29492,-1.21875 -0.7207,-1.95118 -3.71875,1.38868 1.09961,2.78515 -3.29688,1.24414 4.46875,11.86914 2.85742,-1.39257 0.87891,2.85742 111.64258,-41.6875 z m 1454.59762,5.93359 -3.4043,3.43945 19.7051,19.49805 12.8047,-12.93945 4.3925,4.34765 2.0547,-2.18164 -4.8359,-4.76367 -11.5762,11.94336 -19.1406,-19.34375 z m -1097.77145,12.41211 -0.98633,0.006 0.11524,124.47656 1.52343,-0.008 c -0.21731,-41.49056 -0.43388,-82.98724 -0.65234,-124.47456 z m 981.49805,3.91016 c 3.8334,6.65412 6.541,10.3457 6.541,10.3457 l -36.3399,46.23047 18.0782,18.47851 4.5136,-4.5625 -9.0488,-8.95507 -3.2734,3.30859 -7.5489,-7.47266 2.6133,-3.47656 -0.9726,-0.96094 32.1562,-42.77539 c -2.4121,-3.35224 -4.6473,-6.74324 -6.7187,-10.16015 z m -725.81639,13.36914 -2.9199,2.06836 0.027,5.28711 2.3671,-0.0117 0.064,12.48242 -2.3671,0.0117 c 0.023,6.26129 0.2082,13.26955 0.1601,19.7832 l 2.3106,-0.0137 0,0.74414 2.4062,0 0.072,-1.83008 -4.4687,0.0723 c -0.293,-0.4396 0,-18.24219 0,-18.24219 l 2.4179,0 -0.1465,-7.69336 6.7403,-0.0723 -0.1465,-10.91796 -6.5215,0.0742 0,-1.74218 z m 898.74209,3.35156 -14.7128,15.26758 0.3945,0.39062 12.8047,-12.9414 4.3535,4.30664 2.0683,-2.1875 -4.9082,-4.83594 z m -580.8652,11.11719 -6.3047,17.60547 -14.834,-5.3125 -30.6464,25.99023 -5.1153,14.2832 -23.7031,-8.48437 -2.2168,5.74804 24.8672,9.53321 5.1816,-14.71289 32.3262,-25.69727 13.4707,5.18164 8.9102,-23.41601 -1.9356,-0.71875 z m -802.41793,9.12695 -2.66992,0.0508 0.0566,2.45703 2.62696,-0.0137 -0.0137,-2.49414 z m -2.73046,3.20703 -2.79688,0.14063 -0.0742,137.44533 c 0.3663,0.073 20.00196,0 20.00195,0 l 0.0117,-3.38088 -16.43945,0.0859 -0.70312,-134.29102 z m 1272.80859,20.4375 -1.7422,1.33789 c 55.5612,37.13391 116.3972,30.26785 138.2519,26.10938 -64.3459,8.96714 -111.2886,-11.65296 -136.5097,-27.44727 z m 134.7461,3.80859 c -1.1729,0.008 -2.2175,0.22789 -3.0157,0.46094 l 2.5039,2.47852 a 8.897525,8.897525 0 0 1 8.0977,1.54687 c -2.1784,-3.59697 -5.135,-4.50397 -7.5859,-4.48633 z m -922.42579,1.05274 -0.4648,0.002 0.096,19.78125 0.1347,0 0.2344,-19.7832 z m 1186.15039,0.98047 c -0.4291,0.006 -1.2777,0.009 -1.2911,0.0176 l 0,1.66211 1.3008,-0.006 -0.01,-1.67383 z m -114.3223,2.27344 c -69.4832,0.2241 -140.4477,0.47658 -141.3359,0.59961 a 8.897525,8.897525 0 0 1 0.1601,0.13867 l 141.1758,-0.73828 z m 175.5469,5.89648 0.01,1.94141 7.1661,-0.0371 0.01,1.04101 3.3926,-0.0176 a 4.4895689,4.4895689 0 0 1 4.9316,-1.20312 4.4895689,4.4895689 0 0 1 0.4883,0.22461 c -0.1943,-0.25651 -0.4133,-0.50055 -0.6699,-0.71875 -1.9035,-1.6185 -4.7908,-1.42411 -6.4492,0.43359 l -2.8906,-0.0723 -0.074,-1.53907 -5.914,-0.0527 z m -521.0137,1.41992 -4.6055,4.6543 16.0411,16.39648 1.7734,-1.43164 -7.4336,-7.35742 3.2734,-3.30664 -9.0488,-8.95508 z m 499.6426,8.74219 -12.9863,0.0703 -24.25,0.12695 0,0.16211 34.9218,-0.0644 0,4.54102 25.0567,0 -0.012,-0.51172 -22.705,0.11914 -0.025,-4.44336 z m -64.2285,0.33789 -0.5078,0.002 0,4.7168 23.7382,-0.0742 0,-0.32422 -23.207,0.1211 -0.023,-4.44141 z m -64.2285,0.33594 -0.6055,0.004 0.1465,4.45118 23.959,-0.0723 0,-0.0644 -23.4766,0.12304 -0.025,-4.4414 z m -4.9043,0.0254 -32.3301,0.16992 0,0.12695 32.3301,-0.29687 z m -59.3711,0.31054 -0.07,4.11915 0.1406,0 -0.022,-4.11915 -0.049,0 z m -64.1797,0.33594 -16.4258,0.0859 16.3555,0.0332 0,3.95703 0.092,0 -0.021,-4.07617 z m -967.12109,2.40821 0.049,9.1875 -2.3301,0.0137 0.096,19.78125 0.039,0 0,-16.53907 2.3828,0 0,-12.43359 -0.2363,-0.01 z m -254.8164,40.0957 -1.55664,0.008 0.0449,47.28511 20.80664,0 0.008,-2.7773 c -6.3562,0.0334 -12.71232,0.0667 -19.06836,0.0996 -0.0779,-14.87163 -0.15657,-29.74355 -0.23437,-44.61523 z m 254.8457,1.35742 -2.1563,0.0117 0.01,1.33789 2.1504,0 0,-1.34961 z m 0.293,19.89649 0.076,14.62304 0.5625,0.32031 0,-14.94335 -0.6387,0 z m 18.5918,19.47851 0.02,3.47461 0.9511,-0.006 -0.066,-3.46875 -0.9043,0 z m 6.914,5.38867 -0.6699,0.0117 0.082,15.63282 -6.2148,0.031 0.025,5.0058 -12.5645,0.064 -12.5059,7.3106 -18.207,0.096 0,1.8144 18.6582,-0.023 13.0567,-7.6679 12.4335,0 -0.2089,-5.5938 6.4257,0.1035 -0.3125,-16.78512 z"
       id="path4911-9" />
  </g>
  <g
     inkscape:groupmode="layer"
     id="layer6"
     inkscape:label="Added"
     style="display:inline">
    <path
       inkscape:connector-curvature="0"
       style="display:inline;opacity:1;fill:#5fd38d;fill-opacity:1;stroke:none;stroke-width:1.5;stroke-linejoin:miter;stroke-miterlimit:4;stroke-dasharray:none;stroke-dashoffset:0;stroke-opacity:1"
       d="m 551.48108,26.854358 c 0.9519,0.79079 1.43945,1.52929 1.43945,1.52929 4.4553,7.46009 -2.2793,11.29492 -2.2793,11.29492 l -24.19531,9.14063 0.80078,2.16797 25.79102,-9.54102 -0.006,-0.006 a 7.5752279,7.5752279 0 0 0 4.84375,-5.82031 l 0.006,0.002 0.002,0 a 7.5752279,7.5752279 0 0 0 -6.1914,-8.74219 7.5752279,7.5752279 0 0 0 -0.21094,-0.0254 z m -29.125,22.04492 c -49.5268,14.09128 -63.28516,60.628902 -63.28516,60.628902 -1.3188,2.9306 -3.88281,1.75976 -3.88281,1.75976 -0.48197,-0.15631 -0.86725,-0.38476 -1.18164,-0.65039 a 3.7725586,3.7725586 0 0 0 3.09961,3.20704 3.7725586,3.7725586 0 0 0 4.14062,-2.32422 l 0.0137,-0.0332 a 3.7725586,3.7725586 0 0 0 0,-0.01 c 0.17313,-0.4331 18.20993,-45.354812 57.48437,-59.882812 l 3.90039,-1.44336 -0.28906,-1.25195 z m -96.98633,12.16601 c 7.28015,4.75252 5.70313,14.15235 5.70313,14.15235 l 3.30078,0.47265 a 14.905977,14.905977 0 0 0 -9.00391,-14.625 z m 0.87891,42.603512 -7.03321,45.05861 -8.64453,-1.31836 c 0,0 -12.16211,70.48024 -12.16211,71.21289 l 3.05664,0.54101 12,-70.20898 8.23438,1.40625 7.70703,-45.08009 23.66602,4.04688 c -0.42764,-1.01299 -0.37696,-1.9961 -0.37696,-1.9961 l -26.44726,-3.66211 z m -295.9336,17.16602 c 12.94573,4.33633 10.05274,18.22071 10.05274,18.22071 l -7.61914,46.00977 -8.88672,-1.4707 -4.14453,25.07421 3.39843,0.69532 4.11133,-24.05469 8.39649,1.43359 8.02343,-46.93945 a 16.454671,16.454671 0 0 0 -13.33203,-18.96876 z m -2.0664,89.98439 -4.9043,28.20898 -8.91016,-1.45117 -3.9375,25.28125 3.38477,0.5332 4.08398,-23.88867 8.39454,1.43555 5.05664,-29.57813 -3.16797,-0.54101 z m 304.04101,14.47851 -41.06054,242.86523 -3.95704,-0.73242 -2.20117,11.77149 c -3.60792,31.40211 11.56714,52.12485 22.80664,62.89452 -25.20519,-28.53497 -17.81054,-71.82616 -17.81054,-71.82616 l 4.7207,0.80664 41.88477,-245.0293 -4.38282,-0.75 z m -313.42968,39.69141 -4.0625,28.14258 -9.15821,-1.46485 -3.88281,25.49609 2.84375,0.52149 4.10156,-23.99023 8.39649,1.43554 5.05468,-29.57812 -3.29296,-0.5625 z m -9.20118,54.20312 -3.87304,26.25 2.6289,0.48242 4.47656,-26.17968 -3.23242,-0.55274 z m 228.13672,21.16992 -0.0898,0.5293 16.8164,2.875 0.084,-0.50391 -16.81055,-2.90039 z m -223.35156,7.63282 -1.47656,10.34179 -9.23242,-1.97851 -8.498048,54.21679 -9.3789,-1.46484 -3.8086,25.49609 2.48633,0.4629 4.10742,-24.02344 8.39453,1.43554 9.345698,-54.66992 7.82422,1.33789 1.85742,-10.87695 -1.62109,-0.27734 z m -81.484368,14.2539 -7.95899,46.5586 1.52149,0.25976 7.57812,-46.62304 -1.14062,-0.19532 z M 1099.6549,374.81725 c -2.1482,12.56642 -4.2953,25.13279 -6.4434,37.69922 l -56.3183,0.29492 -20.3574,31.71094 -9.1329,48.32812 -4.332,3.06836 -16.4004,-23.16406 -7.9101,5.59961 0.4922,0.65039 7.6191,-5.5664 24.6172,36.04491 -7.252,5.27539 9.6699,3.66406 3.2969,-2.71094 0.6016,0.22852 4.9062,-3.47266 -9.5175,-13.44139 9.8105,-51.92383 17.6387,-27.4707 58.3418,-0.30469 2.5625,-14.99024 122.3476,-0.64062 -0.022,-4.05664 11.9473,-0.0625 -0.047,-9.25196 -63.4589,0.33204 -0.018,-3.42383 -72.6426,-12.41602 z m -1062.982408,35.98633 3.90625,0.66602 0.002,-0.0156 -3.9082,-0.65039 z m 3.26758,18.61133 -0.13281,0.77734 17.06835,2.91797 0.11719,-0.70312 -17.05273,-2.99219 z m 50.66992,7.30273 -4.75195,28.36719 -9.08399,-1.90625 -4.39648,25.64258 2.88086,0.51172 4.12109,-24.09571 8.39649,1.43555 5.05468,-29.57617 -2.2207,-0.37891 z M 1525.2779,477.29772 c 0.013,0.28187 10e-4,0.56781 -0.043,0.85742 -0.07,0.46208 -0.2136,0.90981 -0.4258,1.32617 l 0.4336,0.94532 a 4.4895689,4.4895689 0 0 0 0.035,-3.12891 z m -8.6445,0.84766 a 4.4895689,4.4895689 0 0 0 1.2774,3.86133 4.4895689,4.4895689 0 0 0 1.7812,1.08007 l 10.8203,23.96289 0.6445,-0.35156 -10.8847,-24.88672 c -1.9372,-0.29368 -3.3623,-1.82482 -3.6387,-3.66601 z m -1435.253878,12.76953 -4.89844,28.23827 -8.79297,-1.61133 -4.24804,25.49609 2.55859,0.46876 4.11719,-24.07618 8.39648,1.43555 5.05469,-29.57812 -2.1875,-0.37304 z m 279.029288,10.14844 -1.03515,7.66795 -1.34766,-0.20703 -9.2207,52.53125 c -2.383,16.8889 -17.82227,14.40235 -17.82227,14.40235 -2.07437,-0.35252 -3.79493,-0.9653 -5.23242,-1.75586 a 14.905977,14.905977 0 0 0 7.79102,3.9375 14.905977,14.905977 0 0 0 17.20312,-12.17969 l 10.69922,-62.58788 17.41602,2.97851 c -0.22655,-1.23731 -0.31836,-1.98828 -0.31836,-1.98828 l -18.13282,-2.79882 z m 1190.39649,6.69921 -2.3399,1.05664 23.7207,52.31445 -1.0253,0.51367 54.9472,122.93945 c 0,0 0.949,0.0993 2.1797,0.58008 l -55.5156,-122.95312 2.1758,-0.98047 -24.1426,-53.4707 z m -20.4629,1.38085 -0.023,0.0117 3.1347,6.94531 0.3418,-0.16992 -3.4531,-6.78711 z m 11.6523,2.59766 -0.7461,0.33789 0.02,0.041 0.7265,-0.37891 z m -478.6699,18.11133 -1.0781,3.01172 0.748,0.28515 1.0704,-3.03125 -0.7403,-0.26562 z m -81.875,1.02539 -0.6445,0.44531 20.5098,7.34375 -1.0879,3.03906 3.6914,1.32032 -2.9805,-1.16016 1.6133,-3.44336 -21.1016,-7.54492 z m 97.6172,8.04101 24.1504,9.10157 1.2773,-3.42578 -0.8886,-0.31836 -1.0879,3.03906 -23.4512,-8.39649 z m 463.959,1.40821 -2.8789,1.38672 1.1621,2.57617 2.9141,-1.31446 -1.1973,-2.64843 z m -533.7344,0.4414 -0.2441,0.66602 25.9726,9.29883 -1.0898,3.03906 1.9141,0.68555 1.0683,-3.06641 -27.6211,-10.62305 z m -937.142548,4.3418 -8.26953,46.2832 c -2.78407,14.7996 -19.3418,12.60157 -19.3418,12.60157 -1.8768,-0.33961 -3.48144,-0.8957 -4.85937,-1.60547 a 16.454671,16.454671 0 0 0 7.60937,3.47851 16.454671,16.454671 0 0 0 18.99219,-13.44726 l 8.02344,-46.94141 -2.1543,-0.36914 z m 330.265618,2.86523 c 5.10049,5.8887 9.39527,9.41748 11.1211,10.73047 l 0.84375,-1.16211 c -4.53952,-3.01948 -8.49211,-6.24988 -11.96485,-9.56836 z m 707.41993,1.96094 -0.024,0.0625 46.5957,17.87696 1.3204,0.0742 -0.074,-4.39648 6.0274,-0.0664 0,-0.0762 -6.2656,0.0312 0.017,3.22852 -0.8457,0.004 -46.7519,-16.73828 z m 95.914,13.25196 -6.2675,0.0332 0.02,3.22851 -35.1797,0.1836 0,1.24219 35.9727,0 0.074,-4.0293 5.3848,0 0,-0.6582 z m 12.4063,3.16406 -11.293,0.0605 0.025,1.39063 11.2754,0 -0.01,-1.45117 z m 337.4473,1.80273 -2.9219,1.31836 0.1758,0.39063 2.9179,-1.33008 -0.1718,-0.37891 z m -467.9356,2.05274 -0.8906,2.48633 0.6699,0.24023 1.0449,-2.41992 -0.8242,-0.30664 z m -682.31833,2.33007 -0.64063,0.92579 77.70313,53.80468 0.54492,-0.78125 -77.60742,-53.94922 z m 722.24023,12.44727 -0.7363,2.05664 0.707,0.25391 0.7148,-2.05664 -0.6855,-0.25391 z m 438.0039,5.45508 -2.75,1.54297 0.9453,2.09375 2.8633,-1.29492 -1.0586,-2.3418 z m -390.2969,3.37109 0.01,1.96485 0.4433,-0.002 0,-1.96289 -0.4531,0 z m -271.9804,5.96094 -15.3868,10.72461 0.5059,0.71484 15.3145,-10.84179 -0.4336,-0.59766 z m -19.8926,4.95703 -31.5039,21.39258 0.1797,1.51953 31.6465,-22.41016 -0.3223,-0.50195 z m 694.6015,13.23438 -2.8672,1.29492 0.3204,0.70898 2.789,-1.46679 -0.2422,-0.53711 z m -725.8789,10.07812 1.9707,16.68945 -6.0078,4.39649 58.8047,83.92579 320.2481,118.84961 2.125,-5.93555 -42.92,-15.36914 -0.416,1.16211 -279.1074,-99.93359 -58.0781,-82.02736 6.1738,-4.37109 -1.4336,-15.46875 -1.3594,-1.91797 z m 735.7188,12.4375 -2.4785,1.42969 0.8808,1.95117 2.5879,-1.16797 -0.9902,-2.21289 z m -1107.9922,1.30664 0.0723,0.39649 8.41211,5.82422 -8.48438,-6.22071 z m 40.59571,9.83008 -4.83594,7.0332 -9.39844,1.73633 0.88281,0.61133 8.97852,-1.63281 4.10547,-5.92969 77.76562,53.84766 10.56641,-15.25586 28.9043,20.01563 c 0.2999,-0.61856 0.54687,-1.08008 0.54687,-1.08008 l -28.57226,-20.22266 -11.13672,15.97265 -77.80664,-55.0957 z m -23.73828,2.05273 -7.17969,9.9629 0.87109,0.60546 6.92578,-10.00586 4.52149,3.13086 -5.13867,-3.69336 z m -19.46485,1.49414 -0.01,0.0137 4.96875,3.62109 0.0937,-0.13672 -5.05274,-3.49805 z m 326.22461,5.32032 -24.68945,16.99609 0.98828,1.36133 24.80859,-17.56836 1.5625,2.20898 14.11329,6.49024 5.9551,-4.21484 -0.6114,-0.87891 -5.7148,3.66406 -16.41211,-8.05859 z m -308.67773,6.83008 -14.60547,20.41992 1.41211,0.97851 14.29101,-20.63867 -1.09765,-0.75976 z m 127.16797,4.45507 -5.38868,7.10352 0.71094,0.48828 5.06836,-7.32031 -0.39062,-0.27149 z m 46.45703,4.53907 -8.63086,0.0449 -4.16797,4.21289 c 4.12008,0.16768 6.96484,-0.0801 6.96484,-0.0801 1.3188,-3.6633 4.83594,-3.22461 4.83594,-3.22461 3.9563,0 4.83398,4.25 4.83398,4.25 0.48117,0.0113 0.95206,0.005 1.42579,0.004 l -5.26172,-5.20703 z m -34.50782,1.80273 -5.95703,8.60156 1.8086,1.2461 6.16797,-9.01563 c -0.69557,-0.27622 -1.37011,-0.55512 -2.01954,-0.83203 z m -19.24218,4.86328 -2.19922,3.22461 0.0527,0.0371 0.93946,-1.35742 10.65429,7.37891 -0.98828,1.42773 1.65039,1.1582 2.63867,-3.36914 -12.74804,-8.5 z m 168.08789,0.56641 -21.85156,15.8457 -6.45899,-8.61133 c 2.40398,3.39574 4.80851,6.79002 7.21289,10.18555 7.27227,-5.14891 14.79161,-10.47102 22.26953,-15.76562 l -1.17187,-1.6543 z m -309.34375,3.39062 -3.95508,5.71485 0.92578,0.5039 3.74805,-5.41406 2.75195,1.90625 0.0859,-0.125 -3.55664,-2.58594 z m 1159.4551,2.28907 c 0.9762,1.94103 1.387,4.67935 0.4765,8.55468 l 29.2325,29.59767 0.3378,-0.3418 -28.0644,-27.77149 a 8.897525,8.897525 0 0 0 -1.8633,-9.93164 8.897525,8.897525 0 0 0 -0.1191,-0.10742 z m -879.43557,0.20312 -23.27344,16.57227 0.41992,0.59375 23.33594,-16.52344 -0.48242,-0.64258 z m -279.51563,1.57813 -0.47265,0.68164 3.92578,2.57422 -4.68945,6.59374 0.35351,0.23047 5.00391,-7.22656 -4.1211,-2.85351 z m 249.62305,8.01953 -29.59961,21.17384 -0.80469,-1.68555 -1.70117,0.66015 c 5.4915,26.4211 -18.88672,34.50586 -18.88672,34.50586 l 0,10.55078 1.02539,0.0742 0.22071,97.95508 1.53906,0.14649 c 6.447,17.9499 0.0723,36.70507 0.0723,36.70507 l -1.53907,0.0723 -0.28515,98.03516 c 1.15876,-0.006 2.31782,-0.0115 3.47656,-0.0176 -0.17045,-32.80471 -0.34403,-65.60935 -0.51563,-98.41406 l 1.25391,-0.008 c 0,0 2.35738,-6.35039 2.29102,-19.03125 l 1.63476,-0.01 c -0.0664,-12.68055 -2.48831,-19.00739 -2.48831,-19.00739 l 1.79883,-0.01 c -0.0664,-12.68103 -3.5332,-19.00391 -3.53321,-19.00391 l -1.25585,0.006 -0.41211,-78.77148 -2.23438,0.0117 -0.0332,-6.37891 a 30.813549,30.813549 0 0 0 16.13867,-11.83203 30.813549,30.813549 0 0 0 5.03125,-22.60547 l 30.14258,-21.33985 -1.33594,-1.78125 z m -257.13086,11.63087 -26.47851,37.67578 -0.79493,250.11523 2.19141,-0.0117 -1.30664,-249.66992 26.38867,-38.10937 z m 170.12305,3.4375 a 30.813549,30.813549 0 0 0 10.29687,38.45117 30.813549,30.813549 0 0 0 6.81641,3.47851 l 0,-1.83007 c -25.2608,-12.16263 -20.19158,-32.40576 -17.11328,-40.09961 z m 1044.40036,5.16015 -13.0058,13.25196 20.9531,20.6621 0.2207,-0.21874 -19.252,-19.05079 12.8067,-12.93945 -1.7227,-1.70508 z m -1263.03513,17.94727 -81.28125,30.0664 0.19141,0.51758 81.08984,-30.58398 z m 1288.82423,7.57226 -9.2285,9.50782 1.8711,1.86328 9.3242,-9.42383 -1.9668,-1.94727 z m -823.4981,3.07618 c 0.4866,93.04209 0.9766,186.08485 1.4629,279.127 l 0.1817,0 -0.291,-277.17974 -1.3536,-1.94726 z m -229.57808,15.2207 -0.35938,0.002 0.006,1.20703 0.35352,0.0234 0,-1.23242 z m 1079.47068,7.82226 -9.2168,9.82227 1.0274,1.02539 5.6406,-5.93359 0.4433,0.42773 3.7129,-3.75 -1.6074,-1.5918 z m -1396.95701,2.55469 -17.0664,6.3125 -1.04102,-2.81445 -3.29688,1.2207 -0.91406,-2.47265 -131.20898,48.53515 0.19336,0.52149 129.03906,-48.21094 1.09961,2.71094 3.00391,-1.09961 1.09765,3.15039 19.19531,-7.54688 -0.10156,-0.30664 z m -3.19531,8.73242 -14.06641,4.90821 1.17188,3.07812 -3.36914,1.02539 1.24414,2.71094 -21.5586,8.05078 23.90235,-8.83008 -0.93555,-2.53515 3.29492,-1.21875 -1.04101,-2.81055 11.52343,-4.26367 -0.16601,-0.11524 z m 642.68162,2.93164 -0.5136,1.97852 -62.5684,43.8125 -3.2969,0 0,6.53711 71.3125,-50.49219 -4.9336,-1.83594 z m 643.7852,4.33985 c 3.6392,11.39341 8.6268,22.94878 15.4199,34.22851 -4.4554,-7.78561 -10.3729,-19.5164 -15.4199,-34.22851 z m 15.4199,34.22851 c 0.076,0.12675 0.1498,0.25419 0.2266,0.38086 -0.081,-0.14079 -0.1445,-0.23738 -0.2266,-0.38086 z m 124.2129,-27.10937 -9.3731,9.49414 1.6641,1.68164 9.4023,-9.5 -1.6933,-1.67578 z M 652.60803,812.09069 c -0.69164,0.003 -1.38255,0.006 -2.07422,0.01 l 0.041,8.07032 2.04101,-0.01 -0.008,-8.07031 z m 1132.26367,9.99805 -13.2578,14.08203 20.8066,20.80859 0.8926,-0.92578 -19.3105,-19.10937 12.8046,-12.93946 -1.9355,-1.91601 z m 25.9941,25.7207 -13.1699,13.93164 27.3281,27.76758 c 0,0 0.5929,-0.2916 1.5274,-0.56445 l -26.5156,-26.23829 12.8066,-12.93945 -1.9766,-1.95703 z m -1385.0566,12.22851 -1.07226,0.006 0.006,0.98633 1.0664,-0.0215 0,-0.97071 z m -3.80078,3.5 0.004,0.69922 0.13281,-0.006 -0.0156,-0.69336 -0.1211,0 z m 486.83598,14.25 0,10.25586 -1.6856,-0.0723 -0.019,1.56445 1.8516,-0.01 -0.061,-11.73829 -0.086,0 z m 781.7402,6.53711 -43.8731,35.40039 0.1133,0.11329 3.4492,-2.65039 0.9746,0.96289 41.8301,-32.13672 c -0.8325,-0.55639 -1.6641,-1.11315 -2.4941,-1.68946 z m -541.0664,0.47266 -3.8867,10.85547 0.9257,0.33203 3.3789,-8.75781 -0.4179,-2.42969 z m 1004.9472,4.6875 -61.1777,0.32031 0,0.71094 c 6.6264,-0.0899 58.9336,0.16406 58.9336,0.16406 l 0,7.98633 2.291,0.0195 -0.051,-9.20117 z m -62.4648,2.71094 -113.0332,0.59375 c 55.8265,-0.18006 113.0332,-0.35156 113.0332,-0.35156 l 0,-0.24219 z m -254.8457,0.77734 c 0.084,0.13821 0.1687,0.2717 0.25,0.41797 8e-4,-5.7e-4 0.2244,-10e-4 0.2285,-0.002 a 8.897525,8.897525 0 0 0 -0.4785,-0.41602 z m -213.7754,6.14649 -3.6699,3.70703 5.6074,5.55078 3.5801,-3.61719 -5.5176,-5.64062 z m 547.1348,1.51562 c 1.2468,1.64616 1.2082,3.96892 -0.2266,5.57617 -1.6584,1.8577 -4.5457,2.0521 -6.4492,0.4336 -0.2358,-0.2004 -0.4497,-0.42477 -0.6387,-0.66797 l -3.3554,0.0879 0.072,1.32031 -4.1758,0.14649 0.1348,5.64062 4.2852,-0.0215 -0.023,-4.44336 1.6035,-0.008 -0.01,-1.04296 3.3925,-0.0176 a 4.4895689,4.4895689 0 0 0 1.7247,1.16992 4.4895689,4.4895689 0 0 0 5.7871,-2.61328 4.4895689,4.4895689 0 0 0 -1.1993,-4.92383 4.4895689,4.4895689 0 0 0 -0.9218,-0.63672 z m -102.1055,8.4336 -40.1484,0.2207 -0.072,4.55078 3.5176,-0.0176 -0.025,-4.4414 36.7285,-0.19336 0,-0.11914 z m 27.5,0.13867 -3.7617,0.008 0,4.29102 3.7851,-0.0195 -0.023,-4.27929 z m -1186.8144,0.0996 -2.1895,0.0117 -0.039,3.19531 2.2461,0.0879 -0.018,-3.29492 z m 1094.9882,0.20117 -4.2461,0.0391 4.2461,-0.0215 0,-0.0176 z m -63.6679,0.0723 -40.0762,0.22071 0,4.39648 -24.0859,0.0723 0,0.36718 26.9941,-0.14062 -0.023,-4.44336 37.1856,-0.19531 0,-0.27735 z m 27.0371,0.26563 -3.2246,0.0293 -0.074,4.24804 -23.6699,-0.14648 0,0.32226 26.9922,-0.14062 -0.025,-4.3125 z m -127.7032,0.39453 c 0,0 -3.0469,0.85887 -8.4179,1.88086 3.5676,-0.49718 7.1756,-1.06296 10.8496,-1.74805 l 17.625,-0.0937 -20.0567,-0.0391 z m -930.4863,31.33008 -2.2968,0.0137 0,1.9043 2.1757,0.10351 0,10.46289 0.1875,0 -0.066,-12.48437 z m -256.53122,3.0664 -1.50391,0.008 0.041,8.06836 1.4707,-0.008 -0.008,-8.06836 z m 254.23442,10.76758 0,18.54688 2.4687,0 -0.01,-1.98828 -2.3535,0.0117 -0.08,-16.57031 -0.025,0 z m 3.1074,33.49024 0,0.18359 6.4238,4.35156 11.5293,0 -0.01,-1.52929 -12.5645,0.0644 -5.3808,-3.07031 z m 24.1875,7.97656 -5.2656,0.0273 0.039,2.02344 5.2363,-0.0918 -0.01,-1.95898 z"
       id="rect4162-9" />
  </g>
  <g
     inkscape:groupmode="layer"
     id="layer7"
     inkscape:label="No Change"
     style="display:inline">
    <path
       inkscape:connector-curvature="0"
       style="display:inline;opacity:1;fill:#808080;fill-opacity:1;stroke:none;stroke-width:1.5;stroke-linejoin:miter;stroke-miterlimit:4;stroke-dasharray:none;stroke-dashoffset:0;stroke-opacity:1"
       d="m 550.1756,26.817032 a 7.5752279,7.5752279 0 0 0 -2.3906,0.47265 l 0,-0.008 -33.4688,12.37891 c -21.447,7.93347 -43.8926,32.68945 -43.8926,32.68945 l 3.7891,3.43555 c -1.981,2.30058 -3.9337,4.75315 -5.834,7.35547 l -34.18358,-5.8418 a 14.905977,14.905977 0 0 0 0.17774,-1.57031 l -3.30078,-0.47266 c 0,0 1.57702,-9.39982 -5.70313,-14.15234 a 14.905977,14.905977 0 0 0 -3.35547,-1.00977 14.905977,14.905977 0 0 0 -17.20508,12.18164 l -44.66406,261.292958 -20.58008,-3.51562 -1.76953,10.34765 16.81055,2.90039 -0.084,0.50391 3.76368,0.64258 -36.92578,216.02539 a 14.905977,14.905977 0 0 0 4.39062,13.26758 c 1.43749,0.79056 3.15805,1.40334 5.23242,1.75586 0,0 15.43927,2.48655 17.82227,-14.40235 l 9.2207,-52.53125 1.34766,0.20703 1.03515,-7.66796 18.13282,2.79882 c 0,0 0.0918,0.75097 0.31836,1.98828 l 3,0.51368 c 3.8744,19.01794 12.95465,32.83683 20.55468,41.61132 3.47274,3.31848 7.42533,6.54888 11.96485,9.56836 l -0.84375,1.16211 c 0.49735,0.37839 0.91601,0.6836 0.91601,0.6836 l -9.10351,13.14843 77.60744,53.94922 -0.5449,0.78125 0.01,0.006 -4.1055,5.92774 1.5586,8.58398 8.4844,6.22071 1.3574,0.93945 -6.9434,10.02929 -0.4531,-0.31445 -0.094,0.13672 -4.9687,-3.62109 -55.91607,80.7539 -3.42383,1.26563 -81.08984,30.58398 1.76367,4.76953 -2.41211,0.89258 0.10156,0.30664 -19.19531,7.54688 -1.09765,-3.15039 -3.00391,1.09961 -1.09961,-2.71094 -129.03906,48.21094 0.72265,1.95117 -3.29492,1.21875 4.59375,12.42383 3.29688,-1.22071 0.91406,2.47657 107.32812,-39.64649 21.5586,-8.05078 -1.24414,-2.71094 3.36914,-1.02539 -1.17188,-3.07812 14.06641,-4.90821 0.16601,0.11524 2.72266,-1.00781 91.78516,63.55664 0.0801,15.1875 -1.92579,0.0117 0,0.97071 -1.0664,0.0215 0.0117,2.49414 -2.625,0.0137 0.0156,0.69336 -0.13281,0.006 0.70312,134.29102 16.4375,-0.0859 0.79493,-250.11523 26.47851,-37.67578 3.5586,-5.14063 0.9023,0.625 1.2852,-1.85547 0.8027,0.55664 1.6934,-2.44531 -1.707,-1.18164 0.09,-0.12891 -0.3535,-0.23047 4.6894,-6.59374 -3.9258,-2.57422 -1.7539,2.5332 -1.3828,-0.95703 0.076,-0.10938 -0.9258,-0.5039 3.9551,-5.71485 3.5566,2.58594 1.877,-2.71289 1.3418,0.92969 14.6055,-20.41992 -4.4082,-3.05274 0.018,-0.0234 -0.8711,-0.60546 7.1797,-9.9629 5.1386,3.69336 4.3653,3.02344 9.3984,-1.73633 4.8359,-7.0332 77.8067,55.0957 11.1367,-15.97265 28.5723,20.22265 c 0,0 -0.247,0.46152 -0.5469,1.08008 l 0.1,0.0684 a 30.813549,30.813549 0 0 0 -0.9863,1.97852 c -3.0783,7.69385 -8.1476,27.93698 17.1132,40.09961 l 0,1.83007 a 30.813549,30.813549 0 0 0 1.8418,0.65235 l 0.033,6.38281 -1.875,0.0117 0,1.23242 -0.3535,-0.0234 0.25,47.8125 c -0.3171,10e-4 -0.634,0.002 -0.9512,0.004 l 0.01,8.07031 0.9864,-0.006 c 0.2184,41.48732 0.435,82.984 0.6523,124.47461 l -1.5234,0.008 0.01,8.06836 1.5566,-0.008 c 0.078,14.87168 0.1546,29.74361 0.2324,44.61524 6.3562,-0.0329 12.7141,-0.0662 19.0704,-0.0996 l 0.2851,-98.03516 1.5391,-0.0723 c 0,0 6.3747,-18.75517 -0.072,-36.70507 l -1.5391,-0.14649 -0.2207,-97.95508 -1.0254,-0.0742 0,-10.55078 c 0,0 24.3782,-8.08476 18.8867,-34.50586 l 1.7012,-0.66015 0.8047,1.68555 29.5996,-21.17383 1.336,1.78125 1.0683,-0.75782 4.2149,5.95118 23.2734,-16.57227 0.4824,0.64258 0.019,-0.0137 c 0.1706,0.24092 0.3412,0.48173 0.5117,0.72265 l 6.459,8.61133 21.8516,-15.8457 -3.2129,-4.53906 0.2266,-0.16016 -0.9883,-1.36133 24.6894,-16.99609 16.4121,8.05859 5.7149,-3.66406 0.6113,0.87891 0.1699,-0.1211 56.834,80.26953 c 0,0.64648 0.01,1.29297 0.01,1.93946 l 1.3535,1.94726 0.2911,277.17972 18.205,-0.096 12.5078,-7.3105 12.5645,-0.064 -0.025,-5.0058 6.2148,-0.031 -0.082,-15.63286 -5.2363,0.0918 -0.039,-2.02344 -0.9492,0.006 -0.02,-3.47461 -11.5293,0 -6.4238,-4.35156 0,-0.18359 -0.5625,-0.32032 -0.076,-14.62304 -2.4688,0 0,-18.54688 0.025,0 -0.01,-1.33789 2.1563,-0.0117 0,-10.46289 -2.1758,-0.10351 0,-1.9043 -0.041,0 -0.094,-19.78125 2.3301,-0.0137 -0.049,-9.1875 -2.2461,-0.0879 0.039,-3.19531 -0.1329,0 -0.096,-19.78126 0.4629,-0.002 0.02,-1.56445 1.6856,0.0723 0,-10.25586 0.086,0 0,-0.74414 -2.3106,0.0117 c 0.048,-6.51365 -0.137,-13.52191 -0.1601,-19.7832 l 2.3652,-0.0117 -0.064,-12.48242 -2.3652,0.0117 -0.029,-5.28711 2.9218,-2.06836 0,-6.53711 3.2969,0 62.5684,-43.8125 0.5136,-1.97852 4.9336,1.83594 3.2442,-2.29687 159.7226,57.1875 7.1836,39.53515 -1.2285,3.42969 0.4179,2.42969 -3.3789,8.75781 23.7032,8.48438 5.1152,-14.28321 30.6465,-25.99023 14.834,5.3125 6.3047,-17.60547 -320.2481,-118.84961 -58.8046,-83.92578 6.0078,-4.39649 -1.9707,-16.68945 -0.2051,-0.28906 0.1582,-0.11133 -0.1797,-1.51953 31.5039,-21.39258 0.3223,0.50195 0.3027,-0.21289 3.8809,5.47852 15.3867,-10.72461 -7.4082,-10.23047 83.123,-58.85351 1.7754,0.63476 0.6446,-0.44531 21.1015,7.54492 -1.6133,3.44336 2.9805,1.16016 2.209,0.79101 1.0859,-3.03906 1.834,0.65625 0.2441,-0.66602 27.6211,10.62305 -1.0683,3.06641 3.9863,1.42773 1.0898,-3.03906 46.9434,16.80859 -0.1973,0.55274 0.8242,0.30664 -1.0449,2.41992 5.2285,1.87109 1.0879,-3.03906 34.1758,12.23828 -0.3496,0.98047 0.6855,0.25391 -0.7148,2.05664 5.1914,1.85937 1.0879,-3.03906 18.3008,6.55273 23.1484,-0.12109 0.01,1.26367 0.4531,0 0,1.96289 5.8223,-0.0312 -0.018,-3.22851 36.7383,-0.19141 -0.1289,-24.51953 -11.2754,0 -0.025,-1.39063 -1.0976,0.006 -0.012,-2.57226 -5.3848,0 -0.074,4.0293 -35.9727,0 0,-1.24219 -0.623,0.004 -0.018,-3.15039 -6.0274,0.0664 0.074,4.39648 -1.3204,-0.0742 -46.5957,-17.87696 0.024,-0.0625 -1.418,-0.50781 1.0879,-3.04102 -5.0098,-1.79296 -1.2773,3.42578 -24.1504,-9.10157 -10.9316,-3.91406 1.0879,-3.03906 -5.1582,-1.84766 -1.0704,3.03125 -0.748,-0.28515 -0.01,0.0293 -45.4101,-16.25976 0.9785,-0.69336 -0.6016,-0.22852 -3.2969,2.71094 -9.6699,-3.66406 7.252,-5.27539 -24.6172,-36.04492 -7.6191,5.5664 -0.4922,-0.65039 -272.9336,193.24805 12.3848,17.49219 -10.5762,7.48828 -13.0195,-18.38672 c -6.8383,3.24982 -13.5794,5.11126 -20.0332,5.98437 l -0.01,-1.80078 -0.875,-0.86523 c -0.4738,8.9e-4 -0.9447,0.007 -1.4258,-0.004 0,0 -0.8777,-4.25 -4.834,-4.25 0,0 -3.5171,-0.43869 -4.8359,3.22461 0,0 -2.8448,0.24776 -6.9649,0.0801 l -1.9043,1.92383 0.01,1.375 c -6.8189,-1.08222 -12.8704,-2.96707 -17.7929,-4.92188 l -6.168,9.01563 -1.8086,-1.2461 -1.6875,2.43946 -10.6543,-7.37696 1.6719,-2.41406 -0.711,-0.48828 5.3887,-7.10352 -192.86914,-133.54687 -9.7461,14.07617 c -4.43258,-3.06927 -8.2291,-6.51364 -11.48633,-10.20117 -11.2395,-10.76967 -26.41456,-31.49241 -22.80664,-62.89453 l 2.20117,-11.77149 3.95704,0.73242 41.06054,-242.86523 -12.07812,-2.06445 -10.65625,-1.82032 -8.23438,-1.4082 0.14453,-0.8418 -3.05664,-0.54101 c 0,-0.73265 12.16211,-71.21289 12.16211,-71.21289 l 8.64453,1.31836 7.03321,-45.05859 26.44726,3.66211 c 0,0 -0.0507,0.98311 0.37696,1.9961 l 0.95117,0.16211 a 3.7725586,3.7725586 0 0 0 -0.0176,1.14843 c 0.31439,0.26563 0.69967,0.49408 1.18164,0.65039 0,0 2.56401,1.17084 3.88281,-1.75976 0,0 13.75833,-46.537628 63.28513,-60.628908 l 0.2891,1.25196 3.7773,-1.39649 0.023,0.0645 24.1954,-9.14062 c 0,0 6.7346,-3.83483 2.2793,-11.29492 0,0 -0.4876,-0.73851 -1.4395,-1.5293 a 7.5752279,7.5752279 0 0 0 -1.2988,-0.0762 l 0,0 z M 126.91779,120.62172 a 16.454671,16.454671 0 0 0 -15.7129,13.67577 l -26.160151,153.03515 -20.22657,-3.45703 -13.92578,81.47852 -16.79687,-2.87109 -7.57813,46.62304 10.15039,1.73633 3.90821,0.65039 -0.002,0.0156 2.35937,0.40429 -2.99805,17.54102 17.05274,2.99219 -0.11719,0.70312 3.1582,0.53906 -26.19335,153.22852 a 16.454671,16.454671 0 0 0 5.83789,15.51172 c 1.37793,0.70977 2.98257,1.26586 4.85937,1.60547 0,0 16.55773,2.19803 19.3418,-12.60157 l 8.26953,-46.2832 -6.24219,-1.06641 0.0918,-0.5371 -2.55859,-0.46876 4.24804,-25.49609 8.79297,1.61133 4.89844,-28.23828 -6.20898,-1.0625 0.0879,-0.51953 -2.88086,-0.51172 4.39648,-25.64258 9.08399,1.90625 4.75195,-28.36719 -6.17578,-1.05664 0.10156,-0.59179 -2.48633,-0.4629 3.8086,-25.49609 9.3789,1.46484 8.498061,-54.21679 9.23242,1.97851 1.47656,-10.34179 -6.20313,-1.0586 0.17383,-1.01172 -2.6289,-0.48242 3.87304,-26.25 -5.16601,-0.88281 0.10742,-0.625 -2.84375,-0.52149 3.88281,-25.49609 9.15821,1.46485 4.0625,-28.14258 -5.10352,-0.87305 0.125,-0.72461 -3.38477,-0.5332 3.9375,-25.28125 8.91016,1.45117 4.9043,-28.20898 -5.22852,-0.89454 0.0957,-0.56054 -3.39843,-0.69532 4.14453,-25.07421 8.88672,1.4707 7.61914,-46.00977 c 0,0 2.89299,-13.88436 -10.05274,-18.22069 a 16.454671,16.454671 0 0 0 -0.11328,-0.0234 16.454671,16.454671 0 0 0 -3.27929,-0.22851 z M 1520.9666,474.36389 a 4.4895689,4.4895689 0 0 0 -3.0937,1.33204 4.4895689,4.4895689 0 0 0 -1.2442,2.48828 c 0.2764,1.84119 1.7015,3.37233 3.6387,3.66601 l 10.8847,24.88672 -0.6445,0.35156 0.7559,1.67578 -0.9258,0.41797 3.4531,6.78711 -0.3418,0.16992 0.7949,1.76172 -4.0468,1.82813 9.9453,22.02344 2.8789,-1.38672 1.1973,2.64843 1.1347,-0.51171 11.3711,25.18359 -1.1269,0.50781 0.1718,0.37891 -2.9179,1.33008 9.9863,22.11914 2.75,-1.54297 1.0586,2.3418 1.1855,-0.53516 11.3692,25.18359 -1.1817,0.53321 0.2422,0.53711 -2.789,1.46679 9.9082,21.94141 2.4785,-1.42969 0.9902,2.21289 1.461,-0.66015 23.457,51.95117 c -2.8897,16.17894 -7.324,54.76451 5.6758,95.46289 5.047,14.71211 10.9645,26.4429 15.4199,34.22851 0.082,0.14348 0.1455,0.24007 0.2266,0.38086 2.0731,3.4202 4.3102,6.81451 6.7246,10.16992 l -32.1563,42.7754 0.9727,0.96289 -2.6153,3.47656 7.5508,7.4707 3.2735,-3.30859 9.0488,8.95508 -4.5137,4.5625 5.5176,5.64062 4.6055,-4.6543 9.0468,8.95508 -3.2734,3.3086 7.4355,7.35546 43.8731,-35.40039 c 0.83,0.57631 1.6616,1.13307 2.4941,1.68946 l 1.7422,-1.33985 c 25.2211,15.79432 72.1639,36.41442 136.5098,27.44727 5.371,-1.02199 8.4179,-1.88086 8.4179,-1.88086 l 20.0567,0.0391 16.4277,-0.0859 0.02,4.07617 24.0859,-0.0723 0,-4.39648 40.0762,-0.22071 0,0.27735 0.049,0 0.023,4.11914 23.6699,0.14648 0.074,-4.24804 3.2246,-0.0293 0,-0.12891 32.3847,-0.16992 4.2461,-0.0391 0,0.0176 0.6055,-0.004 0.023,4.44141 23.4766,-0.12305 0.072,-4.55078 40.1484,-0.2207 0,0.11914 0.5078,-0.002 0.023,4.44141 23.207,-0.12109 0,-4.29102 3.7617,-0.008 0,-0.16211 24.25,-0.12696 12.9863,-0.0684 0.024,4.44141 22.707,-0.11914 -0.1348,-5.64062 4.1758,-0.14649 -0.072,-1.32031 3.3554,-0.0879 c 0.189,0.2432 0.4029,0.46757 0.6387,0.66797 1.9035,1.6185 4.7908,1.4241 6.4492,-0.4336 1.4348,-1.60725 1.4734,-3.93001 0.2266,-5.57617 a 4.4895689,4.4895689 0 0 0 -0.4903,-0.22461 4.4895689,4.4895689 0 0 0 -4.9296,1.20313 l -3.3926,0.0195 -0.01,-1.04297 -7.166,0.0371 -0.01,-1.94141 -2.291,-0.0195 0,-7.98633 c 0,0 -52.3072,-0.25392 -58.9336,-0.16406 l 0.01,1.67383 -1.2988,0.006 0,0.24219 c 0,0 -57.2067,0.1715 -113.0332,0.35156 l -141.1738,0.73828 a 8.897525,8.897525 0 0 0 -0.1602,-0.13867 c 0,5.7e-4 -0.2277,10e-4 -0.2285,0.002 -0.081,-0.14627 -0.1664,-0.27976 -0.25,-0.41797 a 8.897525,8.897525 0 0 0 -8.0996,-1.55078 l -2.5039,-2.47851 c -0.9345,0.27285 -1.5274,0.56445 -1.5274,0.56445 l -27.3281,-27.76758 13.1699,-13.93164 -4.3535,-4.30664 -12.8047,12.94141 -0.3945,-0.39063 -0.8926,0.92578 -20.8066,-20.80859 13.2578,-14.08203 -4.3926,-4.34766 -12.8066,12.93945 -19.7051,-19.49804 3.4043,-3.44141 -1.6641,-1.68164 9.3731,-9.49414 -4.6367,-4.58789 -12.8047,12.9414 -19.7051,-19.5 9.0937,-9.18945 -0.4433,-0.42773 -5.6406,5.93359 -1.0274,-1.02539 9.2168,-9.82227 -4.7226,-4.67187 -12.8067,12.93945 -19.7031,-19.49804 3.4805,-3.51758 -1.8711,-1.86328 9.2285,-9.50782 -4.3613,-4.3164 -12.8067,12.9414 -0.4531,-0.44921 -0.2207,0.21874 -20.9531,-20.6621 13.0058,-13.25196 -4.6074,-4.55859 -12.8047,12.93945 -0.6055,-0.59961 -0.3378,0.3418 -29.2325,-29.59766 c 0.9105,-3.87533 0.4997,-6.61365 -0.4765,-8.55468 a 8.897525,8.897525 0 0 0 -3.7246,-2.1211 l -0.8731,-1.93164 c -1.2307,-0.4808 -2.1797,-0.58008 -2.1797,-0.58008 l -54.9472,-122.93945 1.0253,-0.51367 -23.7207,-52.31445 -6.4707,2.92187 -0.7265,0.37891 -0.02,-0.041 -0.5976,0.26953 -2.9492,-6.53125 -0.9512,0.42969 -11.5762,-25.63867 a 4.4895689,4.4895689 0 0 0 0.068,-0.18164 l -0.4336,-0.94532 c 0.2122,-0.41636 0.3558,-0.86409 0.4258,-1.32617 0.044,-0.28961 0.056,-0.57555 0.043,-0.85742 a 4.4895689,4.4895689 0 0 0 -1.0605,-1.67383 4.4895689,4.4895689 0 0 0 -3.2363,-1.29883 l -0.01,0 z m -906.2851,208.64844 12.748,8.5 -2.6387,3.36914 -1.6504,-1.1582 -0.6875,0.99219 -10.6543,-7.37891 0.7364,-1.0625 -0.053,-0.0371 2.1992,-3.22461 z m -147.2286,14.42578 1.3809,0.95703 -1.6914,2.44336 -1.3828,-0.95703 1.6933,-2.44336 z"
       id="rect4162-2" />
  </g>
  <g
     inkscape:groupmode="layer"
     id="layer8"
     inkscape:label="Text">
    <text
       xml:space="preserve"
       style="font-style:normal;font-variant:normal;font-weight:normal;font-stretch:normal;line-height:0%;font-family:Overpass;-inkscape-font-specification:'Overpass, Normal';text-align:start;letter-spacing:0px;word-spacing:0px;writing-mode:lr-tb;text-anchor:start;fill:#ffffff;fill-opacity:1;stroke:none;stroke-width:1px;stroke-linecap:butt;stroke-linejoin:miter;stroke-opacity:1"
       x="705.39203"
       y="91.810341"
       id="text5225"><tspan
         sodipodi:role="line"
         id="tspan5227"
         x="705.39203"
         y="91.810341"
         style="font-size:90px;line-height:1.25">Changes in ORD Terminal Silhouette</tspan></text>
    <text
       xml:space="preserve"
       style="font-style:normal;font-variant:normal;font-weight:normal;font-stretch:normal;line-height:0%;font-family:Overpass;-inkscape-font-specification:'Overpass, Normal';text-align:start;letter-spacing:0px;word-spacing:0px;writing-mode:lr-tb;text-anchor:start;fill:#5fd38d;fill-opacity:1;stroke:none;stroke-width:1px;stroke-linecap:butt;stroke-linejoin:miter;stroke-opacity:1"
       x="2083.7148"
       y="288.38248"
       id="text5229"><tspan
         sodipodi:role="line"
         id="tspan5231"
         x="2083.7148"
         y="288.38248"
         style="font-size:45px;line-height:1.25">New</tspan></text>
    <text
       xml:space="preserve"
       style="font-style:normal;font-variant:normal;font-weight:normal;font-stretch:normal;line-height:0%;font-family:Overpass;-inkscape-font-specification:'Overpass, Normal';text-align:start;letter-spacing:0px;word-spacing:0px;writing-mode:lr-tb;text-anchor:start;fill:#ff8080;fill-opacity:1;stroke:none;stroke-width:1px;stroke-linecap:butt;stroke-linejoin:miter;stroke-opacity:1"
       x="2015.9072"
       y="231.14534"
       id="text5233"><tspan
         sodipodi:role="line"
         id="tspan5235"
         x="2015.9072"
         y="231.14534"
         style="font-size:45px;line-height:1.25">Deleted</tspan></text>
  </g>
</svg>
