<?xml version="1.0" encoding="UTF-8" standalone="no"?>
<!-- Created with Inkscape (http://www.inkscape.org/) -->

<svg
   xmlns:dc="http://purl.org/dc/elements/1.1/"
   xmlns:cc="http://creativecommons.org/ns#"
   xmlns:rdf="http://www.w3.org/1999/02/22-rdf-syntax-ns#"
   xmlns:svg="http://www.w3.org/2000/svg"
   xmlns="http://www.w3.org/2000/svg"
   xmlns:sodipodi="http://sodipodi.sourceforge.net/DTD/sodipodi-0.dtd"
   xmlns:inkscape="http://www.inkscape.org/namespaces/inkscape"
   width="1000.809"
   height="611.38397"
   viewBox="0 0 1000.809 611.38398"
   id="svg2"
   version="1.1"
   inkscape:version="0.91 r13725"
   sodipodi:docname="ATL LAX ORD Size Comparision.svg"
   inkscape:export-filename="C:\Users\Paul Bogard\Dropbox\Documents\Websites\Flight Log\Images\Terminals\Misc\Size Comparison ATL LAX ORD.png"
   inkscape:export-xdpi="89.996498"
   inkscape:export-ydpi="89.996498">
  <defs
     id="defs4" />
  <sodipodi:namedview
     id="base"
     pagecolor="#ffffff"
     bordercolor="#666666"
     borderopacity="1.0"
     inkscape:pageopacity="1"
     inkscape:pageshadow="2"
     inkscape:zoom="1"
     inkscape:cx="579.53706"
     inkscape:cy="281.85486"
     inkscape:document-units="px"
     inkscape:current-layer="layer5"
     showgrid="false"
     inkscape:window-width="1680"
     inkscape:window-height="987"
     inkscape:window-x="1672"
     inkscape:window-y="-8"
     inkscape:window-maximized="1"
     units="px"
     fit-margin-top="25"
     fit-margin-left="25"
     fit-margin-right="25"
     fit-margin-bottom="25" />
  <metadata
     id="metadata7">
    <rdf:RDF>
      <cc:Work
         rdf:about="">
        <dc:format>image/svg+xml</dc:format>
        <dc:type
           rdf:resource="http://purl.org/dc/dcmitype/StillImage" />
        <dc:title></dc:title>
      </cc:Work>
    </rdf:RDF>
  </metadata>
  <g
     inkscape:label="ATL"
     inkscape:groupmode="layer"
     id="layer1"
     transform="translate(788.96318,33.114223)">
    <path
       id="path4144"
       style="display:inline;fill:#ff7f7f;fill-opacity:0.49803922;fill-rule:evenodd;stroke:none;stroke-width:1.5;stroke-linecap:butt;stroke-linejoin:miter;stroke-miterlimit:4;stroke-dasharray:none;stroke-opacity:1"
       d="m 91.051857,416.92765 3.022008,0.0902 -0.03578,1.1474 1.057971,0.0131 -0.07973,2.21659 5.310234,0.1754 0.12755,-3.28499 3.3807,0.0479 1.6744,-59.00242 4.67233,0.11162 0.19138,-5.05506 4.27367,0.11161 0.016,-2.5674 2.83848,0.11162 0.12758,-6.1235 0.76542,0.0319 0.016,-1.33953 -0.68572,-0.0319 0.12759,-3.47637 2.72686,0.0797 0.0957,-2.47172 1.3076,0.0319 0.11165,-2.34414 1.21193,0.0638 2.99798,-7.35137 0.0638,-2.4877 1.22791,0.032 0.31893,-0.7176 0.12755,-3.06177 c 0.0797,0 8.40388,0.2392 8.40388,0.2392 l 0.22326,-5.15073 32.25996,0.92488 -0.14354,2.12092 6.68165,0.33487 0.0957,-1.91359 0.28706,0.0319 0.0957,-1.46711 9.3447,-7.71816 -1.29167,-1.32355 2.67904,-2.34417 c 0,0 0.303,-0.20729 0.0957,-0.59001 0,0 -0.0479,-0.22326 -0.49434,-0.2392 l -69.72067,-2.28276 c 0,0 -10.65021,-1.19358 -9.78909,-11.75025 0,0 0.89301,-4.49693 -2.77471,-8.19656 l -6.842061,-7.40864 -1.883097,27.08484 -4.780998,0.58635 -0.676559,13.19286 4.274555,2.40985 z m -192.242517,7.82068 11.609143,0.31893 -0.09567,4.73613 1.259789,0 0.494337,-15.229 1.307607,0.0638 -0.08768,-2.75878 -0.05584,-5.50158 -1.084348,-0.0319 c 0.03195,-0.0957 0.430544,-18.08345 0.430544,-18.08345 l 0.255139,0.016 0.06379,-2.82254 -1.211934,-0.0319 0.06379,-9.83904 1.164081,-0.016 0.143526,-7.87763 0.20732,0.016 0.06379,-2.82254 -0.637864,-0.0319 0.06376,-2.23252 -0.621889,-0.0319 0.191345,-6.72945 0.526252,0.0319 0,-0.2392 0.510277,0 0.07973,-6.37864 -1.00465,-0.016 0.255174,-7.16003 0.526216,0 0.03195,-10.60449 12.007769,0.28706 0.239199,-12.91675 1.530866,0.0638 0.09571,-2.87039 -1.546841,-0.016 0.223259,-6.52217 1.977386,0.0478 0,0.19135 5.198584,0.0478 0.143527,-3.73151 14.901338,0.40602 0,-0.16916 4.183355,0.079 1.093755,-1.00359 0.14658,-6.23653 5.153109,0.0799 -0.0355,0.94419 3.436506,0.0478 -0.0082,-0.87706 17.354566,0.40371 0.02272,0.87954 3.33771,0.0677 -0.02272,0.56381 2.649826,0.0677 0.04516,-1.47715 14.8607283,0.40374 0.59001,-19.47079 -1.562781,-0.0319 0.1116475,-1.57872 -3.0936475,-0.0479 -0.271078,7.82981 -5.071033,-0.20732 0.095673,-2.20064 -1.2757283,-0.016 -0.127552,3.15744 -9.057685,-0.2392 0.03195,-1.05247 -2.934146,-0.0319 -0.04785,1.06845 -24.015572,-0.54219 0.127551,-6.44244 -0.947921,-1.0301 -19.135281,-0.37211 0.112784,-3.58575 -7.19404,-0.29316 0.135291,-22.28129 -11.772084,-0.22553 0.0036,-1.80894 0.494337,0.0319 0.04785,-3.60392 -0.446519,0.032 0.08151,-5.22773 -0.473534,0.0227 0.06766,-10.23859 1.014803,-0.0227 0.06766,-2.72878 -0.608896,0.0227 0.02272,-5.29969 -0.405942,0 0.06763,-7.80297 1.014838,0 0.04509,-7.80294 -0.360786,-0.0224 0.112712,-5.20949 -0.541233,0 -0.02272,-7.46469 1.127622,-0.0224 0.04509,-2.86411 -0.586318,0 0.135291,-5.27714 -0.541233,0 0.180411,-10.21602 0.541268,0 0.02272,-5.05161 0.428521,0.0224 0.112712,-6.76556 -1.172671,0 -0.09024,2.50325 -11.817206,-0.18041 0.202955,-14.68128 2.210159,-0.0227 0.02237,-1.3982 -2.187546,-0.0224 0,0.58635 -1.19532,0 -0.315666,40.61594 -0.473535,0.0227 -0.04512,2.90919 1.398203,-0.0224 0.04512,-2.05225 0.405978,0 -0.157939,17.07181 -0.94714,0.0224 -0.0677,2.86411 1.059959,0 -0.405942,19.778 -0.947176,0.0224 -0.06763,3.54066 -0.654052,0.0227 -0.04509,2.86411 1.28549,-0.0227 0.04509,-2.86407 0.360822,0 -0.315737,20.58986 -0.789271,0 -0.0677,2.93176 0.789307,0 -0.04509,12.15545 -2.931771,-0.0451 -0.0224,3.20238 -3.1798,-0.0902 -8.36675,4.69083 0.0451,1.96198 -14.61365,-0.42849 -0.10054,18.01554 14.92602,0.28706 -0.0638,2.00926 8.35599,5.86833 3.827186,-0.0319 -0.09567,2.58333 -0.845146,0 -0.0797,2.8066 2.200604,0.0638 -0.287017,17.04692 -1.084383,-0.0479 -0.07973,3.49232 -0.574074,-0.016 -0.032,2.8066 1.195998,-0.016 0.03195,-2.75877 0.462459,0 -0.382726,17.8921 -0.972731,-0.016 -0.15233,4.05239 1.059919,0.0227 -0.338244,15.87653 -0.936135,-0.004 -0.0478,3.50825 -0.62189,0 -0.032,2.72686 1.243846,0 0.03195,-2.72686 0.318932,0.016 -0.287018,12.61376 -0.94086,0.016 -0.0957,2.80663 -0.66978,-0.016 -0.0957,2.34417 1.29167,0.0319 0.0638,-2.36008 0.334873,0.016 -0.446483,17.78046 -1.02059,-0.0319 -0.28705,9.90286 -0.59001,-0.016 -0.0638,1.84983 1.1322,0.032 0.0319,-1.86574 0.11162,0 z m -113.5876,-18.4343 c 0.0638,0 2.16873,0.0638 2.16873,0.0638 l 0,0.36679 2.32819,0.0797 0.016,-0.43058 2.1847,0 0.016,-4.60854 -0.82921,-0.0319 -0.0319,-3.20526 0.70166,0 0,0.46246 1.96144,0.0319 0,-1.00461 -1.7701,-0.0797 0.18194,-7.35976 1.34183,0.0677 0.0337,-2.59348 -1.1727,-0.0337 -0.0564,1.96202 -0.13529,0.0114 0.11275,-6.31453 0.30445,-0.0114 -0.0114,1.19525 0.86822,0 -0.0114,0.30448 0.99226,0 0.0337,-1.4659 -0.51869,0 0.0564,-8.32163 -0.25936,-0.27065 0.0227,-2.52579 -1.12759,0.0114 -0.0564,1.93944 -0.18045,0 0.21424,-11.64805 0.18041,0 -0.0451,1.87181 1.17271,0.0114 0.0451,-2.45816 -1.34183,-0.0337 0.12404,-7.62256 0.83443,0.0227 0.0676,-5.24331 -0.85697,-0.0114 0.12407,-7.82551 0.16912,0 -0.0451,1.86051 1.15016,0.0337 0.0451,-2.46942 -1.31925,-0.0451 0.16912,-11.67059 1.38695,0.0114 0.0451,-2.49196 -1.12758,-0.0114 -0.0451,1.90564 -0.25936,0 0.25936,-10.37388 1.6237,0 0.12407,-10.05814 -0.23682,-0.20296 0.0451,-2.53711 -1.19525,0 -0.0677,1.89438 -0.14658,0 0.20296,-14.25282 0.18041,0 -0.0451,1.90564 1.1163,0.0114 0.0677,-2.46945 -1.33057,-0.0337 0.0114,-0.47357 1.8831,0.0564 0.0451,-4.53293 2.165,0.0114 -0.0337,3.14601 1.28545,0.0677 0.0224,-2.6837 1.22908,0.0451 6.83321,-5.15311 0.93592,0.0114 0.10146,-4.83737 -2.72877,-0.0564 0.0337,-1.70268 -2.64983,-0.0676 0.0451,-2.15372 -5.00653,-0.13532 0.0114,-0.76677 -1.04867,-0.0227 0.0114,-1.15016 -0.39465,-0.43974 -0.87955,-0.0114 -0.48486,0.45103 -0.0451,1.11633 -0.93592,-0.0114 0.20299,-16.93645 0.25932,0 -0.0677,1.96202 1.15017,0.0224 0.0451,-2.50328 -1.3982,-0.0114 0.22549,-10.39642 0.19735,0.006 -0.0536,1.84642 0.89364,0.0199 0.0337,-1.83798 0.34953,0.0114 0,-0.60889 -1.3982,-0.0337 0.11275,-6.35961 1.43203,0.0224 0.0227,-2.8979 -1.43203,-0.0337 0.0677,-2.42433 0.16916,0 -0.0564,1.98456 1.13884,0.0337 0.1015,-2.52582 -1.35312,-0.0337 0.18932,-10.42298 0.22326,0.008 -0.0559,1.99333 1.21389,0.0351 0.0699,-2.57868 -1.4352,-0.0399 0.16685,-11.65966 0.1917,0.0114 -0.0564,1.95073 1.13887,0.0114 0.0789,-2.52583 -1.35312,-0.0337 0.20295,-12.97863 0.21428,0 -0.0564,1.97331 1.16142,0 0.0337,-2.53708 -1.37566,-0.0224 0.18041,-8.00592 0.30445,0.0224 -0.0337,1.38695 1.04867,0.0114 0.0337,-1.42074 0.18041,0 0.079,-5.19823 0.15787,0 0.0114,-1.66886 -1.63499,-0.0114 -0.0114,-0.1917 -6.7543,-0.10149 -0.0114,0.20299 -1.66885,-0.0114 -0.0451,2.52582 1.21783,0 0.0451,-1.9733 0.47361,0 -0.28191,16.84628 -0.42848,0 0.0227,-1.84927 -1.27417,0 -0.0337,2.54837 1.73648,-0.0114 -0.13529,7.10387 -0.50744,-0.0114 0,-1.87181 -1.34183,-0.0337 -0.0451,2.52583 1.87181,0.0564 0,0.37211 -0.82314,-0.0114 -0.0227,4.83741 0.81188,0.0114 -0.13532,7.65639 -0.54123,0 0.0337,-1.90564 -1.34183,0.0114 -0.0227,2.54837 1.88306,0 -0.27061,11.65934 -0.43974,-0.0227 0,-1.83798 -1.28546,-0.0227 0,2.45813 1.73649,0.0452 -0.22554,12.89967 -1.75902,-0.0114 -0.0451,2.53708 1.22909,0.0114 0.0451,-1.93947 0.52995,0.0227 -0.27062,16.81245 -0.48486,0 0,-1.89436 -1.28546,0 -0.0337,2.51454 1.79286,0.0114 -0.0114,0.45103 -0.81189,-0.0114 -0.0564,4.83741 0.82314,0.0227 -0.0451,2.95427 -2.13117,-0.0337 0.0337,-0.84571 -1.4884,0 -0.0677,2.51453 0.74422,-0.0114 -0.0114,0.18045 -0.21424,0 -3.85636,1.78157 -0.0337,0.80059 -7.35194,-0.11274 -0.10146,4.75845 0.56381,0.0114 -0.0114,0.54123 -3.02197,-0.0227 -0.0337,3.46172 5.72818,0.0337 -0.0902,2.57091 5.41244,2.70624 0,0.86822 4.781,0.0114 -0.0451,1.5899 -0.94718,-0.0114 -0.0337,2.48074 1.26291,0.0337 0.0227,-1.92822 0.47357,0.0224 -0.24804,14.23028 -1.73651,0 -0.0677,2.53708 1.25166,0.0114 0.0676,-1.97331 0.47361,0.0224 -0.28191,20.72518 -0.51869,-0.0114 0,-1.93947 -1.20654,-0.0224 -0.0114,2.54836 1.71394,0.0114 -0.24235,11.70311 -1.65846,-0.0638 -0.0638,2.47172 1.196,0.016 0.0478,-1.86574 0.43055,0.016 -0.0558,4.45706 -0.19134,-0.004 0.0238,-1.19799 -1.07639,-0.0181 -0.016,1.19599 -0.3588,0 -0.19134,18.73722 1.11626,0.016 0.0957,-2.39199 0.43055,0.0319 -0.19135,12.78916 -0.35081,0 0,-2.59928 -1.24385,-0.016 -0.14353,10.2377 1.57872,0.0319 -0.11161,7.16003 -0.49437,0 0.0479,-2.0252 -1.33952,0 -0.0319,2.63119 1.83386,0.016 -0.15947,8.02116 0.86113,0.0319 -0.016,3.06173 -0.90894,-0.0319 z m -99.30334,-227.963 -1.07132,0.0114 -0.0224,0.66527 -1.15013,1.15013 -0.0337,1.47719 -3.12243,-0.0751 -0.0259,0.11037 -0.38272,0 -3.14147,2.43186 -0.0718,3.45245 -1.05247,0.0319 0,0.52625 -0.17541,0.016 -0.0238,3.10164 -1.54879,-0.0138 -0.004,2.28233 1.20195,0.004 0.006,-1.74415 1.49899,0.008 0,0.22326 3.1016,2.58333 0.2392,0.008 -0.19944,10.22797 -1.73655,-0.0451 0.0337,-2.30029 -1.49973,-0.0114 0.0227,-0.57507 -0.71039,0 -0.0341,0.55252 -0.11275,0 -0.0337,3.07831 4.0481,0.10139 -0.10157,8.94181 -6.25815,-0.0563 -0.0227,1.51095 4.46529,0.0114 0.0227,1.52228 1.73645,0.0114 -0.0902,2.90926 -1.35309,-0.0224 -0.0227,1.98449 0.39469,-0.0114 0,0.22549 0.96976,0.0224 0,0.23682 -1.51095,0 0.0337,-2.70631 -0.10153,0 0.0114,-0.5412 -0.78938,0.0114 0,0.50744 -0.13529,-0.0114 -0.0114,2.68366 -0.57506,0 0.0114,0.81188 -1.28546,0.0224 0,1.04863 1.69147,0.0114 0.0114,-0.51876 0.68781,0.0114 0.0114,-0.52998 1.95073,0.0451 -0.0902,4.44275 -2.62732,-0.0114 -0.12407,9.7876 -0.5751,-0.0114 0.0337,-3.25872 -0.079,0 0.0114,-0.51876 -0.75544,0 -0.0114,0.51876 -0.12397,-0.0114 -0.0564,6.35968 1.96205,0.0451 -0.0565,3.41655 2.19887,0.0341 -0.079,3.02187 -1.52227,-0.0227 -0.0227,1.27424 1.48841,0.0114 -0.0114,0.30448 -1.21779,-0.011 -0.0114,0.98094 1.22911,0.0337 -0.0677,4.11573 -1.28542,-0.0114 -0.0114,1.89439 0.90213,0 0.0451,-1.46597 0.33824,0 -0.0677,4.40899 -1.89428,-0.0451 0.0337,-2.3003 -1.57858,-0.0227 -0.0902,2.36796 -1.04874,0.0114 -0.0451,1.42074 1.10504,0.0337 -0.0305,1.17345 -0.87706,0.0319 -0.14353,9.55202 -0.74948,0.016 -0.14352,9.44041 5.15797,0.0492 -0.0227,0.71035 -7.37456,-0.20291 -0.0451,1.74777 3.02375,0.0761 -0.0379,1.04799 0.54216,0.016 0.008,-0.57407 1.24385,0.016 -0.0238,0.77341 -0.4784,-0.008 -0.0319,0.76541 2.2485,0.0319 -0.016,2.16873 -2.2644,-0.016 -0.0638,7.86165 2.10497,0.0478 -0.016,1.77007 0.92492,0.016 -0.0487,1.42114 -1.99581,-0.0227 0.0451,-2.28893 -1.16149,-0.0227 -0.0114,3.07831 3.10089,0.0227 -0.0114,1.88306 -0.82311,0.0114 -0.0227,5.31098 0.77802,0.0114 -0.12883,4.97933 -2.089,-0.0319 0.008,0.16746 -1.10827,0.0399 -0.008,3.14147 1.07639,0.0238 -0.13553,9.06564 -1.14019,0.016 0.0478,3.15744 1.23373,-0.0142 -0.0114,1.45465 -0.37211,0.19159 -0.12396,5.96503 2.19876,-0.0114 -0.13533,9.68607 -2.00713,0 -0.0224,-2.28897 -1.04863,-0.0114 0.0114,3.07831 3.04455,0.0337 -0.19174,12.76438 -2.05211,0 0.0114,-2.31162 -1.07118,0.0114 0.0677,3.04455 3.08953,0.0902 -0.2255,13.04618 -2.04093,0 0.0451,-2.34538 -1.11627,-0.0114 0,3.11207 3.11208,0.0564 -0.2818,13.08008 -2.02972,-0.0677 0.0451,-2.31151 -1.12759,-0.0114 0,3.13476 3.1234,0.0563 -0.18038,13.05765 9.88029,0.15797 0,-2.66307 1.46708,0.0638 -0.0263,2.05787 1.09371,0.0337 -0.0114,-2.06347 0.37215,0 0.0224,-0.75558 -2.89794,-0.0677 0.14665,-9.56196 1.56736,0.0114 -0.0114,0.98097 2.02971,0.0114 -0.0227,-0.95842 -0.73293,-0.0114 -0.0114,-0.75559 -2.81895,-0.0452 0.28194,-13.11381 1.37563,0.0451 0,2.09734 1.11626,0.0224 0.0227,-2.13121 0.27072,0.0114 0.0114,-0.75547 -2.78518,-0.10153 0.0677,-5.98757 0.82324,0.0114 0.0677,-5.27719 -0.80071,0 0,-0.39458 1.49974,0 -0.0114,1.0824 2.04089,0 0,-0.93589 -0.72168,-0.011 0.0337,-0.81192 -2.85282,-0.0337 0.0316,-0.62469 1.48301,0.0479 0.016,-1.11626 -1.48304,0.016 0.0399,-4.58464 0.68572,0.008 0.008,-0.55018 -0.66179,0.008 0.2153,-14.12868 1.46956,0.0192 -0.0114,2.24399 1.01487,0.0337 0.0224,-2.2213 0.3157,0.0114 0.0114,-0.77816 -2.80773,-0.0227 0.0563,-3.04441 1.64639,0.0337 0.16905,-10.31747 -0.14651,-0.0227 0,-3.2136 1.0825,0.0114 0.0114,-2.40172 0.29316,0 -0.0227,-0.7105 -1.25155,-0.0677 0.0563,-6.67528 -1.47705,-0.0451 0.20296,-12.64042 1.40942,0 0,2.17633 1.11637,0.0337 -0.0227,-2.19877 0.37211,0.0114 -0.0114,-0.78923 -2.84149,-0.0227 0.1465,-8.97572 1.80422,0.0337 0,-0.51862 0.49608,0.0114 0.95853,-0.98108 0.0902,-3.5632 -2.05226,-0.0563 0,0.60883 -0.98097,-0.0227 0.0227,-1.65757 -0.23685,0 -0.0337,-1.17271 6.44989,0.1353 0.0451,-1.71387 -6.42734,-0.11275 0.0969,-12.01366 3.89094,0.0797 -0.016,-0.87706 -0.14353,0 0.006,-0.52846 -0.72172,-0.0227 -0.0114,0.50744 -2.99932,-0.0451 0.0351,-2.8056 0.22049,0.004 -0.006,1.69594 2.34452,-0.0238 0.0957,-7.48691 -2.34413,-0.0319 -0.0238,2.52753 -0.21577,0 0.0451,-3.05378 2.84973,0.0478 -0.0399,2.39994 0.12756,0 0,0.48639 0.80531,0.0238 -0.016,-0.51826 0.11161,0 0.016,-3.15744 0.20732,0.008 -0.008,-1.38737 -2.39994,-0.008 -0.016,1.34747 -1.61858,-0.0238 0.0638,-3.00592 2.71887,0.0558 0.13618,-5.32539 -2.68362,0 0.0788,-5.02918 0.30448,0 0,-0.98097 1.16135,0.006 0,-0.13529 0.77816,0.0114 0.006,0.18038 -0.6259,0.0114 -0.006,1.23472 2.23824,0.017 -0.006,-1.37005 0.16358,0 -0.0677,3.94654 0.10142,-0.006 -0.006,0.51304 0.74987,0.017 -0.006,-0.50743 0.0958,0 0.0564,-4.61181 -4.62313,-0.0224 0,-0.93028 1.48837,0.0227 -0.0114,-2.3342 -1.42071,0.0227 0.0451,-2.46934 1.77032,0.0224 0.10142,-5.88604 1.27424,0.0224 0,-1.8154 -0.86823,0 0,1.4545 -0.36092,-0.0114 0.0451,-4.48787 -0.62814,0 -0.008,-0.22323 2.59133,0.0558 -0.0718,3.2212 0.10366,0 -0.016,0.54219 0.7734,0.016 -0.008,-0.53421 0.10363,0.008 0.0797,-5.26238 -3.48432,-0.016 0.0319,-3.81121 -1.39533,-0.008 0.0106,-2.8968 1.99581,0.0451 -0.0114,0.5074 0.80056,0.0341 0.0114,-0.51876 0.15783,0.0114 -0.0114,-0.96975 -0.12411,0 0.0677,-3.17985 -2.77394,-0.0452 c 0,-0.11275 0.10153,-7.6789 0.10153,-7.6789 l 0.82311,-0.0114 0.0902,-5.20955 -0.84568,0 0.0677,-2.48071 1.51096,0.0452 -0.0114,2.34538 1.4545,0.0224 -0.0114,0.5188 0.74426,0.0224 0.0114,-0.50743 0.10153,0 0.0227,-3.07832 -1.00362,-0.0227 0,-0.11289 -2.78519,-0.0788 0.0452,-2.00717 0.30444,0.0224 3.05577,-2.39046 -0.0114,-0.21431 1.09369,0 0,-0.96301 -0.15784,-0.006 0,-0.50744 -0.74425,0.0114 0,0.47368 -0.1916,0 0.0547,-6.55767 -2.94142,-2.67741 -0.32703,0 0.0114,-0.13529 2.54834,0.0224 0.0114,0.52998 0.69903,0 -0.0114,-0.54134 0.12393,0 0.0114,-0.87941 -3.48433,-0.0904 0,-1.26287 -2.04093,0.0114 -0.0227,2.2213 -1.03742,-0.0114 0.0114,-1.47719 -1.09386,-1.11626 z m 3.77734,35.3164 1.49413,0.017 -0.0227,2.36795 c 0,0 -1.48852,-0.0337 -1.5167,-0.0337 z m -0.93588,48.13704 0.19173,0 -0.0395,2.49192 -0.19735,-0.006 z m -11.62419,21.35399 1.55479,0.0319 -0.016,1.25979 -1.97987,-0.0263 0,-0.74426 0.44102,0.005 z m -0.7116,41.35154 1.5898,0.0114 -0.0227,1.70269 -1.98449,0.0106 -0.007,-0.79996 0.42383,-0.0114 z m -101.53999,-169.18434 -0.81192,0.0114 -0.0677,6.35968 -0.55253,0 -0.10138,5.15311 -3.11222,-0.0114 0.0565,-2.08601 -1.16149,0.0224 -0.0337,2.92048 4.23966,0 -0.21428,16.15839 -3.23614,-0.0224 0.079,-2.08602 -1.10508,0.0114 -0.0337,2.86414 4.28489,0.0452 -0.32703,17.7822 -3.2136,-0.0114 0.0677,-2.14243 -1.09372,-0.0224 -0.0677,2.94298 4.30732,0.0227 -0.0451,1.60127 -2.78519,-0.0564 -0.24804,17.2409 -0.47353,0 -0.0114,-0.43967 -1.04864,0.0114 -0.0337,1.45465 0.57506,0.0114 -0.0114,0.65408 -0.63151,0.0114 0.008,0.80532 4.3447,0.0856 -0.0227,2.37914 -2.36795,-0.0337 -0.0564,1.87173 2.34542,0.0565 -0.15784,10.00177 -1.19525,-0.0337 -0.0677,1.90564 0.94721,0.0224 0.0337,-1.55604 0.47367,-0.0114 -0.079,3.15716 -3.39402,-0.0563 0.0451,-2.15379 -1.01484,0.0114 -0.0677,2.99943 4.47651,0.0677 -0.0114,0.39454 -2.96556,-0.10142 -0.11275,9.85512 2.73996,0.0337 -0.0947,3.36437 -1.78604,-0.0319 -1.12421,-0.44648 -0.0479,1.68235 0.78935,0 0.008,-0.52622 0.30299,0.11161 -0.11164,4.97533 -1.22788,-0.008 0.0797,-2.21659 -1.21193,0 -0.0319,3.0458 2.38141,-0.0163 -0.0451,4.57804 1.86052,0.0451 -0.10153,7.397 -5.10803,-0.0563 0,0.37201 -2.69111,0.0181 0,1.29579 -3.88448,-0.017 -2.14246,2.72874 -1.61248,0.0114 -0.0114,1.40953 0.6314,0 -0.0677,4.45397 2.53715,3.58575 0.99229,0.6766 9.39007,0.0809 -0.009,0.91132 0.16905,0.32703 0.62019,0.0114 -0.0114,1.26291 0.24804,0.24804 0,1.68011 -0.98758,0.0202 -0.016,0.33487 -0.59001,0.008 -0.016,1.93749 1.21989,0.016 0,-1.75413 0.30299,0.016 -0.0319,6.3627 -1.10032,-0.0478 -0.008,1.37938 -0.22322,0.008 -0.008,0.4784 1.92954,0.0399 -0.23122,13.01246 -1.63452,-0.0319 -0.016,2.12886 1.10828,-0.008 0,-1.60265 0.55813,0.008 -0.19135,11.3141 -2.67904,-0.0319 -0.0238,0.97273 1.45913,0.0238 0.008,-0.45447 1.21989,0.0238 -0.20729,13.31541 -0.295,0 0,-2.03319 -2.87039,-0.0319 -0.008,0.15947 -2.13685,-0.016 -0.0238,2.54347 2.1289,-0.008 0,0.15148 3.20526,0.0399 -0.19138,11.07068 -2.66119,-0.0451 0,5.24332 -0.11275,0 -0.0227,0.98107 2.68366,0.0337 -0.2255,13.39589 -0.56374,0 0,-1.37577 -1.16148,-0.0227 -0.0563,1.96205 1.78153,0.0114 -0.15783,10.86999 -0.67649,-0.0224 0.0114,-1.35312 -1.09368,-0.0227 -0.0564,1.96194 1.79286,0.0451 -0.19173,12.88849 -0.57507,-0.0114 -0.0114,-1.43193 -1.12759,-0.0227 -0.0451,1.9394 1.74777,0.0227 -0.0227,1.77031 3.23618,0.0337 -0.15783,7.55483 -3.7324,-0.0563 0.0114,2.59345 11.85103,0.15226 0.0452,-2.53715 -1.48851,-0.0167 -0.004,-0.1278 2.33618,0.0479 0.016,-1.03653 -2.34417,-0.0399 0.14154,-5.50779 1.35308,-0.14651 -0.0788,-0.84568 -1.31932,0.0789 0.0312,-2.15019 0.21527,0 -0.0238,0.74951 1.45912,0 0.016,-2.09699 -1.61855,-0.008 c 0.008,-0.0478 0.23121,-12.57389 0.23121,-12.57389 l 1.40331,0.008 0.0319,-2.04117 -0.94085,-0.008 0.008,1.57073 -0.49433,0.016 0.23117,-12.17522 0.21527,0 0,1.20395 0.96479,0.0559 0.0558,-1.95346 -0.47839,-0.016 0,0.19138 -0.75747,0.008 0.21527,-15.10141 0.34286,0 -0.0319,1.48304 1.03653,0 0.016,-2.0093 -0.57411,-0.008 0.008,0.14353 -0.78139,0 0.31893,-18.56984 0.27906,0.008 -0.0238,1.27573 1.08438,0.0238 0.0558,-1.8897 -0.66179,-0.008 0,0.11161 -0.74149,-0.008 0.21527,-11.43373 0.27108,0 -0.0478,1.31559 1.10029,0.0238 0.0238,-2.10494 -0.60783,-0.0103 -0.006,0.28755 -0.73294,0 0,-0.4003 0.78938,0.0227 1.50531,-2.5653 -0.58068,-0.35518 -1.30239,2.23263 -0.42284,0 0.31571,-19.77801 0.32131,0.0114 -0.0167,1.40953 0.92453,0 0.017,-1.84359 -0.52998,0 0.006,0.11836 -0.71039,-0.0227 0.17079,-11.73058 0.52501,0.0291 -0.016,0.81327 0.1834,-0.008 -0.0718,2.79864 2.84647,0.0718 0.0399,-2.63914 -0.15148,0 0.016,-0.15152 0.39867,-0.0399 0.008,-0.71759 2.55146,0.008 -0.016,-0.54219 0.22322,-0.008 -0.016,-0.43058 4.48275,0.0192 3.84514,-4.62313 0.0677,-5.96503 -0.75544,-0.76669 0.6315,0.0114 0.0114,-1.56736 -1.73669,-0.0726 -0.016,0.31095 -0.59004,-0.39068 -12.19916,-0.19138 0,-0.74152 0.85313,0.016 -0.008,-0.3588 2.71092,0.0319 -0.0238,-0.86907 -0.0957,0 0,-0.7176 0.15946,0.008 0,-0.5342 -2.08104,-0.0238 0.0238,-0.94086 1.10828,0.016 0.0638,-4.76009 -2.45579,-0.0638 -0.0238,0.41461 -0.1196,0.0238 0,-2.23252 1.48301,0.008 0.11165,-6.2431 1.3714,0.0399 -0.0797,2.24051 1.17207,0 0.016,-1.75412 -0.19933,0.008 0.008,-0.46246 0.37474,0 -0.016,-0.79733 -2.63917,0 0.0319,-2.64713 -1.46711,-0.0399 0,-0.37477 2.59132,0.0877 0.0718,-4.87965 -2.57538,-0.0319 0.0238,-1.30761 0.67773,0 0.59001,-0.60599 0.016,-1.45113 -1.24381,-0.016 0.016,-0.8372 1.05247,0.008 c -0.0238,-0.0399 0.0238,-2.16876 0.0238,-2.16876 l -0.90897,0.008 0.1196,-3.98665 1.45117,0.0238 0.0479,-2.10497 -1.45912,-0.016 0,-0.52622 -0.13554,0 0.008,-0.13557 0.90099,0.0877 0.30296,0.31094 1.55554,0.016 -0.0486,2.33615 1.09233,0.0238 0.0319,-2.32819 0.2392,0 0.016,-0.78935 -4.09031,-0.0319 -0.007,-2.22915 2.2552,0.0902 0.24804,-13.72281 -2.28907,-0.0114 0,-0.33825 2.83027,0.0337 -0.0337,2.24388 1.01484,0.0114 0.0114,-2.2213 0.33825,0.0224 -0.0114,-0.80059 -4.12706,-0.0565 0.10153,-3.07831 3.3828,0.0676 0.0451,-2.24385 0.65391,0.0224 0,-1.66893 -1.95068,0 -0.0227,1.62384 -2.08602,0 -0.0114,-0.65408 1.8493,0.0114 0.0564,-1.5111 4.02552,0.0904 0.0227,-1.47719 -5.91991,-0.0564 0.12407,-8.96436 2.88658,0.0224 -0.0563,2.25521 1.01473,0.0224 0.0337,-2.17619 0.28194,0 0.0227,-0.8007 -4.13827,-0.0563 0.0128,-0.4419 2.5036,0.0319 0.10366,-4.87167 -2.54123,-0.0406 0.18038,-9.40416 2.75143,-0.0224 -0.0114,2.34541 1.02619,0.0337 0.0227,-2.27775 0.31571,0 0,-0.78934 -4.09315,-0.13529 0.27058,-15.35784 2.84159,0.0337 -0.0564,2.32283 1.05992,0.0451 -0.0114,-2.31151 0.22561,0 -0.0114,-0.81192 -4.04807,-0.0451 0.12407,-9.8439 -8.46824,-0.15787 z m -2.41304,67.08062 -0.0114,1.38685 -3.19106,-0.0788 0.0114,-0.68785 1.6576,0.0114 0,-0.65398 z m -107.06547,-24.32105 -0.0606,11.3687 -2.55526,-0.0489 -0.0451,4.93898 0.87955,0 -0.0337,1.79285 1.63488,0.0337 -0.24804,14.4332 -0.51861,0 0.0114,-1.42075 -1.09369,-0.0114 -0.0227,1.68011 0.56374,0 0,0.33824 1.04874,0.0227 -0.17558,8.60329 -0.39476,0 0.0156,-1.42639 -1.17949,-0.006 -0.0135,1.95072 -0.0722,7e-5 0.0135,0.42856 0.59058,0 0.009,-0.38308 1.03166,0 -0.20767,15.93077 -0.48472,-0.0114 0.011,-1.35309 -1.10505,-0.0227 -0.0337,1.68015 0.54119,0.0114 -0.0114,0.20292 1.08247,0.0341 -0.0902,4.65689 -1.00351,0 -0.0114,1.83811 -4.17203,-0.0564 -0.10153,5.19823 -2.87535,-0.0452 -0.0227,1.26292 -3.81025,-0.12099 -2.87039,2.69498 -0.0479,3.61987 -1.33952,0.0479 -0.0797,2.8066 1.36345,-0.0478 0,0.15947 2.67106,2.80659 6.90488,0.0319 -0.016,0.33488 4.20991,0.11164 -0.0621,5.26959 0.95853,0.0114 -0.14661,6.67542 -1.5674,0 -0.0788,2.14242 1.11627,0.0114 0.0337,-1.53349 0.49611,0 -0.0337,3.19106 -0.0788,0 -0.36078,21.5146 -0.50744,0 0,-1.38699 -1.07128,-0.0224 -0.0337,1.62366 0.56374,0.0227 -0.0114,0.30448 1.0486,0.0337 -0.24804,15.9892 -1.03741,0.0114 -0.0114,-0.11275 -0.57507,0.0114 -0.0114,2.18755 1.0825,0.0114 0.0227,-1.57872 0.49608,0 -0.25922,16.00066 -0.39469,0 0.0227,-1.39831 -1.12759,0 -0.0564,1.87185 0.56384,0 0,0.12396 0.99234,0.0114 -0.2933,23.10436 -0.46232,0 -0.0114,-1.42074 -1.07128,0 -0.0227,1.3982 -0.25926,0 0,0.56388 1.81543,0.0337 -0.29316,17.01536 -0.51876,-0.0114 0.0451,-1.38699 -1.09369,-0.0227 -0.0564,1.58991 0.56385,0.0337 0.0114,0.37201 1.03741,0.0114 -0.20295,12.04266 -3.20242,-0.0788 -0.0788,11.42248 19.41712,0.36082 0.20292,-11.43384 -3.85633,-0.0789 -0.017,-1.30239 -2.45256,-0.006 0.22341,-14.53569 0.39405,-0.004 -0.0231,1.5407 1.08211,-0.004 0.0224,-2.00912 -1.47766,0.007 0.20491,-13.83045 0.43307,0.008 -0.0227,1.28371 1.10951,0.008 0.049,-1.95346 -0.568,-0.0135 -0.0114,0.0974 -0.97969,-0.004 0.41471,-24.83893 0.39469,0 -0.0121,1.55554 0.98058,0.009 -0.008,-2.12826 -0.4505,0 -0.004,0.0721 -0.92686,-0.007 0.004,-1.53811 0.81728,0 0.0638,-4.52881 0.5422,0 0,0.17541 0.20732,0 0.0478,-4.30558 -1.54681,0.032 0.0957,-6.267 0.38272,0 -0.0479,2.05709 2.87039,0.0957 0.0479,-2.82256 -3.2283,-0.084 0,-0.69903 1.21779,0.0227 0,-0.37215 -1.18403,-0.0224 0.18599,-12.70595 0.43863,-0.009 -0.011,1.67429 1.0896,-0.004 -0.0153,-2.66045 -1.06234,0.0106 -0.009,0.47975 -0.42145,-0.01 0.19262,-10.30775 0.39866,0 0.016,1.48305 1.08438,0 -0.016,-2.40797 -0.54216,0 -0.0319,0.39867 -0.87706,0 0,-3.10959 0.36678,0.016 -0.0637,2.34413 0.71759,0.016 0.0638,-3.01392 -1.08438,-0.0319 0.0479,-2.7428 1.02059,0.0478 0.0319,-1.29167 -0.98867,-0.016 0.0774,-3.88373 1.70265,0.0337 0,-2.44694 -1.61234,0 0.0114,-1.46583 0.69918,0 0.0788,-5.10803 0.18613,0 -0.006,0.72172 1.28545,-0.0227 0.0114,-1.03738 0.14662,0 0.0563,-2.75129 1.01488,0.0114 -0.0114,-0.20295 0.3157,0.0114 -0.0565,-4.03685 -0.23685,-0.0114 0,0.15787 -1.96191,-0.49622 1.11626,-0.0227 -0.0114,0.10157 0.29316,0.0114 0,-0.13529 2.76261,0.0224 0.34957,0.54134 0.42845,-0.3496 5.84094,0.0452 2.72871,-2.57091 0.11502,-5.99552 -2.12091,-2.13685 -0.33488,0.008 -1.06044,-0.62189 -3.44446,-0.0399 -0.008,-0.17544 -2.18467,-0.0319 -0.0319,0.75746 -5.67698,-0.13554 0.18999,-13.13166 1.21794,0.0114 0,-1.09372 0.49771,-0.004 0.008,-1.65842 -1.03653,0 -0.008,1.16408 -0.63787,-0.008 0.12795,-10.79399 0.18598,0 0.006,-0.4003 -0.16919,0 0.19237,-12.40668 1.49899,0.0638 0.016,-2.13682 -0.94085,0.016 -0.0319,1.57872 -0.54219,0 0.12755,-10.65234 0.3349,0 0.33488,-0.44652 0.016,-4.70425 -0.59001,0 0,-0.28702 3.2212,0.0479 0.016,-2.77468 -3.18932,-0.0957 0.15947,-8.88224 0.26313,0.016 -0.008,-0.43054 -0.25514,0 0.008,-0.4784 0.83719,0 0.016,-2.51159 -0.82126,0.016 0.10366,-4.74412 0.13554,0 0.016,-0.52625 -0.14349,0 0.0238,-1.49895 0.13558,-0.008 -0.016,-0.87706 0.14353,0 0,-0.16746 -0.2392,0 0.008,-2.97401 0.21527,0.008 0,-0.36675 -0.1754,0 0.29138,-17.36561 0.451,0.0114 -0.0114,1.39821 1.18403,0 0.0337,-1.97327 -0.68781,0 0,0.13529 -0.96965,0 0.0337,-2.06358 -3.24751,-0.0451 0.0281,-2.49426 0.19134,0 0.008,-0.38273 -0.15947,0 0.0638,-4.89559 -5.55738,-0.0558 0,-0.79733 1.03653,0.016 0.032,-0.893 -2.29622,-0.0319 -0.26475,15.21008 -0.31148,-0.0117 0.0241,-1.43842 -1.13802,0.004 -0.033,1.67127 0.52206,-0.0128 0.007,0.32411 0.93806,0.005 -0.16061,10.2267 -0.35233,-0.0121 0.004,-1.39295 -1.13111,-0.0199 -0.0149,1.9421 1.4828,0.0436 -0.16908,12.35531 -0.34922,0.004 0,-1.44332 -1.09379,-0.0224 -0.0224,1.37566 -0.22553,0.0114 -0.0224,0.56378 z m 9.92314,89.21413 0.62018,0 -0.0114,0.67645 -0.60896,0 z m -112.2633,-118.91619 -1.15017,68.99758 -0.30445,0.0114 -14.69256,11.16323 0,0.21417 -0.77802,0.0114 0.0114,-0.13529 -101.6977,-1.69144 -0.0227,2.25518 -1.07703,0 0.0396,-7.69012 -5.95367,-0.0677 0.0319,7.82058 -0.6538,-0.016 -0.78139,50.23179 0.4784,0.016 -0.14353,7.78192 5.9481,0.032 0.12755,-7.60655 1.21197,-0.016 -0.016,2.36011 102.48556,1.79723 12.91103,10.93762 0.47353,0 -1.38684,84.76143 0.0788,0 -0.25937,15.52688 2.77394,0.0224 0.0192,-0.95705 5.13394,0.0558 0.1465,-11.85182 1.07129,0.0224 0,-0.85701 -1.07129,-0.0337 1.72523,-115.84918 -0.1465,0.0114 0.10138,-5.55901 7.01367,0.10142 0.0188,-1.51468 1.95346,0.008 0.0638,-3.78732 -0.0797,0 0.017,-2.22706 1.26291,0.0341 0.0114,-1.38698 -9.42667,-0.13529 -0.0449,3.61177 -0.6618,-0.016 0.0979,-5.97511 3.48418,0.0114 -0.0181,-1.03678 -0.14353,0 0.0478,-2.24846 -1.11626,-0.016 -0.0319,1.57873 -2.2644,-0.016 0.0957,-7.78195 1.29951,0.0486 0.11975,-11.1793 1.10028,0.016 0.016,-0.87706 -1.08439,0 0.11162,-6.01186 1.08438,0.016 0.0638,-2.77472 -1.05247,0.016 0.0469,-3.17761 -1.57861,0 0.0902,-5.24331 -2.85281,-0.60883 0.0227,-2.37928 2.80773,-0.50743 0.30448,-19.48475 -2.80773,-0.60896 0.0563,-2.70621 2.89794,-0.55252 0.14661,-10.31758 0.55253,0.0114 -0.0114,1.60113 1.01483,0.0451 0.0337,-2.42426 -1.62381,-0.0451 0.0902,-8.34417 -0.76669,-0.15798 0.0227,-1.44329 -2.04104,-0.0452 0.0564,-1.68011 2.98811,-0.41723 0.0227,-9.31392 1.6576,0.0114 0.0114,-0.78935 -1.69147,-0.0452 0.0341,-1.45461 -6.05523,-0.0789 z m -109.28004,95.12906 5.26237,0.11165 -0.25517,9.72742 -1.32355,0 0.0797,4.54479 -0.52626,0 0,0.90894 1.72225,0 -0.12759,7.04842 -11.62507,-0.22326 0.3349,-19.78973 6.41052,0.0797 0.0479,-2.40797 z"
       inkscape:connector-curvature="0" />
  </g>
  <g
     inkscape:groupmode="layer"
     id="layer2"
     inkscape:label="LAX"
     transform="translate(788.96318,33.114223)"
     style="display:inline">
    <path
       id="path3787"
       style="fill:#ffc47f;fill-opacity:0.49803922;stroke:none;stroke-width:1.5;stroke-linecap:butt;stroke-linejoin:miter;stroke-miterlimit:4;stroke-dasharray:none;stroke-opacity:1"
       d="m -18.827973,364.22353 7.916041,0.0965 -0.289609,-12.26019 0.772267,-0.0965 -0.193049,-2.79957 -1.158471,0 0,-7.04719 1.44808,0.0965 -0.09656,-2.46169 -1.448045,0 0.04828,-17.42491 -7.578152,-0.38615 -0.09656,15.20457 0.337889,0 -0.09652,7.72295 -5.212998,0 0.193085,6.90239 1.013631,0.0483 -0.02414,1.6894 1.327381,0 1.592849,1.73767 0,3.23398 1.448081,0 z m -458.091857,-42.50038 10.16051,5.4302 c 1.15845,0.60336 1.20672,1.93074 1.20672,1.93074 l 1.54459,16.70089 16.94223,-1.93074 2.84783,2.02728 3.62015,-0.43442 0.30974,2.70512 5.11964,-0.71677 0.81914,6.86034 4.19812,-0.51197 0.58022,4.88073 -3.48137,0.30718 1.94547,17.27026 3.61788,-0.37545 0.71677,6.41662 c -3.85681,3.27658 -2.83288,11.36562 -2.83288,11.36562 l -2.04786,0.0682 0.0342,5.46096 0.785,4.09571 1.29697,-0.23891 0.54611,2.59395 0.95566,-0.0342 c 0.6485,4.09571 1.16045,4.91487 1.16045,4.91487 l -4.6418,2.08199 -1.33111,6.79204 0.92154,0.92155 1.02393,-1.02393 1.26283,0.98981 -1.05806,1.36523 3.20831,2.73048 1.12634,-1.33111 0.68261,0.58021 13.82305,-1.50175 -0.0683,-1.97959 3.78854,-5.18792 1.84308,1.43352 0.81914,-0.71674 -0.40957,-3.68616 -4.16399,-0.81915 0,-1.4335 -0.785,-0.0682 -0.0683,-0.61436 -1.77481,-0.23893 c 0.23893,-0.92152 -0.13653,-6.519 -0.13653,-6.519 l 1.29698,0 -0.10239,-1.36525 1.0922,0 -0.1024,-1.53588 2.04785,-0.10241 -0.4437,-3.99331 -1.8772,0 -1.4335,-5.22205 -2.01372,0.0342 c -0.27304,-3.31069 -1.22873,-4.40289 -1.22873,-4.40289 l -1.57001,-11.63865 0.4437,-0.0683 -1.9796,-16.45113 0.40958,-0.10238 -1.91133,-15.7685 59.18306,-6.68969 2.59397,1.77482 1.97958,15.22241 1.29698,-0.3413 1.9796,18.49897 -2.45742,0.40958 1.97959,14.40325 -2.18438,0.27305 1.43349,10.44408 2.11613,-0.34132 2.86699,26.89521 18.77203,-2.11616 -3.48135,-23.82337 -1.77482,0.13652 -0.6826,-4.36876 2.93526,-0.40957 -0.27307,-3.82267 -0.81913,-4.16398 -3.00352,0.61436 -0.34132,-2.3209 2.59395,-0.40957 -1.70654,-13.03803 c 0,0 -2.86701,0.47782 -3.27658,0.54609 l -1.63829,-13.31107 2.11613,-0.34131 -1.36524,-11.80931 -2.04786,0.27305 -0.13652,-1.0922 2.04786,-0.3413 4.09571,-7.78186 25.46169,-3.48135 -0.54609,-3.9592 15.56371,-1.91133 0.27306,1.50175 6.0753,-0.81914 0.2048,1.63829 9.05061,-1.3017 0.93706,8.48899 2.87955,-0.33788 3.36366,28.03108 2.26863,-0.0965 c -3.37879,1.93074 -3.62015,5.26127 -3.62015,5.26127 l 0.0483,8.2539 -1.78593,0 0.19308,3.86148 0.67574,3.86148 2.07555,-0.33788 c 1.06191,9.12274 2.60651,9.31581 2.60651,9.31581 l -4.34417,3.71668 0.86883,4.53723 2.02726,-0.33788 c 1.30324,0.43442 1.97902,1.97901 1.97902,1.97901 1.06191,1.88247 -0.6275,3.71667 -0.6275,3.71667 l -3.04089,3.47533 1.39976,1.30325 1.255,-1.39979 c 1.97898,1.01364 2.70304,3.13745 2.70304,3.13745 l 0,0.9171 -0.67578,-0.0483 0.0483,1.6894 4.05453,-0.33789 -0.28961,-1.979 c 1.01367,-3.6684 4.48897,-2.94438 4.48897,-2.94438 l 3.90976,3.23399 1.15844,-1.15844 -0.86883,-0.9171 c 1.01363,-2.89611 4.44069,-2.36516 4.44069,-2.36516 l 0.0483,0.53096 1.44805,-0.0483 -0.28961,-3.76495 -1.255,0 c -2.99261,0.24134 -3.08917,-3.37879 -3.08917,-3.37879 0,-3.90974 3.04093,-3.62013 3.04093,-3.62013 l 1.49633,0.0965 -0.24137,-3.90975 -2.22035,-1.39978 0.82059,-1.49632 -3.66843,-1.35152 c 0.67578,-1.88247 0,-8.92966 0,-8.92966 l 0.9171,0 -0.1448,-3.76494 -0.6275,-4.77858 -1.49632,0.0483 c -0.0965,-8.30218 -3.42703,-10.61906 -3.42703,-10.61906 l 3.3305,-4.29589 -2.60648,-2.12381 -3.28226,3.95801 -0.28961,-2.36516 1.54457,-0.24134 -3.81319,-32.58121 3.04093,-0.33788 1.11015,-3.42706 32.91908,-4.05455 -0.24133,-1.59286 21.14157,-2.79957 0.2896,1.8342 2.99265,-0.24135 -0.0482,-0.77229 2.18186,-0.0923 5.1196,42.6637 c -0.64844,2.96939 -0.0128,10.23434 -0.0128,10.23434 l -1.37566,-0.0241 0.0724,4.03042 0.28961,1.20671 -1.01363,0.26548 1.66527,5.16472 1.66527,-0.53095 c 1.44804,5.88875 2.75128,7.89189 2.75128,7.89189 l -1.49632,2.07555 0.57922,0.45855 -2.92023,3.596 1.61699,1.39979 0.21722,-0.26549 10.66733,8.54353 10.13638,-12.69461 -3.3064,-2.53409 0.65164,-0.74817 -2.60652,-1.97901 c 0.86883,-0.41028 0.50684,-9.91917 0.50684,-9.91917 l 1.59285,-0.1448 0.1448,-4.63377 -0.91711,-3.57187 -1.93073,0.38615 c -0.28961,-3.76494 -2.26863,-9.60542 -2.26863,-9.60542 l -3.57187,-29.49203 c 6.66108,-1.44806 3.66843,-9.99158 3.66843,-9.99158 2.94437,-0.57921 1.73765,-4.82684 1.73765,-4.82684 l 22.78273,-2.4617 -0.24136,-1.93074 11.82579,-1.39977 0.24133,1.49631 8.39873,-0.96536 -0.24136,-1.54459 11.23972,-1.30985 0.71675,6.9627 0.78501,-0.0682 0.92154,7.50879 3.3107,-0.40957 8.02076,69.49064 5.73403,-0.54611 -0.44371,-4.02745 2.25265,-0.10238 -2.38919,-19.48878 -2.11611,0.10239 -0.3413,-3.27658 2.32088,-0.20477 -2.69633,-23.89168 -2.4233,0.23892 -0.47783,-4.57356 2.59395,-0.17064 -0.61436,-4.949 0.54609,-0.0682 c -0.17065,-2.73049 1.91136,-2.59395 1.91136,-2.59395 l -0.81916,-7.91838 1.84308,-0.2048 -1.91135,-15.59784 -9.69317,0.88739 -1.02393,0.10241 -0.10241,-1.4335 -6.38248,0.68261 0.20477,1.4335 -4.77834,0.54609 -3.51549,-7.85011 -1.39934,0.17066 -0.24864,-1.54418 -282.67132,34.7897 0.38615,3.23398 -2.41342,0.28961 -0.0965,-0.72402 -13.37037,1.64112 0.14481,0.7723 -26.95793,3.16159 -0.6275,-6.56451 c -0.0483,-1.11018 -1.18257,-1.76181 -1.18257,-1.76181 l -12.87288,-7.04707 -2.5489,0.28949 -0.21721,-1.25498 5.79222,-0.57922 -0.57922,-4.92339 4.53723,-0.48267 -7.14373,-55.4122 -14.28747,1.8342 -0.86882,-6.46798 -6.08184,1.06191 0.96538,6.37144 -18.92124,2.70303 -0.57923,-2.02727 -10.61905,1.44805 -0.19308,-0.57922 -9.17099,2.99264 -1.73769,-5.40606 2.0273,-0.57922 0.77227,-0.86884 0,-4.82685 6.66106,0.48269 -0.48269,-1.93074 0.86883,0 -0.67575,-2.8961 -7.62641,-0.86884 0.0965,-0.67575 1.15844,-0.28962 0.0966,-3.62013 -3.37882,0.38614 -0.48266,-1.2067 1.73766,-0.43443 -0.19309,-11.97057 -3.04088,0.48268 -0.6275,-1.64113 1.93073,-0.33787 -0.14481,-2.70304 6.70932,0.43442 -0.0483,-1.64113 0.72402,0.0483 -0.28961,-2.89611 -8.01255,-0.43442 -0.24133,-1.0619 1.30322,0 -0.0965,-3.57187 -3.42705,0.14481 0,-1.44806 1.64113,0.0483 -0.28961,-12.26018 -13.85306,1.979 -9.46061,-0.9171 0.14481,1.59286 -0.82058,-0.0483 0.33789,2.99265 8.15736,0.77229 1.73766,9.02621 -0.72403,0.0483 2.17207,12.93595 -7.19198,-0.48268 0.14481,1.35151 -0.86883,-0.0483 0.28961,3.08918 8.25389,1.01364 1.73769,9.26754 -0.57925,0.0483 0.86886,4.48897 -6.85413,-0.38615 0.0965,1.64113 -1.01364,-0.1448 0.38614,2.94437 8.39873,0.96537 0.72402,4.05455 -0.57922,0 1.83418,9.89504 -4.44069,1.54459 5.64741,16.65262 -3.52359,1.25497 5.55089,16.55609 -3.47535,1.15844 0.77231,2.36516 -1.93074,0.57922 0.91711,2.31689 -0.91711,0.33788 0.57922,1.8342 2.75128,-0.7723 4.63378,14.43227 2.07553,-0.77229 1.11019,5.93702 -0.53097,0.28961 1.15847,7.14373 -7.09548,-0.43442 0.24137,1.39979 -0.72403,0.0483 0.19305,3.47533 8.64005,0.43441 0.19308,1.20671 -0.57921,0 2.31687,13.37036 -0.53094,0.0965 1.49631,7.33681 -7.14371,-0.38615 0.19305,1.54459 -0.91707,0 0.28961,3.08918 8.88137,0.82056 0.14481,0.96538 -0.67576,0.0965 2.60649,13.6117 -0.72402,0.14481 2.12381,12.79114 -7.09547,-0.38615 0.0966,1.39979 -1.01367,-0.0483 0.38617,3.04091 8.3987,0.67576 1.39979,9.07447 -0.43442,0 2.65477,13.56343 -0.62749,0 0.43442,2.12383 -7.0472,-0.24137 0.33788,1.30328 -1.15844,0.0482 0.48269,3.28226 8.15736,0.43441 2.84784,14.96321 7.09546,-0.57921 1.20671,7.19201 1.35152,-0.24133 0.19307,0.77227 2.89612,0.24136 -0.9171,-8.54353 2.60649,-0.43442 0.14481,-8.73658 -2.17209,-0.0483 0.0483,-6.51624 5.11646,-0.0965 0.0483,-1.78594 1.54459,-0.0483 -0.14481,-2.55823 -6.4197,-0.28961 -0.0483,-2.07555 -1.979,0 0.0965,-13.56341 -2.36516,0.19307 0.33788,-6.70932 5.06819,-0.0483 -0.0483,-1.49632 1.35151,0.0483 -0.0965,-2.94438 -6.2749,-0.0965 -0.0965,-2.36516 -1.93074,0.14481 -0.14481,-13.94959 -2.17208,0.38615 0.28961,-4.63377 5.98529,0.86883 0.0965,-2.22035 1.01363,0.0965 -0.0965,-2.79957 -6.99893,-0.77229 0.0965,-4.44071 -2.36515,0.19308 0.28961,-13.70825 -1.78594,0.28961 -0.28961,-4.34415 6.41971,0.1448 -0.0483,-1.73767 0.86883,0.0483 -0.0965,-2.65477 -6.85412,-0.43441 -0.0965,-4.77858 -1.8342,0.0965 0,-13.12903 -3.28226,0 -0.38614,-1.979 9.41235,-0.7723 -0.0483,-2.94437 9.17101,-0.57923 0.19307,2.26862 14.86669,-1.8342 -0.19308,-1.64113 8.59179,-0.86883 0.19307,1.44806 5.01992,-0.57923 -0.0965,-0.77229 z m 172.77697,-107.75934 -0.9171,-7.28854 1.25497,-0.12067 -0.31374,-2.7513 -1.13431,0.12067 -0.12067,-0.67576 -12.98422,1.66526 -0.96536,-7.89189 -0.96538,0.12067 -0.1448,-0.94124 -1.11018,0.12068 -5.52673,-44.96207 -18.10068,2.31688 5.59914,44.8414 -0.94123,0.14481 0.12067,1.01363 -1.13431,0.21721 0.86883,7.77122 -61.46989,7.98843 0.38615,2.7513 -26.11323,3.08919 -0.12067,-0.9171 -1.56873,0.31374 -0.48268,-3.30639 1.01364,-0.19307 -0.10861,-0.63956 5.56294,-0.8809 -0.12067,-0.77229 2.24448,-0.31375 -0.0483,-0.38615 4.41656,-0.43441 0.0965,0.77229 3.95802,-0.41028 -0.24135,-1.7618 -3.90974,0.43442 -0.0965,-0.38615 -4.27176,0.48269 -0.19307,-1.90661 -6.27491,-5.47847 -2.43755,-18.92123 0.9895,-0.12068 -0.62749,-4.48896 -2.17208,0.33788 -0.7723,-5.62328 5.45434,-1.6894 c 0,0 1.13431,-0.41028 1.93074,-1.18257 l 9.99157,7.67468 1.20672,-1.52046 -7.38508,-5.47846 0.89296,-1.03778 -2.55823,-1.95487 c 0,0 2.5341,-4.03042 -0.72402,-8.54352 l 1.85833,-2.31689 -0.86882,-0.77229 5.35779,-7.21614 -3.71667,-2.6789 -7.69882,10.35359 c 0,0 -4.22349,-0.28961 -7.62642,0.0724 l -0.0483,-1.73766 -4.75444,0.31374 -3.76494,0.48269 0.0965,1.8342 c 0,0 -6.29903,0.62749 -7.60228,1.97901 l -10.42599,-8.27805 -2.77543,3.3788 7.36094,5.86461 -0.79643,0.9171 2.99264,2.26863 c 0,0 -1.8342,3.69253 0.7723,7.38507 l -2.29275,3.01678 1.0619,0.82056 -4.05455,5.30953 1.73766,1.25498 6.15423,-8.20564 c 0,0 0.9171,1.49633 7.9643,1.11018 l 0.82057,6.78172 1.32738,-0.0965 2.02728,15.66312 -3.13746,0.43441 0.60336,5.50261 c 0.0483,-0.0483 1.08604,-0.0483 1.08604,-0.0483 l 0.53095,4.80272 -1.95487,0.0965 0.77229,6.51624 4.27176,-0.38614 0.55509,3.93388 -30.28846,3.88561 0.28962,3.18572 2.70303,-0.33788 0.67576,5.55087 64.55907,-8.54352 0.0724,0.38615 z m 100.97873,-14.87336 -59.17716,7.33681 -1.30324,-12.26019 8.95381,-1.08604 -0.0483,-1.81006 3.83734,-0.31375 5.47847,-7.31268 1.88249,-0.1448 -6.82999,-56.18449 13.12901,-1.68939 6.97479,56.08795 1.66527,-0.0724 7.09549,5.52674 1.85832,-0.0965 0.1448,1.49632 14.83598,-1.74766 z"
       inkscape:connector-curvature="0" />
  </g>
  <g
     inkscape:groupmode="layer"
     id="layer3"
     inkscape:label="ORD"
     transform="translate(788.96318,33.114223)">
    <path
       id="path4911"
       style="fill:#837fff;fill-opacity:0.49803922;stroke:none;stroke-width:1.5;stroke-miterlimit:4;stroke-dasharray:none;stroke-opacity:1"
       d="m -136.23166,287.80816 2.05471,-1.01438 -1.50854,-2.96503 0.57219,-0.31208 -3.86425,-8.83481 c -0.84504,-0.12812 -1.42621,-0.917 -1.29809,-1.76201 0.12812,-0.84504 0.917,-1.42621 1.76204,-1.29809 0.84501,0.12812 1.42618,0.917 1.29806,1.76204 -0.0248,0.16401 -0.076,0.32302 -0.1513,0.4708 l 4.12623,8.98583 0.39011,-0.23408 1.32646,2.83499 2.49689,-1.30047 8.47896,18.70051 -0.36412,0.18208 19.50679,43.6432 c 0,0 3.589263,0.36416 2.574921,4.68164 l 10.377609,10.50768 5.643932,-5.69601 1.742659,1.9247 -5.487945,5.59193 7.438599,7.33458 5.513931,-5.48795 1.638574,1.66464 -4.094961,4.21867 7.546448,7.50942 4.035605,-4.10021 1.746138,1.76137 -3.953422,4.21346 0.364159,0.36412 2.002697,-2.10671 6.606302,6.37221 -2.002697,2.02869 0.338137,0.33813 4.005359,-4.00539 1.924703,1.87263 -4.083423,4.13546 7.386556,7.46462 4.109445,-4.23948 1.716602,1.69058 -5.435902,5.77401 7.386592,7.38659 5.539917,-5.74802 1.742624,1.7166 -5.409916,5.722 9.701404,9.85746 c 0,0 2.834995,-1.43051 4.395504,1.37847 0.10405,-0.078 90.381543,-0.33814 90.381543,-0.33814 l 0,-0.67624 c 0.07803,-0.052 21.379485,0.052 21.379485,0.052 l 0,2.835 2.912988,0.0259 0.02591,0.5462 1.026305,0.0259 c 0.588732,-0.65948 1.613794,-0.72832 2.289537,-0.15375 0.675778,0.57457 0.746281,1.57496 0.157549,2.23444 -0.588732,0.65948 -1.61383,0.72828 -2.289573,0.15371 -0.08371,-0.0711 -0.159714,-0.15052 -0.226809,-0.23685 l -1.191096,0.0312 0.02591,0.46817 -1.482516,0.0521 0.05204,2.18477 -8.895093,0 0,-1.61255 -13.73282,0.0259 0,1.63857 -8.426919,0.0259 0,-1.7166 -14.252966,0.078 -0.02592,1.63857 -8.504948,0.0259 -0.05204,-1.58657 -14.148951,0.13004 -0.02592,1.5085 -8.45294,-0.052 0.02592,-1.56058 -14.226945,0.0781 0,1.56051 -8.582977,0.0259 0,-1.40449 -12.926543,-0.0259 c 0,0 -28.16215,8.0138 -52.953504,-9.20036 l -16.204614,13.07571 -14.070924,-14.383 12.900525,-16.41172 c 0,0 -15.943585,-21.61354 -10.403635,-49.41724 l -8.68703,-19.4288 -1.35248,0.78026 -3.53725,-7.80273 1.48255,-0.78025 -4.49959,-9.96148 -1.48251,0.8323 -3.48521,-7.93276 1.48252,-0.67624 -4.52558,-10.01348 -1.45649,0.70222 z m -320.63988,62.49981 -4.36951,-3.06912 0.78029,-1.14437 4.52557,3.01707 z m -70.48457,-209.86724 9.38929,1.30046 c 0,0 -0.078,1.09238 0.8843,1.40449 0,0 0.91029,0.41614 1.37847,-0.62422 0,0 4.88412,-16.52116 22.46614,-21.52356 l 0.11033,0.47817 9.93123,-3.75181 c 0,0 2.39085,-1.36095 0.80922,-4.00928 0,0 -1.21381,-1.83912 -3.49433,-0.99312 l -13.09453,4.92884 c 0,0 -8.60708,3.42076 -14.3819,10.66689 l 1.72877,1.43451 c 0,0 -0.73566,0.73565 -1.692,2.35408 l -12.32212,-1.76556 c 0,0 0.83603,-4.95914 -4.20973,-5.84345 0,0 -5.30587,-1.1444 -6.29422,3.74531 l -15.91755,93.13851 -6.46193,-1.1442 -0.66207,4.15641 6.40012,1.10344 -12.46924,75.22 c 0,0 -1.54485,6.25297 4.08286,7.20934 0,0 5.48059,0.88277 6.32656,-5.11279 l 3.27363,-18.64864 0.47819,0.0736 0.36781,-2.72193 6.43693,0.99315 c 0,0 1.22628,11.41091 12.72231,19.05757 l -3.64127,5.01977 27.98575,19.45478 -1.79463,2.57489 0.49419,2.70496 3.5112,2.57488 -2.47084,3.61529 -1.82065,-1.32649 -20.105,28.81804 -30.48263,11.49604 0.59821,1.82062 -6.8144,2.67893 -0.39011,-1.11839 -1.06639,0.39015 -0.39014,-0.96234 -47.12845,17.60814 0.39014,0.98836 -1.1704,0.44215 1.58657,4.21346 1.01434,-0.49416 0.31211,1.01434 47.15444,-17.60814 -0.44215,-0.96233 1.19642,-0.36413 -0.41613,-1.0924 4.99371,-1.74259 32.95351,22.86196 0,5.12379 -1.32646,0.0259 0.0259,1.1184 -1.04033,0.052 -0.0259,48.79304 c 0.13004,0.0259 7.10047,0 7.10047,0 l 0.28609,-89.99139 10.63772,-15.13728 0.72824,0.52019 0.41617,-0.62424 0.31212,0.26008 0.72824,-1.09237 -1.19642,-0.78026 1.6646,-2.34083 -1.6646,-1.09237 -0.57219,0.83226 -0.57222,-0.31208 1.40452,-2.02872 1.7166,1.24843 5.87806,-8.21886 -1.8727,-1.30043 2.5489,-3.53726 3.32916,2.39285 3.38119,-0.62424 1.71661,-2.49685 27.62162,19.55883 3.95339,-5.66999 10.14352,7.17849 c 0,0 -5.66995,9.93549 5.56594,15.34537 l 0,3.58926 -0.39014,-0.0259 0.0781,83.69721 7.38656,0 0.10405,-35.78851 0.5462,-0.0259 c 0,0 2.26277,-6.65834 -0.0259,-13.03056 l -0.5462,-0.052 -0.078,-34.77413 -0.36412,-0.0259 0,-3.74532 c 0,0 8.65401,-2.87057 6.70453,-12.25006 l 0.60403,-0.2343 0.2861,0.59821 10.50768,-7.51662 2.02871,2.70495 8.58298,-6.11214 2.65292,3.53726 7.85476,-5.69601 -1.50853,-2.08073 8.76505,-6.03411 5.82601,2.86102 2.02872,-1.30048 20.9373,30.14455 0.10405,99.04258 6.62377,-0.008 4.63456,-2.7219 4.41389,0 -0.0736,-1.98626 2.28052,0.0367 -0.11033,-5.95871 -2.09663,0.0366 -0.0368,-1.94945 -4.41389,0 -2.28049,-1.54485 0,-5.37023 -1.10348,0 0,-6.58408 0.77245,0 0,-4.19315 -0.77245,-0.0369 0,-6.54727 0.846,0 0,-4.41385 -0.88086,-0.0348 0.10402,-8.71305 0.59824,0.0259 0,-3.64127 0.88431,0 0.0259,-0.65022 -1.58656,0.0259 c -0.10402,-0.15606 0,-6.47627 0,-6.47627 l 0.85832,0 -0.052,-2.73094 2.39285,-0.0259 -0.0521,-3.87532 -2.31481,0.0259 0,-2.93901 1.17043,0 22.21175,-15.55344 0.18204,-0.70222 59.43937,22.1286 2.42766,14.12442 -1.98626,5.14952 8.82779,3.38401 1.83911,-5.22308 11.47609,-9.12208 4.78174,1.83915 3.16326,-8.31283 -114.37479,-42.44688 -20.87574,-29.7937 2.13273,-1.56054 -0.78029,-6.60631 11.18392,-7.59462 1.40449,2.18474 5.66999,-3.95338 -2.44489,-3.58927 30.17053,-20.85926 7.49064,2.67897 -0.57219,1.22241 2.47084,0.96233 0.49419,-1.35248 9.80539,3.77131 -0.41617,1.19642 2.18478,0.96233 0.44215,-1.35248 16.0996,5.98211 -0.49416,1.14438 2.13274,0.80627 0.49419,-1.1704 11.99016,4.44755 -0.41613,1.19642 2.34081,0.96234 0.36416,-1.27442 5.98207,2.15872 8.58298,0 0,1.30047 3.30316,0.078 -0.0259,-1.40449 12.0422,0 -0.0259,-9.2072 -4.23948,0 -0.0259,-1.40449 -2.28879,0 -0.0259,1.43047 -12.77045,0 0,-1.56051 -2.36682,0.0259 0.0259,1.56054 -0.46818,-0.0259 -16.54176,-6.3462 0.44215,-1.17043 -2.28882,-0.85828 -0.49416,1.32645 -11.93819,-4.49955 0.5462,-1.24843 -2.41883,-0.85828 -0.46817,1.32645 -16.25563,-6.19017 -1.1704,0.96234 -3.4332,-1.30044 2.57488,-1.87266 -8.73903,-12.79647 -2.70496,1.97667 -1.30044,-1.71656 -93.84073,65.7509 1.30043,1.7166 -3.79733,2.60091 3.95339,5.35787 -3.27715,2.44485 -4.00539,-5.56594 c 0,0 -3.58926,1.40449 -8.01079,1.30044 0,0 -0.31211,-1.5085 -1.7166,-1.5085 0,0 -1.24843,-0.15606 -1.7166,1.14441 0,0 -4.78569,0.46814 -8.94714,-1.30047 l -2.70496,3.95338 -4.68163,-3.22514 2.28883,-3.01703 -3.64127,-2.4969 1.24842,-1.7166 -61.58948,-42.60284 -1.19642,1.7166 -3.58926,-2.49685 -3.64127,5.20178 c 0,0 -14.05583,-8.18325 -12.06957,-25.47097 l 0.78164,-4.17934 1.40448,0.26007 14.61709,-86.45415 -12.06819,-2.13276 c 0,-0.26008 4.31751,-25.2808 4.31751,-25.2808 l 3.06908,0.46814 z m -104.19235,28.89609 2.70495,-16.3337 c 0,0 1.19639,-5.72199 -4.73367,-6.76235 0,0 -5.04579,-1.14442 -6.5543,3.84933 l -9.67538,55.24329 -6.97042,-1.35248 -4.62963,28.76604 -5.09776,-0.8323 -2.75697,16.95793 4.99375,0.8323 -0.98836,6.24214 6.81437,1.19642 -8.9471,53.83877 c 0,0 -0.93635,6.08615 4.52558,7.07447 0,0 5.87805,0.78029 6.86637,-4.47357 l 2.96503,-16.59376 -3.12109,-0.57219 1.50854,-9.05115 3.12109,0.57219 1.76861,-10.19557 -3.22511,-0.57219 1.56055,-9.10319 3.2251,0.67624 1.71661,-10.24757 -3.06909,-0.57219 1.35248,-9.05115 3.32916,0.52018 3.01707,-19.24672 3.27715,0.70223 0.57219,-4.00539 -3.12109,-0.57219 1.40449,-9.51933 -2.835,-0.52018 1.3785,-9.05115 3.25113,0.52018 1.48251,-10.27359 -3.00976,-0.47311 1.39774,-8.9749 3.1633,0.51496 1.76556,-10.15193 -3.05297,-0.6253 1.47134,-8.90134 z"
       inkscape:connector-curvature="0" />
    <g
       id="g4393">
      <g
         id="g4369">
        <text
           xml:space="preserve"
           style="font-style:normal;font-variant:normal;font-weight:200;font-stretch:normal;font-size:42.59999847px;line-height:110.00000238%;font-family:Overpass;-inkscape-font-specification:'Overpass, Ultra-Light';text-align:center;letter-spacing:0px;word-spacing:0px;writing-mode:lr-tb;text-anchor:middle;fill:#ff3f3f;fill-opacity:1;stroke:none;stroke-width:1px;stroke-linecap:butt;stroke-linejoin:miter;stroke-opacity:1"
           x="-650.89575"
           y="537.81543"
           id="text4156"
           sodipodi:linespacing="110%"><tspan
             sodipodi:role="line"
             id="tspan4158"
             x="-650.89575"
             y="537.81543">ATL</tspan></text>
        <text
           xml:space="preserve"
           style="font-style:normal;font-variant:normal;font-weight:normal;font-stretch:normal;font-size:28.39999962px;line-height:110.00000238%;font-family:Overpass;-inkscape-font-specification:'Overpass, Normal';text-align:center;letter-spacing:0px;word-spacing:0px;writing-mode:lr-tb;text-anchor:middle;fill:#ff3f3f;fill-opacity:1;stroke:none;stroke-width:1px;stroke-linecap:butt;stroke-linejoin:miter;stroke-opacity:1"
           x="-556.28192"
           y="537.81543"
           id="text4160"
           sodipodi:linespacing="110%"><tspan
             sodipodi:role="line"
             id="tspan4162"
             x="-556.28192"
             y="537.81543">Atlanta</tspan></text>
        <text
           xml:space="preserve"
           style="font-style:normal;font-variant:normal;font-weight:bold;font-stretch:normal;font-size:10.65000057px;line-height:110.00000238%;font-family:Overpass;-inkscape-font-specification:'Overpass, Bold';text-align:center;letter-spacing:0px;word-spacing:0px;writing-mode:lr-tb;text-anchor:middle;fill:#7e0000;fill-opacity:1;stroke:none;stroke-width:1px;stroke-linecap:butt;stroke-linejoin:miter;stroke-opacity:1"
           x="-613.85187"
           y="553.13971"
           id="text4164"
           sodipodi:linespacing="110%"><tspan
             sodipodi:role="line"
             id="tspan4363"
             x="-613.85187"
             y="553.13971">96.1 MILLION PASSENGERS</tspan></text>
      </g>
      <g
         id="g4377">
        <text
           xml:space="preserve"
           style="font-style:normal;font-variant:normal;font-weight:200;font-stretch:normal;font-size:42.59999847px;line-height:110.00000238%;font-family:Overpass;-inkscape-font-specification:'Overpass, Ultra-Light';text-align:center;letter-spacing:0px;word-spacing:0px;writing-mode:lr-tb;text-anchor:middle;fill:#ffa73f;fill-opacity:1;stroke:none;stroke-width:1px;stroke-linecap:butt;stroke-linejoin:miter;stroke-opacity:1"
           x="-435.85425"
           y="537.81543"
           id="text4178"
           sodipodi:linespacing="110%"><tspan
             sodipodi:role="line"
             id="tspan4180"
             x="-435.85425"
             y="537.81543">LAX</tspan></text>
        <text
           xml:space="preserve"
           style="font-style:normal;font-variant:normal;font-weight:normal;font-stretch:normal;font-size:28.39999962px;line-height:110.00000238%;font-family:Overpass;-inkscape-font-specification:'Overpass, Normal';text-align:center;letter-spacing:0px;word-spacing:0px;writing-mode:lr-tb;text-anchor:middle;fill:#ffa73f;fill-opacity:1;stroke:none;stroke-width:1px;stroke-linecap:butt;stroke-linejoin:miter;stroke-opacity:1"
           x="-310.802"
           y="537.81543"
           id="text4182"
           sodipodi:linespacing="110%"><tspan
             sodipodi:role="line"
             id="tspan4184"
             x="-310.802"
             y="537.81543">Los Angeles</tspan></text>
        <text
           xml:space="preserve"
           style="font-style:normal;font-variant:normal;font-weight:bold;font-stretch:normal;font-size:10.65000057px;line-height:110.00000238%;font-family:Overpass;-inkscape-font-specification:'Overpass, Bold';text-align:center;letter-spacing:0px;word-spacing:0px;writing-mode:lr-tb;text-anchor:middle;fill:#7e4400;fill-opacity:1;stroke:none;stroke-width:1px;stroke-linecap:butt;stroke-linejoin:miter;stroke-opacity:1"
           x="-398.35522"
           y="553.13971"
           id="text4186"
           sodipodi:linespacing="110%"><tspan
             sodipodi:role="line"
             id="tspan4365"
             x="-398.35522"
             y="553.13971">70.7 MILLION PASSENGERS</tspan></text>
      </g>
      <g
         id="g4385">
        <text
           xml:space="preserve"
           style="font-style:normal;font-variant:normal;font-weight:200;font-stretch:normal;font-size:42.59999847px;line-height:110.00000238%;font-family:Overpass;-inkscape-font-specification:'Overpass, Ultra-Light';text-align:center;letter-spacing:0px;word-spacing:0px;writing-mode:lr-tb;text-anchor:middle;fill:#453fff;fill-opacity:1;stroke:none;stroke-width:1px;stroke-linecap:butt;stroke-linejoin:miter;stroke-opacity:1"
           x="-152.08984"
           y="537.81543"
           id="text4200"
           sodipodi:linespacing="110%"><tspan
             sodipodi:role="line"
             id="tspan4202"
             x="-152.08984"
             y="537.81543">ORD</tspan></text>
        <text
           xml:space="preserve"
           style="font-style:normal;font-variant:normal;font-weight:normal;font-stretch:normal;font-size:28.39999962px;line-height:110.00000238%;font-family:Overpass;-inkscape-font-specification:'Overpass, Normal';text-align:center;letter-spacing:0px;word-spacing:0px;writing-mode:lr-tb;text-anchor:middle;fill:#453fff;fill-opacity:1;stroke:none;stroke-width:1px;stroke-linecap:butt;stroke-linejoin:miter;stroke-opacity:1"
           x="3.8344712"
           y="537.81543"
           id="text4204"
           sodipodi:linespacing="110%"><tspan
             sodipodi:role="line"
             id="tspan4216"
             x="3.8344712"
             y="537.81543">ChicagoOHare</tspan></text>
        <text
           xml:space="preserve"
           style="font-style:normal;font-variant:normal;font-weight:bold;font-stretch:normal;font-size:10.65000057px;line-height:110.00000238%;font-family:Overpass;-inkscape-font-specification:'Overpass, Bold';text-align:center;letter-spacing:0px;word-spacing:0px;writing-mode:lr-tb;text-anchor:middle;fill:#04007e;fill-opacity:1;stroke:none;stroke-width:1px;stroke-linecap:butt;stroke-linejoin:miter;stroke-opacity:1"
           x="-121.09521"
           y="553.13971"
           id="text4208"
           sodipodi:linespacing="110%"><tspan
             sodipodi:role="line"
             id="tspan4367"
             x="-121.09522"
             y="553.13971">70.0 MILLION PASSENGERS</tspan></text>
      </g>
    </g>
  </g>
  <g
     inkscape:groupmode="layer"
     id="layer4"
     inkscape:label="Scale"
     transform="translate(-194.17926,55.229443)">
    <g
       id="g4313"
       transform="matrix(0.71,0,0,0.71,-96.47511,29.972231)">
      <rect
         y="25"
         x="864.1673"
         height="5"
         width="500"
         id="rect4284"
         style="opacity:1;fill:#000000;fill-opacity:0.24705882;stroke:none;stroke-width:1;stroke-miterlimit:4;stroke-dasharray:none;stroke-opacity:0.50196078" />
      <text
         sodipodi:linespacing="110%"
         id="text4286"
         y="45"
         x="1114.4347"
         style="font-style:normal;font-variant:normal;font-weight:normal;font-stretch:normal;font-size:15px;line-height:110.00000238%;font-family:Overpass;-inkscape-font-specification:'Overpass, Normal';text-align:center;letter-spacing:0px;word-spacing:0px;writing-mode:lr-tb;text-anchor:middle;fill:#7f7f7f;fill-opacity:1;stroke:none;stroke-width:1px;stroke-linecap:butt;stroke-linejoin:miter;stroke-opacity:1"
         xml:space="preserve"><tspan
           y="45"
           x="1114.4347"
           id="tspan4288"
           sodipodi:role="line">1 km</tspan></text>
    </g>
  </g>
  <g
     inkscape:groupmode="layer"
     id="layer5"
     inkscape:label="Title"
     transform="translate(-194.17926,55.229443)">
    <text
       xml:space="preserve"
       style="font-style:normal;font-variant:normal;font-weight:300;font-stretch:normal;font-size:42.59999847px;line-height:110.00000238%;font-family:Overpass;-inkscape-font-specification:'Overpass, Light';text-align:center;letter-spacing:0px;word-spacing:0px;writing-mode:lr-tb;text-anchor:middle;fill:#5f5f5f;fill-opacity:1;stroke:none;stroke-width:1px;stroke-linecap:butt;stroke-linejoin:miter;stroke-opacity:1"
       x="694.41095"
       y="0.52775651"
       id="text4299"
       sodipodi:linespacing="110%"><tspan
         sodipodi:role="line"
         id="tspan4305"
         x="694.41095"
         y="0.52775651">Size Comparison of the Busiest US Airports</tspan></text>
    <text
       xml:space="preserve"
       style="font-style:normal;font-variant:normal;font-weight:bold;font-stretch:normal;font-size:14.19999957px;line-height:110%;font-family:Overpass;-inkscape-font-specification:'Overpass, Bold';text-align:center;letter-spacing:0px;word-spacing:0px;writing-mode:lr;text-anchor:middle;fill:#222222;fill-opacity:1;stroke:none;stroke-width:1px;stroke-linecap:butt;stroke-linejoin:miter;stroke-opacity:1;"
       x="694.36871"
       y="25.14279"
       id="text4307"
       sodipodi:linespacing="110%"><tspan
         sodipodi:role="line"
         id="tspan4420">BASED ON 2014 TOTAL COMMERCIAL PASSENGERS</tspan></text>
  </g>
</svg>
