<?xml version="1.0" encoding="UTF-8" standalone="no"?>
<!-- Created with Inkscape (http://www.inkscape.org/) -->

<svg
   xmlns:dc="http://purl.org/dc/elements/1.1/"
   xmlns:cc="http://creativecommons.org/ns#"
   xmlns:rdf="http://www.w3.org/1999/02/22-rdf-syntax-ns#"
   xmlns:svg="http://www.w3.org/2000/svg"
   xmlns="http://www.w3.org/2000/svg"
   xmlns:sodipodi="http://sodipodi.sourceforge.net/DTD/sodipodi-0.dtd"
   xmlns:inkscape="http://www.inkscape.org/namespaces/inkscape"
   width="2724.6504"
   height="1546.7441"
   viewBox="0 0 2724.6504 1546.7442"
   id="svg4163"
   version="1.1"
   inkscape:version="0.92.4 (5da689c313, 2019-01-14)"
   inkscape:export-filename="C:\Users\paulb\Desktop\DFW-NRT.png"
   inkscape:export-xdpi="36.5"
   inkscape:export-ydpi="36.5"
   sodipodi:docname="DFW NRT Size Comparison.svg">
  <defs
     id="defs4165" />
  <sodipodi:namedview
     id="base"
     pagecolor="#ffffff"
     bordercolor="#666666"
     borderopacity="1.0"
     inkscape:pageopacity="0.0"
     inkscape:pageshadow="2"
     inkscape:zoom="0.35"
     inkscape:cx="913.63404"
     inkscape:cy="812.48484"
     inkscape:document-units="px"
     inkscape:current-layer="layer1"
     showgrid="false"
     fit-margin-top="100"
     fit-margin-left="100"
     fit-margin-right="100"
     fit-margin-bottom="100"
     units="px"
     showguides="false"
     inkscape:guide-bbox="true"
     inkscape:object-nodes="true"
     inkscape:snap-text-baseline="true"
     inkscape:window-width="1920"
     inkscape:window-height="1137"
     inkscape:window-x="1912"
     inkscape:window-y="-8"
     inkscape:window-maximized="1">
    <sodipodi:guide
       position="2353.086,1446.7442"
       orientation="0,1"
       id="guide4750"
       inkscape:locked="false" />
    <sodipodi:guide
       position="258.31422,349.17628"
       orientation="0,1"
       id="guide4752"
       inkscape:locked="false" />
    <sodipodi:guide
       position="100.00001,815.39406"
       orientation="1,0"
       id="guide4754"
       inkscape:locked="false" />
    <sodipodi:guide
       position="2624.5205,764.72656"
       orientation="1,0"
       id="guide4756"
       inkscape:locked="false" />
  </sodipodi:namedview>
  <metadata
     id="metadata4168">
    <rdf:RDF>
      <cc:Work
         rdf:about="">
        <dc:format>image/svg+xml</dc:format>
        <dc:type
           rdf:resource="http://purl.org/dc/dcmitype/StillImage" />
        <dc:title />
      </cc:Work>
    </rdf:RDF>
  </metadata>
  <g
     inkscape:label="Layer 1"
     inkscape:groupmode="layer"
     id="layer1"
     transform="translate(1259.6079,24.995971)">
    <path
       inkscape:connector-curvature="0"
       id="rect4160"
       d="m 759.98449,1152.3239 a 32.610896,32.610896 0 0 0 11.6494,-44.6238 32.610896,32.610896 0 0 0 -15.1851,-13.3976 l 184.1243,-107.89116 17.2623,29.45946 303.87301,-178.06026 -1.9413,-3.313 33.2527,-19.485 3.8539,2.1922 68.1686,-39.9447 -0.044,-7.0028 -4.329,0.1416 4.3074,-3.2574 -4.3492,-3.2037 4.33,0.084 -0.045,-7.0001 -68.6773,-39.065 -42.6288,24.9791 0.1215,18.8899 4.7714,-0.032 0.077,12.0613 -4.7714,0.032 0.1205,18.8882 8.6786,4.9362 -243.4915,142.6786 -23.14611,-13.165 -29.1966,17.1082 -41.5067,-23.6061 -1.6362,-254.0108 -6.9599,-3.9579 -0.01,-1.5595 6.4377,3.6619 81.65471,-47.8472 -1.4696,-27.001 c -73.36101,-32.8638 -146.72241,-65.7276 -220.08361,-98.5909 l 8.2794,31.1895 -8.5797,-3.8441 -2.8694,-15.6793 -134.0635,-60.0584 2.9783,-6.6462 -63.6613,-28.5191 c -3.816,8.5142 -7.629,17.0289 -11.443,25.544 4.0331,1.8067 7.0459,3.1565 11.0194,4.9364 l -1.4475,3.2319 38.9725,17.4579 1.4474,-3.2319 c 68.1454,30.5275 132.4245,59.3252 197.9142,88.6613 0.3145,48.9032 0.6304,97.8057 0.9455,146.709 l -10.3198,6.047 1.3051,202.8065 -50.1208,29.3692 -115.5019,-65.6966 -81.2166,47.5904 0.049,7.7335 -55.7762,32.6831 1.332,2.2733 -2.3019,1.3488 a 32.94204,39.695105 59.631 0 0 -42.60507,0.5305 32.94204,39.695105 59.631 0 0 -17.5935,48.49166 32.94204,39.695105 59.631 0 0 50.90267,8.3528 32.94204,39.695105 59.631 0 0 21.253,-36.88826 l 2.3373,-1.3696 1.332,2.2733 24.4833,-14.3465 14.2192,8.0869 14.9859,-8.7813 7.947,4.5182 7.5982,-4.4523 102.6526,58.38706 0.059,8.8078 9.8733,5.6192 0.046,7.0089 19.539,11.1156 0.2543,39.3329 3.3653,-0.021 0.014,2.1919 a 32.610896,32.610896 0 0 0 -3.7915,1.8663 32.610896,32.610896 0 0 0 -11.6504,44.6221 32.610896,32.610896 0 0 0 44.6239,11.6494 z m 106.7887,-197.32396 -31.3417,18.3654 -7.1708,-12.2374 31.3418,-18.3654 7.1707,12.2374 z m -49.8731,29.2242 -31.3418,18.36526 -7.1708,-12.23736 31.3418,-18.3653 7.1708,12.2374 z m 74.2666,-333.1768 -1.5183,0.8896 -0.1786,-27.5175 -24.6555,-11.0469 -9.4931,5.789 0.2927,45.5719 -19.63,0.1295 -0.3886,-60.4585 5.5828,-12.4621 49.7517,22.2858 0.2369,36.8192 z m -955.190472,-61.204 -8.565,-14.6168 28.4551,-16.6738 -5.9522,-10.158 117.9693,-69.1264 -41.5542,-70.9154 113.466602,-66.488 c 7.2204,-4.231 14.8287,-0.7434 14.8287,-0.7434 l 36.0761,16.5403 95.6665,-56.0576 27.2493,12.4948 12.0252,-26.2272 c -18.5294,-8.495 -37.6273,-17.2489 -54.3565,-24.921 -2.351,-1.0779 -4.5822,0.2311 -4.5822,0.2311 l -0.5493,0.3219 c -2.1201,-0.6419 -3.9909,0.4484 -3.9909,0.4484 l -85.2541,49.9563 3.7236,6.3546 -13.5907,-6.2299 c -21.7104,-9.9524 -42.3138,2.1209 -42.3138,2.1209 l -13.5855,7.9608 1.018,1.7373 -27.745602,16.2582 4.2153,7.1938 -16.9389,9.9257 -4.2154,-7.1938 -6.6242,3.8816 -1.0181,-1.7374 -75.7028,44.3595 5.2335,8.9313 -59.7177,34.9927 -5.2334,-8.9312 -124.361068,72.8717 -33.02315,-25.9219 -25.00228,14.6506 -30.23682,-23.7358 -7.44836,4.3645 -57.81432,-98.6644 -55.7317,-86.2481 2.87817,-1.6865 -0.27474,-42.6554 -13.88332,-23.6929 175.30596,-102.72396 -17.17644,-29.312802 -428.07401,250.838262 17.17644,29.3128 175.30759,-102.7249 13.88333,23.693 37.07805,21.0897 2.87818,-1.6865 48.00036,90.7784 57.81432,98.6644 -29.96668,17.5596 12.39771,79.4614 -82.77203,48.5019 5.23343,8.9312 -59.71766,34.9928 -5.23342,-8.9313 -127.47346,74.6956 10.46782,17.8641 187.19111,-109.6883 3.42047,5.8373 -5.68733,3.3326 5.38252,9.1856 5.68733,-3.3326 7.15099,12.2037 19.68907,-11.5372 3.95368,6.7473 -28.87637,16.9207 9.67297,16.5076 -12.94354,7.5845 -13.04505,-22.2623 -33.29479,19.5097 18.08195,30.8582 33.2948,-19.5097 -1.50391,-2.5666 12.94354,-7.5845 14.11346,24.0857 28.87637,-16.9207 13.44293,22.9414 283.781198,-166.2872 z m -681.800678,352.7116 -53.12696,-90.6651 86.68649,-50.7956 -10.6574,-18.1877 -206.22128,120.8394 -67.36888,-63.1098 2.4765,-2.6463 1.63334,-1.7404 -7.45344,-6.9829 -1.63241,1.742 c -55.7952,-52.2713 -92.7721,-86.9082 -146.4089,-137.1554 l -11.7105,12.501 c 48.8027,45.7185 97.6058,91.4374 146.4089,137.1554 l -1.633,1.7447 7.4524,6.9812 1.634,-1.743 2.4765,-2.6464 65.23136,61.1116 -3.4495,2.0213 63.78435,108.85266 131.87843,-77.27666 z m 761.901878,-448.3595 -72.8937,42.7135 -6.3087,-10.7664 -8.729,5.1149 -1.2313,-2.1013 -17.9669,10.528 1.2313,2.1013 -1.7593,1.0309 -18.084798,-30.8631 17.515198,-10.2634 -7.5825,-12.9402 3.6516,-2.1397 -3.996098,-6.8197 -3.6517,2.1397 -3.4501,-5.8878 67.743998,-39.6959 9.7786,16.6878 16.0896,-9.428 29.6438,50.5894 z"
       style="opacity:1;fill:#aa5585;fill-opacity:0.49803922;stroke:none;stroke-width:1.5;stroke-linecap:butt;stroke-linejoin:round;stroke-miterlimit:4;stroke-dasharray:none;stroke-dashoffset:0;stroke-opacity:0.49803922" />
    <path
       id="path3832"
       style="fill:#d46a6a;fill-opacity:0.49803922;stroke:none;stroke-width:1.5;stroke-linecap:butt;stroke-linejoin:miter;stroke-miterlimit:4;stroke-dasharray:none;stroke-opacity:1"
       d="m 1208.0209,160.27692 -46.4415,-39.22159 c 0,0 4.488,-4.48801 -4.0978,-11.5128 -1.1708,-1.1708 -6.4394,-5.0735 -12.4885,-1.1708 l -51.515,-33.367701 -14.0495,23.6111 25.3672,14.830001 -4.488,7.4151 25.3672,16.3911 4.8783,-7.6102 15.2203,11.1226 -5.4637,7.415 23.4159,18.7327 5.4637,-6.6345 22.05,19.9036 z m -633.20494,383.7976 21.2694,0 0.3903,-16.3912 23.0256,-0.3902 -0.39031,-6.0491 4.87831,0 0,-14.2447 -4.87831,0 3.1222,-29.2699 1.1707,-6.2442 4.6832,0.9756 3.7075,-12.2933 -5.4637,-0.9757 c 0,0 5.2686,-19.7084 11.3177,-35.1238 l 4.2929,2.3416 6.6345,-11.708 -5.4637,-3.5124 18.3425,-30.8309 3.3172,3.3173 8.781,-11.1226 -3.7075,-2.7319 3.1221,-3.7075 -16.9765,-15.2203 c 0,0 41.5847,-52.3845 108.3667,-76.9449 l 8.0028,21.5248 5.5883,-2.144 1.1708,3.5124 14.2447,-4.4881 -1.366,-3.5123 c 0,0 15.8058,-5.4638 34.5385,-7.0248 l 0,4.2929 15.2203,-1.5611 0,-4.8783 33.9531,-0.5854 0,7.0248 14.2446,-0.7805 -0.1951,-4.0978 c 0,0 16.9765,2.7318 34.1482,8.0004 l -1.7562,3.1221 14.0495,5.854 1.9514,-4.0978 c 0,0 15.8057,3.9027 30.8309,13.4642 l -3.1221,4.0978 16.0008,8.7809 2.7319,-3.7075 c 0,0 23.61105,15.2203 42.34385,35.5141 l -2.927,3.3173 12.0982,12.6836 3.5124,-3.1221 c 0,0 10.342,14.0495 17.9522,26.538 l -3.5124,2.7318 6.4393,11.9031 4.293,-2.1464 c 0,0 7.6101,11.903 12.6836,27.7088 l -4.2929,1.7562 6.6345,19.9035 4.6831,-1.7562 c 0,0 5.854,19.123 6.8297,37.8557 l -4.4881,0.5854 0,6.0491 5.0735,0 0.7805,65.9548 31.4163,-0.1951 0,2.7318 21.6597,0.5854 1.1708,-84.6875 -13.8544,-10.5372 c 0,0 -4.6831,-36.6849 -21.6597,-72.0038 l 18.5376,-8.9761 6.8297,-6.6345 -3.3173,-6.8297 -23.4159,-26.1477 3.1221,-2.3416 -38.8313,-42.734 -2.5368,2.3415 -12.4884,-14.0495 -6.6346,-4.2929 -14.0495,16.5863 -25.0971,-21.7062 -52.15625,-28.1478 -38.0824,-12.1421 -44.4294,-7.7269 -44.7053,0.2759 -10.2105,1.9318 1.1038,6.0711 -27.8719,5.7951 -1.9316,-7.1749 -25.3883,6.8989 c 0,0 -45.8092,14.6259 -73.1291,35.3228 l -16.0057,-17.6614 -8.8307,5.2433 -18.7651,19.5931 -2.4837,-1.9318 -38.9102,42.2217 2.7596,1.9317 -17.1095,20.145 -4.9673,9.9346 18.7653,11.5903 -19.3172,41.3938 -6.0711,-1.6557 -11.3143,35.0468 -0.276,17.6613 4.6913,0.552 -2.7595,21.8007 6.623,0.5519 -1.1039,36.7026 -7.1749,0 z m -1577.40236,580.54358 1.2927,47.9538 17.97662,-0.561 -0.58539,-44.7585 18.17171,-21.7573 -3.85387,-3.4392 38.34354,-46.1001 30.66019,33.7092 5.46371,4.2929 13.65928,-16.3912 c 0,0 47.52805,38.1545 115.51844,46.2464 l -0.39027,7.2199 25.36723,2.7319 0.5854,-5.6588 c 0,0 14.04954,0.7805 32.19686,0.5854 l 1.17079,5.8539 22.44024,-2.7318 -0.97566,-5.6589 c 0,0 72.97954,-10.1469 118.64055,-47.6123 l 7.61017,10.7323 -1.36593,1.5611 6.43937,5.0734 5.07345,-4.2929 79.02866,-85.6632 3.70752,-5.6588 -5.46371,-4.68319 -1.95133,1.95132 -9.17123,-4.48805 c 0,0 31.8066,-52.29551 34.14819,-121.17728 l -3.90265,0.19513 0.39027,-6.63449 51.51499,-39.61191 27.12341,0.39027 0,-5.07345 30.24554,-0.39026 0,3.51238 14.8301,-0.39026 0.1951,5.85397 122.9335,0.39028 8.5858,4.29291 33.3677,0 6.8296,7.02477 0,24.0013 -5.2686,0 0,24.78182 14.635,-0.19513 0,48.19772 -14.635,0 0,23.61104 13.8544,0 -0.1951,48.97821 -14.6349,0.1952 0,23.4159 14.6349,0 0,51.5149 -7.2199,0 0.1951,30.4407 -1.561,1.3659 0.1951,8.5859 9.3664,-0.098 2.0489,-2.3416 27.5136,0 0.098,-6.7321 31.904195,-0.3903 -0.098,15.0252 24.0013,-0.1951 0.1951,-14.8301 26.5381,-0.3902 22.8305,22.4402 149.861685,0.1951 22.05,-20.8791 27.7088,0.3902 0,14.8301 24.0013,-0.1951 0,-2.3416 6.6345,0 0,-11.9031 27.5137,0.1951 0,7.2199 32.0017,-0.1951 2.3416,2.5367 8.3907,-0.1951 -0.1951,-7.8053 -2.5367,-1.5611 -0.1952,-31.026 -8.3907,0 0.3903,-50.9296 3.1221,0 0,5.6588 2.7319,-0.1951 0,15.0252 6.8296,0 0.1951,-43.9048 -12.8787,0.1951 -0.1951,-43.70965 11.3176,-0.19514 0,-5.46371 1.9514,0 0.1951,-24.58669 -13.4641,0.39027 -0.3903,-48.19773 14.2447,0.19512 -0.1952,-25.17209 -13.4641,0.39028 0,-22.04998 -4.2929,0 0.3902,-35.70925 -9.1712,0 0,8.19556 -8.7809,0 0.1951,88.59017 -11.1226,11.12255 c 0,0 2.3416,8.00042 -9.3663,19.51325 l -78.4433,79.61404 c 0,0 -13.6593,17.9522 -54.0517,17.5619 l -74.150305,0 c -1.5611,0 -28.6845,3.5124 -51.31988,-18.7327 l -83.516695,-83.32156 c 0,0 -7.2199,-4.48804 -7.6102,-16.78139 l -8.3907,-7.02477 -0.1951,-50.92958 2.7319,0 -0.1952,-9.36636 -5.4637,0.19512 0,-35.51411 -1.7562,-0.19514 -23.4159,-97.17598 3.5124,0.19513 -0.1951,-7.61017 -5.0735,0.19514 -15.2203,-62.4424 3.7075,0 0.3903,-7.41504 -5.2686,-0.19513 -14.8301,-62.44244 19.1474,-0.024 -0.8293,-60.174 4.6832,-41.3925 -6.6101,-0.26821 1.0975,-4.97589 5.3906,0.8293 3.1709,-13.80561 -5.5369,-1.09769 1.9513,-6.3418 4.5369,1.2439 8.1467,-23.5866 -5.0978,-1.3903 1.927,-4.8295 4.2685,2.2196 4.1466,-8.5614 -4.6832,-2.3416 c 0,0 7.7267,-18.5089 23.3183,-39.3436 l 3.0246,2.4879 5.6588,-7.0248 -3.0246,-2.4879 3.171,-3.7319 3.1709,3.3173 16.147195,-17.9278 -3.731995,-3.73201 3.439295,-3.3172 3.1709,3.4636 7.1955,-6.6345 -3.049,-3.3173 8.2932,-6.6101 -7.2687,-10.7567 c 0,0 29.0747,-24.1964 66.5402,-36.4897 l 4.7319,11.09821 6.7809,-2.4881 1.6343,3.732 12.43958,-3.732 -1.3903,-3.8782 5.2442,-1.5122 1.0976,3.4636 23.3183,-4.5612 -0.4146,-6.6345 5.1222,0 0.122,5.5368 13.9519,-0.1463 0,5.5125 33.0994,-0.122 0.4146,-7.0492 12.0007,1.3903 0.7073,-3.7319 9.098105,1.6587 -1.0977,3.7318 22.7574,6.0491 1.3904,-4.0002 5.7807,1.9514 -1.0975,3.5856 12.1469,3.8538 1.244,-3.1709 4.9515,1.6586 5.5369,-11.7322 c 0,0 30.9772,10.659 66.2962,39.3435 l -7.2199,9.9518 c 0,0 25.9526,20.2937 37.4655,39.6119 l -3.7076,2.9269 7.8053,9.9518 3.3173,-2.34161 c 0,0 4.0978,4.6832 7.6102,11.3177 l 12.4884,-7.0248 12.0983,21.0743 12.6836,-6.6345 c 0,0 10.342,18.9279 16.196,41.7585 l -5.0735,1.1707 5.4637,28.09911 3.9027,-0.9756 c 0,0 2.5367,13.6592 3.3172,29.6601 l 2.3416,0 0,5.6588 3.3173,-0.1951 -0.1952,33.1725 11.1226,0.1952 -0.1951,-29.2699 c 0,0 1.9513,-68.6866 -33.1726,-129.3729 l 8.1956,-5.854 -1.5611,-2.1465 13.0739,-9.5614 -6.6345,-9.7567 -74.9309,-83.7118 -5.4637,-3.5124 -17.5619,19.123 c 0,0 -142.056505,-112.7866 -321.871085,-2.5367 -0.4878,-0.9757 -14.147095,-17.9522 -14.147095,-17.9522 l -8.5858,4.6832 -76.4919,82.73609 -4.0978,7.8053 19.7084,13.8544 c 0,0 -36.8801,53.4663 -36.8801,143.6176 l -0.1951,39.807 8.3907,-0.1951 -0.1951,11.5128 -113.7623,0 0.3903,-1.9513 -14.4398,-0.3903 0,2.3416 -114.15256,-0.9756 0.0243,-8.21999 17.09848,0.26829 0,-11.0494 -6.87842,0.2927 -0.561,-43.61209 4.97588,0.2683 0,-10.7566 -5.24419,0 c 0,0 1.63805,-25.3735 -5.53689,-52.4175 l 4.41488,-0.561 -3.02456,-11.8544 -4.41487,1.0976 c 0,0 -2.49512,-13.2527 -6.6345,-22.6353 l 10.22006,-4.6832 -3.31725,-7.4638 12.97631,-8.5371 -4.97588,-10.2199 -16.53748,-22.0745 4.41487,-2.4879 -35.87998,-48.0269 -3.31726,2.7806 -16.56187,-23.1964 -5.7808,-6.3418 -27.31855,22.9036 -6.90281,-6.0734 5.24419,-5.2442 -6.63451,-5.7808 -4.97588,5.7808 -6.04911,-4.6832 0.82932,-1.0976 -18.5132,-11.8787 -0.53661,1.3903 -17.39119,-9.9517 0.26831,-1.0977 c 0,0 -13.78365,-7.9889 -33.92866,-15.4398 l -0.82932,2.1952 -21.80605,-7.4394 0.561,-3.0489 -22.90366,-3.8539 -0.56102,2.7563 c 0,0 -14.34943,-3.0337 -32.56273,-3.5856 l 0,-1.3903 -26.22093,0 0.82932,1.6586 -18.48881,0.8293 -0.53661,-2.1952 -7.46382,0.5365 0,1.927 c 0,0 -17.11955,1.6533 -33.95305,8.0004 l -0.80493,-1.6342 -23.73299,8.0004 c 0,0 -31.1935,9.091 -62.10091,33.0994 l -9.09806,-12.6836 -7.46382,-6.6345 -6.07349,4.9759 -19.73274,21.0254 -2.73185,-2.5367 -40.58756,43.5145 3.12212,2.7319 -22.83051,25.1721 -3.31725,5.4637 30.24554,15.4155 c 0,0 -32.00173,52.4906 -34.14819,106.5423 l -2.87821,0 -0.68296,72.1503 2.78064,0.098 c 0.0301,3.5436 2.92003,6.4028 6.46376,6.3905 3.55635,-0.012 6.4273,-2.9074 6.41499,-6.4637 l 11.80551,-0.1708 0,-55.0517 1.78059,-26.0746 3.4636,-2.6099 10.48837,1.5123 1.09762,-5.3906 3.85387,0.9757 4.14656,-18.7571 -4.14656,-0.8294 7.58577,-23.3183 2.48794,-5.3905 3.1709,1.244 6.0735,-13.8057 -4.00021,-1.9269 19.58642,-32.4164 11.31769,-13.952 3.31725,3.049 11.43964,-13.391 -3.43921,-2.9026 c 0,0 22.89608,-25.6614 51.31985,-40.5631 l 3.63434,5.488 c 0,0 28.68448,-22.8305 81.95565,-26.9283 l 0,-7.0247 1.95133,0.1951 0.39026,5.4637 16.39113,-1.1708 0,-6.2442 31.2212,1.7562 -0.58539,4.0978 14.04954,1.561 -0.97567,5.2686 33.95305,5.854 1.17079,-4.6832 11.51282,4.2929 1.56106,-3.5124 c 0,0 68.29638,20.6841 105.56668,76.1017 l -2.53672,2.5367 9.36636,12.2934 3.51239,-3.5124 c 0,0 8.78096,13.8544 15.41546,30.6358 l -3.31725,1.7562 5.85398,13.6593 4.29291,-2.1465 c 0,0 5.85398,14.4398 9.75663,32.7823 l -3.70752,0.7805 3.12212,14.6349 3.90265,-0.5854 3.12212,22.05 13.46414,-0.7805 -0.5854,62.0521 -18.34245,0.3903 -0.5854,5.854 3.51239,0.9757 -15.6106,87.22417 -2.53673,-0.39026 0,13.26901 2.34159,0.19513 -0.58539,56.39329 -1.95133,0 -0.19513,12.68362 2.34159,-1.36593 42.92915,91.32201 -1.1708,0.5854 -0.78053,51.51499 -22.63537,0.39026 -1.56106,23.61103 -1.17079,3.90265 -7.41504,-1.17079 -2.53672,13.07388 6.82964,1.36592 -12.29335,38.05084 -6.6345,-2.92699 -5.07345,11.12256 6.63451,2.92698 -18.53759,31.2212 -5.07345,-4.48804 -7.2199,9.56149 5.26858,4.48806 -4.48805,4.8783 8.29313,7.4638 c 0,0 -27.02949,30.5155 -57.247,50.2466 l -5.29296,-9.1224 -2.53673,1.7562 -3.90265,-5.4637 -11.51281,6.4393 3.51238,5.854 -30.44067,14.6349 -6.43937,1.7562 -1.95133,-7.0247 -12.68361,3.5124 2.53672,6.8296 c 0,0 -19.12297,5.0734 -35.12384,7.2199 l -0.97566,-7.0248 -13.07388,1.1708 0.5854,7.6102 c 0,0 -17.75706,0.9756 -35.31898,-0.3903 l 0.78053,-6.2442 -14.83007,-1.3659 -0.78053,6.2442 c 0,0 -16.58626,-1.5611 -36.09951,-8.781 l 2.53672,-6.2442 -15.6106,-5.6589 -2.53672,6.8297 c -0.97567,-0.5854 -18.34246,-6.6345 -33.17253,-16.3911 l 3.51239,-5.2686 -12.09822,-7.6102 -3.70752,5.2686 c 0,0 -25.36722,-15.2203 -45.27074,-39.2216 l 5.07345,-4.293 c -1.75619,-0.9756 -17.75706,-19.5132 -34.73359,-50.34413 l -5.65884,3.31725 -1.17079,-1.36593 5.26857,-2.73185 -6.43937,-13.46414 -4.87831,2.34159 c 0,0 -6.43937,-13.85441 -10.53716,-33.75793 l 3.90265,-0.78053 -2.92698,-10.73228 -3.70752,0.78053 c 0,0 -3.70752,-9.36636 -4.09778,-35.12385 l 0,-71.41851 -40.68511,-0.19513 0,18.83029 5.36612,0 -0.19513,37.46545 -4.48805,-0.0976 0,24.78183 0.48783,4.29291 3.41482,-0.39026 0.39027,3.31725 -3.31726,0.48783 2.34159,15.22034 3.21969,-0.39027 7.12234,31.31877 9.56149,26.92828 12.29335,25.95262 2.92699,4.48805 -12.48848,7.41504 -1.95133,-2.92699 -5.85397,5.26858 4.09778,6.63449 41.3193,46.3196 -38.75819,46.661 -2.85381,-2.683 -24.83065,29.7333 z m 504.17358,-400.04604 2.34159,-1.75619 0,-7.02477 -2.14646,0 0.19513,-56.19816 1.95133,0 0,-11.12255 -1.56106,0 15.80573,-87.80966 1.56106,0.1952 17.56192,-0.58541 -0.39026,16.9765 92.49281,0 0,-1.95129 36.68492,0.1951 0,3.70753 14.2447,0 0,-4.48804 125.275,-0.1952 0.1952,1.5611 c 0,0 14.83,61.27162 15.0252,62.24728 l -2.7319,0 -0.3902,7.61017 4.8783,0 15.6106,62.4424 -3.3173,0 -0.3903,7.41503 4.4881,-0.19513 23.4159,96.98085 -4.6832,0 -0.1951,-5.65884 -65.7597,0.19513 c -4.68311,-3.51238 -9.7566,0 -9.7566,0 l -27.7088,-0.19513 c -5.854,-3.70752 -11.3177,0.19513 -11.3177,0.19513 l -17.56191,0 c -6.04909,-4.09778 -12.29339,-0.39026 -12.29339,-0.39026 l -28.0991,-0.39027 c -3.7075,-1.95132 -8.3907,0 -8.3907,0 l -20.2937,-0.19513 c -4.68321,-3.31725 -11.51285,0.19513 -11.51285,0.19513 l -65.95479,0 0,8.00043 -13.46415,8.58583 0.19514,4.87833 -17.95219,0.39026 -0.19514,-10.53716 -45.85613,-93.07821 z m 274.55141,101.17621 0,-4.58562 24.8794,-0.2927 0,-3.60995 37.4655,-0.0976 14.9276,14.53738 0.098,28.87961 -7.1224,0.0976 -0.098,-21.56214 -8.0005,-8.098 -32.2944,0.0976 -10.1469,-5.36615 -19.7084,0 z"
       inkscape:connector-curvature="0" />
    <text
       xml:space="preserve"
       style="font-style:normal;font-variant:normal;font-weight:300;font-stretch:normal;line-height:0%;font-family:Overpass;-inkscape-font-specification:'Overpass, Light';text-align:start;letter-spacing:0px;word-spacing:0px;writing-mode:lr-tb;text-anchor:start;fill:#d36a6a;fill-opacity:0.49803922;stroke:none;stroke-width:1px;stroke-linecap:butt;stroke-linejoin:miter;stroke-opacity:1"
       x="-1172.7329"
       y="1413.025"
       id="text4758"><tspan
         sodipodi:role="line"
         id="tspan4760"
         x="-1172.7329"
         y="1413.025"
         style="font-size:125px;line-height:1.25">DFW</tspan></text>
    <text
       xml:space="preserve"
       style="font-style:normal;font-variant:normal;font-weight:bold;font-stretch:normal;line-height:0%;font-family:Overpass;-inkscape-font-specification:'Overpass, Bold';text-align:start;letter-spacing:0px;word-spacing:0px;writing-mode:lr-tb;text-anchor:start;fill:#d36a6a;fill-opacity:0.49803922;stroke:none;stroke-width:1px;stroke-linecap:butt;stroke-linejoin:miter;stroke-opacity:1"
       x="-875.00244"
       y="1413.025"
       id="text4762"><tspan
         sodipodi:role="line"
         id="tspan4764"
         x="-875.00244"
         y="1413.025"
         style="font-size:45px;line-height:1.25">Dallas/Fort Worth</tspan></text>
    <text
       xml:space="preserve"
       style="font-style:normal;font-variant:normal;font-weight:300;font-stretch:normal;line-height:0%;font-family:Overpass;-inkscape-font-specification:'Overpass, Light';text-align:start;letter-spacing:0px;word-spacing:0px;writing-mode:lr-tb;text-anchor:start;fill:#a95485;fill-opacity:0.49803922;stroke:none;stroke-width:1px;stroke-linecap:butt;stroke-linejoin:miter;stroke-opacity:1"
       x="1132.6986"
       y="1413.025"
       id="text4766"><tspan
         sodipodi:role="line"
         id="tspan4768"
         x="1132.6986"
         y="1413.025"
         style="font-size:125px;line-height:1.25">NRT</tspan></text>
    <text
       xml:space="preserve"
       style="font-style:normal;font-variant:normal;font-weight:bold;font-stretch:normal;line-height:0%;font-family:Overpass;-inkscape-font-specification:'Overpass, Bold';text-align:start;letter-spacing:0px;word-spacing:0px;writing-mode:lr-tb;text-anchor:start;fill:#a95485;fill-opacity:0.49803922;stroke:none;stroke-width:1px;stroke-linecap:butt;stroke-linejoin:miter;stroke-opacity:1"
       x="816.37531"
       y="1413.025"
       id="text4770"><tspan
         sodipodi:role="line"
         id="tspan4774"
         x="816.37531"
         y="1413.025"
         style="font-size:45px;line-height:1.25">Tokyo–Narita</tspan></text>
  </g>
</svg>
