<?xml version="1.0" encoding="UTF-8" standalone="no"?>
<!-- Created with Inkscape (http://www.inkscape.org/) -->

<svg
   xmlns:dc="http://purl.org/dc/elements/1.1/"
   xmlns:cc="http://creativecommons.org/ns#"
   xmlns:rdf="http://www.w3.org/1999/02/22-rdf-syntax-ns#"
   xmlns:svg="http://www.w3.org/2000/svg"
   xmlns="http://www.w3.org/2000/svg"
   xmlns:sodipodi="http://sodipodi.sourceforge.net/DTD/sodipodi-0.dtd"
   xmlns:inkscape="http://www.inkscape.org/namespaces/inkscape"
   width="1775.9689"
   height="540.13501"
   viewBox="0 0 1775.9689 540.13502"
   id="svg4795"
   version="1.1"
   inkscape:version="0.91 r13725"
   sodipodi:docname="MIA D DTW A Comparison.svg"
   inkscape:export-filename="C:\Users\paulb\Desktop\MIA DTW Comparison.png"
   inkscape:export-xdpi="51.889999"
   inkscape:export-ydpi="51.889999">
  <defs
     id="defs4797" />
  <sodipodi:namedview
     id="base"
     pagecolor="#ffffff"
     bordercolor="#666666"
     borderopacity="1.0"
     inkscape:pageopacity="1"
     inkscape:pageshadow="2"
     inkscape:zoom="0.49497475"
     inkscape:cx="917.94341"
     inkscape:cy="67.980319"
     inkscape:document-units="px"
     inkscape:current-layer="layer1"
     showgrid="false"
     showguides="true"
     inkscape:guide-bbox="true"
     inkscape:object-nodes="true"
     units="px"
     fit-margin-top="100"
     fit-margin-left="100"
     fit-margin-right="100"
     fit-margin-bottom="100"
     inkscape:window-width="1920"
     inkscape:window-height="1137"
     inkscape:window-x="1912"
     inkscape:window-y="-8"
     inkscape:window-maximized="1" />
  <metadata
     id="metadata4800">
    <rdf:RDF>
      <cc:Work
         rdf:about="">
        <dc:format>image/svg+xml</dc:format>
        <dc:type
           rdf:resource="http://purl.org/dc/dcmitype/StillImage" />
        <dc:title></dc:title>
      </cc:Work>
    </rdf:RDF>
  </metadata>
  <g
     inkscape:label="Layer 1"
     inkscape:groupmode="layer"
     id="layer1"
     transform="translate(876.53565,-355.38148)">
    <path
       id="path4263-9"
       d="m -553.52584,455.38189 -74.32616,-3e-5 -3e-5,73.85538 -13.20315,-2e-5 4e-5,-46.67377 -47.64647,3e-5 10e-6,-3.83596 -12.51765,5e-5 -4e-5,12.51754 12.51764,5e-5 2e-5,-3.83396 40.37296,-4e-5 0,103.6562 -40.37296,4e-5 -6e-5,-3.83207 -12.51755,6e-5 -2e-5,3.83396 -75.31639,5e-5 0,4.84951 75.31639,6e-5 -2e-5,3.83386 12.51765,5e-5 2e-5,-3.83397 47.64647,7e-5 -3e-5,-4.24419 4.84962,0 -10e-6,-29.09969 7.6953,-5.90612 24.81837,-7e-5 6.61334,5.07614 1.30848,-7.42578 6.68361,-2e-5 3e-5,-3.62504 16.35361,6e-5 -4e-5,6.42964 21.75389,0 3e-5,-6.43155 15.86521,-5e-5 -5e-5,6.42975 34.50389,10e-6 4e-5,-6.42975 57.0508,6e-5 -3e-5,6.43156 34.50389,0 5e-5,-6.42774 81.83403,10e-5 -3e-5,6.43155 34.50188,1e-5 5e-5,-6.42974 26.87309,5e-5 -4e-5,6.42965 17.13672,6e-5 7.75979,16.63673 c -1.47613,0.68839 -2.11251,2.44398 -1.4239,3.91991 0.68831,1.47572 2.44022,2.11364 3.91612,1.42583 l 0.47645,1.02142 c 1.6917,3.62787 5.55858,4.66406 5.55858,4.66406 3.86462,1.03539 5.55885,4.65837 5.56068,4.66215 l 0,0 c 3.61633,7.75525 7.23138,15.51204 10.8476,23.26758 0,0 1.72166,3.6887 5.24804,5.72454 l 10.58206,6.10946 c 0,0 2.38307,1.37667 3.85348,-1.16991 l 1.26763,-2.19533 23.71481,13.69141 -1.26753,2.19534 c -0.81429,1.41084 -0.33114,3.21537 1.08001,4.02928 1.41015,0.81395 3.21273,0.32991 4.02738,-1.08011 l 1.26763,-2.19533 42.43151,24.49799 -1.26752,2.19534 c -0.8142,1.41094 -0.33105,3.21348 1.0801,4.02738 1.41005,0.81385 3.21474,0.33181 4.02928,-1.07811 l 1.26562,-2.19723 16.09571,9.29294 -1.26562,2.19533 c -0.81429,1.41083 -0.33093,3.21528 1.08011,4.02927 1.41015,0.81406 3.212736,0.33192 4.027289,-1.0781 l 1.267614,-2.19724 44.662105,25.78505 -52.042908,90.14076 7.728457,2.06823 50.046773,-86.67964 4.648502,2.68554 -0.304681,0.52929 c -0.814289,1.41084 -0.329044,3.21336 1.082005,4.02736 1.410254,0.81386 3.210838,0.33173 4.025381,-1.07809 l 0.306683,-0.5293 2.080035,1.20121 -12.63282,21.88275 7.439515,4.2949 2.007844,-3.4765 3.26369,1.88674 5.794856,-10.0371 -7.35936,-4.24811 4.832014,-8.37116 6.035213,3.48441 19.845688,-34.37311 59.537115,-34.37494 378.75201,-5e-5 28.62109,3e-5 28.6211,3e-5 -3e-5,20.7891 11.35935,-2e-5 2e-5,-11.8945 14.03712,-6e-5 -1e-5,-2.99991 3.2149,-3.21495 -4.04889,-4.04878 -5.14452,-5.14653 12.65235,-12.65231 5.14651,5.14452 78.72453,-78.72661 -5.14442,-5.14652 12.90428,-12.90222 39.43358,-5e-5 10e-6,-8.14452 25.07613,5e-5 10e-5,8.14443 92.36902,0 1e-5,-8.14443 20.35946,0 -4e-5,-3.32234 9,1e-5 -3e-5,-46.82613 -92.36332,6e-5 7e-5,13.28705 -54.4355,5e-5 -6e-5,-13.28715 -17.16215,-2e-5 c -4.59037,-2.52883 -9.74537,-3.85579 -14.98631,-3.85748 -5.22065,0.012 -10.35516,1.33826 -14.92773,3.85756 l -38.86529,-10e-6 2e-5,10.71478 5.78718,3e-5 3e-5,8.35925 -80.12308,80.12125 -11.66798,11.66785 c 0,0 -3.99403,3.98733 -10.70701,7.6524 l -4.70517,6e-5 5e-5,-6.42974 -34.50389,-1e-5 -4e-5,6.42974 -34.28506,-5e-5 -6e-5,-6.42966 -6.42774,-5e-5 -5e-5,6.42975 -31.92181,-10e-6 5e-5,-6.42975 -34.50389,-1e-5 -4e-5,6.42975 -79.1895,4e-5 5e-5,-6.42974 -34.50409,-2e-5 6e-5,6.42975 -23.04494,0 7e-5,-14.57437 -2.78526,-2.78502 -25.45122,0 -10e-6,-3.80474 -3.12493,2e-5 -4e-4,0.47067 -8.08986,-3e-5 1e-5,3.33405 -4.48234,0 1e-5,17.35935 -33.91808,3e-5 5e-5,-6.42975 -34.50389,-10e-6 -4e-5,6.42975 -44.83977,4e-5 -6e-5,-6.42975 -34.501981,-2e-5 5.5e-5,6.42975 -61.080166,-7e-5 4.1e-5,-6.42965 -34.501879,-10e-6 -5e-5,6.42974 -14.71682,-3e-5 -23.14642,-23.14645 -6e-5,-7.28524 -5.18946,-5e-5 3e-5,-4.28503 -6.3847,0 -9.28523,-9.28518 c 0.027,-0.58408 0.0382,-1.16897 0.0389,-1.75595 -4e-5,-24.43858 -19.81147,-44.25174 -44.25004,-44.25191 -5.55133,0.024 -11.04881,1.09287 -16.205,3.15036 l 7e-5,-4.43749 -34.50589,0 -3e-5,6.43165 -57.77735,10e-6 -7e-5,-6.43166 -34.50579,10e-6 6e-5,6.42975 -66.86535,-1e-5 4e-5,-6.42975 -34.50398,-1e-5 5e-5,6.42975 -16.71679,3e-5 -4e-5,-6.42785 -34.50578,0 4e-5,6.42785 -52.07826,-7e-5 6e-5,-6.42774 -2.54684,0 -2e-5,-55.07817 5e-5,-0.01 z m -87.52934,85.07213 5.91011,2e-5 3e-5,10.45511 -5.91011,-10e-6 -3e-5,-10.45512 z m 439.87707,31.7598 4.9296,10.57237 -10.57425,4.93342 -1.04289,-2.23423 c 0.55995,-0.26111 0.91921,-0.82166 0.9199,-1.43956 -4e-5,-0.87881 -0.71306,-1.59187 -1.59177,-1.59172 -0.23226,4.4e-4 -0.46185,0.0521 -0.67193,0.1503 l -2.54494,-5.46086 10.57628,-4.92972 z"
       style="display:inline;opacity:0.5;fill:#800080;fill-opacity:1;fill-rule:evenodd;stroke:none;stroke-width:0.42400005;stroke-linecap:butt;stroke-linejoin:miter;stroke-miterlimit:4;stroke-dasharray:none;stroke-opacity:1"
       inkscape:connector-curvature="0" />
    <path
       inkscape:connector-curvature="0"
       style="display:inline;opacity:0.5;fill:#ff6600;fill-opacity:1;stroke:none;stroke-width:1.5;stroke-linejoin:miter;stroke-miterlimit:4;stroke-dasharray:none;stroke-dashoffset:0;stroke-opacity:1"
       d="m -681.93897,484.76475 5.3e-4,11.56918 -3.26041,10e-6 3.3e-4,25.84396 3.26036,-1.2e-4 7.9e-4,3.11016 72.32721,9e-5 12.12404,-9.8e-4 51.31464,-4.7e-4 51.12635,-10e-4 90.65391,-5.4e-4 51.12632,-10e-4 90.65381,-4.9e-4 51.12539,4.3e-4 90.65487,-0.001 51.123434,-5.6e-4 9.269043,8.2e-4 9.871406,2.89615 3.74e-4,25.07088 -19.789858,10e-4 4.66e-4,2.25179 -11.664677,4.4e-4 4.94e-4,53.94871 -1.325849,1.7e-4 1.03e-4,8.48318 8.791219,4.7e-4 6.896066,28.33753 -6.2e-5,7.2e-4 0.392386,1.61719 -2.822326,-7.3e-4 0.0011,10.73789 -1.060321,-4.6e-4 2.27e-4,18.82284 235.142365,-0.002 -1e-4,-18.82117 -14.97884,1.7e-4 -1e-4,-21.47173 -5.92964,-0.001 -16.5083,-9.01247 -2.08214,3.8e-4 -2.7e-4,-27.82672 2.83732,-9e-5 2.6e-4,-6.75009 -2.83719,10e-5 -5.1e-4,-43.86318 2.83436,6.9e-4 -3.3e-4,-9.37488 -2.83545,10e-4 -24.755442,3.4e-4 -5.8e-4,-1.87427 16.959202,-2.43535 7.79647,-2.28883 28.7838,-8.44602 9.45647,-10e-4 51.12705,-4.8e-4 90.652,-0.002 51.12635,-10e-4 90.65396,-4.4e-4 51.12629,-10e-4 90.65379,-3.5e-4 0.34149,10e-4 -8.9e-4,4.40724 -4.60943,4.61043 3.2e-4,8.54071 4.61051,4.60938 0,16.80131 -2.3e-4,22.13612 32.07613,-3.8e-4 -3.4e-4,-31.81151 -7.29095,6e-5 6.1e-4,-2.25375 -8.77737,2.1e-4 -4.8e-4,-9.4822 -4.3e-4,-8.54074 -4.61055,-4.60946 9.9e-4,-4.40721 24.65335,-2.7e-4 -10e-5,4.50544 69.45651,2.4e-4 -4.9e-4,-4.5083 29.92346,8.3e-4 72.32722,-1.3e-4 3.2e-4,-3.11167 3.26041,-3.1e-4 -2.5e-4,-25.84195 -3.26041,2e-5 -4.4e-4,-11.56922 -103.58032,3.9e-4 3.3e-4,11.56905 -53.39396,-3e-5 -0.001,-1.73773 -51.12538,-4.3e-4 -9.6e-4,1.73951 -90.65203,10e-4 -0.001,-1.74066 -51.12652,10e-4 -9.6e-4,1.73952 -8.08126,-2.1e-4 -2.4e-4,-6.26561 2.98407,-4e-5 -2e-4,-24.61428 -7.9599,4.2e-4 7.1e-4,24.61539 2.98566,-6.3e-4 4.3e-4,6.26752 -68.86931,10e-4 -3.3e-4,-6.26761 2.98384,-4e-5 2.8e-4,-24.61274 -7.95892,1.3e-4 6.4e-4,24.61542 2.98575,-4.3e-4 4.3e-4,6.26755 -9.72369,-6e-5 -10e-4,-1.74065 -51.12633,10e-4 10e-4,1.74067 -8.02098,2e-4 -4.3e-4,-6.26757 2.9847,-1.3e-4 -7.2e-4,-24.61539 -7.95986,4.2e-4 7.4e-4,24.61548 2.98566,-6.3e-4 5.3e-4,6.26745 -68.86831,8.4e-4 -1.3e-4,-6.26578 2.98565,-6.3e-4 -4.7e-4,-24.61539 -7.95989,4.2e-4 5.7e-4,24.61557 2.98575,-6.3e-4 4.3e-4,6.26751 -9.78575,1e-5 9.6e-4,-1.73947 -51.12823,2e-4 5e-5,1.73896 -7.95807,3e-5 -4.3e-4,-6.26756 2.98584,-5.3e-4 -5.8e-4,-24.61558 -7.95996,7.2e-4 5.8e-4,24.61534 2.98574,-6.2e-4 4.3e-4,6.26754 -68.871085,1.9e-4 -4.11e-4,-6.26743 2.984823,-3e-5 -6.54e-4,-24.61529 -7.959835,5.2e-4 5.19e-4,24.61524 2.987633,4.8e-4 6.5e-5,6.26658 -57.10918,9.6e-4 -3.8e-4,-6.26756 1.075489,5.4e-4 A 24.615362,16.870702 89.999332 0 0 9.0409845,466.25575 l -7.9e-6,-0.80256 -7.212193,10e-4 4.175e-4,24.61359 4.0897811,-2.4e-4 4.674e-4,6.26752 -63.7226606,4.6e-4 -2.5e-5,-6.26651 2.983003,1.6e-4 -7.08e-4,-24.61538 -7.958153,1.3e-4 -1.07e-4,24.61263 2.987664,3.8e-4 3.8e-4,6.26757 -9.913042,9.6e-4 -9.38e-4,-1.74071 -51.123463,5.7e-4 -9.5e-4,1.73974 -7.83284,-3.3e-4 -1.3e-4,-6.26657 2.98306,2.6e-4 -4.1e-4,-24.61442 -7.95993,6.1e-4 4.4e-4,24.6144 2.98757,3.9e-4 5.3e-4,6.26751 -68.87115,2.3e-4 -4.3e-4,-6.26756 2.98291,1.6e-4 -2.7e-4,-24.61438 -7.95882,1.2e-4 4.9e-4,24.61538 2.98579,-6.3e-4 5.3e-4,6.26761 -9.97524,9.4e-4 9.5e-4,-1.73975 -51.12533,-3.4e-4 10e-4,1.74058 -7.77058,-5.1e-4 -4.3e-4,-6.26742 2.98296,6e-5 7.6e-4,-24.61415 -7.95979,4.2e-4 10e-4,24.61357 2.9857,-5.2e-4 5.3e-4,6.2675 -68.87216,8.9e-4 -3.3e-4,-6.26761 2.98572,-5.3e-4 -10e-4,-24.61367 -7.95889,1.2e-4 7e-4,24.61538 2.98571,-5.3e-4 4.3e-4,6.26742 -10.0363,-5.7e-4 -0.001,-1.73806 -51.12542,-2.9e-4 -9.6e-4,1.73956 -90.65213,0.001 -10e-4,-1.74067 -51.12635,10e-4 -9.6e-4,1.73956 -51.31482,5.5e-4 -3.3e-4,-11.56913 -84.45131,8e-4 z"
       id="path5946" />
    <g
       id="g6045"
       transform="translate(0,1.5309853)">
      <text
         sodipodi:linespacing="125%"
         id="text5965-8"
         y="792.45966"
         x="-453.21533"
         style="font-style:normal;font-variant:normal;font-weight:bold;font-stretch:normal;font-size:125px;line-height:125%;font-family:Overpass;-inkscape-font-specification:'Overpass, Bold';text-align:start;letter-spacing:0px;word-spacing:0px;writing-mode:lr-tb;text-anchor:start;opacity:1;fill:#800080;fill-opacity:0.50196078;stroke:none;stroke-width:1px;stroke-linecap:butt;stroke-linejoin:miter;stroke-opacity:1"
         xml:space="preserve"><tspan
           y="792.45966"
           x="-453.21533"
           id="tspan5987"
           sodipodi:role="line">MIA</tspan></text>
      <text
         sodipodi:linespacing="125%"
         id="text5965-8-9"
         y="763.45453"
         x="-779.1333"
         style="font-style:normal;font-variant:normal;font-weight:bold;font-stretch:normal;font-size:40px;line-height:125%;font-family:Overpass;-inkscape-font-specification:'Overpass, Bold';text-align:start;letter-spacing:0px;word-spacing:0px;writing-mode:lr-tb;text-anchor:start;opacity:1;fill:#800080;fill-opacity:0.50196078;stroke:none;stroke-width:1px;stroke-linecap:butt;stroke-linejoin:miter;stroke-opacity:1"
         xml:space="preserve"><tspan
           y="763.45453"
           x="-779.1333"
           id="tspan6007"
           sodipodi:role="line">CONCOURSE D</tspan></text>
    </g>
    <g
       id="g6055"
       transform="translate(0,379.97376)">
      <text
         sodipodi:linespacing="125%"
         id="text5965"
         y="415.54276"
         x="193.38344"
         style="font-style:normal;font-variant:normal;font-weight:bold;font-stretch:normal;font-size:125px;line-height:125%;font-family:Overpass;-inkscape-font-specification:'Overpass, Bold';text-align:start;letter-spacing:0px;word-spacing:0px;writing-mode:lr-tb;text-anchor:start;opacity:1;fill:#ff6600;fill-opacity:0.50196078;stroke:none;stroke-width:1px;stroke-linecap:butt;stroke-linejoin:miter;stroke-opacity:1"
         xml:space="preserve"><tspan
           y="415.54276"
           x="193.38344"
           id="tspan5967"
           sodipodi:role="line">DTW</tspan></text>
      <text
         sodipodi:linespacing="125%"
         id="text5965-8-9-4"
         y="385.77469"
         x="510.68326"
         style="font-style:normal;font-variant:normal;font-weight:bold;font-stretch:normal;font-size:40px;line-height:125%;font-family:Overpass;-inkscape-font-specification:'Overpass, Bold';text-align:start;letter-spacing:0px;word-spacing:0px;writing-mode:lr-tb;text-anchor:start;opacity:1;fill:#ff6600;fill-opacity:0.50196078;stroke:none;stroke-width:1px;stroke-linecap:butt;stroke-linejoin:miter;stroke-opacity:1"
         xml:space="preserve"><tspan
           y="385.77469"
           x="510.68326"
           id="tspan6027"
           sodipodi:role="line">CONCOURSE A</tspan></text>
    </g>
  </g>
</svg>
