<?xml version="1.0" encoding="UTF-8" standalone="no"?>
<!-- Created with Inkscape (http://www.inkscape.org/) -->

<svg
   xmlns:dc="http://purl.org/dc/elements/1.1/"
   xmlns:cc="http://creativecommons.org/ns#"
   xmlns:rdf="http://www.w3.org/1999/02/22-rdf-syntax-ns#"
   xmlns:svg="http://www.w3.org/2000/svg"
   xmlns="http://www.w3.org/2000/svg"
   xmlns:sodipodi="http://sodipodi.sourceforge.net/DTD/sodipodi-0.dtd"
   xmlns:inkscape="http://www.inkscape.org/namespaces/inkscape"
   width="1002"
   height="602"
   viewBox="0 0 1002 602.00001"
   id="svg2"
   version="1.1"
   inkscape:version="0.91 r13725"
   sodipodi:docname="2016 New Airports.svg"
   inkscape:export-filename="C:\Users\paulb\Dropbox\Projects\Terminal Silhouettes\Silhouettes\Misc\2016 New Airports.png"
   inkscape:export-xdpi="89.996498"
   inkscape:export-ydpi="89.996498">
  <defs
     id="defs4" />
  <sodipodi:namedview
     id="base"
     pagecolor="#cccccc"
     bordercolor="#666666"
     borderopacity="1.0"
     inkscape:pageopacity="1"
     inkscape:pageshadow="2"
     inkscape:zoom="1"
     inkscape:cx="513.54203"
     inkscape:cy="278.38026"
     inkscape:document-units="px"
     inkscape:current-layer="layer1"
     showgrid="false"
     units="px"
     inkscape:snap-intersection-paths="true"
     inkscape:object-nodes="true"
     fit-margin-top="0"
     fit-margin-left="0"
     fit-margin-right="0"
     fit-margin-bottom="0"
     inkscape:window-width="1920"
     inkscape:window-height="1137"
     inkscape:window-x="1912"
     inkscape:window-y="-8"
     inkscape:window-maximized="1" />
  <metadata
     id="metadata7">
    <rdf:RDF>
      <cc:Work
         rdf:about="">
        <dc:format>image/svg+xml</dc:format>
        <dc:type
           rdf:resource="http://purl.org/dc/dcmitype/StillImage" />
        <dc:title></dc:title>
      </cc:Work>
    </rdf:RDF>
  </metadata>
  <g
     inkscape:groupmode="layer"
     id="layer3"
     inkscape:label="Labels"
     style="display:inline">
    <g
       id="g4762">
      <text
         sodipodi:linespacing="125%"
         id="text4426"
         y="398.00003"
         x="172.17191"
         style="font-style:normal;font-variant:normal;font-weight:bold;font-stretch:normal;font-size:30px;line-height:125%;font-family:Overpass;-inkscape-font-specification:'Overpass, Bold';text-align:start;letter-spacing:0px;word-spacing:0px;writing-mode:lr-tb;text-anchor:start;fill:#ffffff;fill-opacity:1;stroke:none;stroke-width:1px;stroke-linecap:butt;stroke-linejoin:miter;stroke-opacity:1"
         xml:space="preserve"><tspan
           y="398.00003"
           x="172.17191"
           id="tspan4428"
           sodipodi:role="line">LHR</tspan></text>
      <text
         sodipodi:linespacing="125%"
         id="text4426-2"
         y="397.45068"
         x="771.35889"
         style="font-style:normal;font-variant:normal;font-weight:bold;font-stretch:normal;font-size:30px;line-height:125%;font-family:Overpass;-inkscape-font-specification:'Overpass, Bold';text-align:start;letter-spacing:0px;word-spacing:0px;writing-mode:lr-tb;text-anchor:start;fill:#ffffff;fill-opacity:1;stroke:none;stroke-width:1px;stroke-linecap:butt;stroke-linejoin:miter;stroke-opacity:1"
         xml:space="preserve"><tspan
           y="397.45068"
           x="771.35889"
           id="tspan4456"
           sodipodi:role="line">CDG</tspan></text>
      <text
         sodipodi:linespacing="125%"
         id="text4426-8"
         y="398"
         x="474.34717"
         style="font-style:normal;font-variant:normal;font-weight:bold;font-stretch:normal;font-size:30px;line-height:125%;font-family:Overpass;-inkscape-font-specification:'Overpass, Bold';text-align:start;letter-spacing:0px;word-spacing:0px;writing-mode:lr-tb;text-anchor:start;fill:#ffffff;fill-opacity:1;stroke:none;stroke-width:1px;stroke-linecap:butt;stroke-linejoin:miter;stroke-opacity:1"
         xml:space="preserve"><tspan
           y="398"
           x="474.34717"
           id="tspan4466"
           sodipodi:role="line">KEF</tspan></text>
      <text
         sodipodi:linespacing="125%"
         id="text4426-3"
         y="197.45071"
         x="67.53566"
         style="font-style:normal;font-variant:normal;font-weight:bold;font-stretch:normal;font-size:30px;line-height:125%;font-family:Overpass;-inkscape-font-specification:'Overpass, Bold';text-align:start;letter-spacing:0px;word-spacing:0px;writing-mode:lr-tb;text-anchor:start;fill:#ffffff;fill-opacity:1;stroke:none;stroke-width:1px;stroke-linecap:butt;stroke-linejoin:miter;stroke-opacity:1"
         xml:space="preserve"><tspan
           y="197.45071"
           x="67.53566"
           id="tspan4476"
           sodipodi:role="line">AMA</tspan></text>
      <text
         sodipodi:linespacing="125%"
         id="text4426-1"
         y="197.45071"
         x="276.13794"
         style="font-style:normal;font-variant:normal;font-weight:bold;font-stretch:normal;font-size:30px;line-height:125%;font-family:Overpass;-inkscape-font-specification:'Overpass, Bold';text-align:start;letter-spacing:0px;word-spacing:0px;writing-mode:lr-tb;text-anchor:start;fill:#ffffff;fill-opacity:1;stroke:none;stroke-width:1px;stroke-linecap:butt;stroke-linejoin:miter;stroke-opacity:1"
         xml:space="preserve"><tspan
           y="197.45071"
           x="276.13794"
           id="tspan4486"
           sodipodi:role="line">SAT</tspan></text>
      <text
         sodipodi:linespacing="125%"
         id="text4426-22"
         y="197.45068"
         x="467.7334"
         style="font-style:normal;font-variant:normal;font-weight:bold;font-stretch:normal;font-size:30px;line-height:125%;font-family:Overpass;-inkscape-font-specification:'Overpass, Bold';text-align:start;letter-spacing:0px;word-spacing:0px;writing-mode:lr-tb;text-anchor:start;fill:#ffffff;fill-opacity:1;stroke:none;stroke-width:1px;stroke-linecap:butt;stroke-linejoin:miter;stroke-opacity:1"
         xml:space="preserve"><tspan
           y="197.45068"
           x="467.7334"
           id="tspan4496"
           sodipodi:role="line">MUC</tspan></text>
      <text
         sodipodi:linespacing="125%"
         id="text4426-7"
         y="197.45068"
         x="670.95239"
         style="font-style:normal;font-variant:normal;font-weight:bold;font-stretch:normal;font-size:30px;line-height:125%;font-family:Overpass;-inkscape-font-specification:'Overpass, Bold';text-align:start;letter-spacing:0px;word-spacing:0px;writing-mode:lr-tb;text-anchor:start;fill:#ffffff;fill-opacity:1;stroke:none;stroke-width:1px;stroke-linecap:butt;stroke-linejoin:miter;stroke-opacity:1"
         xml:space="preserve"><tspan
           y="197.45068"
           x="670.95239"
           id="tspan4506"
           sodipodi:role="line">NUE</tspan></text>
      <text
         sodipodi:linespacing="125%"
         id="text4426-82"
         y="198"
         x="875.96216"
         style="font-style:normal;font-variant:normal;font-weight:bold;font-stretch:normal;font-size:30px;line-height:125%;font-family:Overpass;-inkscape-font-specification:'Overpass, Bold';text-align:start;letter-spacing:0px;word-spacing:0px;writing-mode:lr-tb;text-anchor:start;fill:#ffffff;fill-opacity:1;stroke:none;stroke-width:1px;stroke-linecap:butt;stroke-linejoin:miter;stroke-opacity:1"
         xml:space="preserve"><tspan
           y="198"
           x="875.96216"
           id="tspan4516"
           sodipodi:role="line">TXL</tspan></text>
      <text
         sodipodi:linespacing="125%"
         id="text4426-27"
         y="597.45074"
         x="70.567856"
         style="font-style:normal;font-variant:normal;font-weight:bold;font-stretch:normal;font-size:30px;line-height:125%;font-family:Overpass;-inkscape-font-specification:'Overpass, Bold';text-align:start;letter-spacing:0px;word-spacing:0px;writing-mode:lr-tb;text-anchor:start;fill:#ffffff;fill-opacity:1;stroke:none;stroke-width:1px;stroke-linecap:butt;stroke-linejoin:miter;stroke-opacity:1"
         xml:space="preserve"><tspan
           y="597.45074"
           x="70.567856"
           id="tspan4526"
           sodipodi:role="line">ONT</tspan></text>
      <text
         sodipodi:linespacing="125%"
         id="text4426-4"
         y="597.45074"
         x="265.2395"
         style="font-style:normal;font-variant:normal;font-weight:bold;font-stretch:normal;font-size:30px;line-height:125%;font-family:Overpass;-inkscape-font-specification:'Overpass, Bold';text-align:start;letter-spacing:0px;word-spacing:0px;writing-mode:lr-tb;text-anchor:start;fill:#ffffff;fill-opacity:1;stroke:none;stroke-width:1px;stroke-linecap:butt;stroke-linejoin:miter;stroke-opacity:1"
         xml:space="preserve"><tspan
           y="597.45074"
           x="265.2395"
           id="tspan4536"
           sodipodi:role="line">PWM</tspan></text>
      <text
         sodipodi:linespacing="125%"
         id="text4426-77"
         y="597.45074"
         x="469.85376"
         style="font-style:normal;font-variant:normal;font-weight:bold;font-stretch:normal;font-size:30px;line-height:125%;font-family:Overpass;-inkscape-font-specification:'Overpass, Bold';text-align:start;letter-spacing:0px;word-spacing:0px;writing-mode:lr-tb;text-anchor:start;fill:#ffffff;fill-opacity:1;stroke:none;stroke-width:1px;stroke-linecap:butt;stroke-linejoin:miter;stroke-opacity:1"
         xml:space="preserve"><tspan
           y="597.45074"
           x="469.85376"
           id="tspan4546"
           sodipodi:role="line">DSM</tspan></text>
      <text
         sodipodi:linespacing="125%"
         id="text4426-6"
         y="597.45074"
         x="670.50195"
         style="font-style:normal;font-variant:normal;font-weight:bold;font-stretch:normal;font-size:30px;line-height:125%;font-family:Overpass;-inkscape-font-specification:'Overpass, Bold';text-align:start;letter-spacing:0px;word-spacing:0px;writing-mode:lr-tb;text-anchor:start;fill:#ffffff;fill-opacity:1;stroke:none;stroke-width:1px;stroke-linecap:butt;stroke-linejoin:miter;stroke-opacity:1"
         xml:space="preserve"><tspan
           y="597.45074"
           x="670.50195"
           id="tspan4556"
           sodipodi:role="line">BUR</tspan></text>
      <text
         sodipodi:linespacing="125%"
         id="text4426-5"
         y="597.45074"
         x="870.52393"
         style="font-style:normal;font-variant:normal;font-weight:bold;font-stretch:normal;font-size:30px;line-height:125%;font-family:Overpass;-inkscape-font-specification:'Overpass, Bold';text-align:start;letter-spacing:0px;word-spacing:0px;writing-mode:lr-tb;text-anchor:start;fill:#ffffff;fill-opacity:1;stroke:none;stroke-width:1px;stroke-linecap:butt;stroke-linejoin:miter;stroke-opacity:1"
         xml:space="preserve"><tspan
           y="597.45074"
           x="870.52393"
           id="tspan4566"
           sodipodi:role="line">RDU</tspan></text>
    </g>
  </g>
  <g
     inkscape:label="Terminals"
     inkscape:groupmode="layer"
     id="layer1"
     transform="translate(3.0517578e-5,-451.86213)"
     style="display:inline">
    <g
       id="g4706"
       style="fill:#000000;fill-opacity:0.49803922">
      <path
         inkscape:connector-curvature="0"
         id="path4148"
         d="m 100.77195,532.27712 c -11.56612,10.02397 -14.498465,20.45652 -14.498465,20.45652 l 2.453578,0.90394 c -1.506563,4.34751 0.157797,5.7823 0.157797,5.7823 l -1.004375,0.90394 c -1.305687,-0.15784 -1.40608,1.0618 -1.449125,1.04745 -0.186527,0.86089 0.746063,1.37741 0.746063,1.37741 0.774802,0.37305 1.59264,-0.35868 1.59264,-0.35868 l 5.914435,7.22342 -0.730448,0.52753 2.840813,3.44957 16.415727,-14.16342 -2.61758,-3.18575 5.09313,-4.2511 -3.0741,-3.50025 1.80592,-1.50154 0.23335,-7.05126 -1.78566,-0.0304 c -1.50157,-0.52758 -1.84648,0.75077 -1.84648,0.75077 l -7.81224,6.75701 -2.55668,-3.06397 1.7247,-1.40009 -0.32462,-0.38558 0.46672,-0.34494 -1.7451,-9.94284 z m 12.30399,9.72407 -0.0861,4.29009 -2.78353,2.29571 -2.2527,-2.69746 4.14665,-3.54403 c 0,0 0.64565,0.0144 0.97566,-0.34431 z"
         style="fill:#000000;fill-opacity:0.49803922;fill-rule:evenodd;stroke:none;stroke-width:0.375;stroke-linecap:butt;stroke-linejoin:miter;stroke-miterlimit:4;stroke-dasharray:none;stroke-opacity:1" />
      <path
         sodipodi:nodetypes="cccccccccccccccccccccccccccccccccccccccccccccccccccc"
         inkscape:connector-curvature="0"
         id="path4143"
         d="m 289.73551,492.8853 -6.50129,6.83607 -1.09954,-1.09954 -3.39418,3.53745 1.00396,1.14723 -16.11003,16.73153 -0.6215,-0.43016 -2.80541,2.93962 3.44798,3.07604 10.47888,19.26761 0.37175,-0.47324 1.01414,0.9803 1.85912,3.38014 -1.38589,1.45354 14.39991,27.4816 c 2.23097,4.05633 -1.08178,6.72683 -1.08178,6.72683 l -25.25055,25.7576 2.53515,2.63665 62.60173,-64.53223 -1.43413,-1.31472 1.697,-1.80458 1.43413,1.33856 10.89925,-11.23403 -4.20663,-3.91993 -21.4164,22.13329 1.5299,1.52988 -5.73655,5.78422 -1.482,-1.48182 -3.3463,3.44188 -2.24095,-0.006 0.71125,-0.66354 -9.60857,-9.36955 3.01152,-3.15516 -0.0956,-2.96383 -10.03893,-9.65645 -0.38247,0.43035 -8.65247,-8.36577 0.81263,-0.90839 -1.38625,-1.29068 1.19511,-1.09954 -6.16669,-5.73634 10.99482,-11.47305 1.00397,1.05166 3.394,-3.63321 -1.05167,-0.90821 6.54917,-6.93164 z m 14.31415,70.90152 2.2985,0.0338 -2.2139,2.231 -1.23388,-1.18323 z"
         style="fill:#000000;fill-opacity:0.49803922;fill-rule:evenodd;stroke:none;stroke-width:0.375;stroke-linecap:butt;stroke-linejoin:miter;stroke-miterlimit:4;stroke-dasharray:none;stroke-opacity:1" />
      <path
         inkscape:connector-curvature="0"
         transform="translate(-3.0517578e-5,451.86213)"
         id="rect4149-4-3"
         d="m 412.25781,1 0.11133,0.9648438 -5.49414,0.5898437 -0.0293,-0.2539063 -1.06445,0.125 0.3457,2.9941407 1.22461,1.2636719 1.83985,-0.2167969 -0.12696,-1.1035157 -1.84375,0.1933594 -0.0371,-0.328125 L 412.66016,4.5 l 1.62304,14.113281 -5.48047,0.634766 -0.0371,-0.314453 -1.0664,0.107422 0.36133,3.130859 1.21289,1.164063 1.8457,-0.212891 -0.12109,-1.052735 -1.84766,0.195313 -0.0547,-0.46875 5.48047,-0.623047 1.06445,9.253906 -5.47851,0.607422 -0.0234,-0.210937 -1.0664,0.109375 0.37304,3.24414 1.2168,1.1875 1.84766,-0.224609 -0.12891,-1.115234 -1.85156,0.185547 -0.0508,-0.4375 5.4746,-0.619141 0.86524,7.53125 -3.68555,0.416015 -0.0605,-0.361328 -1.4043,0.150391 0.15039,1.720703 1.43555,-0.134766 -0.0312,-0.273437 3.72656,-0.376953 0.0566,0.482422 -5.4668,0.65039 -0.0234,-0.210937 -1.06445,0.128906 0.0352,0.310547 -3,0.345703 0.45312,4.484375 -6.93945,0.824219 0,7.082031 10.50195,-1.1875 -0.0762,-0.513672 6.86328,-0.75 0.64453,5.607422 -5.46289,0.603516 -0.0371,-0.326172 -1.06836,0.115234 0.38282,3.314453 1.1875,0.925782 1.85742,-0.199219 -0.125,-1.076172 -1.85547,0.212891 -0.0469,-0.421875 5.4629,-0.585938 1.07226,9.339844 -5.45508,0.601562 -0.0312,-0.267578 -1.07226,0.07813 0.37109,3.214844 1.2168,1.183594 1.86328,-0.16211 -0.14258,-1.238281 -1.86133,0.179688 -0.0469,-0.410157 5.45703,-0.583984 0.83594,7.439453 -3.69727,0.429688 -0.0312,-0.257813 -1.38867,0.121094 0.18164,1.675781 1.37305,-0.121094 0,-0.195312 3.72265,-0.423828 0.0664,0.576172 -5.45117,0.585937 -0.0274,-0.236328 -1.07031,0.09961 0.38086,3.300782 1.20703,1.089843 1.85938,-0.21875 -0.12891,-1.105468 -1.86133,0.183593 -0.0488,-0.423828 5.44727,-0.599609 0.86328,7.515625 -3.73437,0.408203 -0.0234,-0.197266 -1.32617,0.144532 0.17187,1.484375 1.32617,-0.140625 -0.0195,-0.166016 3.74219,-0.359375 0.0625,0.550781 -5.43945,0.634766 -0.0293,-0.253906 -1.07031,0.09961 0.35937,3.121094 1.20703,1.074218 1.86719,-0.164062 -0.10156,-0.882812 -1.86524,0.185546 -0.0508,-0.445312 5.43946,-0.617188 1.60937,14.001959 -5.43359,0.60547 -0.0293,-0.25586 -1.07226,0.10547 0.36328,3.14062 1.20898,1.0957 1.86328,-0.23828 -0.11719,-1.00781 -1.86523,0.21094 -0.0469,-0.4043 5.43165,-0.61719 1.06445,9.26367 -5.42774,0.59766 -0.0273,-0.23437 -1.07226,0.10351 0.40624,3.51563 1.18946,0.91797 1.86328,-0.26368 -0.13867,-1.19726 -1.86328,0.25586 -0.0449,-0.38867 5.41602,-0.68165 1.06836,9.29297 -5.41797,0.62305 -0.0293,-0.24023 -1.07031,0.11132 0.35938,3.11329 1.20703,1.0664 1.875,-0.18164 -0.11914,-1.03125 -1.87696,0.16602 -0.0547,-0.47071 5.42578,-0.55664 1.06054,9.22852 -5.4082,0.65234 -0.0312,-0.27148 -1.07422,0.10156 0.18946,1.63086 -2.01563,0.21875 0.81445,6.49219 -16.54882,1.87109 0.87695,6.94531 18.43359,-2.0039 -0.80468,-6.9668 -0.65821,0.0625 -0.60351,-5.01172 0.68554,-0.0527 1.20899,1.08789 1.8789,-0.1836 -0.12695,-1.09179 -1.87695,0.18945 -0.041,-0.35742 5.40625,-0.66211 1.90039,16.5293 -5.4082,0.57812 -0.0371,-0.32422 -1.07227,0.1211 0.37305,3.22851 1.22656,1.21875 1.87891,-0.20898 -0.14063,-1.21289 -1.8789,0.20117 -0.0469,-0.41016 5.40235,-0.60937 0.77539,6.7539 -5.4043,0.5625 -0.0371,-0.3164 -1.07226,0.10547 0.37695,3.26953 1.20312,1.00781 1.87696,-0.23242 -0.11524,-1.00195 -1.87695,0.24804 -0.0488,-0.42969 5.39258,-0.65234 1.06836,9.30469 -5.38672,0.64844 -0.0332,-0.28321 -1.07227,0.1211 0.36328,3.15625 1.21289,1.09375 1.88477,-0.20899 -0.12695,-1.08398 -1.88086,0.22265 -0.0508,-0.44336 5.3789,-0.71875 0.87305,7.59961 -3.6543,0.48243 -0.0391,-0.33985 -1.37891,0.17383 0.1836,1.60156 1.38281,-0.15625 -0.0215,-0.1875 3.6543,-0.46875 0.0762,0.65821 -5.375,0.70703 -0.0391,-0.32422 -1.07031,0.13281 0.12695,1.09961 19.04492,0 -0.006,-0.0449 6.28321,-8.08203 -0.35352,-3.01367 -1.88281,-1.52735 -0.35352,-3.03906 1.48243,-1.86719 -0.36524,-3.12109 -7.93945,-6.18555 -2.96094,-25.39258 6.26172,-7.99804 -0.3418,-2.92774 -1.83593,-1.57031 -0.39258,-3.37891 1.46289,-1.57617 -0.34961,-2.98242 -7.94531,-6.50781 -2.98633,-25.609382 6.26758,-7.689453 -0.375,-3.199219 -1.77149,-1.470703 -0.37109,-3.193359 1.41211,-1.576172 -0.39258,-3.345703 -7.89258,-6.310547 -2.97461,-25.503906 6.22852,-7.765625 -0.39063,-3.330078 -1.72851,-1.583985 -0.35743,-3.072265 1.35157,-1.611328 -0.34766,-2.982422 -7.88281,-6.472657 L 424.42578,1 412.25781,1 Z m 149.75977,0 5.84375,50.734375 -4.54688,0.648437 -2.42187,-21.050781 -3.23242,0.332031 4.76367,41.431641 -34.59766,4.167969 4.89063,42.701168 34.64453,-3.91601 4.72851,41.12695 3.2461,-0.36133 -2.40625,-20.90429 4.56054,-0.59375 7.56641,65.68359 14.17383,0 -0.23047,-2 -1.69336,0.14453 0.0273,0.23828 -4.4375,0.50586 -1.13086,-9.80469 4.43555,-0.51367 0.041,0.36524 1.68945,-0.18946 -0.39258,-3.4082 -1.68945,0.19141 0.0449,0.38672 -4.42969,0.5625 -0.93164,-8.06055 6.13086,-0.67578 -0.27734,-2.39258 -1.69336,0.17773 0.0176,0.15039 -4.42774,0.57813 -0.36718,-3.18359 6.11328,-0.82618 -0.29297,-2.54492 -1.69922,0.14844 0.0391,0.33203 -4.43164,0.53906 -0.92383,-8.00195 4.42969,-0.53906 0.0352,0.30664 1.69726,-0.17969 -0.38086,-3.29687 -1.69531,0.18554 0.0332,0.30274 -4.43164,0.53125 -0.94336,-8.17578 6.12891,-0.72461 -0.26563,-2.30274 -1.69531,0.21289 0.0234,0.21094 -4.43359,0.51367 -0.61328,-5.31836 6.13085,-0.70703 -0.28906,-2.51562 -1.70117,0.17968 0.0254,0.21485 -4.43164,0.5332 -0.99805,-8.63672 4.42774,-0.5625 0.0273,0.23828 1.69922,-0.21093 -0.35938,-3.11133 -1.69921,0.21289 0.0234,0.20703 -4.4375,0.45312 -1.06054,-9.17187 4.42773,-0.54688 0.0312,0.27149 1.69336,-0.27149 -0.36719,-3.19921 -1.70312,0.21093 0.0312,0.26953 -4.43555,0.47266 -0.79101,-6.8457 9.4746,-1.11914 -1.02734,-8.1836 -9.40039,1.05078 -0.14648,-1.26562 6.1289,-0.77734 -0.26367,-2.29688 -1.70898,0.17969 0.0371,0.33594 -4.66016,0.48046 c 0,0 0.68372,-2.861252 0.38477,-7.623042 l 3.41406,-0.404297 0.0312,0.277343 1.70703,-0.21289 -0.3711,-3.134766 -1.70312,0.242188 0.0215,0.197265 -3.41992,0.408203 c 0,0 -0.51374,-3.352255 -2.43554,-7.921875 l 4.91992,-0.582031 0.0312,0.273438 1.71679,-0.160157 -0.3789,-3.27539 -1.71485,0.169922 0.0371,0.320312 -4.43164,0.486328 -0.92382,-7.996093 6.14062,-0.726563 -0.26562,-2.300781 -1.7168,0.169922 0.0293,0.257812 -4.42969,0.490234 -0.65039,-5.617187 6.15234,-0.628906 -0.29492,-2.556641 -1.7207,0.15625 0.0469,0.400391 -4.4375,0.417969 -0.97656,-8.44336 4.4375,-0.429687 0.0195,0.173828 1.71875,-0.185547 -0.37695,-3.273438 -1.72071,0.175782 0.0293,0.25 -4.4375,0.423828 -1.26367,-10.931641 6.14648,-0.720703 -0.26758,-2.310547 -1.71875,0.210938 0.0234,0.208984 -4.42969,0.470703 -1,-8.662109 4.42188,-0.53125 0.0352,0.291015 1.72265,-0.189453 -0.36328,-3.138672 -1.72461,0.175782 0.0332,0.291015 -4.42968,0.470703 -0.93555,-8.095703 6.1582,-0.644531 -0.26953,-2.337891 -1.73437,0.126954 0.041,0.357421 -4.43164,0.451172 -0.43554,-3.773437 6.16015,-0.617188 -0.29297,-2.550781 -1.73242,0.1503906 0.0449,0.3867184 -4.42968,0.460938 -0.93165,-8.0644532 4.41407,-0.5957032 0.0312,0.2773438 1.72656,-0.2148438 L 576.16016,1 562.01758,1 Z m -144.6875,44.007812 0.80469,7.013672 -6.88868,0.767578 -0.63476,-5.042968 -0.27149,0.04492 -0.21093,-2.054688 0.64453,-0.06055 0.0488,0.419922 1.20507,1.09375 1.84766,-0.242187 -0.12305,-1.072266 -1.85351,0.195312 -0.041,-0.365234 5.47266,-0.697266 z m 91.4707,33.525391 -1.72266,0.179688 0.0957,0.757812 -21.32422,2.382813 0.60351,4.410156 -4.83203,0.603516 0.48438,5.55664 -1.20899,11.777342 3.80664,10.68945 0.78516,4.83204 4.83008,-0.54297 0.39258,4.16601 25.66992,-2.98828 0.0898,0.54297 3.86524,-0.48242 -0.48242,-4.10742 3.16992,-0.42383 -0.69336,-5.61524 2.80664,-11.173824 -5.375,-10.478515 -0.54297,-6.160157 -3.16992,0.332032 -0.61719,-4.242188 -6.49805,0.726563 -0.13281,-0.742188 z m -34.45117,17.789063 -16.69727,1.921875 0.28125,2.521479 -1.60547,1.9629 0.30665,2.7832 -1.25977,1.38086 -2.37891,0.27734 0.0566,0.57227 2.34961,-0.26953 1.58204,1.18164 0.28124,2.59179 2.00782,1.4961 0.31836,2.84375 16.67382,-1.95899 -0.34179,-3.08789 1.00195,-1.33594 -0.28906,-2.66796 1.12695,-1.62696 2.62891,-0.30078 -0.0859,-0.62109 -2.58203,0.30078 -1.46484,-1.24414 -0.28711,-2.66406 -1.29493,-1.089848 -0.32812,-2.966796 z"
         style="fill:#000000;fill-opacity:0.49803922;stroke:none;stroke-width:2;stroke-linejoin:miter;stroke-miterlimit:4;stroke-dasharray:none;stroke-dashoffset:0;stroke-opacity:1" />
      <path
         sodipodi:nodetypes="cccccccccccccccccccccccccccccccccccccccccccccccccccccccccccccc"
         inkscape:connector-curvature="0"
         id="path4148-3"
         d="m 651.29729,536.86761 -0.3947,3.22423 1.62876,0.2036 -1.04706,8.49282 15.67682,1.89052 0.55261,-4.24641 11.0523,1.39608 -0.31993,2.15229 2.58856,0.34902 0.29085,-2.21046 0.81438,0.0873 -1.57059,12.2157 1.89053,0.23268 -0.29085,1.80327 19.05067,2.26863 0.23268,-1.62876 47.96116,5.75883 0.9598,-8.1438 -1.25065,-0.2036 0.0582,-0.52353 1.25065,0.17452 0.34902,-3.19936 -7.62027,-0.9598 0.0582,-0.5817 7.41668,0.84347 0.46535,-4.42093 -9.13268,-1.10523 0.11633,-1.27974 -4.30458,-0.5817 -0.23267,1.80327 -6.5732,-0.81438 0,-0.69804 1.04705,0.17451 0.5817,-5.46798 -11.15888,-1.40176 -0.2938,2.93804 z m 33.72201,18.43569 15.18237,1.91961 -0.43628,4.10098 -15.24054,-1.91961 z m 53.77816,2.93758 1.62877,0.2036 -0.14542,1.39608 2.1232,0.31994 0.11632,-1.04707 4.4791,0.61079 -0.11635,1.01797 0.11635,0.0291 -0.49445,4.0719 -7.38757,-0.90164 0.0436,-0.36356 0.30538,0.0436 0.53807,-4.49363 -1.2652,-0.18906 z m -19.25428,0.81438 7.91113,0.93072 -0.31993,2.76308 -7.91112,-0.95981 z"
         style="fill:#000000;fill-opacity:0.49803922;fill-rule:evenodd;stroke:none;stroke-width:0.375;stroke-linecap:butt;stroke-linejoin:miter;stroke-miterlimit:4;stroke-dasharray:none;stroke-opacity:1" />
      <path
         inkscape:connector-curvature="0"
         id="path3348"
         d="m 982.00019,488.55767 -21.89082,3.72904 -0.20718,-1.31207 -10.15127,1.65735 0.20717,1.13943 -27.17364,4.4196 0.2417,1.51923 -1.00131,0.13812 1.17395,7.69977 1.13943,-0.17264 1.3466,8.97731 37.84282,-6.14601 0.79415,5.11017 5.07563,-0.82868 -2.07168,5.73167 -3.72905,-1.45018 -5.59355,14.08747 5.7662,2.14075 9.90958,-26.93194 1.17395,-0.20717 7.14732,-19.30122 z m -121.33183,20.9931 -29.90136,4.76488 -10.84183,28.38212 19.26669,23.54818 27.27722,-4.48866 0.82868,-2.41696 0.82867,-0.0691 1.93358,1.93357 -0.69057,2.27886 5.66262,6.69846 -0.41434,0.55245 2.41697,3.03847 -10.35844,27.27722 13.32786,16.15916 4.83393,-0.48339 -12.22295,-15.19238 0.75962,-2.07168 -0.96679,-0.41434 1.86452,-4.97205 1.03584,0.41434 1.17396,-3.3147 -0.82868,-0.75962 3.03848,-7.87241 1.38112,0.6215 1.03585,-2.62414 -1.51924,-0.55245 0.69056,-2.2098 c 0,0 0.69056,0.41434 1.17396,-0.20716 0,0 0.48339,-0.75962 -0.34528,-1.31207 0,0 -0.34528,-0.27623 -0.89773,0.0691 l -3.93621,-4.76488 1.31207,-1.17395 -1.93358,-2.27886 1.03585,-2.83131 -3.38376,-4.00526 7.25091,-19.05952 13.53502,-1.89905 1.24301,-3.45281 -1.1049,-1.5883 5.45545,-0.79414 1.38112,-1.1049 0.20717,0.27622 20.78593,-16.84972 2.76225,-0.41434 -0.13811,-1.03585 -1.51924,0.20717 -0.55245,-3.03847 -3.38375,0.48339 0.69056,3.45281 -19.12858,15.67577 0.6215,-2.00263 -1.17395,-1.45018 -4.48866,0.69056 -0.82867,2.00263 2.14074,2.55509 -3.073,0.48339 -2.90036,-3.59093 0.60424,-1.09626 -0.77689,-0.47476 0.41434,-0.0863 -0.27622,-1.24301 -0.31076,0.10359 -0.37981,-2.00263 -3.83262,0.69056 0.0691,0.44886 -10.22033,1.65735 -15.71029,-19.26669 z m -5.66936,8.74506 0.0243,0.36632 1.63577,1.95327 2.41723,-0.3906 0.24413,-0.17103 10.10784,12.40288 -0.65927,0.61045 -0.92768,2.90522 3.87605,4.55016 -0.82867,2.52055 -4.1779,-4.86846 -0.89773,2.52055 -3.24565,-1.24301 -2.31338,6.07695 3.28017,1.24301 -1.03584,2.38244 6.3877,-0.89773 -0.93226,2.38244 -5.90431,0.72509 -1.31207,3.45281 0.10359,0.27623 -15.74483,2.55508 -0.0691,-0.37981 -1.65735,-2.00263 -2.48602,0.37981 -0.2417,0.41433 -10.11674,-12.49918 0.34528,-0.20717 0.96679,-2.55508 -1.72641,-1.9681 -0.38169,-0.0259 5.76188,-15.13734 0.19557,0.1953 2.68564,-0.34178 0.9765,-2.39269 -0.3175,-0.24412 15.96764,-2.58826 z m 27.31849,10.62522 0.55245,2.52055 -1.76093,0.27623 -0.75962,1.7264 -0.31075,0.0345 -0.44887,1.24301 -0.31075,0 -1.38113,3.48734 -0.89773,-1.17395 -0.41434,0.10358 1.04583,-2.7288 -0.53708,-0.7812 1.22063,-2.53916 -1.12298,-1.2209 5.12527,-0.94763 z"
         style="fill:#000000;fill-opacity:0.49803922;fill-rule:evenodd;stroke:none;stroke-width:0.375;stroke-linecap:butt;stroke-linejoin:miter;stroke-miterlimit:4;stroke-dasharray:none;stroke-opacity:1" />
      <path
         inkscape:connector-curvature="0"
         transform="translate(-3.0517578e-5,451.86213)"
         id="rect4149-4-63"
         d="m 279.20508,204.80859 -6.7832,4.56055 0.6621,0.93555 -0.93359,0.625 2.72852,3.89843 -1.75391,1.20704 0.38867,0.66211 -3.625,2.3789 -3.50781,-5.61328 -2.18359,1.48047 0.85742,1.05273 -1.32617,0.93555 0.66406,0.85742 -0.625,0.46875 -0.58399,-0.81836 -5.14453,3.625 -2.49609,-3.625 -8.92774,6.00196 -1.71484,-2.53321 -5.37891,3.74219 c 0,0 -1.44208,-1.63808 -3.66406,-2.30078 0,0 -2.26162,-0.73926 -3.1582,-0.27149 l -2.02734,-2.80664 c 0,0 -0.50567,-0.74023 -1.36329,-0.74023 l -3.31445,0.0762 -0.0391,-0.54492 -84.39453,0.50781 0.0781,2.80469 -1.44336,1.01562 0.46875,0.66211 -1.91015,1.40235 -0.82032,-1.20703 -2.68945,1.94726 2.61328,3.97657 6.19727,-4.7168 -1.67578,-2.33789 -0.93555,0.62304 -0.23438,-0.27343 2.45508,-1.67578 14.34571,-0.0391 0,6.93946 6.54882,-0.0391 -0.11523,-6.97851 12.94141,-0.15625 0,1.0918 4.36523,0 c 0,0 7.1e-4,0.38955 0.35156,0.81835 l 2.18164,3.23633 -1.48047,1.01367 -3.66406,-4.79492 -0.50781,0.35157 -3.27344,-0.0781 -9.47265,6.4707 0.97461,1.40235 -1.13086,0.89648 5.3789,7.71875 -0.93554,0.70117 2.33984,3.54883 0.97461,-0.66406 1.83203,2.65234 -1.01367,0.74024 3.54687,5.3789 1.01367,-0.70117 6.74415,9.47266 7.44531,-5.30274 0.46875,0.625 1.51953,-1.01367 -0.4668,-0.66211 4.59961,-3.1582 -3.82031,-5.84766 1.36328,-0.81836 -1.55859,-2.22265 -1.28711,0.93554 -1.32422,-1.94726 -0.42969,0.38867 -1.63672,-2.18359 1.75391,-1.2461 1.44336,2.14258 0.31054,-0.23242 c 0,0 0.90228,1.56489 3.10743,1.50976 l 10.79492,-0.0996 c 0.42835,2.38056 2.69093,3.96743 5.06445,3.55079 2.37355,-0.41662 3.96608,-2.6792 3.56445,-5.06446 l 15.94336,-7.77148 4.52344,6.58789 c 0,0 -4.01665,3.46884 -1.67773,7.28906 0,0 2.06756,3.39097 5.45898,2.61133 l -5.06836,3.39258 -0.58398,-0.81836 -4.05469,2.57226 1.36523,2.02735 -0.42968,0.31054 30.60156,44.67383 -1.87109,1.24805 1.05078,1.48047 -1.75391,1.13086 -1.87109,0 0.39062,19.0625 -4.83398,0.0391 -0.0391,2.26172 -9.62891,0.0391 0.23437,47.01172 1.00196,-0.0527 c 0,0 3.91496,0.77148 8.43554,0.77148 l 0.4961,0.0547 -0.10938,2.75586 -7.55273,0.0566 0,3.47265 -1.10352,0 0,5.01563 3.80469,-0.0547 -0.11133,-4.96094 -1.10156,0 0.0547,-2.3164 6.06445,-0.0547 0,0.66211 2.53516,0 0,-0.55078 1.65429,-0.0566 0,0.55273 0.4961,0 0,1.76367 -1.21289,0 0.0547,4.74024 3.69336,0.0566 -0.2207,-4.79688 -1.04687,0 -0.0547,-1.65429 0.99219,0 -0.10938,-4.74024 c 0,0 4.18826,-7.6e-4 8.48828,-0.88281 0,0 4.07926,0.71636 8.82031,0.77148 0,0 2.5368,-0.0548 3.3086,-0.27539 l -0.0156,4.96094 0.16211,0 0.006,2.99414 2.93555,-0.0723 -0.0527,-2.91797 0.15625,-0.0195 -0.0488,-4.94532 1.76367,0 0,1.98438 1.65429,0 -0.0547,-1.92969 3.74804,0.0547 c 0,0 3.36294,0.55299 7.55274,0.27734 l 0.0566,5.01563 9.25976,0 4.35547,4.35547 -0.0547,9.8125 2.97656,2.92187 3.80469,-0.10937 -0.0547,-1.04883 -3.3086,0.11133 -2.42578,-2.20508 0,-6.61524 6.23047,0 -0.16601,-3.0332 -5.56836,0.0566 0.0547,-0.66211 -5.07031,-4.79687 -6.89258,0 0.0566,-3.80274 c 0,0 3.1408,0.0535 6.7793,-0.77343 l 2.53711,-0.55079 -0.0547,-3.25195 5.40235,0 -0.11133,-2.64648 -5.34766,0.10937 c -0.0551,-0.44102 -0.0547,-20.28711 -0.0547,-20.28711 l 5.12696,0.0566 0,-2.37109 -2.42578,-0.0547 0,-8.04883 6.61523,0 0,-0.71679 -7.49609,0 0.10937,8.76562 -1.92969,-0.0566 -0.16601,-9.86719 1.49023,0.0547 0.0547,0.66211 8.82031,-0.0547 -0.0547,-2.8125 -1.21289,0 -0.0547,-1.81836 1.32226,0 -0.0547,-5.07226 -5.95508,0.10937 -0.0547,1.10352 -2.70117,0.10937 0,3.58399 -1.70899,0 0,-4.13477 -2.31445,0.0547 0,-0.38477 -0.49609,0 0,-1.82031 -0.4961,0 -0.0566,-8.54492 8.04883,-0.10937 0,1.21289 -2.31445,0 0.0547,1.21289 1.32226,0 0,0.38476 0.55274,0.66211 0.9375,0 -0.11133,-1.43359 1.76367,-0.10938 5.73437,4.90625 6.06446,-6.78125 4.63086,0 0,1.81836 -0.7168,0 0.0547,3.3086 12.625,0 -0.0566,-3.19727 -1.48828,-1.59961 3.63867,0.0566 -1.32227,1.59766 1.81836,1.54297 -0.9375,1.21289 1.6543,1.43359 1.26758,-1.37695 2.3164,2.14844 1.26758,-1.54297 1.04688,1.04687 26.1875,-28.99609 -1.59961,-1.32422 -0.0547,-0.82617 2.20508,-2.31641 -1.73633,-1.51562 -0.38672,0.4414 -0.68945,-0.63476 7.60937,-8.21289 0,3.74804 -2.8125,0 0,0.38672 -0.33008,0 -0.11132,19.79102 -3.85938,0 0.0566,1.59765 1.76367,0 0,0.44141 1.98438,0 0.0547,22.82422 -3.91407,0.0547 0,1.92968 2.42578,-0.0566 -0.0547,0.44141 4.74023,0 0,20.01172 -7.2207,0.0547 0,1.59961 1.70898,-0.0547 -0.0547,0.66211 5.23633,0 0.10938,16.53711 9.48242,0 -0.27539,-20.50782 0.60742,0 0,-1.98437 3.94922,0.0957 0,-2.0918 -3.94922,-0.043 0,-1.15821 -0.66211,0 0.0547,-17.19922 4.55664,0.041 0,-3.95508 -4.61133,0 0,-21.11523 4.61133,0.15625 0,-3.98633 -4.39062,-0.084 -0.0547,-18.35742 0.66015,0 -0.0547,-1.76562 3.83984,0 0,-1.48828 -3.83984,0 -0.0547,-1.48829 -0.60742,0 -0.10938,-17.31054 0.60547,0 -0.0547,-2.03906 4.06055,0 0,-1.57813 -4.00586,0.0352 -0.0547,-1.59961 -0.66211,0 -0.16406,-13.23047 -8.87695,0.0547 0,18.41406 -0.27539,0 0.0566,1.65234 -6.67188,0.0566 0.0547,1.76368 0.99219,0 0.0566,0.66015 5.5664,-0.0547 0.0566,1.26758 0.33007,0 0.11133,13.39649 -1.1582,-0.10938 0,2.20508 -12.79102,13.83789 2.20508,1.87305 -1.48828,1.54492 -4.35547,-3.69336 c 0,0 -0.47729,-0.48554 -0.82812,-0.0957 0,0 -0.52627,0.50687 0,0.99414 l 4.23046,3.58593 -10,11.22852 -4.2871,-3.74219 c 0,0 -0.46769,-0.39145 -0.89649,0.1543 0,0 -0.4969,0.47053 0.0957,0.98047 l 4.11329,3.5039 -0.93555,1.20704 -1.59766,-1.36329 -5.30078,6.00196 -0.78125,-0.67188 -0.50586,0.60547 -0.42969,-0.32226 -0.41796,0.53515 0.65234,0.55664 -0.01,0.35938 -21.27343,-0.35938 8.14648,-9.23828 -2.57227,-2.30078 -0.74023,-0.85742 -8.88867,5.92578 -4.17188,-0.27344 5.0293,-3.50976 -1.13086,-2.06446 -14.18945,6.97657 2.80664,3.74414 -1.28516,0.93359 -15.4375,-0.0762 c 0,0 0.0775,-1.01544 -1.16992,-2.8086 l -9.97851,-14.42187 1.36328,-1.01367 0.85742,1.28515 0.78125,-0.66211 -1.32617,-1.7539 1.83203,-1.16992 0.74023,1.01367 1.94922,-1.28516 -0.58398,-0.74219 0.97461,-0.62304 -0.74024,-1.05274 2.10352,-1.4414 0.58593,0.77929 3.74219,-2.49414 0.58399,0.85743 1.20898,-0.85743 -0.625,-1.01367 0.85938,-0.58594 -0.97461,-1.4414 -1.4043,0.89648 0.27344,0.50586 -0.46875,0.3125 -1.08985,-1.63672 7.99024,-5.30273 1.40234,2.02734 2.45703,-1.67578 -0.3125,-0.42969 -1.05273,0.74024 -1.0918,-1.59766 8.1875,-5.6914 1.48047,2.14453 2.37891,-1.59766 -1.59961,-1.98828 15.51562,-10.36914 -2.80664,-4.13281 1.01367,-0.74024 -3.85937,-5.26367 -1.5586,1.01367 1.20704,1.79492 -9.04297,6.11914 1.55859,2.06641 -1.98633,1.44141 -2.73047,-3.89844 -1.71484,1.20898 1.24805,1.8711 -5.0293,3.23632 -2.33984,-3.35351 -0.31055,0.27344 -0.35156,-0.54493 -1.16992,0.89649 2.61328,3.85937 -4.48243,3.07813 -1.36523,-1.87109 -1.44336,1.05273 1.24805,1.83203 -5.26172,3.625 -0.89649,-0.89648 -2.73046,-2.06641 -5.57227,-8.06836 -9.58984,0.50586 -0.35157,0.3125 -0.74023,-1.01367 3.97656,-2.68945 1.48047,0.0781 0.11719,-1.87109 -3.74219,-0.23438 -0.0781,0.97461 -0.85743,0.58594 -9.23828,-13.72266 -2.02734,1.4043 -4.56055,-6.66602 -0.46875,0.34961 -0.81836,-1.09179 -2.37695,-0.27149 -0.66406,-1.05273 20.85547,-14.11133 -2.41602,-3.54688 2.2207,-1.52148 3.82032,5.37891 0.81835,-0.58399 -2.57226,-3.625 -0.34961,0.27344 -1.16992,-1.7168 5.61328,-3.625 1.94922,2.88477 1.94922,-1.36328 0.23242,0.23242 1.05273,-0.81836 -0.97461,-1.40234 1.0918,-0.81836 -1.13086,-1.4043 4.79492,-3.39063 1.24805,0.0391 1.55859,-1.28711 0.78125,-0.0391 2.41602,3.08007 1.83203,-1.28711 0.58399,0 0.46874,-0.34961 -1.44335,-1.98828 -1.63672,1.05078 0.66406,0.85938 -0.42969,0.38867 -1.98828,-2.65039 -7.875,-0.0391 -0.58398,-0.74024 -10.64258,0 z m -1.56446,6.30079 1.10352,1.67968 -0.74414,0.52539 -1.13086,-1.68164 0.77148,-0.52343 z m -51.65624,8.57226 2.94921,0.082 c 0.74423,0.0551 1.18555,0.7168 1.18555,0.7168 l 1.44922,2.25976 c -0.4288,0.50677 -0.62305,2.96289 -0.62305,2.96289 -0.11695,2.29994 0.50782,3.85938 0.50781,3.85938 l -15.67773,7.75977 c -1.04328,-1.48552 -2.89038,-2.17261 -4.64648,-1.73047 -1.7561,0.44214 -3.05967,1.92258 -3.28125,3.72656 l -11.35547,0.1543 c -0.99233,-0.0276 -1.35157,-0.7168 -1.35157,-0.7168 l 0.87696,-0.61719 -11.42188,-17.32812 -0.81836,0.58593 c -0.29235,-0.48728 -0.19531,-0.82031 -0.19531,-0.82031 l 42.40235,-0.15039 0,-0.74414 z m -223.9394581,7.07422 -0.3515625,0.50586 3.078125,2.68945 -0.037109,2.73047 -1.2871094,0.0391 0,2.33789 1.4414063,0.0391 0,-1.20899 4.09375,0.0781 0,8.07031 -4.5996094,-0.0781 0,0.23438 -2.9238281,-0.0391 -0.078125,1.4414 2.6894531,0 -0.039063,4.59961 16.2167971,0.19531 -0.117188,-6.90039 16.060547,1.05274 3.587891,5.76953 7.833984,0.0781 3.275391,4.87305 -4.132813,2.65039 1.208985,1.8711 1.949218,-1.28516 6.353516,9.4707 0.429688,-0.34961 1.871093,2.57227 -1.404297,0.97461 0.585938,0.97461 -0.974609,0.54492 0.974609,1.63867 2.103516,-1.28711 5.769531,8.77149 2.417969,-1.63867 2.80664,3.62695 -6.355468,4.36523 2.730468,3.85938 0.935547,-0.66211 0.466797,0.62305 0.896484,-0.74024 -0.429687,-0.50781 4.445312,-3 2.884766,4.13086 -2.496094,1.71484 1.716797,2.76758 0.544922,-0.27149 1.753906,2.6504 -1.402344,1.13086 0.466797,0.81835 -2.689453,1.83204 2.767578,4.13085 1.013672,-0.74023 0.507813,0.62305 1.128906,-0.85742 -0.349609,-0.58399 4.208984,-2.65039 4.054688,5.73047 -2.650391,1.91016 0.623047,0.89648 0.429687,-0.3125 1.792969,2.65039 -1.326172,0.93555 0.585938,0.82031 -2.925782,1.98633 5.38086,7.95312 -4.09375,2.76758 -5.535156,-8.53711 -7.25,5.06836 1.013671,1.40234 -0.857421,0.70118 1.089843,1.67773 0.742188,-0.625 4.013672,5.57617 -0.935547,0.66211 1.052734,1.51953 0.935547,-0.74023 1.988281,3.11914 7.095703,-4.91211 -1.365234,-2.02734 6.431641,-4.20899 1.910156,2.72852 -2.650391,1.94922 0.857422,1.16797 1.558594,-1.05079 0.273437,0.38868 -13.916015,9.78515 4.599609,6.78125 0.3125,-0.19336 0.310547,0.38867 -38.941406,26.3125 -8.769531,-13.38085 2.259765,-1.4336 -7.386719,-10.14258 -2.15039,1.43164 -3.748047,-5.40234 2.369141,-1.43359 -7,-10.19727 -2.316407,1.43359 -3.693359,-5.62304 1.820312,-1.1582 -6.947265,-10.25391 -3.7480472,2.53515 1.8183592,2.64649 -2.3476561,1.51172 6.8144531,10.06445 2.535156,-1.54297 3.638672,5.62305 -2.259765,1.54297 6.669921,10.19922 2.75586,-1.6543 3.804687,5.45898 -2.591797,1.70899 7.44336,10.2539 2.36914,-1.54296 3.583985,5.18164 -2.646485,1.76367 7.111329,10.41992 2.316406,-1.59961 3.583984,5.45899 -2.095703,1.54296 4.960938,7.27735 -0.164063,0.10937 -1.130859,-1.62695 -1.626953,1.18555 2.261718,3.14257 1.570313,-1.21289 -0.605469,-0.85351 0.191406,-0.11133 1.13086,1.59961 -1.011719,0.79883 0.644531,0.83789 1.089844,-0.85742 -0.212891,-0.27149 2.259766,-1.6582 0.974609,1.44336 1.326172,-0.95508 0.330078,0.52539 2.476563,-1.8125 -4.328125,-6.62695 1.169922,-0.93555 -0.740235,-0.97461 -3.78125,2.72852 -8.419922,-13.0586 26.546876,-17.77539 0.195312,0.27344 -1.013672,0.70117 2.494141,3.625 9.980469,-6.70508 0.388671,0.50782 1.13086,-0.70313 1.753906,2.41797 16.294925,-10.79883 0.23437,0.35156 -1.56055,1.0918 0.58594,0.89649 0.34961,-0.27344 3.97656,6.08203 5.61329,3.89844 -1.51954,0.97461 3.15625,4.36523 0.46875,-0.39062 0.81836,1.20898 1.16993,-0.85742 -0.20508,-0.29297 1.375,-0.99414 1.78515,2.78125 -0.27734,0.19336 0.0293,2.75586 -3.41797,0.0547 0,-0.77149 -3.03321,0.0273 0.0273,11.66016 2.23242,0.0273 0,-5.98046 20.15039,-0.0547 -0.0273,5.73242 2.0664,0 0.0566,-5.81641 20.20313,0.0274 -0.0273,5.56836 2.23242,0.0273 0,-5.5957 20.0957,-0.13672 -0.0547,5.87109 2.31446,0.0547 -0.082,-11.57617 -3.00585,0.0273 0,0.66016 -8.95704,-0.0547 0.0274,-1.95703 -2.70117,-0.0273 0.0547,2.01172 -7.30468,-0.0274 0,-0.60547 -2.94922,0.0274 0.0273,0.63281 -8.90234,-0.0273 -0.0293,-1.26758 -1.65234,0 -0.0274,1.32422 -8.71093,0 -0.0274,-0.55274 -3.08789,0 0,0.46875 -4.76758,0.084 0,-0.27735 5.375,-3.85742 -3.85937,-5.81641 8.04883,-5.34765 -0.99219,-1.32422 2.5625,-1.70899 0.79883,1.07618 -0.13672,0.082 0.10937,9.42773 9.42774,-0.11133 -0.0547,-14.08398 -3.91406,2.01172 -1.24024,-1.84766 0.27539,-0.1914 0.13672,0.1914 17.91797,-12.26562 -6.28515,-9.34375 -18.02735,12.29297 -18.9082,-27.34375 1.32226,-0.82618 -1.04687,-1.43359 4.41016,-2.8125 -1.04688,-1.43359 13.72656,-8.875 -0.2207,-0.33008 3.85937,-2.5918 -2.53711,-4.08008 20.67383,-14.27734 -2.15039,-3.30859 -14.77344,9.8125 -9.09765,-13.45118 -5.23047,3.58594 -0.85938,0.0391 -1.36328,-1.75586 -0.89648,-0.11523 -3.11914,-4.25 0.66211,-0.39062 -1.67578,-2.53321 15.39843,-10.68164 -0.3789,-7.90625 -1.40625,-1.81836 -6.56055,0.35742 -0.082,-1.10351 -3.36328,0.16601 0.0273,1.10352 -9.12304,0.46875 -1.95704,2.53516 -2.64648,5.56835 3.55469,6.83594 -0.82617,0.4961 0.82617,1.43359 0.74609,-0.52344 0.6875,1.07422 -14.22265,9.83985 -0.38672,-0.46876 0.74609,-0.57812 -0.66211,-0.96484 -2.86719,2.01172 -0.71679,-1.01954 -1.29493,0.96485 0.22071,3.33593 -17.695315,12.30079 3.117187,4.71679 -1.128906,0.85742 -0.429687,-0.54492 -1.480469,1.13086 4.753906,6.97656 1.638672,-1.08984 -0.273437,-0.42969 0.935547,-0.66211 -0.15625,-0.27343 3.236328,-2.10547 1.052734,1.63867 -4.171875,6.7832 2.417969,3.46875 -1.910156,3.35157 -14.189454,-20.89454 2.337891,-1.4414 -1.248047,-1.98828 19.648438,-12.98047 -9.394532,-4.44531 -12.357422,8.41992 -2.144531,-1.16797 -2.144531,1.40234 -1.832031,-2.72851 1.326172,-0.81836 -0.585938,-0.7793 0.896485,-0.58594 -0.97461,-1.32422 -1.910156,1.0918 -6.587891,-9.58984 -0.427734,0.27343 -1.675781,-2.53515 1.519531,-1.01367 -0.701172,-0.97461 0.779297,-0.54492 -0.935547,-1.28711 -1.871094,1.20898 -3.11914,-4.59961 -0.34961,0.27344 -1.248047,-1.87109 1.365235,-1.05274 -0.585938,-0.7793 -1.402343,1.01172 -0.935547,-1.4414 0.701171,-0.39063 -4.015624,-5.80859 -4.404297,0 -5.341797,-8.10742 -1.910156,1.36523 4.640624,6.82031 -7.408203,0 -15.046875,-1.16797 0,-6.3164 -14.1894529,-0.19336 0.078125,-3.35352 -2.4160156,-2.10547 -0.390625,0.46875 -1.2460937,-1.05273 z m 103.6914081,41.63281 0.38867,0.48633 -1.44141,0.99414 -0.41015,-0.52539 1.46289,-0.95508 z m -31.933596,8.07422 4.960938,2.06836 -2.371094,1.70898 -2.589844,-3.77734 z m 304.585936,10.75 0.66211,0.66211 -1.82031,2.01172 -0.7168,-0.66016 1.875,-2.01367 z m -109.84375,14.33399 4.18946,6.11914 3.19726,-2.03907 2.8125,3.96875 0.49609,-0.33008 2.81055,4.02344 2.53711,-1.98437 4.07813,6.06445 c 0,0 3.19729,3.41766 7.82812,0.77148 0,0 2.04026,-0.71545 2.86719,-4.29882 l 7.11133,0.0547 -2.70118,3.91407 -2.48046,0 0.0547,4.85156 -40.84961,0.2207 -0.49611,-16.9258 0.77148,0 3.91407,-2.86523 0.55078,0.77148 3.30859,-2.3164 z m -119.65625,45.81835 0.0781,1.79297 -1.94922,1.16992 -0.85742,-1.16992 2.72851,-1.79297 z m -34.30469,4.91211 0.74219,0.11719 2.10352,3.58594 -0.31055,0.23437 1.08984,1.5586 -0.3496,0.27344 -5.88672,-3.97657 2.61132,-1.79297 z"
         style="fill:#000000;fill-opacity:0.49803922;stroke:none;stroke-width:2;stroke-linejoin:miter;stroke-miterlimit:4;stroke-dasharray:none;stroke-dashoffset:0;stroke-opacity:1" />
      <path
         inkscape:connector-curvature="0"
         id="path4168"
         d="m 486.95484,731.49294 -2.8309,-2.87254 c 0,0 2.12317,-1.43626 2.08154,-5.59935 l 0.74936,-0.0208 0,-20.94035 12.21867,0.0208 0.0208,-1.81095 4.05902,0 0,1.81095 11.55257,0 0,20.76457 0.82358,0.0589 c 0,0 0.14718,3.70913 1.32468,5.03381 l -2.14826,2.13954 0,4.2484 -12.62936,0 0,14.69366 0.5564,0 0,2.31052 -0.5564,0 0,14.46674 0.5564,0 0,2.33133 -0.5564,0 0,17.73477 9.34052,0 0.29142,11.49013 -0.5412,-0.0833 -0.20816,0.91588 4.66266,0.99914 0.0833,-0.39549 1.62361,0.33305 -0.0624,0.37468 0.58283,0.12489 -1.11262,5.79552 -15.36638,-3.38531 -13.33518,2.67881 -0.87577,-5.52689 5.43995,-1.16891 -0.0897,-0.42808 1.76625,-0.38268 0.0973,0.4296 4.61724,-0.99213 0.0396,-1.07125 -0.14719,0 0,-9.7077 1.36885,0 0,-17.73477 -0.55346,0 0,-2.33133 0.55346,0 0,-14.46674 -0.55346,0 0,-2.31052 0.55346,0 0,-14.69366 -13.39659,0 z"
         style="fill:#000000;fill-opacity:0.49803922;fill-rule:evenodd;stroke:none;stroke-width:0.375;stroke-linecap:butt;stroke-linejoin:miter;stroke-miterlimit:4;stroke-dasharray:none;stroke-opacity:1" />
      <path
         inkscape:connector-curvature="0"
         transform="translate(-3.0517578e-5,451.86213)"
         id="rect4149-4-66"
         d="m 957.16016,201 7.24218,64.13281 -2.27148,0.17774 -0.0762,-0.99805 c -3.92475,0.42328 -8.91016,0.63867 -8.91016,0.63867 -24.48735,0.76183 -51.72265,-1.63281 -51.72265,-1.63281 -5.93138,-0.46253 -12.82032,-2.42969 -12.82032,-2.42969 l 0.008,-1.68359 c -6.70642,-1.3622 -13.26322,-2.31622 -19.63282,-2.93164 0.18917,-2.04245 0.3374,-3.977 0.44922,-5.8086 l 1.04883,0.084 6.33594,-0.44336 c 0,0 0.94746,0.0336 1.09961,-0.75586 0,0 0.14571,-0.81578 -0.56836,-1.125 l -5.07032,-2.23242 5.29493,-1.25586 c 0,0 0.90364,-0.32204 0.79687,-1.02344 0,0 0.13625,-0.61716 -0.8164,-0.87109 l -5.47071,-1.55274 6.09766,-3.8164 c 0,0 0.92319,-0.35358 0.63476,-1.23633 0,0 -0.0661,-0.76615 -1.13671,-0.68555 L 872.25,236.5 l 6.64062,-6.53906 c 0,0 0.76437,-0.79091 0.0234,-1.45703 0,0 -0.58914,-0.61824 -1.40234,-0.15039 l -5.00781,2.97656 7.00781,-8.80274 c 0,0 0.51633,-0.79003 -0.17969,-1.38281 0,0 -0.5638,-0.623 -1.52148,0.18555 l -6.78711,5.90234 1.76758,-11.05078 c 0,0 0.0573,-1.07471 -0.83204,-1.17578 0,0 -1.04236,-0.0378 -1.21679,0.89648 l -1.91211,8.01368 -0.95703,0.24023 c -0.61145,-2.20737 -1.14063,-3.11914 -1.14063,-3.11914 l -2.33984,-0.16211 c -0.65742,0.84943 -1.2547,1.92273 -1.79883,3.16016 l -1.13086,-0.44532 -0.86133,-8.1914 c -0.0523,-0.9489 -1.09179,-1.04688 -1.09179,-1.04688 -0.89487,-0.0145 -0.97461,1.0586 -0.97461,1.0586 l 0.32422,11.1875 -5.96876,-6.73047 c -0.84519,-0.9255 -1.48437,-0.38086 -1.48437,-0.38086 -0.76678,0.49787 -0.35742,1.34765 -0.35742,1.34765 l 5.8125,9.63477 -4.58203,-3.59766 c -0.74597,-0.56898 -1.41016,-0.0332 -1.41016,-0.0332 -0.8208,0.56483 -0.16406,1.44922 -0.16406,1.44922 l 5.74023,7.3418 -5.2539,-1.64258 c -1.0512,-0.21825 -1.21485,0.5332 -1.21485,0.5332 -0.40005,0.83808 0.46875,1.3086 0.46875,1.30859 l 5.55469,4.57032 -5.625,0.83398 c -0.97745,0.12875 -0.92383,0.75781 -0.92383,0.75781 -0.19647,0.68172 0.65821,1.11719 0.65821,1.11719 l 5.08789,1.92969 -5.31641,1.55859 c -0.74805,0.2144 -0.70898,1.04102 -0.70898,1.04102 0.0489,0.8024 0.99414,0.89258 0.99414,0.89258 l 6.2246,1.25781 1.28321,0.0664 c -0.20452,2.56772 -0.31822,4.6061 -0.36719,5.64843 -22.67028,-0.81253 -42.44903,2.44412 -57.41602,6.30664 -0.55795,-1.96315 -1.11544,-3.80893 -1.66992,-5.55273 l 0.95118,-0.27344 5.78124,-2.63086 c 0,0 0.89728,-0.30103 0.76368,-1.09375 0,0 -0.14863,-0.81555 -0.92578,-0.85547 l -5.5293,-0.3164 4.51953,-3.0293 c 0,0 0.73404,-0.6166 0.38867,-1.23633 0,0 -0.089,-0.6266 -1.07031,-0.53125 l -5.66797,0.45899 4.37891,-5.70703 c 0,0 0.74111,-0.65478 0.16211,-1.38086 0,0 -0.32997,-0.69416 -1.30469,-0.24414 l -4.74805,2.78515 3.9336,-8.44726 c 0,0 0.44084,-1.01015 -0.48633,-1.375 0,0 -0.76904,-0.37317 -1.36719,0.34961 l -3.65039,4.54101 3.48633,-10.69922 c 0,0 0.20707,-0.91867 -0.65235,-1.23047 0,0 -0.747,-0.38739 -1.36132,0.70508 l -4.29297,7.9043 -2.21094,-10.9707 c 0,0 -0.32102,-1.02888 -1.18945,-0.8125 0,0 -0.98958,0.32942 -0.82618,1.26562 l 1.00977,8.17578 -0.97266,0.67188 c -1.81695,-2.49675 -2.93945,-3.29688 -2.93945,-3.29688 l -1.30664,0.32617 c -0.30983,1.42405 -0.48476,2.97083 -0.55469,4.59375 l -1.24023,-0.0215 -3.67383,-7.375 c -0.38092,-0.87067 -1.38672,-0.59766 -1.38672,-0.59766 -0.84345,0.29927 -0.54492,1.33399 -0.54492,1.33399 l 4.2168,10.36523 -7.94336,-4.2168 c -1.11553,-0.5714 -1.52344,0.16211 -1.52344,0.16211 -0.54417,0.7346 0.13476,1.38868 0.13476,1.38868 l 8.81641,6.99218 -5.55078,-1.76757 c -0.89787,-0.2721 -1.33398,0.46093 -1.33398,0.46093 -0.57137,0.81625 0.35351,1.41602 0.35351,1.41602 l 7.94531,4.86914 -5.49609,0.30078 c -1.0611,0.16325 -0.95117,0.92383 -0.95117,0.92383 -0.0816,0.92508 0.89648,1.06055 0.89648,1.06055 l 6.80274,2.33984 -4.97852,2.75 c -0.87068,0.46255 -0.59961,1.0332 -0.59961,1.0332 0.0544,0.70742 1.00781,0.81641 1.00781,0.81641 l 5.44141,0.0273 -4.43555,3.31836 c -0.6258,0.46253 -0.29882,1.22461 -0.29882,1.22461 0.32648,0.73462 1.24218,0.49024 1.24218,0.49024 l 6.27149,-1.00196 1.02148,-0.32226 c 0.77195,2.63772 1.41394,4.54894 1.66406,5.27539 -11.6382,3.78013 -18.31445,7.21484 -18.31445,7.21484 l 0.48828,1.09961 a 5.4416285,5.4416285 0 0 0 -3.28906,4.99023 5.4416285,5.4416285 0 0 0 5.44141,5.44141 5.4416285,5.4416285 0 0 0 2.2539,-0.49609 l 0.0723,0.16406 -4.55664,1.54883 -0.25,-0.78906 c -14.35395,4.30837 -27.8833,7.00753 -39.89258,8.66796 l -5.55078,-49.30078 -12.4668,1.46094 3.31445,29.17188 -4.42968,0.45703 2.24609,20 c -20.5711,1.51103 -33.6582,0.01 -33.6582,0.01 l -0.0625,1.01563 -2.11524,-0.0547 4.19922,-11.81055 2.02539,0.83399 0.36133,-0.88477 -0.29883,-0.12695 3.51563,-8.53906 -1.44141,-0.63868 -3.6543,8.50586 -0.375,-0.16015 -0.0742,0.15429 -5.46094,-1.92187 -0.14844,0.42187 -2.34961,-0.71289 0.0937,-0.40234 -1.82422,-0.43359 2.13477,-9.15235 -1.5918,-0.38086 -2.1914,9.14258 -2.13672,-0.50781 -0.11328,0.50586 -2.30469,-0.40039 0.0508,-0.44531 -5.70508,-0.66016 -0.0469,0.43359 -0.20899,-0.0137 0.50781,-9.79492 -1.56445,-0.0957 -0.55859,9.78125 -0.58008,-0.0391 0,-0.47265 -5.71875,0 -0.002,0.52539 -2.30274,0.10156 -0.0547,-0.51562 -2.04492,0.2246 -0.97851,-9.33984 -1.57813,0.1543 0.88477,9.36914 -2.07618,0.22851 0.0625,0.50782 -2.36328,0.36523 -0.10937,-0.47266 -5.64063,1.29688 0.12891,0.55078 -0.30273,0.084 -2.69532,-9.4375 -1.46875,0.4629 2.69336,9.38671 -0.47265,0.13086 -0.15625,-0.45703 -5.47071,1.87696 0.19922,0.55273 -2.20312,0.88672 -0.25586,-0.53711 -1.79688,0.89062 -4.04492,-8.375 -1.5,0.69141 4.0293,8.43359 -1.81836,0.9004 0.21484,0.45312 -2.16015,1.1875 -0.20704,-0.32812 -4.77539,2.99023 6.41602,10.32422 -0.80469,0.53125 -0.60547,-0.97461 c -4.34205,2.8713 -8.80593,4.16529 -12.81445,4.62109 l 0,-1.08398 a 2.7319468,2.7319468 0 0 0 2.11719,-2.6582 2.7319468,2.7319468 0 0 0 -2.73242,-2.73243 2.7319468,2.7319468 0 0 0 -2.52344,1.68946 l -1.27149,-0.28711 1.17969,-4.98047 -1.86328,-0.48047 0,8.3457 0.54297,-2.29297 1.24414,0.26758 a 2.7319468,2.7319468 0 0 0 -0.0391,0.47071 2.7319468,2.7319468 0 0 0 2.73047,2.73046 2.7319468,2.7319468 0 0 0 0.0781,-0.004 l 0,1.07226 c -1.61395,0.15533 -3.14116,0.17113 -4.55664,0.10938 l 0,6.84765 c 12.74722,0.43433 21.63281,-5.63476 21.63281,-5.63476 l -1.05859,-1.70508 0.82031,-0.49219 1.33399,2.14844 5.06836,-3.0332 5.42578,-2.69336 5.77148,-2.03906 5.88672,-1.3086 6.04102,-0.73242 6.00195,-0.0371 6.1582,0.73047 5.84766,1.34766 5.86133,2.11914 0.85156,-2.39454 2.92383,0.1211 -0.0547,0.88476 c 11.91555,0.9396 23.59388,0.74021 34.47266,-0.10351 l 0.49218,4.375 c -10.56547,1.96635 -13.55078,4.58398 -13.55078,4.58398 4.03383,1.30967 9.5652,1.52027 14.2207,1.38867 l 0.54493,4.85743 c -10.8146,1.62718 -22.41719,4.04772 -33.75586,7.63867 l 0.3457,1 -2.61719,0.61523 -1.57617,-2.26953 -5.23437,3.23242 -5.4629,2.69336 -5.69531,2.03907 -5.96289,1.30859 -5.96484,0.69336 -6.19531,0 -6.00196,-0.69336 -5.81054,-1.34766 -6.00196,-2.11523 -0.19336,0.6543 c 0,0 -11.11444,-4.94784 -24.56445,-0.64649 l 0,18.69531 0.86133,-0.54101 2.34765,3.42383 c 0,0 0.65412,0.96247 0.76954,1.96289 l 0.15429,1.03906 c 0,0 3.5e-4,1.07675 1.3086,1.11523 l 4.15625,0.1543 c 0,0 0.73024,-0.0389 1.23046,-0.1543 l 3.84766,-1.11523 c 0,0 0.808,-0.34703 0.76953,-1.07813 l -0.0762,-2.15429 c 0,0 -0.0385,-1.03979 0.38477,-2.11719 l 1.43164,-3.31641 1.91797,0.64649 -0.68946,2.04492 5.63477,1.83398 0.24023,-0.68164 0.9043,0.26172 -2.83789,10.42188 0.78906,0.21875 2.91406,-10.39063 0.50196,0.14453 -0.17383,0.74024 5.75976,1.38867 0.1504,-0.68945 2.22851,0.34765 -0.0918,0.73243 2.77735,0.32617 -1.08789,9.84961 0.89648,0.10742 1.06641,-9.85547 2.38672,0.28125 0.0859,-0.84375 2.29688,0.10742 0.006,0.68555 5.88086,-0.0586 -0.006,-0.59375 0.7832,-0.0371 0.63281,10.77735 0.92383,-0.0586 -0.63672,-10.76172 0.44727,-0.0215 0.0762,0.6836 5.93359,-0.58008 -0.10351,-0.88086 2.18359,-0.36719 0.19727,0.88672 2.72461,-0.59766 2.14062,9.79297 0.97852,-0.21679 -2.14844,-9.78907 2.16211,-0.47461 -0.22266,-0.94336 2.18555,-0.66796 0.34961,0.9707 5.48633,-1.97852 -0.33594,-0.93359 0.84961,-0.35938 4.18945,10.23047 0.81641,-0.38086 -4.17578,-10.20117 0.53515,-0.22656 0.46094,0.94336 5.19727,-2.54492 -0.35938,-0.73633 2.07813,-1.16211 0.46094,0.72656 2.16992,-1.38281 5.33203,8.40625 0.76172,-0.51563 -5.36133,-8.35742 2.29883,-1.46484 -7.43946,-11.75391 1.95899,-0.38086 0.24414,0.73438 c 0,0 12.2457,-4.35094 32.70117,-7.47657 l 0.40234,3.57813 c -8.54163,1.236 -16.32617,3.26563 -16.32617,3.26563 3.46302,14.31385 17.27735,14.35351 17.27735,14.35351 l 5.52148,-0.6582 3.21289,28.28515 12.35156,-1.34765 -3.19922,-28.41016 4.08399,-0.48633 c 24.20277,-3.3476 21.81641,-18.04687 21.81641,-18.04687 -11.19712,0 -23.89454,0.84765 -23.89454,0.84765 l -3.98632,0.0899 -0.39454,-3.50391 c 9.74097,-0.86487 20.63548,-1.30863 32.43165,-0.97265 0,0 4.15614,0.11462 11.35156,0.8457 l 0.0762,-0.76953 1.73242,0.23047 c 0,0 -3.54101,2.27152 -3.54101,6.0039 0,0 -0.0765,3.07789 1.57812,3.96289 l -0.26953,1.76953 c 0,0 1.27299,0.34227 3.63867,0.82032 l -1.76953,12.41992 -3.33789,-0.45508 -0.0918,-0.82422 -32.32226,3.70117 2.23047,18.99024 32.21484,-3.53516 -1.875,-16.92187 12.16016,1.79297 0.16211,-1.63282 8.51562,1.11524 1.58399,-12.26172 c 8.71963,0.71985 19.76499,0.99799 32.44921,-0.0664 l 0.20899,3.08008 -19.59961,2.20508 1.80859,16.58398 8.25977,-0.92578 0.4375,2.49805 c -8.76782,1.34477 -17.80224,3.01338 -26.99219,5.07226 l -1.15234,-5.33398 -0.72852,0.1582 1.1543,5.33985 c -9.17375,2.074 -18.5015,4.53836 -27.875,7.45898 l 0.3125,1.10352 c 0,0 -1.32338,3.8415 1.66015,5.875 l 0.2793,0.98633 c 0,0 3.4999,-1.14059 9.81445,-2.83204 l 1.08985,4.27735 0.82031,-0.20899 -1.0918,-4.28515 c 4.4021,-1.16725 10.05302,-2.56947 16.79102,-4.04102 l 0.88476,4.0918 0.72852,-0.15625 -0.88476,-4.0957 c 5.09487,-1.10343 10.78452,-2.23932 16.98437,-3.33399 l 0.80273,5.23438 0.83594,-0.12696 -0.80273,-5.25195 c 5.30645,-0.92688 10.97594,-1.82288 16.96484,-2.64063 l 0.42383,4.36133 0.8418,-0.082 -0.42578,-4.39062 c 5.44524,-0.73335 11.1451,-1.40234 17.0664,-1.97266 l 0.37305,4.4043 0.84179,-0.0723 -0.37109,-4.41406 c 5.55587,-0.52445 11.30138,-0.96053 17.20703,-1.2832 l 0.16797,4.66015 0.8457,-0.0293 -0.16796,-4.67579 c 5.58195,-0.29388 11.30322,-0.48565 17.14062,-0.55078 l 0,4.32617 0.74609,0 0,-4.33398 c 5.67407,-0.0527 11.45535,0.0138 17.32032,0.2207 l -0.17578,4.30664 0.7539,0.0312 0.17383,-4.31054 c 5.64752,0.21055 11.37069,0.5527 17.15039,1.04297 l -0.26758,4.21875 0.75196,0.0469 0.26562,-4.20117 c 2.21942,0.19308 4.44724,0.40626 6.68164,0.64453 l 0.1211,-1.16797 c 0,0 2.26885,-2.82561 0.61523,-5.90234 l 0.14258,-1.36328 c 0,0 -2.48784,-0.31446 -7.02149,-0.68946 l 0.27735,-4.39257 -0.75,-0.0469 -0.27735,4.37891 c -4.25447,-0.34082 -10.13201,-0.71831 -17.34961,-0.95508 l 0.17188,-4.24219 -0.75195,-0.0312 -0.17188,4.25 c -5.2437,-0.16278 -11.16499,-0.24831 -17.66016,-0.19141 l 0,-5.48828 -0.74609,0 0,5.4961 c -8.19933,0.0851 -17.27711,0.39716 -27.04101,1.07226 l -0.11133,-2.58594 4.55468,-0.50976 -0.0586,-0.5957 -0.4043,0.0351 -0.98046,-9.02343 0.49804,-0.082 -0.0625,-0.62695 -2.26367,0.26758 -0.23047,-1.53906 11.00391,-2.00196 -0.76953,-4.00195 -24.47071,2.75195 -0.46484,-3.13672 c 15.63217,-2.40143 33.05597,-6.94399 51.23437,-14.95117 l -0.71484,-1.68554 c 0,0 2.73657,-2.33232 1.4668,-5.17969 0,0 -1.97868,-4.43887 -6.37696,-5.72071 l -1.92968,-4.28515 c 0,0 -18.27977,8.98472 -45.56055,13.3125 l -1.24414,-10.83985 10.49805,-1.13671 -1.76758,-15.1543 -10.47461,1.08789 -1.30469,-11.37305 c 27.7084,-1.9 47.34766,3.21094 47.34766,3.21094 l 0.90429,-4.51367 c 5.21493,-5.2059 13.48633,-4.10547 13.48633,-4.10547 41.05408,2.99945 63.08008,1.77148 63.08008,1.77148 l -0.0723,-1.08007 2.42773,-0.0742 11.97266,105.98633 0.93359,-0.0762 0.47461,4.17774 -0.93555,0.084 0.0762,0.67188 2.41993,-0.2168 0.21093,1.85352 1.3086,-0.0996 -0.21485,-1.8711 3.31836,-0.29492 0.47852,4.21094 9.02344,-1.07031 -0.36914,-3.23047 4.51562,-0.50782 0.0762,0.69532 1.57227,-0.19532 -0.64063,-5.69921 -1.54687,0.18164 0.46484,4.32422 -4.52344,0.49218 -1.88476,-16.49414 4.45312,-0.50195 0.0762,0.69531 1.57031,-0.19531 -0.75586,-6.67969 -1.54492,0.18164 0.0508,0.47071 -4.48438,0.48828 -1.9414,-16.98242 4.48828,-0.50391 0.0762,0.69531 1.57226,-0.19726 -0.75781,-6.67969 -1.54492,0.18164 0.0508,0.4707 -4.51758,0.49414 -1.93554,-16.93359 4.5,-0.50586 0.0762,0.69531 1.57031,-0.19531 -0.75586,-6.67969 -1.54687,0.17969 0.0527,0.47266 -4.53125,0.49414 -2.20898,-19.31836 5.35937,-0.64649 -0.7832,-6.63281 1.38086,-0.16992 -1.30469,-10.9375 -1.36914,0.17187 -0.75391,-6.375 -5.26562,0.66211 -0.74805,-6.55468 4.51563,-0.50782 0.0762,0.69532 1.57031,-0.19532 -0.75586,-6.67968 -1.54687,0.17968 0.0527,0.47266 -4.54687,0.49609 -1.07422,-9.39453 4.53711,-0.51172 0.0762,0.69532 1.57226,-0.19532 -0.75781,-6.67968 -1.54492,0.17968 0.0508,0.47266 -4.56641,0.49805 -1.37695,-12.03711 4.53321,-0.50977 0.0762,0.69531 1.57226,-0.19531 -0.75781,-6.67969 -1.54492,0.17969 0.0508,0.47266 -4.5625,0.49804 -1.34766,-11.78515 4.58203,-0.51758 0.0762,0.69531 1.57226,-0.19531 -0.75781,-6.67969 -1.54492,0.17969 0.0508,0.47266 -4.61133,0.5039 -0.60547,-5.29492 -9.0039,0 0.37695,3.31836 -3.53711,0.34766 -0.16602,-1.44532 -1.16992,0.10547 -0.16797,-1.47265 1.16993,-0.10743 -0.0859,-0.74609 -3.42578,0 z m 7.46093,4.00586 0.5293,4.66016 -3.5293,0.34765 -0.53515,-4.6582 3.53515,-0.34961 z m 13.8418,1.47852 0.45117,4.14062 -4.58789,0.5 -0.4707,-4.12109 4.60742,-0.51953 z m -13.23437,3.86914 0.5039,4.44336 -3.52344,0.34765 -0.50976,-4.44336 3.5293,-0.34765 z m 0.58203,5.13086 0.52929,4.66015 -3.51562,0.3457 -0.53516,-4.6582 3.52149,-0.34765 z m -105.88867,0.0957 0.74414,7.88672 c 0.0996,0.58903 0.54882,0.78515 0.54882,0.78515 l 1.10938,0.41602 c -0.42857,1.05138 -0.82091,2.20449 -1.18164,3.43164 l -1.375,-0.4375 -0.49024,-12.0625 0.64454,-0.0195 z m 11.46874,0.5918 0.63868,0.10351 -2.04492,11.89649 -1.20508,0.21874 c -0.23162,-1.41689 -0.48407,-2.596 -0.73047,-3.56835 l 0.93945,-0.2168 c 0,0 0.47169,-0.13779 0.64649,-0.70899 l 1.75585,-7.7246 z m -19.04882,4.1582 6.4414,7.40039 c 0.32218,0.3817 0.78907,0.61328 0.78907,0.61328 l 1.375,0.4375 c -0.2984,1.0711 -0.57092,2.19242 -0.82422,3.3418 l -1.49805,-0.38672 -6.83789,-11.0918 0.55469,-0.31445 z m 114.07617,0.50195 0.53711,4.71485 -3.51172,0.3457 -0.54102,-4.71289 3.51563,-0.34766 z m -88.12305,1.02735 0.50977,0.38476 -8.21289,10.11719 -1.28907,0.1582 c -0.12117,-1.26087 -0.26171,-2.40287 -0.41601,-3.42969 l 1.20312,-0.21679 c 0,0 0.49256,-0.16899 0.86133,-0.50586 l 7.34375,-6.50781 z m -89.65625,1.4707 2.2461,11.86133 -1.20118,0.71289 c -0.70327,-1.20645 -1.35598,-2.22148 -1.94531,-3.06641 l 0.96484,-0.64062 c 0,0 0.39348,-0.29243 0.35743,-0.88868 l -1.05664,-7.85156 0.63476,-0.12695 z m 191.75586,0.48633 0.45117,4.13867 -4.53711,0.49609 -0.47265,-4.12109 4.55859,-0.51367 z m -13.36133,2.41992 0.52735,4.6582 -3.50196,0.3457 -0.53515,-4.6582 3.50976,-0.3457 z m -170.57031,0.13476 0.61133,0.1836 -4.15625,12.34765 -1.26563,0.66016 c -0.56122,-1.12417 -1.10153,-2.13227 -1.61718,-3.04297 l 1.19336,-0.70703 c 0,0 0.40125,-0.33079 0.6289,-0.77539 l 4.60547,-8.66602 z m -19.4082,0.54297 3.45508,7.12891 c 0.2993,0.51695 0.78906,0.54492 0.78906,0.54492 l 1.21679,0 c -0.029,1.17858 -0.006,2.39281 0.0625,3.62891 l -1.44335,0.0703 -4.67969,-11.12695 0.59961,-0.2461 z m 74.83398,0.53711 5.72656,4.57617 c 0.71402,0.49895 0.96485,0.44727 0.96485,0.44727 l 1.39062,0.34961 c -0.24685,1.1712 -0.4725,2.36496 -0.67773,3.56836 l -1.4707,-0.25 -6.46094,-8.13477 0.52734,-0.55664 z m 25.93555,1.5293 0.45117,0.62109 -7.45703,7.23047 -1.21484,0.0488 c -0.0578,-1.30542 -0.13563,-2.52634 -0.23243,-3.64648 l 1.16797,-0.13477 c 0,0 0.24313,0.0822 1.01563,-0.32031 l 6.26953,-3.79883 z m 89.81445,2.60156 0.51953,4.56641 -3.49804,0.34375 -0.52344,-4.56446 3.50195,-0.3457 z m -169.12695,1.625 0.63867,0.42383 -4.45508,9.38281 -1.19922,0.50195 c -0.52327,-1.19704 -1.03292,-2.29086 -1.52929,-3.30859 l 1.16015,-0.59375 c 0,0 0.25698,-0.007 0.83985,-0.6543 l 4.54492,-5.75195 z m -26.90039,0.80859 8.625,4.67969 c 0.43532,0.24487 0.95312,0.29883 0.95312,0.29883 l 1.43164,-0.0703 c 0.0772,1.13153 0.19,2.27706 0.33008,3.42578 l -1.46289,0.15625 -10.28516,-8 0.40821,-0.49024 z m 79.50781,0.78516 6.39453,2.00977 1.66602,0.26562 c -0.1915,1.1669 -0.36701,2.3351 -0.52344,3.48828 l -1.41797,-0.13867 -6.35742,-5.2207 0.23828,-0.4043 z m 26.51758,1.56836 0.002,0 0.1836,0.43164 -6.97852,4.35547 -1.13672,-0.0371 c -0.006,-1.25037 -0.0309,-2.43052 -0.0723,-3.54492 l 1.40234,-0.0391 6.59961,-1.16602 z m 90.59961,0.4668 0.5039,4.44336 -3.49023,0.34375 -0.50977,-4.44336 3.4961,-0.34375 z m -167.31445,3.35742 0.32226,0.33984 -5.01367,6.52149 -1.11719,0.375 c -0.45533,-1.16365 -0.90265,-2.24709 -1.34375,-3.27539 l 1.37695,-0.5586 5.7754,-3.40234 z m -27.24219,0.65234 6.96484,2.28516 c 0.84345,0.21765 1.0625,0.082 1.0625,0.082 l 1.33789,-0.15234 c 0.15862,1.20473 0.34198,2.41066 0.55078,3.60156 l -1.31836,0.25 -8.89648,-5.35938 0.29883,-0.70703 z m 83.5,0.28321 1.38867,0.10742 c -0.1629,1.24525 -0.30539,2.46598 -0.43164,3.64258 l -1.54297,-0.16211 -6.18359,-2.33789 0.1914,-0.50977 6.57813,-0.74023 z m 125.22851,0.26367 0.45118,4.14062 -4.54102,0.49414 -0.47266,-4.12109 4.5625,-0.51367 z m -112.70312,0.41015 1.10547,0.0586 6.42773,1.58203 0.12305,0.53125 -6.4336,1.51953 -1.27734,-0.0312 c 0.0367,-1.2798 0.0536,-2.49866 0.0547,-3.66016 z m 99.11328,0.16407 0.5293,4.66015 -3.48243,0.3418 -0.53515,-4.6582 3.48828,-0.34375 z m -112.07617,3.44336 1.32031,0.16601 c -0.13315,1.28995 -0.24571,2.51592 -0.33984,3.64844 l -1.18164,-0.084 -6.27344,-1.32617 0.0469,-0.59179 6.42774,-1.8125 z m 12.88476,0.74609 1.06446,0.008 6.13867,2.625 -0.0293,0.59375 -6.39062,0.50391 -0.94727,-0.0547 c 0.0732,-1.27865 0.12458,-2.4962 0.16406,-3.67383 l 0,-0.002 z m -66.60351,0.80469 0.30078,0.45312 -5.49805,3.67578 -1.19726,0.41407 c -0.42657,-1.20668 -0.84951,-2.34913 -1.26758,-3.43555 l 1.08594,-0.3418 6.57617,-0.76562 z m 166.40234,0.35351 0.53516,4.71485 -3.47656,0.34375 -0.54102,-4.71485 3.48242,-0.34375 z m -185.70508,0.0293 c 0.21518,1.17762 0.44766,2.33952 0.69336,3.4707 l -1.18359,0.31641 -7.78125,-2.66797 0.082,-0.46094 6.69141,-0.35547 1.49804,-0.30273 z m 0.8418,4.13672 c 0.2756,1.23398 0.56106,2.42657 0.84961,3.5625 l -1.2832,0.33203 -6.61329,-0.0273 0,-0.54493 5.9043,-2.99218 1.14258,-0.33008 z m 13.27734,0.31836 6.66993,0.3125 0.17968,0.5664 -5.81054,2.70704 -0.85157,0.26367 c -0.39165,-1.21597 -0.78272,-2.37618 -1.16992,-3.48828 l 0.98242,-0.36133 z m 172.19922,0.91797 0.5293,4.66015 -3.46875,0.3418 -0.53516,-4.6582 3.47461,-0.34375 z m -184.45508,3.00195 c 0.33052,1.27373 0.66071,2.46107 0.97266,3.54492 l -0.93164,0.27344 -6.33984,0.95312 -0.16407,-0.57226 5.38868,-3.94531 1.07421,-0.25391 z m 198.51172,0.61133 0.45118,4.13867 -4.52149,0.49414 -0.4707,-4.12109 4.54101,-0.51172 z m -13.44922,1.73437 0.61524,5.41016 -4.67383,0.50391 -0.47461,-4.16797 1.21289,-0.11133 -0.14844,-1.29102 3.46875,-0.34375 z m -144.38086,16.9668 1.3711,12.3418 -0.56641,0.082 -0.14648,-1.27735 -2.71875,0.34961 1.82422,16.16211 2.75781,-0.32226 -0.1543,-1.34571 0.51367,-0.0684 1.31055,11.80469 c -15.23752,1.45528 -32.5381,1.18131 -50.62891,-2.69531 l -0.76171,4.67969 -1.84961,-0.2168 0.21875,-2.01367 c 0,0 -5.82361,-0.81552 -11.97266,-1.0332 0,0 -13.74413,-0.60716 -32.90625,1.12304 l -0.52734,-4.69531 c 10.81205,-2.02085 13.24611,-4.48242 13.24609,-4.48242 -3.62207,-1.27042 -9.20475,-1.47984 -13.90625,-1.36914 l -0.50586,-4.49805 c 26.02142,-3.70387 44.28516,-10.07617 44.28516,-10.07617 l -0.21094,-0.69531 1.34375,-0.44532 1.31836,2.97461 c 16.89845,-8.0371 33.62322,-12.26852 48.66601,-14.2832 z m 148.99805,23.69922 0.63867,5.62305 -3.41015,0.33593 -0.63867,-5.57226 3.41015,-0.38672 z m 0.7168,6.31055 0.5293,4.66015 -3.40235,0.33399 -0.53515,-4.65821 3.4082,-0.33593 z m 0.60742,5.34765 0.53711,4.71485 -3.39844,0.33593 -0.54101,-4.71484 3.40234,-0.33594 z m 13.81836,1.28321 0.45313,4.13867 -4.50586,0.49218 -0.47266,-4.12109 4.52539,-0.50976 z m -13.20313,4.11914 0.52735,4.66015 -3.38867,0.33399 -0.53516,-4.65821 3.39648,-0.33593 z m 0.60547,5.34765 0.50586,4.44336 -3.38476,0.33399 -0.50977,-4.44336 3.38867,-0.33399 z m 0.58399,5.13086 0.5293,4.66016 -3.37696,0.33203 -0.53515,-4.6582 3.38281,-0.33399 z m 0.60742,5.34766 0.53516,4.71484 -3.36914,0.33399 -0.54297,-4.71485 L 979,331.61719 Z m 13.96484,2.52929 0.45118,4.13868 -4.49414,0.49023 -0.47071,-4.12109 4.51367,-0.50782 z m -13.35156,2.875 0.5293,4.65821 -3.36328,0.33203 -0.53516,-4.6582 3.36914,-0.33204 z m 0.60742,5.34766 0.51758,4.56445 -3.35547,0.33008 -0.52539,-4.56445 3.36328,-0.33008 z m 0.59571,5.25195 0.5039,4.44336 -3.34961,0.33008 -0.50976,-4.44141 3.35547,-0.33203 z m -131.16602,1.52149 0.0957,2.32031 c -0.87997,0.0761 -1.76317,0.15408 -2.65234,0.23633 l -0.33008,-2.23242 2.88672,-0.32422 z m -18.32031,2.05273 0.15039,2.23047 c -0.84995,0.10918 -1.70463,0.22277 -2.56055,0.33789 l -0.35742,-2.25976 2.76758,-0.3086 z m 150.06836,1.55664 0.52929,4.66016 -3.34179,0.33008 -0.53516,-4.66016 3.34766,-0.33008 z m 14.10742,3.91993 0.45117,4.14062 -4.45898,0.48633 -0.47071,-4.1211 4.47852,-0.50585 z m -13.5,1.42773 0.53711,4.71484 -3.33594,0.33008 -0.54297,-4.71484 3.3418,-0.33008 z m 0.61523,5.4043 0.52735,4.6582 -3.32813,0.32812 -0.53515,-4.6582 3.33593,-0.32812 z m 0.60547,5.34765 0.54883,4.82227 -3.32617,0.30273 -0.55078,-4.79687 3.32812,-0.32813 z m 0.64258,5.64063 0.46875,4.13086 -3.32031,0.29883 -0.47656,-4.15626 3.32812,-0.27343 z"
         style="fill:#000000;fill-opacity:0.49803922;stroke:none;stroke-width:2;stroke-linejoin:miter;stroke-miterlimit:4;stroke-dasharray:none;stroke-dashoffset:0;stroke-opacity:1" />
      <path
         inkscape:connector-curvature="0"
         id="path4379"
         d="m 132.51465,493.6099 -44.248831,0.0259 0,6.79334 -30.79893,0.0158 c -1.89591,0.001 -2.30129,-1.43956 -2.30129,-1.43956 -0.70351,-2.02709 -2.1702,-1.86852 -2.1702,-1.86852 l 0,0.40288 -3.21954,0.002 0,-0.40327 c -2.07478,7.5e-4 -2.48745,1.81898 -2.48745,1.81898 -0.74197,1.68631 -2.52946,1.49436 -2.52946,1.49436 l -4.24951,0.002 0.008,3.78946 7.24351,-0.004 -0.012,-0.4279 c 3.98262,2.01516 6.82061,-0.0118 6.82061,-0.0118 l 0.004,0.43554 29.96576,-0.0186 -0.0168,3.03102 21.230671,-0.0179 0,-0.98307 c 5.12638,2.58394 9.3253,-0.004 9.3253,-0.004 l 0,0.97899 17.43647,-0.0148 0,-3.02048 28.97085,-0.0179 -0.10118,-3.77654 -28.86967,0.0149 0,-6.7965 z"
         style="fill:#000000;fill-opacity:0.49803922;fill-rule:evenodd;stroke:none;stroke-width:0.375;stroke-linecap:butt;stroke-linejoin:miter;stroke-miterlimit:4;stroke-dasharray:none;stroke-opacity:1"
         transform="translate(0,452.36216)" />
      <path
         sodipodi:nodetypes="cccccccccccccccccccccccccccccccccccccccccccccccccccccccccc"
         inkscape:connector-curvature="0"
         id="path4154"
         d="m 285.40439,500.54963 57.36108,5.13761 -0.26482,2.38342 0.34427,0.053 -0.0795,0.9004 0.82098,0.10593 -0.1589,1.64192 0.31777,0.10593 -0.18537,2.14508 -0.34428,-0.0265 0,0.21186 -1.6419,-0.1589 -0.23835,2.91308 -3.44272,-0.31779 0.10592,-1.19172 -9.69257,-0.97985 0.14565,-1.69488 -0.59588,-0.053 -0.0265,0.62233 -2.91308,-0.27806 0.0662,-0.56938 -0.99307,-0.0927 c 0,0 -0.4767,-0.0265 -0.42373,-0.55614 l -2.4364,-0.17213 c 0,0 0.0265,0.54289 -0.64882,0.48992 l -0.23535,3.10011 -24.82549,-2.44903 -0.15348,1.2731 -1.19846,-0.18726 0.16137,-1.20329 -16.67745,-1.64523 -0.11257,1.313 -2.58418,-0.29962 0.10821,-1.26875 -4.6184,-0.4556 -0.88536,0.73268 -1.50677,-1.83219 0.91214,-0.71928 -2.24173,-2.75489 -0.88808,0.77757 -1.65377,-2.01091 0.92855,-0.74928 -1.10766,-1.36121 -0.92706,0.76542 -1.59212,-1.93596 0.91738,-0.79793 -1.41503,-1.73896 -1.01686,0.69531 -0.4661,-0.56676 0.95665,-0.77534 -2.04157,-2.50893 4.23273,-3.54995 0.37075,0.4502 7.30917,-5.98504 4.44906,5.11112 8.39496,-5.50836 7.73289,9.66611 z"
         style="display:inline;fill:#000000;fill-opacity:0.49803922;fill-rule:evenodd;stroke:none;stroke-width:0.375;stroke-linecap:butt;stroke-linejoin:miter;stroke-miterlimit:4;stroke-dasharray:none;stroke-opacity:1"
         transform="translate(0,452.36216)" />
      <path
         sodipodi:nodetypes="ccccccccccccccccccccccccccccccccccccccccccccccccccccccccc"
         inkscape:connector-curvature="0"
         id="path4150"
         d="m 485.68848,513.85237 -2.27944,8.83045 1.44944,0.4164 -1.0998,4.36373 -1.48327,-0.3885 -2.08834,8.09012 3.08251,0.87674 0.18718,-0.72533 1.42472,0.38245 1.56738,-6.05582 -1.42486,-0.39969 1.50106,-5.81661 1.43733,0.36859 2.30486,-8.90516 -1.44394,-0.36915 1.45593,-5.64172 1.43684,0.41312 0.40316,-1.55767 11.71971,3.12516 -0.46121,1.70292 4.39921,1.25945 0.26608,-0.24834 5.30389,1.57875 0.70143,-0.0177 0.0158,6.04887 0.48898,2e-5 0,0.79824 -0.90467,0.0177 -0.60312,1.0998 0.19513,16.26644 10.40912,-0.0707 -0.0712,-18.21783 0.50047,-7e-5 -0.0355,-2.30604 0.15965,-0.70955 -0.64856,-3.10403 -0.0889,-22.74123 -0.8058,-1.4e-4 0,-0.79825 -3.79609,0.0178 0.0177,-0.30155 -3.01559,0.0355 0,0.58538 -1.8785,0.0356 0.0488,18.67878 -3.45649,-0.86917 -0.90467,-2.2883 -3.12202,-0.79825 0.0709,-0.26608 -13.19593,-3.56964 -0.0507,0.19579 -0.76701,0.23409 -0.14191,-0.39025 0.39025,-0.12417 -1.18849,-4.27504 -0.19513,0.0355 -1.40136,-5.16198 -1.52553,0.44347 -2.14917,-8.01241 1.56577,-0.4447 -1.80578,-6.66594 -1.56932,0.36515 -1.92507,-7.17694 1.53528,-0.42017 -2.60267,-9.60761 -1.51903,0.3852 0.76464,2.85068 -3.00843,0.84006 2.02471,7.56679 1.39788,-0.39401 1.74842,6.44938 -1.41817,0.40303 1.79431,6.70577 1.43781,-0.41773 2.13474,7.87436 -1.47167,0.39483 1.37459,5.13716 -1.02845,0.30337 0.89057,3.06054 -0.50173,1.75605 -0.84039,-0.22578 -1.5679,5.88276 0.71496,0.22577 -0.79022,2.82222 z"
         style="fill:#000000;fill-opacity:0.49803922;fill-rule:evenodd;stroke:none;stroke-width:0.375;stroke-linecap:butt;stroke-linejoin:miter;stroke-miterlimit:4;stroke-dasharray:none;stroke-opacity:1"
         transform="translate(0,452.36216)" />
      <path
         sodipodi:nodetypes="ccccccccccccccccccccccccccccccccccccccccccccccccccccccccccccccccccccccccccccccccccccccccccccccccccccccccccccccccccccccc"
         inkscape:connector-curvature="0"
         id="path4148-2"
         d="m 684.70092,486.739 0.0179,0.89468 56.6874,0.94837 -0.018,1.48518 1.23468,0.0179 2.11145,2.43355 3.05982,-0.0179 0,-0.64417 8.85743,0.10736 0,1.80727 4.02607,0.0537 0,1.62833 -4.49132,0 0.018,0.5726 -1.4315,-0.0358 -0.018,-0.48314 -1.28835,0 0.018,1.1631 -1.1452,-0.0537 -0.018,-1.23467 -6.78173,-0.0179 0,0.0626 -11.05835,-0.0984 0,-3.02404 -2.64827,-0.0358 -0.0537,3.04194 -9.43,-0.17894 0.018,-2.98826 -2.6125,0 0,2.84511 -15.49598,-0.26841 0.0179,-2.93457 -2.64828,0 -0.0358,2.82721 -6.2986,-0.0358 -0.0716,-2.70195 -0.21472,-0.2863 -17.51798,-0.2863 -0.0179,-0.16105 -2.18304,-0.0537 -0.69785,-0.78732 -2.63039,0 0,-1.4315 -2.88089,-0.0358 0,-2.2904 -0.26841,0 0.0537,-3.02404 1.03783,0 0.91258,-0.91258 -0.33998,-0.33999 -0.5547,0.53682 -1.53887,-0.0358 -0.0179,5.88704 -8.2848,-0.14315 -0.16105,-0.44734 -0.67996,0.19683 0.33998,1.07363 c 0,0 -2.0041,0.2684 -3.16719,1.28835 l -0.89469,0.78732 0.39366,0.46524 -1.84305,1.82516 -0.41156,-0.44734 -0.66207,0.69785 c 0,0 -0.76943,1.12731 -1.23467,2.41566 l -2.04349,-0.70569 -0.59468,1.79669 -1.1261,-0.39223 -0.0633,0.12653 -0.77182,0.0127 -0.59468,-0.35428 0.038,-0.2151 -0.40489,-0.0253 0.0886,-0.32897 -1.25263,-0.34162 -0.12652,0.32897 -0.0253,0.98692 0.78447,0 -0.0253,1.87261 5.51662,0.10122 -0.13919,15.03152 -0.68325,-0.0127 -0.0506,4.15012 -1.20201,0 -0.0633,6.49088 -5.35214,-0.0759 -0.4808,-2.04975 0.0759,-4.49174 4.83336,0.0253 0.0127,-0.80978 1.54365,0.0127 0,-2.29016 -6.88312,-0.10122 0,-0.79713 -1.44242,-0.0127 0.31632,-15.196 -0.18829,-0.0287 -0.003,-3.40506 c 0,0 -0.0243,-2.75349 2.26589,-7.27053 l -1.03753,-1.16406 1.17671,-1.18936 -1.7967,-1.7714 5.71906,-5.52926 1.65752,1.58159 0.13918,-0.12652 -0.70856,-1.46773 3.40361,-1.87261 5.8962,0.10122 0.0127,-0.84773 9.21791,0.10589 0,2.36197 2.50512,0.0716 0.0179,0.89468 2.63039,0 1.73569,-1.55675 2.20093,2.2904 0,2.8451 1.62833,0 3.38192,3.56086 z"
         style="fill:#000000;fill-opacity:0.49803922;fill-rule:evenodd;stroke:none;stroke-width:0.375;stroke-linecap:butt;stroke-linejoin:miter;stroke-miterlimit:4;stroke-dasharray:none;stroke-opacity:1"
         transform="translate(0,452.36216)" />
      <path
         inkscape:connector-curvature="0"
         id="path4148-4"
         d="m 911.54626,406.54492 -41.1568,40.95068 -0.43032,-0.43049 -1.42488,1.38036 0.48267,0.4157 -9.83188,9.78266 -0.60269,-0.58042 -3.07239,3.11692 0.5839,0.53938 -47.57433,47.33604 5.86928,5.95833 40.18607,-40.18607 11.39904,11.66621 -1.64752,1.69204 3.51767,3.51767 0.57886,-0.4898 1.38035,1.33583 8.66095,-8.57085 3.45053,3.71735 1.7811,-1.55846 -0.84602,-0.89055 1.38035,-1.46941 -2.72191,-2.8115 14.05469,-13.90841 -1.62578,-1.44731 -0.75697,0.75697 -0.93508,-0.93508 3.60673,-3.60673 -9.12814,-9.26172 -2.53806,2.40449 -4.87577,-4.87577 38.09328,-38.09327 -5.85693,-5.45479 z m 78.46702,80.53946 -10.97759,10.80888 -1.2913,-1.15772 -0.84602,0.84602 -0.44528,-0.4898 2.04827,-1.95921 -0.84602,-7.30251 -7.9259,0.89055 1.24677,10.82018 -0.13358,1.11319 -0.44528,0.84602 -10.59754,10.41944 0.44527,0.35622 -0.71244,0.66791 0.17811,0.8015 -9.48435,2.04826 -6.1448,6.1448 -2.04826,-2.04827 -30.81303,30.23417 3.97877,4.04557 -2.27178,2.22551 0.51938,0.4971 -6.49754,6.90542 -6.29107,6.33247 -1.48245,-1.57167 -3.42862,3.36182 1.59377,1.54905 -1.16537,1.17303 -0.93891,-0.9175 -1.09092,1.06865 0.95369,0.93212 -1.18728,1.19513 -0.96935,-0.94883 -16.75973,16.41778 0.61973,0.61225 -0.44736,0.4251 0.93508,0.93507 0.43066,-0.45292 0.54894,0.54197 29.38816,-29.32135 6.79044,-7.32477 0.46754,0.40074 0.89055,-0.93507 0.17811,0.13358 1.22451,-1.24677 0.55659,0.4898 -1.26903,1.17998 0.86828,0.93508 3.42862,-3.27277 0.51207,0.4898 0.86828,-0.86829 -0.46754,-0.4898 2.00374,-1.89242 1.17998,1.15772 6.54554,-6.45649 -0.51206,-0.46754 0.69017,-0.62338 -0.71244,-0.75697 13.40278,-13.42504 0.17811,0.22263 9.7964,-9.93885 10.53196,-4.2348 0.0471,0.53519 1.54281,1.55846 0.44092,-0.40927 0.0786,0.0788 1.07058,-1.10206 c 0.26762,-0.33059 0,-0.59816 0,-0.59816 -0.37783,-0.34634 -0.69279,0.0786 -0.69279,0.0786 l -0.62964,0.62982 -0.15742,-0.25203 17.28572,-17.06517 -0.59834,-0.62964 10.2836,-10.41022 -1.34836,-1.37462 0.87264,-0.8568 c 0.40932,-0.40932 -0.0158,-0.86585 -0.0158,-0.86585 -0.34635,-0.36209 -0.92882,-0.0157 -0.92882,-0.0157 l -0.84011,0.80845 -1.20816,-1.23163 z m -31.15342,27.73697 0.12592,0.69262 3.306,-0.62964 1.70022,1.57428 -0.22037,0.25186 0.063,0.18889 -1.32243,0.47241 -0.56669,-1.57428 -5.06918,2.14097 0.53521,1.5428 -5.82475,2.36135 -0.12594,-0.0944 2.14098,-2.14097 -2.51893,-2.39284 -1.95209,1.88912 -0.25186,-0.15742 -1.03909,1.00744 2.36153,2.5819 -0.28334,0.063 -2.20411,-2.2356 -1.60578,1.51132 -0.47223,-0.40927 4.97473,-4.88027 8.24924,-1.7632 z"
         style="display:inline;fill:#000000;fill-opacity:0.49803922;fill-rule:evenodd;stroke:none;stroke-width:0.375;stroke-linecap:butt;stroke-linejoin:miter;stroke-miterlimit:4;stroke-dasharray:none;stroke-opacity:1"
         transform="translate(0,452.36216)" />
    </g>
  </g>
  <g
     inkscape:groupmode="layer"
     id="layer2"
     inkscape:label="Grid"
     transform="translate(3.0517578e-5,0.50003052)"
     style="display:inline">
    <g
       id="g4691">
      <rect
         y="0.5"
         x="1"
         height="200"
         width="200"
         id="rect4149"
         style="fill:none;fill-opacity:1;stroke:#ffffff;stroke-width:2;stroke-linejoin:miter;stroke-miterlimit:4;stroke-dasharray:none;stroke-dashoffset:0;stroke-opacity:1" />
      <rect
         y="0.5"
         x="201"
         height="200"
         width="200"
         id="rect4149-4"
         style="fill:none;fill-opacity:1;stroke:#ffffff;stroke-width:2;stroke-linejoin:miter;stroke-miterlimit:4;stroke-dasharray:none;stroke-dashoffset:0;stroke-opacity:1" />
      <rect
         y="0.49996948"
         x="601"
         height="200"
         width="200"
         id="rect4149-4-9"
         style="fill:none;fill-opacity:1;stroke:#ffffff;stroke-width:2;stroke-linejoin:miter;stroke-miterlimit:4;stroke-dasharray:none;stroke-dashoffset:0;stroke-opacity:1" />
      <rect
         y="0.49996948"
         x="801"
         height="200"
         width="200"
         id="rect4149-4-1"
         style="fill:none;fill-opacity:1;stroke:#ffffff;stroke-width:2;stroke-linejoin:miter;stroke-miterlimit:4;stroke-dasharray:none;stroke-dashoffset:0;stroke-opacity:1" />
      <rect
         y="200.49997"
         x="401"
         height="200"
         width="200"
         id="rect4149-4-6"
         style="fill:none;fill-opacity:1;stroke:#ffffff;stroke-width:2;stroke-linejoin:miter;stroke-miterlimit:4;stroke-dasharray:none;stroke-dashoffset:0;stroke-opacity:1" />
      <rect
         y="400.5"
         x="401"
         height="200"
         width="200"
         id="rect4149-4-14"
         style="fill:none;fill-opacity:1;stroke:#ffffff;stroke-width:2;stroke-linejoin:miter;stroke-miterlimit:4;stroke-dasharray:none;stroke-dashoffset:0;stroke-opacity:1" />
      <rect
         y="400.5"
         x="200.99997"
         height="200"
         width="200"
         id="rect4149-4-149"
         style="fill:none;fill-opacity:1;stroke:#ffffff;stroke-width:2;stroke-linejoin:miter;stroke-miterlimit:4;stroke-dasharray:none;stroke-dashoffset:0;stroke-opacity:1" />
      <rect
         y="400.5"
         x="0.99996948"
         height="200"
         width="200"
         id="rect4149-4-2"
         style="fill:none;fill-opacity:1;stroke:#ffffff;stroke-width:2;stroke-linejoin:miter;stroke-miterlimit:4;stroke-dasharray:none;stroke-dashoffset:0;stroke-opacity:1" />
      <rect
         y="400.5"
         x="601"
         height="200"
         width="200"
         id="rect4149-4-31"
         style="fill:none;fill-opacity:1;stroke:#ffffff;stroke-width:2;stroke-linejoin:miter;stroke-miterlimit:4;stroke-dasharray:none;stroke-dashoffset:0;stroke-opacity:1" />
      <rect
         y="400.5"
         x="801"
         height="200"
         width="200"
         id="rect4149-4-8"
         style="fill:none;fill-opacity:1;stroke:#ffffff;stroke-width:2;stroke-linejoin:miter;stroke-miterlimit:4;stroke-dasharray:none;stroke-dashoffset:0;stroke-opacity:1" />
      <rect
         y="0.49996948"
         x="401"
         height="200"
         width="200"
         id="rect4149-4-9-2"
         style="fill:none;fill-opacity:1;stroke:#ffffff;stroke-width:2;stroke-linejoin:miter;stroke-miterlimit:4;stroke-dasharray:none;stroke-dashoffset:0;stroke-opacity:1" />
      <rect
         y="200.5"
         x="1.0000153"
         height="200"
         width="400"
         id="rect4149-4-66-7"
         style="fill:none;fill-opacity:1;stroke:#ffffff;stroke-width:2;stroke-linejoin:miter;stroke-miterlimit:4;stroke-dasharray:none;stroke-dashoffset:0;stroke-opacity:1" />
      <rect
         y="200.49997"
         x="601"
         height="200"
         width="400"
         id="rect4149-4-66-7-2"
         style="fill:none;fill-opacity:1;stroke:#ffffff;stroke-width:2;stroke-linejoin:miter;stroke-miterlimit:4;stroke-dasharray:none;stroke-dashoffset:0;stroke-opacity:1" />
    </g>
  </g>
</svg>
