<?xml version="1.0" encoding="UTF-8" standalone="no"?>
<!-- Created with Inkscape (http://www.inkscape.org/) -->

<svg
   xmlns:dc="http://purl.org/dc/elements/1.1/"
   xmlns:cc="http://creativecommons.org/ns#"
   xmlns:rdf="http://www.w3.org/1999/02/22-rdf-syntax-ns#"
   xmlns:svg="http://www.w3.org/2000/svg"
   xmlns="http://www.w3.org/2000/svg"
   xmlns:sodipodi="http://sodipodi.sourceforge.net/DTD/sodipodi-0.dtd"
   xmlns:inkscape="http://www.inkscape.org/namespaces/inkscape"
   sodipodi:docname="2018 New Airports.svg"
   inkscape:version="0.92.4 (5da689c313, 2019-01-14)"
   version="1.1"
   id="svg2"
   viewBox="0 0 1002.0001 602.00002"
   height="602"
   width="1002.0001"
   inkscape:export-filename="C:\Users\paulb\Dropbox\Projects\Terminal Silhouettes\Silhouettes\Misc\New Airports\2018 New Airports.png"
   inkscape:export-xdpi="90"
   inkscape:export-ydpi="90">
  <title
     id="title5523">2018 New Airports</title>
  <defs
     id="defs4" />
  <sodipodi:namedview
     inkscape:snap-intersection-paths="true"
     inkscape:snap-grids="true"
     inkscape:snap-object-midpoints="false"
     inkscape:window-maximized="1"
     inkscape:window-y="-8"
     inkscape:window-x="1912"
     inkscape:window-height="1137"
     inkscape:window-width="1920"
     fit-margin-bottom="0"
     fit-margin-right="0"
     fit-margin-left="0"
     fit-margin-top="0"
     inkscape:object-nodes="true"
     units="px"
     showgrid="false"
     inkscape:current-layer="layer3"
     inkscape:document-units="px"
     inkscape:cy="325.20903"
     inkscape:cx="353.00716"
     inkscape:zoom="1"
     inkscape:pageshadow="2"
     inkscape:pageopacity="1"
     borderopacity="1.0"
     bordercolor="#666666"
     pagecolor="#cccccc"
     id="base">
    <inkscape:grid
       type="xygrid"
       id="grid4229"
       spacingx="200"
       spacingy="200"
       originx="1401"
       originy="1801" />
  </sodipodi:namedview>
  <metadata
     id="metadata7">
    <rdf:RDF>
      <cc:Work
         rdf:about="">
        <dc:format>image/svg+xml</dc:format>
        <dc:type
           rdf:resource="http://purl.org/dc/dcmitype/StillImage" />
        <dc:title>2018 New Airports</dc:title>
        <dc:date>24 Dec 2018</dc:date>
        <dc:creator>
          <cc:Agent>
            <dc:title>Paul Bogard</dc:title>
          </cc:Agent>
        </dc:creator>
        <dc:description>Terminal silhouettes of SYD, PER, MEL, CHC, DUD, AKL, LBB, PVD</dc:description>
      </cc:Work>
    </rdf:RDF>
  </metadata>
  <g
     inkscape:groupmode="layer"
     id="layer3"
     inkscape:label="Labels"
     transform="translate(1400.9999,-1600.9999)"
     style="display:inline">
    <g
       transform="translate(372.4286,-97.07647)"
       style="font-style:normal;font-variant:normal;font-weight:bold;font-stretch:normal;font-size:30px;line-height:125%;font-family:Overpass;-inkscape-font-specification:'Overpass, Bold';text-align:center;letter-spacing:0px;word-spacing:0px;writing-mode:lr-tb;text-anchor:middle;display:inline;fill:#ffffff;fill-opacity:1;stroke:none;stroke-width:1px;stroke-linecap:butt;stroke-linejoin:miter;stroke-opacity:1"
       id="text4285">
      <path
         d="m -1303.0291,2274.7043 7.0899,0 q 1.831,0 3.2959,0.4249 1.4648,0.4101 2.5928,1.1425 1.1425,0.7325 1.9482,1.7432 0.8057,0.9961 1.3184,2.168 0.5273,1.1572 0.7617,2.4463 0.249,1.289 0.249,2.5781 0,1.2011 -0.2344,2.4609 -0.2197,1.2451 -0.7177,2.417 -0.4981,1.1572 -1.3038,2.1826 -0.791,1.0254 -1.9482,1.8018 -1.1426,0.7617 -2.6514,1.2012 -1.5088,0.4394 -3.4423,0.4394 l -6.9581,0 0,-21.0059 z m 7.4415,17.168 q 1.5673,0 2.6367,-0.6006 1.0693,-0.6152 1.7285,-1.5674 0.6592,-0.9668 0.9521,-2.1533 0.293,-1.1865 0.293,-2.3437 0,-1.2305 -0.3076,-2.417 -0.3076,-1.2012 -0.9522,-2.1387 -0.6298,-0.9375 -1.6406,-1.5088 -0.9961,-0.5859 -2.373,-0.5859 l -3.7207,0 0,13.3154 3.3838,0 z"
         id="path5575"
         inkscape:connector-curvature="0" />
      <path
         d="m -1272.7947,2296.0764 q -1.0693,0 -2.124,-0.1904 -1.04,-0.1758 -1.9775,-0.586 -0.9375,-0.4101 -1.7432,-1.0546 -0.791,-0.6592 -1.377,-1.5967 -0.5859,-0.9375 -0.9228,-2.168 -0.3223,-1.2305 -0.3223,-2.8125 l 0,-12.9639 4.0576,0 0,12.9639 q 0,1.3037 0.293,2.1826 0.3076,0.8643 0.8789,1.377 0.5713,0.5127 1.3916,0.7324 0.8203,0.2051 1.8457,0.2051 1.0108,0 1.8164,-0.2051 0.8203,-0.2197 1.3916,-0.7324 0.586,-0.5127 0.8936,-1.377 0.3076,-0.8789 0.3076,-2.1826 l 0,-12.9639 4.043,0 0,12.9639 q 0,2.3438 -0.7032,3.9551 -0.7031,1.5967 -1.8896,2.5928 -1.1719,0.9814 -2.6953,1.4209 -1.5235,0.4394 -3.1641,0.4394 z"
         id="path5577"
         inkscape:connector-curvature="0" />
      <path
         d="m -1259.0837,2274.7043 7.0898,0 q 1.8311,0 3.2959,0.4249 1.4648,0.4101 2.5928,1.1425 1.1426,0.7325 1.9482,1.7432 0.8057,0.9961 1.3184,2.168 0.5273,1.1572 0.7617,2.4463 0.249,1.289 0.249,2.5781 0,1.2011 -0.2344,2.4609 -0.2197,1.2451 -0.7177,2.417 -0.4981,1.1572 -1.3037,2.1826 -0.7911,1.0254 -1.9483,1.8018 -1.1426,0.7617 -2.6513,1.2012 -1.5088,0.4394 -3.4424,0.4394 l -6.958,0 0,-21.0059 z m 7.4414,17.168 q 1.5673,0 2.6367,-0.6006 1.0693,-0.6152 1.7285,-1.5674 0.6592,-0.9668 0.9521,-2.1533 0.293,-1.1865 0.293,-2.3437 0,-1.2305 -0.3076,-2.417 -0.3076,-1.2012 -0.9521,-2.1387 -0.6299,-0.9375 -1.6407,-1.5088 -0.9961,-0.5859 -2.373,-0.5859 l -3.7207,0 0,13.3154 3.3838,0 z"
         id="path5579"
         inkscape:connector-curvature="0" />
    </g>
    <g
       transform="translate(372.4286,-97.07647)"
       style="font-style:normal;font-variant:normal;font-weight:bold;font-stretch:normal;font-size:30px;line-height:125%;font-family:Overpass;-inkscape-font-specification:'Overpass, Bold';text-align:center;letter-spacing:0px;word-spacing:0px;writing-mode:lr-tb;text-anchor:middle;display:inline;fill:#ffffff;fill-opacity:1;stroke:none;stroke-width:1px;stroke-linecap:butt;stroke-linejoin:miter;stroke-opacity:1"
       id="text4285-3">
      <path
         d="m -901.6814,2295.7102 0,-21.0059 9.00879,0 q 1.99219,0 3.35449,0.586 1.36231,0.5713 2.21192,1.5234 0.84961,0.9375 1.21582,2.124 0.38086,1.1866 0.38086,2.4024 0,0.7617 -0.17578,1.5527 -0.17578,0.7764 -0.54199,1.5235 -0.36622,0.7324 -0.9375,1.3769 -0.57129,0.6445 -1.37696,1.1426 -0.79101,0.4834 -1.83105,0.7617 -1.02539,0.2783 -2.29981,0.2783 l -4.95117,0 0,7.7344 -4.05762,0 z m 9.18457,-11.5869 q 0.77637,0 1.30371,-0.249 0.52735,-0.2491 0.84961,-0.6446 0.33692,-0.3955 0.4834,-0.8935 0.14649,-0.4981 0.14649,-0.9961 0,-0.4541 -0.13184,-0.9375 -0.11719,-0.4981 -0.43945,-0.9082 -0.30762,-0.4102 -0.84961,-0.6738 -0.54199,-0.2637 -1.36231,-0.2637 l -5.12695,0 0,5.5664 5.12695,0 z"
         id="path5568"
         inkscape:connector-curvature="0" />
      <path
         d="m -871.73999,2295.7102 -3.89648,0 -7.44141,-21.0059 4.37988,0 4.61426,13.7403 q 0.11719,0.3369 0.21973,0.7324 0.11718,0.3809 0.20507,0.7178 0.0733,-0.3223 0.17579,-0.7031 0.10253,-0.3809 0.21972,-0.7471 l 4.61426,-13.7403 4.32129,0 -7.41211,21.0059 z"
         id="path5570"
         inkscape:connector-curvature="0" />
      <path
         d="m -860.4314,2274.7043 7.08985,0 q 1.83105,0 3.2959,0.4249 1.46484,0.4101 2.59277,1.1425 1.14258,0.7325 1.94824,1.7432 0.80567,0.9961 1.31836,2.168 0.52734,1.1572 0.76172,2.4463 0.24902,1.289 0.24902,2.5781 0,1.2011 -0.23437,2.4609 -0.21973,1.2451 -0.71778,2.417 -0.49804,1.1572 -1.30371,2.1826 -0.79101,1.0254 -1.94824,1.8018 -1.14258,0.7617 -2.65137,1.2012 -1.50878,0.4394 -3.44238,0.4394 l -6.95801,0 0,-21.0059 z m 7.44141,17.168 q 1.56738,0 2.63672,-0.6006 1.06933,-0.6152 1.72851,-1.5674 0.65918,-0.9668 0.95215,-2.1533 0.29297,-1.1865 0.29297,-2.3437 0,-1.2305 -0.30762,-2.417 -0.30761,-1.2012 -0.95214,-2.1387 -0.62989,-0.9375 -1.64063,-1.5088 -0.99609,-0.5859 -2.37305,-0.5859 l -3.7207,0 0,13.3154 3.38379,0 z"
         id="path5572"
         inkscape:connector-curvature="0" />
    </g>
    <g
       transform="translate(372.4286,-97.07647)"
       style="font-style:normal;font-variant:normal;font-weight:bold;font-stretch:normal;font-size:30px;line-height:125%;font-family:Overpass;-inkscape-font-specification:'Overpass, Bold';text-align:center;letter-spacing:0px;word-spacing:0px;writing-mode:lr-tb;text-anchor:middle;display:inline;fill:#ffffff;fill-opacity:1;stroke:none;stroke-width:1px;stroke-linecap:butt;stroke-linejoin:miter;stroke-opacity:1"
       id="text4285-3-3">
      <path
         d="m -1100.158,2295.7102 0,-21.0059 4.0577,0 0,17.1094 10.1367,0 0,3.8965 -14.1944,0 z"
         id="path5561"
         inkscape:connector-curvature="0" />
      <path
         d="m -1082.8142,2274.7043 9.2139,0 q 1.9189,0 3.2226,0.4834 1.3037,0.4834 2.0947,1.2745 0.8057,0.791 1.1426,1.8017 0.3516,1.0108 0.3516,2.0801 0,0.6738 -0.1465,1.3037 -0.1318,0.6299 -0.4395,1.1865 -0.3076,0.542 -0.791,1.0108 -0.4834,0.4541 -1.1718,0.791 0.8935,0.3369 1.5087,0.8789 0.6299,0.5273 1.0108,1.1719 0.3955,0.6445 0.5713,1.3623 0.1758,0.7177 0.1758,1.4209 0,1.1133 -0.3809,2.2265 -0.3662,1.1133 -1.2158,2.0069 -0.835,0.8935 -2.1973,1.4502 -1.3476,0.5566 -3.3105,0.5566 l -9.6387,0 0,-21.0059 z m 9.8437,17.2266 q 0.8204,0 1.3623,-0.2197 0.542,-0.2344 0.8497,-0.586 0.3222,-0.3515 0.4541,-0.791 0.1318,-0.4394 0.1318,-0.8642 0,-0.5127 -0.1611,-0.9961 -0.1465,-0.4981 -0.5567,-0.8789 -0.4101,-0.3809 -1.1133,-0.6153 -0.7031,-0.2343 -1.8017,-0.2343 l -4.9512,0 0,5.1855 5.7861,0 z m -1.1132,-8.9648 q 1.6113,0 2.3877,-0.6153 0.791,-0.6299 0.791,-1.6406 0,-0.3955 -0.1026,-0.791 -0.1025,-0.3955 -0.3955,-0.7178 -0.2783,-0.3222 -0.791,-0.5127 -0.5127,-0.2051 -1.3476,-0.2051 l -5.2149,0 0,4.4825 4.6729,0 z"
         id="path5563"
         inkscape:connector-curvature="0" />
      <path
         d="m -1061.4275,2274.7043 9.2139,0 q 1.9189,0 3.2226,0.4834 1.3037,0.4834 2.0948,1.2745 0.8056,0.791 1.1425,1.8017 0.3516,1.0108 0.3516,2.0801 0,0.6738 -0.1465,1.3037 -0.1318,0.6299 -0.4394,1.1865 -0.3077,0.542 -0.7911,1.0108 -0.4834,0.4541 -1.1718,0.791 0.8935,0.3369 1.5088,0.8789 0.6298,0.5273 1.0107,1.1719 0.3955,0.6445 0.5713,1.3623 0.1758,0.7177 0.1758,1.4209 0,1.1133 -0.3809,2.2265 -0.3662,1.1133 -1.2158,2.0069 -0.835,0.8935 -2.1973,1.4502 -1.3476,0.5566 -3.3105,0.5566 l -9.6387,0 0,-21.0059 z m 9.8438,17.2266 q 0.8203,0 1.3623,-0.2197 0.542,-0.2344 0.8496,-0.586 0.3222,-0.3515 0.4541,-0.791 0.1318,-0.4394 0.1318,-0.8642 0,-0.5127 -0.1611,-0.9961 -0.1465,-0.4981 -0.5567,-0.8789 -0.4101,-0.3809 -1.1132,-0.6153 -0.7032,-0.2343 -1.8018,-0.2343 l -4.9512,0 0,5.1855 5.7862,0 z m -1.1133,-8.9648 q 1.6113,0 2.3877,-0.6153 0.791,-0.6299 0.791,-1.6406 0,-0.3955 -0.1025,-0.791 -0.1026,-0.3955 -0.3956,-0.7178 -0.2783,-0.3222 -0.791,-0.5127 -0.5127,-0.2051 -1.3476,-0.2051 l -5.2149,0 0,4.4825 4.6729,0 z"
         id="path5565"
         inkscape:connector-curvature="0" />
    </g>
    <g
       transform="translate(372.4286,-97.07647)"
       style="font-style:normal;font-variant:normal;font-weight:bold;font-stretch:normal;font-size:30px;line-height:125%;font-family:Overpass;-inkscape-font-specification:'Overpass, Bold';text-align:center;letter-spacing:0px;word-spacing:0px;writing-mode:lr-tb;text-anchor:middle;display:inline;fill:#ffffff;fill-opacity:1;stroke:none;stroke-width:1px;stroke-linecap:butt;stroke-linejoin:miter;stroke-opacity:1"
       id="text4285-3-5">
      <path
         d="m -1092.9949,1896.0471 q -1.6406,0 -2.9297,-0.4394 -1.289,-0.4395 -2.2705,-1.2159 -0.9814,-0.7763 -1.6699,-1.8164 -0.6885,-1.04 -1.1279,-2.2412 -0.4248,-1.2158 -0.6299,-2.5195 -0.1904,-1.3037 -0.1904,-2.6074 0,-1.2012 0.205,-2.461 0.2051,-1.2744 0.6299,-2.4755 0.4395,-1.2012 1.128,-2.2706 0.7031,-1.0693 1.6699,-1.875 0.9814,-0.8056 2.2705,-1.2744 1.2891,-0.4687 2.915,-0.4687 1.5088,0 2.7393,0.4101 1.2305,0.4102 2.168,1.084 0.9375,0.6592 1.582,1.5088 0.6592,0.8496 1.0107,1.7285 l -3.6328,1.6553 q -0.3808,-0.5859 -0.7764,-1.0547 -0.3955,-0.4687 -0.8496,-0.7764 -0.4541,-0.3222 -1.0107,-0.4834 -0.542,-0.1757 -1.2305,-0.1757 -0.8789,0 -1.5674,0.3076 -0.6884,0.293 -1.2011,0.8056 -0.5127,0.5127 -0.8643,1.2012 -0.3515,0.6885 -0.5713,1.4649 -0.2197,0.7617 -0.3222,1.582 -0.088,0.8057 -0.088,1.5674 0,1.2304 0.2636,2.4609 0.2637,1.2305 0.8204,2.2266 0.5566,0.9961 1.4209,1.626 0.8789,0.6152 2.1093,0.6152 0.6446,0 1.1866,-0.1904 0.5419,-0.2051 0.996,-0.5567 0.4688,-0.3515 0.8643,-0.8496 0.4102,-0.498 0.7617,-1.0986 l 3.7207,1.4062 q -0.498,1.1573 -1.2011,2.124 -0.7032,0.9522 -1.6407,1.6407 -0.9228,0.6738 -2.0947,1.0547 -1.1719,0.3808 -2.5928,0.3808 z"
         id="path5554"
         inkscape:connector-curvature="0" />
      <path
         d="m -1068.4148,1895.7102 0,-8.8769 -8.7891,0 0,8.8769 -4.0576,0 0,-21.0059 4.0576,0 0,8.2911 8.7891,0 0,-8.2911 4.043,0 0,21.0059 -4.043,0 z"
         id="path5556"
         inkscape:connector-curvature="0" />
      <path
         d="m -1050.866,1896.0471 q -1.6406,0 -2.9297,-0.4394 -1.289,-0.4395 -2.2705,-1.2159 -0.9814,-0.7763 -1.6699,-1.8164 -0.6885,-1.04 -1.1279,-2.2412 -0.4248,-1.2158 -0.6299,-2.5195 -0.1904,-1.3037 -0.1904,-2.6074 0,-1.2012 0.2051,-2.461 0.205,-1.2744 0.6298,-2.4755 0.4395,-1.2012 1.128,-2.2706 0.7031,-1.0693 1.6699,-1.875 0.9814,-0.8056 2.2705,-1.2744 1.2891,-0.4687 2.915,-0.4687 1.5088,0 2.7393,0.4101 1.2305,0.4102 2.168,1.084 0.9375,0.6592 1.582,1.5088 0.6592,0.8496 1.0107,1.7285 l -3.6328,1.6553 q -0.3808,-0.5859 -0.7763,-1.0547 -0.3956,-0.4687 -0.8497,-0.7764 -0.4541,-0.3222 -1.0107,-0.4834 -0.542,-0.1757 -1.2305,-0.1757 -0.8789,0 -1.5673,0.3076 -0.6885,0.293 -1.2012,0.8056 -0.5127,0.5127 -0.8643,1.2012 -0.3515,0.6885 -0.5713,1.4649 -0.2197,0.7617 -0.3222,1.582 -0.088,0.8057 -0.088,1.5674 0,1.2304 0.2636,2.4609 0.2637,1.2305 0.8204,2.2266 0.5566,0.9961 1.4209,1.626 0.8789,0.6152 2.1093,0.6152 0.6446,0 1.1866,-0.1904 0.5419,-0.2051 0.9961,-0.5567 0.4687,-0.3515 0.8642,-0.8496 0.4102,-0.498 0.7617,-1.0986 l 3.7207,1.4062 q -0.498,1.1573 -1.2011,2.124 -0.7032,0.9522 -1.6407,1.6407 -0.9228,0.6738 -2.0947,1.0547 -1.1719,0.3808 -2.5928,0.3808 z"
         id="path5558"
         inkscape:connector-curvature="0" />
    </g>
    <g
       transform="translate(372.4286,-97.07647)"
       style="font-style:normal;font-variant:normal;font-weight:bold;font-stretch:normal;font-size:30px;line-height:125%;font-family:Overpass;-inkscape-font-specification:'Overpass, Bold';text-align:center;letter-spacing:0px;word-spacing:0px;writing-mode:lr-tb;text-anchor:middle;display:inline;fill:#ffffff;fill-opacity:1;stroke:none;stroke-width:1px;stroke-linecap:butt;stroke-linejoin:miter;stroke-opacity:1"
       id="text4285-3-0">
      <path
         d="m -885.46552,2095.7102 0,-10.7959 q 0,-0.1758 0,-0.4101 0.0146,-0.2344 0.0146,-0.4688 0.0146,-0.249 0.0146,-0.4541 0.0147,-0.2051 0.0293,-0.3223 -0.16113,0.4981 -0.32227,0.8936 -0.14648,0.3955 -0.30761,0.7617 l -5.09766,11.1621 -5.12695,-11.1621 q -0.16114,-0.3662 -0.32227,-0.7617 -0.14648,-0.3955 -0.30762,-0.8936 0.0146,0.1172 0.0146,0.3223 0.0147,0.2051 0.0147,0.4541 0.0146,0.2344 0.0146,0.4688 0.0146,0.2343 0.0146,0.4101 l 0,10.7959 -4.05762,0 0,-21.0059 4.11621,0 5.15625,11.587 q 0.16113,0.3808 0.29297,0.7324 0.13184,0.3369 0.24902,0.7031 0.11719,-0.3662 0.24903,-0.7031 0.13183,-0.3516 0.29297,-0.7324 l 5.24414,-11.587 3.86718,0 0,21.0059 -4.04297,0 z"
         id="path5547"
         inkscape:connector-curvature="0" />
      <path
         d="m -875.98798,2095.7102 0,-21.0059 14.34082,0 0,3.8526 -10.2832,0 0,4.4092 6.04981,0 0,3.8379 -6.04981,0 0,5.0683 10.91309,0 0,3.8379 -14.97071,0 z"
         id="path5549"
         inkscape:connector-curvature="0" />
      <path
         d="m -856.65204,2095.7102 0,-21.0059 4.05762,0 0,17.1094 10.13672,0 0,3.8965 -14.19434,0 z"
         id="path5551"
         inkscape:connector-curvature="0" />
    </g>
    <g
       transform="translate(372.4286,-97.07647)"
       style="font-style:normal;font-variant:normal;font-weight:bold;font-stretch:normal;font-size:30px;line-height:125%;font-family:Overpass;-inkscape-font-specification:'Overpass, Bold';text-align:center;letter-spacing:0px;word-spacing:0px;writing-mode:lr-tb;text-anchor:middle;display:inline;fill:#ffffff;fill-opacity:1;stroke:none;stroke-width:1px;stroke-linecap:butt;stroke-linejoin:miter;stroke-opacity:1"
       id="text4285-3-8">
      <path
         d="m -1586.7473,2295.7102 -1.626,-4.3506 -8.1006,0 -1.6113,4.3506 -4.3506,0 8.042,-21.0059 3.9551,0 8.042,21.0059 -4.3506,0 z m -5.0098,-13.5059 q -0.1611,-0.3808 -0.3515,-0.9082 -0.1758,-0.5273 -0.3077,-0.9814 -0.1171,0.4541 -0.3076,0.9814 -0.1904,0.5274 -0.3515,0.9082 l -2.0801,5.4639 5.4638,0 -2.0654,-5.4639 z"
         id="path5540"
         inkscape:connector-curvature="0" />
      <path
         d="m -1565.2288,2295.7102 -5.4052,-10.0488 -3.8965,4.8047 0,5.2441 -4.0576,0 0,-21.0059 4.0576,0 0,10.0196 7.9541,-10.0196 4.79,0 -6.123,7.5293 7.4121,13.4766 -4.7315,0 z"
         id="path5542"
         inkscape:connector-curvature="0" />
      <path
         d="m -1556.6155,2295.7102 0,-21.0059 4.0576,0 0,17.1094 10.1368,0 0,3.8965 -14.1944,0 z"
         id="path5544"
         inkscape:connector-curvature="0" />
    </g>
    <g
       transform="translate(372.4286,-97.07647)"
       style="font-style:normal;font-variant:normal;font-weight:bold;font-stretch:normal;font-size:30px;line-height:125%;font-family:Overpass;-inkscape-font-specification:'Overpass, Bold';text-align:center;letter-spacing:0px;word-spacing:0px;writing-mode:lr-tb;text-anchor:middle;display:inline;fill:#ffffff;fill-opacity:1;stroke:none;stroke-width:1px;stroke-linecap:butt;stroke-linejoin:miter;stroke-opacity:1"
       id="text4285-3-8-7">
      <path
         d="m -1200.5022,2095.7102 0,-21.0059 9.0088,0 q 1.9922,0 3.3545,0.586 1.3623,0.5713 2.2119,1.5234 0.8496,0.9375 1.2158,2.124 0.3809,1.1866 0.3809,2.4024 0,0.7617 -0.1758,1.5527 -0.1758,0.7764 -0.542,1.5235 -0.3662,0.7324 -0.9375,1.3769 -0.5713,0.6445 -1.3769,1.1426 -0.7911,0.4834 -1.8311,0.7617 -1.0254,0.2783 -2.2998,0.2783 l -4.9512,0 0,7.7344 -4.0576,0 z m 9.1846,-11.5869 q 0.7763,0 1.3037,-0.249 0.5273,-0.2491 0.8496,-0.6446 0.3369,-0.3955 0.4834,-0.8935 0.1465,-0.4981 0.1465,-0.9961 0,-0.4541 -0.1319,-0.9375 -0.1171,-0.4981 -0.4394,-0.9082 -0.3076,-0.4102 -0.8496,-0.6738 -0.542,-0.2637 -1.3623,-0.2637 l -5.127,0 0,5.5664 5.127,0 z"
         id="path5533"
         inkscape:connector-curvature="0" />
      <path
         d="m -1180.4045,2095.7102 0,-21.0059 14.3408,0 0,3.8526 -10.2832,0 0,4.4092 6.0498,0 0,3.8379 -6.0498,0 0,5.0683 10.9131,0 0,3.8379 -14.9707,0 z"
         id="path5535"
         inkscape:connector-curvature="0" />
      <path
         d="m -1161.0686,2095.7102 0,-21.0059 9.7559,0 q 1.9921,0 3.3252,0.5567 1.3476,0.542 2.1679,1.4502 0.8203,0.9082 1.1719,2.0947 0.3516,1.1865 0.3516,2.4756 0,0.8935 -0.2637,1.8164 -0.249,0.9082 -0.7617,1.7285 -0.5127,0.8203 -1.2744,1.4942 -0.7618,0.6591 -1.7725,1.0253 l 4.0723,8.3643 -4.5557,0 -3.9258,-7.8369 -4.2334,0 0,7.8369 -4.0576,0 z m 9.8144,-11.6748 q 0.7764,0 1.3038,-0.2197 0.5273,-0.2344 0.8496,-0.6153 0.3222,-0.3808 0.4541,-0.8789 0.1465,-0.498 0.1465,-1.04 0,-0.4981 -0.1319,-0.9815 -0.1172,-0.498 -0.4248,-0.8789 -0.3076,-0.3955 -0.8496,-0.6298 -0.5273,-0.2344 -1.3477,-0.2344 l -5.7568,0 0,5.4785 5.7568,0 z"
         id="path5537"
         inkscape:connector-curvature="0" />
    </g>
    <g
       transform="translate(372.4286,-97.07647)"
       style="font-style:normal;font-variant:normal;font-weight:bold;font-stretch:normal;font-size:30px;line-height:125%;font-family:Overpass;-inkscape-font-specification:'Overpass, Bold';text-align:center;letter-spacing:0px;word-spacing:0px;writing-mode:lr-tb;text-anchor:middle;display:inline;fill:#ffffff;fill-opacity:1;stroke:none;stroke-width:1px;stroke-linecap:butt;stroke-linejoin:miter;stroke-opacity:1"
       id="text4285-3-8-7-4">
      <path
         d="m -1591.1566,2080.4172 q -0.1904,-0.4687 -0.5127,-0.8789 -0.3223,-0.4101 -0.7764,-0.7031 -0.4394,-0.3076 -1.0254,-0.4687 -0.5713,-0.1758 -1.2744,-0.1758 -1.3183,0 -2.0654,0.5273 -0.7324,0.5274 -0.7324,1.4795 0,0.6299 0.4687,1.0547 0.4688,0.4248 1.2305,0.7764 0.7617,0.3369 1.7285,0.6445 0.9814,0.3076 2.0068,0.6885 1.0254,0.3662 1.9922,0.8789 0.9815,0.498 1.7432,1.2451 0.7617,0.7324 1.2305,1.7578 0.4687,1.0108 0.4687,2.4316 0,1.5381 -0.5859,2.7247 -0.586,1.1865 -1.6114,2.0068 -1.0107,0.8203 -2.4023,1.2451 -1.3916,0.4248 -3.0029,0.4248 -1.4795,0 -2.7686,-0.3955 -1.2891,-0.4101 -2.3437,-1.1572 -1.0401,-0.7471 -1.8164,-1.8164 -0.7764,-1.0694 -1.2305,-2.4024 l 3.6914,-1.3769 q 0.3369,0.7324 0.8057,1.3476 0.4834,0.6006 1.0693,1.0401 0.5859,0.4248 1.2598,0.6738 0.6884,0.2344 1.4648,0.2344 0.7617,0 1.377,-0.1612 0.6298,-0.1611 1.0693,-0.4834 0.4541,-0.3222 0.6885,-0.791 0.249,-0.4834 0.249,-1.1133 0,-0.7617 -0.4688,-1.2744 -0.4687,-0.5273 -1.2304,-0.9082 -0.7617,-0.3955 -1.7432,-0.7031 -0.9668,-0.3223 -1.9922,-0.6738 -1.0107,-0.3516 -1.9922,-0.8203 -0.9668,-0.4688 -1.7285,-1.1573 -0.7617,-0.6884 -1.2305,-1.6552 -0.4687,-0.9668 -0.4687,-2.3438 0,-1.1865 0.4687,-2.2265 0.4834,-1.0547 1.3917,-1.8457 0.9082,-0.7911 2.2265,-1.2452 1.3184,-0.4687 3.0176,-0.4687 1.4209,0 2.5635,0.3662 1.1572,0.3662 2.0361,1.0254 0.8789,0.6445 1.4795,1.5381 0.6006,0.8789 0.9082,1.9336 l -3.6328,1.2011 z"
         id="path5526"
         inkscape:connector-curvature="0" />
      <path
         d="m -1576.2152,2095.7102 0,-8.1885 -7.7783,-12.8174 4.5996,0 5.1855,8.584 5.1856,-8.584 4.5996,0 -7.7783,12.8174 0,8.1885 -4.0137,0 z"
         id="path5528"
         inkscape:connector-curvature="0" />
      <path
         d="m -1560.8051,2074.7043 7.0899,0 q 1.831,0 3.2959,0.4249 1.4648,0.4101 2.5928,1.1425 1.1425,0.7325 1.9482,1.7432 0.8057,0.9961 1.3184,2.168 0.5273,1.1572 0.7617,2.4463 0.249,1.289 0.249,2.5781 0,1.2011 -0.2344,2.4609 -0.2197,1.2451 -0.7177,2.417 -0.4981,1.1572 -1.3038,2.1826 -0.791,1.0254 -1.9482,1.8018 -1.1426,0.7617 -2.6514,1.2012 -1.5088,0.4394 -3.4423,0.4394 l -6.9581,0 0,-21.0059 z m 7.4415,17.168 q 1.5673,0 2.6367,-0.6006 1.0693,-0.6152 1.7285,-1.5674 0.6592,-0.9668 0.9521,-2.1533 0.293,-1.1865 0.293,-2.3437 0,-1.2305 -0.3076,-2.417 -0.3076,-1.2012 -0.9522,-2.1387 -0.6298,-0.9375 -1.6406,-1.5088 -0.9961,-0.5859 -2.373,-0.5859 l -3.7207,0 0,13.3154 3.3838,0 z"
         id="path5530"
         inkscape:connector-curvature="0" />
    </g>
  </g>
  <g
     inkscape:groupmode="layer"
     id="layer2"
     inkscape:label="Terminals"
     style="display:inline"
     transform="translate(1400.9999,-1600.9999)">
    <path
       transform="translate(372.4286,-97.07647)"
       sodipodi:nodetypes="cccccccccccccccccccccccccccccccccccccccccc"
       inkscape:connector-curvature="0"
       id="rect4160"
       d="m -1280.2368,2190.9514 1.8879,2.8256 c -3.0389,2.0305 -6.0779,4.061 -9.1168,6.0915 l -0.7219,-1.0804 -1.123,0.7503 0.7218,1.0804 -2.1963,1.4675 4.6826,7.0083 -0.526,0.3514 0.3274,0.49 -0.5671,2.233 0.4001,0.1016 -1.6325,6.4276 -0.2016,0.1347 0.6112,0.9147 1.0152,-0.6783 -0.6112,-0.9148 -0.089,0.059 c 0.6377,-2.5105 1.2753,-5.021 1.9129,-7.5315 l 0.2909,-0.1943 0.2945,0.4406 5.5157,-3.6853 -0.1528,-0.2286 2.7579,-1.8426 0.4757,0.7119 1.6205,-1.0828 -0.4757,-0.7119 4.1907,-2.8 0.3627,0.5427 8.8309,-5.9003 -0.6179,-0.9248 8.2977,-5.5441 -7.3879,-11.0572 c -4.3291,2.8924 -8.6581,5.7849 -12.9872,8.6774 l -1.5078,1.0074 c -1.4274,0.9537 -2.8548,1.9075 -4.2822,2.8612 z m -3.5699,9.6388 5.9904,-4.0026 2.9588,0.065 2.1271,3.1835 -8.0062,5.3493 z"
       style="display:inline;opacity:1;fill:#000000;fill-opacity:0.49803922;stroke:none;stroke-width:1.5;stroke-linejoin:miter;stroke-miterlimit:4;stroke-dasharray:none;stroke-dashoffset:0;stroke-opacity:1" />
    <path
       transform="translate(372.4286,-97.07647)"
       style="display:inline;opacity:1;fill:#000000;fill-opacity:0.49803922;stroke:none;stroke-width:0.375;stroke-linecap:butt;stroke-linejoin:round;stroke-miterlimit:4;stroke-dasharray:none;stroke-dashoffset:0;stroke-opacity:1"
       d="m -837.5697,2148.9304 -2.144,3.4224 -0.95793,-0.6001 -1.08591,1.7333 0.95793,0.6002 -4.71096,7.5198 -0.95793,-0.6002 -1.08591,1.7334 0.95792,0.6001 -4.95166,7.9042 -0.95793,-0.6002 -1.08599,1.7334 0.958,0.6001 -7.67401,12.2495 -0.37425,-0.2344 c -0.80712,1.985 -1.61424,3.9699 -2.42137,5.9549 l -0.41603,0.6641 -12.41814,-7.7797 4.46784,-7.1317 -3.79226,-2.3757 -5.26908,8.4108 1.04143,0.6525 -3.15584,5.0375 -0.4302,-0.2696 -2.05662,3.2829 1.44898,0.9077 -1.82966,2.9206 -1.44898,-0.9077 -0.86515,1.381 -0.45277,-0.2837 -2.24101,3.5772 0.45277,0.2837 -0.86515,1.381 1.44898,0.9078 -1.82965,2.9206 -1.44906,-0.9078 -2.05655,3.2829 0.22668,0.142 -0.14326,0.2287 -1.09833,-0.6881 -0.5015,0.8004 -0.27044,-0.1694 -2.20923,3.5265 -10.38986,-6.509 0.14048,-0.2242 -0.97663,-0.6117 -2.31676,3.6981 0.97663,0.6118 1.07305,-1.713 27.13106,16.9968 -0.41647,0.6648 c -1.43401,1.5924 -2.868,3.1848 -4.30201,4.7772 l 0.37431,0.2344 -7.70243,12.2949 -0.95793,-0.6002 -1.08591,1.7334 0.95793,0.6001 -2.09915,3.3508 5.0714,3.1771 2.09915,-3.3508 0.95792,0.6002 1.08599,-1.7334 -0.958,-0.6002 5.67963,-9.0659 0.95793,0.6001 1.08591,-1.7334 -0.95793,-0.6001 4.71513,-7.5265 0.95793,0.6001 1.08591,-1.7333 -0.95793,-0.6002 4.82858,-7.7075 0.95793,0.6001 0.95741,-1.5282 1.40895,0.8827 -0.10271,0.2008 1.575,0.8048 5.34132,-10.4532 -1.57492,-0.8047 -0.15019,0.2938 -0.58296,-0.3651 0.95735,-1.5282 -0.95793,-0.6001 4.82857,-7.7077 0.95793,0.6002 1.08592,-1.7334 -0.95793,-0.6001 4.71198,-7.5214 0.95793,0.6001 1.08591,-1.7334 -0.95792,-0.6001 5.65369,-9.0247 0.95793,0.6001 1.08591,-1.7333 -0.95792,-0.6002 4.95166,-7.9041 0.95793,0.6002 1.08591,-1.7334 -0.95792,-0.6002 4.71096,-7.5198 0.95792,0.6002 1.08592,-1.7334 -0.95793,-0.6001 2.144,-3.4224 -5.0714,-3.1771 z"
       id="rect4158-4"
       inkscape:connector-curvature="0" />
    <path
       transform="translate(372.4286,-97.07647)"
       id="path4198"
       d="m -1050.8421,2173.9262 0,0.6786 -0.1223,0 0,-0.2356 -0.1223,0 -0.1222,0 0,1.313 -3.1558,0 0,-0.2357 -0.1223,0 -0.1222,0 0,0.2357 -3.1558,0 0,-0.2357 -0.1223,0 -0.1222,0 0,0.2357 -3.1559,0 0,-0.2357 -0.1222,0 -0.1223,0 0,0.2357 -3.1558,0 0,-0.2357 -0.1222,0 -0.1223,0 0,0.2357 -3.1558,0 0,-1.0468 -0.2445,0 0,0.2356 -0.4759,0.025 -0.027,-0.5204 -2.8844,0.1511 0.027,0.5205 -0.4648,0.024 -0.032,-0.3031 -0.2432,0.026 0.032,0.3019 -3.7998,0.6019 -0.053,-0.2474 c -0.08,0.017 -0.1595,0.034 -0.2393,0.051 l 0.053,0.2468 -0.4652,0.1247 -0.1351,-0.5042 -2.7899,0.7475 0.1351,0.5042 -0.4585,0.1229 -0.067,-0.2072 -0.2326,0.076 0.067,0.207 -3.5862,1.3766 -0.089,-0.199 c -0.074,0.033 -0.1489,0.066 -0.2233,0.099 l 0.088,0.1988 -3.4245,1.7449 -0.1,-0.1728 c -0.071,0.041 -0.1412,0.082 -0.2118,0.1222 l 0.1,0.1729 -3.22,2.091 -0.128,-0.1762 c -0.066,0.048 -0.1319,0.096 -0.1978,0.1438 l 0.1279,0.176 -0.3531,0.286 -0.3816,-0.4711 -2.3669,1.9167 -0.3546,-0.3546 -0.3611,0.3611 -0.3986,-0.3986 -0.4355,0.4356 -0.3795,-0.3795 -1.0202,1.0202 -1.0203,1.0203 0.3795,0.3794 -0.4355,0.4356 0.3986,0.3986 -0.3611,0.3611 0.3546,0.3546 -1.9168,2.3669 0.4711,0.3815 -0.2839,0.3506 -0.1906,-0.1385 c -0.048,0.066 -0.096,0.1319 -0.1437,0.1979 l 0.1905,0.1384 -2.0898,3.218 -0.1733,-0.1 c -0.041,0.071 -0.082,0.1411 -0.1222,0.2117 l 0.1727,0.1 -1.7458,3.4265 -0.2154,-0.096 c -0.033,0.074 -0.066,0.1489 -0.1,0.2234 l 0.2152,0.096 -1.3766,3.5862 -0.2242,-0.073 c -0.025,0.077 -0.05,0.1551 -0.076,0.2326 l 0.2241,0.073 -0.1237,0.4616 -0.5043,-0.1351 -0.7476,2.7899 0.5043,0.1351 -0.1228,0.4584 -0.2131,-0.045 c -0.017,0.08 -0.034,0.1594 -0.051,0.2392 l 0.2129,0.045 -0.6008,3.794 -0.2167,-0.023 c -0.01,0.081 -0.017,0.1622 -0.026,0.2432 l 0.2165,0.023 -0.025,0.4777 -0.5206,-0.027 -0.1512,2.8844 0.5206,0.027 -0.025,0.4739 -0.2178,0 c 0,0.082 0,0.1631 0,0.2446 l 1.0325,0 0,3.1577 -0.2356,0 0,0.1222 0,0.1223 0.2356,0 0,3.156 -0.9821,0 0,0.1223 0,0.1223 0.3055,0 0,0.122 -0.591,0 0,2.9112 0.591,0 0,0.1223 -0.3055,0 0,0.1223 0,0.1222 3.6987,0 0,-0.2445 0,-0.8817 1.9451,0 2.0964,0 0,-2.2738 5.6777,0 0,-0.1226 0.7844,0 0,-6.8006 0.137,-2.6129 0.4093,-2.5843 0.6771,-2.5272 0.9377,-2.4428 1.1878,-2.3313 1.425,-2.1943 1.6466,-2.0334 1.8502,-1.8502 2.0333,-1.6466 2.1944,-1.425 2.3312,-1.1879 2.4428,-0.9377 2.5272,-0.6771 2.5844,-0.4094 2.5554,-0.1339 3.3356,0 0.2445,0 4.2667,0 0,-1.6352 -0.8664,0 0,-4.0165 0.7043,0 0,-2.6466 0.9004,0 0,-2.2618 1.5511,0 0,0.2357 0.2446,0 0,-0.2357 3.1557,0 0,0.2357 0.2446,0 0,-0.2357 3.1557,0 0,0.2357 0.2446,0 0,-0.2357 1.6477,0 0.9426,0 0.5655,0 0,0.7027 0.2445,0 0,-0.2357 3.1558,0 0,0.2357 0.2446,0 0,-0.2357 3.1557,0 0,0.2357 0.2446,0 0,-0.7027 0.3209,0 2.9571,0 0,0.2357 0.2445,0 0,-4.2155 -0.1222,0 -0.1223,0 0,0.2357 -0.1223,0 0,-0.6787 -2.9112,0 0,0.6787 -0.2445,0 0,-0.2357 -0.1223,0 -0.1223,0 0,0.2357 -3.1557,0 0,-0.2357 -0.1223,0 -0.1223,0 0,0.2357 -3.1558,0 0,-0.2357 -0.1223,0 -0.1222,0 0,0.2357 -0.1223,0 0,-0.6787 -2.9112,0 z m -17.1239,9.901 3.1558,0 0,3.4467 -3.1558,0 0,-3.4467 z m 3.4003,0 3.1558,0 0,3.4467 -3.1558,0 0,-3.4467 z m -3.6448,0.01 0,3.4467 -2.528,0.1325 -0.3603,-3.4278 2.8883,-0.1514 z m -6.0536,1.5782 0.5259,2.4743 -2.4589,0.6589 -0.7817,-2.4058 2.7147,-0.7274 z m -2.9474,0.8028 0.7817,2.4058 -2.3736,0.9112 -1.0288,-2.311 2.6207,-1.006 z m -2.8442,1.1053 1.0289,2.3109 -2.2671,1.1551 -1.2648,-2.1907 2.503,-1.2753 z m -4.6408,3.9287 0.8623,1.1869 -1.9772,1.6012 -0.9818,-1.0904 2.0967,-1.6977 z m -2.2784,1.8614 0.9817,1.0904 -1.7973,1.7973 -1.0904,-0.9819 1.906,-1.9058 z m -2.0697,2.0876 1.0905,0.9818 -1.5995,1.9753 -1.1872,-0.8626 1.6962,-2.0945 z m -4.3489,4.2301 2.191,1.2649 -1.1561,2.2692 -2.3113,-1.0291 1.2764,-2.505 z m -1.376,2.7284 2.3113,1.029 -0.911,2.3737 -2.4063,-0.7819 1.006,-2.6208 z m -1.0817,2.8533 2.4063,0.7818 -0.6578,2.4553 -2.4749,-0.526 0.7264,-2.7111 z m -2.1543,5.8702 3.4284,0.3604 -0.1329,2.5389 -3.4474,0 0.1519,-2.8993 z m -0.1584,3.1438 3.4474,0 0,3.1577 -3.4474,0 0,-3.1577 z m 0,3.4023 3.4474,0 0,3.156 -3.4474,0 0,-3.156 z"
       style="display:inline;fill:#000000;fill-opacity:0.49803922;fill-rule:evenodd;stroke:none;stroke-width:0.375;stroke-linecap:butt;stroke-linejoin:miter;stroke-miterlimit:4;stroke-dasharray:none;stroke-opacity:1"
       inkscape:connector-curvature="0" />
    <path
       transform="translate(372.4286,-97.07647)"
       id="path4162"
       d="m -1109.347,1806.4453 10.9793,9.2568 0.5426,6.3741 0.8026,-0.068 0.4719,5.5439 2.4966,2.105 -0.4758,0.5644 10.6365,8.9678 0.4758,-0.5643 6.6882,5.6389 3.9792,-4.7197 -10.2792,-8.6666 4.7508,-8.3411 0.4409,-0.038 -0.1794,-2.1085 -0.2849,0.024 -0.8499,-9.9844 5.6087,-6.6522 -0.2286,0.019 -0.064,-0.7547 0.2285,-0.02 -6.6521,-5.6086 -0.9416,-11.0621 19.2465,-4.5374 -1.1879,-5.0386 7.7029,0.3664 0.1489,-3.1314 4.8792,0.2321 0.1091,-2.2941 1.4037,0.067 0.07,-1.4824 0.6442,0.031 0.1835,-3.8591 0.3138,0.015 0.1321,-2.7805 -2.3615,-0.1123 -0.018,0.381 -4.4507,-0.2117 0.082,-1.7222 18.561,0.883 0.2321,-4.8824 -18.5609,-0.883 0.1112,-2.3377 -24.4822,-1.1646 -19.5583,23.1974 0.9082,0.2601 -1.3611,1.6143 -0.5955,-0.6309 -2.2707,2.6931 0.012,0.1338 1.2179,14.3081 -9.257,10.9794 z"
       style="display:inline;fill:#000000;fill-opacity:0.49803922;fill-rule:evenodd;stroke:none;stroke-width:1.5;stroke-linecap:butt;stroke-linejoin:miter;stroke-miterlimit:4;stroke-dasharray:none;stroke-opacity:1"
       inkscape:connector-curvature="0" />
    <path
       transform="translate(372.4286,-97.07647)"
       inkscape:connector-curvature="0"
       style="display:inline;opacity:1;fill:#000000;fill-opacity:0.49803922;stroke:none;stroke-width:2;stroke-linecap:butt;stroke-linejoin:round;stroke-miterlimit:4;stroke-dasharray:none;stroke-dashoffset:0;stroke-opacity:1"
       d="m -847.71008,1765.9748 -2.7011,0.3906 0.5449,3.7539 -0.4375,0.062 -0.8301,0.1211 0.1074,0.75 0.832,-0.1211 0.6563,4.5176 1.4531,-0.2129 0.711,4.8887 -1.4551,0.2109 0.8789,6.0508 1.4531,-0.211 0.711,4.8887 -1.4551,0.2109 0.8769,6.0508 1.4551,-0.2109 0.709,4.8887 -1.4531,0.2109 0.8769,6.0508 1.4551,-0.211 0.709,4.8887 -1.4532,0.2109 0.877,6.0508 1.4551,-0.2109 0.709,4.8867 -1.4551,0.2129 1.7031,11.7246 -3.2383,0.4688 -0.3711,-2.5508 -5.8828,0.8535 -2.6367,-1.9668 -3.4961,1.5352 -6.2441,-4.6622 -5.8438,-4.3613 -18.0195,8.711 -1.8027,-1.3457 0.5117,-0.6856 -1.4375,-1.0742 -0.5117,0.6875 -5.6875,-4.2461 1.2304,-10.4004 -2.8144,-0.332 -1.0391,8.7734 -3.7305,-2.7851 0.709,-0.9493 -0.043,-0.291 0.3379,-0.049 -0.3125,-2.1601 -0.4707,0.068 -0.051,-0.3575 -1.041,-1.1269 -0.5625,-3.8789 1.3281,-0.1934 -0.3144,-2.1601 -0.3379,0.049 -0.074,-0.5196 -1.0938,-0.5683 -0.5722,-3.9473 3.9453,-5.2852 1.3047,-0.074 -0.039,-0.666 -1.9512,0.1114 -3.4492,4.6191 -0.2832,-1.959 -13.6914,1.9863 -1.2032,0.1758 0.75,-3.6113 -0.9531,-0.1973 -0.8222,3.9571 -4.0391,0.5859 -8.832,1.2812 0.1523,1.0469 -7.498,1.0899 -0.3223,-0.4082 0.09,-0.07 -0.7227,-0.9161 -0.7949,0.627 0.7207,0.916 0.252,-0.037 0.2168,1.4844 8.2734,-1.2012 0.4434,3.0547 -0.418,0.061 0.3535,2.4453 0.4199,-0.062 0.7266,5.0078 -20.6953,3.0039 -6.957,1.0098 -4.4063,-30.3652 -0.6016,-4.1426 -5.4687,0.793 -2.6406,0.3828 0,4.2304 3.2422,-0.4707 1.3437,9.2579 -4.5859,0.666 0,3.3613 5.0625,-0.7363 2.6035,17.9394 -5.4317,0.7891 0.4785,3.291 0,0 5.4317,-0.7891 1.7363,11.9727 -3.9844,0.5781 0.2071,1.4258 3.9844,-0.5781 0.068,0.4668 5.4687,-0.795 -0.168,-1.164 0.4805,-0.068 0.049,0.334 1.3086,-0.1895 -0.3848,-2.6484 -1.3086,0.1894 0.088,0.6113 -0.4804,0.07 -1.3321,-9.1875 6.9551,-1.0097 -0.1738,-1.1934 20.6973,-3.0039 0.1132,0.7813 7.4356,-1.0782 0.5195,3.5762 0.6094,-0.088 0.6269,0.8887 0.2989,-0.043 0.3652,2.5156 2.5176,-0.3652 0.664,0.9433 0.5977,-0.086 0.045,0.3086 8.8828,-1.289 -0.1933,-1.3282 1.4726,0.4903 0.4531,-0.6055 3.7305,2.7852 -9.6211,4.1367 2.6231,1.957 9.6211,-4.1347 7.7226,5.7636 -1.2695,1.6992 4.7383,3.5372 -1.3282,1.7812 -0.2597,-0.1934 -0.4825,0.6465 0.2579,0.1953 0.5058,0.377 0.4844,-0.6484 1.3301,-1.7793 3.916,2.9238 0.5879,-0.7871 5.2832,3.9433 -0.018,0.023 -9.041,12.1094 5.041,8.5313 1.5137,-2.0254 2.2128,1.6523 -0.8769,1.1758 1.0312,7.1035 4.4512,-0.6465 -0.6719,0.9004 0.5371,3.6934 0.3497,2.4082 -6.2989,0.914 -0.4062,-2.7968 -9.961,1.4453 0.4043,2.7968 -4.6562,0.6778 -0.4063,-2.7988 -6.1386,0.8906 0.4062,2.7988 -4.6562,0.6758 -0.4063,-2.7988 -6.1387,0.8906 0.4063,2.7988 -4.6563,0.6758 -0.4062,-2.7988 -6.1387,0.8925 0.4063,2.7969 -4.6563,0.6758 -0.4062,-2.7969 -6.1387,0.8907 0.4043,2.7968 -1.6641,0.2422 -0.2929,-2.0156 -2.2618,0.3281 0.293,2.0156 0.3047,2.0997 0.4063,2.7968 2.3261,-0.3379 -0.4062,-2.7968 4.6562,-0.6758 0.4063,2.7969 6.1386,-0.8907 -0.4062,-2.7988 4.6562,-0.6758 0.4063,2.7988 6.1387,-0.8906 -0.4063,-2.7988 4.6563,-0.6758 0.4062,2.7988 6.1387,-0.8906 4.6562,-0.6777 6.1387,-0.8906 -0.4043,-2.7969 4.6563,-0.6758 0.4062,2.7969 6.6563,-0.9649 0.055,0.377 -0.6993,0.1 1.5118,10.416 0.9863,-0.1426 1.1641,8.0117 -0.9883,0.1426 0.8828,6.0899 4.5137,-0.6563 0.1484,1.0293 -4.5117,0.6543 3.1113,21.4375 -2.2383,0.3242 0.7578,5.2129 -7.0742,1.0273 -2.6875,-2.0058 -0.2187,-0.1641 -0.3516,-0.2617 -0.084,-0.584 -0.1816,0.025 -0.045,-0.3066 -0.1192,-0.8262 -0.02,-0.1328 -0.3125,-0.2344 -0.3476,0.4668 -0.062,0.084 0.084,0.062 0.1425,0.9864 -0.1836,0.025 -0.5429,-0.4043 0.4101,-0.5508 -0.8632,-0.6446 a 0.68599557,0.68599558 0 0 0 -0.961,0.1387 0.68599557,0.68599558 0 0 0 0.1406,0.961 l 1.5254,1.1386 -0.2617,0.3516 -2.2461,0.3262 -2.1699,2.9062 -2.0449,0.2969 -0.1485,-1.0176 -4.8007,0.6953 0.1484,1.0196 -0.6406,0.092 -20.2578,2.9414 0.3964,2.7344 0.4434,3.0546 20.2598,-2.9394 -0.4434,-3.0547 9.377,-1.3613 2.9062,2.1699 2.668,-0.3867 0.2422,0.1797 0.098,0.6796 1.1679,-0.1699 1.0782,0.8067 a 0.68599557,0.68599558 0 0 0 0.9609,-0.1407 0.68599557,0.68599558 0 0 0 -0.1387,-0.9589 l -0.7578,-0.5664 -0.4883,-0.3653 -0.3652,0.4883 -0.1074,0.016 -0.2422,-0.1797 0.164,-0.023 2.17,-2.9082 5.1816,-0.7519 0.018,0.1171 2.5606,1.9121 0.076,0.5196 0.5195,-0.076 3.4395,2.5683 0.3027,-0.043 8.6172,59.3653 -3.9864,8.6484 -0.1035,-0.7168 -8.205,1.1895 0.3574,2.4589 -14.3125,2.0782 -0.2754,-1.9043 -2.3008,0.334 0.035,0.2441 -9.9199,1.4414 0.2598,1.7891 -0.4512,0.064 0.4043,2.7929 0.4511,-0.066 0.2598,1.7891 9.9219,-1.4395 -0.2422,-1.6582 16.6133,-2.4101 0.3574,2.457 8.2031,-1.1894 -0.375,-2.5899 0.3496,-0.051 -0.3066,-2.1054 5.0254,-10.9024 -3.4727,-23.9258 0.9375,1.2032 0.066,0.4511 0.2579,-0.035 0.3652,-0.055 0.1504,-0.022 2.334,16.0723 11.8086,-1.7149 -4.6836,-32.2558 -3.4551,0.5 -1.1582,-7.9805 -0.3418,-2.3457 5.5195,-0.8008 -1.625,-11.1914 -0.6738,0.098 -0.4356,-3.0039 1.3282,-0.1933 -4.6817,-32.2559 -5.9922,0.8692 -0.1504,-1.0293 3.2598,-0.4727 -1.1269,-7.7578 -1.0918,0.1582 -0.4434,-3.043 -2.2012,0.3203 -0.047,-0.332 4.0782,-0.5918 1.1367,-0.166 0.1582,-0.023 -0.3379,-2.336 -0.1602,0.023 -2.2617,-15.5859 1.418,-1.8984 0.5586,0.416 1.5156,-2.0313 -0.5566,-0.4179 19.6972,-26.3848 0.5586,0.416 1.5156,-2.0332 -0.5566,-0.416 1.416,-1.8985 15.1778,-2.2031 0.059,0.4082 4.8144,-0.6992 -0.1094,-0.7559 7.0371,-1.0214 0.1094,0.7558 14.6641,-2.1289 -0.1719,-1.1855 1.875,-0.2735 19.2402,-2.7929 0,-1.0664 -0.1328,-0.9102 -19.3926,2.8145 -0.1347,-0.9297 19.3926,-2.8145 -0.4219,-2.9101 -19.3926,2.8144 -0.1973,-1.3633 19.9961,-2.9023 0.2832,-0.041 0,-7.3125 -0.2968,0.043 -1.0254,0.1504 -0.2266,-1.5625 -2.7578,0.4004 -1.1172,-7.7051 3.2695,-0.4746 -0.3711,-0.4707 -1.2773,0.1855 -0.3867,-0.4707 -1.3848,0.2012 -2.3047,-15.875 2.7442,-0.3965 -0.074,-0.5156 -1.2774,0.1855 -0.3867,-0.4687 -1.1543,0.168 -1.0391,-7.1622 -2.4004,-16.5332 -0.3632,-2.5097 -0.8438,0.1211 0.3633,2.5097 -4.834,0.7032 2.4004,16.5332 -2.7012,0.3925 4.7598,32.7969 -20.5977,2.9902 -0.3613,-2.4824 -16.6523,2.418 0.3554,2.4434 -8.6601,1.2558 -2.1367,-14.7207 0.7422,-0.1074 -0.375,-2.5899 1.9921,-0.289 c 0,0 2.1392,-0.3111 1.8028,-2.6289 0,0 -0.1084,-0.7508 -0.6856,-1.1817 l -5.0039,-3.7343 1.2656,-0.1836 -0.1,-0.6817 -0.9375,-0.373 -0.088,0.2226 -0.2832,0.041 -1.4316,-9.875 a 1.0583494,1.0583494 0 0 1 -0.6562,-0.8281 1.0583494,1.0583494 0 0 1 0.3925,-0.9824 l -1.7812,-12.2695 a 1.0583494,1.0583494 0 0 1 -0.6543,-0.8301 1.0583494,1.0583494 0 0 1 0.3926,-0.9824 l -1.67,-11.4942 -0.1074,-0.75 -0.2148,-1.4766 -0.2891,-0.2578 -0.3848,0.4336 0.1875,0.166 0.025,0.1758 0.072,0.5 0.078,0.5352 -3.8378,0.5566 -0.1211,-0.834 -2.8731,-2.5625 z m -16.5918,186.1425 0.6641,4.5684 -1.5977,0.2324 0.961,6.6231 1.5976,-0.2325 0.3399,2.3457 3.58,-0.5195 1.1583,7.9824 -4.1973,0.6094 2.2851,15.7324 -0.2539,0.037 -1.0254,-1.3125 -0.1367,-0.9511 -0.4531,0.066 -5.0606,-34.8711 2.1387,-0.3106 z"
       id="rect4681" />
    <path
       style="display:inline;opacity:1;fill:#000000;fill-opacity:0.49803922;stroke:none;stroke-width:1.5;stroke-linejoin:miter;stroke-miterlimit:4;stroke-dasharray:none;stroke-dashoffset:0;stroke-opacity:1"
       d="m -336.63477,1643.2676 -6.70703,2.3008 -27.38867,9.3964 1.63672,4.7715 0.17187,-0.059 0.10938,0.3203 0.56055,-0.1914 3.10937,9.0625 1.22461,-0.4199 0.44727,-0.916 -2.875,-8.3809 1.05273,-0.3613 -0.11133,-0.3203 15.72071,-5.3926 0.10937,0.3203 1.6836,-0.5781 3.10937,9.0625 1.22266,-0.4199 0.44921,-0.9141 -2.875,-8.3808 1.36329,-0.4688 -0.11133,-0.3203 3.02734,-1.0391 -0.99023,-2.8867 5.42773,-1.8613 14.82617,10.9902 7.9336,23.127 27.18359,13.164 4.49219,9.0938 6.11719,2.9629 -16.83789,34.7695 6.52929,19.0332 10.03711,-3.4433 -5.77929,-16.8438 15.02929,-31.0312 4.16211,-2.5489 6.1836,-1.0254 0.65429,-2.2773 12.79492,3.6699 0.33985,-1.1836 3.7207,1.0664 7.01563,-0.8515 -0.72461,-5.9785 1.36132,-0.1661 0.72461,5.9786 1.50391,-0.1817 15.57812,-1.8926 -0.56054,-4.6074 1.62304,-0.1972 -0.5957,-4.9102 -1.62304,0.1953 -1.67383,0.2051 -13.9043,1.6875 0.21875,1.8047 -1.50195,0.1836 -1.36133,0.164 -0.15234,-1.2539 -2.49805,0.3028 -0.13086,-1.0899 -1.59375,-0.041 -2.75391,-0.6406 -0.87109,-0.8555 -5.21289,-1.4941 0.11719,-0.4024 -1.2754,-0.3652 -0.11523,0.4004 -0.65234,-0.1875 1.4082,-4.9063 22.125,-2.6875 0.32813,2.7012 -0.78321,0.094 -0.0391,-0.3085 -5.23633,0.6367 0.10742,0.8965 -0.78515,0.094 0.38867,3.2109 0.78711,-0.096 0.10937,0.8965 5.23633,-0.6367 -0.0371,-0.3086 9.84961,-1.1953 -0.53125,-4.3848 -7.40625,0.8985 -0.32617,-2.7012 15.55859,-1.8887 -1.29687,-10.6855 -13.50781,1.6406 -11.57618,1.4063 -0.01,0 -2.75977,0.1445 -2.5332,0.062 -2.97656,-0.053 -2.54688,-0.1309 0.4336,-8.0566 -2.94532,-0.1563 -2.38867,-0.3086 -3.00586,-0.6465 -0.50781,2.3614 -1.76758,-0.3809 -1.0957,-0.2969 -1.09766,-0.2988 -1.71484,-0.5645 0.75586,-2.2949 -2.91992,-0.9629 -2.21485,-0.9433 -2.62109,-1.3535 -2.31836,4.4882 -1.91602,-0.8554 -2.54687,-1.6094 0.15039,-0.1992 -5.94727,-4.4278 -1.30664,1.7559 1.23438,0.918 -2.47852,3.3281 0.74219,0.5527 a 11.18038,11.18038 0 0 0 -0.87109,7.8789 l -1.125,0.3262 -0.88868,1.3359 -1.125,1.0664 -1.32226,0.8985 0.77539,1.2168 1.10937,0.3183 -0.2207,0.7657 0.69336,0.1992 -0.39453,1.3711 -7.26953,-2.0879 1.25976,-4.3867 -4.8164,-3.7598 -4.55469,-4.9414 -2.04883,1.8867 -3.59375,-3.8984 -3.12695,-4.0821 -2.68945,-3.9687 -1.9043,1.2891 0.54297,0.8007 0.93554,-0.6347 0.20508,0.3008 -2.41015,1.6328 -1.14258,-1.6895 -2.11328,1.4317 -1.30274,-3.7969 -2.46484,0.8457 0.49023,1.4297 -16.39258,-12.1504 z m 294.244145,28.8554 c -0.372418,0.1278 -0.74477,0.257 -1.117187,0.3848 l 3.585937,10.4512 0.08398,-0.029 5.15625,15.0293 c -4.2802,1.4813 -8.692393,2.9901 -12.371093,4.2519 l -0.203125,-0.5898 1.724609,-0.5918 -2.640625,-7.6973 c -3.0744,1.0547 -6.148256,2.1094 -9.222656,3.1641 l 0.335937,0.9805 -0.982422,0.3379 -0.185546,-0.5411 -3.134766,1.0743 -0.150391,-0.4395 -35.613281,12.2188 -0.482422,-1.4063 c -11.791394,4.0453 -23.257324,7.9809 -33.486324,11.4902 l -4.62891,-1.5957 c -0.2774,0.095 -0.53777,0.1843 -0.82617,0.2832 l 0.24024,0.7032 0.76171,-0.2618 -0.082,-0.2441 4.19336,1.4453 1.57813,4.5996 -3.39844,3.3535 0.24024,0.7012 0.76171,-0.2617 -0.125,-0.3652 0.22657,-0.078 -0.0879,-0.2578 -0.22657,0.078 3.29102,-3.246 0.76562,-0.2618 1.26172,3.6758 0.33985,-0.1172 0.79687,2.3242 -0.33984,0.1172 0.94726,2.7618 -2.90234,0.996 0.37891,1.1016 2.90234,-0.9961 0.74219,2.166 5.61914,-1.9277 -0.91016,-2.6504 2.19727,-0.7539 -0.29493,-0.8594 -0.83203,0.2852 -0.53515,-1.5586 -0.94336,0.3242 -0.33008,-0.9609 4.11328,-1.4102 1.63281,4.7637 0.85157,-0.293 -0.1875,-0.5469 1.55859,-0.5351 -0.32422,-0.9434 -1.55859,0.5352 -1.12305,-3.2735 8.875,-3.0449 1.45703,4.2461 -1.56054,0.5352 0.32421,0.9433 2.41016,-0.8261 -1.7793,-5.1895 8.874999,-3.0449 1.455078,4.2461 -1.558593,0.5351 0.324218,0.9434 2.410156,-0.8281 -1.78125,-5.1875 2.09961,-0.7207 c 2.4122,1.1798 4.824228,2.3592 7.236328,3.539 l 0.777344,2.2696 0.570312,0.2793 1.503906,-0.5176 0.279297,-0.5703 -1.585937,-4.6211 0.466797,-0.9532 31.289062,-10.7343 0.140625,0.4101 0.822266,-0.2812 0.214844,0.6211 -0.365235,0.125 0.234375,0.6855 0.365235,-0.125 1.240234,3.6133 -0.365234,0.125 0.439453,1.2812 1.664062,-0.5722 -0.439453,-1.2793 -0.365234,0.125 -1.541016,-4.4961 0.363281,-0.125 -0.234375,-0.6856 -0.365234,0.125 -0.953125,-2.7812 c 6.1718,-2.1189 12.89765,-4.4327 18.34375,-6.3008 l 3.123047,1.5274 0.136719,0.3984 c -0.1534,0.053 -0.307638,0.1037 -0.460938,0.1562 l 0.292969,0.8536 0.287109,-0.1 1.964844,5.7265 -0.306641,0.1055 0.205079,0.5957 1.552734,-0.5332 -0.205078,-0.5957 -0.306641,0.1054 -1.964844,-5.7265 0.148438,-0.049 -0.292969,-0.8536 c 0.1166,-0.04 0.23291,-0.079 0.34961,-0.1191 -0.048,-0.1396 -0.101432,-0.2963 -0.144532,-0.4219 -0.1166,0.04 -0.232909,0.081 -0.349609,0.1211 l -0.134766,-0.3945 c -1.2614,-0.617 -2.669447,-1.3052 -3.810547,-1.8633 l -0.0098,0 -2.001953,-5.8359 c 0.1882,-0.065 0.289209,-0.2689 0.224609,-0.4571 -0.065,-0.1882 -0.270684,-0.2892 -0.458984,-0.2246 -0.9536,-2.7797 -1.900357,-5.5425 -2.722657,-7.9394 l 0.339844,-0.1172 -0.123047,-0.3613 -0.341797,0.1171 -0.07227,-0.2089 0.08398,-0.029 -3.291015,-9.5957 0.257812,-0.088 -0.296875,-0.8614 z m -1.117187,0.3848 -0.002,-0.01 0,0.01 c 0,0 0.002,0 0.002,0 z"
       id="rect4151"
       transform="translate(-1001,400.99999)"
       inkscape:connector-curvature="0" />
    <path
       style="display:inline;opacity:1;fill:#000000;fill-opacity:0.49803922;stroke:none;stroke-width:2.52657104;stroke-linejoin:miter;stroke-miterlimit:4;stroke-dasharray:none;stroke-dashoffset:0;stroke-opacity:1"
       d="m 24.75,1210.0879 -0.429688,0.4629 1.964844,1.8183 -1.707031,1.8438 -1.464844,1.584 3.212891,2.9746 1.464844,-1.584 5.792968,5.3633 -0.74414,2.9472 -0.966797,1.5157 -3.830078,0.9746 0.359375,1.4101 -1.492188,-0.3672 -5.248047,21.3282 -1.908203,7.7539 -1.77539,7.2207 -0.46875,1.9043 -0.773438,3.1406 -1.355469,5.5078 -2.53125,10.2871 -7.6992184,13.1055 1.8183594,-0.3301 2.0585938,1.209 1.0410152,-1.7734 1.650391,-0.2989 3.386719,1.9903 a 0.45150745,0.45150745 0 0 0 0.160156,0.6172 l 2.099609,1.2343 0.228516,-0.3886 4.318359,2.5371 0.179688,-0.3086 2.304687,1.3535 0.03711,-0.062 3.871094,2.8652 -0.929688,3.7754 -0.259766,1.0567 -0.933593,0.9746 -0.431641,0.4492 -1.287109,1.3418 -0.464844,-0.4473 -3.568359,3.7188 0.935546,0.8984 -0.46289,0.4844 1.076172,1.0332 1.304687,-1.3594 2.263672,-2.3594 1.009766,-1.0527 0.708984,-0.7383 -0.744141,3.0235 -0.707031,2.873 -2.966797,1.7695 -8.333984,4.9668 0.429687,0.7207 -1.25,0.7442 -1.875,1.1172 -0.443359,0.2636 -2.5917969,4.6387 1.1777344,0.6582 2.4160155,-4.3223 0.132813,-0.08 1.503906,-0.8946 1.621094,-0.9668 7.974609,-4.7519 4.111328,-2.4512 1.503906,-6.1113 1.117188,0.2754 1.90625,-7.7442 -1.003906,-0.7441 0.707031,-2.8711 -1.310547,-0.3223 -1.328125,-0.3261 0.09766,-0.4004 1.47461,0.3633 0.111328,-0.4551 -0.873047,-0.2168 0.08398,-0.3457 0.333985,-0.3379 0.392578,-0.3985 -1.183594,-1.166 1.460938,-5.9394 1.93164,0.4746 -0.208984,0.8496 1.197265,0.2949 0.208985,-0.8496 0.07813,-0.3223 0.05469,-0.2207 -3.128906,-0.7695 0.388672,-1.584 1.820312,0.4473 2.97461,-12.0918 0.371094,0.09 0.326171,-1.3242 1.478516,0.3633 0.763672,-3.1016 1.287109,0.3184 0.427735,-1.7363 1.308593,0.3222 a 0.45150745,0.45150745 0 0 0 0.546875,-0.33 0.45150745,0.45150745 0 0 0 -0.330078,-0.5469 l -1.310547,-0.3223 0.427735,-1.7363 -1.28711,-0.3184 0.763672,-3.0996 -7.105469,-1.748 0.0332,-0.211 -0.591797,-0.092 1.134765,-7.2148 0.632813,0.1543 -0.367188,1.4922 9.025391,2.2207 0.949219,-3.8574 1.046875,-4.252 0.623047,-2.5352 0.777343,2.1465 a 9.9655111,9.9655111 0 0 0 1.716797,-0.7773 l 0.441407,0.6875 a 0.45150745,0.45150745 0 0 0 0.623046,0.1367 0.45150745,0.45150745 0 0 0 0.136719,-0.625 L 49.9375,1255.916 a 9.9655111,9.9655111 0 0 0 3.886719,-5.6211 l 0.002,0 a 9.9655111,9.9655111 0 0 0 0.322266,-2.5078 9.9655111,9.9655111 0 0 0 -0.980469,-4.2891 l 0.720703,-0.3847 a 0.45150745,0.45150745 0 0 0 0.185547,-0.6113 0.45150745,0.45150745 0 0 0 -0.611328,-0.1856 l 0.738281,-0.3945 c 0,0 -0.283172,-2.125 -2.951172,-5.6797 l 0.552734,-0.5977 0.748047,-0.8066 -0.513672,-0.4746 -0.748047,0.8066 -0.355468,-0.3281 -0.421875,0.457 c -0.7222,-0.8862 -1.582228,-1.8461 -2.611328,-2.873 l 0.02148,-0.024 0.132813,-0.1425 0.296874,-0.3203 0.517579,-0.5606 -0.763672,-0.707 -0.519531,0.5586 -2.449219,-2.2676 1.158203,-1.25 -2.042969,-1.8906 -1.15625,1.25 -2.167969,-2.0059 -2.6875,-2.4902 -8.314453,-7.6953 -3.21289,-2.9747 -1.962891,-1.8183 z m 6,56.834 2.007812,0.4941 -0.224609,1.4336 -0.0098,0.062 -2.134766,-0.5234 0.361328,-1.4668 z m 0.576172,14.2929 0.908203,0.2247 -1.091797,4.4394 -0.910156,-0.2246 1.09375,-4.4395 z m 2.21875,0.5469 0.666016,0.1641 -1.091797,4.4375 -0.666016,-0.1621 1.091797,-4.4395 z m -2.792969,6.0684 1.080078,0.2656 -1.796875,7.3066 -2.644531,-0.6523 0.04687,-0.078 1.681641,-4.4942 0.423828,-1.7168 0.96289,0.2383 a 0.45150745,0.45150745 0 0 0 0.544922,-0.3301 0.45150745,0.45150745 0 0 0 -0.298828,-0.539 z m 2.390625,0.5879 0.509766,0.125 -1.085938,4.4121 -0.509765,-0.125 1.085937,-4.4121 z m -6.046875,6.8359 2.804688,0.6914 -1.269532,5.1602 -3.15039,-3.1016 0.632812,-1.0801 0.753907,0.4434 a 0.45150745,0.45150745 0 0 0 0.617187,-0.1602 0.45150745,0.45150745 0 0 0 -0.160156,-0.6191 l -0.751953,-0.4414 0.523437,-0.8926 z m -1.908203,3.2481 3.289062,3.2363 -1.019531,4.1387 -2.302734,-1.7051 -0.138672,-0.1016 0.859375,-1.4629 -1.060547,-0.623 0.289063,-0.4942 -1.242188,-0.7304 1.326172,-2.2578 z m 4.40625,4.3378 0.548828,0.5391 -0.521484,0.5293 0.152344,-0.6191 -0.273438,-0.068 0.09375,-0.3809 z m -1.695312,3.3653 0.78125,0.1914 0.002,0 -0.08203,0.3281 -0.701171,-0.5195 z m 1.605468,0.3945 0.814453,0.1992 0,0 -0.248047,1.0117 -0.730468,-0.541 0.164062,-0.6719 z m 1.595703,2.6719 0.515625,0.3828 -1.68164,6.8398 -0.576172,-0.1425 1.742187,-7.0801 z m -3.214843,3.9082 -0.212891,0.8711 -1.017578,1.0605 -0.871094,0.9082 -0.847656,0.8828 -0.324219,-0.3105 0.464844,-0.4844 1.716797,-1.791 1.091797,-1.1367 z M 373.3125,1445.2969 a 0.45150745,0.45150745 0 0 0 -0.41602,0.3554 0.45150745,0.45150745 0 0 0 -0.01,0.076 l -0.0625,1.4317 a 79.890494,79.890494 0 0 0 -12.76758,0.621 l -0.19531,-1.5058 a 0.45150745,0.45150745 0 0 0 -0.50391,-0.3906 0.45150745,0.45150745 0 0 0 -0.38086,0.3398 0.45150745,0.45150745 0 0 0 -0.01,0.166 l 0.1914,1.4903 a 79.890494,79.890494 0 0 0 -10.02343,1.9355 l -0.4961,-1.7637 a 1.0435307,1.0435307 0 0 0 -1.28711,-0.7207 1.0435307,1.0435307 0 0 0 -0.7207,1.2871 l 0.51562,1.8321 a 79.890494,79.890494 0 0 0 -13.20312,5.1582 l -0.6582,-1.2891 a 0.45150745,0.45150745 0 0 0 -0.60547,-0.1973 0.45150745,0.45150745 0 0 0 -0.23828,0.3125 0.45150745,0.45150745 0 0 0 0.0391,0.295 l 0.67383,1.3203 a 79.890494,79.890494 0 0 0 -10.8418,6.7656 l -0.89648,-1.1973 a 0.45150745,0.45150745 0 0 0 -0.63282,-0.092 0.45150745,0.45150745 0 0 0 -0.16797,0.2598 0.45150745,0.45150745 0 0 0 0.0781,0.3731 l 0.87695,1.1738 a 79.890494,79.890494 0 0 0 -1.06054,0.8887 l -4.20508,-5.2422 -1.42774,-1.7774 0.9961,-0.7988 -0.58399,-0.7285 -0.99609,0.7988 -1.44922,1.1641 1.42578,1.7773 -1.45898,1.1699 -0.72657,-0.9062 -0.72851,0.584 1.31055,1.6347 0.72851,-0.5839 1.45899,-1.17 0.47265,-0.3789 4.22071,5.2637 a 79.890494,79.890494 0 0 0 -7.70118,7.2129 l -12.57812,-3.084 a 1.6427846,5.2578816 13.773 0 0 -0.76563,-2.6738 l -0.75586,-0.1856 0.8125,-3.3086 -1.21875,-0.2988 -3.56836,-0.875 -1.21875,-0.2988 -4.61718,-1.1328 0.82226,-3.3594 -1.80469,-0.4414 -0.60156,2.4531 -1.91992,-0.4707 -0.22266,0.9063 2.33985,0.5722 -0.29883,1.2188 6.00586,1.4707 -0.51367,2.0918 -33.89063,-8.3067 1.34961,-1.8867 5.4668,1.3399 0.29883,-1.2168 0.82422,-3.3594 -1.80664,-0.4434 -0.82227,3.3594 -4.48633,-1.0996 0,0 -2.13476,2.9825 -1.00391,-0.2461 -0.51367,-3.6328 -5.83594,-1.4317 0.82227,-3.3574 -1.80469,-0.4434 -0.82422,3.3594 0.39453,0.096 -0.29883,1.2188 6.42383,1.5742 0.32422,2.2969 -1.55664,-0.3809 a 6.8485662,5.2578816 13.773 0 0 -7.90235,3.4766 6.8485662,5.2578816 13.773 0 0 -0.10742,0.8652 l -12.0039,-2.9414 -0.71289,-0.1758 -0.20508,0.8399 -0.51563,2.0996 0.71485,0.1757 0.29297,-1.1972 2.30859,0.5664 0.12891,-0.5254 0.60937,0.1504 -0.30859,1.2598 0.71289,0.1738 0.30859,-1.2598 8.8418,2.168 a 6.8485662,5.2578816 13.773 0 0 5.33594,4.5371 l 2.8164,0.6914 -0.63281,2.582 0.90625,0.2227 0.17969,0.045 -0.0234,0.1 -3.07813,-0.7539 -2.23046,-0.5469 -0.44141,1.8067 3.11914,0.7636 0.2207,-0.8984 2.1875,0.5352 0.90625,0.2226 0.46875,-1.914 -0.90625,-0.2227 -0.18164,-0.045 0.41211,-1.6758 4.38086,1.0742 -0.63281,2.584 0.90625,0.2207 2.375,0.582 -0.0254,0.1016 -2.21485,-0.543 -0.44335,1.8047 3.12109,0.7656 0.44336,-1.8046 0.24609,-1.0079 -0.90625,-0.2226 -2.37305,-0.582 0.41211,-1.6758 20.08008,4.9219 -0.6582,2.6835 -6.07422,-1.4882 -1.88086,-0.461 -0.44336,1.8047 3.1211,0.7656 0.2207,-0.8984 4.83398,1.1836 0.90625,0.2226 0.88086,-3.5917 7.86328,1.9277 -0.6582,2.6855 -3.12109,-0.7656 -0.44141,1.8067 3.11914,0.7636 0.2207,-0.8984 0.90625,0.2226 0.88086,-3.5918 7.06446,1.7325 a 1.6427846,5.2578816 13.773 0 0 1.91797,-2.0176 l 9.6582,2.3672 a 79.890494,79.890494 0 0 0 -11.00586,17.9726 l -2.70703,6.2012 -1.22656,5.0039 -8.03516,4.1641 -8.50391,34.6933 3.83594,6.3262 -0.19531,0.7949 -5.45313,-1.3359 1.48633,-6.0664 -0.58594,-0.1426 9.31836,-38.0215 -1.75781,-0.4316 -0.0312,0.1289 -0.57227,-0.1406 -1.60351,6.5429 0.57227,0.1407 -0.98633,4.0214 -0.57227,-0.1406 -1.60351,6.543 0.57226,0.1406 -0.98633,4.0215 -0.57226,-0.1406 -1.60352,6.5429 0.57227,0.1407 -0.98633,4.0214 -0.57031,-0.1386 -1.60547,6.5429 0.57226,0.1387 -0.31445,1.2871 -0.68359,2.7852 -0.57227,-0.1406 -2.2832,9.3164 0.57226,0.1406 -3.16797,12.9238 -17.08203,-4.1875 0.13868,-0.5723 -7.125,-1.746 -0.13868,0.5703 -3.40039,-0.8321 0.14063,-0.5722 -7.12695,-1.7461 -0.13868,0.5703 -3.40039,-0.832 0.14063,-0.5723 -7.125,-1.7461 -0.14063,0.5723 -3.40039,-0.834 0.14063,-0.5723 -7.125,-1.7461 -0.14063,0.5723 -0.17773,-0.045 -0.2461,1.0019 -5.23242,-1.2832 -0.32812,1.3438 0.002,0 0.18555,0.045 -0.14063,0.5723 1.87305,0.459 0.14062,-0.5723 3.17383,0.7774 2.98828,0.7324 -0.13867,0.5723 4.31445,1.0585 0.13868,-0.5722 8.65234,2.1211 -0.14062,0.5722 1.87304,0.459 0.14063,-0.5722 6.21093,1.5214 -0.14062,0.5723 4.31445,1.0586 0.14063,-0.5723 28.90039,7.084 -3.03711,12.3867 -0.57227,-0.1386 -0.52929,2.1621 -0.32032,-0.078 -0.80468,3.2871 0.31836,0.078 0.57226,0.1406 -0.0488,0.1992 1.34375,0.3301 4.42188,-18.0391 5.16211,1.2657 2.94726,0.7226 9.53907,2.3379 -0.14063,0.5723 11.57031,2.8359 0.14063,-0.5703 0.0586,-0.2461 -0.41992,-0.1035 0.0781,-0.3184 0.41993,0.1036 0.45507,-1.8536 -0.41992,-0.1035 0.0781,-0.3183 0.41992,0.1035 0.45313,-1.8535 -0.41993,-0.1035 0.0781,-0.3184 0.41992,0.1035 0.45508,-1.8535 -0.41992,-0.1035 0.0781,-0.3184 0.41992,0.1035 0.45508,-1.8554 -0.42187,-0.1016 0.0781,-0.3184 0.42188,0.1016 0.45312,-1.8535 -0.41992,-0.1016 0.0781,-0.3203 0.41993,0.1035 0.45507,-1.8535 -0.42187,-0.1016 0.0781,-0.3183 0.42188,0.1016 0.45312,-1.8536 -0.41992,-0.1035 0.0781,-0.3183 0.41992,0.1035 0.45508,-1.8535 -0.41992,-0.1036 0.0781,-0.3183 0.41992,0.1035 0.45313,-1.8535 -0.41992,-0.1035 0.0781,-0.3184 0.41992,0.1035 0.45508,-1.8535 -0.41992,-0.1035 0.0781,-0.3184 0.41993,0.1036 0.45507,-1.8536 -0.42187,-0.1035 0.0781,-0.3183 0.42188,0.1035 0.45312,-1.8555 -0.41992,-0.1016 0.0781,-0.3183 0.41992,0.1015 0.45508,-1.8535 -0.42188,-0.1015 0.0781,-0.3184 0.42187,0.1016 0.45313,-1.8535 -0.41993,-0.1016 0.0781,-0.3184 0.41992,0.1016 0.45508,-1.8535 -0.41992,-0.1035 0.0781,-0.3184 0.41993,0.1035 0.45312,-1.8535 -0.41992,-0.1035 0.0781,-0.3184 0.41992,0.1036 0.45508,-1.8536 -0.41992,-0.1035 0.0781,-0.3183 0.41992,0.1035 0.45508,-1.8535 -0.42188,-0.1036 0.0781,-0.3183 0.41992,0.1035 0.0605,-0.2461 0.14063,-0.5723 -11.56836,-2.8359 -0.14062,0.5723 -0.96875,-0.2364 0.14062,-0.5722 -9.73437,-2.3867 -0.14063,0.5722 -1.78516,-0.4375 -3.52734,14.3926 -2.46484,-4.0664 0.32422,-1.3223 -0.55274,-0.1367 8.04688,-32.8281 4.36328,-2.2617 -3.29883,13.455 4.95117,1.2129 2.5957,-10.5859 1.80469,0.4414 2.15039,-8.7754 6.11524,-3.1699 1.38086,0.6035 0.60742,-1.3926 3.00195,1.3106 0.54688,-1.252 10.17578,4.4434 a 54.249547,54.249547 0 0 1 62.58398,-31.0078 l 1.95899,-7.9922 a 62.479296,62.479296 0 0 1 2.14062,0.6152 l 1.14258,-4.0273 a 66.693687,66.693687 0 0 1 1.25781,0.375 l 0.58399,-1.918 a 68.701822,68.701822 0 0 0 -1.29688,-0.3867 l 1.34375,-4.7442 a 73.63793,73.63793 0 0 1 6.21094,2.045 l 0.80469,-2.1114 a 75.898432,75.898432 0 0 0 -6.39844,-2.1054 l 1.08594,-3.8379 a 79.890494,79.890494 0 0 0 -2.73047,-0.8145 79.890494,79.890494 0 0 0 -15.08008,-2.1679 l 0.0645,-1.4551 a 0.45150745,0.45150745 0 0 0 -0.43164,-0.4707 0.45150745,0.45150745 0 0 0 -0.0449,0 z m -79.83789,17.7383 3.57031,0.875 -0.51367,2.0918 -3.56836,-0.875 0.51172,-2.0918 z m 9.01953,36.0605 2.11524,0.9238 -5.90821,3.0625 0.28125,-1.1484 0.80078,-1.8301 1.90821,0.832 0.80273,-1.8398 z m -10.26758,8.8047 -0.0156,0.068 -0.0762,-0.02 0.0918,-0.049 z m -19.95312,51.1738 5.45312,1.336 -3.28125,13.3867 -5.45312,-1.3379 0.24609,-1 3.03516,-12.3848 z"
       id="path4135"
       inkscape:connector-curvature="0"
       transform="translate(-1001,400.99999)" />
    <path
       transform="translate(372.4286,-97.07647)"
       style="display:inline;opacity:1;fill:#000000;fill-opacity:0.49803922;stroke:none;stroke-width:1.5;stroke-linejoin:miter;stroke-miterlimit:4;stroke-dasharray:none;stroke-dashoffset:0;stroke-opacity:1"
       d="m -1499.9988,1776.156 a 1.8139107,1.8139107 0 0 0 -1.7364,1.5039 1.8139107,1.8139107 0 0 0 1.4785,2.0977 1.8139107,1.8139107 0 0 0 0.8282,-0.051 l 1.4824,1.1113 2.7812,2.7031 a 7.3807453,7.3807453 0 0 0 -1.5507,3.3946 7.3807453,7.3807453 0 0 0 -0.1016,1.5351 l -0.9805,-0.1992 a 1.1884242,1.1884242 0 0 0 -0.209,-0.057 1.1884242,1.1884242 0 0 0 -0.1445,-0.016 l -0.061,-0.012 0,0.01 a 1.1884242,1.1884242 0 0 0 -1.1699,0.9844 1.1884242,1.1884242 0 0 0 0.9687,1.375 1.1884242,1.1884242 0 0 0 0.5196,-0.027 l 0,0 a 1.1884242,1.1884242 0 0 0 0.4082,-0.207 l 0.8535,-0.4317 a 7.3807453,7.3807453 0 0 0 4.7109,5.2618 l -0.4922,0.748 a 1.1884242,1.1884242 0 0 0 -0.1972,0.3008 l -0.033,0.051 0.01,0 a 1.1884242,1.1884242 0 0 0 -0.066,0.2363 1.1884242,1.1884242 0 0 0 0.9668,1.375 1.1884242,1.1884242 0 0 0 1.375,-0.9668 1.1884242,1.1884242 0 0 0 0.01,-0.072 l 0,0 a 1.1884242,1.1884242 0 0 0 -0.041,-0.4609 l -0.076,-0.8653 a 7.3807453,7.3807453 0 0 0 5.6348,-1.5546 l 3.4492,4.2949 1.1738,-0.9434 6.3867,6.291 0.1016,1.6817 2.4902,-0.1465 -1.039,1.5156 -2.6172,-0.8476 c 0,0 -4.8659,-1.5759 -5.6543,2.9668 l -0.6641,3.8203 2.0039,0.3476 -0.7011,4.0371 -4.6211,-0.8027 -0.793,4.5606 4.623,0.8027 -0.1172,0.6777 8.0118,1.3906 -0.5996,3.4512 1.2636,0.2188 -0.7441,4.2832 0.3691,0.064 -0.1386,0.8007 3.0996,14.8379 0,0 4.4199,-0.9238 -1.5215,-7.2871 1.1406,0.1992 -0.7832,-3.7558 0.4707,-2.711 0.3086,-1.7871 0.4336,-2.4961 0.2031,-1.1699 1.9688,-11.3399 -4.9297,-0.8554 0.037,-0.2168 0.7109,-4.1016 0.6856,-1.5234 -0.793,-0.3574 0.3965,-0.8829 0.1699,0.1172 0.064,-0.3691 4.8066,0.834 0.2149,-1.2305 13.7305,2.3828 -0.7813,4.4981 28.4219,4.9316 0.7812,-4.498 7.211,1.2519 -0.096,0.5527 2.2793,0.3965 0.7382,-4.2519 -2.2793,-0.3965 0.5762,-3.3281 9.1836,1.5937 0.4375,-2.5254 -4.498,-0.7812 1.5605,-8.9981 -24.6504,-4.2773 0.1289,-0.7402 -35.6816,-6.1934 -0.1289,0.7402 -12.8184,-2.2246 -0.4804,2.7656 -4.168,-0.033 a 7.3807453,7.3807453 0 0 0 -2.1211,-5.2343 l 0.8262,-0.4961 a 1.1884242,1.1884242 0 0 0 0.3711,-0.2227 l 0.037,-0.023 -0.01,-0.01 a 1.1884242,1.1884242 0 0 0 0.3535,-0.6562 1.1884242,1.1884242 0 0 0 -0.9688,-1.375 1.1884242,1.1884242 0 0 0 -1.373,0.9687 1.1884242,1.1884242 0 0 0 -0.01,0.037 l -0.3242,0.8633 a 7.3807453,7.3807453 0 0 0 -2.8965,-1.1836 7.3807453,7.3807453 0 0 0 -1.3106,-0.1016 l 0.2305,-0.9726 a 1.1884242,1.1884242 0 0 0 0.07,-0.2441 1.1884242,1.1884242 0 0 0 0.014,-0.1094 l 0.014,-0.059 -0.012,0 a 1.1884242,1.1884242 0 0 0 -0.9844,-1.2051 1.1884242,1.1884242 0 0 0 -1.3731,0.9668 1.1884242,1.1884242 0 0 0 0.018,0.4844 l 0,0 0,0.01 a 1.1884242,1.1884242 0 0 0 0.1934,0.4121 l 0.4063,0.8691 a 7.3807453,7.3807453 0 0 0 -3.3477,1.6387 l -2.7812,-2.7031 -1.1524,-1.4493 a 1.8139107,1.8139107 0 0 0 0.035,-0.1601 1.8139107,1.8139107 0 0 0 -1.4765,-2.0957 1.8139107,1.8139107 0 0 0 -0.3614,-0.027 z m 40.1503,66.7422 -0.7851,4.5195 -1.961,-0.3398 -0.5878,3.3906 -7.8653,2.1992 c -0.623,-1.3551 -1.5659,-2.5396 -2.748,-3.4492 l -2.9219,-0.5058 -0.2168,1.2519 -2.5898,-0.4511 0.2187,-1.25 -2.9336,-0.5098 c 0,0 -0.2423,1.3943 0.3379,2.707 0,0 0.7294,1.496 0.461,3.043 l -0.1954,1.125 c -0.3326,0.3939 -0.5567,0.8692 -0.6465,1.3769 -0.1883,1.0869 0.253,2.1884 1.1387,2.8457 l -0.6465,3.7149 -2.9316,-0.5078 c 0,0 -0.2423,1.3943 0.3379,2.707 0,0 0.7294,1.496 0.4609,3.043 l 1.1875,0.2051 -1.3594,7.8339 -0.7968,-0.1386 -0.1504,0.871 -2.1348,-0.371 c 0,0 -0.2423,1.3943 0.3379,2.707 0,0 0.7275,1.496 0.459,3.043 l 1.1895,0.207 -1.0469,6.0293 -0.7969,-0.1387 -0.1504,0.8731 -2.1367,-0.3711 c 0,0 -0.2423,1.3943 0.3379,2.707 0,0 0.7294,1.496 0.4609,3.043 l 1.1875,0.205 -0.1406,0.8164 c -1.0841,0.3194 -1.894,1.2265 -2.0879,2.3399 -0.2805,1.6164 0.8035,3.155 2.4199,3.4355 1.6164,0.2806 3.1531,-0.8035 3.4336,-2.4199 l 0.1309,-0.75 2.1601,0.375 c 0,0 0.208,-1.203 -0.4004,-2.3535 0,0 -0.7587,-1.3129 -0.5273,-2.6465 l -0.418,-0.072 1.0469,-6.0312 2.1602,0.375 c 0,0 0.2079,-1.2012 -0.4004,-2.3516 0,0 -0.7588,-1.3129 -0.5274,-2.6465 l -0.416,-0.072 1.0215,-5.8945 2.1601,0.375 c 0,0 0.208,-1.2011 -0.4003,-2.3516 0,0 -0.7588,-1.3128 -0.5274,-2.6465 l -0.416,-0.072 1.1934,-6.8847 1.2753,0.2226 c 3.2576,-1.0443 5.6682,-3.8116 6.2559,-7.1816 0.1671,-0.9834 0.1729,-1.9873 0.018,-2.9727 l 2.6445,-0.7383 3.7051,0.6426 1.4824,0.2559 -0.4843,2.789 0.4785,0.084 8.2363,1.4297 2.375,0.4121 c 2.4526,2.9395 7.0938,3.7442 7.0938,3.7442 l 7.0156,1.2187 -0.2871,1.6563 1.9824,0.3437 -0.098,0.5664 -1.4609,-0.2539 -0.1543,0.8926 3.1816,0.5527 -0.2246,1.2852 0.8359,1.1328 2.4844,0.4317 -1.4141,8.1484 -3.4863,-0.6055 -0.2305,1.3301 -0.1699,0.9805 -0.082,0.4726 1.002,0.1739 0.082,-0.4727 2.4844,0.4316 -1.0996,6.3282 c 0,0 -0.8234,-0.1433 -1.0567,0.332 0,0 -0.1215,0.3752 -0.6308,0.4297 0,0 -0.5242,0.1 -0.5977,0.5234 l -0.7402,4.2617 -0.4805,-0.084 -1.5039,-0.2597 -0.8926,-0.1563 -0.1621,0.9375 -0.051,0.2832 0.8945,0.1563 0.049,-0.2832 1.504,0.2597 -0.2618,1.5039 1.1993,0.2071 -0.2051,1.1777 -0.5879,-0.1035 -0.3223,1.8535 1.875,0.3242 -1.1094,6.3848 -2.0039,-0.3477 c -0.2648,-0.046 -0.5166,0.1317 -0.5625,0.3965 -0.046,0.2648 0.1317,0.5166 0.3965,0.5625 l 1.0449,0.1797 -0.5371,3.0957 -0.4785,-0.084 -0.016,0.092 -0.4355,-0.076 -0.2012,1.1563 0.4355,0.076 -0.1914,1.1054 0.4805,0.082 0.957,0.168 -0.2832,1.6367 -0.7714,-0.1348 c -0.8365,0.5214 -1.0958,2.0157 -1.0958,2.0157 l -0.2792,-0.049 -0.6387,3.6758 -3.7637,-0.6544 -0.1484,0.8477 -0.053,0.3008 0.9492,0.164 0.053,-0.3007 2.8164,0.4882 -0.016,0.086 -2.1699,-0.3769 -0.1465,0.8476 2.1699,0.377 -1.7344,9.9824 1.3145,0.2285 -0.334,1.9258 1.1856,0.207 0.3339,-1.9257 3.6524,0.6328 -0.1485,0.8476 1.1094,0.1914 -0.2285,1.3262 1.0781,0.1875 0.377,-2.1738 0.072,-0.416 1.1679,-6.7325 0.1621,0.029 -0.7304,4.2129 0.4766,0.6778 0.6308,0.1093 0.832,-4.791 0.2168,0.037 0.3282,-1.8945 -1.586,-0.2754 0.025,-0.1543 0.9434,0.1641 0.6445,0.1113 0.6192,0.1074 0.1679,-0.9648 -0.6191,-0.1074 0.2988,-1.7227 3.5,0.6055 0.092,-0.2735 0.1855,-0.5507 0.043,-0.127 -0.7675,-0.1328 -0.043,0.1269 -2.8633,-0.4961 0.2148,-1.2402 0.832,0.1446 -0.1914,1.1093 0.8477,0.1465 0.3437,-1.9883 -0.4921,-0.084 0.068,-0.4004 -1.1856,-0.207 0.031,-0.1836 0.066,-0.3867 -0.832,-0.1445 c -0.2696,-0.8245 -0.7891,-1.8497 -0.7891,-1.8497 -0.3632,-0.6502 -0.1992,-1.6855 -0.1992,-1.6855 l 1.4785,0.2559 0.3086,-1.7715 0.7695,0.1347 0.8321,0.1446 0.6679,-3.8535 -0.832,-0.1426 0.5039,-2.8985 -1.9726,-0.3418 0.7636,-4.3964 1.9707,0.3418 0.3223,-1.8516 0.832,0.1445 0.375,-2.164 -0.832,-0.1426 0.6367,-3.668 -1.4473,-0.2519 0.5977,-3.4512 1.4492,0.2519 0.6465,-3.7285 0.832,0.1446 0.4473,-2.5723 -0.832,-0.1445 0.5215,-3.0039 -0.709,-0.1231 0.3847,-2.2187 0.709,0.123 0.5449,-3.1445 0.8321,0.1445 0.4082,-2.3496 -0.8321,-0.1445 0.2383,-1.3731 3.0567,0.5313 0.3066,-1.7657 0.1,-0.5664 0.3848,-2.2207 0.047,-0.2617 0.1172,-0.6758 1.2558,0.2188 1.5918,-1.1211 1.0156,0.1758 0.4336,-0.3047 0.5567,-3.2051 10.1992,1.7695 0.1016,-0.5839 10.3535,1.7968 0.7324,-4.2226 7.5801,1.3164 -0.2246,1.2929 -0.3711,2.1465 0.375,0.064 -3.418,19.6973 10.5938,1.8379 3.4179,-19.6953 0.3731,-2.1465 2.2578,0.3906 0,-5.8086 -1.2793,-0.2207 0.4648,-2.6816 c 0.053,-0.3063 -0.1527,-0.5972 -0.459,-0.6504 l -1.4472,-0.252 c 0.1285,-0.7403 -0.3671,-1.4438 -1.1074,-1.5722 l -7.627,-1.3242 -0.2324,1.3398 -7.5801,-1.3145 -0.123,0.709 -64.3399,-11.166 -0.074,0.4297 -3.6152,-0.627 z m -267.586,8.1992 -3.1386,0.6407 -8.1543,1.664 3.5117,17.2168 0.2051,1.0039 0.1875,0.9219 0.2285,-0.045 1.0469,5.127 c 0,0 0.2351,1.1542 -0.1953,2.25 l -0.7227,1.8378 0.8985,0.3516 -19.8829,50.6074 0.625,0.2461 c -2.0199,3.8692 -6.2304,6.7383 -6.2304,6.7383 l -13.0313,8.8711 0.7031,1.0312 -1.0449,-0.037 0,0.1543 0.3458,0.6895 -0.3458,0.2363 0,5.4473 0.1133,-0.076 0.8927,1.3066 -1.006,0.6856 0,9.9257 4.3439,-1.2187 2.6834,1.7031 2.4162,-1.6445 1.1581,1.6992 2.25,-1.5312 0.4394,0.6465 2.1758,-1.4825 0.3027,1.0762 -0.8125,0.2285 -2.4668,0.6973 -3.3125,0.9336 0.375,1.3242 3.3106,-0.9336 0.3047,1.084 2.4688,-0.6973 0.5352,1.8965 0.8125,-0.2285 2.3359,8.2754 -4.0996,7.3242 -1.7442,0.072 -9.336,13.9883 c 0.9966,0.6651 1.5723,0.3887 1.5723,0.3887 l 8.4493,-12.6602 0.041,0.027 -7.5859,13.5527 -1.5664,0.4414 0.4336,1.5352 -5.4844,1.9355 0,2.5078 1.8711,-0.6601 c -0.2602,0.9283 -0.3438,1.7295 -0.334,2.3984 l -1.5371,1.2344 0,3.7559 2.5,-2.0079 c 0.5711,0.5779 1.4238,0.7325 1.4238,0.7325 2.1363,0.1705 3.6549,-1.609 4.1934,-2.3535 l 2.1172,-0.5977 -5.5801,10.1074 c 1.4792,0.8168 1.6914,0.4903 1.6914,0.4903 0.2103,-0.2152 0.2129,-0.754 0.2129,-0.754 l 5.7598,-10.4316 12.7382,-3.5937 -0.8847,11.9804 c 0.6319,0.047 1.0342,0.022 1.291,-0.027 0.428,-0.082 0.4492,-0.2324 0.4492,-0.2324 0.1012,-0.2833 -0.1211,-0.7754 -0.1211,-0.7754 l 0.8418,-11.3906 0.2813,-0.078 2.789,-0.7871 4.6934,3.4609 1.1465,0.8477 2.5156,1.8535 1.3105,0.9687 0.7383,-1 -1.3125,-0.9668 1.0274,-1.3925 -3.6621,-2.7012 -0.3204,0.4336 -3.1738,-2.3399 2.916,-0.8242 1.1875,-1.0371 -0.1601,-0.1836 7.6894,-6.7226 -0.9687,-1.1114 -7.6914,6.7246 -0.377,-0.4336 -0.3691,0.3223 -1.9102,-6.7676 -0.7422,-2.6347 0.9922,-0.2793 1.5117,5.3574 1.5313,-0.4336 -1.5117,-5.3574 -0.2637,-0.9317 -1.5312,0.4317 -0.9922,0.2793 -4.6504,-16.4785 0.9922,-0.2793 1.5117,5.3574 1.5332,-0.4336 -1.5137,-5.3574 -0.2617,-0.9317 -1.5313,0.4317 -0.9941,0.2793 -2.0059,-7.1055 1.8731,-4.7695 10.6348,-7.2403 4.2421,-10.7988 11.1836,-3.2187 32.3575,-2.834 0.33,1.164 -8.998,2.5196 c 0.4556,1.6271 0.8379,1.5488 0.8379,1.5488 0.3008,0 0.6855,-0.377 0.6855,-0.377 l 7.8926,-2.2089 1.6797,5.9511 2.5879,-0.7304 1.6816,5.9609 -2.5879,0.7305 0.3575,1.2695 -6.9454,6.5 c 1.1545,1.2338 1.4571,0.9902 1.4571,0.9902 0.2664,-0.1396 0.4355,-0.6523 0.4355,-0.6523 l 5.5254,-5.1699 0.9375,3.3222 2.5879,-0.7304 2.3086,8.1816 -1.5176,0.4297 0.6113,2.1699 -0.4257,0.1211 0.6855,2.4258 -6.3808,6.4922 c 1.2053,1.1842 1.498,0.9277 1.498,0.9277 0.2603,-0.1507 0.4082,-0.6699 0.4082,-0.6699 l 4.9551,-5.043 4.5254,16.0332 2.0312,-0.5722 0.7403,2.9355 0.5429,2.1484 1.1113,4.4082 0.3555,-0.09 a 0.59354985,1.1663098 75.831323 0 0 -0.2226,0.4844 0.59354985,1.1663098 75.831323 0 0 1.2754,0.291 0.59354985,1.1663098 75.831323 0 0 0.9863,-0.8613 0.59354985,1.1663098 75.831323 0 0 -0.4258,-0.3203 l 0.3281,-0.084 -1.1133,-4.4063 -0.5195,-2.0605 -0.7793,-3.0879 0.1172,-0.033 1.8516,-0.5234 -1.0489,-3.7129 8.2071,4.3301 c 0.7886,-1.4944 0.459,-1.6993 0.459,-1.6993 -0.2191,-0.2061 -0.7598,-0.1992 -0.7598,-0.1992 l -8.4824,-4.4765 -1.9141,-6.7793 7.2031,-7.6367 c -1.2292,-1.1593 -1.5156,-0.8965 -1.5156,-0.8965 -0.2572,0.156 -0.3945,0.6777 -0.3945,0.6777 l -5.7793,6.1289 -2.1348,-7.5625 -1.8945,0.5332 -0.2813,-1 1.8926,-0.5332 -3.4687,-12.2949 8.4433,-0.1582 c -0.032,-1.6894 -0.4199,-1.711 -0.4199,-1.711 -0.2914,-0.075 -0.7598,0.1934 -0.7598,0.1934 l -7.6953,0.1445 -0.08,-0.2851 4.5762,-1.291 -0.9864,-3.4903 -3.5332,0.9961 -1.0547,-3.7383 0.3437,0.1075 6.2677,-9.8008 -0.295,-0.332 9.1875,-1.9473 -0.3008,-1.4277 1.5137,-0.3204 -0.1933,-0.9082 10.8008,-2.2871 2.7383,-0.5801 4.5,-4.1796 c -0.8624,-0.9286 -1.2495,-1.0241 -1.3887,-1.0137 -0.046,0 -0.064,0.018 -0.064,0.018 -0.267,0.1387 -0.4395,0.6504 -0.4395,0.6504 l -2.793,2.5937 -0.3867,-0.4179 -0.3125,0.066 -0.7363,-3.4785 -0.3574,-1.6875 -12.8947,2.7324 -1.8924,2.164 -1.3985,0.295 6.0098,-5.3379 -1.2306,-1.3867 -0.1678,0.1503 -0.7129,-0.8027 -2.2227,1.9746 0.7128,0.8028 -3.8809,3.4472 0.078,0.3711 -0.6192,0.1309 0.1172,0.5508 0.6192,-0.1309 0.1015,0.4844 -12.25,2.5957 -10.3262,-4.0586 c 0,0 -0.823,-2.7069 -3.3222,-6.0918 l 0.5566,0.039 0.6797,-9.8692 -1.7637,-0.121 -0.018,0.2929 -3.0977,-0.2129 -0.059,0.8223 3.0977,0.2129 -0.5118,7.4277 c -0.4284,-0.5093 -0.8911,-1.0268 -1.3964,-1.5469 l -3.4903,-5.9257 -3.4765,-1.3653 -3.6094,-16.6777 5.2617,-7.4824 -1.4199,-0.9981 -0.168,0.2403 -0.8945,-0.6289 -1.6817,2.3906 0.8946,0.6289 -2.4922,3.543 -0.668,-3.0879 -0.2187,0.047 -2.795,-12.9121 5.2989,-9.0372 -2.8692,-1.6816 -2.3144,0.3906 2.498,1.4649 -5.0879,8.6777 2.9434,13.6016 -1.668,0.3613 0.6328,2.9238 -1.6601,0.094 -0.3086,5.1992 -5.2383,-2.0566 1.4727,-3.7461 0.582,-1.4824 -4.0762,-1.6016 -0.582,1.4824 -12.7383,-5.0039 c 0,0 0.5554,-1.4148 0.252,-2.9023 l -1.0469,-5.127 0.2285,-0.047 -0.1875,-0.9238 3.7461,-0.7637 2.8203,-0.5742 3.1406,-0.6406 -1.2968,-6.3633 -3.1407,0.6406 -1.1211,-5.496 3.1387,-0.6407 -1.2969,-6.3633 z m 11.668,41.2598 3.6133,1.418 -0.1192,2.0078 -3.1035,-0.3262 -2.1992,5.5977 -0.051,-0.019 0.041,-2.836 -2.3477,-0.9218 0.5019,-1.2754 1.6465,0.6464 0.3711,-0.9472 0.2891,0.1133 1.3574,-3.4571 z"
       id="rect4158"
       inkscape:connector-curvature="0" />
  </g>
  <g
     inkscape:label="Grid"
     inkscape:groupmode="layer"
     id="layer1"
     transform="translate(1773.4285,-1698.0764)"
     style="display:inline">
    <rect
       style="opacity:1;fill:none;fill-opacity:1;stroke:#ffffff;stroke-width:2;stroke-linecap:butt;stroke-linejoin:round;stroke-miterlimit:4;stroke-dasharray:none;stroke-dashoffset:0;stroke-opacity:1"
       id="rect4136-7-8"
       width="200"
       height="200"
       x="-1372.4285"
       y="2099.0764" />
    <rect
       style="opacity:1;fill:none;fill-opacity:1;stroke:#ffffff;stroke-width:2;stroke-linecap:butt;stroke-linejoin:round;stroke-miterlimit:4;stroke-dasharray:none;stroke-dashoffset:0;stroke-opacity:1"
       id="rect4136-7-8-2"
       width="200"
       height="200"
       x="-972.42847"
       y="2099.0764" />
    <rect
       style="opacity:1;fill:none;fill-opacity:1;stroke:#ffffff;stroke-width:2;stroke-linecap:butt;stroke-linejoin:round;stroke-miterlimit:4;stroke-dasharray:none;stroke-dashoffset:0;stroke-opacity:1"
       id="rect4136-7-8-2-7"
       width="200"
       height="200"
       x="-1172.4285"
       y="2099.0764" />
    <rect
       style="opacity:1;fill:none;fill-opacity:1;stroke:#ffffff;stroke-width:2;stroke-linecap:butt;stroke-linejoin:round;stroke-miterlimit:4;stroke-dasharray:none;stroke-dashoffset:0;stroke-opacity:1"
       id="rect4136-7-8-2-2"
       width="200"
       height="200"
       x="-1172.4285"
       y="1699.0765" />
    <rect
       style="opacity:1;fill:none;fill-opacity:1;stroke:#ffffff;stroke-width:2;stroke-linecap:butt;stroke-linejoin:round;stroke-miterlimit:4;stroke-dasharray:none;stroke-dashoffset:0;stroke-opacity:1"
       id="rect4136-7-8-2-0"
       width="200"
       height="400"
       x="-972.42853"
       y="1699.0764" />
    <rect
       style="opacity:1;fill:none;fill-opacity:1;stroke:#ffffff;stroke-width:2;stroke-linecap:butt;stroke-linejoin:round;stroke-miterlimit:4;stroke-dasharray:none;stroke-dashoffset:0;stroke-opacity:1"
       id="rect4136-7-8-2-20"
       width="400"
       height="200"
       x="-1772.4285"
       y="2099.0764" />
    <path
       inkscape:connector-curvature="0"
       style="opacity:1;fill:none;fill-opacity:1;stroke:#ffffff;stroke-width:2;stroke-linecap:butt;stroke-linejoin:round;stroke-miterlimit:4;stroke-dasharray:none;stroke-dashoffset:0;stroke-opacity:1"
       d="m -1372.4286,1699.0765 0,400 400,0 0,-200 -200,0 0,-200 -200,0 z"
       id="rect4136-7-8-2-20-1" />
    <path
       inkscape:connector-curvature="0"
       style="display:inline;opacity:1;fill:none;fill-opacity:1;stroke:#ffffff;stroke-width:2;stroke-linecap:butt;stroke-linejoin:round;stroke-miterlimit:4;stroke-dasharray:none;stroke-dashoffset:0;stroke-opacity:1"
       d="m -1772.4285,1699.0764 399.9999,0 0,399.9999 -399.9999,0 z"
       id="rect4136-7-8-2-20-1-5" />
  </g>
</svg>
