<?xml version="1.0" encoding="UTF-8" standalone="no"?>
<!-- Created with Inkscape (http://www.inkscape.org/) -->

<svg
   xmlns:dc="http://purl.org/dc/elements/1.1/"
   xmlns:cc="http://creativecommons.org/ns#"
   xmlns:rdf="http://www.w3.org/1999/02/22-rdf-syntax-ns#"
   xmlns:svg="http://www.w3.org/2000/svg"
   xmlns="http://www.w3.org/2000/svg"
   xmlns:sodipodi="http://sodipodi.sourceforge.net/DTD/sodipodi-0.dtd"
   xmlns:inkscape="http://www.inkscape.org/namespaces/inkscape"
   sodipodi:docname="MIA Terminals and Concourses.svg"
   inkscape:version="0.92.4 (5da689c313, 2019-01-14)"
   version="1.1"
   id="svg2"
   viewBox="0 0 1771.5655 1174.1355"
   height="1174.1355"
   width="1771.5654"
   inkscape:export-filename="C:\Users\paulb\Desktop\MIA Colors.png"
   inkscape:export-xdpi="90"
   inkscape:export-ydpi="90">
  <sodipodi:namedview
     inkscape:snap-smooth-nodes="true"
     inkscape:snap-midpoints="false"
     inkscape:snap-to-guides="true"
     inkscape:snap-object-midpoints="false"
     inkscape:object-nodes="true"
     inkscape:guide-bbox="true"
     showguides="true"
     inkscape:window-maximized="1"
     inkscape:window-y="-8"
     inkscape:window-x="1912"
     inkscape:window-height="1137"
     inkscape:window-width="1920"
     fit-margin-bottom="100"
     fit-margin-right="100"
     fit-margin-left="100"
     fit-margin-top="100"
     units="px"
     showgrid="false"
     inkscape:current-layer="layer3"
     inkscape:document-units="px"
     inkscape:cy="487.5921"
     inkscape:cx="501.59452"
     inkscape:zoom="0.5"
     inkscape:pageshadow="2"
     inkscape:pageopacity="1"
     borderopacity="1.0"
     bordercolor="#666666"
     pagecolor="#ffffff"
     id="base" />
  <title
     id="title4147">MIA</title>
  <defs
     id="defs4" />
  <metadata
     id="metadata7">
    <rdf:RDF>
      <cc:Work
         rdf:about="">
        <dc:format>image/svg+xml</dc:format>
        <dc:type
           rdf:resource="http://purl.org/dc/dcmitype/StillImage" />
        <dc:title>MIA</dc:title>
        <dc:creator>
          <cc:Agent>
            <dc:title>Paul Bogard</dc:title>
          </cc:Agent>
        </dc:creator>
        <dc:description>Terminal Silhouette of MIA (Miami)</dc:description>
        <cc:license
           rdf:resource="https://creativecommons.org/licenses/by-sa/4.0/" />
      </cc:Work>
    </rdf:RDF>
  </metadata>
  <g
     transform="translate(0,1.9531253e-6)"
     inkscape:label="Background"
     id="layer1"
     inkscape:groupmode="layer"
     sodipodi:insensitive="true">
    <rect
       y="-5.4907883e-005"
       x="-8.3986488e-006"
       height="1174.1356"
       width="1771.5656"
       id="rect4191"
       style="opacity:1;fill:#dbdcdf;fill-opacity:1;stroke:none;stroke-width:2;stroke-linecap:butt;stroke-linejoin:miter;stroke-miterlimit:4;stroke-dasharray:none;stroke-dashoffset:0;stroke-opacity:1" />
  </g>
  <g
     transform="translate(-1315.4224,-956.8144)"
     style="display:inline"
     inkscape:label="Terminal"
     id="layer3"
     inkscape:groupmode="layer">
    <path
       id="path4263"
       d="m 2777.6954,1681.364 -334.8597,15.3427 0.6072,13.3417 -8.3156,0.3785 0.1656,3.6388 13.0081,-0.5921 0.2749,6.0406 -6.5089,0.2963 1.1889,26.1194 2.0427,-0.093 0.5092,11.1857 -2.0428,0.093 1.1888,26.1195 5.147,-0.2343 0.5091,11.1857 -5.147,0.2342 1.1888,26.1195 5.147,-0.2343 0.5092,11.1877 -5.147,0.2342 1.676,36.8232 5.147,-0.2342 0.5091,11.1857 -5.147,0.2342 1.6761,36.8252 6.5089,-0.2963 1.099,24.1469 -4.5402,0.2067 0.3015,6.6239 -12.1125,0.5513 1.1576,25.4327 2.7901,-0.127 0.2101,4.6594 4.6593,-0.2121 4.8773,4.4527 0.2356,5.1744 -6.1402,6.7236 1.6864,37.0515 6.4328,-0.2928 33.1532,-1.509 -3.5209,-77.3574 -6.5108,0.2963 -0.5772,-12.6802 6.5109,-0.2963 -1.1888,-26.1194 -6.5109,0.2963 -0.067,-1.4672 3.9374,-0.1792 -0.124,-2.7238 -3.9373,0.1792 -0.067,-1.4672 6.5088,-0.2963 -1.5803,-34.7218 -6.5089,0.2962 -0.067,-1.4672 3.9355,-0.1791 -0.1241,-2.7257 -3.9354,0.1791 -0.067,-1.4653 6.5089,-0.2962 -1.676,-36.8232 -6.5089,0.2962 -0.067,-1.4731 3.9355,-0.1791 -0.1241,-2.7257 -3.9354,0.1791 -0.067,-1.4711 6.5089,-0.2962 -1.6761,-36.8252 -6.5089,0.2963 -0.067,-1.4712 3.9354,-0.1791 -0.124,-2.7257 -3.9355,0.1791 -0.067,-1.4711 6.5088,-0.2963 -1.6761,-36.8251 -6.5088,0.2962 -1.5006,-32.9697 0.6029,-0.027 14.3322,5.9053 99.8739,6.0824 c -0.051,0.7525 -0.06,1.5075 -0.028,2.2614 0.52,11.424 10.2013,20.2642 21.6252,19.7442 10.597,-0.4823 19.1153,-8.8971 19.7281,-19.4874 l 18.0667,1.0996 0.9328,-15.7188 11.4822,-0.5226 -0.5214,-11.455 77.7555,-3.539 0.1164,2.5559 9.6891,-0.441 -0.1163,-2.5559 5.7928,-0.2637 0.6375,14.0051 -1.9597,-0.6147 4.5818,100.6673 -2.8865,3.1618 c 3.4519,52.6359 6.8737,105.2765 10.3311,157.9104 0.2307,3.5076 3.2612,6.1633 6.7689,5.9327 1.9329,-0.127 3.7016,-1.1268 4.8072,-2.7174 l 4.6456,-0.2115 c 16.4856,8.5431 24.1434,0.1563 24.1434,0.1563 l 6.1307,-6.7153 -0.268,-5.8885 2.3531,-0.1071 -0.843,-18.5198 -2.353,0.1071 -7.0242,-154.3285 -6.7153,-6.1288 -3.4205,-75.1507 -7.102,0.3232 0.5639,12.3896 -4.4602,0.203 -1.1694,-25.6922 1.8106,-0.082 -0.4211,-9.2521 0,-0.08 -0.5688,0 0.3818,-4.1134 z"
       style="display:inline;fill:#e8a9a9;fill-opacity:1;fill-rule:evenodd;stroke:none;stroke-width:0.42400005;stroke-linecap:butt;stroke-linejoin:miter;stroke-miterlimit:4;stroke-dasharray:none;stroke-opacity:1"
       inkscape:connector-curvature="0" />
    <path
       id="path4209"
       d="m 2247.3845,1259.6473 -57.9126,37.0464 -18.2622,35.2399 108.3466,56.1474 0.3505,-0.6748 20.4154,-39.3948 74.5743,-47.7036 234.8798,-10.6905 -0.2314,-5.0846 -0.1545,-3.3949 -0.4588,-10.0795 27.3076,-1.2429 -0.4033,-8.8619 -3.1986,-2.9201 2.5644,-2.8109 -6.2503,-5.7061 -2.878,0.131 -0.3287,-7.223 -378.3603,17.221 z"
       style="fill:#2a7fff;fill-opacity:1;fill-rule:evenodd;stroke:none;stroke-width:1px;stroke-linecap:butt;stroke-linejoin:miter;stroke-opacity:1"
       inkscape:connector-curvature="0" />
    <path
       id="path4263-9"
       d="m 1632.0318,1090.4915 -74.2493,3.3794 3.358,73.779 -13.1895,0.6003 -2.1221,-46.6255 -47.5972,2.1664 -0.1744,-3.832 -12.5047,0.5692 0.5691,12.5046 12.5047,-0.5691 -0.1743,-3.83 40.3312,-1.8357 4.713,103.549 -40.3312,1.8357 -0.1743,-3.8281 -12.5046,0.5692 0.1743,3.83 -75.2385,3.4245 0.2205,4.8445 75.2385,-3.4244 0.1743,3.8299 12.5047,-0.5691 -0.1743,-3.83 47.5972,-2.1663 -0.193,-4.2398 4.8446,-0.2205 -1.3231,-29.0696 7.4188,-6.2499 24.7927,-1.1285 6.8373,4.7702 0.9695,-7.4776 6.6767,-0.3039 -0.1648,-3.6213 16.3367,-0.7435 0.2923,6.423 21.7314,-0.9891 -0.2924,-6.4249 15.8488,-0.7214 0.2923,6.4231 34.4682,-1.5688 -0.2923,-6.4231 56.9918,-2.5939 0.2924,6.4249 34.4682,-1.5688 -0.2922,-6.4211 81.7494,-3.7207 0.2924,6.4249 34.4662,-1.5687 -0.2923,-6.4231 26.8453,-1.2218 0.2923,6.423 17.119,-0.7791 8.5082,16.2667 c -1.4433,0.7548 -1.9992,2.5375 -1.2442,3.9806 0.7547,1.4429 2.5338,2.0005 3.9769,1.2463 l 0.5224,0.9987 c 1.8549,3.5472 5.7649,4.4065 5.7649,4.4065 3.9077,0.8586 5.7649,4.4008 5.7669,4.4045 l 0,0 c 3.9652,7.5828 7.9292,15.1672 11.8943,22.7503 0,0 1.8876,3.6066 5.5029,5.48 l 10.8489,5.622 c 0,0 2.4432,1.2669 3.7963,-1.3439 l 1.1665,-2.2507 24.3128,12.599 -1.1664,2.2507 c -0.7493,1.4464 -0.1846,3.2271 1.2621,3.976 1.4457,0.749 3.2244,0.1835 3.9741,-1.2621 l 1.1665,-2.2507 43.5015,22.5434 -1.1664,2.2507 c -0.7492,1.4465 -0.1846,3.2252 1.2621,3.9741 1.4456,0.7489 3.2265,0.1853 3.9761,-1.2602 l 1.1644,-2.2525 16.5016,8.5515 -1.1645,2.2506 c -0.7493,1.4464 -0.1844,3.227 1.2622,3.976 1.4457,0.7491 3.2245,0.1855 3.9741,-1.2601 l 1.1664,-2.2526 45.7883,23.7277 -47.8906,92.4138 7.8145,1.7147 46.0539,-88.8655 4.7658,2.4714 -0.2803,0.5426 c -0.7493,1.4464 -0.1826,3.225 1.264,3.974 1.4458,0.7489 3.2226,0.1854 3.9722,-1.26 l 0.2823,-0.5427 2.1325,1.1054 -11.6248,22.4345 7.6271,3.9522 1.8477,-3.5642 3.3461,1.7364 5.3325,-10.2902 -7.5449,-3.9091 4.4464,-8.5822 6.1874,3.2064 18.2623,-35.2399 57.9126,-37.0464 378.3603,-17.221 28.5915,-1.3013 28.5915,-1.3013 0.9452,20.7676 11.3476,-0.5165 -0.5408,-11.8822 14.0226,-0.6383 -0.1364,-2.9968 3.0654,-3.3578 -4.2288,-3.8605 -5.3732,-4.9073 12.064,-13.2145 5.3751,4.9052 75.0636,-82.2246 -5.3731,-4.9073 12.3043,-13.4756 39.3928,-1.793 -0.3703,-8.1361 25.0502,-1.1401 0.3704,8.136 92.2735,-4.1998 -0.3703,-8.136 20.3384,-0.9257 -0.1511,-3.3189 8.9907,-0.4092 -2.1291,-46.7777 -92.2678,4.1996 0.6042,13.2733 -54.3792,2.4751 -0.6042,-13.2734 -17.1444,0.7803 c -4.7006,-2.3175 -9.9106,-3.4087 -15.1462,-3.1721 -5.2147,0.2494 -10.2836,1.8077 -14.7369,4.5323 l -38.8251,1.7671 0.4872,10.7037 5.7812,-0.2631 0.3801,8.3506 -76.3973,83.6814 -11.1254,12.1863 c 0,0 -3.8086,4.1648 -10.348,8.1313 l -4.7003,0.214 -0.2923,-6.4231 -34.4682,1.5688 0.2923,6.4231 -34.2496,1.5588 -0.2924,-6.423 -6.4211,0.2922 0.2923,6.4231 -31.8888,1.4514 -0.2923,-6.4231 -34.4682,1.5688 0.2923,6.4231 -79.1076,3.6006 -0.2923,-6.4231 -34.4684,1.5688 0.2924,6.4231 -23.0211,1.0478 -0.6626,-14.5593 -2.909,-2.6555 -25.4249,1.1572 -0.173,-3.8008 -3.1217,0.1421 0.021,0.4702 -8.0815,0.3678 0.1516,3.3306 -4.4777,0.2038 0.7893,17.3414 -33.883,1.5422 -0.2923,-6.4231 -34.4682,1.5688 0.2923,6.4231 -44.7934,2.0388 -0.2924,-6.4231 -34.4663,1.5687 0.2924,6.4231 -61.017,2.7771 -0.2923,-6.423 -34.4662,1.5687 0.2923,6.4231 -14.7016,0.6691 -24.1749,-22.0701 -0.3313,-7.2777 -5.1841,0.2359 -0.1948,-4.2806 -6.3781,0.2903 -9.6978,-8.8534 c 4e-4,-0.5847 -0.015,-1.1695 -0.041,-1.7559 -1.1112,-24.4133 -21.803,-43.3052 -46.2163,-42.1942 -5.5445,0.2764 -10.9877,1.5941 -16.045,3.8839 l -0.2017,-4.4329 -34.4702,1.5689 0.2924,6.425 -57.7176,2.627 -0.2925,-6.425 -34.4701,1.5689 0.2924,6.4231 -66.7962,3.0402 -0.2923,-6.4231 -34.4683,1.5688 0.2924,6.4231 -16.6995,0.7601 -0.2923,-6.4212 -34.4701,1.5689 0.2923,6.4212 -52.0244,2.3678 -0.2922,-6.4211 -2.5442,0.1158 -2.5043,-55.0212 -4e-4,-0.01 z m -83.5708,88.9639 5.904,-0.2687 0.4754,10.4443 -5.904,0.2687 -0.4754,-10.4443 z m 440.8662,11.7268 5.4052,10.3373 -10.339,5.4091 -1.1434,-2.1845 c 0.5475,-0.2863 0.8809,-0.8626 0.8535,-1.4799 -0.04,-0.8779 -0.7847,-1.5578 -1.6625,-1.5177 -0.232,0.011 -0.459,0.073 -0.6644,0.1807 l -2.7906,-5.3395 10.3412,-5.4055 z"
       style="display:inline;fill:#89b8ff;fill-opacity:1;fill-rule:evenodd;stroke:none;stroke-width:0.42400005;stroke-linecap:butt;stroke-linejoin:miter;stroke-miterlimit:4;stroke-dasharray:none;stroke-opacity:1"
       inkscape:connector-curvature="0" />
    <path
       id="path4263-0"
       d="m 2171.2097,1331.9336 2.7605,60.65 -7.6597,8.3902 -6.2846,0.286 1.31,28.7808 0.286,6.2845 -6.3206,6.9235 -6.2825,0.2859 0.2859,6.2826 -11.6283,12.7352 -0.1704,-0.221 0.8754,19.234 12.9045,11.7809 0.286,6.2826 6.2825,-0.2859 6.9235,6.3225 0.286,6.2826 1.3099,28.7807 6.2846,-0.286 8.3902,7.6616 1.8117,39.8045 -3.9061,2.4986 21.0157,32.8578 1.7954,2.804 3.7008,-2.368 35.2974,7.7566 59.7749,30.9764 4.3919,13.8459 2.9255,1.515 0.4314,-0.831 3.6883,1.9104 -3.6611,7.0625 7.4808,3.8768 0,0 11.9741,6.2041 2.9977,1.5548 3.6611,-7.0644 3.9226,2.0328 15.7096,-4.9852 0.3433,-0.6608 0.6284,13.806 42.0502,-1.9139 -3.5147,-77.2227 -84.8207,-43.9546 -26.3029,-41.1161 -6.4427,-141.5526 3.5549,-6.8622 -108.3465,-56.1474 z m 23.7808,207.4888 2.2847,-0.104 2.0561,45.1739 -1.2614,0.8063 -2.1049,-3.2886 -1.1302,-1.7648 c 0.6402,-0.4101 0.8278,-1.2616 0.4178,-1.9019 -0.4096,-0.6405 -1.2613,-0.8275 -1.9018,-0.4179 l -4.5178,2.89 -1.5021,-33.0009 7.6596,-8.3921 z m 7.2054,-0.328 0,0 5.6914,-0.259 0.2938,6.4543 8.1817,12.7877 -10.0918,6.4576 -0.01,5e-4 0.5444,11.9623 1.4565,2.2759 -4.1435,2.6502 -1.9266,-42.3293 z"
       style="display:inline;fill:#ffdd55;fill-opacity:1;fill-rule:evenodd;stroke:none;stroke-width:0.42400005;stroke-linecap:butt;stroke-linejoin:miter;stroke-miterlimit:4;stroke-dasharray:none;stroke-opacity:1"
       inkscape:connector-curvature="0" />
    <path
       id="path4263-87"
       d="m 1746.1775,1362.1138 -4.6482,5.0935 -5.7992,6.3504 -1.0914,-0.9963 -0.173,-3.8008 -3.7988,0.1729 -1.5979,1.7503 -2.2723,-2.0727 -1.8009,0.082 -3.4099,3.7351 -3.3968,0.1546 -3.7351,-3.4099 -1.8028,0.082 -2.0727,2.2705 -1.7503,-1.5979 -3.8008,0.173 0.173,3.8008 -0.9944,1.0912 -6.3522,-5.7973 -3.5881,-3.2757 -2.8779,0.131 -3.2739,3.588 5.0916,4.6483 1.3725,-1.5053 9.5651,8.7323 1.6753,36.8076 -8.7323,9.5651 -2.8779,0.131 -3.2739,3.5862 5.0917,4.6502 4.6482,-5.0935 5.7992,-6.3504 1.0895,0.9964 0.173,3.8008 -1.2756,1.3993 0.4099,6.6855 1.2871,1.1752 0.1698,3.7304 -1.2756,1.3994 0.4099,6.6855 1.2872,1.1751 0.1699,3.7325 -1.2756,1.3992 0.4099,6.6856 1.2871,1.1751 0.173,3.8008 -0.9944,1.0912 -6.3522,-5.7972 -3.5881,-3.2758 -2.8779,0.131 -3.2739,3.5881 5.0916,4.6483 1.3725,-1.5054 9.5651,8.7324 1.6753,36.8076 -8.7304,9.565 -2.8779,0.131 -3.2758,3.5882 5.0916,4.6483 4.6504,-5.0917 5.7971,-6.3522 1.0915,0.9963 0.1729,3.8008 3.7988,-0.1729 1.598,-1.7483 2.2724,2.0727 1.8008,-0.082 3.4118,-3.7352 0.1399,3.073 3.3949,-0.1545 -0.1399,-3.073 3.7351,3.4099 1.8028,-0.082 2.0747,-2.2704 1.7482,1.5959 3.8008,-0.173 -0.173,-3.8007 0.9944,-1.0913 6.3522,5.7992 3.5882,3.2738 2.8778,-0.1309 3.276,-3.5863 -5.0937,-4.6501 -1.3724,1.5053 -9.5652,-8.7304 -1.6752,-36.8076 8.7324,-9.5651 1.5033,1.3726 4.6503,-5.0917 -2.7498,-2.5085 5.1661,-5.6588 9.4019,8.5814 37.0378,-1.6857 8.3785,-9.1756 56.069,-2.5519 c -0.1555,-0.016 12.9311,-0.5886 25.769,1.0774 19.3358,2.509 38.672,5.0174 58.0076,7.5266 l 18.8366,24.456 67.7963,8.7977 3.2508,-2.5039 14.0663,1.8252 8.8288,-6.8011 0.6526,-5.0349 15.8541,2.0567 5.8222,7.5575 26.1482,3.3947 8.9176,-6.8695 13.2324,-0.6023 1.7356,-1.9032 -0.8755,-19.234 -8.935,-11.5999 -23.432,-3.0413 -1.7371,-38.1655 -7.8123,-1.6641 1.7671,38.8231 -0.5783,-0.074 -11.5243,8.8768 -29.9675,-3.8894 -8.877,-11.5245 -67.7982,-8.7975 -24.4522,18.8344 c -38.5916,-5.0078 -77.1839,-10.0147 -115.7754,-15.023 0.05,0.069 -12.8368,-1.6661 -25.7691,-1.0775 l -9.1775,-8.3785 -37.0398,1.6858 -8.5815,9.3999 -5.6586,-5.164 2.5085,-2.7497 -5.0917,-4.6483 -1.3723,1.5053 -9.5653,-8.7323 -1.6753,-36.8076 8.7325,-9.5651 2.8778,-0.131 3.2739,-3.5862 -5.0917,-4.6502 z"
       style="display:inline;fill:#fff2bf;fill-opacity:1;fill-rule:evenodd;stroke:none;stroke-width:0.42400005;stroke-linecap:butt;stroke-linejoin:miter;stroke-miterlimit:4;stroke-dasharray:none;stroke-opacity:1"
       inkscape:connector-curvature="0" />
    <path
       id="path4263-6"
       d="m 2178.3781,1590.3334 -11.8322,7.5693 0.3453,0.5415 -6.9001,4.414 c -1.8668,1.1939 -2.4123,3.6751 -1.2181,5.5416 l 6.0115,9.3965 -15.1074,9.6637 -5.5549,-8.6841 -1.6927,1.0839 c -1.1939,-1.8668 -3.675,-2.4121 -5.5416,-1.218 l -13.0557,8.3502 -0.5495,-0.8606 -3.319,2.1238 8.2662,12.9246 -21.0103,13.4399 -4.2476,-6.6379 -1.6927,1.084 c -1.194,-1.8665 -3.6752,-2.4141 -5.5417,-1.22 l -15.8901,10.1666 -0.5515,-0.8626 -3.3189,2.1238 6.9588,10.8784 -21.0102,13.4419 -4.2477,-6.6399 -1.6927,1.0839 c -1.1939,-1.8666 -3.6749,-2.4123 -5.5416,-1.2181 l -15.8902,10.1647 -0.5514,-0.8606 -3.3191,2.1219 6.9589,10.8804 -21.3008,13.6271 -6.6519,-3.4472 -17.1232,10.9539 1.1026,24.225 -13.5515,8.6681 -3.378,-1.7486 c -0.1904,-4.184 -0.3806,-8.3695 -0.5714,-12.5535 -0.038,-0.8405 -0.7505,-1.491 -1.5911,-1.4526 -0.8401,0.039 -1.4906,0.7511 -1.4525,1.5912 l -3.9427,-2.0436 -3.7389,2.3932 0.9009,22.6269 -18.7742,12.0087 -6.2574,-3.2423 -12.2539,7.8387 -14.7255,-7.6314 -4.4076,2.8206 0.5682,12.4851 -1.7774,0.081 c -0.6289,0.029 -1.1157,0.5624 -1.0876,1.1913 0.028,0.6294 0.5619,1.116 1.1913,1.0876 l 1.7775,-0.081 0.5752,12.6393 4.6475,2.4083 14.0284,-8.9733 15.0859,7.8183 1.8162,-1.1639 0.098,2.154 6.1635,3.1958 0.7285,16.0068 4.0288,2.0886 3.8224,-2.4459 -0.4587,-10.0775 3.2174,-0.1464 0.4587,10.0774 4.0269,2.0887 3.8226,-2.4439 -0.7365,-16.1806 11.9253,-7.6263 -0.3141,-6.901 24.3805,-15.5973 20.1633,10.3068 3.7408,-2.3933 -0.202,-4.4368 c 0.7468,0.3868 1.6654,0.096 2.0527,-0.6507 0.3873,-0.747 0.096,-1.6674 -0.6508,-2.0545 -3.7188,-1.9268 -7.4364,-3.853 -11.1552,-5.7801 l -0.173,-3.8007 9.1058,-5.8263 -0.7042,-15.4723 3.4558,-2.2102 -0.6206,-13.6363 1.6966,-1.0841 -0.3659,-8.0404 15.5747,-9.9646 4.8603,7.5974 10.6599,-6.8198 2.8164,4.4058 13.1488,-8.4113 -4.3299,-6.771 9.5087,-6.0812 4.3124,-3.9678 -3.5689,-3.8809 4.402,-2.8143 1.6315,2.5534 5.8723,-3.7572 2.6143,4.0865 11.1691,-7.146 -1.9071,-2.9828 4.4475,-2.8457 1.0081,1.5748 11.4199,-7.306 4.3144,-3.9659 -3.5688,-3.8809 20.3339,-13.0062 1.503,2.3519 5.1448,-3.292 1.8418,2.8803 11.4237,-7.3063 4.3125,-3.9658 -3.5689,-3.8808 5.2492,-3.3594 c 2.1207,3.3149 6.5278,4.2845 9.843,2.164 l 14.6686,-9.3836 -12.4065,-19.3954 -8.6092,-13.4624 z"
       style="display:inline;fill:#fff2bf;fill-opacity:1;fill-rule:evenodd;stroke:none;stroke-width:0.42400005;stroke-linecap:butt;stroke-linejoin:miter;stroke-miterlimit:4;stroke-dasharray:none;stroke-opacity:1"
       inkscape:connector-curvature="0" />
    <path
       id="path4263-02"
       d="m 2315.2172,1689.7423 -13.7638,26.5576 -6.2574,-3.2424 -5.6074,10.8229 1.5799,0.8196 -13.2622,25.5923 -3.1617,-1.6372 -3.92,7.563 1.5819,0.8195 -4.8115,9.2812 -1.5798,-0.8178 -3.5678,6.8823 7.8373,4.0619 -5.7961,11.1872 -1.616,-0.8376 -2.7445,5.2944 1.616,0.8375 -5.6418,10.887 -9.9497,-5.1565 -8.4079,16.2233 -2.7572,-1.4289 -3.5729,6.8962 2.7572,1.4288 -12.6475,24.407 -2.7574,-1.4308 -3.5748,6.8962 2.7592,1.4288 -9.9103,19.1246 -0.785,-0.4081 -0.7152,1.3817 -1.9743,-1.0226 -3.573,6.896 2.7573,1.429 -9.9084,19.1225 -0.7849,-0.4061 -0.7172,1.3818 -1.9724,-1.0228 -3.5729,6.8962 2.7572,1.4288 -9.7951,18.9044 6.8942,3.573 1.4288,-2.7592 13.5822,7.0401 -1.4289,2.7572 6.8961,3.573 9.7971,-18.9044 2.7574,1.4308 3.573,-6.8962 -2.7573,-1.4288 7.7228,-14.9057 2.7593,1.4308 3.573,-6.8962 -2.7592,-1.4287 7.7248,-14.9038 2.7573,1.4288 3.573,-6.8961 -2.7572,-1.4289 15.0738,-29.0884 0.7848,0.4061 0.7154,-1.3816 1.9743,1.0226 3.573,-6.8942 -8.2077,-4.2523 14.062,-27.1362 3.0956,1.6031 2.6492,-5.112 -3.0956,-1.6031 2.7445,-5.2944 1.7941,0.9292 5.7982,-11.1873 2.7792,1.4395 3.3826,-6.5257 -2.7812,-1.4396 10.6903,-20.6284 -1.7941,-0.9291 2.8594,-5.5206 -4.6736,-2.4228 5.6201,-10.8448 4.6736,2.4228 14.1017,-27.2103 5.1241,2.6565 5.8662,-11.3234 -5.1241,-2.6545 2.412,-4.6536 -11.9741,-6.2041 z"
       style="display:inline;fill:#fff2bf;fill-opacity:1;fill-rule:evenodd;stroke:none;stroke-width:0.42400005;stroke-linecap:butt;stroke-linejoin:miter;stroke-miterlimit:4;stroke-dasharray:none;stroke-opacity:1"
       inkscape:connector-curvature="0" />
    <path
       id="path4263-4"
       d="m 2537.5451,1609.3356 0.2533,5.5665 -144.8051,6.5907 3.5148,77.2228 16.2429,-0.7393 0.1297,2.8506 24.4064,-1.1108 -0.1297,-2.8507 5.104,-0.2323 334.8597,-15.3426 -0.3817,4.1134 2.6211,-0.018 10.0189,-0.456 -2.4185,-53.1364 -20.514,0.9337 -0.2894,-6.3586 8.5537,-0.3893 -0.5719,-12.5651 -8.5537,0.3893 -0.6742,-14.8148 -227.3663,10.3485 z"
       style="display:inline;fill:#d25a5a;fill-opacity:1;fill-rule:evenodd;stroke:none;stroke-width:0.42400005;stroke-linecap:butt;stroke-linejoin:miter;stroke-miterlimit:4;stroke-dasharray:none;stroke-opacity:1"
       inkscape:connector-curvature="0" />
    <path
       sodipodi:nodetypes="ccccccccccccccccccccccccccccccccccccccccccccccccccccccccccsccccccccccccccccccccccccccccccccccccccccccccccccccccccccccccccccccccccccccccccccccccccccccccccccccccccccccccccccccccccccccccccccccccccccccccccccccccccccccccccccccccccccccccccccccccccccccccccccccccccccccccccccccccccccccccccccccccccccccccccccccccccccccccccccccccccccccccccccccccccccccccccccccccccccccccccccccccccccccccccccccccccccccccccccccccccccccccccccccccccccccccccccccccccccccccccccccccccccccccccccccccccccccccccccccccccccccccccccccccccccccccccccccccccccccscccccccccccccccscccccccccccccccccccccccccccccccccccccccccccccccccccccccccccccccccccccccccccccccccccccccccccccccccccccccccccccccccccccccccccccccccccccccccccccccccccccccccccccccccccccccccccccccccccccccccccccccccccccccccccccccccccccccccccccc"
       inkscape:connector-curvature="0"
       id="path4263-8"
       d="m 1557.2062,1093.7979 3.358,73.7791 -13.1894,0.6003 -2.1222,-46.6255 -47.5972,2.1663 -0.1744,-3.8319 -12.5046,0.5691 0.5691,12.5046 12.5046,-0.5691 -0.1743,-3.83 40.3313,-1.8357 4.713,103.5491 -40.3313,1.8356 -0.1742,-3.828 -12.5046,0.5691 0.1743,3.83 -75.2385,3.4245 0.2205,4.8446 75.2385,-3.4245 0.1743,3.83 12.5046,-0.5691 -0.1743,-3.83 47.5972,-2.1664 -0.193,-4.2397 4.8446,-0.2205 -1.323,-29.0696 7.4188,-6.25 24.7927,-1.1284 6.8372,4.7702 0.9696,-7.4776 6.6767,-0.3039 -0.1648,-3.6212 16.3366,-0.7436 0.2923,6.4231 21.7314,-0.9891 -0.2924,-6.425 15.8488,-0.7214 0.2924,6.4231 34.4682,-1.5689 -0.2924,-6.423 56.9918,-2.594 0.2924,6.425 34.4683,-1.5688 -0.2923,-6.4211 81.7494,-3.7208 0.2924,6.425 34.4663,-1.5687 -0.2924,-6.423 26.8453,-1.2219 0.2923,6.4231 17.119,-0.7792 8.5082,16.2667 c -1.4433,0.7548 -1.9991,2.5374 -1.2441,3.9806 0.7547,1.4429 2.5337,2.0004 3.9768,1.2462 l 0.5225,0.9988 c 1.8549,3.5472 5.7649,4.4065 5.7649,4.4065 3.9077,0.8586 5.7648,4.4008 5.7668,4.4045 3.9652,7.5828 7.9292,15.1672 11.8943,22.7503 0,0 1.8876,3.6066 5.5029,5.48 l 10.8489,5.622 c 0,0 2.4433,1.2669 3.7963,-1.344 l 1.1665,-2.2506 24.3128,12.599 -1.1664,2.2506 c -0.7494,1.4465 -0.1845,3.2271 1.2621,3.976 1.4458,0.7491 3.2244,0.1836 3.9741,-1.262 l 1.1664,-2.2507 43.5017,22.5434 -1.1665,2.2507 c -0.7492,1.4465 -0.1846,3.2252 1.2621,3.9741 1.4456,0.7488 3.2265,0.1853 3.9761,-1.2602 l 1.1644,-2.2526 16.5016,8.5516 -1.1645,2.2506 c -0.7493,1.4463 -0.1844,3.227 1.2622,3.976 1.4457,0.749 3.2246,0.1854 3.9741,-1.2601 l 1.1664,-2.2527 45.7883,23.7278 -47.8907,92.4137 1.7694,38.8738 -0.5782,-0.073 -11.5243,8.877 -29.9676,-3.8896 -8.8769,-11.5243 -67.7983,-8.7976 -24.4521,18.8344 c -38.5917,-5.0078 -77.1839,-10.0146 -115.7755,-15.023 0.05,0.069 -12.8367,-1.6661 -25.769,-1.0775 l -9.1775,-8.3785 -37.0398,1.6859 -8.5815,9.3999 -5.6586,-5.1641 2.5084,-2.7497 -5.0916,-4.6483 -1.3724,1.5054 -9.5651,-8.7324 -1.6753,-36.8076 8.7323,-9.5651 2.8779,-0.131 3.2739,-3.5861 -5.0917,-4.6503 -4.6482,5.0936 -5.7993,6.3503 -1.0914,-0.9963 -0.173,-3.8008 -3.7987,0.1729 -1.5979,1.7503 -2.2724,-2.0727 -1.8008,0.082 -3.4099,3.7351 -3.3969,0.1546 -3.7351,-3.4099 -1.8028,0.082 -2.0727,2.2705 -1.7503,-1.5979 -3.8007,0.173 0.173,3.8007 -0.9944,1.0913 -6.3522,-5.7972 -3.5882,-3.2758 -2.8779,0.1309 -3.2738,3.5882 5.0916,4.6483 1.3724,-1.5054 9.5652,8.7323 1.6752,36.8076 -8.7323,9.5652 -2.8779,0.1309 -3.2739,3.5862 5.0917,4.6503 4.6482,-5.0936 5.7993,-6.3503 1.0894,0.9964 0.173,3.8007 -1.2756,1.3993 0.4099,6.6856 1.2872,1.1751 0.1698,3.7305 -1.2756,1.3993 0.4098,6.6855 1.2872,1.1752 0.1699,3.7324 -1.2756,1.3993 0.4099,6.6855 1.2872,1.1752 0.173,3.8007 -0.9944,1.0913 -6.3522,-5.7973 -3.5882,-3.2758 -2.8779,0.131 -3.2738,3.5881 5.0916,4.6483 1.3724,-1.5053 9.5652,8.7323 1.6752,36.8076 -8.7303,9.565 -2.8779,0.131 -3.2758,3.5882 5.0916,4.6483 4.6503,-5.0917 5.7972,-6.3522 1.0914,0.9964 0.1729,3.8007 3.7989,-0.1729 1.5979,-1.7483 2.2724,2.0727 1.8008,-0.082 3.4119,-3.7351 0.1398,3.073 3.395,-0.1546 -0.1399,-3.073 3.7351,3.4099 1.8028,-0.082 2.0747,-2.2705 1.7482,1.5959 3.8007,-0.1729 -0.173,-3.8008 0.9944,-1.0913 6.3523,5.7992 3.5881,3.2739 2.8779,-0.131 3.2759,-3.5863 -5.0937,-4.6501 -1.3724,1.5053 -9.5651,-8.7303 -1.6752,-36.8076 8.7323,-9.5652 1.5034,1.3725 4.6503,-5.0917 -2.7498,-2.5084 5.1661,-5.6587 9.4018,8.5814 37.0378,-1.6858 8.3786,-9.1756 c 26.8756,-0.4169 57.7221,-4.4519 81.8379,-1.4744 19.3358,2.5089 38.672,5.0173 58.0077,7.5266 l 18.8365,24.4559 67.7963,8.7977 3.2509,-2.504 14.0662,1.8253 8.8288,-6.8011 0.6527,-5.0349 15.854,2.0567 5.8223,7.5576 26.1482,3.3947 8.9176,-6.8696 13.2324,-0.6023 1.7356,-1.9032 12.9044,11.781 0.286,6.2825 6.2825,-0.2859 6.9236,6.3226 0.2859,6.2825 1.31,28.7808 6.2864,-0.2861 8.3903,7.6616 1.8116,39.8044 -3.908,2.4987 -11.8321,7.5692 0.3453,0.5415 -6.9002,4.414 c -1.8668,1.1939 -2.4123,3.6751 -1.2181,5.5416 l 6.0116,9.3966 -15.1075,9.6636 -5.5549,-8.6841 -1.6927,1.0839 c -1.1939,-1.8667 -3.675,-2.4121 -5.5415,-1.218 l -13.0558,8.3503 -0.5494,-0.8607 -3.319,2.1238 8.2661,12.9247 -21.0102,13.4398 -4.2476,-6.6379 -1.6927,1.0839 c -1.194,-1.8664 -3.6752,-2.4141 -5.5417,-1.22 l -15.8901,10.1666 -0.5515,-0.8625 -3.319,2.1238 6.9588,10.8784 -21.0101,13.4419 -4.2477,-6.6399 -1.6927,1.0839 c -1.194,-1.8666 -3.675,-2.4122 -5.5416,-1.218 l -15.8902,10.1646 -0.5514,-0.8606 -3.3191,2.1219 6.9589,10.8804 -21.3009,13.6271 -6.6519,-3.4472 -17.1231,10.9539 1.1026,24.2249 -13.5516,8.6681 -3.3779,-1.7486 c -0.1904,-4.1839 -0.3806,-8.3694 -0.5714,-12.5534 -0.038,-0.8405 -0.7506,-1.4909 -1.5911,-1.4526 -0.8401,0.039 -1.4907,0.7511 -1.4526,1.5912 l -3.9427,-2.0436 -3.7388,2.3932 0.9008,22.6269 -18.7742,12.0087 -6.2574,-3.2423 -12.2539,7.8387 -14.7255,-7.6313 -4.4076,2.8204 0.5683,12.4852 -1.7774,0.081 c -0.6289,0.029 -1.1158,0.5624 -1.0876,1.1913 0.028,0.6294 0.5619,1.116 1.1913,1.0876 l 1.7774,-0.081 0.5753,12.6392 4.6475,2.4084 14.0284,-8.9733 15.0859,7.8183 1.8162,-1.1639 0.098,2.154 6.1634,3.1957 0.7286,16.0069 4.0288,2.0885 3.8224,-2.4458 -0.4587,-10.0775 3.2174,-0.1464 0.4587,10.0774 4.0268,2.0886 3.8226,-2.4439 -0.7365,-16.1805 11.9254,-7.6263 -0.3141,-6.901 24.3805,-15.5973 20.1633,10.3067 3.7407,-2.3932 -0.2019,-4.4368 c 0.7467,0.3867 1.6654,0.096 2.0526,-0.6507 0.3873,-0.747 0.096,-1.6674 -0.6507,-2.0546 -3.7188,-1.9268 -7.4365,-3.8529 -11.1552,-5.78 l -0.173,-3.8007 9.1058,-5.8263 -0.7042,-15.4723 3.4558,-2.2102 -0.6206,-13.6363 1.6966,-1.0841 -0.366,-8.0405 15.5748,-9.9645 4.8602,7.5974 10.6599,-6.8199 2.8165,4.4058 13.1488,-8.4112 -4.3299,-6.7711 9.5087,-6.0812 4.3123,-3.9677 -3.5688,-3.8808 4.402,-2.8144 1.6314,2.5534 5.8724,-3.7572 2.6143,4.0866 11.169,-7.1461 -1.9071,-2.9828 4.4475,-2.8458 1.0082,1.5749 11.4198,-7.306 4.3144,-3.9659 -3.5688,-3.8808 20.334,-13.0064 1.503,2.3521 5.1447,-3.292 1.8418,2.8801 11.4238,-7.3062 4.3124,-3.9658 -3.5688,-3.8808 5.2492,-3.3594 c 2.1207,3.3149 6.5277,4.2844 9.8429,2.1641 l 14.6686,-9.3837 1.7973,2.804 3.6989,-2.3679 35.2974,7.7567 59.7769,30.9762 4.3919,13.8459 2.9254,1.515 0.4314,-0.831 3.6884,1.9104 -3.6612,7.0625 7.4809,3.8767 c -4.7986,9.2494 -9.664,18.6416 -13.7676,26.5597 l -6.2574,-3.2422 -5.6075,10.8228 1.5799,0.8196 -13.2622,25.5924 -3.1617,-1.6373 -3.9199,7.563 1.5819,0.8196 -4.8116,9.2811 -1.5798,-0.8177 -3.5677,6.8822 7.8373,4.0619 -5.7961,11.1872 -1.616,-0.8375 -2.7445,5.2943 1.6159,0.8376 -5.6417,10.8869 -9.9498,-5.1565 -8.4078,16.2233 -2.7572,-1.4288 -3.573,6.8961 2.7573,1.4289 -12.6475,24.4069 -2.7574,-1.4308 -3.5749,6.8962 2.7592,1.4288 -9.9102,19.1247 -0.785,-0.4081 -0.7153,1.3816 -1.9743,-1.0226 -3.5729,6.8961 2.7572,1.4289 -9.9083,19.1226 -0.7849,-0.4062 -0.7173,1.3817 -1.9723,-1.0227 -3.573,6.8962 2.7573,1.4288 -9.7951,18.9044 6.8942,3.573 1.4287,-2.7592 13.5822,7.0401 -1.4288,2.7573 6.8961,3.573 9.7971,-18.9045 2.7574,1.4308 3.5729,-6.8961 -2.7573,-1.4289 7.7229,-14.9056 2.7593,1.4307 3.573,-6.8961 -2.7593,-1.4288 7.7249,-14.9038 2.7573,1.4289 3.5729,-6.8962 -2.7572,-1.4288 15.0738,-29.0885 0.7849,0.4061 0.7153,-1.3816 1.9743,1.0226 3.5731,-6.8942 -8.2077,-4.2523 14.062,-27.1361 3.0956,1.6031 2.6492,-5.1121 -3.0956,-1.6031 2.7445,-5.2943 1.7941,0.9291 5.7981,-11.1873 2.7793,1.4396 3.3826,-6.5258 -2.7813,-1.4395 10.6904,-20.6285 -1.7941,-0.9291 2.8593,-5.5205 -4.6736,-2.4228 5.6202,-10.8449 4.6736,2.4228 14.1016,-27.2103 5.1242,2.6565 5.8662,-11.3234 -5.1241,-2.6545 2.412,-4.6536 c 1.0395,0.5321 2.1086,1.0897 3.0014,1.5527 l 3.6612,-7.0644 3.9226,2.0327 15.7095,-4.985 0.3434,-0.6609 0.6283,13.8061 42.0503,-1.9139 16.241,-0.7392 0.1297,2.8505 24.4064,-1.1108 -0.1298,-2.8506 5.1041,-0.2323 0.6073,13.3417 -8.3156,0.3784 0.1656,3.6389 13.0079,-0.5921 0.275,6.0406 -6.5089,0.2963 1.1888,26.1194 2.0428,-0.093 0.5091,11.1857 -2.0428,0.093 1.1889,26.1194 5.147,-0.2342 0.5091,11.1857 -5.147,0.2342 1.1888,26.1195 5.1471,-0.2343 0.5092,11.1876 -5.1471,0.2343 1.676,36.8232 5.1471,-0.2343 0.5091,11.1857 -5.1471,0.2343 1.6761,36.8252 6.5088,-0.2963 1.0991,24.1469 -4.5402,0.2066 0.3015,6.6241 -12.1125,0.5513 1.1576,25.4326 2.792,-0.1271 0.212,4.6592 4.6593,-0.212 4.8774,4.4527 0.2355,5.1743 -6.142,6.7238 1.6864,37.0515 6.4347,-0.2929 33.1532,-1.5089 -3.5209,-77.3574 -6.5108,0.2963 -0.5771,-12.6803 6.5108,-0.2963 -1.1889,-26.1194 -6.5107,0.2963 -0.067,-1.4672 3.9353,-0.1792 -0.1239,-2.7237 -3.9354,0.1791 -0.067,-1.4672 6.5069,-0.2962 -1.5803,-34.7218 -6.5069,0.2961 -0.067,-1.4672 3.9353,-0.1791 -0.124,-2.7257 -3.9353,0.1791 -0.067,-1.4653 6.5068,-0.2961 -1.676,-36.8232 -6.5068,0.2961 -0.067,-1.4731 3.9353,-0.1791 -0.124,-2.7257 -3.9353,0.1791 -0.067,-1.4711 6.5069,-0.2962 -1.6761,-36.8251 -6.5069,0.2961 -0.067,-1.4711 3.9353,-0.1791 -0.1241,-2.7257 -3.9353,0.1791 -0.067,-1.4711 6.5069,-0.2962 -1.6761,-36.8251 -6.5068,0.2961 -1.5007,-32.9698 0.6009,-0.027 14.3341,5.9051 99.874,6.0825 c -0.051,0.7525 -0.062,1.5076 -0.03,2.2615 0.5199,11.424 10.2013,20.2642 21.6252,19.7442 10.597,-0.4823 19.1172,-8.8972 19.73,-19.4875 l 18.0648,1.0997 0.9347,-15.7189 11.4803,-0.5226 -0.5214,-11.4549 77.7574,-3.5391 0.1163,2.5559 9.6892,-0.441 -0.1163,-2.5559 5.7909,-0.2636 0.6374,14.0051 -1.9596,-0.6147 4.5818,100.6673 -2.8846,3.1617 c 3.4519,52.636 6.8717,105.2765 10.3292,157.9105 0.2307,3.5077 3.2612,6.1633 6.7689,5.9328 1.9328,-0.127 3.7035,-1.127 4.8091,-2.7176 l 4.6456,-0.2114 c 16.4856,8.543 24.1415,0.1564 24.1415,0.1564 l 6.1326,-6.7155 -0.268,-5.8884 2.353,-0.1071 -0.8429,-18.5199 -2.353,0.1071 -7.0243,-154.3286 -6.7172,-6.1286 -3.4204,-75.1507 -7.1021,0.3232 0.5639,12.3895 -4.4582,0.203 -1.1694,-25.6922 1.8106,-0.082 -0.4211,-9.2521 12.0676,-0.5493 -2.4185,-53.1364 -20.5158,0.9338 -0.2894,-6.3587 8.5536,-0.3893 -0.5719,-12.5651 -8.5536,0.3893 -0.6743,-14.8147 -227.3663,10.3485 0.2534,5.5665 -144.8032,6.5906 -84.8206,-43.9545 -26.3029,-41.1161 -6.4427,-141.5527 3.555,-6.8601 0.3507,-0.6729 20.4154,-39.3947 74.5742,-47.7038 234.8799,-10.6904 -0.2315,-5.0846 -0.1545,-3.3949 -0.4587,-10.0795 27.3077,-1.2429 -0.4034,-8.8619 -3.1985,-2.9201 2.5642,-2.8109 -6.2503,-5.7061 -2.8778,0.131 -0.3287,-7.221 28.5915,-1.3013 28.5915,-1.3014 0.9452,20.7676 11.3476,-0.5165 -0.5408,-11.8822 14.0227,-0.6383 -0.1364,-2.9969 3.0653,-3.3576 -4.2287,-3.8606 -5.3733,-4.9073 12.064,-13.2145 5.3751,4.9052 75.0637,-82.2245 -5.3733,-4.9073 12.3043,-13.4757 39.3929,-1.793 -0.3704,-8.1361 25.0503,-1.1401 0.3703,8.1361 92.2737,-4.1998 -0.3703,-8.1361 20.3382,-0.9257 -0.151,-3.3189 8.9907,-0.4092 -2.1291,-46.7777 -92.2678,4.1995 0.6041,13.2734 -54.3792,2.4751 -0.6041,-13.2734 -17.1443,0.7803 c -4.7007,-2.3176 -9.9107,-3.4086 -15.1462,-3.172 -5.2147,0.2493 -10.2838,1.8075 -14.737,4.5321 l -38.825,1.7671 0.4872,10.7038 5.7811,-0.2631 0.3801,8.3507 -76.3973,83.6812 -11.1254,12.1865 c 0,0 -3.8086,4.1647 -10.348,8.1312 l -4.7002,0.2139 -0.2924,-6.423 -34.4682,1.5688 0.2924,6.423 -34.2498,1.5589 -0.2923,-6.423 -6.4211,0.2922 0.2924,6.4231 -31.8889,1.4514 -0.2924,-6.4231 -34.4682,1.5688 0.2924,6.4231 -79.1076,3.6005 -0.2924,-6.423 -34.4682,1.5688 0.2924,6.4231 -23.0211,1.0477 -0.6627,-14.5591 -2.9088,-2.6556 -25.4249,1.1572 -0.173,-3.8008 -3.1218,0.1421 0.021,0.4702 -8.0815,0.3678 0.1516,3.3306 -4.4778,0.2038 0.7893,17.3414 -33.8829,1.5422 -0.2923,-6.4231 -34.4682,1.5688 0.2923,6.4231 -44.7934,2.0387 -0.2924,-6.423 -34.4663,1.5687 0.2924,6.4231 -61.0169,2.7771 -0.2924,-6.423 -34.4662,1.5687 0.2923,6.423 -14.7016,0.6692 -24.1749,-22.0701 -0.3313,-7.2777 -5.1841,0.236 -0.1948,-4.2807 -6.3782,0.2903 -9.6977,-8.8534 c 4e-4,-0.5846 -0.015,-1.1694 -0.041,-1.7558 -1.1111,-24.4134 -21.803,-43.3053 -46.2162,-42.1943 -5.5446,0.2764 -10.988,1.5941 -16.0451,3.8839 l -0.2018,-4.4329 -34.4701,1.5689 0.2924,6.425 -57.7196,2.6271 -0.2924,-6.425 -34.4682,1.5688 0.2923,6.4231 -66.798,3.0403 -0.2923,-6.4231 -34.4663,1.5687 0.2923,6.4231 -16.6995,0.7601 -0.2922,-6.4211 -34.4702,1.5689 0.2923,6.4211 -52.0263,2.3679 -0.2922,-6.4211 -2.5423,0.1157 -2.5043,-55.0211 -4e-4,-0.01 -74.2474,3.3793 z m -9.3214,85.5846 5.904,-0.2687 0.4754,10.4443 -5.9041,0.2687 z m 440.866,11.7268 5.4053,10.3372 -10.3389,5.4093 -1.1435,-2.1847 c 0.5475,-0.2863 0.8809,-0.8625 0.8535,-1.4798 -0.04,-0.8779 -0.7847,-1.5578 -1.6625,-1.5178 -0.232,0.011 -0.4591,0.073 -0.6644,0.1808 l -2.7906,-5.3395 z m 160.1268,129.4764 0,-10e-5 4.7658,2.4714 -0.2803,0.5426 c -0.7493,1.4464 -0.1827,3.225 1.264,3.974 1.4458,0.7489 3.2225,0.1854 3.9722,-1.2601 l 0.2823,-0.5427 2.1325,1.1054 -11.6248,22.4346 7.627,3.9522 1.8477,-3.5643 3.3461,1.7364 5.3326,-10.2902 -7.545,-3.909 4.4465,-8.5822 6.1873,3.2064 2.7605,60.6501 -7.6597,8.3901 -6.2864,0.2862 1.3099,28.7807 0.2861,6.2845 -6.3207,6.9235 -6.2826,0.2859 0.286,6.2826 -11.6263,12.7351 -0.1724,-0.2209 -8.9351,-11.5999 -23.432,-3.0412 -1.7371,-38.1656 z m 45.5348,218.7633 2.2847,-0.104 2.0561,45.1739 -1.2596,0.8062 -2.1067,-3.2885 -1.1303,-1.7649 c 0.6402,-0.41 0.8279,-1.2615 0.4179,-1.9018 -0.4097,-0.6405 -1.2594,-0.8276 -1.8999,-0.418 l -4.5197,2.8902 -1.5021,-33.001 z m 7.1976,-0.3276 0,-2e-4 5.6914,-0.259 0.2937,6.4542 8.1817,12.7877 -10.0918,6.4577 -0.01,5e-4 0.5445,11.9622 1.4565,2.276 -4.1435,2.6501 z"
       style="display:inline;fill:none;fill-opacity:1;fill-rule:evenodd;stroke:#60646c;stroke-width:2.00000024;stroke-linecap:butt;stroke-linejoin:miter;stroke-miterlimit:4;stroke-dasharray:none;stroke-opacity:1" />
  </g>
  <g
     inkscape:groupmode="layer"
     id="layer2"
     inkscape:label="Terminal Concourse Labels">
    <text
       xml:space="preserve"
       style="font-style:normal;font-variant:normal;font-weight:bold;font-stretch:normal;line-height:0%;font-family:Overpass;-inkscape-font-specification:'Overpass, Bold';text-align:start;letter-spacing:0px;word-spacing:0px;writing-mode:lr-tb;text-anchor:start;fill:#60646c;fill-opacity:1;stroke:none;stroke-width:1px;stroke-linecap:butt;stroke-linejoin:miter;stroke-opacity:1"
       x="970.2337"
       y="213.39908"
       id="text4642"><tspan
         sodipodi:role="line"
         id="tspan4644"
         x="970.2337"
         y="213.39908"
         style="font-size:50.00000381px;line-height:1.25">D</tspan></text>
    <text
       xml:space="preserve"
       style="font-style:normal;font-variant:normal;font-weight:bold;font-stretch:normal;line-height:0%;font-family:Overpass;-inkscape-font-specification:'Overpass, Bold';text-align:start;letter-spacing:0px;word-spacing:0px;writing-mode:lr-tb;text-anchor:start;fill:#60646c;fill-opacity:1;stroke:none;stroke-width:1px;stroke-linecap:butt;stroke-linejoin:miter;stroke-opacity:1"
       x="575.09766"
       y="464.73459"
       id="text4642-5"><tspan
         sodipodi:role="line"
         id="tspan4664"
         x="575.09766"
         y="464.73459"
         style="font-size:50.00000381px;line-height:1.25">E</tspan></text>
    <text
       xml:space="preserve"
       style="font-style:normal;font-variant:normal;font-weight:bold;font-stretch:normal;line-height:0%;font-family:Overpass;-inkscape-font-specification:'Overpass, Bold';text-align:start;letter-spacing:0px;word-spacing:0px;writing-mode:lr-tb;text-anchor:start;fill:#60646c;fill-opacity:1;stroke:none;stroke-width:1px;stroke-linecap:butt;stroke-linejoin:miter;stroke-opacity:1"
       x="669.85004"
       y="720.70728"
       id="text4642-4"><tspan
         sodipodi:role="line"
         id="tspan4674"
         x="669.85004"
         y="720.70728"
         style="font-size:50.00000381px;line-height:1.25">F</tspan></text>
    <text
       xml:space="preserve"
       style="font-style:normal;font-variant:normal;font-weight:bold;font-stretch:normal;line-height:0%;font-family:Overpass;-inkscape-font-specification:'Overpass, Bold';text-align:start;letter-spacing:0px;word-spacing:0px;writing-mode:lr-tb;text-anchor:start;fill:#60646c;fill-opacity:1;stroke:none;stroke-width:1px;stroke-linecap:butt;stroke-linejoin:miter;stroke-opacity:1"
       x="874.91095"
       y="852.22906"
       id="text4642-0"><tspan
         sodipodi:role="line"
         id="tspan4684"
         x="874.91095"
         y="852.22906"
         style="font-size:50.00000381px;line-height:1.25">G</tspan></text>
    <text
       xml:space="preserve"
       style="font-style:normal;font-variant:normal;font-weight:bold;font-stretch:normal;line-height:0%;font-family:Overpass;-inkscape-font-specification:'Overpass, Bold';text-align:start;letter-spacing:0px;word-spacing:0px;writing-mode:lr-tb;text-anchor:start;fill:#60646c;fill-opacity:1;stroke:none;stroke-width:1px;stroke-linecap:butt;stroke-linejoin:miter;stroke-opacity:1"
       x="1079.972"
       y="917.28302"
       id="text4642-6"><tspan
         sodipodi:role="line"
         id="tspan4694"
         x="1079.972"
         y="917.28302"
         style="font-size:50.00000381px;line-height:1.25">H</tspan></text>
    <text
       xml:space="preserve"
       style="font-style:normal;font-variant:normal;font-weight:bold;font-stretch:normal;line-height:0%;font-family:Overpass;-inkscape-font-specification:'Overpass, Bold';text-align:start;letter-spacing:0px;word-spacing:0px;writing-mode:lr-tb;text-anchor:start;fill:#60646c;fill-opacity:1;stroke:none;stroke-width:1px;stroke-linecap:butt;stroke-linejoin:miter;stroke-opacity:1"
       x="1393.9274"
       y="915.86865"
       id="text4642-7"><tspan
         sodipodi:role="line"
         id="tspan4704"
         x="1393.9274"
         y="915.86865"
         style="font-size:50.00000381px;line-height:1.25">J</tspan></text>
    <text
       xml:space="preserve"
       style="font-style:normal;font-variant:normal;font-weight:bold;font-stretch:normal;line-height:0%;font-family:Overpass;-inkscape-font-specification:'Overpass, Bold';text-align:center;letter-spacing:0px;word-spacing:0px;writing-mode:lr-tb;text-anchor:middle;fill:#60646c;fill-opacity:1;stroke:none;stroke-width:1px;stroke-linecap:butt;stroke-linejoin:miter;stroke-opacity:1"
       x="1277.2682"
       y="600.01093"
       id="text4642-05-8"><tspan
         sodipodi:role="line"
         id="tspan4752"
         x="1277.2682"
         y="600.01093"
         style="font-size:25.00000191px;line-height:1.10000002">South</tspan><tspan
         sodipodi:role="line"
         id="tspan4754"
         x="1277.2682"
         y="627.51093"
         style="font-size:25.00000191px;line-height:1.10000002">Terminal</tspan></text>
    <text
       xml:space="preserve"
       style="font-style:normal;font-variant:normal;font-weight:bold;font-stretch:normal;line-height:0%;font-family:Overpass;-inkscape-font-specification:'Overpass, Bold';text-align:center;letter-spacing:0px;word-spacing:0px;writing-mode:lr-tb;text-anchor:middle;fill:#60646c;fill-opacity:1;stroke:none;stroke-width:1px;stroke-linecap:butt;stroke-linejoin:miter;stroke-opacity:1"
       x="1030.585"
       y="537.5918"
       id="text4642-05-8-6"><tspan
         sodipodi:role="line"
         id="tspan4777"
         x="1030.585"
         y="537.5918"
         style="font-size:25.00000191px;line-height:1.10000002">Central</tspan><tspan
         sodipodi:role="line"
         id="tspan4779"
         x="1030.585"
         y="565.0918"
         style="font-size:25.00000191px;line-height:1.10000002">Terminal</tspan></text>
    <text
       xml:space="preserve"
       style="font-style:normal;font-variant:normal;font-weight:bold;font-stretch:normal;line-height:0%;font-family:Overpass;-inkscape-font-specification:'Overpass, Bold';text-align:center;letter-spacing:0px;word-spacing:0px;writing-mode:lr-tb;text-anchor:middle;fill:#60646c;fill-opacity:1;stroke:none;stroke-width:1px;stroke-linecap:butt;stroke-linejoin:miter;stroke-opacity:1"
       x="1141.7222"
       y="373.05774"
       id="text4642-05-8-5"><tspan
         sodipodi:role="line"
         id="tspan4791"
         x="1141.7222"
         y="373.05774"
         style="font-size:25.00000191px;line-height:1.10000002">North</tspan><tspan
         sodipodi:role="line"
         id="tspan4793"
         x="1141.7222"
         y="400.55774"
         style="font-size:25.00000191px;line-height:1.10000002">Terminal</tspan></text>
  </g>
  <g
     transform="translate(0,1.9531253e-6)"
     inkscape:label="Label"
     id="layer4"
     inkscape:groupmode="layer"
     style="display:none">
    <g
       id="g4157">
      <g
         id="text4568"
         style="font-style:normal;font-variant:normal;font-weight:normal;font-stretch:normal;font-size:125.00000763px;line-height:125%;font-family:Overpass;-inkscape-font-specification:'Overpass, Normal';text-align:start;letter-spacing:0px;word-spacing:0px;writing-mode:lr-tb;text-anchor:start;fill:none;fill-opacity:1;stroke:#60646c;stroke-width:3.00000024;stroke-linecap:butt;stroke-linejoin:miter;stroke-miterlimit:4;stroke-dasharray:none;stroke-opacity:1">
        <path
           inkscape:connector-curvature="0"
           id="path4164"
           d="m 166.00245,1023.8044 0,-47.85158 0.36621,-13.12256 -5.12696,13.48877 -21.11816,49.01127 -21.24024,-49.37748 -5.24902,-13.12256 0.36621,13.12256 0,47.85158 -13.00049,0 0,-87.52444 13.12256,0 23.49854,54.62647 2.38037,6.40869 2.50244,-6.40869 23.37647,-54.62647 13.12256,0 0,87.52444 -13.00049,0 z" />
        <path
           inkscape:connector-curvature="0"
           id="path4166"
           d="m 202.25733,1023.8044 0,-87.52444 13.00049,0 0,87.52444 -13.00049,0 z" />
        <path
           inkscape:connector-curvature="0"
           id="path4168"
           d="m 295.45803,1023.8044 -6.95801,-20.1416 -35.40039,0 -7.14112,20.1416 -13.48877,0 31.61622,-87.52444 13.3667,0 31.49414,87.52444 -13.48877,0 z m -21.60645,-61.40139 q -0.73242,-2.07519 -1.64795,-4.82178 -0.85449,-2.74658 -1.34277,-5.00488 -0.61035,2.2583 -1.46485,5.00488 -0.79345,2.68555 -1.52588,4.82178 l -10.80322,29.78516 27.40479,0 -10.62012,-29.78516 z" />
      </g>
      <g
         id="text4572"
         style="font-style:normal;font-variant:normal;font-weight:normal;font-stretch:normal;font-size:45.00000381px;line-height:125%;font-family:Overpass;-inkscape-font-specification:'Overpass, Normal';text-align:start;letter-spacing:0px;word-spacing:0px;writing-mode:lr-tb;text-anchor:start;fill:#60646c;fill-opacity:1;stroke:none;stroke-width:1px;stroke-linecap:butt;stroke-linejoin:miter;stroke-opacity:1">
        <path
           inkscape:connector-curvature="0"
           id="path4171"
           d="m 171.12451,1073.5862 0,-17.2266 0.13184,-4.7241 -1.8457,4.856 -7.60254,17.644 -7.64649,-17.7759 -1.88965,-4.7241 0.13184,4.7241 0,17.2266 -4.68018,0 0,-31.5088 4.72412,0 8.45948,19.6655 0.85693,2.3071 0.90088,-2.3071 8.41553,-19.6655 4.72412,0 0,31.5088 -4.68018,0 z" />
        <path
           inkscape:connector-curvature="0"
           id="path4173"
           d="m 183.31934,1073.5862 0,-23.0054 4.68018,0 0,23.0054 -4.68018,0 z m 2.3291,-26.5869 q -0.59326,0 -1.1206,-0.2198 -0.50537,-0.2197 -0.90088,-0.5932 -0.37354,-0.3955 -0.59326,-0.9009 -0.21973,-0.5273 -0.21973,-1.1206 0,-0.5933 0.21973,-1.0986 0.21972,-0.5274 0.59326,-0.9009 0.39551,-0.3955 0.90088,-0.6153 0.52734,-0.2197 1.1206,-0.2197 0.59326,0 1.09863,0.2197 0.52735,0.2198 0.90088,0.6153 0.39551,0.3735 0.61524,0.9009 0.21972,0.5053 0.21972,1.0986 0,0.5933 -0.21972,1.1206 -0.21973,0.5054 -0.61524,0.9009 -0.37353,0.3735 -0.90088,0.5932 -0.50537,0.2198 -1.09863,0.2198 z" />
        <path
           inkscape:connector-curvature="0"
           id="path4175"
           d="m 212.41114,1073.5862 -4.48242,0 0,-1.9776 q -0.43946,0.4615 -1.05469,0.9229 -0.61524,0.4394 -1.40625,0.813 -0.76904,0.3515 -1.73584,0.5713 -0.9668,0.2197 -2.10938,0.2197 -1.75781,0 -3.25195,-0.4834 -1.49414,-0.4834 -2.59277,-1.4502 -1.09864,-0.9888 -1.73584,-2.417 -0.61524,-1.4502 -0.61524,-3.3618 0,-1.9775 0.74707,-3.4058 0.74707,-1.4502 1.97754,-2.373 1.23047,-0.9448 2.8125,-1.3843 1.60401,-0.4394 3.2959,-0.4394 1.58203,0 3.03223,0.3515 1.47217,0.3296 2.63672,1.0108 l 0,-1.2745 q 0,-1.2963 -0.30762,-2.1972 -0.28565,-0.9009 -0.90088,-1.4502 -0.59326,-0.5713 -1.51611,-0.813 -0.92286,-0.2637 -2.19727,-0.2637 -2.15332,0 -3.73535,0.5713 -1.56006,0.5713 -2.83447,1.5161 l -1.38428,-3.8452 q 0.70312,-0.4834 1.604,-0.9009 0.90088,-0.4394 1.97754,-0.769 1.07666,-0.3296 2.3291,-0.5054 1.25245,-0.1977 2.68067,-0.1977 0.96679,0 1.99951,0.1098 1.03271,0.1099 1.99951,0.4395 0.98877,0.3076 1.8457,0.9009 0.87891,0.5932 1.51612,1.56 0.65918,0.9448 1.03271,2.3291 0.37354,1.3843 0.37354,3.2959 l 0,14.8975 z m -9.93164,-3.6035 q 1.77978,0 3.14209,-0.7251 1.38427,-0.7251 2.30713,-1.7359 l 0,-3.5156 q -0.9668,-0.5054 -2.26319,-0.813 -1.29638,-0.3076 -2.65869,-0.3076 -1.05469,0 -1.97754,0.1978 -0.92285,0.1977 -1.62598,0.6372 -0.68115,0.4174 -1.07666,1.0986 -0.3955,0.6592 -0.3955,1.604 0,1.6479 1.14257,2.6147 1.16456,0.9449 3.40577,0.9449 z" />
        <path
           inkscape:connector-curvature="0"
           id="path4177"
           d="m 245.76564,1073.5862 0,-13.7769 q 0,-2.5708 -1.05469,-3.9551 -1.05469,-1.3842 -3.16407,-1.3842 -0.94482,0 -1.77978,0.3515 -0.83496,0.3516 -1.47217,1.0547 -0.61523,0.7031 -0.98877,1.7578 -0.35156,1.0327 -0.35156,2.417 l 0,13.5352 -4.68018,0 0,-13.7769 q 0,-2.5708 -1.07666,-3.9551 -1.05468,-1.3842 -3.16406,-1.3842 -0.94482,0 -1.77979,0.3515 -0.81298,0.3516 -1.45019,1.0547 -0.61524,0.7031 -0.98877,1.7578 -0.35156,1.0327 -0.35156,2.417 l 0,13.5352 -4.68018,0 0,-23.0054 4.68018,0 0,2.1314 q 0.98877,-1.4283 2.50488,-2.0435 1.51611,-0.6152 3.2959,-0.6152 1.88965,0 3.49365,0.769 1.62598,0.7471 2.61475,2.5049 1.09863,-1.6919 2.8125,-2.4829 1.71387,-0.791 3.99902,-0.791 1.75781,0 3.25196,0.5053 1.51611,0.5054 2.61474,1.5601 1.12061,1.0547 1.75781,2.7026 0.63721,1.648 0.63721,3.9112 l 0,14.8535 -4.68017,0 z" />
        <path
           inkscape:connector-curvature="0"
           id="path4179"
           d="m 257.05958,1073.5862 0,-23.0054 4.68017,0 0,23.0054 -4.68017,0 z m 2.3291,-26.5869 q -0.59326,0 -1.12061,-0.2198 -0.50537,-0.2197 -0.90087,-0.5932 -0.37354,-0.3955 -0.59327,-0.9009 -0.21972,-0.5273 -0.21972,-1.1206 0,-0.5933 0.21972,-1.0986 0.21973,-0.5274 0.59327,-0.9009 0.3955,-0.3955 0.90087,-0.6153 0.52735,-0.2197 1.12061,-0.2197 0.59326,0 1.09863,0.2197 0.52735,0.2198 0.90088,0.6153 0.39551,0.3735 0.61524,0.9009 0.21972,0.5053 0.21972,1.0986 0,0.5933 -0.21972,1.1206 -0.21973,0.5054 -0.61524,0.9009 -0.37353,0.3735 -0.90088,0.5932 -0.50537,0.2198 -1.09863,0.2198 z" />
      </g>
    </g>
  </g>
  <g
     transform="translate(0,1.9531253e-6)"
     inkscape:label="Date and Link"
     id="layer5"
     inkscape:groupmode="layer"
     style="display:none">
    <g
       id="text4583"
       style="font-style:normal;font-variant:normal;font-weight:300;font-stretch:normal;font-size:12.50000095px;line-height:125%;font-family:Overpass;-inkscape-font-specification:'Overpass, Light';text-align:end;letter-spacing:0px;word-spacing:0px;writing-mode:lr-tb;text-anchor:end;fill:#60646c;fill-opacity:1;stroke:none;stroke-width:1px;stroke-linecap:butt;stroke-linejoin:miter;stroke-opacity:1">
      <path
         inkscape:connector-curvature="0"
         id="path4182"
         d="m 1687.5635,1135.848 q 0,-0.825 0.2375,-1.4125 0.2375,-0.6 0.6125,-1.05 0.375,-0.45 0.85,-0.7875 0.475,-0.3375 0.95,-0.6625 0.4125,-0.275 0.7875,-0.5375 0.375,-0.275 0.6625,-0.575 0.3,-0.3 0.475,-0.6375 0.175,-0.35 0.175,-0.775 0,-0.7125 -0.5,-1.1875 -0.4875,-0.4875 -1.4,-0.4875 -0.8875,0 -1.3375,0.4 -0.45,0.3875 -0.6125,1.0125 l -0.775,-0.35 q 0.1,-0.3875 0.3375,-0.725 0.2375,-0.3375 0.6,-0.5875 0.3625,-0.25 0.825,-0.3875 0.475,-0.15 1.0375,-0.15 1.3,0 2.0125,0.675 0.725,0.6625 0.725,1.7875 0,0.6 -0.2375,1.0625 -0.225,0.4625 -0.6,0.85 -0.3625,0.375 -0.825,0.7 -0.4625,0.3125 -0.9375,0.6125 -0.375,0.25 -0.725,0.5 -0.35,0.2375 -0.65,0.525 -0.2875,0.275 -0.4875,0.6125 -0.2,0.325 -0.275,0.7375 l 4.8125,0 0,0.8375 -5.7375,0 z" />
      <path
         inkscape:connector-curvature="0"
         id="path4184"
         d="m 1696.2211,1135.848 q 0.013,-1.025 0.125,-2.025 0.125,-1 0.425,-1.9875 0.3125,-0.9875 0.825,-1.975 0.5125,-1 1.3125,-2.0125 l -4.2375,0 0,-0.75 5.2375,0 0,0.575 q -0.9125,1.05 -1.4625,2.1625 -0.55,1.1 -0.85,2.175 -0.3,1.0625 -0.4,2.05 -0.1,0.9875 -0.1,1.7875 l -0.875,0 z" />
      <path
         inkscape:connector-curvature="0"
         id="path4186"
         d="m 1707.7776,1135.2105 q 0.75,0 1.2625,-0.3375 0.525,-0.3375 0.8375,-0.875 0.325,-0.5375 0.4625,-1.2 0.15,-0.675 0.15,-1.325 0,-0.7125 -0.15,-1.3875 -0.1375,-0.675 -0.4625,-1.1875 -0.3125,-0.525 -0.8375,-0.8375 -0.5125,-0.325 -1.2625,-0.325 -0.75,0 -1.275,0.3375 -0.5125,0.3375 -0.8375,0.875 -0.3125,0.5375 -0.4625,1.2125 -0.1375,0.6625 -0.1375,1.3125 0,0.7125 0.1375,1.3875 0.15,0.675 0.4625,1.2 0.325,0.5125 0.8375,0.8375 0.525,0.3125 1.275,0.3125 z m 0,0.7875 q -1.0125,0 -1.7125,-0.4 -0.6875,-0.4 -1.1125,-1.05 -0.425,-0.65 -0.6125,-1.45 -0.1875,-0.8125 -0.1875,-1.625 0,-0.8125 0.1875,-1.6125 0.1875,-0.8125 0.6125,-1.4625 0.425,-0.65 1.1125,-1.05 0.7,-0.4 1.7125,-0.4 1.0125,0 1.7,0.4 0.7,0.4 1.125,1.05 0.425,0.65 0.6125,1.4625 0.1875,0.8 0.1875,1.6125 0,0.8125 -0.1875,1.625 -0.1875,0.8 -0.6125,1.45 -0.425,0.65 -1.125,1.05 -0.6875,0.4 -1.7,0.4 z" />
      <path
         inkscape:connector-curvature="0"
         id="path4188"
         d="m 1715.3524,1135.998 q -1.1625,0 -1.85,-0.8625 -0.675,-0.875 -0.675,-2.475 0,-1.5875 0.6875,-2.4625 0.7,-0.8875 1.9375,-0.8875 0.7125,0 1.25,0.35 0.5375,0.3375 0.8,0.9875 l -0.8,0.3125 q -0.15,-0.3625 -0.4625,-0.6125 -0.3,-0.25 -0.825,-0.25 -0.45,0 -0.7625,0.1875 -0.3125,0.175 -0.525,0.5125 -0.2,0.325 -0.3,0.8 -0.087,0.475 -0.087,1.0625 0,1.2125 0.4,1.8875 0.4,0.6625 1.25,0.6625 0.525,0 0.8875,-0.2625 0.3625,-0.2625 0.525,-0.7125 l 0.7875,0.3 q -0.225,0.675 -0.825,1.075 -0.5875,0.3875 -1.4125,0.3875 z" />
      <path
         inkscape:connector-curvature="0"
         id="path4190"
         d="m 1720.7487,1135.998 q -0.6875,0 -0.975,-0.4125 -0.2875,-0.425 -0.2875,-1.05 l 0,-4.2875 -1.0875,0 0,-0.7875 1.0875,0 0,-2.2 0.875,-0.4375 0,2.6375 1.625,0 0,0.7875 -1.625,0 0,3.9125 q 0,0.2125 0.013,0.4 0.025,0.175 0.1,0.3125 0.075,0.1375 0.2125,0.225 0.1375,0.075 0.3625,0.075 0.325,0 0.55,-0.125 0.2375,-0.125 0.4125,-0.25 l -0.1,0.9125 q -0.25,0.1375 -0.525,0.2125 -0.275,0.075 -0.6375,0.075 z" />
      <path
         inkscape:connector-curvature="0"
         id="path4192"
         d="m 1726.4063,1135.848 q 0,-0.825 0.2375,-1.4125 0.2375,-0.6 0.6125,-1.05 0.375,-0.45 0.85,-0.7875 0.475,-0.3375 0.95,-0.6625 0.4125,-0.275 0.7875,-0.5375 0.375,-0.275 0.6625,-0.575 0.3,-0.3 0.475,-0.6375 0.175,-0.35 0.175,-0.775 0,-0.7125 -0.5,-1.1875 -0.4875,-0.4875 -1.4,-0.4875 -0.8875,0 -1.3375,0.4 -0.45,0.3875 -0.6125,1.0125 l -0.775,-0.35 q 0.1,-0.3875 0.3375,-0.725 0.2375,-0.3375 0.6,-0.5875 0.3625,-0.25 0.825,-0.3875 0.475,-0.15 1.0375,-0.15 1.3,0 2.0125,0.675 0.725,0.6625 0.725,1.7875 0,0.6 -0.2375,1.0625 -0.225,0.4625 -0.6,0.85 -0.3625,0.375 -0.825,0.7 -0.4625,0.3125 -0.9375,0.6125 -0.375,0.25 -0.725,0.5 -0.35,0.2375 -0.65,0.525 -0.2875,0.275 -0.4875,0.6125 -0.2,0.325 -0.275,0.7375 l 4.8125,0 0,0.8375 -5.7375,0 z" />
      <path
         inkscape:connector-curvature="0"
         id="path4194"
         d="m 1736.8889,1135.998 q -0.8625,0 -1.4375,-0.4 -0.575,-0.4 -0.925,-1.0375 -0.3375,-0.65 -0.4875,-1.45 -0.15,-0.8125 -0.15,-1.6375 0,-0.45 0.05,-0.9625 0.05,-0.525 0.175,-1.025 0.1375,-0.5 0.35,-0.9625 0.225,-0.4625 0.5625,-0.8125 0.3375,-0.35 0.7875,-0.55 0.4625,-0.2125 1.075,-0.2125 0.8625,0 1.4375,0.4125 0.575,0.4 0.9125,1.05 0.35,0.65 0.5,1.4625 0.15,0.8 0.15,1.6 0,0.4625 -0.062,0.975 -0.05,0.5125 -0.1875,1.025 -0.125,0.5 -0.35,0.9625 -0.2125,0.45 -0.55,0.8 -0.3375,0.35 -0.8,0.5625 -0.45,0.2 -1.05,0.2 z m 0,-0.7875 q 0.65,0 1.05,-0.35 0.4125,-0.3625 0.6375,-0.9125 0.225,-0.55 0.3,-1.2125 0.075,-0.6625 0.075,-1.2625 0,-0.675 -0.087,-1.3375 -0.088,-0.675 -0.325,-1.2 -0.2375,-0.5375 -0.6375,-0.8625 -0.4,-0.3375 -1.0125,-0.3375 -0.6625,0 -1.075,0.3625 -0.4,0.3625 -0.625,0.9125 -0.225,0.55 -0.3125,1.2125 -0.075,0.65 -0.075,1.25 0,0.6875 0.087,1.3625 0.088,0.6625 0.325,1.2 0.2375,0.525 0.6375,0.85 0.4125,0.325 1.0375,0.325 z" />
      <path
         inkscape:connector-curvature="0"
         id="path4196"
         d="m 1742.7407,1135.848 0,-7.1625 -1.4875,0 0,-0.5 q 0.6625,0 1.125,-0.225 0.4625,-0.2375 0.675,-0.8625 l 0.5625,0 0,8.75 -0.875,0 z" />
      <path
         inkscape:connector-curvature="0"
         id="path4198"
         d="m 1748.578,1126.948 q 0.7125,0 1.2375,0.2625 0.525,0.2625 0.8625,0.725 0.35,0.45 0.525,1.075 0.175,0.6125 0.175,1.325 0,0.9375 -0.325,1.85 -0.3125,0.9125 -0.8875,1.6875 -0.5625,0.7625 -1.35,1.325 -0.7875,0.5625 -1.7375,0.8 l 0,-0.6875 q 0.6375,-0.1875 1.1875,-0.5625 0.55,-0.3875 0.975,-0.8875 0.4375,-0.5 0.7125,-1.075 0.2875,-0.575 0.3625,-1.1375 -0.325,0.4125 -0.8625,0.6375 -0.525,0.2125 -1.2125,0.2125 -0.5375,0 -1.0125,-0.2125 -0.4625,-0.2125 -0.8125,-0.575 -0.3375,-0.375 -0.5375,-0.85 -0.2,-0.4875 -0.2,-1.0125 0,-0.6125 0.225,-1.1375 0.225,-0.5375 0.6125,-0.925 0.4,-0.3875 0.925,-0.6125 0.525,-0.225 1.1375,-0.225 z m -0.062,4.85 q 0.4375,0 0.8,-0.15 0.375,-0.1625 0.6375,-0.4375 0.2625,-0.275 0.4125,-0.65 0.15,-0.375 0.15,-0.8125 0,-0.425 -0.1625,-0.7875 -0.15,-0.3625 -0.425,-0.6375 -0.2625,-0.275 -0.625,-0.425 -0.3625,-0.1625 -0.7875,-0.1625 -0.45,0 -0.825,0.1625 -0.3625,0.15 -0.625,0.425 -0.2625,0.275 -0.4125,0.6375 -0.1375,0.3625 -0.1375,0.7875 0,0.4375 0.1375,0.8125 0.1375,0.375 0.4,0.65 0.2625,0.275 0.625,0.4375 0.375,0.15 0.8375,0.15 z" />
      <path
         inkscape:connector-curvature="0"
         id="path4200"
         d="m 1565.9631,1151.623 q -0.675,0 -1.075,-0.2375 -0.4,-0.2375 -0.675,-0.5625 l 0,2.75 -0.875,0.4375 0,-8.925 0.875,0 0,0.575 q 0.3125,-0.2875 0.7,-0.5 0.4,-0.225 1.05,-0.225 0.6125,0 1.1,0.2375 0.4875,0.2375 0.825,0.675 0.35,0.4375 0.525,1.0625 0.1875,0.6125 0.1875,1.3625 0,0.8 -0.2,1.425 -0.1875,0.625 -0.5375,1.05 -0.35,0.425 -0.8375,0.65 -0.4875,0.225 -1.0625,0.225 z m -0.1,-0.7875 q 0.875,0 1.35,-0.65 0.475,-0.6625 0.475,-1.9125 0,-1.175 -0.4875,-1.8625 -0.475,-0.6875 -1.3375,-0.6875 -0.525,0 -0.9625,0.2625 -0.425,0.25 -0.6875,0.725 l 0,3.1375 q 0.325,0.425 0.725,0.7125 0.4,0.275 0.925,0.275 z" />
      <path
         inkscape:connector-curvature="0"
         id="path4202"
         d="m 1573.0438,1151.623 q -0.3375,0 -0.6,-0.062 -0.2625,-0.062 -0.475,-0.1625 -0.2,-0.1125 -0.375,-0.2375 -0.175,-0.125 -0.325,-0.2625 l 0,0.575 -0.875,0 0,-8.5875 0.875,-0.4375 0,3.2625 q 0.3125,-0.3375 0.7625,-0.55 0.4625,-0.225 0.9375,-0.225 0.6,0 1.0875,0.225 0.4875,0.225 0.825,0.6625 0.35,0.425 0.5375,1.05 0.1875,0.6125 0.1875,1.4 0,1.6375 -0.675,2.5 -0.675,0.85 -1.8875,0.85 z m -0.1375,-0.7875 q 0.9,0 1.3375,-0.6875 0.45,-0.6875 0.45,-1.875 0,-1.2375 -0.45,-1.8875 -0.4375,-0.6625 -1.3375,-0.6625 -0.3,0 -0.5625,0.1 -0.25,0.087 -0.4625,0.2375 -0.2125,0.1375 -0.375,0.3125 -0.15,0.175 -0.2375,0.325 l 0,3.1375 q 0.2625,0.45 0.7125,0.725 0.45,0.275 0.925,0.275 z" />
      <path
         inkscape:connector-curvature="0"
         id="path4204"
         d="m 1579.7006,1150.8355 q 0.875,0 1.35,-0.675 0.475,-0.675 0.475,-1.8875 0,-1.2 -0.4625,-1.875 -0.4625,-0.675 -1.3625,-0.675 -0.9,0 -1.3625,0.6625 -0.4625,0.65 -0.4625,1.9 0,1.2 0.4625,1.875 0.4625,0.675 1.3625,0.675 z m 0,-5.9 q 0.6125,0 1.1125,0.225 0.5125,0.225 0.8625,0.65 0.3625,0.425 0.5625,1.05 0.2,0.6125 0.2,1.4125 0,0.7875 -0.2,1.4125 -0.2,0.625 -0.5625,1.0625 -0.35,0.425 -0.8625,0.65 -0.5,0.225 -1.1125,0.225 -0.6125,0 -1.125,-0.225 -0.5,-0.225 -0.8625,-0.65 -0.35,-0.425 -0.55,-1.0375 -0.2,-0.625 -0.2,-1.425 0,-0.7875 0.2,-1.4 0.2,-0.625 0.55,-1.05 0.3625,-0.4375 0.8625,-0.6625 0.5125,-0.2375 1.125,-0.2375 z" />
      <path
         inkscape:connector-curvature="0"
         id="path4206"
         d="m 1585.6366,1153.448 q 0.775,-0.038 1.2625,-0.2 0.5,-0.15 0.775,-0.3875 0.2875,-0.225 0.3875,-0.525 0.1,-0.2875 0.1,-0.6125 l 0,-0.975 q -0.275,0.4 -0.6875,0.6375 -0.4,0.2375 -1.0625,0.2375 -0.5125,0 -0.9875,-0.2125 -0.475,-0.2125 -0.8375,-0.625 -0.3625,-0.425 -0.575,-1.05 -0.2125,-0.625 -0.2125,-1.4625 0,-0.7875 0.1875,-1.4 0.2,-0.625 0.55,-1.05 0.3625,-0.4375 0.85,-0.6625 0.4875,-0.225 1.075,-0.225 0.3625,0 0.6375,0.087 0.2875,0.075 0.4875,0.2 0.2125,0.1125 0.35,0.25 0.15,0.125 0.225,0.2125 l 0,-0.6 0.875,0 0,6.2875 q 0,0.7875 -0.25,1.3 -0.25,0.525 -0.6625,0.8375 -0.4125,0.325 -0.9625,0.4625 -0.5375,0.1375 -1.125,0.1625 l -0.4,-0.6875 z m 0.975,-2.6125 q 0.4,0 0.8375,-0.275 0.45,-0.2875 0.7125,-0.7875 l 0,-3.075 q -0.1375,-0.2375 -0.3375,-0.4125 -0.1875,-0.1875 -0.4,-0.3125 -0.2125,-0.125 -0.425,-0.1875 -0.2125,-0.062 -0.3875,-0.062 -0.95,0 -1.425,0.6625 -0.475,0.65 -0.475,1.8875 0,0.6125 0.1375,1.0875 0.15,0.475 0.4,0.8125 0.2625,0.325 0.6,0.5 0.35,0.1625 0.7625,0.1625 z" />
      <path
         inkscape:connector-curvature="0"
         id="path4208"
         d="m 1594.9672,1151.473 0,-0.625 q -0.3875,0.35 -0.875,0.5625 -0.475,0.2125 -1,0.2125 -0.9625,0 -1.575,-0.5375 -0.6,-0.55 -0.6,-1.625 0,-0.55 0.1875,-0.95 0.2,-0.4 0.5125,-0.65 0.325,-0.2625 0.75,-0.3875 0.425,-0.125 0.875,-0.125 0.4,0 0.825,0.1 0.425,0.1 0.9,0.35 l 0,-0.5375 q 0,-0.4875 -0.125,-0.7875 -0.1125,-0.3 -0.3125,-0.475 -0.1875,-0.175 -0.45,-0.2375 -0.25,-0.062 -0.5125,-0.062 -0.2375,0 -0.5,0.062 -0.2625,0.062 -0.5125,0.1625 -0.25,0.1 -0.4875,0.225 -0.225,0.1125 -0.4,0.2375 l -0.25,-0.75 q 0.3875,-0.25 0.975,-0.475 0.6,-0.225 1.2625,-0.225 0.3375,0 0.7125,0.1 0.375,0.088 0.6875,0.3375 0.3125,0.2375 0.5125,0.675 0.2125,0.425 0.2125,1.1 l 0,4.325 -0.8125,0 z m -1.7875,-0.6125 q 0.2875,0 0.55,-0.088 0.2625,-0.087 0.4875,-0.225 0.225,-0.1375 0.4125,-0.3125 0.1875,-0.1875 0.3375,-0.3625 l 0,-1.2375 q -0.3125,-0.2125 -0.775,-0.3625 -0.45,-0.1625 -0.8625,-0.1625 -0.325,0 -0.6125,0.088 -0.2875,0.075 -0.5125,0.25 -0.2125,0.1625 -0.35,0.4125 -0.125,0.25 -0.125,0.6 0,0.6375 0.375,1.025 0.375,0.375 1.075,0.375 z" />
      <path
         inkscape:connector-curvature="0"
         id="path4210"
         d="m 1597.7864,1151.473 0,-6.3875 0.875,0 0,0.9 q 0.35,-0.525 0.8125,-0.7875 0.4625,-0.2625 0.9,-0.2625 0.475,0 0.8,0.2625 l -0.1375,0.85 q -0.125,-0.075 -0.325,-0.15 -0.1875,-0.087 -0.5,-0.087 -0.2125,0 -0.4875,0.1 -0.2625,0.1 -0.5,0.3375 -0.2375,0.2375 -0.4,0.6375 -0.1625,0.3875 -0.1625,0.975 l 0,3.6125 -0.875,0 z" />
      <path
         inkscape:connector-curvature="0"
         id="path4212"
         d="m 1604.4541,1151.623 q -0.6125,0 -1.1,-0.2375 -0.4875,-0.2375 -0.8375,-0.675 -0.3375,-0.4375 -0.525,-1.05 -0.175,-0.625 -0.175,-1.3875 0,-1.5875 0.7,-2.4625 0.7125,-0.875 1.9375,-0.875 0.6,0 1,0.1875 0.4125,0.175 0.7,0.4125 l 0,-2.65 0.875,-0.4375 0,9.025 -0.875,0 0,-0.55 q -0.2875,0.2875 -0.7,0.5 -0.4,0.2 -1,0.2 z m 0.1,-0.7875 q 0.475,0 0.9,-0.2625 0.4375,-0.2625 0.7,-0.7375 l 0,-3.1875 q -0.1,-0.1625 -0.25,-0.325 -0.15,-0.1625 -0.35,-0.2875 -0.1875,-0.1375 -0.45,-0.225 -0.25,-0.088 -0.55,-0.088 -0.8875,0 -1.3625,0.6625 -0.4625,0.65 -0.4625,1.8875 0,0.5375 0.125,1.0125 0.125,0.4625 0.3625,0.8125 0.2375,0.3375 0.575,0.5375 0.3375,0.2 0.7625,0.2 z" />
      <path
         inkscape:connector-curvature="0"
         id="path4214"
         d="m 1609.5729,1151.648 q -0.3375,0 -0.5625,-0.2375 -0.225,-0.25 -0.225,-0.55 0,-0.3 0.225,-0.5375 0.225,-0.25 0.5625,-0.25 0.3375,0 0.5625,0.25 0.225,0.2375 0.225,0.5375 0,0.3 -0.225,0.55 -0.225,0.2375 -0.5625,0.2375 z" />
      <path
         inkscape:connector-curvature="0"
         id="path4216"
         d="m 1613.7655,1151.623 q -1.1625,0 -1.85,-0.8625 -0.675,-0.875 -0.675,-2.475 0,-1.5875 0.6875,-2.4625 0.7,-0.8875 1.9375,-0.8875 0.7125,0 1.25,0.35 0.5375,0.3375 0.8,0.9875 l -0.8,0.3125 q -0.15,-0.3625 -0.4625,-0.6125 -0.3,-0.25 -0.825,-0.25 -0.45,0 -0.7625,0.1875 -0.3125,0.175 -0.525,0.5125 -0.2,0.325 -0.3,0.8 -0.088,0.475 -0.088,1.0625 0,1.2125 0.4,1.8875 0.4,0.6625 1.25,0.6625 0.525,0 0.8875,-0.2625 0.3625,-0.2625 0.525,-0.7125 l 0.7875,0.3 q -0.225,0.675 -0.825,1.075 -0.5875,0.3875 -1.4125,0.3875 z" />
      <path
         inkscape:connector-curvature="0"
         id="path4218"
         d="m 1619.9838,1150.8355 q 0.875,0 1.35,-0.675 0.475,-0.675 0.475,-1.8875 0,-1.2 -0.4625,-1.875 -0.4625,-0.675 -1.3625,-0.675 -0.9,0 -1.3625,0.6625 -0.4625,0.65 -0.4625,1.9 0,1.2 0.4625,1.875 0.4625,0.675 1.3625,0.675 z m 0,-5.9 q 0.6125,0 1.1125,0.225 0.5125,0.225 0.8625,0.65 0.3625,0.425 0.5625,1.05 0.2,0.6125 0.2,1.4125 0,0.7875 -0.2,1.4125 -0.2,0.625 -0.5625,1.0625 -0.35,0.425 -0.8625,0.65 -0.5,0.225 -1.1125,0.225 -0.6125,0 -1.125,-0.225 -0.5,-0.225 -0.8625,-0.65 -0.35,-0.425 -0.55,-1.0375 -0.2,-0.625 -0.2,-1.425 0,-0.7875 0.2,-1.4 0.2,-0.625 0.55,-1.05 0.3625,-0.4375 0.8625,-0.6625 0.5125,-0.2375 1.125,-0.2375 z" />
      <path
         inkscape:connector-curvature="0"
         id="path4220"
         d="m 1630.6823,1144.9355 q 0.4625,0 0.8625,0.1625 0.4,0.1625 0.6875,0.4625 0.3,0.2875 0.4625,0.7125 0.175,0.425 0.175,0.95 l 0,4.25 -0.875,0 0,-3.9125 q 0,-0.3 -0.05,-0.625 -0.05,-0.325 -0.2,-0.5875 -0.1375,-0.275 -0.4125,-0.45 -0.275,-0.175 -0.725,-0.175 -0.3625,0 -0.6375,0.15 -0.275,0.15 -0.4625,0.4 -0.1875,0.25 -0.2875,0.5875 -0.088,0.325 -0.088,0.7 l 0,3.9125 -0.875,0 0,-3.9125 q 0,-0.3 -0.05,-0.625 -0.05,-0.325 -0.2,-0.5875 -0.1375,-0.275 -0.4125,-0.45 -0.275,-0.175 -0.725,-0.175 -0.375,0 -0.65,0.1375 -0.275,0.125 -0.4625,0.3625 -0.175,0.2375 -0.275,0.55 -0.087,0.3125 -0.087,0.6875 l 0,4.0125 -0.875,0 0,-6.3875 0.875,0 0,0.625 q 0.6625,-0.775 1.7375,-0.775 0.5125,0 0.975,0.2625 0.475,0.25 0.75,0.7125 0.2625,-0.4 0.725,-0.6875 0.475,-0.2875 1.1,-0.2875 z" />
      <path
         inkscape:connector-curvature="0"
         id="path4222"
         d="m 1633.9416,1153.098 4.9125,-10.525 0.85,0 -4.9125,10.525 -0.85,0 z" />
      <path
         inkscape:connector-curvature="0"
         id="path4224"
         d="m 1642.7457,1151.623 q -0.6875,0 -0.975,-0.4125 -0.2875,-0.425 -0.2875,-1.05 l 0,-4.2875 -1.0875,0 0,-0.7875 1.0875,0 0,-2.2 0.875,-0.4375 0,2.6375 1.625,0 0,0.7875 -1.625,0 0,3.9125 q 0,0.2125 0.013,0.4 0.025,0.175 0.1,0.3125 0.075,0.1375 0.2125,0.225 0.1375,0.075 0.3625,0.075 0.325,0 0.55,-0.125 0.2375,-0.125 0.4125,-0.25 l -0.1,0.9125 q -0.25,0.1375 -0.525,0.2125 -0.275,0.075 -0.6375,0.075 z" />
      <path
         inkscape:connector-curvature="0"
         id="path4226"
         d="m 1646.1254,1148.6355 q 0.1125,0.975 0.5875,1.575 0.475,0.6 1.3,0.6 0.35,0 0.7125,-0.1125 0.3625,-0.1125 0.725,-0.3875 l 0.475,0.5875 q -0.375,0.3125 -0.8875,0.525 -0.5,0.2 -1.0625,0.2 -0.65,0 -1.1625,-0.2625 -0.5125,-0.275 -0.875,-0.7375 -0.35,-0.4625 -0.55,-1.0625 -0.1875,-0.6125 -0.1875,-1.2875 0,-0.8 0.2,-1.4125 0.2125,-0.625 0.575,-1.05 0.3625,-0.425 0.875,-0.65 0.5125,-0.225 1.125,-0.225 0.5125,0 0.9625,0.1875 0.4625,0.175 0.8125,0.55 0.35,0.375 0.55,0.9625 0.2,0.5875 0.2,1.3875 0,0.1 0,0.25 0,0.15 -0.025,0.3625 l -4.35,0 z m 1.85,-2.9125 q -0.775,0 -1.3,0.5125 -0.5125,0.5125 -0.575,1.6125 l 3.5125,0 q 0,-0.65 -0.1625,-1.0625 -0.1625,-0.4125 -0.4125,-0.65 -0.2375,-0.2375 -0.525,-0.325 -0.2875,-0.088 -0.5375,-0.088 z" />
      <path
         inkscape:connector-curvature="0"
         id="path4228"
         d="m 1652.2541,1151.473 0,-6.3875 0.875,0 0,0.9 q 0.35,-0.525 0.8125,-0.7875 0.4625,-0.2625 0.9,-0.2625 0.475,0 0.8,0.2625 l -0.1375,0.85 q -0.125,-0.075 -0.325,-0.15 -0.1875,-0.087 -0.5,-0.087 -0.2125,0 -0.4875,0.1 -0.2625,0.1 -0.5,0.3375 -0.2375,0.2375 -0.4,0.6375 -0.1625,0.3875 -0.1625,0.975 l 0,3.6125 -0.875,0 z" />
      <path
         inkscape:connector-curvature="0"
         id="path4230"
         d="m 1663.1774,1144.9355 q 0.4625,0 0.8625,0.1625 0.4,0.1625 0.6875,0.4625 0.3,0.2875 0.4625,0.7125 0.175,0.425 0.175,0.95 l 0,4.25 -0.875,0 0,-3.9125 q 0,-0.3 -0.05,-0.625 -0.05,-0.325 -0.2,-0.5875 -0.1375,-0.275 -0.4125,-0.45 -0.275,-0.175 -0.725,-0.175 -0.3625,0 -0.6375,0.15 -0.275,0.15 -0.4625,0.4 -0.1875,0.25 -0.2875,0.5875 -0.087,0.325 -0.087,0.7 l 0,3.9125 -0.875,0 0,-3.9125 q 0,-0.3 -0.05,-0.625 -0.05,-0.325 -0.2,-0.5875 -0.1375,-0.275 -0.4125,-0.45 -0.275,-0.175 -0.725,-0.175 -0.375,0 -0.65,0.1375 -0.275,0.125 -0.4625,0.3625 -0.175,0.2375 -0.275,0.55 -0.088,0.3125 -0.088,0.6875 l 0,4.0125 -0.875,0 0,-6.3875 0.875,0 0,0.625 q 0.6625,-0.775 1.7375,-0.775 0.5125,0 0.975,0.2625 0.475,0.25 0.75,0.7125 0.2625,-0.4 0.725,-0.6875 0.475,-0.2875 1.1,-0.2875 z" />
      <path
         inkscape:connector-curvature="0"
         id="path4232"
         d="m 1667.5743,1151.473 0,-6.3875 0.875,0 0,6.3875 -0.875,0 z m 0.4375,-7.7 q -0.25,0 -0.4125,-0.1625 -0.1625,-0.1625 -0.1625,-0.4125 0,-0.25 0.1625,-0.425 0.1625,-0.175 0.4125,-0.175 0.25,0 0.4125,0.175 0.1625,0.175 0.1625,0.425 0,0.25 -0.1625,0.4125 -0.1625,0.1625 -0.4125,0.1625 z" />
      <path
         inkscape:connector-curvature="0"
         id="path4234"
         d="m 1671.5862,1145.7855 q 0.3,-0.4375 0.7125,-0.6375 0.425,-0.2125 0.9375,-0.2125 1.175,0 1.725,0.7125 0.5625,0.7 0.5625,2.2875 l 0,3.5375 -0.875,0 0,-3.9 q 0,-1.0125 -0.425,-1.425 -0.425,-0.425 -1.0625,-0.425 -0.3375,0 -0.625,0.088 -0.2875,0.087 -0.5,0.3 -0.2125,0.2125 -0.3375,0.5625 -0.1125,0.35 -0.1125,0.875 l 0,3.925 -0.875,0 0,-6.3875 0.875,0 0,0.7 z" />
      <path
         inkscape:connector-curvature="0"
         id="path4236"
         d="m 1681.393,1151.473 0,-0.625 q -0.3875,0.35 -0.875,0.5625 -0.475,0.2125 -1,0.2125 -0.9625,0 -1.575,-0.5375 -0.6,-0.55 -0.6,-1.625 0,-0.55 0.1875,-0.95 0.2,-0.4 0.5125,-0.65 0.325,-0.2625 0.75,-0.3875 0.425,-0.125 0.875,-0.125 0.4,0 0.825,0.1 0.425,0.1 0.9,0.35 l 0,-0.5375 q 0,-0.4875 -0.125,-0.7875 -0.1125,-0.3 -0.3125,-0.475 -0.1875,-0.175 -0.45,-0.2375 -0.25,-0.062 -0.5125,-0.062 -0.2375,0 -0.5,0.062 -0.2625,0.062 -0.5125,0.1625 -0.25,0.1 -0.4875,0.225 -0.225,0.1125 -0.4,0.2375 l -0.25,-0.75 q 0.3875,-0.25 0.975,-0.475 0.6,-0.225 1.2625,-0.225 0.3375,0 0.7125,0.1 0.375,0.088 0.6875,0.3375 0.3125,0.2375 0.5125,0.675 0.2125,0.425 0.2125,1.1 l 0,4.325 -0.8125,0 z m -1.7875,-0.6125 q 0.2875,0 0.55,-0.088 0.2625,-0.087 0.4875,-0.225 0.225,-0.1375 0.4125,-0.3125 0.1875,-0.1875 0.3375,-0.3625 l 0,-1.2375 q -0.3125,-0.2125 -0.775,-0.3625 -0.45,-0.1625 -0.8625,-0.1625 -0.325,0 -0.6125,0.088 -0.2875,0.075 -0.5125,0.25 -0.2125,0.1625 -0.35,0.4125 -0.125,0.25 -0.125,0.6 0,0.6375 0.375,1.025 0.375,0.375 1.075,0.375 z" />
      <path
         inkscape:connector-curvature="0"
         id="path4238"
         d="m 1684.2747,1151.473 0,-8.6 0.875,-0.425 0,9.025 -0.875,0 z" />
      <path
         inkscape:connector-curvature="0"
         id="path4240"
         d="m 1687.4592,1148.173 0,-0.85 2.7875,0 0,0.85 -2.7875,0 z" />
      <path
         inkscape:connector-curvature="0"
         id="path4242"
         d="m 1695.676,1146.398 q -0.25,-0.25 -0.625,-0.4625 -0.375,-0.225 -0.9,-0.225 -0.5625,0 -0.8875,0.225 -0.325,0.225 -0.325,0.6125 0,0.25 0.125,0.425 0.125,0.175 0.325,0.325 0.2,0.1375 0.4625,0.25 0.2625,0.1125 0.55,0.225 0.35,0.1375 0.7125,0.3125 0.375,0.1625 0.6625,0.4 0.2875,0.2375 0.475,0.575 0.1875,0.325 0.1875,0.8125 0,0.8 -0.575,1.275 -0.575,0.475 -1.575,0.475 -0.65,0 -1.225,-0.3125 -0.575,-0.325 -0.975,-0.8 l 0.6125,-0.5375 q 0.2875,0.35 0.725,0.6125 0.4375,0.2625 0.9375,0.2625 0.525,0 0.8875,-0.2375 0.3625,-0.2375 0.3625,-0.6875 0,-0.2875 -0.1375,-0.5 -0.1375,-0.225 -0.3625,-0.3875 -0.225,-0.1625 -0.5125,-0.2875 -0.2875,-0.1375 -0.575,-0.25 -0.375,-0.15 -0.725,-0.325 -0.35,-0.175 -0.6125,-0.4 -0.2625,-0.225 -0.425,-0.5125 -0.15,-0.3 -0.15,-0.7 0,-0.3625 0.15,-0.6625 0.1625,-0.3 0.425,-0.5125 0.275,-0.2125 0.65,-0.325 0.3875,-0.125 0.8375,-0.125 0.65,0 1.1625,0.2625 0.525,0.25 0.9125,0.7125 l -0.575,0.4875 z" />
      <path
         inkscape:connector-curvature="0"
         id="path4244"
         d="m 1698.2872,1151.473 0,-6.3875 0.875,0 0,6.3875 -0.875,0 z m 0.4375,-7.7 q -0.25,0 -0.4125,-0.1625 -0.1625,-0.1625 -0.1625,-0.4125 0,-0.25 0.1625,-0.425 0.1625,-0.175 0.4125,-0.175 0.25,0 0.4125,0.175 0.1625,0.175 0.1625,0.425 0,0.25 -0.1625,0.4125 -0.1625,0.1625 -0.4125,0.1625 z" />
      <path
         inkscape:connector-curvature="0"
         id="path4246"
         d="m 1701.4866,1151.473 0,-8.6 0.875,-0.425 0,9.025 -0.875,0 z" />
      <path
         inkscape:connector-curvature="0"
         id="path4248"
         d="m 1707.1961,1144.9355 q 1.175,0 1.725,0.7125 0.5625,0.7 0.5625,2.2875 l 0,3.5375 -0.875,0 0,-3.9 q 0,-1.0125 -0.425,-1.425 -0.425,-0.425 -1.0625,-0.425 -0.3375,0 -0.625,0.088 -0.2875,0.087 -0.5,0.3 -0.2125,0.2125 -0.3375,0.5625 -0.1125,0.35 -0.1125,0.875 l 0,3.925 -0.875,0 0,-8.6125 0.875,-0.4125 0,3.35 q 0.2875,-0.4375 0.7125,-0.65 0.425,-0.2125 0.9375,-0.2125 z" />
      <path
         inkscape:connector-curvature="0"
         id="path4250"
         d="m 1713.978,1150.8355 q 0.875,0 1.35,-0.675 0.475,-0.675 0.475,-1.8875 0,-1.2 -0.4625,-1.875 -0.4625,-0.675 -1.3625,-0.675 -0.9,0 -1.3625,0.6625 -0.4625,0.65 -0.4625,1.9 0,1.2 0.4625,1.875 0.4625,0.675 1.3625,0.675 z m 0,-5.9 q 0.6125,0 1.1125,0.225 0.5125,0.225 0.8625,0.65 0.3625,0.425 0.5625,1.05 0.2,0.6125 0.2,1.4125 0,0.7875 -0.2,1.4125 -0.2,0.625 -0.5625,1.0625 -0.35,0.425 -0.8625,0.65 -0.5,0.225 -1.1125,0.225 -0.6125,0 -1.125,-0.225 -0.5,-0.225 -0.8625,-0.65 -0.35,-0.425 -0.55,-1.0375 -0.2,-0.625 -0.2,-1.425 0,-0.7875 0.2,-1.4 0.2,-0.625 0.55,-1.05 0.3625,-0.4375 0.8625,-0.6625 0.5125,-0.2375 1.125,-0.2375 z" />
      <path
         inkscape:connector-curvature="0"
         id="path4252"
         d="m 1722.3889,1151.473 0,-0.6125 q -0.3375,0.4375 -0.7125,0.6 -0.375,0.1625 -0.875,0.1625 -1.2375,0 -1.8,-0.7 -0.55,-0.7 -0.55,-2.275 l 0,-3.5625 0.875,0 0,3.9 q 0,1 0.4125,1.425 0.425,0.425 1.0625,0.425 0.3375,0 0.625,-0.087 0.2875,-0.088 0.5,-0.3 0.225,-0.2125 0.3375,-0.5625 0.125,-0.35 0.125,-0.875 l 0,-3.925 0.875,0 0,6.3875 -0.875,0 z" />
      <path
         inkscape:connector-curvature="0"
         id="path4254"
         d="m 1726.0083,1148.6355 q 0.1125,0.975 0.5875,1.575 0.475,0.6 1.3,0.6 0.35,0 0.7125,-0.1125 0.3625,-0.1125 0.725,-0.3875 l 0.475,0.5875 q -0.375,0.3125 -0.8875,0.525 -0.5,0.2 -1.0625,0.2 -0.65,0 -1.1625,-0.2625 -0.5125,-0.275 -0.875,-0.7375 -0.35,-0.4625 -0.55,-1.0625 -0.1875,-0.6125 -0.1875,-1.2875 0,-0.8 0.2,-1.4125 0.2125,-0.625 0.575,-1.05 0.3625,-0.425 0.875,-0.65 0.5125,-0.225 1.125,-0.225 0.5125,0 0.9625,0.1875 0.4625,0.175 0.8125,0.55 0.35,0.375 0.55,0.9625 0.2,0.5875 0.2,1.3875 0,0.1 0,0.25 0,0.15 -0.025,0.3625 l -4.35,0 z m 1.85,-2.9125 q -0.775,0 -1.3,0.5125 -0.5125,0.5125 -0.575,1.6125 l 3.5125,0 q 0,-0.65 -0.1625,-1.0625 -0.1625,-0.4125 -0.4125,-0.65 -0.2375,-0.2375 -0.525,-0.325 -0.2875,-0.088 -0.5375,-0.088 z" />
      <path
         inkscape:connector-curvature="0"
         id="path4256"
         d="m 1733.6149,1151.623 q -0.6875,0 -0.975,-0.4125 -0.2875,-0.425 -0.2875,-1.05 l 0,-4.2875 -1.0875,0 0,-0.7875 1.0875,0 0,-2.2 0.875,-0.4375 0,2.6375 1.625,0 0,0.7875 -1.625,0 0,3.9125 q 0,0.2125 0.013,0.4 0.025,0.175 0.1,0.3125 0.075,0.1375 0.2125,0.225 0.1375,0.075 0.3625,0.075 0.325,0 0.55,-0.125 0.2375,-0.125 0.4125,-0.25 l -0.1,0.9125 q -0.25,0.1375 -0.525,0.2125 -0.275,0.075 -0.6375,0.075 z" />
      <path
         inkscape:connector-curvature="0"
         id="path4258"
         d="m 1738.2292,1151.623 q -0.6875,0 -0.975,-0.4125 -0.2875,-0.425 -0.2875,-1.05 l 0,-4.2875 -1.0875,0 0,-0.7875 1.0875,0 0,-2.2 0.875,-0.4375 0,2.6375 1.625,0 0,0.7875 -1.625,0 0,3.9125 q 0,0.2125 0.013,0.4 0.025,0.175 0.1,0.3125 0.075,0.1375 0.2125,0.225 0.1375,0.075 0.3625,0.075 0.325,0 0.55,-0.125 0.2375,-0.125 0.4125,-0.25 l -0.1,0.9125 q -0.25,0.1375 -0.525,0.2125 -0.275,0.075 -0.6375,0.075 z" />
      <path
         inkscape:connector-curvature="0"
         id="path4260"
         d="m 1741.6088,1148.6355 q 0.1125,0.975 0.5875,1.575 0.475,0.6 1.3,0.6 0.35,0 0.7125,-0.1125 0.3625,-0.1125 0.725,-0.3875 l 0.475,0.5875 q -0.375,0.3125 -0.8875,0.525 -0.5,0.2 -1.0625,0.2 -0.65,0 -1.1625,-0.2625 -0.5125,-0.275 -0.875,-0.7375 -0.35,-0.4625 -0.55,-1.0625 -0.1875,-0.6125 -0.1875,-1.2875 0,-0.8 0.2,-1.4125 0.2125,-0.625 0.575,-1.05 0.3625,-0.425 0.875,-0.65 0.5125,-0.225 1.125,-0.225 0.5125,0 0.9625,0.1875 0.4625,0.175 0.8125,0.55 0.35,0.375 0.55,0.9625 0.2,0.5875 0.2,1.3875 0,0.1 0,0.25 0,0.15 -0.025,0.3625 l -4.35,0 z m 1.85,-2.9125 q -0.775,0 -1.3,0.5125 -0.5125,0.5125 -0.575,1.6125 l 3.5125,0 q 0,-0.65 -0.1625,-1.0625 -0.1625,-0.4125 -0.4125,-0.65 -0.2375,-0.2375 -0.525,-0.325 -0.2875,-0.088 -0.5375,-0.088 z" />
      <path
         inkscape:connector-curvature="0"
         id="path4262"
         d="m 1750.803,1146.398 q -0.25,-0.25 -0.625,-0.4625 -0.375,-0.225 -0.9,-0.225 -0.5625,0 -0.8875,0.225 -0.325,0.225 -0.325,0.6125 0,0.25 0.125,0.425 0.125,0.175 0.325,0.325 0.2,0.1375 0.4625,0.25 0.2625,0.1125 0.55,0.225 0.35,0.1375 0.7125,0.3125 0.375,0.1625 0.6625,0.4 0.2875,0.2375 0.475,0.575 0.1875,0.325 0.1875,0.8125 0,0.8 -0.575,1.275 -0.575,0.475 -1.575,0.475 -0.65,0 -1.225,-0.3125 -0.575,-0.325 -0.975,-0.8 l 0.6125,-0.5375 q 0.2875,0.35 0.725,0.6125 0.4375,0.2625 0.9375,0.2625 0.525,0 0.8875,-0.2375 0.3625,-0.2375 0.3625,-0.6875 0,-0.2875 -0.1375,-0.5 -0.1375,-0.225 -0.3625,-0.3875 -0.225,-0.1625 -0.5125,-0.2875 -0.2875,-0.1375 -0.575,-0.25 -0.375,-0.15 -0.725,-0.325 -0.35,-0.175 -0.6125,-0.4 -0.2625,-0.225 -0.425,-0.5125 -0.15,-0.3 -0.15,-0.7 0,-0.3625 0.15,-0.6625 0.1625,-0.3 0.425,-0.5125 0.275,-0.2125 0.65,-0.325 0.3875,-0.125 0.8375,-0.125 0.65,0 1.1625,0.2625 0.525,0.25 0.9125,0.7125 l -0.575,0.4875 z" />
    </g>
  </g>
</svg>
