<?xml version="1.0" encoding="UTF-8" standalone="no"?>
<!-- Created with Inkscape (http://www.inkscape.org/) -->

<svg
   xmlns:dc="http://purl.org/dc/elements/1.1/"
   xmlns:cc="http://creativecommons.org/ns#"
   xmlns:rdf="http://www.w3.org/1999/02/22-rdf-syntax-ns#"
   xmlns:svg="http://www.w3.org/2000/svg"
   xmlns="http://www.w3.org/2000/svg"
   xmlns:sodipodi="http://sodipodi.sourceforge.net/DTD/sodipodi-0.dtd"
   xmlns:inkscape="http://www.inkscape.org/namespaces/inkscape"
   width="2729.8323"
   height="835.29291"
   viewBox="0 0 2729.8323 835.29293"
   id="svg2"
   version="1.1"
   inkscape:version="0.92.4 (5da689c313, 2019-01-14)"
   sodipodi:docname="ATL.svg"
   inkscape:export-filename="C:\Users\Paul Bogard\Dropbox\Documents\Websites\Flight Log\Images\Terminals\ATL.png"
   inkscape:export-xdpi="89.996498"
   inkscape:export-ydpi="89.996498">
  <defs
     id="defs4" />
  <sodipodi:namedview
     id="base"
     pagecolor="#ffffff"
     bordercolor="#666666"
     borderopacity="1.0"
     inkscape:pageopacity="1"
     inkscape:pageshadow="2"
     inkscape:zoom="0.50000001"
     inkscape:cx="933.69861"
     inkscape:cy="257.9332"
     inkscape:document-units="px"
     inkscape:current-layer="layer1"
     showgrid="false"
     units="px"
     fit-margin-top="25"
     fit-margin-left="25"
     fit-margin-right="25"
     fit-margin-bottom="25"
     inkscape:window-width="1920"
     inkscape:window-height="1137"
     inkscape:window-x="1912"
     inkscape:window-y="-8"
     inkscape:window-maximized="1" />
  <metadata
     id="metadata7">
    <rdf:RDF>
      <cc:Work
         rdf:about="">
        <dc:format>image/svg+xml</dc:format>
        <dc:type
           rdf:resource="http://purl.org/dc/dcmitype/StillImage" />
        <dc:title />
      </cc:Work>
    </rdf:RDF>
  </metadata>
  <g
     inkscape:groupmode="layer"
     id="layer2"
     inkscape:label="Terminal"
     style="display:inline"
     transform="translate(-6498.883,-1817.7878)">
    <path
       id="path4144"
       style="fill:#dddddd;fill-opacity:1;fill-rule:evenodd;stroke:#222222;stroke-width:1.5;stroke-linecap:butt;stroke-linejoin:miter;stroke-miterlimit:4;stroke-dasharray:none;stroke-opacity:1"
       d="m 8933.1375,2591.061 8.5127,0.2541 -0.1008,3.2321 2.9802,0.037 -0.2246,6.2439 14.9584,0.4941 0.3593,-9.2535 9.5231,0.1348 4.7166,-166.204 13.1615,0.3144 0.5391,-14.2396 12.0385,0.3144 0.045,-7.2321 7.9957,0.3144 0.3594,-17.2493 2.1561,0.09 0.045,-3.7733 -1.9316,-0.09 0.3594,-9.7926 7.6813,0.2246 0.2695,-6.9626 3.6834,0.09 0.3145,-6.6032 3.4139,0.1797 8.445,-20.7081 0.1796,-7.0076 3.4589,0.09 0.8984,-2.0214 0.3593,-8.6247 c 0.2246,0 23.6729,0.6738 23.6729,0.6738 l 0.6289,-14.5091 90.8731,2.6053 -0.4043,5.9744 18.8215,0.9433 0.2695,-5.3904 0.8086,0.09 0.2695,-4.1327 26.3231,-21.7413 -3.6385,-3.7283 7.5466,-6.6033 c 0,0 0.8535,-0.5839 0.2695,-1.662 0,0 -0.1348,-0.6289 -1.3925,-0.6738 l -196.3962,-6.4303 c 0,0 -30.0006,-3.3622 -27.5749,-33.0993 0,0 2.5155,-12.6674 -7.8161,-23.0889 l -19.2734,-20.8694 -5.3045,76.2953 -13.4676,1.6517 -1.9058,37.163 12.041,6.7883 z m -541.5282,22.0301 32.7018,0.8984 -0.2695,13.3412 3.5487,0 1.3925,-42.8986 3.6834,0.1797 -0.247,-7.7712 -0.1573,-15.4974 -3.0545,-0.09 c 0.09,-0.2695 1.2128,-50.9393 1.2128,-50.9393 l 0.7187,0.045 0.1797,-7.9508 -3.4139,-0.09 0.1797,-27.7156 3.2791,-0.045 0.4043,-22.1905 0.584,0.045 0.1797,-7.9508 -1.7968,-0.09 0.1796,-6.2888 -1.7518,-0.09 0.539,-18.9562 1.4824,0.09 0,-0.6738 1.4374,0 0.2246,-17.968 -2.83,-0.045 0.7188,-20.1691 1.4823,0 0.09,-29.8718 33.8247,0.8086 0.6738,-36.3852 4.3123,0.1796 0.2696,-8.0856 -4.3573,-0.045 0.6289,-18.3723 5.5701,0.1348 0,0.539 14.6439,0.1348 0.4043,-10.5113 41.9756,1.1437 0,-0.4765 11.7841,0.2224 3.081,-2.827 0.4129,-17.5677 14.5158,0.225 -0.1,2.6597 9.6803,0.1348 -0.023,-2.4706 48.8861,1.1372 0.064,2.4776 9.402,0.1905 -0.064,1.5882 7.4643,0.1906 0.1272,-4.161 41.8612,1.1373 1.662,-54.8473 -4.4022,-0.09 0.3145,-4.4471 -8.7145,-0.1348 -0.7636,22.0558 -14.2846,-0.584 0.2695,-6.199 -3.5936,-0.045 -0.3593,8.8942 -25.5146,-0.6738 0.09,-2.9647 -8.2652,-0.09 -0.1348,3.0097 -67.6495,-1.5273 0.3593,-18.1477 -2.6702,-2.9017 -53.9022,-1.0482 0.3177,-10.1007 -20.2649,-0.8258 0.3811,-62.7642 -33.1608,-0.6353 0.01,-5.0956 1.3925,0.09 0.1348,-10.1519 -1.2578,0.09 0.2296,-14.726 -1.3339,0.064 0.1906,-28.8411 2.8586,-0.064 0.1906,-7.6867 -1.7152,0.064 0.064,-14.9287 -1.1435,0 0.1905,-21.9802 2.8587,0 0.127,-21.9801 -1.0163,-0.063 0.3175,-14.6746 -1.5246,0 -0.064,-21.0273 3.1764,-0.063 0.127,-8.0679 -1.6516,0 0.3811,-14.8652 -1.5246,0 0.5082,-28.7775 1.5247,0 0.064,-14.2299 1.2071,0.063 0.3175,-19.0579 -3.3033,0 -0.2542,7.0514 -33.2879,-0.5082 0.5717,-41.3557 6.2258,-0.064 0.063,-3.9386 -6.1621,-0.063 0,1.6517 -3.3671,0 -0.8892,114.4111 -1.3339,0.064 -0.1271,8.1949 3.9386,-0.063 0.1271,-5.781 1.1436,0 -0.4449,48.0896 -2.668,0.063 -0.1907,8.0679 2.9858,0 -1.1435,55.7127 -2.6681,0.063 -0.1905,9.9737 -1.8424,0.064 -0.127,8.0679 3.6211,-0.064 0.127,-8.0678 1.0164,0 -0.8894,57.9996 -2.2233,0 -0.1907,8.2585 2.2234,0 -0.127,34.2407 -8.2585,-0.127 -0.063,9.0208 -8.9572,-0.2542 -23.5683,13.2136 0.127,5.5267 -41.1652,-1.207 -0.2832,50.748 42.0451,0.8086 -0.1796,5.6599 23.538,16.5305 10.7808,-0.09 -0.2695,7.277 -2.3807,0 -0.2246,7.9059 6.1989,0.1797 -0.8085,48.0195 -3.0546,-0.1348 -0.2246,9.8375 -1.6171,-0.045 -0.09,7.9059 3.369,-0.045 0.09,-7.7712 1.3027,0 -1.0781,50.4003 -2.7401,-0.045 -0.4291,11.4152 2.9857,0.064 -0.9528,44.7226 -2.637,-0.01 -0.1348,9.8824 -1.7518,0 -0.09,7.6813 3.5038,0 0.09,-7.6813 0.8984,0.045 -0.8085,35.5317 -2.6503,0.045 -0.2695,7.906 -1.8867,-0.045 -0.2695,6.6033 3.6385,0.09 0.1797,-6.6481 0.9433,0.045 -1.2577,50.0858 -2.8749,-0.09 -0.8086,27.8954 -1.662,-0.045 -0.1797,5.2108 3.1893,0.09 0.09,-5.2556 0.3144,0 z m -319.9651,-51.9276 c 0.1797,0 6.1091,0.1797 6.1091,0.1797 l 0,1.0332 6.5583,0.2246 0.045,-1.2129 6.1541,0 0.045,-12.9818 -2.3358,-0.09 -0.09,-9.0289 1.9765,0 0,1.3027 5.5252,0.09 0,-2.8299 -4.9862,-0.2246 0.5125,-20.7317 3.7798,0.1906 0.095,-7.3056 -3.3034,-0.095 -0.1588,5.5268 -0.3811,0.032 0.3176,-17.7874 0.8576,-0.032 -0.032,3.3669 2.4457,0 -0.032,0.8577 2.7951,0 0.095,-4.1293 -1.4611,0 0.1588,-23.4412 -0.7306,-0.7624 0.064,-7.1149 -3.1763,0.032 -0.1588,5.4632 -0.5083,0 0.6035,-32.8114 0.5082,0 -0.127,5.2727 3.3034,0.032 0.127,-6.9244 -3.7798,-0.095 0.3494,-21.472 2.3505,0.064 0.1905,-14.7699 -2.414,-0.032 0.3495,-22.0437 0.4764,0 -0.1271,5.2409 3.2399,0.095 0.127,-6.9561 -3.7162,-0.1271 0.4764,-32.8749 3.9069,0.032 0.127,-7.0196 -3.1763,-0.032 -0.127,5.368 -0.7306,0 0.7306,-29.2222 4.5738,0 0.3495,-28.3328 -0.6671,-0.5717 0.1271,-7.1468 -3.3669,0 -0.1906,5.3363 -0.4129,0 0.5717,-40.1488 0.5082,0 -0.127,5.368 3.1445,0.032 0.1906,-6.9562 -3.7481,-0.095 0.032,-1.334 5.3045,0.1588 0.127,-12.7688 6.0986,0.032 -0.095,8.862 3.621,0.1906 0.063,-7.5597 3.4622,0.1271 19.2485,-14.5158 2.6364,0.032 0.2858,-13.6264 -7.6867,-0.1588 0.095,-4.7963 -7.4643,-0.1905 0.127,-6.0668 -14.1029,-0.3812 0.032,-2.1599 -2.954,-0.064 0.032,-3.2399 -1.1117,-1.2387 -2.4776,-0.032 -1.3658,1.2705 -0.127,3.1446 -2.6364,-0.032 0.5718,-47.7083 0.7305,0 -0.1906,5.5268 3.2399,0.063 0.127,-7.0515 -3.9386,-0.032 0.6352,-29.2857 0.5559,0.016 -0.1509,5.2012 2.5173,0.056 0.095,-5.1774 0.9846,0.032 0,-1.7152 -3.9386,-0.095 0.3176,-17.9144 4.0339,0.063 0.064,-8.1631 -4.0339,-0.095 0.1905,-6.8291 0.4765,0 -0.1588,5.5903 3.208,0.095 0.2859,-7.115 -3.8116,-0.095 0.5333,-29.3605 0.6289,0.022 -0.1573,5.615 3.4194,0.099 0.1967,-7.2639 -4.0428,-0.1123 0.47,-32.8441 0.54,0.032 -0.1588,5.495 3.2081,0.032 0.2223,-7.115 -3.8116,-0.095 0.5717,-36.5595 0.6036,0 -0.1589,5.5586 3.2716,0 0.095,-7.1467 -3.8751,-0.063 0.5082,-22.5519 0.8576,0.063 -0.095,3.9069 2.954,0.032 0.095,-4.0021 0.5082,0 0.2224,-14.6429 0.4447,0 0.032,-4.701 -4.6056,-0.032 -0.032,-0.54 -19.0262,-0.2859 -0.032,0.5718 -4.701,-0.032 -0.1271,7.115 3.4305,0 0.127,-5.5586 1.3341,0 -0.7941,47.4543 -1.207,0 0.064,-5.2092 -3.5892,0 -0.095,7.1785 4.8915,-0.032 -0.3811,20.0109 -1.4294,-0.032 0,-5.2727 -3.7798,-0.095 -0.1271,7.115 5.2727,0.1588 0,1.0482 -2.3187,-0.032 -0.064,13.6265 2.287,0.032 -0.3812,21.5673 -1.5246,0 0.095,-5.368 -3.7798,0.032 -0.064,7.1785 5.3044,0 -0.7623,32.8432 -1.2387,-0.064 0,-5.1774 -3.621,-0.064 0,6.9243 4.8915,0.1271 -0.6353,36.3371 -4.955,-0.032 -0.1271,7.1467 3.4622,0.032 0.1271,-5.4633 1.4928,0.064 -0.7623,47.359 -1.3658,0 0,-5.3362 -3.621,0 -0.095,7.0832 5.0503,0.032 -0.032,1.2705 -2.287,-0.032 -0.1588,13.6265 2.3187,0.064 -0.127,8.3219 -6.0033,-0.095 0.095,-2.3823 -4.1927,0 -0.1906,7.0832 2.0964,-0.032 -0.032,0.5083 -0.6035,0 -10.863,5.0185 -0.095,2.2552 -20.7097,-0.3176 -0.2858,13.4041 1.5882,0.032 -0.032,1.5246 -8.5126,-0.064 -0.095,9.7513 16.1357,0.095 -0.2541,7.242 15.2463,7.6232 0,2.4457 13.4676,0.032 -0.127,4.4786 -2.6681,-0.032 -0.095,6.988 3.5575,0.095 0.064,-5.4316 1.334,0.063 -0.6987,40.0853 -4.8916,0 -0.1906,7.1467 3.5258,0.032 0.1905,-5.5586 1.3341,0.063 -0.7941,58.3808 -1.4611,-0.032 0,-5.4633 -3.3987,-0.063 -0.032,7.1785 4.828,0.032 -0.6827,32.9665 -4.6717,-0.1797 -0.1797,6.9626 3.369,0.045 0.1348,-5.2556 1.2128,0.045 -0.1572,12.5551 -0.539,-0.011 0.067,-3.3746 -3.0321,-0.051 -0.045,3.369 -1.0107,0 -0.539,52.7809 3.1444,0.045 0.2695,-6.738 1.2128,0.09 -0.539,36.0258 -0.9882,0 0,-7.3219 -3.5038,-0.045 -0.4043,28.8386 4.4471,0.09 -0.3144,20.1691 -1.3926,0 0.1348,-5.7048 -3.7733,0 -0.09,7.4118 5.1658,0.045 -0.4492,22.5948 2.4257,0.09 -0.045,8.6246 -2.5604,-0.09 z m -279.7277,-642.1493 -3.0178,0.032 -0.063,1.874 -3.2398,3.2398 -0.095,4.1611 -8.7956,-0.2116 -0.073,0.3109 -1.0781,0 -8.8492,6.8503 -0.2022,9.7252 -2.9647,0.09 0,1.4824 -0.4941,0.045 -0.067,8.737 -4.3628,-0.039 -0.01,6.4291 3.3858,0.01 0.017,-4.9131 4.2225,0.023 0,0.6289 8.7369,7.277 0.6738,0.023 -0.5618,28.8112 -4.8917,-0.127 0.095,-6.4797 -4.2246,-0.032 0.064,-1.6199 -2.0011,0 -0.096,1.5564 -0.3176,0 -0.095,8.6713 11.4031,0.2856 -0.2861,25.1882 -17.6286,-0.1586 -0.064,4.2562 12.5783,0.032 0.064,4.2881 4.8914,0.032 -0.2541,8.1951 -3.8115,-0.063 -0.064,5.5901 1.1118,-0.032 0,0.6352 2.7317,0.063 0,0.6671 -4.2562,0 0.095,-7.6234 -0.286,0 0.032,-1.5245 -2.2236,0.032 0,1.4294 -0.3811,-0.032 -0.032,7.5596 -1.6199,0 0.032,2.287 -3.621,0.063 0,2.9539 4.7647,0.032 0.032,-1.4613 1.9375,0.032 0.032,-1.4929 5.495,0.1271 -0.2541,12.5148 -7.4009,-0.032 -0.3495,27.5707 -1.62,-0.032 0.095,-9.1795 -0.2225,0 0.032,-1.4613 -2.128,0 -0.032,1.4613 -0.3492,-0.032 -0.1589,17.9146 5.5269,0.1271 -0.159,9.6241 6.194,0.096 -0.2225,8.5123 -4.2881,-0.064 -0.064,3.5894 4.1927,0.032 -0.032,0.8577 -3.4304,-0.031 -0.032,2.7632 3.4623,0.095 -0.1906,11.5936 -3.6209,-0.032 -0.032,5.3363 2.5412,0 0.127,-4.1295 0.9528,0 -0.1906,12.4197 -5.336,-0.1271 0.095,-6.4797 -4.4467,-0.064 -0.2541,6.6703 -2.9542,0.032 -0.127,4.0021 3.1128,0.095 -0.086,3.3055 -2.4706,0.09 -0.4043,26.9071 -2.1112,0.045 -0.4043,26.5927 14.5295,0.1386 -0.064,2.001 -20.7734,-0.5716 -0.127,4.9233 8.5176,0.2144 -0.1067,2.9521 1.5272,0.045 0.023,-1.6171 3.5038,0.045 -0.067,2.1786 -1.3476,-0.022 -0.09,2.1561 6.3338,0.09 -0.045,6.1091 -6.3786,-0.045 -0.1797,22.1455 5.9295,0.1348 -0.045,4.9861 2.6054,0.045 -0.1372,4.0032 -5.622,-0.064 0.127,-6.4477 -3.2718,-0.064 -0.032,8.6713 8.7349,0.064 -0.032,5.3044 -2.3186,0.032 -0.064,14.9605 2.1916,0.032 -0.3629,14.0263 -5.8845,-0.09 0.022,0.4717 -3.1219,0.1123 -0.022,8.8492 3.0321,0.067 -0.3818,25.537 -3.2118,0.045 0.1348,8.8942 3.4753,-0.04 -0.032,4.0976 -1.0482,0.5397 -0.3492,16.8029 6.1937,-0.032 -0.3812,27.2847 -5.6539,0 -0.063,-6.4478 -2.9539,-0.032 0.032,8.6713 8.5762,0.095 -0.5401,35.956 -5.7806,0 0.032,-6.5116 -3.0174,0.032 0.1906,8.5762 8.7029,0.2541 -0.6352,36.7498 -5.7491,0 0.1271,-6.6067 -3.1444,-0.032 0,8.7664 8.7664,0.159 -0.7938,36.8453 -5.7175,-0.1906 0.127,-6.5113 -3.1763,-0.032 0,8.8303 8.7983,0.1586 -0.5081,36.7821 27.8318,0.445 0,-7.5016 4.1326,0.1796 -0.074,5.7968 3.0809,0.095 -0.032,-5.8126 1.0483,0 0.063,-2.1284 -8.1632,-0.1906 0.4131,-26.9351 4.4151,0.032 -0.032,2.7633 5.7175,0.032 -0.064,-2.6998 -2.0646,-0.032 -0.032,-2.1284 -7.9407,-0.1271 0.7942,-36.9403 3.875,0.127 0,5.908 3.1444,0.063 0.064,-6.0034 0.7626,0.032 0.032,-2.1281 -7.8456,-0.286 0.1906,-16.8664 2.319,0.032 0.1906,-14.8653 -2.2555,0 0,-1.1115 4.2246,0 -0.032,3.049 5.749,0 0,-2.6363 -2.0329,-0.031 0.095,-2.2871 -8.0361,-0.095 0.089,-1.7597 4.1775,0.1348 0.045,-3.1444 -4.1776,0.045 0.1123,-12.9145 1.9316,0.023 0.022,-1.5498 -1.8642,0.023 0.6065,-39.7991 4.1396,0.054 -0.032,6.3211 2.8588,0.095 0.063,-6.2572 0.8893,0.032 0.032,-2.192 -7.9091,-0.064 0.1586,-8.5758 4.6377,0.095 0.4762,-29.0633 -0.4127,-0.064 0,-9.0524 3.0493,0.032 0.032,-6.7654 0.8258,0 -0.064,-2.0014 -3.5255,-0.1906 0.1586,-18.8036 -4.1607,-0.127 0.5717,-35.6068 3.9702,0 0,6.1305 3.1447,0.095 -0.064,-6.1937 1.0482,0.032 -0.032,-2.2232 -8.0042,-0.064 0.4127,-25.2837 5.0823,0.095 0,-1.4609 1.3974,0.032 2.7001,-2.7636 0.2541,-10.0372 -5.781,-0.1586 0,1.715 -2.7633,-0.064 0.064,-4.6692 -0.6672,0 -0.095,-3.3034 18.1687,0.3811 0.127,-4.8278 -18.1052,-0.3176 0.2731,-33.8413 10.9604,0.2246 -0.045,-2.4706 -0.4043,0 0.016,-1.4886 -2.033,-0.064 -0.032,1.4294 -8.4488,-0.127 0.099,-7.9031 0.6211,0.01 -0.016,4.7773 6.6043,-0.067 0.2695,-21.0899 -6.6032,-0.09 -0.067,7.1198 -0.6078,0 0.127,-8.6022 8.0274,0.1348 -0.1123,6.7604 0.3593,0 0,1.3701 2.2685,0.067 -0.045,-1.4599 0.3144,0 0.045,-8.8942 0.584,0.023 -0.023,-3.9081 -6.7604,-0.022 -0.045,3.7957 -4.5594,-0.067 0.1797,-8.4674 7.6588,0.1572 0.3836,-15.0011 -7.5595,0 0.2221,-14.1667 0.8577,0 0,-2.7633 3.2714,0.016 0,-0.3811 2.192,0.032 0.016,0.5081 -1.7631,0.032 -0.016,3.4781 6.3049,0.048 -0.016,-3.8593 0.4608,0 -0.1906,11.117 0.2857,-0.016 -0.016,1.4452 2.1123,0.048 -0.016,-1.4294 0.2698,0 0.159,-12.991 -13.0229,-0.063 0,-2.6205 4.1926,0.064 -0.032,-6.5752 -4.002,0.064 0.127,-6.9559 4.9868,0.063 0.2857,-16.5804 3.5894,0.063 0,-5.1138 -2.4457,0 0,4.0972 -1.0167,-0.032 0.127,-12.6419 -1.7694,0 -0.022,-0.6288 7.2995,0.1572 -0.2022,9.0738 0.292,0 -0.045,1.5273 2.1786,0.045 -0.022,-1.5048 0.2919,0.022 0.2246,-14.8236 -9.815,-0.045 0.09,-10.7358 -3.9305,-0.023 0.03,-8.16 5.622,0.1271 -0.032,1.4293 2.2551,0.096 0.032,-1.4613 0.4446,0.032 -0.032,-2.7317 -0.3496,0 0.1909,-8.9573 -7.8139,-0.1271 c 0,-0.3176 0.286,-21.6307 0.286,-21.6307 l 2.3186,-0.032 0.2541,-14.6748 -2.3822,0 0.1906,-6.9879 4.2562,0.1271 -0.032,6.6067 4.0972,0.063 -0.032,1.4614 2.0965,0.063 0.032,-1.4294 0.286,0 0.064,-8.6713 -2.8271,-0.064 0,-0.318 -7.8456,-0.2221 0.1271,-5.654 0.8576,0.063 8.6078,-6.7337 -0.032,-0.6037 3.0808,0 0,-2.7127 -0.4446,-0.019 0,-1.4294 -2.0965,0.032 0,1.3343 -0.5397,0 0.154,-18.4723 -8.2857,-7.542 -0.9212,0 0.032,-0.3811 7.1784,0.063 0.032,1.4929 1.9691,0 -0.032,-1.5249 0.3491,0 0.032,-2.4772 -9.815,-0.2545 0,-3.5574 -5.7491,0.032 -0.064,6.2572 -2.9223,-0.032 0.032,-4.1611 -3.0813,-3.1444 z m 10.6404,99.4828 4.2088,0.048 -0.064,6.6703 c 0,0 -4.193,-0.095 -4.2724,-0.095 z m -2.6363,135.5973 0.5401,0 -0.1112,7.0195 -0.5559,-0.016 z m -32.7442,60.1521 4.3797,0.09 -0.045,3.5487 -5.5771,-0.074 0,-2.0965 1.2423,0.014 z m -2.0045,116.4832 4.4783,0.032 -0.064,4.7963 -5.5901,0.03 -0.019,-2.2534 1.1939,-0.032 z m -286.0281,-476.5756 -2.2871,0.032 -0.1906,17.9146 -1.5564,0 -0.2856,14.5158 -8.7668,-0.032 0.159,-5.8761 -3.2718,0.063 -0.095,8.2267 11.9427,0 -0.6036,45.5166 -9.1159,-0.063 0.2225,-5.8761 -3.1129,0.032 -0.095,8.068 12.0701,0.1271 -0.9212,50.0907 -9.0524,-0.032 0.1906,-6.035 -3.0809,-0.063 -0.1906,8.2901 12.1333,0.064 -0.127,4.5106 -7.8456,-0.159 -0.6987,48.5659 -1.3339,0 -0.032,-1.2385 -2.9539,0.032 -0.095,4.0976 1.6199,0.032 -0.032,1.8425 -1.7789,0.032 0.022,2.2685 12.2386,0.2411 -0.064,6.7018 -6.6703,-0.095 -0.159,5.2725 6.6068,0.159 -0.4446,28.174 -3.3669,-0.095 -0.1906,5.368 2.6682,0.063 0.095,-4.3832 1.3343,-0.032 -0.2225,8.8934 -9.5606,-0.1586 0.127,-6.067 -2.8587,0.032 -0.1906,8.4491 12.6099,0.1906 -0.032,1.1114 -8.3537,-0.2857 -0.3176,27.7609 7.7182,0.095 -0.2667,9.4771 -5.0311,-0.09 -3.1668,-1.2577 -0.1348,4.739 2.2235,0 0.023,-1.4823 0.8535,0.3144 -0.3145,14.015 -3.4588,-0.022 0.2246,-6.2439 -3.4139,0 -0.09,8.5797 6.7082,-0.046 -0.127,12.8959 5.2409,0.127 -0.286,20.8366 -14.3888,-0.1586 0,1.0479 -7.5806,0.051 0,3.6501 -10.9422,-0.048 -6.0351,7.6866 -4.5422,0.032 -0.032,3.9705 1.7786,0 -0.1906,12.5464 7.1469,10.1007 2.7952,1.9059 26.4509,0.2278 -0.024,2.5671 0.4762,0.9212 1.747,0.032 -0.032,3.5575 0.6987,0.6987 0,4.7327 -2.7819,0.057 -0.045,0.9433 -1.662,0.023 -0.045,5.4577 3.4363,0.045 0,-4.9412 0.8535,0.045 -0.09,17.9231 -3.0995,-0.1348 -0.023,3.8856 -0.6288,0.022 -0.023,1.3476 5.4353,0.1123 -0.6513,36.6548 -4.6043,-0.09 -0.045,5.9968 3.1219,-0.022 0,-4.5145 1.5722,0.023 -0.539,31.8707 -7.5466,-0.09 -0.067,2.7401 4.1102,0.067 0.023,-1.2802 3.4363,0.067 -0.5839,37.5082 -0.831,0 0,-5.7273 -8.0856,-0.09 -0.023,0.4492 -6.0193,-0.045 -0.067,7.1647 5.9969,-0.022 0,0.4267 9.0289,0.1123 -0.5391,31.185 -7.4963,-0.127 0,14.7699 -0.3176,0 -0.064,2.7636 7.5596,0.095 -0.6352,37.7349 -1.588,0 0,-3.8754 -3.2718,-0.064 -0.1586,5.5269 5.0184,0.032 -0.4446,30.6197 -1.9056,-0.063 0.032,-3.8116 -3.0808,-0.064 -0.159,5.5266 5.0503,0.127 -0.5401,36.3056 -1.6199,-0.032 -0.032,-4.0336 -3.1763,-0.064 -0.127,5.4631 4.9233,0.064 -0.064,4.9868 9.116,0.095 -0.4446,21.2812 -10.5138,-0.1587 0.032,7.3055 33.3832,0.4289 0.1271,-7.1469 -4.193,-0.047 -0.01,-0.36 6.5808,0.1347 0.045,-2.9198 -6.6033,-0.1123 0.3987,-15.5149 3.8115,-0.4127 -0.2221,-2.3822 -3.7164,0.2222 0.088,-6.0569 0.6064,0 -0.067,2.1113 4.1102,0 0.045,-5.907 -4.5593,-0.023 c 0.022,-0.1347 0.6513,-35.4194 0.6513,-35.4194 l 3.953,0.023 0.09,-5.7498 -2.6503,-0.022 0.023,4.4246 -1.3925,0.045 0.6512,-34.2964 0.6064,0 0,3.3914 2.7177,0.1573 0.1572,-5.5027 -1.3476,-0.045 0,0.5391 -2.1337,0.022 0.6064,-42.5392 0.9658,0 -0.09,4.1776 2.9198,0 0.045,-5.66 -1.6172,-0.022 0.023,0.4043 -2.2011,0 0.8984,-52.3094 0.7861,0.023 -0.067,3.5936 3.0546,0.067 0.1572,-5.3231 -1.8642,-0.022 0,0.3144 -2.0887,-0.022 0.6064,-32.2077 0.7636,0 -0.1347,3.7059 3.0994,0.067 0.067,-5.9294 -1.7122,-0.029 -0.016,0.81 -2.0646,0 0,-1.1276 2.2236,0.064 4.2403,-7.2262 -1.6357,-1.0005 -3.6687,6.2891 -1.1911,0 0.8893,-55.7127 0.9051,0.032 -0.047,3.9705 2.6043,0 0.048,-5.1932 -1.4929,0 0.016,0.3334 -2.0011,-0.064 0.4811,-33.0439 1.4789,0.082 -0.045,2.2909 0.5166,-0.023 -0.2022,7.8835 8.0182,0.2021 0.1123,-7.4342 -0.4267,0 0.045,-0.4268 1.123,-0.1123 0.023,-2.0214 7.1872,0.023 -0.045,-1.5273 0.6288,-0.022 -0.045,-1.2129 12.6274,0.054 10.8314,-13.0229 0.1905,-16.8029 -2.128,-2.1597 1.7789,0.032 0.032,-4.4151 -4.8921,-0.2046 -0.045,0.8759 -1.6621,-1.1005 -34.3638,-0.5391 0,-2.0888 2.4032,0.045 -0.022,-1.0107 7.6364,0.09 -0.067,-2.4481 -0.2695,0 0,-2.0214 0.4492,0.022 0,-1.5048 -5.8621,-0.067 0.067,-2.6503 3.1219,0.045 0.1797,-13.4087 -6.9177,-0.1796 -0.067,1.1679 -0.3369,0.067 0,-6.2888 4.1775,0.022 0.3145,-17.5862 3.8631,0.1123 -0.2246,6.3113 3.3016,0 0.045,-4.9412 -0.5615,0.023 0.023,-1.3027 1.0556,0 -0.045,-2.246 -7.4343,0 0.09,-7.4567 -4.1327,-0.1123 0,-1.0557 7.2995,0.2471 0.2022,-13.7455 -7.2546,-0.09 0.067,-3.6834 1.9091,0 1.662,-1.707 0.045,-4.0877 -3.5037,-0.045 0.045,-2.3583 2.9647,0.023 c -0.067,-0.1123 0.067,-6.1092 0.067,-6.1092 l -2.5605,0.023 0.3369,-11.23 4.0878,0.067 0.1347,-5.9295 -4.1102,-0.045 0,-1.4823 -0.3818,0 0.023,-0.3819 2.538,0.2471 0.8534,0.8759 4.3818,0.045 -0.1368,6.5807 3.077,0.067 0.09,-6.5583 0.6738,0 0.045,-2.2235 -11.522,-0.09 -0.02,-6.2793 6.3527,0.2541 0.6987,-38.6558 -6.4481,-0.032 0,-0.9528 7.9726,0.095 -0.095,6.3208 2.8587,0.032 0.032,-6.2572 0.9528,0.063 -0.032,-2.2552 -11.6255,-0.1589 0.286,-8.6713 9.529,0.1905 0.1271,-6.3207 1.842,0.063 0,-4.7012 -5.4949,0 -0.064,4.5742 -5.8761,0 -0.032,-1.8425 5.2093,0.032 0.159,-4.2566 11.3395,0.2545 0.064,-4.1611 -16.6758,-0.159 0.3495,-25.2517 8.1312,0.063 -0.1586,6.3527 2.8584,0.063 0.095,-6.1301 0.7942,0 0.064,-2.2555 -11.6571,-0.1586 0.036,-1.2448 7.0524,0.09 0.292,-13.723 -7.1584,-0.1144 0.5081,-26.4906 7.7505,-0.063 -0.032,6.6068 2.8907,0.095 0.064,-6.4162 0.8893,0 0,-2.2235 -11.53,-0.3811 0.7622,-43.2615 8.0045,0.095 -0.1589,6.5432 2.9857,0.1271 -0.032,-6.5113 0.6355,0 -0.032,-2.2871 -11.403,-0.127 0.3495,-27.7293 -23.8542,-0.4447 z m -6.7973,188.9595 -0.032,3.9066 -8.9889,-0.2221 0.032,-1.9376 4.6693,0.032 0,-1.8422 z m -301.5929,-68.51 -0.1707,32.0245 -7.1979,-0.1377 -0.127,13.9126 2.4776,0 -0.095,5.0503 4.6053,0.095 -0.6987,40.6569 -1.4609,0 0.032,-4.0021 -3.0808,-0.032 -0.064,4.7327 1.588,0 0,0.9528 2.9542,0.064 -0.4946,24.2346 -1.112,0 0.044,-4.018 -3.3225,-0.016 -0.038,5.495 -0.2035,2e-4 0.038,1.2072 1.6636,0 0.024,-1.0791 2.9061,0 -0.585,44.8754 -1.3654,-0.032 0.031,-3.8115 -3.1128,-0.064 -0.095,4.7328 1.5245,0.032 -0.032,0.5716 3.0492,0.096 -0.254,13.118 -2.8268,0 -0.032,5.1778 -11.7522,-0.159 -0.286,14.6429 -8.0996,-0.1271 -0.064,3.5575 -10.7331,-0.3408 -8.0856,7.5915 -0.1348,10.1968 -3.7733,0.1348 -0.2246,7.9059 3.8407,-0.1347 0,0.4492 7.5241,7.9059 19.4504,0.09 -0.045,0.9433 11.8589,0.3145 -0.1751,14.8439 2.7001,0.032 -0.413,18.804 -4.4152,0 -0.2221,6.035 3.1444,0.032 0.095,-4.3197 1.3975,0 -0.095,8.9889 -0.2221,0 -1.0163,60.6045 -1.4294,0 0,-3.907 -3.0177,-0.063 -0.095,4.5737 1.588,0.064 -0.032,0.8577 2.9538,0.095 -0.6987,45.04 -2.9223,0.032 -0.032,-0.3176 -1.6199,0.032 -0.032,6.1621 3.0493,0.032 0.064,-4.4471 1.3974,0 -0.7302,45.0723 -1.1118,0 0.064,-3.9389 -3.1763,0 -0.159,5.2728 1.5883,0 0,0.3492 2.7953,0.032 -0.8262,65.0827 -1.3023,0 -0.032,-4.0021 -3.0177,0 -0.064,3.9386 -0.7303,0 0,1.5884 5.1139,0.095 -0.8258,47.9306 -1.4613,-0.032 0.127,-3.907 -3.0808,-0.064 -0.159,4.4786 1.5883,0.095 0.032,1.0479 2.9223,0.032 -0.5717,33.923 -9.0209,-0.2221 -0.2221,32.176 54.6961,1.0164 0.5716,-32.208 -10.8629,-0.2222 -0.048,-3.6687 -6.9086,-0.016 0.6293,-40.9456 1.11,-0.011 -0.065,4.34 3.0482,-0.01 0.063,-5.6595 -4.1624,0.02 0.5772,-38.959 1.2199,0.023 -0.064,3.6161 3.1254,0.023 0.138,-5.5027 -1.6,-0.038 -0.032,0.2745 -2.7597,-0.011 1.1682,-69.9688 1.1118,0 -0.034,4.3818 2.7622,0.025 -0.022,-5.9951 -1.269,0 -0.01,0.2032 -2.6109,-0.021 0.011,-4.3327 2.3022,0 0.1796,-12.7572 1.5273,0 0,0.4941 0.584,0 0.1347,-12.1284 -4.3572,0.09 0.2695,-17.6535 1.0781,0 -0.1348,5.7946 8.0856,0.2696 0.1348,-7.9509 -9.0938,-0.2365 0,-1.9691 3.4304,0.064 0,-1.0483 -3.3353,-0.063 0.5239,-35.7914 1.2356,-0.026 -0.031,4.7163 3.0693,-0.01 -0.043,-7.4942 -2.9925,0.03 -0.025,1.3514 -1.1872,-0.027 0.5426,-29.0359 1.123,0 0.045,4.1776 3.0546,0 -0.045,-6.783 -1.5272,0 -0.09,1.123 -2.4706,0 0,-8.7594 1.0332,0.045 -0.1797,6.6032 2.0214,0.045 0.1797,-8.4899 -3.0546,-0.09 0.1348,-7.7262 2.8749,0.1347 0.09,-3.6385 -2.785,-0.045 0.2179,-10.9401 4.7962,0.095 0,-6.8928 -4.5418,0 0.032,-4.1291 1.9695,0 0.2221,-14.3888 0.5243,0 -0.016,2.033 3.621,-0.064 0.032,-2.9222 0.413,0 0.1586,-7.7501 2.8588,0.032 -0.032,-0.5717 0.8893,0.032 -0.159,-11.3714 -0.6672,-0.032 0,0.4447 -5.5265,-1.3978 3.1444,-0.064 -0.032,0.2861 0.8258,0.032 0,-0.3811 7.782,0.063 0.9847,1.5249 1.2069,-0.9848 16.4534,0.1271 7.6865,-7.242 0.324,-16.8888 -5.9744,-6.0193 -0.9433,0.022 -2.9872,-1.7518 -9.7027,-0.1123 -0.023,-0.4942 -6.154,-0.09 -0.09,2.1337 -15.9915,-0.3818 0.5352,-36.9906 3.4308,0.032 0,-3.0809 1.402,-0.01 0.022,-4.6716 -2.9198,0 -0.022,3.2791 -1.7968,-0.022 0.3604,-30.4056 0.5239,0 0.016,-1.1276 -0.4766,0 0.5419,-34.9484 4.2225,0.1796 0.045,-6.0192 -2.6503,0.045 -0.09,4.4471 -1.5273,0 0.3593,-30.0066 0.9434,0 0.9433,-1.2578 0.045,-13.2514 -1.662,0 0,-0.8085 9.0738,0.1347 0.045,-7.816 -8.984,-0.2696 0.4492,-25.0204 0.7412,0.045 -0.023,-1.2128 -0.7187,0 0.023,-1.3476 2.3583,0 0.045,-7.0749 -2.3134,0.045 0.292,-13.3637 0.3818,0 0.045,-1.4824 -0.4042,0 0.067,-4.2224 0.3819,-0.022 -0.045,-2.4706 0.4043,0 0,-0.4717 -0.6738,0 0.023,-8.3775 0.6064,0.022 0,-1.0331 -0.4941,0 0.8208,-48.9172 1.2704,0.032 -0.032,3.9386 3.3353,0 0.095,-5.5585 -1.9375,0 0,0.3811 -2.7314,0 0.095,-5.8129 -9.1479,-0.1271 0.079,-7.0261 0.539,0 0.023,-1.0781 -0.4492,0 0.1797,-13.7904 -15.6546,-0.1572 0,-2.246 2.9198,0.045 0.09,-2.5155 -6.4682,-0.09 -0.7458,42.8453 -0.8774,-0.033 0.068,-4.0519 -3.2057,0.01 -0.093,4.7078 1.4706,-0.036 0.019,0.913 2.6424,0.015 -0.4524,28.8076 -0.9925,-0.034 0.012,-3.9238 -3.1862,-0.056 -0.042,5.4707 4.1769,0.1227 -0.4763,34.8037 -0.9837,0.011 0,-4.0657 -3.0811,-0.063 -0.063,3.8751 -0.6353,0.032 -0.063,1.5881 z m 27.9525,251.3074 1.747,0 -0.032,1.9055 -1.7154,0 z m -316.2347,-334.9752 -3.2399,194.3594 -0.8576,0.032 -41.3875,31.4457 0,0.6033 -2.1916,0.032 0.032,-0.3811 -286.4724,-4.7646 -0.064,6.3526 -3.0339,0 0.1116,-21.6623 -16.7709,-0.1906 0.09,22.0298 -1.8417,-0.045 -2.2011,141.498 1.3476,0.045 -0.4043,21.9209 16.7552,0.09 0.3593,-21.4269 3.414,-0.045 -0.045,6.6482 288.6917,5.0626 36.3691,30.8102 1.3339,0 -3.9066,238.7646 0.2221,0 -0.7306,43.7377 7.8139,0.063 0.054,-2.6959 14.4618,0.1572 0.4127,-33.3854 3.0177,0.063 0,-2.4141 -3.0177,-0.095 4.8598,-326.3357 -0.4127,0.032 0.2856,-15.6592 19.7568,0.2857 0.053,-4.2667 5.5027,0.023 0.1797,-10.6685 -0.2246,0 0.048,-6.2734 3.5575,0.096 0.032,-3.907 -26.554,-0.3811 -0.1267,10.174 -1.8642,-0.045 0.2759,-16.8313 9.8146,0.032 -0.051,-2.9205 -0.4043,0 0.1347,-6.3337 -3.1444,-0.045 -0.09,4.4471 -6.3786,-0.045 0.2695,-21.921 3.6606,0.1369 0.3373,-31.491 3.0994,0.045 0.045,-2.4706 -3.0546,0 0.3144,-16.9348 3.0546,0.045 0.1797,-7.8161 -2.9647,0.045 0.1323,-8.951 -4.4468,0 0.2541,-14.7699 -8.0361,-1.715 0.064,-6.7022 7.9091,-1.4294 0.8577,-54.8866 -7.9091,-1.7154 0.1586,-7.6231 8.1632,-1.5564 0.413,-29.0636 1.5564,0.032 -0.032,4.5102 2.8587,0.1271 0.095,-6.8289 -4.5741,-0.1271 0.2541,-23.5047 -2.1597,-0.445 0.064,-4.0656 -5.7494,-0.1271 0.159,-4.7327 8.4172,-1.1753 0.064,-26.2364 4.6693,0.032 0.032,-2.2235 -4.7647,-0.1271 0.096,-4.0975 -17.057,-0.2222 z m -307.8311,267.9692 14.8236,0.3145 -0.7188,27.4012 -3.7283,0 0.2246,12.8022 -1.4824,0 0,2.5604 4.8514,0 -0.3594,19.8547 -32.7467,-0.6289 0.9434,-55.7457 18.0578,0.2246 0.1348,-6.783 z"
       inkscape:connector-curvature="0" />
    <text
       xml:space="preserve"
       style="font-style:normal;font-variant:normal;font-weight:normal;font-stretch:normal;line-height:0%;font-family:Overpass;-inkscape-font-specification:'Overpass, Normal';text-align:center;letter-spacing:0px;word-spacing:0px;writing-mode:lr-tb;text-anchor:middle;fill:#000000;fill-opacity:1;stroke:none;stroke-width:1px;stroke-linecap:butt;stroke-linejoin:miter;stroke-opacity:1"
       x="8761.625"
       y="1906.376"
       id="text4147"><tspan
         sodipodi:role="line"
         id="tspan4149"
         x="8766.8105"
         y="1906.376"
         style="font-size:45px;line-height:1.10000002"> </tspan></text>
  </g>
  <g
     inkscape:groupmode="layer"
     id="layer1"
     inkscape:label="Label">
    <g
       style="font-style:normal;font-variant:normal;font-weight:bold;font-stretch:normal;font-size:125px;line-height:110.00000238%;font-family:Overpass;-inkscape-font-specification:'Overpass, Bold';text-align:center;letter-spacing:0px;word-spacing:0px;writing-mode:lr-tb;text-anchor:middle;fill:#dddddd;fill-opacity:1;stroke:#222222;stroke-width:0.25;stroke-linecap:butt;stroke-linejoin:miter;stroke-miterlimit:4;stroke-dasharray:none;stroke-opacity:1"
       id="text4152">
      <path
         d="m 2543.4524,112.64941 -6.7749,-18.127445 -33.7525,0 -6.7138,18.127445 -18.1275,0 33.5083,-87.524418 16.4795,0 33.5083,87.524418 -18.1274,0 z m -20.874,-56.274418 q -0.6714,-1.586914 -1.4649,-3.784179 -0.7324,-2.197266 -1.2817,-4.089356 -0.4883,1.89209 -1.2818,4.089356 -0.7934,2.197265 -1.4648,3.784179 l -8.667,22.766114 22.7661,0 -8.6059,-22.766114 z"
         style=""
         id="path4158" />
      <path
         d="m 2603.6941,41.421379 0,71.228031 -16.8457,0 0,-71.228031 -25.0244,0 0,-16.296387 66.8945,0 0,16.296387 -25.0244,0 z"
         style=""
         id="path4160" />
      <path
         d="m 2645.5642,112.64941 0,-87.524418 16.9067,0 0,71.289063 42.2364,0 0,16.235355 -59.1431,0 z"
         style=""
         id="path4162" />
    </g>
    <g
       style="font-style:normal;font-variant:normal;font-weight:normal;font-stretch:normal;font-size:45px;line-height:110.00000238%;font-family:Overpass;-inkscape-font-specification:'Overpass, Normal';text-align:center;letter-spacing:0px;word-spacing:0px;writing-mode:lr-tb;text-anchor:middle;fill:#222222;fill-opacity:1;stroke:none;stroke-width:1px;stroke-linecap:butt;stroke-linejoin:miter;stroke-opacity:1"
       id="text4158">
      <path
         d="m 2541.188,160.27206 -2.5049,-7.25097 -12.7441,0 -2.5708,7.25097 -4.856,0 11.3818,-31.50878 4.8121,0 11.3378,31.50878 -4.8559,0 z m -7.7783,-22.10449 q -0.2637,-0.74707 -0.5933,-1.73584 -0.3076,-0.98877 -0.4834,-1.80176 -0.2197,0.81299 -0.5273,1.80176 -0.2857,0.9668 -0.5494,1.73584 l -3.8891,10.72266 9.8657,0 -3.8232,-10.72266 z"
         style=""
         id="path4143" />
      <path
         d="m 2557.9531,160.82138 q -1.3623,0 -2.351,-0.41748 -0.9668,-0.39551 -1.6041,-1.14258 -0.6152,-0.74707 -0.9008,-1.80176 -0.2857,-1.07666 -0.2857,-2.37304 l 0,-13.75489 -3.5595,0 0,-4.06494 3.5595,0 0,-7.229 4.6802,-2.26318 0,9.49218 5.4492,0 0,4.06494 -5.4492,0 0,12.54639 q 0,0.57129 0.088,1.05469 0.1099,0.4834 0.3516,0.83496 0.2636,0.35156 0.7031,0.54932 0.4394,0.17578 1.1206,0.17578 1.6699,0 3.4057,-1.07666 l -0.5712,4.35058 q -0.9668,0.4834 -2.1094,0.76905 -1.1426,0.28564 -2.5269,0.28564 z"
         style=""
         id="path4145" />
      <path
         d="m 2568.5659,160.27206 0,-30.27832 4.6802,-2.21923 0,32.49755 -4.6802,0 z"
         style=""
         id="path4147" />
      <path
         d="m 2597.8335,160.27206 -4.4824,0 0,-1.97753 q -0.4395,0.46142 -1.0547,0.92285 -0.6152,0.43945 -1.4063,0.81298 -0.769,0.35157 -1.7358,0.57129 -0.9668,0.21973 -2.1094,0.21973 -1.7578,0 -3.2519,-0.4834 -1.4942,-0.4834 -2.5928,-1.45019 -1.0986,-0.98877 -1.7358,-2.417 -0.6153,-1.45019 -0.6153,-3.36181 0,-1.97754 0.7471,-3.40576 0.7471,-1.4502 1.9775,-2.37305 1.2305,-0.94482 2.8125,-1.38428 1.604,-0.43945 3.2959,-0.43945 1.5821,0 3.0323,0.35156 1.4721,0.32959 2.6367,1.01074 l 0,-1.27441 q 0,-1.29639 -0.3076,-2.19727 -0.2857,-0.90087 -0.9009,-1.45019 -0.5933,-0.57129 -1.5161,-0.81299 -0.9229,-0.26367 -2.1973,-0.26367 -2.1533,0 -3.7354,0.57129 -1.56,0.57129 -2.8344,1.51611 l -1.3843,-3.84521 q 0.7031,-0.4834 1.604,-0.90088 0.9009,-0.43946 1.9775,-0.76905 1.0767,-0.32959 2.3291,-0.50537 1.2525,-0.19775 2.6807,-0.19775 0.9668,0 1.9995,0.10986 1.0327,0.10987 1.9995,0.43946 0.9888,0.30761 1.8457,0.90087 0.8789,0.59327 1.5161,1.56006 0.6592,0.94483 1.0328,2.3291 0.3735,1.38428 0.3735,3.2959 l 0,14.89746 z m -9.9316,-3.60351 q 1.7797,0 3.142,-0.7251 1.3843,-0.7251 2.3072,-1.73584 l 0,-3.51562 q -0.9668,-0.50538 -2.2632,-0.81299 -1.2964,-0.30762 -2.6587,-0.30762 -1.0547,0 -1.9775,0.19775 -0.9229,0.19776 -1.626,0.63721 -0.6812,0.41748 -1.0767,1.09863 -0.3955,0.65918 -0.3955,1.60401 0,1.64795 1.1426,2.61474 1.1645,0.94483 3.4058,0.94483 z"
         style=""
         id="path4149" />
      <path
         d="m 2618.4219,160.27206 0,-13.73291 q 0,-1.45019 -0.3516,-2.46093 -0.3515,-1.03272 -0.9668,-1.66993 -0.6152,-0.65918 -1.4502,-0.94482 -0.8349,-0.30762 -1.8237,-0.30762 -1.0547,0 -1.9556,0.28565 -0.9009,0.26367 -1.56,0.8789 -0.6592,0.61524 -1.0547,1.64795 -0.3736,1.01075 -0.3736,2.48291 l 0,13.8208 -4.6801,0 0,-23.00537 4.6801,0 0,2.21924 q 1.1206,-1.42822 2.5708,-2.0874 1.4502,-0.65918 3.3619,-0.65918 1.8017,0 3.3178,0.52734 1.5161,0.50537 2.6148,1.66992 1.1206,1.16456 1.7358,3.03223 0.6153,1.86768 0.6153,4.57031 l 0,13.73291 -4.6802,0 z"
         style=""
         id="path4151" />
      <path
         d="m 2636.2637,160.82138 q -1.3623,0 -2.3511,-0.41748 -0.9668,-0.39551 -1.604,-1.14258 -0.6152,-0.74707 -0.9009,-1.80176 -0.2856,-1.07666 -0.2856,-2.37304 l 0,-13.75489 -3.5596,0 0,-4.06494 3.5596,0 0,-7.229 4.6801,-2.26318 0,9.49218 5.4493,0 0,4.06494 -5.4493,0 0,12.54639 q 0,0.57129 0.088,1.05469 0.1099,0.4834 0.3516,0.83496 0.2637,0.35156 0.7031,0.54932 0.4395,0.17578 1.1206,0.17578 1.67,0 3.4058,-1.07666 l -0.5713,4.35058 q -0.9668,0.4834 -2.1094,0.76905 -1.1426,0.28564 -2.5268,0.28564 z"
         style=""
         id="path4153" />
      <path
         d="m 2664.2788,160.27206 -4.4824,0 0,-1.97753 q -0.4395,0.46142 -1.0547,0.92285 -0.6152,0.43945 -1.4063,0.81298 -0.769,0.35157 -1.7358,0.57129 -0.9668,0.21973 -2.1094,0.21973 -1.7578,0 -3.2519,-0.4834 -1.4942,-0.4834 -2.5928,-1.45019 -1.0986,-0.98877 -1.7358,-2.417 -0.6153,-1.45019 -0.6153,-3.36181 0,-1.97754 0.7471,-3.40576 0.7471,-1.4502 1.9775,-2.37305 1.2305,-0.94482 2.8125,-1.38428 1.604,-0.43945 3.2959,-0.43945 1.5821,0 3.0323,0.35156 1.4721,0.32959 2.6367,1.01074 l 0,-1.27441 q 0,-1.29639 -0.3076,-2.19727 -0.2857,-0.90087 -0.9009,-1.45019 -0.5933,-0.57129 -1.5161,-0.81299 -0.9229,-0.26367 -2.1973,-0.26367 -2.1533,0 -3.7353,0.57129 -1.5601,0.57129 -2.8345,1.51611 l -1.3843,-3.84521 q 0.7031,-0.4834 1.604,-0.90088 0.9009,-0.43946 1.9776,-0.76905 1.0766,-0.32959 2.3291,-0.50537 1.2524,-0.19775 2.6806,-0.19775 0.9668,0 1.9995,0.10986 1.0327,0.10987 1.9995,0.43946 0.9888,0.30761 1.8457,0.90087 0.879,0.59327 1.5162,1.56006 0.6591,0.94483 1.0327,2.3291 0.3735,1.38428 0.3735,3.2959 l 0,14.89746 z m -9.9316,-3.60351 q 1.7798,0 3.1421,-0.7251 1.3842,-0.7251 2.3071,-1.73584 l 0,-3.51562 q -0.9668,-0.50538 -2.2632,-0.81299 -1.2964,-0.30762 -2.6587,-0.30762 -1.0547,0 -1.9775,0.19775 -0.9229,0.19776 -1.626,0.63721 -0.6812,0.41748 -1.0767,1.09863 -0.3955,0.65918 -0.3955,1.60401 0,1.64795 1.1426,2.61474 1.1646,0.94483 3.4058,0.94483 z"
         style=""
         id="path4155" />
    </g>
  </g>
</svg>
