<?xml version="1.0" encoding="UTF-8" standalone="no"?>
<!-- Created with Inkscape (http://www.inkscape.org/) -->

<svg
   xmlns:dc="http://purl.org/dc/elements/1.1/"
   xmlns:cc="http://creativecommons.org/ns#"
   xmlns:rdf="http://www.w3.org/1999/02/22-rdf-syntax-ns#"
   xmlns:svg="http://www.w3.org/2000/svg"
   xmlns="http://www.w3.org/2000/svg"
   xmlns:sodipodi="http://sodipodi.sourceforge.net/DTD/sodipodi-0.dtd"
   xmlns:inkscape="http://www.inkscape.org/namespaces/inkscape"
   width="1231.1329"
   height="753.8996"
   viewBox="0 0 1231.1329 753.89962"
   id="svg2"
   version="1.1"
   inkscape:version="0.92.4 (5da689c313, 2019-01-14)"
   sodipodi:docname="CVG-2015-09-10.svg"
   inkscape:export-filename="C:\Users\Paul Bogard\Dropbox\Documents\Websites\Flight Log\Images\Terminals\CVG.png"
   inkscape:export-xdpi="90"
   inkscape:export-ydpi="90">
  <defs
     id="defs4" />
  <sodipodi:namedview
     id="base"
     pagecolor="#ffffff"
     bordercolor="#666666"
     borderopacity="1.0"
     inkscape:pageopacity="1"
     inkscape:pageshadow="2"
     inkscape:zoom="0.70710678"
     inkscape:cx="-64.173973"
     inkscape:cy="281.37212"
     inkscape:document-units="px"
     inkscape:current-layer="layer1"
     showgrid="false"
     units="px"
     fit-margin-top="25"
     fit-margin-left="25"
     fit-margin-right="25"
     fit-margin-bottom="25"
     inkscape:window-width="1920"
     inkscape:window-height="1137"
     inkscape:window-x="1912"
     inkscape:window-y="-8"
     inkscape:window-maximized="1"
     inkscape:object-paths="false" />
  <metadata
     id="metadata7">
    <rdf:RDF>
      <cc:Work
         rdf:about="">
        <dc:format>image/svg+xml</dc:format>
        <dc:type
           rdf:resource="http://purl.org/dc/dcmitype/StillImage" />
        <dc:title />
      </cc:Work>
    </rdf:RDF>
  </metadata>
  <g
     inkscape:groupmode="layer"
     id="layer2"
     inkscape:label="Terminal"
     style="display:inline"
     transform="translate(-1614.9235,-1177.027)">
    <path
       id="path4188"
       style="fill:#dddddd;fill-opacity:1;fill-rule:evenodd;stroke:#222222;stroke-width:1.5;stroke-linecap:butt;stroke-linejoin:miter;stroke-miterlimit:4;stroke-dasharray:none;stroke-opacity:1"
       d="m 2528.9091,1209.7411 0.4211,25.406 8.9833,-0.07 17.3351,7.299 c 0,0 8.843,0.1404 9.1939,0.07 l -0.07,-4.7022 49.4786,-0.5615 0.07,14.8787 -41.3375,0.7018 -7.7903,-1.7545 -6.4567,-1.1931 -9.3117,-3.9068 -19.9499,-0.1985 0,1.5384 -19.5528,0.1489 0,1.4888 -23.5438,-0.053 0.07,1.8248 -5.1233,-0.07 -0.07,8.9833 c -13.9663,7.5798 -22.8093,8.2816 -22.8093,8.2816 l 6.0357,3.1582 21.9899,-0.068 1.3006,26.3794 9.2842,-0.05 0.1489,6.2033 -9.1087,0 0.034,0.7304 -12.41,0.1403 0.2165,5.0527 c 0,0 -12.9278,4.7939 -33.9474,4.9924 0,0 -16.0197,0.397 -34.3863,-4.6148 l 0,-4.7141 -11.9382,0.1985 1.1225,-33.7571 19.9694,-0.2125 0,-6.176 c 0,0 -6.2463,-1.6142 -12.282,-5.1935 l -0.1403,-8.9132 -8.843,0 -0.07,-2.1055 -28.2836,0.2807 0,-1.2633 -1.7286,-0.027 -0.05,-2.8287 -2.3324,-0.05 0,-10.3719 2.5805,0 -0.4962,-18.3122 -2.1836,-0.05 -0.05,-5.0619 7.9552,-0.025 -0.046,-7.6673 55.7802,-0.397 2.3324,3.3746 c 0,0 7.2455,-6.3522 18.9574,-0.6948 l 1.8361,-2.6302 56.078,-0.397 0.058,7.1136 z m -63.1995,288.3448 -9.8255,-0.035 0.027,3.1345 c 0.035,4.5253 -2.3572,8.7225 -6.2691,10.9978 -3.9118,2.2754 -8.743,2.2799 -12.6591,0.012 -3.916,-2.268 -6.3163,-6.4608 -6.2894,-10.9862 l -0.04,-1.5086 -43.2675,-0.1053 0,-16.528 5.2124,0.025 0.016,-35.9231 73.0078,-0.2808 -0.029,-53.5388 27.4931,0.1489 0.1235,70.2215 5.4107,0.05 0.01,-11.638 321.6249,-0.6451 0.05,34.2377 -321.6993,0.7692 0.01,-9.4239 -5.3775,-10e-5 0.052,29.2797 -27.5427,-0.099 z m 35.7229,274.9059 15.2263,-0.1489 0.1111,13.2605 252.3034,0.4626 0,4.5891 c 6.4018,5.707 6.0544,14.1436 6.0544,14.1436 0.05,10.0245 -6.3395,15.1655 -6.3395,15.1655 l 0.035,4.0004 -251.2533,-0.1404 -0.035,16.3175 -47.1276,-0.351 0.035,13.44 -4.5531,0.044 0.01,0.4649 -11.5626,-0.017 c -4.0355,5.5444 -12.5626,5.5795 -12.5626,5.5795 -8.7728,0.1755 -13.3347,-5.8602 -13.3347,-5.8602 l -12.2118,0.07 0.07,-14.0716 -46.0397,-0.035 c -1.8247,-0.035 -1.8598,-0.5615 -1.8598,-0.5615 l 0,-3.4389 -25.1442,0.063 0.054,-10.3102 -128.3284,-0.1052 -1.8598,-1.9652 -3.088,0.035 0,-4.9742 c -6.5508,-5.0619 -5.856,-15.1361 -5.856,-15.1361 0.1489,-10.4712 5.7504,-14.3493 5.7504,-14.3493 l 0,-4.9127 3.0529,0 1.7195,-1.7195 19.5107,0.1403 0.035,2.3512 73.6916,0.386 0,-2.5266 18.4451,0.1845 0,1.4392 c 0,0.8436 0.8902,0.9029 0.8902,0.9029 l 20.6688,0 -0.021,-11.2004 12.8996,0.041 0,-2.8073 13.9312,0.1755 c 23.1602,-12.4223 42.7208,-14.8532 42.7208,-14.8532 l 0.05,7.2454 2.7086,0.068 c -0.03,-6.4892 3.5116,-12.4955 9.2787,-15.7345 5.7671,-3.239 12.8729,-3.2128 18.6147,0.069 5.7418,3.2815 9.2371,9.3138 9.1563,15.8026 l 2.6228,-0.01 0.05,-7.047 c 20.0491,2.1836 41.4783,14.2457 41.4783,14.2457 z m -733.6194,63.0753 -44.6639,0 0,-27.3939 44.6639,0 0.1413,-20.2274 0.7555,0 -8.1587,-8.1938 0.019,-3.5408 -21.5379,-22.0342 -0.8436,0.4962 -0.4467,-0.794 -96.7221,-0.3473 -0.05,-6.253 131.3614,0.4466 0,-3.1264 11.5134,-0.1489 0,1.3895 30.3714,0.1489 -0.05,2.0347 3.6227,0 -0.05,-3.1761 4.4664,-0.099 0.05,3.3746 11.9104,0 0.05,-3.3746 11.2652,-0.05 -0.099,3.3746 106.2763,0.3015 0,6.141 -74.3238,-0.1344 -1.2984,1.0878 -0.6316,-0.6667 -38.1117,21.8557 0.05,3.325 -7.697,7.8051 -0.737,0.035 0,0.6667 10.9134,0.1053 0.1404,17.1947 7.4393,7.4744 -0.1052,23.4059 -5.3339,5.2988 0.07,19.8265 -13.5237,-0.2265 8.6846,8.6846 -0.074,3.7192 37.7933,21.791 0.3509,-0.5263 1.7545,1.0878 73.8507,0.397 0.035,6.2463 -95.0107,-0.362 0,2.0704 -4.3864,0 -0.035,-2.1054 -26.6693,-0.2457 0,1.9651 -4.5268,0 0,-2.2107 -46.7284,-0.2394 0.025,2.2084 -4.6153,0 0,-2.258 -15.6,0.1486 0,2.1406 -4.3864,-0.035 0,-2.0704 -108.293,-0.2276 0.035,-6.4568 96.5681,0.2417 0.6348,-0.8128 0.475,0.518 22.1299,-22.5522 -0.075,-2.6082 8.0898,-8.0863 -0.7444,-0.074 z"
       inkscape:connector-curvature="0" />
  </g>
  <g
     inkscape:groupmode="layer"
     id="layer1"
     inkscape:label="Label">
    <g
       id="text4136"
       style="font-style:normal;font-variant:normal;font-weight:bold;font-stretch:normal;font-size:125px;line-height:110.00000238%;font-family:Overpass;-inkscape-font-specification:'Overpass, Bold';text-align:start;letter-spacing:0px;word-spacing:0px;writing-mode:lr-tb;text-anchor:start;display:inline;fill:#dddddd;fill-opacity:1;stroke:#222222;stroke-width:0.25;stroke-linecap:butt;stroke-linejoin:miter;stroke-opacity:1;stroke-miterlimit:4;stroke-dasharray:none"
       transform="translate(-85.117667,-57.39859)">
      <path
         inkscape:connector-curvature="0"
         id="path4142"
         d="m 146.86086,172.79167 q -6.83593,0 -12.20703,-1.83105 -5.37109,-1.83106 -9.46045,-5.06592 -4.08935,-3.23486 -6.95801,-7.56836 -2.86865,-4.3335 -4.6997,-9.33838 -1.77002,-5.06592 -2.62451,-10.49805 -0.79346,-5.43212 -0.79346,-10.86425 0,-5.00489 0.85449,-10.25391 0.85449,-5.31006 2.62451,-10.31494 1.83106,-5.00488 4.69971,-9.460451 2.92969,-4.455566 6.95801,-7.8125 4.08935,-3.356933 9.46045,-5.310058 5.37109,-1.953125 12.14599,-1.953125 6.28662,0 11.41358,1.708984 5.12695,1.708984 9.0332,4.516602 3.90625,2.746582 6.5918,6.286621 2.74658,3.540039 4.21142,7.202147 l -15.13672,6.89697 q -1.58691,-2.4414 -3.23486,-4.39453 -1.64795,-1.95312 -3.54004,-3.23486 -1.89209,-1.34277 -4.21142,-2.014161 -2.2583,-0.732422 -5.12696,-0.732422 -3.66211,0 -6.53076,1.281743 -2.86865,1.2207 -5.00488,3.35693 -2.13623,2.13623 -3.60108,5.00488 -1.46484,2.86865 -2.38037,6.10352 -0.91552,3.17383 -1.34277,6.59179 -0.36621,3.35694 -0.36621,6.53077 0,5.12695 1.09863,10.2539 1.09863,5.12696 3.41797,9.27735 2.31934,4.15039 5.92041,6.7749 3.66211,2.56348 8.78906,2.56348 2.68555,0 4.94385,-0.79346 2.2583,-0.85449 4.15039,-2.31934 1.95313,-1.46484 3.60108,-3.54004 1.70898,-2.07519 3.17382,-4.57763 l 15.50293,5.85937 q -2.07519,4.82178 -5.00488,8.8501 -2.92969,3.96728 -6.83594,6.83594 -3.84521,2.80761 -8.72802,4.39453 -4.88282,1.58691 -10.80323,1.58691 z"
         style="stroke:#222222;stroke-opacity:1;stroke-width:0.25;stroke-miterlimit:4;stroke-dasharray:none" />
      <path
         inkscape:connector-curvature="0"
         id="path4144"
         d="m 236.76565,171.38786 -16.23535,0 -31.00586,-87.524411 18.24951,0 19.22607,57.250981 q 0.48828,1.4038 0.91553,3.05175 0.48828,1.58692 0.85449,2.99073 0.30518,-1.34278 0.73242,-2.92969 0.42725,-1.58692 0.91553,-3.11279 l 19.22608,-57.250981 18.00537,0 -30.88379,87.524411 z"
         style="stroke:#222222;stroke-opacity:1;stroke-width:0.25;stroke-miterlimit:4;stroke-dasharray:none" />
      <path
         inkscape:connector-curvature="0"
         id="path4146"
         d="m 312.44924,172.91374 q -6.7749,0 -12.26806,-1.77002 -5.49317,-1.77002 -9.76563,-4.88281 -4.27246,-3.11279 -7.38525,-7.38525 -3.1128,-4.3335 -5.12696,-9.33838 -2.01416,-5.00489 -2.99072,-10.55908 -0.97656,-5.61524 -0.97656,-11.35254 0,-5.31006 0.97656,-10.74219 1.0376,-5.43213 3.11279,-10.43701 2.13623,-5.06592 5.24903,-9.460452 3.17383,-4.394532 7.44629,-7.629395 4.33349,-3.234863 9.70459,-5.065918 5.43212,-1.89209 12.02392,-1.89209 6.34766,0 11.16944,1.586914 4.88281,1.586914 8.60595,4.211426 3.78418,2.563477 6.53076,5.981446 2.80762,3.356933 5.06592,6.958009 l -14.89258,8.48389 q -1.46484,-2.19727 -3.17382,-4.1504 -1.70899,-2.01416 -3.72315,-3.54003 -1.95312,-1.52588 -4.33349,-2.380376 -2.38038,-0.915527 -5.24903,-0.915527 -4.08935,0 -7.20215,1.281738 -3.11279,1.220705 -5.49316,3.417965 -2.31934,2.13623 -3.90625,5.00489 -1.58691,2.86865 -2.56348,6.10351 -0.97656,3.23487 -1.40381,6.65283 -0.42724,3.35694 -0.42724,6.53077 0,5.5542 1.15967,10.80322 1.15966,5.18799 3.66211,9.27734 2.56347,4.02832 6.53076,6.46973 4.02832,2.44141 9.64355,2.44141 3.17383,0 5.92041,-1.09864 2.80762,-1.15967 4.88281,-3.05176 2.0752,-1.95312 3.23487,-4.57763 1.2207,-2.62451 1.2207,-5.61524 l 0,-0.73242 -14.89258,0 0,-16.05224 32.10449,0 0,12.87841 q 0,8.42286 -2.50244,14.89258 -2.50244,6.40869 -6.89697,10.80322 -4.3335,4.3335 -10.25391,6.5918 -5.92041,2.2583 -12.81738,2.2583 z"
         style="stroke:#222222;stroke-opacity:1;stroke-width:0.25;stroke-miterlimit:4;stroke-dasharray:none" />
    </g>
    <g
       id="text4142"
       style="font-style:normal;font-variant:normal;font-weight:normal;font-stretch:normal;font-size:45px;line-height:110.00000238%;font-family:Overpass;-inkscape-font-specification:'Overpass, Normal';text-align:start;letter-spacing:0px;word-spacing:0px;writing-mode:lr-tb;text-anchor:start;display:inline;fill:#222222;fill-opacity:1;stroke:none;stroke-width:1px;stroke-linecap:butt;stroke-linejoin:miter;stroke-opacity:1"
       transform="translate(-85.117667,-57.39859)">
      <path
         inkscape:connector-curvature="0"
         id="path4149"
         d="m 141.36404,220.96072 q -2.43897,0 -4.37256,-0.65918 -1.91162,-0.68115 -3.36182,-1.82373 -1.45019,-1.16455 -2.48291,-2.72461 -1.01074,-1.58203 -1.64795,-3.38378 -0.6372,-1.82374 -0.94482,-3.7793 -0.28565,-1.97754 -0.28565,-3.93311 0,-1.80175 0.28565,-3.71338 0.30762,-1.91162 0.94482,-3.71337 0.65918,-1.82374 1.6919,-3.42774 1.03271,-1.604 2.48291,-2.8125 1.45019,-1.2085 3.36181,-1.91162 1.91162,-0.70313 4.32862,-0.70313 2.21923,0 3.99902,0.54932 1.77979,0.52734 3.09814,1.40625 1.34034,0.87891 2.24122,1.99951 0.90087,1.12061 1.38427,2.28516 l -4.28467,1.99951 q -0.57128,-0.90088 -1.20849,-1.58203 -0.61524,-0.70313 -1.38428,-1.18652 -0.74707,-0.4834 -1.69189,-0.7251 -0.94483,-0.2417 -2.15332,-0.2417 -1.58203,0 -2.8125,0.50537 -1.2085,0.50537 -2.13135,1.38428 -0.90088,0.8789 -1.53809,2.04345 -0.6372,1.16456 -1.03271,2.48291 -0.37354,1.29639 -0.54932,2.68067 -0.17578,1.38428 -0.17578,2.68066 0,2.08741 0.46143,4.19678 0.48339,2.10938 1.49414,3.80127 1.01074,1.69189 2.5708,2.74658 1.56006,1.05469 3.71338,1.05469 1.16455,0 2.0874,-0.28565 0.94482,-0.30761 1.71387,-0.83496 0.79101,-0.54931 1.40625,-1.29638 0.6372,-0.74707 1.18652,-1.64795 l 4.37256,1.66992 q -0.65918,1.53809 -1.64795,2.8125 -0.9668,1.27441 -2.30713,2.17529 -1.31836,0.90088 -3.03223,1.40625 -1.69189,0.50537 -3.77929,0.50537 z" />
      <path
         inkscape:connector-curvature="0"
         id="path4151"
         d="m 158.04128,220.41141 0,-23.00537 4.68018,0 0,23.00537 -4.68018,0 z m 2.3291,-26.58692 q -0.59326,0 -1.1206,-0.21972 -0.50537,-0.21973 -0.90088,-0.59326 -0.37354,-0.39551 -0.59326,-0.90088 -0.21973,-0.52735 -0.21973,-1.12061 0,-0.59326 0.21973,-1.09863 0.21972,-0.52735 0.59326,-0.90088 0.39551,-0.39551 0.90088,-0.61524 0.52734,-0.21972 1.1206,-0.21972 0.59327,0 1.09864,0.21972 0.52734,0.21973 0.90088,0.61524 0.3955,0.37353 0.61523,0.90088 0.21973,0.50537 0.21973,1.09863 0,0.59326 -0.21973,1.12061 -0.21973,0.50537 -0.61523,0.90088 -0.37354,0.37353 -0.90088,0.59326 -0.50537,0.21972 -1.09864,0.21972 z" />
      <path
         inkscape:connector-curvature="0"
         id="path4153"
         d="m 183.72732,220.41141 0,-13.73291 q 0,-1.4502 -0.35156,-2.46094 -0.35157,-1.03272 -0.9668,-1.66992 -0.61524,-0.65918 -1.4502,-0.94483 -0.83496,-0.30761 -1.82373,-0.30761 -1.05468,0 -1.95556,0.28564 -0.90088,0.26367 -1.56006,0.87891 -0.65918,0.61523 -1.05469,1.64795 -0.37354,1.01074 -0.37354,2.48291 l 0,13.8208 -4.68017,0 0,-23.00537 4.68017,0 0,2.21923 q 1.12061,-1.42822 2.57081,-2.0874 1.45019,-0.65918 3.36181,-0.65918 1.80176,0 3.31787,0.52735 1.51612,0.50537 2.61475,1.66992 1.1206,1.16455 1.73584,3.03222 0.61523,1.86768 0.61523,4.57032 l 0,13.73291 -4.68017,0 z" />
      <path
         inkscape:connector-curvature="0"
         id="path4155"
         d="m 203.81033,220.96072 q -2.30713,0 -4.17481,-0.81298 -1.8457,-0.81299 -3.16406,-2.35108 -1.29639,-1.56006 -1.99951,-3.7793 -0.70313,-2.24121 -0.70313,-5.07568 0,-2.83447 0.70313,-5.07568 0.70312,-2.24121 1.99951,-3.7793 1.31836,-1.56006 3.16406,-2.37305 1.86768,-0.83496 4.17481,-0.83496 3.208,0 5.42724,1.42823 2.24121,1.42822 3.25195,4.50439 l -4.43847,1.53809 q -0.50537,-1.31836 -1.53809,-2.13135 -1.03271,-0.83496 -2.52685,-0.83496 -1.31836,0 -2.3291,0.52734 -1.01075,0.52734 -1.71387,1.51611 -0.68115,0.9668 -1.05469,2.37305 -0.35156,1.38428 -0.35156,3.14209 0,1.75781 0.35156,3.16406 0.37354,1.38428 1.03272,2.35108 0.68115,0.96679 1.64794,1.49414 0.98877,0.50537 2.24122,0.50537 1.58203,0 2.70263,-0.87891 1.14258,-0.8789 1.62598,-2.50488 l 4.43848,1.40625 q -0.92286,3.20801 -3.14209,4.85596 -2.19727,1.62597 -5.625,1.62597 z" />
      <path
         inkscape:connector-curvature="0"
         id="path4157"
         d="m 218.24636,220.41141 0,-23.00537 4.68018,0 0,23.00537 -4.68018,0 z m 2.3291,-26.58692 q -0.59326,0 -1.1206,-0.21972 -0.50537,-0.21973 -0.90088,-0.59326 -0.37354,-0.39551 -0.59326,-0.90088 -0.21973,-0.52735 -0.21973,-1.12061 0,-0.59326 0.21973,-1.09863 0.21972,-0.52735 0.59326,-0.90088 0.39551,-0.39551 0.90088,-0.61524 0.52734,-0.21972 1.1206,-0.21972 0.59326,0 1.09864,0.21972 0.52734,0.21973 0.90087,0.61524 0.39551,0.37353 0.61524,0.90088 0.21972,0.50537 0.21972,1.09863 0,0.59326 -0.21972,1.12061 -0.21973,0.50537 -0.61524,0.90088 -0.37353,0.37353 -0.90087,0.59326 -0.50538,0.21972 -1.09864,0.21972 z" />
      <path
         inkscape:connector-curvature="0"
         id="path4159"
         d="m 243.9324,220.41141 0,-13.73291 q 0,-1.4502 -0.35157,-2.46094 -0.35156,-1.03272 -0.96679,-1.66992 -0.61524,-0.65918 -1.4502,-0.94483 -0.83496,-0.30761 -1.82373,-0.30761 -1.05469,0 -1.95557,0.28564 -0.90087,0.26367 -1.56005,0.87891 -0.65918,0.61523 -1.05469,1.64795 -0.37354,1.01074 -0.37354,2.48291 l 0,13.8208 -4.68017,0 0,-23.00537 4.68017,0 0,2.21923 q 1.12061,-1.42822 2.5708,-2.0874 1.4502,-0.65918 3.36182,-0.65918 1.80176,0 3.31787,0.52735 1.51611,0.50537 2.61475,1.66992 1.1206,1.16455 1.73584,3.03222 0.61523,1.86768 0.61523,4.57032 l 0,13.73291 -4.68017,0 z" />
      <path
         inkscape:connector-curvature="0"
         id="path4161"
         d="m 269.33279,220.41141 0,-13.73291 q 0,-1.4502 -0.35157,-2.46094 -0.35156,-1.03272 -0.96679,-1.66992 -0.61524,-0.65918 -1.4502,-0.94483 -0.83496,-0.30761 -1.82373,-0.30761 -1.05469,0 -1.95557,0.28564 -0.90087,0.26367 -1.56005,0.87891 -0.65918,0.61523 -1.05469,1.64795 -0.37354,1.01074 -0.37354,2.48291 l 0,13.8208 -4.68017,0 0,-23.00537 4.68017,0 0,2.21923 q 1.12061,-1.42822 2.5708,-2.0874 1.4502,-0.65918 3.36182,-0.65918 1.80176,0 3.31787,0.52735 1.51612,0.50537 2.61475,1.66992 1.1206,1.16455 1.73584,3.03222 0.61523,1.86768 0.61523,4.57032 l 0,13.73291 -4.68017,0 z" />
      <path
         inkscape:connector-curvature="0"
         id="path4163"
         d="m 298.13894,220.41141 -4.48242,0 0,-1.97754 q -0.43946,0.46142 -1.05469,0.92285 -0.61523,0.43945 -1.40625,0.81299 -0.76904,0.35156 -1.73584,0.57129 -0.9668,0.21972 -2.10938,0.21972 -1.75781,0 -3.25195,-0.48339 -1.49414,-0.4834 -2.59277,-1.4502 -1.09863,-0.98877 -1.73584,-2.41699 -0.61524,-1.4502 -0.61524,-3.36182 0,-1.97754 0.74707,-3.40576 0.74707,-1.4502 1.97754,-2.37305 1.23047,-0.94482 2.8125,-1.38427 1.60401,-0.43946 3.2959,-0.43946 1.58203,0 3.03223,0.35156 1.47217,0.32959 2.63672,1.01075 l 0,-1.27442 q 0,-1.29638 -0.30762,-2.19726 -0.28564,-0.90088 -0.90088,-1.4502 -0.59326,-0.57129 -1.51611,-0.81299 -0.92285,-0.26367 -2.19727,-0.26367 -2.15332,0 -3.73535,0.57129 -1.56006,0.57129 -2.83447,1.51611 l -1.38428,-3.84521 q 0.70313,-0.4834 1.604,-0.90088 0.90088,-0.43945 1.97754,-0.76904 1.07666,-0.32959 2.3291,-0.50537 1.25245,-0.19776 2.68067,-0.19776 0.9668,0 1.99951,0.10987 1.03272,0.10986 1.99951,0.43945 0.98877,0.30762 1.84571,0.90088 0.8789,0.59326 1.51611,1.56006 0.65918,0.94482 1.03271,2.3291 0.37354,1.38428 0.37354,3.2959 l 0,14.89746 z m -9.93164,-3.60352 q 1.77978,0 3.14209,-0.7251 1.38428,-0.72509 2.30713,-1.73584 l 0,-3.51562 q -0.9668,-0.50537 -2.26319,-0.81299 -1.29638,-0.30762 -2.65869,-0.30762 -1.05469,0 -1.97754,0.19776 -0.92285,0.19775 -1.62597,0.6372 -0.68116,0.41749 -1.07666,1.09864 -0.39551,0.65918 -0.39551,1.604 0,1.64795 1.14258,2.61475 1.16455,0.94482 3.40576,0.94482 z" />
      <path
         inkscape:connector-curvature="0"
         id="path4165"
         d="m 311.16872,220.96072 q -1.3623,0 -2.35107,-0.41748 -0.9668,-0.3955 -1.604,-1.14257 -0.61524,-0.74708 -0.90088,-1.80176 -0.28565,-1.07666 -0.28565,-2.37305 l 0,-13.75488 -3.55957,0 0,-4.06494 3.55957,0 0,-7.22901 4.68018,-2.26318 0,9.49219 5.44922,0 0,4.06494 -5.44922,0 0,12.54638 q 0,0.57129 0.0879,1.05469 0.10986,0.4834 0.35156,0.83496 0.26367,0.35157 0.70313,0.54932 0.43945,0.17578 1.1206,0.17578 1.66992,0 3.40576,-1.07666 l -0.57129,4.35059 q -0.96679,0.48339 -2.10937,0.76904 -1.14258,0.28564 -2.52686,0.28564 z" />
      <path
         inkscape:connector-curvature="0"
         id="path4167"
         d="m 321.60574,220.41141 0,-23.00537 4.68017,0 0,23.00537 -4.68017,0 z m 2.3291,-26.58692 q -0.59326,0 -1.12061,-0.21972 -0.50537,-0.21973 -0.90088,-0.59326 -0.37353,-0.39551 -0.59326,-0.90088 -0.21973,-0.52735 -0.21973,-1.12061 0,-0.59326 0.21973,-1.09863 0.21973,-0.52735 0.59326,-0.90088 0.39551,-0.39551 0.90088,-0.61524 0.52735,-0.21972 1.12061,-0.21972 0.59326,0 1.09863,0.21972 0.52734,0.21973 0.90088,0.61524 0.39551,0.37353 0.61523,0.90088 0.21973,0.50537 0.21973,1.09863 0,0.59326 -0.21973,1.12061 -0.21972,0.50537 -0.61523,0.90088 -0.37354,0.37353 -0.90088,0.59326 -0.50537,0.21972 -1.09863,0.21972 z" />
    </g>
  </g>
</svg>
