<?xml version="1.0" encoding="UTF-8" standalone="no"?>
<!-- Created with Inkscape (http://www.inkscape.org/) -->

<svg
   xmlns:dc="http://purl.org/dc/elements/1.1/"
   xmlns:cc="http://creativecommons.org/ns#"
   xmlns:rdf="http://www.w3.org/1999/02/22-rdf-syntax-ns#"
   xmlns:svg="http://www.w3.org/2000/svg"
   xmlns="http://www.w3.org/2000/svg"
   xmlns:sodipodi="http://sodipodi.sourceforge.net/DTD/sodipodi-0.dtd"
   xmlns:inkscape="http://www.inkscape.org/namespaces/inkscape"
   width="2196.5"
   height="1055.318"
   id="svg2"
   version="1.1"
   inkscape:version="0.91 r13725"
   sodipodi:docname="ORD.svg"
   inkscape:export-filename="C:\Users\Paul Bogard\Dropbox\Documents\Websites\Flight Log\Images\Terminals\ORD.png"
   inkscape:export-xdpi="90"
   inkscape:export-ydpi="90">
  <defs
     id="defs4" />
  <sodipodi:namedview
     id="base"
     pagecolor="#ffffff"
     bordercolor="#666666"
     borderopacity="1.0"
     inkscape:pageopacity="1"
     inkscape:pageshadow="2"
     inkscape:zoom="0.70710678"
     inkscape:cx="1351.1901"
     inkscape:cy="546.7723"
     inkscape:document-units="px"
     inkscape:current-layer="layer1"
     showgrid="false"
     fit-margin-top="25"
     fit-margin-left="25"
     fit-margin-right="25"
     fit-margin-bottom="25"
     inkscape:window-width="1680"
     inkscape:window-height="987"
     inkscape:window-x="1672"
     inkscape:window-y="-8"
     inkscape:window-maximized="1" />
  <metadata
     id="metadata7">
    <rdf:RDF>
      <cc:Work
         rdf:about="">
        <dc:format>image/svg+xml</dc:format>
        <dc:type
           rdf:resource="http://purl.org/dc/dcmitype/StillImage" />
        <dc:title />
      </cc:Work>
    </rdf:RDF>
  </metadata>
  <g
     inkscape:groupmode="layer"
     id="layer2"
     inkscape:label="Terminal"
     transform="translate(-880.18416,-445.86575)">
    <path
       id="path4911"
       style="fill:#dddddd;fill-opacity:1;stroke:#222222;stroke-width:1.5;stroke-miterlimit:4;stroke-dasharray:none;stroke-opacity:1"
       d="m 2407.5373,965.43463 5.7879,-2.85735 -4.2494,-8.35218 1.6118,-0.87919 -10.8852,-24.88674 c -2.3804,-0.36087 -4.0175,-2.58307 -3.6566,-4.96344 0.3609,-2.38038 2.5831,-4.01749 4.9635,-3.65656 2.3803,0.36087 4.0174,2.58307 3.6565,4.96345 -0.07,0.46208 -0.214,0.9099 -0.4262,1.32626 l 11.6232,25.31213 1.0989,-0.65935 3.7365,7.98587 7.0335,-3.66327 23.8844,52.67754 -1.0257,0.5129 54.9487,122.9386 c 0,0 10.1106,1.0258 7.2533,13.1877 l 29.2327,29.5991 15.8984,-16.0451 4.9089,5.4217 -15.459,15.7519 20.9538,20.6608 15.5322,-15.459 4.6157,4.6891 -11.5351,11.8836 21.2576,21.1533 11.3679,-11.5499 4.9187,4.9616 -11.1364,11.8689 1.0258,1.0257 5.6414,-5.9344 18.6093,17.9499 -5.6414,5.7146 0.9525,0.9525 11.2827,-11.2828 5.4217,5.275 -11.5026,11.6492 20.8072,21.0271 11.5759,-11.9422 4.8355,4.7622 -15.3124,16.2648 20.8073,20.8073 15.6054,-16.1916 4.9088,4.8355 -15.2392,16.1183 27.3279,27.7675 c 0,0 7.9859,-4.0296 12.3817,3.883 0.2931,-0.2198 254.5959,-0.9525 254.5959,-0.9525 l 0,-1.9049 c 0.2198,-0.1465 60.2239,0.1466 60.2239,0.1466 l 0,7.9859 8.2056,0.073 0.073,1.5386 2.891,0.073 c 1.6584,-1.8577 4.5459,-2.0516 6.4494,-0.4331 1.9036,1.6185 2.1022,4.4365 0.4438,6.2942 -1.6584,1.8577 -4.546,2.0515 -6.4495,0.433 -0.2358,-0.2004 -0.4499,-0.424 -0.6389,-0.6672 l -3.3552,0.088 0.073,1.3188 -4.1761,0.1465 0.1465,6.1543 -25.0566,0 0,-4.5424 -38.684,0.073 0,4.6157 -23.7378,0.073 0,-4.8355 -40.1492,0.2198 -0.073,4.6157 -23.9576,0.073 -0.1466,-4.4692 -39.8562,0.3663 -0.073,4.2493 -23.8111,-0.1464 0.073,-4.396 -40.0759,0.2199 0,4.3958 -24.1774,0.073 0,-3.9563 -36.4128,-0.073 c 0,0 -79.33,22.5741 -149.1648,-25.9165 l -45.6468,36.833 -39.6364,-40.5155 36.3395,-46.2302 c 0,0 -44.9115,-60.8832 -29.306,-139.2035 l -24.4705,-54.729 -3.8098,2.1979 -9.9641,-21.9795 4.1762,-2.1979 -12.6749,-28.0605 -4.1761,2.3445 -9.8175,-22.3458 4.1761,-1.9049 -12.7481,-28.20705 -4.1028,1.97815 z m -903.211,176.05587 -12.3085,-8.6454 2.198,-3.2236 12.7481,8.4988 z m -198.5481,-591.17536 26.4487,3.66325 c 0,0 -0.2198,3.07713 2.491,3.95631 0,0 2.5642,1.17224 3.883,-1.75836 0,0 13.7581,-46.53848 63.2849,-60.62976 l 0.3108,1.34696 27.9753,-10.56846 c 0,0 6.7348,-3.83366 2.2795,-11.29375 0,0 -3.4192,-5.18062 -9.8432,-2.79753 l -36.886,13.88405 c 0,0 -24.2453,9.63595 -40.5124,30.04759 l 4.8698,4.04088 c 0,0 -2.0723,2.07224 -4.7662,6.63119 l -34.7102,-4.9734 c 0,0 2.355,-13.9694 -11.8584,-16.46041 0,0 -14.9461,-3.22366 -17.7302,10.55016 l -44.8382,262.36196 -18.2026,-3.2231 -1.865,11.70819 18.0285,3.10838 -35.1246,211.88731 c 0,0 -4.3517,17.614 11.501,20.308 0,0 15.4383,2.4867 17.8213,-14.4022 l 9.2215,-52.53141 1.347,0.20723 1.0361,-7.66732 18.1322,2.79753 c 0,0 3.4543,32.14347 35.8375,53.68337 l -10.2571,14.1402 78.8331,54.8022 -5.0553,7.2532 1.3921,7.6196 9.8907,7.2532 -6.9601,10.1839 -5.1286,-3.7366 -56.6338,81.1776 -85.8666,32.3832 1.6851,5.1285 -19.1955,7.5463 -1.0989,-3.1504 -3.0039,1.099 -1.099,-2.7108 -132.7562,49.6004 1.099,2.7841 -3.2969,1.2455 4.4692,11.8689 2.8573,-1.392 0.8792,2.8573 132.8294,-49.6004 -1.2455,-2.7108 3.3702,-1.0257 -1.1722,-3.0772 14.0668,-4.9087 92.8268,64.3999 0,14.4332 -3.7365,0.073 0.073,3.1504 -2.9305,0.1465 -0.073,137.4452 c 0.3663,0.073 20.0013,0 20.0013,0 l 0.8059,-253.4969 29.9654,-42.6402 2.0514,1.4653 1.1723,-1.7584 0.8792,0.7326 2.0514,-3.0771 -3.3702,-2.1979 4.689,-6.5939 -4.689,-3.0771 -1.6118,2.3444 -1.6119,-0.8791 3.9564,-5.7147 4.8355,3.5167 16.5579,-23.1517 -5.2752,-3.6632 7.18,-9.9641 9.3779,6.7404 9.5245,-1.7584 4.8355,-7.0334 77.8074,55.0953 11.1363,-15.9718 28.5733,20.2211 c 0,0 -15.9717,27.9873 15.6787,43.2264 l 0,10.1106 -1.099,-0.073 0.2199,235.7668 20.8072,0 0.2931,-100.8127 1.5386,-0.073 c 0,0 6.374,-18.7559 -0.073,-36.7058 l -1.5386,-0.1465 -0.2198,-97.9553 -1.0257,-0.073 0,-10.5502 c 0,0 24.3775,-8.0861 18.886,-34.5072 l 1.7015,-0.66 0.8059,1.6851 29.5991,-21.1736 5.7147,7.6196 24.1774,-17.2173 7.473,9.9641 22.1261,-16.0451 -4.2494,-5.8612 24.6903,-16.9975 16.4113,8.0592 5.7147,-3.6633 58.9783,84.9142 0.2931,278.9931 18.6585,-0.023 13.0551,-7.6672 12.4335,0 -0.2072,-5.5951 6.424,0.1035 -0.3108,-16.7851 -5.906,0.1033 -0.1036,-5.4914 -12.4335,0 -6.4239,-4.3517 0,-15.1274 -3.1084,0 0,-18.5467 2.1759,0 0,-11.8117 -2.1759,-0.1037 0,-18.443 2.3831,0 0,-12.4334 -2.4813,-0.098 0.293,-24.5438 1.6852,0.073 0,-10.2571 2.491,0 0.073,-1.8316 -4.4692,0.073 c -0.293,-0.4396 0,-18.243 0,-18.243 l 2.4178,0 -0.1465,-7.6928 6.7404,-0.073 -0.1466,-10.9164 -6.5206,0.073 0,-8.2789 3.297,0 62.5683,-43.8125 0.5128,-1.9781 167.4349,62.3341 6.8385,39.7871 -5.5951,14.5057 24.867,9.5324 5.1806,-14.7129 32.327,-25.696 13.4697,5.1807 8.9106,-23.4164 -322.1826,-119.5687 -58.8049,-83.9259 6.0077,-4.3959 -2.198,-18.6093 31.504,-21.3933 3.9563,6.1542 15.9718,-11.1363 -6.887,-10.1106 84.9874,-58.75851 21.1004,7.54632 -1.6118,3.44344 6.9601,2.71082 1.3921,-3.80981 27.6209,10.62344 -1.1723,3.3702 6.1543,2.7108 1.2455,-3.8098 45.351,16.851 -1.392,3.2236 6.0077,2.2712 1.3921,-3.2969 33.7751,12.5283 -1.1722,3.3702 6.5938,2.7108 1.0258,-3.5899 16.8509,6.0809 24.1774,0 0,3.6633 9.3047,0.2198 -0.073,-3.9563 33.9217,0 -0.073,-25.9358 -11.9422,0 -0.073,-3.9563 -6.4473,0 -0.073,4.0295 -35.9731,0 0,-4.3958 -6.6671,0.073 0.073,4.3959 -1.3188,-0.073 -46.5965,-17.8766 1.2455,-3.297 -6.4474,-2.4177 -1.392,3.7365 -33.6287,-12.67482 1.5386,-3.51674 -6.8136,-2.41773 -1.3188,3.7365 -45.7906,-17.43705 -3.2969,2.7108 -9.671,-3.66324 7.2532,-5.27508 -24.617,-36.04638 -7.6196,5.56814 -3.6632,-4.83549 -264.3401,185.21389 3.6632,4.8355 -10.6967,7.3265 11.1363,15.0926 -9.2314,6.8869 -11.2828,-15.6787 c 0,0 -10.1106,3.9563 -22.5656,3.6632 0,0 -0.8792,-4.2493 -4.8355,-4.2493 0,0 -3.5167,-0.4396 -4.8355,3.2237 0,0 -13.4808,1.3187 -25.2032,-3.6633 l -7.6196,11.1363 -13.1877,-9.0849 6.4474,-8.4987 -10.2571,-7.0335 3.5167,-4.8355 -173.4915,-120.00805 -3.3702,4.8355 -10.1106,-7.03342 -10.2571,14.65297 c 0,0 -39.5939,-23.05143 -33.9988,-71.74925 l 2.2018,-11.77283 3.9563,0.73266 41.1749,-243.53287 -33.9949,-6.00772 c 0,-0.73265 12.162,-71.21358 12.162,-71.21358 l 8.6453,1.31876 z m -293.4996,81.39742 7.6196,-46.01042 c 0,0 3.3701,-16.1183 -13.3343,-19.0489 0,0 -14.21342,-3.22367 -18.46279,10.84322 l -27.25458,155.61486 -19.63502,-3.80979 -13.04117,81.03109 -14.35994,-2.34448 -7.76609,47.76879 14.06688,2.34448 -2.78407,17.58359 19.19543,3.3702 -25.20316,151.6585 c 0,0 -2.63754,17.1441 12.74811,19.9281 0,0 16.55789,2.198 19.34196,-12.6016 l 8.35221,-46.74305 -8.7918,-1.61178 4.24937,-25.49624 8.7918,1.61182 4.98202,-28.71987 -9.08486,-1.61184 4.3959,-25.64274 9.08486,1.90489 4.83549,-28.86641 -8.64527,-1.61184 3.80978,-25.49621 9.37792,1.4653 8.49874,-54.2161 9.23139,1.97815 1.61183,-11.28281 -8.7918,-1.61183 3.95631,-26.81499 -7.98589,-1.4653 3.88305,-25.49622 9.15812,1.4653 4.17611,-28.93967 -8.47817,-1.33267 3.93727,-25.28141 8.91066,1.45057 4.9734,-28.59701 -8.59983,-1.76141 4.14453,-25.07419 z"
       inkscape:connector-curvature="0" />
    <g
       style="font-style:normal;font-variant:normal;font-weight:normal;font-stretch:normal;font-size:36px;line-height:125%;font-family:Overpass;-inkscape-font-specification:Sans;letter-spacing:0px;word-spacing:0px;fill:#222222;fill-opacity:1;stroke:none"
       id="text2989" />
  </g>
  <g
     inkscape:groupmode="layer"
     id="layer1"
     inkscape:label="Label"
     transform="translate(0.2739746,7.5546646)">
    <g
       id="text3338"
       style="font-style:normal;font-variant:normal;font-weight:bold;font-stretch:normal;font-size:125px;line-height:125%;font-family:Overpass;-inkscape-font-specification:'Overpass, Bold';text-align:start;letter-spacing:0px;word-spacing:0px;writing-mode:lr-tb;text-anchor:start;fill:#dddddd;fill-opacity:1;stroke:#222222;stroke-width:0.25;stroke-linecap:butt;stroke-linejoin:miter;stroke-opacity:1;stroke-miterlimit:4;stroke-dasharray:none">
      <path
         inkscape:connector-curvature="0"
         id="path4142"
         d="m 1951.9877,107.96047 q -7.0801,0 -12.6953,-1.83105 -5.6153,-1.89209 -9.9488,-5.06592 -4.2724,-3.234864 -7.3242,-7.56836 -3.0517,-4.394531 -5.0049,-9.399414 -1.8921,-5.065918 -2.8076,-10.498047 -0.8545,-5.493164 -0.8545,-10.925293 0,-5.371094 0.8545,-10.803222 0.9155,-5.493165 2.8076,-10.498047 1.9532,-5.065918 5.0049,-9.399414 3.0518,-4.394532 7.3242,-7.56836 4.3335,-3.234863 9.9488,-5.065918 5.6152,-1.89209 12.6953,-1.89209 7.08,0 12.6342,1.89209 5.6153,1.831055 9.8877,5.065918 4.2725,3.173828 7.3243,7.56836 3.0517,4.333496 4.9438,9.399414 1.9531,5.004882 2.8076,10.498047 0.9156,5.432128 0.9156,10.803222 0,5.432129 -0.9156,10.925293 -0.8545,5.432129 -2.8076,10.498047 -1.8921,5.004883 -4.9438,9.399414 -3.0518,4.333496 -7.3243,7.56836 -4.2724,3.17383 -9.8877,5.06592 -5.5542,1.83105 -12.6342,1.83105 z m 0,-16.296385 q 5.8593,0 9.8266,-2.746582 4.0284,-2.746582 6.4698,-7.019043 2.5024,-4.272461 3.601,-9.338379 1.0987,-5.126953 1.0987,-9.887695 0,-3.356933 -0.4883,-6.774902 -0.4273,-3.479004 -1.4649,-6.652832 -1.0376,-3.234863 -2.6855,-6.042481 -1.648,-2.868652 -3.9673,-4.943847 -2.3193,-2.136231 -5.4321,-3.356934 -3.0518,-1.220703 -6.958,-1.220703 -3.9673,0 -7.0801,1.281738 -3.0518,1.281739 -5.4321,3.479004 -2.3194,2.136231 -3.9673,5.004883 -1.648,2.868652 -2.6856,6.103516 -1.0376,3.234863 -1.5258,6.591796 -0.4273,3.356934 -0.4273,6.530762 0,5.004883 1.0986,10.192871 1.0987,5.126953 3.5401,9.338379 2.5024,4.150391 6.5307,6.835938 4.0284,2.624511 9.9488,2.624511 z"
         style="stroke:#222222;stroke-opacity:1;stroke-width:0.25;stroke-miterlimit:4;stroke-dasharray:none" />
      <path
         inkscape:connector-curvature="0"
         id="path4144"
         d="m 2009.9711,106.43459 0,-87.524411 40.6494,0 q 8.3008,0 13.855,2.319336 5.6152,2.258301 9.0332,6.042481 3.4179,3.784179 4.8828,8.728027 1.4648,4.943848 1.4648,10.314941 0,3.723145 -1.0986,7.56836 -1.0376,3.784179 -3.1738,7.202148 -2.1363,3.417969 -5.3101,6.225586 -3.1738,2.746582 -7.3853,4.272461 l 16.9678,34.851071 -18.9819,0 -16.3574,-32.653805 -17.6392,0 0,32.653805 -16.9067,0 z m 40.8935,-48.645016 q 3.2349,0 5.4322,-0.915528 2.1972,-0.976562 3.54,-2.563476 1.3428,-1.586914 1.8921,-3.66211 0.6103,-2.075195 0.6103,-4.333496 0,-2.075195 -0.5493,-4.089355 -0.4883,-2.075195 -1.77,-3.66211 -1.2817,-1.647949 -3.54,-2.624511 -2.1973,-0.976563 -5.6153,-0.976563 l -23.9868,0 0,22.827149 23.9868,0 z"
         style="stroke:#222222;stroke-opacity:1;stroke-width:0.25;stroke-miterlimit:4;stroke-dasharray:none" />
      <path
         inkscape:connector-curvature="0"
         id="path4146"
         d="m 2099.3265,18.910179 29.5411,0 q 7.6293,0 13.7329,1.77002 6.1035,1.708984 10.8032,4.760742 4.7607,3.051758 8.1177,7.263183 3.3569,4.150391 5.4931,9.033204 2.1973,4.821777 3.1739,10.192871 1.0376,5.371093 1.0376,10.742187 0,5.004883 -0.9766,10.253906 -0.9155,5.187989 -2.9907,10.070801 -2.0752,4.821778 -5.4322,9.094238 -3.2959,4.272461 -8.1176,7.507325 -4.7608,3.173824 -11.0474,5.004884 -6.2866,1.83105 -14.3433,1.83105 l -28.9917,0 0,-87.524411 z m 31.0059,71.533203 q 6.5308,0 10.9863,-2.502441 4.4556,-2.563477 7.2022,-6.530762 2.7466,-4.02832 3.9673,-8.972168 1.2207,-4.943847 1.2207,-9.765625 0,-5.126953 -1.2818,-10.070801 -1.2817,-5.004882 -3.9673,-8.911132 -2.6245,-3.90625 -6.8359,-6.286622 -4.1504,-2.441406 -9.8877,-2.441406 l -15.5029,0 0,55.480957 14.0991,0 z"
         style="stroke:#222222;stroke-opacity:1;stroke-width:0.25;stroke-miterlimit:4;stroke-dasharray:none" />
    </g>
    <g
       id="text3342"
       style="font-style:normal;font-variant:normal;font-weight:normal;font-stretch:normal;font-size:45px;line-height:125%;font-family:Overpass;-inkscape-font-specification:Sans;letter-spacing:0px;word-spacing:0px;fill:#222222;fill-opacity:1;stroke:none;stroke-width:1px;stroke-linecap:butt;stroke-linejoin:miter;stroke-opacity:1">
      <path
         inkscape:connector-curvature="0"
         id="path4149"
         d="m 1860.7303,156.00745 q -2.4389,0 -4.3725,-0.65918 -1.9116,-0.68116 -3.3618,-1.82373 -1.4502,-1.16455 -2.4829,-2.72461 -1.0108,-1.58203 -1.648,-3.38379 -0.6372,-1.82373 -0.9448,-3.7793 -0.2857,-1.97754 -0.2857,-3.9331 0,-1.80176 0.2857,-3.71338 0.3076,-1.91162 0.9448,-3.71338 0.6592,-1.82373 1.6919,-3.42774 1.0327,-1.604 2.4829,-2.8125 1.4502,-1.20849 3.3618,-1.91162 1.9117,-0.70312 4.3286,-0.70312 2.2193,0 3.9991,0.54931 1.7798,0.52735 3.0981,1.40625 1.3403,0.87891 2.2412,1.99952 0.9009,1.1206 1.3843,2.28515 l -4.2847,1.99951 q -0.5713,-0.90088 -1.2085,-1.58203 -0.6152,-0.70312 -1.3842,-1.18652 -0.7471,-0.4834 -1.6919,-0.7251 -0.9449,-0.2417 -2.1534,-0.2417 -1.582,0 -2.8125,0.50537 -1.2084,0.50537 -2.1313,1.38428 -0.9009,0.87891 -1.5381,2.04346 -0.6372,1.16455 -1.0327,2.48291 -0.3735,1.29638 -0.5493,2.68066 -0.1758,1.38428 -0.1758,2.68067 0,2.0874 0.4614,4.19677 0.4834,2.10938 1.4942,3.80127 1.0107,1.6919 2.5708,2.74658 1.56,1.05469 3.7133,1.05469 1.1646,0 2.0874,-0.28564 0.9449,-0.30762 1.7139,-0.83496 0.791,-0.54932 1.4063,-1.29639 0.6372,-0.74707 1.1865,-1.64795 l 4.3725,1.66992 q -0.6591,1.53809 -1.6479,2.8125 -0.9668,1.27442 -2.3071,2.1753 -1.3184,0.90087 -3.0323,1.40625 -1.6919,0.50537 -3.7793,0.50537 z" />
      <path
         inkscape:connector-curvature="0"
         id="path4151"
         d="m 1891.58,155.45813 0,-13.73291 q 0,-1.4502 -0.3516,-2.46094 -0.3516,-1.03271 -0.9668,-1.66992 -0.6152,-0.65918 -1.4502,-0.94482 -0.835,-0.30762 -1.8237,-0.30762 -1.0547,0 -1.9556,0.28564 -0.9009,0.26368 -1.5601,0.87891 -0.6591,0.61523 -1.0546,1.64795 -0.3736,1.01074 -0.3736,2.48291 l 0,13.8208 -4.6802,0 0,-30.32227 4.6802,-2.17529 0,11.71143 q 1.1206,-1.42823 2.5708,-2.08741 1.4502,-0.65917 3.3618,-0.65917 1.8018,0 3.3179,0.52734 1.5161,0.50537 2.6148,1.66992 1.1206,1.16455 1.7358,3.03223 0.6152,1.86767 0.6152,4.57031 l 0,13.73291 -4.6801,0 z" />
      <path
         inkscape:connector-curvature="0"
         id="path4153"
         d="m 1902.808,155.45813 0,-23.00537 4.6802,0 0,23.00537 -4.6802,0 z m 2.3291,-26.58691 q -0.5933,0 -1.1206,-0.21973 -0.5054,-0.21973 -0.9009,-0.59326 -0.3735,-0.39551 -0.5933,-0.90088 -0.2197,-0.52735 -0.2197,-1.12061 0,-0.59326 0.2197,-1.09863 0.2198,-0.52734 0.5933,-0.90088 0.3955,-0.39551 0.9009,-0.61523 0.5273,-0.21973 1.1206,-0.21973 0.5932,0 1.0986,0.21973 0.5274,0.21972 0.9009,0.61523 0.3955,0.37354 0.6152,0.90088 0.2198,0.50537 0.2198,1.09863 0,0.59326 -0.2198,1.12061 -0.2197,0.50537 -0.6152,0.90088 -0.3735,0.37353 -0.9009,0.59326 -0.5054,0.21973 -1.0986,0.21973 z" />
      <path
         inkscape:connector-curvature="0"
         id="path4155"
         d="m 1923.1766,156.00745 q -2.3071,0 -4.1748,-0.81299 -1.8457,-0.81299 -3.164,-2.35108 -1.2964,-1.56005 -1.9995,-3.77929 -0.7032,-2.24121 -0.7032,-5.07569 0,-2.83447 0.7032,-5.07568 0.7031,-2.24121 1.9995,-3.7793 1.3183,-1.56006 3.164,-2.37304 1.8677,-0.83496 4.1748,-0.83496 3.208,0 5.4273,1.42822 2.2412,1.42822 3.2519,4.50439 l -4.4384,1.53809 q -0.5054,-1.31836 -1.5381,-2.13135 -1.0327,-0.83496 -2.5269,-0.83496 -1.3183,0 -2.3291,0.52734 -1.0107,0.52735 -1.7139,1.51612 -0.6811,0.96679 -1.0546,2.37304 -0.3516,1.38428 -0.3516,3.14209 0,1.75782 0.3516,3.16407 0.3735,1.38427 1.0327,2.35107 0.6811,0.9668 1.6479,1.49414 0.9888,0.50537 2.2412,0.50537 1.5821,0 2.7027,-0.8789 1.1426,-0.87891 1.6259,-2.50489 l 4.4385,1.40625 q -0.9228,3.20801 -3.1421,4.85596 -2.1972,1.62598 -5.625,1.62598 z" />
      <path
         inkscape:connector-curvature="0"
         id="path4157"
         d="m 1955.1908,155.45813 -4.4824,0 0,-1.97754 q -0.4395,0.46143 -1.0547,0.92285 -0.6152,0.43946 -1.4063,0.81299 -0.769,0.35156 -1.7358,0.57129 -0.9668,0.21973 -2.1094,0.21973 -1.7578,0 -3.2519,-0.4834 -1.4942,-0.4834 -2.5928,-1.4502 -1.0986,-0.98877 -1.7358,-2.41699 -0.6153,-1.45019 -0.6153,-3.36182 0,-1.97754 0.7471,-3.40576 0.7471,-1.45019 1.9775,-2.37304 1.2305,-0.94483 2.8125,-1.38428 1.604,-0.43946 3.2959,-0.43946 1.5821,0 3.0323,0.35157 1.4721,0.32959 2.6367,1.01074 l 0,-1.27441 q 0,-1.29639 -0.3076,-2.19727 -0.2857,-0.90088 -0.9009,-1.4502 -0.5933,-0.57128 -1.5161,-0.81298 -0.9229,-0.26368 -2.1973,-0.26368 -2.1533,0 -3.7354,0.57129 -1.56,0.57129 -2.8344,1.51612 l -1.3843,-3.84522 q 0.7031,-0.4834 1.604,-0.90088 0.9009,-0.43945 1.9775,-0.76904 1.0767,-0.32959 2.3291,-0.50537 1.2525,-0.19775 2.6807,-0.19775 0.9668,0 1.9995,0.10986 1.0327,0.10986 1.9995,0.43945 0.9888,0.30762 1.8457,0.90088 0.8789,0.59326 1.5161,1.56006 0.6592,0.94482 1.0328,2.3291 0.3735,1.38428 0.3735,3.2959 l 0,14.89746 z m -9.9316,-3.60352 q 1.7797,0 3.142,-0.72509 1.3843,-0.7251 2.3072,-1.73584 l 0,-3.51563 q -0.9668,-0.50537 -2.2632,-0.81299 -1.2964,-0.30761 -2.6587,-0.30761 -1.0547,0 -1.9775,0.19775 -0.9229,0.19775 -1.626,0.63721 -0.6812,0.41748 -1.0767,1.09863 -0.3955,0.65918 -0.3955,1.604 0,1.64795 1.1426,2.61475 1.1645,0.94482 3.4058,0.94482 z" />
      <path
         inkscape:connector-curvature="0"
         id="path4159"
         d="m 1966.9022,160.8634 q 2.5269,-0.15381 4.1748,-0.59326 1.648,-0.43945 2.6148,-1.1206 0.9668,-0.65918 1.3403,-1.56006 0.3735,-0.90088 0.3735,-1.95557 l 0,-2.02148 q -1.9116,2.39502 -5.5371,2.39502 -1.9775,0 -3.6914,-0.74707 -1.7138,-0.76905 -3.0102,-2.28516 -1.2744,-1.51611 -2.0215,-3.75732 -0.7251,-2.26319 -0.7251,-5.27344 0,-2.83447 0.7031,-5.05371 0.7031,-2.24121 1.9556,-3.7793 1.2744,-1.56006 3.0322,-2.37305 1.7578,-0.81298 3.8672,-0.81298 1.0107,0 1.8457,0.19775 0.835,0.17578 1.4941,0.4834 0.6812,0.30761 1.1866,0.70312 0.5273,0.37354 0.9008,0.76905 l 0,-1.62598 4.6802,0 0,21.24756 q 0,2.63672 -0.5273,4.48242 -0.5274,1.8457 -1.8018,3.16406 -0.8569,0.87891 -1.8896,1.42822 -1.0108,0.57129 -2.1314,0.92286 -1.0986,0.35156 -2.2412,0.50537 -1.1426,0.17578 -2.2412,0.26367 l -2.3511,-3.60352 z m 3.8233,-9.27246 q 1.4282,0 2.6587,-0.70312 1.2524,-0.70313 2.0214,-1.99951 l 0,-9.95362 q -0.3515,-0.57129 -0.8789,-1.03271 -0.5053,-0.4834 -1.1206,-0.83496 -0.5932,-0.35157 -1.2964,-0.52735 -0.6811,-0.19775 -1.3842,-0.19775 -2.7466,0 -4.1968,1.95557 -1.4282,1.93359 -1.4282,5.64697 0,1.75781 0.3955,3.18603 0.3955,1.40625 1.1206,2.39502 0.7251,0.98877 1.7578,1.53809 1.0547,0.52734 2.3511,0.52734 z" />
      <path
         inkscape:connector-curvature="0"
         id="path4161"
         d="m 1996.2357,156.00745 q -2.417,0 -4.3725,-0.81299 -1.9336,-0.81299 -3.2959,-2.35108 -1.3623,-1.56005 -2.1094,-3.77929 -0.7251,-2.24121 -0.7251,-5.07569 0,-2.83447 0.7251,-5.07568 0.7471,-2.24121 2.1094,-3.7793 1.3623,-1.56006 3.2959,-2.37304 1.9555,-0.83496 4.3725,-0.83496 2.395,0 4.3506,0.83496 1.9556,0.81298 3.3179,2.37304 1.3623,1.53809 2.1093,3.7793 0.7471,2.24121 0.7471,5.07568 0,2.83448 -0.7471,5.07569 -0.747,2.21924 -2.1093,3.77929 -1.3623,1.53809 -3.3179,2.35108 -1.9556,0.81299 -4.3506,0.81299 z m 0,-4.41651 q 1.3403,0 2.417,-0.52734 1.0986,-0.52735 1.8457,-1.49414 0.7691,-0.98877 1.1646,-2.39502 0.4174,-1.40625 0.4174,-3.18604 0,-1.77978 -0.4174,-3.18603 -0.3955,-1.42822 -1.1646,-2.41699 -0.7471,-0.98877 -1.8457,-1.51612 -1.0767,-0.52734 -2.417,-0.52734 -1.3403,0 -2.417,0.52734 -1.0766,0.52735 -1.8457,1.51612 -0.747,0.98877 -1.1645,2.41699 -0.3955,1.40625 -0.3955,3.18603 0,1.77979 0.3955,3.18604 0.4175,1.40625 1.1645,2.39502 0.7691,0.96679 1.8457,1.49414 1.0767,0.52734 2.417,0.52734 z" />
      <path
         inkscape:connector-curvature="0"
         id="path4163"
         d="m 2011.2211,144.55969 0,-4.04297 17.7758,0 0,4.04297 -17.7758,0 z" />
      <path
         inkscape:connector-curvature="0"
         id="path4165"
         d="m 2047.9594,156.00745 q -2.5269,0 -4.5264,-0.65918 -1.9995,-0.68116 -3.5376,-1.82373 -1.5161,-1.16455 -2.5928,-2.72461 -1.0766,-1.58203 -1.7578,-3.38379 -0.6812,-1.82373 -1.0107,-3.7793 -0.3077,-1.97754 -0.3077,-3.9331 0,-1.9336 0.3077,-3.88916 0.3295,-1.97754 1.0107,-3.7793 0.6812,-1.82373 1.7578,-3.38379 1.0767,-1.58203 2.5928,-2.72461 1.5381,-1.16455 3.5376,-1.82373 1.9995,-0.68115 4.5264,-0.68115 2.5268,0 4.5263,0.68115 1.9995,0.65918 3.5156,1.82373 1.5381,1.14258 2.6148,2.72461 1.0766,1.56006 1.7578,3.38379 0.6812,1.80176 0.9888,3.7793 0.3076,1.95556 0.3076,3.88916 0,1.95556 -0.3076,3.9331 -0.3076,1.95557 -0.9888,3.7793 -0.6812,1.80176 -1.7578,3.38379 -1.0767,1.56006 -2.6148,2.72461 -1.5161,1.14257 -3.5156,1.82373 -1.9995,0.65918 -4.5263,0.65918 z m 0,-4.5044 q 1.6479,0 2.9443,-0.50537 1.2964,-0.52734 2.2632,-1.40625 0.9887,-0.87891 1.6699,-2.04346 0.7031,-1.18652 1.1426,-2.48291 0.4394,-1.31836 0.6372,-2.68066 0.1977,-1.38428 0.1977,-2.68066 0,-1.36231 -0.1977,-2.76856 -0.1978,-1.42822 -0.6372,-2.72461 -0.4395,-1.31836 -1.1426,-2.46094 -0.6812,-1.14257 -1.6699,-1.97754 -0.9668,-0.85693 -2.2632,-1.34033 -1.2964,-0.50537 -2.9443,-0.50537 -1.648,0 -2.9444,0.52735 -1.2964,0.50537 -2.2851,1.38427 -0.9888,0.87891 -1.6919,2.06543 -0.6812,1.16455 -1.1206,2.48291 -0.4395,1.29639 -0.6372,2.68067 -0.1978,1.3623 -0.1978,2.63672 0,2.06543 0.4614,4.1748 0.4614,2.0874 1.5161,3.80127 1.0547,1.69189 2.7466,2.76855 1.6919,1.05469 4.1529,1.05469 z" />
      <path
         inkscape:connector-curvature="0"
         id="path4167"
         d="m 2066.4603,134.672 q 0.3076,-0.26367 0.7251,-0.74707 0.4395,-0.50537 0.857,-1.12061 0.4174,-0.63721 0.7251,-1.34033 0.3295,-0.7251 0.4394,-1.47217 -0.5933,-0.0439 -1.1426,-0.28564 -0.5493,-0.26368 -0.9668,-0.65918 -0.3955,-0.41748 -0.6591,-0.9668 -0.2417,-0.57129 -0.2417,-1.25244 0,-0.76904 0.2636,-1.38428 0.2857,-0.63721 0.7251,-1.07666 0.4615,-0.46142 1.0547,-0.70312 0.6152,-0.2417 1.2744,-0.2417 0.7032,0 1.3404,0.26367 0.6591,0.2417 1.1425,0.74707 0.5054,0.50537 0.7911,1.27441 0.2856,0.76905 0.2856,1.80176 0,1.29639 -0.3955,2.52686 -0.3735,1.23047 -1.0327,2.30713 -0.6592,1.05468 -1.5601,1.95556 -0.8789,0.87891 -1.8677,1.49414 l -1.7578,-1.1206 z" />
      <path
         inkscape:connector-curvature="0"
         id="path4169"
         d="m 2097.7274,155.45813 0,-14.04053 -14.3701,0 0,14.04053 -4.6802,0 0,-31.50879 4.6802,0 0,13.05176 14.3701,0 0,-13.05176 4.6802,0 0,31.50879 -4.6802,0 z" />
      <path
         inkscape:connector-curvature="0"
         id="path4171"
         d="m 2127.4564,155.45813 -4.4824,0 0,-1.97754 q -0.4395,0.46143 -1.0547,0.92285 -0.6152,0.43946 -1.4062,0.81299 -0.7691,0.35156 -1.7359,0.57129 -0.9668,0.21973 -2.1094,0.21973 -1.7578,0 -3.2519,-0.4834 -1.4941,-0.4834 -2.5928,-1.4502 -1.0986,-0.98877 -1.7358,-2.41699 -0.6153,-1.45019 -0.6153,-3.36182 0,-1.97754 0.7471,-3.40576 0.7471,-1.45019 1.9776,-2.37304 1.2304,-0.94483 2.8125,-1.38428 1.604,-0.43946 3.2959,-0.43946 1.582,0 3.0322,0.35157 1.4721,0.32959 2.6367,1.01074 l 0,-1.27441 q 0,-1.29639 -0.3076,-2.19727 -0.2857,-0.90088 -0.9009,-1.4502 -0.5933,-0.57128 -1.5161,-0.81298 -0.9229,-0.26368 -2.1973,-0.26368 -2.1533,0 -3.7353,0.57129 -1.5601,0.57129 -2.8345,1.51612 l -1.3843,-3.84522 q 0.7031,-0.4834 1.604,-0.90088 0.9009,-0.43945 1.9776,-0.76904 1.0766,-0.32959 2.3291,-0.50537 1.2524,-0.19775 2.6806,-0.19775 0.9668,0 1.9995,0.10986 1.0328,0.10986 1.9996,0.43945 0.9887,0.30762 1.8457,0.90088 0.8789,0.59326 1.5161,1.56006 0.6592,0.94482 1.0327,2.3291 0.3735,1.38428 0.3735,3.2959 l 0,14.89746 z m -9.9316,-3.60352 q 1.7798,0 3.1421,-0.72509 1.3842,-0.7251 2.3071,-1.73584 l 0,-3.51563 q -0.9668,-0.50537 -2.2632,-0.81299 -1.2964,-0.30761 -2.6587,-0.30761 -1.0547,0 -1.9775,0.19775 -0.9229,0.19775 -1.626,0.63721 -0.6811,0.41748 -1.0767,1.09863 -0.3955,0.65918 -0.3955,1.604 0,1.64795 1.1426,2.61475 1.1646,0.94482 3.4058,0.94482 z" />
      <path
         inkscape:connector-curvature="0"
         id="path4173"
         d="m 2133.8285,155.45813 0,-23.00537 4.6802,0 0,2.79053 q 0.813,-1.75782 2.1093,-2.52686 1.2964,-0.79101 3.0103,-0.79101 2.2852,0 3.8672,1.38427 l -0.6812,4.32862 q -0.6372,-0.43946 -1.5161,-0.76905 -0.8569,-0.35156 -2.1094,-0.35156 -0.791,0 -1.6259,0.28564 -0.813,0.26368 -1.4942,0.9668 -0.6811,0.68115 -1.1206,1.8457 -0.4394,1.14258 -0.4394,2.92237 l 0,12.91992 -4.6802,0 z" />
      <path
         inkscape:connector-curvature="0"
         id="path4175"
         d="m 2161.3383,156.00745 q -2.3951,0 -4.3287,-0.81299 -1.9336,-0.83496 -3.2959,-2.37305 -1.3623,-1.56006 -2.1093,-3.80127 -0.7251,-2.24121 -0.7251,-5.07568 0,-2.83447 0.747,-5.05371 0.7471,-2.24121 2.1094,-3.7793 1.3843,-1.56006 3.2959,-2.37305 1.9336,-0.81298 4.3067,-0.81298 2.0434,0 3.8232,0.65917 1.8018,0.63721 3.1421,1.97754 1.3623,1.31836 2.1313,3.33985 0.7911,2.02148 0.7911,4.76806 0,0.74707 -0.044,1.58204 -0.022,0.83496 -0.1318,1.45019 l -15.4908,0 q 0.022,1.42822 0.5054,2.5708 0.5054,1.12061 1.3184,1.9336 0.813,0.79101 1.8457,1.23046 1.0327,0.41748 2.1533,0.41748 1.4282,0 2.6367,-0.59326 1.2305,-0.59326 2.1314,-1.73584 l 3.0542,3.14209 q -1.2525,1.49414 -3.208,2.41699 -1.9556,0.92286 -4.6582,0.92286 z m 0,-19.95118 q -1.0987,0 -2.1094,0.32959 -1.0108,0.30762 -1.8018,1.01075 -0.769,0.68115 -1.2744,1.80175 -0.5054,1.12061 -0.5933,2.72461 l 10.9864,0 q -0.044,-1.604 -0.5054,-2.72461 -0.4614,-1.1206 -1.2085,-1.80175 -0.7471,-0.70313 -1.6699,-1.01075 -0.9009,-0.32959 -1.8237,-0.32959 z" />
    </g>
  </g>
</svg>
